<?xml version="1.0" encoding="utf-8"?>
<svg xmlns="http://www.w3.org/2000/svg" height="16" width="16" viewBox="0 0 16 16">
  <g>
    <path id="path1" transform="rotate(0,8,8) translate(0,0) scale(0.0333333333333333,0.0333333333333333)  " fill="#FFFFFF" d="M224,320L256,320 256,352 224,352 224,320z M224,128L256,128 256,288 224,288 224,128z M240,31.9999980926514L225.765625,32.4687652587891 211.8125,33.8750228881836 198.140625,36.2187652587891 184.75,39.5 171.7109375,43.6250152587891 159.09375,48.5000228881836 146.8984375,54.1250152587891 135.125,60.5 123.8203125,67.5937652587891 113.03125,75.3750305175781 102.7578125,83.8437728881836 93,93 83.84375,102.757820129395 75.375,113.031265258789 67.59375,123.820320129395 60.5,135.125 54.125,146.906265258789 48.5,159.125 43.625,171.78125 39.5,184.875 36.21875,198.3046875 33.875,211.96875 32.46875,225.8671875 31.9999980926514,240 32.46875,254.1328125 33.875,268.03125 36.21875,281.6953125 39.5,295.125 43.625,308.21875 48.5,320.875 54.125,333.09375 60.5,344.875 67.59375,356.1796875 75.375,366.96875 83.84375,377.2421875 93,387 102.7578125,396.15625 113.03125,404.625 123.8203125,412.40625 135.125,419.5 146.8984375,425.875 159.09375,431.5 171.7109375,436.375 184.75,440.5 198.140625,443.78125 211.8125,446.125 225.765625,447.53125 240,448 254.1328125,447.53125 268.03125,446.125 281.6953125,443.78125 295.125,440.5 308.21875,436.375 320.875,431.5 333.09375,425.875 344.875,419.5 356.1796875,412.40625 366.96875,404.625 377.2421875,396.15625 387,387 396.15625,377.2421875 404.625,366.96875 412.40625,356.1796875 419.5,344.875 425.875,333.1015625 431.5,320.90625 436.375,308.2890625 440.5,295.25 443.78125,281.859375 446.125,268.1875 447.53125,254.234390258789 448,240 447.53125,225.8671875 446.125,211.96875 443.78125,198.3046875 440.5,184.875 436.375,171.78125 431.5,159.125 425.875,146.906265258789 419.5,135.125 412.40625,123.820320129395 404.625,113.031265258789 396.15625,102.757820129395 387,93 377.2421875,83.8437728881836 366.96875,75.3750305175781 356.1796875,67.5937652587891 344.875,60.5 333.09375,54.1250152587891 320.875,48.5000228881836 308.21875,43.6250152587891 295.125,39.5 281.6953125,36.2187652587891 268.03125,33.8750228881836 254.1328125,32.4687652587891 240,31.9999980926514z M240,0L256.4609375,0.531251430511475 272.59375,2.12500381469727 288.3984375,4.78125381469727 303.875,8.49999904632568 318.9453125,13.1953268051147 333.53125,18.7812728881836 347.6328125,25.257833480835 361.25,32.6250038146973 374.3203125,40.8281364440918 386.78125,49.8125152587891 398.6328125,59.5781364440918 409.875,70.125 420.421875,81.3672103881836 430.1875,93.2187728881836 439.171875,105.679702758789 447.375,118.75 454.7421875,132.3671875 461.21875,146.46875 466.8046875,161.0546875 471.5,176.125 475.218719482422,191.601577758789 477.874969482422,207.406265258789 479.468719482422,223.5390625 480,240 479.468719482422,256.4609375 477.874969482422,272.59375 475.218719482422,288.3984375 471.5,303.875 466.8046875,318.9453125 461.21875,333.53125 454.7421875,347.6328125 447.375,361.25 439.171875,374.3203125 430.1875,386.78125 420.421875,398.6328125 409.875,409.875 398.6328125,420.421875 386.78125,430.1875 374.3203125,439.171875 361.25,447.375 347.6328125,454.7421875 333.53125,461.21875 318.9453125,466.8046875 303.875,471.5 288.3984375,475.21875 272.59375,477.875 256.4609375,479.46875 240,480 223.5390625,479.46875 207.40625,477.875 191.6015625,475.21875 176.125,471.5 161.0546875,466.8046875 146.46875,461.21875 132.3671875,454.7421875 118.75,447.375 105.6796875,439.171875 93.21875,430.1875 81.3671875,420.421875 70.125,409.875 59.578125,398.6328125 49.8125,386.78125 40.828125,374.3203125 32.6250038146973,361.25 25.2578144073486,347.6328125 18.78125,333.53125 13.1953115463257,318.9453125 8.49999904632568,303.875 4.78124952316284,288.3984375 2.125,272.59375 0.53125,256.4609375 0,240 0.53125,223.5390625 2.125,207.406265258789 4.78124952316284,191.601577758789 8.49999904632568,176.125 13.1953115463257,161.0546875 18.78125,146.46875 25.2578144073486,132.3671875 32.6250038146973,118.75 40.828125,105.679702758789 49.8125,93.2187728881836 59.578125,81.3672103881836 70.125,70.125 81.3671875,59.5781364440918 93.21875,49.8125152587891 105.6796875,40.8281364440918 118.75,32.6250038146973 132.3671875,25.257833480835 146.46875,18.7812728881836 161.0546875,13.1953268051147 176.125,8.49999904632568 191.6015625,4.78125381469727 207.40625,2.12500381469727 223.5390625,0.531251430511475 240,0z" />
  </g>
</svg>

