<?xml version="1.0" encoding="utf-8"?>
<svg xmlns="http://www.w3.org/2000/svg" height="16" width="16" viewBox="0 0 16 16">
  <g>
    <path id="path1" transform="rotate(0,8,8) translate(0,0.5) scale(0.03125,0.03125)  " fill="#000000" d="M16,384L304,384 307.140625,384.296875 310.0625,385.1875 312.765625,386.671875 315.25,388.75 317.328125,391.234375 318.8125,393.9375 319.703125,396.859375 320,400 319.703125,403.140625 318.8125,406.0625 317.328125,408.765625 315.25,411.25 312.765625,413.328125 310.0625,414.8125 307.140625,415.703125 304,416 16,416 12.859375,415.703125 9.9375,414.8125 7.234375,413.328125 4.75,411.25 2.671875,408.765625 1.1875,406.0625 0.296875,403.140625 0,400 0.296875,396.859375 1.1875,393.9375 2.671875,391.234375 4.75,388.75 7.234375,386.671875 9.9375,385.1875 12.859375,384.296875 16,384z M16,224L496,224 499.140625,224.296875 502.0625,225.1875 504.765625,226.671875 507.25,228.75 509.328125,231.234390258789 510.8125,233.937515258789 511.703125,236.859390258789 512,240 511.703125,243.140625 510.8125,246.0625 509.328125,248.765625 507.25,251.25 504.765625,253.328140258789 502.0625,254.8125 499.140625,255.703125 496,256 16,256 12.859375,255.703125 9.9375,254.8125 7.234375,253.328140258789 4.75,251.25 2.671875,248.765625 1.1875,246.0625 0.296875,243.140625 0,240 0.296875,236.859390258789 1.1875,233.937515258789 2.671875,231.234390258789 4.75,228.75 7.234375,226.671875 9.9375,225.1875 12.859375,224.296875 16,224z M16,64L368,64 371.140625,64.296875 374.0625,65.1875 376.765625,66.6718826293945 379.25,68.75 381.328125,71.2343902587891 382.8125,73.9375152587891 383.703125,76.8593902587891 384,80 383.703125,83.1406326293945 382.8125,86.0625076293945 381.328125,88.7656326293945 379.25,91.25 376.765625,93.3281326293945 374.0625,94.8125076293945 371.140625,95.703125 368,96 16,96 12.859375,95.703125 9.9375,94.8125076293945 7.234375,93.3281326293945 4.75,91.25 2.671875,88.7656326293945 1.1875,86.0625076293945 0.296875,83.1406326293945 0,80 0.296875,76.8593902587891 1.1875,73.9375152587891 2.671875,71.2343902587891 4.75,68.75 7.234375,66.6718826293945 9.9375,65.1875 12.859375,64.296875 16,64z" />
  </g>
</svg>
