<?xml version="1.0" encoding="utf-8"?>
<svg id="" width="16" height="16" style="width:16px;height:16px;" version="1.1"
    xmlns="http://www.w3.org/2000/svg" viewBox="0 0 2048 2048" enable-background="new 0 0 2048 2048"
    xml:space="preserve"><path fill="#ffffff" d="M192 2048 q-39 0 -74 -15 q-35 -15 -61.5 -41.5 q-26.5 -26.5 -41.5 -61.5 q-15 -35 -15 -74 l0 -1664 q0 -39 15 -74 q15 -35 41.5 -61.5 q26.5 -26.5 61.5 -41.5 q35 -15 74 -15 l128 0 q39 0 74 15 q35 15 61.5 41.5 q26.5 26.5 41.5 61.5 q15 35 15 74 l0 1664 q0 39 -15 74 q-15 35 -41.5 61.5 q-26.5 26.5 -61.5 41.5 q-35 15 -74 15 l-128 0 ZM832 2048 q-39 0 -74 -15 q-35 -15 -61.5 -41.5 q-26.5 -26.5 -41.5 -61.5 q-15 -35 -15 -74 l0 -1664 q0 -39 15 -74 q15 -35 41.5 -61.5 q26.5 -26.5 61.5 -41.5 q35 -15 74 -15 l128 0 q39 0 74 15 q35 15 61.5 41.5 q26.5 26.5 41.5 61.5 q15 35 15 74 l0 1664 q0 39 -15 74 q-15 35 -41.5 61.5 q-26.5 26.5 -61.5 41.5 q-35 15 -74 15 l-128 0 ZM320 1920 q26 0 45 -19 q19 -19 19 -45 l0 -1664 q0 -26 -19 -45 q-19 -19 -45 -19 l-128 0 q-26 0 -45 19 q-19 19 -19 45 l0 1664 q0 26 19 45 q19 19 45 19 l128 0 ZM960 1920 q26 0 45 -19 q19 -19 19 -45 l0 -1664 q0 -26 -19 -45 q-19 -19 -45 -19 l-128 0 q-26 0 -45 19 q-19 19 -19 45 l0 1664 q0 26 19 45 q19 19 45 19 l128 0 ZM1281 603 q0 -66 38.5 -116 q38.5 -50 101.5 -69 q36 -11 74 -23 q38 -12 76 -12 q33 0 63.5 11.5 q30.5 11.5 55 31.5 q24.5 20 42 47.5 q17.5 27.5 25.5 59.5 l286 1245 q5 23 5 43 q0 67 -39.5 117.5 q-39.5 50.5 -103.5 68.5 q-42 12 -86.5 26 q-44.5 14 -89.5 14 q-34 0 -65 -11.5 q-31 -11.5 -56 -31.5 q-25 -20 -42.5 -48.5 q-17.5 -28.5 -24.5 -61.5 l-256 -1253 q-4 -17 -4 -38 ZM1920 1822 q0 -5 -2 -15 l-286 -1246 q-5 -21 -22.5 -35 q-17.5 -14 -39.5 -14 q-26 0 -57.5 10.5 q-31.5 10.5 -57.5 18.5 q-20 6 -33 23.5 q-13 17.5 -13 38.5 q0 3 0 6.5 q0 3.5 1 6.5 l256 1252 q5 23 22.5 37 q17.5 14 40.5 14 q12 0 31 -4 q19 -4 39.5 -10 q20.5 -6 40 -12 q19.5 -6 32.5 -10 q20 -6 34 -22.5 q14 -16.5 14 -38.5 Z"/></svg>