<?xml version="1.0" encoding="utf-8"?>
<svg xmlns="http://www.w3.org/2000/svg" height="16" width="16" viewBox="0 0 16 16">
  <g>
    <path id="path1"
      transform="rotate(0,8,8) translate(-1.8,-1.5) scale(0.0374926772114821,0.0374926772114821)  "
      fill="#000000"
      d="M106.75,170.5L111.1875,170.90625 115,172.125 118.4375,174.15625 121.75,177 256,311.25 390.25,177 393.625,174.156265258789 397.25,172.125 401.125,170.90625 405.25,170.5 409.59375,170.9375 413.625,172.25 417.25,174.281265258789 420.375,176.875 422.96875,180.000015258789 425,183.625 426.312469482422,187.65625 426.75,192 426.359344482422,196.21875 425.187469482422,200.125 423.234344482422,203.71875 420.5,207 271,356.5 267.71875,359.234375 264.125,361.1875 260.21875,362.359375 256,362.75 251.78125,362.359375 247.875,361.1875 244.28125,359.234375 241,356.5 91.5,207 88.765625,203.71875 86.8125,200.125 85.640625,196.21875 85.25,192 85.6875,187.65625 87,183.625 89.03125,180.000015258789 91.625,176.875 94.75,174.281265258789 98.375,172.25 102.40625,170.9375 106.75,170.5z" />
  </g>
</svg>