<?xml version="1.0" encoding="utf-8"?>
<svg xmlns="http://www.w3.org/2000/svg" height="16" width="16" viewBox="0 0 16 16">
  <g>
    <path id="path1" transform="rotate(0,8,8) translate(0,0) scale(0.0333333333333333,0.0333333333333333)  " fill="#000000" d="M110.25,128L160,128 160,160 112,160 107.1875,160.234375 102.5,160.9375 97.9375,162.109375 93.5,163.75 85.28125,168.21875 78.125,174.125 72.21875,181.281265258789 67.75,189.5 66.109375,193.9375 64.9375,198.5 64.234375,203.1875 64,208 64,400 64.234375,404.8125 64.9375,409.5 66.109375,414.0625 67.75,418.5 72.21875,426.71875 78.125,433.875 85.28125,439.78125 93.5,444.25 97.9375,445.890625 102.5,447.0625 107.1875,447.765625 112,448 240,448 247.5625,447.4375 254.75,445.75 261.5,443 267.75,439.25 273.375,434.59375 278.25,429.125 282.25,422.90625 285.25,416 318.5,416 316.8359375,422.75 314.59375,429.25 311.7734375,435.5 308.375,441.5 304.4921875,447.171875 300.21875,452.4375 295.5546875,457.296875 290.5,461.75 285.09375,465.7734375 279.375,469.34375 273.34375,472.4609375 267,475.125 260.4375,477.2578125 253.749984741211,478.78125 246.9375,479.6953125 240,480 110.25,480 102.46875,479.6015625 94.875,478.40625 87.46875,476.4140625 80.25,473.625 73.3515625,470.171875 66.90625,466.1875 60.9140586853027,461.671875 55.375,456.625 50.328125,451.0859375 45.8125,445.09375 41.828125,438.6484375 38.375,431.75 35.5859375,424.53125 33.59375,417.125 32.3984375,409.53125 32,401.75 32,206.25 32.3984375,198.46875 33.59375,190.875 35.5859375,183.46875 38.375,176.25 41.828125,169.3515625 45.8125,162.90625 50.328125,156.9140625 55.375,151.375 60.9140586853027,146.328140258789 66.90625,141.8125 73.3515625,137.828125 80.25,134.375 87.46875,131.5859375 94.875,129.59375 102.46875,128.3984375 110.25,128z M272,64L267.1875,64.234375 262.5,64.9375 257.9375,66.109375 253.5,67.75 245.28125,72.21875 238.125,78.125 232.21875,85.2812652587891 227.75,93.5 226.109375,97.9375076293945 224.9375,102.5 224.234375,107.1875 224,112 224,304 224.234375,308.8125 224.9375,313.5 226.109375,318.0625 227.75,322.5 232.21875,330.71875 238.125,337.875 245.28125,343.78125 253.5,348.25 257.9375,349.890625 262.5,351.0625 267.1875,351.765625 272,352 400,352 404.8125,351.765625 409.5,351.0625 414.0625,349.890625 418.5,348.25 426.71875,343.78125 433.875,337.875 439.78125,330.71875 444.25,322.5 445.890625,318.0625 447.0625,313.5 447.765625,308.8125 448,304 448,112 447.765625,107.1875 447.0625,102.5 445.890625,97.9375076293945 444.25,93.5 439.78125,85.2812652587891 433.875,78.125 426.71875,72.21875 418.5,67.75 414.0625,66.109375 409.5,64.9375 404.8125,64.234375 400,64 272,64z M270.25,32L401.75,32 409.53125,32.3984527587891 417.125,33.5937728881836 424.53125,35.5859527587891 431.75,38.375 438.6484375,41.8281402587891 445.09375,45.8125190734863 451.0859375,50.3281364440918 456.625,55.375 461.671875,60.9140663146973 466.187469482422,66.90625 470.171844482422,73.3515625 473.625,80.25 476.414031982422,87.46875 478.406219482422,94.875 479.601531982422,102.46875 480,110.25 480,305.75 479.601531982422,313.53125 478.406219482422,321.125 476.414031982422,328.53125 473.625,335.75 470.171844482422,342.6484375 466.187469482422,349.09375 461.671875,355.0859375 456.625,360.625 451.0859375,365.671875 445.09375,370.1875 438.6484375,374.171875 431.75,377.625 424.53125,380.4140625 417.125,382.40625 409.53125,383.6015625 401.75,384 270.25,384 262.46875,383.6015625 254.875,382.40625 247.46875,380.4140625 240.25,377.625 233.3515625,374.171875 226.90625,370.1875 220.9140625,365.671875 215.375,360.625 210.328125,355.0859375 205.812484741211,349.09375 201.828109741211,342.6484375 198.375,335.75 195.5859375,328.53125 193.59375,321.125 192.3984375,313.53125 192,305.75 192,110.25 192.3984375,102.46875 193.59375,94.875 195.5859375,87.46875 198.375,80.25 201.828109741211,73.3515625 205.812484741211,66.90625 210.328125,60.9140663146973 215.375,55.375 220.9140625,50.3281364440918 226.90625,45.8125190734863 233.3515625,41.8281402587891 240.25,38.375 247.46875,35.5859527587891 254.875,33.5937728881836 262.46875,32.3984527587891 270.25,32z" />
  </g>
</svg>

