<?xml version="1.0" encoding="utf-8"?>
<svg xmlns="http://www.w3.org/2000/svg" height="16" width="16" viewBox="0 0 16 16">
  <g>
    <path id="path1" transform="rotate(0,8,8) translate(0,0) scale(0.03125,0.03125)  " fill="#000000" d="M368,288L364.859375,288.296875 361.9375,289.1875 359.234375,290.671875 356.75,292.75 354.671875,295.234375 353.1875,297.9375 352.296875,300.859375 352,304 352,352 304,352 300.859375,352.296875 297.9375,353.1875 295.234375,354.671875 292.75,356.75 290.671875,359.234375 289.1875,361.9375 288.296875,364.859375 288,368 288.296875,371.140625 289.1875,374.0625 290.671875,376.765625 292.75,379.25 295.234375,381.328125 297.9375,382.8125 300.859375,383.703125 304,384 352,384 352,432 352.296875,435.140625 353.1875,438.0625 354.671875,440.765625 356.75,443.25 359.234375,445.328125 361.9375,446.8125 364.859375,447.703125 368,448 371.140625,447.703125 374.0625,446.8125 376.765625,445.328125 379.25,443.25 381.328125,440.765625 382.8125,438.0625 383.703125,435.140625 384,432 384,384 432,384 435.140625,383.703125 438.0625,382.8125 440.765625,381.328125 443.25,379.25 445.328125,376.765625 446.8125,374.0625 447.703125,371.140625 448,368 447.703125,364.859375 446.8125,361.9375 445.328125,359.234375 443.25,356.75 440.765625,354.671875 438.0625,353.1875 435.140625,352.296875 432,352 384,352 384,304 383.703125,300.859375 382.8125,297.9375 381.328125,295.234375 379.25,292.75 376.765625,290.671875 374.0625,289.1875 371.140625,288.296875 368,288z M368,224L377.789031982422,224.3203125 387.406219482422,225.28125 396.851531982422,226.8828125 406.125,229.125 415.164031982422,231.953140258789 423.906219482422,235.3125 432.3515625,239.203125 440.5,243.625 448.328125,248.5546875 455.8125,253.96875 462.953125,259.8671875 469.75,266.25 476.1328125,273.046875 482.031219482422,280.1875 487.445281982422,287.671875 492.375,295.5 496.796844482422,303.6484375 500.687469482422,312.09375 504.046875,320.8359375 506.875,329.875 509.1171875,339.1484375 510.71875,348.59375 511.6796875,358.2109375 512,368 511.2890625,382.65625 509.15625,396.875 505.6015625,410.65625 500.625,424 494.4296875,436.703125 487.21875,448.5625 478.9921875,459.578125 469.75,469.75 459.578125,478.9921875 448.5625,487.21875 436.703125,494.4296875 424,500.625 410.65625,505.6015625 396.875,509.15625 382.65625,511.2890625 368,512 353.234375,511.296875 338.9375,509.1875 325.109375,505.671875 311.75,500.75 299.046875,494.609375 287.1875,487.4375 276.171875,479.234375 266,470 256.765625,459.828125 248.5625,448.8125 241.390625,436.953125 235.25,424.25 230.328125,410.890625 226.8125,397.0625 224.703125,382.765625 224,368 224.7109375,353.34375 226.84375,339.125 230.3984375,325.34375 235.375,312 241.570297241211,299.296875 248.781234741211,287.4375 257.0078125,276.421875 266.25,266.25 276.421875,257.0078125 287.4375,248.78125 299.296875,241.5703125 312,235.375 325.34375,230.398452758789 339.125,226.84375 353.34375,224.7109375 368,224z M64,64L57.5,64.625 51.5,66.5 46.09375,69.4687652587891 41.375,73.375 37.46875,78.0937652587891 34.5,83.5 32.625,89.5 32,96 32,128 193.5,128 198.9375,127.5 204.25,126 209.4375,123.750007629395 214.5,121 224.125,114.5 233,108 209.5,76.75 204.4375,71.40625 198.25,67.375 194.828125,65.8984375 191.3125,64.84375 187.703125,64.2109375 184,64 64,64z M62.75,32L184,32 191.4140625,32.4218902587891 198.65625,33.6875228881836 205.7265625,35.7968902587891 212.625,38.75 219.1484375,42.4531402587891 225.09375,46.8125228881836 230.4609375,51.8281402587891 235.25,57.5 264,96 449.25,96 455.4296875,96.3203125 461.46875,97.28125 467.3671875,98.8828201293945 473.125,101.125 478.640625,103.906265258789 483.812469482422,107.125015258789 488.640594482422,110.781265258789 493.125,114.875 497.218719482422,119.359390258789 500.874969482422,124.187515258789 504.09375,129.359390258789 506.875,134.875 509.1171875,140.6328125 510.71875,146.531265258789 511.6796875,152.570327758789 512,158.75 512,253.5 504.75,244.937515258789 497,236.75 488.749969482422,229.0625 480,222 480,160 479.374969482422,153.656265258789 477.5,147.625 474.53125,142.125015258789 470.625,137.375 465.875,133.468765258789 460.375,130.5 454.34375,128.625 448,128 261,128 229,149.25 220.6875,153.953140258789 212,157.3125 202.9375,159.328125 193.5,160 32,160 32,416 32.625,422.53125 34.5,428.625 37.4375,434.09375 41.25,438.75 45.90625,442.5625 51.375,445.5 57.46875,447.375 64,448 202.25,448 211.375,464.5 216.46875,472.375 222,480 62.75,480 56.5703125,479.6796875 50.5312461853027,478.71875 44.6328086853027,477.1171875 38.875,474.875 33.359375,472.09375 28.1875,468.875 23.359375,465.21875 18.875,461.125 14.78125,456.640625 11.125,451.8125 7.90624952316284,446.640625 5.125,441.125 2.8828125,435.3671875 1.28125,429.46875 0.3203125,423.4296875 0,417.25 0,94.75 0.3203125,88.5703277587891 1.28125,82.5312728881836 2.8828125,76.6328353881836 5.125,70.875 7.90624952316284,65.3593826293945 11.125,60.1875076293945 14.78125,55.3593788146973 18.875,50.875 23.359375,46.7812538146973 28.1875,43.1250076293945 33.359375,39.9062576293945 38.875,37.125 44.6328086853027,34.8828353881836 50.5312461853027,33.2812767028809 56.5703125,32.3203315734863 62.75,32z" />
  </g>
</svg>

