<?xml version="1.0" encoding="utf-8"?>
<svg id="" width="16" height="16" style="width:16px;height:16px;" version="1.1"
    xmlns="http://www.w3.org/2000/svg" viewBox="0 0 2048 2048" enable-background="new 0 0 2048 2048"
    xml:space="preserve">.
    <path fill="#ffffff" d="M340.62 2048 q-56.59 0 -106.24 -21.36 q-49.65 -21.36 -87.03 -58.73 q-37.37 -37.38 -58.73 -87.03 q-21.36 -49.65 -21.36 -106.24 l0 -831.8 q0 -40.58 16.02 -79.02 q16.02 -38.44 43.78 -66.2 l728.22 -727.16 q34.17 -34.17 77.42 -52.32 q43.25 -18.15 91.29 -18.15 q48.05 0 91.3 18.15 q43.24 18.15 77.41 52.32 l728.22 727.16 q27.77 27.76 43.79 66.2 q16.01 38.44 16.01 79.02 l0 831.8 q0 56.59 -21.36 106.24 q-21.36 49.65 -58.73 87.03 q-37.38 37.38 -87.03 58.73 q-49.65 21.36 -106.24 21.36 l-410.03 0 q-28.83 0 -53.92 -10.68 q-25.09 -10.68 -43.24 -28.83 q-18.15 -18.15 -28.83 -43.25 q-10.67 -25.09 -10.67 -53.92 l0 -546.7 l-273.36 0 l0 546.7 q0 28.83 -10.68 53.39 q-10.67 24.56 -29.36 43.24 q-18.69 18.69 -43.25 29.37 q-24.56 10.68 -53.39 10.68 l-410.03 0 ZM750.65 1911.32 l0 -546.7 q0 -28.83 10.68 -53.39 q10.67 -24.56 29.37 -43.24 q18.69 -18.69 43.24 -29.36 q24.56 -10.67 53.39 -10.67 l273.36 0 q27.76 0 52.85 10.67 q25.09 10.67 43.78 29.36 q18.69 18.68 29.37 43.78 q10.67 25.1 10.67 52.86 l0 546.7 l410.03 0 q28.83 0 53.39 -10.67 q24.56 -10.67 43.24 -29.36 q18.69 -18.68 29.36 -43.24 q10.67 -24.56 10.67 -53.39 l0 -831.8 q0 -27.76 -20.28 -48.05 l-727.16 -728.23 q-29.9 -29.89 -72.61 -29.89 q-42.71 0 -72.61 29.89 l-727.16 728.23 q-20.28 20.29 -20.28 48.05 l0 831.8 q0 28.83 10.68 53.92 q10.68 25.09 28.83 43.24 q18.16 18.15 43.25 28.83 q25.09 10.67 53.92 10.67 l410.03 0 Z"/>
</svg>