<?xml version="1.0" encoding="utf-8"?>
<svg xmlns="http://www.w3.org/2000/svg" height="16" width="16" viewBox="0 0 16 16">
  <g>
    <path id="path1" transform="rotate(0,8,8) translate(0,0) scale(0.0333333333333333,0.0333333333333333)  " fill="#FFFFFF" d="M240,192L243.140625,192.296875 246.0625,193.1875 248.765625,194.671875 251.25,196.75 253.328125,199.234390258789 254.8125,201.937515258789 255.703125,204.859390258789 256,208 256,336 255.703125,339.140625 254.8125,342.0625 253.328125,344.765625 251.25,347.25 248.765625,349.328125 246.0625,350.8125 243.140625,351.703125 240,352 236.859375,351.703125 233.9375,350.8125 231.234375,349.328125 228.75,347.25 226.671875,344.765625 225.1875,342.0625 224.296875,339.140625 224,336 224,208 224.296875,204.859390258789 225.1875,201.937515258789 226.671875,199.234390258789 228.75,196.75 231.234375,194.671875 233.9375,193.1875 236.859375,192.296875 240,192z M240,120L244.8125,120.4375 249.25,121.75 253.3125,123.937507629395 257,127 260.0625,130.687515258789 262.25,134.750015258789 263.5625,139.1875 264,144 263.5625,148.812515258789 262.25,153.250015258789 260.0625,157.3125 257,161 253.3125,164.062515258789 249.25,166.25 244.8125,167.5625 240,168 235.1875,167.5625 230.75,166.25 226.6875,164.062515258789 223,161 219.937484741211,157.3125 217.749984741211,153.250015258789 216.437484741211,148.812515258789 216,144 216.437484741211,139.1875 217.749984741211,134.750015258789 219.937484741211,130.687515258789 223,127 226.6875,123.937507629395 230.75,121.75 235.1875,120.4375 240,120z M240,31.9999980926514L225.7578125,32.4609565734863 211.78125,33.8437767028809 198.0703125,36.1484603881836 184.625,39.375 171.53125,43.4531364440918 158.875,48.3125152587891 146.65625,53.9531364440918 134.875,60.375 123.578125,67.5156478881836 112.8125,75.3125228881836 102.578125,83.7656402587891 92.875,92.875 83.765625,102.578132629395 75.3125,112.812507629395 67.515625,123.578132629395 60.375,134.875 53.953125,146.656265258789 48.3125,158.875 43.453125,171.53125 39.375,184.625 36.1484375,198.0703125 33.84375,211.78125 32.4609375,225.7578125 31.9999980926514,240 32.4609375,254.242202758789 33.84375,268.21875 36.1484375,281.9296875 39.375,295.375 43.4453125,308.46875 48.28125,321.125 53.8828125,333.34375 60.2500038146973,345.125 67.34375,356.4296875 75.125,367.21875 83.59375,377.4921875 92.75,387.25 102.507804870605,396.40625 112.781242370605,404.875 123.5703125,412.65625 134.875,419.75 146.65625,426.1171875 158.875,431.71875 171.53125,436.5546875 184.625,440.625 198.0703125,443.8515625 211.78125,446.15625 225.7578125,447.5390625 240,448 254.2421875,447.5390625 268.21875,446.15625 281.9296875,443.8515625 295.375,440.625 308.46875,436.5546875 321.125,431.71875 333.34375,426.1171875 345.125,419.75 356.4296875,412.65625 367.21875,404.875 377.4921875,396.40625 387.25,387.25 396.40625,377.4921875 404.875,367.21875 412.65625,356.4296875 419.75,345.125 426.1171875,333.34375 431.71875,321.125 436.5546875,308.46875 440.625,295.375 443.8515625,281.9296875 446.15625,268.21875 447.5390625,254.242202758789 448,240 447.5390625,225.7578125 446.15625,211.78125 443.8515625,198.0703125 440.625,184.625 436.546875,171.53125 431.6875,158.875 426.046875,146.656265258789 419.625,134.875 412.484375,123.578132629395 404.6875,112.812507629395 396.234375,102.578132629395 387.125,92.875 377.421875,83.7656402587891 367.1875,75.3125228881836 356.421875,67.5156478881836 345.125,60.375 333.34375,53.9531364440918 321.125,48.3125152587891 308.46875,43.4531364440918 295.375,39.375 281.9296875,36.1484603881836 268.21875,33.8437767028809 254.2421875,32.4609565734863 240,31.9999980926514z M240,0L256.4609375,0.531251430511475 272.59375,2.12500381469727 288.3984375,4.78125381469727 303.875,8.49999904632568 318.9453125,13.1953268051147 333.53125,18.7812728881836 347.6328125,25.257833480835 361.25,32.6250038146973 374.3203125,40.8281364440918 386.78125,49.8125152587891 398.6328125,59.5781364440918 409.875,70.125 420.421875,81.3672103881836 430.1875,93.2187728881836 439.171875,105.679702758789 447.375,118.75 454.7421875,132.3671875 461.21875,146.46875 466.8046875,161.0546875 471.5,176.125 475.218719482422,191.601577758789 477.874969482422,207.406265258789 479.468719482422,223.5390625 480,240 479.460906982422,256.4609375 477.843719482422,272.59375 475.148406982422,288.3984375 471.375,303.875 466.624969482422,318.9375 460.999969482422,333.5 454.499969482422,347.5625 447.125,361.125 438.921875,374.140625 429.9375,386.5625 420.171875,398.390625 409.625,409.625 398.390594482422,420.171875 386.562469482422,429.9375 374.140594482422,438.921875 361.125,447.125 347.5546875,454.5 333.46875,461 318.8671875,466.625 303.75,471.375 288.234375,475.1484375 272.4375,477.84375 256.359375,479.4609375 240,480 223.53125,479.46875 207.375,477.875 191.53125,475.21875 176,471.5 160.8828125,466.8046875 146.28125,461.21875 132.1953125,454.7421875 118.625,447.375 105.609375,439.171875 93.1875,430.1875 81.359375,420.421875 70.125,409.875 59.578125,398.640625 49.8125,386.8125 40.828125,374.390625 32.6250038146973,361.375 25.2578144073486,347.8046875 18.78125,333.71875 13.1953115463257,319.1171875 8.49999904632568,304 4.78124952316284,288.46875 2.125,272.625 0.53125,256.46875 0,240 0.53125,223.5390625 2.125,207.406265258789 4.78124952316284,191.601577758789 8.49999904632568,176.125 13.1953115463257,161.0546875 18.78125,146.46875 25.2578144073486,132.3671875 32.6250038146973,118.75 40.828125,105.679702758789 49.8125,93.2187728881836 59.578125,81.3672103881836 70.125,70.125 81.3671875,59.5781364440918 93.21875,49.8125152587891 105.6796875,40.8281364440918 118.75,32.6250038146973 132.3671875,25.257833480835 146.46875,18.7812728881836 161.0546875,13.1953268051147 176.125,8.49999904632568 191.6015625,4.78125381469727 207.40625,2.12500381469727 223.5390625,0.531251430511475 240,0z" />
  </g>
</svg>

