<?xml version="1.0" encoding="utf-8"?>
<svg id="" width="16" height="16" style="width:16px;height:16px;" version="1.1"
    xmlns="http://www.w3.org/2000/svg" viewBox="0 0 2048 2048" enable-background="new 0 0 2048 2048"
    xml:space="preserve"><path fill="#ffffff" d="M1690.29 0 q72 0 137.14 29.14 q65.14 29.14 113.71 77.72 q48.57 48.57 77.72 113.71 q29.14 65.14 29.14 137.14 l0 1332.58 q0 72 -29.14 137.14 q-29.14 65.14 -77.72 113.71 q-48.57 48.57 -113.71 77.72 q-65.14 29.14 -137.14 29.14 l-1332.58 0 q-72 0 -137.14 -29.14 q-65.14 -29.14 -113.71 -77.72 q-48.57 -48.57 -77.72 -113.71 q-29.14 -65.14 -29.14 -137.14 l0 -1332.58 q0 -72 29.14 -137.14 q29.14 -65.14 77.72 -113.71 q48.57 -48.57 113.71 -77.72 q65.14 -29.14 137.14 -29.14 l1332.58 0 ZM365.71 146.29 q-44.57 0 -84.57 17.14 q-40 17.14 -70.28 47.42 q-30.28 30.28 -47.42 70.28 q-17.14 40 -17.14 84.57 l0 950.86 l1024 0 l0 -1170.28 l-804.58 0 ZM1901.71 365.71 q0 -44.57 -17.14 -84.57 q-17.14 -40 -47.43 -70.28 q-30.29 -30.28 -70.29 -47.42 q-40 -17.14 -84.57 -17.14 l-365.72 0 l0 438.85 l585.14 0 l0 -219.43 ZM1901.71 731.43 l-585.14 0 l0 585.14 l585.14 0 l0 -585.14 ZM146.29 1682.29 q0 44.57 17.14 84.57 q17.14 40 47.42 70.29 q30.28 30.29 70.28 47.43 q40 17.14 84.57 17.14 l365.72 0 l0 -438.85 l-585.14 0 l0 219.43 ZM1682.29 1901.71 q44.57 0 84.57 -17.14 q40 -17.14 70.29 -47.43 q30.29 -30.29 47.43 -70.29 q17.14 -40 17.14 -84.57 l0 -219.43 l-1024 0 l0 438.85 l804.58 0 Z"/></svg>