<?xml version="1.0" encoding="utf-8"?>
<svg xmlns="http://www.w3.org/2000/svg" height="16" width="16" viewBox="0 0 16 16">
  <g>
    <path id="path1" transform="rotate(0,8,8) translate(-0.5,0) scale(0.0333333333333333,0.0333333333333333)  " fill="#FFFFFF" d="M126,64L208,64 211.140609741211,64.296875 214.062484741211,65.1875 216.765609741211,66.6718826293945 219.25,68.75 221.328125,71.2343902587891 222.8125,73.9375152587891 223.703125,76.8593902587891 224,80 223.703125,83.1406326293945 222.8125,86.0625076293945 221.328125,88.7656326293945 219.25,91.25 216.765609741211,93.3281326293945 214.062484741211,94.8125076293945 211.140609741211,95.703125 208,96 126.75,96 120.5703125,96.3203125 114.53125,97.28125 108.6328125,98.8828201293945 102.875,101.125 97.359375,103.906265258789 92.1875,107.125015258789 87.359375,110.781265258789 82.875,114.875 78.78125,119.359390258789 75.125,124.187515258789 71.90625,129.359390258789 69.125,134.875 66.8828125,140.6328125 65.28125,146.531265258789 64.3203125,152.570327758789 64,158.75 64,385.25 64.3203125,391.4296875 65.28125,397.46875 66.8828125,403.3671875 69.125,409.125 71.90625,414.640625 75.125,419.8125 78.78125,424.640625 82.875,429.125 87.359375,433.21875 92.1875,436.875 97.359375,440.09375 102.875,442.875 108.6328125,445.1171875 114.53125,446.71875 120.5703125,447.6796875 126.75,448 353.25,448 359.6484375,447.671875 365.84375,446.6875 371.8359375,445.046875 377.625,442.75 383.1328125,439.90625 388.28125,436.625 393.0703125,432.90625 397.5,428.75 401.53125,424.1953125 405.125,419.28125 408.28125,414.0078125 411,408.375 413.1875,402.4921875 414.75,396.46875 415.6875,390.3046875 416,384 416,304 416.296875,300.859375 417.1875,297.9375 418.671875,295.234375 420.75,292.75 423.234375,290.671875 425.9375,289.1875 428.859375,288.296875 432,288 435.140625,288.296875 438.0625,289.1875 440.765625,290.671875 443.25,292.75 445.328125,295.234375 446.8125,297.9375 447.703125,300.859375 448,304 448,386 447.5234375,395.2734375 446.09375,404.34375 443.7109375,413.2109375 440.375,421.875 436.234344482422,430.171875 431.437469482422,437.9375 425.984375,445.171875 419.875,451.875 413.171875,457.984375 405.9375,463.4375 398.171875,468.234375 389.875,472.375 381.2109375,475.7109375 372.34375,478.09375 363.2734375,479.5234375 354,480 126,480 116.726554870605,479.5234375 107.656242370605,478.09375 98.7890548706055,475.7109375 90.125,472.375 81.828125,468.234375 74.0625,463.4375 66.828125,457.984375 60.1250038146973,451.875 54.015625,445.171875 48.5625,437.9375 43.765625,430.171875 39.625,421.875 36.2890625,413.2109375 33.90625,404.34375 32.4765625,395.2734375 32,386 32,158 32.4765625,148.7265625 33.90625,139.65625 36.2890625,130.789077758789 39.625,122.125 43.765625,113.828132629395 48.5625,106.062507629395 54.015625,98.8281326293945 60.1250038146973,92.125 66.828125,86.0156402587891 74.0625,80.5625228881836 81.828125,75.7656478881836 90.125,71.625 98.7890548706055,68.2890701293945 107.656242370605,65.9062576293945 116.726554870605,64.4765625 126,64z M272,32L464,32 467.140625,32.2968940734863 470.0625,33.1875267028809 472.765625,34.6718978881836 475.25,36.75 477.328094482422,39.2343864440918 478.812469482422,41.9375152587891 479.703094482422,44.8593864440918 480,48 480,240 479.703094482422,243.140625 478.812469482422,246.0625 477.328094482422,248.765625 475.25,251.25 472.765625,253.328140258789 470.0625,254.8125 467.140625,255.703125 464,256 460.859344482422,255.703125 457.937469482422,254.8125 455.234344482422,253.328140258789 452.75,251.25 450.671875,248.765625 449.1875,246.0625 448.296875,243.140625 448,240 448,86.75 251.25,283.25 248.71875,285.25 246.125,286.75 243.28125,287.6875 240,288 236.859375,287.703125 233.9375,286.8125 231.234375,285.328125 228.75,283.25 226.671875,280.765625 225.1875,278.0625 224.296875,275.140625 224,272 224.296875,268.859375 225.1875,265.9375 226.671875,263.234375 228.75,260.75 425.5,64 272,64 268.859375,63.7031288146973 265.9375,62.8125076293945 263.234375,61.3281364440918 260.75,59.2500038146973 258.671875,56.7656478881836 257.1875,54.0625305175781 256.296875,51.1406478881836 256,48 256.296875,44.8593864440918 257.1875,41.9375152587891 258.671875,39.2343864440918 260.75,36.75 263.234375,34.6718978881836 265.9375,33.1875267028809 268.859375,32.2968940734863 272,32z" />
  </g>
</svg>
