<?xml version="1.0" encoding="utf-8"?>
<svg id="" width="16" height="16" style="width:16px;height:16px;" version="1.1"
    xmlns="http://www.w3.org/2000/svg" viewBox="0 0 2048 2048" enable-background="new 0 0 2048 2048"
    xml:space="preserve"><path fill="#000000" d="M219.43 1462.86 q-44.57 0 -84.57 -17.14 q-40 -17.14 -70.29 -47.43 q-30.29 -30.28 -47.43 -70.28 q-17.14 -40 -17.14 -84.57 l0 -1024 q0 -44.57 17.14 -84.57 q17.14 -40 47.43 -70.29 q30.28 -30.29 70.29 -47.43 q40 -17.14 84.57 -17.14 l1024 0 q44.57 0 84.57 17.14 q40 17.14 70.28 47.43 q30.29 30.28 47.43 70.29 q17.14 40 17.14 84.57 l0 85.71 l-146.29 49.15 l0 -134.86 q0 -29.72 -21.71 -51.43 q-21.71 -21.71 -51.42 -21.71 l-1024 0 q-29.72 0 -51.43 21.71 q-21.71 21.71 -21.71 51.43 l0 1024 q0 29.71 21.71 51.42 q21.71 21.71 51.43 21.71 l497.14 0 q14.86 0 14.86 14.86 q0 10.28 -9.14 13.71 q-51.43 22.86 -92.57 48.58 q-41.14 25.71 -78.86 69.14 l-331.43 0 ZM438.86 438.86 l-146.29 0 l0 -146.29 l146.29 0 l0 146.29 ZM1170.29 438.86 l-146.29 0 l0 -146.29 l146.29 0 l0 146.29 ZM585.14 1755.43 l0 -5.72 q0 -57.14 23.43 -109.14 q23.43 -52 62.86 -91.43 q39.43 -39.43 91.43 -62.86 q52 -23.42 109.14 -23.42 q41.14 0 78.86 9.14 q37.72 9.14 73.14 29.71 l0 -817.14 q0 -36.57 21.14 -64.57 q21.14 -28 54.29 -39.43 l804.57 -268.57 q17.14 -5.71 34.29 -5.71 q45.71 0 77.71 32 q32 32 32 77.71 l0 1198.86 q0 59.43 -24 111.43 q-24 52 -64 90.86 q-40 38.86 -93.14 61.71 q-53.14 22.86 -111.42 22.86 q-60.57 0 -113.72 -23.43 q-53.14 -23.42 -92.58 -62.86 q-39.43 -39.43 -62.86 -92.57 q-23.42 -53.14 -23.42 -113.71 q0 -58.28 22.86 -111.43 q22.86 -53.14 61.71 -93.14 q38.86 -40 90.86 -64 q52 -24 111.42 -24 q41.15 0 78.86 9.14 q37.72 9.14 73.14 29.72 l0 -522.29 l-731.42 243.43 l0 684.57 q0 59.43 -24 111.43 q-24 52 -64 90.86 q-40 38.86 -93.14 61.72 q-53.14 22.86 -111.43 22.86 q-60.57 0 -113.71 -23.43 q-53.14 -23.43 -92.57 -62.86 q-39.43 -39.43 -62.86 -92.57 q-23.43 -53.14 -23.43 -113.71 ZM1170.29 710.86 l0 211.43 l731.42 -243.43 l0 -211.43 l-731.42 243.43 ZM438.86 877.71 l-146.29 0 l0 -292.57 l146.29 0 l0 292.57 ZM438.86 1170.29 l-146.29 0 l0 -146.29 l146.29 0 l0 146.29 ZM1901.71 1609.14 q0 -29.71 -11.43 -56.57 q-11.42 -26.86 -31.42 -46.86 q-20 -20 -46.86 -31.43 q-26.86 -11.42 -56.57 -11.42 q-30.86 0 -57.15 11.42 q-26.28 11.43 -46.28 31.43 q-20 20 -31.43 46.29 q-11.43 26.29 -11.43 57.14 q0 30.86 11.43 57.71 q11.43 26.86 30.86 46.28 q19.43 19.43 46.29 30.86 q26.86 11.43 57.72 11.43 q30.86 0 57.14 -11.43 q26.29 -11.43 46.29 -31.43 q20 -20 31.42 -46.29 q11.43 -26.28 11.43 -57.14 ZM1024 1755.43 q0 -29.72 -11.43 -56.58 q-11.43 -26.86 -31.43 -46.86 q-20 -20 -46.86 -31.43 q-26.86 -11.43 -56.57 -11.43 q-30.85 0 -57.13 11.43 q-26.29 11.43 -46.29 31.43 q-20 20 -31.43 46.28 q-11.43 26.29 -11.43 57.15 q0 30.86 11.43 57.71 q11.43 26.86 30.86 46.28 q19.43 19.43 46.29 30.86 q26.86 11.43 57.71 11.43 q30.86 0 57.14 -11.43 q26.28 -11.42 46.28 -31.42 q20 -20 31.43 -46.29 q11.43 -26.28 11.43 -57.14 Z"/></svg>