<?xml version="1.0" encoding="utf-8"?>
<svg id="" width="16" height="16" style="width:16px;height:16px;" version="1.1"
    xmlns="http://www.w3.org/2000/svg" viewBox="0 0 2048 2048" enable-background="new 0 0 2048 2048"
    xml:space="preserve"><path fill="#ffffff" d="M0 1984 q0 -26 8.5 -54 q8.5 -28 14.5 -53 q23 -95 48 -188 q25 -93 48 -188 q-59 -110 -89 -230 q-30 -120 -30 -245 q0 -141 36.5 -272.5 q36.5 -131.5 103 -245.5 q66.5 -114 160 -207.5 q93.5 -93.5 207.5 -160.5 q114 -67 245 -103.5 q131 -36.5 272 -36.5 q141 0 271.5 36.5 q130.5 36.5 244.5 103.5 q114 67 207.5 160 q93.5 93 160.5 207 q67 114 103.5 244.5 q36.5 130.5 36.5 271.5 q0 140 -36.5 270.5 q-36.5 130.5 -102.5 244.5 q-66 114 -159 208 q-93 94 -206.5 161 q-113.5 67 -243.5 104 q-130 37 -271 37 q-124 0 -244 -28.5 q-120 -28.5 -230 -85.5 l-476 112 q-10 2 -15 2 q-27 0 -45.5 -18.5 q-18.5 -18.5 -18.5 -45.5 ZM1020 1920 q124 0 239 -32 q115 -32 215 -90 q100 -58 182.5 -139.5 q82.5 -81.5 141 -181.5 q58.5 -100 90.5 -215 q32 -115 32 -239 q0 -124 -32 -238.5 q-32 -114.5 -90.5 -213.5 q-58.5 -99 -140.5 -181 q-82 -82 -182 -140 q-100 -58 -214.5 -90 q-114.5 -32 -237.5 -32 q-123 0 -237.5 32 q-114.5 32 -214 90 q-99.5 58 -181 139.5 q-81.5 81.5 -140 180.5 q-58.5 99 -90.5 213.5 q-32 114.5 -32 237.5 q0 65 8 120 q8 55 23 107.5 q15 52.5 36 104.5 q21 52 48 109 q8 16 8 31 q0 11 -6 41 q-6 30 -16 69 q-10 39 -21.5 84 q-11.5 45 -22.5 86 q-11 41 -20 74.5 q-9 33.5 -13 49.5 q68 -16 134.5 -32 q66.5 -16 134.5 -33 q34 -8 71 -19 q37 -11 72 -11 q8 0 15 2.5 q7 2.5 15 5.5 q54 25 104.5 45.5 q50.5 20.5 101.5 34.5 q51 14 105 22 q54 8 115 8 ZM704 896 q-26 0 -45 -19 q-19 -19 -19 -45 q0 -26 19 -45 q19 -19 45 -19 l640 0 q26 0 45 19 q19 19 19 45 q0 26 -19 45 q-19 19 -45 19 l-640 0 ZM704 1280 q-26 0 -45 -19 q-19 -19 -19 -45 q0 -26 19 -45 q19 -19 45 -19 l384 0 q26 0 45 19 q19 19 19 45 q0 26 -19 45 q-19 19 -45 19 l-384 0 Z"/></svg>