<?xml version="1.0" encoding="utf-8"?>
<svg id="" width="16" height="16" style="width:16px;height:16px;" version="1.1"
    xmlns="http://www.w3.org/2000/svg" viewBox="0 0 2048 2048" enable-background="new 0 0 2048 2048"
    xml:space="preserve"><path fill="#000000" transform="translate(0, 800)" d="M0 204.8 q0 -42.24 16.64 -79.36 q16.64 -37.12 44.16 -64.64 q27.52 -27.52 64.64 -44.16 q37.12 -16.64 79.36 -16.64 q42.24 0 79.36 16.64 q37.12 16.64 64.64 44.16 q27.52 27.52 44.16 64.64 q16.64 37.12 16.64 79.36 q0 42.24 -16.64 79.36 q-16.64 37.12 -44.16 64.64 q-27.52 27.52 -64.64 44.16 q-37.12 16.64 -79.36 16.64 q-42.24 0 -79.36 -16.64 q-37.12 -16.64 -64.64 -44.16 q-27.52 -27.52 -44.16 -64.64 q-16.64 -37.12 -16.64 -79.36 ZM819.2 204.8 q0 -42.24 16.64 -79.36 q16.64 -37.12 44.16 -64.64 q27.52 -27.52 64.64 -44.16 q37.12 -16.64 79.36 -16.64 q42.24 0 79.36 16.64 q37.12 16.64 64.64 44.16 q27.52 27.52 44.16 64.64 q16.64 37.12 16.64 79.36 q0 42.24 -16.64 79.36 q-16.64 37.12 -44.16 64.64 q-27.52 27.52 -64.64 44.16 q-37.12 16.64 -79.36 16.64 q-42.24 0 -79.36 -16.64 q-37.12 -16.64 -64.64 -44.16 q-27.52 -27.52 -44.16 -64.64 q-16.64 -37.12 -16.64 -79.36 ZM1638.4 204.8 q0 -42.24 16.64 -79.36 q16.64 -37.12 44.16 -64.64 q27.52 -27.52 64.64 -44.16 q37.12 -16.64 79.36 -16.64 q42.24 0 79.36 16.64 q37.12 16.64 64.64 44.16 q27.52 27.52 44.16 64.64 q16.64 37.12 16.64 79.36 q0 42.24 -16.64 79.36 q-16.64 37.12 -44.16 64.64 q-27.52 27.52 -64.64 44.16 q-37.12 16.64 -79.36 16.64 q-42.24 0 -79.36 -16.64 q-37.12 -16.64 -64.64 -44.16 q-27.52 -27.52 -44.16 -64.64 q-16.64 -37.12 -16.64 -79.36 Z"/>
</svg>