<?xml version="1.0" encoding="utf-8"?>
<svg xmlns="http://www.w3.org/2000/svg" height="16" width="16" viewBox="0 0 16 16">
  <g>
    <path id="path1" transform="rotate(0,8,8) translate(0,0) scale(0.03125,0.03125)  " fill="#000000" d="M112,384L107.1875,384.234375 102.5,384.9375 97.9375,386.109375 93.5,387.75 85.28125,392.21875 78.125,398.125 72.21875,405.28125 67.75,413.5 66.109375,417.9375 64.9375,422.5 64.234375,427.1875 64,432 64.234375,436.8125 64.9375,441.5 66.109375,446.0625 67.75,450.5 72.21875,458.71875 78.125,465.875 85.28125,471.78125 93.5,476.25 97.9375,477.890625 102.5,479.0625 107.1875,479.765625 112,480 116.921875,479.7578125 121.6875,479.03125 126.296875,477.8203125 130.75,476.125 138.9375,471.59375 146,465.75 151.8125,458.65625 156.25,450.375 157.890625,445.8828125 159.0625,441.28125 159.765625,436.5703125 160,431.75 159.765625,426.9375 159.0625,422.25 157.890625,417.6875 156.25,413.25 151.78125,405.0625 145.875,398 138.71875,392.1875 130.5,387.75 126.0625,386.109375 121.5,384.9375 116.8125,384.234375 112,384z M368,352L363.1875,352.234375 358.5,352.9375 353.9375,354.109375 349.5,355.75 341.28125,360.21875 334.125,366.125 328.21875,373.28125 323.75,381.5 322.109375,385.9375 320.9375,390.5 320.234375,395.1875 320,400 320.234375,404.8125 320.9375,409.5 322.109375,414.0625 323.75,418.5 328.21875,426.71875 334.125,433.875 341.28125,439.78125 349.5,444.25 353.9375,445.890625 358.5,447.0625 363.1875,447.765625 368,448 372.8125,447.765625 377.5,447.0625 382.0625,445.890625 386.5,444.25 394.71875,439.78125 401.875,433.875 407.78125,426.71875 412.25,418.5 413.890625,414.0625 415.0625,409.5 415.765625,404.8125 416,400 415.765625,395.1875 415.0625,390.5 413.890625,385.9375 412.25,381.5 407.78125,373.28125 401.875,366.125 394.71875,360.21875 386.5,355.75 382.0625,354.109375 377.5,352.9375 372.8125,352.234375 368,352z M416,39L191,123 191,201 416,117 416,39z M424,3.5L428.8125,3.93751859664917 433.25,5.25002670288086 437.3125,7.43752098083496 441,10.4999990463257 444.0625,14.1875095367432 446.25,18.2500114440918 447.5625,22.6875076293945 448,27.5 448,401.75 447.59375,409.75 446.375,417.5 444.34375,425 441.5,432.25 437.968719482422,439.1484375 433.874969482422,445.59375 429.21875,451.5859375 424,457.125 418.28125,462.15625 412.125,466.625 405.53125,470.53125 398.5,473.875 391.15625,476.5546875 383.625,478.46875 375.90625,479.6171875 368,480 359.765625,479.609375 351.8125,478.4375 344.140625,476.484375 336.75,473.75 329.7265625,470.3359375 323.15625,466.34375 317.0390625,461.7734375 311.375,456.625 306.2265625,450.9609375 301.65625,444.84375 297.6640625,438.2734375 294.25,431.25 291.515625,423.859375 289.5625,416.1875 288.390625,408.234375 288,400 288.3828125,392.09375 289.53125,384.375 291.4453125,376.84375 294.125,369.5 297.46875,362.46875 301.375,355.875 305.84375,349.71875 310.875,344 316.4140625,338.78125 322.40625,334.125 328.8515625,330.03125 335.75,326.5 343,323.65625 350.5,321.625 358.25,320.40625 366.25,320 372.953125,320.2421875 379.5625,320.96875 386.078125,322.1796875 392.5,323.875 398.75,326.0859375 404.75,328.84375 410.5,332.1484375 416,336 416,151 192,235 192,433.75 191.59375,441.75 190.375,449.5 188.34375,457 185.5,464.25 181.96875,471.1484375 177.875,477.59375 173.21875,483.5859375 168,489.125 162.28125,494.15625 156.125,498.625 149.53125,502.53125 142.5,505.875 135.15625,508.5546875 127.625,510.46875 119.90625,511.6171875 112,512 103.765625,511.609375 95.8125,510.4375 88.140625,508.484375 80.75,505.75 73.7265625,502.3359375 67.15625,498.34375 61.0390586853027,493.7734375 55.3749961853027,488.625 50.2265586853027,482.9609375 45.65625,476.84375 41.6640625,470.2734375 38.25,463.25 35.515625,455.859375 33.5625,448.1875 32.390625,440.234375 31.9999980926514,432 32.3828125,424.09375 33.53125,416.375 35.4453125,408.84375 38.125,401.5 41.46875,394.46875 45.375,387.875 49.8437461853027,381.71875 54.8749961853027,376 60.4140586853027,370.78125 66.40625,366.125 72.8515625,362.03125 79.75,358.5 87,355.65625 94.5,353.625 102.25,352.40625 110.25,352 116.945304870605,352.2421875 123.531242370605,352.96875 130.0078125,354.1796875 136.375,355.875 142.5703125,358.0703125 148.53125,360.78125 154.2578125,364.0078125 159.75,367.75 158.75,117.75 159.0234375,114.179695129395 159.84375,110.718757629395 161.2109375,107.3671875 163.125,104.125 165.4765625,101.1640625 168.15625,98.65625 171.1640625,96.6015701293945 174.5,95 415.75,4.99999809265137 419.6875,3.87502264976501 424,3.5z" />
  </g>
</svg>
