<?xml version="1.0" encoding="utf-8"?>
<svg id="" width="16" height="16" style="width:16px;height:16px;" version="1.1"
    xmlns="http://www.w3.org/2000/svg" viewBox="0 0 2048 2048" enable-background="new 0 0 2048 2048"
    xml:space="preserve"><path fill="#000000" d="M256 531 q0 -86 17 -163 q17 -77 55 -140.5 q38 -63.5 98.5 -112 q60.5 -48.5 146.5 -76.5 q39 -13 80 -26 q41 -13 83 -13 q37 0 72 11 q35 11 65 30.5 q30 19.5 54 47.5 q24 28 39 62 q21 48 41.5 94 q20.5 46 41.5 94 q28 62 28 131 q0 51 -13 92 q-13 41 -35.5 76.5 q-22.5 35.5 -53 67 q-30.5 31.5 -65.5 63.5 q-16 15 -33.5 29.5 q-17.5 14.5 -31.5 30.5 q-6 7 -7.5 15.5 q-1.5 8.5 -1.5 16.5 q0 21 13.5 61 q13.5 40 35.5 88 q22 48 50 98.5 q28 50.5 57.5 91.5 q29.5 41 58 67 q28.5 26 50.5 26 q2 0 3.5 -0.5 q1.5 -0.5 3.5 -0.5 l258 -80 q27 -9 55 -9 q46 0 86.5 21 q40.5 21 66.5 59 l170 241 q48 68 48 150 q0 45 -11.5 79 q-11.5 34 -32 63 q-20.5 29 -47 55 q-26.5 26 -56.5 54 q-63 59 -139.5 91 q-76.5 32 -163.5 32 q-85 0 -164 -32 q-111 -45 -207 -119.5 q-96 -74.5 -179 -166 q-83 -91.5 -153 -194 q-70 -102.5 -127 -203.5 q-51 -90 -97.5 -187 q-46.5 -97 -81.5 -199 q-35 -102 -56 -206.5 q-21 -104.5 -21 -209.5 ZM1664 1674 q0 -43 -24 -76 l-171 -241 q-18 -26 -48 -26 q-8 0 -17 3 l-258 80 q-22 7 -48 7 q-35 0 -67.5 -16 q-32.5 -16 -59.5 -38 q-26 -20 -55 -56.5 q-29 -36.5 -58.5 -82 q-29.5 -45.5 -56.5 -96.5 q-27 -51 -48 -101 q-21 -50 -33.5 -94.5 q-12.5 -44.5 -12.5 -77.5 q0 -44 18 -76.5 q18 -32.5 45 -60.5 q27 -28 58 -53 q31 -25 58 -53.5 q27 -28.5 45 -63.5 q18 -35 18 -81 q0 -41 -17 -80 l-83 -188 q-14 -33 -45.5 -54 q-31.5 -21 -67.5 -21 q-32 0 -64 11.5 q-32 11.5 -61 21.5 q-65 22 -108.5 58 q-43.5 36 -69.5 84 q-26 48 -37.5 105 q-11.5 57 -11.5 121 q0 96 20 193 q20 97 53 191.5 q33 94.5 76.5 184.5 q43.5 90 90.5 172 q51 91 114.5 185 q63.5 94 138.5 179 q75 85 162.5 154 q87.5 69 186.5 109 q57 23 116 23 q46 0 84.5 -12 q38.5 -12 72.5 -33 q34 -21 65 -48.5 q31 -27.5 61 -59.5 q19 -20 29 -42.5 q10 -22.5 10 -50.5 Z"/>
</svg>