<?xml version="1.0" encoding="utf-8"?>
<svg id="" width="16" height="16" style="width:16px;height:16px;" version="1.1"
    xmlns="http://www.w3.org/2000/svg" viewBox="0 0 2048 2048" enable-background="new 0 0 2048 2048"
    xml:space="preserve"><path fill="#000000" d="M1618.29 0 q85.71 0 163.99 34.85 q78.29 34.85 137.14 93.72 q58.86 58.86 93.72 137.15 q34.86 78.28 34.86 163.99 l0 1188.58 q0 85.71 -34.86 163.99 q-34.86 78.29 -93.72 137.14 q-58.86 58.86 -137.14 93.72 q-78.28 34.86 -163.99 34.86 l-1188.58 0 q-85.71 0 -163.99 -34.86 q-78.29 -34.86 -137.15 -93.72 q-58.86 -58.86 -93.72 -137.14 q-34.85 -78.28 -34.85 -163.99 l0 -1188.58 q0 -85.71 34.85 -163.99 q34.85 -78.29 93.72 -137.15 q58.86 -58.86 137.15 -93.72 q78.28 -34.85 163.99 -34.85 l1188.58 0 ZM187.43 1757.71 l656 -656 q36.57 -36.57 82.86 -55.42 q46.28 -18.86 97.71 -18.86 q51.43 0 97.72 18.86 q46.28 18.86 82.85 55.42 l656 656 q20.57 -33.14 30.86 -70.86 q10.28 -37.71 10.28 -77.71 l0 -1176 q0 -57.14 -23.43 -109.14 q-23.42 -52 -62.86 -91.43 q-39.43 -39.43 -91.43 -62.86 q-52 -23.42 -109.14 -23.42 l-1181.72 0 q-57.14 0 -109.14 23.42 q-52 23.43 -91.43 62.86 q-39.43 39.43 -62.86 91.43 q-23.42 52 -23.42 109.14 l0 1176 q0 40 10.28 77.71 q10.29 37.71 30.86 70.86 ZM1170.29 658.29 q0 -44.58 17.14 -84.58 q17.14 -40 47.43 -70.29 q30.29 -30.29 70.29 -47.43 q40 -17.14 84.57 -17.14 q44.58 0 84.58 17.14 q40 17.14 70.28 47.43 q30.29 30.29 47.43 70.29 q17.14 40 17.14 84.58 q0 44.57 -17.14 84.57 q-17.14 40 -47.43 70.28 q-30.28 30.28 -70.28 47.42 q-40 17.14 -84.58 17.14 q-44.57 0 -84.57 -17.14 q-40 -17.14 -70.29 -47.42 q-30.29 -30.28 -47.43 -70.28 q-17.14 -40 -17.14 -84.57 ZM1316.57 658.29 q0 29.71 21.71 51.42 q21.72 21.72 51.43 21.72 q29.72 0 51.43 -21.72 q21.71 -21.71 21.71 -51.42 q0 -29.72 -21.71 -51.43 q-21.71 -21.72 -51.43 -21.72 q-29.71 0 -51.43 21.72 q-21.71 21.72 -21.71 51.43 ZM1609.14 1901.71 q81.15 0 148.57 -41.14 l-656 -656 q-32 -32 -77.71 -32 q-45.71 0 -77.71 32 l-656 656 q33.14 20.57 70.85 30.86 q37.72 10.28 77.72 10.28 l1170.28 0 Z"/></svg>