<?xml version="1.0" encoding="utf-8"?>
<svg id="" width="16" height="16" style="width:16px;height:16px;" version="1.1"
    xmlns="http://www.w3.org/2000/svg" viewBox="0 0 2048 2048" enable-background="new 0 0 2048 2048"
    xml:space="preserve"><path fill="#ffffff" transform="translate(0,125)" d="M2048 576 l0 640 q0 38 -14.5 73.5 q-14.5 35.5 -41.5 62.5 q-27 27 -62.5 41.5 q-35.5 14.5 -73.5 14.5 l-192 0 l0 192 q0 39 -15 74 q-15 35 -41.5 61.5 q-26.5 26.5 -61.5 41.5 q-35 15 -74 15 l-896 0 q-39 0 -74 -15 q-35 -15 -61.5 -41.5 q-26.5 -26.5 -41.5 -61.5 q-15 -35 -15 -74 l0 -192 l-192 0 q-38 0 -73.5 -14.5 q-35.5 -14.5 -62.5 -41.5 q-27 -27 -41.5 -62.5 q-14.5 -35.5 -14.5 -73.5 l0 -640 q0 -66 25 -124.5 q25 -58.5 68.5 -102 q43.5 -43.5 102 -68.5 q58.5 -25 124.5 -25 l64 0 l0 -64 q0 -40 15 -75 q15 -35 41 -61 q26 -26 61 -41 q35 -15 75 -15 l896 0 q40 0 75 15 q35 15 61 41 q26 26 41 61 q15 35 15 75 l0 64 l64 0 q66 0 124.5 25 q58.5 25 102 68.5 q43.5 43.5 68.5 102 q25 58.5 25 124.5 ZM512 256 l1024 0 l0 -64 q0 -26 -19 -45 q-19 -19 -45 -19 l-896 0 q-26 0 -45 19 q-19 19 -19 45 l0 64 ZM1920 576 q0 -40 -15 -75 q-15 -35 -41 -61 q-26 -26 -61 -41 q-35 -15 -75 -15 l-1408 0 q-40 0 -75 15 q-35 15 -61 41 q-26 26 -41 61 q-15 35 -15 75 l0 640 q0 26 19 45 q19 19 45 19 l192 0 l0 -192 q0 -39 15 -74 q15 -35 41.5 -61.5 q26.5 -26.5 61.5 -41.5 q35 -15 74 -15 l896 0 q39 0 74 15 q35 15 61.5 41.5 q26.5 26.5 41.5 61.5 q15 35 15 74 l0 192 l192 0 q26 0 45 -19 q19 -19 19 -45 l0 -640 ZM1536 1088 q0 -26 -19 -45 q-19 -19 -45 -19 l-896 0 q-26 0 -45 19 q-19 19 -19 45 l0 512 q0 26 19 45 q19 19 45 19 l896 0 q26 0 45 -19 q19 -19 19 -45 l0 -512 Z"/></svg>