<?xml version="1.0" encoding="utf-8"?>
<svg xmlns="http://www.w3.org/2000/svg" height="16" width="16" viewBox="0 0 16 16">
  <g>
    <path id="path1" transform="rotate(0,8,8) translate(-0.5,0) scale(0.0333333333333333,0.0333333333333333)  " fill="#FFFFFF" d="M256,432L260.8125,432.4375 265.25,433.75 269.3125,435.9375 273,439 276.0625,442.6875 278.25,446.75 279.5625,451.1875 280,456 279.5625,460.8125 278.25,465.25 276.0625,469.3125 273,473 269.3125,476.0625 265.25,478.25 260.8125,479.5625 256,480 251.187484741211,479.5625 246.749984741211,478.25 242.6875,476.0625 239,473 235.9375,469.3125 233.75,465.25 232.4375,460.8125 232,456 232.4375,451.1875 233.75,446.75 235.9375,442.6875 239,439 242.6875,435.9375 246.749984741211,433.75 251.187484741211,432.4375 256,432z M256,32L268.7109375,32.6172027587891 281.09375,34.4687690734863 293.1484375,37.5546989440918 304.875,41.875 316.09375,47.2578201293945 326.625,53.5312614440918 336.46875,60.6953239440918 345.625,68.75 353.984375,77.6171951293945 361.4375,87.21875 367.984375,97.5546875 373.625,108.625 378.1640625,120.2578125 381.40625,132.28125 383.3515625,144.695327758789 384,157.5 383.734375,167.3046875 382.9375,176.46875 381.609375,184.992202758789 379.75,192.875 377.390625,200.2734375 374.5625,207.343765258789 371.265625,214.085952758789 367.5,220.5 363.2890625,226.671875 358.65625,232.6875 353.6015625,238.546875 348.125,244.25 336.03125,255.875 322.5,268.25 308.25,280.875 301.375,287.21875 294.75,294 290.859375,298.4609375 287.4375,302.84375 284.484375,307.1484375 282,311.375 278.0625,319.8125 275.25,328.375 273.4375,337.28125 272.5,346.75 272.125,356.9375 272,368 271.703125,371.140625 270.8125,374.0625 269.328125,376.765625 267.25,379.25 264.765625,381.328125 262.0625,382.8125 259.140625,383.703125 256,384 251.093734741211,383.5 247.375,382 244.625,379.65625 242.625,376.625 241.28125,373.03125 240.5,369 240,360.5 240,352 240.296859741211,342.4140625 241.187484741211,333.40625 242.671859741211,324.9765625 244.75,317.125 247.3203125,309.75 250.28125,302.75 253.6328125,296.125 257.375,289.875 265.8125,278.3125 275.375,267.875 296,248.875 316.5,230.75 325.96875,221.34375 334.375,211.125 341.5,199.937515258789 347.125,187.625 349.2578125,180.945327758789 350.78125,173.781265258789 351.6953125,166.132827758789 352,158 351.515625,148.3984375 350.0625,139.09375 347.640625,130.085952758789 344.25,121.375 340.0390625,113.085945129395 335.15625,105.34375 329.6015625,98.1484375 323.375,91.5 316.5390625,85.4609375 309.15625,80.0937576293945 301.2265625,75.3984451293945 292.75,71.375 283.890625,68.1484451293945 274.8125,65.84375 265.515625,64.4609375 256,64 246.15625,64.46875 236.625,65.875 227.40625,68.21875 218.5,71.5 210.031234741211,75.59375 202.124984741211,80.375 194.78125,85.8437576293945 188,92 181.84375,98.7812576293945 176.375,106.125015258789 171.59375,114.031257629395 167.5,122.5 164.21875,131.406265258789 161.875,140.625015258789 160.46875,150.156265258789 160,160 159.703125,163.140625 158.8125,166.0625 157.328125,168.765625 155.25,171.25 152.765625,173.328140258789 150.0625,174.8125 147.140625,175.703125 144,176 140.25,175.6484375 137,174.59375 134.25,172.8359375 132,170.375 130.25,167.4609375 129,164.34375 128.25,161.0234375 128,157.5 128.6484375,144.695327758789 130.59375,132.28125 133.8359375,120.2578125 138.375,108.625 144.015625,97.5546875 150.5625,87.21875 158.015625,77.6171951293945 166.375,68.75 175.53125,60.6953239440918 185.375,53.5312614440918 195.90625,47.2578201293945 207.125,41.875 218.8515625,37.5546989440918 230.906234741211,34.4687690734863 243.289047241211,32.6172027587891 256,32z" />
  </g>
</svg>
