<?xml version="1.0" encoding="utf-8"?>
<svg id="" width="16" height="16" style="width:16px;height:16px;" version="1.1"
    xmlns="http://www.w3.org/2000/svg" viewBox="0 0 2048 2048" enable-background="new 0 0 2048 2048"
    xml:space="preserve"><path fill="#ffffff" d="M2048 603.43 l0 1152 q0 58.28 -22.86 111.42 q-22.86 53.14 -61.72 93.14 q-38.86 40 -90.86 64 q-52 24 -111.43 24 l-1468.57 0 q-58.28 0 -111.43 -22.86 q-53.14 -22.86 -93.14 -61.72 q-40 -38.86 -64 -90.86 q-24 -52 -24 -111.43 l0 -1468.57 q0 -58.28 22.86 -111.43 q22.86 -53.14 61.72 -93.14 q38.86 -40 90.86 -64 q52 -24 111.43 -24 l1157.71 0 q58.29 0 112 22.29 q53.72 22.29 94.86 63.42 l310.86 310.86 q41.14 41.14 63.43 94.85 q22.28 53.72 22.28 112 ZM1901.71 603.43 q0 -61.72 -42.28 -104 l-310.86 -310.86 q-35.43 -35.43 -85.71 -41.14 l0 364.57 q0 44.57 -17.14 84.57 q-17.14 40 -47.43 70.28 q-30.28 30.28 -70.28 47.43 q-40 17.14 -84.57 17.14 l-585.14 0 q-44.58 0 -84.58 -17.14 q-40 -17.14 -70.29 -47.43 q-30.29 -30.28 -47.43 -70.28 q-17.14 -40 -17.14 -84.57 l0 -365.71 l-146.29 0 q-30.86 0 -57.15 11.42 q-26.28 11.43 -46.28 31.43 q-20 20 -31.43 46.28 q-11.42 26.28 -11.42 57.15 l0 1462.86 q0 30.86 11.42 57.71 q11.43 26.86 30.86 46.28 q19.43 19.43 46.28 30.86 q26.85 11.43 57.72 11.43 l0 -658.28 q0 -44.57 17.15 -84.57 q17.14 -40 47.43 -70.29 q30.29 -30.28 70.29 -47.43 q40 -17.14 84.57 -17.14 l1024 0 q44.57 0 84.57 17.14 q40 17.14 70.29 47.43 q30.29 30.29 47.43 70.29 q17.14 40 17.14 84.57 l0 658.28 q30.86 0 57.14 -11.43 q26.29 -11.42 46.29 -31.42 q20 -20 31.42 -46.29 q11.43 -26.28 11.43 -57.14 l0 -1152 ZM585.14 146.29 l0 365.71 q0 29.71 21.72 51.42 q21.72 21.72 51.43 21.72 l585.14 0 q29.71 0 51.42 -21.72 q21.71 -21.71 21.71 -51.42 l0 -365.71 l-731.43 0 ZM1609.14 1901.71 l0 -658.28 q0 -29.72 -21.71 -51.43 q-21.72 -21.71 -51.43 -21.71 l-1024 0 q-29.71 0 -51.42 21.71 q-21.72 21.71 -21.72 51.43 l0 658.28 l1170.28 0 Z"/></svg>