<?xml version="1.0" encoding="utf-8"?>
<svg id="" width="16" height="16" style="width:16px;height:16px;" version="1.1"
    xmlns="http://www.w3.org/2000/svg" viewBox="0 0 2048 2048" enable-background="new 0 0 2048 2048"
    xml:space="preserve"><path fill="#000000" transform="translate(0, 250)" d="M640 218 l0 1254 q0 26 -19 45 q-19 19 -45 19 q-26 0 -45 -19 q-19 -19 -19 -45 l0 -1254 l-403 403 q-19 19 -45 19 q-26 0 -45 -19 q-19 -19 -19 -45 q0 -26 19 -45 l509 -509 q11 -11 22 -16.5 q11 -5.5 26 -5.5 q15 0 26 5.5 q11 5.5 22 16.5 l509 509 q19 19 19 45 q0 26 -19 45 q-19 19 -45 19 q-26 0 -45 -19 l-403 -403 ZM2048 960 q0 26 -19 45 l-509 509 q-11 11 -21.5 16.5 q-10.5 5.5 -26.5 5.5 q-16 0 -26.5 -5.5 q-10.5 -5.5 -21.5 -16.5 l-509 -509 q-19 -19 -19 -45 q0 -26 19 -45 q19 -19 45 -19 q26 0 45 19 l403 402 l0 -1253 q0 -26 19 -45 q19 -19 45 -19 q26 0 45 19 q19 19 19 45 l0 1253 l403 -402 q19 -19 45 -19 q26 0 45 19 q19 19 19 45 Z"/></svg>