<?xml version="1.0" encoding="utf-8"?>
<svg id="" width="16" height="16" style="width:16px;height:16px;" version="1.1"
    xmlns="http://www.w3.org/2000/svg" viewBox="0 0 2048 2048" enable-background="new 0 0 2048 2048"
    xml:space="preserve"><path fill="#000000" transform="translate(0, 40)" d="M64 1920 q-28 0 -46 -18.5 q-18 -18.5 -18 -46.5 q0 -7 2 -17 l189 -658 q5 -17 19 -30 q14 -13 32 -16 l878 -139 q14 -2 22 -11.5 q8 -9.5 8 -23.5 q0 -14 -8 -23.5 q-8 -9.5 -22 -11.5 l-878 -139 q-18 -3 -32 -16 q-14 -13 -19 -30 l-189 -658 q-2 -10 -2 -17 q0 -28 18 -46.5 q18 -18.5 46 -18.5 q15 0 27 6 l1920 896 q17 8 27 23.5 q10 15.5 10 34.5 q0 19 -10 34.5 q-10 15.5 -27 23.5 l-1920 896 q-12 6 -27 6 Z"/></svg>