<?xml version="1.0" encoding="utf-8"?>
<svg xmlns="http://www.w3.org/2000/svg" height="16" width="16" viewBox="0 0 16 16">
  <g>
    <path id="path1" transform="rotate(0,8,8) translate(0,0) scale(0.03125,0.03125)  " fill="#FFFFFF" d="M288,416L352,416 355.140625,416.296875 358.0625,417.1875 360.765625,418.671875 363.25,420.75 365.328125,423.234375 366.8125,425.9375 367.703125,428.859375 368,432 367.703125,435.140625 366.8125,438.0625 365.328125,440.765625 363.25,443.25 360.765625,445.328125 358.0625,446.8125 355.140625,447.703125 352,448 288,448 284.859375,447.703125 281.9375,446.8125 279.234375,445.328125 276.75,443.25 274.671875,440.765625 273.1875,438.0625 272.296875,435.140625 272,432 272.296875,428.859375 273.1875,425.9375 274.671875,423.234375 276.75,420.75 279.234375,418.671875 281.9375,417.1875 284.859375,416.296875 288,416z M496,352L499.140625,352.296875 502.0625,353.1875 504.765625,354.671875 507.25,356.75 509.328125,359.234375 510.8125,361.9375 511.703125,364.859375 512,368 512,385.25 511.6796875,391.4296875 510.71875,397.46875 509.1171875,403.3671875 506.875,409.125 504.09375,414.640625 500.874969482422,419.8125 497.218719482422,424.640625 493.125,429.125 488.640594482422,433.21875 483.812469482422,436.875 478.640625,440.09375 473.125,442.875 467.3671875,445.1171875 461.46875,446.71875 455.4296875,447.6796875 449.25,448 444.875,448.125 439.75,448.25 431.25,447.75 427.21875,446.96875 423.625,445.625 420.5625,443.59375 418.125,440.75 416.53125,436.9375 416,432 416.296875,428.859375 417.1875,425.9375 418.671875,423.234375 420.75,420.75 423.234375,418.671875 425.9375,417.1875 428.859375,416.296875 432,416 437.75,416.125 443.25,416.25 450.562469482422,415.84375 457.5,414.625 460.843719482422,413.5234375 464.124969482422,411.84375 467.34375,409.5859375 470.5,406.75 473.4375,403.4921875 475.749969482422,400.21875 477.437469482422,396.9296875 478.5,393.625 479.624969482422,386.71875 480,379.25 480,368 480.296844482422,364.859375 481.187469482422,361.9375 482.671875,359.234375 484.75,356.75 487.234375,354.671875 489.9375,353.1875 492.859375,352.296875 496,352z M144,352L147.140625,352.296875 150.0625,353.1875 152.765625,354.671875 155.25,356.75 157.328125,359.234375 158.8125,361.9375 159.703125,364.859375 160,368 159.875,373.75 159.75,379.25 160.15625,386.59375 161.375,393.625 162.4765625,397.0234375 164.15625,400.34375 166.4140625,403.5859375 169.25,406.75 172.4140625,409.5859375 175.65625,411.84375 178.9765625,413.5234375 182.375,414.625 189.40625,415.84375 196.75,416.25 202.25,416.125 208,416 211.140609741211,416.296875 214.062484741211,417.1875 216.765609741211,418.671875 219.25,420.75 221.328125,423.234375 222.8125,425.9375 223.703125,428.859375 224,432 223.703125,435.140625 222.8125,438.0625 221.328125,440.765625 219.25,443.25 216.765609741211,445.328125 214.062484741211,446.8125 211.140609741211,447.703125 208,448 190.75,448 184.5703125,447.6796875 178.53125,446.71875 172.6328125,445.1171875 166.875,442.875 161.359375,440.09375 156.1875,436.875 151.359375,433.21875 146.875,429.125 142.78125,424.640625 139.125,419.8125 135.90625,414.640625 133.125,409.125 130.8828125,403.3671875 129.28125,397.46875 128.3203125,391.4296875 128,385.25 127.875,380.875 127.75,375.75 128.25,367.25 129.03125,363.21875 130.375,359.625 132.40625,356.5625 135.25,354.125 139.0625,352.53125 144,352z M496,208L499.140625,208.296875 502.0625,209.1875 504.765625,210.671875 507.25,212.75 509.328125,215.234390258789 510.8125,217.937515258789 511.703125,220.859390258789 512,224 512,288 511.703125,291.140625 510.8125,294.0625 509.328125,296.765625 507.25,299.25 504.765625,301.328125 502.0625,302.8125 499.140625,303.703125 496,304 492.859375,303.703125 489.9375,302.8125 487.234375,301.328125 484.75,299.25 482.671875,296.765625 481.187469482422,294.0625 480.296844482422,291.140625 480,288 480,224 480.296844482422,220.859390258789 481.187469482422,217.937515258789 482.671875,215.234390258789 484.75,212.75 487.234375,210.671875 489.9375,209.1875 492.859375,208.296875 496,208z M432,64L449.25,64 455.4296875,64.3203125 461.46875,65.28125 467.3671875,66.8828201293945 473.125,69.125 478.640625,71.9062576293945 483.812469482422,75.1250076293945 488.640594482422,78.78125 493.125,82.875 497.218719482422,87.359375 500.874969482422,92.1875076293945 504.09375,97.3593826293945 506.875,102.875 509.1171875,108.632820129395 510.71875,114.531265258789 511.6796875,120.570320129395 512,126.75 512,136.25 511.5,144.75 510.71875,148.78125 509.375,152.375 507.374969482422,155.4375 504.625,157.875 500.90625,159.46875 496,160 492.859375,159.703125 489.9375,158.8125 487.234375,157.328140258789 484.75,155.25 482.671875,152.765625 481.187469482422,150.0625 480.296844482422,147.140625 480,144 480,132.75 479.624969482422,125.468757629395 478.5,118.625 477.437469482422,115.320320129395 475.749969482422,112.031257629395 473.4375,108.757820129395 470.5,105.5 467.2421875,102.562507629395 463.96875,100.250007629395 460.6796875,98.5625 457.375,97.5 450.531219482422,96.375 443.25,96 432,96 428.859375,95.703125 425.9375,94.8125076293945 423.234375,93.3281326293945 420.75,91.25 418.671875,88.7656326293945 417.1875,86.0625076293945 416.296875,83.1406326293945 416,80 416.296875,76.8593902587891 417.1875,73.9375152587891 418.671875,71.2343902587891 420.75,68.75 423.234375,66.6718826293945 425.9375,65.1875 428.859375,64.296875 432,64z M288,64L352,64 355.140625,64.296875 358.0625,65.1875 360.765625,66.6718826293945 363.25,68.75 365.328125,71.2343902587891 366.8125,73.9375152587891 367.703125,76.8593902587891 368,80 367.703125,83.1406326293945 366.8125,86.0625076293945 365.328125,88.7656326293945 363.25,91.25 360.765625,93.3281326293945 358.0625,94.8125076293945 355.140625,95.703125 352,96 288,96 284.859375,95.703125 281.9375,94.8125076293945 279.234375,93.3281326293945 276.75,91.25 274.671875,88.7656326293945 273.1875,86.0625076293945 272.296875,83.1406326293945 272,80 272.296875,76.8593902587891 273.1875,73.9375152587891 274.671875,71.2343902587891 276.75,68.75 279.234375,66.6718826293945 281.9375,65.1875 284.859375,64.296875 288,64z M144,32L148.4140625,32.3281402587891 152.65625,33.3125228881836 156.7265625,34.9531402587891 160.625,37.25 164.1796875,40.0781440734863 167.21875,43.3125267028809 169.7421875,46.9531478881836 171.75,51 180.25,72.875 188.75,94.75 191.75,101.398445129395 195.25,107.343765258789 199.25,112.585945129395 203.75,117.125 208.59375,121.117195129395 213.625,124.71875 218.84375,127.9296875 224.25,130.75 235.34375,135.53125 246.625,139.375 257.4375,143 267.125,147.125 271.484375,149.445327758789 275.4375,152.031265258789 278.984375,154.882827758789 282.125,158 284.6953125,161.546875 286.53125,165.6875 287.6328125,170.421875 288,175.75 287.671875,180.171875 286.6875,184.4375 285.046875,188.546875 282.75,192.5 279.921875,196.109390258789 276.6875,199.187515258789 273.046875,201.734390258789 269,203.75 247.125,212.25 225.25,220.75 218.4921875,223.750015258789 212.46875,227.250015258789 207.1796875,231.250015258789 202.625,235.75 198.6328125,240.59375 195.031234741211,245.625015258789 191.820297241211,250.843765258789 189,256.25 184.1875,267.34375 180.25,278.625 176.5625,289.4375 172.5,299.125 170.234375,303.484375 167.6875,307.4375 164.859375,310.984375 161.75,314.125 158.203125,316.6953125 154.0625,318.53125 149.328125,319.6328125 144,320 139.375,319.6796875 135,318.71875 130.875,317.1171875 127,314.875 123.5,312.0703125 120.5,308.78125 118,305.0078125 116,300.75 99.25,257.25 96.2578125,250.4921875 92.78125,244.46875 88.8203125,239.1796875 84.375,234.625 79.578125,230.632827758789 74.5625,227.03125 69.328125,223.8203125 63.875,221 52.6875,216.1875 41.375,212.25 30.5624980926514,208.562515258789 20.875,204.5 16.515625,202.226577758789 12.5625,199.656265258789 9.015625,196.789077758789 5.875,193.625 3.3046875,190.0234375 1.46875,185.84375 0.3671875,181.0859375 0,175.75 0.328125,171.132827758789 1.3125,166.781265258789 2.953125,162.695327758789 5.25,158.875 8.09375,155.4296875 11.375,152.46875 15.09375,149.9921875 19.25,148 62.5,131.25 69.2578125,128.250030517578 75.28125,124.750030517578 80.5703125,120.750022888184 85.125,116.25 89.1171875,111.398452758789 92.71875,106.343765258789 95.9296875,101.085952758789 98.75,95.625 103.53125,84.4687805175781 107.375,73.25 111,62.5000190734863 115.125,52.75 117.4453125,48.3437576293945 120.03125,44.3750076293945 122.8828125,40.8437576293945 126,37.75 129.5625,35.2343864440918 133.75,33.4375190734863 138.5625,32.3593902587891 144,32z" />
  </g>
</svg>
