<?xml version="1.0" encoding="utf-8"?>
<svg id="" width="16" height="16" style="width:16px;height:16px;" version="1.1"
    xmlns="http://www.w3.org/2000/svg" viewBox="0 0 2048 2048" enable-background="new 0 0 2048 2048"
    xml:space="preserve"><path fill="#ffffff" transform="translate(0,125)" d="M2048 1479 q0 63 -25.5 120 q-25.5 57 -68 99.5 q-42.5 42.5 -99.5 68 q-57 25.5 -120 25.5 l-1422 0 q-63 0 -120 -25.5 q-57 -25.5 -99.5 -68 q-42.5 -42.5 -68 -99.5 q-25.5 -57 -25.5 -120 l0 -1166 q0 -63 25.5 -120 q25.5 -57 68 -99.5 q42.5 -42.5 99.5 -68 q57 -25.5 120 -25.5 l391 0 q77 0 143.5 33.5 q66.5 33.5 112.5 94.5 l96 128 l679 0 q63 0 120 25.5 q57 25.5 99.5 68 q42.5 42.5 68 99.5 q25.5 57 25.5 120 l0 910 ZM128 384 l626 0 q27 0 50.5 -7 q23.5 -7 44.5 -18.5 q21 -11.5 41.5 -25.5 q20.5 -14 41.5 -29 q-24 -32 -46 -63.5 q-22 -31.5 -47.5 -56.5 q-25.5 -25 -58 -40.5 q-32.5 -15.5 -76.5 -15.5 l-384 0 q-39 0 -74 15 q-35 15 -61.5 41.5 q-26.5 26.5 -41.5 61.5 q-15 35 -15 74 l0 64 ZM128 1472 q0 39 15 74 q15 35 41.5 61.5 q26.5 26.5 61.5 41.5 q35 15 74 15 l1088 0 l0 -128 q-8 0 -16.5 0.5 q-8.5 0.5 -17.5 0.5 q-17 0 -33.5 -2 q-16.5 -2 -30 -8.5 q-13.5 -6.5 -22 -19.5 q-8.5 -13 -8.5 -35 q0 -22 8.5 -34.5 q8.5 -12.5 22 -19 q13.5 -6.5 30 -8.5 q16.5 -2 33.5 -2 l34 0 l0 -384 q-8 0 -16.5 0.5 q-8.5 0.5 -17.5 0.5 q-17 0 -33.5 -2 q-16.5 -2 -30 -8.5 q-13.5 -6.5 -22 -19.5 q-8.5 -13 -8.5 -35 q0 -22 8.5 -34.5 q8.5 -12.5 22 -19 q13.5 -6.5 30 -8.5 q16.5 -2 33.5 -2 l34 0 l0 -128 q-27 0 -50.5 -10 q-23.5 -10 -40.5 -27 q-17 -17 -27 -40.5 q-10 -23.5 -10 -50.5 l0 -256 l-237 0 q-36 24 -69 47 q-33 23 -67 41 q-34 18 -71 29 q-37 11 -82 11 l-626 0 l0 960 ZM1536 640 l0 -256 l-128 0 l0 256 l128 0 ZM1920 576 q0 -39 -15 -74 q-15 -35 -41.5 -61.5 q-26.5 -26.5 -61.5 -41.5 q-35 -15 -74 -15 l-64 0 l0 256 q0 27 -10 50 q-10 23 -27.5 40.5 q-17.5 17.5 -40.5 27.5 q-23 10 -50 10 l0 384 l34 0 q17 0 33.5 2 q16.5 2 30 8.5 q13.5 6.5 22 19 q8.5 12.5 8.5 34.5 q0 22 -8.5 35 q-8.5 13 -22 19.5 q-13.5 6.5 -30 8.5 q-16.5 2 -33.5 2 q-9 0 -17.5 -0.5 q-8.5 -0.5 -16.5 -0.5 l0 384 l192 0 q39 0 74 -15 q35 -15 61.5 -41.5 q26.5 -26.5 41.5 -61.5 q15 -35 15 -74 l0 -896 Z"/></svg>