<?xml version="1.0" encoding="utf-8"?>
<svg id="" width="16" height="16" style="width:16px;height:16px;" version="1.1"
    xmlns="http://www.w3.org/2000/svg" viewBox="0 0 2048 2048" enable-background="new 0 0 2048 2048"
    xml:space="preserve"><path fill="#ffffff" d="M2048 1974.86 q0 29.71 -21.72 51.42 q-21.71 21.72 -51.42 21.72 q-29.72 0 -51.43 -21.71 l-604.57 -604.58 q-107.43 90.29 -240.57 138.86 q-133.15 48.57 -273.72 48.57 q-110.86 0 -213.72 -28.57 q-102.86 -28.57 -192 -81.14 q-89.15 -52.57 -162.86 -126.28 q-73.71 -73.71 -126.28 -162.86 q-52.58 -89.14 -81.15 -192 q-28.57 -102.86 -28.57 -213.72 q0 -110.86 28.57 -213.72 q28.57 -102.86 81.15 -192 q52.57 -89.15 126.28 -162.86 q73.71 -73.71 162.86 -126.28 q89.14 -52.58 192 -81.15 q102.86 -28.57 213.72 -28.57 q110.86 0 213.72 28.57 q102.86 28.57 192 81.15 q89.14 52.57 162.86 126.28 q73.71 73.71 126.28 162.86 q52.57 89.14 81.14 192 q28.57 102.86 28.57 213.72 q0 140.57 -48.57 273.72 q-48.57 133.14 -138.86 240.57 l604.58 604.57 q21.71 21.71 21.71 51.43 ZM1462.86 804.57 q0 -90.28 -23.43 -174.28 q-23.43 -84 -66.28 -157.14 q-42.86 -73.14 -103.43 -133.71 q-60.58 -60.57 -133.72 -103.43 q-73.14 -42.86 -157.14 -66.29 q-84 -23.42 -174.29 -23.42 q-136 0 -256 52 q-120 52 -209.14 141.14 q-89.14 89.14 -141.14 209.14 q-52 120 -52 256 q0 137.14 51.42 257.14 q51.43 120 140.57 209.14 q89.15 89.14 209.14 140.57 q120 51.43 257.14 51.43 q136 0 256 -52 q120 -52 209.14 -141.14 q89.14 -89.14 141.14 -209.14 q52 -120 52 -256 ZM1170.29 731.43 q29.71 0 51.43 21.72 q21.71 21.72 21.71 51.43 q0 29.72 -21.71 51.43 q-21.72 21.71 -51.43 21.71 l-731.43 0 q-29.72 0 -51.44 -21.71 q-21.71 -21.71 -21.71 -51.43 q0 -29.71 21.71 -51.43 q21.72 -21.72 51.44 -21.72 l731.43 0 Z"/></svg>