<?xml version="1.0" encoding="utf-8"?>
<svg id="" width="16" height="16" style="width:16px;height:16px;" version="1.1"
    xmlns="http://www.w3.org/2000/svg" viewBox="0 0 2048 2048" enable-background="new 0 0 2048 2048"
    xml:space="preserve">
    <path fill="#9D5D00" d="M1024 2048 q-140.8 0 -272 -36.8 q-131.2 -36.8 -244.8 -103.46 q-113.6 -66.67 -206.94 -160 q-93.33 -93.34 -160 -206.93 q-66.66 -113.6 -103.46 -244.27 q-36.8 -130.66 -36.8 -272.53 q0 -140.8 36.8 -271.46 q36.8 -130.67 103.46 -244.8 q66.67 -114.13 160 -207.47 q93.34 -93.33 207.47 -160 q114.13 -66.66 244.8 -103.46 q130.66 -36.8 271.46 -36.8 q140.8 0 271.47 36.8 q130.66 36.8 244.26 103.46 q113.6 66.67 207.47 160.54 q93.87 93.87 160.54 207.47 q66.66 113.6 103.46 244.27 q36.8 130.66 36.8 271.46 q0 140.8 -36.8 271.47 q-36.8 130.66 -103.46 244.8 q-66.67 114.13 -160 207.47 q-93.34 93.33 -207.47 160 q-114.13 66.66 -244.8 103.46 q-130.67 36.8 -271.47 36.8 Z"/>
    <path fill="#ffffff" d="M1126.4 1399.47 q0 -42.67 -29.87 -72.54 q-29.87 -29.87 -72.54 -29.87 q-42.67 0 -72.53 29.87 q-29.87 29.87 -29.87 72.54 q0 42.66 29.87 72.53 q29.87 29.87 72.53 29.87 q42.67 0 72.54 -29.87 q29.87 -29.87 29.87 -72.53 ZM1092.27 580.27 q0 -27.74 -20.27 -48 q-20.27 -20.26 -48 -20.26 q-27.73 0 -48 20.26 q-20.27 20.26 -20.27 48 l0 546.13 q0 27.73 20.27 48 q20.27 20.27 48 20.27 q27.73 0 48 -20.27 q20.27 -20.27 20.27 -48 l0 -546.13 Z"/>
</svg>