<?xml version="1.0" encoding="utf-8"?>
<svg id="" width="16" height="16" style="width:16px;height:16px;" version="1.1"
    xmlns="http://www.w3.org/2000/svg" viewBox="0 0 2048 2048" enable-background="new 0 0 2048 2048"
    xml:space="preserve"><path fill="#000000" d="M1920 1287 l0 -135 l128 0 l0 384 l-384 0 l0 -128 l192 0 q-45 -60 -113 -94 q-68 -34 -143 -34 q-51 0 -98 15.5 q-47 15.5 -87 43.5 q-40 28 -70 67 q-30 39 -47 87 l-120 -42 q24 -67 66 -122 q42 -55 97.5 -94.5 q55.5 -39.5 121.5 -61 q66 -21.5 137 -21.5 q91 0 174 34.5 q83 34.5 146 100.5 ZM448 0 q93 0 174.5 35 q81.5 35 142.5 96 q61 61 96 142.5 q35 81.5 35 174.5 q0 93 -35 174.5 q-35 81.5 -96 142.5 q-61 61 -142.5 96 q-81.5 35 -174.5 35 q-93 0 -174.5 -35 q-81.5 -35 -142.5 -96 q-61 -61 -96 -142.5 q-35 -81.5 -35 -174.5 q0 -93 35 -174.5 q35 -81.5 96 -142.5 q61 -61 142.5 -96 q81.5 -35 174.5 -35 ZM128 448 q0 66 25 124.5 q25 58.5 68.5 102 q43.5 43.5 102 68.5 q58.5 25 124.5 25 q47 0 92 -13.5 q45 -13.5 84 -39.5 l-443 -443 q-26 39 -39.5 84 q-13.5 45 -13.5 92 ZM272 181 l443 443 q26 -39 39.5 -84 q13.5 -45 13.5 -92 q0 -66 -25.5 -124 q-25.5 -58 -69 -101.5 q-43.5 -43.5 -101.5 -69 q-58 -25.5 -124 -25.5 q-47 0 -92 13.5 q-45 13.5 -84 39.5 ZM1600 1920 q51 0 98 -15.5 q47 -15.5 86.5 -43.5 q39.5 -28 70 -67 q30.5 -39 47.5 -87 l120 42 q-24 67 -66 122 q-42 55 -97.5 94.5 q-55.5 39.5 -121.5 61 q-66 21.5 -137 21.5 q-91 0 -174 -34.5 q-83 -34.5 -146 -100.5 l0 135 l-128 0 l0 -384 l384 0 l0 128 l-192 0 q45 60 113 94 q68 34 143 34 ZM1600 890 l-370 -369 q-38 -38 -58 -86.5 q-20 -48.5 -20 -102.5 q0 -55 21 -104 q21 -49 57 -85.5 q36 -36.5 84.5 -57.5 q48.5 -21 104.5 -21 q51 0 97.5 18 q46.5 18 83.5 52 q37 -34 83.5 -52 q46.5 -18 97.5 -18 q55 0 104 21 q49 21 85 57.5 q36 36.5 57 85.5 q21 49 21 104 q0 54 -20 102.5 q-20 48.5 -58 86.5 l-370 369 ZM1420 192 q-29 0 -54.5 11 q-25.5 11 -44.5 30 q-19 19 -30 44.5 q-11 25.5 -11 54.5 q0 28 10.5 53 q10.5 25 30.5 45 l279 279 l279 -279 q41 -41 41 -98 q0 -29 -11 -54.5 q-11 -25.5 -30 -44.5 q-19 -19 -44.5 -30 q-25.5 -11 -54.5 -11 q-29 0 -53.5 10.5 q-24.5 10.5 -44.5 30.5 l-82 82 l-82 -82 q-20 -20 -45 -30.5 q-25 -10.5 -53 -10.5 ZM384 1152 l128 0 l0 384 l384 0 l0 128 l-384 0 l0 384 l-128 0 l0 -384 l-384 0 l0 -128 l384 0 l0 -384 Z"/></svg>