<?xml version="1.0" encoding="utf-8"?>
<svg id="" width="12" height="12" style="width:12px;height:12px;" version="1.1"
    xmlns="http://www.w3.org/2000/svg" viewBox="0 0 2500 2500" enable-background="new 0 0 2048 2048"
    xml:space="preserve"><path fill="#ffffff" transform="translate(200, 700)" d="M0 170.67 q0 -34.67 13.34 -66 q13.34 -31.33 36.66 -54.66 q23.33 -23.33 54.66 -36.66 q31.34 -13.34 66 -13.34 q33.33 0 65.33 14 q32 14 54.67 36.67 l732 733.33 l733.33 -733.33 q50.67 -50.67 121.33 -50.67 q34.67 0 65.34 14 q30.66 14 54 37.34 q23.34 23.34 37.34 54 q14 30.66 14 65.33 q0 70.66 -50.67 121.33 l-853.33 853.33 q-24 24 -55.34 37.34 q-31.34 13.34 -66 13.34 q-69.34 0 -120 -50.67 l-853.34 -853.33 q-49.33 -49.33 -49.33 -121.33 Z"/></svg>