<?xml version="1.0" encoding="utf-8"?>
<svg id="" width="12" height="12" style="width:12px;height:12px;" version="1.1"
    xmlns="http://www.w3.org/2000/svg" viewBox="0 0 2500 2500" enable-background="new 0 0 2048 2048"
    xml:space="preserve"><path fill="#000000" transform="translate(200, 600)" d="M1022.67 413.33 l-732 732 q-24 24 -55.34 36.67 q-31.34 12.67 -64.67 12.67 q-36 0 -67.33 -12.67 q-31.33 -12.67 -54.67 -36 q-23.34 -23.33 -36 -54.66 q-12.66 -31.34 -12.66 -67.34 q0 -33.33 12.66 -64.66 q12.66 -31.34 36.66 -55.34 l853.34 -853.33 q50.66 -50.67 121.33 -50.67 q33.33 0 65.33 14 q32 14 54.67 36.67 l853.33 853.33 q22.67 22.67 36.67 54.67 q14 32 14 65.33 q0 34.67 -14 66 q-14 31.33 -37.34 54.66 q-23.34 23.34 -54.66 37.34 q-31.33 14 -66 14 q-69.33 0 -120 -50.67 l-733.33 -732 Z"/></svg>