<?xml version="1.0" encoding="utf-8"?>
<svg id="" width="16" height="16" style="width:16px;height:16px;" version="1.1"
    xmlns="http://www.w3.org/2000/svg" viewBox="0 0 2048 2048" enable-background="new 0 0 2048 2048"
    xml:space="preserve">
    <path fill="#C42B1C" d="M0 1024 q0 -140.8 36.8 -271.46 q36.8 -130.67 103.46 -244.8 q66.67 -114.13 160 -207.47 q93.34 -93.33 207.47 -160 q114.13 -66.66 244.8 -103.46 q130.66 -36.8 271.46 -36.8 q140.8 0 271.47 36.8 q130.66 36.8 244.26 103.46 q113.6 66.67 207.47 160.54 q93.87 93.87 160.54 207.47 q66.66 113.6 103.46 244.27 q36.8 130.66 36.8 271.46 q0 140.8 -36.8 271.47 q-36.8 130.66 -103.46 244.8 q-66.67 114.13 -160 207.47 q-93.34 93.33 -207.47 160 q-114.13 66.66 -244.8 103.46 q-130.67 36.8 -271.47 36.8 q-141.87 0 -272.54 -36.8 q-130.66 -36.8 -244.26 -103.46 q-113.6 -66.67 -206.94 -160 q-93.33 -93.34 -160 -206.93 q-66.66 -113.6 -103.46 -244.8 q-36.8 -131.2 -36.8 -272 Z"/>
    <path fill="#ffffff" d="M648.53 1484.8 q16 0 32.54 -6.4 q16.53 -6.4 28.26 -18.13 l314.67 -315.74 l314.67 315.74 q11.73 11.73 28.26 18.13 q16.54 6.4 32.54 6.4 q36.26 0 60.79 -24.54 q24.54 -24.53 24.54 -60.79 q0 -36.27 -24.53 -60.8 l-315.74 -314.67 l315.74 -314.67 q24.53 -24.53 24.53 -60.8 q0 -36.26 -24.54 -60.79 q-24.53 -24.53 -60.79 -24.53 q-36.27 0 -60.8 24.53 l-314.67 315.74 l-314.67 -315.74 q-24.53 -24.53 -60.8 -24.53 q-36.26 0 -60.79 24.53 q-24.53 24.53 -24.53 60.79 q0 16 6.4 32.54 q6.4 16.53 18.13 28.26 l315.74 314.67 l-315.74 314.67 q-11.73 11.73 -18.13 28.26 q-6.4 16.54 -6.4 32.54 q0 35.2 25.07 60.27 q25.06 25.06 60.26 25.06 Z"/>
</svg>