<?xml version="1.0" encoding="utf-8"?>
<svg id="" width="16" height="16" style="width:16px;height:16px;" version="1.1"
    xmlns="http://www.w3.org/2000/svg" viewBox="0 0 2048 2048" enable-background="new 0 0 2048 2048"
    xml:space="preserve"><path fill="#ffffff" d="M1828.57 0 q44.57 0 84.57 17.14 q40 17.14 70.29 47.43 q30.28 30.28 47.43 70.29 q17.14 40 17.14 84.57 l0 1609.14 q0 44.57 -17.14 84.57 q-17.14 40 -47.43 70.29 q-30.29 30.28 -70.29 47.43 q-40 17.14 -84.57 17.14 l-1609.14 0 q-44.57 0 -84.57 -17.14 q-40 -17.14 -70.29 -47.43 q-30.29 -30.29 -47.43 -70.29 q-17.14 -40 -17.14 -84.57 l0 -1609.14 q0 -44.57 17.14 -84.57 q17.14 -40 47.43 -70.29 q30.28 -30.29 70.29 -47.43 q40 -17.14 84.57 -17.14 l1609.14 0 ZM219.43 146.29 q-29.72 0 -51.43 21.71 q-21.71 21.71 -21.71 51.43 l0 365.71 l438.85 0 l0 -438.85 l-365.71 0 ZM731.43 146.29 l0 438.85 l585.14 0 l0 -438.85 l-585.14 0 ZM1901.71 219.43 q0 -29.72 -21.71 -51.43 q-21.71 -21.71 -51.43 -21.71 l-365.71 0 l0 438.85 l438.85 0 l0 -365.71 ZM585.14 731.43 l-438.85 0 l0 585.14 l438.85 0 l0 -585.14 ZM731.43 731.43 l0 585.14 l585.14 0 l0 -585.14 l-585.14 0 ZM1901.71 731.43 l-438.85 0 l0 585.14 l438.85 0 l0 -585.14 ZM146.29 1828.57 q0 29.72 21.71 51.43 q21.71 21.71 51.43 21.71 l365.71 0 l0 -438.85 l-438.85 0 l0 365.71 ZM1316.57 1901.71 l0 -438.85 l-585.14 0 l0 438.85 l585.14 0 ZM1828.57 1901.71 q29.72 0 51.43 -21.71 q21.71 -21.71 21.71 -51.43 l0 -365.71 l-438.85 0 l0 438.85 l365.71 0 Z"/></svg>