<?xml version="1.0" encoding="utf-8"?>
<svg id="" width="16" height="16" style="width:16px;height:16px;" version="1.1"
    xmlns="http://www.w3.org/2000/svg" viewBox="0 0 2048 2048" enable-background="new 0 0 2048 2048"
    xml:space="preserve"><path fill="#000000" d="M448 2048 q-39 0 -74 -15 q-35 -15 -61.5 -41.5 q-26.5 -26.5 -41.5 -61.5 q-15 -35 -15 -74 l0 -1536 q0 -39 15 -74 q15 -35 41.5 -61.5 q26.5 -26.5 61.5 -41.5 q35 -15 74 -15 l203 0 q10 -29 28 -52.5 q18 -23.5 42 -40.5 q24 -17 52 -26 q28 -9 59 -9 l384 0 q31 0 59 9 q28 9 52 26 q24 17 42 40.5 q18 23.5 28 52.5 l203 0 q39 0 74 15 q35 15 61.5 41.5 q26.5 26.5 41.5 61.5 q15 35 15 74 l0 1536 q0 39 -15 74 q-15 35 -41.5 61.5 q-26.5 26.5 -61.5 41.5 q-35 15 -74 15 l-1152 0 ZM1216 256 q26 0 45 -19 q19 -19 19 -45 q0 -26 -19 -45 q-19 -19 -45 -19 l-384 0 q-26 0 -45 19 q-19 19 -19 45 q0 26 19 45 q19 19 45 19 l384 0 ZM1600 1920 q26 0 45 -19 q19 -19 19 -45 l0 -1536 q0 -26 -19 -45 q-19 -19 -45 -19 l-203 0 q-10 29 -28 52.5 q-18 23.5 -42 40 q-24 16.5 -52.5 26 q-28.5 9.5 -58.5 9.5 l-384 0 q-30 0 -58 -9.5 q-28 -9.5 -52 -26 q-24 -16.5 -42.5 -40 q-18.5 -23.5 -28.5 -52.5 l-203 0 q-26 0 -45 19 q-19 19 -19 45 l0 1536 q0 26 19 45 q19 19 45 19 l1152 0 ZM512 832 q0 -27 10 -50 q10 -23 27.5 -40.5 q17.5 -17.5 40.5 -27.5 q23 -10 50 -10 q26 0 49.5 10 q23.5 10 41 27.5 q17.5 17.5 27.5 41 q10 23.5 10 49.5 q0 27 -10 50 q-10 23 -27.5 40.5 q-17.5 17.5 -40.5 27.5 q-23 10 -50 10 q-27 0 -50.5 -10 q-23.5 -10 -40.5 -27 q-17 -17 -27 -40.5 q-10 -23.5 -10 -50.5 ZM960 896 q-26 0 -45 -19 q-19 -19 -19 -45 q0 -26 19 -45 q19 -19 45 -19 l512 0 q26 0 45 19 q19 19 19 45 q0 26 -19 45 q-19 19 -45 19 l-512 0 ZM512 1216 q0 -27 10 -50 q10 -23 27.5 -40.5 q17.5 -17.5 40.5 -27.5 q23 -10 50 -10 q26 0 49.5 10 q23.5 10 41 27.5 q17.5 17.5 27.5 41 q10 23.5 10 49.5 q0 27 -10 50 q-10 23 -27.5 40.5 q-17.5 17.5 -40.5 27.5 q-23 10 -50 10 q-27 0 -50.5 -10 q-23.5 -10 -40.5 -27 q-17 -17 -27 -40.5 q-10 -23.5 -10 -50.5 ZM960 1280 q-26 0 -45 -19 q-19 -19 -19 -45 q0 -26 19 -45 q19 -19 45 -19 l512 0 q26 0 45 19 q19 19 19 45 q0 26 -19 45 q-19 19 -45 19 l-512 0 ZM512 1600 q0 -27 10 -50 q10 -23 27.5 -40.5 q17.5 -17.5 40.5 -27.5 q23 -10 50 -10 q26 0 49.5 10 q23.5 10 41 27.5 q17.5 17.5 27.5 41 q10 23.5 10 49.5 q0 27 -10 50 q-10 23 -27.5 40.5 q-17.5 17.5 -40.5 27.5 q-23 10 -50 10 q-27 0 -50.5 -10 q-23.5 -10 -40.5 -27 q-17 -17 -27 -40.5 q-10 -23.5 -10 -50.5 ZM960 1664 q-26 0 -45 -19 q-19 -19 -19 -45 q0 -26 19 -45 q19 -19 45 -19 l512 0 q26 0 45 19 q19 19 19 45 q0 26 -19 45 q-19 19 -45 19 l-512 0 Z"/></svg>