<?xml version="1.0" encoding="utf-8"?>
<svg id="" width="16" height="16" style="width:16px;height:16px;" version="1.1"
    xmlns="http://www.w3.org/2000/svg" viewBox="0 0 2048 2048" enable-background="new 0 0 2048 2048"
    xml:space="preserve"><path fill="#000000" d="M1152 315 q0 -30 12 -47.5 q12 -17.5 31 -28.5 q19 -11 42.5 -20 q23.5 -9 47.5 -22.5 q24 -13.5 46 -35.5 q22 -22 37 -60 l19 -48 q11 -26 34.5 -39.5 q23.5 -13.5 50.5 -13.5 q28 0 51.5 14 q23.5 14 34.5 40 l18 47 q14 37 35.5 58.5 q21.5 21.5 45.5 35 q24 13.5 48 23 q24 9.5 43.5 21 q19.5 11.5 31.5 29 q12 17.5 12 47.5 q0 28 -16 51 q-16 23 -42 34 l-48 19 q-38 15 -59.5 37 q-21.5 22 -35.5 46 q-14 24 -22.5 47.5 q-8.5 23.5 -20 42.5 q-11.5 19 -29 31 q-17.5 12 -47.5 12 q-28 0 -51 -16 q-23 -16 -34 -42 q-12 -28 -22 -52 q-10 -24 -23.5 -43.5 q-13.5 -19.5 -33 -35 q-19.5 -15.5 -50.5 -27.5 q-19 -8 -38 -15.5 q-19 -7.5 -34 -19 q-15 -11.5 -24.5 -28 q-9.5 -16.5 -9.5 -41.5 ZM16 315 q0 -20 14 -34 q14 -14 34 -14 q16 0 29.5 -7.5 q13.5 -7.5 24.5 -18.5 q15 -15 20 -33 q5 -18 9.5 -33.5 q4.5 -15.5 13 -25.5 q8.5 -10 31.5 -10 q20 0 34 14 q14 14 14 34 q0 16 7.5 29.5 q7.5 13.5 18.5 24.5 q15 15 33 20 q18 5 33.5 9.5 q15.5 4.5 25.5 13 q10 8.5 10 31.5 q0 20 -14 34 q-14 14 -34 14 q-16 0 -29.5 7.5 q-13.5 7.5 -24.5 18.5 q-15 15 -20 33 q-5 18 -9.5 33.5 q-4.5 15.5 -13 25.5 q-8.5 10 -31.5 10 q-19 0 -33.5 -14.5 q-14.5 -14.5 -14.5 -33.5 q0 -14 -7 -28.5 q-7 -14.5 -18.5 -26 q-11.5 -11.5 -26 -18.5 q-14.5 -7 -28.5 -7 q-19 0 -33.5 -14.5 q-14.5 -14.5 -14.5 -33.5 ZM1606 315 q-43 -22 -77.5 -56.5 q-34.5 -34.5 -56.5 -77.5 q-48 86 -134 134 q43 22 77 57 q34 35 57 77 q22 -43 56.5 -77.5 q34.5 -34.5 77.5 -56.5 ZM631 1209 q0 -21 11.5 -36 q11.5 -15 29.5 -23 q71 -33 135 -75.5 q64 -42.5 112 -98 q48 -55.5 76.5 -124 q28.5 -68.5 28.5 -153.5 q0 -49 -9.5 -105 q-9.5 -56 -32.5 -104 q-23 -48 -63.5 -79.5 q-40.5 -31.5 -101.5 -31.5 q-38 0 -70 7.5 q-32 7.5 -56 24.5 q-24 17 -37.5 45 q-13.5 28 -13.5 70 q0 18 6 37.5 q6 19.5 17.5 35 q11.5 15.5 28 26 q16.5 10.5 37.5 10.5 q29 0 44 -11 q15 -11 26.5 -24.5 q11.5 -13.5 24 -25 q12.5 -11.5 36.5 -11.5 q27 0 45.5 19 q18.5 19 18.5 45 q0 11 -4 21 q-4 10 -10 19 q-32 47 -79.5 71.5 q-47.5 24.5 -104.5 24.5 q-45 0 -84 -20 q-39 -20 -68 -52.5 q-29 -32.5 -45.5 -73.5 q-16.5 -41 -16.5 -84 q0 -69 23 -121.5 q23 -52.5 63.5 -88.5 q40.5 -36 96.5 -54 q56 -18 122 -18 q60 0 108 18 q48 18 85.5 50 q37.5 32 64 74.5 q26.5 42.5 44 91.5 q17.5 49 25.5 101.5 q8 52.5 8 104.5 q0 82 -18 156.5 q-18 74.5 -66 143.5 q-37 54 -82 101.5 q-45 47.5 -99 83.5 q-12 8 -38.5 24.5 q-26.5 16.5 -55.5 32.5 q-29 16 -56 28 q-27 12 -41 12 q-27 0 -46 -18.5 q-19 -18.5 -19 -45.5 ZM1680 699 q0 -20 14 -34 q14 -14 34 -14 q16 0 29.5 -7.5 q13.5 -7.5 24.5 -18.5 q15 -15 20 -33 q5 -18 9.5 -33.5 q4.5 -15.5 13 -25.5 q8.5 -10 31.5 -10 q20 0 34 14 q14 14 14 34 q0 16 7.5 29.5 q7.5 13.5 18.5 24.5 q15 15 33 20 q18 5 33.5 9.5 q15.5 4.5 25.5 13 q10 8.5 10 31.5 q0 20 -14 34 q-14 14 -34 14 q-16 0 -29.5 7.5 q-13.5 7.5 -24.5 18.5 q-15 15 -20 33 q-5 18 -9.5 33.5 q-4.5 15.5 -13 25.5 q-8.5 10 -31.5 10 q-19 0 -33.5 -14.5 q-14.5 -14.5 -14.5 -33.5 q0 -14 -7 -28.5 q-7 -14.5 -18.5 -26 q-11.5 -11.5 -26 -18.5 q-14.5 -7 -28.5 -7 q-19 0 -33.5 -14.5 q-14.5 -14.5 -14.5 -33.5 ZM569 2043 q-65 0 -122 -26 q-57 -26 -99.5 -70 q-42.5 -44 -67 -102 q-24.5 -58 -24.5 -122 l0 -613 l-147 146 q-19 19 -45 19 q-26 0 -45 -19 q-19 -19 -19 -45 q0 -26 19 -45 l256 -256 q19 -19 45 -19 l502 0 q-73 81 -171 128 l-267 0 l0 704 q0 39 15 74 q15 35 41.5 61.5 q26.5 26.5 61.5 41.5 q35 15 74 15 l896 0 q39 0 74 -15 q35 -15 61.5 -41.5 q26.5 -26.5 41.5 -61.5 q15 -35 15 -74 l0 -704 l-466 0 q17 -30 30.5 -62.5 q13.5 -32.5 23.5 -65.5 l476 0 q26 0 45 19 l256 256 q19 19 19 45 q0 26 -19 45 q-19 19 -45 19 q-26 0 -45 -19 l-147 -146 l0 620 q0 63 -25.5 120 q-25.5 57 -68 99.5 q-42.5 42.5 -99.5 68 q-57 25.5 -120 25.5 l-910 0 Z"/></svg>