<?xml version="1.0" encoding="utf-8"?><!DOCTYPE svg PUBLIC "-//W3C//DTD SVG 1.1//EN" "http://www.w3.org/Graphics/SVG/1.1/DTD/svg11.dtd"><svg id="" width="16" height="16" style="width:16px;height:16px;" version="1.1" xmlns="http://www.w3.org/2000/svg" viewBox="0 0 2048 2048" enable-background="new 0 0 2048 2048" xml:space="preserve"><path fill="#000000" d="M0 1215 q0 -8 9 -35 q9 -27 22.5 -64 q13.5 -37 30.5 -79.5 q17 -42.5 32.5 -81 q15.5 -38.5 28.5 -69.5 q13 -31 18 -45 l311 -800 q8 -19 24 -30 q16 -11 36 -11 q22 0 36.5 11 q14.5 11 23.5 30 q9 20 16.5 41.5 q7.5 21.5 15.5 41.5 l75 194 q57 146 113.5 291 q56.5 145 113.5 291 l-68 179 l-58 -150 l-536 0 l-120 310 q-8 19 -24.5 30 q-16.5 11 -36.5 11 q-27 0 -45 -19.5 q-18 -19.5 -18 -45.5 ZM512 241 l-218 560 l436 0 l-218 -560 ZM576 2048 q-26 0 -45 -19 q-19 -19 -19 -45 q0 -21 8.5 -34 q8.5 -13 22.5 -20 q14 -7 31 -9 q17 -2 35 -2 q14 0 27 0.5 q13 0.5 24 0.5 l560 -1494 q7 -19 23.5 -30.5 q16.5 -11.5 36.5 -11.5 q20 0 36.5 11 q16.5 11 23.5 30 l572 1495 q11 0 21.5 -0.5 q10.5 -0.5 21.5 -0.5 q17 0 34 2 q17 2 30 9 q13 7 21 20 q8 13 8 34 q0 26 -19 45 q-19 19 -45 19 l-256 0 q-26 0 -45 -19 q-19 -19 -19 -45 q0 -23 9.5 -36 q9.5 -13 24 -19 q14.5 -6 32.5 -7.5 q18 -1.5 36 -1.5 l9 0 l-147 -384 l-688 0 l-144 384 q18 0 35.5 1.5 q17.5 1.5 32 7.5 q14.5 6 23.5 19 q9 13 9 36 q0 26 -19 45 q-19 19 -45 19 l-256 0 ZM1281 629 l-293 779 l591 0 l-298 -779 Z"/></svg>