<?xml version="1.0" encoding="utf-8"?>
<svg id="" width="16" height="16" style="width:16px;height:16px;" version="1.1"
    xmlns="http://www.w3.org/2000/svg" viewBox="0 0 2048 2048" enable-background="new 0 0 2048 2048"
    xml:space="preserve"><path fill="#ffffff" transform="translate(0, 300)" d="M0 716.26 q0 -41.99 30 -71.99 q30 -30 71.98 -30 q41.99 0 71.99 29.99 l542.29 542.3 l1156.57 -1156.58 q30 -29.99 71.99 -29.99 q21.6 0 40.19 7.8 q18.6 7.8 32.39 21.59 q13.8 13.79 22.19 32.39 q8.4 18.59 8.4 40.2 q0 41.99 -31.19 73.19 l-1228.56 1228.56 q-30 29.99 -71.99 29.99 q-41.99 0 -71.99 -29.99 l-614.28 -614.28 q-29.99 -30 -29.99 -73.19 Z"/></svg>