<?xml version="1.0" encoding="utf-8"?>
<svg xmlns="http://www.w3.org/2000/svg" width="16" height="16" viewBox="0 0 2048 2048">
  <g transform="translate(0, 2048) scale(1, -1)">
    <path fill="#ffffff" d="M1023 0Q997 0 975.0 10.0Q953 20 937 40L823 183Q763 135 685 135Q635 135 590.0 157.0Q545 179 514 217L239 559Q191 619 191 697Q191 729 200.0 759.5Q209 790 226 817L220 826Q209 817 196.5 805.5Q184 794 171.0 784.0Q158 774 143.5 767.0Q129 760 113 760Q82 760 60.5 781.0Q39 802 39 833Q39 869 67 891L144 952L47 1111Q4 1181 4 1263Q4 1329 33.0 1389.0Q62 1449 113 1491L725 1983Q764 2015 811.0 2031.5Q858 2048 909 2048Q966 2048 1018.5 2026.5Q1071 2005 1112 1966L1245 1837Q1256 1846 1270.5 1859.0Q1285 1872 1301.5 1885.0Q1318 1898 1335.5 1907.0Q1353 1916 1368 1916Q1398 1916 1420.0 1894.0Q1442 1872 1442 1842Q1442 1823 1432.5 1807.5Q1423 1792 1409.0 1779.5Q1395 1767 1379.5 1756.0Q1364 1745 1351 1735L1359 1727Q1396 1742 1438 1742Q1488 1742 1533.0 1720.0Q1578 1698 1609 1660L1884 1317Q1932 1257 1932 1180Q1932 1129 1910.5 1084.5Q1889 1040 1850 1008L1964 866Q1988 836 1988 796Q1988 749 1957.0 718.0Q1926 687 1879 687Q1854 687 1831.5 697.5Q1809 708 1793 728L1679 871L994 321L1109 178Q1133 149 1133 110Q1133 87 1124.5 67.0Q1116 47 1101.0 32.0Q1086 17 1066.0 8.5Q1046 0 1023 0ZM336 919 1236 1642 1010 1860Q990 1880 963.5 1890.5Q937 1901 908 1901Q857 1901 817 1869L205 1377Q179 1356 164.5 1327.0Q150 1298 150 1263Q150 1222 172 1187ZM1786 1180Q1786 1207 1770 1226L1495 1568Q1485 1580 1469.5 1588.0Q1454 1596 1438 1596Q1412 1596 1392 1579L364 754Q337 731 337 697Q337 670 353 651L628 309Q650 281 686 281Q712 281 731 297L1758 1123Q1771 1134 1778.5 1148.5Q1786 1163 1786 1180ZM1375 1081Q1352 1081 1332.0 1089.5Q1312 1098 1297.5 1113.0Q1283 1128 1274.5 1148.0Q1266 1168 1266 1191Q1266 1238 1297.0 1269.0Q1328 1300 1375 1300Q1397 1300 1417.0 1291.5Q1437 1283 1452.0 1268.5Q1467 1254 1476.0 1234.0Q1485 1214 1485 1191Q1485 1168 1476.5 1148.0Q1468 1128 1453.0 1113.0Q1438 1098 1418.0 1089.5Q1398 1081 1375 1081ZM747 577Q724 577 704.5 585.5Q685 594 670.0 609.0Q655 624 646.5 643.5Q638 663 638 686Q638 708 646.5 728.0Q655 748 669.5 763.0Q684 778 704.0 787.0Q724 796 747 796Q769 796 789.0 787.5Q809 779 824.0 764.5Q839 750 848.0 730.0Q857 710 857 687Q857 664 848.5 644.0Q840 624 825.0 609.0Q810 594 790.0 585.5Q770 577 747 577Z"/>
  </g>
</svg>