<?xml version="1.0" encoding="utf-8"?>
<svg xmlns="http://www.w3.org/2000/svg" width="16" height="16" viewBox="0 0 2048 2048">
  <g transform="translate(0, 2048) scale(1, -1)">
    <path fill="#ffffff" d="M686 139Q636 139 590.5 161.5Q545 184 514 223L241 567Q218 596 206.0 631.5Q194 667 194 704Q194 771 230 825L225 834Q214 825 201.5 814.0Q189 803 175.5 792.5Q162 782 147.5 775.0Q133 768 118 768Q87 768 65.5 789.5Q44 811 44 842Q44 859 51.0 874.0Q58 889 71 899L149 960L53 1119Q33 1153 22.0 1191.5Q11 1230 11 1270Q11 1336 40.5 1397.0Q70 1458 122 1500L738 1987Q776 2018 823.5 2034.0Q871 2050 920 2050Q978 2050 1030.0 2029.0Q1082 2008 1124 1967L1256 1837L1334 1899Q1354 1915 1380 1915Q1411 1915 1432.0 1893.0Q1453 1871 1453 1841Q1453 1822 1443.5 1806.5Q1434 1791 1420.0 1778.5Q1406 1766 1390.5 1755.0Q1375 1744 1362 1734L1369 1727Q1408 1741 1446 1741Q1497 1741 1542.0 1719.0Q1587 1697 1619 1657L1891 1313Q1938 1254 1938 1177Q1938 1127 1916.0 1081.5Q1894 1036 1855 1005L822 187Q762 139 686 139ZM341 926 1246 1643 1022 1862Q1002 1882 974.5 1893.0Q947 1904 919 1904Q894 1904 871.5 1895.5Q849 1887 829 1872L213 1385Q187 1364 172.5 1334.0Q158 1304 158 1270Q158 1229 179 1195ZM1491 1190Q1491 1237 1459.5 1268.0Q1428 1299 1381 1299Q1358 1299 1338.0 1290.5Q1318 1282 1303.5 1267.5Q1289 1253 1280.5 1233.0Q1272 1213 1272 1190Q1272 1167 1280.5 1147.0Q1289 1127 1304.0 1112.0Q1319 1097 1339.0 1088.5Q1359 1080 1382 1080Q1405 1080 1425.0 1088.5Q1445 1097 1459.5 1112.0Q1474 1127 1482.5 1147.0Q1491 1167 1491 1190ZM1882 683Q1841 683 1818.5 703.0Q1796 723 1774 753L1946 889Q1966 864 1979.0 844.5Q1992 825 1992 792Q1992 769 1983.5 749.0Q1975 729 1960.0 714.5Q1945 700 1925.0 691.5Q1905 683 1882 683ZM860 691Q860 714 851.5 734.0Q843 754 828.5 768.5Q814 783 794.0 791.5Q774 800 751 800Q728 800 708.0 791.5Q688 783 673.0 768.0Q658 753 649.5 733.0Q641 713 641 690Q641 667 649.5 647.0Q658 627 673.0 612.5Q688 598 708.0 589.5Q728 581 751 581Q798 581 829.0 612.5Q860 644 860 691ZM1023 2Q1002 2 986.5 7.0Q971 12 959.0 21.5Q947 31 936.0 44.0Q925 57 913 72L1085 208Q1105 184 1118.5 164.0Q1132 144 1132 111Q1132 88 1123.5 68.0Q1115 48 1100.5 33.5Q1086 19 1066.0 10.5Q1046 2 1023 2Z"/>
  </g>
</svg>