<?xml version="1.0" encoding="utf-8"?>
<svg xmlns="http://www.w3.org/2000/svg" width="16" height="16" viewBox="0 0 2048 2048">
  <g transform="translate(0, 2048) scale(1, -1)">
    <path fill="#ffffff" d="M0 1024Q0 1166 36.5 1297.0Q73 1428 139.5 1541.5Q206 1655 299.5 1748.5Q393 1842 506.5 1908.5Q620 1975 751.0 2011.5Q882 2048 1024 2048Q1167 2048 1298.5 2011.0Q1430 1974 1543.5 1907.0Q1657 1840 1750.5 1746.0Q1844 1652 1910.0 1537.5Q1976 1423 2012.0 1291.0Q2048 1159 2048 1017Q2048 959 2040.0 894.0Q2032 829 2014.0 766.0Q1996 703 1967.0 645.5Q1938 588 1896.0 544.0Q1854 500 1798.0 474.0Q1742 448 1670 448Q1604 448 1550.5 467.5Q1497 487 1454.5 522.5Q1412 558 1381.0 607.5Q1350 657 1329 716Q1266 612 1169.5 562.0Q1073 512 953 512Q848 512 765.5 554.0Q683 596 627.0 665.5Q571 735 541.5 826.0Q512 917 512 1015Q512 1118 538.5 1212.0Q565 1306 620.0 1378.0Q675 1450 758.0 1493.0Q841 1536 954 1536Q1049 1536 1132.0 1505.0Q1215 1474 1280 1402Q1280 1407 1280 1412L1279 1432Q1279 1437 1279 1442Q1279 1459 1281.0 1475.5Q1283 1492 1289.5 1505.5Q1296 1519 1309.0 1527.5Q1322 1536 1344 1536Q1370 1536 1389.0 1517.0Q1408 1498 1408 1472V1024Q1408 984 1412.0 935.0Q1416 886 1427.0 836.5Q1438 787 1456.5 740.0Q1475 693 1503.5 656.5Q1532 620 1571.5 598.0Q1611 576 1664 576Q1717 576 1756.5 598.0Q1796 620 1824.5 656.5Q1853 693 1871.5 740.0Q1890 787 1901.0 836.5Q1912 886 1916.0 935.0Q1920 984 1920 1024Q1920 1147 1888.0 1261.5Q1856 1376 1797.5 1475.5Q1739 1575 1657.0 1657.0Q1575 1739 1475.5 1797.5Q1376 1856 1261.5 1888.0Q1147 1920 1024 1920Q900 1920 785.5 1888.0Q671 1856 571.5 1797.5Q472 1739 390.5 1657.5Q309 1576 250.5 1476.5Q192 1377 160.0 1262.5Q128 1148 128 1024Q128 900 160.0 785.5Q192 671 250.5 571.5Q309 472 390.5 390.5Q472 309 571.5 250.5Q671 192 785.5 160.0Q900 128 1024 128Q1104 128 1179.0 142.5Q1254 157 1329 181Q1340 185 1351 185Q1378 185 1396.5 166.5Q1415 148 1415 121Q1415 98 1403.5 84.5Q1392 71 1373 61Q1343 46 1297.5 34.5Q1252 23 1202.5 15.5Q1153 8 1105.5 4.0Q1058 0 1024 0Q882 0 751.0 36.5Q620 73 506.0 139.5Q392 206 299.0 299.0Q206 392 139.5 506.0Q73 620 36.5 751.0Q0 882 0 1024ZM1280 1024Q1280 1100 1261.5 1169.5Q1243 1239 1204.0 1292.0Q1165 1345 1104.5 1376.5Q1044 1408 960 1408Q876 1408 815.5 1376.5Q755 1345 716.0 1292.0Q677 1239 658.5 1169.5Q640 1100 640 1024Q640 950 659.0 880.5Q678 811 717.5 757.5Q757 704 817.5 672.0Q878 640 960 640Q1042 640 1102.5 672.0Q1163 704 1202.5 757.5Q1242 811 1261.0 880.5Q1280 950 1280 1024Z"/>
  </g>
</svg>