<?xml version="1.0" encoding="utf-8"?>
<svg xmlns="http://www.w3.org/2000/svg" width="16" height="16" viewBox="0 0 2048 2048">
  <g transform="translate(0, 2048) scale(1, -1)">
    <path fill="#ffffff" d="M650 384H379Q329 384 283.5 404.5Q238 425 203.5 459.5Q169 494 148.5 539.5Q128 585 128 635V1669Q128 1719 148.5 1764.5Q169 1810 203.5 1844.5Q238 1879 283.5 1899.5Q329 1920 379 1920H1669Q1719 1920 1764.5 1899.5Q1810 1879 1844.5 1844.5Q1879 1810 1899.5 1764.5Q1920 1719 1920 1669V635Q1920 583 1899.0 537.5Q1878 492 1843.0 458.0Q1808 424 1761.5 404.0Q1715 384 1664 384H1398L1072 21Q1053 0 1024 0Q995 0 976 21ZM1600 1280Q1626 1280 1645.0 1299.0Q1664 1318 1664 1344Q1664 1370 1645.0 1389.0Q1626 1408 1600 1408H448Q422 1408 403.0 1389.0Q384 1370 384 1344Q384 1318 403.0 1299.0Q422 1280 448 1280ZM1600 896Q1626 896 1645.0 915.0Q1664 934 1664 960Q1664 986 1645.0 1005.0Q1626 1024 1600 1024H448Q422 1024 403.0 1005.0Q384 986 384 960Q384 934 403.0 915.0Q422 896 448 896Z"/>
  </g>
</svg>