<?xml version="1.0" encoding="utf-8"?>
<svg xmlns="http://www.w3.org/2000/svg" width="16" height="16" viewBox="0 0 2048 2048">
  <g transform="translate(0, 2048) scale(1, -1)">
    <path fill="#000000" d="M1152 448V456Q1152 547 1188.5 627.0Q1225 707 1286.5 767.0Q1348 827 1429.5 861.5Q1511 896 1600 896Q1692 896 1773.5 860.5Q1855 825 1916.0 764.0Q1977 703 2012.5 621.5Q2048 540 2048 448Q2048 356 2012.5 274.5Q1977 193 1916.0 132.0Q1855 71 1773.5 35.5Q1692 0 1600 0Q1508 0 1426.5 35.5Q1345 71 1284.0 132.0Q1223 193 1187.5 274.5Q1152 356 1152 448ZM1664 329 1779 253Q1787 248 1796.0 245.5Q1805 243 1814 243Q1841 243 1859.5 261.5Q1878 280 1878 307Q1878 322 1870.5 337.0Q1863 352 1850 360L1717 448L1850 536Q1863 544 1870.5 559.0Q1878 574 1878 589Q1878 616 1859.5 634.5Q1841 653 1814 653Q1805 653 1796.0 650.5Q1787 648 1779 643L1664 566V704Q1664 730 1645.0 749.0Q1626 768 1600 768Q1574 768 1555.0 749.0Q1536 730 1536 704V568L1423 643Q1415 648 1406.0 650.5Q1397 653 1388 653Q1361 653 1342.5 634.5Q1324 616 1324 589Q1324 574 1331.5 559.0Q1339 544 1352 536L1485 448L1352 360Q1339 352 1331.5 337.0Q1324 322 1324 307Q1324 280 1342.5 261.5Q1361 243 1388 243Q1397 243 1406.0 245.5Q1415 248 1423 253L1536 328V192Q1536 166 1555.0 147.0Q1574 128 1600 128Q1626 128 1645.0 147.0Q1664 166 1664 192Z"/>
  </g>
</svg>