<?xml version="1.0" encoding="utf-8"?>
<svg xmlns="http://www.w3.org/2000/svg" width="16" height="16" viewBox="0 0 2048 2048">
  <g transform="translate(0, 2048) scale(1, -1)">
    <path fill="#000000" d="M650 384H379Q329 384 283.5 404.5Q238 425 203.5 459.5Q169 494 148.5 539.5Q128 585 128 635V1669Q128 1719 148.5 1764.5Q169 1810 203.5 1844.5Q238 1879 283.5 1899.5Q329 1920 379 1920H1669Q1719 1920 1764.5 1899.5Q1810 1879 1844.5 1844.5Q1879 1810 1899.5 1764.5Q1920 1719 1920 1669V1160Q1890 1183 1858.0 1202.5Q1826 1222 1792 1239V1664Q1792 1690 1782.0 1713.5Q1772 1737 1754.5 1754.5Q1737 1772 1713.5 1782.0Q1690 1792 1664 1792H384Q357 1792 334.0 1782.0Q311 1772 293.5 1754.5Q276 1737 266.0 1714.0Q256 1691 256 1664V640Q256 613 266.0 589.5Q276 566 293.0 549.0Q310 532 333.5 522.0Q357 512 384 512H678Q692 512 704.5 507.0Q717 502 726 491L842 362Q831 335 827.0 305.5Q823 276 823 247Q823 232 824.0 216.5Q825 201 828 186ZM983 281Q983 298 995.5 309.0Q1008 320 1024 320Q1179 320 1312 397Q1379 436 1432.0 490.0Q1485 544 1522.5 608.5Q1560 673 1580.0 746.0Q1600 819 1600 896Q1600 933 1595.0 967.5Q1590 1002 1582 1038Q1580 1048 1580 1056Q1580 1081 1596.0 1103.0Q1612 1125 1639 1125Q1648 1125 1657 1122Q1743 1093 1815.0 1039.5Q1887 986 1938.5 914.5Q1990 843 2019.0 758.0Q2048 673 2048 583Q2048 462 2003.5 356.0Q1959 250 1881.5 171.0Q1804 92 1698.5 46.0Q1593 0 1472 0Q1400 0 1330.0 18.0Q1260 36 1196.5 70.0Q1133 104 1079.5 152.5Q1026 201 988 263Q983 271 983 281Z"/>
  </g>
</svg>