<?xml version="1.0" encoding="utf-8"?>
<svg xmlns="http://www.w3.org/2000/svg" width="16" height="16" viewBox="0 0 2048 2048">
  <g transform="translate(0, 2048) scale(1, -1)">
    <path fill="#000000" d="M650 384H379Q329 384 283.5 404.5Q238 425 203.5 459.5Q169 494 148.5 539.5Q128 585 128 635V1669Q128 1719 148.5 1764.5Q169 1810 203.5 1844.5Q238 1879 283.5 1899.5Q329 1920 379 1920H1669Q1719 1920 1764.5 1899.5Q1810 1879 1844.5 1844.5Q1879 1810 1899.5 1764.5Q1920 1719 1920 1669V1160Q1894 1180 1859.5 1202.0Q1825 1224 1786.5 1242.0Q1748 1260 1708.5 1272.0Q1669 1284 1635 1284H1624Q1642 1292 1653.0 1308.0Q1664 1324 1664 1344Q1664 1370 1645.0 1389.0Q1626 1408 1600 1408H448Q422 1408 403.0 1389.0Q384 1370 384 1344Q384 1318 403.0 1299.0Q422 1280 448 1280H1593Q1554 1271 1522.0 1249.5Q1490 1228 1467.5 1198.0Q1445 1168 1432.5 1131.5Q1420 1095 1420 1056Q1420 1025 1427 998Q1435 970 1437.5 943.5Q1440 917 1440 888Q1440 803 1406.0 729.0Q1372 655 1315.0 599.5Q1258 544 1182.5 512.0Q1107 480 1024 480Q973 480 928.0 455.5Q883 431 854 388Q845 374 839.0 356.5Q833 339 829.5 320.0Q826 301 824.5 282.5Q823 264 823 248Q823 232 824.0 216.5Q825 201 828 186ZM983 281Q983 298 995.5 309.0Q1008 320 1024 320Q1179 320 1312 397Q1379 436 1432.0 490.0Q1485 544 1522.5 608.5Q1560 673 1580.0 746.0Q1600 819 1600 896Q1600 933 1595.0 967.5Q1590 1002 1582 1038Q1580 1048 1580 1056Q1580 1081 1596.0 1103.0Q1612 1125 1639 1125Q1648 1125 1657 1122Q1743 1093 1815.0 1039.5Q1887 986 1938.5 914.5Q1990 843 2019.0 758.0Q2048 673 2048 583Q2048 462 2003.5 356.0Q1959 250 1881.5 171.0Q1804 92 1698.5 46.0Q1593 0 1472 0Q1400 0 1330.0 18.0Q1260 36 1196.5 70.0Q1133 104 1079.5 152.5Q1026 201 988 263Q983 271 983 281ZM1216 896Q1242 896 1261.0 915.0Q1280 934 1280 960Q1280 986 1261.0 1005.0Q1242 1024 1216 1024H448Q422 1024 403.0 1005.0Q384 986 384 960Q384 934 403.0 915.0Q422 896 448 896Z"/>
  </g>
</svg>