<?xml version="1.0" encoding="utf-8"?>
<svg xmlns="http://www.w3.org/2000/svg" height="16" width="16" viewBox="0 0 16 16">
  <g>
    <path id="path1" transform="rotate(0,8,8) translate(-0.5,-0.5) scale(0.0357142857142857,0.0357142857142857)  " fill="#FFFFFF" d="M240,32L243.140625,32.2968940734863 246.0625,33.1875267028809 248.765625,34.6718978881836 251.25,36.75 253.328125,39.2343864440918 254.8125,41.9375152587891 255.703125,44.8593864440918 256,48 256,224 432,224 435.140625,224.296875 438.0625,225.1875 440.765625,226.671875 443.25,228.75 445.328125,231.234390258789 446.8125,233.937515258789 447.703125,236.859390258789 448,240 447.703125,243.140625 446.8125,246.0625 445.328125,248.765625 443.25,251.25 440.765625,253.328140258789 438.0625,254.8125 435.140625,255.703125 432,256 256,256 256,432 255.703125,435.140625 254.8125,438.0625 253.328125,440.765625 251.25,443.25 248.765625,445.328125 246.0625,446.8125 243.140625,447.703125 240,448 236.859375,447.703125 233.9375,446.8125 231.234375,445.328125 228.75,443.25 226.671875,440.765625 225.1875,438.0625 224.296875,435.140625 224,432 224,256 48,256 44.859375,255.703125 41.9375,254.8125 39.234375,253.328140258789 36.75,251.25 34.671875,248.765625 33.1875,246.0625 32.296875,243.140625 32,240 32.296875,236.859390258789 33.1875,233.937515258789 34.671875,231.234390258789 36.75,228.75 39.234375,226.671875 41.9375,225.1875 44.859375,224.296875 48,224 224,224 224,48 224.296875,44.8593864440918 225.1875,41.9375152587891 226.671875,39.2343864440918 228.75,36.75 231.234375,34.6718978881836 233.9375,33.1875267028809 236.859375,32.2968940734863 240,32z" />
  </g>
</svg>
