<?xml version="1.0" encoding="utf-8"?>
<svg xmlns="http://www.w3.org/2000/svg" width="16" height="16" viewBox="0 0 2048 2048">
  <g transform="translate(0, 2048) scale(1, -1)">
    <path fill="#ffffff" d="M896 896H256Q229 896 205.5 906.0Q182 916 165.0 933.0Q148 950 138.0 973.5Q128 997 128 1024Q128 1051 138.0 1074.0Q148 1097 165.5 1114.5Q183 1132 206.0 1142.0Q229 1152 256 1152H896V1792Q896 1819 906.0 1842.0Q916 1865 933.5 1882.5Q951 1900 974.0 1910.0Q997 1920 1024 1920Q1050 1920 1073.5 1910.0Q1097 1900 1114.5 1882.5Q1132 1865 1142.0 1841.5Q1152 1818 1152 1792V1152H1792Q1818 1152 1841.5 1142.0Q1865 1132 1882.5 1114.5Q1900 1097 1910.0 1073.5Q1920 1050 1920 1024Q1920 997 1910.0 974.0Q1900 951 1882.5 933.5Q1865 916 1842.0 906.0Q1819 896 1792 896H1152V256Q1152 229 1142.0 206.0Q1132 183 1114.5 165.5Q1097 148 1074.0 138.0Q1051 128 1024 128Q997 128 973.5 138.0Q950 148 933.0 165.0Q916 182 906.0 205.5Q896 229 896 256Z"/>
  </g>
</svg>