<?xml version="1.0" encoding="utf-8"?>
<svg xmlns="http://www.w3.org/2000/svg" width="16" height="16" viewBox="0 0 2048 2048">
  <g transform="translate(0, 2048) scale(1, -1)">
    <path fill="#ffffff" d="M958 1280Q987 1280 1003.5 1263.0Q1020 1246 1024 1218Q1029 1183 1029.5 1147.5Q1030 1112 1033 1077Q1048 920 1076.5 769.5Q1105 619 1149 468Q1152 457 1152 448Q1152 418 1132.0 401.0Q1112 384 1083 384Q1068 384 1053.0 385.5Q1038 387 1023 388Q989 390 955.0 391.0Q921 392 887 392Q747 392 610.0 376.5Q473 361 338 323Q329 320 320 320Q294 320 275.0 339.0Q256 358 256 384Q256 407 269.0 422.0Q282 437 302 445Q337 460 386.5 471.0Q436 482 492.5 490.5Q549 499 610.0 504.5Q671 510 729.5 513.5Q788 517 840.5 518.5Q893 520 933 520Q950 520 966.5 520.0Q983 520 1000 518Q978 600 959.0 687.0Q940 774 926.0 863.0Q912 952 904.0 1040.5Q896 1129 896 1214Q896 1240 913.5 1260.0Q931 1280 958 1280Z"/>
  </g>
</svg>