<?xml version="1.0" encoding="utf-8"?>
<svg xmlns="http://www.w3.org/2000/svg" width="16" height="16" viewBox="0 0 2048 2048">
  <g transform="translate(0, 2048) scale(1, -1)">
    <path fill="#000000" d="M1792 629Q1821 619 1844.5 601.0Q1868 583 1885.0 559.0Q1902 535 1911.0 507.0Q1920 479 1920 448Q1920 409 1905.0 374.0Q1890 339 1863.5 312.5Q1837 286 1802.0 271.0Q1767 256 1728 256Q1683 256 1643.5 275.5Q1604 295 1576 330L1152 189Q1151 150 1135.5 115.5Q1120 81 1094.0 55.5Q1068 30 1033.5 15.0Q999 0 960 0Q921 0 886.5 15.0Q852 30 826.0 55.5Q800 81 784.5 115.5Q769 150 768 189L344 330Q316 295 276.5 275.5Q237 256 192 256Q153 256 118.0 271.0Q83 286 56.5 312.5Q30 339 15.0 374.0Q0 409 0 448Q0 479 9.0 507.0Q18 535 35.0 559.0Q52 583 75.5 601.0Q99 619 128 629V1291Q99 1301 75.5 1319.0Q52 1337 35.0 1361.0Q18 1385 9.0 1413.0Q0 1441 0 1472Q0 1511 15.0 1546.0Q30 1581 56.5 1607.5Q83 1634 118.0 1649.0Q153 1664 192 1664Q229 1664 263.5 1650.0Q298 1636 325 1610L769 1833Q768 1839 768.0 1844.5Q768 1850 768 1856Q768 1895 783.0 1930.0Q798 1965 824.5 1991.5Q851 2018 886.0 2033.0Q921 2048 960 2048Q998 2048 1033.0 2033.0Q1068 2018 1094.5 1992.0Q1121 1966 1137.0 1932.0Q1153 1898 1153 1860Q1153 1852 1152.5 1845.5Q1152 1839 1151 1832L1595 1610Q1622 1636 1656.5 1650.0Q1691 1664 1728 1664Q1767 1664 1802.0 1649.0Q1837 1634 1863.5 1607.5Q1890 1581 1905.0 1546.0Q1920 1511 1920 1472Q1920 1441 1911.0 1413.0Q1902 1385 1885.0 1361.0Q1868 1337 1844.5 1319.0Q1821 1301 1792 1291ZM896 1856Q896 1830 915.0 1811.0Q934 1792 960 1792Q986 1792 1005.0 1811.0Q1024 1830 1024 1856Q1024 1882 1005.0 1901.0Q986 1920 960 1920Q934 1920 915.0 1901.0Q896 1882 896 1856ZM1536 451Q1537 511 1572.0 560.0Q1607 609 1664 629V1291Q1602 1312 1569.5 1361.5Q1537 1411 1537 1473Q1537 1479 1537.0 1484.5Q1537 1490 1538 1496L1093 1718Q1066 1692 1031.5 1678.0Q997 1664 960 1664Q923 1664 888.5 1678.0Q854 1692 827 1718L383 1496Q384 1490 384.0 1484.0Q384 1478 384 1472Q384 1441 375.0 1413.0Q366 1385 349.0 1361.0Q332 1337 308.5 1319.0Q285 1301 256 1291V629Q313 609 348.0 560.0Q383 511 384 451L808 310Q836 345 875.5 364.5Q915 384 960 384Q1005 384 1044.5 364.5Q1084 345 1112 310ZM128 1472Q128 1446 147.0 1427.0Q166 1408 192 1408Q218 1408 237.0 1427.0Q256 1446 256 1472Q256 1498 237.0 1517.0Q218 1536 192 1536Q166 1536 147.0 1517.0Q128 1498 128 1472ZM1664 1472Q1664 1446 1683.0 1427.0Q1702 1408 1728 1408Q1754 1408 1773.0 1427.0Q1792 1446 1792 1472Q1792 1498 1773.0 1517.0Q1754 1536 1728 1536Q1702 1536 1683.0 1517.0Q1664 1498 1664 1472ZM1344 1344Q1370 1344 1389.0 1325.0Q1408 1306 1408 1280Q1408 1263 1398.5 1247.0Q1389 1231 1373 1223L1150 1112Q1151 1106 1151.5 1100.0Q1152 1094 1152 1088Q1152 1057 1143.0 1029.0Q1134 1001 1117.0 977.0Q1100 953 1076.5 935.0Q1053 917 1024 907V640Q1024 614 1005.0 595.0Q986 576 960 576Q934 576 915.0 595.0Q896 614 896 640V907Q869 917 845.5 935.0Q822 953 804.0 976.5Q786 1000 776.0 1027.5Q766 1055 766 1084Q766 1098 769 1112L547 1223Q531 1231 521.5 1247.0Q512 1263 512 1280Q512 1306 531.0 1325.0Q550 1344 576 1344Q591 1344 605 1337L826 1226Q853 1251 887.5 1265.5Q922 1280 960 1280Q997 1280 1031.5 1266.0Q1066 1252 1093 1226L1315 1337Q1329 1344 1344 1344ZM1024 1088Q1024 1114 1005.0 1133.0Q986 1152 960 1152Q934 1152 915.0 1133.0Q896 1114 896 1088Q896 1062 915.0 1043.0Q934 1024 960 1024Q986 1024 1005.0 1043.0Q1024 1062 1024 1088ZM256 448Q256 474 237.0 493.0Q218 512 192 512Q166 512 147.0 493.0Q128 474 128 448Q128 422 147.0 403.0Q166 384 192 384Q218 384 237.0 403.0Q256 422 256 448ZM1792 448Q1792 474 1773.0 493.0Q1754 512 1728 512Q1702 512 1683.0 493.0Q1664 474 1664 448Q1664 422 1683.0 403.0Q1702 384 1728 384Q1754 384 1773.0 403.0Q1792 422 1792 448ZM1024 192Q1024 218 1005.0 237.0Q986 256 960 256Q934 256 915.0 237.0Q896 218 896 192Q896 166 915.0 147.0Q934 128 960 128Q986 128 1005.0 147.0Q1024 166 1024 192Z"/>
  </g>
</svg>