<?xml version="1.0" encoding="utf-8"?>
<svg xmlns="http://www.w3.org/2000/svg" width="16" height="16" viewBox="0 0 2048 2048">
  <g transform="translate(0, 2048) scale(1, -1)">
    <path fill="#ffffff" d="M2016 1024Q2016 979 1999.0 939.5Q1982 900 1952.0 870.0Q1922 840 1882.5 823.0Q1843 806 1798 806Q1692 806 1586.5 811.0Q1481 816 1375 820L901 110Q884 85 858.0 71.0Q832 57 802 57Q778 57 756.5 66.0Q735 75 719.0 91.0Q703 107 693.5 128.5Q684 150 684 174Q684 186 687 200L824 839L379 853L280 622Q265 587 232.5 565.5Q200 544 162 544Q135 544 111.5 554.0Q88 564 70.5 581.5Q53 599 43.0 622.0Q33 645 33 672Q33 688 38 708L92 897Q63 920 47.5 953.5Q32 987 32 1024Q32 1061 47.5 1094.5Q63 1128 92 1151L38 1340Q33 1360 33 1376Q33 1403 43.0 1426.0Q53 1449 70.5 1466.5Q88 1484 111.5 1494.0Q135 1504 162 1504Q200 1504 232.5 1482.5Q265 1461 280 1426L379 1194L824 1209L687 1848Q684 1861 684 1874Q684 1898 693.5 1919.5Q703 1941 719.0 1957.0Q735 1973 756.5 1982.0Q778 1991 802 1991Q832 1991 858.0 1977.0Q884 1963 901 1938L1375 1228Q1481 1231 1587.5 1236.0Q1694 1241 1800 1241Q1845 1241 1884.0 1224.0Q1923 1207 1952.5 1177.5Q1982 1148 1999.0 1108.5Q2016 1069 2016 1024Z"/>
  </g>
</svg>