<?xml version="1.0" encoding="utf-8"?>
<svg id="" width="16" height="16" style="width:16px;height:16px;" version="1.1" xmlns="http://www.w3.org/2000/svg" viewBox="0 0 2048 2048" enable-background="new 0 0 2048 2048" xml:space="preserve">
    <path fill="#000" d="M654.5 1889 q0 -6 0.5 -12 q0.5 -6 1.5 -12 l84 -585 l-299 0 l-201 234 q-19 22 -48 22 l-128 0 q-26 0 -45 -19 q-19 -19 -19 -45 l0 -895 q0 -26 19 -45 q19 -19 45 -19 l128 0 q29 0 48 22 l201 234 l299 0 l-84 -585 q-1 -6 -1.5 -12 q-0.5 -6 -0.5 -12 q0 -35 13.5 -64.5 q13.5 -29.5 37 -50.5 q23.5 -21 54 -33 q30.5 -12 64.5 -12 q40 0 78.5 13.5 q38.5 13.5 72 36.5 q33.5 23 59.5 55 q26 32 42 68 l256 596 l460 0 q53 0 99.5 20 q46.5 20 81.5 55 q35 35 55 81.5 q20 46.5 20 99.5 q0 53 -20.5 99 q-20.5 46 -55 81 q-34.5 35 -81.5 55 q-47 20 -99 20 l-460 0 l-256 596 q-17 39 -44 71 q-27 32 -61 54.5 q-34 22.5 -73.5 34.5 q-39.5 12 -82.5 12 q-33 0 -62 -12.5 q-29 -12.5 -50.5 -34 q-21.5 -21.5 -34.5 -50.5 q-13 -29 -13 -62 ZM1919.5 1025 q0 -27 -10 -50 q-10 -23 -27.5 -40.5 q-17.5 -17.5 -40.5 -27.5 q-23 -10 -50 -10 l-503 0 q-19 0 -34.5 -11 q-15.5 -11 -23.5 -28 l-272 -634 q-18 -42 -58 -68.5 q-40 -26.5 -86 -26.5 q-11 0 -21.5 9 q-10.5 9 -10.5 21 q0 2 0.5 3.5 q0.5 1.5 0.5 3.5 l94 658 l0 8 q0 28 -18 46.5 q-18 18.5 -46 18.5 l-402 0 q-14 0 -26.5 -6 q-12.5 -6 -21.5 -17 l-201 -233 l-34 0 l0 767 l34 0 l201 -233 q20 -23 48 -23 l402 0 q26 0 45.5 19.5 q19.5 19.5 19.5 45.5 l-1 8 l-94 658 q0 2 -0.5 3 q-0.5 1 -0.5 3 q0 13 10 22 q10 9 22 9 q46 0 86 -26.5 q40 -26.5 58 -68.5 l272 -634 q8 -17 23.5 -28 q15.5 -11 34.5 -11 l503 0 q27 0 50 -10 q23 -10 40.5 -27 q17.5 -17 27.5 -40 q10 -23 10 -50 Z"/>
</svg>