<?xml version="1.0" encoding="utf-8"?>
<svg id="" width="16" height="16" style="width:16px;height:16px;" version="1.1"
    xmlns="http://www.w3.org/2000/svg" viewBox="0 0 2048 2048" enable-background="new 0 0 2048 2048"
    xml:space="preserve"><path fill="#000000" d="M429.71 2048 q-85.71 0 -163.99 -34.86 q-78.29 -34.86 -137.15 -93.72 q-58.86 -58.86 -93.72 -137.14 q-34.85 -78.28 -34.85 -163.99 l0 -1188.58 q0 -85.71 34.85 -163.99 q34.85 -78.29 93.72 -137.15 q58.86 -58.86 137.15 -93.72 q78.28 -34.85 163.99 -34.85 l1188.58 0 q85.71 0 163.99 34.85 q78.29 34.85 137.14 93.72 q58.86 58.86 93.72 137.15 q34.86 78.28 34.86 163.99 l0 1188.58 q0 85.71 -34.86 163.99 q-34.86 78.29 -93.72 137.14 q-58.86 58.86 -137.14 93.72 q-78.28 34.86 -163.99 34.86 l-1188.58 0 ZM1614.86 1901.71 q57.14 0 109.14 -23.43 q52 -23.42 91.43 -62.86 q39.43 -39.43 62.86 -91.43 q23.43 -52 23.43 -109.14 l0 -1181.72 q0 -57.14 -23.43 -109.14 q-23.42 -52 -62.86 -91.43 q-39.43 -39.43 -91.43 -62.86 q-52 -23.42 -109.14 -23.42 l-1181.72 0 q-57.14 0 -109.14 23.42 q-52 23.43 -91.43 62.86 q-39.43 39.43 -62.86 91.43 q-23.42 52 -23.42 109.14 l0 1181.72 q0 57.14 23.42 109.14 q23.43 52 62.86 91.43 q39.43 39.43 91.43 62.86 q52 23.43 109.14 23.43 l1181.72 0 ZM292.57 1024 q0 -152 57.15 -285.14 q57.14 -133.14 156.57 -232.57 q99.43 -99.43 232.57 -156.57 q133.14 -57.15 285.14 -57.15 q152 0 285.14 57.15 q133.14 57.14 232.57 156.57 q99.42 99.43 156.57 232.57 q57.14 133.14 57.14 285.14 q0 152 -57.14 285.14 q-57.14 133.14 -156.57 232.57 q-99.43 99.42 -232.57 156.57 q-133.14 57.14 -285.14 57.14 q-152 0 -285.14 -57.14 q-133.14 -57.14 -232.57 -156.57 q-99.43 -99.43 -156.57 -232.57 q-57.15 -133.14 -57.15 -285.14 ZM1609.14 1024 l0 -11.43 q0 -118.86 -47.42 -223.43 q-47.43 -104.57 -128 -182.29 q-80.58 -77.72 -186.29 -122.86 q-105.72 -45.14 -223.43 -45.14 q-121.14 0 -228 45.71 q-106.86 45.71 -186.29 125.14 q-79.42 79.43 -125.14 186.29 q-45.71 106.86 -45.71 228 q0 121.14 45.71 228 q45.71 106.86 125.14 186.28 q79.43 79.43 186.29 125.14 q106.86 45.71 228 45.71 q121.14 0 228 -45.71 q106.86 -45.72 186.28 -125.14 q79.43 -79.42 125.14 -186.28 q45.71 -106.86 45.71 -228 ZM877.71 1024 q0 -30.86 11.43 -57.14 q11.43 -26.28 31.43 -46.28 q20 -20 46.28 -31.43 q26.28 -11.43 57.14 -11.43 q29.71 0 56.57 11.43 q26.86 11.43 46.86 31.43 q20 20 31.43 46.86 q11.43 26.86 11.43 56.57 q0 30.86 -11.43 57.14 q-11.43 26.29 -31.43 46.29 q-20 20 -46.29 31.43 q-26.29 11.43 -57.14 11.43 q-30.86 0 -57.72 -11.43 q-26.86 -11.43 -46.28 -30.86 q-19.43 -19.43 -30.86 -46.29 q-11.43 -26.86 -11.43 -57.71 Z"/></svg>