<?xml version="1.0" encoding="utf-8"?>
<svg xmlns="http://www.w3.org/2000/svg" width="16" height="16" viewBox="0 0 2048 2048">
  <g transform="translate(0, 2048) scale(1, -1)">
    <path fill="#ffffff" d="M1441 2039Q1418 2053 1392.5 2047.0Q1367 2041 1353 2018Q1339 1995 1345.0 1969.5Q1351 1944 1374 1930Q1482 1864 1578.5 1780.0Q1675 1696 1748.5 1587.0Q1822 1478 1867.5 1339.0Q1913 1200 1920 1024Q1921 998 1940.5 980.0Q1960 962 1986 963Q2013 964 2031.0 983.5Q2049 1003 2048 1029Q2043 1160 2018.0 1272.5Q1993 1385 1952.0 1481.0Q1911 1577 1855.5 1658.0Q1800 1739 1734.0 1807.5Q1668 1876 1594.0 1933.5Q1520 1991 1441 2039ZM1290 1700Q1305 1722 1331.0 1727.0Q1357 1732 1379 1717Q1456 1665 1520.5 1602.5Q1585 1540 1633.0 1468.5Q1681 1397 1711.0 1317.5Q1741 1238 1749 1152Q1752 1122 1752 1090Q1752 1064 1733.0 1045.0Q1714 1026 1688 1026Q1662 1026 1643.0 1045.0Q1624 1064 1624 1090Q1624 1103 1623.5 1115.0Q1623 1127 1622 1140Q1608 1277 1526.5 1397.5Q1445 1518 1307 1611Q1285 1626 1280.0 1652.0Q1275 1678 1290 1700ZM392 1609Q309 1572 241.5 1516.5Q174 1461 124.5 1392.0Q75 1323 44.5 1243.5Q14 1164 4.5 1080.0Q-5 996 7.5 909.5Q20 823 57 740L214 388L226 92Q227 67 239.5 46.5Q252 26 271.0 14.0Q290 2 314.0 0.0Q338 -2 361 8L1607 561Q1630 572 1644.5 591.0Q1659 610 1663.0 632.0Q1667 654 1660.0 677.0Q1653 700 1635 718L1422 924L1265 1275Q1228 1358 1172.0 1425.5Q1116 1493 1047.0 1542.5Q978 1592 898.5 1622.5Q819 1653 734.0 1662.5Q649 1672 562.0 1659.0Q475 1646 392 1609ZM174 792Q129 892 128.0 997.0Q127 1102 164.0 1197.5Q201 1293 272.5 1370.5Q344 1448 444 1493Q545 1538 650.5 1539.0Q756 1540 851.5 1503.5Q947 1467 1025.0 1395.5Q1103 1324 1148 1224L1315 850L1512 659L352 144L341 418ZM1110 21Q1077 6 1043.0 4.5Q1009 3 977.5 12.0Q946 21 919.0 41.0Q892 61 873 90L1217 242Q1226 209 1222.5 175.5Q1219 142 1204.5 112.5Q1190 83 1166.0 59.0Q1142 35 1110 21Z"/>
  </g>
</svg>