<?xml version="1.0" encoding="utf-8"?>
<svg xmlns="http://www.w3.org/2000/svg" width="16" height="16" viewBox="0 0 2048 2048">
  <g transform="translate(0, 2048) scale(1, -1)">
    <path fill="#ffffff" d="M320 1664Q294 1664 275.0 1683.0Q256 1702 256 1728Q256 1754 275.0 1773.0Q294 1792 320 1792H1728Q1754 1792 1773.0 1773.0Q1792 1754 1792 1728Q1792 1702 1773.0 1683.0Q1754 1664 1728 1664ZM64 1024Q38 1024 19.0 1043.0Q0 1062 0 1088Q0 1114 19.0 1133.0Q38 1152 64 1152H1984Q2010 1152 2029.0 1133.0Q2048 1114 2048 1088Q2048 1062 2029.0 1043.0Q2010 1024 1984 1024ZM576 384Q550 384 531.0 403.0Q512 422 512 448Q512 474 531.0 493.0Q550 512 576 512H1472Q1498 512 1517.0 493.0Q1536 474 1536 448Q1536 422 1517.0 403.0Q1498 384 1472 384Z"/>
  </g>
</svg>