<?xml version="1.0" encoding="utf-8"?>
<svg xmlns="http://www.w3.org/2000/svg" width="16" height="16" viewBox="0 0 2048 2048">
  <g transform="translate(0, 2048) scale(1, -1)">
    <path fill="#ffffff" d="M64 1664Q38 1664 19.0 1683.0Q0 1702 0 1728Q0 1754 19.0 1773.0Q38 1792 64 1792H1472Q1498 1792 1517.0 1773.0Q1536 1754 1536 1728Q1536 1702 1517.0 1683.0Q1498 1664 1472 1664ZM64 1024Q38 1024 19.0 1043.0Q0 1062 0 1088Q0 1114 19.0 1133.0Q38 1152 64 1152H1984Q2010 1152 2029.0 1133.0Q2048 1114 2048 1088Q2048 1062 2029.0 1043.0Q2010 1024 1984 1024ZM64 384Q38 384 19.0 403.0Q0 422 0 448Q0 474 19.0 493.0Q38 512 64 512H1216Q1242 512 1261.0 493.0Q1280 474 1280 448Q1280 422 1261.0 403.0Q1242 384 1216 384Z"/>
  </g>
</svg>