<?xml version="1.0" encoding="utf-8"?>
<svg xmlns="http://www.w3.org/2000/svg" width="16" height="16" viewBox="0 0 2048 2048">
  <g transform="translate(0, 2048) scale(1, -1)">
    <path fill="#000000" d="M576 1664Q550 1664 531.0 1683.0Q512 1702 512 1728Q512 1754 531.0 1773.0Q550 1792 576 1792H1984Q2010 1792 2029.0 1773.0Q2048 1754 2048 1728Q2048 1702 2029.0 1683.0Q2010 1664 1984 1664ZM64 1024Q38 1024 19.0 1043.0Q0 1062 0 1088Q0 1114 19.0 1133.0Q38 1152 64 1152H1984Q2010 1152 2029.0 1133.0Q2048 1114 2048 1088Q2048 1062 2029.0 1043.0Q2010 1024 1984 1024ZM960 384Q934 384 915.0 403.0Q896 422 896 448Q896 474 915.0 493.0Q934 512 960 512H1984Q2010 512 2029.0 493.0Q2048 474 2048 448Q2048 422 2029.0 403.0Q2010 384 1984 384Z"/>
  </g>
</svg>