<?xml version="1.0" encoding="utf-8"?>
<svg xmlns="http://www.w3.org/2000/svg" width="16" height="16" viewBox="0 0 2048 2048">
  <g transform="translate(0, 2048) scale(1, -1)">
    <path fill="#000000" d="M256 1408Q229 1408 205.5 1418.0Q182 1428 165.0 1445.0Q148 1462 138.0 1485.5Q128 1509 128 1536V1792Q128 1819 138.0 1842.0Q148 1865 165.5 1882.5Q183 1900 206.0 1910.0Q229 1920 256 1920H512Q538 1920 561.5 1910.0Q585 1900 602.5 1882.5Q620 1865 630.0 1841.5Q640 1818 640 1792V1536Q640 1509 630.0 1486.0Q620 1463 602.5 1445.5Q585 1428 562.0 1418.0Q539 1408 512 1408ZM256 1792V1536H512V1792ZM832 1664Q806 1664 787.0 1683.0Q768 1702 768 1728Q768 1754 787.0 1773.0Q806 1792 832 1792H1856Q1882 1792 1901.0 1773.0Q1920 1754 1920 1728Q1920 1702 1901.0 1683.0Q1882 1664 1856 1664ZM256 768Q229 768 205.5 778.0Q182 788 165.0 805.0Q148 822 138.0 845.5Q128 869 128 896V1152Q128 1179 138.0 1202.0Q148 1225 165.5 1242.5Q183 1260 206.0 1270.0Q229 1280 256 1280H512Q538 1280 561.5 1270.0Q585 1260 602.5 1242.5Q620 1225 630.0 1201.5Q640 1178 640 1152V896Q640 869 630.0 846.0Q620 823 602.5 805.5Q585 788 562.0 778.0Q539 768 512 768ZM256 1152V896H512V1152ZM832 1024Q806 1024 787.0 1043.0Q768 1062 768 1088Q768 1114 787.0 1133.0Q806 1152 832 1152H1856Q1882 1152 1901.0 1133.0Q1920 1114 1920 1088Q1920 1062 1901.0 1043.0Q1882 1024 1856 1024ZM256 128Q229 128 205.5 138.0Q182 148 165.0 165.0Q148 182 138.0 205.5Q128 229 128 256V512Q128 539 138.0 562.0Q148 585 165.5 602.5Q183 620 206.0 630.0Q229 640 256 640H512Q538 640 561.5 630.0Q585 620 602.5 602.5Q620 585 630.0 561.5Q640 538 640 512V256Q640 229 630.0 206.0Q620 183 602.5 165.5Q585 148 562.0 138.0Q539 128 512 128ZM256 512V256H512V512ZM832 384Q806 384 787.0 403.0Q768 422 768 448Q768 474 787.0 493.0Q806 512 832 512H1856Q1882 512 1901.0 493.0Q1920 474 1920 448Q1920 422 1901.0 403.0Q1882 384 1856 384Z"/>
  </g>
</svg>