<?xml version="1.0" encoding="utf-8"?>
<svg xmlns="http://www.w3.org/2000/svg" width="16" height="16" viewBox="0 0 2048 2048">
  <g transform="translate(0, 2048) scale(1, -1)">
    <path fill="#000000" d="M128 1472V1541Q128 1591 148.5 1636.5Q169 1682 203.5 1716.5Q238 1751 283.5 1771.5Q329 1792 379 1792H417Q434 1792 451.0 1790.0Q468 1788 481.5 1781.5Q495 1775 503.5 1762.5Q512 1750 512 1728Q512 1702 493.0 1683.0Q474 1664 448 1664H403Q372 1664 345.5 1658.0Q319 1652 293 1626Q268 1601 261.5 1574.0Q255 1547 255 1517Q255 1506 255.5 1495.0Q256 1484 256 1472Q256 1446 237.0 1427.0Q218 1408 192 1408Q166 1408 147.0 1427.0Q128 1446 128 1472ZM1280 1792Q1306 1792 1325.0 1773.0Q1344 1754 1344 1728Q1344 1702 1325.0 1683.0Q1306 1664 1280 1664H896Q870 1664 851.0 1683.0Q832 1702 832 1728Q832 1754 851.0 1773.0Q870 1792 896 1792ZM1797 1792Q1847 1792 1892.5 1771.5Q1938 1751 1972.5 1716.5Q2007 1682 2027.5 1636.5Q2048 1591 2048 1541V1503Q2048 1486 2046.0 1469.0Q2044 1452 2037.5 1438.5Q2031 1425 2018.5 1416.5Q2006 1408 1984 1408Q1958 1408 1939.0 1427.0Q1920 1446 1920 1472V1517Q1920 1547 1914.0 1573.5Q1908 1600 1882 1626Q1856 1652 1829.5 1658.0Q1803 1664 1773 1664H1728Q1702 1664 1683.0 1683.0Q1664 1702 1664 1728Q1664 1754 1683.0 1773.0Q1702 1792 1728 1792ZM2048 1152V768Q2048 742 2029.0 723.0Q2010 704 1984 704Q1958 704 1939.0 723.0Q1920 742 1920 768V1152Q1920 1178 1939.0 1197.0Q1958 1216 1984 1216Q2010 1216 2029.0 1197.0Q2048 1178 2048 1152ZM1216 985Q1242 985 1261.0 966.5Q1280 948 1280 922Q1280 887 1251 868L484 369Q498 340 504.5 311.5Q511 283 511 251Q511 199 490.5 153.5Q470 108 434.5 74.5Q399 41 353.0 21.5Q307 2 256 2Q203 2 157.0 22.0Q111 42 76.5 76.5Q42 111 22.0 157.0Q2 203 2 256Q2 307 21.5 353.0Q41 399 74.5 434.5Q108 470 153.5 490.5Q199 511 251 511Q333 511 400 466L578 582L408 692Q372 666 334.0 654.0Q296 642 251 642Q199 642 153.5 662.5Q108 683 74.5 718.0Q41 753 21.5 799.0Q2 845 2 896Q2 948 22.0 994.5Q42 1041 76.5 1076.0Q111 1111 157.0 1131.0Q203 1151 256 1151Q307 1151 353.0 1131.5Q399 1112 434.5 1078.0Q470 1044 490.5 998.5Q511 953 511 901Q511 872 506.0 845.5Q501 819 489 793L695 658L1181 975Q1189 980 1198.0 982.5Q1207 985 1216 985ZM256 767Q282 767 305.5 777.5Q329 788 347.0 805.5Q365 823 375.5 846.5Q386 870 386 896Q386 923 375.5 946.5Q365 970 347.5 987.5Q330 1005 306.5 1015.5Q283 1026 256 1026Q230 1026 206.5 1015.5Q183 1005 165.5 987.0Q148 969 137.5 945.5Q127 922 127 896Q127 870 137.5 846.5Q148 823 165.5 805.5Q183 788 206.5 777.5Q230 767 256 767ZM2048 448V379Q2048 329 2027.5 283.5Q2007 238 1972.5 203.5Q1938 169 1892.5 148.5Q1847 128 1797 128Q1789 128 1779.5 127.5Q1770 127 1759 127Q1742 127 1725.0 129.0Q1708 131 1694.5 137.5Q1681 144 1672.5 157.0Q1664 170 1664 192Q1664 218 1683.0 237.0Q1702 256 1728 256Q1740 256 1751.0 255.5Q1762 255 1773 255Q1803 255 1830.0 261.5Q1857 268 1882 293Q1908 319 1914.0 345.5Q1920 372 1920 403V448Q1920 474 1939.0 493.0Q1958 512 1984 512Q2010 512 2029.0 493.0Q2048 474 2048 448ZM1280 243Q1280 216 1261.5 197.5Q1243 179 1216 179Q1197 179 1181 190L811 430L929 507L1251 297Q1280 278 1280 243ZM386 256Q386 283 375.5 306.5Q365 330 347.5 347.5Q330 365 306.5 375.5Q283 386 256 386Q230 386 206.5 375.5Q183 365 165.5 347.0Q148 329 137.5 305.5Q127 282 127 256Q127 230 137.5 206.5Q148 183 165.5 165.5Q183 148 206.5 137.5Q230 127 256 127Q282 127 305.5 137.5Q329 148 347.0 165.5Q365 183 375.5 206.5Q386 230 386 256Z"/>
  </g>
</svg>