<?xml version="1.0" encoding="utf-8"?>
<svg xmlns="http://www.w3.org/2000/svg" width="16" height="16" viewBox="0 0 2048 2048">
  <g transform="translate(0, 2048) scale(1, -1)">
    <path fill="#ffffff" d="M1792 1728V1216Q1792 1176 1777.0 1141.0Q1762 1106 1736.0 1080.0Q1710 1054 1675.0 1039.0Q1640 1024 1600 1024H1024V448Q1024 408 1009.0 373.0Q994 338 968.0 312.0Q942 286 907.0 271.0Q872 256 832 256H320Q280 256 245.0 271.0Q210 286 184.0 312.0Q158 338 143.0 373.0Q128 408 128 448V1728Q128 1768 143.0 1803.0Q158 1838 184.0 1864.0Q210 1890 245.0 1905.0Q280 1920 320 1920H1600Q1640 1920 1675.0 1905.0Q1710 1890 1736.0 1864.0Q1762 1838 1777.0 1803.0Q1792 1768 1792 1728ZM256 1152H896V1792H320Q294 1792 275.0 1773.0Q256 1754 256 1728ZM1664 1728Q1664 1754 1645.0 1773.0Q1626 1792 1600 1792H1024V1152H1600Q1626 1152 1645.0 1171.0Q1664 1190 1664 1216ZM896 1024H256V448Q256 422 275.0 403.0Q294 384 320 384H832Q858 384 877.0 403.0Q896 422 896 448Z"/>
  </g>
</svg>