<?xml version="1.0" encoding="utf-8"?>
<svg id="" width="16" height="16" style="width:16px;height:16px;" version="1.1"
    xmlns="http://www.w3.org/2000/svg" viewBox="0 0 2048 2048" enable-background="new 0 0 2048 2048"
    xml:space="preserve"><path fill="#ffffff" d="M2048 585.14 q0 42.29 -17.14 84 q-17.14 41.72 -46.86 71.43 l-284.57 284.57 q42.28 3.43 79.42 21.71 q37.14 18.29 64.57 47.43 q27.43 29.14 42.86 68 q15.43 38.86 15.43 81.14 l0 585.14 q0 45.72 -17.14 85.72 q-17.14 40 -46.86 69.71 q-29.72 29.71 -69.72 46.86 q-40 17.14 -85.71 17.14 l-1462.86 0 q-45.72 0 -85.72 -17.14 q-40 -17.14 -69.71 -46.86 q-29.71 -29.71 -46.86 -69.71 q-17.14 -40 -17.14 -85.72 l0 -1462.86 q0 -45.71 17.14 -85.71 q17.14 -40 46.86 -69.72 q29.71 -29.72 69.71 -46.85 q40 -17.14 85.72 -17.14 l585.14 0 q42.29 0 81.14 15.42 q38.86 15.43 68 42.86 q29.14 27.43 47.43 64.57 q18.28 37.15 21.72 79.43 l284.57 -284.57 q29.71 -29.71 70.86 -46.86 q41.14 -17.14 84.57 -17.14 q43.43 0 84.57 17.14 q41.14 17.14 70.86 46.86 l365.71 365.71 q29.71 29.72 46.86 70.86 q17.14 41.14 17.14 84.57 ZM1901.71 585.14 q0 -29.71 -21.71 -51.43 l-365.71 -365.71 q-21.72 -21.71 -51.43 -21.71 q-29.72 0 -51.43 21.71 l-365.72 365.71 q-21.71 21.72 -21.71 51.43 q0 29.72 21.71 51.43 l365.72 365.72 q21.71 21.71 51.43 21.71 q29.71 0 51.43 -21.71 l365.71 -365.72 q21.71 -21.71 21.71 -51.43 ZM877.71 1024 l0 -658.29 q0 -29.71 -21.71 -51.43 q-21.71 -21.71 -51.43 -21.71 l-585.14 0 q-29.72 0 -51.43 21.71 q-21.71 21.72 -21.71 51.43 l0 658.29 l731.42 0 ZM1225.14 1024 l-201.14 -201.14 l0 201.14 l201.14 0 ZM877.71 1901.71 l0 -731.42 l-731.42 0 l0 658.28 q0 29.72 21.71 51.43 q21.71 21.71 51.43 21.71 l658.28 0 ZM1755.43 1243.43 q0 -29.72 -21.71 -51.43 q-21.72 -21.71 -51.43 -21.71 l-658.29 0 l0 731.42 l658.29 0 q29.71 0 51.43 -21.71 q21.71 -21.71 21.71 -51.43 l0 -585.14 Z"/></svg>