<?xml version="1.0" encoding="utf-8"?>
<svg xmlns="http://www.w3.org/2000/svg" width="16" height="16" viewBox="0 0 2048 2048">
  <g transform="translate(0, 2048) scale(1, -1)">
    <path fill="#000000" d="M128 1920H0V2048H128ZM384 1920H256V2048H384ZM640 1920H512V2048H640ZM768 2048H896V1920H768ZM1024 2048H1152V1920H1024ZM1408 1920H1280V2048H1408ZM1536 2048H1664V1920H1536ZM1792 2048H1920V1920H1792ZM128 1664H0V1792H128ZM1792 1792H1920V1664H1792ZM128 1408H0V1536H128ZM1792 1536H1920V1408H1792ZM128 1152H0V1280H128ZM1536 768V1274Q1612 1262 1678 1219Q1762 1164 1855.0 1140.0Q1948 1116 2048 1116V843Q2048 824 2045.5 805.5Q2043 787 2041 768ZM896 843V1116Q996 1116 1089.0 1140.0Q1182 1164 1266 1219Q1332 1262 1408 1274V768H903Q901 787 898.5 805.5Q896 824 896 843ZM128 896H0V1024H128ZM128 640H0V768H128ZM384 640H256V768H384ZM640 640H512V768H640ZM1536 103V640H2013Q1984 552 1934.5 475.0Q1885 398 1822.0 331.0Q1759 264 1686.0 207.0Q1613 150 1536 103ZM1408 640V103Q1331 150 1257.5 207.0Q1184 264 1121.5 331.0Q1059 398 1009.5 475.0Q960 552 931 640Z"/>
  </g>
</svg>