<?xml version="1.0" encoding="utf-8"?>
<svg xmlns="http://www.w3.org/2000/svg" width="16" height="16" viewBox="0 0 2048 2048">
  <g transform="translate(0, 2048) scale(1, -1)">
    <path fill="#000000" d="M1672 1792Q1747 1792 1815.5 1761.5Q1884 1731 1935.5 1679.5Q1987 1628 2017.5 1559.5Q2048 1491 2048 1416V760Q2048 685 2017.5 616.5Q1987 548 1935.5 496.5Q1884 445 1815.5 414.5Q1747 384 1672 384H376Q301 384 232.5 414.5Q164 445 112.5 496.5Q61 548 30.5 616.5Q0 685 0 760V1416Q0 1491 30.5 1559.5Q61 1628 112.5 1679.5Q164 1731 232.5 1761.5Q301 1792 376 1792ZM128 763Q128 713 148.5 667.5Q169 622 203.5 587.5Q238 553 283.5 532.5Q329 512 379 512H1280V1664H379Q329 1664 283.5 1643.5Q238 1623 203.5 1588.5Q169 1554 148.5 1508.5Q128 1463 128 1413ZM1920 1413Q1920 1463 1899.5 1508.5Q1879 1554 1844.5 1588.5Q1810 1623 1764.5 1643.5Q1719 1664 1669 1664H1408V1152H1920ZM1669 512Q1719 512 1764.5 532.5Q1810 553 1844.5 587.5Q1879 622 1899.5 667.5Q1920 713 1920 763V1024H1408V512Z"/>
  </g>
</svg>