<?xml version="1.0" encoding="utf-8"?>
<svg xmlns="http://www.w3.org/2000/svg" width="16" height="16" viewBox="0 0 2048 2048">
  <g transform="translate(0, 2048) scale(1, -1)">
    <path fill="#ffffff" d="M2048 320Q2048 294 2029.0 275.0Q2010 256 1984 256H64Q38 256 19.0 275.0Q0 294 0 320V1728Q0 1754 19.0 1773.0Q38 1792 64 1792Q90 1792 109.0 1773.0Q128 1754 128 1728V1305Q139 1309 165.0 1318.0Q191 1327 224.0 1338.5Q257 1350 293.0 1362.0Q329 1374 361.0 1384.5Q393 1395 416.5 1401.5Q440 1408 447 1408Q467 1408 484 1397L824 1170L1299 1645Q1318 1664 1344 1664Q1370 1664 1389 1645L1901 1133Q1920 1114 1920 1088V384H1954Q1971 384 1987.5 382.0Q2004 380 2017.5 373.5Q2031 367 2039.5 354.5Q2048 342 2048 320ZM439 1273 128 1170V793L428 893Q438 896 449 896Q456 896 464 894L940 775L1171 1005Q1190 1024 1217 1024Q1225 1024 1229 1023L1792 910V1062L1344 1510L877 1043Q858 1024 832 1024Q813 1024 797 1035ZM128 658V384H1792V779L1237 891L1005 659Q986 640 960 640Q953 640 945 642L451 765Z"/>
  </g>
</svg>