<?xml version="1.0" encoding="utf-8"?>
<svg xmlns="http://www.w3.org/2000/svg" width="16" height="16" viewBox="0 0 2048 2048">
  <g transform="translate(0, 2048) scale(1, -1)">
    <path fill="#000000" d="M1793 897Q1793 844 1755 806L987 38Q969 20 945.5 10.0Q922 0 896 0Q844 0 806 38L38 806Q0 844 0 897Q0 923 10.5 946.5Q21 970 38.5 987.5Q56 1005 79.5 1015.0Q103 1025 129 1025Q154 1025 178.0 1014.5Q202 1004 219 987L768 437V1920Q768 1947 778.0 1970.0Q788 1993 805.5 2010.5Q823 2028 846.0 2038.0Q869 2048 896 2048Q922 2048 945.5 2038.0Q969 2028 986.5 2010.5Q1004 1993 1014.0 1969.5Q1024 1946 1024 1920V437L1574 987Q1612 1025 1665 1025Q1691 1025 1714.0 1014.5Q1737 1004 1754.5 986.5Q1772 969 1782.5 946.0Q1793 923 1793 897Z"/>
  </g>
</svg>