<?xml version="1.0" encoding="utf-8"?>
<svg xmlns="http://www.w3.org/2000/svg" width="16" height="16" viewBox="0 0 2048 2048">
  <g transform="translate(0, 2048) scale(1, -1)">
    <path fill="#ffffff" d="M1793 1153Q1793 1127 1782.5 1103.5Q1772 1080 1754.5 1062.5Q1737 1045 1713.5 1034.5Q1690 1024 1664 1024Q1638 1024 1615.0 1034.0Q1592 1044 1574 1062L1024 1611V128Q1024 101 1014.0 78.0Q1004 55 986.5 37.5Q969 20 946.0 10.0Q923 0 896 0Q869 0 845.5 10.0Q822 20 805.0 37.0Q788 54 778.0 77.5Q768 101 768 128V1611L219 1062Q201 1044 177.5 1034.5Q154 1025 129 1025Q102 1025 78.5 1035.0Q55 1045 37.5 1062.0Q20 1079 10.0 1102.5Q0 1126 0 1153Q0 1178 10.5 1202.0Q21 1226 38 1243L806 2011Q844 2049 897 2049Q922 2049 946.0 2038.5Q970 2028 987 2011L1755 1243Q1772 1226 1782.5 1202.0Q1793 1178 1793 1153Z"/>
  </g>
</svg>