<?xml version="1.0" encoding="utf-8"?>
<svg xmlns="http://www.w3.org/2000/svg" width="16" height="16" viewBox="0 0 2048 2048">
  <g transform="translate(0, 2048) scale(1, -1)">
    <path fill="#ffffff" d="M2048 1152Q2048 1125 2038.0 1102.0Q2028 1079 2010.5 1061.5Q1993 1044 1970.0 1034.0Q1947 1024 1920 1024H437L987 475Q1004 458 1014.5 434.0Q1025 410 1025 385Q1025 359 1014.5 335.5Q1004 312 986.5 294.5Q969 277 945.5 266.5Q922 256 896 256Q844 256 806 294L38 1062Q0 1100 0 1153Q0 1178 10.5 1202.0Q21 1226 38 1243L806 2011Q844 2049 897 2049Q923 2049 946.0 2038.5Q969 2028 986.5 2010.5Q1004 1993 1014.5 1970.0Q1025 1947 1025 1921Q1025 1868 987 1830L437 1280H1920Q1946 1280 1969.5 1270.0Q1993 1260 2010.5 1242.5Q2028 1225 2038.0 1201.5Q2048 1178 2048 1152Z"/>
  </g>
</svg>