<?xml version="1.0" encoding="utf-8"?>
<svg xmlns="http://www.w3.org/2000/svg" width="16" height="16" viewBox="0 0 2048 2048">
  <g transform="translate(0, 2048) scale(1, -1)">
    <path fill="#000000" d="M2049 1153Q2049 1100 2011 1062L1243 294Q1225 276 1201.5 266.0Q1178 256 1152 256Q1125 256 1102.0 266.0Q1079 276 1061.5 293.5Q1044 311 1034.5 334.5Q1025 358 1025 385Q1025 410 1034.5 433.5Q1044 457 1062 475L1611 1024H128Q101 1024 77.5 1034.0Q54 1044 37.0 1061.0Q20 1078 10.0 1101.5Q0 1125 0 1152Q0 1179 10.0 1202.0Q20 1225 37.5 1242.5Q55 1260 78.0 1270.0Q101 1280 128 1280H1611L1062 1830Q1025 1867 1025 1921Q1025 1947 1035.0 1970.5Q1045 1994 1062.5 2011.5Q1080 2029 1103.5 2039.0Q1127 2049 1153 2049Q1178 2049 1202.0 2038.5Q1226 2028 1243 2011L2011 1243Q2028 1226 2038.5 1202.0Q2049 1178 2049 1153Z"/>
  </g>
</svg>