<?xml version="1.0" encoding="utf-8"?>
<svg xmlns="http://www.w3.org/2000/svg" width="16" height="16" viewBox="0 0 2048 2048">
  <g transform="translate(0, 2048) scale(1, -1)">
    <path fill="#000000" d="M0 1216V1541Q0 1591 20.5 1636.5Q41 1682 75.5 1716.5Q110 1751 155.5 1771.5Q201 1792 251 1792H289Q306 1792 323.0 1790.0Q340 1788 353.5 1781.5Q367 1775 375.5 1762.5Q384 1750 384 1728Q384 1702 365.0 1683.0Q346 1664 320 1664H275Q244 1664 217.5 1658.0Q191 1652 165 1626Q128 1589 128 1536V1216Q128 1190 109.0 1171.0Q90 1152 64 1152Q38 1152 19.0 1171.0Q0 1190 0 1216ZM704 256Q665 256 630.0 271.0Q595 286 568.5 312.5Q542 339 527.0 374.0Q512 409 512 448V1600Q512 1639 527.0 1674.0Q542 1709 568.5 1735.5Q595 1762 630.0 1777.0Q665 1792 704 1792H1344Q1383 1792 1418.0 1777.0Q1453 1762 1479.5 1735.5Q1506 1709 1521.0 1674.0Q1536 1639 1536 1600V448Q1536 409 1521.0 374.0Q1506 339 1479.5 312.5Q1453 286 1418.0 271.0Q1383 256 1344 256ZM1664 1728Q1664 1754 1683.0 1773.0Q1702 1792 1728 1792H1797Q1847 1792 1892.5 1771.5Q1938 1751 1972.5 1716.5Q2007 1682 2027.5 1636.5Q2048 1591 2048 1541V1216Q2048 1190 2029.0 1171.0Q2010 1152 1984 1152Q1958 1152 1939.0 1171.0Q1920 1190 1920 1216V1536Q1920 1562 1910.0 1585.0Q1900 1608 1882 1626Q1856 1652 1829.5 1658.0Q1803 1664 1773 1664H1728Q1702 1664 1683.0 1683.0Q1664 1702 1664 1728ZM1344 384Q1370 384 1389.0 403.0Q1408 422 1408 448V1600Q1408 1626 1389.0 1645.0Q1370 1664 1344 1664H704Q678 1664 659.0 1645.0Q640 1626 640 1600V448Q640 422 659.0 403.0Q678 384 704 384ZM251 256Q201 256 155.5 276.5Q110 297 75.5 331.5Q41 366 20.5 411.5Q0 457 0 507V832Q0 858 19.0 877.0Q38 896 64 896Q90 896 109.0 877.0Q128 858 128 832V512Q128 458 165 421Q190 396 217.5 389.5Q245 383 275 383Q286 383 297.0 383.5Q308 384 320 384Q346 384 365.0 365.0Q384 346 384 320Q384 294 365.0 275.0Q346 256 320 256ZM1664 320Q1664 346 1683.0 365.0Q1702 384 1728 384Q1740 384 1751.0 383.5Q1762 383 1773 383Q1803 383 1830.0 389.5Q1857 396 1882 421Q1920 459 1920 512V832Q1920 858 1939.0 877.0Q1958 896 1984 896Q2010 896 2029.0 877.0Q2048 858 2048 832V507Q2048 457 2027.5 411.5Q2007 366 1972.5 331.5Q1938 297 1892.5 276.5Q1847 256 1797 256Q1789 256 1779.5 255.5Q1770 255 1759 255Q1742 255 1725.0 257.0Q1708 259 1694.5 265.5Q1681 272 1672.5 285.0Q1664 298 1664 320Z"/>
  </g>
</svg>