<?xml version="1.0" encoding="utf-8"?>
<svg id="" width="16" height="16" style="width:16px;height:16px;" version="1.1" xmlns="http://www.w3.org/2000/svg" viewBox="0 0 2048 2048" enable-background="new 0 0 2048 2048" xml:space="preserve">
    <path fill="#ffffff" d="M950.86 1201.14 l-547.43 547.43 q-21.72 21.72 -51.43 21.72 q-30.86 0 -52.58 -21.72 q-21.71 -21.71 -21.71 -52.57 q0 -29.71 21.72 -51.43 l547.43 -547.43 l-773.72 0 q-29.71 0 -51.42 -21.71 q-21.71 -21.72 -21.71 -51.43 q0 -29.71 21.71 -51.42 q21.71 -21.72 51.42 -21.72 l773.72 0 l-547.43 -547.43 q-21.72 -21.72 -21.72 -52.57 q0 -30.86 22.29 -52 q22.29 -21.15 52 -21.15 q29.71 0 51.43 21.72 l547.43 547.43 l0 -773.72 q0 -29.71 21.72 -51.42 q21.71 -21.71 51.42 -21.71 q29.71 0 51.43 21.71 q21.71 21.71 21.71 51.42 l0 773.72 l547.43 -547.43 q21.72 -21.72 52.57 -21.72 q29.72 0 51.43 21.71 q21.72 21.72 21.72 51.44 q0 30.85 -21.72 52.57 l-547.43 547.43 l773.72 0 q29.71 0 51.42 21.72 q21.72 21.71 21.72 51.42 q0 29.71 -21.72 51.43 q-21.71 21.71 -51.42 21.71 l-773.72 0 l547.43 547.43 q21.72 21.72 21.72 51.43 q0 29.71 -21.14 52 q-21.14 22.29 -52 22.29 q-30.85 0 -52.57 -21.72 l-547.43 -547.43 l0 773.72 q0 29.71 -21.71 51.42 q-21.72 21.72 -51.43 21.72 q-29.71 0 -51.42 -21.72 q-21.72 -21.71 -21.72 -51.42 l0 -773.72 Z"/>
</svg>