<?xml version="1.0" encoding="utf-8"?>
<svg xmlns="http://www.w3.org/2000/svg" width="16" height="16" viewBox="0 0 2048 2048">
  <g transform="translate(0, 2048) scale(1, -1)">
    <path fill="#000000" d="M2048 1344V576Q2048 537 2033.0 502.0Q2018 467 1991.5 440.5Q1965 414 1930.0 399.0Q1895 384 1856 384H719Q672 311 599.5 273.0Q527 235 441 235Q376 235 319.0 261.0Q262 287 219.5 331.0Q177 375 152.5 433.0Q128 491 128 555V1280Q101 1280 77.5 1290.0Q54 1300 37.0 1317.0Q20 1334 10.0 1357.5Q0 1381 0 1408V1664Q0 1717 37 1754Q75 1792 128 1792H256Q282 1792 305.5 1782.0Q329 1772 346.5 1754.5Q364 1737 374.0 1713.5Q384 1690 384 1664V1408Q384 1381 374.0 1358.0Q364 1335 346.5 1317.5Q329 1300 306.0 1290.0Q283 1280 256 1280V555Q256 516 271.0 481.0Q286 446 312.5 419.5Q339 393 374.0 378.0Q409 363 448 363Q487 363 524.0 379.0Q561 395 588 423Q553 450 532.5 490.5Q512 531 512 576V1344Q512 1383 527.0 1418.0Q542 1453 568.5 1479.5Q595 1506 630.0 1521.0Q665 1536 704 1536H856L931 1686Q955 1734 1002.0 1763.0Q1049 1792 1103 1792H1457Q1511 1792 1558.0 1763.0Q1605 1734 1629 1686L1704 1536H1856Q1895 1536 1930.0 1521.0Q1965 1506 1991.5 1479.5Q2018 1453 2033.0 1418.0Q2048 1383 2048 1344ZM256 1664H128V1408H256ZM1920 1344Q1920 1370 1901.0 1389.0Q1882 1408 1856 1408H1704Q1663 1408 1636.0 1427.0Q1609 1446 1590.5 1474.5Q1572 1503 1559.0 1536.0Q1546 1569 1532.5 1597.5Q1519 1626 1501.5 1645.0Q1484 1664 1457 1664H1103Q1076 1664 1059.0 1645.0Q1042 1626 1028.0 1597.5Q1014 1569 1001.0 1536.0Q988 1503 969.5 1474.5Q951 1446 924.0 1427.0Q897 1408 856 1408H704Q678 1408 659.0 1389.0Q640 1370 640 1344V576Q640 550 659.0 531.0Q678 512 704 512H1856Q1882 512 1901.0 531.0Q1920 550 1920 576ZM1664 1016Q1664 938 1633.0 869.5Q1602 801 1549.5 750.0Q1497 699 1427.0 669.5Q1357 640 1280 640Q1200 640 1130.0 670.0Q1060 700 1008.0 752.0Q956 804 926.0 874.0Q896 944 896 1024Q896 1104 926.0 1174.0Q956 1244 1008.0 1296.0Q1060 1348 1130.0 1378.0Q1200 1408 1280 1408Q1362 1408 1432.5 1377.5Q1503 1347 1554.5 1293.5Q1606 1240 1635.0 1168.5Q1664 1097 1664 1016ZM1536 1029Q1536 1081 1515.0 1126.5Q1494 1172 1459.0 1206.0Q1424 1240 1377.5 1260.0Q1331 1280 1280 1280Q1227 1280 1180.5 1259.5Q1134 1239 1099.5 1204.5Q1065 1170 1044.5 1123.0Q1024 1076 1024 1024Q1024 971 1044.5 924.5Q1065 878 1099.5 843.5Q1134 809 1180.5 788.5Q1227 768 1280 768Q1334 768 1380.5 788.5Q1427 809 1461.5 844.5Q1496 880 1516.0 927.5Q1536 975 1536 1029Z"/>
  </g>
</svg>