<?xml version="1.0" encoding="utf-8"?>
<svg xmlns="http://www.w3.org/2000/svg" width="16" height="16" viewBox="0 0 2048 2048">
  <g transform="translate(0, 2048) scale(1, -1)">
    <path fill="#000000" d="M257 449Q257 512 281.0 570.5Q305 629 350 674L1050 1374Q1069 1393 1095 1393Q1121 1393 1140.0 1374.0Q1159 1355 1159 1329Q1159 1303 1140 1284L440 584Q414 558 399.0 522.5Q384 487 384 449Q384 409 399.0 374.0Q414 339 440.0 313.0Q466 287 501.0 272.0Q536 257 576 257Q614 257 649.0 271.0Q684 285 711 312L1550 1135Q1604 1188 1634.0 1259.5Q1664 1331 1664 1406Q1664 1482 1634.5 1552.0Q1605 1622 1554.0 1675.5Q1503 1729 1434.5 1760.5Q1366 1792 1288 1792Q1208 1792 1136.5 1764.5Q1065 1737 1008 1680L240 912Q221 893 195 893Q169 893 150.0 912.0Q131 931 131 957Q131 983 150 1002L918 1770Q958 1810 998.5 1838.5Q1039 1867 1083.5 1885.0Q1128 1903 1176.5 1911.5Q1225 1920 1281 1920Q1387 1920 1480.0 1879.0Q1573 1838 1642.5 1768.0Q1712 1698 1752.0 1604.5Q1792 1511 1792 1405Q1792 1355 1781.5 1305.5Q1771 1256 1751.5 1209.0Q1732 1162 1703.5 1119.5Q1675 1077 1640 1043L801 220Q755 175 696.5 152.0Q638 129 574 129Q508 129 450.0 154.5Q392 180 349.5 223.5Q307 267 282.0 325.0Q257 383 257 449Z"/>
  </g>
</svg>