<?xml version="1.0" encoding="utf-8"?>
<svg xmlns="http://www.w3.org/2000/svg" width="16" height="16" viewBox="0 0 2048 2048">
  <g transform="translate(0, 2048) scale(1, -1)">
    <path fill="#ffffff" d="M1792 1938V441Q1792 376 1766.0 319.0Q1740 262 1696.0 219.5Q1652 177 1594.0 152.5Q1536 128 1472 128Q1405 128 1347.0 153.0Q1289 178 1245.5 221.5Q1202 265 1177.0 323.0Q1152 381 1152 448Q1152 512 1176.5 570.0Q1201 628 1243.5 672.0Q1286 716 1343.0 742.0Q1400 768 1465 768Q1519 768 1570.0 752.5Q1621 737 1664 704V1444L768 1108V313Q768 248 742.0 191.0Q716 134 672.0 91.5Q628 49 570.0 24.5Q512 0 448 0Q381 0 323.0 25.0Q265 50 221.5 93.5Q178 137 153.0 195.0Q128 253 128 320Q128 384 152.5 442.0Q177 500 219.5 544.0Q262 588 319.0 614.0Q376 640 441 640Q495 640 545.5 624.5Q596 609 639 577L635 1577Q635 1606 652.5 1631.5Q670 1657 698 1668L1663 2028Q1678 2034 1696 2034Q1736 2034 1764.0 2006.0Q1792 1978 1792 1938ZM764 1556V1244L1664 1580V1892ZM1664 448Q1664 487 1649.0 522.0Q1634 557 1607.5 583.5Q1581 610 1546.0 625.0Q1511 640 1472 640Q1433 640 1398.0 625.0Q1363 610 1336.5 583.5Q1310 557 1295.0 522.0Q1280 487 1280 448Q1280 409 1295.0 374.0Q1310 339 1336.5 312.5Q1363 286 1398.0 271.0Q1433 256 1472 256Q1511 256 1546.0 271.0Q1581 286 1607.5 312.5Q1634 339 1649.0 374.0Q1664 409 1664 448ZM640 321Q640 360 625.0 395.0Q610 430 583.5 456.0Q557 482 522.0 497.0Q487 512 448 512Q409 512 374.0 497.0Q339 482 312.5 455.5Q286 429 271.0 394.0Q256 359 256 320Q256 281 271.0 246.0Q286 211 312.5 184.5Q339 158 374.0 143.0Q409 128 448 128Q488 128 523.0 143.5Q558 159 584.0 185.0Q610 211 625.0 246.5Q640 282 640 321Z"/>
  </g>
</svg>