<?xml version="1.0" encoding="utf-8"?>
<svg xmlns="http://www.w3.org/2000/svg" width="16" height="16" viewBox="0 0 2048 2048">
  <g transform="translate(0, 2048) scale(1, -1)">
    <path fill="#ffffff" d="M885 384Q847 384 811.5 398.5Q776 413 749 440L365 824Q339 850 324.0 886.0Q309 922 309 960Q309 998 324.0 1034.0Q339 1070 365 1096L749 1480Q776 1507 811.5 1521.5Q847 1536 885 1536H1600Q1639 1536 1674.0 1521.0Q1709 1506 1735.5 1479.5Q1762 1453 1777.0 1418.0Q1792 1383 1792 1344V576Q1792 537 1777.0 502.0Q1762 467 1735.5 440.5Q1709 414 1674.0 399.0Q1639 384 1600 384ZM1600 512Q1626 512 1645.0 531.0Q1664 550 1664 576V1344Q1664 1370 1645.0 1389.0Q1626 1408 1600 1408H885Q859 1408 840 1389L456 1005Q437 986 437 960Q437 934 456 915L840 531Q859 512 885 512ZM1216 870 1133 787Q1114 768 1088 768Q1062 768 1043.0 787.0Q1024 806 1024 832Q1024 858 1043 877L1126 960L1043 1043Q1024 1062 1024 1088Q1024 1114 1043.0 1133.0Q1062 1152 1088 1152Q1114 1152 1133 1133L1216 1051L1299 1133Q1318 1152 1344 1152Q1370 1152 1389.0 1133.0Q1408 1114 1408 1088Q1408 1062 1389 1043L1307 960L1389 877Q1408 858 1408 832Q1408 806 1389.0 787.0Q1370 768 1344 768Q1318 768 1299 787Z"/>
  </g>
</svg>