<?xml version="1.0" encoding="utf-8"?>
<svg xmlns="http://www.w3.org/2000/svg" width="16" height="16" viewBox="0 0 2048 2048">
  <g transform="translate(0, 2048) scale(1, -1)">
    <path fill="#ffffff" d="M2048 1472Q2048 1446 2029 1427L1901 1299Q1882 1280 1856 1280Q1830 1280 1811 1299L1683 1427Q1664 1446 1664 1472Q1664 1498 1683.0 1517.0Q1702 1536 1728 1536Q1752 1536 1764.0 1525.0Q1776 1514 1792 1498V1600Q1792 1639 1777.0 1674.0Q1762 1709 1735.5 1735.5Q1709 1762 1674.0 1777.0Q1639 1792 1600 1792H1498Q1514 1776 1525.0 1764.0Q1536 1752 1536 1728Q1536 1702 1517.0 1683.0Q1498 1664 1472 1664Q1446 1664 1427 1683L1299 1811Q1280 1830 1280 1856Q1280 1882 1299 1901L1427 2029Q1446 2048 1472 2048Q1498 2048 1517.0 2029.0Q1536 2010 1536 1984Q1536 1961 1524.5 1948.0Q1513 1935 1498 1920H1607Q1672 1920 1729.0 1894.0Q1786 1868 1828.5 1824.0Q1871 1780 1895.5 1722.0Q1920 1664 1920 1600V1498Q1935 1513 1948.0 1524.5Q1961 1536 1984 1536Q2010 1536 2029.0 1517.0Q2048 1498 2048 1472ZM1792 1088V320Q1792 281 1777.0 246.0Q1762 211 1735.5 184.5Q1709 158 1674.0 143.0Q1639 128 1600 128H832Q793 128 758.0 143.0Q723 158 696.5 184.5Q670 211 655.0 246.0Q640 281 640 320V640H320Q281 640 246.0 655.0Q211 670 184.5 696.5Q158 723 143.0 758.0Q128 793 128 832V1600Q128 1639 143.0 1674.0Q158 1709 184.5 1735.5Q211 1762 246.0 1777.0Q281 1792 320 1792H1088Q1127 1792 1162.0 1777.0Q1197 1762 1223.5 1735.5Q1250 1709 1265.0 1674.0Q1280 1639 1280 1600V1280H1600Q1639 1280 1674.0 1265.0Q1709 1250 1735.5 1223.5Q1762 1197 1777.0 1162.0Q1792 1127 1792 1088ZM256 832Q256 806 275.0 787.0Q294 768 320 768H1088Q1114 768 1133.0 787.0Q1152 806 1152 832V1600Q1152 1626 1133.0 1645.0Q1114 1664 1088 1664H320Q294 1664 275.0 1645.0Q256 1626 256 1600Z"/>
  </g>
</svg>