<?xml version="1.0" encoding="utf-8"?>
<svg xmlns="http://www.w3.org/2000/svg" height="16" width="16" viewBox="0 0 16 16">
  <g>
    <path id="path1" transform="rotate(0,8,8) translate(0,0) scale(0.03125,0.03125)  " fill="#FFFFFF" d="M432.25,335.75L389.75,410 387.234375,415.21875 385.4375,420.625 384.359375,426.21875 384,432 384.34375,436.28125 385.375,440.625 388.25,448.75 391.4140625,455.203125 395.15625,461.0625 399.4765625,466.328125 404.375,471 409.867156982422,474.84375 415.968719482422,477.625 422.6796875,479.34375 430,480 434,480 441.468719482422,479.34375 448.375,477.375 454.6875,474.28125 460.375,470.25 465.40625,465.34375 469.75,459.625 473.4375,453.28125 476.5,446.5 477.718719482422,443.25 478.875,439.5 479.718719482422,435.625 480,432 479.718719482422,426.03125 478.875,420.125 477.343719482422,414.34375 475,408.75 470.687469482422,399.84375 465.75,390.625 454.75,371.875 443.125,353.375 437.46875,344.40625 432.25,335.75z M432,288L436.15625,288.5 439.875,290 443.15625,292.5 446,296 456.375,313 466.5,330.25 485.625,361.875 494.781219482422,377.90625 503.5,394.25 507.53125,403.3125 510.125,412.5 511.53125,422 512,432 511.34375,440.90625 509.375,449.625 506.46875,458.09375 503,466.25 497.453125,476.2109375 490.8125,485.09375 483.078125,492.8984375 474.25,499.625 469.48828125,502.525390625 464.578125,505.0390625 459.51953125,507.166015625 454.3125,508.90625 448.95703125,510.259765625 443.453125,511.2265625 437.80078125,511.806640625 432,512 426.201171875,511.80859375 420.5546875,511.234375 415.060546875,510.27734375 409.71875,508.9375 404.529296875,507.21484375 399.4921875,505.109375 394.607421875,502.62109375 389.875,499.75 381.0859375,493.0625 373.34375,485.25 366.6484375,476.3125 361,466.25 357.53125,458.09375 354.625,449.625 352.65625,440.90625 352,432 352.625,422.140625 354.5,412.5625 357.625,403.265625 362,394.25 418,296 420.468719482422,292.65625 423.875,290.125 427.84375,288.53125 432,288z M45.25,288L164.75,407.5 167.234375,409.578125 169.9375,411.0625 172.859375,411.953125 176,412.25 179.140625,411.953125 182.0625,411.0625 184.765625,409.578125 187.25,407.5 306.75,288 45.25,288z M192,109.25L45.25,256 338.75,256 342.28125,252.375 345.375,249 347.53125,245.125 348.25,240 347.953125,236.859390258789 347.0625,233.937515258789 345.578125,231.234390258789 343.5,228.75 224,109.25 224,144 223.703125,147.140625 222.8125,150.0625 221.328125,152.765625 219.25,155.25 216.765609741211,157.328140258789 214.062484741211,158.8125 211.140609741211,159.703125 208,160 204.859375,159.703125 201.9375,158.8125 199.234375,157.328140258789 196.75,155.25 194.671875,152.765625 193.1875,150.0625 192.296875,147.140625 192,144 192,109.25z M208,0L211.140609741211,0.296876430511475 214.062484741211,1.18750381469727 216.765609741211,2.67187929153442 219.25,4.75 221.328125,7.2343864440918 222.8125,9.93751525878906 223.703125,12.8593864440918 224,16 224,70.75 228.875,72.7656326293945 233.5,75.3125076293945 237.875,78.3906326293945 242,82 366,206 369.28125,209.59375 372.125,213.375 374.53125,217.343765258789 376.5,221.500015258789 378.03125,225.843765258789 379.125,230.375015258789 379.78125,235.09375 380,240 379.7734375,244.7109375 379.09375,249.34375 377.9609375,253.8984375 376.375,258.375 374.3671875,262.6796875 371.96875,266.71875 369.1796875,270.4921875 366,274 210,430 206.492172241211,433.1796875 202.718734741211,435.96875 198.6796875,438.3671875 194.375,440.375 189.8984375,441.9609375 185.34375,443.09375 180.7109375,443.7734375 176,444 171.2890625,443.7734375 166.65625,443.09375 162.1015625,441.9609375 157.625,440.375 153.3203125,438.3671875 149.28125,435.96875 145.5078125,433.1796875 142,430 18,306 12.1875,298.875 7.75,290.5 6.109375,285.96875 4.9375,281.375 4.234375,276.71875 4,272 4.234375,267.28125 4.9375,262.625 6.109375,258.03125 7.75,253.5 12.1875,245.125 18,238 174,82 178.03125,78.3906326293945 182.375,75.3125076293945 187.03125,72.7656326293945 192,70.75 192,16 192.296875,12.8593864440918 193.1875,9.93751525878906 194.671875,7.2343864440918 196.75,4.75 199.234375,2.67187929153442 201.9375,1.18750381469727 204.859375,0.296876430511475 208,0z" />
  </g>
</svg>

