<?xml version="1.0" encoding="utf-8"?>
<svg id="" width="16" height="16" style="width:16px;height:16px;" version="1.1" xmlns="http://www.w3.org/2000/svg" viewBox="0 0 2048 2048" enable-background="new 0 0 2048 2048" xml:space="preserve">
    <path fill="#000" d="M2048 64 q0 26 -19 45 l-659 659 l486 0 q26 0 45 19 q19 19 19 45 q0 26 -19 45 q-19 19 -45 19 l-641 0 q-26 0 -44.5 -19 q-18.5 -19 -18.5 -45 l0 -640 q0 -26 19 -45 q19 -19 45 -19 q26 0 45 19 q19 19 19 45 l0 486 l659 -659 q19 -19 45 -19 q26 0 45 19 q19 19 19 45 ZM832 1152 q26 0 45 19 q19 19 19 45 l0 640 q0 26 -19 45 q-19 19 -45 19 q-26 0 -45 -19 q-19 -19 -19 -45 l0 -486 l-659 659 q-19 19 -45 19 q-26 0 -45 -19 q-19 -19 -19 -45 q0 -26 19 -45 l659 -659 l-486 0 q-26 0 -45 -19 q-19 -19 -19 -45 q0 -26 19 -45 q19 -19 45 -19 l640 0 Z"/>
</svg>