<?xml version="1.0" encoding="utf-8"?>
<svg xmlns="http://www.w3.org/2000/svg" width="16" height="16" viewBox="0 0 2048 2048">
  <g transform="translate(0, 2048) scale(1, -1)">
    <path fill="#ffffff" d="M47 1024Q47 1059 60.0 1093.5Q73 1128 97 1154L709 1817Q754 1866 816.0 1893.0Q878 1920 944 1920H1735Q1798 1920 1855.0 1894.5Q1912 1869 1954.5 1826.5Q1997 1784 2022.5 1727.0Q2048 1670 2048 1607V441Q2048 378 2022.5 321.0Q1997 264 1954.5 221.5Q1912 179 1855.0 153.5Q1798 128 1735 128H944Q878 128 816.0 155.0Q754 182 709 231L97 894Q73 920 60.0 954.0Q47 988 47 1024ZM1728 256Q1767 256 1802.0 271.0Q1837 286 1863.5 312.5Q1890 339 1905.0 374.0Q1920 409 1920 448V1600Q1920 1639 1905.0 1674.0Q1890 1709 1863.5 1735.5Q1837 1762 1802.0 1777.0Q1767 1792 1728 1792H944Q903 1792 867.0 1776.0Q831 1760 803 1730L191 1067Q175 1050 175 1024Q175 998 191 981L803 318Q830 289 867.0 272.5Q904 256 944 256ZM1280 934 1005 659Q986 640 960 640Q934 640 915.0 659.0Q896 678 896 704Q896 730 915 749L1190 1024L915 1299Q896 1318 896 1344Q896 1370 915.0 1389.0Q934 1408 960 1408Q986 1408 1005 1389L1280 1115L1555 1389Q1574 1408 1600 1408Q1626 1408 1645.0 1389.0Q1664 1370 1664 1344Q1664 1318 1645 1299L1371 1024L1645 749Q1664 730 1664 704Q1664 678 1645.0 659.0Q1626 640 1600 640Q1574 640 1555 659Z"/>
  </g>
</svg>