<?xml version="1.0" encoding="utf-8"?>
<svg xmlns="http://www.w3.org/2000/svg" width="16" height="16" viewBox="0 0 2048 2048">
  <g transform="translate(0, 2048) scale(1, -1)">
    <path fill="#000000" d="M128 256V1792Q128 1819 138.0 1842.0Q148 1865 165.5 1882.5Q183 1900 206.0 1910.0Q229 1920 256 1920Q282 1920 305.5 1910.0Q329 1900 346.5 1882.5Q364 1865 374.0 1841.5Q384 1818 384 1792V256Q384 229 374.0 206.0Q364 183 346.5 165.5Q329 148 306.0 138.0Q283 128 256 128Q229 128 205.5 138.0Q182 148 165.0 165.0Q148 182 138.0 205.5Q128 229 128 256ZM511 1024Q511 1065 530.0 1100.0Q549 1135 583 1158L1672 1875Q1713 1902 1758 1902Q1791 1902 1820.5 1889.5Q1850 1877 1872.0 1855.5Q1894 1834 1907.0 1805.0Q1920 1776 1920 1742V306Q1920 273 1907.5 244.0Q1895 215 1873.0 193.0Q1851 171 1822.0 158.5Q1793 146 1760 146Q1737 146 1714.0 153.5Q1691 161 1672 173L583 890Q549 913 530.0 948.0Q511 983 511 1024Z"/>
  </g>
</svg>