<?xml version="1.0" encoding="utf-8"?>
<svg xmlns="http://www.w3.org/2000/svg" width="16" height="16" viewBox="0 0 2048 2048">
  <g transform="translate(0, 2048) scale(1, -1)">
    <path fill="#ffffff" d="M885 384Q847 384 811.5 398.5Q776 413 749 440L237 952Q211 978 196.0 1014.0Q181 1050 181 1088Q181 1126 196.0 1162.0Q211 1198 237 1224L749 1736Q776 1763 811.5 1777.5Q847 1792 885 1792H1728Q1767 1792 1802.0 1777.0Q1837 1762 1863.5 1735.5Q1890 1709 1905.0 1674.0Q1920 1639 1920 1600V576Q1920 537 1905.0 502.0Q1890 467 1863.5 440.5Q1837 414 1802.0 399.0Q1767 384 1728 384ZM1728 512Q1754 512 1773.0 531.0Q1792 550 1792 576V1600Q1792 1626 1773.0 1645.0Q1754 1664 1728 1664H885Q859 1664 840 1645L328 1133Q309 1114 309 1088Q309 1062 328 1043L840 531Q859 512 885 512ZM1216 998 1005 787Q986 768 960 768Q934 768 915.0 787.0Q896 806 896 832Q896 858 915 877L1126 1088L915 1299Q896 1318 896 1344Q896 1370 915.0 1389.0Q934 1408 960 1408Q986 1408 1005 1389L1216 1179L1427 1389Q1446 1408 1472 1408Q1498 1408 1517.0 1389.0Q1536 1370 1536 1344Q1536 1318 1517 1299L1307 1088L1517 877Q1536 858 1536 832Q1536 806 1517.0 787.0Q1498 768 1472 768Q1446 768 1427 787Z"/>
  </g>
</svg>