<?xml version="1.0" encoding="utf-8"?>
<svg xmlns="http://www.w3.org/2000/svg" width="16" height="16" viewBox="0 0 2048 2048">
  <g transform="translate(0, 2048) scale(1, -1)">
    <path fill="#ffffff" d="M2048 1088Q2048 1062 2029.0 1043.0Q2010 1024 1984 1024H219L1005 237Q1024 218 1024 192Q1024 166 1005.0 147.0Q986 128 960 128Q934 128 915 147L22 1040Q11 1051 5.5 1062.0Q0 1073 0 1088Q0 1103 5.5 1114.0Q11 1125 22 1136L915 2029Q934 2048 960 2048Q986 2048 1005.0 2029.0Q1024 2010 1024 1984Q1024 1958 1005 1939L219 1152H1984Q2010 1152 2029.0 1133.0Q2048 1114 2048 1088Z"/>
  </g>
</svg>