<?xml version="1.0" encoding="utf-8"?>
<svg xmlns="http://www.w3.org/2000/svg" width="16" height="16" viewBox="0 0 2048 2048">
  <g transform="translate(0, 2048) scale(1, -1)">
    <path fill="#000000" d="M1088 128Q1062 128 1043.0 147.0Q1024 166 1024 192Q1024 218 1043 237L1829 1024H64Q38 1024 19.0 1043.0Q0 1062 0 1088Q0 1114 19.0 1133.0Q38 1152 64 1152H1829L1043 1939Q1024 1958 1024 1984Q1024 2010 1043.0 2029.0Q1062 2048 1088 2048Q1114 2048 1133 2029L2026 1136Q2037 1125 2042.5 1114.0Q2048 1103 2048 1088Q2048 1073 2042.5 1062.0Q2037 1051 2026 1040L1133 147Q1114 128 1088 128Z"/>
  </g>
</svg>