<?xml version="1.0" encoding="utf-8"?>
<svg xmlns="http://www.w3.org/2000/svg" width="16" height="16" viewBox="0 0 2048 2048">
  <g transform="translate(0, 2048) scale(1, -1)">
    <path fill="#000000" d="M2048 960Q2048 907 2010 869Q1973 832 1920 832H1792V697Q1792 634 1766.5 577.0Q1741 520 1698.5 477.5Q1656 435 1599.0 409.5Q1542 384 1479 384H313Q250 384 193.0 409.5Q136 435 93.5 477.5Q51 520 25.5 577.0Q0 634 0 697V1351Q0 1414 25.5 1471.0Q51 1528 93.5 1570.5Q136 1613 193.0 1638.5Q250 1664 313 1664H1479Q1543 1664 1599.5 1639.0Q1656 1614 1698.0 1571.0Q1740 1528 1765.0 1471.0Q1790 1414 1792 1351V1216H1920Q1946 1216 1969.0 1206.0Q1992 1196 2010 1178Q2028 1160 2038.0 1137.0Q2048 1114 2048 1088ZM1664 1344Q1664 1383 1649.0 1418.0Q1634 1453 1607.5 1479.5Q1581 1506 1546.0 1521.0Q1511 1536 1472 1536H320Q281 1536 246.0 1521.0Q211 1506 184.5 1479.5Q158 1453 143.0 1418.0Q128 1383 128 1344V704Q128 665 143.0 630.0Q158 595 184.5 568.5Q211 542 246.0 527.0Q281 512 320 512H1472Q1511 512 1546.0 527.0Q1581 542 1607.5 568.5Q1634 595 1649.0 630.0Q1664 665 1664 704ZM800 1408Q840 1408 868.0 1380.0Q896 1352 896 1312V736Q896 696 868.0 668.0Q840 640 800 640H352Q312 640 284.0 668.0Q256 696 256 736V1312Q256 1352 284.0 1380.0Q312 1408 352 1408Z"/>
  </g>
</svg>