<?xml version="1.0" encoding="utf-8"?>
<svg xmlns="http://www.w3.org/2000/svg" width="16" height="16" viewBox="0 0 2048 2048">
  <g transform="translate(0, 2048) scale(1, -1)">
    <path fill="#000000" d="M320 256Q299 256 286.0 264.5Q273 273 266.0 287.0Q259 301 257.0 318.0Q255 335 255 353Q255 367 255.5 380.5Q256 394 256 405Q256 471 290.0 527.5Q324 584 384 614V1152H357Q334 1152 314.5 1160.5Q295 1169 281.0 1183.0Q267 1197 258.5 1216.5Q250 1236 250 1259Q250 1285 260.0 1304.5Q270 1324 290 1341L930 1862Q971 1896 1024 1896Q1077 1896 1118 1862L1758 1341Q1778 1324 1788.0 1304.5Q1798 1285 1798 1259Q1798 1236 1789.5 1216.5Q1781 1197 1767.0 1183.0Q1753 1169 1733.0 1160.5Q1713 1152 1691 1152H1664V614Q1724 584 1758.0 527.5Q1792 471 1792 405V320Q1792 294 1773.0 275.0Q1754 256 1728 256ZM417 1280H1631L1037 1763Q1030 1768 1024 1768Q1021 1768 1017.0 1766.5Q1013 1765 1011 1763ZM928 1504Q928 1544 956.0 1572.0Q984 1600 1024 1600Q1064 1600 1092.0 1572.0Q1120 1544 1120 1504Q1120 1464 1092.0 1436.0Q1064 1408 1024 1408Q984 1408 956.0 1436.0Q928 1464 928 1504ZM512 1152V640H640V1152ZM768 1152V640H960V1152ZM1088 1152V640H1280V1152ZM1408 1152V640H1536V1152ZM384 384H1664V405Q1664 427 1655.5 446.5Q1647 466 1632.5 480.5Q1618 495 1598.5 503.5Q1579 512 1557 512H491Q469 512 449.5 503.5Q430 495 415.5 480.5Q401 466 392.5 446.5Q384 427 384 405Z"/>
  </g>
</svg>