<?xml version="1.0" encoding="utf-8"?>
<svg xmlns="http://www.w3.org/2000/svg" width="16" height="16" viewBox="0 0 2048 2048">
  <g transform="translate(0, 2048) scale(1, -1)">
    <path fill="#ffffff" d="M1794 290Q1794 226 1769.0 172.5Q1744 119 1701.0 80.0Q1658 41 1602.0 19.5Q1546 -2 1484 -2Q1416 -2 1359.5 22.5Q1303 47 1261.0 89.5Q1219 132 1191.5 188.5Q1164 245 1153 309L1098 640H704Q678 640 659.0 659.5Q640 679 640 705Q640 721 644.5 729.5Q649 738 659 749Q679 772 693.5 798.0Q708 824 721 852Q740 893 750.0 936.0Q760 979 765 1024H448Q409 1024 374.0 1039.0Q339 1054 312.5 1080.5Q286 1107 271.0 1142.0Q256 1177 256 1216V1856Q256 1895 271.0 1930.0Q286 1965 312.5 1991.5Q339 2018 374.0 2033.0Q409 2048 448 2048H1301Q1367 2048 1433.0 2025.5Q1499 2003 1554 1968Q1609 1932 1653.5 1885.0Q1698 1838 1728.5 1782.5Q1759 1727 1775.5 1664.5Q1792 1602 1792 1536Q1792 1436 1754.5 1343.5Q1717 1251 1646 1179L1791 331Q1794 311 1794 290ZM512 1152V1920H448Q422 1920 403.0 1901.0Q384 1882 384 1856V1216Q384 1190 403.0 1171.0Q422 1152 448 1152ZM640 1920V1152H1288Q1366 1152 1434.5 1183.0Q1503 1214 1554.0 1267.0Q1605 1320 1634.5 1389.5Q1664 1459 1664 1536Q1664 1613 1634.5 1682.5Q1605 1752 1554.0 1805.0Q1503 1858 1434.5 1889.0Q1366 1920 1288 1920ZM1666 291Q1666 296 1666.0 301.5Q1666 307 1665 312L1531 1090Q1490 1067 1453.5 1054.0Q1417 1041 1381.0 1034.0Q1345 1027 1308.0 1025.5Q1271 1024 1230 1024H1164L1215 712L1279 331Q1286 290 1302.0 253.0Q1318 216 1344.0 188.0Q1370 160 1405.0 143.0Q1440 126 1484 126Q1520 126 1552.5 137.5Q1585 149 1610.5 171.0Q1636 193 1651.0 223.0Q1666 253 1666 291ZM1077 768 1034 1024H893Q888 957 871.5 892.5Q855 828 824 768Z"/>
  </g>
</svg>