<?xml version="1.0" encoding="utf-8"?>
<svg id="ic_fluent_sport_basketball_20_regular" width="16" height="16"
    style="width:16px;height:16px;" version="1.1" xmlns="http://www.w3.org/2000/svg"
    viewBox="0 0 500 500" enable-background="new 0 0 500 500" xml:space="preserve"><path fill="#ffffff" d="M250.47 227.1 l33.64 -33.64 q-18.69 -23.68 -33.02 -60.44 q-14.33 -36.76 -24.3 -86.6 l-2.49 -13.71 q-66.04 8.72 -117.13 52.34 l143.3 142.05 ZM306.54 215.89 l-33.64 33.64 l142.05 143.3 q43.62 -51.09 52.34 -117.13 l-13.71 -2.49 q-48.6 -9.97 -85.98 -24.3 q-37.38 -14.33 -61.06 -33.02 ZM468.54 244.55 q-1.25 -38.63 -14.95 -74.15 q-13.71 -35.51 -38.64 -64.17 l-85.98 87.23 q18.69 14.95 49.85 26.17 q33.64 13.7 80.99 22.43 l8.73 2.49 ZM306.54 171.03 l87.23 -85.98 q-28.66 -24.93 -64.17 -38.63 q-35.52 -13.7 -74.15 -14.95 l2.49 8.73 q8.73 47.35 22.43 80.99 q11.22 31.16 26.17 49.85 ZM250.47 271.96 l-33.65 33.65 q18.69 22.43 33.02 60.44 q14.33 38 24.3 86.6 l2.5 13.71 q66.04 -8.73 117.13 -52.34 l-143.3 -142.06 ZM194.39 326.79 l-87.22 87.23 q28.66 24.92 64.17 38.63 q35.51 13.71 74.14 14.95 l-2.49 -8.72 q-8.72 -47.35 -22.43 -81 q-11.21 -31.15 -26.17 -49.84 l0 -1.25 ZM171.96 305.61 q-18.69 -14.96 -49.84 -26.17 q-34.89 -13.71 -81 -22.43 l-8.72 -2.49 q1.24 38.63 14.95 74.14 q13.71 35.51 38.63 64.17 l85.98 -87.22 ZM194.39 283.18 l33.65 -33.65 l-142.06 -143.3 q-43.61 51.09 -52.34 117.13 l13.71 2.5 q48.6 9.97 85.99 24.3 q37.38 14.33 61.05 33.02 ZM426.17 425.23 q-46.11 48.6 -110.91 66.04 q-64.79 17.45 -129.59 0 q-64.8 -17.44 -112.15 -64.79 q-47.35 -47.35 -64.8 -112.15 q-17.45 -64.8 0 -129.59 q17.45 -64.8 65.42 -112.15 q47.97 -47.35 112.15 -64.17 q64.17 -16.82 128.35 0 q64.18 16.82 112.15 64.8 q47.98 47.98 64.8 112.15 q16.82 64.17 0 128.35 q-16.82 64.18 -65.42 111.53 Z"/></svg>