<?xml version="1.0" encoding="utf-8"?>
<svg xmlns="http://www.w3.org/2000/svg" width="16" height="16" viewBox="0 0 2048 2048">
  <g transform="translate(0, 2048) scale(1, -1)">
    <path fill="#ffffff" d="M277 1041Q269 1041 262.5 1047.5Q256 1054 256 1062V1280H94Q78 1280 78 1296Q78 1299 96.0 1328.0Q114 1357 142.0 1399.0Q170 1441 202.5 1490.5Q235 1540 265.0 1584.0Q295 1628 317.0 1660.5Q339 1693 345 1702Q351 1711 363 1711Q371 1711 377.5 1704.5Q384 1698 384 1690V1472H546Q562 1472 562 1456Q562 1453 544.0 1424.0Q526 1395 498.0 1353.0Q470 1311 437.5 1261.5Q405 1212 375.0 1168.0Q345 1124 323.0 1091.5Q301 1059 295 1050Q289 1041 277 1041ZM448 576Q409 576 374.0 591.0Q339 606 312.5 632.5Q286 659 271.0 694.0Q256 729 256 768V971Q266 968 278 968Q300 968 320 979V768Q320 741 330.0 717.5Q340 694 357.0 677.0Q374 660 397.5 650.0Q421 640 448 640H1600Q1627 640 1650.0 650.0Q1673 660 1690.5 677.5Q1708 695 1718.0 718.0Q1728 741 1728 768V1280Q1728 1306 1718.0 1329.5Q1708 1353 1690.5 1370.5Q1673 1388 1649.5 1398.0Q1626 1408 1600 1408H620Q626 1417 630.5 1431.0Q635 1445 635 1458Q635 1464 633 1472H1600Q1639 1472 1674.0 1457.0Q1709 1442 1735.5 1415.5Q1762 1389 1777.0 1354.0Q1792 1319 1792 1280V1120Q1838 1120 1864.0 1117.5Q1890 1115 1902.5 1102.5Q1915 1090 1917.5 1064.0Q1920 1038 1920 992Q1920 970 1911.5 957.0Q1903 944 1889.5 937.5Q1876 931 1859.5 929.0Q1843 927 1826 927Q1817 927 1808.5 927.5Q1800 928 1792 928V768Q1792 729 1777.0 694.0Q1762 659 1735.5 632.5Q1709 606 1674.0 591.0Q1639 576 1600 576ZM464 704Q431 704 407.5 727.5Q384 751 384 784V1054L577 1344H1456Q1489 1344 1512.5 1320.5Q1536 1297 1536 1264V784Q1536 751 1512.5 727.5Q1489 704 1456 704Z"/>
  </g>
</svg>