<?xml version="1.0" encoding="utf-8"?>
<svg xmlns="http://www.w3.org/2000/svg" width="16" height="16" viewBox="0 0 2048 2048">
  <g transform="translate(0, 2048) scale(1, -1)">
    <path fill="#000000" d="M32 896Q18 896 9.0 905.0Q0 914 0 928Q0 951 23 959Q61 974 89.5 992.5Q118 1011 144 1043Q105 1059 78.0 1079.0Q51 1099 33.5 1125.0Q16 1151 8.0 1184.0Q0 1217 0 1259Q0 1283 10.5 1308.0Q21 1333 37.0 1356.0Q53 1379 73.0 1398.0Q93 1417 112 1430Q162 1463 199.5 1502.5Q237 1542 275 1587Q285 1600 301 1600Q322 1600 330 1581L423 1373Q448 1317 448 1257Q448 1201 423.5 1150.0Q399 1099 356 1064Q354 1062 350.5 1060.5Q347 1059 345 1059Q339 1059 335.0 1064.0Q331 1069 331 1074Q331 1077 333 1081Q352 1132 365.0 1188.0Q378 1244 378 1299Q378 1316 367.0 1328.5Q356 1341 338 1341Q321 1341 311.0 1330.0Q301 1319 299 1302Q293 1232 277.5 1166.0Q262 1100 221 1042Q186 992 143.5 953.0Q101 914 41 897Q38 896 32 896ZM1920 992Q1920 970 1911.5 957.0Q1903 944 1889.5 937.5Q1876 931 1859.5 929.0Q1843 927 1826 927Q1817 927 1808.5 927.5Q1800 928 1792 928V768Q1792 729 1777.0 694.0Q1762 659 1735.5 632.5Q1709 606 1674.0 591.0Q1639 576 1600 576H448Q409 576 374.0 591.0Q339 606 312.5 632.5Q286 659 271.0 694.0Q256 729 256 768V944Q273 945 288.5 948.0Q304 951 320 956V768Q320 741 330.0 717.5Q340 694 357.0 677.0Q374 660 397.5 650.0Q421 640 448 640H1600Q1627 640 1650.0 650.0Q1673 660 1690.5 677.5Q1708 695 1718.0 718.0Q1728 741 1728 768V1280Q1728 1306 1718.0 1329.5Q1708 1353 1690.5 1370.5Q1673 1388 1649.5 1398.0Q1626 1408 1600 1408H495L467 1472H1600Q1639 1472 1674.0 1457.0Q1709 1442 1735.5 1415.5Q1762 1389 1777.0 1354.0Q1792 1319 1792 1280V1120Q1838 1120 1864.0 1117.5Q1890 1115 1902.5 1102.5Q1915 1090 1917.5 1064.0Q1920 1038 1920 992ZM529 1253Q529 1297 518 1344H1200Q1233 1344 1256.5 1320.5Q1280 1297 1280 1264V784Q1280 751 1256.5 727.5Q1233 704 1200 704H464Q431 704 407.5 727.5Q384 751 384 784V986Q416 1006 443.0 1036.5Q470 1067 489.0 1102.5Q508 1138 518.5 1176.5Q529 1215 529 1253Z"/>
  </g>
</svg>