<?xml version="1.0" encoding="utf-8"?>
<svg xmlns="http://www.w3.org/2000/svg" width="16" height="16" viewBox="0 0 2048 2048">
  <g transform="translate(0, 2048) scale(1, -1)">
    <path fill="#ffffff" d="M64 384Q38 384 19.0 403.0Q0 422 0 448Q0 471 12.5 486.0Q25 501 45 509Q120 537 178.0 576.0Q236 615 287 679Q210 710 155.5 750.5Q101 791 66.5 843.0Q32 895 16.0 960.5Q0 1026 0 1109Q0 1159 20.0 1209.0Q40 1259 72.5 1304.5Q105 1350 145.0 1387.5Q185 1425 224 1451Q322 1515 399.5 1594.5Q477 1674 550 1765Q561 1778 573.5 1785.0Q586 1792 603 1792Q621 1792 637.0 1781.5Q653 1771 661 1754L847 1337Q871 1282 884.0 1222.0Q897 1162 897 1102Q897 987 847.5 891.0Q798 795 712 721Q707 717 701.5 714.0Q696 711 690 711Q678 711 670.0 721.0Q662 731 662 742Q662 749 665 755Q707 858 732.0 970.5Q757 1083 757 1195Q757 1227 733.0 1250.0Q709 1273 677 1273Q643 1273 621.0 1251.5Q599 1230 597 1197Q591 1126 581.5 1058.5Q572 991 554.5 925.5Q537 860 510.0 797.5Q483 735 443 675Q377 575 287.5 498.5Q198 422 83 387Q74 384 64 384ZM2048 960Q2048 907 2010 869Q1973 832 1920 832H1792V697Q1792 634 1766.5 577.0Q1741 520 1698.5 477.5Q1656 435 1599.0 409.5Q1542 384 1479 384H512Q486 384 467.0 403.0Q448 422 448 448Q448 474 467.0 493.0Q486 512 512 512H1472Q1511 512 1546.0 527.0Q1581 542 1607.5 568.5Q1634 595 1649.0 630.0Q1664 665 1664 704V1344Q1664 1383 1649.0 1418.0Q1634 1453 1607.5 1479.5Q1581 1506 1546.0 1521.0Q1511 1536 1472 1536H960Q934 1536 915.0 1555.0Q896 1574 896 1600Q896 1626 915.0 1645.0Q934 1664 960 1664H1479Q1543 1664 1599.5 1638.5Q1656 1613 1698.5 1570.5Q1741 1528 1766.0 1471.0Q1791 1414 1792 1351V1216H1920Q1946 1216 1969.0 1206.0Q1992 1196 2010 1178Q2028 1160 2038.0 1137.0Q2048 1114 2048 1088Z"/>
  </g>
</svg>