<?xml version="1.0" encoding="utf-8"?>
<svg xmlns="http://www.w3.org/2000/svg" width="16" height="16" viewBox="0 0 2048 2048">
  <g transform="translate(0, 2048) scale(1, -1)">
    <path fill="#ffffff" d="M1920 992Q1920 970 1911.5 957.0Q1903 944 1889.5 937.5Q1876 931 1859.5 929.0Q1843 927 1826 927Q1817 927 1808.5 927.5Q1800 928 1792 928V768Q1792 729 1777.0 694.0Q1762 659 1735.5 632.5Q1709 606 1674.0 591.0Q1639 576 1600 576H448Q409 576 374.0 591.0Q339 606 312.5 632.5Q286 659 271.0 694.0Q256 729 256 768V1280Q256 1319 271.0 1354.0Q286 1389 312.5 1415.5Q339 1442 374.0 1457.0Q409 1472 448 1472H1600Q1639 1472 1674.0 1457.0Q1709 1442 1735.5 1415.5Q1762 1389 1777.0 1354.0Q1792 1319 1792 1280V1120Q1838 1120 1864.0 1117.5Q1890 1115 1902.5 1102.5Q1915 1090 1917.5 1064.0Q1920 1038 1920 992ZM1728 1280Q1728 1306 1718.0 1329.5Q1708 1353 1690.5 1370.5Q1673 1388 1649.5 1398.0Q1626 1408 1600 1408H448Q421 1408 398.0 1398.0Q375 1388 357.5 1370.5Q340 1353 330.0 1330.0Q320 1307 320 1280V768Q320 741 330.0 717.5Q340 694 357.0 677.0Q374 660 397.5 650.0Q421 640 448 640H1600Q1627 640 1650.0 650.0Q1673 660 1690.5 677.5Q1708 695 1718.0 718.0Q1728 741 1728 768ZM1280 1248Q1280 1234 1271 1225L1069 1024L1271 823Q1280 814 1280 800Q1280 786 1271.0 777.0Q1262 768 1248 768Q1234 768 1225 777L1024 979L823 777Q814 768 800 768Q786 768 777.0 777.0Q768 786 768 800Q768 814 777 823L979 1024L777 1225Q768 1234 768 1248Q768 1262 777.0 1271.0Q786 1280 800 1280Q814 1280 823 1271L1024 1069L1225 1271Q1234 1280 1248 1280Q1262 1280 1271.0 1271.0Q1280 1262 1280 1248Z"/>
  </g>
</svg>