<?xml version="1.0" encoding="utf-8"?>
<svg xmlns="http://www.w3.org/2000/svg" width="16" height="16" viewBox="0 0 2048 2048">
  <g transform="translate(0, 2048) scale(1, -1)">
    <path fill="#000000" d="M1774 314Q1774 275 1759.5 241.5Q1745 208 1720.0 182.5Q1695 157 1661.5 142.5Q1628 128 1589 128H459Q420 128 386.5 142.5Q353 157 328.0 182.5Q303 208 288.5 241.5Q274 275 274 314Q274 367 301 411L740 1124Q768 1171 768 1224V1792Q760 1792 751.5 1791.5Q743 1791 734 1791Q717 1791 700.5 1793.0Q684 1795 670.5 1801.5Q657 1808 648.5 1821.0Q640 1834 640 1856Q640 1882 659.0 1901.0Q678 1920 704 1920H1344Q1370 1920 1389.0 1901.0Q1408 1882 1408 1856Q1408 1834 1399.5 1821.0Q1391 1808 1377.5 1801.5Q1364 1795 1347.5 1793.0Q1331 1791 1314 1791Q1305 1791 1296.5 1791.5Q1288 1792 1280 1792V1224Q1280 1170 1309 1124L1747 411Q1774 367 1774 314ZM749 896H1299L1200 1057Q1152 1135 1152 1224V1792H896V1224Q896 1177 884.0 1137.0Q872 1097 848 1057ZM1646 314Q1646 330 1638 344L1378 768H670L410 344Q402 330 402 314Q402 291 418.5 273.5Q435 256 459 256H1589Q1614 256 1630.0 273.0Q1646 290 1646 314Z"/>
  </g>
</svg>