<?xml version="1.0" encoding="utf-8"?>
<svg xmlns="http://www.w3.org/2000/svg" width="16" height="16" viewBox="0 0 2048 2048">
  <g transform="translate(0, 2048) scale(1, -1)">
    <path fill="#000000" d="M512 128V1792Q512 1843 531.0 1889.0Q550 1935 583.5 1970.0Q617 2005 662.0 2025.5Q707 2046 759 2046Q762 2046 764 2046L772 2045Q775 2045 777 2045Q830 2041 885.0 2031.5Q940 2022 992.0 2003.5Q1044 1985 1089.5 1955.0Q1135 1925 1169 1880Q1227 1804 1253.5 1718.0Q1280 1632 1280 1536Q1280 1453 1258.5 1375.0Q1237 1297 1187 1229Q1355 1175 1445.5 1061.0Q1536 947 1536 768Q1536 693 1516.0 623.5Q1496 554 1451 493Q1415 444 1367.0 401.0Q1319 358 1263.5 325.5Q1208 293 1147.0 274.5Q1086 256 1024 256Q958 256 893.0 270.0Q828 284 768 313V128Q768 101 758.0 78.0Q748 55 730.5 37.5Q713 20 690.0 10.0Q667 0 640 0Q613 0 589.5 10.0Q566 20 549.0 37.0Q532 54 522.0 77.5Q512 101 512 128ZM763 1280Q822 1281 870.0 1298.5Q918 1316 952.5 1348.5Q987 1381 1005.5 1428.5Q1024 1476 1024 1536Q1024 1607 1008.0 1653.5Q992 1700 959.0 1728.5Q926 1757 876.0 1770.5Q826 1784 759 1789ZM1280 768Q1280 831 1258.5 873.5Q1237 916 1200.0 943.5Q1163 971 1114.0 986.0Q1065 1001 1010 1009Q950 1018 889.5 1021.0Q829 1024 768 1024H765L768 706Q768 667 779.5 634.0Q791 601 823 576Q865 542 917.5 527.0Q970 512 1024 512Q1048 512 1075.0 521.5Q1102 531 1123 541Q1157 557 1185.5 580.0Q1214 603 1235.0 632.0Q1256 661 1268.0 695.5Q1280 730 1280 768Z"/>
  </g>
</svg>