<?xml version="1.0" encoding="utf-8"?>
<svg xmlns="http://www.w3.org/2000/svg" width="16" height="16" viewBox="0 0 2048 2048">
  <g transform="translate(0, 2048) scale(1, -1)">
    <path fill="#ffffff" d="M768 896H566Q462 896 370.5 937.5Q279 979 211.0 1049.5Q143 1120 103.5 1212.5Q64 1305 64 1408Q64 1511 103.5 1603.5Q143 1696 211.0 1766.5Q279 1837 370.5 1878.5Q462 1920 566 1920H1216Q1242 1920 1261.0 1901.0Q1280 1882 1280 1856Q1280 1834 1271.5 1821.0Q1263 1808 1249.5 1801.5Q1236 1795 1219.5 1793.0Q1203 1791 1186 1791Q1177 1791 1168.5 1791.5Q1160 1792 1152 1792V64Q1152 38 1133.0 19.0Q1114 0 1088 0Q1062 0 1043.0 19.0Q1024 38 1024 64V1792H896V64Q896 38 877.0 19.0Q858 0 832 0Q806 0 787.0 19.0Q768 38 768 64ZM768 1024V1792H568Q490 1792 421.5 1761.0Q353 1730 302.0 1677.0Q251 1624 221.5 1554.5Q192 1485 192 1408Q192 1331 221.5 1261.5Q251 1192 302.0 1139.0Q353 1086 421.5 1055.0Q490 1024 568 1024ZM1408 1088Q1408 1114 1427 1133L1811 1517Q1830 1536 1856 1536Q1882 1536 1901.0 1517.0Q1920 1498 1920 1472Q1920 1446 1901 1427L1563 1088L1901 749Q1920 730 1920 704Q1920 678 1901.0 659.0Q1882 640 1856 640Q1830 640 1811 659L1427 1043Q1408 1062 1408 1088Z"/>
  </g>
</svg>