<?xml version="1.0" encoding="utf-8"?>
<svg xmlns="http://www.w3.org/2000/svg" width="16" height="16" viewBox="0 0 2048 2048">
  <g transform="translate(0, 2048) scale(1, -1)">
    <path fill="#000000" d="M1536 896H1334Q1230 896 1138.5 937.5Q1047 979 979.0 1049.5Q911 1120 871.5 1212.5Q832 1305 832 1408Q832 1511 871.5 1603.5Q911 1696 979.0 1766.5Q1047 1837 1138.5 1878.5Q1230 1920 1334 1920H1984Q2010 1920 2029.0 1901.0Q2048 1882 2048 1856Q2048 1834 2039.5 1821.0Q2031 1808 2017.5 1801.5Q2004 1795 1987.5 1793.0Q1971 1791 1954 1791Q1945 1791 1936.5 1791.5Q1928 1792 1920 1792V64Q1920 38 1901.0 19.0Q1882 0 1856 0Q1830 0 1811.0 19.0Q1792 38 1792 64V1792H1664V64Q1664 38 1645.0 19.0Q1626 0 1600 0Q1574 0 1555.0 19.0Q1536 38 1536 64ZM1536 1024V1792H1336Q1258 1792 1189.5 1761.0Q1121 1730 1070.0 1677.0Q1019 1624 989.5 1554.5Q960 1485 960 1408Q960 1331 989.5 1261.5Q1019 1192 1070.0 1139.0Q1121 1086 1189.5 1055.0Q1258 1024 1336 1024ZM128 704Q128 730 147 749L486 1088L147 1427Q128 1446 128 1472Q128 1498 147.0 1517.0Q166 1536 192 1536Q218 1536 237 1517L621 1133Q640 1114 640 1088Q640 1062 621 1043L237 659Q218 640 192 640Q166 640 147.0 659.0Q128 678 128 704Z"/>
  </g>
</svg>