<?xml version="1.0" encoding="utf-8"?>
<svg xmlns="http://www.w3.org/2000/svg" width="16" height="16" viewBox="0 0 2048 2048">
  <g transform="translate(0, 2048) scale(1, -1)">
    <path fill="#ffffff" d="M384 1546Q384 1650 425.5 1741.5Q467 1833 537.5 1901.0Q608 1969 700.5 2008.5Q793 2048 896 2048Q1002 2048 1095.5 2008.0Q1189 1968 1258.5 1898.5Q1328 1829 1368.0 1735.5Q1408 1642 1408 1536Q1408 1430 1368.0 1336.5Q1328 1243 1258.5 1173.5Q1189 1104 1095.5 1064.0Q1002 1024 896 1024Q786 1024 692.5 1065.0Q599 1106 530.5 1177.0Q462 1248 423.0 1343.0Q384 1438 384 1546ZM1280 1544Q1280 1622 1249.0 1690.5Q1218 1759 1165.5 1810.0Q1113 1861 1043.0 1890.5Q973 1920 896 1920Q816 1920 746.0 1890.0Q676 1860 624.0 1808.0Q572 1756 542.0 1686.0Q512 1616 512 1536Q512 1456 542.0 1386.0Q572 1316 624.0 1264.0Q676 1212 746.0 1182.0Q816 1152 896 1152Q978 1152 1048.5 1182.5Q1119 1213 1170.5 1266.5Q1222 1320 1251.0 1391.5Q1280 1463 1280 1544ZM1024 522Q1024 626 1065.5 717.5Q1107 809 1177.5 877.0Q1248 945 1340.5 984.5Q1433 1024 1536 1024Q1642 1024 1735.5 984.0Q1829 944 1898.5 874.5Q1968 805 2008.0 711.5Q2048 618 2048 512Q2048 406 2008.0 312.5Q1968 219 1898.5 149.5Q1829 80 1735.5 40.0Q1642 0 1536 0Q1426 0 1332.5 41.0Q1239 82 1170.5 153.0Q1102 224 1063.0 319.0Q1024 414 1024 522ZM839 129Q727 129 616.5 147.5Q506 166 399 201Q351 217 295.0 240.5Q239 264 187.0 296.0Q135 328 93.0 368.5Q51 409 31 459Q15 499 7.5 542.0Q0 585 0 628Q0 681 21.5 729.5Q43 778 79.5 815.0Q116 852 164.0 874.0Q212 896 266 896H1024Q979 836 949 767H271Q241 767 215.0 755.5Q189 744 169.5 724.5Q150 705 139.0 678.5Q128 652 128 623Q128 594 133.5 563.5Q139 533 150 507Q166 470 201.5 442.5Q237 415 271 396Q332 361 404.5 335.0Q477 309 553.0 292.0Q629 275 705.5 266.5Q782 258 853 258Q876 258 900.0 259.0Q924 260 947 262Q974 197 1015 141Q928 129 839 129ZM1759 825Q1708 861 1649.5 878.5Q1591 896 1528 896Q1453 896 1384.5 865.5Q1316 835 1264.5 783.5Q1213 732 1182.5 663.5Q1152 595 1152 520Q1152 457 1169.5 398.5Q1187 340 1223 289ZM1849 735 1313 199Q1364 163 1422.5 145.5Q1481 128 1544 128Q1619 128 1687.5 158.5Q1756 189 1807.5 240.5Q1859 292 1889.5 360.5Q1920 429 1920 504Q1920 567 1902.5 625.5Q1885 684 1849 735Z"/>
  </g>
</svg>