<?xml version="1.0" encoding="utf-8"?>
<svg xmlns="http://www.w3.org/2000/svg" width="16" height="16" viewBox="0 0 2048 2048">
  <g transform="translate(0, 2048) scale(1, -1)">
    <path fill="#ffffff" d="M0 1088Q0 1221 34.0 1343.5Q68 1466 130.5 1573.0Q193 1680 280.5 1767.5Q368 1855 475.0 1917.5Q582 1980 704.5 2014.0Q827 2048 960 2048Q1092 2048 1214.5 2013.5Q1337 1979 1444.0 1916.5Q1551 1854 1638.5 1766.5Q1726 1679 1788.5 1572.0Q1851 1465 1885.5 1342.5Q1920 1220 1920 1088Q1920 955 1886.0 832.5Q1852 710 1789.5 603.0Q1727 496 1639.5 408.5Q1552 321 1445.0 258.5Q1338 196 1215.5 162.0Q1093 128 960 128Q827 128 704.0 162.0Q581 196 474.5 258.5Q368 321 280.5 408.5Q193 496 130.5 602.5Q68 709 34.0 832.0Q0 955 0 1088ZM1792 1088Q1792 1203 1762.5 1309.5Q1733 1416 1678.5 1508.5Q1624 1601 1548.5 1676.5Q1473 1752 1380.5 1806.5Q1288 1861 1181.5 1890.5Q1075 1920 960 1920Q845 1920 738.5 1890.5Q632 1861 539.5 1806.5Q447 1752 371.5 1676.5Q296 1601 241.5 1508.5Q187 1416 157.5 1309.5Q128 1203 128 1088Q128 973 157.5 866.5Q187 760 241.0 667.5Q295 575 371.0 499.0Q447 423 539.5 369.0Q632 315 738.5 285.5Q845 256 960 256Q1075 256 1181.5 285.5Q1288 315 1380.5 369.5Q1473 424 1548.5 499.5Q1624 575 1678.5 667.5Q1733 760 1762.5 866.5Q1792 973 1792 1088ZM576 1024Q550 1024 531.0 1043.0Q512 1062 512 1088Q512 1114 531.0 1133.0Q550 1152 576 1152H1344Q1370 1152 1389.0 1133.0Q1408 1114 1408 1088Q1408 1062 1389.0 1043.0Q1370 1024 1344 1024Z"/>
  </g>
</svg>