<?xml version="1.0" encoding="utf-8"?>
<svg id="" width="16" height="16" style="width:16px;height:16px;" version="1.1"
    xmlns="http://www.w3.org/2000/svg" viewBox="0 0 2048 2048" enable-background="new 0 0 2048 2048"
    xml:space="preserve"><path fill="#ffffff" d="M960 1165 l-406 355 q-17 16 -42 16 q-27 0 -45.5 -19 q-18.5 -19 -18.5 -46 q0 -28 22 -47 l457 -400 l-457 -400 q-22 -19 -22 -48 q0 -27 18.5 -45.5 q18.5 -18.5 45.5 -18.5 q25 0 42 16 l406 355 l0 -819 q0 -26 19.5 -45 q19.5 -19 45.5 -19 q25 0 44 19 l512 512 q19 19 19 44 q0 30 -22 49 l-457 400 l457 400 q12 11 17 22 q5 11 5 27 q0 25 -19 44 l-512 512 q-19 19 -45 19 q-26 0 -45 -19 q-19 -19 -19 -45 l0 -819 ZM1088 218 l0 665 l354 -310 l-354 -355 ZM1088 1165 l0 664 l354 -354 l-354 -310 Z"/></svg>