<?xml version="1.0" encoding="utf-8"?>
<svg xmlns="http://www.w3.org/2000/svg" width="16" height="16" viewBox="0 0 2048 2048">
  <g transform="translate(0, 2048) scale(1, -1)">
    <path fill="#000000" d="M507 0Q457 0 411.5 20.5Q366 41 331.5 75.5Q297 110 276.5 155.5Q256 201 256 251V1797Q256 1847 276.5 1892.5Q297 1938 331.5 1972.5Q366 2007 411.5 2027.5Q457 2048 507 2048H1541Q1591 2048 1636.5 2027.5Q1682 2007 1716.5 1972.5Q1751 1938 1771.5 1892.5Q1792 1847 1792 1797V251Q1792 201 1771.5 155.5Q1751 110 1716.5 75.5Q1682 41 1636.5 20.5Q1591 0 1541 0ZM1536 128Q1563 128 1586.0 138.0Q1609 148 1626.5 165.5Q1644 183 1654.0 206.0Q1664 229 1664 256V1792Q1664 1818 1654.0 1841.5Q1644 1865 1626.5 1882.5Q1609 1900 1585.5 1910.0Q1562 1920 1536 1920H512Q485 1920 462.0 1910.0Q439 1900 421.5 1882.5Q404 1865 394.0 1842.0Q384 1819 384 1792V256Q384 229 394.0 205.5Q404 182 421.0 165.0Q438 148 461.5 138.0Q485 128 512 128ZM1280 1664Q1280 1691 1290.0 1714.0Q1300 1737 1317.5 1754.5Q1335 1772 1358.0 1782.0Q1381 1792 1408 1792Q1434 1792 1457.5 1782.0Q1481 1772 1498.5 1754.5Q1516 1737 1526.0 1713.5Q1536 1690 1536 1664Q1536 1637 1526.0 1614.0Q1516 1591 1498.5 1573.5Q1481 1556 1458.0 1546.0Q1435 1536 1408 1536Q1381 1536 1357.5 1546.0Q1334 1556 1317.0 1573.0Q1300 1590 1290.0 1613.5Q1280 1637 1280 1664ZM512 896V906Q512 1010 553.5 1101.5Q595 1193 665.5 1261.0Q736 1329 828.5 1368.5Q921 1408 1024 1408Q1130 1408 1223.5 1368.0Q1317 1328 1386.5 1258.5Q1456 1189 1496.0 1095.5Q1536 1002 1536 896Q1536 790 1496.0 696.5Q1456 603 1386.5 533.5Q1317 464 1223.5 424.0Q1130 384 1024 384Q918 384 824.5 424.0Q731 464 661.5 533.5Q592 603 552.0 696.5Q512 790 512 896ZM1408 896V904Q1408 982 1377.0 1050.5Q1346 1119 1293.0 1170.0Q1240 1221 1170.5 1250.5Q1101 1280 1024 1280Q944 1280 874.0 1250.0Q804 1220 752.0 1168.0Q700 1116 670.0 1046.0Q640 976 640 896Q640 816 670.0 746.0Q700 676 752.0 624.0Q804 572 874.0 542.0Q944 512 1024 512Q1104 512 1174.0 542.0Q1244 572 1296.0 624.0Q1348 676 1378.0 746.0Q1408 816 1408 896Z"/>
  </g>
</svg>