<?xml version="1.0" encoding="utf-8"?>
<svg xmlns="http://www.w3.org/2000/svg" width="16" height="16" viewBox="0 0 2048 2048">
  <g transform="translate(0, 2048) scale(1, -1)">
    <path fill="#000000" d="M541 140Q509 140 480.5 152.0Q452 164 430.5 185.0Q409 206 396.5 234.0Q384 262 384 294V1754Q384 1787 397.5 1817.0Q411 1847 434.0 1870.0Q457 1893 487.0 1906.5Q517 1920 550 1920H998Q1104 1920 1197.0 1879.5Q1290 1839 1359.5 1769.5Q1429 1700 1469.5 1607.0Q1510 1514 1510 1408Q1510 1323 1483.5 1246.5Q1457 1170 1408 1101Q1508 1023 1560.5 914.0Q1613 805 1613 678Q1613 599 1594.0 523.5Q1575 448 1530 382Q1492 326 1441.5 281.5Q1391 237 1332.0 205.5Q1273 174 1207.5 157.5Q1142 141 1075 141H941L675 140Q608 140 541 140ZM986 1216Q1026 1216 1061.0 1231.0Q1096 1246 1122.0 1272.0Q1148 1298 1163.0 1333.0Q1178 1368 1178 1408Q1178 1448 1163.0 1483.0Q1148 1518 1122.0 1544.0Q1096 1570 1061.0 1585.0Q1026 1600 986 1600H704V1216ZM1062 448Q1109 448 1149.0 465.5Q1189 483 1218.0 513.0Q1247 543 1263.5 583.5Q1280 624 1280 671Q1280 715 1262.5 755.5Q1245 796 1215.5 827.5Q1186 859 1146.5 877.5Q1107 896 1062 896H704V448Z"/>
  </g>
</svg>