<?xml version="1.0" encoding="utf-8"?>
<svg xmlns="http://www.w3.org/2000/svg" width="16" height="16" viewBox="0 0 2048 2048">
  <g transform="translate(0, 2048) scale(1, -1)">
    <path fill="#ffffff" d="M1792 1600Q1792 1627 1802.0 1650.0Q1812 1673 1829.5 1690.5Q1847 1708 1870.0 1718.0Q1893 1728 1920 1728Q1946 1728 1969.5 1718.0Q1993 1708 2010.5 1690.5Q2028 1673 2038.0 1649.5Q2048 1626 2048 1600Q2048 1573 2038.0 1550.0Q2028 1527 2010.5 1509.5Q1993 1492 1970.0 1482.0Q1947 1472 1920 1472Q1893 1472 1869.5 1482.0Q1846 1492 1829.0 1509.0Q1812 1526 1802.0 1549.5Q1792 1573 1792 1600ZM64 1536Q38 1536 19.0 1555.0Q0 1574 0 1600Q0 1626 19.0 1645.0Q38 1664 64 1664H1472Q1498 1664 1517.0 1645.0Q1536 1626 1536 1600Q1536 1574 1517.0 1555.0Q1498 1536 1472 1536ZM1792 1088Q1792 1115 1802.0 1138.0Q1812 1161 1829.5 1178.5Q1847 1196 1870.0 1206.0Q1893 1216 1920 1216Q1946 1216 1969.5 1206.0Q1993 1196 2010.5 1178.5Q2028 1161 2038.0 1137.5Q2048 1114 2048 1088Q2048 1061 2038.0 1038.0Q2028 1015 2010.5 997.5Q1993 980 1970.0 970.0Q1947 960 1920 960Q1893 960 1869.5 970.0Q1846 980 1829.0 997.0Q1812 1014 1802.0 1037.5Q1792 1061 1792 1088ZM64 1024Q38 1024 19.0 1043.0Q0 1062 0 1088Q0 1114 19.0 1133.0Q38 1152 64 1152H1472Q1498 1152 1517.0 1133.0Q1536 1114 1536 1088Q1536 1062 1517.0 1043.0Q1498 1024 1472 1024ZM1280 576Q1280 603 1290.0 626.0Q1300 649 1317.5 666.5Q1335 684 1358.0 694.0Q1381 704 1408 704Q1434 704 1457.5 694.0Q1481 684 1498.5 666.5Q1516 649 1526.0 625.5Q1536 602 1536 576Q1536 549 1526.0 526.0Q1516 503 1498.5 485.5Q1481 468 1458.0 458.0Q1435 448 1408 448Q1381 448 1357.5 458.0Q1334 468 1317.0 485.0Q1300 502 1290.0 525.5Q1280 549 1280 576ZM64 512Q38 512 19.0 531.0Q0 550 0 576Q0 602 19.0 621.0Q38 640 64 640H960Q986 640 1005.0 621.0Q1024 602 1024 576Q1024 550 1005.0 531.0Q986 512 960 512Z"/>
  </g>
</svg>