<?xml version="1.0" encoding="utf-8"?>
<svg xmlns="http://www.w3.org/2000/svg" width="16" height="16" viewBox="0 0 2048 2048">
  <g transform="translate(0, 2048) scale(1, -1)">
    <path fill="#000000" d="M0 1600Q0 1627 10.0 1650.0Q20 1673 37.5 1690.5Q55 1708 78.0 1718.0Q101 1728 128 1728Q154 1728 177.5 1718.0Q201 1708 218.5 1690.5Q236 1673 246.0 1649.5Q256 1626 256 1600Q256 1573 246.0 1550.0Q236 1527 218.5 1509.5Q201 1492 178.0 1482.0Q155 1472 128 1472Q101 1472 77.5 1482.0Q54 1492 37.0 1509.0Q20 1526 10.0 1549.5Q0 1573 0 1600ZM576 1536Q550 1536 531.0 1555.0Q512 1574 512 1600Q512 1626 531.0 1645.0Q550 1664 576 1664H1984Q2010 1664 2029.0 1645.0Q2048 1626 2048 1600Q2048 1574 2029.0 1555.0Q2010 1536 1984 1536ZM0 1088Q0 1115 10.0 1138.0Q20 1161 37.5 1178.5Q55 1196 78.0 1206.0Q101 1216 128 1216Q154 1216 177.5 1206.0Q201 1196 218.5 1178.5Q236 1161 246.0 1137.5Q256 1114 256 1088Q256 1061 246.0 1038.0Q236 1015 218.5 997.5Q201 980 178.0 970.0Q155 960 128 960Q101 960 77.5 970.0Q54 980 37.0 997.0Q20 1014 10.0 1037.5Q0 1061 0 1088ZM576 1024Q550 1024 531.0 1043.0Q512 1062 512 1088Q512 1114 531.0 1133.0Q550 1152 576 1152H1984Q2010 1152 2029.0 1133.0Q2048 1114 2048 1088Q2048 1062 2029.0 1043.0Q2010 1024 1984 1024ZM512 576Q512 603 522.0 626.0Q532 649 549.5 666.5Q567 684 590.0 694.0Q613 704 640 704Q666 704 689.5 694.0Q713 684 730.5 666.5Q748 649 758.0 625.5Q768 602 768 576Q768 549 758.0 526.0Q748 503 730.5 485.5Q713 468 690.0 458.0Q667 448 640 448Q613 448 589.5 458.0Q566 468 549.0 485.0Q532 502 522.0 525.5Q512 549 512 576ZM1088 512Q1062 512 1043.0 531.0Q1024 550 1024 576Q1024 602 1043.0 621.0Q1062 640 1088 640H1984Q2010 640 2029.0 621.0Q2048 602 2048 576Q2048 550 2029.0 531.0Q2010 512 1984 512Z"/>
  </g>
</svg>