<?xml version="1.0" encoding="utf-8"?>
<svg id="" width="17" height="17" style="width:17px;height:17px;" version="1.1"
    xmlns="http://www.w3.org/2000/svg" viewBox="0 0 2048 2048" enable-background="new 0 0 2048 2048"
    xml:space="preserve"><path fill="#000000" d="M960 192 l0 -128 q0 -26 19 -45 q19 -19 45 -19 q26 0 45 19 q19 19 19 45 l0 128 q0 26 -19 45 q-19 19 -45 19 q-26 0 -45 -19 q-19 -19 -19 -45 ZM256 320 q0 -26 19 -45 q19 -19 45 -19 q26 0 45 19 l128 128 q19 19 19 45 q0 26 -19 45 q-19 19 -45 19 q-26 0 -45 -19 l-128 -128 q-19 -19 -19 -45 ZM1536 448 q0 -26 19 -45 l128 -128 q19 -19 45 -19 q26 0 45 19 q19 19 19 45 q0 26 -19 45 l-128 128 q-19 19 -45 19 q-26 0 -45 -19 q-19 -19 -19 -45 ZM512 1024 l0 -10 q0 -104 41.5 -195.5 q41.5 -91.5 112 -159.5 q70.5 -68 163 -107.5 q92.5 -39.5 195.5 -39.5 q106 0 199.5 40 q93.5 40 163 109.5 q69.5 69.5 109.5 163 q40 93.5 40 199.5 q0 106 -40 199.5 q-40 93.5 -109.5 163 q-69.5 69.5 -163 109.5 q-93.5 40 -199.5 40 q-106 0 -199.5 -40 q-93.5 -40 -163 -109.5 q-69.5 -69.5 -109.5 -163 q-40 -93.5 -40 -199.5 ZM1408 1024 l0 -8 q0 -78 -31 -146.5 q-31 -68.5 -84 -119.5 q-53 -51 -122.5 -80.5 q-69.5 -29.5 -146.5 -29.5 q-80 0 -150 30 q-70 30 -122 82 q-52 52 -82 122 q-30 70 -30 150 q0 80 30 150 q30 70 82 122 q52 52 122 82 q70 30 150 30 q80 0 150 -30 q70 -30 122 -82 q52 -52 82 -122 q30 -70 30 -150 ZM64 1088 q-26 0 -45 -19 q-19 -19 -19 -45 q0 -26 19 -45 q19 -19 45 -19 l128 0 q26 0 45 19 q19 19 19 45 q0 26 -19 45 q-19 19 -45 19 l-128 0 ZM1856 1088 q-26 0 -45 -19 q-19 -19 -19 -45 q0 -26 19 -45 q19 -19 45 -19 l128 0 q26 0 45 19 q19 19 19 45 q0 26 -19 45 q-19 19 -45 19 l-128 0 ZM256 1728 q0 -26 19 -45 l128 -128 q19 -19 45 -19 q26 0 45 19 q19 19 19 45 q0 26 -19 45 l-128 128 q-19 19 -45 19 q-26 0 -45 -19 q-19 -19 -19 -45 ZM1536 1600 q0 -26 19 -45 q19 -19 45 -19 q26 0 45 19 l128 128 q19 19 19 45 q0 26 -19 45 q-19 19 -45 19 q-26 0 -45 -19 l-128 -128 q-19 -19 -19 -45 ZM960 1984 l0 -128 q0 -26 19 -45 q19 -19 45 -19 q26 0 45 19 q19 19 19 45 l0 128 q0 26 -19 45 q-19 19 -45 19 q-26 0 -45 -19 q-19 -19 -19 -45 Z"/></svg>