<?xml version="1.0" encoding="utf-8"?>
<svg id="" width="16" height="16" style="width:16px;height:16px;" version="1.1" xmlns="http://www.w3.org/2000/svg" viewBox="0 0 2048 2048" enable-background="new 0 0 2048 2048" xml:space="preserve">
    <path fill="#ffffff" d="M2048 64 q0 26 -19 45 l-674 674 q57 72 87 158.5 q30 86.5 30 178.5 q0 72 -18 139.5 q-18 67.5 -52 127.5 q-34 60 -82.5 110.5 q-48.5 50.5 -109.5 87.5 l-259 432 q-9 14 -23 22.5 q-14 8.5 -31 8.5 q-27 0 -46 -19 l-832 -832 q-19 -19 -19 -46 q0 -17 8.5 -31 q8.5 -14 22.5 -23 l432 -259 q37 -61 87.5 -109.5 q50.5 -48.5 110.5 -82.5 q60 -34 127.5 -52 q67.5 -18 139.5 -18 q92 0 178.5 30 q86.5 30 158.5 87 l674 -674 q19 -19 45 -19 q26 0 45 19 q19 19 19 45 ZM1167 1461 q88 -62 132.5 -152.5 q44.5 -90.5 44.5 -196.5 q0 -82 -33 -156 q-33 -74 -89 -130 q-56 -56 -130 -89 q-74 -33 -156 -33 q-106 0 -196.5 44.5 q-90.5 44.5 -152.5 132.5 l580 580 ZM167 1165 l716 716 l197 -328 l-585 -585 l-328 197 Z"/>
</svg>