<?xml version="1.0" encoding="utf-8"?>
<svg xmlns="http://www.w3.org/2000/svg" width="16" height="16" viewBox="0 0 2048 2048">
  <g transform="translate(0, 2048) scale(1, -1)">
    <path fill="#000000" d="M256 1281Q222 1270 190.0 1255.5Q158 1241 128 1221V1544Q128 1619 158.5 1687.5Q189 1756 240.5 1807.5Q292 1859 360.5 1889.5Q429 1920 504 1920H1288Q1363 1920 1431.5 1889.5Q1500 1859 1551.5 1807.5Q1603 1756 1633.5 1687.5Q1664 1619 1664 1544V760Q1664 685 1633.5 616.5Q1603 548 1551.5 496.5Q1500 445 1431.5 414.5Q1363 384 1288 384H1085L1006 463L1025 512H1280Q1351 512 1410 547L1001 956Q978 1007 946.5 1052.0Q915 1097 876 1136Q879 1136 881 1136L890 1137Q893 1137 895 1137Q946 1137 993.5 1117.0Q1041 1097 1077 1061L1501 638Q1536 697 1536 768V1541Q1536 1591 1515.5 1636.5Q1495 1682 1460.5 1716.5Q1426 1751 1380.5 1771.5Q1335 1792 1285 1792H507Q455 1792 409.5 1771.0Q364 1750 330.0 1715.0Q296 1680 276.0 1633.5Q256 1587 256 1536ZM1216 1344Q1189 1344 1165.5 1354.0Q1142 1364 1125.0 1381.0Q1108 1398 1098.0 1421.5Q1088 1445 1088 1472Q1088 1499 1098.0 1522.0Q1108 1545 1125.5 1562.5Q1143 1580 1166.0 1590.0Q1189 1600 1216 1600Q1242 1600 1265.5 1590.0Q1289 1580 1306.5 1562.5Q1324 1545 1334.0 1521.5Q1344 1498 1344 1472Q1344 1445 1334.0 1422.0Q1324 1399 1306.5 1381.5Q1289 1364 1266.0 1354.0Q1243 1344 1216 1344ZM1792 1566Q1854 1512 1887.0 1437.0Q1920 1362 1920 1280V704Q1920 627 1900.0 554.0Q1880 481 1842.5 416.5Q1805 352 1752.0 298.0Q1699 244 1632 205Q1591 182 1552.0 167.0Q1513 152 1473.0 143.5Q1433 135 1391.0 131.5Q1349 128 1303 128Q1289 171 1266.5 198.0Q1244 225 1213 256H1351Q1442 256 1522.5 292.0Q1603 328 1663.0 389.5Q1723 451 1757.5 532.0Q1792 613 1792 704ZM1152 64Q1152 38 1133.0 19.0Q1114 0 1088 0Q1062 0 1043 19L716 346Q655 299 585.5 277.5Q516 256 440 256Q350 256 270.0 292.5Q190 329 130.0 390.5Q70 452 35.0 533.0Q0 614 0 704Q0 796 35.5 877.5Q71 959 132.0 1020.0Q193 1081 274.5 1116.5Q356 1152 448 1152Q538 1152 619.0 1117.0Q700 1082 761.5 1022.0Q823 962 859.5 882.0Q896 802 896 712Q896 636 874.5 566.5Q853 497 806 436L1133 109Q1152 90 1152 64ZM455 384Q520 384 577.0 410.0Q634 436 676.5 480.0Q719 524 743.5 582.0Q768 640 768 704Q768 771 743.0 829.0Q718 887 674.5 930.5Q631 974 573.0 999.0Q515 1024 448 1024Q381 1024 323.0 999.0Q265 974 221.5 930.5Q178 887 153.0 829.0Q128 771 128 704Q128 635 153.5 576.5Q179 518 223.5 475.0Q268 432 327.5 408.0Q387 384 455 384Z"/>
  </g>
</svg>