<?xml version="1.0" encoding="utf-8"?>
<svg xmlns="http://www.w3.org/2000/svg" height="16" width="16" viewBox="0 0 16 16">
  <g>
    <path id="path1" transform="rotate(0,8,8) translate(0,0) scale(0.03125,0.03125)  " fill="#000000" d="M128,256L128,288 128.578125,294.484375 130.3125,300.4375 133.203125,305.859375 137.25,310.75 142.140625,314.796875 147.5625,317.6875 153.515625,319.421875 160,320 208,320 211.140609741211,320.296875 214.062484741211,321.1875 216.765609741211,322.671875 219.25,324.75 221.328125,327.234375 222.8125,329.9375 223.703125,332.859375 224,336 224,448 224.625,454.53125 226.5,460.625 229.4375,466.09375 233.25,470.75 237.90625,474.5625 243.375,477.5 249.46875,479.375 256,480 262.5,479.375 268.5,477.5 273.90625,474.53125 278.625,470.625 282.53125,465.90625 285.5,460.5 287.375,454.5 288,448 288,336 288.4453125,331.328125 289.78125,327.5625 292.0078125,324.703125 295.125,322.75 298.9140625,321.4375 303.15625,320.5 307.8515625,319.9375 313,319.75 326.5,320.125 340.75,320.5 350.28125,320.0625 359.375,318.75 363.6484375,317.59375 367.59375,315.875 371.2109375,313.59375 374.5,310.75 378.65625,305.765625 381.625,300.3125 383.40625,294.390625 384,288 384,256 128,256z M128,32L128,224 384,224 384,32 352,32 352,112 351.703125,115.140632629395 350.8125,118.062507629395 349.328125,120.765632629395 347.25,123.25 344.765625,125.328132629395 342.0625,126.812507629395 339.140625,127.703125 336,128 332.859375,127.703125 329.9375,126.812507629395 327.234375,125.328132629395 324.75,123.25 322.671875,120.765632629395 321.1875,118.062507629395 320.296875,115.140632629395 320,112 320,32 288,32 288,80 287.703125,83.1406326293945 286.8125,86.0625076293945 285.328125,88.7656326293945 283.25,91.25 280.765625,93.3281326293945 278.0625,94.8125076293945 275.140625,95.703125 272,96 268.859375,95.703125 265.9375,94.8125076293945 263.234375,93.3281326293945 260.75,91.25 258.671875,88.7656326293945 257.1875,86.0625076293945 256.296875,83.1406326293945 256,80 256,32 128,32z M112,0L400,0 403.140625,0.296876430511475 406.0625,1.18750381469727 408.765625,2.67187929153442 411.25,4.75 413.328125,7.2343864440918 414.8125,9.93751525878906 415.703125,12.8593864440918 416,16 416,289.25 415.6796875,295.53125 414.71875,301.625 413.1171875,307.53125 410.875,313.25 408.09375,318.7109375 404.874969482422,323.84375 401.218719482422,328.6484375 397.125,333.125 392.640594482422,337.2109375 387.812469482422,340.84375 382.640625,344.0234375 377.125,346.75 371.3671875,348.953125 365.46875,350.5625 359.4296875,351.578125 353.25,352 347.75,352.125 342.25,352.25 331,352.125 320,352 320,449.25 319.671875,455.6484375 318.6875,461.84375 317.046875,467.8359375 314.75,473.625 311.90625,479.1328125 308.625,484.28125 304.90625,489.0703125 300.75,493.5 296.1953125,497.53125 291.28125,501.125 286.0078125,504.28125 280.375,507 274.4921875,509.1875 268.46875,510.75 262.3046875,511.6875 256,512 249.4765625,511.6796875 243.15625,510.71875 237.0390625,509.1171875 231.125,506.875 225.5,504.09375 220.25,500.875 215.375,497.21875 210.875,493.125 206.78125,488.625 203.125,483.75 199.90625,478.5 197.125,472.875 194.8828125,466.9609375 193.28125,460.84375 192.3203125,454.5234375 192,448 192,352 158.75,352 152.5703125,351.6796875 146.53125,350.71875 140.6328125,349.1171875 134.875,346.875 129.359375,344.09375 124.1875,340.875 119.359375,337.21875 114.875,333.125 110.78125,328.640625 107.125,323.8125 103.90625,318.640625 101.125,313.125 98.8828125,307.3671875 97.28125,301.46875 96.3203125,295.4296875 96,289.25 96,16 96.296875,12.8593864440918 97.1875,9.93751525878906 98.671875,7.2343864440918 100.75,4.75 103.234375,2.67187929153442 105.9375,1.18750381469727 108.859375,0.296876430511475 112,0z" />
  </g>
</svg>
