<?xml version="1.0" encoding="utf-8"?>
<svg xmlns="http://www.w3.org/2000/svg" width="16" height="16" viewBox="0 0 2048 2048">
  <g transform="translate(0, 2048) scale(1, -1)">
    <path fill="#000000" d="M1984 1408Q1745 1408 1519.5 1459.0Q1294 1510 1075 1603Q977 1645 877.5 1676.5Q778 1708 674 1730Q521 1762 371.0 1777.0Q221 1792 64 1792H47Q30 1792 15.0 1797.0Q0 1802 0 1824Q0 1846 15.0 1851.0Q30 1856 47 1856H64Q225 1856 378.5 1840.5Q532 1825 689 1792Q796 1769 898.0 1736.0Q1000 1703 1101 1661Q1315 1571 1533.5 1521.5Q1752 1472 1984 1472H2004Q2020 1472 2034.0 1467.0Q2048 1462 2048 1440Q2048 1418 2033.0 1413.0Q2018 1408 2001 1408ZM0 1472Q0 1498 19.0 1517.0Q38 1536 64 1536Q226 1536 382.5 1520.0Q539 1504 697 1471Q805 1448 908.0 1415.0Q1011 1382 1113 1339Q1324 1250 1539.5 1201.0Q1755 1152 1984 1152Q2010 1152 2029.0 1133.0Q2048 1114 2048 1088Q2048 1062 2029.0 1043.0Q2010 1024 1984 1024Q1742 1024 1514.0 1075.5Q1286 1127 1063 1221Q888 1296 703.5 1340.0Q519 1384 329 1398Q263 1403 196.5 1405.5Q130 1408 64 1408Q38 1408 19.0 1427.0Q0 1446 0 1472ZM0 1056Q0 1081 9.0 1099.0Q18 1117 33.5 1129.0Q49 1141 69.0 1146.5Q89 1152 111 1152Q374 1152 629.0 1103.0Q884 1054 1126 952Q1273 890 1425.0 846.5Q1577 803 1735 783Q1787 776 1838.5 774.5Q1890 773 1942 768Q1961 766 1979.5 759.0Q1998 752 2011.5 740.0Q2025 728 2033.5 710.5Q2042 693 2042 672Q2042 653 2035.5 635.5Q2029 618 2017.0 605.0Q2005 592 1988.5 584.0Q1972 576 1952 576Q1836 576 1720.5 590.5Q1605 605 1491.5 631.5Q1378 658 1267.0 694.5Q1156 731 1050 776Q827 870 589.5 915.0Q352 960 110 960Q88 960 68.0 966.0Q48 972 33.0 984.0Q18 996 9.0 1014.0Q0 1032 0 1056ZM0 639Q0 666 10.0 690.0Q20 714 37.5 731.0Q55 748 79.0 758.0Q103 768 130 768Q390 768 644.5 717.0Q899 666 1138 566Q1277 508 1419.5 465.5Q1562 423 1711 402Q1744 397 1777.5 393.5Q1811 390 1844 388Q1864 387 1883.5 387.0Q1903 387 1923 385Q1949 382 1971.5 372.5Q1994 363 2011.0 346.5Q2028 330 2038.0 307.5Q2048 285 2048 258Q2048 230 2038.0 206.5Q2028 183 2010.0 165.5Q1992 148 1968.0 138.5Q1944 129 1917 129Q1809 129 1695.0 145.0Q1581 161 1468.5 188.0Q1356 215 1246.5 251.5Q1137 288 1038 330Q879 397 715.0 438.5Q551 480 380 498Q341 502 301.5 504.5Q262 507 223 509Q205 511 187 511L162 510Q144 511 126 512Q100 514 77.0 524.0Q54 534 37.0 550.5Q20 567 10.0 589.5Q0 612 0 639Z"/>
  </g>
</svg>