<?xml version="1.0" encoding="utf-8"?>
<svg xmlns="http://www.w3.org/2000/svg" width="16" height="16" viewBox="0 0 2048 2048">
  <g transform="translate(0, 2048) scale(1, -1)">
    <path fill="#000000" d="M128 192V455Q128 519 153.5 575.5Q179 632 221.5 674.5Q264 717 321.0 742.0Q378 767 441 768H512V960H64Q38 960 19.0 979.0Q0 998 0 1024Q0 1050 19.0 1069.0Q38 1088 64 1088H512V1280H441Q378 1280 321.0 1305.5Q264 1331 221.5 1373.5Q179 1416 153.5 1473.0Q128 1530 128 1593V1856Q128 1882 147.0 1901.0Q166 1920 192 1920Q218 1920 237.0 1901.0Q256 1882 256 1856V1600Q256 1561 271.0 1526.0Q286 1491 312.5 1464.5Q339 1438 374.0 1423.0Q409 1408 448 1408H512V1414Q512 1478 534.5 1538.5Q557 1599 597.0 1648.5Q637 1698 691.0 1733.0Q745 1768 808 1782Q780 1826 774.0 1864.5Q768 1903 768 1949V1984Q768 2010 787.0 2029.0Q806 2048 832 2048Q858 2048 877.0 2029.0Q896 2010 896 1984Q896 1972 895.5 1961.0Q895 1950 895 1939Q895 1909 901.5 1881.5Q908 1854 933 1829Q970 1792 1024 1792Q1077 1792 1114 1829Q1140 1855 1146.0 1882.0Q1152 1909 1152 1939V1984Q1152 2010 1171.0 2029.0Q1190 2048 1216 2048Q1238 2048 1250.5 2039.5Q1263 2031 1269.5 2017.5Q1276 2004 1278.0 1987.5Q1280 1971 1280 1954V1920Q1280 1845 1240 1782Q1303 1768 1357.0 1733.0Q1411 1698 1451.0 1648.5Q1491 1599 1513.5 1538.5Q1536 1478 1536 1414V1408H1600Q1639 1408 1674.0 1423.0Q1709 1438 1735.5 1464.5Q1762 1491 1777.0 1526.0Q1792 1561 1792 1600V1856Q1792 1882 1811.0 1901.0Q1830 1920 1856 1920Q1882 1920 1901.0 1901.0Q1920 1882 1920 1856V1593Q1920 1529 1894.5 1472.5Q1869 1416 1826.5 1373.5Q1784 1331 1727.0 1306.0Q1670 1281 1607 1280H1536V1088H1984Q2010 1088 2029.0 1069.0Q2048 1050 2048 1024Q2048 998 2029.0 979.0Q2010 960 1984 960H1536V768H1607Q1670 768 1727.0 742.5Q1784 717 1826.5 674.5Q1869 632 1894.5 575.0Q1920 518 1920 455V192Q1920 166 1901.0 147.0Q1882 128 1856 128Q1830 128 1811.0 147.0Q1792 166 1792 192V448Q1792 487 1777.0 522.0Q1762 557 1735.5 583.5Q1709 610 1674.0 625.0Q1639 640 1600 640H1536V630Q1536 526 1494.5 434.5Q1453 343 1382.5 275.0Q1312 207 1219.5 167.5Q1127 128 1024 128Q921 128 828.5 167.5Q736 207 665.5 275.0Q595 343 553.5 434.5Q512 526 512 630V640H448Q409 640 374.0 625.0Q339 610 312.5 583.5Q286 557 271.0 522.0Q256 487 256 448V192Q256 166 237.0 147.0Q218 128 192 128Q166 128 147.0 147.0Q128 166 128 192ZM1408 1413Q1408 1463 1387.5 1508.5Q1367 1554 1332.5 1588.5Q1298 1623 1252.5 1643.5Q1207 1664 1157 1664H891Q841 1664 795.5 1643.5Q750 1623 715.5 1588.5Q681 1554 660.5 1508.5Q640 1463 640 1413V632Q640 554 671.0 485.5Q702 417 755.0 366.0Q808 315 877.5 285.5Q947 256 1024 256Q1101 256 1170.5 285.5Q1240 315 1293.0 366.0Q1346 417 1377.0 485.5Q1408 554 1408 632Z"/>
  </g>
</svg>