<?xml version="1.0" encoding="utf-8"?>
<svg xmlns="http://www.w3.org/2000/svg" width="16" height="16" viewBox="0 0 2048 2048">
  <g transform="translate(0, 2048) scale(1, -1)">
    <path fill="#ffffff" d="M1186 0H512Q485 0 461.5 10.0Q438 20 421.0 37.0Q404 54 394.0 77.5Q384 101 384 128V1856Q384 1895 399.0 1930.0Q414 1965 440.5 1991.5Q467 2018 502.0 2033.0Q537 2048 576 2048H1344Q1383 2048 1418.0 2033.0Q1453 2018 1479.5 1991.5Q1506 1965 1521.0 1930.0Q1536 1895 1536 1856V1408Q1509 1408 1486.0 1398.0Q1463 1388 1445.5 1370.5Q1428 1353 1418.0 1330.0Q1408 1307 1408 1280V1856Q1408 1882 1389.0 1901.0Q1370 1920 1344 1920H576Q550 1920 531.0 1901.0Q512 1882 512 1856V128H768V384Q768 411 778.0 434.0Q788 457 805.5 474.5Q823 492 846.0 502.0Q869 512 896 512H1024Q1050 512 1073.0 502.0Q1096 492 1114 474Q1152 436 1152 384V128Q1152 58 1186 0ZM832 1568Q832 1528 804.0 1500.0Q776 1472 736 1472Q696 1472 668.0 1500.0Q640 1528 640 1568Q640 1608 668.0 1636.0Q696 1664 736 1664Q776 1664 804.0 1636.0Q832 1608 832 1568ZM1216 1568Q1216 1528 1188.0 1500.0Q1160 1472 1120 1472Q1080 1472 1052.0 1500.0Q1024 1528 1024 1568Q1024 1608 1052.0 1636.0Q1080 1664 1120 1664Q1160 1664 1188.0 1636.0Q1216 1608 1216 1568ZM832 1184Q832 1144 804.0 1116.0Q776 1088 736 1088Q696 1088 668.0 1116.0Q640 1144 640 1184Q640 1224 668.0 1252.0Q696 1280 736 1280Q776 1280 804.0 1252.0Q832 1224 832 1184ZM1216 1184Q1216 1144 1188.0 1116.0Q1160 1088 1120 1088Q1080 1088 1052.0 1116.0Q1024 1144 1024 1184Q1024 1224 1052.0 1252.0Q1080 1280 1120 1280Q1160 1280 1188.0 1252.0Q1216 1224 1216 1184ZM2048 960V192Q2048 153 2033.0 118.0Q2018 83 1991.5 56.5Q1965 30 1930.0 15.0Q1895 0 1856 0H1472Q1433 0 1398.0 15.0Q1363 30 1336.5 56.5Q1310 83 1295.0 118.0Q1280 153 1280 192V960Q1280 999 1295.0 1034.0Q1310 1069 1336.5 1095.5Q1363 1122 1398.0 1137.0Q1433 1152 1472 1152H1536Q1536 1160 1535.5 1168.5Q1535 1177 1535 1186Q1535 1203 1537.0 1219.5Q1539 1236 1545.5 1249.5Q1552 1263 1565.0 1271.5Q1578 1280 1600 1280H1728Q1750 1280 1762.5 1271.5Q1775 1263 1781.5 1249.5Q1788 1236 1790.0 1219.5Q1792 1203 1792 1186V1152H1856Q1895 1152 1930.0 1137.0Q1965 1122 1991.5 1095.5Q2018 1069 2033.0 1034.0Q2048 999 2048 960ZM832 800Q832 760 804.0 732.0Q776 704 736 704Q696 704 668.0 732.0Q640 760 640 800Q640 840 668.0 868.0Q696 896 736 896Q776 896 804.0 868.0Q832 840 832 800ZM1216 800Q1216 760 1188.0 732.0Q1160 704 1120 704Q1080 704 1052.0 732.0Q1024 760 1024 800Q1024 840 1052.0 868.0Q1080 896 1120 896Q1160 896 1188.0 868.0Q1216 840 1216 800ZM896 384V128H1024V384Z"/>
  </g>
</svg>