<?xml version="1.0" encoding="utf-8"?>
<svg xmlns="http://www.w3.org/2000/svg" width="16" height="16" viewBox="0 0 2048 2048">
  <g transform="translate(0, 2048) scale(1, -1)">
    <path fill="#000000" d="M256 1536Q229 1536 205.5 1546.0Q182 1556 165.0 1573.0Q148 1590 138.0 1613.5Q128 1637 128 1664V1792Q128 1819 138.0 1842.0Q148 1865 165.5 1882.5Q183 1900 206.0 1910.0Q229 1920 256 1920H384Q410 1920 433.5 1910.0Q457 1900 474.5 1882.5Q492 1865 502.0 1841.5Q512 1818 512 1792V1664Q512 1637 502.0 1614.0Q492 1591 474.5 1573.5Q457 1556 434.0 1546.0Q411 1536 384 1536ZM256 1792V1664H384V1792ZM704 1664Q678 1664 659.0 1683.0Q640 1702 640 1728Q640 1754 659.0 1773.0Q678 1792 704 1792H1856Q1882 1792 1901.0 1773.0Q1920 1754 1920 1728Q1920 1702 1901.0 1683.0Q1882 1664 1856 1664ZM256 896Q229 896 205.5 906.0Q182 916 165.0 933.0Q148 950 138.0 973.5Q128 997 128 1024V1152Q128 1179 138.0 1202.0Q148 1225 165.5 1242.5Q183 1260 206.0 1270.0Q229 1280 256 1280H384Q410 1280 433.5 1270.0Q457 1260 474.5 1242.5Q492 1225 502.0 1201.5Q512 1178 512 1152V1024Q512 997 502.0 974.0Q492 951 474.5 933.5Q457 916 434.0 906.0Q411 896 384 896ZM256 1152V1024H384V1152ZM704 1024Q678 1024 659.0 1043.0Q640 1062 640 1088Q640 1114 659.0 1133.0Q678 1152 704 1152H1856Q1882 1152 1901.0 1133.0Q1920 1114 1920 1088Q1920 1062 1901.0 1043.0Q1882 1024 1856 1024ZM256 256Q229 256 205.5 266.0Q182 276 165.0 293.0Q148 310 138.0 333.5Q128 357 128 384V512Q128 539 138.0 562.0Q148 585 165.5 602.5Q183 620 206.0 630.0Q229 640 256 640H384Q410 640 433.5 630.0Q457 620 474.5 602.5Q492 585 502.0 561.5Q512 538 512 512V384Q512 357 502.0 334.0Q492 311 474.5 293.5Q457 276 434.0 266.0Q411 256 384 256ZM256 512V384H384V512ZM704 384Q678 384 659.0 403.0Q640 422 640 448Q640 474 659.0 493.0Q678 512 704 512H1856Q1882 512 1901.0 493.0Q1920 474 1920 448Q1920 422 1901.0 403.0Q1882 384 1856 384Z"/>
  </g>
</svg>