<?xml version="1.0" encoding="utf-8"?>
<svg xmlns="http://www.w3.org/2000/svg" width="16" height="16" viewBox="0 0 2048 2048">
  <g transform="translate(0, 2048) scale(1, -1)">
    <path fill="#ffffff" d="M1664 1536Q1637 1536 1613.5 1546.0Q1590 1556 1573.0 1573.0Q1556 1590 1546.0 1613.5Q1536 1637 1536 1664V1792Q1536 1819 1546.0 1842.0Q1556 1865 1573.5 1882.5Q1591 1900 1614.0 1910.0Q1637 1920 1664 1920H1792Q1818 1920 1841.5 1910.0Q1865 1900 1882.5 1882.5Q1900 1865 1910.0 1841.5Q1920 1818 1920 1792V1664Q1920 1637 1910.0 1614.0Q1900 1591 1882.5 1573.5Q1865 1556 1842.0 1546.0Q1819 1536 1792 1536ZM192 1664Q166 1664 147.0 1683.0Q128 1702 128 1728Q128 1754 147.0 1773.0Q166 1792 192 1792H1344Q1370 1792 1389.0 1773.0Q1408 1754 1408 1728Q1408 1702 1389.0 1683.0Q1370 1664 1344 1664ZM1664 1792V1664H1792V1792ZM1664 896Q1637 896 1613.5 906.0Q1590 916 1573.0 933.0Q1556 950 1546.0 973.5Q1536 997 1536 1024V1152Q1536 1179 1546.0 1202.0Q1556 1225 1573.5 1242.5Q1591 1260 1614.0 1270.0Q1637 1280 1664 1280H1792Q1818 1280 1841.5 1270.0Q1865 1260 1882.5 1242.5Q1900 1225 1910.0 1201.5Q1920 1178 1920 1152V1024Q1920 997 1910.0 974.0Q1900 951 1882.5 933.5Q1865 916 1842.0 906.0Q1819 896 1792 896ZM192 1024Q166 1024 147.0 1043.0Q128 1062 128 1088Q128 1114 147.0 1133.0Q166 1152 192 1152H1344Q1370 1152 1389.0 1133.0Q1408 1114 1408 1088Q1408 1062 1389.0 1043.0Q1370 1024 1344 1024ZM1664 1152V1024H1792V1152ZM1664 256Q1637 256 1613.5 266.0Q1590 276 1573.0 293.0Q1556 310 1546.0 333.5Q1536 357 1536 384V512Q1536 539 1546.0 562.0Q1556 585 1573.5 602.5Q1591 620 1614.0 630.0Q1637 640 1664 640H1792Q1818 640 1841.5 630.0Q1865 620 1882.5 602.5Q1900 585 1910.0 561.5Q1920 538 1920 512V384Q1920 357 1910.0 334.0Q1900 311 1882.5 293.5Q1865 276 1842.0 266.0Q1819 256 1792 256ZM192 384Q166 384 147.0 403.0Q128 422 128 448Q128 474 147.0 493.0Q166 512 192 512H1344Q1370 512 1389.0 493.0Q1408 474 1408 448Q1408 422 1389.0 403.0Q1370 384 1344 384ZM1664 512V384H1792V512Z"/>
  </g>
</svg>