<?xml version="1.0" encoding="utf-8"?>
<svg xmlns="http://www.w3.org/2000/svg" width="16" height="16" viewBox="0 0 2048 2048">
  <g transform="translate(0, 2048) scale(1, -1)">
    <path fill="#ffffff" d="M1107 1197 1408 1498V1675Q1408 1713 1422.5 1748.5Q1437 1784 1464 1811L1683 2029Q1702 2048 1728 2048Q1754 2048 1773.0 2029.0Q1792 2010 1792 1984V1792H1984Q2010 1792 2029.0 1773.0Q2048 1754 2048 1728Q2048 1702 2029 1683L1811 1464Q1784 1437 1748.5 1422.5Q1713 1408 1675 1408H1498L1197 1107Q1216 1069 1216 1024Q1216 985 1201.0 950.0Q1186 915 1159.5 888.5Q1133 862 1098.0 847.0Q1063 832 1024 832Q985 832 950.0 847.0Q915 862 888.5 888.5Q862 915 847.0 950.0Q832 985 832 1024Q832 1063 847.0 1098.0Q862 1133 888.5 1159.5Q915 1186 950.0 1201.0Q985 1216 1024 1216Q1069 1216 1107 1197ZM1976 1403Q2011 1312 2029.5 1217.0Q2048 1122 2048 1024Q2048 882 2011.5 751.0Q1975 620 1908.5 506.5Q1842 393 1748.5 299.5Q1655 206 1541.5 139.5Q1428 73 1297.0 36.5Q1166 0 1024 0Q882 0 751.0 36.5Q620 73 506.0 139.5Q392 206 299.0 299.0Q206 392 139.5 506.0Q73 620 36.5 751.0Q0 882 0 1024Q0 1166 36.5 1297.0Q73 1428 139.5 1541.5Q206 1655 299.5 1748.5Q393 1842 506.5 1908.5Q620 1975 751.0 2011.5Q882 2048 1024 2048Q1122 2048 1217.0 2029.5Q1312 2011 1403 1976Q1377 1952 1354.0 1927.0Q1331 1902 1309 1874Q1172 1920 1024 1920Q900 1920 785.5 1888.0Q671 1856 571.5 1797.5Q472 1739 390.5 1657.5Q309 1576 250.5 1476.5Q192 1377 160.0 1262.5Q128 1148 128 1024Q128 900 160.0 785.5Q192 671 250.5 571.5Q309 472 390.5 390.5Q472 309 571.5 250.5Q671 192 785.5 160.0Q900 128 1024 128Q1148 128 1262.5 160.0Q1377 192 1476.5 250.5Q1576 309 1657.5 390.5Q1739 472 1797.5 571.5Q1856 671 1888.0 785.5Q1920 900 1920 1024Q1920 1172 1874 1309Q1902 1331 1927.0 1354.0Q1952 1377 1976 1403ZM1536 1536H1675Q1701 1536 1720 1555L1829 1664H1789Q1744 1664 1719.0 1666.5Q1694 1669 1681.5 1681.5Q1669 1694 1666.5 1719.0Q1664 1744 1664 1789V1829L1555 1720Q1536 1701 1536 1675ZM512 1024V1014Q512 910 553.5 818.5Q595 727 665.5 659.0Q736 591 828.5 551.5Q921 512 1024 512Q1127 512 1219.5 551.5Q1312 591 1382.5 659.0Q1453 727 1494.5 818.5Q1536 910 1536 1014Q1536 1060 1529.5 1103.5Q1523 1147 1508 1191L1565 1248H1624Q1644 1194 1654.0 1137.5Q1664 1081 1664 1024Q1664 891 1614.0 774.5Q1564 658 1477.0 571.0Q1390 484 1273.5 434.0Q1157 384 1024 384Q891 384 774.5 434.0Q658 484 571.0 571.0Q484 658 434.0 774.5Q384 891 384 1024Q384 1157 434.0 1273.5Q484 1390 571.0 1477.0Q658 1564 774.5 1614.0Q891 1664 1024 1664Q1081 1664 1137.5 1654.0Q1194 1644 1248 1624V1565L1191 1508Q1147 1523 1103.5 1529.5Q1060 1536 1014 1536Q910 1536 818.5 1494.5Q727 1453 659.0 1382.5Q591 1312 551.5 1219.5Q512 1127 512 1024Z"/>
  </g>
</svg>