<?xml version="1.0" encoding="utf-8"?>
<svg xmlns="http://www.w3.org/2000/svg" width="16" height="16" viewBox="0 0 2048 2048">
  <g transform="translate(0, 2048) scale(1, -1)">
    <path fill="#000000" d="M262 384Q209 384 162.5 404.0Q116 424 81.0 458.5Q46 493 26.0 539.5Q6 586 6 639Q6 646 6.0 652.0Q6 658 7 664L50 1133Q54 1177 66.5 1219.5Q79 1262 99.5 1299.5Q120 1337 149.5 1369.0Q179 1401 218 1425Q329 1494 459.0 1539.5Q589 1585 725.5 1612.0Q862 1639 1000.5 1650.0Q1139 1661 1268 1661Q1340 1661 1410.5 1658.0Q1481 1655 1553 1648Q1607 1643 1653.5 1619.5Q1700 1596 1738 1558Q1799 1496 1854.0 1442.0Q1909 1388 1951.0 1329.0Q1993 1270 2017.5 1200.5Q2042 1131 2042 1039Q2042 948 2011 864L1913 595Q1896 547 1866.0 508.5Q1836 470 1796.5 442.0Q1757 414 1710.5 399.0Q1664 384 1613 384ZM1613 512Q1643 512 1671.0 521.0Q1699 530 1723.0 546.5Q1747 563 1765.0 586.5Q1783 610 1793 638L1891 908Q1914 971 1914 1039Q1914 1114 1885.5 1184.5Q1857 1255 1804 1309L1647 1468Q1601 1514 1540 1521Q1471 1529 1402.5 1531.0Q1334 1533 1265 1533Q1146 1533 1016.5 1523.5Q887 1514 758.5 1489.5Q630 1465 509.0 1423.0Q388 1381 285 1316Q235 1284 209.0 1231.5Q183 1179 178 1121L134 652V640Q134 613 144.0 590.0Q154 567 171.5 549.5Q189 532 212.0 522.0Q235 512 262 512ZM576 640Q550 640 531.0 659.0Q512 678 512 704V1216Q512 1242 531.0 1261.0Q550 1280 576 1280Q602 1280 621.0 1261.0Q640 1242 640 1216V768H832Q858 768 877.0 749.0Q896 730 896 704Q896 678 877.0 659.0Q858 640 832 640ZM1088 640Q1062 640 1043.0 659.0Q1024 678 1024 704V1216Q1024 1242 1043.0 1261.0Q1062 1280 1088 1280H1216Q1239 1280 1263.5 1277.5Q1288 1275 1311.5 1268.5Q1335 1262 1356.0 1249.5Q1377 1237 1392 1218Q1414 1189 1426.0 1156.5Q1438 1124 1438 1088Q1438 1059 1430.0 1030.5Q1422 1002 1404 978Q1439 949 1455.5 911.0Q1472 873 1472 828Q1472 773 1452.5 737.0Q1433 701 1400.5 679.5Q1368 658 1325.0 649.0Q1282 640 1235 640ZM1216 1024Q1232 1024 1248.5 1026.5Q1265 1029 1278.5 1036.5Q1292 1044 1301.0 1056.0Q1310 1068 1310 1088Q1310 1111 1303.0 1124.0Q1296 1137 1283.5 1143.0Q1271 1149 1253.5 1150.5Q1236 1152 1216 1152H1152V1024ZM1152 768H1246Q1263 768 1280.5 769.5Q1298 771 1312.0 777.0Q1326 783 1335.0 795.0Q1344 807 1344 828Q1344 855 1326.0 875.5Q1308 896 1280 896H1152Z"/>
  </g>
</svg>