<?xml version="1.0" encoding="utf-8"?>
<svg xmlns="http://www.w3.org/2000/svg" width="16" height="16" viewBox="0 0 2048 2048">
  <g transform="translate(0, 2048) scale(1, -1)">
    <path fill="#000000" d="M435 384Q384 384 337.5 399.0Q291 414 251.5 442.0Q212 470 182.0 508.5Q152 547 135 595L37 864Q6 948 6 1039Q6 1131 30.5 1200.5Q55 1270 97.0 1329.0Q139 1388 194.0 1442.0Q249 1496 310 1558Q348 1596 394.5 1619.5Q441 1643 495 1648Q567 1655 637.5 1658.0Q708 1661 780 1661Q909 1661 1047.5 1650.0Q1186 1639 1322.5 1612.0Q1459 1585 1589.0 1539.5Q1719 1494 1830 1425Q1869 1401 1898.5 1369.0Q1928 1337 1948.5 1299.5Q1969 1262 1981.5 1219.5Q1994 1177 1998 1133L2041 664Q2042 658 2042.0 652.0Q2042 646 2042 639Q2042 586 2022.0 539.5Q2002 493 1967.0 458.5Q1932 424 1885.5 404.0Q1839 384 1786 384ZM1786 512Q1813 512 1836.0 522.0Q1859 532 1876.5 549.5Q1894 567 1904.0 590.0Q1914 613 1914 640V652L1871 1121Q1866 1179 1839.5 1231.5Q1813 1284 1763 1316Q1661 1380 1539.5 1422.0Q1418 1464 1290.0 1489.0Q1162 1514 1032.0 1523.5Q902 1533 784 1533Q715 1533 646.0 1531.0Q577 1529 508 1521Q447 1514 401 1468L244 1309Q191 1255 162.5 1184.0Q134 1113 134 1038Q134 971 157 908Q170 874 182 840L230 706Q243 672 255 638Q265 610 283.5 586.5Q302 563 325.5 546.5Q349 530 377.0 521.0Q405 512 435 512ZM512 704V1216Q512 1240 522.0 1253.0Q532 1266 547.5 1272.0Q563 1278 582.0 1279.5Q601 1281 618 1281Q625 1281 632 1281L661 1282Q668 1282 675 1282Q733 1282 795.0 1274.0Q857 1266 908.0 1242.0Q959 1218 991.5 1173.5Q1024 1129 1024 1056Q1024 996 999.5 951.0Q975 906 921 879L1013 740Q1024 723 1024 704Q1024 678 1005.0 659.0Q986 640 960 640Q926 640 907 669L791 842Q753 837 715.5 835.0Q678 833 640 832V704Q640 678 621.0 659.0Q602 640 576 640Q550 640 531.0 659.0Q512 678 512 704ZM1216 640Q1190 640 1171.0 659.0Q1152 678 1152 704V1216Q1152 1242 1171.0 1261.0Q1190 1280 1216 1280H1344Q1367 1280 1391.5 1277.5Q1416 1275 1439.5 1268.5Q1463 1262 1484.0 1249.5Q1505 1237 1520 1218Q1542 1189 1554.0 1156.5Q1566 1124 1566 1088Q1566 1059 1558.0 1030.5Q1550 1002 1532 978Q1567 949 1583.5 911.0Q1600 873 1600 828Q1600 773 1580.5 737.0Q1561 701 1528.5 679.5Q1496 658 1453.0 649.0Q1410 640 1363 640ZM640 960Q657 960 682.5 960.5Q708 961 736.5 963.0Q765 965 793.5 970.0Q822 975 844.5 985.5Q867 996 881.5 1013.0Q896 1030 896 1056Q896 1092 873.5 1112.0Q851 1132 818.5 1141.0Q786 1150 749.5 1152.0Q713 1154 686 1154H668L640 1153ZM1344 1024Q1360 1024 1376.5 1026.5Q1393 1029 1406.5 1036.5Q1420 1044 1429.0 1056.0Q1438 1068 1438 1088Q1438 1111 1431.0 1124.0Q1424 1137 1411.5 1143.0Q1399 1149 1381.5 1150.5Q1364 1152 1344 1152H1280V1024ZM1280 768H1374Q1391 768 1408.5 769.5Q1426 771 1440.0 777.0Q1454 783 1463.0 795.0Q1472 807 1472 828Q1472 855 1454.0 875.5Q1436 896 1408 896H1280Z"/>
  </g>
</svg>