<?xml version="1.0" encoding="utf-8"?>
<svg id="" width="16" height="16" style="width:16px;height:16px;" version="1.1" xmlns="http://www.w3.org/2000/svg" viewBox="0 0 2048 2048" enable-background="new 0 0 2048 2048" xml:space="preserve">
    <path fill="#000" d="M320 2048 q-39 0 -74 -15 q-35 -15 -61.5 -41.5 q-26.5 -26.5 -41.5 -61.5 q-15 -35 -15 -74 l0 -960 q-8 0 -16.5 0.5 q-8.5 0.5 -17.5 0.5 q-17 0 -33.5 -2 q-16.5 -2 -30 -8.5 q-13.5 -6.5 -22 -19.5 q-8.5 -13 -8.5 -35 q0 -22 8.5 -34.5 q8.5 -12.5 22 -19 q13.5 -6.5 30 -8.5 q16.5 -2 33.5 -2 l34 0 l0 -328 q0 -88 36 -167.5 q36 -79.5 96.5 -140 q60.5 -60.5 140 -96.5 q79.5 -36 167.5 -36 l912 0 q91 0 171 36.5 q80 36.5 140 98 q60 61.5 94.5 143 q34.5 81.5 34.5 170.5 l0 320 l34 0 q17 0 33.5 2 q16.5 2 30 8.5 q13.5 6.5 22 19 q8.5 12.5 8.5 34.5 q0 22 -8.5 35 q-8.5 13 -22 19.5 q-13.5 6.5 -30 8.5 q-16.5 2 -33.5 2 q-9 0 -17.5 -0.5 q-8.5 -0.5 -16.5 -0.5 l0 960 q0 39 -15 74 q-15 35 -41.5 61.5 q-26.5 26.5 -61.5 41.5 q-35 15 -74 15 l-128 0 q-39 0 -74 -15 q-35 -15 -61.5 -41.5 q-26.5 -26.5 -41.5 -61.5 q-15 -35 -15 -74 l0 -64 l-768 0 l0 64 q0 39 -15 74 q-15 35 -41.5 61.5 q-26.5 26.5 -61.5 41.5 q-35 15 -74 15 l-128 0 ZM256 1024 l1536 0 l0 -583 q0 -63 -25.5 -120 q-25.5 -57 -68 -99.5 q-42.5 -42.5 -99.5 -68 q-57 -25.5 -120 -25.5 l-910 0 q-63 0 -120 25.5 q-57 25.5 -99.5 68 q-42.5 42.5 -68 99.5 q-25.5 57 -25.5 120 l0 583 ZM896 384 q-26 0 -45 -19 q-19 -19 -19 -45 q0 -26 19 -45 q19 -19 45 -19 l256 0 q26 0 45 19 q19 19 19 45 q0 26 -19 45 q-19 19 -45 19 l-256 0 ZM256 1152 l0 512 l1536 0 l0 -512 l-1536 0 ZM512 1408 q0 -27 10 -50 q10 -23 27.5 -40.5 q17.5 -17.5 40.5 -27.5 q23 -10 50 -10 q26 0 49.5 10 q23.5 10 41 27.5 q17.5 17.5 27.5 41 q10 23.5 10 49.5 q0 27 -10 50 q-10 23 -27.5 40.5 q-17.5 17.5 -40.5 27.5 q-23 10 -50 10 q-27 0 -50.5 -10 q-23.5 -10 -40.5 -27 q-17 -17 -27 -40.5 q-10 -23.5 -10 -50.5 ZM1280 1408 q0 -27 10 -50 q10 -23 27.5 -40.5 q17.5 -17.5 40.5 -27.5 q23 -10 50 -10 q26 0 49.5 10 q23.5 10 41 27.5 q17.5 17.5 27.5 41 q10 23.5 10 49.5 q0 27 -10 50 q-10 23 -27.5 40.5 q-17.5 17.5 -40.5 27.5 q-23 10 -50 10 q-27 0 -50.5 -10 q-23.5 -10 -40.5 -27 q-17 -17 -27 -40.5 q-10 -23.5 -10 -50.5 ZM448 1920 q26 0 45 -19 q19 -19 19 -45 l0 -64 l-256 0 l0 64 q0 26 19 45 q19 19 45 19 l128 0 ZM1728 1920 q26 0 45 -19 q19 -19 19 -45 l0 -64 l-256 0 l0 64 q0 26 19 45 q19 19 45 19 l128 0 Z"/>
</svg>