<?xml version="1.0" encoding="utf-8"?>
<svg xmlns="http://www.w3.org/2000/svg" width="16" height="16" viewBox="0 0 2048 2048">
  <g transform="translate(0, 2048) scale(1, -1)">
    <path fill="#000000" d="M320 0Q281 0 246.0 15.0Q211 30 184.5 56.5Q158 83 143.0 118.0Q128 153 128 192V1152Q120 1152 111.5 1151.5Q103 1151 94 1151Q77 1151 60.5 1153.0Q44 1155 30.5 1161.5Q17 1168 8.5 1181.0Q0 1194 0 1216Q0 1238 8.5 1250.5Q17 1263 30.5 1269.5Q44 1276 60.5 1278.0Q77 1280 94 1280H128V1608Q128 1696 164.0 1775.5Q200 1855 260.5 1915.5Q321 1976 400.5 2012.0Q480 2048 568 2048H1480Q1571 2048 1651.0 2011.5Q1731 1975 1791.0 1913.5Q1851 1852 1885.5 1770.5Q1920 1689 1920 1600V1280H1954Q1971 1280 1987.5 1278.0Q2004 1276 2017.5 1269.5Q2031 1263 2039.5 1250.5Q2048 1238 2048 1216Q2048 1194 2039.5 1181.0Q2031 1168 2017.5 1161.5Q2004 1155 1987.5 1153.0Q1971 1151 1954 1151Q1945 1151 1936.5 1151.5Q1928 1152 1920 1152V192Q1920 153 1905.0 118.0Q1890 83 1863.5 56.5Q1837 30 1802.0 15.0Q1767 0 1728 0H1600Q1561 0 1526.0 15.0Q1491 30 1464.5 56.5Q1438 83 1423.0 118.0Q1408 153 1408 192V256H640V192Q640 153 625.0 118.0Q610 83 583.5 56.5Q557 30 522.0 15.0Q487 0 448 0ZM256 1024H1792V1607Q1792 1670 1766.5 1727.0Q1741 1784 1698.5 1826.5Q1656 1869 1599.0 1894.5Q1542 1920 1479 1920H569Q506 1920 449.0 1894.5Q392 1869 349.5 1826.5Q307 1784 281.5 1727.0Q256 1670 256 1607ZM896 1664Q870 1664 851.0 1683.0Q832 1702 832 1728Q832 1754 851.0 1773.0Q870 1792 896 1792H1152Q1178 1792 1197.0 1773.0Q1216 1754 1216 1728Q1216 1702 1197.0 1683.0Q1178 1664 1152 1664ZM768 640Q768 666 758.0 689.5Q748 713 730.5 730.5Q713 748 689.5 758.0Q666 768 640 768Q613 768 590.0 758.0Q567 748 549.5 730.5Q532 713 522.0 690.0Q512 667 512 640Q512 613 522.0 589.5Q532 566 549.0 549.0Q566 532 589.5 522.0Q613 512 640 512Q667 512 690.0 522.0Q713 532 730.5 549.5Q748 567 758.0 590.0Q768 613 768 640ZM1536 640Q1536 666 1526.0 689.5Q1516 713 1498.5 730.5Q1481 748 1457.5 758.0Q1434 768 1408 768Q1381 768 1358.0 758.0Q1335 748 1317.5 730.5Q1300 713 1290.0 690.0Q1280 667 1280 640Q1280 613 1290.0 589.5Q1300 566 1317.0 549.0Q1334 532 1357.5 522.0Q1381 512 1408 512Q1435 512 1458.0 522.0Q1481 532 1498.5 549.5Q1516 567 1526.0 590.0Q1536 613 1536 640ZM448 128Q474 128 493.0 147.0Q512 166 512 192V256H256V192Q256 166 275.0 147.0Q294 128 320 128ZM1728 128Q1754 128 1773.0 147.0Q1792 166 1792 192V256H1536V192Q1536 166 1555.0 147.0Q1574 128 1600 128Z"/>
  </g>
</svg>