<?xml version="1.0" encoding="utf-8"?>
<svg xmlns="http://www.w3.org/2000/svg" width="16" height="16" viewBox="0 0 2048 2048">
  <g transform="translate(0, 2048) scale(1, -1)">
    <path fill="#ffffff" d="M1024 0Q882 0 751.0 36.5Q620 73 506.5 139.5Q393 206 299.5 299.5Q206 393 139.5 506.5Q73 620 36.5 751.0Q0 882 0 1024Q0 1166 36.5 1297.0Q73 1428 139.5 1541.5Q206 1655 299.5 1748.5Q393 1842 506.5 1908.5Q620 1975 751.0 2011.5Q882 2048 1024 2048Q1165 2048 1296.0 2011.5Q1427 1975 1540.5 1908.0Q1654 1841 1747.5 1747.5Q1841 1654 1908.0 1540.5Q1975 1427 2011.5 1296.0Q2048 1165 2048 1024Q2048 882 2011.5 751.0Q1975 620 1908.5 506.5Q1842 393 1748.5 299.5Q1655 206 1541.5 139.5Q1428 73 1297.0 36.5Q1166 0 1024 0ZM1024 128Q1147 128 1261.5 160.0Q1376 192 1475.5 250.5Q1575 309 1657.0 391.0Q1739 473 1797.5 572.5Q1856 672 1888.0 786.5Q1920 901 1920 1024Q1920 1147 1888.0 1261.5Q1856 1376 1797.5 1475.5Q1739 1575 1657.0 1657.0Q1575 1739 1475.5 1797.5Q1376 1856 1261.5 1888.0Q1147 1920 1024 1920Q901 1920 786.5 1888.0Q672 1856 572.5 1797.5Q473 1739 391.0 1657.0Q309 1575 250.5 1475.5Q192 1376 160.0 1261.5Q128 1147 128 1024Q128 901 160.0 786.5Q192 672 250.5 572.5Q309 473 391.0 391.0Q473 309 572.5 250.5Q672 192 786.5 160.0Q901 128 1024 128ZM758 634V1414H1042Q1087 1414 1134.5 1406.0Q1182 1398 1222.0 1377.5Q1262 1357 1287.5 1321.5Q1313 1286 1313 1231Q1313 1198 1300.5 1169.5Q1288 1141 1267.0 1118.0Q1246 1095 1218.5 1079.0Q1191 1063 1161 1055V1053Q1199 1048 1232.0 1033.5Q1265 1019 1290.0 995.5Q1315 972 1329.0 939.5Q1343 907 1343 867Q1343 805 1319.0 761.0Q1295 717 1255.0 688.5Q1215 660 1163.5 647.0Q1112 634 1057 634ZM933 1100H1010Q1034 1100 1055.5 1105.5Q1077 1111 1092.5 1123.0Q1108 1135 1117.5 1154.0Q1127 1173 1127 1199Q1127 1226 1115.0 1243.0Q1103 1260 1084.5 1269.5Q1066 1279 1043.5 1282.0Q1021 1285 999 1285H933ZM933 763H1029Q1054 763 1077.5 769.0Q1101 775 1119.0 788.0Q1137 801 1148.0 821.0Q1159 841 1159 869Q1159 897 1148.0 916.5Q1137 936 1118.5 947.5Q1100 959 1076.5 964.0Q1053 969 1029 969H933Z"/>
  </g>
</svg>