<?xml version="1.0" encoding="utf-8"?>
<svg xmlns="http://www.w3.org/2000/svg" width="16" height="16" viewBox="0 0 2048 2048">
  <g transform="translate(0, 2048) scale(1, -1)">
    <path fill="#000000" d="M0 1024Q0 1165 36.5 1296.0Q73 1427 140.0 1540.5Q207 1654 300.5 1747.5Q394 1841 507.5 1908.0Q621 1975 752.0 2011.5Q883 2048 1024 2048Q1165 2048 1296.0 2011.5Q1427 1975 1540.5 1908.0Q1654 1841 1747.5 1747.5Q1841 1654 1908.0 1540.5Q1975 1427 2011.5 1296.0Q2048 1165 2048 1024Q2048 883 2011.5 752.0Q1975 621 1908.0 507.5Q1841 394 1747.5 300.5Q1654 207 1540.5 140.0Q1427 73 1296.0 36.5Q1165 0 1024 0Q883 0 752.0 36.5Q621 73 507.5 140.0Q394 207 300.5 300.5Q207 394 140.0 507.5Q73 621 36.5 752.0Q0 883 0 1024ZM1920 1024Q1920 1147 1888.0 1261.5Q1856 1376 1797.5 1475.5Q1739 1575 1657.0 1657.0Q1575 1739 1475.5 1797.5Q1376 1856 1261.5 1888.0Q1147 1920 1024 1920Q900 1920 785.5 1888.0Q671 1856 571.5 1797.5Q472 1739 390.5 1657.5Q309 1576 250.5 1476.5Q192 1377 160.0 1262.5Q128 1148 128 1024Q128 900 160.0 785.5Q192 671 250.5 571.5Q309 472 390.5 390.5Q472 309 571.5 250.5Q671 192 785.5 160.0Q900 128 1024 128Q1148 128 1262.5 160.0Q1377 192 1476.5 250.5Q1576 309 1657.5 390.5Q1739 472 1797.5 571.5Q1856 671 1888.0 785.5Q1920 900 1920 1024ZM704 896Q665 896 630.0 911.0Q595 926 568.5 952.5Q542 979 527.0 1014.0Q512 1049 512 1088V1216Q512 1255 527.0 1290.0Q542 1325 568.5 1351.5Q595 1378 630.0 1393.0Q665 1408 704 1408H1024Q1050 1408 1073.5 1398.0Q1097 1388 1114.5 1370.5Q1132 1353 1142.0 1329.5Q1152 1306 1152 1280H704Q678 1280 659.0 1261.0Q640 1242 640 1216V1088Q640 1066 648.5 1053.0Q657 1040 670.5 1033.5Q684 1027 700.5 1025.0Q717 1023 734 1023Q743 1023 751.5 1023.5Q760 1024 768 1024V896ZM1088 640Q1049 640 1014.0 655.0Q979 670 952.5 696.5Q926 723 911.0 758.0Q896 793 896 832V960Q896 999 911.0 1034.0Q926 1069 952.5 1095.5Q979 1122 1014.0 1137.0Q1049 1152 1088 1152H1344Q1383 1152 1418.0 1137.0Q1453 1122 1479.5 1095.5Q1506 1069 1521.0 1034.0Q1536 999 1536 960V832Q1536 793 1521.0 758.0Q1506 723 1479.5 696.5Q1453 670 1418.0 655.0Q1383 640 1344 640ZM1344 768Q1370 768 1389.0 787.0Q1408 806 1408 832V960Q1408 986 1389.0 1005.0Q1370 1024 1344 1024H1088Q1062 1024 1043.0 1005.0Q1024 986 1024 960V832Q1024 806 1043.0 787.0Q1062 768 1088 768Z"/>
  </g>
</svg>