<?xml version="1.0" encoding="utf-8"?>
<svg id="" width="16" height="16" style="width:16px;height:16px;" version="1.1" xmlns="http://www.w3.org/2000/svg" viewBox="0 0 2048 2048" enable-background="new 0 0 2048 2048" xml:space="preserve">
    <path fill="#000" transform="translate(0, 250)" d="M0 772 l0 -622 q0 -31 12 -58.5 q12 -27.5 32 -47.5 q20 -20 47.5 -32 q27.5 -12 58.5 -12 l1236 0 q28 0 53.5 10 q25.5 10 45.5 28 q20 18 33 42 q13 24 17 52 l137 0 q78 0 146.5 31 q68.5 31 119.5 84 q51 53 80.5 122.5 q29.5 69.5 29.5 146.5 q0 77 -29.5 146.5 q-29.5 69.5 -80.5 122.5 q-51 53 -119.5 84 q-68.5 31 -146.5 31 l-147 0 q-16 92 -52 175.5 q-36 83.5 -89 154.5 q-53 71 -120.5 128.5 q-67.5 57.5 -146.5 97.5 q-79 40 -167 62 q-88 22 -182 22 q-106 0 -204.5 -27.5 q-98.5 -27.5 -183.5 -77.5 q-85 -50 -155 -120 q-70 -70 -120 -155 q-50 -85 -77.5 -183.5 q-27.5 -98.5 -27.5 -204.5 ZM1408 772 l0 -622 q0 -9 -6.5 -15.5 q-6.5 -6.5 -15.5 -6.5 l-1236 0 q-9 0 -15.5 6.5 q-6.5 6.5 -6.5 15.5 l0 622 q0 133 50 249.5 q50 116.5 137 203.5 q87 87 203.5 137 q116.5 50 249.5 50 q133 0 249.5 -50 q116.5 -50 203.5 -137 q87 -87 137 -203.5 q50 -116.5 50 -249.5 ZM1669 772 q52 0 97.5 -21 q45.5 -21 79.5 -56 q34 -35 54 -81.5 q20 -46.5 20 -97.5 q0 -51 -20 -97.5 q-20 -46.5 -54 -81.5 q-34 -35 -79.5 -56 q-45.5 -21 -97.5 -21 l-133 0 l0 512 l133 0 Z"/>
</svg>