<?xml version="1.0" encoding="utf-8"?>
<svg xmlns="http://www.w3.org/2000/svg" width="16" height="16" viewBox="0 0 2048 2048">
  <g transform="translate(0, 2048) scale(1, -1)">
    <path fill="#ffffff" d="M64 1280Q38 1280 19.0 1299.0Q0 1318 0 1344Q0 1370 19.0 1389.0Q38 1408 64 1408H1984Q2010 1408 2029.0 1389.0Q2048 1370 2048 1344Q2048 1318 2029.0 1299.0Q2010 1280 1984 1280ZM64 640Q38 640 19.0 659.0Q0 678 0 704Q0 730 19.0 749.0Q38 768 64 768H1984Q2010 768 2029.0 749.0Q2048 730 2048 704Q2048 678 2029.0 659.0Q2010 640 1984 640Z"/>
  </g>
</svg>