<?xml version="1.0" encoding="utf-8"?>
<svg xmlns="http://www.w3.org/2000/svg" width="16" height="16" viewBox="0 0 2048 2048">
  <g transform="translate(0, 2048) scale(1, -1)">
    <path fill="#ffffff" d="M128 1024Q128 1109 142.5 1193.0Q157 1277 186.0 1356.0Q215 1435 259.5 1507.5Q304 1580 363 1642Q378 1657 405.0 1682.5Q432 1708 463.5 1732.5Q495 1757 525.0 1774.5Q555 1792 576 1792Q602 1792 621.0 1773.0Q640 1754 640 1728Q640 1707 630.5 1694.5Q621 1682 605 1671Q573 1648 543.0 1627.5Q513 1607 484 1580Q426 1526 383.5 1462.0Q341 1398 312.5 1326.5Q284 1255 270.0 1178.5Q256 1102 256 1024Q256 946 270.0 869.5Q284 793 312.5 721.5Q341 650 383.5 586.0Q426 522 484 468Q513 441 543.0 420.5Q573 400 605 377Q621 366 630.5 353.5Q640 341 640 320Q640 294 621.0 275.0Q602 256 576 256Q555 256 525.0 273.5Q495 291 463.5 315.5Q432 340 405.0 365.5Q378 391 363 406Q304 468 259.5 540.5Q215 613 186.0 692.0Q157 771 142.5 855.0Q128 939 128 1024ZM1408 320Q1408 338 1414.5 349.0Q1421 360 1434 371Q1452 388 1471.5 403.5Q1491 419 1510 436Q1574 492 1625.0 552.0Q1676 612 1713 691Q1750 769 1771.0 853.0Q1792 937 1792 1024Q1792 1111 1771.0 1194.5Q1750 1278 1713 1356Q1694 1396 1672.5 1430.0Q1651 1464 1626.0 1495.0Q1601 1526 1572.0 1554.5Q1543 1583 1510 1612Q1491 1629 1471.5 1644.5Q1452 1660 1434 1677Q1421 1688 1414.5 1699.0Q1408 1710 1408 1728Q1408 1754 1427.0 1773.0Q1446 1792 1472 1792Q1493 1792 1510 1779Q1602 1715 1677.5 1631.5Q1753 1548 1807.0 1450.5Q1861 1353 1890.5 1245.0Q1920 1137 1920 1024Q1920 911 1890.5 802.5Q1861 694 1807.5 597.0Q1754 500 1678.5 416.5Q1603 333 1510 269Q1493 256 1472 256Q1446 256 1427.0 275.0Q1408 294 1408 320ZM576 1024Q550 1024 531.0 1043.0Q512 1062 512 1088Q512 1114 531.0 1133.0Q550 1152 576 1152H1472Q1498 1152 1517.0 1133.0Q1536 1114 1536 1088Q1536 1062 1517.0 1043.0Q1498 1024 1472 1024Z"/>
  </g>
</svg>