<?xml version="1.0" encoding="utf-8"?>
<svg xmlns="http://www.w3.org/2000/svg" width="16" height="16" viewBox="0 0 2048 2048">
  <g transform="translate(0, 2048) scale(1, -1)">
    <path fill="#ffffff" d="M150 896Q139 896 125.0 895.0Q111 894 96 894Q78 894 61.0 896.5Q44 899 30.5 906.0Q17 913 8.5 926.0Q0 939 0 960Q0 986 19.0 1005.0Q38 1024 64 1024H192Q234 1024 251 985L582 212L1544 2014Q1552 2030 1567.5 2039.0Q1583 2048 1601 2048Q1628 2048 1646.0 2028.5Q1664 2009 1664 1983Q1664 1967 1657 1954L633 34Q624 17 608.0 8.5Q592 0 573 0Q555 0 539.5 11.0Q524 22 517 39Z"/>
  </g>
</svg>