<?xml version="1.0" encoding="utf-8"?>
<svg xmlns="http://www.w3.org/2000/svg" width="16" height="16" viewBox="0 0 2048 2048">
  <g transform="translate(0, 2048) scale(1, -1)">
    <path fill="#000000" d="M569 0Q506 0 449.0 25.5Q392 51 349.5 93.5Q307 136 281.5 193.0Q256 250 256 313V1735Q256 1798 281.5 1855.0Q307 1912 349.5 1954.5Q392 1997 449.0 2022.5Q506 2048 569 2048H1479Q1542 2048 1599.0 2022.5Q1656 1997 1698.5 1954.5Q1741 1912 1766.5 1855.0Q1792 1798 1792 1735V313Q1792 250 1766.5 193.0Q1741 136 1698.5 93.5Q1656 51 1599.0 25.5Q1542 0 1479 0ZM1472 128Q1511 128 1546.0 143.0Q1581 158 1607.5 184.5Q1634 211 1649.0 246.0Q1664 281 1664 320V1728Q1664 1767 1649.0 1802.0Q1634 1837 1607.5 1863.5Q1581 1890 1546.0 1905.0Q1511 1920 1472 1920H576Q537 1920 502.0 1905.0Q467 1890 440.5 1863.5Q414 1837 399.0 1802.0Q384 1767 384 1728V320Q384 281 399.0 246.0Q414 211 440.5 184.5Q467 158 502.0 143.0Q537 128 576 128ZM704 1280Q665 1280 630.0 1295.0Q595 1310 568.5 1336.5Q542 1363 527.0 1398.0Q512 1433 512 1472V1600Q512 1639 527.0 1674.0Q542 1709 568.5 1735.5Q595 1762 630.0 1777.0Q665 1792 704 1792H1344Q1383 1792 1418.0 1777.0Q1453 1762 1479.5 1735.5Q1506 1709 1521.0 1674.0Q1536 1639 1536 1600V1472Q1536 1433 1521.0 1398.0Q1506 1363 1479.5 1336.5Q1453 1310 1418.0 1295.0Q1383 1280 1344 1280ZM1344 1408Q1370 1408 1389.0 1427.0Q1408 1446 1408 1472V1600Q1408 1626 1389.0 1645.0Q1370 1664 1344 1664H704Q678 1664 659.0 1645.0Q640 1626 640 1600V1472Q640 1446 659.0 1427.0Q678 1408 704 1408ZM512 896Q512 923 522.0 946.0Q532 969 549.5 986.5Q567 1004 590.0 1014.0Q613 1024 640 1024Q666 1024 689.5 1014.0Q713 1004 730.5 986.5Q748 969 758.0 945.5Q768 922 768 896Q768 869 758.0 846.0Q748 823 730.5 805.5Q713 788 690.0 778.0Q667 768 640 768Q613 768 589.5 778.0Q566 788 549.0 805.0Q532 822 522.0 845.5Q512 869 512 896ZM896 896Q896 923 906.0 946.0Q916 969 933.5 986.5Q951 1004 974.0 1014.0Q997 1024 1024 1024Q1050 1024 1073.5 1014.0Q1097 1004 1114.5 986.5Q1132 969 1142.0 945.5Q1152 922 1152 896Q1152 869 1142.0 846.0Q1132 823 1114.5 805.5Q1097 788 1074.0 778.0Q1051 768 1024 768Q997 768 973.5 778.0Q950 788 933.0 805.0Q916 822 906.0 845.5Q896 869 896 896ZM1280 896Q1280 923 1290.0 946.0Q1300 969 1317.5 986.5Q1335 1004 1358.0 1014.0Q1381 1024 1408 1024Q1434 1024 1457.5 1014.0Q1481 1004 1498.5 986.5Q1516 969 1526.0 945.5Q1536 922 1536 896Q1536 869 1526.0 846.0Q1516 823 1498.5 805.5Q1481 788 1458.0 778.0Q1435 768 1408 768Q1381 768 1357.5 778.0Q1334 788 1317.0 805.0Q1300 822 1290.0 845.5Q1280 869 1280 896ZM512 512Q512 539 522.0 562.0Q532 585 549.5 602.5Q567 620 590.0 630.0Q613 640 640 640Q666 640 689.5 630.0Q713 620 730.5 602.5Q748 585 758.0 561.5Q768 538 768 512Q768 485 758.0 462.0Q748 439 730.5 421.5Q713 404 690.0 394.0Q667 384 640 384Q613 384 589.5 394.0Q566 404 549.0 421.0Q532 438 522.0 461.5Q512 485 512 512ZM896 512Q896 539 906.0 562.0Q916 585 933.5 602.5Q951 620 974.0 630.0Q997 640 1024 640Q1050 640 1073.5 630.0Q1097 620 1114.5 602.5Q1132 585 1142.0 561.5Q1152 538 1152 512Q1152 485 1142.0 462.0Q1132 439 1114.5 421.5Q1097 404 1074.0 394.0Q1051 384 1024 384Q997 384 973.5 394.0Q950 404 933.0 421.0Q916 438 906.0 461.5Q896 485 896 512ZM1280 512Q1280 539 1290.0 562.0Q1300 585 1317.5 602.5Q1335 620 1358.0 630.0Q1381 640 1408 640Q1434 640 1457.5 630.0Q1481 620 1498.5 602.5Q1516 585 1526.0 561.5Q1536 538 1536 512Q1536 485 1526.0 462.0Q1516 439 1498.5 421.5Q1481 404 1458.0 394.0Q1435 384 1408 384Q1381 384 1357.5 394.0Q1334 404 1317.0 421.0Q1300 438 1290.0 461.5Q1280 485 1280 512Z"/>
  </g>
</svg>