<?xml version="1.0" encoding="utf-8"?>
<svg xmlns="http://www.w3.org/2000/svg" width="16" height="16" viewBox="0 0 2048 2048">
  <g transform="translate(0, 2048) scale(1, -1)">
    <path fill="#000000" d="M45 1024Q45 1059 58.0 1093.0Q71 1127 95 1153L580 1687Q625 1737 687.0 1764.5Q749 1792 817 1792H1735Q1798 1792 1855.0 1766.5Q1912 1741 1954.5 1698.5Q1997 1656 2022.5 1599.0Q2048 1542 2048 1479V569Q2048 506 2022.5 449.0Q1997 392 1954.5 349.5Q1912 307 1855.0 281.5Q1798 256 1735 256H817Q749 256 687.0 283.5Q625 311 580 361L95 895Q71 921 58.0 955.0Q45 989 45 1024ZM1728 384Q1767 384 1802.0 399.0Q1837 414 1863.5 440.5Q1890 467 1905.0 502.0Q1920 537 1920 576V1472Q1920 1511 1905.0 1546.0Q1890 1581 1863.5 1607.5Q1837 1634 1802.0 1649.0Q1767 1664 1728 1664H817Q777 1664 739.5 1647.0Q702 1630 675 1601L190 1067Q173 1048 173 1024Q173 1001 190 981L675 447Q702 417 739.0 400.5Q776 384 817 384ZM1280 934 1005 659Q986 640 960 640Q934 640 915.0 659.0Q896 678 896 704Q896 730 915 749L1190 1024L915 1299Q896 1318 896 1344Q896 1370 915.0 1389.0Q934 1408 960 1408Q986 1408 1005 1389L1280 1115L1555 1389Q1574 1408 1600 1408Q1626 1408 1645.0 1389.0Q1664 1370 1664 1344Q1664 1318 1645 1299L1371 1024L1645 749Q1664 730 1664 704Q1664 678 1645.0 659.0Q1626 640 1600 640Q1574 640 1555 659Z"/>
  </g>
</svg>