<?xml version="1.0" encoding="utf-8"?>
<svg xmlns="http://www.w3.org/2000/svg" width="16" height="16" viewBox="0 0 2048 2048">
  <g transform="translate(0, 2048) scale(1, -1)">
    <path fill="#ffffff" d="M384 193Q384 212 395 228L1547 1892Q1566 1920 1600 1920Q1628 1920 1646.0 1901.5Q1664 1883 1664 1856Q1664 1837 1653 1820L501 156Q493 144 478.0 136.0Q463 128 448 128Q422 128 403.0 147.5Q384 167 384 193ZM128 1536V1544Q128 1622 159.0 1690.5Q190 1759 243.0 1810.0Q296 1861 365.5 1890.5Q435 1920 512 1920Q592 1920 662.0 1890.0Q732 1860 784.0 1808.0Q836 1756 866.0 1686.0Q896 1616 896 1536Q896 1456 866.0 1386.0Q836 1316 784.0 1264.0Q732 1212 662.0 1182.0Q592 1152 512 1152Q432 1152 362.0 1182.0Q292 1212 240.0 1264.0Q188 1316 158.0 1386.0Q128 1456 128 1536ZM768 1536V1541Q768 1593 747.0 1638.5Q726 1684 691.0 1718.0Q656 1752 609.5 1772.0Q563 1792 512 1792Q459 1792 412.5 1771.5Q366 1751 331.5 1716.5Q297 1682 276.5 1635.0Q256 1588 256 1536Q256 1483 276.5 1436.5Q297 1390 331.5 1355.5Q366 1321 412.5 1300.5Q459 1280 512 1280Q564 1280 611.0 1300.5Q658 1321 692.5 1355.5Q727 1390 747.5 1436.5Q768 1483 768 1536ZM1152 512V520Q1152 598 1183.0 666.5Q1214 735 1267.0 786.0Q1320 837 1389.5 866.5Q1459 896 1536 896Q1616 896 1686.0 866.0Q1756 836 1808.0 784.0Q1860 732 1890.0 662.0Q1920 592 1920 512Q1920 432 1890.0 362.0Q1860 292 1808.0 240.0Q1756 188 1686.0 158.0Q1616 128 1536 128Q1456 128 1386.0 158.0Q1316 188 1264.0 240.0Q1212 292 1182.0 362.0Q1152 432 1152 512ZM1792 512V517Q1792 569 1771.0 614.5Q1750 660 1715.0 694.0Q1680 728 1633.5 748.0Q1587 768 1536 768Q1483 768 1436.5 747.5Q1390 727 1355.5 692.5Q1321 658 1300.5 611.0Q1280 564 1280 512Q1280 459 1300.5 412.5Q1321 366 1355.5 331.5Q1390 297 1436.5 276.5Q1483 256 1536 256Q1588 256 1635.0 276.5Q1682 297 1716.5 331.5Q1751 366 1771.5 412.5Q1792 459 1792 512Z"/>
  </g>
</svg>