<?xml version="1.0" encoding="utf-8"?>
<svg xmlns="http://www.w3.org/2000/svg" width="16" height="16" viewBox="0 0 2048 2048">
  <g transform="translate(0, 2048) scale(1, -1)">
    <path fill="#ffffff" d="M896 1664Q896 1691 906.0 1714.0Q916 1737 933.5 1754.5Q951 1772 974.0 1782.0Q997 1792 1024 1792Q1050 1792 1073.5 1782.0Q1097 1772 1114.5 1754.5Q1132 1737 1142.0 1713.5Q1152 1690 1152 1664Q1152 1637 1142.0 1614.0Q1132 1591 1114.5 1573.5Q1097 1556 1074.0 1546.0Q1051 1536 1024 1536Q997 1536 973.5 1546.0Q950 1556 933.0 1573.0Q916 1590 906.0 1613.5Q896 1637 896 1664ZM64 1024Q38 1024 19.0 1043.0Q0 1062 0 1088Q0 1114 19.0 1133.0Q38 1152 64 1152H1984Q2010 1152 2029.0 1133.0Q2048 1114 2048 1088Q2048 1062 2029.0 1043.0Q2010 1024 1984 1024ZM896 512Q896 539 906.0 562.0Q916 585 933.5 602.5Q951 620 974.0 630.0Q997 640 1024 640Q1050 640 1073.5 630.0Q1097 620 1114.5 602.5Q1132 585 1142.0 561.5Q1152 538 1152 512Q1152 485 1142.0 462.0Q1132 439 1114.5 421.5Q1097 404 1074.0 394.0Q1051 384 1024 384Q997 384 973.5 394.0Q950 404 933.0 421.0Q916 438 906.0 461.5Q896 485 896 512Z"/>
  </g>
</svg>