<?xml version="1.0" encoding="utf-8"?>
<svg xmlns="http://www.w3.org/2000/svg" width="16" height="16" viewBox="0 0 2048 2048">
  <g transform="translate(0, 2048) scale(1, -1)">
    <path fill="#000000" d="M128 1664Q128 1717 148.0 1763.5Q168 1810 203.0 1845.0Q238 1880 284.5 1900.0Q331 1920 384 1920H1664Q1717 1920 1763.5 1900.0Q1810 1880 1845.0 1845.0Q1880 1810 1900.0 1763.5Q1920 1717 1920 1664V1536H128ZM384 128Q331 128 284.5 148.0Q238 168 203.0 203.0Q168 238 148.0 284.5Q128 331 128 384V1408H1920V384Q1920 331 1900.0 284.5Q1880 238 1845.0 203.0Q1810 168 1763.5 148.0Q1717 128 1664 128ZM784 1025Q784 1055 772.5 1081.0Q761 1107 741.5 1126.5Q722 1146 696.0 1157.0Q670 1168 640 1168Q610 1168 583.5 1156.5Q557 1145 537.5 1125.5Q518 1106 507.0 1080.0Q496 1054 496 1024Q496 994 507.0 968.0Q518 942 537.5 922.5Q557 903 583.0 891.5Q609 880 639 880Q670 880 696.5 891.0Q723 902 742.5 921.5Q762 941 773.0 967.5Q784 994 784 1025ZM1168 1025Q1168 1055 1156.5 1081.0Q1145 1107 1125.5 1126.5Q1106 1146 1080.0 1157.0Q1054 1168 1024 1168Q994 1168 967.5 1156.5Q941 1145 921.5 1125.5Q902 1106 891.0 1080.0Q880 1054 880 1024Q880 994 891.0 968.0Q902 942 921.5 922.5Q941 903 967.0 891.5Q993 880 1023 880Q1054 880 1080.5 891.0Q1107 902 1126.5 921.5Q1146 941 1157.0 967.5Q1168 994 1168 1025ZM1552 1025Q1552 1055 1540.5 1081.0Q1529 1107 1509.5 1126.5Q1490 1146 1464.0 1157.0Q1438 1168 1408 1168Q1378 1168 1351.5 1156.5Q1325 1145 1305.5 1125.5Q1286 1106 1275.0 1080.0Q1264 1054 1264 1024Q1264 994 1275.0 968.0Q1286 942 1305.5 922.5Q1325 903 1351.0 891.5Q1377 880 1407 880Q1438 880 1464.5 891.0Q1491 902 1510.5 921.5Q1530 941 1541.0 967.5Q1552 994 1552 1025ZM784 641Q784 671 772.5 697.0Q761 723 741.5 742.5Q722 762 696.0 773.0Q670 784 640 784Q610 784 583.5 772.5Q557 761 537.5 741.5Q518 722 507.0 696.0Q496 670 496 640Q496 610 507.0 584.0Q518 558 537.5 538.5Q557 519 583.0 507.5Q609 496 639 496Q670 496 696.5 507.0Q723 518 742.5 537.5Q762 557 773.0 583.5Q784 610 784 641ZM1168 641Q1168 671 1156.5 697.0Q1145 723 1125.5 742.5Q1106 762 1080.0 773.0Q1054 784 1024 784Q994 784 967.5 772.5Q941 761 921.5 741.5Q902 722 891.0 696.0Q880 670 880 640Q880 610 891.0 584.0Q902 558 921.5 538.5Q941 519 967.0 507.5Q993 496 1023 496Q1054 496 1080.5 507.0Q1107 518 1126.5 537.5Q1146 557 1157.0 583.5Q1168 610 1168 641Z"/>
  </g>
</svg>