<?xml version="1.0" encoding="utf-8"?>
<svg xmlns="http://www.w3.org/2000/svg" width="16" height="16" viewBox="0 0 2048 2048">
  <g transform="translate(0, 2048) scale(1, -1)">
    <path fill="#000000" d="M504 128Q429 128 360.5 158.5Q292 189 240.5 240.5Q189 292 158.5 360.5Q128 429 128 504V1544Q128 1619 158.5 1687.5Q189 1756 240.5 1807.5Q292 1859 360.5 1889.5Q429 1920 504 1920H1544Q1619 1920 1687.5 1889.5Q1756 1859 1807.5 1807.5Q1859 1756 1889.5 1687.5Q1920 1619 1920 1544V1160Q1890 1183 1858.0 1202.5Q1826 1222 1792 1239V1408H256V507Q256 455 277.0 409.5Q298 364 333.0 330.0Q368 296 414.5 276.0Q461 256 512 256H809Q826 222 845.5 190.0Q865 158 888 128ZM1792 1536V1541Q1792 1591 1771.5 1636.5Q1751 1682 1716.5 1716.5Q1682 1751 1636.5 1771.5Q1591 1792 1541 1792H507Q456 1792 410.0 1771.0Q364 1750 330.0 1715.0Q296 1680 276.0 1633.5Q256 1587 256 1536ZM896 576Q896 695 941.5 800.0Q987 905 1065.0 983.0Q1143 1061 1248.0 1106.5Q1353 1152 1472 1152Q1551 1152 1624.5 1131.5Q1698 1111 1762.0 1073.5Q1826 1036 1879.0 983.0Q1932 930 1969.5 866.0Q2007 802 2027.5 728.5Q2048 655 2048 576Q2048 457 2002.5 352.0Q1957 247 1879.0 169.0Q1801 91 1696.0 45.5Q1591 0 1472 0Q1352 0 1247.0 45.0Q1142 90 1064.0 168.0Q986 246 941.0 351.0Q896 456 896 576ZM1792 357Q1792 415 1768.5 466.5Q1745 518 1705.5 556.5Q1666 595 1613.5 617.5Q1561 640 1504 640H1254L1395 781Q1416 802 1416 832Q1416 862 1395.0 883.0Q1374 904 1344 904Q1314 904 1293 883L1037 627Q1016 606 1016 576Q1016 546 1037 525L1293 269Q1314 248 1344 248Q1374 248 1395.0 269.0Q1416 290 1416 320Q1416 350 1395 371L1254 512H1504Q1537 512 1566.0 499.0Q1595 486 1616.5 464.5Q1638 443 1651.0 414.0Q1664 385 1664 352Q1664 335 1666.0 317.5Q1668 300 1674.5 286.5Q1681 273 1693.5 264.5Q1706 256 1728 256Q1751 256 1764.0 265.0Q1777 274 1783.0 288.5Q1789 303 1790.5 321.0Q1792 339 1792 357Z"/>
  </g>
</svg>