<?xml version="1.0" encoding="utf-8"?>
<svg id="" width="16" height="16" style="width:16px;height:16px;" version="1.1"
    xmlns="http://www.w3.org/2000/svg" viewBox="0 0 2048 2048" enable-background="new 0 0 2048 2048"
    xml:space="preserve"><path fill="#000000" d="M1618.29 0 q85.71 0 163.99 34.85 q78.29 34.85 137.14 93.72 q58.86 58.86 93.72 137.15 q34.86 78.28 34.86 163.99 l0 1188.58 q0 85.71 -34.86 163.99 q-34.86 78.29 -93.72 137.14 q-58.86 58.86 -137.14 93.72 q-78.28 34.86 -163.99 34.86 l-1188.58 0 q-85.71 0 -163.99 -34.86 q-78.29 -34.86 -137.15 -93.72 q-58.86 -58.86 -93.72 -137.14 q-34.85 -78.28 -34.85 -163.99 l0 -1188.58 q0 -85.71 34.85 -163.99 q34.85 -78.29 93.72 -137.15 q58.86 -58.86 137.15 -93.72 q78.28 -34.85 163.99 -34.85 l1188.58 0 ZM433.14 146.29 q-58.28 0 -110.86 24 q-52.57 24 -91.43 64 q-38.85 40 -61.71 93.14 q-22.85 53.14 -22.85 111.43 l1755.42 0 l0 -5.72 q0 -57.14 -23.43 -109.14 q-23.42 -52 -62.86 -91.43 q-39.43 -39.43 -91.43 -62.86 q-52 -23.42 -109.14 -23.42 l-1181.72 0 ZM1614.86 1901.71 q57.14 0 109.14 -23.43 q52 -23.42 91.43 -62.86 q39.43 -39.43 62.86 -91.43 q23.43 -52 23.43 -109.14 l0 -1029.72 l-1755.42 0 l0 1029.72 q0 57.14 23.42 109.14 q23.43 52 62.86 91.43 q39.43 39.43 91.43 62.86 q52 23.43 109.14 23.43 l1181.72 0 ZM438.86 1024 q0 -30.86 11.42 -57.14 q11.43 -26.28 31.43 -46.28 q20 -20 46.86 -31.43 q26.86 -11.43 57.72 -11.43 q30.85 0 57.13 11.43 q26.29 11.43 45.72 30.86 q19.43 19.43 30.86 45.71 q11.43 26.29 11.43 57.15 q0 30.85 -11.43 57.71 q-11.43 26.86 -31.43 46.86 q-20 20 -46.28 31.43 q-26.29 11.43 -57.15 11.43 q-30.85 0 -57.71 -11.43 q-26.86 -11.43 -46.29 -30.86 q-19.43 -19.43 -30.86 -46.29 q-11.42 -26.86 -11.42 -57.71 ZM877.71 1024 q0 -30.86 11.43 -57.14 q11.43 -26.28 31.43 -46.28 q20 -20 46.86 -31.43 q26.86 -11.43 57.71 -11.43 q30.86 0 57.14 11.43 q26.29 11.43 45.72 30.86 q19.43 19.43 30.86 45.71 q11.43 26.29 11.43 57.15 q0 30.85 -11.43 57.71 q-11.43 26.86 -31.43 46.86 q-20 20 -46.29 31.43 q-26.29 11.43 -57.14 11.43 q-30.86 0 -57.72 -11.43 q-26.86 -11.43 -46.28 -30.86 q-19.43 -19.43 -30.86 -46.29 q-11.43 -26.86 -11.43 -57.71 ZM1609.14 1022.86 q0 30.85 -11.42 57.71 q-11.43 26.86 -31.43 46.86 q-20 20 -46.29 31.43 q-26.29 11.43 -57.14 11.43 q-30.86 0 -57.71 -11.43 q-26.86 -11.43 -46.28 -30.86 q-19.43 -19.43 -30.86 -46.29 q-11.43 -26.86 -11.43 -57.71 q0 -30.86 11.43 -57.14 q11.43 -26.28 31.43 -46.28 q20 -20 46.86 -31.43 q26.86 -11.43 57.71 -11.43 q30.86 0 57.14 11.43 q26.29 11.43 45.72 30.86 q19.43 19.43 30.86 45.71 q11.42 26.29 11.42 57.15 ZM731.43 1462.86 q0 30.85 -11.43 57.14 q-11.43 26.29 -31.43 46.29 q-20 20 -46.86 31.43 q-26.86 11.42 -57.72 11.42 q-30.86 0 -57.14 -11.42 q-26.29 -11.43 -45.72 -30.86 q-19.43 -19.43 -30.86 -45.72 q-11.42 -26.29 -11.42 -57.14 q0 -30.86 11.42 -57.71 q11.43 -26.86 31.43 -46.86 q20 -20 46.29 -31.43 q26.29 -11.43 57.14 -11.43 q30.86 0 57.72 11.43 q26.86 11.43 46.29 30.86 q19.43 19.43 30.86 46.28 q11.43 26.86 11.43 57.71 ZM1170.29 1462.86 q0 30.85 -11.43 57.14 q-11.43 26.29 -31.43 46.29 q-20 20 -46.86 31.43 q-26.86 11.42 -57.71 11.42 q-30.86 0 -57.15 -11.42 q-26.28 -11.43 -45.71 -30.86 q-19.43 -19.43 -30.86 -45.72 q-11.43 -26.29 -11.43 -57.14 q0 -30.86 11.43 -57.71 q11.43 -26.86 31.43 -46.86 q20 -20 46.28 -31.43 q26.28 -11.43 57.14 -11.43 q30.86 0 57.71 11.43 q26.86 11.43 46.29 30.86 q19.43 19.43 30.86 46.28 q11.43 26.86 11.43 57.71 Z"/></svg>