<?xml version="1.0" encoding="utf-8"?>
<svg xmlns="http://www.w3.org/2000/svg" width="16" height="16" viewBox="0 0 2048 2048">
  <g transform="translate(0, 2048) scale(1, -1)">
    <path fill="#ffffff" d="M1544 1920Q1619 1920 1687.5 1889.5Q1756 1859 1807.5 1807.5Q1859 1756 1889.5 1687.5Q1920 1619 1920 1544V504Q1920 429 1889.5 360.5Q1859 292 1807.5 240.5Q1756 189 1687.5 158.5Q1619 128 1544 128H504Q429 128 360.5 158.5Q292 189 240.5 240.5Q189 292 158.5 360.5Q128 429 128 504V1544Q128 1619 158.5 1687.5Q189 1756 240.5 1807.5Q292 1859 360.5 1889.5Q429 1920 504 1920ZM507 1792Q456 1792 410.0 1771.0Q364 1750 330.0 1715.0Q296 1680 276.0 1633.5Q256 1587 256 1536H1792V1541Q1792 1591 1771.5 1636.5Q1751 1682 1716.5 1716.5Q1682 1751 1636.5 1771.5Q1591 1792 1541 1792ZM1541 256Q1591 256 1636.5 276.5Q1682 297 1716.5 331.5Q1751 366 1771.5 411.5Q1792 457 1792 507V1408H256V507Q256 457 276.5 411.5Q297 366 331.5 331.5Q366 297 411.5 276.5Q457 256 507 256ZM768 1024Q768 997 758.0 973.5Q748 950 731.0 933.0Q714 916 690.5 906.0Q667 896 640 896Q613 896 590.0 906.0Q567 916 549.5 933.5Q532 951 522.0 974.5Q512 998 512 1025Q512 1052 522.0 1075.0Q532 1098 549.0 1115.0Q566 1132 589.0 1142.0Q612 1152 639 1152Q666 1152 689.5 1142.0Q713 1132 730.5 1114.5Q748 1097 758.0 1074.0Q768 1051 768 1024ZM1152 1024Q1152 997 1142.0 973.5Q1132 950 1115.0 933.0Q1098 916 1074.5 906.0Q1051 896 1024 896Q997 896 974.0 906.0Q951 916 933.5 933.5Q916 951 906.0 974.5Q896 998 896 1025Q896 1052 906.0 1075.0Q916 1098 933.0 1115.0Q950 1132 973.0 1142.0Q996 1152 1023 1152Q1050 1152 1073.5 1142.0Q1097 1132 1114.5 1114.5Q1132 1097 1142.0 1074.0Q1152 1051 1152 1024ZM1536 1024Q1536 997 1526.0 973.5Q1516 950 1499.0 933.0Q1482 916 1458.5 906.0Q1435 896 1408 896Q1381 896 1358.0 906.0Q1335 916 1317.5 933.5Q1300 951 1290.0 974.5Q1280 998 1280 1025Q1280 1052 1290.0 1075.0Q1300 1098 1317.0 1115.0Q1334 1132 1357.0 1142.0Q1380 1152 1407 1152Q1434 1152 1457.5 1142.0Q1481 1132 1498.5 1114.5Q1516 1097 1526.0 1074.0Q1536 1051 1536 1024ZM1152 639Q1152 612 1142.0 589.0Q1132 566 1115.0 549.0Q1098 532 1075.0 522.0Q1052 512 1025 512Q998 512 974.5 522.0Q951 532 933.5 549.5Q916 567 906.0 590.0Q896 613 896 640Q896 667 906.0 690.5Q916 714 933.0 731.0Q950 748 973.5 758.0Q997 768 1024 768Q1051 768 1074.0 758.0Q1097 748 1114.5 730.5Q1132 713 1142.0 689.5Q1152 666 1152 639ZM1536 639Q1536 612 1526.0 589.0Q1516 566 1499.0 549.0Q1482 532 1459.0 522.0Q1436 512 1409 512Q1382 512 1358.5 522.0Q1335 532 1317.5 549.5Q1300 567 1290.0 590.0Q1280 613 1280 640Q1280 667 1290.0 690.5Q1300 714 1317.0 731.0Q1334 748 1357.5 758.0Q1381 768 1408 768Q1435 768 1458.0 758.0Q1481 748 1498.5 730.5Q1516 713 1526.0 689.5Q1536 666 1536 639Z"/>
  </g>
</svg>