<?xml version="1.0" encoding="utf-8"?>
<svg xmlns="http://www.w3.org/2000/svg" width="16" height="16" viewBox="0 0 2048 2048">
  <g transform="translate(0, 2048) scale(1, -1)">
    <path fill="#000000" d="M504 128Q429 128 360.5 158.5Q292 189 240.5 240.5Q189 292 158.5 360.5Q128 429 128 504V1544Q128 1619 158.5 1687.5Q189 1756 240.5 1807.5Q292 1859 360.5 1889.5Q429 1920 504 1920H1544Q1619 1920 1687.5 1889.5Q1756 1859 1807.5 1807.5Q1859 1756 1889.5 1687.5Q1920 1619 1920 1544V504Q1920 429 1889.5 360.5Q1859 292 1807.5 240.5Q1756 189 1687.5 158.5Q1619 128 1544 128ZM1541 256Q1591 256 1636.5 276.5Q1682 297 1716.5 331.5Q1751 366 1771.5 411.5Q1792 457 1792 507V1541Q1792 1591 1771.5 1636.5Q1751 1682 1716.5 1716.5Q1682 1751 1636.5 1771.5Q1591 1792 1541 1792H507Q457 1792 411.5 1771.5Q366 1751 331.5 1716.5Q297 1682 276.5 1636.5Q256 1591 256 1541V507Q256 457 276.5 411.5Q297 366 331.5 331.5Q366 297 411.5 276.5Q457 256 507 256ZM512 576V1472Q512 1498 531.0 1517.0Q550 1536 576 1536Q602 1536 621.0 1517.0Q640 1498 640 1472V576Q640 550 621.0 531.0Q602 512 576 512Q550 512 531.0 531.0Q512 550 512 576ZM960 576V1472Q960 1498 979.0 1517.0Q998 1536 1024 1536Q1050 1536 1069.0 1517.0Q1088 1498 1088 1472V576Q1088 550 1069.0 531.0Q1050 512 1024 512Q998 512 979.0 531.0Q960 550 960 576ZM1408 576V1472Q1408 1498 1427.0 1517.0Q1446 1536 1472 1536Q1498 1536 1517.0 1517.0Q1536 1498 1536 1472V576Q1536 550 1517.0 531.0Q1498 512 1472 512Q1446 512 1427.0 531.0Q1408 550 1408 576Z"/>
  </g>
</svg>