<?xml version="1.0" encoding="utf-8"?>
<svg xmlns="http://www.w3.org/2000/svg" width="16" height="16" viewBox="0 0 2048 2048">
  <g transform="translate(0, 2048) scale(1, -1)">
    <path fill="#000000" d="M259 383Q259 425 272.0 464.5Q285 504 310 538L469 753Q500 795 546.5 818.5Q593 842 644 842Q682 842 717 829L922 756Q927 754 932.5 753.0Q938 752 943 752Q961 752 976 764Q998 781 1024.0 811.0Q1050 841 1076.0 878.5Q1102 916 1127.0 958.0Q1152 1000 1171.0 1041.0Q1190 1082 1201.5 1119.5Q1213 1157 1213 1185Q1213 1193 1210.5 1198.0Q1208 1203 1203 1209Q1182 1235 1158.5 1259.5Q1135 1284 1111.5 1308.0Q1088 1332 1065.0 1357.0Q1042 1382 1021 1409Q997 1440 983.5 1475.5Q970 1511 970 1551Q970 1563 971.5 1575.0Q973 1587 975 1599Q982 1637 995.0 1684.5Q1008 1732 1027.0 1782.0Q1046 1832 1071.5 1879.5Q1097 1927 1130.0 1964.5Q1163 2002 1202.5 2024.5Q1242 2047 1290 2047Q1359 2047 1428.5 2028.0Q1498 2009 1556 1971Q1578 1957 1602.0 1938.5Q1626 1920 1649.0 1899.5Q1672 1879 1691.5 1856.0Q1711 1833 1723 1810Q1741 1775 1754.5 1735.0Q1768 1695 1776.0 1652.5Q1784 1610 1788.0 1567.5Q1792 1525 1792 1486Q1792 1360 1761.0 1231.0Q1730 1102 1678.0 978.0Q1626 854 1557.5 738.5Q1489 623 1415 524Q1377 473 1327.0 415.5Q1277 358 1219.0 300.5Q1161 243 1096.0 190.5Q1031 138 963.0 97.5Q895 57 825.5 33.0Q756 9 689 9Q642 9 597.0 18.5Q552 28 510 49Q454 78 406.5 121.5Q359 165 321 214Q292 251 275.5 293.0Q259 335 259 383ZM690 137Q744 137 803.0 160.0Q862 183 921.0 221.0Q980 259 1037.0 307.5Q1094 356 1145.0 407.5Q1196 459 1239.0 509.5Q1282 560 1313 601Q1381 691 1444.5 796.5Q1508 902 1556.5 1015.5Q1605 1129 1634.0 1246.5Q1663 1364 1663 1480Q1663 1510 1659.5 1548.0Q1656 1586 1649.0 1625.0Q1642 1664 1630.5 1700.0Q1619 1736 1603 1762Q1595 1775 1580.5 1790.0Q1566 1805 1549.5 1819.5Q1533 1834 1516.5 1846.5Q1500 1859 1487 1868Q1442 1898 1393.0 1908.5Q1344 1919 1290 1919Q1267 1919 1244.0 1897.0Q1221 1875 1199.5 1841.0Q1178 1807 1159.5 1765.0Q1141 1723 1127.5 1682.0Q1114 1641 1106.0 1606.5Q1098 1572 1098 1552Q1098 1524 1116.0 1496.0Q1134 1468 1161.0 1439.5Q1188 1411 1219.5 1381.5Q1251 1352 1278.0 1320.5Q1305 1289 1323.0 1255.0Q1341 1221 1341 1184Q1341 1179 1341.0 1174.0Q1341 1169 1340 1164Q1331 1101 1304.5 1031.5Q1278 962 1240.5 895.5Q1203 829 1157.0 770.0Q1111 711 1063 670Q1037 648 1007.0 636.0Q977 624 943 624Q910 624 879 635L674 708Q659 713 644 713Q623 713 603.5 703.5Q584 694 572 677L413 462Q387 427 387 383Q387 356 394.0 337.0Q401 318 418 297Q443 265 472.5 235.0Q502 205 535 182Q570 159 609.0 148.0Q648 137 690 137ZM146 1428Q143 1429 139.5 1434.5Q136 1440 133.5 1447.0Q131 1454 129.5 1460.5Q128 1467 128 1470Q128 1482 132.5 1495.0Q137 1508 145 1516L403 1773Q422 1792 448 1792Q474 1792 493.0 1773.0Q512 1754 512 1728Q512 1702 493 1683L347 1536H832Q858 1536 877.0 1517.0Q896 1498 896 1472Q896 1446 877.0 1427.0Q858 1408 832 1408H347L493 1261Q512 1242 512 1216Q512 1190 493.0 1171.0Q474 1152 448 1152Q422 1152 403 1171Z"/>
  </g>
</svg>