<?xml version="1.0" encoding="utf-8"?>
<svg xmlns="http://www.w3.org/2000/svg" width="16" height="16" viewBox="0 0 2048 2048">
  <g transform="translate(0, 2048) scale(1, -1)">
    <path fill="#ffffff" d="M385 1005Q385 1075 416 1142L603 1536H576Q537 1536 502.0 1551.0Q467 1566 440.5 1592.5Q414 1619 399.0 1654.0Q384 1689 384 1728V1984Q384 2010 403.0 2029.0Q422 2048 448 2048Q474 2048 493.0 2029.0Q512 2010 512 1984V1728Q512 1702 531.0 1683.0Q550 1664 576 1664H1472Q1498 1664 1517.0 1683.0Q1536 1702 1536 1728V1984Q1536 2010 1555.0 2029.0Q1574 2048 1600 2048Q1626 2048 1645.0 2029.0Q1664 2010 1664 1984V1728Q1664 1689 1649.0 1654.0Q1634 1619 1607.5 1592.5Q1581 1566 1546.0 1551.0Q1511 1536 1472 1536H1445L1632 1142Q1663 1075 1663 1005Q1663 917 1619 843L1176 87Q1153 47 1111.5 23.5Q1070 0 1024 0Q978 0 936.5 23.5Q895 47 872 87L429 843Q385 917 385 1005ZM960 913Q931 930 913.5 959.5Q896 989 896 1024Q896 1051 906.0 1074.0Q916 1097 933.5 1114.5Q951 1132 974.0 1142.0Q997 1152 1024 1152Q1050 1152 1073.5 1142.0Q1097 1132 1114.5 1114.5Q1132 1097 1142.0 1073.5Q1152 1050 1152 1024Q1152 989 1134.5 959.5Q1117 930 1088 913V191L1508 908Q1521 930 1527.5 955.0Q1534 980 1534 1005Q1534 1048 1516 1087L1304 1536H745L532 1087Q514 1049 514 1005Q514 980 520.5 955.0Q527 930 540 908L960 191Z"/>
  </g>
</svg>