<?xml version="1.0" encoding="utf-8"?>
<svg xmlns="http://www.w3.org/2000/svg" width="16" height="16" viewBox="0 0 2048 2048">
  <g transform="translate(0, 2048) scale(1, -1)">
    <path fill="#ffffff" d="M798 0Q718 0 644.0 33.0Q570 66 516 126Q436 215 385.5 323.0Q335 431 306.5 548.5Q278 666 267.0 787.5Q256 909 256 1024Q256 1139 267.0 1260.5Q278 1382 307.0 1499.0Q336 1616 386.5 1724.5Q437 1833 517 1922Q571 1982 644.0 2015.0Q717 2048 798 2048Q821 2048 842.5 2045.5Q864 2043 887 2038L969 2018Q1016 2005 1056.0 1979.5Q1096 1954 1124.5 1918.0Q1153 1882 1169.0 1838.0Q1185 1794 1185 1744Q1185 1692 1178.5 1640.0Q1172 1588 1166 1536Q1155 1444 1097.5 1378.0Q1040 1312 950 1290Q943 1288 927.5 1285.0Q912 1282 892.0 1277.5Q872 1273 850.0 1268.0Q828 1263 809.5 1258.0Q791 1253 778.0 1248.0Q765 1243 763 1239Q752 1221 745.5 1193.0Q739 1165 736.0 1134.5Q733 1104 732.0 1074.5Q731 1045 731 1024Q731 1001 732.0 970.5Q733 940 736.5 909.0Q740 878 747.0 849.5Q754 821 766 801Q768 799 770 799Q804 791 838 783L883 774Q916 766 950 758Q995 747 1032.5 724.5Q1070 702 1097.5 669.5Q1125 637 1142.5 597.0Q1160 557 1166 512Q1172 461 1178.5 409.0Q1185 357 1185 305Q1185 257 1169.5 212.5Q1154 168 1125.5 131.5Q1097 95 1057.5 69.0Q1018 43 971 31L887 11Q841 0 798 0ZM1033 304Q1033 352 1027.5 400.5Q1022 449 1014 496Q1000 584 916 608Q867 622 816.0 629.5Q765 637 717 655Q668 673 640.0 716.5Q612 760 598.5 813.5Q585 867 581.5 923.5Q578 980 578 1024Q578 1075 581.5 1134.0Q585 1193 601.5 1247.0Q618 1301 651.5 1342.5Q685 1384 745 1400Q787 1411 830.5 1419.5Q874 1428 916 1440Q1000 1464 1014 1551Q1022 1599 1027.5 1648.0Q1033 1697 1033 1745Q1033 1791 1005.5 1824.0Q978 1857 935 1869Q903 1878 868.5 1886.0Q834 1894 801 1894Q752 1894 707.5 1874.5Q663 1855 630 1819Q561 1745 518.0 1648.0Q475 1551 450.5 1444.5Q426 1338 417.5 1229.5Q409 1121 409 1024Q409 927 417.5 818.5Q426 710 450.0 603.5Q474 497 517.0 400.0Q560 303 629 229Q661 194 705.5 173.5Q750 153 798 153Q812 153 825.0 155.0Q838 157 852 160Q884 167 916.0 175.0Q948 183 974.0 198.0Q1000 213 1016.5 238.0Q1033 263 1033 304ZM1472 640Q1472 666 1491 685L1829 1024H1088Q1062 1024 1043.0 1043.0Q1024 1062 1024 1088Q1024 1114 1043.0 1133.0Q1062 1152 1088 1152H1829L1491 1491Q1472 1510 1472 1536Q1472 1562 1491.0 1581.0Q1510 1600 1536 1600Q1562 1600 1581 1581L2029 1133Q2048 1114 2048 1088Q2048 1062 2029 1043L1581 595Q1562 576 1536 576Q1510 576 1491.0 595.0Q1472 614 1472 640Z"/>
  </g>
</svg>