<?xml version="1.0" encoding="utf-8"?>
<svg xmlns="http://www.w3.org/2000/svg" width="16" height="16" viewBox="0 0 2048 2048">
  <g transform="translate(0, 2048) scale(1, -1)">
    <path fill="#000000" d="M49 1472Q49 1498 68 1517L324 1773Q343 1792 369 1792Q395 1792 414.0 1773.0Q433 1754 433 1728Q433 1702 414 1683L267 1536H753Q779 1536 798.0 1517.0Q817 1498 817 1472Q817 1446 798.0 1427.0Q779 1408 753 1408H267L414 1261Q433 1242 433 1216Q433 1190 414.0 1171.0Q395 1152 369 1152Q343 1152 324 1171L68 1427Q49 1446 49 1472ZM610 384Q584 384 560.5 394.0Q537 404 519.5 421.5Q502 439 491.5 462.5Q481 486 481 512Q481 546 500 578L1155 1670Q1172 1699 1202.5 1713.5Q1233 1728 1265 1728Q1297 1728 1327.5 1713.5Q1358 1699 1375 1670L2030 578Q2048 548 2048 513Q2048 486 2038.0 462.5Q2028 439 2010.5 421.5Q1993 404 1970.0 394.0Q1947 384 1920 384Z"/>
  </g>
</svg>