<?xml version="1.0" encoding="utf-8"?>
<svg xmlns="http://www.w3.org/2000/svg" width="16" height="16" viewBox="0 0 2048 2048">
  <g transform="translate(0, 2048) scale(1, -1)">
    <path fill="#000000" d="M1664 1216Q1664 1242 1683 1261L1830 1408H1344Q1318 1408 1299.0 1427.0Q1280 1446 1280 1472Q1280 1498 1299.0 1517.0Q1318 1536 1344 1536H1830L1683 1683Q1664 1702 1664 1728Q1664 1754 1683.0 1773.0Q1702 1792 1728 1792Q1754 1792 1773 1773L2029 1517Q2048 1498 2048 1472Q2048 1446 2029 1427L1773 1171Q1754 1152 1728 1152Q1702 1152 1683.0 1171.0Q1664 1190 1664 1216ZM177 384Q150 384 127.0 394.0Q104 404 86.5 421.5Q69 439 59.0 462.5Q49 486 49 513Q49 548 67 578L722 1670Q739 1699 769.5 1713.5Q800 1728 832 1728Q864 1728 894.5 1713.5Q925 1699 942 1670L1597 578Q1615 548 1615 513Q1615 486 1605.0 462.5Q1595 439 1577.5 421.5Q1560 404 1537.0 394.0Q1514 384 1487 384ZM832 1604 177 512H1487Z"/>
  </g>
</svg>