<?xml version="1.0" encoding="utf-8"?>
<svg xmlns="http://www.w3.org/2000/svg" width="16" height="16" viewBox="0 0 2048 2048">
  <g transform="translate(0, 2048) scale(1, -1)">
    <path fill="#ffffff" d="M576 1600Q549 1600 525.5 1610.0Q502 1620 485.0 1637.0Q468 1654 458.0 1677.5Q448 1701 448 1728V1920H1152V1600ZM1280 1600V1920H1600V1728Q1600 1701 1590.0 1678.0Q1580 1655 1562.5 1637.5Q1545 1620 1522.0 1610.0Q1499 1600 1472 1600ZM549 768H1499L1135 130Q1118 100 1088.5 83.0Q1059 66 1024 66Q990 66 960.0 83.5Q930 101 913 130Z"/>
  </g>
</svg>