<?xml version="1.0" encoding="utf-8"?>
<svg id="" width="16" height="16" style="width:16px;height:16px;" version="1.1" xmlns="http://www.w3.org/2000/svg" viewBox="0 0 2048 2048" enable-background="new 0 0 2048 2048" xml:space="preserve">
    <path fill="#000" d="M256 1248 q0 -103 24.5 -203 q24.5 -100 74.5 -191 q8 -14 16.5 -29 q8.5 -15 18.5 -28 q11 -14 23 -21.5 q12 -7.5 31 -7.5 q16 0 31 8 q15 8 23 22 l133 217 q9 15 24.5 23.5 q15.5 8.5 33.5 8.5 q34 0 53.5 -25 q19.5 -25 19.5 -57 q0 -14 -3.5 -25.5 q-3.5 -11.5 -8.5 -23.5 q-41 -88 -67 -173.5 q-26 -85.5 -26 -184.5 q0 -126 42.5 -221 q42.5 -95 117 -163 q74.5 -68 174.5 -110 q100 -42 214 -63 q4 -1 11 -1 q23 0 41 15 q23 20 23 49 q0 150 51 286.5 q51 136.5 141 254.5 q55 72 111.5 145.5 q56.5 73.5 103 152 q46.5 78.5 76 164 q29.5 85.5 29.5 181.5 q0 107 -26.5 208 q-26.5 101 -75.5 190 q-49 89 -118 162.5 q-69 73.5 -154.5 127 q-85.5 53.5 -185 83 q-99.5 29.5 -208.5 29.5 q-110 0 -209 -29.5 q-99 -29.5 -184.5 -83 q-85.5 -53.5 -154.5 -127 q-69 -73.5 -118 -162.5 q-49 -89 -75.5 -190 q-26.5 -101 -26.5 -208 ZM1664 1241 q0 -77 -29.5 -152.5 q-29.5 -75.5 -74 -146.5 q-44.5 -71 -96 -136.5 q-51.5 -65.5 -95.5 -124.5 q-90 -119 -145 -254.5 q-55 -135.5 -69 -284.5 q-81 20 -148.5 55 q-67.5 35 -117 86.5 q-49.5 51.5 -77 120 q-27.5 68.5 -27.5 156.5 q0 80 21.5 153 q21.5 73 56.5 144 q13 26 19.5 53 q6.5 27 6.5 56 q0 42 -14.5 80.5 q-14.5 38.5 -41 67 q-26.5 28.5 -63 45.5 q-36.5 17 -80.5 17 q-53 0 -96.5 -24.5 q-43.5 -24.5 -71.5 -69.5 q-20 -31 -38.5 -61.5 q-18.5 -30.5 -37.5 -61.5 q-62 138 -62 289 q0 90 22 174.5 q22 84.5 62.5 159 q40.5 74.5 98 137 q57.5 62.5 128.5 107 q71 44.5 154 69.5 q83 25 175 25 q140 0 257.5 -55.5 q117.5 -55.5 202.5 -149 q85 -93.5 132.5 -216.5 q47.5 -123 47.5 -258 Z"/>
</svg>