<?xml version="1.0" encoding="utf-8"?>
<svg id="" width="16" height="16" style="width:16px;height:16px;" version="1.1"
    xmlns="http://www.w3.org/2000/svg" viewBox="0 0 2048 2048" enable-background="new 0 0 2048 2048"
    xml:space="preserve"><path fill="#ffffff" d="M251 1920 q-50 0 -95.5 -20.5 q-45.5 -20.5 -80 -55 q-34.5 -34.5 -55 -80 q-20.5 -45.5 -20.5 -95.5 l0 -1162 q0 -52 21 -97.5 q21 -45.5 56 -79.5 q35 -34 81.5 -54 q46.5 -20 97.5 -20 l280 0 l75 -150 q12 -24 30.5 -43.5 q18.5 -19.5 41 -33.5 q22.5 -14 48 -21.5 q25.5 -7.5 52.5 -7.5 l482 0 q27 0 52.5 7.5 q25.5 7.5 48 21.5 q22.5 14 41 33.5 q18.5 19.5 30.5 43.5 l75 150 l285 0 q50 0 95.5 20.5 q45.5 20.5 80 55 q34.5 34.5 55 80 q20.5 45.5 20.5 95.5 l0 1162 q0 50 -20.5 95.5 q-20.5 45.5 -55 80 q-34.5 34.5 -80 55 q-45.5 20.5 -95.5 20.5 l-1546 0 ZM1792 1792 q27 0 50 -10 q23 -10 40.5 -27.5 q17.5 -17.5 27.5 -40.5 q10 -23 10 -50 l0 -1152 q0 -26 -10 -49.5 q-10 -23.5 -27.5 -41 q-17.5 -17.5 -41 -27.5 q-23.5 -10 -49.5 -10 l-320 0 q-18 0 -33.5 -9.5 q-15.5 -9.5 -23.5 -25.5 l-93 -186 q-8 -16 -23.5 -25.5 q-15.5 -9.5 -33.5 -9.5 l-482 0 q-18 0 -33.5 9.5 q-15.5 9.5 -23.5 25.5 l-93 186 q-8 16 -23.5 25.5 q-15.5 9.5 -33.5 9.5 l-320 0 q-27 0 -50 10 q-23 10 -40.5 27.5 q-17.5 17.5 -27.5 40.5 q-10 23 -10 50 l0 1152 q0 27 10 50.5 q10 23.5 27 40.5 q17 17 40.5 27 q23.5 10 50.5 10 l1536 0 ZM512 1014 q0 -101 40.5 -192 q40.5 -91 109.5 -160 q69 -69 160 -109.5 q91 -40.5 192 -40.5 q111 0 206.5 40 q95.5 40 165.5 110 q70 70 110 165.5 q40 95.5 40 206.5 q0 104 -41.5 195.5 q-41.5 91.5 -111.5 159.5 q-70 68 -163 107.5 q-93 39.5 -196 39.5 q-109 0 -202.5 -41 q-93.5 -41 -162.5 -112 q-69 -71 -108 -166 q-39 -95 -39 -203 ZM1408 1016 q0 -78 -31 -146.5 q-31 -68.5 -83.5 -119.5 q-52.5 -51 -122.5 -80.5 q-70 -29.5 -147 -29.5 q-80 0 -150 30 q-70 30 -122 82 q-52 52 -82 122 q-30 70 -30 150 q0 80 30 150 q30 70 82 122 q52 52 122 82 q70 30 150 30 q82 0 152.5 -30.5 q70.5 -30.5 122 -84 q51.5 -53.5 80.5 -125 q29 -71.5 29 -152.5 Z"/></svg>