<?xml version="1.0" encoding="utf-8"?>
<svg id="" width="16" height="16" style="width:16px;height:16px;" version="1.1" xmlns="http://www.w3.org/2000/svg" viewBox="0 0 2048 2048" enable-background="new 0 0 2048 2048" xml:space="preserve">
    <path fill="#ffffff" d="M2048 1945.06 q0 21.55 -8.38 40.1 q-8.38 18.55 -22.74 32.32 q-14.36 13.77 -32.91 21.55 q-18.56 7.78 -38.91 7.78 q-41.89 0 -71.82 -29.92 l-847.44 -847.45 l-847.45 847.45 q-29.93 29.92 -71.82 29.92 q-41.89 0 -71.81 -29.92 q-29.93 -29.92 -29.93 -71.82 q0 -41.89 29.92 -71.82 l847.45 -847.44 l-852.24 -851.04 q-29.92 -29.93 -29.92 -71.82 q0 -41.89 29.32 -72.41 q29.32 -30.52 72.41 -30.52 q43.09 0 73.02 29.92 l851.04 851.04 l847.44 -847.45 q29.93 -29.92 71.82 -29.92 q21.55 0 40.1 8.38 q18.55 8.38 32.32 22.15 q13.77 13.77 22.14 32.32 q8.38 18.55 8.38 40.1 q0 40.7 -31.12 71.82 l-847.45 847.45 l847.45 847.44 q15.56 15.56 23.34 32.32 q7.78 16.76 7.78 39.5 Z"/>
</svg>