<?xml version="1.0" encoding="utf-8"?>
<svg xmlns="http://www.w3.org/2000/svg" height="16" width="16" viewBox="0 0 16 16">
  <g>
    <path id="path1" transform="rotate(0,8,8) translate(-0.5,0) scale(0.03125,0.03125)  " fill="#000000" d="M80,0L83.140625,0.296876430511475 86.0625,1.18750381469727 88.765625,2.67187929153442 91.25,4.75 93.328125,7.2343864440918 94.8125,9.93751525878906 95.703125,12.8593864440918 96,16 96,138.25 217.75,37 228.804672241211,28.5312519073486 240.468734741211,21.1250038146973 252.7421875,14.7812538146973 265.625,9.5 278.9140625,5.34375858306885 292.40625,2.37500762939453 306.1015625,0.593752861022949 320,0 328.248046875,0.195313334465027 336.3671875,0.781252861022949 344.357421875,1.75781786441803 352.21875,3.12500762939453 359.951171875,4.88282155990601 367.5546875,7.03125858306885 375.029296875,9.5703182220459 382.375,12.5 396.4765625,19.3281288146973 409.65625,27.3125038146973 421.9140625,36.453125 433.25,46.75 443.546875,58.0859375 452.6875,70.34375 460.671875,83.5234451293945 467.5,97.625 470.4296875,104.970710754395 472.96875,112.445320129395 475.117156982422,120.048843383789 476.874969482422,127.781265258789 478.242156982422,135.642593383789 479.218719482422,143.6328125 479.8046875,151.751953125 480,160 479.763671875,168.935546875 479.054656982422,177.7421875 477.873016357422,186.419921875 476.218719482422,194.96875 474.091766357422,203.388671875 471.4921875,211.6796875 468.419921875,219.841796875 464.875,227.875 460.900390625,235.708984375 456.5390625,243.2734375 451.791015625,250.568359375 446.65625,257.59375 441.134765625,264.349609375 435.2265625,270.8359375 428.931640625,277.052734375 422.25,283 154.25,508.25 151.921875,509.890625 149.4375,511.0625 146.796875,511.765625 144,512 140.859375,511.703125 137.9375,510.8125 135.234375,509.328125 132.75,507.25 130.671875,504.765625 129.1875,502.0625 128.296875,499.140625 128,496 128.375,492.5625 129.5,489.25 131.3125,486.25 133.75,483.75 401.75,258.5 412.640625,248.359375 422.0625,237.4375 430.015625,225.734390258789 436.5,213.25 441.53125,200.109375 445.125,186.4375 447.28125,172.234375 448,157.5 447.7109375,149.1875 446.84375,141 445.3984375,132.9375 443.375,125 440.828094482422,117.234390258789 437.812469482422,109.687530517578 434.328125,102.359397888184 430.375,95.25 425.984375,88.3984451293945 421.1875,81.8437576293945 415.984375,75.5859375 410.375,69.625 404.4140625,64.015625 398.15625,58.8125038146973 391.6015625,54.0156288146973 384.75,49.625 377.640625,45.6718864440918 370.3125,42.1875114440918 362.765625,39.1718826293945 355,36.625 347.0625,34.6015739440918 339,33.1562690734863 330.8125,32.2890777587891 322.5,32 310.8828125,32.4531402587891 299.53125,33.8125190734863 288.4453125,36.0781364440918 277.625,39.25 267.1484375,43.3593788146973 257.09375,48.4375038146973 247.4609375,54.484375 238.25,61.5 120,160 240,160 243.140625,160.296875 246.0625,161.1875 248.765625,162.671875 251.25,164.75 253.328125,167.234390258789 254.8125,169.937515258789 255.703125,172.859390258789 256,176 255.703125,179.140625 254.8125,182.0625 253.328125,184.765625 251.25,187.25 248.765625,189.328140258789 246.0625,190.8125 243.140625,191.703125 240,192 80,192 76.859375,191.703125 73.9375,190.8125 71.234375,189.328140258789 68.75,187.25 66.671875,184.765625 65.1875,182.0625 64.296875,179.140625 64,176 64,16 64.296875,12.8593864440918 65.1875,9.93751525878906 66.671875,7.2343864440918 68.75,4.75 71.234375,2.67187929153442 73.9375,1.18750381469727 76.859375,0.296876430511475 80,0z" />
  </g>
</svg>
