<?xml version="1.0" encoding="utf-8"?>
<svg xmlns="http://www.w3.org/2000/svg" width="16" height="16" viewBox="0 0 2048 2048">
  <g transform="translate(0, 2048) scale(1, -1)">
    <path fill="#000000" d="M632 512Q557 512 488.5 542.5Q420 573 368.5 624.5Q317 676 286.5 744.5Q256 813 256 888V1672Q256 1747 286.5 1815.5Q317 1884 368.5 1935.5Q420 1987 488.5 2017.5Q557 2048 632 2048H1416Q1491 2048 1559.5 2017.5Q1628 1987 1679.5 1935.5Q1731 1884 1761.5 1815.5Q1792 1747 1792 1672V888Q1792 813 1761.5 744.5Q1731 676 1679.5 624.5Q1628 573 1559.5 542.5Q1491 512 1416 512ZM1024 1264Q1075 1264 1122.0 1244.5Q1169 1225 1205 1189L1629 766Q1664 825 1664 896V1669Q1664 1719 1643.5 1764.5Q1623 1810 1588.5 1844.5Q1554 1879 1508.5 1899.5Q1463 1920 1413 1920H635Q585 1920 539.5 1899.5Q494 1879 459.5 1844.5Q425 1810 404.5 1764.5Q384 1719 384 1669V896Q384 825 419 766L843 1189Q879 1225 926.0 1244.5Q973 1264 1024 1264ZM1216 1600Q1216 1627 1226.0 1650.0Q1236 1673 1253.5 1690.5Q1271 1708 1294.0 1718.0Q1317 1728 1344 1728Q1370 1728 1393.5 1718.0Q1417 1708 1434.5 1690.5Q1452 1673 1462.0 1649.5Q1472 1626 1472 1600Q1472 1573 1462.0 1550.0Q1452 1527 1434.5 1509.5Q1417 1492 1394.0 1482.0Q1371 1472 1344 1472Q1317 1472 1293.5 1482.0Q1270 1492 1253.0 1509.0Q1236 1526 1226.0 1549.5Q1216 1573 1216 1600ZM1408 640Q1479 640 1538 675L1115 1099Q1097 1117 1073.5 1127.0Q1050 1137 1024 1137Q971 1137 933 1099L510 675Q569 640 640 640ZM256 192Q256 219 266.0 242.0Q276 265 293.5 282.5Q311 300 334.0 310.0Q357 320 384 320Q410 320 433.5 310.0Q457 300 474.5 282.5Q492 265 502.0 241.5Q512 218 512 192Q512 165 502.0 142.0Q492 119 474.5 101.5Q457 84 434.0 74.0Q411 64 384 64Q357 64 333.5 74.0Q310 84 293.0 101.0Q276 118 266.0 141.5Q256 165 256 192ZM704 128Q678 128 659.0 147.0Q640 166 640 192Q640 218 659.0 237.0Q678 256 704 256H1600Q1626 256 1645.0 237.0Q1664 218 1664 192Q1664 166 1645.0 147.0Q1626 128 1600 128Z"/>
  </g>
</svg>