<?xml version="1.0" encoding="utf-8"?>
<svg id="" width="16" height="16" style="width:16px;height:16px;" version="1.1" xmlns="http://www.w3.org/2000/svg" viewBox="0 0 2048 2048" enable-background="new 0 0 2048 2048" xml:space="preserve">
    <path fill="#000" transform="translate(0, 400)" d="M290 1152 l-162 0 q-52 0 -90 -38 q-38 -38 -38 -90 l0 -256 q0 -58 17 -112.5 q17 -54.5 48 -101 q31 -46.5 74.5 -83 q43.5 -36.5 97.5 -58.5 q48 -20 91 -24.5 q43 -4.5 94 -4.5 l327 -328 q27 -27 62.5 -41.5 q35.5 -14.5 73.5 -14.5 l907 0 q26 0 45 19 q19 19 19 45 q0 22 -8.5 34.5 q-8.5 12.5 -21.5 19 q-13 6.5 -30 8.5 q-17 2 -33 2 l256 563 q20 45 24.5 82 q4.5 37 4.5 80 l0 43 q0 38 -10.5 73.5 q-10.5 35.5 -30.5 65.5 q-20 30 -48 54 q-28 24 -62 40 q-32 69 -94.5 110 q-62.5 41 -138.5 41 q-69 0 -128 -34.5 q-59 -34.5 -94 -93.5 l-708 0 q-35 59 -94 93.5 q-59 34.5 -128 34.5 q-69 0 -128 -34.5 q-59 -34.5 -94 -93.5 ZM603 384 l549 0 l0 -256 l-267 0 q-26 0 -45 19 l-237 237 ZM1280 384 l459 0 l-99 -219 q-8 -17 -23.5 -27 q-15.5 -10 -34.5 -10 l-302 0 l0 256 ZM256 1024 l0 -5 q0 -52 21 -97.5 q21 -45.5 56 -79.5 q35 -34 81.5 -54 q46.5 -20 97.5 -20 q49 0 95.5 20 q46.5 20 82 53.5 q35.5 33.5 57 78.5 q21.5 45 21.5 96 l0 8 l384 0 l0 -512 l-768 0 q-53 0 -100 20 q-47 20 -81.5 54.5 q-34.5 34.5 -54.5 81.5 q-20 47 -20 100 l0 256 l128 0 ZM1408 1024 q0 -52 20.5 -98.5 q20.5 -46.5 55 -81.5 q34.5 -35 80 -55.5 q45.5 -20.5 95.5 -20.5 q43 0 83 12.5 q40 12.5 72.5 36 q32.5 23.5 57 57 q24.5 33.5 37.5 75.5 q11 -27 11 -53 l0 -73 q0 -42 -17 -79 l-106 -232 l-517 0 l0 512 l128 0 ZM640 1024 q0 -26 -10 -49.5 q-10 -23.5 -27.5 -41 q-17.5 -17.5 -41 -27.5 q-23.5 -10 -49.5 -10 q-27 0 -50 10 q-23 10 -40.5 27.5 q-17.5 17.5 -27.5 40.5 q-10 23 -10 50 q0 27 10 50.5 q10 23.5 27 40.5 q17 17 40.5 27 q23.5 10 50.5 10 q27 0 50 -10 q23 -10 40.5 -27.5 q17.5 -17.5 27.5 -40.5 q10 -23 10 -50 ZM1792 1024 q0 -26 -10 -49.5 q-10 -23.5 -27.5 -41 q-17.5 -17.5 -41 -27.5 q-23.5 -10 -49.5 -10 q-27 0 -50 10 q-23 10 -40.5 27.5 q-17.5 17.5 -27.5 40.5 q-10 23 -10 50 q0 27 10 50.5 q10 23.5 27 40.5 q17 17 40.5 27 q23.5 10 50.5 10 q27 0 50 -10 q23 -10 40.5 -27.5 q17.5 -17.5 27.5 -40.5 q10 -23 10 -50 Z"/>
</svg>