<?xml version="1.0" encoding="utf-8"?>
<svg xmlns="http://www.w3.org/2000/svg" width="16" height="16" viewBox="0 0 2048 2048">
  <g transform="translate(0, 2048) scale(1, -1)">
    <path fill="#000000" d="M0 1536Q0 1588 20.0 1635.0Q40 1682 74.5 1716.5Q109 1751 155.0 1771.5Q201 1792 254 1792H1795Q1847 1792 1893.5 1772.0Q1940 1752 1974.0 1717.0Q2008 1682 2028.0 1635.5Q2048 1589 2048 1537Q2048 1495 2036.5 1460.0Q2025 1425 2002 1390L1336 421Q1283 344 1200.5 300.0Q1118 256 1024 256Q930 256 847.5 300.0Q765 344 712 421L46 1390Q23 1424 11.5 1459.0Q0 1494 0 1536ZM1024 514Q1054 514 1081.0 527.5Q1108 541 1125 566L1791 1535H258L923 566Q940 541 967.5 527.5Q995 514 1024 514Z"/>
  </g>
</svg>