<?xml version="1.0" encoding="utf-8"?>
<svg id="" width="16" height="16" style="width:16px;height:16px;" version="1.1"
    xmlns="http://www.w3.org/2000/svg" viewBox="0 0 2048 2048" enable-background="new 0 0 2048 2048"
    xml:space="preserve"><path fill="#FFFFFF" transform="translate(0, 350)" d="M179.43 1316.57 q-37.72 0 -70.29 -14.86 q-32.57 -14.86 -57.14 -40 q-24.57 -25.14 -38.28 -58.29 q-13.71 -33.14 -13.71 -70.86 q0 -68.57 44.57 -120 l790.86 -924.57 q36.57 -42.29 84.57 -65.14 q48 -22.86 104 -22.86 q113.14 0 188.57 88 l790.86 924.57 q44.57 51.43 44.57 120 q0 37.72 -13.72 70.86 q-13.71 33.14 -38.28 58.29 q-24.57 25.14 -57.14 40 q-32.57 14.86 -70.29 14.86 l-1689.14 0 Z"/></svg>