<?xml version="1.0" encoding="utf-8"?>
<svg id="" width="16" height="16" style="width:16px;height:16px;" version="1.1"
    xmlns="http://www.w3.org/2000/svg" viewBox="0 0 2048 2048" enable-background="new 0 0 2048 2048"
    xml:space="preserve"><path fill="#FFFFFF" d="M256 1024 q0 -94 44 -176.5 q44 -82.5 121 -135.5 l969 -666 q34 -23 69 -34.5 q35 -11.5 77 -11.5 q52 0 99 20 q47 20 81.5 54.5 q34.5 34.5 55 80.5 q20.5 46 20.5 99 l0 1540 q0 53 -20.5 99 q-20.5 46 -55 80.5 q-34.5 34.5 -81.5 54.5 q-47 20 -99 20 q-79 0 -146 -46 l-969 -666 q-77 -53 -121 -135.5 q-44 -82.5 -44 -176.5 Z"/></svg>