<?xml version="1.0" encoding="utf-8"?>
<svg xmlns="http://www.w3.org/2000/svg" width="16" height="16" viewBox="0 0 2048 2048">
  <g transform="translate(0, 2048) scale(1, -1)">
    <path fill="#000000" d="M256 254V1794Q256 1847 276.5 1893.0Q297 1939 331.5 1973.5Q366 2008 412.5 2028.0Q459 2048 512 2048Q591 2048 658 2002L1627 1336Q1705 1282 1748.5 1200.0Q1792 1118 1792 1024Q1792 930 1748.5 848.0Q1705 766 1627 712L658 46Q591 0 512 0Q459 0 412.5 20.0Q366 40 331.5 74.5Q297 109 276.5 155.0Q256 201 256 254ZM1536 1024Q1536 1055 1522.0 1081.5Q1508 1108 1482 1125L512 1794V254L1482 923Q1508 940 1522.0 966.5Q1536 993 1536 1024Z"/>
  </g>
</svg>