<?xml version="1.0" encoding="utf-8"?>
<svg xmlns="http://www.w3.org/2000/svg" width="16" height="16" viewBox="0 0 2048 2048">
  <g transform="translate(0, 2048) scale(1, -1)">
    <path fill="#000000" d="M256 1024Q256 1118 300.0 1200.5Q344 1283 421 1336L1390 2002Q1424 2025 1459.0 2036.5Q1494 2048 1536 2048Q1588 2048 1635.0 2028.0Q1682 2008 1716.5 1973.5Q1751 1939 1771.5 1893.0Q1792 1847 1792 1794V254Q1792 201 1771.5 155.0Q1751 109 1716.5 74.5Q1682 40 1635.0 20.0Q1588 0 1536 0Q1457 0 1390 46L421 712Q344 765 300.0 847.5Q256 930 256 1024ZM1536 254V1794L566 1125Q540 1108 526.0 1081.5Q512 1055 512 1024Q512 993 526.0 966.5Q540 940 566 923Z"/>
  </g>
</svg>