<?xml version="1.0" encoding="utf-8"?>
<svg xmlns="http://www.w3.org/2000/svg" width="16" height="16" viewBox="0 0 2048 2048">
  <g transform="translate(0, 2048) scale(1, -1)">
    <path fill="#ffffff" d="M128 1375Q128 1408 140.0 1437.0Q152 1466 173.5 1488.0Q195 1510 223.5 1523.0Q252 1536 285 1536H1763Q1796 1536 1824.5 1523.0Q1853 1510 1874.5 1488.0Q1896 1466 1908.0 1437.0Q1920 1408 1920 1375Q1920 1315 1881 1270L1189 461Q1157 424 1115.0 404.0Q1073 384 1024 384Q975 384 933.0 404.0Q891 424 859 461L167 1270Q128 1315 128 1375Z"/>
  </g>
</svg>