<?xml version="1.0" encoding="utf-8"?>
<svg xmlns="http://www.w3.org/2000/svg" width="16" height="16" viewBox="0 0 2048 2048">
  <g transform="translate(0, 2048) scale(1, -1)">
    <path fill="#ffffff" d="M673 128Q640 128 611.0 140.0Q582 152 560.0 173.5Q538 195 525.0 223.5Q512 252 512 285V1763Q512 1796 525.0 1824.5Q538 1853 560.0 1874.5Q582 1896 611.0 1908.0Q640 1920 673 1920Q733 1920 778 1881L1587 1189Q1664 1123 1664 1024Q1664 975 1644.0 933.0Q1624 891 1587 859L778 167Q733 128 673 128Z"/>
  </g>
</svg>