<?xml version="1.0" encoding="utf-8"?>
<svg xmlns="http://www.w3.org/2000/svg" width="16" height="16" viewBox="0 0 2048 2048">
  <g transform="translate(0, 2048) scale(1, -1)">
    <path fill="#ffffff" d="M0 255Q0 306 20.0 353.0Q40 400 75 435L1614 1973Q1649 2008 1695.5 2028.0Q1742 2048 1793 2048Q1845 2048 1891.5 2028.0Q1938 2008 1973.0 1973.0Q2008 1938 2028.0 1891.5Q2048 1845 2048 1793V375Q2048 300 2017.5 232.0Q1987 164 1935.5 112.5Q1884 61 1816.0 30.5Q1748 0 1673 0H255Q202 0 156.0 20.0Q110 40 75.0 75.0Q40 110 20.0 156.0Q0 202 0 255Z"/>
  </g>
</svg>