<?xml version="1.0" encoding="utf-8"?>
<svg id="" width="16" height="16" style="width:16px;height:16px;" version="1.1"
    xmlns="http://www.w3.org/2000/svg" viewBox="0 0 2048 2048" enable-background="new 0 0 2048 2048"
    xml:space="preserve"><path fill="#000000" transform="translate(0, 400)" d="M0 184 q0 -37.71 13.71 -70.86 q13.71 -33.14 38.28 -58.29 q24.57 -25.15 57.14 -40 q32.57 -14.86 70.29 -14.86 l1689.14 0 q37.72 0 70.29 14.86 q32.57 14.86 57.14 40 q24.57 25.14 38.28 58.29 q13.72 33.14 13.72 70.86 q0 68.57 -44.57 120 l-790.86 924.57 q-36.57 42.29 -84.57 65.14 q-48 22.86 -104 22.86 q-56 0 -104 -22.86 q-48 -22.86 -84.57 -65.14 l-790.86 -924.57 q-44.57 -51.43 -44.57 -120 Z"/></svg>