<?xml version="1.0" encoding="utf-8"?>
<svg id="" width="16" height="16" style="width:16px;height:16px;" version="1.1"
    xmlns="http://www.w3.org/2000/svg" viewBox="0 0 2048 2048" enable-background="new 0 0 2048 2048"
    xml:space="preserve"><path fill="#000000" d="M256 1794 l0 -1540 q0 -53 20.5 -99 q20.5 -46 55 -80.5 q34.5 -34.5 81 -54.5 q46.5 -20 99.5 -20 q79 0 146 46 l969 666 q78 54 121.5 136 q43.5 82 43.5 176 q0 94 -43.5 176 q-43.5 82 -121.5 136 l-969 666 q-67 46 -146 46 q-53 0 -99.5 -20 q-46.5 -20 -81 -54.5 q-34.5 -34.5 -55 -80.5 q-20.5 -46 -20.5 -99 Z"/></svg>