<?xml version="1.0" encoding="utf-8"?>
<svg xmlns="http://www.w3.org/2000/svg" width="16" height="16" viewBox="0 0 2048 2048">
  <g transform="translate(0, 2048) scale(1, -1)">
    <path fill="#ffffff" d="M384 1024Q384 1073 404.0 1115.0Q424 1157 461 1189L1270 1881Q1315 1920 1375 1920Q1408 1920 1437.0 1908.0Q1466 1896 1488.0 1874.5Q1510 1853 1523.0 1824.5Q1536 1796 1536 1763V285Q1536 252 1523.0 223.5Q1510 195 1488.0 173.5Q1466 152 1437.0 140.0Q1408 128 1375 128Q1315 128 1270 167L461 859Q424 891 404.0 933.0Q384 975 384 1024Z"/>
  </g>
</svg>