<?xml version="1.0" encoding="utf-8"?>
<svg xmlns="http://www.w3.org/2000/svg" width="16" height="16" viewBox="0 0 2048 2048">
  <g transform="translate(0, 2048) scale(1, -1)">
    <path fill="#ffffff" d="M285 512Q252 512 223.5 525.0Q195 538 173.5 560.0Q152 582 140.0 611.0Q128 640 128 673Q128 733 167 778L859 1587Q891 1624 933.0 1644.0Q975 1664 1024 1664Q1123 1664 1189 1587L1881 778Q1920 733 1920 673Q1920 640 1908.0 611.0Q1896 582 1874.5 560.0Q1853 538 1824.5 525.0Q1796 512 1763 512Z"/>
  </g>
</svg>