<?xml version="1.0" encoding="utf-8"?>
<svg xmlns="http://www.w3.org/2000/svg" width="16" height="16" viewBox="0 0 2048 2048">
  <g transform="translate(0, 2048) scale(1, -1)">
    <path fill="#ffffff" d="M254 256Q201 256 155.0 276.5Q109 297 74.5 331.5Q40 366 20.0 412.5Q0 459 0 512Q0 554 11.5 589.0Q23 624 46 658L712 1627Q738 1665 773.0 1694.0Q808 1723 848.5 1742.5Q889 1762 934.0 1772.0Q979 1782 1024 1782Q1069 1782 1114.0 1772.0Q1159 1762 1199.5 1742.5Q1240 1723 1275.0 1694.0Q1310 1665 1336 1627L2002 658Q2025 624 2036.5 589.0Q2048 554 2048 512Q2048 459 2028.0 412.5Q2008 366 1974.0 331.5Q1940 297 1893.5 276.5Q1847 256 1795 256Z"/>
  </g>
</svg>