<?xml version="1.0" encoding="utf-8"?>
<svg xmlns="http://www.w3.org/2000/svg" width="16" height="16" viewBox="0 0 2048 2048">
  <g transform="translate(0, 2048) scale(1, -1)">
    <path fill="#ffffff" d="M2048 832V448Q2048 409 2033.0 374.0Q2018 339 1991.5 312.5Q1965 286 1930.0 271.0Q1895 256 1856 256H192Q153 256 118.0 271.0Q83 286 56.5 312.5Q30 339 15.0 374.0Q0 409 0 448V832Q0 843 2.5 850.0Q5 857 10 866L415 1685Q440 1735 485.5 1763.5Q531 1792 587 1792H1461Q1516 1792 1562.5 1763.5Q1609 1735 1634 1685L2038 866Q2043 856 2045.5 849.5Q2048 843 2048 832ZM294 1152H651L754 1664H587Q568 1664 552.5 1654.5Q537 1645 529 1628ZM1266 1152 1163 1664H885L782 1152ZM1461 1664H1294L1397 1152H1754L1519 1628Q1511 1645 1495.5 1654.5Q1480 1664 1461 1664ZM1818 1024H230L167 896H1881ZM1920 768H128V448Q128 422 147.0 403.0Q166 384 192 384H1856Q1882 384 1901.0 403.0Q1920 422 1920 448ZM832 512Q806 512 787.0 531.0Q768 550 768 576Q768 602 787.0 621.0Q806 640 832 640H1216Q1242 640 1261.0 621.0Q1280 602 1280 576Q1280 550 1261.0 531.0Q1242 512 1216 512Z"/>
  </g>
</svg>