<?xml version="1.0" encoding="utf-8"?>
<svg xmlns="http://www.w3.org/2000/svg" width="16" height="16" viewBox="0 0 2048 2048">
  <g transform="translate(0, 2048) scale(1, -1)">
    <path fill="#ffffff" d="M376 256Q301 256 232.5 286.5Q164 317 112.5 368.5Q61 420 30.5 488.5Q0 557 0 632V1416Q0 1491 30.5 1559.5Q61 1628 112.5 1679.5Q164 1731 232.5 1761.5Q301 1792 376 1792H1672Q1747 1792 1815.5 1761.5Q1884 1731 1935.5 1679.5Q1987 1628 2017.5 1559.5Q2048 1491 2048 1416V632Q2048 557 2017.5 488.5Q1987 420 1935.5 368.5Q1884 317 1815.5 286.5Q1747 256 1672 256ZM1669 384Q1719 384 1764.5 404.5Q1810 425 1844.5 459.5Q1879 494 1899.5 539.5Q1920 585 1920 635V1413Q1920 1463 1899.5 1508.5Q1879 1554 1844.5 1588.5Q1810 1623 1764.5 1643.5Q1719 1664 1669 1664H379Q329 1664 283.5 1643.5Q238 1623 203.5 1588.5Q169 1554 148.5 1508.5Q128 1463 128 1413V635Q128 585 148.5 539.5Q169 494 203.5 459.5Q238 425 283.5 404.5Q329 384 379 384ZM384 1024Q384 1092 402.0 1160.5Q420 1229 456.5 1283.5Q493 1338 549.5 1372.0Q606 1406 684 1406Q708 1406 744.0 1397.5Q780 1389 813.5 1372.5Q847 1356 871.5 1332.5Q896 1309 896 1280Q896 1254 877.0 1235.0Q858 1216 832 1216Q815 1216 801.0 1225.5Q787 1235 771.0 1247.0Q755 1259 735.0 1268.5Q715 1278 685 1278Q636 1278 603.0 1253.5Q570 1229 549.5 1191.5Q529 1154 520.5 1109.0Q512 1064 512 1024Q512 984 520.5 939.0Q529 894 549.5 856.5Q570 819 603.0 794.5Q636 770 685 770Q715 770 735.0 779.5Q755 789 771.0 801.0Q787 813 801.0 822.5Q815 832 832 832Q858 832 877.0 813.0Q896 794 896 768Q896 739 871.5 715.5Q847 692 813.5 675.5Q780 659 744.0 650.5Q708 642 684 642Q606 642 549.5 676.0Q493 710 456.5 764.5Q420 819 402.0 887.5Q384 956 384 1024ZM1088 1024Q1088 1092 1106.0 1160.5Q1124 1229 1160.5 1283.5Q1197 1338 1253.5 1372.0Q1310 1406 1388 1406Q1412 1406 1448.0 1397.5Q1484 1389 1517.5 1372.5Q1551 1356 1575.5 1332.5Q1600 1309 1600 1280Q1600 1254 1581.0 1235.0Q1562 1216 1536 1216Q1519 1216 1505.0 1225.5Q1491 1235 1475.0 1247.0Q1459 1259 1439.0 1268.5Q1419 1278 1389 1278Q1340 1278 1307.0 1253.5Q1274 1229 1253.5 1191.5Q1233 1154 1224.5 1109.0Q1216 1064 1216 1024Q1216 984 1224.5 939.0Q1233 894 1253.5 856.5Q1274 819 1307.0 794.5Q1340 770 1389 770Q1419 770 1439.0 779.5Q1459 789 1475.0 801.0Q1491 813 1505.0 822.5Q1519 832 1536 832Q1562 832 1581.0 813.0Q1600 794 1600 768Q1600 739 1575.5 715.5Q1551 692 1517.5 675.5Q1484 659 1448.0 650.5Q1412 642 1388 642Q1310 642 1253.5 676.0Q1197 710 1160.5 764.5Q1124 819 1106.0 887.5Q1088 956 1088 1024Z"/>
  </g>
</svg>