<?xml version="1.0" encoding="utf-8"?>
<svg xmlns="http://www.w3.org/2000/svg" width="16" height="16" viewBox="0 0 2048 2048">
  <g transform="translate(0, 2048) scale(1, -1)">
    <path fill="#000000" d="M635 0Q585 0 539.5 20.5Q494 41 459.5 75.5Q425 110 404.5 155.5Q384 201 384 251V1797Q384 1847 404.5 1892.5Q425 1938 459.5 1972.5Q494 2007 539.5 2027.5Q585 2048 635 2048H1413Q1463 2048 1508.5 2027.5Q1554 2007 1588.5 1972.5Q1623 1938 1643.5 1892.5Q1664 1847 1664 1797V251Q1664 201 1643.5 155.5Q1623 110 1588.5 75.5Q1554 41 1508.5 20.5Q1463 0 1413 0ZM1408 128Q1435 128 1458.0 138.0Q1481 148 1498.5 165.5Q1516 183 1526.0 206.0Q1536 229 1536 256V1792Q1536 1818 1526.0 1841.5Q1516 1865 1498.5 1882.5Q1481 1900 1457.5 1910.0Q1434 1920 1408 1920H640Q613 1920 590.0 1910.0Q567 1900 549.5 1882.5Q532 1865 522.0 1842.0Q512 1819 512 1792V256Q512 229 522.0 205.5Q532 182 549.0 165.0Q566 148 589.5 138.0Q613 128 640 128ZM896 384Q870 384 851.0 403.0Q832 422 832 448Q832 474 851.0 493.0Q870 512 896 512H1152Q1178 512 1197.0 493.0Q1216 474 1216 448Q1216 422 1197.0 403.0Q1178 384 1152 384Z"/>
  </g>
</svg>