<?xml version="1.0" encoding="utf-8"?>
<svg id="" width="16" height="16" style="width:16px;height:16px;" version="1.1" xmlns="http://www.w3.org/2000/svg" viewBox="0 0 2048 2048" enable-background="new 0 0 2048 2048" xml:space="preserve">
    <path fill="#000" transform="translate(0, 100)" d="M376 1536 q-75 0 -143.5 -30.5 q-68.5 -30.5 -120 -82 q-51.5 -51.5 -82 -120 q-30.5 -68.5 -30.5 -143.5 l0 -784 q0 -75 30.5 -143.5 q30.5 -68.5 82 -120 q51.5 -51.5 120 -82 q68.5 -30.5 143.5 -30.5 l1296 0 q75 0 143.5 30.5 q68.5 30.5 120 82 q51.5 51.5 82 120 q30.5 68.5 30.5 143.5 l0 45 q-63 -68 -139 -113 q-13 -40 -37 -73 q-24 -33 -56.5 -57 q-32.5 -24 -71 -37 q-38.5 -13 -80.5 -13 l-1285 0 q-50 0 -95.5 20.5 q-45.5 20.5 -80 55 q-34.5 34.5 -55 80 q-20.5 45.5 -20.5 95.5 l0 778 q0 52 21 97.5 q21 45.5 56 79.5 q35 34 81.5 54 q46.5 20 97.5 20 l768 0 l0 128 l-776 0 ZM448 512 q-26 0 -45 -19 q-19 -19 -19 -45 q0 -26 19 -45 q19 -19 45 -19 l640 0 q26 0 45 19 q19 19 19 45 q0 26 -19 45 q-19 19 -45 19 l-640 0 ZM1152 824 q0 -90 36.5 -170 q36.5 -80 98 -140 q61.5 -60 142.5 -95 q81 -35 171 -35 q92 0 173.5 35.5 q81.5 35.5 142.5 96.5 q61 61 96.5 142.5 q35.5 81.5 35.5 173.5 q0 92 -35.5 173.5 q-35.5 81.5 -96.5 142.5 q-61 61 -142.5 96.5 q-81.5 35.5 -173.5 35.5 q-95 0 -177 -36 q-82 -36 -142 -98 q-60 -62 -94.5 -145 q-34.5 -83 -34.5 -177 ZM448 1152 q-26 0 -45 -19 q-19 -19 -19 -45 q0 -26 19 -45 q19 -19 45 -19 l512 0 q26 0 45 19 q19 19 19 45 q0 26 -19 45 q-19 19 -45 19 l-512 0 ZM1344 1787 q-27 0 -45.5 -18.5 q-18.5 -18.5 -18.5 -45.5 l0 -374 q72 45 153.5 68 q81.5 23 166.5 23 q85 0 166.5 -23 q81.5 -23 153.5 -68 l0 374 q0 27 -18.5 45.5 q-18.5 18.5 -45.5 18.5 q-23 0 -40 -14 l-176 -141 q-17 -14 -40 -14 q-23 0 -40 14 l-176 141 q-17 14 -40 14 Z"/>
</svg>