<?xml version="1.0" encoding="utf-8"?>
<svg xmlns="http://www.w3.org/2000/svg" width="16" height="16" viewBox="0 0 2048 2048">
  <g transform="translate(0, 2048) scale(1, -1)">
    <path fill="#ffffff" d="M768 1664V1856Q768 1882 787.0 1901.0Q806 1920 832 1920H1280V1954Q1280 1971 1282.0 1988.0Q1284 2005 1290.5 2018.5Q1297 2032 1310.0 2040.0Q1323 2048 1344 2048Q1366 2048 1378.5 2039.5Q1391 2031 1397.5 2017.5Q1404 2004 1406.0 1986.5Q1408 1969 1408 1952V1920H1856Q1882 1920 1901.0 1901.0Q1920 1882 1920 1856V1664Q1920 1638 1901.0 1619.0Q1882 1600 1856 1600Q1830 1600 1811.0 1619.0Q1792 1638 1792 1664V1792H896V1664Q896 1638 877.0 1619.0Q858 1600 832 1600Q806 1600 787.0 1619.0Q768 1638 768 1664ZM1184 896Q1158 896 1139.0 915.0Q1120 934 1120 960Q1120 982 1129.0 995.0Q1138 1008 1152.0 1015.0Q1166 1022 1183.5 1024.0Q1201 1026 1218 1026Q1230 1026 1241 1025H1257Q1268 1024 1280 1024V1280H896Q870 1280 851.0 1299.0Q832 1318 832 1344Q832 1370 851.0 1389.0Q870 1408 896 1408H1280Q1280 1434 1299 1453L1382 1536H1024Q998 1536 979.0 1555.0Q960 1574 960 1600Q960 1626 979.0 1645.0Q998 1664 1024 1664H1536Q1562 1664 1581.0 1645.0Q1600 1626 1600 1600Q1600 1574 1581 1555L1435 1408H1792Q1818 1408 1837.0 1389.0Q1856 1370 1856 1344Q1856 1318 1837.0 1299.0Q1818 1280 1792 1280H1408V1024Q1408 997 1398.0 974.0Q1388 951 1370.5 933.5Q1353 916 1330.0 906.0Q1307 896 1280 896ZM934 384H346L251 166Q243 149 226.5 138.5Q210 128 191 128Q165 128 146.5 147.0Q128 166 128 192Q128 208 133 218L581 1242Q589 1259 605.5 1268.0Q622 1277 640 1277Q659 1277 675.0 1268.5Q691 1260 699 1242L1147 218Q1152 208 1152 192Q1152 165 1133.5 146.5Q1115 128 1088 128Q1069 128 1053.0 138.5Q1037 149 1029 166ZM640 1056 402 512H878Z"/>
  </g>
</svg>