<?xml version="1.0" encoding="utf-8"?>
<svg xmlns="http://www.w3.org/2000/svg" width="16" height="16" viewBox="0 0 2048 2048">
  <g transform="translate(0, 2048) scale(1, -1)">
    <path fill="#000000" d="M256 1664V1536Q256 1510 237.0 1491.0Q218 1472 192 1472Q166 1472 147.0 1491.0Q128 1510 128 1536V1728Q128 1754 147.0 1773.0Q166 1792 192 1792H576Q576 1800 575.5 1808.5Q575 1817 575 1826Q575 1843 577.0 1859.5Q579 1876 585.5 1889.5Q592 1903 605.0 1911.5Q618 1920 640 1920Q662 1920 674.5 1911.5Q687 1903 693.5 1889.5Q700 1876 702.0 1859.5Q704 1843 704 1826V1792H1088Q1114 1792 1133.0 1773.0Q1152 1754 1152 1728V1536Q1152 1510 1133.0 1491.0Q1114 1472 1088 1472Q1062 1472 1043.0 1491.0Q1024 1510 1024 1536V1664ZM2048 1385Q2048 1358 2039.0 1331.5Q2030 1305 2015 1282L1889 1098Q1740 881 1569.5 684.0Q1399 487 1204 309Q1204 255 1184.5 211.5Q1165 168 1131.5 133.5Q1098 99 1054.0 74.0Q1010 49 961.5 32.5Q913 16 863.5 8.0Q814 0 769 0Q746 0 718.0 1.5Q690 3 661.0 7.0Q632 11 605.0 16.5Q578 22 557 30Q536 38 524.0 52.5Q512 67 512 90Q512 120 535 140Q563 164 592.5 186.5Q622 209 648 236Q669 258 676.5 284.5Q684 311 687 340Q690 368 693.5 392.0Q697 416 704.5 438.0Q712 460 725.5 480.0Q739 500 760 521Q786 547 819.5 564.0Q853 581 889 590Q1215 1028 1637 1374L1781 1492Q1806 1512 1835.0 1524.0Q1864 1536 1896 1536Q1927 1536 1954.5 1524.0Q1982 1512 2003.0 1491.5Q2024 1471 2036.0 1443.5Q2048 1416 2048 1385ZM640 896V1152H320Q294 1152 275.0 1171.0Q256 1190 256 1216Q256 1242 275.0 1261.0Q294 1280 320 1280H640Q640 1293 648.5 1311.0Q657 1329 669.0 1347.0Q681 1365 693.0 1381.0Q705 1397 712 1408H448Q422 1408 403.0 1427.0Q384 1446 384 1472Q384 1498 403.0 1517.0Q422 1536 448 1536H832Q858 1536 877.0 1517.0Q896 1498 896 1472Q896 1453 885 1437L781 1280H1088Q1114 1280 1133.0 1261.0Q1152 1242 1152 1216Q1152 1190 1133.0 1171.0Q1114 1152 1088 1152H768V896Q768 869 758.0 846.0Q748 823 730.5 805.5Q713 788 690.0 778.0Q667 768 640 768H576Q550 768 531.0 787.0Q512 806 512 832Q512 854 520.5 866.5Q529 879 542.5 885.5Q556 892 572.5 894.0Q589 896 606 896ZM1920 1384Q1920 1394 1912.0 1400.5Q1904 1407 1895 1407Q1878 1407 1863 1394L1718 1275Q1529 1120 1360.0 946.5Q1191 773 1041 579Q1085 561 1119.0 529.5Q1153 498 1174 456Q1517 780 1784 1170Q1789 1178 1801.0 1195.0Q1813 1212 1828.5 1233.0Q1844 1254 1860.0 1278.0Q1876 1302 1889.5 1323.0Q1903 1344 1911.5 1360.5Q1920 1377 1920 1384ZM1076 317Q1076 345 1068.5 372.5Q1061 400 1045.5 422.0Q1030 444 1006.5 457.0Q983 470 951 470Q925 470 896.5 459.0Q868 448 850 430Q828 409 822.0 385.0Q816 361 814 332Q812 302 804.5 270.5Q797 239 784 212Q773 189 757.5 168.5Q742 148 723 130Q733 129 743.0 128.5Q753 128 763 128Q791 128 825.0 132.0Q859 136 893.5 145.5Q928 155 961.0 169.5Q994 184 1019.5 205.0Q1045 226 1060.5 254.0Q1076 282 1076 317Z"/>
  </g>
</svg>