<?xml version="1.0" encoding="utf-8"?>
<svg id="" width="16" height="16" style="width:16px;height:16px;" version="1.1"
    xmlns="http://www.w3.org/2000/svg" viewBox="0 0 2048 2048" enable-background="new 0 0 2048 2048"
    xml:space="preserve"><path fill="#ffffff" d="M384 1433 q-11 4 -37 13 q-26 9 -59.5 20.5 q-33.5 11.5 -69.5 23.5 q-36 12 -68 22.5 q-32 10.5 -55.5 17 q-23.5 6.5 -30.5 6.5 q-27 0 -45.5 -19.5 q-18.5 -19.5 -18.5 -45.5 q0 -7 6 -31.5 q6 -24.5 15.5 -58 q9.5 -33.5 20.5 -72 q11 -38.5 21.5 -73.5 q10.5 -35 19 -62 q8.5 -27 11.5 -38 q-94 -173 -94 -368 q0 -106 27.5 -204 q27.5 -98 77.5 -183.5 q50 -85.5 120 -155.5 q70 -70 155.5 -120 q85.5 -50 183.5 -77.5 q98 -27.5 204 -27.5 q159 0 298.5 60.5 q139.5 60.5 244 165 q104.5 104.5 165 244 q60.5 139.5 60.5 298.5 q0 106 -27.5 204 q-27.5 98 -77.5 183.5 q-50 85.5 -120 155.5 q-70 70 -155.5 120 q-85.5 50 -183.5 77.5 q-98 27.5 -204 27.5 q-101 0 -198.5 -26 q-97.5 -26 -185.5 -77 ZM1408 768 q0 -133 -50 -249.5 q-50 -116.5 -137 -203.5 q-87 -87 -203.5 -137 q-116.5 -50 -249.5 -50 q-133 0 -249.5 50 q-116.5 50 -203.5 137 q-87 87 -137 203.5 q-50 116.5 -50 249.5 q0 91 23.5 169 q23.5 78 65.5 158 q5 8 7 15.5 q2 7.5 2 17.5 q0 8 -4 26.5 q-4 18.5 -10.5 42 q-6.5 23.5 -14.5 50 q-8 26.5 -15.5 51 q-7.5 24.5 -13.5 45 q-6 20.5 -9 30.5 q14 -4 48 -16.5 q34 -12.5 71.5 -25 q37.5 -12.5 69.5 -22.5 q32 -10 42 -10 q19 0 36 10 q42 24 82 42 q40 18 81.5 31 q41.5 13 85.5 19.5 q44 6.5 93 6.5 q133 0 249.5 -50 q116.5 -50 203.5 -137 q87 -87 137 -203.5 q50 -116.5 50 -249.5 ZM576 704 q-26 0 -45 -19 q-19 -19 -19 -45 q0 -26 19 -45 q19 -19 45 -19 l384 0 q26 0 45 19 q19 19 19 45 q0 26 -19 45 q-19 19 -45 19 l-384 0 ZM607 1649 q79 15 161 15 q93 122 225.5 189 q132.5 67 286.5 67 q49 0 92.5 -6.5 q43.5 -6.5 85 -19 q41.5 -12.5 82 -31 q40.5 -18.5 82.5 -42.5 q17 -10 36 -10 q10 0 42 10 q32 10 69.5 22.5 q37.5 12.5 71.5 25 q34 12.5 48 16.5 q-3 -10 -9 -30.5 q-6 -20.5 -13.5 -45 q-7.5 -24.5 -15.5 -51 q-8 -26.5 -14.5 -50 q-6.5 -23.5 -10.5 -42 q-4 -18.5 -4 -26.5 q0 -10 2 -17.5 q2 -7.5 7 -15.5 q21 -40 37.5 -79 q16.5 -39 28 -79 q11.5 -40 17.5 -81.5 q6 -41.5 6 -87.5 q0 -75 -17.5 -147.5 q-17.5 -72.5 -50.5 -138.5 q-33 -66 -80.5 -123.5 q-47.5 -57.5 -107.5 -102.5 q0 -79 -14 -161 q91 49 164.5 121 q73.5 72 125.5 159 q52 87 80 186 q28 99 28 202 q0 100 -22.5 192.5 q-22.5 92.5 -70.5 180.5 q3 11 11.5 38.5 q8.5 27.5 18.5 62.5 q10 35 21.5 73.5 q11.5 38.5 20.5 72 q9 33.5 15 57.5 q6 24 6 31 q0 26 -18.5 45.5 q-18.5 19.5 -45.5 19.5 q-7 0 -30.5 -6.5 q-23.5 -6.5 -55 -17 q-31.5 -10.5 -68 -22.5 q-36.5 -12 -69.5 -23.5 q-33 -11.5 -59 -20.5 q-26 -9 -37 -13 q-94 53 -190 78 q-96 25 -203 25 q-103 0 -201.5 -28.5 q-98.5 -28.5 -185 -80.5 q-86.5 -52 -158 -126 q-71.5 -74 -120.5 -164 ZM576 960 q-26 0 -45 -19 q-19 -19 -19 -45 q0 -26 19 -45 q19 -19 45 -19 l256 0 q26 0 45 19 q19 19 19 45 q0 26 -19 45 q-19 19 -45 19 l-256 0 Z"/></svg>