<?xml version="1.0" encoding="utf-8"?>
<svg xmlns="http://www.w3.org/2000/svg" width="16" height="16" viewBox="0 0 2048 2048">
  <g transform="translate(0, 2048) scale(1, -1)">
    <path fill="#ffffff" d="M384 615Q373 611 347.0 602.0Q321 593 287.5 581.5Q254 570 218.0 558.0Q182 546 150.0 535.5Q118 525 94.5 518.5Q71 512 64 512Q37 512 18.5 531.5Q0 551 0 577Q0 584 6.0 608.5Q12 633 21.5 666.5Q31 700 42.0 738.5Q53 777 63.5 812.0Q74 847 82.5 874.0Q91 901 94 912Q0 1085 0 1280Q0 1386 27.5 1484.0Q55 1582 105.0 1667.5Q155 1753 225.0 1823.0Q295 1893 380.5 1943.0Q466 1993 564.0 2020.5Q662 2048 768 2048Q927 2048 1066.5 1987.5Q1206 1927 1310.5 1822.5Q1415 1718 1475.5 1578.5Q1536 1439 1536 1280Q1536 1174 1508.5 1076.0Q1481 978 1431.0 892.5Q1381 807 1311.0 737.0Q1241 667 1155.5 617.0Q1070 567 972.0 539.5Q874 512 768 512Q667 512 569.5 538.0Q472 564 384 615ZM1408 1280Q1408 1413 1358.0 1529.5Q1308 1646 1221.0 1733.0Q1134 1820 1017.5 1870.0Q901 1920 768 1920Q635 1920 518.5 1870.0Q402 1820 315.0 1733.0Q228 1646 178.0 1529.5Q128 1413 128 1280Q128 1189 151.5 1111.0Q175 1033 217 953Q222 945 224.0 937.5Q226 930 226 920Q226 912 222.0 893.5Q218 875 211.5 851.5Q205 828 197.0 801.5Q189 775 181.5 750.5Q174 726 168.0 705.5Q162 685 159 675Q173 679 207.0 691.5Q241 704 278.5 716.5Q316 729 348.0 739.0Q380 749 390 749Q409 749 426 739Q468 715 508.0 697.0Q548 679 589.5 666.0Q631 653 675.0 646.5Q719 640 768 640Q901 640 1017.5 690.0Q1134 740 1221.0 827.0Q1308 914 1358.0 1030.5Q1408 1147 1408 1280ZM576 1344Q550 1344 531.0 1363.0Q512 1382 512 1408Q512 1434 531.0 1453.0Q550 1472 576 1472H960Q986 1472 1005.0 1453.0Q1024 1434 1024 1408Q1024 1382 1005.0 1363.0Q986 1344 960 1344ZM607 399Q686 384 768 384Q861 262 993.5 195.0Q1126 128 1280 128Q1329 128 1372.5 134.5Q1416 141 1457.5 153.5Q1499 166 1539.5 184.5Q1580 203 1622 227Q1639 237 1658 237Q1668 237 1700.0 227.0Q1732 217 1769.5 204.5Q1807 192 1841.0 179.5Q1875 167 1889 163Q1886 173 1880.0 193.5Q1874 214 1866.5 238.5Q1859 263 1851.0 289.5Q1843 316 1836.5 339.5Q1830 363 1826.0 381.5Q1822 400 1822 408Q1822 418 1824.0 425.5Q1826 433 1831 441Q1852 481 1868.5 520.0Q1885 559 1896.5 599.0Q1908 639 1914.0 680.5Q1920 722 1920 768Q1920 843 1902.5 915.5Q1885 988 1852.0 1054.0Q1819 1120 1771.5 1177.5Q1724 1235 1664 1280Q1664 1359 1650 1441Q1741 1392 1814.5 1320.0Q1888 1248 1940.0 1161.0Q1992 1074 2020.0 975.0Q2048 876 2048 773Q2048 673 2025.5 580.5Q2003 488 1955 400Q1958 389 1966.5 361.5Q1975 334 1985.0 299.0Q1995 264 2006.5 225.5Q2018 187 2027.0 153.5Q2036 120 2042.0 96.0Q2048 72 2048 65Q2048 39 2029.5 19.5Q2011 0 1984 0Q1977 0 1953.5 6.5Q1930 13 1898.5 23.5Q1867 34 1830.5 46.0Q1794 58 1761.0 69.5Q1728 81 1702.0 90.0Q1676 99 1665 103Q1571 50 1475.0 25.0Q1379 0 1272 0Q1169 0 1070.5 28.5Q972 57 885.5 109.0Q799 161 727.5 235.0Q656 309 607 399ZM576 1088Q550 1088 531.0 1107.0Q512 1126 512 1152Q512 1178 531.0 1197.0Q550 1216 576 1216H832Q858 1216 877.0 1197.0Q896 1178 896 1152Q896 1126 877.0 1107.0Q858 1088 832 1088Z"/>
  </g>
</svg>