<?xml version="1.0" encoding="utf-8"?>
<svg xmlns="http://www.w3.org/2000/svg" width="16" height="16" viewBox="0 0 2048 2048">
  <g transform="translate(0, 2048) scale(1, -1)">
    <path fill="#ffffff" d="M205 0Q163 0 125.5 16.0Q88 32 60.0 60.0Q32 88 16.0 125.5Q0 163 0 205V1843Q0 1885 16.0 1922.5Q32 1960 60.0 1988.0Q88 2016 125.5 2032.0Q163 2048 205 2048H1843Q1885 2048 1922.5 2032.0Q1960 2016 1988.0 1988.0Q2016 1960 2032.0 1922.5Q2048 1885 2048 1843V205Q2048 163 2032.0 125.5Q2016 88 1988.0 60.0Q1960 32 1922.5 16.0Q1885 0 1843 0ZM832 624Q847 624 862.5 630.0Q878 636 889 647L1657 1415Q1680 1438 1680 1472Q1680 1506 1657.0 1529.0Q1634 1552 1600 1552Q1566 1552 1543 1529L832 817L505 1145Q482 1168 448 1168Q414 1168 391.0 1145.0Q368 1122 368 1088Q368 1073 374.0 1057.5Q380 1042 391 1031L775 647Q786 636 801.5 630.0Q817 624 832 624Z"/>
  </g>
</svg>