<?xml version="1.0" encoding="utf-8"?>
<svg xmlns="http://www.w3.org/2000/svg" width="16" height="16" viewBox="0 0 2048 2048">
  <g transform="translate(0, 2048) scale(1, -1)">
    <path fill="#ffffff" d="M1408 1600Q1408 1626 1427.0 1645.0Q1446 1664 1472 1664Q1498 1664 1517 1645L1600 1563L1939 1901Q1958 1920 1984 1920Q2010 1920 2029.0 1901.0Q2048 1882 2048 1856Q2048 1830 2029 1811L1645 1427Q1626 1408 1600 1408Q1574 1408 1555 1427L1427 1555Q1408 1574 1408 1600ZM64 1536Q38 1536 19.0 1555.0Q0 1574 0 1600Q0 1626 19.0 1645.0Q38 1664 64 1664H1088Q1114 1664 1133.0 1645.0Q1152 1626 1152 1600Q1152 1574 1133.0 1555.0Q1114 1536 1088 1536ZM1408 1088Q1408 1114 1427.0 1133.0Q1446 1152 1472 1152Q1498 1152 1517 1133L1600 1051L1939 1389Q1958 1408 1984 1408Q2010 1408 2029.0 1389.0Q2048 1370 2048 1344Q2048 1318 2029 1299L1645 915Q1626 896 1600 896Q1574 896 1555 915L1427 1043Q1408 1062 1408 1088ZM64 1024Q38 1024 19.0 1043.0Q0 1062 0 1088Q0 1114 19.0 1133.0Q38 1152 64 1152H1088Q1114 1152 1133.0 1133.0Q1152 1114 1152 1088Q1152 1062 1133.0 1043.0Q1114 1024 1088 1024ZM1408 576Q1408 602 1427.0 621.0Q1446 640 1472 640Q1498 640 1517 621L1600 539L1939 877Q1958 896 1984 896Q2010 896 2029.0 877.0Q2048 858 2048 832Q2048 806 2029 787L1645 403Q1626 384 1600 384Q1574 384 1555 403L1427 531Q1408 550 1408 576ZM64 512Q38 512 19.0 531.0Q0 550 0 576Q0 602 19.0 621.0Q38 640 64 640H1088Q1114 640 1133.0 621.0Q1152 602 1152 576Q1152 550 1133.0 531.0Q1114 512 1088 512Z"/>
  </g>
</svg>