<?xml version="1.0" encoding="utf-8"?>
<svg id="" width="16" height="16" style="width:16px;height:16px;" version="1.1"
    xmlns="http://www.w3.org/2000/svg" viewBox="0 0 2048 2048" enable-background="new 0 0 2048 2048"
    xml:space="preserve">
    <path fill="#ffffff" d="M251 2048 q-50 0 -95.5 -20.5 q-45.5 -20.5 -80 -55 q-34.5 -34.5 -55 -80 q-20.5 -45.5 -20.5 -95.5 l0 -1546 q0 -50 20.5 -95.5 q20.5 -45.5 55 -80 q34.5 -34.5 80 -55 q45.5 -20.5 95.5 -20.5 l1546 0 q50 0 95.5 20.5 q45.5 20.5 80 55 q34.5 34.5 55 80 q20.5 45.5 20.5 95.5 l0 1546 q0 50 -20.5 95.5 q-20.5 45.5 -55 80 q-34.5 34.5 -80 55 q-45.5 20.5 -95.5 20.5 l-1546 0 ZM1792 1920 q27 0 50 -10 q23 -10 40.5 -27.5 q17.5 -17.5 27.5 -40.5 q10 -23 10 -50 l0 -1536 q0 -26 -10 -49.5 q-10 -23.5 -27.5 -41 q-17.5 -17.5 -41 -27.5 q-23.5 -10 -49.5 -10 l-1536 0 q-27 0 -50 10 q-23 10 -40.5 27.5 q-17.5 17.5 -27.5 40.5 q-10 23 -10 50 l0 1536 q0 27 10 50.5 q10 23.5 27 40.5 q17 17 40.5 27 q23.5 10 50.5 10 l1536 0 ZM384 960 q0 -26 19 -45 q19 -19 45 -19 q26 0 45 19 l339 338 l723 -722 q19 -19 45 -19 q26 0 45 19 q19 19 19 45 q0 26 -19 45 l-768 768 q-19 19 -45 19 q-26 0 -45 -19 l-384 -384 q-19 -19 -19 -45 Z"/>
</svg>