<?xml version="1.0" encoding="utf-8"?>
<svg xmlns="http://www.w3.org/2000/svg" width="16" height="16" viewBox="0 0 2048 2048">
  <g transform="translate(0, 2048) scale(1, -1)">
    <path fill="#ffffff" d="M432 146Q375 146 323.0 169.5Q271 193 232.0 232.0Q193 271 169.5 323.0Q146 375 146 432V1616Q146 1673 169.5 1725.0Q193 1777 232.5 1816.5Q272 1856 324.5 1879.0Q377 1902 434 1902H1614Q1671 1902 1723.5 1879.0Q1776 1856 1815.5 1816.5Q1855 1777 1878.5 1725.0Q1902 1673 1902 1616V432Q1902 375 1878.5 323.0Q1855 271 1816.0 232.0Q1777 193 1725.0 169.5Q1673 146 1616 146ZM1609 293Q1639 293 1666.0 304.5Q1693 316 1712.5 335.5Q1732 355 1743.5 382.0Q1755 409 1755 439V1609Q1755 1639 1743.5 1666.0Q1732 1693 1712.5 1712.5Q1693 1732 1666.0 1743.5Q1639 1755 1609 1755H439Q409 1755 382.0 1743.5Q355 1732 335.5 1712.5Q316 1693 304.5 1666.0Q293 1639 293 1609V439Q293 409 304.5 382.0Q316 355 335.5 335.5Q355 316 382.0 304.5Q409 293 439 293ZM585 951Q585 981 606.5 1002.5Q628 1024 658 1024Q689 1024 710 1003L878 835L1411 1368Q1433 1390 1463 1390Q1494 1390 1515.0 1369.0Q1536 1348 1536 1317Q1536 1286 1515 1265L929 680Q907 658 878 658Q861 658 849.0 663.5Q837 669 826 680L607 899Q585 921 585 951Z"/>
  </g>
</svg>