<?xml version="1.0" encoding="utf-8"?>
<svg xmlns="http://www.w3.org/2000/svg" width="16" height="16" viewBox="0 0 2048 2048">
  <g transform="translate(0, 2048) scale(1, -1)">
    <path fill="#000000" d="M379 128Q329 128 283.5 148.5Q238 169 203.5 203.5Q169 238 148.5 283.5Q128 329 128 379V1669Q128 1719 148.5 1764.5Q169 1810 203.5 1844.5Q238 1879 283.5 1899.5Q329 1920 379 1920H1669Q1719 1920 1764.5 1899.5Q1810 1879 1844.5 1844.5Q1879 1810 1899.5 1764.5Q1920 1719 1920 1669V379Q1920 329 1899.5 283.5Q1879 238 1844.5 203.5Q1810 169 1764.5 148.5Q1719 128 1669 128Z"/>
  </g>
</svg>