<?xml version="1.0" encoding="utf-8"?>
<svg xmlns="http://www.w3.org/2000/svg" width="16" height="16" viewBox="0 0 2048 2048">
  <g transform="translate(0, 2048) scale(1, -1)">
    <path fill="#000000" d="M0 1600Q0 1626 19.0 1645.0Q38 1664 64 1664Q90 1664 109 1645L192 1563L531 1901Q550 1920 576 1920Q602 1920 621.0 1901.0Q640 1882 640 1856Q640 1830 621 1811L237 1427Q218 1408 192 1408Q166 1408 147 1427L19 1555Q0 1574 0 1600ZM960 1536Q934 1536 915.0 1555.0Q896 1574 896 1600Q896 1626 915.0 1645.0Q934 1664 960 1664H1984Q2010 1664 2029.0 1645.0Q2048 1626 2048 1600Q2048 1574 2029.0 1555.0Q2010 1536 1984 1536ZM0 1088Q0 1114 19.0 1133.0Q38 1152 64 1152Q90 1152 109 1133L192 1051L531 1389Q550 1408 576 1408Q602 1408 621.0 1389.0Q640 1370 640 1344Q640 1318 621 1299L237 915Q218 896 192 896Q166 896 147 915L19 1043Q0 1062 0 1088ZM960 1024Q934 1024 915.0 1043.0Q896 1062 896 1088Q896 1114 915.0 1133.0Q934 1152 960 1152H1984Q2010 1152 2029.0 1133.0Q2048 1114 2048 1088Q2048 1062 2029.0 1043.0Q2010 1024 1984 1024ZM0 576Q0 602 19.0 621.0Q38 640 64 640Q90 640 109 621L192 539L531 877Q550 896 576 896Q602 896 621.0 877.0Q640 858 640 832Q640 806 621 787L237 403Q218 384 192 384Q166 384 147 403L19 531Q0 550 0 576ZM960 512Q934 512 915.0 531.0Q896 550 896 576Q896 602 915.0 621.0Q934 640 960 640H1984Q2010 640 2029.0 621.0Q2048 602 2048 576Q2048 550 2029.0 531.0Q2010 512 1984 512Z"/>
  </g>
</svg>