<?xml version="1.0" encoding="utf-8"?>
<svg xmlns="http://www.w3.org/2000/svg" width="16" height="16" viewBox="0 0 2048 2048">
  <g transform="translate(0, 2048) scale(1, -1)">
    <path fill="#ffffff" d="M1024 1099 475 550Q457 532 433.5 522.5Q410 513 385 513Q358 513 334.5 522.5Q311 532 293.5 549.5Q276 567 266.5 590.5Q257 614 257 641Q257 666 266.5 689.5Q276 713 294 731L934 1371Q972 1409 1025 1409Q1050 1409 1074.0 1398.5Q1098 1388 1115 1371L1755 731Q1772 714 1782.5 690.0Q1793 666 1793 641Q1793 615 1782.5 591.5Q1772 568 1754.5 550.5Q1737 533 1713.5 522.5Q1690 512 1664 512Q1612 512 1574 550Z"/>
  </g>
</svg>