<?xml version="1.0" encoding="utf-8"?>
<svg xmlns="http://www.w3.org/2000/svg" width="16" height="16" viewBox="0 0 2048 2048">
  <g transform="translate(0, 2048) scale(1, -1)">
    <path fill="#ffffff" d="M513 385Q513 410 522.5 433.5Q532 457 550 475L1099 1024L550 1574Q513 1611 513 1665Q513 1691 523.0 1714.5Q533 1738 550.5 1755.5Q568 1773 591.5 1783.0Q615 1793 641 1793Q666 1793 690.0 1782.5Q714 1772 731 1755L1371 1115Q1388 1098 1398.5 1074.0Q1409 1050 1409 1025Q1409 972 1371 934L731 294Q713 276 689.5 266.0Q666 256 640 256Q613 256 590.0 266.0Q567 276 549.5 293.5Q532 311 522.5 334.5Q513 358 513 385Z"/>
  </g>
</svg>