<?xml version="1.0" encoding="utf-8"?>
<svg xmlns="http://www.w3.org/2000/svg" width="16" height="16" viewBox="0 0 2048 2048">
  <g transform="translate(0, 2048) scale(1, -1)">
    <path fill="#ffffff" d="M641 1025Q641 1050 650.5 1073.5Q660 1097 678 1115L1318 1755Q1356 1793 1409 1793Q1435 1793 1458.0 1782.5Q1481 1772 1498.5 1754.5Q1516 1737 1526.5 1714.0Q1537 1691 1537 1665Q1537 1612 1499 1574L949 1024L1499 475Q1516 458 1526.5 434.0Q1537 410 1537 385Q1537 359 1526.5 335.5Q1516 312 1498.5 294.5Q1481 277 1457.5 266.5Q1434 256 1408 256Q1356 256 1318 294L678 934Q641 971 641 1025Z"/>
  </g>
</svg>