<?xml version="1.0" encoding="utf-8"?>
<svg xmlns="http://www.w3.org/2000/svg" width="16" height="16" viewBox="0 0 2048 2048">
  <g transform="translate(0, 2048) scale(1, -1)">
    <path fill="#ffffff" d="M257 1409Q257 1435 267.0 1458.5Q277 1482 294.5 1499.5Q312 1517 335.5 1527.0Q359 1537 385 1537Q410 1537 434.0 1526.5Q458 1516 475 1499L1024 949L1574 1499Q1612 1537 1665 1537Q1691 1537 1714.0 1526.5Q1737 1516 1754.5 1498.5Q1772 1481 1782.5 1458.0Q1793 1435 1793 1409Q1793 1356 1755 1318L1115 678Q1097 660 1073.5 650.0Q1050 640 1024 640Q972 640 934 678L294 1318Q257 1355 257 1409Z"/>
  </g>
</svg>