<?xml version="1.0" encoding="utf-8"?>
<svg id="" width="16" height="16" style="width:16px;height:16px;" version="1.1" xmlns="http://www.w3.org/2000/svg" viewBox="0 0 2048 2048" enable-background="new 0 0 2048 2048" xml:space="preserve">
    <path fill="#000" transform="translate(0, 450)" d="M0 128.94 q0 -26.99 10.49 -50.23 q10.49 -23.24 27.73 -40.48 q17.24 -17.24 40.48 -27.73 q23.24 -10.49 50.23 -10.49 q28.48 0 49.47 9.74 q20.99 9.74 40.48 29.23 l805.11 805.11 l805.11 -805.11 q38.98 -38.98 89.95 -38.98 q26.99 0 50.23 10.49 q23.24 10.49 40.48 27.73 q17.24 17.24 27.74 40.48 q10.49 23.24 10.49 50.23 q0 52.47 -37.48 89.95 l-896.56 896.57 q-37.49 37.48 -89.96 37.48 q-52.47 0 -89.96 -37.48 l-896.56 -896.57 q-37.48 -37.48 -37.48 -89.95 Z"/>
</svg>