<?xml version="1.0" encoding="utf-8"?>
<svg xmlns="http://www.w3.org/2000/svg" width="16" height="16" viewBox="0 0 2048 2048">
  <g transform="translate(0, 2048) scale(1, -1)">
    <path fill="#000000" d="M597 1024Q597 1059 622 1084L1220 1682Q1245 1707 1280 1707Q1298 1707 1313.5 1700.0Q1329 1693 1340.5 1681.5Q1352 1670 1359.0 1654.5Q1366 1639 1366 1621Q1366 1587 1340 1561L803 1024L1340 487Q1353 474 1359.5 460.0Q1366 446 1366 427Q1366 409 1359.0 393.5Q1352 378 1340.5 366.5Q1329 355 1313.5 348.0Q1298 341 1280 341Q1245 341 1220 366L622 964Q597 989 597 1024Z"/>
  </g>
</svg>