<?xml version="1.0" encoding="utf-8"?>
<svg xmlns="http://www.w3.org/2000/svg" width="16" height="16" viewBox="0 0 2048 2048">
  <g transform="translate(0, 2048) scale(1, -1)">
    <path fill="#ffffff" d="M256 1408Q230 1408 211.0 1426.5Q192 1445 192 1472Q192 1501 216 1522Q260 1559 305.0 1608.5Q350 1658 390.0 1713.5Q430 1769 462.5 1827.0Q495 1885 515 1940Q523 1960 538.5 1972.0Q554 1984 576 1984Q603 1984 621.5 1965.5Q640 1947 640 1920Q640 1909 634.0 1891.5Q628 1874 620.0 1855.0Q612 1836 603.5 1819.0Q595 1802 589 1792H960Q986 1792 1005.0 1773.0Q1024 1754 1024 1728Q1024 1702 1005.0 1683.0Q986 1664 960 1664H720Q730 1651 749.0 1625.0Q768 1599 786.5 1570.0Q805 1541 818.5 1514.0Q832 1487 832 1472Q832 1446 813.0 1427.0Q794 1408 768 1408Q749 1408 734.5 1417.5Q720 1427 711 1443Q676 1505 637.5 1559.0Q599 1613 549 1664H511Q502 1651 484.0 1627.0Q466 1603 443.0 1574.5Q420 1546 394.0 1516.5Q368 1487 343.0 1463.0Q318 1439 295.0 1423.5Q272 1408 256 1408ZM1920 1728Q1920 1702 1901.0 1683.0Q1882 1664 1856 1664H1488Q1498 1651 1517.0 1625.0Q1536 1599 1554.5 1570.0Q1573 1541 1586.5 1514.0Q1600 1487 1600 1472Q1600 1446 1581.0 1427.0Q1562 1408 1536 1408Q1517 1408 1502.5 1417.5Q1488 1427 1479 1443Q1444 1505 1405.5 1559.0Q1367 1613 1317 1664H1279Q1270 1651 1252.0 1627.0Q1234 1603 1211.0 1574.5Q1188 1546 1162.0 1516.5Q1136 1487 1111.0 1463.0Q1086 1439 1063.0 1423.5Q1040 1408 1024 1408Q998 1408 979.0 1427.0Q960 1446 960 1472Q960 1502 984 1522Q1029 1559 1073.5 1608.5Q1118 1658 1158.0 1713.5Q1198 1769 1230.5 1827.0Q1263 1885 1283 1940Q1291 1960 1307.0 1972.0Q1323 1984 1344 1984Q1371 1984 1389.5 1965.5Q1408 1947 1408 1920Q1408 1909 1402.0 1891.5Q1396 1874 1388.0 1855.5Q1380 1837 1371.5 1819.5Q1363 1802 1357 1792H1856Q1882 1792 1901.0 1773.0Q1920 1754 1920 1728ZM640 1088Q622 1088 607.0 1097.5Q592 1107 583 1123Q524 1228 419 1287Q403 1296 393.5 1311.0Q384 1326 384 1344Q384 1370 403.0 1389.0Q422 1408 448 1408Q466 1408 492.0 1394.0Q518 1380 546.5 1357.5Q575 1335 603.0 1306.5Q631 1278 653.5 1249.5Q676 1221 690.0 1195.5Q704 1170 704 1152Q704 1126 685.0 1107.0Q666 1088 640 1088ZM1728 1280Q1754 1280 1773.0 1261.0Q1792 1242 1792 1216V379Q1792 329 1771.5 283.5Q1751 238 1716.5 203.5Q1682 169 1636.5 148.5Q1591 128 1541 128Q1533 128 1523.5 127.5Q1514 127 1503 127Q1486 127 1469.0 129.0Q1452 131 1438.5 137.5Q1425 144 1416.5 157.0Q1408 170 1408 192Q1408 218 1427.0 237.0Q1446 256 1472 256Q1484 256 1495.0 255.5Q1506 255 1517 255Q1547 255 1574.0 261.5Q1601 268 1626 293Q1664 331 1664 384V1152H832Q806 1152 787.0 1171.0Q768 1190 768 1216Q768 1242 787.0 1261.0Q806 1280 832 1280ZM384 1088V192Q384 166 365.0 147.0Q346 128 320 128Q294 128 275.0 147.0Q256 166 256 192V1088Q256 1114 275.0 1133.0Q294 1152 320 1152Q346 1152 365.0 1133.0Q384 1114 384 1088ZM1408 448Q1408 422 1389.0 403.0Q1370 384 1344 384H704Q678 384 659.0 403.0Q640 422 640 448V960Q640 986 659.0 1005.0Q678 1024 704 1024H1344Q1370 1024 1389.0 1005.0Q1408 986 1408 960ZM1280 896H768V768H1280ZM768 512H1280V640H768Z"/>
  </g>
</svg>