<?xml version="1.0" encoding="utf-8"?>
<svg xmlns="http://www.w3.org/2000/svg" width="16" height="16" viewBox="0 0 2048 2048">
  <g transform="translate(0, 2048) scale(1, -1)">
    <path fill="#000000" d="M1920 1407Q1920 1380 1900.5 1362.0Q1881 1344 1855 1344Q1848 1344 1838 1346Q1778 1360 1712.0 1385.0Q1646 1410 1580.0 1440.0Q1514 1470 1451.5 1503.0Q1389 1536 1335 1567Q1327 1553 1312.0 1544.5Q1297 1536 1280 1536H768Q748 1536 731.0 1547.5Q714 1559 708 1579Q652 1546 591.0 1512.5Q530 1479 466.5 1448.5Q403 1418 338.5 1392.0Q274 1366 212 1347Q201 1344 192 1344Q165 1344 146.5 1362.5Q128 1381 128 1408Q128 1431 140.0 1446.0Q152 1461 172 1469Q241 1495 305.5 1520.5Q370 1546 438 1578Q516 1615 590.5 1658.0Q665 1701 737 1749Q807 1796 862.5 1846.5Q918 1897 974 1960Q995 1984 1024 1984Q1050 1984 1069.0 1965.5Q1088 1947 1088 1921Q1088 1905 1081 1892Q1192 1801 1315.0 1726.0Q1438 1651 1567 1588Q1674 1536 1782 1499Q1799 1493 1817 1488L1840 1481Q1857 1476 1874 1470Q1895 1462 1907.5 1446.0Q1920 1430 1920 1407ZM1179 1664Q1131 1695 1086.0 1727.5Q1041 1760 997 1796Q960 1760 920.0 1727.0Q880 1694 837 1664ZM1664 832Q1664 806 1645.0 787.0Q1626 768 1600 768H629Q615 680 588.0 595.0Q561 510 523 429Q505 391 480.0 350.5Q455 310 426.0 272.0Q397 234 364.0 200.5Q331 167 296 142Q287 136 277.0 132.0Q267 128 256 128Q230 128 211.0 147.0Q192 166 192 192Q192 209 198.0 220.0Q204 231 216 242Q270 289 312.5 338.0Q355 387 390 450Q422 507 445.5 567.0Q469 627 484 691Q496 742 504.0 793.0Q512 844 512 896V1344Q512 1370 531.0 1389.0Q550 1408 576 1408H1600Q1626 1408 1645.0 1389.0Q1664 1370 1664 1344ZM640 1152H1536V1280H640ZM640 896H1536V1024H640ZM1728 640Q1754 640 1773.0 621.0Q1792 602 1792 576V192Q1792 166 1773.0 147.0Q1754 128 1728 128Q1706 128 1693.0 136.5Q1680 145 1673.5 158.5Q1667 172 1665.0 188.5Q1663 205 1663 222Q1663 231 1663.5 239.5Q1664 248 1664 256H768V222Q768 205 766.0 188.5Q764 172 757.5 158.5Q751 145 738.5 136.5Q726 128 704 128Q678 128 659.0 147.0Q640 166 640 192V576Q640 602 659.0 621.0Q678 640 704 640ZM768 384H1664V512H768Z"/>
  </g>
</svg>