<?xml version="1.0" encoding="utf-8"?>
<svg xmlns="http://www.w3.org/2000/svg" width="16" height="16" viewBox="0 0 2048 2048">
  <g transform="translate(0, 2048) scale(1, -1)">
    <path fill="#000000" d="M192 1920Q192 1946 211.0 1965.0Q230 1984 256 1984Q282 1984 301 1965L557 1709Q576 1690 576 1664Q576 1638 557.0 1619.0Q538 1600 512 1600Q486 1600 467 1619L211 1875Q192 1894 192 1920ZM1920 1344V960Q1920 934 1901.0 915.0Q1882 896 1856 896H1474Q1589 824 1697.5 739.0Q1806 654 1901 557Q1911 546 1915.5 536.0Q1920 526 1920 512Q1920 486 1901.0 467.0Q1882 448 1856 448Q1843 448 1831.5 453.5Q1820 459 1811 467Q1800 478 1788 488L1743 532Q1732 543 1720 553Q1647 618 1569.0 676.5Q1491 735 1408 786V448Q1408 422 1389.0 403.0Q1370 384 1344 384Q1318 384 1299.0 403.0Q1280 422 1280 448V839Q1245 792 1202.0 747.5Q1159 703 1111.5 662.5Q1064 622 1013.5 586.0Q963 550 913 520Q903 514 883.5 502.0Q864 490 842.0 478.0Q820 466 800.0 457.0Q780 448 768 448Q742 448 723.0 467.0Q704 486 704 512Q704 530 713.5 545.0Q723 560 739 569Q797 602 855.0 637.0Q913 672 967.0 712.0Q1021 752 1070.5 797.5Q1120 843 1162 896H832Q806 896 787.0 915.0Q768 934 768 960V1344Q768 1370 787.0 1389.0Q806 1408 832 1408H1280V1536H832Q806 1536 787.0 1555.0Q768 1574 768 1600Q768 1626 787.0 1645.0Q806 1664 832 1664H1280V1856Q1280 1882 1299.0 1901.0Q1318 1920 1344 1920Q1370 1920 1389.0 1901.0Q1408 1882 1408 1856V1664H1856Q1882 1664 1901.0 1645.0Q1920 1626 1920 1600Q1920 1574 1901.0 1555.0Q1882 1536 1856 1536H1408V1408H1856Q1882 1408 1901.0 1389.0Q1920 1370 1920 1344ZM1920 192Q1920 166 1901.0 147.0Q1882 128 1856 128H1088Q999 128 912.0 149.5Q825 171 743.0 209.0Q661 247 587.0 299.5Q513 352 451 414Q406 342 352.5 273.5Q299 205 237 147Q226 137 216.5 132.5Q207 128 192 128Q166 128 147.0 147.0Q128 166 128 192Q128 206 133.0 216.0Q138 226 147 237Q200 296 248.0 351.5Q296 407 339 475Q399 571 445.0 677.5Q491 784 507 896H192Q166 896 147.0 915.0Q128 934 128 960Q128 984 143 1002L492 1408H192Q166 1408 147.0 1427.0Q128 1446 128 1472Q128 1498 147.0 1517.0Q166 1536 192 1536H576Q598 1536 610.5 1527.5Q623 1519 629.5 1505.5Q636 1492 638.0 1475.5Q640 1459 640 1442V1408Q640 1384 625 1366L331 1024H576Q602 1024 621.0 1005.0Q640 986 640 960Q640 908 629.5 851.5Q619 795 601.5 739.0Q584 683 562.0 629.5Q540 576 517 530Q571 471 636.5 420.5Q702 370 775.5 333.5Q849 297 928.0 276.5Q1007 256 1088 256H1856Q1882 256 1901.0 237.0Q1920 218 1920 192ZM1280 1280H896V1024H1280ZM1408 1024H1792V1280H1408Z"/>
  </g>
</svg>