<?xml version="1.0" encoding="utf-8"?>
<svg xmlns="http://www.w3.org/2000/svg" width="16" height="16" viewBox="0 0 2048 2048">
  <g transform="translate(0, 2048) scale(1, -1)">
    <path fill="#ffffff" d="M576 1792Q642 1792 700.0 1766.5Q758 1741 801.5 1697.5Q845 1654 870.5 1596.0Q896 1538 896 1472Q896 1406 870.5 1347.5Q845 1289 801.5 1245.5Q758 1202 700.0 1177.0Q642 1152 576 1152Q510 1152 451.5 1177.0Q393 1202 349.5 1245.5Q306 1289 281.0 1347.5Q256 1406 256 1472Q256 1538 281.0 1596.0Q306 1654 349.5 1697.5Q393 1741 451.5 1766.5Q510 1792 576 1792ZM576 1280Q616 1280 651.0 1295.0Q686 1310 712.0 1336.0Q738 1362 753.0 1397.0Q768 1432 768 1472Q768 1512 753.0 1547.0Q738 1582 712.0 1608.0Q686 1634 651.0 1649.0Q616 1664 576 1664Q536 1664 501.0 1649.0Q466 1634 440.0 1608.0Q414 1582 399.0 1547.0Q384 1512 384 1472Q384 1432 399.0 1397.0Q414 1362 440.0 1336.0Q466 1310 501.0 1295.0Q536 1280 576 1280ZM1504 1152Q1558 1152 1609.5 1133.5Q1661 1115 1701.5 1081.5Q1742 1048 1767.0 1000.5Q1792 953 1792 896Q1792 826 1779.0 749.5Q1766 673 1744 607Q1711 509 1654.0 428.5Q1597 348 1528 272Q1504 246 1472.0 213.5Q1440 181 1404.0 152.0Q1368 123 1330.0 100.5Q1292 78 1256 72Q1236 69 1216.5 66.5Q1197 64 1177 64Q1173 64 1162.5 65.0Q1152 66 1152 72Q1152 78 1158.0 85.0Q1164 92 1171.5 99.0Q1179 106 1187.0 111.5Q1195 117 1200 120Q1253 159 1298.5 209.5Q1344 260 1384 312Q1442 388 1479.0 469.0Q1516 550 1540 642Q1533 642 1527 641H1518Q1511 640 1504 640Q1450 640 1398.5 658.5Q1347 677 1306.5 710.5Q1266 744 1241.5 791.5Q1217 839 1217 896Q1217 953 1241.5 1000.5Q1266 1048 1306.5 1081.5Q1347 1115 1398.5 1133.5Q1450 1152 1504 1152Z"/>
  </g>
</svg>