<?xml version="1.0" encoding="utf-8"?>
<svg xmlns="http://www.w3.org/2000/svg" width="16" height="16" viewBox="0 0 2048 2048">
  <g transform="translate(0, 2048) scale(1, -1)">
    <path fill="#000000" d="M960 320Q960 346 979.0 365.0Q998 384 1024 384H1180Q1242 384 1297.5 408.0Q1353 432 1396.0 473.0Q1439 514 1465.0 568.5Q1491 623 1495 684L1532 1280H448Q421 1280 402.5 1299.0Q384 1318 384 1345Q384 1352 386.5 1361.0Q389 1370 392 1376L648 1824Q656 1839 671.5 1847.5Q687 1856 704 1856Q731 1856 749.5 1837.0Q768 1818 768 1791Q768 1784 765.5 1775.0Q763 1766 760 1760L558 1408H1600Q1627 1408 1645.5 1390.0Q1664 1372 1664 1345V1340L1622 676Q1616 590 1579.5 513.5Q1543 437 1483.5 380.0Q1424 323 1346.5 289.5Q1269 256 1182 256H1024Q998 256 979.0 275.0Q960 294 960 320Z"/>
  </g>
</svg>