<?xml version="1.0" encoding="utf-8"?>
<svg xmlns="http://www.w3.org/2000/svg" width="16" height="16" viewBox="0 0 2048 2048">
  <g transform="translate(0, 2048) scale(1, -1)">
    <path fill="#ffffff" d="M1856 1920Q1895 1920 1930.0 1905.0Q1965 1890 1991.5 1863.5Q2018 1837 2033.0 1802.0Q2048 1767 2048 1728V1472Q2048 1433 2033.0 1398.0Q2018 1363 1991.5 1336.5Q1965 1310 1930.0 1295.0Q1895 1280 1856 1280H1664V320Q1664 281 1649.0 246.0Q1634 211 1607.5 184.5Q1581 158 1546.0 143.0Q1511 128 1472 128H576Q537 128 502.0 143.0Q467 158 440.5 184.5Q414 211 399.0 246.0Q384 281 384 320V1280H192Q153 1280 118.0 1295.0Q83 1310 56.5 1336.5Q30 1363 15.0 1398.0Q0 1433 0 1472V1728Q0 1767 15.0 1802.0Q30 1837 56.5 1863.5Q83 1890 118.0 1905.0Q153 1920 192 1920ZM1920 1728Q1920 1754 1901.0 1773.0Q1882 1792 1856 1792H192Q166 1792 147.0 1773.0Q128 1754 128 1728V1472Q128 1446 147.0 1427.0Q166 1408 192 1408H384V1536Q376 1536 367.5 1535.5Q359 1535 350 1535Q333 1535 316.5 1537.0Q300 1539 286.5 1545.5Q273 1552 264.5 1565.0Q256 1578 256 1600Q256 1626 275.0 1645.0Q294 1664 320 1664H1728Q1754 1664 1773.0 1645.0Q1792 1626 1792 1600Q1792 1578 1783.5 1565.0Q1775 1552 1761.5 1545.5Q1748 1539 1731.5 1537.0Q1715 1535 1698 1535Q1689 1535 1680.5 1535.5Q1672 1536 1664 1536V1408H1856Q1882 1408 1901.0 1427.0Q1920 1446 1920 1472ZM1536 1536H1024V1344Q1024 1318 1005.0 1299.0Q986 1280 960 1280H704Q678 1280 659.0 1299.0Q640 1318 640 1344V1536H512V320Q512 294 531.0 275.0Q550 256 576 256H1472Q1498 256 1517.0 275.0Q1536 294 1536 320ZM896 1536H768V1408H896ZM1408 704V576Q1408 550 1389.0 531.0Q1370 512 1344 512Q1318 512 1299.0 531.0Q1280 550 1280 576V704Q1280 730 1299.0 749.0Q1318 768 1344 768Q1370 768 1389.0 749.0Q1408 730 1408 704Z"/>
  </g>
</svg>