<?xml version="1.0" encoding="utf-8"?>
<svg xmlns="http://www.w3.org/2000/svg" width="16" height="16" viewBox="0 0 2048 2048">
  <g transform="translate(0, 2048) scale(1, -1)">
    <path fill="#ffffff" d="M1024 734 350 60Q321 31 283.5 15.5Q246 0 205 0Q163 0 125.5 16.0Q88 32 60.0 60.0Q32 88 16.0 125.5Q0 163 0 205Q0 246 15.5 283.5Q31 321 60 350L734 1024L60 1698Q31 1727 15.5 1764.5Q0 1802 0 1843Q0 1885 16.0 1922.5Q32 1960 60.0 1988.0Q88 2016 125.5 2032.0Q163 2048 205 2048Q246 2048 283.5 2032.5Q321 2017 350 1988L1024 1314L1698 1988Q1727 2017 1764.5 2032.5Q1802 2048 1843 2048Q1885 2048 1922.5 2032.0Q1960 2016 1988.0 1988.0Q2016 1960 2032.0 1922.5Q2048 1885 2048 1843Q2048 1802 2032.5 1764.5Q2017 1727 1988 1698L1314 1024L1988 350Q2017 321 2032.5 283.5Q2048 246 2048 205Q2048 163 2032.0 125.5Q2016 88 1988.0 60.0Q1960 32 1922.5 16.0Q1885 0 1843 0Q1802 0 1764.5 15.5Q1727 31 1698 60Z"/>
  </g>
</svg>