<?xml version="1.0" encoding="utf-8"?>
<svg xmlns="http://www.w3.org/2000/svg" width="16" height="16" viewBox="0 0 2048 2048">
  <g transform="translate(0, 2048) scale(1, -1)">
    <path fill="#ffffff" d="M102 1024Q81 1024 62.5 1032.0Q44 1040 30.0 1054.0Q16 1068 8.0 1086.5Q0 1105 0 1126Q0 1147 8.0 1165.5Q16 1184 30.0 1198.5Q44 1213 62.5 1221.0Q81 1229 102 1229H1946Q1967 1229 1985.5 1221.0Q2004 1213 2018.0 1198.5Q2032 1184 2040.0 1165.5Q2048 1147 2048 1126Q2048 1105 2040.0 1086.5Q2032 1068 2018.0 1054.0Q2004 1040 1985.5 1032.0Q1967 1024 1946 1024Z"/>
  </g>
</svg>