<?xml version="1.0" encoding="utf-8"?>
<svg xmlns="http://www.w3.org/2000/svg" width="16" height="16" viewBox="0 0 2048 2048">
  <g transform="translate(0, 2048) scale(1, -1)">
    <path fill="#000000" d="M2048 1024Q2048 982 2032.0 944.5Q2016 907 1988.0 879.0Q1960 851 1922.5 835.0Q1885 819 1843 819H699L1169 350Q1198 321 1213.5 283.5Q1229 246 1229 205Q1229 163 1213.0 125.5Q1197 88 1169.0 60.0Q1141 32 1103.5 16.0Q1066 0 1024 0Q983 0 945.5 15.5Q908 31 879 60L60 879Q31 908 15.5 945.5Q0 983 0 1024Q0 1065 15.5 1102.5Q31 1140 60 1169L879 1988Q908 2017 945.5 2032.5Q983 2048 1024 2048Q1066 2048 1103.5 2032.0Q1141 2016 1169.0 1988.0Q1197 1960 1213.0 1922.5Q1229 1885 1229 1843Q1229 1802 1213.5 1764.5Q1198 1727 1169 1698L699 1229H1843Q1885 1229 1922.5 1213.0Q1960 1197 1988.0 1169.0Q2016 1141 2032.0 1103.5Q2048 1066 2048 1024Z"/>
  </g>
</svg>