<?xml version="1.0" encoding="utf-8"?>
<svg xmlns="http://www.w3.org/2000/svg" width="16" height="16" viewBox="0 0 2048 2048">
  <g transform="translate(0, 2048) scale(1, -1)">
    <path fill="#ffffff" d="M1843 1441Q1843 1524 1810.0 1597.5Q1777 1671 1720.5 1725.5Q1664 1780 1589.5 1811.5Q1515 1843 1433 1843H427Q443 1889 472.0 1927.0Q501 1965 539.0 1992.0Q577 2019 622.5 2033.5Q668 2048 717 2048H1433Q1560 2048 1672.0 1999.5Q1784 1951 1867.5 1868.0Q1951 1785 1999.5 1673.0Q2048 1561 2048 1434V717Q2048 668 2033.5 622.5Q2019 577 1992.0 539.0Q1965 501 1927.0 472.0Q1889 443 1843 427ZM302 0Q242 0 187.0 24.5Q132 49 90.5 90.5Q49 132 24.5 187.0Q0 242 0 302V1336Q0 1397 24.5 1451.5Q49 1506 90.5 1547.5Q132 1589 186.5 1613.5Q241 1638 302 1638H1336Q1397 1638 1452.0 1613.5Q1507 1589 1548.0 1548.0Q1589 1507 1613.5 1452.0Q1638 1397 1638 1336V302Q1638 241 1613.5 186.5Q1589 132 1547.5 90.5Q1506 49 1451.5 24.5Q1397 0 1336 0ZM1331 205Q1352 205 1370.5 213.0Q1389 221 1403.5 235.0Q1418 249 1426.0 267.5Q1434 286 1434 307V1331Q1434 1352 1426.0 1371.0Q1418 1390 1404.0 1404.0Q1390 1418 1371.0 1426.0Q1352 1434 1331 1434H307Q286 1434 267.5 1426.0Q249 1418 235.0 1403.5Q221 1389 213.0 1370.5Q205 1352 205 1331V307Q205 286 213.0 267.5Q221 249 235.0 235.0Q249 221 267.5 213.0Q286 205 307 205Z"/>
  </g>
</svg>