<?xml version="1.0" encoding="utf-8"?>
<svg xmlns="http://www.w3.org/2000/svg" width="16" height="16" viewBox="0 0 2048 2048">
  <g transform="translate(0, 2048) scale(1, -1)">
    <path fill="#000000" d="M1434 819Q1392 819 1354.5 835.0Q1317 851 1289.0 879.0Q1261 907 1245.0 944.5Q1229 982 1229 1024Q1229 1060 1238.5 1088.0Q1248 1116 1264.5 1139.0Q1281 1162 1303.0 1183.5Q1325 1205 1349 1229H205Q163 1229 125.5 1245.0Q88 1261 60.0 1289.0Q32 1317 16.0 1354.5Q0 1392 0 1434Q0 1476 16.5 1513.0Q33 1550 60.5 1578.0Q88 1606 125.5 1622.0Q163 1638 205 1638H1349Q1325 1662 1303.0 1683.0Q1281 1704 1264.5 1727.5Q1248 1751 1238.5 1779.0Q1229 1807 1229 1843Q1229 1885 1245.0 1922.5Q1261 1960 1289.0 1988.0Q1317 2016 1354.5 2032.0Q1392 2048 1434 2048Q1475 2048 1512.0 2032.5Q1549 2017 1578 1988L1982 1584Q2014 1552 2031.0 1516.0Q2048 1480 2048 1434Q2048 1393 2032.5 1355.5Q2017 1318 1988 1289L1578 879Q1549 850 1512.0 834.5Q1475 819 1434 819ZM699 819H1843Q1885 819 1922.5 803.0Q1960 787 1988.0 759.0Q2016 731 2032.0 693.5Q2048 656 2048 614Q2048 572 2031.5 535.0Q2015 498 1987.5 470.0Q1960 442 1922.5 426.0Q1885 410 1843 410H699Q723 386 744.5 364.5Q766 343 782.5 320.0Q799 297 809.0 269.5Q819 242 819 205Q819 163 803.0 125.5Q787 88 759.0 60.0Q731 32 693.5 16.0Q656 0 614 0Q573 0 536.0 15.5Q499 31 470 60L66 464Q34 496 17.0 532.0Q0 568 0 614Q0 658 16.5 695.0Q33 732 64 763L470 1169Q499 1198 536.5 1213.5Q574 1229 615 1229Q657 1229 694.5 1212.5Q732 1196 759.5 1168.5Q787 1141 803.0 1103.5Q819 1066 819 1024Q819 988 809.0 960.0Q799 932 782.5 909.0Q766 886 744.5 864.5Q723 843 699 819Z"/>
  </g>
</svg>