<?xml version="1.0" encoding="utf-8"?>
<svg xmlns="http://www.w3.org/2000/svg" width="16" height="16" viewBox="0 0 2048 2048">
  <g transform="translate(0, 2048) scale(1, -1)">
    <path fill="#000000" d="M502 0Q401 0 310.0 40.5Q219 81 150.0 150.0Q81 219 40.5 310.0Q0 401 0 502V1546Q0 1613 18.5 1676.0Q37 1739 70.5 1795.0Q104 1851 150.5 1897.5Q197 1944 253.0 1977.5Q309 2011 372.0 2029.5Q435 2048 502 2048H1546Q1613 2048 1676.0 2029.5Q1739 2011 1795.0 1977.5Q1851 1944 1897.5 1897.5Q1944 1851 1977.5 1795.0Q2011 1739 2029.5 1676.0Q2048 1613 2048 1546V502Q2048 435 2029.5 372.0Q2011 309 1977.5 253.0Q1944 197 1897.5 150.5Q1851 104 1795.0 70.5Q1739 37 1676.0 18.5Q1613 0 1546 0ZM1536 410Q1557 410 1575.5 418.0Q1594 426 1608.0 440.0Q1622 454 1630.0 472.5Q1638 491 1638 512V1536Q1638 1557 1630.0 1575.5Q1622 1594 1608.0 1608.0Q1594 1622 1575.5 1630.0Q1557 1638 1536 1638H512Q491 1638 472.5 1630.0Q454 1622 440.0 1608.0Q426 1594 418.0 1575.5Q410 1557 410 1536V512Q410 491 418.0 472.5Q426 454 440.0 440.0Q454 426 472.5 418.0Q491 410 512 410Z"/>
  </g>
</svg>