<?xml version="1.0" encoding="utf-8"?>
<svg xmlns="http://www.w3.org/2000/svg" width="16" height="16" viewBox="0 0 2048 2048">
  <g transform="translate(0, 2048) scale(1, -1)">
    <path fill="#000000" d="M1024 0Q982 0 944.5 16.0Q907 32 879.0 60.0Q851 88 835.0 125.5Q819 163 819 205Q819 246 834.5 283.5Q850 321 879 350L1349 819H205Q163 819 125.5 835.0Q88 851 60.0 879.0Q32 907 16.0 944.5Q0 982 0 1024Q0 1066 16.0 1103.5Q32 1141 60.0 1169.0Q88 1197 125.5 1213.0Q163 1229 205 1229H1349L879 1698Q850 1727 834.5 1764.5Q819 1802 819 1843Q819 1885 835.0 1922.5Q851 1960 879.0 1988.0Q907 2016 944.5 2032.0Q982 2048 1024 2048Q1065 2048 1102.5 2032.5Q1140 2017 1169 1988L1988 1169Q2017 1140 2032.5 1102.5Q2048 1065 2048 1024Q2048 983 2032.5 945.5Q2017 908 1988 879L1169 60Q1140 31 1102.5 15.5Q1065 0 1024 0Z"/>
  </g>
</svg>