<?xml version="1.0" encoding="utf-8"?>
<svg xmlns="http://www.w3.org/2000/svg" width="16" height="16" viewBox="0 0 2048 2048">
  <g transform="translate(0, 2048) scale(1, -1)">
    <path fill="#000000" d="M2048 1024Q2048 982 2032.0 944.5Q2016 907 1988.0 879.0Q1960 851 1922.5 835.0Q1885 819 1843 819H1229V205Q1229 163 1213.0 125.5Q1197 88 1169.0 60.0Q1141 32 1103.5 16.0Q1066 0 1024 0Q982 0 944.5 16.0Q907 32 879.0 60.0Q851 88 835.0 125.5Q819 163 819 205V529L350 60Q321 31 283.5 15.5Q246 0 205 0Q163 0 125.5 16.0Q88 32 60.0 60.0Q32 88 16.0 125.5Q0 163 0 205Q0 246 15.5 283.5Q31 321 60 350L529 819H205Q163 819 125.5 835.0Q88 851 60.0 879.0Q32 907 16.0 944.5Q0 982 0 1024Q0 1066 16.0 1103.5Q32 1141 60.0 1169.0Q88 1197 125.5 1213.0Q163 1229 205 1229H819V1843Q819 1885 835.0 1922.5Q851 1960 879.0 1988.0Q907 2016 944.5 2032.0Q982 2048 1024 2048Q1066 2048 1103.5 2032.0Q1141 2016 1169.0 1988.0Q1197 1960 1213.0 1922.5Q1229 1885 1229 1843V1519L1698 1988Q1727 2017 1764.5 2032.5Q1802 2048 1843 2048Q1885 2048 1922.5 2032.0Q1960 2016 1988.0 1988.0Q2016 1960 2032.0 1922.5Q2048 1885 2048 1843Q2048 1802 2032.5 1764.5Q2017 1727 1988 1698L1519 1229H1843Q1885 1229 1922.5 1213.0Q1960 1197 1988.0 1169.0Q2016 1141 2032.0 1103.5Q2048 1066 2048 1024Z"/>
  </g>
</svg>