<?xml version="1.0" encoding="utf-8"?>
<svg xmlns="http://www.w3.org/2000/svg" width="16" height="16" viewBox="0 0 2048 2048">
  <g transform="translate(0, 2048) scale(1, -1)">
    <path fill="#ffffff" d="M2048 1126Q2048 1105 2040.0 1086.5Q2032 1068 2018.0 1054.0Q2004 1040 1985.5 1032.0Q1967 1024 1946 1024H349L994 380Q1024 350 1024 308Q1024 287 1016.0 268.0Q1008 249 994.5 235.0Q981 221 962.0 213.0Q943 205 922 205Q879 205 849 235L27 1057V1058Q0 1085 0 1126Q0 1169 30 1199L849 2018Q879 2048 922 2048Q943 2048 961.5 2040.0Q980 2032 994.0 2018.0Q1008 2004 1016.0 1985.5Q1024 1967 1024 1946Q1024 1903 994 1873L350 1229H1946Q1967 1229 1985.5 1221.0Q2004 1213 2018.0 1198.5Q2032 1184 2040.0 1165.5Q2048 1147 2048 1126Z"/>
  </g>
</svg>