<?xml version="1.0" encoding="utf-8"?>
<svg xmlns="http://www.w3.org/2000/svg" width="16" height="16" viewBox="0 0 2048 2048">
  <g transform="translate(0, 2048) scale(1, -1)">
    <path fill="#000000" d="M205 819Q163 819 125.5 835.0Q88 851 60.0 879.0Q32 907 16.0 944.5Q0 982 0 1024Q0 1066 16.0 1103.5Q32 1141 60.0 1169.0Q88 1197 125.5 1213.0Q163 1229 205 1229H1843Q1885 1229 1922.5 1213.0Q1960 1197 1988.0 1169.0Q2016 1141 2032.0 1103.5Q2048 1066 2048 1024Q2048 982 2032.0 944.5Q2016 907 1988.0 879.0Q1960 851 1922.5 835.0Q1885 819 1843 819Z"/>
  </g>
</svg>