<?xml version="1.0" encoding="utf-8"?>
<svg xmlns="http://www.w3.org/2000/svg" width="16" height="16" viewBox="0 0 2048 2048">
  <g transform="translate(0, 2048) scale(1, -1)">
    <path fill="#ffffff" d="M1126 205Q1105 205 1086.0 213.0Q1067 221 1053.5 235.0Q1040 249 1032.0 268.0Q1024 287 1024 308Q1024 350 1054 380L1699 1024H102Q81 1024 62.5 1032.0Q44 1040 30.0 1054.0Q16 1068 8.0 1086.5Q0 1105 0 1126Q0 1147 8.0 1165.5Q16 1184 30.0 1198.5Q44 1213 62.5 1221.0Q81 1229 102 1229H1698L1054 1873Q1024 1903 1024 1946Q1024 1967 1032.0 1986.0Q1040 2005 1054.0 2018.5Q1068 2032 1087.0 2040.0Q1106 2048 1127 2048Q1169 2048 1199 2018L2018 1199Q2048 1169 2048 1126Q2048 1085 2021 1058V1057L1199 235Q1169 205 1126 205Z"/>
  </g>
</svg>