<?xml version="1.0" encoding="utf-8"?>
<svg xmlns="http://www.w3.org/2000/svg" width="16" height="16" viewBox="0 0 2048 2048">
  <g transform="translate(0, 2048) scale(1, -1)">
    <path fill="#ffffff" d="M0 1536Q0 1557 8.0 1575.5Q16 1594 30.0 1608.0Q44 1622 62.5 1630.0Q81 1638 102 1638H1699L1464 1873Q1434 1903 1434 1946Q1434 1967 1442.0 1985.5Q1450 2004 1464.0 2018.0Q1478 2032 1496.5 2040.0Q1515 2048 1536 2048Q1578 2048 1608 2018L2018 1608Q2048 1578 2048 1536Q2048 1494 2018 1464L1608 1054Q1578 1024 1536 1024Q1515 1024 1496.0 1032.0Q1477 1040 1463.5 1054.0Q1450 1068 1442.0 1087.0Q1434 1106 1434 1127Q1434 1169 1464 1199L1699 1434H102Q81 1434 62.5 1442.0Q44 1450 30.0 1464.0Q16 1478 8.0 1496.5Q0 1515 0 1536ZM2048 512Q2048 491 2040.0 472.5Q2032 454 2018.0 440.0Q2004 426 1985.5 418.0Q1967 410 1946 410H349L584 175Q614 145 614 103Q614 82 606.0 63.0Q598 44 584.5 30.0Q571 16 552.0 8.0Q533 0 512 0Q470 0 440 30L30 440Q0 470 0 512Q0 554 30 584L440 994Q470 1024 512 1024Q533 1024 551.5 1016.0Q570 1008 584.0 994.0Q598 980 606.0 961.5Q614 943 614 922Q614 879 584 849L349 614H1946Q1967 614 1985.5 606.0Q2004 598 2018.0 584.0Q2032 570 2040.0 551.5Q2048 533 2048 512Z"/>
  </g>
</svg>