<?xml version="1.0" encoding="utf-8"?>
<svg xmlns="http://www.w3.org/2000/svg" width="16" height="16" viewBox="0 0 2048 2048">
  <g transform="translate(0, 2048) scale(1, -1)">
    <path fill="#000000" d="M0 1638V1746Q0 1806 24.5 1861.0Q49 1916 90.5 1957.5Q132 1999 187.0 2023.5Q242 2048 302 2048H410Q431 2048 449.5 2040.0Q468 2032 482.0 2018.0Q496 2004 504.0 1985.5Q512 1967 512 1946Q512 1925 504.0 1906.5Q496 1888 482.0 1873.5Q468 1859 449.5 1851.0Q431 1843 410 1843H307Q286 1843 267.5 1835.0Q249 1827 235.0 1813.0Q221 1799 213.0 1780.5Q205 1762 205 1741V1638Q205 1617 197.0 1598.5Q189 1580 174.5 1566.0Q160 1552 141.5 1544.0Q123 1536 102 1536Q81 1536 62.5 1544.0Q44 1552 30.0 1566.0Q16 1580 8.0 1598.5Q0 1617 0 1638ZM922 1843Q901 1843 882.0 1851.0Q863 1859 849.0 1873.0Q835 1887 827.0 1906.0Q819 1925 819 1946Q819 1967 827.0 1985.5Q835 2004 849.5 2018.0Q864 2032 882.5 2040.0Q901 2048 922 2048H1126Q1147 2048 1165.5 2040.0Q1184 2032 1198.5 2018.0Q1213 2004 1221.0 1985.5Q1229 1967 1229 1946Q1229 1925 1221.0 1906.0Q1213 1887 1199.0 1873.0Q1185 1859 1166.0 1851.0Q1147 1843 1126 1843ZM1746 2048Q1806 2048 1861.0 2023.5Q1916 1999 1957.5 1957.5Q1999 1916 2023.5 1861.0Q2048 1806 2048 1746V1638Q2048 1617 2040.0 1598.5Q2032 1580 2018.0 1566.0Q2004 1552 1985.5 1544.0Q1967 1536 1946 1536Q1925 1536 1906.5 1544.0Q1888 1552 1873.5 1566.0Q1859 1580 1851.0 1598.5Q1843 1617 1843 1638V1741Q1843 1762 1835.0 1780.5Q1827 1799 1813.0 1813.0Q1799 1827 1780.5 1835.0Q1762 1843 1741 1843H1638Q1617 1843 1598.5 1851.0Q1580 1859 1566.0 1873.5Q1552 1888 1544.0 1906.5Q1536 1925 1536 1946Q1536 1967 1544.0 1985.5Q1552 2004 1566.0 2018.0Q1580 2032 1598.5 2040.0Q1617 2048 1638 2048ZM1535 1229Q1556 1229 1575.0 1221.0Q1594 1213 1608.0 1198.5Q1622 1184 1630.5 1165.5Q1639 1147 1639 1126Q1639 1100 1626.5 1077.5Q1614 1055 1593 1041L605 383Q610 363 612.0 342.5Q614 322 614 302Q614 239 589.0 184.0Q564 129 522.0 88.0Q480 47 424.5 23.5Q369 0 307 0Q244 0 188.0 24.5Q132 49 90.5 90.5Q49 132 24.5 188.0Q0 244 0 307Q0 369 23.5 424.5Q47 480 88.0 522.0Q129 564 184.0 589.0Q239 614 302 614Q354 614 401.5 599.5Q449 585 491 553L737 717L492 881Q449 849 402.5 834.0Q356 819 302 819Q240 819 185.0 844.0Q130 869 89.0 911.0Q48 953 24.0 1008.5Q0 1064 0 1126Q0 1189 24.0 1245.0Q48 1301 90.0 1343.0Q132 1385 188.0 1409.5Q244 1434 307 1434Q369 1434 424.5 1410.0Q480 1386 522.0 1345.0Q564 1304 589.0 1249.0Q614 1194 614 1131Q614 1111 612.0 1091.0Q610 1071 605 1051L921 840L1479 1212Q1504 1229 1535 1229ZM2048 1229V1024Q2048 1003 2040.0 984.5Q2032 966 2018.0 952.0Q2004 938 1985.5 930.0Q1967 922 1946 922Q1925 922 1906.0 930.0Q1887 938 1873.0 951.5Q1859 965 1851.0 984.0Q1843 1003 1843 1024V1229Q1843 1250 1851.0 1268.5Q1859 1287 1873.5 1301.0Q1888 1315 1906.5 1323.0Q1925 1331 1946 1331Q1967 1331 1985.5 1323.0Q2004 1315 2018.0 1301.0Q2032 1287 2040.0 1268.5Q2048 1250 2048 1229ZM410 1126Q410 1147 402.0 1166.0Q394 1185 380.0 1199.0Q366 1213 347.0 1221.0Q328 1229 307 1229Q286 1229 267.5 1221.0Q249 1213 235.0 1198.5Q221 1184 213.0 1165.5Q205 1147 205 1126Q205 1105 213.0 1086.5Q221 1068 235.0 1054.0Q249 1040 267.5 1032.0Q286 1024 307 1024Q328 1024 346.5 1032.0Q365 1040 379.5 1054.0Q394 1068 402.0 1086.5Q410 1105 410 1126ZM2048 614V307Q2048 286 2040.0 267.5Q2032 249 2018.0 235.0Q2004 221 1985.5 213.0Q1967 205 1946 205Q1925 205 1906.5 213.0Q1888 221 1873.5 235.0Q1859 249 1851.0 267.5Q1843 286 1843 307V614Q1843 635 1851.0 654.0Q1859 673 1873.0 687.0Q1887 701 1906.0 709.0Q1925 717 1946 717Q1967 717 1985.5 709.0Q2004 701 2018.0 686.5Q2032 672 2040.0 653.5Q2048 635 2048 614ZM1639 307Q1639 286 1630.5 267.5Q1622 249 1608.0 235.0Q1594 221 1575.5 213.0Q1557 205 1536 205Q1505 205 1479 222L1098 476L1283 599L1593 392Q1614 378 1626.5 355.5Q1639 333 1639 307ZM410 307Q410 328 402.0 347.0Q394 366 380.0 380.0Q366 394 347.0 402.0Q328 410 307 410Q286 410 267.5 402.0Q249 394 235.0 379.5Q221 365 213.0 346.5Q205 328 205 307Q205 286 213.0 267.5Q221 249 235.0 235.0Q249 221 267.5 213.0Q286 205 307 205Q328 205 346.5 213.0Q365 221 379.5 235.0Q394 249 402.0 267.5Q410 286 410 307Z"/>
  </g>
</svg>