<?xml version="1.0" encoding="utf-8"?>
<svg xmlns="http://www.w3.org/2000/svg" width="16" height="16" viewBox="0 0 2048 2048">
  <g transform="translate(0, 2048) scale(1, -1)">
    <path fill="#ffffff" d="M1843 2048Q1885 2048 1922.5 2032.0Q1960 2016 1988.0 1988.0Q2016 1960 2032.0 1922.5Q2048 1885 2048 1843V1024Q2048 982 2032.0 944.5Q2016 907 1988.0 879.0Q1960 851 1922.5 835.0Q1885 819 1843 819Q1801 819 1763.5 835.0Q1726 851 1698.0 879.0Q1670 907 1654.0 944.5Q1638 982 1638 1024V1349L699 410H1024Q1066 410 1103.5 394.0Q1141 378 1169.0 350.0Q1197 322 1213.0 284.5Q1229 247 1229 205Q1229 163 1213.0 125.5Q1197 88 1169.0 60.0Q1141 32 1103.5 16.0Q1066 0 1024 0H205Q163 0 125.5 16.0Q88 32 60.0 60.0Q32 88 16.0 125.5Q0 163 0 205V1024Q0 1066 16.0 1103.5Q32 1141 60.0 1169.0Q88 1197 125.5 1213.0Q163 1229 205 1229Q247 1229 284.5 1213.0Q322 1197 350.0 1169.0Q378 1141 394.0 1103.5Q410 1066 410 1024V699L1349 1638H1024Q982 1638 944.5 1654.0Q907 1670 879.0 1698.0Q851 1726 835.0 1763.5Q819 1801 819 1843Q819 1885 835.0 1922.5Q851 1960 879.0 1988.0Q907 2016 944.5 2032.0Q982 2048 1024 2048Z"/>
  </g>
</svg>