<?xml version="1.0" encoding="utf-8"?>
<svg xmlns="http://www.w3.org/2000/svg" width="16" height="16" viewBox="0 0 2048 2048">
  <g transform="translate(0, 2048) scale(1, -1)">
    <path fill="#000000" d="M1639 1126Q1639 1263 1570 1382Q1535 1442 1487.5 1489.5Q1440 1537 1382.5 1570.0Q1325 1603 1260.0 1620.5Q1195 1638 1126 1638H625Q641 1725 687.0 1799.5Q733 1874 800.0 1929.5Q867 1985 949.0 2016.5Q1031 2048 1119 2048Q1249 2048 1368.5 2015.0Q1488 1982 1591.0 1922.0Q1694 1862 1778.5 1778.0Q1863 1694 1923.0 1590.5Q1983 1487 2015.5 1367.5Q2048 1248 2048 1118Q2048 1030 2016.5 948.0Q1985 866 1929.5 799.5Q1874 733 1799.5 687.0Q1725 641 1638 625Q1638 688 1638 751L1639 1000Q1639 1063 1639 1126ZM502 0Q401 0 310.0 40.5Q219 81 150.0 150.0Q81 219 40.5 310.0Q0 401 0 502V932Q0 999 18.5 1062.0Q37 1125 70.5 1181.0Q104 1237 150.5 1283.5Q197 1330 253.0 1363.5Q309 1397 372.0 1415.5Q435 1434 502 1434H932Q999 1434 1062.0 1415.5Q1125 1397 1181.0 1363.5Q1237 1330 1283.5 1283.5Q1330 1237 1363.5 1181.0Q1397 1125 1415.5 1062.0Q1434 999 1434 932V502Q1434 435 1415.5 372.0Q1397 309 1363.5 253.0Q1330 197 1283.5 150.5Q1237 104 1181.0 70.5Q1125 37 1062.0 18.5Q999 0 932 0ZM922 410Q943 410 961.5 418.0Q980 426 994.0 440.0Q1008 454 1016.0 472.5Q1024 491 1024 512V922Q1024 943 1016.0 961.5Q1008 980 994.0 994.0Q980 1008 961.5 1016.0Q943 1024 922 1024H512Q491 1024 472.5 1016.0Q454 1008 440.0 994.0Q426 980 418.0 961.5Q410 943 410 922V512Q410 491 418.0 472.5Q426 454 440.0 440.0Q454 426 472.5 418.0Q491 410 512 410Z"/>
  </g>
</svg>