<?xml version="1.0" encoding="utf-8"?>
<svg xmlns="http://www.w3.org/2000/svg" width="16" height="16" viewBox="0 0 2048 2048">
  <g transform="translate(0, 2048) scale(1, -1)">
    <path fill="#000000" d="M0 1646Q0 1727 32.5 1799.5Q65 1872 120.5 1927.5Q176 1983 248.5 2015.5Q321 2048 402 2048H512Q554 2048 591.5 2032.0Q629 2016 657.0 1988.0Q685 1960 701.0 1922.5Q717 1885 717 1843Q717 1801 701.0 1763.5Q685 1726 657.0 1698.0Q629 1670 591.5 1654.0Q554 1638 512 1638H410Q410 1596 393.5 1558.5Q377 1521 349.5 1493.5Q322 1466 284.5 1450.0Q247 1434 205 1434Q160 1434 122.5 1451.0Q85 1468 57.5 1496.5Q30 1525 15.0 1563.5Q0 1602 0 1646ZM1646 2048Q1727 2048 1799.5 2015.5Q1872 1983 1927.5 1927.5Q1983 1872 2015.5 1799.5Q2048 1727 2048 1646V1536Q2048 1494 2032.0 1456.5Q2016 1419 1988.0 1391.0Q1960 1363 1922.5 1347.0Q1885 1331 1843 1331Q1801 1331 1763.5 1347.0Q1726 1363 1698.0 1391.0Q1670 1419 1654.0 1456.5Q1638 1494 1638 1536V1638H1536Q1494 1638 1456.5 1654.0Q1419 1670 1391.0 1698.0Q1363 1726 1347.0 1763.5Q1331 1801 1331 1843Q1331 1885 1347.0 1922.5Q1363 1960 1391.0 1988.0Q1419 2016 1456.5 2032.0Q1494 2048 1536 2048ZM613 327Q614 321 614.0 314.5Q614 308 614 302Q614 239 589.0 184.0Q564 129 522.0 88.0Q480 47 424.5 23.5Q369 0 307 0Q244 0 188.0 24.5Q132 49 90.5 90.5Q49 132 24.5 188.0Q0 244 0 307Q0 369 23.5 424.5Q47 480 88.0 522.0Q129 564 184.0 589.0Q239 614 302 614Q340 614 375.0 606.5Q410 599 444 582L645 717L443 851Q409 834 374.5 826.5Q340 819 302 819Q240 819 185.0 844.0Q130 869 89.0 911.0Q48 953 24.0 1008.5Q0 1064 0 1126Q0 1189 24.0 1245.0Q48 1301 90.0 1343.0Q132 1385 188.0 1409.5Q244 1434 307 1434Q369 1434 424.5 1410.0Q480 1386 522.0 1345.0Q564 1304 589.0 1249.0Q614 1194 614 1131Q614 1125 614.0 1119.0Q614 1113 613 1107L922 901L1451 1254Q1470 1266 1491.5 1273.0Q1513 1280 1536 1280Q1568 1280 1596.0 1268.0Q1624 1256 1645.0 1235.5Q1666 1215 1678.0 1187.0Q1690 1159 1690 1127Q1690 1088 1671.5 1054.5Q1653 1021 1621 999L622 332Q616 328 613 327ZM307 1024Q328 1024 346.5 1032.0Q365 1040 379.5 1054.0Q394 1068 402.0 1086.5Q410 1105 410 1126Q410 1147 402.0 1166.0Q394 1185 380.0 1199.0Q366 1213 347.0 1221.0Q328 1229 307 1229Q286 1229 267.5 1221.0Q249 1213 235.0 1198.5Q221 1184 213.0 1165.5Q205 1147 205 1126Q205 1105 213.0 1086.5Q221 1068 235.0 1054.0Q249 1040 267.5 1032.0Q286 1024 307 1024ZM2048 717V410Q2048 368 2032.0 330.5Q2016 293 1988.0 265.0Q1960 237 1922.5 221.0Q1885 205 1843 205Q1798 205 1757.0 223.5Q1716 242 1687 277Q1681 250 1667.5 227.0Q1654 204 1634.0 187.5Q1614 171 1589.0 162.0Q1564 153 1536 153Q1513 153 1491.5 160.0Q1470 167 1451 179L1122 399L1398 584L1621 435Q1626 432 1630.0 429.0Q1634 426 1638 422V717Q1638 759 1654.0 796.5Q1670 834 1698.0 862.0Q1726 890 1763.5 906.0Q1801 922 1843 922Q1885 922 1922.5 906.0Q1960 890 1988.0 862.0Q2016 834 2032.0 796.5Q2048 759 2048 717ZM410 307Q410 328 402.0 347.0Q394 366 380.0 380.0Q366 394 347.0 402.0Q328 410 307 410Q286 410 267.5 402.0Q249 394 235.0 379.5Q221 365 213.0 346.5Q205 328 205 307Q205 286 213.0 267.5Q221 249 235.0 235.0Q249 221 267.5 213.0Q286 205 307 205Q328 205 346.5 213.0Q365 221 379.5 235.0Q394 249 402.0 267.5Q410 286 410 307Z"/>
  </g>
</svg>