<?xml version="1.0" encoding="utf-8"?>
<svg xmlns="http://www.w3.org/2000/svg" width="16" height="16" viewBox="0 0 2048 2048">
  <g transform="translate(0, 2048) scale(1, -1)">
    <path fill="#000000" d="M1946 2048Q1967 2048 1985.5 2040.0Q2004 2032 2018.0 2018.0Q2032 2004 2040.0 1985.5Q2048 1967 2048 1946V1126Q2048 1105 2040.0 1086.5Q2032 1068 2018.0 1054.0Q2004 1040 1985.5 1032.0Q1967 1024 1946 1024Q1925 1024 1906.5 1032.0Q1888 1040 1873.5 1054.0Q1859 1068 1851.0 1086.5Q1843 1105 1843 1126V1698L350 205H922Q943 205 961.5 197.0Q980 189 994.0 174.5Q1008 160 1016.0 141.5Q1024 123 1024 102Q1024 81 1016.0 62.5Q1008 44 994.0 30.0Q980 16 961.5 8.0Q943 0 922 0H102Q81 0 62.5 8.0Q44 16 30.0 30.0Q16 44 8.0 62.5Q0 81 0 102V922Q0 943 8.0 961.5Q16 980 30.0 994.0Q44 1008 62.5 1016.0Q81 1024 102 1024Q123 1024 141.5 1016.0Q160 1008 174.5 994.0Q189 980 197.0 961.5Q205 943 205 922V350L1698 1843H1126Q1105 1843 1086.5 1851.0Q1068 1859 1054.0 1873.5Q1040 1888 1032.0 1906.5Q1024 1925 1024 1946Q1024 1967 1032.0 1985.5Q1040 2004 1054.0 2018.0Q1068 2032 1086.5 2040.0Q1105 2048 1126 2048Z"/>
  </g>
</svg>