<?xml version="1.0" encoding="utf-8"?>
<svg xmlns="http://www.w3.org/2000/svg" width="16" height="16" viewBox="0 0 2048 2048">
  <g transform="translate(0, 2048) scale(1, -1)">
    <path fill="#000000" d="M302 0Q242 0 187.0 24.5Q132 49 90.5 90.5Q49 132 24.5 187.0Q0 242 0 302V1746Q0 1806 24.5 1861.0Q49 1916 90.5 1957.5Q132 1999 187.0 2023.5Q242 2048 302 2048H1746Q1806 2048 1861.0 2023.5Q1916 1999 1957.5 1957.5Q1999 1916 2023.5 1861.0Q2048 1806 2048 1746V302Q2048 242 2023.5 187.0Q1999 132 1957.5 90.5Q1916 49 1861.0 24.5Q1806 0 1746 0ZM1741 205Q1762 205 1780.5 213.0Q1799 221 1813.0 235.0Q1827 249 1835.0 267.5Q1843 286 1843 307V1741Q1843 1762 1835.0 1780.5Q1827 1799 1813.0 1813.0Q1799 1827 1780.5 1835.0Q1762 1843 1741 1843H307Q286 1843 267.5 1835.0Q249 1827 235.0 1813.0Q221 1799 213.0 1780.5Q205 1762 205 1741V307Q205 286 213.0 267.5Q221 249 235.0 235.0Q249 221 267.5 213.0Q286 205 307 205Z"/>
  </g>
</svg>