<?xml version="1.0" encoding="utf-8"?>
<svg xmlns="http://www.w3.org/2000/svg" width="16" height="16" viewBox="0 0 2048 2048">
  <g transform="translate(0, 2048) scale(1, -1)">
    <path fill="#000000" d="M2048 1946Q2048 1903 2018 1873L1374 1229H1741Q1762 1229 1780.5 1221.0Q1799 1213 1813.0 1198.5Q1827 1184 1835.0 1165.5Q1843 1147 1843 1126Q1843 1105 1835.0 1086.5Q1827 1068 1813.0 1054.0Q1799 1040 1780.5 1032.0Q1762 1024 1741 1024H1126Q1105 1024 1086.5 1032.0Q1068 1040 1054.0 1054.0Q1040 1068 1032.0 1086.5Q1024 1105 1024 1126V1741Q1024 1762 1032.0 1780.5Q1040 1799 1054.0 1813.0Q1068 1827 1086.5 1835.0Q1105 1843 1126 1843Q1147 1843 1165.5 1835.0Q1184 1827 1198.5 1813.0Q1213 1799 1221.0 1780.5Q1229 1762 1229 1741V1374L1873 2018Q1903 2048 1946 2048Q1967 2048 1985.5 2040.0Q2004 2032 2018.0 2018.0Q2032 2004 2040.0 1985.5Q2048 1967 2048 1946ZM922 1024Q943 1024 961.5 1016.0Q980 1008 994.0 994.0Q1008 980 1016.0 961.5Q1024 943 1024 922V307Q1024 286 1016.0 267.5Q1008 249 994.0 235.0Q980 221 961.5 213.0Q943 205 922 205Q901 205 882.5 213.0Q864 221 849.5 235.0Q835 249 827.0 267.5Q819 286 819 307V674L175 30Q145 0 102 0Q81 0 62.5 8.0Q44 16 30.0 30.0Q16 44 8.0 62.5Q0 81 0 102Q0 145 30 175L674 819H307Q286 819 267.5 827.0Q249 835 235.0 849.5Q221 864 213.0 882.5Q205 901 205 922Q205 943 213.0 961.5Q221 980 235.0 994.0Q249 1008 267.5 1016.0Q286 1024 307 1024Z"/>
  </g>
</svg>