<?xml version="1.0" encoding="utf-8"?>
<svg xmlns="http://www.w3.org/2000/svg" width="16" height="16" viewBox="0 0 2048 2048">
  <g transform="translate(0, 2048) scale(1, -1)">
    <path fill="#ffffff" d="M1024 879 175 30Q145 0 103 0Q59 0 29.5 29.5Q0 59 0 103Q0 145 30 175L879 1024L30 1873Q0 1903 0 1946Q0 1967 8.0 1986.0Q16 2005 30.0 2018.5Q44 2032 63.0 2040.0Q82 2048 103 2048Q145 2048 175 2018L1024 1169L1873 2018Q1903 2048 1946 2048Q1967 2048 1985.5 2040.0Q2004 2032 2018.0 2018.0Q2032 2004 2040.0 1985.5Q2048 1967 2048 1946Q2048 1903 2018 1873L1169 1024L2018 175Q2048 145 2048 103Q2048 82 2040.0 63.0Q2032 44 2018.5 30.0Q2005 16 1986.0 8.0Q1967 0 1946 0Q1903 0 1873 30Z"/>
  </g>
</svg>