<?xml version="1.0" encoding="utf-8"?>
<svg xmlns="http://www.w3.org/2000/svg" width="16" height="16" viewBox="0 0 2048 2048">
  <g transform="translate(0, 2048) scale(1, -1)">
    <path fill="#ffffff" d="M1792 1216V251Q1792 201 1771.5 155.5Q1751 110 1716.5 75.5Q1682 41 1636.5 20.5Q1591 0 1541 0H640Q582 0 530.0 25.0Q478 50 441 95L365 19Q346 0 320 0Q294 0 275.0 19.0Q256 38 256 64Q256 90 275 109L386 220Q385 229 384.5 238.0Q384 247 384 256V1216Q384 1238 392.5 1250.5Q401 1263 414.5 1269.5Q428 1276 444.5 1278.0Q461 1280 478 1280H512V1471Q512 1480 515.0 1490.0Q518 1500 523 1508L779 1892Q787 1905 802.0 1911.5Q817 1918 832 1918Q848 1918 862.0 1912.0Q876 1906 885 1892L1141 1508Q1146 1500 1149.0 1490.0Q1152 1480 1152 1471V1280H1224L1296 1461Q1226 1509 1189.0 1579.5Q1152 1650 1152 1735Q1152 1800 1178.0 1857.0Q1204 1914 1248.0 1956.5Q1292 1999 1350.0 2023.5Q1408 2048 1472 2048Q1539 2048 1597.0 2023.0Q1655 1998 1698.5 1954.5Q1742 1911 1767.0 1853.0Q1792 1795 1792 1728Q1792 1664 1767.5 1606.0Q1743 1548 1700.5 1504.0Q1658 1460 1601.0 1434.0Q1544 1408 1479 1408Q1462 1408 1446.5 1409.5Q1431 1411 1415 1413L1362 1280H1728Q1754 1280 1773.0 1261.0Q1792 1242 1792 1216ZM1280 1728Q1280 1689 1295.0 1654.0Q1310 1619 1336.5 1592.5Q1363 1566 1398.0 1551.0Q1433 1536 1472 1536Q1511 1536 1546.0 1551.0Q1581 1566 1607.5 1592.5Q1634 1619 1649.0 1654.0Q1664 1689 1664 1728Q1664 1767 1649.0 1802.0Q1634 1837 1607.5 1863.5Q1581 1890 1546.0 1905.0Q1511 1920 1472 1920Q1433 1920 1398.0 1905.0Q1363 1890 1336.5 1863.5Q1310 1837 1295.0 1802.0Q1280 1767 1280 1728ZM968 1536 832 1741 696 1536ZM1024 1408H640V1280H1024ZM1664 1152H512V346L915 749Q896 787 896 832Q896 871 911.0 906.0Q926 941 952.5 967.5Q979 994 1014.0 1009.0Q1049 1024 1088 1024Q1127 1024 1162.0 1009.0Q1197 994 1223.5 967.5Q1250 941 1265.0 906.0Q1280 871 1280 832Q1280 793 1265.0 758.0Q1250 723 1223.5 696.5Q1197 670 1162.0 655.0Q1127 640 1088 640Q1043 640 1005 659L532 186Q550 159 579.0 143.5Q608 128 640 128H1536Q1563 128 1586.0 138.0Q1609 148 1626.5 165.5Q1644 183 1654.0 206.0Q1664 229 1664 256ZM1088 768Q1114 768 1133.0 787.0Q1152 806 1152 832Q1152 858 1133.0 877.0Q1114 896 1088 896Q1062 896 1043.0 877.0Q1024 858 1024 832Q1024 806 1043.0 787.0Q1062 768 1088 768Z"/>
  </g>
</svg>