<?xml version="1.0" encoding="utf-8"?>
<svg xmlns="http://www.w3.org/2000/svg" width="16" height="16" viewBox="0 0 2048 2048">
  <g transform="translate(0, 2048) scale(1, -1)">
    <path fill="#000000" d="M64 1024Q64 1157 98.0 1279.5Q132 1402 194.5 1509.0Q257 1616 344.5 1703.5Q432 1791 539.0 1853.5Q646 1916 768.5 1950.0Q891 1984 1024 1984Q1157 1984 1279.5 1950.0Q1402 1916 1509.0 1853.5Q1616 1791 1703.5 1703.5Q1791 1616 1853.5 1509.0Q1916 1402 1950.0 1279.5Q1984 1157 1984 1024Q1984 891 1950.0 768.5Q1916 646 1853.5 539.0Q1791 432 1703.5 344.5Q1616 257 1509.0 194.5Q1402 132 1279.5 98.0Q1157 64 1024 64Q891 64 768.0 98.0Q645 132 538.5 194.5Q432 257 344.5 344.5Q257 432 194.5 538.5Q132 645 98.0 768.0Q64 891 64 1024Z"/>
  </g>
</svg>