<?xml version="1.0" encoding="utf-8"?>
<svg xmlns="http://www.w3.org/2000/svg" width="16" height="16" viewBox="0 0 2048 2048">
  <g transform="translate(0, 2048) scale(1, -1)">
    <path fill="#000000" d="M320 128Q294 128 275.0 147.0Q256 166 256 192V1280Q256 1351 292.5 1411.5Q329 1472 391 1506V1728Q391 1754 410.0 1773.0Q429 1792 455 1792H576V1985Q576 2011 595.0 2030.0Q614 2049 640 2049H896Q922 2049 941.0 2030.0Q960 2011 960 1985V1792H1095Q1121 1792 1140.0 1773.0Q1159 1754 1159 1728V1498Q1216 1463 1248.0 1405.5Q1280 1348 1280 1280H1344Q1423 1280 1496.5 1259.5Q1570 1239 1634.0 1201.5Q1698 1164 1751.0 1111.0Q1804 1058 1841.5 994.0Q1879 930 1899.5 856.5Q1920 783 1920 704V192Q1920 166 1901.0 147.0Q1882 128 1856 128ZM704 1921V1792H832V1921ZM1031 1536V1664H519V1536ZM384 256H519L512 511Q512 538 522.0 561.0Q532 584 549.5 601.5Q567 619 590.0 629.0Q613 639 640 639H896Q922 639 945.5 629.0Q969 619 986.5 601.5Q1004 584 1014.0 560.5Q1024 537 1024 511V256H1152V1280Q1152 1306 1142.0 1329.5Q1132 1353 1114.5 1370.5Q1097 1388 1073.5 1398.0Q1050 1408 1024 1408H512Q485 1408 462.0 1398.0Q439 1388 421.5 1370.5Q404 1353 394.0 1330.0Q384 1307 384 1280ZM512 1184Q512 1224 540.0 1252.0Q568 1280 608 1280Q648 1280 676.0 1252.0Q704 1224 704 1184Q704 1144 676.0 1116.0Q648 1088 608 1088Q568 1088 540.0 1116.0Q512 1144 512 1184ZM832 1184Q832 1224 860.0 1252.0Q888 1280 928 1280Q968 1280 996.0 1252.0Q1024 1224 1024 1184Q1024 1144 996.0 1116.0Q968 1088 928 1088Q888 1088 860.0 1116.0Q832 1144 832 1184ZM1280 256H1792V712Q1792 800 1756.0 879.5Q1720 959 1659.5 1019.5Q1599 1080 1519.5 1116.0Q1440 1152 1352 1152H1280ZM512 864Q512 904 540.0 932.0Q568 960 608 960Q648 960 676.0 932.0Q704 904 704 864Q704 824 676.0 796.0Q648 768 608 768Q568 768 540.0 796.0Q512 824 512 864ZM832 864Q832 904 860.0 932.0Q888 960 928 960Q968 960 996.0 932.0Q1024 904 1024 864Q1024 824 996.0 796.0Q968 768 928 768Q888 768 860.0 796.0Q832 824 832 864ZM1408 800Q1408 840 1436.0 868.0Q1464 896 1504 896Q1544 896 1572.0 868.0Q1600 840 1600 800Q1600 760 1572.0 732.0Q1544 704 1504 704Q1464 704 1436.0 732.0Q1408 760 1408 800ZM1408 480Q1408 520 1436.0 548.0Q1464 576 1504 576Q1544 576 1572.0 548.0Q1600 520 1600 480Q1600 440 1572.0 412.0Q1544 384 1504 384Q1464 384 1436.0 412.0Q1408 440 1408 480ZM640 511V256H896V511Z"/>
  </g>
</svg>