<?xml version="1.0" encoding="utf-8"?>
<svg xmlns="http://www.w3.org/2000/svg" width="16" height="16" viewBox="0 0 2048 2048">
  <g transform="translate(0, 2048) scale(1, -1)">
    <path fill="#000000" d="M320 0Q281 0 246.0 15.0Q211 30 184.5 56.5Q158 83 143.0 118.0Q128 153 128 192V957Q128 1004 150.0 1046.0Q172 1088 210 1115L594 1383Q615 1398 640 1407V1600Q640 1639 655.0 1674.0Q670 1709 696.5 1735.5Q723 1762 758.0 1777.0Q793 1792 832 1792H1024V1984Q1024 2010 1043.0 2029.0Q1062 2048 1088 2048Q1114 2048 1133.0 2029.0Q1152 2010 1152 1984V1792H1344Q1383 1792 1418.0 1777.0Q1453 1762 1479.5 1735.5Q1506 1709 1521.0 1674.0Q1536 1639 1536 1600V1152H1728Q1767 1152 1802.0 1137.0Q1837 1122 1863.5 1095.5Q1890 1069 1905.0 1034.0Q1920 999 1920 960V192Q1920 153 1905.0 118.0Q1890 83 1863.5 56.5Q1837 30 1802.0 15.0Q1767 0 1728 0ZM896 128H1152V960Q1152 999 1167.0 1034.0Q1182 1069 1208.5 1095.5Q1235 1122 1270.0 1137.0Q1305 1152 1344 1152H1408V1600Q1408 1626 1389.0 1645.0Q1370 1664 1344 1664H832Q806 1664 787.0 1645.0Q768 1626 768 1600V1407Q827 1387 861.5 1337.5Q896 1288 896 1226ZM768 128V1226Q768 1253 749.0 1271.5Q730 1290 703 1290Q683 1290 667 1279L283 1010Q256 991 256 957V192Q256 166 275.0 147.0Q294 128 320 128ZM1728 128Q1754 128 1773.0 147.0Q1792 166 1792 192V960Q1792 986 1773.0 1005.0Q1754 1024 1728 1024H1344Q1318 1024 1299.0 1005.0Q1280 986 1280 960V128Z"/>
  </g>
</svg>