<?xml version="1.0" encoding="utf-8"?>
<svg id="" width="16" height="16" style="width:16px;height:16px;" version="1.1" xmlns="http://www.w3.org/2000/svg" viewBox="0 0 2048 2048" enable-background="new 0 0 2048 2048" xml:space="preserve">
    <path fill="#000" d="M341.33 0 q27.74 0 48.01 20.27 q20.26 20.27 20.26 48 q0 27.73 -20.26 48 q-20.27 20.27 -48.01 20.27 l-136.53 0 q-22.4 0 -36.27 9.07 q-13.87 9.07 -20.8 23.47 q-6.94 14.4 -9.6 32.53 q-2.66 18.13 -2.66 37.33 q0 18.14 1.06 35.74 q1.06 17.6 1.06 32.53 q0 19.2 -2.13 37.33 q-2.13 18.14 -9.06 32.54 q-6.93 14.4 -20.8 23.46 q-13.87 9.06 -37.33 9.06 q-27.74 0 -48 -20.26 q-20.27 -20.27 -20.27 -48.01 l0 -136.53 q0 -41.6 16 -78.94 q16 -37.33 44.27 -65.6 q28.27 -28.27 65.6 -44.27 q37.33 -16 78.94 -16 l136.53 0 ZM1024 0 q27.73 0 48 20.27 q20.27 20.27 20.27 48 q0 27.73 -20.27 48 q-20.27 20.27 -48 20.27 l-273.07 0 q-27.73 0 -48 -20.27 q-20.26 -20.27 -20.26 -48 q0 -27.74 20.26 -48 q20.27 -20.27 48 -20.27 l273.07 0 ZM1365.33 68.27 q0 -27.74 20.27 -48 q20.27 -20.27 48 -20.27 l136.53 0 q41.6 0 78.93 16 q37.34 16 65.6 44.27 q28.27 28.27 44.27 65.6 q16 37.33 16 78.94 l0 136.53 q0 27.74 -20.27 48.01 q-20.26 20.26 -47.99 20.26 q-27.74 0 -48.01 -20.26 q-20.26 -20.27 -20.26 -48.01 l0 -136.53 q0 -22.4 -9.07 -36.27 q-9.07 -13.87 -23.47 -20.8 q-14.4 -6.94 -32.53 -9.6 q-18.13 -2.66 -37.34 -2.66 q-18.13 0 -35.73 1.06 q-17.6 1.06 -32.54 1.06 q-19.2 0 -37.33 -2.13 q-18.13 -2.13 -32.53 -9.06 q-14.4 -6.93 -23.47 -20.8 q-9.07 -13.87 -9.07 -37.33 ZM0 1024 l0 -273.07 q0 -27.73 20.27 -48 q20.27 -20.26 48 -20.26 q27.73 0 48 20.26 q20.27 20.27 20.27 48 l0 273.07 q0 27.73 -20.27 48 q-20.27 20.27 -48 20.27 q-27.74 0 -48 -20.27 q-20.27 -20.27 -20.27 -48 ZM1774.93 750.93 l0 170.67 q-17.06 -3.2 -34.13 -4.26 q-17.07 -1.07 -34.13 -1.07 q-17.07 0 -34.14 1.07 q-17.06 1.06 -34.13 4.26 l0 -170.67 q0 -27.73 20.26 -48 q20.27 -20.26 48.01 -20.26 q27.73 0 47.99 20.26 q20.27 20.27 20.27 48 ZM2048 1365.33 q0 69.34 -25.6 130.67 q-25.6 61.33 -74.67 110.4 l-421.33 421.33 q-20.27 20.27 -48 20.27 q-27.73 0 -48 -20.26 q-20.27 -20.27 -20.27 -48.01 q0 -27.73 20.27 -48 l421.33 -421.33 q28.8 -28.8 44.27 -66.67 q15.47 -37.87 15.47 -78.4 q0 -42.66 -16 -79.99 q-16 -37.34 -43.73 -65.07 q-27.74 -27.73 -65.07 -43.73 q-37.34 -16 -79.99 -16 q-39.47 0 -69.34 11.73 q-29.87 11.74 -55.47 30.94 q-25.6 19.2 -48.53 43.73 q-22.93 24.54 -48.54 50.13 q12.8 0 26.13 -0.54 q13.34 -0.53 26.13 -0.53 q18.13 0 36.27 2.13 q18.13 2.13 32.53 9.6 q14.4 7.46 23.47 21.33 q9.07 13.87 9.07 36.26 q0 27.74 -20.27 48.01 q-20.27 20.26 -48 20.26 l-273.06 0 q-27.74 0 -48 -20.26 q-20.27 -20.27 -20.27 -48.01 l0 -273.06 q0 -27.74 20.27 -48.01 q20.26 -20.26 48 -20.26 q27.73 0 48 20.26 q20.26 20.27 20.26 48.01 l0 132.26 q39.47 -39.46 74.67 -75.73 q35.2 -36.27 74.13 -64 q38.93 -27.73 85.33 -44.27 q46.4 -16.53 107.2 -16.53 q70.4 0 132.26 27.2 q61.87 27.2 108.26 73.6 q46.4 46.4 73.6 108.26 q27.2 61.87 27.2 132.26 ZM409.6 1706.67 q0 27.73 -20.26 47.99 q-20.27 20.27 -48.01 20.27 l-136.53 0 q-41.6 0 -78.94 -16 q-37.33 -16 -65.6 -44.27 q-28.27 -28.26 -44.27 -65.6 q-16 -37.34 -16 -78.93 l0 -136.53 q0 -27.73 20.27 -48 q20.27 -20.27 48 -20.27 q27.73 0 48 20.27 q20.27 20.27 20.27 48 l0 136.53 q0 22.4 8.53 36.27 q8.53 13.87 22.94 20.8 q14.4 6.93 33.06 9.6 q18.66 2.67 37.87 2.67 q18.14 0 35.74 -1.07 q17.6 -1.07 32.53 -1.07 q19.2 0 37.33 2.13 q18.14 2.13 32.54 9.07 q14.4 6.94 23.46 20.8 q9.06 13.87 9.06 37.34 ZM1024 1638.4 q27.73 0 48 20.26 q20.27 20.27 20.27 48.01 q0 27.73 -20.27 47.99 q-20.27 20.27 -48 20.27 l-273.07 0 q-27.73 0 -48 -20.27 q-20.26 -20.26 -20.26 -47.99 q0 -27.74 20.26 -48.01 q20.27 -20.26 48 -20.26 l273.07 0 Z"/>
</svg>