<?xml version="1.0" encoding="utf-8"?>
<svg xmlns="http://www.w3.org/2000/svg" width="16" height="16" viewBox="0 0 2048 2048">
  <g transform="translate(0, 2048) scale(1, -1)">
    <path fill="#ffffff" d="M128 1600V1728Q128 1767 143.0 1802.0Q158 1837 184.5 1863.5Q211 1890 246.0 1905.0Q281 1920 320 1920H448Q474 1920 493.0 1901.0Q512 1882 512 1856Q512 1830 493.0 1811.0Q474 1792 448 1792H320Q299 1792 286.0 1784.5Q273 1777 266.0 1763.5Q259 1750 257.0 1732.5Q255 1715 255 1696Q255 1684 256 1672V1656Q257 1644 257 1632Q257 1612 254.5 1595.0Q252 1578 245.5 1564.5Q239 1551 226.0 1543.5Q213 1536 192 1536Q166 1536 147.0 1555.0Q128 1574 128 1600ZM832 1792Q806 1792 787.0 1811.0Q768 1830 768 1856Q768 1882 787.0 1901.0Q806 1920 832 1920H1088Q1114 1920 1133.0 1901.0Q1152 1882 1152 1856Q1152 1830 1133.0 1811.0Q1114 1792 1088 1792ZM1408 1856Q1408 1882 1427.0 1901.0Q1446 1920 1472 1920H1600Q1639 1920 1674.0 1905.0Q1709 1890 1735.5 1863.5Q1762 1837 1777.0 1802.0Q1792 1767 1792 1728V1600Q1792 1574 1773.0 1555.0Q1754 1536 1728 1536Q1702 1536 1683.0 1555.0Q1664 1574 1664 1600V1728Q1664 1749 1656.5 1762.0Q1649 1775 1635.5 1781.5Q1622 1788 1604.5 1790.5Q1587 1793 1568 1793Q1556 1793 1544 1792H1528Q1516 1791 1504 1791Q1484 1791 1467.0 1793.0Q1450 1795 1436.5 1802.0Q1423 1809 1415.5 1822.0Q1408 1835 1408 1856ZM990 0Q952 0 917.0 14.5Q882 29 855 56L541 370Q515 396 500.0 432.0Q485 468 485 506Q485 544 500.0 579.5Q515 615 541 641L1342 1442Q1369 1469 1404.5 1483.5Q1440 1498 1478 1498Q1558 1498 1614 1442L1928 1129Q1984 1073 1984 993Q1984 955 1969.5 919.5Q1955 884 1928 857L1199 128H1472Q1498 128 1517.0 109.0Q1536 90 1536 64Q1536 38 1517.0 19.0Q1498 0 1472 0ZM1856 993Q1856 1019 1837 1038L1523 1352Q1504 1371 1478 1371Q1452 1371 1433 1352L938 857L1342 453L1837 948Q1856 967 1856 993ZM128 960V1216Q128 1242 147.0 1261.0Q166 1280 192 1280Q218 1280 237.0 1261.0Q256 1242 256 1216V960Q256 934 237.0 915.0Q218 896 192 896Q166 896 147.0 915.0Q128 934 128 960ZM991 127Q1017 127 1036 146L1252 362L848 766L632 551Q613 532 613 506Q613 479 632 460L946 146Q965 127 991 127ZM320 256Q281 256 246.0 271.0Q211 286 184.5 312.5Q158 339 143.0 374.0Q128 409 128 448V576Q128 602 147.0 621.0Q166 640 192 640Q218 640 237.0 621.0Q256 602 256 576V448Q256 427 263.5 414.0Q271 401 284.5 394.0Q298 387 315.0 385.0Q332 383 352 383Q364 383 376 384H392Q404 385 416 385Q435 385 452.5 382.5Q470 380 483.5 373.5Q497 367 504.5 354.0Q512 341 512 320Q512 294 493.0 275.0Q474 256 448 256Z"/>
  </g>
</svg>