<?xml version="1.0" encoding="utf-8"?>
<svg xmlns="http://www.w3.org/2000/svg" width="16" height="16" viewBox="0 0 2048 2048">
  <g transform="translate(0, 2048) scale(1, -1)">
    <path fill="#000000" d="M1050 1088 1645 493Q1664 474 1664 448Q1664 422 1645.0 403.0Q1626 384 1600 384Q1574 384 1555 403L960 998L365 403Q346 384 320 384Q294 384 275.0 403.0Q256 422 256 448Q256 474 275 493L870 1088L275 1683Q256 1702 256 1728Q256 1754 275.0 1773.0Q294 1792 320 1792Q346 1792 365 1773L960 1178L1555 1773Q1574 1792 1600 1792Q1626 1792 1645.0 1773.0Q1664 1754 1664 1728Q1664 1702 1645 1683Z"/>
  </g>
</svg>