<?xml version="1.0" encoding="utf-8"?>
<svg xmlns="http://www.w3.org/2000/svg" width="16" height="16" viewBox="0 0 2048 2048">
  <g transform="translate(0, 2048) scale(1, -1)">
    <path fill="#ffffff" d="M256 1728Q256 1767 271.0 1802.0Q286 1837 312.5 1863.5Q339 1890 374.0 1905.0Q409 1920 448 1920H576Q602 1920 621.0 1901.0Q640 1882 640 1856Q640 1830 621.0 1811.0Q602 1792 576 1792H448Q427 1792 414.0 1784.5Q401 1777 394.0 1763.5Q387 1750 385.0 1732.5Q383 1715 383 1696Q383 1684 384 1672V1656Q385 1644 385 1632Q385 1612 382.5 1595.0Q380 1578 373.5 1564.5Q367 1551 354.0 1543.5Q341 1536 320 1536Q294 1536 275.0 1555.0Q256 1574 256 1600ZM960 1792Q934 1792 915.0 1811.0Q896 1830 896 1856Q896 1882 915.0 1901.0Q934 1920 960 1920H1216Q1242 1920 1261.0 1901.0Q1280 1882 1280 1856Q1280 1830 1261.0 1811.0Q1242 1792 1216 1792ZM1536 1856Q1536 1882 1555.0 1901.0Q1574 1920 1600 1920H1728Q1767 1920 1802.0 1905.0Q1837 1890 1863.5 1863.5Q1890 1837 1905.0 1802.0Q1920 1767 1920 1728V1600Q1920 1574 1901.0 1555.0Q1882 1536 1856 1536Q1830 1536 1811.0 1555.0Q1792 1574 1792 1600V1728Q1792 1749 1784.5 1762.0Q1777 1775 1763.5 1781.5Q1750 1788 1732.5 1790.5Q1715 1793 1696 1793Q1684 1793 1672 1792H1656Q1644 1791 1632 1791Q1612 1791 1595.0 1793.0Q1578 1795 1564.5 1802.0Q1551 1809 1543.5 1822.0Q1536 1835 1536 1856ZM1563 506Q1563 468 1548.5 432.5Q1534 397 1507 370L1193 56Q1166 29 1131.0 14.5Q1096 0 1058 0H576Q550 0 531.0 19.0Q512 38 512 64Q512 90 531.0 109.0Q550 128 576 128H849L120 857Q94 883 79.0 919.0Q64 955 64 993Q64 1031 78.5 1067.0Q93 1103 120 1129L434 1442Q461 1469 496.5 1483.5Q532 1498 570 1498Q650 1498 706 1442L1507 641Q1563 585 1563 506ZM192 993Q192 967 211 948L706 453L1110 857L615 1352Q596 1371 570 1371Q544 1371 525 1352L211 1038Q192 1019 192 993ZM1792 1216Q1792 1242 1811.0 1261.0Q1830 1280 1856 1280Q1882 1280 1901.0 1261.0Q1920 1242 1920 1216V960Q1920 934 1901.0 915.0Q1882 896 1856 896Q1830 896 1811.0 915.0Q1792 934 1792 960ZM1057 127Q1083 127 1102 146L1416 460Q1435 479 1435 506Q1435 532 1416 551L1200 766L796 362L1012 146Q1031 127 1057 127ZM1600 256Q1574 256 1555.0 275.0Q1536 294 1536 320Q1536 346 1555.0 365.0Q1574 384 1600 384H1728Q1749 384 1762.0 391.5Q1775 399 1781.5 412.5Q1788 426 1790.5 443.0Q1793 460 1793 480Q1793 492 1792 504V520Q1791 532 1791 544Q1791 563 1793.0 580.5Q1795 598 1802.0 611.5Q1809 625 1822.0 632.5Q1835 640 1856 640Q1882 640 1901.0 621.0Q1920 602 1920 576V448Q1920 409 1905.0 374.0Q1890 339 1863.5 312.5Q1837 286 1802.0 271.0Q1767 256 1728 256Z"/>
  </g>
</svg>