<?xml version="1.0" encoding="utf-8"?>
<svg xmlns="http://www.w3.org/2000/svg" width="16" height="16" viewBox="0 0 2048 2048">
  <g transform="translate(0, 2048) scale(1, -1)">
    <path fill="#ffffff" d="M256 1600V1728Q256 1767 271.0 1802.0Q286 1837 312.5 1863.5Q339 1890 374.0 1905.0Q409 1920 448 1920H576Q602 1920 621.0 1901.0Q640 1882 640 1856Q640 1830 621.0 1811.0Q602 1792 576 1792H448Q427 1792 414.0 1783.5Q401 1775 394.5 1761.5Q388 1748 385.5 1731.0Q383 1714 383 1696Q383 1679 384.0 1662.5Q385 1646 385 1632Q385 1614 383.0 1597.0Q381 1580 374.5 1566.5Q368 1553 355.0 1544.5Q342 1536 320 1536Q294 1536 275.0 1555.0Q256 1574 256 1600ZM1216 1920Q1242 1920 1261.0 1901.0Q1280 1882 1280 1856Q1280 1830 1261.0 1811.0Q1242 1792 1216 1792H960Q934 1792 915.0 1811.0Q896 1830 896 1856Q896 1882 915.0 1901.0Q934 1920 960 1920ZM1728 1920Q1767 1920 1802.0 1905.0Q1837 1890 1863.5 1863.5Q1890 1837 1905.0 1802.0Q1920 1767 1920 1728V1600Q1920 1574 1901.0 1555.0Q1882 1536 1856 1536Q1830 1536 1811.0 1555.0Q1792 1574 1792 1600V1728Q1792 1749 1783.5 1762.0Q1775 1775 1761.5 1781.5Q1748 1788 1731.0 1790.5Q1714 1793 1696 1793Q1679 1793 1662.5 1792.0Q1646 1791 1632 1791Q1614 1791 1597.0 1793.0Q1580 1795 1566.5 1801.5Q1553 1808 1544.5 1821.0Q1536 1834 1536 1856Q1536 1882 1555.0 1901.0Q1574 1920 1600 1920ZM384 1056Q368 1059 352.0 1060.0Q336 1061 320 1061Q304 1061 288.0 1060.0Q272 1059 256 1056V1216Q256 1242 275.0 1261.0Q294 1280 320 1280Q346 1280 365.0 1261.0Q384 1242 384 1216ZM1920 1216V960Q1920 934 1901.0 915.0Q1882 896 1856 896Q1830 896 1811.0 915.0Q1792 934 1792 960V1216Q1792 1242 1811.0 1261.0Q1830 1280 1856 1280Q1882 1280 1901.0 1261.0Q1920 1242 1920 1216ZM768 896V640Q768 614 749.0 595.0Q730 576 704 576H448Q422 576 403.0 595.0Q384 614 384 640Q384 661 392.5 674.0Q401 687 415.0 694.0Q429 701 446.0 703.0Q463 705 481 705Q494 705 505.5 704.5Q517 704 528 704Q504 728 482.5 750.5Q461 773 437.0 791.0Q413 809 385.0 819.5Q357 830 320 830Q280 830 245.0 815.5Q210 801 184.0 775.5Q158 750 143.0 715.0Q128 680 128 640Q128 602 142.5 566.5Q157 531 184 504L579 109Q598 90 598 64Q598 38 579.0 19.0Q560 0 534 0Q508 0 489 19L94 414Q48 460 24.0 517.5Q0 575 0 640Q0 707 25.0 765.0Q50 823 93.5 865.5Q137 908 195.0 932.5Q253 957 320 957Q378 957 421.5 942.5Q465 928 501.0 902.5Q537 877 569.5 843.5Q602 810 640 772V896Q640 922 659.0 941.0Q678 960 704 960Q730 960 749.0 941.0Q768 922 768 896ZM1920 576V448Q1920 409 1905.0 374.0Q1890 339 1863.5 312.5Q1837 286 1802.0 271.0Q1767 256 1728 256H1600Q1574 256 1555.0 275.0Q1536 294 1536 320Q1536 346 1555.0 365.0Q1574 384 1600 384H1728Q1749 384 1762.0 392.0Q1775 400 1781.5 413.5Q1788 427 1790.5 444.5Q1793 462 1793 480Q1793 497 1792.0 513.5Q1791 530 1791 544Q1791 562 1793.0 579.0Q1795 596 1801.5 609.5Q1808 623 1821.0 631.5Q1834 640 1856 640Q1882 640 1901.0 621.0Q1920 602 1920 576ZM1216 384Q1242 384 1261.0 365.0Q1280 346 1280 320Q1280 294 1261.0 275.0Q1242 256 1216 256H960Q934 256 915.0 275.0Q896 294 896 320Q896 346 915.0 365.0Q934 384 960 384Z"/>
  </g>
</svg>