<?xml version="1.0" encoding="utf-8"?>
<svg xmlns="http://www.w3.org/2000/svg" width="16" height="16" viewBox="0 0 2048 2048">
  <g transform="translate(0, 2048) scale(1, -1)">
    <path fill="#000000" d="M1089 21Q1051 21 1019.5 40.5Q988 60 972 95L805 459L548 201Q520 173 481 173Q440 173 412.0 200.5Q384 228 384 269V1907Q384 1948 412.0 1975.5Q440 2003 481 2003Q520 2003 548 1975L1719 804Q1747 776 1747 737Q1747 696 1719.5 668.0Q1692 640 1651 640H1270L1421 303Q1432 278 1432 250Q1432 212 1412.5 181.5Q1393 151 1359 135L1143 33Q1117 21 1089 21ZM1088 149 1304 250 1133 633Q1125 651 1125 672Q1125 712 1153.0 740.0Q1181 768 1221 768H1573L512 1829V347L748 582Q776 610 816 610Q844 610 868.0 595.0Q892 580 903 554Z"/>
  </g>
</svg>