<?xml version="1.0" encoding="utf-8"?>
<svg xmlns="http://www.w3.org/2000/svg" width="16" height="16" viewBox="0 0 2048 2048">
  <g transform="translate(0, 2048) scale(1, -1)">
    <path fill="#000000" d="M704 1920Q730 1920 749.0 1901.0Q768 1882 768 1856Q768 1830 749.0 1811.0Q730 1792 704 1792H384Q357 1792 334.0 1782.0Q311 1772 293.5 1754.5Q276 1737 266.0 1714.0Q256 1691 256 1664V1344Q256 1318 237.0 1299.0Q218 1280 192 1280Q166 1280 147.0 1299.0Q128 1318 128 1344V1664Q128 1717 148.0 1763.5Q168 1810 203.0 1845.0Q238 1880 284.5 1900.0Q331 1920 384 1920ZM1472 1024Q1446 1024 1432.0 1044.5Q1418 1065 1407.5 1097.0Q1397 1129 1385.5 1169.0Q1374 1209 1352.0 1248.0Q1330 1287 1293.5 1321.0Q1257 1355 1197 1376Q1163 1387 1128.0 1397.0Q1093 1407 1060 1421Q1024 1435 1024 1472Q1024 1489 1034.0 1503.0Q1044 1517 1060 1523Q1094 1537 1129.5 1546.5Q1165 1556 1200 1568Q1253 1586 1288.0 1616.0Q1323 1646 1346.5 1683.5Q1370 1721 1385.5 1766.0Q1401 1811 1416 1859Q1417 1862 1418 1865L1421 1878Q1422 1881 1423 1884Q1429 1901 1443.5 1910.5Q1458 1920 1475 1920Q1492 1920 1506.0 1910.0Q1520 1900 1526 1884Q1539 1849 1549.0 1813.5Q1559 1778 1571 1743Q1593 1681 1639.0 1635.5Q1685 1590 1747 1568Q1781 1556 1816.0 1546.0Q1851 1536 1884 1523Q1901 1516 1910.5 1503.0Q1920 1490 1920 1472Q1920 1454 1910.5 1440.5Q1901 1427 1884 1421Q1850 1408 1815.5 1398.0Q1781 1388 1747 1376Q1614 1330 1568 1197Q1556 1163 1546.0 1128.0Q1536 1093 1523 1060Q1516 1043 1503.0 1033.5Q1490 1024 1472 1024ZM192 768Q218 768 237.0 749.0Q256 730 256 704V384Q256 357 266.0 334.0Q276 311 293.5 293.5Q311 276 334.0 266.0Q357 256 384 256H704Q730 256 749.0 237.0Q768 218 768 192Q768 166 749.0 147.0Q730 128 704 128H384Q331 128 284.5 148.0Q238 168 203.0 203.0Q168 238 148.0 284.5Q128 331 128 384V704Q128 730 147.0 749.0Q166 768 192 768ZM1856 768Q1882 768 1901.0 749.0Q1920 730 1920 704V384Q1920 331 1900.0 284.5Q1880 238 1845.0 203.0Q1810 168 1763.5 148.0Q1717 128 1664 128H1344Q1318 128 1299.0 147.0Q1280 166 1280 192Q1280 218 1299.0 237.0Q1318 256 1344 256H1664Q1691 256 1714.0 266.0Q1737 276 1754.5 293.5Q1772 311 1782.0 334.0Q1792 357 1792 384V704Q1792 730 1811.0 749.0Q1830 768 1856 768Z"/>
  </g>
</svg>