<?xml version="1.0" encoding="utf-8"?>
<svg xmlns="http://www.w3.org/2000/svg" width="16" height="16" viewBox="0 0 2048 2048">
  <g transform="translate(0, 2048) scale(1, -1)">
    <path fill="#ffffff" d="M1190 1216H1024Q997 1216 973.5 1226.0Q950 1236 933.0 1253.0Q916 1270 906.0 1293.5Q896 1317 896 1344V1600Q896 1627 906.0 1650.0Q916 1673 933.5 1690.5Q951 1708 974.0 1718.0Q997 1728 1024 1728H1190L1427 1965Q1446 1984 1472 1984Q1498 1984 1517.0 1965.0Q1536 1946 1536 1920V1024Q1536 998 1517.0 979.0Q1498 960 1472 960Q1446 960 1427 979ZM1677 1088Q1677 1108 1683.0 1122.5Q1689 1137 1702 1152Q1762 1221 1793.0 1300.5Q1824 1380 1824 1472Q1824 1564 1793.0 1643.5Q1762 1723 1702 1792Q1689 1807 1683.0 1821.5Q1677 1836 1677 1856Q1677 1896 1705.0 1924.0Q1733 1952 1773 1952Q1815 1952 1845 1920Q1886 1877 1918.0 1824.0Q1950 1771 1971.5 1712.5Q1993 1654 2004.5 1592.5Q2016 1531 2016 1472Q2016 1412 2005.0 1351.0Q1994 1290 1972.0 1232.0Q1950 1174 1918.5 1121.0Q1887 1068 1845 1024Q1815 992 1773 992Q1753 992 1736.0 999.5Q1719 1007 1705.5 1020.5Q1692 1034 1684.5 1051.0Q1677 1068 1677 1088ZM799 30Q761 30 730.0 50.5Q699 71 683 105L566 362L430 172Q416 153 396.0 142.5Q376 132 353 132Q312 132 284.0 159.5Q256 187 256 228V1398Q256 1439 284.0 1467.0Q312 1495 353 1495Q390 1495 418 1469L1264 678Q1278 664 1286.5 646.5Q1295 629 1295 609Q1295 568 1267.5 540.0Q1240 512 1199 512H937L1045 271Q1050 260 1053.0 245.5Q1056 231 1056 219Q1056 182 1035.5 150.5Q1015 119 982 103L854 43Q828 30 799 30Z"/>
  </g>
</svg>