<?xml version="1.0" encoding="utf-8"?>
<svg xmlns="http://www.w3.org/2000/svg" width="16" height="16" viewBox="0 0 2048 2048">
  <g transform="translate(0, 2048) scale(1, -1)">
    <path fill="#ffffff" d="M1089 21Q1051 21 1019.5 40.5Q988 60 972 95L805 459L548 201Q520 173 481 173Q440 173 412.0 200.5Q384 228 384 269V1907Q384 1948 412.0 1975.5Q440 2003 481 2003Q520 2003 548 1975L1719 804Q1747 776 1747 737Q1747 696 1719.5 668.0Q1692 640 1651 640H1270L1421 303Q1426 290 1428.5 277.0Q1431 264 1432 250Q1432 212 1412.5 181.5Q1393 151 1359 135L1143 33Q1117 21 1089 21Z"/>
  </g>
</svg>