<?xml version="1.0" encoding="utf-8"?>
<svg xmlns="http://www.w3.org/2000/svg" width="16" height="16" viewBox="0 0 2048 2048">
  <g transform="translate(0, 2048) scale(1, -1)">
    <path fill="#000000" d="M448 0Q409 0 374.0 15.0Q339 30 312.5 56.5Q286 83 271.0 118.0Q256 153 256 192V1728Q256 1767 271.0 1802.0Q286 1837 312.5 1863.5Q339 1890 374.0 1905.0Q409 1920 448 1920H651Q661 1949 679.0 1972.5Q697 1996 721.0 2013.0Q745 2030 773.0 2039.0Q801 2048 832 2048H1216Q1247 2048 1275.0 2039.0Q1303 2030 1327.0 2013.0Q1351 1996 1369.0 1972.5Q1387 1949 1397 1920H1600Q1639 1920 1674.0 1905.0Q1709 1890 1735.5 1863.5Q1762 1837 1777.0 1802.0Q1792 1767 1792 1728V192Q1792 153 1777.0 118.0Q1762 83 1735.5 56.5Q1709 30 1674.0 15.0Q1639 0 1600 0ZM1216 1792Q1242 1792 1261.0 1811.0Q1280 1830 1280 1856Q1280 1882 1261.0 1901.0Q1242 1920 1216 1920H832Q806 1920 787.0 1901.0Q768 1882 768 1856Q768 1830 787.0 1811.0Q806 1792 832 1792ZM1600 128Q1626 128 1645.0 147.0Q1664 166 1664 192V1728Q1664 1754 1645.0 1773.0Q1626 1792 1600 1792H1397Q1387 1763 1369.0 1739.5Q1351 1716 1327.0 1699.5Q1303 1683 1274.5 1673.5Q1246 1664 1216 1664H832Q802 1664 774.0 1673.5Q746 1683 722.0 1699.5Q698 1716 679.5 1739.5Q661 1763 651 1792H448Q422 1792 403.0 1773.0Q384 1754 384 1728V192Q384 166 403.0 147.0Q422 128 448 128ZM512 1216Q512 1243 522.0 1266.0Q532 1289 549.5 1306.5Q567 1324 590.0 1334.0Q613 1344 640 1344Q666 1344 689.5 1334.0Q713 1324 730.5 1306.5Q748 1289 758.0 1265.5Q768 1242 768 1216Q768 1189 758.0 1166.0Q748 1143 730.5 1125.5Q713 1108 690.0 1098.0Q667 1088 640 1088Q613 1088 589.5 1098.0Q566 1108 549.0 1125.0Q532 1142 522.0 1165.5Q512 1189 512 1216ZM960 1152Q934 1152 915.0 1171.0Q896 1190 896 1216Q896 1242 915.0 1261.0Q934 1280 960 1280H1472Q1498 1280 1517.0 1261.0Q1536 1242 1536 1216Q1536 1190 1517.0 1171.0Q1498 1152 1472 1152ZM512 832Q512 859 522.0 882.0Q532 905 549.5 922.5Q567 940 590.0 950.0Q613 960 640 960Q666 960 689.5 950.0Q713 940 730.5 922.5Q748 905 758.0 881.5Q768 858 768 832Q768 805 758.0 782.0Q748 759 730.5 741.5Q713 724 690.0 714.0Q667 704 640 704Q613 704 589.5 714.0Q566 724 549.0 741.0Q532 758 522.0 781.5Q512 805 512 832ZM960 768Q934 768 915.0 787.0Q896 806 896 832Q896 858 915.0 877.0Q934 896 960 896H1472Q1498 896 1517.0 877.0Q1536 858 1536 832Q1536 806 1517.0 787.0Q1498 768 1472 768ZM512 448Q512 475 522.0 498.0Q532 521 549.5 538.5Q567 556 590.0 566.0Q613 576 640 576Q666 576 689.5 566.0Q713 556 730.5 538.5Q748 521 758.0 497.5Q768 474 768 448Q768 421 758.0 398.0Q748 375 730.5 357.5Q713 340 690.0 330.0Q667 320 640 320Q613 320 589.5 330.0Q566 340 549.0 357.0Q532 374 522.0 397.5Q512 421 512 448ZM960 384Q934 384 915.0 403.0Q896 422 896 448Q896 474 915.0 493.0Q934 512 960 512H1472Q1498 512 1517.0 493.0Q1536 474 1536 448Q1536 422 1517.0 403.0Q1498 384 1472 384Z"/>
  </g>
</svg>