<?xml version="1.0" encoding="utf-8"?>
<svg xmlns="http://www.w3.org/2000/svg" width="16" height="16" viewBox="0 0 2048 2048">
  <g transform="translate(0, 2048) scale(1, -1)">
    <path fill="#ffffff" d="M448 0Q409 0 374.0 15.0Q339 30 312.5 56.5Q286 83 271.0 118.0Q256 153 256 192V1728Q256 1767 271.0 1802.0Q286 1837 312.5 1863.5Q339 1890 374.0 1905.0Q409 1920 448 1920H651Q661 1949 679.0 1972.5Q697 1996 721.0 2013.0Q745 2030 773.0 2039.0Q801 2048 832 2048H1216Q1247 2048 1275.0 2039.0Q1303 2030 1327.0 2013.0Q1351 1996 1369.0 1972.5Q1387 1949 1397 1920H1600Q1639 1920 1674.0 1905.0Q1709 1890 1735.5 1863.5Q1762 1837 1777.0 1802.0Q1792 1767 1792 1728V192Q1792 153 1777.0 118.0Q1762 83 1735.5 56.5Q1709 30 1674.0 15.0Q1639 0 1600 0ZM1216 1792Q1242 1792 1261.0 1811.0Q1280 1830 1280 1856Q1280 1882 1261.0 1901.0Q1242 1920 1216 1920H832Q806 1920 787.0 1901.0Q768 1882 768 1856Q768 1830 787.0 1811.0Q806 1792 832 1792ZM1600 128Q1626 128 1645.0 147.0Q1664 166 1664 192V1728Q1664 1754 1645.0 1773.0Q1626 1792 1600 1792H1397Q1387 1763 1369.0 1739.5Q1351 1716 1327.0 1699.5Q1303 1683 1274.5 1673.5Q1246 1664 1216 1664H832Q802 1664 774.0 1673.5Q746 1683 722.0 1699.5Q698 1716 679.5 1739.5Q661 1763 651 1792H448Q422 1792 403.0 1773.0Q384 1754 384 1728V192Q384 166 403.0 147.0Q422 128 448 128ZM1280 1216Q1280 1243 1290.0 1266.0Q1300 1289 1317.5 1306.5Q1335 1324 1358.0 1334.0Q1381 1344 1408 1344Q1434 1344 1457.5 1334.0Q1481 1324 1498.5 1306.5Q1516 1289 1526.0 1265.5Q1536 1242 1536 1216Q1536 1189 1526.0 1166.0Q1516 1143 1498.5 1125.5Q1481 1108 1458.0 1098.0Q1435 1088 1408 1088Q1381 1088 1357.5 1098.0Q1334 1108 1317.0 1125.0Q1300 1142 1290.0 1165.5Q1280 1189 1280 1216ZM576 1152Q550 1152 531.0 1171.0Q512 1190 512 1216Q512 1242 531.0 1261.0Q550 1280 576 1280H1088Q1114 1280 1133.0 1261.0Q1152 1242 1152 1216Q1152 1190 1133.0 1171.0Q1114 1152 1088 1152ZM1280 832Q1280 859 1290.0 882.0Q1300 905 1317.5 922.5Q1335 940 1358.0 950.0Q1381 960 1408 960Q1434 960 1457.5 950.0Q1481 940 1498.5 922.5Q1516 905 1526.0 881.5Q1536 858 1536 832Q1536 805 1526.0 782.0Q1516 759 1498.5 741.5Q1481 724 1458.0 714.0Q1435 704 1408 704Q1381 704 1357.5 714.0Q1334 724 1317.0 741.0Q1300 758 1290.0 781.5Q1280 805 1280 832ZM576 768Q550 768 531.0 787.0Q512 806 512 832Q512 858 531.0 877.0Q550 896 576 896H1088Q1114 896 1133.0 877.0Q1152 858 1152 832Q1152 806 1133.0 787.0Q1114 768 1088 768ZM1280 448Q1280 475 1290.0 498.0Q1300 521 1317.5 538.5Q1335 556 1358.0 566.0Q1381 576 1408 576Q1434 576 1457.5 566.0Q1481 556 1498.5 538.5Q1516 521 1526.0 497.5Q1536 474 1536 448Q1536 421 1526.0 398.0Q1516 375 1498.5 357.5Q1481 340 1458.0 330.0Q1435 320 1408 320Q1381 320 1357.5 330.0Q1334 340 1317.0 357.0Q1300 374 1290.0 397.5Q1280 421 1280 448ZM576 384Q550 384 531.0 403.0Q512 422 512 448Q512 474 531.0 493.0Q550 512 576 512H1088Q1114 512 1133.0 493.0Q1152 474 1152 448Q1152 422 1133.0 403.0Q1114 384 1088 384Z"/>
  </g>
</svg>