<?xml version="1.0" encoding="utf-8"?>
<svg id="" width="16" height="16" style="width:16px;height:16px;" version="1.1" xmlns="http://www.w3.org/2000/svg" viewBox="0 0 2048 2048" enable-background="new 0 0 2048 2048" xml:space="preserve">
    <path fill="#ffffff" d="M1796.75 0 q50.05 0 95.6 20.52 q45.55 20.52 80.08 55.06 q34.53 34.53 55.05 80.08 q20.52 45.54 20.52 95.59 l0 1163.13 q0 50.05 -20.52 95.59 q-20.52 45.55 -55.05 80.08 q-34.54 34.54 -80.08 55.06 q-45.55 20.52 -95.6 20.52 l-325.31 0 q-26.03 0 -45.05 -19.02 q-19.02 -19.02 -19.02 -45.05 q0 -26.02 19.02 -45.04 q19.02 -19.02 45.05 -19.02 l320.31 0 q27.03 0 50.05 -10.01 q23.02 -10.01 40.54 -27.52 q17.52 -17.52 27.52 -40.54 q10.01 -23.03 10.01 -50.05 l0 -1153.13 q0 -26.03 -10.01 -49.55 q-10 -23.52 -27.52 -41.04 q-17.52 -17.52 -41.04 -27.53 q-23.52 -10 -49.55 -10 l-1409.38 0 q-55.05 0 -91.09 38.03 q-24.02 25.03 -32.02 60.06 q-8 35.03 -7 75.07 q0 29.03 1.5 57.06 q1.5 28.03 1.5 54.05 q0 43.04 -12.01 71.57 q-12.01 28.53 -53.05 28.53 q-26.03 0 -45.05 -19.02 q-19.02 -19.02 -19.02 -45.04 l0 -197.19 q0 -50.05 20.52 -95.59 q20.52 -45.55 55.06 -80.08 q34.53 -34.54 80.08 -55.06 q45.55 -20.52 95.6 -20.52 l1419.38 0 ZM1215.19 807.79 q26.02 0 45.04 18.52 q19.02 18.52 19.02 44.54 q0 35.03 -29.03 54.05 l-767.75 499.49 q14.01 29.03 20.52 57.56 q6.51 28.53 6.51 60.56 q0 52.05 -20.52 97.6 q-20.52 45.55 -56.06 79.08 q-35.53 33.53 -81.58 53.05 q-46.05 19.52 -97.1 19.52 q-53.05 0 -99.09 -20.02 q-46.05 -20.02 -80.58 -54.55 q-34.54 -34.54 -54.56 -80.58 q-20.02 -46.05 -20.02 -99.1 q0 -51.05 19.52 -97.1 q19.52 -46.05 53.05 -81.58 q33.53 -35.53 79.07 -56.05 q45.55 -20.52 97.6 -20.52 q82.08 0 149.15 45.05 l178.17 -116.12 l-170.16 -110.1 q-36.04 26.02 -74.07 38.03 q-38.04 12.01 -83.09 12.01 q-52.05 0 -97.6 -20.52 q-45.54 -20.52 -79.07 -55.55 q-33.53 -35.03 -53.05 -81.08 q-19.52 -46.04 -19.52 -97.09 q0 -52.05 20.02 -98.6 q20.02 -46.55 54.56 -81.58 q34.53 -35.03 80.58 -55.05 q46.04 -20.02 99.09 -20.02 q51.05 0 97.1 19.51 q46.04 19.51 81.58 53.55 q35.54 34.04 56.06 79.58 q20.52 45.54 20.52 97.59 q0 29.03 -5 55.55 q-5 26.53 -17.01 52.56 l206.2 135.13 l486.47 -317.31 q8.01 -5.01 17.02 -7.51 q9.01 -2.5 18.02 -2.5 ZM254.25 1026 q26.02 0 49.54 -10.51 q23.53 -10.51 41.54 -28.02 q18.01 -17.51 28.53 -41.04 q10.51 -23.52 10.51 -49.54 q0 -27.03 -10.51 -50.55 q-10.51 -23.53 -28.03 -41.04 q-17.52 -17.51 -41.04 -28.02 q-23.52 -10.51 -50.54 -10.51 q-26.03 0 -49.55 10.51 q-23.52 10.51 -41.04 28.52 q-17.52 18.01 -28.03 41.54 q-10.51 23.52 -10.51 49.55 q0 26.02 10.51 49.54 q10.51 23.53 28.03 41.04 q17.52 17.51 41.04 28.02 q23.52 10.51 49.55 10.51 ZM1279.25 1550.51 q0 27.03 -18.52 45.55 q-18.52 18.52 -45.54 18.52 q-19.02 0 -35.04 -11.01 l-370.36 -240.24 l118.12 -77.07 l322.31 210.2 q29.03 19.02 29.03 54.05 ZM384.38 1537.5 q0 -27.02 -10.51 -50.55 q-10.51 -23.52 -28.03 -41.04 q-17.52 -17.52 -41.04 -28.03 q-23.52 -10.51 -50.54 -10.51 q-26.03 0 -49.55 10.51 q-23.52 10.51 -41.04 28.53 q-17.52 18.02 -28.03 41.54 q-10.51 23.53 -10.51 49.55 q0 26.03 10.51 49.55 q10.51 23.52 28.03 41.04 q17.52 17.52 41.04 28.03 q23.52 10.51 49.55 10.51 q26.02 0 49.54 -10.51 q23.53 -10.51 41.54 -28.03 q18.01 -17.52 28.53 -41.04 q10.51 -23.52 10.51 -49.55 Z"/>
</svg>