<?xml version="1.0" encoding="utf-8"?>
<svg xmlns="http://www.w3.org/2000/svg" width="16" height="16" viewBox="0 0 2048 2048">
  <g transform="translate(0, 2048) scale(1, -1)">
    <path fill="#ffffff" d="M1130 1024 1258 912Q1278 895 1279.5 868.5Q1281 842 1264 822Q1247 802 1220.5 800.5Q1194 799 1174 816L918 1040Q896 1059 896 1088Q896 1117 918 1136L1174 1360Q1194 1377 1220.5 1375.5Q1247 1374 1264 1354Q1281 1334 1279.5 1307.5Q1278 1281 1258 1264L1130 1152H1728Q1754 1152 1773.0 1133.0Q1792 1114 1792 1088Q1792 1062 1773.0 1043.0Q1754 1024 1728 1024ZM256 256Q203 256 156.5 276.0Q110 296 75.0 331.0Q40 366 20.0 412.5Q0 459 0 512V1664Q0 1717 20.0 1763.5Q40 1810 75.0 1845.0Q110 1880 156.5 1900.0Q203 1920 256 1920H1792Q1845 1920 1891.5 1900.0Q1938 1880 1973.0 1845.0Q2008 1810 2028.0 1763.5Q2048 1717 2048 1664V512Q2048 459 2028.0 412.5Q2008 366 1973.0 331.0Q1938 296 1891.5 276.0Q1845 256 1792 256ZM128 512Q128 485 138.0 462.0Q148 439 165.5 421.5Q183 404 206.0 394.0Q229 384 256 384H640V1792H256Q229 1792 206.0 1782.0Q183 1772 165.5 1754.5Q148 1737 138.0 1714.0Q128 1691 128 1664ZM768 1792V384H1792Q1819 384 1842.0 394.0Q1865 404 1882.5 421.5Q1900 439 1910.0 462.0Q1920 485 1920 512V1664Q1920 1691 1910.0 1714.0Q1900 1737 1882.5 1754.5Q1865 1772 1842.0 1782.0Q1819 1792 1792 1792Z"/>
  </g>
</svg>