<?xml version="1.0" encoding="utf-8"?>
<svg xmlns="http://www.w3.org/2000/svg" width="16" height="16" viewBox="0 0 2048 2048">
  <g transform="translate(0, 2048) scale(1, -1)">
    <path fill="#000000" d="M313 256Q250 256 193.0 281.5Q136 307 93.5 349.5Q51 392 25.5 449.0Q0 506 0 569V1479Q0 1542 25.5 1599.0Q51 1656 93.5 1698.5Q136 1741 193.0 1766.5Q250 1792 313 1792H1735Q1798 1792 1855.0 1766.5Q1912 1741 1954.5 1698.5Q1997 1656 2022.5 1599.0Q2048 1542 2048 1479V569Q2048 506 2022.5 449.0Q1997 392 1954.5 349.5Q1912 307 1855.0 281.5Q1798 256 1735 256ZM1728 384Q1767 384 1802.0 399.0Q1837 414 1863.5 440.5Q1890 467 1905.0 502.0Q1920 537 1920 576V1472Q1920 1511 1905.0 1546.0Q1890 1581 1863.5 1607.5Q1837 1634 1802.0 1649.0Q1767 1664 1728 1664H320Q281 1664 246.0 1649.0Q211 1634 184.5 1607.5Q158 1581 143.0 1546.0Q128 1511 128 1472V576Q128 537 143.0 502.0Q158 467 184.5 440.5Q211 414 246.0 399.0Q281 384 320 384ZM320 768Q294 768 275.0 787.0Q256 806 256 832Q256 858 275.0 877.0Q294 896 320 896H1216Q1242 896 1261.0 877.0Q1280 858 1280 832Q1280 806 1261.0 787.0Q1242 768 1216 768ZM1472 768Q1446 768 1427.0 787.0Q1408 806 1408 832Q1408 858 1427.0 877.0Q1446 896 1472 896H1728Q1754 896 1773.0 877.0Q1792 858 1792 832Q1792 806 1773.0 787.0Q1754 768 1728 768ZM320 512Q294 512 275.0 531.0Q256 550 256 576Q256 602 275.0 621.0Q294 640 320 640H704Q730 640 749.0 621.0Q768 602 768 576Q768 550 749.0 531.0Q730 512 704 512ZM960 512Q934 512 915.0 531.0Q896 550 896 576Q896 602 915.0 621.0Q934 640 960 640H1728Q1754 640 1773.0 621.0Q1792 602 1792 576Q1792 550 1773.0 531.0Q1754 512 1728 512Z"/>
  </g>
</svg>