<?xml version="1.0" encoding="utf-8"?>
<svg xmlns="http://www.w3.org/2000/svg" width="16" height="16" viewBox="0 0 2048 2048">
  <g transform="translate(0, 2048) scale(1, -1)">
    <path fill="#000000" d="M918 1088 790 1200Q770 1217 768.5 1243.5Q767 1270 784 1290Q801 1310 827.5 1311.5Q854 1313 874 1296L1130 1072Q1152 1053 1152 1024Q1152 995 1130 976L874 752Q854 735 827.5 736.5Q801 738 784 758Q767 778 768.5 804.5Q770 831 790 848L918 960H320Q294 960 275.0 979.0Q256 998 256 1024Q256 1050 275.0 1069.0Q294 1088 320 1088ZM1792 1792Q1845 1792 1891.5 1772.0Q1938 1752 1973.0 1717.0Q2008 1682 2028.0 1635.5Q2048 1589 2048 1536V512Q2048 459 2028.0 412.5Q2008 366 1973.0 331.0Q1938 296 1891.5 276.0Q1845 256 1792 256H256Q203 256 156.5 276.0Q110 296 75.0 331.0Q40 366 20.0 412.5Q0 459 0 512V1536Q0 1589 20.0 1635.5Q40 1682 75.0 1717.0Q110 1752 156.5 1772.0Q203 1792 256 1792ZM1920 1536Q1920 1563 1910.0 1586.0Q1900 1609 1882.5 1626.5Q1865 1644 1842.0 1654.0Q1819 1664 1792 1664H1408V384H1792Q1819 384 1842.0 394.0Q1865 404 1882.5 421.5Q1900 439 1910.0 462.0Q1920 485 1920 512ZM1280 384V1664H256Q229 1664 206.0 1654.0Q183 1644 165.5 1626.5Q148 1609 138.0 1586.0Q128 1563 128 1536V512Q128 485 138.0 462.0Q148 439 165.5 421.5Q183 404 206.0 394.0Q229 384 256 384Z"/>
  </g>
</svg>