<?xml version="1.0" encoding="utf-8"?>
<svg xmlns="http://www.w3.org/2000/svg" height="16" width="16" viewBox="0 0 16 16">
  <g>
    <path id="path1" transform="rotate(0,8,8) translate(-1.5,-1.5) scale(0.205128205128205,0.205128205128205)  " fill="#000000" d="M15,12L16.13671875,12.22265625 17.109375,12.890625 45,40.78125 72.890625,12.890625 73.86328125,12.22265625 75,12 76.13671875,12.22265625 77.109375,12.890625 77.77734375,13.86328125 78,15 77.77734375,16.13671875 77.109375,17.109375 49.21875,45 77.109375,72.890625 77.77734375,73.86328125 78,75 77.77734375,76.13671875 77.109375,77.109375 76.13671875,77.77734375 75,78 73.86328125,77.77734375 72.890625,77.109375 45,49.21875 17.109375,77.109375 16.13671875,77.77734375 15,78 13.8632802963257,77.77734375 12.890625,77.109375 12.22265625,76.13671875 12,75 12.22265625,73.86328125 12.890625,72.890625 40.78125,45 12.890625,17.109375 12.22265625,16.13671875 12,15 12.22265625,13.86328125 12.890625,12.890625 13.8632802963257,12.22265625 15,12z" />
  </g>
</svg>
