<?xml version="1.0" encoding="utf-8"?>
<svg id="" width="16" height="16" style="width:16px;height:16px;" version="1.1" xmlns="http://www.w3.org/2000/svg" viewBox="0 0 2048 2048" enable-background="new 0 0 2048 2048" xml:space="preserve">
    <path fill="#000" d="M412 1408 q-84 0 -159 -35 q-75 -35 -131.5 -93.5 q-56.5 -58.5 -89 -135 q-32.5 -76.5 -32.5 -159.5 q0 -85 29 -163 q29 -78 81.5 -138.5 q52.5 -60.5 125.5 -98 q73 -37.5 161 -41.5 l32 -1 q11 -123 59 -223 q48 -100 126 -171.5 q78 -71.5 182.5 -110 q104.5 -38.5 227.5 -38.5 q123 0 227.5 39 q104.5 39 182.5 110 q78 71 126 171 q48 100 59 223 l16 0 q87 0 162.5 35.5 q75.5 35.5 131 95.5 q55.5 60 87.5 138.5 q32 78.5 32 163.5 q0 85 -32 163 q-32 78 -87.5 138 q-55.5 60 -130.5 95.5 q-75 35.5 -162 35.5 l-1224 0 ZM1634 1280 q61 0 113.5 -25.5 q52.5 -25.5 90.5 -67.5 q38 -42 60 -97 q22 -55 22 -114 q0 -64 -23 -119.5 q-23 -55.5 -63.5 -97 q-40.5 -41.5 -95.5 -65 q-55 -23.5 -119 -23.5 q-52 0 -86 -32.5 q-34 -32.5 -42 -82.5 q-5 -36 -11.5 -70 q-6.5 -34 -19.5 -69 q-26 -72 -69.5 -126 q-43.5 -54 -100 -90.5 q-56.5 -36.5 -124 -54.5 q-67.5 -18 -142.5 -18 q-75 0 -142.5 18 q-67.5 18 -124 54 q-56.5 36 -100 90 q-43.5 54 -69.5 126 q-13 35 -19.5 69 q-6.5 34 -11.5 71 q-8 59 -46.5 87 q-38.5 28 -95.5 28 q-61 0 -113.5 25.5 q-52.5 25.5 -91 68 q-38.5 42.5 -60.5 97.5 q-22 55 -22 114 q0 59 22 114 q22 55 60 97 q38 42 90.5 67.5 q52.5 25.5 113.5 25.5 l1220 0 Z"/>
</svg>