<?xml version="1.0" encoding="utf-8"?>
<svg xmlns="http://www.w3.org/2000/svg" width="16" height="16" viewBox="0 0 2048 2048">
  <g transform="translate(0, 2048) scale(1, -1)">
    <path fill="#ffffff" d="M2048 1344V704Q2048 669 2036 636Q2010 656 1981.5 672.0Q1953 688 1923 700L1920 708V1344Q1920 1384 1905.0 1419.0Q1890 1454 1864.0 1480.0Q1838 1506 1803.0 1521.0Q1768 1536 1728 1536H320Q280 1536 245.0 1521.0Q210 1506 184.0 1480.0Q158 1454 143.0 1419.0Q128 1384 128 1344V704Q128 678 147.0 659.0Q166 640 192 640H384V832Q384 871 399.0 906.0Q414 941 440.5 967.5Q467 994 502.0 1009.0Q537 1024 576 1024H1223Q1166 1004 1115.0 971.5Q1064 939 1020 896H576Q550 896 531.0 877.0Q512 858 512 832V320Q512 297 521.0 284.5Q530 272 544.0 265.5Q558 259 575.0 257.5Q592 256 609 256Q614 189 636 128H576Q537 128 502.0 143.0Q467 158 440.5 184.5Q414 211 399.0 246.0Q384 281 384 320V512H192Q154 512 118.5 526.5Q83 541 56 568Q29 595 14.5 630.5Q0 666 0 704V1344Q0 1410 25.0 1468.0Q50 1526 93.5 1569.5Q137 1613 195.5 1638.5Q254 1664 320 1664H384V1728Q384 1768 399.0 1803.0Q414 1838 440.0 1864.0Q466 1890 501.0 1905.0Q536 1920 576 1920H1472Q1512 1920 1547.0 1905.0Q1582 1890 1608.0 1864.0Q1634 1838 1649.0 1803.0Q1664 1768 1664 1728V1664H1728Q1794 1664 1852.0 1638.5Q1910 1613 1953.5 1569.5Q1997 1526 2022.5 1468.0Q2048 1410 2048 1344ZM512 1664H1536V1728Q1536 1754 1517.0 1773.0Q1498 1792 1472 1792H576Q550 1792 531.0 1773.0Q512 1754 512 1728ZM2048 280Q2048 224 2025.5 173.0Q2003 122 1964.5 83.5Q1926 45 1875.0 22.5Q1824 0 1768 0H1048Q990 0 939.0 23.0Q888 46 850.0 85.5Q812 125 790.0 176.5Q768 228 768 285Q768 339 787.5 388.0Q807 437 841.0 476.0Q875 515 922.0 539.5Q969 564 1023 568Q1033 638 1068.0 698.5Q1103 759 1155.0 802.5Q1207 846 1272.5 871.0Q1338 896 1408 896Q1478 896 1543.5 871.0Q1609 846 1661.0 802.5Q1713 759 1748.0 698.5Q1783 638 1793 568Q1845 564 1891.5 539.5Q1938 515 1973.0 477.0Q2008 439 2028.0 390.5Q2048 342 2048 290Z"/>
  </g>
</svg>