<?xml version="1.0" encoding="utf-8"?>
<svg xmlns="http://www.w3.org/2000/svg" width="16" height="16" viewBox="0 0 2048 2048">
  <g transform="translate(0, 2048) scale(1, -1)">
    <path fill="#ffffff" d="M1635 1249Q1722 1249 1797.5 1213.5Q1873 1178 1928.5 1118.0Q1984 1058 2016.0 979.5Q2048 901 2048 816Q2048 731 2016.0 653.0Q1984 575 1928.5 515.0Q1873 455 1798.0 419.5Q1723 384 1636 384H1084L1006 463L1025 512H1634Q1695 512 1747.5 537.5Q1800 563 1838.0 605.0Q1876 647 1898.0 702.0Q1920 757 1920 816Q1920 880 1897.0 935.5Q1874 991 1833.5 1032.5Q1793 1074 1738.0 1097.5Q1683 1121 1619 1121Q1567 1121 1533.0 1153.5Q1499 1186 1491 1236Q1486 1272 1479.5 1306.0Q1473 1340 1460 1375Q1434 1447 1390.5 1501.0Q1347 1555 1290.5 1591.5Q1234 1628 1166.5 1646.0Q1099 1664 1024 1664Q935 1664 859.5 1640.0Q784 1616 725.0 1569.5Q666 1523 625.5 1455.0Q585 1387 566 1300Q534 1307 502.0 1309.5Q470 1312 438 1312Q458 1424 510.0 1513.5Q562 1603 638.5 1664.5Q715 1726 813.0 1759.0Q911 1792 1024 1792Q1147 1792 1251.5 1753.0Q1356 1714 1434.0 1643.0Q1512 1572 1560.0 1472.0Q1608 1372 1619 1249ZM1152 64Q1152 38 1133.0 19.0Q1114 0 1088 0Q1062 0 1043 19L716 346Q655 299 586.0 277.5Q517 256 440 256Q349 256 269.0 292.5Q189 329 129.0 390.5Q69 452 34.5 533.5Q0 615 0 704Q0 796 35.5 877.5Q71 959 132.0 1020.0Q193 1081 274.5 1116.5Q356 1152 448 1152Q537 1152 618.5 1117.5Q700 1083 761.5 1023.0Q823 963 859.5 883.0Q896 803 896 712Q896 635 874.5 566.0Q853 497 806 436L1133 109Q1152 90 1152 64ZM448 384H455Q520 384 577.0 410.0Q634 436 676.5 480.0Q719 524 743.5 582.0Q768 640 768 704Q768 771 743.0 829.0Q718 887 674.5 930.5Q631 974 573.0 999.0Q515 1024 448 1024Q381 1024 323.0 999.0Q265 974 221.5 930.5Q178 887 153.0 829.0Q128 771 128 704Q128 637 153.0 579.0Q178 521 221.5 477.5Q265 434 323.0 409.0Q381 384 448 384Z"/>
  </g>
</svg>