<?xml version="1.0" encoding="utf-8"?>
<svg id="" width="16" height="16" style="width:16px;height:16px;" version="1.1" xmlns="http://www.w3.org/2000/svg" viewBox="0 0 2048 2048" enable-background="new 0 0 2048 2048" xml:space="preserve">
    <path fill="#000" d="M412 1408 q-84 0 -159 -35 q-75 -35 -131.5 -93.5 q-56.5 -58.5 -89 -135 q-32.5 -76.5 -32.5 -159.5 q0 -85 29 -163 q29 -78 81.5 -138.5 q52.5 -60.5 125.5 -98 q73 -37.5 161 -41.5 l32 -1 q11 -123 59 -223 q48 -100 126 -171.5 q78 -71.5 182.5 -110 q104.5 -38.5 227.5 -38.5 q123 0 227.5 39 q104.5 39 182.5 110 q78 71 126 171 q48 100 59 223 l16 0 q84 0 159.5 35 q75.5 35 131.5 93.5 q56 58.5 89 135.5 q33 77 33 160 l0 23 q0 5 0 11 q0 6 -1 11 q-64 -78 -143 -136 q-16 -47 -44 -85 q-28 -38 -65 -64.5 q-37 -26.5 -82 -41 q-45 -14.5 -94 -14.5 q-52 0 -86 -32.5 q-34 -32.5 -42 -82.5 q-5 -36 -11.5 -70 q-6.5 -34 -19.5 -69 q-26 -72 -69.5 -126 q-43.5 -54 -100 -90.5 q-56.5 -36.5 -124 -54.5 q-67.5 -18 -142.5 -18 q-75 0 -142.5 18 q-67.5 18 -124 54 q-56.5 36 -100 90 q-43.5 54 -69.5 126 q-13 35 -19.5 69 q-6.5 34 -11.5 71 q-8 59 -46.5 87 q-38.5 28 -95.5 28 q-61 0 -113.5 25.5 q-52.5 25.5 -91 68 q-38.5 42.5 -60.5 97.5 q-22 55 -22 114 q0 61 22 116 q22 55 61 97 q39 42 92.5 66.5 q53.5 24.5 116.5 24.5 l341 0 q-9 32 -14 64 q-5 32 -8 64 l-327 0 ZM896 1472 q0 -119 45.5 -224 q45.5 -105 123.5 -183 q78 -78 183 -123.5 q105 -45.5 224 -45.5 q79 0 152.5 20.5 q73.5 20.5 137.5 58 q64 37.5 117 90.5 q53 53 90.5 117 q37.5 64 58 137.5 q20.5 73.5 20.5 152.5 q0 119 -45.5 224 q-45.5 105 -123.5 183 q-78 78 -183 123.5 q-105 45.5 -224 45.5 q-120 0 -225 -45 q-105 -45 -183 -123 q-78 -78 -123 -183 q-45 -105 -45 -225 ZM1472 1800 q30 0 51 -21 l256 -256 q21 -21 21 -51 q0 -30 -21 -51 q-21 -21 -51 -21 q-30 0 -51 21 l-141 141 l0 -346 q0 -26 -19 -45 q-19 -19 -45 -19 q-26 0 -45 19 q-19 19 -19 45 l0 346 l-141 -141 q-21 -21 -51 -21 q-30 0 -51 21 q-21 21 -21 51 q0 30 21 51 l256 256 q21 21 51 21 Z"/>
</svg>