<?xml version="1.0" encoding="utf-8"?>
<svg xmlns="http://www.w3.org/2000/svg" width="16" height="16" viewBox="0 0 2048 2048">
  <g transform="translate(0, 2048) scale(1, -1)">
    <path fill="#ffffff" d="M2048 64Q2048 38 2029.0 19.0Q2010 0 1984 0Q1958 0 1939 19L1574 384H412Q328 384 253.0 419.0Q178 454 121.5 512.5Q65 571 32.5 647.5Q0 724 0 807Q0 892 29.0 970.0Q58 1048 110.5 1108.5Q163 1169 236.0 1206.5Q309 1244 397 1248L429 1249Q435 1306 449.5 1361.5Q464 1417 489 1469L19 1939Q0 1958 0 1984Q0 2010 19.0 2029.0Q38 2048 64 2048Q90 2048 109 2029L2029 109Q2048 90 2048 64ZM739 1580 648 1672Q732 1738 829.0 1765.0Q926 1792 1032 1792Q1153 1792 1256.0 1752.0Q1359 1712 1436.0 1640.0Q1513 1568 1560.5 1468.5Q1608 1369 1619 1249H1635Q1719 1249 1794.5 1214.0Q1870 1179 1926.0 1120.5Q1982 1062 2015.0 985.0Q2048 908 2048 825Q2048 713 2001.5 617.5Q1955 522 1862 457L1769 550Q1844 593 1882.0 664.5Q1920 736 1920 821Q1920 884 1896.5 938.5Q1873 993 1832.0 1033.5Q1791 1074 1736.0 1097.5Q1681 1121 1619 1121Q1566 1121 1532.5 1153.5Q1499 1186 1491 1236Q1485 1272 1479.0 1306.0Q1473 1340 1460 1375Q1434 1447 1390.5 1501.0Q1347 1555 1290.5 1591.5Q1234 1628 1166.5 1646.0Q1099 1664 1024 1664Q947 1664 874.5 1644.5Q802 1625 739 1580ZM1446 512 586 1372Q576 1344 571.0 1314.5Q566 1285 560.5 1257.5Q555 1230 547.0 1205.0Q539 1180 523.5 1161.5Q508 1143 482.0 1132.0Q456 1121 415 1121Q354 1121 301.5 1095.5Q249 1070 210.5 1027.5Q172 985 150.0 930.0Q128 875 128 816Q128 757 150.0 702.0Q172 647 210.0 605.0Q248 563 300.5 537.5Q353 512 414 512Z"/>
  </g>
</svg>