<?xml version="1.0" encoding="utf-8"?>
<svg id="" width="16" height="16" style="width:16px;height:16px;" version="1.1"
    xmlns="http://www.w3.org/2000/svg" viewBox="0 0 2048 2048" enable-background="new 0 0 2048 2048"
    xml:space="preserve"><path fill="#000000" d="M384 1728 l0 -448 q0 -39 -15 -74 q-15 -35 -41.5 -61.5 q-26.5 -26.5 -61.5 -41.5 q-35 -15 -74 -15 q-26 0 -45 -19 q-19 -19 -19 -45 q0 -26 19 -45 q19 -19 45 -19 q39 0 74 -15 q35 -15 61.5 -41.5 q26.5 -26.5 41.5 -61.5 q15 -35 15 -74 l0 -455 q0 -63 25.5 -120 q25.5 -57 68 -99.5 q42.5 -42.5 99.5 -68 q57 -25.5 120 -25.5 q29 0 50 16.5 q21 16.5 21 47.5 q0 26 -19 45 q-19 19 -45 19 q-39 0 -74 15 q-35 15 -61.5 41.5 q-26.5 26.5 -41.5 61.5 q-15 35 -15 74 l0 448 q0 76 -33.5 143.5 q-33.5 67.5 -94.5 112.5 q61 45 94.5 112.5 q33.5 67.5 33.5 143.5 l0 448 q0 39 15 74 q15 35 41.5 61.5 q26.5 26.5 61.5 41.5 q35 15 74 15 q26 0 45 19 q19 19 19 45 q0 31 -21 47.5 q-21 16.5 -50 16.5 q-65 0 -122 -26 q-57 -26 -99.5 -70 q-42.5 -44 -67 -102 q-24.5 -58 -24.5 -122 ZM1280 1984 q0 -26 19 -45 q19 -19 45 -19 q39 0 74 -15 q35 -15 61.5 -41.5 q26.5 -26.5 41.5 -61.5 q15 -35 15 -74 l0 -448 q0 -76 33.5 -143.5 q33.5 -67.5 94.5 -112.5 q-61 -45 -94.5 -112.5 q-33.5 -67.5 -33.5 -143.5 l0 -448 q0 -39 -15 -74 q-15 -35 -41.5 -61.5 q-26.5 -26.5 -61.5 -41.5 q-35 -15 -74 -15 q-26 0 -45 -19 q-19 -19 -19 -45 q0 -31 21 -47.5 q21 -16.5 50 -16.5 q65 0 122 26 q57 26 99.5 70 q42.5 44 67 102 q24.5 58 24.5 122 l0 448 q0 39 15 74 q15 35 41.5 61.5 q26.5 26.5 61.5 41.5 q35 15 74 15 q26 0 45 19 q19 19 19 45 q0 26 -19 45 q-19 19 -45 19 q-39 0 -74 15 q-35 15 -61.5 41.5 q-26.5 26.5 -41.5 61.5 q-15 35 -15 74 l0 455 q0 63 -25.5 120 q-25.5 57 -68 99.5 q-42.5 42.5 -99.5 68 q-57 25.5 -120 25.5 q-29 0 -50 -16.5 q-21 -16.5 -21 -47.5 Z"/></svg>