<?xml version="1.0" encoding="utf-8"?>
<svg xmlns="http://www.w3.org/2000/svg" width="16" height="16" viewBox="0 0 2048 2048">
  <g transform="translate(0, 2048) scale(1, -1)">
    <path fill="#ffffff" d="M1669 1536Q1719 1536 1764.5 1515.5Q1810 1495 1844.5 1460.5Q1879 1426 1899.5 1380.5Q1920 1335 1920 1285V763Q1920 713 1899.5 667.5Q1879 622 1844.5 587.5Q1810 553 1764.5 532.5Q1719 512 1669 512H251Q201 512 155.5 532.5Q110 553 75.5 587.5Q41 622 20.5 667.5Q0 713 0 763V1285Q0 1335 20.5 1380.5Q41 1426 75.5 1460.5Q110 1495 155.5 1515.5Q201 1536 251 1536ZM128 768Q128 741 138.0 717.5Q148 694 165.0 677.0Q182 660 205.5 650.0Q229 640 256 640H896V1408H256Q229 1408 206.0 1398.0Q183 1388 165.5 1370.5Q148 1353 138.0 1330.0Q128 1307 128 1280ZM1792 1280Q1792 1306 1782.0 1329.5Q1772 1353 1754.5 1370.5Q1737 1388 1713.5 1398.0Q1690 1408 1664 1408H1024V640H1664Q1691 640 1714.0 650.0Q1737 660 1754.5 677.5Q1772 695 1782.0 718.0Q1792 741 1792 768Z"/>
  </g>
</svg>