<?xml version="1.0" encoding="utf-8"?>
<svg xmlns="http://www.w3.org/2000/svg" width="16" height="16" viewBox="0 0 2048 2048">
  <g transform="translate(0, 2048) scale(1, -1)">
    <path fill="#000000" d="M635 256Q583 256 537.5 277.0Q492 298 458.0 333.0Q424 368 404.0 414.5Q384 461 384 512V768H251Q201 768 155.5 788.5Q110 809 75.5 843.5Q41 878 20.5 923.5Q0 969 0 1019V1541Q0 1591 20.5 1636.5Q41 1682 75.5 1716.5Q110 1751 155.5 1771.5Q201 1792 251 1792H1669Q1719 1792 1764.5 1771.5Q1810 1751 1844.5 1716.5Q1879 1682 1899.5 1636.5Q1920 1591 1920 1541V1019Q1920 968 1899.5 923.0Q1879 878 1844.5 843.5Q1810 809 1764.5 789.0Q1719 769 1669 768Q1664 768 1658 768L1636 767Q1631 767 1625 767Q1602 767 1580.0 767.5Q1558 768 1536 768V507Q1536 457 1515.5 411.5Q1495 366 1460.5 331.5Q1426 297 1380.5 276.5Q1335 256 1285 256ZM384 896V901Q384 953 405.0 998.5Q426 1044 461.0 1078.0Q496 1112 542.5 1132.0Q589 1152 640 1152H896V1664H256Q229 1664 206.0 1654.0Q183 1644 165.5 1626.5Q148 1609 138.0 1586.0Q128 1563 128 1536V1024Q128 997 138.0 973.5Q148 950 165.0 933.0Q182 916 205.5 906.0Q229 896 256 896ZM1664 896Q1691 896 1714.0 906.0Q1737 916 1754.5 933.5Q1772 951 1782.0 974.0Q1792 997 1792 1024V1536Q1792 1562 1782.0 1585.5Q1772 1609 1754.5 1626.5Q1737 1644 1713.5 1654.0Q1690 1664 1664 1664H1024V1152H1285Q1334 1152 1379.0 1132.0Q1424 1112 1459.0 1077.5Q1494 1043 1515.0 998.0Q1536 953 1536 904V896ZM1280 384Q1307 384 1330.0 394.0Q1353 404 1370.5 421.5Q1388 439 1398.0 462.0Q1408 485 1408 512V896Q1408 922 1398.0 945.5Q1388 969 1370.5 986.5Q1353 1004 1329.5 1014.0Q1306 1024 1280 1024H640Q613 1024 590.0 1014.0Q567 1004 549.5 986.5Q532 969 522.0 946.0Q512 923 512 896V512Q512 485 522.0 461.5Q532 438 549.0 421.0Q566 404 589.5 394.0Q613 384 640 384Z"/>
  </g>
</svg>