<?xml version="1.0" encoding="utf-8"?>
<svg xmlns="http://www.w3.org/2000/svg" width="16" height="16" viewBox="0 0 2048 2048">
  <g transform="translate(0, 2048) scale(1, -1)">
    <path fill="#ffffff" d="M635 128Q583 128 537.5 149.0Q492 170 458.0 205.0Q424 240 404.0 286.5Q384 333 384 384V640H251Q201 640 155.5 660.5Q110 681 75.5 715.5Q41 750 20.5 795.5Q0 841 0 891V1669Q0 1719 20.5 1764.5Q41 1810 75.5 1844.5Q110 1879 155.5 1899.5Q201 1920 251 1920H1669Q1719 1920 1764.5 1899.5Q1810 1879 1844.5 1844.5Q1879 1810 1899.5 1764.5Q1920 1719 1920 1669V891Q1920 840 1899.5 795.0Q1879 750 1844.5 715.5Q1810 681 1764.5 661.0Q1719 641 1669 640Q1664 640 1658 640L1636 639Q1631 639 1625 639Q1602 639 1580.0 639.5Q1558 640 1536 640V379Q1536 329 1515.5 283.5Q1495 238 1460.5 203.5Q1426 169 1380.5 148.5Q1335 128 1285 128ZM384 768V1285Q384 1337 405.0 1382.5Q426 1428 461.0 1462.0Q496 1496 542.5 1516.0Q589 1536 640 1536H896V1792H256Q229 1792 206.0 1782.0Q183 1772 165.5 1754.5Q148 1737 138.0 1714.0Q128 1691 128 1664V896Q128 869 138.0 845.5Q148 822 165.0 805.0Q182 788 205.5 778.0Q229 768 256 768ZM1664 768Q1691 768 1714.0 778.0Q1737 788 1754.5 805.5Q1772 823 1782.0 846.0Q1792 869 1792 896V1664Q1792 1690 1782.0 1713.5Q1772 1737 1754.5 1754.5Q1737 1772 1713.5 1782.0Q1690 1792 1664 1792H1024V1536H1285Q1337 1536 1382.5 1515.0Q1428 1494 1462.0 1459.0Q1496 1424 1516.0 1377.5Q1536 1331 1536 1280V768ZM1280 256Q1307 256 1330.0 266.0Q1353 276 1370.5 293.5Q1388 311 1398.0 334.0Q1408 357 1408 384V1280Q1408 1306 1398.0 1329.5Q1388 1353 1370.5 1370.5Q1353 1388 1329.5 1398.0Q1306 1408 1280 1408H640Q613 1408 590.0 1398.0Q567 1388 549.5 1370.5Q532 1353 522.0 1330.0Q512 1307 512 1280V384Q512 357 522.0 333.5Q532 310 549.0 293.0Q566 276 589.5 266.0Q613 256 640 256Z"/>
  </g>
</svg>