<?xml version="1.0" encoding="utf-8"?>
<svg xmlns="http://www.w3.org/2000/svg" width="16" height="16" viewBox="0 0 2048 2048">
  <g transform="translate(0, 2048) scale(1, -1)">
    <path fill="#000000" d="M504 256Q429 256 360.5 286.5Q292 317 240.5 368.5Q189 420 158.5 488.5Q128 557 128 632V1544Q128 1619 158.5 1687.5Q189 1756 240.5 1807.5Q292 1859 360.5 1889.5Q429 1920 504 1920H1416Q1491 1920 1559.5 1889.5Q1628 1859 1679.5 1807.5Q1731 1756 1761.5 1687.5Q1792 1619 1792 1544V632Q1792 557 1761.5 488.5Q1731 420 1679.5 368.5Q1628 317 1559.5 286.5Q1491 256 1416 256ZM1413 384Q1463 384 1508.5 404.5Q1554 425 1588.5 459.5Q1623 494 1643.5 539.5Q1664 585 1664 635V1541Q1664 1591 1643.5 1636.5Q1623 1682 1588.5 1716.5Q1554 1751 1508.5 1771.5Q1463 1792 1413 1792H507Q457 1792 411.5 1771.5Q366 1751 331.5 1716.5Q297 1682 276.5 1636.5Q256 1591 256 1541V635Q256 585 276.5 539.5Q297 494 331.5 459.5Q366 425 411.5 404.5Q457 384 507 384ZM482 128H1544Q1622 128 1690.5 159.0Q1759 190 1810.0 243.0Q1861 296 1890.5 365.5Q1920 435 1920 512V1566Q1982 1512 2015.0 1437.0Q2048 1362 2048 1280V502Q2048 435 2029.5 372.0Q2011 309 1977.5 253.0Q1944 197 1897.5 150.5Q1851 104 1795.0 70.5Q1739 37 1676.0 18.5Q1613 0 1546 0H768Q686 0 611.0 33.0Q536 66 482 128ZM576 1024Q550 1024 531.0 1043.0Q512 1062 512 1088Q512 1114 531.0 1133.0Q550 1152 576 1152H1344Q1370 1152 1389.0 1133.0Q1408 1114 1408 1088Q1408 1062 1389.0 1043.0Q1370 1024 1344 1024Z"/>
  </g>
</svg>