<?xml version="1.0" encoding="utf-8"?>
<svg xmlns="http://www.w3.org/2000/svg" width="16" height="16" viewBox="0 0 2048 2048">
  <g transform="translate(0, 2048) scale(1, -1)">
    <path fill="#ffffff" d="M648 836Q604 836 567.0 818.0Q530 800 494.0 778.0Q458 756 420.0 738.0Q382 720 336 720Q273 720 218.0 750.0Q163 780 117 819Q55 872 27.5 940.0Q0 1008 0 1089Q0 1170 21.5 1248.0Q43 1326 76 1400Q147 1558 257 1690Q306 1750 361.0 1803.5Q416 1857 482 1899Q597 1972 722.0 2010.0Q847 2048 984 2048Q1112 2048 1234.0 2014.5Q1356 1981 1469 1921Q1607 1847 1714.5 1747.0Q1822 1647 1896.0 1525.5Q1970 1404 2009.0 1262.5Q2048 1121 2048 964Q2048 850 2027.0 732.5Q2006 615 1962.5 505.0Q1919 395 1852.5 297.5Q1786 200 1695 126Q1620 65 1532.5 29.0Q1445 -7 1347 -7Q1259 -7 1171 24Q1084 55 1021.0 101.0Q958 147 916.0 208.5Q874 270 852.0 346.0Q830 422 825 512Q824 528 823 543L820 603Q819 619 818 634Q817 651 815.0 672.5Q813 694 808.5 716.0Q804 738 797.0 757.5Q790 777 780 791Q771 803 754.5 812.0Q738 821 719.0 826.0Q700 831 681.5 833.5Q663 836 648 836ZM1104 1568Q1104 1616 1072.0 1648.0Q1040 1680 992 1680Q969 1680 948.5 1671.0Q928 1662 913.0 1647.0Q898 1632 889.0 1611.5Q880 1591 880 1568Q880 1545 889.0 1524.5Q898 1504 913.0 1489.0Q928 1474 948.5 1465.0Q969 1456 992 1456Q1015 1456 1035.5 1465.0Q1056 1474 1071.0 1489.0Q1086 1504 1095.0 1524.5Q1104 1545 1104 1568ZM1488 1440Q1488 1488 1456.0 1520.0Q1424 1552 1376 1552Q1353 1552 1332.5 1543.0Q1312 1534 1297.0 1519.0Q1282 1504 1273.0 1483.5Q1264 1463 1264 1440Q1264 1417 1273.0 1396.5Q1282 1376 1297.0 1361.0Q1312 1346 1332.5 1337.0Q1353 1328 1376 1328Q1399 1328 1419.5 1337.0Q1440 1346 1455.0 1361.0Q1470 1376 1479.0 1396.5Q1488 1417 1488 1440ZM1712 1152Q1712 1200 1680.0 1232.0Q1648 1264 1600 1264Q1577 1264 1556.5 1255.0Q1536 1246 1521.0 1231.0Q1506 1216 1497.0 1195.5Q1488 1175 1488 1152Q1488 1129 1497.0 1108.5Q1506 1088 1521.0 1073.0Q1536 1058 1556.5 1049.0Q1577 1040 1600 1040Q1623 1040 1643.5 1049.0Q1664 1058 1679.0 1073.0Q1694 1088 1703.0 1108.5Q1712 1129 1712 1152ZM1712 768Q1712 816 1680.0 848.0Q1648 880 1600 880Q1577 880 1556.5 871.0Q1536 862 1521.0 847.0Q1506 832 1497.0 811.5Q1488 791 1488 768Q1488 745 1497.0 724.5Q1506 704 1521.0 689.0Q1536 674 1556.5 665.0Q1577 656 1600 656Q1623 656 1643.5 665.0Q1664 674 1679.0 689.0Q1694 704 1703.0 724.5Q1712 745 1712 768ZM1456 512Q1456 560 1424.0 592.0Q1392 624 1344 624Q1321 624 1300.5 615.0Q1280 606 1265.0 591.0Q1250 576 1241.0 555.5Q1232 535 1232 512Q1232 489 1241.0 468.5Q1250 448 1265.0 433.0Q1280 418 1300.5 409.0Q1321 400 1344 400Q1367 400 1387.5 409.0Q1408 418 1423.0 433.0Q1438 448 1447.0 468.5Q1456 489 1456 512Z"/>
  </g>
</svg>