<?xml version="1.0" encoding="utf-8"?>
<svg xmlns="http://www.w3.org/2000/svg" width="16" height="16" viewBox="0 0 2048 2048">
  <g transform="translate(0, 2048) scale(1, -1)">
    <path fill="#000000" d="M648 836Q603 836 566.0 818.0Q529 800 493.5 778.0Q458 756 420.0 738.0Q382 720 336 720Q274 720 218.0 750.0Q162 780 117 819Q56 872 28.0 940.5Q0 1009 0 1089Q0 1169 22.0 1248.5Q44 1328 76 1400Q111 1478 157.0 1551.0Q203 1624 257 1690Q306 1750 361.0 1803.5Q416 1857 482 1899Q595 1971 722.5 2009.0Q850 2047 984 2047Q1111 2047 1234.0 2014.0Q1357 1981 1469 1921Q1606 1846 1713.5 1746.0Q1821 1646 1895.5 1524.0Q1970 1402 2009.0 1260.5Q2048 1119 2048 962Q2048 866 2033.5 771.5Q2019 677 1991 585Q1969 514 1935.5 442.5Q1902 371 1857.0 305.5Q1812 240 1757.0 182.5Q1702 125 1637.5 83.0Q1573 41 1499.5 17.0Q1426 -7 1345 -7Q1300 -7 1256.5 1.0Q1213 9 1171 24Q1083 55 1020.0 101.0Q957 147 915.5 208.0Q874 269 852.5 345.0Q831 421 825 512Q821 567 819.5 622.0Q818 677 805 731Q801 746 796.0 763.0Q791 780 780 791Q769 803 753.0 812.0Q737 821 719.0 826.0Q701 831 682.5 833.5Q664 836 648 836ZM1345 121Q1420 121 1488.0 149.5Q1556 178 1614 225Q1693 289 1751.0 376.0Q1809 463 1847.0 561.5Q1885 660 1903.0 764.5Q1921 869 1921 968Q1921 1107 1886.5 1231.0Q1852 1355 1786.0 1461.5Q1720 1568 1625.0 1655.0Q1530 1742 1409 1808Q1312 1861 1204.0 1891.0Q1096 1921 984 1921Q846 1921 725.5 1877.0Q605 1833 505.0 1755.5Q405 1678 326.0 1573.5Q247 1469 193 1348Q165 1287 146.5 1222.0Q128 1157 128 1089Q128 1037 144.0 994.5Q160 952 199 917Q210 907 226.5 895.0Q243 883 261.0 872.5Q279 862 297.0 854.5Q315 847 330 847Q358 847 390.0 865.5Q422 884 460.5 905.5Q499 927 545.0 945.5Q591 964 648 964Q679 964 710.0 958.5Q741 953 770 944Q835 923 870.0 884.0Q905 845 921.5 794.5Q938 744 942.0 684.5Q946 625 949.5 563.0Q953 501 962.5 439.0Q972 377 999.0 321.5Q1026 266 1077.0 220.0Q1128 174 1214 144Q1278 121 1345 121ZM896 1568Q896 1608 924.0 1636.0Q952 1664 992 1664Q1032 1664 1060.0 1636.0Q1088 1608 1088 1568Q1088 1528 1060.0 1500.0Q1032 1472 992 1472Q952 1472 924.0 1500.0Q896 1528 896 1568ZM1280 1440Q1280 1480 1308.0 1508.0Q1336 1536 1376 1536Q1416 1536 1444.0 1508.0Q1472 1480 1472 1440Q1472 1400 1444.0 1372.0Q1416 1344 1376 1344Q1336 1344 1308.0 1372.0Q1280 1400 1280 1440ZM1504 1152Q1504 1192 1532.0 1220.0Q1560 1248 1600 1248Q1640 1248 1668.0 1220.0Q1696 1192 1696 1152Q1696 1112 1668.0 1084.0Q1640 1056 1600 1056Q1560 1056 1532.0 1084.0Q1504 1112 1504 1152ZM1504 768Q1504 808 1532.0 836.0Q1560 864 1600 864Q1640 864 1668.0 836.0Q1696 808 1696 768Q1696 728 1668.0 700.0Q1640 672 1600 672Q1560 672 1532.0 700.0Q1504 728 1504 768ZM1248 512Q1248 552 1276.0 580.0Q1304 608 1344 608Q1384 608 1412.0 580.0Q1440 552 1440 512Q1440 472 1412.0 444.0Q1384 416 1344 416Q1304 416 1276.0 444.0Q1248 472 1248 512Z"/>
  </g>
</svg>