<?xml version="1.0" encoding="utf-8"?>
<svg xmlns="http://www.w3.org/2000/svg" width="16" height="16" viewBox="0 0 2048 2048">
  <g transform="translate(0, 2048) scale(1, -1)">
    <path fill="#ffffff" d="M538 1782 446 1874Q562 1959 701.0 2003.5Q840 2048 984 2048Q1114 2048 1234.0 2014.5Q1354 1981 1469 1921Q1607 1848 1714.5 1748.0Q1822 1648 1896.0 1525.5Q1970 1403 2009.0 1261.5Q2048 1120 2048 964Q2048 894 2040.0 821.0Q2032 748 2015.5 676.0Q1999 604 1974.0 535.0Q1949 466 1916 404L1821 499Q1845 551 1863.5 608.5Q1882 666 1894.5 726.0Q1907 786 1913.5 846.5Q1920 907 1920 964Q1920 1101 1885.5 1226.0Q1851 1351 1785.5 1459.0Q1720 1567 1625.0 1655.5Q1530 1744 1409 1808Q1310 1861 1203.5 1890.5Q1097 1920 985 1920Q927 1920 868.0 1911.0Q809 1902 751.0 1884.5Q693 1867 639.0 1841.5Q585 1816 538 1782ZM2049 64Q2049 38 2030.0 19.0Q2011 0 1985 0Q1958 0 1939 19L1766 192Q1726 148 1678.0 111.5Q1630 75 1576.5 49.0Q1523 23 1465.0 8.0Q1407 -7 1347 -7Q1302 -7 1257.5 1.0Q1213 9 1171 24Q1084 55 1021.0 101.5Q958 148 916.0 209.0Q874 270 852.0 346.0Q830 422 825 512Q824 528 823 543L820 603Q819 619 818 634Q817 650 815.0 672.0Q813 694 808.5 715.5Q804 737 797.0 757.0Q790 777 780 791Q770 803 754.0 812.0Q738 821 719.5 826.0Q701 831 682.0 833.5Q663 836 648 836Q604 836 567.0 818.0Q530 800 494.0 778.0Q458 756 420.0 738.0Q382 720 336 720Q273 720 218.0 750.0Q163 780 117 819Q55 872 27.5 940.5Q0 1009 0 1089Q0 1168 22.5 1250.5Q45 1333 81.5 1412.0Q118 1491 165.0 1563.5Q212 1636 262 1696L19 1939Q0 1958 0 1984Q0 2011 19.5 2029.5Q39 2048 65 2048Q91 2048 110 2029L2030 109Q2049 90 2049 64ZM992 1664Q1032 1664 1060.0 1636.0Q1088 1608 1088 1568Q1088 1528 1060.0 1500.0Q1032 1472 992 1472Q952 1472 924.0 1500.0Q896 1528 896 1568Q896 1608 924.0 1636.0Q952 1664 992 1664ZM1676 282 1440 518Q1440 476 1414.0 446.0Q1388 416 1344 416Q1304 416 1276.0 444.0Q1248 472 1248 512Q1248 556 1278.0 582.0Q1308 608 1350 608L353 1605Q312 1555 272.0 1492.5Q232 1430 200.0 1362.5Q168 1295 148.0 1225.0Q128 1155 128 1089Q128 1038 144.0 994.5Q160 951 199 917Q212 906 228.0 894.0Q244 882 261.5 871.5Q279 861 297.0 854.0Q315 847 333 847Q360 847 391.0 865.5Q422 884 459.5 905.5Q497 927 543.5 945.5Q590 964 649 964Q680 964 710.5 958.5Q741 953 770 944Q835 923 869.5 884.0Q904 845 920.5 794.5Q937 744 941.5 684.5Q946 625 950.0 562.5Q954 500 963.5 438.0Q973 376 1000.0 321.0Q1027 266 1077.5 220.0Q1128 174 1214 144Q1278 121 1346 121Q1396 121 1441.0 133.5Q1486 146 1527.0 167.5Q1568 189 1605.0 218.5Q1642 248 1676 282ZM1376 1536Q1416 1536 1444.0 1508.0Q1472 1480 1472 1440Q1472 1400 1444.0 1372.0Q1416 1344 1376 1344Q1336 1344 1308.0 1372.0Q1280 1400 1280 1440Q1280 1480 1308.0 1508.0Q1336 1536 1376 1536ZM1696 1152Q1696 1112 1668.0 1084.0Q1640 1056 1600 1056Q1560 1056 1532.0 1084.0Q1504 1112 1504 1152Q1504 1192 1532.0 1220.0Q1560 1248 1600 1248Q1640 1248 1668.0 1220.0Q1696 1192 1696 1152ZM1696 768Q1696 739 1681.0 715.5Q1666 692 1640 680L1512 808Q1524 834 1547.5 849.0Q1571 864 1600 864Q1640 864 1668.0 836.0Q1696 808 1696 768Z"/>
  </g>
</svg>