<?xml version="1.0" encoding="utf-8"?>
<svg xmlns="http://www.w3.org/2000/svg" width="16" height="16" viewBox="0 0 2048 2048">
  <g transform="translate(0, 2048) scale(1, -1)">
    <path fill="#000000" d="M11 896Q11 1037 47.5 1168.0Q84 1299 150.5 1413.0Q217 1527 310.5 1620.5Q404 1714 518.0 1780.5Q632 1847 763.0 1883.5Q894 1920 1035 1920Q1176 1920 1307.0 1883.5Q1438 1847 1551.5 1780.5Q1665 1714 1758.5 1620.5Q1852 1527 1919.0 1413.0Q1986 1299 2022.5 1168.0Q2059 1037 2059 896Q2059 725 2004.5 565.0Q1950 405 1846 270Q1826 244 1804.0 219.0Q1782 194 1759 172Q1749 163 1738.5 158.0Q1728 153 1714 153Q1688 153 1668.5 172.0Q1649 191 1649 217Q1649 231 1654.0 241.0Q1659 251 1668 262Q1701 299 1728.5 331.5Q1756 364 1779.5 397.5Q1803 431 1823.0 468.5Q1843 506 1863 553Q1931 718 1931 896Q1931 1020 1899.0 1134.5Q1867 1249 1808.5 1348.5Q1750 1448 1668.5 1529.5Q1587 1611 1487.5 1669.5Q1388 1728 1273.5 1760.0Q1159 1792 1035 1792Q911 1792 796.5 1760.0Q682 1728 582.5 1669.5Q483 1611 401.5 1529.5Q320 1448 261.5 1348.5Q203 1249 171.0 1134.5Q139 1020 139 896Q139 747 185.5 608.5Q232 470 323 352Q341 328 361.0 306.5Q381 285 401 262Q411 251 415.5 241.5Q420 232 420 217Q420 191 401.0 172.0Q382 153 356 153Q341 153 331.5 157.5Q322 162 311 172Q238 240 182.0 324.5Q126 409 88.0 503.0Q50 597 30.5 697.0Q11 797 11 896ZM1367 489Q1367 504 1372.0 513.5Q1377 523 1386 534Q1399 548 1411.5 561.5Q1424 575 1435 591Q1485 657 1510.5 735.5Q1536 814 1536 896Q1536 1002 1496.0 1095.5Q1456 1189 1386.5 1258.5Q1317 1328 1223.5 1368.0Q1130 1408 1024 1408Q918 1408 824.5 1368.0Q731 1328 661.5 1258.5Q592 1189 552.0 1095.5Q512 1002 512 896Q512 840 522.0 792.0Q532 744 551.0 700.0Q570 656 598.0 615.0Q626 574 662 534Q672 523 676.5 514.0Q681 505 681 489Q681 463 662.0 444.0Q643 425 617 425Q603 425 592.5 430.0Q582 435 571 444Q557 456 544.5 471.0Q532 486 521 500Q454 585 419.0 686.5Q384 788 384 896Q384 1029 434.0 1145.5Q484 1262 571.0 1349.0Q658 1436 774.5 1486.0Q891 1536 1024 1536Q1157 1536 1273.5 1486.0Q1390 1436 1477.0 1349.0Q1564 1262 1614.0 1145.5Q1664 1029 1664 896Q1664 836 1651.5 773.5Q1639 711 1615.5 651.5Q1592 592 1557.0 538.5Q1522 485 1477 444Q1457 425 1431 425Q1405 425 1386.0 444.0Q1367 463 1367 489ZM768 896V901Q768 953 789.0 998.5Q810 1044 845.0 1078.0Q880 1112 926.5 1132.0Q973 1152 1024 1152Q1076 1152 1123.0 1131.5Q1170 1111 1204.5 1076.5Q1239 1042 1259.5 995.0Q1280 948 1280 896Q1280 843 1259.5 796.5Q1239 750 1204.5 715.5Q1170 681 1123.0 660.5Q1076 640 1024 640Q971 640 924.5 660.5Q878 681 843.5 715.5Q809 750 788.5 796.5Q768 843 768 896ZM1152 896Q1152 922 1142.0 945.5Q1132 969 1114.5 986.5Q1097 1004 1073.5 1014.0Q1050 1024 1024 1024Q997 1024 974.0 1014.0Q951 1004 933.5 986.5Q916 969 906.0 946.0Q896 923 896 896Q896 869 906.0 845.5Q916 822 933.0 805.0Q950 788 973.5 778.0Q997 768 1024 768Q1051 768 1074.0 778.0Q1097 788 1114.5 805.5Q1132 823 1142.0 846.0Q1152 869 1152 896Z"/>
  </g>
</svg>