<?xml version="1.0" encoding="utf-8"?>
<svg xmlns="http://www.w3.org/2000/svg" width="16" height="16" viewBox="0 0 2048 2048">
  <g transform="translate(0, 2048) scale(1, -1)">
    <path fill="#000000" d="M163 717Q172 717 177.5 712.0Q183 707 189 702Q206 687 226.0 675.5Q246 664 264 650Q302 621 339.0 590.5Q376 560 411 526Q421 516 440.0 496.5Q459 477 482.0 452.0Q505 427 529.0 399.5Q553 372 573.0 346.5Q593 321 605.5 299.5Q618 278 618 267Q618 256 612.0 247.0Q606 238 599 231Q594 226 581.5 214.5Q569 203 552.5 188.0Q536 173 517.5 156.5Q499 140 483.0 127.0Q467 114 455.5 105.0Q444 96 441 96Q430 96 423.5 103.5Q417 111 412 119Q369 184 325.0 240.0Q281 296 234.0 346.5Q187 397 134.0 444.5Q81 492 20 540Q16 543 8.0 549.5Q0 556 0 561Q0 569 17.5 588.5Q35 608 57.5 629.5Q80 651 102.0 670.5Q124 690 132 698Q139 705 145.5 711.0Q152 717 163 717Z"/>
  </g>
</svg>