<?xml version="1.0" encoding="utf-8"?>
<svg id="" width="16" height="16" style="width:16px;height:16px;" version="1.1" xmlns="http://www.w3.org/2000/svg" viewBox="0 0 2048 2048" enable-background="new 0 0 2048 2048" xml:space="preserve">
    <path fill="#000" d="M1618.29 0 q85.71 0 163.99 34.85 q78.29 34.85 137.14 93.72 q58.86 58.86 93.72 137.15 q34.86 78.28 34.86 163.99 l0 1188.58 q0 85.71 -34.86 163.99 q-34.86 78.29 -93.72 137.14 q-58.86 58.86 -137.14 93.72 q-78.28 34.86 -163.99 34.86 l-1188.58 0 q-85.71 0 -163.99 -34.86 q-78.29 -34.86 -137.15 -93.72 q-58.86 -58.86 -93.72 -137.14 q-34.85 -78.28 -34.85 -163.99 l0 -1188.58 q0 -85.71 34.85 -163.99 q34.85 -78.29 93.72 -137.15 q58.86 -58.86 137.15 -93.72 q78.28 -34.85 163.99 -34.85 l1188.58 0 ZM433.14 146.29 q-57.14 0 -109.14 23.42 q-52 23.43 -91.43 62.86 q-39.43 39.43 -62.86 90.86 q-23.42 51.43 -23.42 108.57 l0 5.71 l1755.42 0 l0 -5.71 q0 -57.14 -23.43 -108.57 q-23.42 -51.43 -62.86 -90.86 q-39.43 -39.43 -91.43 -62.86 q-52 -23.42 -109.14 -23.42 l-1181.72 0 ZM1614.86 1901.71 q57.14 0 109.14 -23.43 q52 -23.42 91.43 -62.86 q39.43 -39.43 62.86 -91.43 q23.43 -52 23.43 -109.14 l0 -1028.57 l-1755.42 0 l0 1028.57 q0 57.14 23.42 109.14 q23.43 52 62.86 91.43 q39.43 39.43 91.43 62.86 q52 23.43 109.14 23.43 l1181.72 0 ZM1755.43 1536 q0 29.71 -21.71 51.43 q-21.72 21.71 -51.43 21.71 q-19.43 0 -37.72 -10.86 q-18.28 -10.86 -27.43 -29.14 l-292.57 -585.14 q-8 -16 -8 -33.14 q0 -29.72 21.71 -51.44 q21.72 -21.71 51.43 -21.71 q19.43 0 37.72 10.86 q18.28 10.86 27.43 29.14 l292.57 585.15 q8 16 8 33.14 ZM429.71 1220.57 q0 42.29 4 86.86 q4 44.57 20.57 81.72 q16.58 37.14 48 60.57 q31.43 23.42 86.29 23.42 q32 0 52 -8.57 q20 -8.57 33.72 -21.14 q13.71 -12.57 23.43 -28 q9.72 -15.43 19.43 -28 q9.72 -12.57 22.29 -21.14 q12.57 -8.57 33.14 -8.57 q28.57 0 48 20 q19.43 20 19.43 48.58 q0 13.71 -5.71 28.57 q-33.15 76.57 -99.43 115.43 q-66.28 38.86 -148.57 38.86 q-91.43 0 -160.57 -46.86 q-69.15 -46.86 -102.29 -131.43 q-22.86 -57.15 -26.86 -112 q-4 -54.86 -4 -114.29 q0 -35.43 8.57 -73.71 q8.57 -38.29 21.15 -71.42 q30.85 -84.57 93.71 -133.14 q62.86 -48.58 154.29 -48.58 q100.57 0 168.57 44.58 q68 44.57 97.71 142.86 q3.43 10.29 3.43 22.86 q0 27.43 -19.43 48 q-19.43 20.57 -48 20.57 q-29.71 0 -44.57 -16 q-14.86 -16 -25.14 -37.71 q-10.28 -21.71 -22.28 -44 q-12 -22.29 -34.86 -33.71 q-14.85 -6.85 -32 -8.57 q-17.14 -1.72 -34.29 -1.72 l-12.57 0 q-38.86 0 -65.14 20 q-26.29 20 -42.29 50.86 q-16 30.86 -22.86 66.86 q-6.86 36 -6.86 68 ZM1170.29 1097.14 q0 29.72 -21.72 51.43 q-21.71 21.72 -51.43 21.72 q-29.71 0 -51.42 -21.72 q-21.72 -21.71 -21.72 -51.43 q0 -29.71 21.72 -51.42 q21.71 -21.72 51.42 -21.72 q29.72 0 51.43 21.72 q21.72 21.71 21.72 51.42 ZM1170.29 1389.71 q0 29.72 -21.72 51.43 q-21.71 21.71 -51.43 21.71 q-29.71 0 -51.42 -21.71 q-21.72 -21.71 -21.72 -51.43 q0 -29.71 21.72 -51.43 q21.71 -21.71 51.42 -21.71 q29.72 0 51.43 21.71 q21.72 21.72 21.72 51.43 Z"/>
</svg>