<?xml version="1.0" encoding="utf-8"?>
<svg xmlns="http://www.w3.org/2000/svg" width="16" height="16" viewBox="0 0 2048 2048">
  <g transform="translate(0, 2048) scale(1, -1)">
    <path fill="#ffffff" d="M384 384H313Q250 384 193.0 409.5Q136 435 93.5 477.5Q51 520 25.5 577.0Q0 634 0 697V1607Q0 1670 25.5 1727.0Q51 1784 93.5 1826.5Q136 1869 193.0 1894.5Q250 1920 313 1920H1735Q1798 1920 1855.0 1894.5Q1912 1869 1954.5 1826.5Q1997 1784 2022.5 1727.0Q2048 1670 2048 1607V697Q2048 632 2022.0 575.0Q1996 518 1952.0 475.5Q1908 433 1850.0 408.5Q1792 384 1728 384H1108L595 25Q562 1 519 1Q491 1 466.5 11.5Q442 22 423.5 40.0Q405 58 394.5 82.5Q384 107 384 135ZM1920 704V1600Q1920 1639 1905.0 1674.0Q1890 1709 1863.5 1735.5Q1837 1762 1802.0 1777.0Q1767 1792 1728 1792H320Q281 1792 246.0 1777.0Q211 1762 184.5 1735.5Q158 1709 143.0 1674.0Q128 1639 128 1600V704Q128 665 143.0 630.0Q158 595 184.5 568.5Q211 542 246.0 527.0Q281 512 320 512H448Q474 512 493.0 493.0Q512 474 512 448V135L1051 500Q1067 512 1088 512H1728Q1767 512 1802.0 527.0Q1837 542 1863.5 568.5Q1890 595 1905.0 630.0Q1920 665 1920 704Z"/>
  </g>
</svg>