<?xml version="1.0" encoding="utf-8"?>
<svg xmlns="http://www.w3.org/2000/svg" width="16" height="16" viewBox="0 0 2048 2048">
  <g transform="translate(0, 2048) scale(1, -1)">
    <path fill="#000000" d="M0 1088Q0 1220 34.5 1342.5Q69 1465 131.5 1572.0Q194 1679 281.5 1766.5Q369 1854 476.0 1916.5Q583 1979 705.5 2013.5Q828 2048 960 2048Q1092 2048 1214.5 2013.5Q1337 1979 1443.5 1916.5Q1550 1854 1638.0 1766.0Q1726 1678 1788.5 1571.5Q1851 1465 1885.5 1342.5Q1920 1220 1920 1088Q1920 956 1885.5 833.5Q1851 711 1788.5 604.0Q1726 497 1638.5 409.5Q1551 322 1444.0 259.5Q1337 197 1214.5 162.5Q1092 128 960 128Q827 128 704.5 162.5Q582 197 475.5 259.5Q369 322 281.5 409.5Q194 497 131.5 603.5Q69 710 34.5 833.0Q0 956 0 1088ZM1424 1344Q1424 1378 1401.0 1401.0Q1378 1424 1344 1424Q1310 1424 1287 1401L832 945L633 1145Q610 1168 576 1168Q542 1168 519.0 1145.0Q496 1122 496 1088Q496 1073 502.0 1057.5Q508 1042 519 1031L775 775Q786 764 801.5 758.0Q817 752 832 752Q847 752 862.5 758.0Q878 764 889 775L1401 1287Q1424 1310 1424 1344Z"/>
  </g>
</svg>