<?xml version="1.0" encoding="utf-8"?>
<svg xmlns="http://www.w3.org/2000/svg" height="16" width="16" viewBox="0 0 16 16">
  <g>
    <path id="path1" transform="rotate(0,8,8) translate(0,0) scale(0.03125,0.03125)  " fill="#FFFFFF" d="M372.75,148.75L395.25,171.25 208,358.5 116.75,267.25 139.25,244.75 208,313.5 372.75,148.75z M256,32L240.7578125,32.5000152587891 225.78125,34.0000190734863 211.0703125,36.5000114440918 196.625,40 182.546875,44.4140663146973 168.9375,49.6562538146973 155.796875,55.7265625 143.125,62.625 130.9609375,70.3046875 119.34375,78.71875 108.2734375,87.8671951293945 97.75,97.75 87.8671875,108.273452758789 78.71875,119.343765258789 70.3046875,130.960952758789 62.625,143.125 55.7265625,155.796875 49.65625,168.937515258789 44.4140625,182.546890258789 40,196.625 36.5,211.0703125 34,225.78125 32.5,240.7578125 32,256 32.5,271.2421875 34,286.21875 36.5,300.9296875 40,315.375 44.4140625,329.453125 49.65625,343.0625 55.7265625,356.203125 62.625,368.875 70.3046875,381.0390625 78.71875,392.65625 87.8671875,403.7265625 97.75,414.25 108.2734375,424.1328125 119.34375,433.28125 130.9609375,441.6953125 143.125,449.375 155.7890625,456.2734375 168.90625,462.34375 182.4765625,467.5859375 196.5,472 210.906234741211,475.5 225.624984741211,478 240.656234741211,479.5 256,480 271.2421875,479.5 286.21875,478 300.9296875,475.5 315.375,472 329.453125,467.5859375 343.0625,462.34375 356.203125,456.2734375 368.875,449.375 381.0390625,441.6953125 392.65625,433.28125 403.7265625,424.1328125 414.25,414.25 424.1328125,403.7265625 433.28125,392.65625 441.6953125,381.0390625 449.375,368.875 456.2734375,356.2109375 462.34375,343.09375 467.5859375,329.5234375 472,315.5 475.5,301.09375 477.999969482422,286.375 479.499969482422,271.34375 480,256 479.499969482422,240.7578125 477.999969482422,225.78125 475.5,211.0703125 472,196.625 467.5859375,182.546890258789 462.34375,168.937515258789 456.2734375,155.796875 449.375,143.125 441.6953125,130.960952758789 433.28125,119.343765258789 424.1328125,108.273452758789 414.25,97.75 403.7265625,87.8671951293945 392.65625,78.71875 381.0390625,70.3046875 368.875,62.625 356.203125,55.7265625 343.0625,49.6562538146973 329.453125,44.4140663146973 315.375,40 300.9296875,36.5000114440918 286.21875,34.0000190734863 271.2421875,32.5000152587891 256,32z M256,0L273.46875,0.570315361022949 290.625,2.28125762939453 307.46875,5.13282108306885 324,9.125 340.109375,14.1562576293945 355.6875,20.1250114440918 370.734375,27.0312595367432 385.25,34.875 399.1796875,43.6093940734863 412.46875,53.1875228881836 425.1171875,63.6093902587891 437.125,74.875 448.390625,86.8828201293945 458.812469482422,99.53125 468.390594482422,112.8203125 477.125,126.75 484.96875,141.265625 491.875,156.3125 497.84375,171.890640258789 502.875,188 506.8671875,204.53125 509.71875,221.375 511.4296875,238.53125 512,256 511.4296875,273.46875 509.71875,290.625 506.8671875,307.46875 502.875,324 497.84375,340.109375 491.875,355.6875 484.96875,370.734375 477.125,385.25 468.390594482422,399.1796875 458.812469482422,412.46875 448.390625,425.1171875 437.125,437.125 425.1171875,448.390625 412.46875,458.8125 399.1796875,468.390625 385.25,477.125 370.734375,484.96875 355.6875,491.875 340.109375,497.84375 324,502.875 307.46875,506.8671875 290.625,509.71875 273.46875,511.4296875 256,512 238.53125,511.4296875 221.375,509.71875 204.53125,506.8671875 188,502.875 171.890625,497.84375 156.3125,491.875 141.265625,484.96875 126.75,477.125 112.820304870605,468.390625 99.5312423706055,458.8125 86.8828125,448.390625 74.875,437.125 63.609375,425.1171875 53.1875,412.46875 43.609375,399.1796875 34.875,385.25 27.03125,370.7421875 20.125,355.71875 14.15625,340.1796875 9.125,324.125 5.1328125,307.6328125 2.28125,290.78125 0.5703125,273.5703125 0,256 0.5703125,238.53125 2.28125,221.375 5.1328125,204.53125 9.125,188 14.15625,171.890640258789 20.125,156.3125 27.03125,141.265625 34.875,126.75 43.609375,112.8203125 53.1875,99.53125 63.609375,86.8828201293945 74.875,74.875 86.8828125,63.6093902587891 99.5312423706055,53.1875228881836 112.820304870605,43.6093940734863 126.75,34.875 141.2578125,27.0312595367432 156.28125,20.1250114440918 171.8203125,14.1562576293945 187.875,9.125 204.367172241211,5.13282108306885 221.218734741211,2.28125762939453 238.429672241211,0.570315361022949 256,0z" />
  </g>
</svg>

