<?xml version="1.0" encoding="utf-8"?>
<svg xmlns="http://www.w3.org/2000/svg" width="16" height="16" viewBox="0 0 2048 2048">
  <g transform="translate(0, 2048) scale(1, -1)">
    <path fill="#000000" d="M1792 1397Q1821 1387 1844.5 1369.0Q1868 1351 1885.0 1327.0Q1902 1303 1911.0 1275.0Q1920 1247 1920 1216V832Q1920 793 1905.0 758.0Q1890 723 1863.5 696.5Q1837 670 1802.0 655.0Q1767 640 1728 640H1216Q1183 640 1152.0 651.0Q1121 662 1095.5 682.5Q1070 703 1052.5 730.5Q1035 758 1028 791Q1015 780 992.5 761.0Q970 742 946.0 721.5Q922 701 900.5 682.0Q879 663 870 652Q884 616 890.0 579.0Q896 542 896 504Q896 426 865.0 357.5Q834 289 781.0 238.0Q728 187 658.5 157.5Q589 128 512 128Q432 128 362.0 158.0Q292 188 240.0 240.0Q188 292 158.0 362.0Q128 432 128 512Q128 589 157.5 658.5Q187 728 238.0 781.0Q289 834 357.5 865.0Q426 896 504 896Q592 896 668.5 863.0Q745 830 803 763L1024 957V1216Q1024 1237 1029 1262L593 1516Q555 1462 499.5 1435.0Q444 1408 379 1408Q327 1408 281.5 1429.0Q236 1450 202.0 1485.0Q168 1520 148.0 1566.5Q128 1613 128 1664Q128 1716 148.5 1763.0Q169 1810 203.5 1844.5Q238 1879 284.5 1899.5Q331 1920 384 1920Q435 1920 481.5 1900.0Q528 1880 563.5 1845.5Q599 1811 620.0 1765.5Q641 1720 641 1669Q641 1661 640.5 1653.0Q640 1645 639 1637L1100 1369Q1111 1379 1124.5 1385.5Q1138 1392 1152 1397V1479Q1152 1544 1178.0 1601.0Q1204 1658 1248.0 1700.5Q1292 1743 1350.0 1767.5Q1408 1792 1472 1792Q1537 1792 1595.0 1767.5Q1653 1743 1696.5 1700.5Q1740 1658 1765.5 1601.0Q1791 1544 1792 1479ZM512 1664Q512 1690 502.0 1713.5Q492 1737 474.5 1754.5Q457 1772 433.5 1782.0Q410 1792 384 1792Q357 1792 334.0 1782.0Q311 1772 293.5 1754.5Q276 1737 266.0 1714.0Q256 1691 256 1664Q256 1637 266.0 1613.5Q276 1590 293.0 1573.0Q310 1556 333.5 1546.0Q357 1536 384 1536Q411 1536 434.0 1546.0Q457 1556 474.5 1573.5Q492 1591 502.0 1614.0Q512 1637 512 1664ZM1280 1472V1408H1664V1472Q1664 1511 1649.0 1546.0Q1634 1581 1607.5 1607.5Q1581 1634 1546.0 1649.0Q1511 1664 1472 1664Q1433 1664 1398.0 1649.0Q1363 1634 1336.5 1607.5Q1310 1581 1295.0 1546.0Q1280 1511 1280 1472ZM1792 1216Q1792 1242 1773.0 1261.0Q1754 1280 1728 1280H1216Q1190 1280 1171.0 1261.0Q1152 1242 1152 1216V832Q1152 806 1171.0 787.0Q1190 768 1216 768H1728Q1754 768 1773.0 787.0Q1792 806 1792 832ZM1536 1024Q1536 998 1517.0 979.0Q1498 960 1472 960Q1446 960 1427.0 979.0Q1408 998 1408 1024Q1408 1050 1427.0 1069.0Q1446 1088 1472 1088Q1498 1088 1517.0 1069.0Q1536 1050 1536 1024ZM768 512V517Q768 569 747.0 614.5Q726 660 691.0 694.0Q656 728 609.5 748.0Q563 768 512 768Q459 768 412.5 747.5Q366 727 331.5 692.5Q297 658 276.5 611.0Q256 564 256 512Q256 459 276.5 412.5Q297 366 331.5 331.5Q366 297 412.5 276.5Q459 256 512 256Q564 256 611.0 276.5Q658 297 692.5 331.5Q727 366 747.5 412.5Q768 459 768 512Z"/>
  </g>
</svg>