<?xml version="1.0" encoding="utf-8"?>
<svg xmlns="http://www.w3.org/2000/svg" width="16" height="16" viewBox="0 0 2048 2048">
  <g transform="translate(0, 2048) scale(1, -1)">
    <path fill="#000000" d="M1669 1920Q1719 1920 1764.5 1899.5Q1810 1879 1844.5 1844.5Q1879 1810 1899.5 1764.5Q1920 1719 1920 1669V379Q1920 329 1899.5 283.5Q1879 238 1844.5 203.5Q1810 169 1764.5 148.5Q1719 128 1669 128H379Q329 128 283.5 148.5Q238 169 203.5 203.5Q169 238 148.5 283.5Q128 329 128 379V1669Q128 1719 148.5 1764.5Q169 1810 203.5 1844.5Q238 1879 283.5 1899.5Q329 1920 379 1920ZM1664 256Q1691 256 1714.0 266.0Q1737 276 1754.5 293.5Q1772 311 1782.0 334.0Q1792 357 1792 384V1408H256V384Q256 357 266.0 333.5Q276 310 293.0 293.0Q310 276 333.5 266.0Q357 256 384 256ZM512 1120Q512 1160 540.0 1188.0Q568 1216 608 1216Q648 1216 676.0 1188.0Q704 1160 704 1120Q704 1080 676.0 1052.0Q648 1024 608 1024Q568 1024 540.0 1052.0Q512 1080 512 1120ZM896 1120Q896 1160 924.0 1188.0Q952 1216 992 1216Q1032 1216 1060.0 1188.0Q1088 1160 1088 1120Q1088 1080 1060.0 1052.0Q1032 1024 992 1024Q952 1024 924.0 1052.0Q896 1080 896 1120ZM1280 1120Q1280 1160 1308.0 1188.0Q1336 1216 1376 1216Q1416 1216 1444.0 1188.0Q1472 1160 1472 1120Q1472 1080 1444.0 1052.0Q1416 1024 1376 1024Q1336 1024 1308.0 1052.0Q1280 1080 1280 1120ZM768 736Q768 776 796.0 804.0Q824 832 864 832Q904 832 932.0 804.0Q960 776 960 736Q960 696 932.0 668.0Q904 640 864 640Q824 640 796.0 668.0Q768 696 768 736ZM1152 736Q1152 776 1180.0 804.0Q1208 832 1248 832Q1288 832 1316.0 804.0Q1344 776 1344 736Q1344 696 1316.0 668.0Q1288 640 1248 640Q1208 640 1180.0 668.0Q1152 696 1152 736ZM1472 512Q1498 512 1517.0 493.0Q1536 474 1536 448Q1536 422 1517.0 403.0Q1498 384 1472 384H576Q550 384 531.0 403.0Q512 422 512 448Q512 474 531.0 493.0Q550 512 576 512Z"/>
  </g>
</svg>