<?xml version="1.0" encoding="utf-8"?>
<svg xmlns="http://www.w3.org/2000/svg" width="16" height="16" viewBox="0 0 2048 2048">
  <g transform="translate(0, 2048) scale(1, -1)">
    <path fill="#ffffff" d="M1856 800 2017 643Q2028 632 2034.0 621.0Q2040 610 2040 594Q2040 578 2037.0 563.5Q2034 549 2026.5 537.5Q2019 526 2006.5 519.0Q1994 512 1976 512H942L859 832H1728V1600H448V1408H576Q603 1408 626.0 1398.0Q649 1388 666.5 1370.5Q684 1353 694.0 1330.0Q704 1307 704 1280V448Q704 421 694.0 398.0Q684 375 666.5 357.5Q649 340 626.0 330.0Q603 320 576 320H128Q101 320 78.0 330.0Q55 340 37.5 357.5Q20 375 10.0 398.0Q0 421 0 448V1280Q0 1307 10.0 1330.0Q20 1353 37.5 1370.5Q55 1388 78.0 1398.0Q101 1408 128 1408H320V1600Q320 1627 330.0 1650.0Q340 1673 357.5 1690.5Q375 1708 398.0 1718.0Q421 1728 448 1728H1728Q1755 1728 1778.0 1718.0Q1801 1708 1818.5 1690.5Q1836 1673 1846.0 1650.0Q1856 1627 1856 1600ZM128 512H576V1280H128ZM256 384H448V448H256Z"/>
  </g>
</svg>