<?xml version="1.0" encoding="utf-8"?>
<svg xmlns="http://www.w3.org/2000/svg" width="16" height="16" viewBox="0 0 2048 2048">
  <g transform="translate(0, 2048) scale(1, -1)">
    <path fill="#000000" d="M1920 448V441Q1920 376 1894.0 319.0Q1868 262 1824.0 219.5Q1780 177 1722.0 152.5Q1664 128 1600 128Q1536 128 1478.0 152.5Q1420 177 1376.0 219.5Q1332 262 1306.0 319.0Q1280 376 1280 441Q1280 492 1292.5 536.5Q1305 581 1333 624L1201 757Q1161 731 1116.5 717.5Q1072 704 1024 704Q976 704 931.5 717.5Q887 731 847 757L715 625Q743 581 755.5 536.5Q768 492 768 441Q768 376 742.0 319.0Q716 262 672.0 219.5Q628 177 570.0 152.5Q512 128 448 128Q381 128 323.0 153.0Q265 178 221.5 221.5Q178 265 153.0 323.0Q128 381 128 448Q128 512 152.5 570.0Q177 628 219.5 672.0Q262 716 319.0 742.0Q376 768 441 768Q492 768 536.5 755.5Q581 743 625 715L757 847Q731 887 717.5 931.5Q704 976 704 1024Q704 1072 717.5 1116.5Q731 1161 757 1201L625 1333Q581 1305 536.5 1292.5Q492 1280 441 1280Q376 1280 319.0 1306.0Q262 1332 219.5 1376.0Q177 1420 152.5 1478.0Q128 1536 128 1600Q128 1667 153.0 1725.0Q178 1783 221.5 1826.5Q265 1870 323.0 1895.0Q381 1920 448 1920Q512 1920 570.0 1895.5Q628 1871 672.0 1828.5Q716 1786 742.0 1729.0Q768 1672 768 1607Q768 1556 755.5 1511.5Q743 1467 715 1423L847 1291Q887 1317 931.5 1330.5Q976 1344 1024 1344Q1072 1344 1116.5 1330.5Q1161 1317 1201 1291L1333 1424Q1305 1468 1292.5 1512.0Q1280 1556 1280 1607Q1280 1672 1306.0 1729.0Q1332 1786 1376.0 1828.5Q1420 1871 1478.0 1895.5Q1536 1920 1600 1920Q1667 1920 1725.0 1895.0Q1783 1870 1826.5 1826.5Q1870 1783 1895.0 1725.0Q1920 1667 1920 1600Q1920 1536 1895.5 1478.0Q1871 1420 1828.5 1376.0Q1786 1332 1729.0 1306.0Q1672 1280 1607 1280Q1556 1280 1512.0 1292.5Q1468 1305 1424 1333L1291 1201Q1317 1161 1330.5 1116.5Q1344 1072 1344 1024Q1344 928 1291 848L1424 715Q1467 743 1511.5 755.5Q1556 768 1607 768Q1672 768 1729.0 742.0Q1786 716 1828.5 672.0Q1871 628 1895.5 570.0Q1920 512 1920 448ZM640 1600Q640 1639 625.0 1674.0Q610 1709 583.5 1735.5Q557 1762 522.0 1777.0Q487 1792 448 1792Q409 1792 374.0 1777.0Q339 1762 312.5 1735.5Q286 1709 271.0 1674.0Q256 1639 256 1600Q256 1561 271.0 1526.0Q286 1491 312.5 1464.5Q339 1438 374.0 1423.0Q409 1408 448 1408Q487 1408 522.0 1423.0Q557 1438 583.5 1464.5Q610 1491 625.0 1526.0Q640 1561 640 1600ZM1408 1600Q1408 1561 1423.0 1526.0Q1438 1491 1464.5 1464.5Q1491 1438 1526.0 1423.0Q1561 1408 1600 1408Q1639 1408 1674.0 1423.0Q1709 1438 1735.5 1464.5Q1762 1491 1777.0 1526.0Q1792 1561 1792 1600Q1792 1639 1777.0 1674.0Q1762 1709 1735.5 1735.5Q1709 1762 1674.0 1777.0Q1639 1792 1600 1792Q1561 1792 1526.0 1777.0Q1491 1762 1464.5 1735.5Q1438 1709 1423.0 1674.0Q1408 1639 1408 1600ZM1216 1024Q1216 1063 1201.0 1098.0Q1186 1133 1159.5 1159.5Q1133 1186 1098.0 1201.0Q1063 1216 1024 1216Q985 1216 950.0 1201.0Q915 1186 888.5 1159.5Q862 1133 847.0 1098.0Q832 1063 832 1024Q832 985 847.0 950.0Q862 915 888.5 888.5Q915 862 950.0 847.0Q985 832 1024 832Q1063 832 1098.0 847.0Q1133 862 1159.5 888.5Q1186 915 1201.0 950.0Q1216 985 1216 1024ZM640 448Q640 487 625.0 522.0Q610 557 583.5 583.5Q557 610 522.0 625.0Q487 640 448 640Q409 640 374.0 625.0Q339 610 312.5 583.5Q286 557 271.0 522.0Q256 487 256 448Q256 409 271.0 374.0Q286 339 312.5 312.5Q339 286 374.0 271.0Q409 256 448 256Q487 256 522.0 271.0Q557 286 583.5 312.5Q610 339 625.0 374.0Q640 409 640 448ZM1792 448Q1792 487 1777.0 522.0Q1762 557 1735.5 583.5Q1709 610 1674.0 625.0Q1639 640 1600 640Q1561 640 1526.0 625.0Q1491 610 1464.5 583.5Q1438 557 1423.0 522.0Q1408 487 1408 448Q1408 409 1423.0 374.0Q1438 339 1464.5 312.5Q1491 286 1526.0 271.0Q1561 256 1600 256Q1639 256 1674.0 271.0Q1709 286 1735.5 312.5Q1762 339 1777.0 374.0Q1792 409 1792 448Z"/>
  </g>
</svg>