<?xml version="1.0" encoding="utf-8"?>
<svg id="" width="16" height="16" style="width:16px;height:16px;" version="1.1"
    xmlns="http://www.w3.org/2000/svg" viewBox="0 0 2048 2048" enable-background="new 0 0 2048 2048"
    xml:space="preserve"><path fill="#ffffff" d="M1828.57 0 q44.57 0 84.57 17.14 q40 17.14 70.29 47.43 q30.28 30.28 47.43 70.29 q17.14 40 17.14 84.57 l0 877.71 q0 44.57 -17.14 84.57 q-17.14 40 -47.43 70.29 q-30.29 30.29 -70.29 47.43 q-40 17.14 -84.57 17.14 l-365.71 0 l0 146.29 l38.85 0 q19.43 0 38.29 2.29 q18.86 2.29 34.28 9.72 q15.43 7.43 25.14 21.71 q9.71 14.29 9.71 39.43 q0 29.71 -21.71 51.43 q-21.72 21.71 -51.43 21.71 l-365.71 0 l0 -146.28 l146.28 0 l0 -146.29 l-146.28 0 l0 -146.28 l658.28 0 q29.72 0 51.43 -21.72 q21.71 -21.71 21.71 -51.43 l0 -877.71 q0 -29.72 -21.71 -51.43 q-21.71 -21.71 -51.43 -21.71 l-1316.57 0 q-29.71 0 -51.42 21.71 q-21.72 21.71 -21.72 51.43 l0 219.43 l-146.29 0 l0 -219.43 q0 -44.57 17.15 -84.57 q17.14 -40 47.43 -70.29 q30.29 -30.29 70.29 -47.43 q40 -17.14 84.57 -17.14 l1316.57 0 ZM804.57 585.14 q44.57 0 84.57 17.14 q40 17.14 70.28 47.43 q30.29 30.29 47.43 70.29 q17.14 40 17.14 84.57 l0 1024 q0 44.57 -17.14 84.57 q-17.14 40 -47.43 70.29 q-30.28 30.28 -70.28 47.43 q-40 17.14 -84.57 17.14 l-585.14 0 q-44.57 0 -84.57 -17.14 q-40 -17.14 -70.29 -47.43 q-30.29 -30.29 -47.43 -70.29 q-17.14 -40 -17.14 -84.57 l0 -1024 q0 -44.57 17.14 -84.57 q17.14 -40 47.43 -70.29 q30.28 -30.28 70.29 -47.43 q40 -17.14 84.57 -17.14 l585.14 0 ZM877.71 804.57 q0 -29.71 -21.71 -51.43 q-21.71 -21.72 -51.43 -21.72 l-585.14 0 q-29.72 0 -51.43 21.72 q-21.71 21.72 -21.71 51.43 l0 1024 q0 29.72 21.71 51.43 q21.71 21.71 51.43 21.71 l585.14 0 q29.72 0 51.43 -21.71 q21.71 -21.71 21.71 -51.43 l0 -1024 ZM658.29 1609.14 q29.71 0 51.42 21.71 q21.72 21.71 21.72 51.43 q0 29.71 -21.72 51.43 q-21.71 21.71 -51.42 21.71 l-292.58 0 q-29.71 0 -51.43 -21.71 q-21.71 -21.72 -21.71 -51.43 q0 -29.72 21.71 -51.43 q21.72 -21.71 51.43 -21.71 l292.58 0 Z"/></svg>