<?xml version="1.0" encoding="utf-8"?>
<svg xmlns="http://www.w3.org/2000/svg" width="16" height="16" viewBox="0 0 2048 2048">
  <g transform="translate(0, 2048) scale(1, -1)">
    <path fill="#ffffff" d="M768 1728Q768 1767 783.0 1802.0Q798 1837 824.5 1863.5Q851 1890 886.0 1905.0Q921 1920 960 1920Q999 1920 1034.0 1905.0Q1069 1890 1095.5 1863.5Q1122 1837 1137.0 1802.0Q1152 1767 1152 1728Q1152 1689 1137.0 1654.0Q1122 1619 1095.5 1592.5Q1069 1566 1034.0 1551.0Q999 1536 960 1536Q921 1536 886.0 1551.0Q851 1566 824.5 1592.5Q798 1619 783.0 1654.0Q768 1689 768 1728ZM1283 767Q1283 737 1268.5 710.0Q1254 683 1229 666L499 1395Q496 1398 489.0 1400.0Q482 1402 474.5 1403.0Q467 1404 459.5 1404.5Q452 1405 448 1405Q438 1405 421.5 1403.0Q405 1401 397 1395Q389 1389 386.0 1374.0Q383 1359 383 1338Q383 1320 384.0 1298.5Q385 1277 385 1255Q385 1224 381.0 1194.0Q377 1164 363.5 1140.5Q350 1117 324.5 1102.5Q299 1088 256 1088Q198 1088 163.0 1123.0Q128 1158 128 1216V1408Q128 1441 141.5 1470.5Q155 1500 184 1518L19 1683Q0 1702 0 1728Q0 1754 19.0 1773.0Q38 1792 64 1792Q90 1792 109 1773L323 1559L653 1638Q668 1589 698.5 1547.0Q729 1505 770.0 1474.0Q811 1443 860.0 1425.5Q909 1408 960 1408Q1001 1408 1039.5 1418.5Q1078 1429 1114 1446L1280 794Q1283 780 1283 767ZM512 1190 1139 563Q1146 556 1149.0 539.0Q1152 522 1152 512V128Q1152 70 1117.0 35.0Q1082 0 1024 0Q966 0 931.0 35.0Q896 70 896 128V486L768 742V576Q768 524 730 486L410 166Q372 128 320 128Q294 128 271.0 138.5Q248 149 230.5 166.5Q213 184 202.5 207.0Q192 230 192 256Q192 281 202.5 305.0Q213 329 230 346L512 627ZM1969 128Q1969 102 1958.5 79.0Q1948 56 1930.5 38.5Q1913 21 1890.0 10.5Q1867 0 1841 0H1487Q1461 0 1438.0 10.5Q1415 21 1397.5 38.5Q1380 56 1369.5 79.0Q1359 102 1359 128Q1359 147 1365.5 167.0Q1372 187 1382.0 207.5Q1392 228 1402.5 246.5Q1413 265 1421 281L1299 403Q1280 422 1280 448Q1280 474 1299.0 493.0Q1318 512 1344 512Q1370 512 1389 493L1481 401L1549 539Q1565 571 1596.5 590.5Q1628 610 1664 610Q1700 610 1730.5 590.5Q1761 571 1778 539L1955 185Q1969 157 1969 128Z"/>
  </g>
</svg>