<?xml version="1.0" encoding="utf-8"?>
<svg xmlns="http://www.w3.org/2000/svg" width="16" height="16" viewBox="0 0 2048 2048">
  <g transform="translate(0, 2048) scale(1, -1)">
    <path fill="#000000" d="M1969 127Q1969 101 1959.0 77.5Q1949 54 1931.5 37.0Q1914 20 1890.5 10.0Q1867 0 1841 0H1487Q1461 0 1437.5 10.0Q1414 20 1396.5 37.0Q1379 54 1369.0 77.5Q1359 101 1359 127Q1359 146 1365.5 166.5Q1372 187 1381.5 206.5Q1391 226 1402.0 244.5Q1413 263 1421 280L1152 549V192Q1152 150 1137.5 114.5Q1123 79 1097.5 53.5Q1072 28 1037.0 14.0Q1002 0 960 0Q918 0 882.5 14.0Q847 28 821.5 53.5Q796 79 782.0 114.5Q768 150 768 192Q768 223 768 253L767 374Q767 405 767 435Q762 416 749 403L468 121Q440 93 402.5 80.0Q365 67 327 67Q284 67 247.5 81.5Q211 96 184.5 122.0Q158 148 143.0 184.0Q128 220 128 263Q128 302 142.5 339.0Q157 376 185 404L384 603V969Q352 960 320 960Q278 960 242.5 974.0Q207 988 181.5 1013.5Q156 1039 142.0 1074.5Q128 1110 128 1152V1372Q128 1413 144.0 1449.0Q160 1485 189 1512L19 1683Q0 1702 0 1728Q0 1754 19.0 1773.0Q38 1792 64 1792Q90 1792 109 1773L315 1568L673 1658Q689 1662 704.5 1663.0Q720 1664 736 1664H768V1669Q768 1721 789.0 1766.5Q810 1812 845.0 1846.0Q880 1880 926.5 1900.0Q973 1920 1024 1920Q1075 1920 1121.5 1900.0Q1168 1880 1203.0 1846.0Q1238 1812 1259.0 1766.5Q1280 1721 1280 1669Q1280 1617 1262.5 1571.5Q1245 1526 1210 1488L1343 884Q1345 875 1346.0 865.0Q1347 855 1347 846Q1347 816 1338.0 787.0Q1329 758 1312.5 733.5Q1296 709 1272.5 690.5Q1249 672 1220 662L1481 402L1550 539Q1567 572 1597.5 588.0Q1628 604 1664 604Q1700 604 1731.0 588.0Q1762 572 1779 539L1955 185Q1969 157 1969 127ZM896 1664Q896 1637 906.0 1613.5Q916 1590 933.0 1573.0Q950 1556 973.5 1546.0Q997 1536 1024 1536Q1051 1536 1074.0 1546.0Q1097 1556 1114.5 1573.5Q1132 1591 1142.0 1614.0Q1152 1637 1152 1664Q1152 1690 1142.0 1713.5Q1132 1737 1114.5 1754.5Q1097 1772 1073.5 1782.0Q1050 1792 1024 1792Q997 1792 974.0 1782.0Q951 1772 933.5 1754.5Q916 1737 906.0 1714.0Q896 1691 896 1664ZM640 1382Q666 1382 685.0 1363.5Q704 1345 704 1319Q704 1302 698.0 1290.5Q692 1279 682.0 1271.0Q672 1263 659.0 1258.5Q646 1254 632 1250L896 986V1114Q896 1141 915.5 1159.0Q935 1177 961 1177Q985 1177 1002.0 1161.5Q1019 1146 1023 1123Q1034 1053 1049.0 984.5Q1064 916 1080 847Q1083 832 1086.0 819.0Q1089 806 1094.5 797.0Q1100 788 1110.5 782.5Q1121 777 1140 777Q1172 777 1195.0 793.5Q1218 810 1218 845Q1218 848 1218.0 851.5Q1218 855 1217 858L1094 1418Q1077 1412 1059.5 1410.0Q1042 1408 1024 1408Q956 1408 896.0 1442.5Q836 1477 802 1536H720Q712 1536 682.0 1529.5Q652 1523 610.0 1512.5Q568 1502 520.0 1490.0Q472 1478 428.5 1466.5Q385 1455 351.0 1446.0Q317 1437 304 1434Q283 1429 269.5 1411.5Q256 1394 256 1372V1152Q256 1088 320 1088Q384 1088 384 1152V1267Q384 1289 397.5 1306.5Q411 1324 432 1329Q446 1333 476.0 1341.5Q506 1350 539.0 1359.0Q572 1368 600.5 1375.0Q629 1382 640 1382ZM1024 561Q1021 566 1012.0 584.5Q1003 603 990.0 628.5Q977 654 963.0 682.5Q949 711 937.0 735.5Q925 760 916.5 776.5Q908 793 907 794Q890 815 874.5 831.0Q859 847 843.5 862.0Q828 877 811.0 892.0Q794 907 775 926L512 1190V576Q512 550 493 531L276 313Q257 294 257 263Q257 231 276.0 212.0Q295 193 327 193Q341 193 354.0 197.5Q367 202 377 212L640 475V704Q640 731 659.0 749.5Q678 768 705 768Q722 768 737.5 758.5Q753 749 761 733L889 477Q896 463 896 448V192Q896 128 960 128Q1024 128 1024 192ZM1664 482 1487 128H1841Z"/>
  </g>
</svg>