<?xml version="1.0" encoding="utf-8"?>
<svg xmlns="http://www.w3.org/2000/svg" width="16" height="16" viewBox="0 0 2048 2048">
  <g transform="translate(0, 2048) scale(1, -1)">
    <path fill="#000000" d="M1792 64Q1792 38 1773.0 19.0Q1754 0 1728 0H320Q294 0 275.0 19.0Q256 38 256 64Q256 85 264.0 98.0Q272 111 285.5 118.0Q299 125 316.0 127.0Q333 129 350 129Q362 129 373.5 128.5Q385 128 396 128L769 1846Q778 1890 801.5 1927.0Q825 1964 858.5 1991.0Q892 2018 933.0 2033.0Q974 2048 1019 2048Q1065 2048 1108.0 2033.5Q1151 2019 1185.5 1993.0Q1220 1967 1244.5 1929.5Q1269 1892 1279 1846L1652 128Q1662 128 1673.5 128.5Q1685 129 1698 129Q1715 129 1732.0 127.0Q1749 125 1762.5 118.0Q1776 111 1784.0 98.0Q1792 85 1792 64ZM611 512 528 128H1521L1154 1819Q1144 1864 1109.5 1892.0Q1075 1920 1029 1920Q981 1920 943.0 1894.0Q905 1868 894 1819L722 1024H960Q986 1024 1005.0 1005.0Q1024 986 1024 960Q1024 934 1005.0 915.0Q986 896 960 896H694L639 640H1088Q1114 640 1133.0 621.0Q1152 602 1152 576Q1152 550 1133.0 531.0Q1114 512 1088 512Z"/>
  </g>
</svg>