<?xml version="1.0" encoding="utf-8"?>
<svg xmlns="http://www.w3.org/2000/svg" width="16" height="16" viewBox="0 0 2048 2048">
  <g transform="translate(0, 2048) scale(1, -1)">
    <path fill="#000000" d="M191 1479Q191 1544 217.0 1601.0Q243 1658 287.0 1700.5Q331 1743 389.0 1767.5Q447 1792 511 1792Q578 1792 636.0 1767.0Q694 1742 737.5 1698.5Q781 1655 806.0 1597.0Q831 1539 831 1472Q831 1405 806.0 1347.0Q781 1289 737.5 1245.5Q694 1202 636.0 1177.0Q578 1152 511 1152Q442 1152 383.5 1177.5Q325 1203 282.0 1247.5Q239 1292 215.0 1351.5Q191 1411 191 1479ZM703 1472Q703 1511 688.0 1546.0Q673 1581 646.5 1607.5Q620 1634 585.0 1649.0Q550 1664 511 1664Q472 1664 437.0 1649.0Q402 1634 375.5 1607.5Q349 1581 334.0 1546.0Q319 1511 319 1472Q319 1433 334.0 1398.0Q349 1363 375.5 1336.5Q402 1310 437.0 1295.0Q472 1280 511 1280Q550 1280 585.0 1295.0Q620 1310 646.5 1336.5Q673 1363 688.0 1398.0Q703 1433 703 1472ZM1216 1536Q1190 1536 1171.0 1555.0Q1152 1574 1152 1600Q1152 1626 1171.0 1645.0Q1190 1664 1216 1664H1984Q2010 1664 2029.0 1645.0Q2048 1626 2048 1600Q2048 1574 2029.0 1555.0Q2010 1536 1984 1536ZM1216 1024Q1190 1024 1171.0 1043.0Q1152 1062 1152 1088Q1152 1114 1171.0 1133.0Q1190 1152 1216 1152H1984Q2010 1152 2029.0 1133.0Q2048 1114 2048 1088Q2048 1062 2029.0 1043.0Q2010 1024 1984 1024ZM-1 816Q-1 859 15.5 896.5Q32 934 60.5 962.5Q89 991 126.5 1007.5Q164 1024 207 1024H815Q858 1024 895.5 1007.5Q933 991 961.5 962.5Q990 934 1006.5 896.5Q1023 859 1023 816V768Q1023 704 1000.5 650.5Q978 597 939.5 554.5Q901 512 849.5 480.0Q798 448 741.5 426.5Q685 405 625.5 394.5Q566 384 511 384Q456 384 396.5 394.5Q337 405 280.5 426.5Q224 448 172.5 480.0Q121 512 82.5 555.0Q44 598 21.5 651.0Q-1 704 -1 768ZM512 516Q585 516 661.0 535.5Q737 555 797 599Q838 629 866.5 672.5Q895 716 895 768V816Q895 849 871.5 872.5Q848 896 815 896H207Q191 896 176.5 889.5Q162 883 151.0 872.0Q140 861 133.5 846.5Q127 832 127 816V768Q127 716 156.5 672.5Q186 629 226 599Q255 577 290.0 561.5Q325 546 362.5 536.0Q400 526 438.0 521.0Q476 516 512 516ZM1216 512Q1190 512 1171.0 531.0Q1152 550 1152 576Q1152 602 1171.0 621.0Q1190 640 1216 640H1984Q2010 640 2029.0 621.0Q2048 602 2048 576Q2048 550 2029.0 531.0Q2010 512 1984 512Z"/>
  </g>
</svg>