<?xml version="1.0" encoding="utf-8"?>
<svg xmlns="http://www.w3.org/2000/svg" width="16" height="16" viewBox="0 0 2048 2048">
  <g transform="translate(0, 2048) scale(1, -1)">
    <path fill="#ffffff" d="M512 1536V1546Q512 1650 553.5 1741.5Q595 1833 665.5 1901.0Q736 1969 828.5 2008.5Q921 2048 1024 2048Q1130 2048 1223.5 2008.0Q1317 1968 1386.5 1898.5Q1456 1829 1496.0 1735.5Q1536 1642 1536 1536Q1536 1430 1496.0 1336.5Q1456 1243 1386.5 1173.5Q1317 1104 1223.5 1064.0Q1130 1024 1024 1024Q918 1024 824.5 1064.0Q731 1104 661.5 1173.5Q592 1243 552.0 1336.5Q512 1430 512 1536ZM128 640Q128 691 148.0 737.5Q168 784 202.0 819.0Q236 854 281.5 875.0Q327 896 379 896H1664Q1715 896 1761.5 876.0Q1808 856 1843.0 822.0Q1878 788 1899.0 742.5Q1920 697 1920 645Q1920 522 1882.0 426.0Q1844 330 1779.0 258.5Q1714 187 1626.5 137.5Q1539 88 1439.5 57.5Q1340 27 1233.5 13.5Q1127 0 1024 0Q925 0 827.0 10.5Q729 21 634 48Q526 79 433.5 131.0Q341 183 273.0 256.5Q205 330 166.5 425.5Q128 521 128 640Z"/>
  </g>
</svg>