<?xml version="1.0" encoding="utf-8"?>
<svg xmlns="http://www.w3.org/2000/svg" width="16" height="16" viewBox="0 0 2048 2048">
  <g transform="translate(0, 2048) scale(1, -1)">
    <path fill="#ffffff" d="M384 1546Q384 1650 425.5 1741.5Q467 1833 537.5 1901.0Q608 1969 700.5 2008.5Q793 2048 896 2048Q999 2048 1091.5 2008.5Q1184 1969 1254.5 1901.0Q1325 1833 1366.5 1741.5Q1408 1650 1408 1546Q1408 1480 1395.0 1420.0Q1382 1360 1352 1302Q1288 1291 1227.0 1269.5Q1166 1248 1109 1216Q1193 1273 1236.5 1358.0Q1280 1443 1280 1544Q1280 1622 1249.0 1690.5Q1218 1759 1165.5 1810.0Q1113 1861 1043.0 1890.5Q973 1920 896 1920Q816 1920 746.0 1890.0Q676 1860 624.0 1808.0Q572 1756 542.0 1686.0Q512 1616 512 1536Q512 1459 541.5 1389.0Q571 1319 622.0 1266.5Q673 1214 741.5 1183.0Q810 1152 888 1152Q939 1152 986.0 1163.0Q1033 1174 1078 1198Q1024 1163 976.0 1119.0Q928 1075 888 1024H886Q819 1024 756.0 1042.5Q693 1061 637.0 1094.5Q581 1128 534.5 1174.5Q488 1221 454.5 1276.5Q421 1332 402.5 1395.5Q384 1459 384 1526ZM896 576Q896 695 941.5 800.0Q987 905 1065.0 983.0Q1143 1061 1248.0 1106.5Q1353 1152 1472 1152Q1551 1152 1624.5 1131.5Q1698 1111 1762.0 1073.5Q1826 1036 1879.0 983.0Q1932 930 1969.5 866.0Q2007 802 2027.5 728.5Q2048 655 2048 576Q2048 457 2002.5 352.0Q1957 247 1879.0 169.0Q1801 91 1696.0 45.5Q1591 0 1472 0Q1352 0 1247.0 45.0Q1142 90 1064.0 168.0Q986 246 941.0 351.0Q896 456 896 576ZM0 640Q0 693 20.0 739.5Q40 786 75.0 821.0Q110 856 156.5 876.0Q203 896 256 896H809Q779 835 761 768H256Q229 768 205.5 758.0Q182 748 165.0 731.0Q148 714 138.0 690.5Q128 667 128 640Q128 539 161.5 461.5Q195 384 252.0 327.5Q309 271 385.0 232.5Q461 194 545.5 171.0Q630 148 718.0 138.0Q806 128 888 128Q914 93 945.0 62.0Q976 31 1010 3Q953 0 896 0Q810 0 720.5 8.0Q631 16 544.0 37.0Q457 58 375.5 93.0Q294 128 225 182Q114 268 57.0 384.0Q0 500 0 640Z"/>
  </g>
</svg>