<?xml version="1.0" encoding="utf-8"?>
<svg xmlns="http://www.w3.org/2000/svg" width="16" height="16" viewBox="0 0 2048 2048">
  <g transform="translate(0, 2048) scale(1, -1)">
    <path fill="#ffffff" d="M512 1546Q512 1650 553.5 1741.5Q595 1833 665.5 1901.0Q736 1969 828.5 2008.5Q921 2048 1024 2048Q1130 2048 1223.5 2008.0Q1317 1968 1386.5 1898.5Q1456 1829 1496.0 1735.5Q1536 1642 1536 1536Q1536 1430 1496.0 1336.5Q1456 1243 1386.5 1173.5Q1317 1104 1223.5 1064.0Q1130 1024 1024 1024Q915 1024 821.5 1065.0Q728 1106 659.0 1177.0Q590 1248 551.0 1343.0Q512 1438 512 1546ZM1408 1544Q1408 1622 1377.0 1690.5Q1346 1759 1293.5 1810.0Q1241 1861 1171.0 1890.5Q1101 1920 1024 1920Q944 1920 874.0 1890.0Q804 1860 752.0 1808.0Q700 1756 670.0 1686.0Q640 1616 640 1536Q640 1456 670.0 1386.0Q700 1316 752.0 1264.0Q804 1212 874.0 1182.0Q944 1152 1024 1152Q1106 1152 1176.5 1182.5Q1247 1213 1298.5 1266.5Q1350 1320 1379.0 1391.5Q1408 1463 1408 1544ZM128 640Q128 691 148.0 737.5Q168 784 202.0 819.0Q236 854 281.5 875.0Q327 896 379 896H1664Q1715 896 1761.5 876.0Q1808 856 1843.0 822.0Q1878 788 1899.0 742.5Q1920 697 1920 645Q1920 522 1882.0 426.0Q1844 330 1779.0 258.5Q1714 187 1626.5 137.5Q1539 88 1439.5 57.5Q1340 27 1233.5 13.5Q1127 0 1024 0Q925 0 827.0 10.5Q729 21 634 48Q526 79 433.5 131.0Q341 183 273.0 256.5Q205 330 166.5 425.5Q128 521 128 640ZM1792 640Q1792 666 1782.0 689.5Q1772 713 1754.5 730.5Q1737 748 1713.5 758.0Q1690 768 1664 768H384Q357 768 334.0 758.0Q311 748 293.5 730.5Q276 713 266.0 690.0Q256 667 256 640Q256 537 290.0 459.5Q324 382 382.0 325.0Q440 268 516.5 230.0Q593 192 678.5 169.5Q764 147 853.0 137.5Q942 128 1024 128Q1106 128 1195.0 137.5Q1284 147 1369.5 169.5Q1455 192 1531.5 230.0Q1608 268 1666.0 325.0Q1724 382 1758.0 460.0Q1792 538 1792 640Z"/>
  </g>
</svg>