<?xml version="1.0" encoding="utf-8"?>
<svg xmlns="http://www.w3.org/2000/svg" width="16" height="16" viewBox="0 0 2048 2048">
  <g transform="translate(0, 2048) scale(1, -1)">
    <path fill="#000000" d="M504 128Q429 128 360.5 158.5Q292 189 240.5 240.5Q189 292 158.5 360.5Q128 429 128 504V1544Q128 1619 158.5 1687.5Q189 1756 240.5 1807.5Q292 1859 360.5 1889.5Q429 1920 504 1920H1544Q1619 1920 1687.5 1889.5Q1756 1859 1807.5 1807.5Q1859 1756 1889.5 1687.5Q1920 1619 1920 1544V504Q1920 429 1889.5 360.5Q1859 292 1807.5 240.5Q1756 189 1687.5 158.5Q1619 128 1544 128ZM1541 256Q1591 256 1636.5 276.5Q1682 297 1716.5 331.5Q1751 366 1771.5 411.5Q1792 457 1792 507V1541Q1792 1591 1771.5 1636.5Q1751 1682 1716.5 1716.5Q1682 1751 1636.5 1771.5Q1591 1792 1541 1792H507Q457 1792 411.5 1771.5Q366 1751 331.5 1716.5Q297 1682 276.5 1636.5Q256 1591 256 1541V507Q256 457 276.5 411.5Q297 366 331.5 331.5Q366 297 411.5 276.5Q457 256 507 256ZM768 1285Q768 1337 789.0 1382.5Q810 1428 845.0 1462.0Q880 1496 926.5 1516.0Q973 1536 1024 1536Q1076 1536 1123.0 1515.5Q1170 1495 1204.5 1460.5Q1239 1426 1259.5 1379.0Q1280 1332 1280 1280Q1280 1227 1259.5 1180.5Q1239 1134 1204.5 1099.5Q1170 1065 1123.0 1044.5Q1076 1024 1024 1024Q970 1024 923.0 1044.5Q876 1065 841.5 1100.5Q807 1136 787.5 1183.5Q768 1231 768 1285ZM1152 1280Q1152 1306 1142.0 1329.5Q1132 1353 1114.5 1370.5Q1097 1388 1073.5 1398.0Q1050 1408 1024 1408Q997 1408 974.0 1398.0Q951 1388 933.5 1370.5Q916 1353 906.0 1330.0Q896 1307 896 1280Q896 1253 906.0 1229.5Q916 1206 933.0 1189.0Q950 1172 973.5 1162.0Q997 1152 1024 1152Q1051 1152 1074.0 1162.0Q1097 1172 1114.5 1189.5Q1132 1207 1142.0 1230.0Q1152 1253 1152 1280ZM562 729Q562 766 575.0 797.0Q588 828 610.5 850.0Q633 872 664.0 884.0Q695 896 732 896H1316Q1353 896 1384.0 884.0Q1415 872 1437.5 850.0Q1460 828 1473.0 797.0Q1486 766 1486 729Q1486 630 1445.5 564.0Q1405 498 1339.0 458.0Q1273 418 1190.5 401.0Q1108 384 1024 384Q940 384 857.5 401.0Q775 418 709.0 458.0Q643 498 602.5 564.0Q562 630 562 729ZM1358 734Q1358 754 1345.5 761.0Q1333 768 1316 768H732Q715 768 702.5 761.0Q690 754 690 734Q690 663 721.0 619.5Q752 576 800.5 552.0Q849 528 908.0 520.0Q967 512 1024 512Q1081 512 1140.0 520.0Q1199 528 1247.5 552.0Q1296 576 1327.0 619.5Q1358 663 1358 734Z"/>
  </g>
</svg>