<?xml version="1.0" encoding="utf-8"?>
<svg xmlns="http://www.w3.org/2000/svg" width="16" height="16" viewBox="0 0 2048 2048">
  <g transform="translate(0, 2048) scale(1, -1)">
    <path fill="#000000" d="M1216 1472V1479Q1216 1544 1242.0 1601.0Q1268 1658 1312.0 1700.5Q1356 1743 1414.0 1767.5Q1472 1792 1536 1792Q1603 1792 1661.0 1767.0Q1719 1742 1762.5 1698.5Q1806 1655 1831.0 1597.0Q1856 1539 1856 1472Q1856 1405 1831.0 1347.0Q1806 1289 1762.5 1245.5Q1719 1202 1661.0 1177.0Q1603 1152 1536 1152Q1469 1152 1411.0 1177.0Q1353 1202 1309.5 1245.5Q1266 1289 1241.0 1347.0Q1216 1405 1216 1472ZM63 1536Q37 1536 18.0 1555.0Q-1 1574 -1 1600Q-1 1626 18.0 1645.0Q37 1664 63 1664H831Q857 1664 876.0 1645.0Q895 1626 895 1600Q895 1574 876.0 1555.0Q857 1536 831 1536ZM1728 1472Q1728 1511 1713.0 1546.0Q1698 1581 1671.5 1607.5Q1645 1634 1610.0 1649.0Q1575 1664 1536 1664Q1497 1664 1462.0 1649.0Q1427 1634 1400.5 1607.5Q1374 1581 1359.0 1546.0Q1344 1511 1344 1472Q1344 1433 1359.0 1398.0Q1374 1363 1400.5 1336.5Q1427 1310 1462.0 1295.0Q1497 1280 1536 1280Q1575 1280 1610.0 1295.0Q1645 1310 1671.5 1336.5Q1698 1363 1713.0 1398.0Q1728 1433 1728 1472ZM63 1024Q37 1024 18.0 1043.0Q-1 1062 -1 1088Q-1 1114 18.0 1133.0Q37 1152 63 1152H831Q857 1152 876.0 1133.0Q895 1114 895 1088Q895 1062 876.0 1043.0Q857 1024 831 1024ZM1024 816Q1024 859 1040.5 897.0Q1057 935 1085.5 963.0Q1114 991 1151.5 1007.5Q1189 1024 1232 1024H1840Q1883 1024 1920.5 1007.5Q1958 991 1986.5 962.5Q2015 934 2031.5 896.5Q2048 859 2048 816V768Q2048 704 2025.5 650.5Q2003 597 1964.0 554.5Q1925 512 1874.0 480.0Q1823 448 1766.0 426.5Q1709 405 1650.0 394.5Q1591 384 1536 384Q1481 384 1421.5 394.5Q1362 405 1305.5 426.5Q1249 448 1197.5 480.0Q1146 512 1107.5 554.5Q1069 597 1046.5 650.5Q1024 704 1024 768ZM1536 516Q1609 516 1685.0 535.5Q1761 555 1821 599Q1862 629 1891.0 672.0Q1920 715 1920 768V816Q1920 832 1913.5 846.5Q1907 861 1896.0 872.0Q1885 883 1870.5 889.5Q1856 896 1840 896H1232Q1199 896 1175.5 872.5Q1152 849 1152 816V768Q1152 715 1181.0 672.0Q1210 629 1251 599Q1311 555 1387.0 535.5Q1463 516 1536 516ZM63 512Q37 512 18.0 531.0Q-1 550 -1 576Q-1 602 18.0 621.0Q37 640 63 640H831Q857 640 876.0 621.0Q895 602 895 576Q895 550 876.0 531.0Q857 512 831 512Z"/>
  </g>
</svg>