<?xml version="1.0" encoding="utf-8"?>
<svg xmlns="http://www.w3.org/2000/svg" width="16" height="16" viewBox="0 0 2048 2048">
  <g transform="translate(0, 2048) scale(1, -1)">
    <path fill="#ffffff" d="M0 1472Q0 1591 45.5 1696.0Q91 1801 169.0 1879.0Q247 1957 352.0 2002.5Q457 2048 576 2048Q655 2048 728.5 2027.5Q802 2007 866.0 1969.5Q930 1932 983.0 1879.0Q1036 1826 1073.5 1762.0Q1111 1698 1131.5 1624.5Q1152 1551 1152 1472Q1152 1353 1106.5 1248.0Q1061 1143 983.0 1065.0Q905 987 800.0 941.5Q695 896 576 896Q456 896 351.0 941.0Q246 986 168.0 1064.0Q90 1142 45.0 1247.0Q0 1352 0 1472ZM1082 512Q1028 512 977.5 531.5Q927 551 885.5 584.5Q844 618 815.0 664.0Q786 710 775 763Q837 781 897 810Q901 774 917.5 743.0Q934 712 960.0 689.0Q986 666 1019.0 653.0Q1052 640 1088 640H1600Q1639 640 1674.0 655.0Q1709 670 1735.5 696.5Q1762 723 1777.0 758.0Q1792 793 1792 832V1600Q1792 1639 1777.0 1674.0Q1762 1709 1735.5 1735.5Q1709 1762 1674.0 1777.0Q1639 1792 1600 1792H1239Q1222 1826 1202.5 1858.0Q1183 1890 1160 1920H1607Q1670 1920 1727.0 1894.5Q1784 1869 1826.5 1826.5Q1869 1784 1894.5 1727.0Q1920 1670 1920 1607V825Q1920 762 1894.5 705.0Q1869 648 1826.5 605.5Q1784 563 1727.0 537.5Q1670 512 1607 512ZM576 1144Q606 1144 627 1165L883 1421Q904 1442 904 1472Q904 1502 883 1523L627 1779Q606 1800 576 1800Q546 1800 525.0 1779.0Q504 1758 504 1728Q504 1698 525 1677L666 1536H320Q294 1536 275.0 1517.0Q256 1498 256 1472Q256 1446 275.0 1427.0Q294 1408 320 1408H666L525 1267Q504 1246 504 1216Q504 1186 525.0 1165.0Q546 1144 576 1144ZM441 128Q378 128 321.0 153.5Q264 179 221.5 221.5Q179 264 153.5 321.0Q128 378 128 441V888Q158 865 190.0 845.5Q222 826 256 809V448Q256 409 271.0 374.0Q286 339 312.5 312.5Q339 286 374.0 271.0Q409 256 448 256H960Q991 256 1019.0 265.0Q1047 274 1071.0 291.0Q1095 308 1113.0 331.5Q1131 355 1141 384H1274Q1263 329 1233.5 282.0Q1204 235 1162.0 201.0Q1120 167 1068.0 147.5Q1016 128 960 128Z"/>
  </g>
</svg>