<?xml version="1.0" encoding="utf-8"?>
<svg xmlns="http://www.w3.org/2000/svg" width="16" height="16" viewBox="0 0 2048 2048">
  <g transform="translate(0, 2048) scale(1, -1)">
    <path fill="#000000" d="M1792 606Q1851 572 1885.5 512.0Q1920 452 1920 384V192Q1920 166 1901.0 147.0Q1882 128 1856 128H192Q166 128 147.0 147.0Q128 166 128 192V384Q128 452 162.5 512.0Q197 572 256 606V1280H234Q189 1280 158.5 1310.5Q128 1341 128 1386Q128 1412 140.5 1435.0Q153 1458 174 1473L988 2037Q1005 2048 1024 2048Q1045 2048 1060 2037L1874 1473Q1896 1458 1908.0 1435.5Q1920 1413 1920 1386Q1920 1341 1889.5 1310.5Q1859 1280 1814 1280H1792ZM1744 1408 1024 1906 304 1408ZM1120 1664Q1120 1624 1092.0 1596.0Q1064 1568 1024 1568Q984 1568 956.0 1596.0Q928 1624 928 1664Q928 1704 956.0 1732.0Q984 1760 1024 1760Q1064 1760 1092.0 1732.0Q1120 1704 1120 1664ZM512 1280H384V640H512ZM768 1280H640V640H768ZM1152 1280H896V640H1152ZM1408 1280H1280V640H1408ZM1536 640H1664V1280H1536ZM1792 256V384Q1792 410 1782.0 433.5Q1772 457 1754.5 474.5Q1737 492 1713.5 502.0Q1690 512 1664 512H384Q357 512 334.0 502.0Q311 492 293.5 474.5Q276 457 266.0 434.0Q256 411 256 384V256Z"/>
  </g>
</svg>