<?xml version="1.0" encoding="utf-8"?>
<svg xmlns="http://www.w3.org/2000/svg" width="16" height="16" viewBox="0 0 2048 2048">
  <g transform="translate(0, 2048) scale(1, -1)">
    <path fill="#000000" d="M1792 1152V896H1984Q2010 896 2029.0 877.0Q2048 858 2048 832Q2048 806 2029.0 787.0Q2010 768 1984 768H1792V512H1984Q2010 512 2029.0 493.0Q2048 474 2048 448Q2048 422 2029.0 403.0Q2010 384 1984 384H1758Q1723 325 1664 290V64Q1664 38 1645.0 19.0Q1626 0 1600 0Q1574 0 1555.0 19.0Q1536 38 1536 64V256H1280V64Q1280 38 1261.0 19.0Q1242 0 1216 0Q1190 0 1171.0 19.0Q1152 38 1152 64V256H896V64Q896 38 877.0 19.0Q858 0 832 0Q806 0 787.0 19.0Q768 38 768 64V256H512V64Q512 38 493.0 19.0Q474 0 448 0Q422 0 403.0 19.0Q384 38 384 64V290Q325 325 290 384H64Q38 384 19.0 403.0Q0 422 0 448Q0 474 19.0 493.0Q38 512 64 512H256V768H64Q38 768 19.0 787.0Q0 806 0 832Q0 858 19.0 877.0Q38 896 64 896H256V1152H64Q38 1152 19.0 1171.0Q0 1190 0 1216Q0 1242 19.0 1261.0Q38 1280 64 1280H256V1536H64Q38 1536 19.0 1555.0Q0 1574 0 1600Q0 1626 19.0 1645.0Q38 1664 64 1664H290Q325 1723 384 1758V1984Q384 2010 403.0 2029.0Q422 2048 448 2048Q474 2048 493.0 2029.0Q512 2010 512 1984V1792H768V1984Q768 2010 787.0 2029.0Q806 2048 832 2048Q858 2048 877.0 2029.0Q896 2010 896 1984V1792H1152V1984Q1152 2010 1171.0 2029.0Q1190 2048 1216 2048Q1242 2048 1261.0 2029.0Q1280 2010 1280 1984V1792H1536V1984Q1536 2010 1555.0 2029.0Q1574 2048 1600 2048Q1626 2048 1645.0 2029.0Q1664 2010 1664 1984V1758Q1723 1723 1758 1664H1984Q2010 1664 2029.0 1645.0Q2048 1626 2048 1600Q2048 1574 2029.0 1555.0Q2010 1536 1984 1536H1792V1280H1984Q2010 1280 2029.0 1261.0Q2048 1242 2048 1216Q2048 1190 2029.0 1171.0Q2010 1152 1984 1152ZM1536 384Q1563 384 1586.0 394.0Q1609 404 1626.5 421.5Q1644 439 1654.0 462.0Q1664 485 1664 512V1536Q1664 1562 1654.0 1585.5Q1644 1609 1626.5 1626.5Q1609 1644 1585.5 1654.0Q1562 1664 1536 1664H512Q485 1664 462.0 1654.0Q439 1644 421.5 1626.5Q404 1609 394.0 1586.0Q384 1563 384 1536V512Q384 485 394.0 461.5Q404 438 421.0 421.0Q438 404 461.5 394.0Q485 384 512 384ZM1344 1408Q1370 1408 1389.0 1389.0Q1408 1370 1408 1344V704Q1408 678 1389.0 659.0Q1370 640 1344 640H704Q678 640 659.0 659.0Q640 678 640 704V1344Q640 1370 659.0 1389.0Q678 1408 704 1408ZM768 768H1280V1280H768Z"/>
  </g>
</svg>