<?xml version="1.0" encoding="utf-8"?>
<svg xmlns="http://www.w3.org/2000/svg" width="16" height="16" viewBox="0 0 2048 2048">
  <g transform="translate(0, 2048) scale(1, -1)">
    <path fill="#000000" d="M256 320Q256 294 275.0 275.0Q294 256 320 256H845Q880 186 929 128H320Q280 128 245.0 143.0Q210 158 184.0 184.0Q158 210 143.0 245.0Q128 280 128 320V512Q110 512 97.5 511.5Q85 511 83 511Q63 511 44.5 516.0Q26 521 13.0 534.5Q0 548 0 576Q0 604 13.0 617.5Q26 631 44.5 636.0Q63 641 83 641Q85 641 97.5 640.5Q110 640 128 640V1408Q110 1408 97.5 1407.5Q85 1407 83 1407Q63 1407 44.5 1412.0Q26 1417 13.0 1430.5Q0 1444 0 1472Q0 1500 13.0 1513.5Q26 1527 44.5 1532.0Q63 1537 83 1537Q85 1537 97.5 1536.5Q110 1536 128 1536V1856Q128 1896 143.0 1931.0Q158 1966 184.0 1992.0Q210 2018 245.0 2033.0Q280 2048 320 2048H1728Q1768 2048 1803.0 2033.0Q1838 2018 1864.0 1992.0Q1890 1966 1905.0 1931.0Q1920 1896 1920 1856V1119Q1862 1168 1792 1203V1856Q1792 1882 1773.0 1901.0Q1754 1920 1728 1920H320Q294 1920 275.0 1901.0Q256 1882 256 1856V1536Q274 1536 286.5 1536.5Q299 1537 301 1537Q321 1537 339.5 1532.0Q358 1527 371.0 1513.5Q384 1500 384 1472Q384 1444 371.0 1430.5Q358 1417 339.5 1412.0Q321 1407 301 1407Q299 1407 286.5 1407.5Q274 1408 256 1408V640Q274 640 286.5 640.5Q299 641 301 641Q321 641 339.5 636.0Q358 631 371.0 617.5Q384 604 384 576Q384 548 371.0 534.5Q358 521 339.5 516.0Q321 511 301 511Q299 511 286.5 511.5Q274 512 256 512ZM1472 1280Q1439 1280 1408 1277V1536H1280V1254Q1213 1234 1152 1203V1536Q1152 1563 1162.0 1586.0Q1172 1609 1189.5 1626.5Q1207 1644 1230.0 1654.0Q1253 1664 1280 1664H1408Q1435 1664 1458.0 1654.0Q1481 1644 1498.5 1626.5Q1516 1609 1526.0 1586.0Q1536 1563 1536 1536V1277Q1504 1280 1472 1280ZM896 981Q833 891 800.5 788.0Q768 685 768 576Q768 543 771 512H640Q613 512 590.0 522.0Q567 532 549.5 549.5Q532 567 522.0 590.0Q512 613 512 640V1280Q512 1307 522.0 1330.0Q532 1353 549.5 1370.5Q567 1388 590.0 1398.0Q613 1408 640 1408H768Q795 1408 818.0 1398.0Q841 1388 858.5 1370.5Q876 1353 886.0 1330.0Q896 1307 896 1280ZM768 1280H640V640H768ZM1472 1152Q1591 1152 1696.0 1106.5Q1801 1061 1879.0 983.0Q1957 905 2002.5 800.0Q2048 695 2048 576Q2048 457 2002.5 352.0Q1957 247 1879.0 169.0Q1801 91 1696.0 45.5Q1591 0 1472 0Q1353 0 1248.0 45.5Q1143 91 1065.0 169.0Q987 247 941.5 352.0Q896 457 896 576Q896 695 941.5 800.0Q987 905 1065.0 983.0Q1143 1061 1248.0 1106.5Q1353 1152 1472 1152ZM1664 512Q1690 512 1709.0 531.0Q1728 550 1728 576Q1728 602 1709.0 621.0Q1690 640 1664 640H1536V832Q1536 858 1517.0 877.0Q1498 896 1472 896Q1446 896 1427.0 877.0Q1408 858 1408 832V576Q1408 550 1427.0 531.0Q1446 512 1472 512Z"/>
  </g>
</svg>