<?xml version="1.0" encoding="utf-8"?>
<svg xmlns="http://www.w3.org/2000/svg" width="16" height="16" viewBox="0 0 2048 2048">
  <g transform="translate(0, 2048) scale(1, -1)">
    <path fill="#000000" d="M1536 384H697Q632 384 575.0 410.0Q518 436 475.5 480.0Q433 524 408.5 582.0Q384 640 384 704V1536H64Q38 1536 19.0 1555.0Q0 1574 0 1600Q0 1626 19.0 1645.0Q38 1664 64 1664H384V1984Q384 2010 403.0 2029.0Q422 2048 448 2048Q474 2048 493.0 2029.0Q512 2010 512 1984V704Q512 665 527.0 630.0Q542 595 568.5 568.5Q595 542 630.0 527.0Q665 512 704 512H1984Q2010 512 2029.0 493.0Q2048 474 2048 448Q2048 422 2029.0 403.0Q2010 384 1984 384H1664V64Q1664 38 1645.0 19.0Q1626 0 1600 0Q1574 0 1555.0 19.0Q1536 38 1536 64ZM640 1536V1664H1351Q1414 1664 1471.0 1638.5Q1528 1613 1570.5 1570.5Q1613 1528 1638.5 1471.0Q1664 1414 1664 1351V640H1536V1344Q1536 1383 1521.0 1418.0Q1506 1453 1479.5 1479.5Q1453 1506 1418.0 1521.0Q1383 1536 1344 1536Z"/>
  </g>
</svg>