<?xml version="1.0" encoding="utf-8"?>
<svg xmlns="http://www.w3.org/2000/svg" width="16" height="16" viewBox="0 0 2048 2048">
  <g transform="translate(0, 2048) scale(1, -1)">
    <path fill="#000000" d="M1536 1083Q1536 1106 1548.0 1121.0Q1560 1136 1580 1144Q1609 1156 1643.0 1170.5Q1677 1185 1706.0 1206.0Q1735 1227 1754.5 1255.5Q1774 1284 1774 1322Q1774 1356 1758.0 1388.5Q1742 1421 1717.5 1450.5Q1693 1480 1664.5 1505.0Q1636 1530 1611 1548Q1528 1608 1424.0 1654.0Q1320 1700 1208.0 1731.0Q1096 1762 982.5 1777.5Q869 1793 767 1793Q734 1793 683.5 1789.5Q633 1786 577.0 1776.5Q521 1767 465.0 1751.5Q409 1736 364.0 1711.5Q319 1687 291.0 1652.5Q263 1618 263 1572Q263 1544 272.5 1519.5Q282 1495 297.5 1473.0Q313 1451 332.0 1431.0Q351 1411 369 1392Q380 1381 385.5 1371.0Q391 1361 391 1344Q391 1317 371.5 1298.5Q352 1280 326 1280Q312 1280 303.5 1283.5Q295 1287 284 1296Q254 1321 227.0 1352.0Q200 1383 179.5 1419.0Q159 1455 146.5 1493.5Q134 1532 134 1572Q134 1584 135.5 1596.0Q137 1608 139 1620Q150 1681 187.0 1727.5Q224 1774 276.5 1807.5Q329 1841 393.5 1863.0Q458 1885 524.0 1898.0Q590 1911 653.0 1916.0Q716 1921 766 1921Q879 1921 1002.5 1904.0Q1126 1887 1247.0 1853.0Q1368 1819 1481.0 1768.5Q1594 1718 1686 1652Q1725 1623 1764.0 1587.5Q1803 1552 1834.0 1510.5Q1865 1469 1884.0 1421.5Q1903 1374 1903 1322Q1903 1263 1878.0 1214.5Q1853 1166 1812.5 1128.5Q1772 1091 1721.5 1064.5Q1671 1038 1620 1022Q1611 1019 1600 1019Q1573 1019 1554.5 1037.5Q1536 1056 1536 1083ZM1408 1302Q1408 1322 1413.5 1332.5Q1419 1343 1427.5 1349.0Q1436 1355 1446.0 1359.5Q1456 1364 1465 1372Q1463 1377 1457.0 1382.5Q1451 1388 1443.5 1393.0Q1436 1398 1428.5 1402.5Q1421 1407 1417 1410Q1329 1464 1226.0 1496.5Q1123 1529 1023 1549Q954 1563 884.5 1570.5Q815 1578 745 1578Q728 1578 700.5 1577.0Q673 1576 643.5 1572.5Q614 1569 588.0 1562.5Q562 1556 548 1546Q565 1531 578.5 1516.0Q592 1501 592 1476Q592 1449 574.0 1430.5Q556 1412 529 1412Q508 1412 488.5 1426.0Q469 1440 453.5 1461.0Q438 1482 428.5 1506.0Q419 1530 419 1549Q419 1585 436.0 1611.0Q453 1637 480.5 1654.5Q508 1672 543.0 1682.0Q578 1692 614.0 1697.5Q650 1703 684.5 1704.5Q719 1706 745 1706Q821 1706 896.5 1697.0Q972 1688 1047 1674Q1081 1667 1135.0 1654.0Q1189 1641 1249.0 1621.5Q1309 1602 1370.0 1576.0Q1431 1550 1480.0 1517.5Q1529 1485 1559.5 1447.0Q1590 1409 1590 1365Q1590 1321 1563.0 1291.0Q1536 1261 1498 1244Q1486 1238 1472 1238Q1445 1238 1426.5 1256.5Q1408 1275 1408 1302ZM512 1027Q512 1082 530.0 1128.5Q548 1175 580.5 1208.5Q613 1242 659.0 1261.0Q705 1280 761 1280Q773 1280 786.5 1278.0Q800 1276 811 1273L1242 1150Q1285 1138 1328.0 1115.5Q1371 1093 1404.5 1060.5Q1438 1028 1459.0 987.0Q1480 946 1480 896Q1480 640 1224 640H1126L1198 269Q1200 260 1201.0 250.5Q1202 241 1202 232Q1202 197 1189.5 165.5Q1177 134 1155.5 108.5Q1134 83 1104.5 66.0Q1075 49 1041 43Q1003 37 957.5 27.5Q912 18 875 18Q840 18 809.5 29.0Q779 40 754.0 60.5Q729 81 712.0 109.0Q695 137 688 170L522 946Q517 966 514.5 986.0Q512 1006 512 1027ZM1074 232Q1074 237 1072 245L986 692Q985 696 985 705Q985 732 1004.0 750.0Q1023 768 1049 768H1216Q1255 768 1281.0 772.5Q1307 777 1323.0 791.0Q1339 805 1345.5 830.0Q1352 855 1352 896Q1352 922 1338.0 943.5Q1324 965 1302.5 981.0Q1281 997 1256.0 1008.5Q1231 1020 1209 1026Q1196 1029 1160.0 1040.0Q1124 1051 1076.0 1065.0Q1028 1079 975.5 1094.5Q923 1110 877.5 1122.5Q832 1135 799.5 1143.5Q767 1152 761 1152Q701 1152 670.5 1117.5Q640 1083 640 1026Q640 1012 642.0 999.5Q644 987 647 973L813 197Q818 174 835.5 160.0Q853 146 876 146Q889 146 908.0 149.0Q927 152 947.0 155.5Q967 159 986.5 163.0Q1006 167 1020 170Q1043 174 1058.5 191.0Q1074 208 1074 232Z"/>
  </g>
</svg>