<?xml version="1.0" encoding="utf-8"?>
<svg xmlns="http://www.w3.org/2000/svg" width="16" height="16" viewBox="0 0 2048 2048">
  <g transform="translate(0, 2048) scale(1, -1)">
    <path fill="#ffffff" d="M161 1322Q161 1374 180.0 1421.5Q199 1469 229.5 1510.5Q260 1552 299.0 1587.5Q338 1623 378 1652Q470 1718 583.0 1768.5Q696 1819 817.0 1853.0Q938 1887 1061.5 1904.0Q1185 1921 1298 1921Q1352 1921 1420.0 1915.0Q1488 1909 1558.0 1894.0Q1628 1879 1695.0 1853.5Q1762 1828 1814.0 1789.0Q1866 1750 1897.5 1696.0Q1929 1642 1929 1570Q1929 1530 1916.5 1491.5Q1904 1453 1883.5 1418.0Q1863 1383 1836.0 1352.0Q1809 1321 1780 1296Q1769 1287 1760.0 1283.5Q1751 1280 1737 1280Q1711 1280 1692.0 1299.0Q1673 1318 1673 1344Q1673 1360 1678.0 1370.5Q1683 1381 1694 1392Q1712 1411 1731.0 1430.5Q1750 1450 1765.5 1472.0Q1781 1494 1791.0 1518.5Q1801 1543 1801 1572Q1801 1618 1773.0 1652.5Q1745 1687 1700.0 1711.5Q1655 1736 1599.0 1751.5Q1543 1767 1487.0 1776.5Q1431 1786 1380.5 1789.5Q1330 1793 1297 1793Q1195 1793 1081.5 1777.5Q968 1762 856.0 1731.0Q744 1700 640.0 1654.0Q536 1608 453 1548Q428 1530 399.5 1505.0Q371 1480 346.5 1450.5Q322 1421 306.0 1388.5Q290 1356 290 1322Q290 1283 309.0 1255.0Q328 1227 357.0 1206.0Q386 1185 419.5 1170.5Q453 1156 483 1144Q504 1136 516.0 1120.5Q528 1105 528 1082Q528 1055 509.5 1037.0Q491 1019 464 1019Q453 1019 444 1022Q393 1038 342.5 1065.0Q292 1092 251.5 1129.0Q211 1166 186.0 1214.0Q161 1262 161 1322ZM473 1364Q473 1408 503.5 1446.5Q534 1485 583.0 1517.5Q632 1550 692.5 1576.0Q753 1602 813.5 1621.5Q874 1641 927.5 1654.0Q981 1667 1016 1674Q1091 1688 1166.5 1697.0Q1242 1706 1318 1706Q1343 1706 1377.0 1704.5Q1411 1703 1447.5 1697.5Q1484 1692 1519.5 1682.0Q1555 1672 1583.0 1655.0Q1611 1638 1628.0 1612.5Q1645 1587 1645 1551Q1645 1531 1635.5 1507.0Q1626 1483 1611.0 1462.0Q1596 1441 1576.0 1426.5Q1556 1412 1535 1412Q1509 1412 1490.0 1430.0Q1471 1448 1471 1475Q1471 1493 1476.5 1503.0Q1482 1513 1489.5 1520.5Q1497 1528 1504.5 1534.5Q1512 1541 1517 1552Q1506 1560 1480.0 1565.5Q1454 1571 1424.0 1574.0Q1394 1577 1366.5 1578.0Q1339 1579 1326 1579Q1254 1579 1182.5 1571.0Q1111 1563 1041 1549Q1019 1545 981.5 1535.5Q944 1526 899.5 1513.0Q855 1500 808.0 1483.5Q761 1467 720.0 1448.0Q679 1429 647.5 1408.5Q616 1388 604 1367Q626 1357 640.5 1343.5Q655 1330 655 1303Q655 1276 637.5 1257.0Q620 1238 592 1238Q571 1238 550.0 1249.5Q529 1261 511.5 1279.0Q494 1297 483.5 1319.5Q473 1342 473 1364ZM862 232Q862 241 863.0 250.5Q864 260 866 269L937 640H848Q716 640 650.0 701.0Q584 762 584 896Q584 947 605.0 988.0Q626 1029 660.0 1061.0Q694 1093 737.0 1115.0Q780 1137 824 1150L1253 1273Q1278 1280 1309 1280Q1336 1280 1363.5 1273.5Q1391 1267 1417.0 1255.0Q1443 1243 1465.5 1225.5Q1488 1208 1504 1186Q1530 1151 1540.5 1109.0Q1551 1067 1551 1025Q1551 985 1542 946L1376 170Q1369 137 1351.5 109.0Q1334 81 1309.0 60.5Q1284 40 1253.0 29.0Q1222 18 1188 18Q1170 18 1148.5 21.0Q1127 24 1105.5 27.5Q1084 31 1062.5 35.5Q1041 40 1023 43Q988 49 959.0 66.0Q930 83 908.0 108.5Q886 134 874.0 165.5Q862 197 862 232ZM1189 146Q1211 146 1228.5 161.0Q1246 176 1251 197L1417 973Q1420 987 1422.0 999.5Q1424 1012 1424 1026Q1424 1088 1393.0 1118.0Q1362 1148 1302 1152H1301Q1299 1151 1296 1151H1293Q1290 1151 1288 1150L857 1026Q835 1020 809.5 1009.0Q784 998 762.5 982.0Q741 966 726.5 944.5Q712 923 712 896Q712 857 717.5 832.0Q723 807 737.5 793.0Q752 779 776.5 773.5Q801 768 840 768H1015Q1042 768 1060.5 749.5Q1079 731 1079 704Q1079 696 1078 692L991 245Q990 241 990 234Q990 209 1005.0 191.5Q1020 174 1044 170Q1058 168 1077.5 164.0Q1097 160 1117.5 156.0Q1138 152 1157.0 149.0Q1176 146 1189 146Z"/>
  </g>
</svg>