<?xml version="1.0" encoding="utf-8"?>
<svg xmlns="http://www.w3.org/2000/svg" height="16" width="16" viewBox="0 0 16 16">
  <g>
    <path id="path1" transform="rotate(0,8,8) translate(0,0) scale(0.03125,0.03125)  " fill="#000000" d="M384,352L377.4765625,352.3203125 371.15625,353.28125 365.0390625,354.8828125 359.125,357.125 353.5,359.90625 348.25,363.125 343.375,366.78125 338.875,370.875 334.78125,375.3828125 331.125,380.28125 327.90625,385.5703125 325.125,391.25 322.8828125,397.203125 321.28125,403.3125 320.3203125,409.578125 320,416 320.3203125,422.5234375 321.28125,428.84375 322.8828125,434.9609375 325.125,440.875 327.90625,446.5 331.125,451.75 334.78125,456.625 338.875,461.125 343.375,465.21875 348.25,468.875 353.5,472.09375 359.125,474.875 365.0390625,477.1171875 371.15625,478.71875 377.4765625,479.6796875 384,480 390.632781982422,479.6796875 397.031219482422,478.71875 403.195281982422,477.1171875 409.125,474.875 414.749969482422,472.078125 419.999969482422,468.8125 424.874969482422,465.078125 429.375,460.875 433.460906982422,456.25 437.093719482422,451.25 440.273406982422,445.875 443,440.125 445.1875,434.0859375 446.75,427.84375 447.6875,421.3984375 448,414.75 447.671875,408.3515625 446.6875,402.15625 445.046875,396.1640625 442.75,390.375 439.90625,384.8671875 436.625,379.71875 432.90625,374.9296875 428.75,370.5 424.195281982422,366.46875 419.281219482422,362.875 414.007781982422,359.71875 408.375,357 402.492156982422,354.8125 396.468719482422,353.25 390.304656982422,352.3125 384,352z M128,352L121.476554870605,352.3203125 115.156242370605,353.28125 109.039054870605,354.8828125 103.125,357.125 97.5,359.90625 92.25,363.125 87.375,366.78125 82.875,370.875 78.78125,375.3828125 75.125,380.28125 71.90625,385.5703125 69.125,391.25 66.8828125,397.203125 65.28125,403.3125 64.3203125,409.578125 64,416 64.3203125,422.5234375 65.28125,428.84375 66.8828125,434.9609375 69.125,440.875 71.90625,446.5 75.125,451.75 78.78125,456.625 82.875,461.125 87.375,465.21875 92.25,468.875 97.5,472.09375 103.125,474.875 109.039054870605,477.1171875 115.156242370605,478.71875 121.476554870605,479.6796875 128,480 134.6328125,479.6796875 141.03125,478.71875 147.1953125,477.1171875 153.125,474.875 158.75,472.078125 164,468.8125 168.875,465.078125 173.375,460.875 177.4609375,456.25 181.09375,451.25 184.2734375,445.875 187,440.125 189.1875,434.0859375 190.75,427.84375 191.6875,421.3984375 192,414.75 191.671875,408.3515625 190.6875,402.15625 189.046875,396.1640625 186.75,390.375 183.90625,384.8671875 180.625,379.71875 176.90625,374.9296875 172.75,370.5 168.1953125,366.46875 163.28125,362.875 158.0078125,359.71875 152.375,357 146.4921875,354.8125 140.46875,353.25 134.3046875,352.3125 128,352z M400.25,0L403.484375,0.3046875 406.4375,1.21875 409.109375,2.7421875 411.5,4.875 413.46875,7.41406536102295 414.875,10.1562576293945 415.71875,13.1015710830688 416,16.25 415.375,20.8750114440918 413.5,24.75 294.25,208.25 275,179 386.5,7.25 389.125,4.15625762939453 392.5,1.875 396.3125,0.46875 400.25,0z M111.75,0L115.6875,0.46875 119.5,1.875 122.875,4.15625762939453 125.5,7.25 336.5,332.5 342.5,329.46875 348.5,326.875 354.5,324.71875 360.5,323 372.875,320.75 386,320 395.6015625,320.484375 404.90625,321.9375 413.9140625,324.359375 422.625,327.75 430.9140625,331.9609375 438.65625,336.84375 445.8515625,342.3984375 452.5,348.625 458.5390625,355.4609375 463.90625,362.84375 468.6015625,370.7734375 472.625,379.25 475.851531982422,388.109375 478.156219482422,397.1875 479.539031982422,406.484375 480,416 479.531219482422,425.84375 478.124969482422,435.375 475.781219482422,444.59375 472.5,453.5 468.406219482422,461.96875 463.624969482422,469.875 458.156219482422,477.21875 452,484 445.21875,490.15625 437.875,495.625 429.96875,500.40625 421.5,504.5 412.59375,507.78125 403.375,510.125 393.84375,511.53125 384,512 374.484375,511.5390625 365.1875,510.15625 356.109375,507.8515625 347.25,504.625 338.7734375,500.6015625 330.84375,495.90625 323.4609375,490.5390625 316.625,484.5 310.3984375,477.8515625 304.84375,470.65625 299.9609375,462.9140625 295.75,454.625 292.359375,445.9140625 289.9375,436.90625 288.484375,427.6015625 288,418 288.359375,408.984375 289.4375,400.1875 291.234375,391.609375 293.75,383.25 297.03125,375.15625 301.125,367.375 306.03125,359.90625 311.75,352.75 256,267 200.25,352.75 205.96875,359.90625 210.875,367.375 214.96875,375.15625 218.25,383.25 220.765625,391.609375 222.5625,400.1875 223.640625,408.984375 224,418 223.515625,427.6015625 222.0625,436.90625 219.640625,445.9140625 216.25,454.625 212.039047241211,462.9140625 207.156234741211,470.65625 201.601547241211,477.8515625 195.375,484.5 188.5390625,490.5390625 181.15625,495.90625 173.2265625,500.6015625 164.75,504.625 155.890625,507.8515625 146.8125,510.15625 137.515625,511.5390625 128,512 117.828117370605,511.5234375 108.062492370605,510.09375 98.7031173706055,507.7109375 89.75,504.375 81.2890625,500.203125 73.40625,495.3125 66.1015625,489.703125 59.375,483.375 53.2890625,476.40625 47.90625,468.875 43.2265625,460.78125 39.25,452.125 36.078125,443.0390625 33.8125,433.65625 32.453125,423.9765625 32,414 32.4765625,404.7265625 33.90625,395.65625 36.2890625,386.7890625 39.625,378.125 43.765625,369.828125 48.5625,362.0625 54.015625,354.828125 60.125,348.125 66.828125,342.015625 74.0625,336.5625 81.828125,331.765625 90.125,327.625 98.7890548706055,324.2890625 107.656242370605,321.90625 116.726554870605,320.4765625 126,320 139.15625,320.75 151.625,323 157.6640625,324.71875 163.65625,326.875 169.6015625,329.46875 175.5,332.5 237,237.75 98.5,24.75 96.625,20.8750114440918 96,16.25 96.28125,13.1015710830688 97.125,10.1562576293945 98.53125,7.41406536102295 100.5,4.875 102.890617370605,2.7421875 105.562492370605,1.21875 108.515617370605,0.3046875 111.75,0z" />
  </g>
</svg>
