<?xml version="1.0" encoding="utf-8"?>
<svg xmlns="http://www.w3.org/2000/svg" width="16" height="16" viewBox="0 0 2048 2048">
  <g transform="translate(0, 2048) scale(1, -1)">
    <path fill="#000000" d="M1408 1600Q1408 1626 1427.0 1645.0Q1446 1664 1472 1664Q1498 1664 1517.0 1645.0Q1536 1626 1536 1600V1309Q1504 1312 1472 1312Q1439 1312 1408 1309ZM1024 1344Q1024 1370 1043.0 1389.0Q1062 1408 1088 1408Q1114 1408 1133.0 1389.0Q1152 1370 1152 1344V1239Q1118 1222 1086.0 1202.5Q1054 1183 1024 1160ZM640 448V1088Q640 1114 659.0 1133.0Q678 1152 704 1152Q730 1152 749.0 1133.0Q768 1114 768 1088V448Q768 422 749.0 403.0Q730 384 704 384Q678 384 659.0 403.0Q640 422 640 448ZM896 576Q896 695 941.5 800.0Q987 905 1065.0 983.0Q1143 1061 1248.0 1106.5Q1353 1152 1472 1152Q1551 1152 1624.5 1131.5Q1698 1111 1762.0 1073.5Q1826 1036 1879.0 983.0Q1932 930 1969.5 866.0Q2007 802 2027.5 728.5Q2048 655 2048 576Q2048 457 2002.5 352.0Q1957 247 1879.0 169.0Q1801 91 1696.0 45.5Q1591 0 1472 0Q1352 0 1247.0 45.0Q1142 90 1064.0 168.0Q986 246 941.0 351.0Q896 456 896 576ZM256 448V832Q256 858 275.0 877.0Q294 896 320 896Q346 896 365.0 877.0Q384 858 384 832V448Q384 422 365.0 403.0Q346 384 320 384Q294 384 275.0 403.0Q256 422 256 448ZM1728 512Q1754 512 1773.0 531.0Q1792 550 1792 576Q1792 602 1773.0 621.0Q1754 640 1728 640H1216Q1190 640 1171.0 621.0Q1152 602 1152 576Q1152 550 1171.0 531.0Q1190 512 1216 512Z"/>
  </g>
</svg>