<?xml version="1.0" encoding="utf-8"?>
<svg id="" width="16" height="16" style="width:16px;height:16px;" version="1.1"
    xmlns="http://www.w3.org/2000/svg" viewBox="0 0 2048 2048" enable-background="new 0 0 2048 2048"
    xml:space="preserve"><path fill="#ffffff" d="M726.4 1774.93 q18.13 36.27 38.93 70.4 q20.8 34.13 45.34 66.13 l-409.6 0 q-80 0 -153.07 -32.54 q-73.07 -32.53 -128 -87.47 q-54.93 -54.94 -87.47 -128 q-32.53 -73.07 -32.53 -153.07 l0 -1109.33 q0 -80 32.53 -153.07 q32.53 -73.07 87.47 -128 q54.93 -54.93 128 -87.47 q73.07 -32.53 153.07 -32.53 l1109.33 0 q80 0 153.07 32.53 q73.06 32.53 128 87.47 q54.93 54.93 87.47 128 q32.54 73.07 32.54 153.07 l0 409.6 q-32 -24.54 -66.13 -45.34 q-34.13 -20.8 -70.4 -38.93 l0 -180.27 l-1638.4 0 l0 961.07 q0 55.47 22.4 104 q22.4 48.53 59.74 84.8 q37.33 36.27 86.94 57.6 q49.6 21.33 104 21.33 l316.8 0 ZM404.27 136.53 q-54.4 0 -103.47 22.4 q-49.07 22.4 -85.34 59.74 q-36.26 37.33 -57.6 86.94 q-21.34 49.6 -21.34 104 l1638.4 0 l0 -5.33 q0 -53.34 -21.87 -101.87 q-21.87 -48.53 -58.66 -85.33 q-36.8 -36.8 -85.34 -58.67 q-48.54 -21.87 -101.87 -21.87 l-1102.93 0 ZM2048 1433.6 q0 126.93 -48.53 238.93 q-48.54 112 -131.74 195.2 q-83.2 83.2 -195.2 131.74 q-112 48.53 -238.93 48.53 q-128 0 -240 -48 q-112 -48 -195.2 -131.2 q-83.2 -83.2 -131.2 -195.2 q-48 -112 -48 -240 q0 -126.93 48.53 -238.93 q48.53 -112 131.74 -195.2 q83.2 -83.2 195.2 -131.74 q112 -48.53 238.93 -48.53 q84.27 0 162.67 21.87 q78.4 21.86 146.66 61.86 q68.27 40 124.8 96.53 q56.53 56.54 96.53 124.8 q40 68.27 61.87 146.66 q21.87 78.4 21.87 162.67 ZM1638.4 1501.87 q27.73 0 48 -20.27 q20.27 -20.27 20.27 -48 q0 -27.73 -20.27 -48 q-20.27 -20.27 -48 -20.27 l-136.53 0 l0 -204.8 q0 -27.73 -20.27 -48 q-20.27 -20.26 -48 -20.26 q-27.73 0 -48 20.26 q-20.27 20.27 -20.27 48 l0 273.07 q0 27.73 20.27 48 q20.27 20.27 48 20.27 l204.8 0 Z"/></svg>