<?xml version="1.0" encoding="utf-8"?>
<svg xmlns="http://www.w3.org/2000/svg" width="16" height="16" viewBox="0 0 2048 2048">
  <g transform="translate(0, 2048) scale(1, -1)">
    <path fill="#000000" d="M257 640Q221 640 187.0 651.5Q153 663 124.5 683.5Q96 704 75.0 732.5Q54 761 44 796Q40 809 36 822L21 876Q17 889 13 902Q7 924 3.5 945.0Q0 966 0 989Q0 1047 22.5 1100.0Q45 1153 87 1194Q175 1281 286.5 1345.0Q398 1409 520.5 1451.5Q643 1494 771.0 1515.0Q899 1536 1020 1536Q1157 1536 1286.5 1515.5Q1416 1495 1543 1442Q1651 1397 1752.0 1336.0Q1853 1275 1940 1196Q1991 1150 2019.5 1089.0Q2048 1028 2048 959Q2048 945 2046.5 931.5Q2045 918 2043 904L2023 798Q2016 763 1997.5 734.0Q1979 705 1952.5 684.0Q1926 663 1893.5 651.5Q1861 640 1825 640Q1820 640 1815.0 640.0Q1810 640 1805 641L1596 662Q1521 670 1475.5 716.5Q1430 763 1408 832Q1391 888 1375.0 943.5Q1359 999 1344 1056Q1264 1089 1187.5 1104.5Q1111 1120 1024 1120Q936 1120 861.0 1103.0Q786 1086 704 1056Q688 999 672.5 943.5Q657 888 640 832Q631 802 619.0 773.0Q607 744 589.0 720.5Q571 697 546.0 681.5Q521 666 486 662Q460 660 434 657L330 646Q304 644 278 641Q273 640 267.5 640.0Q262 640 257 640ZM1024 1248Q1120 1248 1212.5 1230.0Q1305 1212 1393 1174Q1422 1162 1440.0 1139.5Q1458 1117 1468 1088Q1486 1034 1499.5 978.5Q1513 923 1531 869Q1540 841 1558.0 816.5Q1576 792 1608 789Q1630 787 1659.5 783.5Q1689 780 1719.0 777.0Q1749 774 1777.5 771.5Q1806 769 1827 769Q1850 769 1871.0 783.0Q1892 797 1897 821L1917 928Q1920 943 1920 959Q1920 1001 1903.0 1036.5Q1886 1072 1855 1100Q1775 1172 1684.5 1227.0Q1594 1282 1495 1323Q1383 1370 1264.0 1389.0Q1145 1408 1024 1408Q913 1408 797.5 1389.5Q682 1371 571.0 1333.5Q460 1296 359.0 1238.5Q258 1181 176 1102Q153 1079 140.5 1049.5Q128 1020 128 988Q128 961 135 939Q139 926 143 913L159 859Q163 846 167 833Q176 804 201.0 786.0Q226 768 255 768Q259 768 277.0 769.5Q295 771 320.0 773.5Q345 776 373.0 779.0Q401 782 424.5 784.5Q448 787 464.0 789.0Q480 791 480 791Q487 794 496.0 814.0Q505 834 515.0 863.0Q525 892 535.0 926.0Q545 960 553.5 991.5Q562 1023 569.0 1048.5Q576 1074 579 1086Q583 1099 591.5 1112.5Q600 1126 611.0 1138.0Q622 1150 634.5 1160.0Q647 1170 659 1176Q700 1195 746.5 1207.0Q793 1219 837 1229Q884 1240 930.0 1244.0Q976 1248 1024 1248Z"/>
  </g>
</svg>