<?xml version="1.0" encoding="utf-8"?>
<svg xmlns="http://www.w3.org/2000/svg" width="16" height="16" viewBox="0 0 2048 2048">
  <g transform="translate(0, 2048) scale(1, -1)">
    <path fill="#000000" d="M0 1280Q0 1383 19.5 1482.0Q39 1581 79 1676Q97 1718 121.0 1763.0Q145 1808 173.5 1851.5Q202 1895 234.0 1934.5Q266 1974 301 2005Q311 2014 320.0 2018.5Q329 2023 343 2023Q370 2023 388.0 2003.0Q406 1983 406 1957Q406 1941 401.0 1930.5Q396 1920 386 1909Q363 1883 341.0 1859.0Q319 1835 299 1807Q215 1692 171.5 1557.5Q128 1423 128 1280Q128 1188 146.0 1098.5Q164 1009 201 924Q258 791 355 684Q364 674 374 664L386 652Q396 643 405 632Q416 620 421.5 609.0Q427 598 427 581Q427 554 408.0 536.0Q389 518 363 518Q341 518 323 533Q288 561 253.5 602.0Q219 643 187.5 688.5Q156 734 129.5 781.0Q103 828 85 869Q42 967 21.0 1070.0Q0 1173 0 1280ZM1907 1129Q1915 1167 1917.5 1204.5Q1920 1242 1920 1280Q1920 1423 1876.5 1557.5Q1833 1692 1749 1807Q1729 1835 1707.0 1859.0Q1685 1883 1662 1909Q1652 1920 1647.0 1930.5Q1642 1941 1642 1957Q1642 1983 1660.0 2003.0Q1678 2023 1705 2023Q1719 2023 1728.0 2018.5Q1737 2014 1747 2005Q1781 1975 1813.5 1935.5Q1846 1896 1874.0 1852.5Q1902 1809 1926.0 1763.5Q1950 1718 1968 1676Q2008 1582 2028.0 1482.5Q2048 1383 2048 1280Q2048 1151 2016 1023Q1991 1052 1964.0 1079.0Q1937 1106 1907 1129ZM320 1280Q320 1347 334.0 1416.5Q348 1486 374.5 1551.5Q401 1617 440.0 1676.0Q479 1735 529 1780Q538 1788 547.0 1792.5Q556 1797 569 1797Q595 1797 613.5 1777.5Q632 1758 632 1732Q632 1716 626.5 1704.5Q621 1693 611 1681Q572 1635 541.5 1590.0Q511 1545 490.0 1496.5Q469 1448 458.5 1395.0Q448 1342 448 1280Q448 1184 479.0 1093.5Q510 1003 569 928Q583 910 598.0 894.0Q613 878 629 861Q640 849 646.0 836.5Q652 824 652 807Q652 781 634.0 762.0Q616 743 590 743Q570 743 552 758Q497 804 454.0 865.0Q411 926 381.0 994.5Q351 1063 335.5 1136.0Q320 1209 320 1280ZM1600 1268Q1600 1331 1590.0 1386.0Q1580 1441 1559.5 1491.0Q1539 1541 1508.5 1587.5Q1478 1634 1437 1681Q1427 1692 1421.5 1704.5Q1416 1717 1416 1732Q1416 1758 1434.5 1777.5Q1453 1797 1479 1797Q1491 1797 1500.5 1792.5Q1510 1788 1519 1780Q1570 1733 1609.0 1674.5Q1648 1616 1674.5 1551.5Q1701 1487 1714.5 1418.0Q1728 1349 1728 1280Q1728 1268 1727.5 1256.5Q1727 1245 1726 1233Q1695 1244 1663.5 1253.0Q1632 1262 1600 1268ZM864 1280Q864 1313 877.0 1342.0Q890 1371 911.5 1392.5Q933 1414 962.0 1427.0Q991 1440 1024 1440Q1057 1440 1086.0 1427.0Q1115 1414 1136.5 1392.5Q1158 1371 1171.0 1342.0Q1184 1313 1184 1280Q1184 1262 1180.0 1245.0Q1176 1228 1169 1211Q1130 1193 1094.0 1170.0Q1058 1147 1025 1120H1024Q991 1120 962.0 1133.0Q933 1146 911.5 1167.5Q890 1189 877.0 1218.0Q864 1247 864 1280ZM1244 65Q1187 89 1132 126Q1141 158 1149.5 188.5Q1158 219 1158 252Q1158 296 1143.0 336.5Q1128 377 1102.0 410.0Q1076 443 1040.0 466.5Q1004 490 961 500L899 514Q896 545 896 576Q896 606 899 638L961 652Q1004 662 1040.0 685.5Q1076 709 1102.0 742.0Q1128 775 1143.0 815.5Q1158 856 1158 900Q1158 933 1149.5 963.5Q1141 994 1132 1026Q1187 1063 1244 1087Q1271 1060 1294.5 1038.0Q1318 1016 1344.5 999.5Q1371 983 1401.5 974.0Q1432 965 1472 965Q1512 965 1543.0 974.0Q1574 983 1600.0 999.5Q1626 1016 1649.5 1038.0Q1673 1060 1700 1087Q1757 1063 1812 1026Q1803 994 1794.5 963.5Q1786 933 1786 900Q1786 856 1800.5 815.5Q1815 775 1841.5 742.0Q1868 709 1904.0 685.5Q1940 662 1983 652L2045 638Q2048 606 2048 576Q2048 545 2045 514L1983 500Q1940 490 1904.0 466.5Q1868 443 1841.5 410.0Q1815 377 1800.5 336.5Q1786 296 1786 252Q1786 219 1794.5 188.5Q1803 158 1812 126Q1757 89 1700 65Q1673 92 1649.5 114.0Q1626 136 1600.0 152.5Q1574 169 1543.0 178.0Q1512 187 1472 187Q1431 187 1400.5 178.0Q1370 169 1344.0 152.5Q1318 136 1294.5 114.0Q1271 92 1244 65ZM1600 576Q1600 602 1590.0 625.5Q1580 649 1562.5 666.5Q1545 684 1521.5 694.0Q1498 704 1472 704Q1445 704 1422.0 694.0Q1399 684 1381.5 666.5Q1364 649 1354.0 626.0Q1344 603 1344 576Q1344 549 1354.0 525.5Q1364 502 1381.0 485.0Q1398 468 1421.5 458.0Q1445 448 1472 448Q1499 448 1522.0 458.0Q1545 468 1562.5 485.5Q1580 503 1590.0 526.0Q1600 549 1600 576Z"/>
  </g>
</svg>