<?xml version="1.0" encoding="utf-8"?>
<svg xmlns="http://www.w3.org/2000/svg" width="16" height="16" viewBox="0 0 2048 2048">
  <g transform="translate(0, 2048) scale(1, -1)">
    <path fill="#ffffff" d="M13 1152Q3 1190 1.5 1228.5Q0 1267 0 1306V1728Q0 1758 17.5 1774.0Q35 1790 64 1792Q123 1796 181.5 1800.0Q240 1804 298 1816Q380 1833 456.5 1865.0Q533 1897 602 1946Q639 1973 673.0 1990.0Q707 2007 741.5 2018.5Q776 2030 813.5 2036.5Q851 2043 896 2048V1152ZM1024 2048Q1066 2043 1104.5 2036.0Q1143 2029 1179.0 2018.0Q1215 2007 1249.5 1989.5Q1284 1972 1318 1946Q1351 1920 1387.5 1897.0Q1424 1874 1462 1856Q1505 1835 1554.5 1822.5Q1604 1810 1655.0 1803.5Q1706 1797 1757.5 1794.5Q1809 1792 1856 1792Q1885 1792 1902.5 1774.5Q1920 1757 1920 1728V1306Q1920 1267 1918.5 1228.5Q1917 1190 1907 1152H1024ZM896 128Q808 177 716.5 233.5Q625 290 536.5 355.0Q448 420 367.0 493.5Q286 567 219.0 650.5Q152 734 102.0 827.0Q52 920 26 1024H896ZM1024 1024H1894Q1868 920 1818.0 827.0Q1768 734 1701.0 650.5Q1634 567 1553.0 493.5Q1472 420 1383.5 355.0Q1295 290 1203.5 233.5Q1112 177 1024 128Z"/>
  </g>
</svg>