<?xml version="1.0" encoding="utf-8"?>
<svg xmlns="http://www.w3.org/2000/svg" width="16" height="16" viewBox="0 0 2048 2048">
  <g transform="translate(0, 2048) scale(1, -1)">
    <path fill="#000000" d="M2048 1087Q2048 1064 2037.5 1051.0Q2027 1038 2011.5 1031.5Q1996 1025 1977.0 1023.5Q1958 1022 1941 1022Q1919 1022 1898 1023L1869 1024Q1848 1025 1826 1025Q1386 1025 947.5 993.0Q509 961 74 897H72L66 896Q65 896 64 896Q38 896 19.0 915.0Q0 934 0 960Q0 984 11.5 997.5Q23 1011 40.0 1017.5Q57 1024 77.0 1026.5Q97 1029 114 1032Q569 1099 1029.0 1126.5Q1489 1154 1949 1154Q1966 1154 1983.5 1152.0Q2001 1150 2015.5 1143.0Q2030 1136 2039.0 1122.5Q2048 1109 2048 1087Z"/>
  </g>
</svg>