<?xml version="1.0" encoding="utf-8"?>
<svg xmlns="http://www.w3.org/2000/svg" width="16" height="16" viewBox="0 0 2048 2048">
  <g transform="translate(0, 2048) scale(1, -1)">
    <path fill="#ffffff" d="M2048 1470Q2048 1446 2036.0 1432.5Q2024 1419 2004 1409Q1984 1399 1957.5 1389.5Q1931 1380 1902.5 1371.5Q1874 1363 1846.0 1355.0Q1818 1347 1796 1340Q1458 1225 1131.0 1092.5Q804 960 477 818Q380 776 284.5 732.0Q189 688 91 646Q77 640 64 640Q37 640 18.5 659.5Q0 679 0 705Q0 727 10.0 739.0Q20 751 37 762Q58 775 87.5 789.0Q117 803 148.0 816.0Q179 829 210.0 841.5Q241 854 265 865Q473 957 683.0 1047.0Q893 1137 1105.0 1222.0Q1317 1307 1531.5 1385.0Q1746 1463 1964 1531Q1973 1534 1984 1534Q2010 1534 2029.0 1515.0Q2048 1496 2048 1470Z"/>
  </g>
</svg>