<?xml version="1.0" encoding="utf-8"?>
<svg id="" width="16" height="16" style="width:16px;height:16px;" version="1.1"
    xmlns="http://www.w3.org/2000/svg" viewBox="0 0 2048 2048" enable-background="new 0 0 2048 2048"
    xml:space="preserve"><path fill="#ffffff" d="M1984 320 q0 22 -8.5 35 q-8.5 13 -22.5 19.5 q-14 6.5 -31 8.5 q-17 2 -35 2 q-10 0 -20 -0.5 q-10 -0.5 -18 -0.5 l-166 1437 q-6 48 -28 89.5 q-22 41.5 -56 72 q-34 30.5 -78 48 q-44 17.5 -92 17.5 l-810 0 q-48 0 -92 -17.5 q-44 -17.5 -78 -48 q-34 -30.5 -56 -72 q-22 -41.5 -28 -89.5 l-166 -1437 q-10 0 -20 0.5 q-10 0.5 -20 0.5 q-17 0 -34 -2 q-17 -2 -30.5 -9 q-13.5 -7 -22 -20 q-8.5 -13 -8.5 -34 q0 -26 19 -45 q19 -19 45 -19 l582 0 q10 -55 39.5 -102 q29.5 -47 72 -81.5 q42.5 -34.5 94.5 -53.5 q52 -19 108 -19 q56 0 108 19 q52 19 94.5 53.5 q42.5 34.5 72 81.5 q29.5 47 39.5 102 l582 0 q26 0 45 19 q19 19 19 45 ZM843 256 l362 0 q-10 -29 -28 -52.5 q-18 -23.5 -42 -40.5 q-24 -17 -52 -26 q-28 -9 -59 -9 q-31 0 -59 9 q-28 9 -52 26 q-24 17 -42 40.5 q-18 23.5 -28 52.5 ZM1720 384 l-1392 0 l164 1423 q6 50 41.5 81.5 q35.5 31.5 85.5 31.5 l810 0 q24 0 46 -8.5 q22 -8.5 39 -23.5 q17 -15 28 -36 q11 -21 14 -45 l164 -1423 ZM768 1472 l0 -640 q0 -26 19 -45 q19 -19 45 -19 q26 0 45 19 q19 19 19 45 l0 640 q0 26 -19 45 q-19 19 -45 19 q-26 0 -45 -19 q-19 -19 -19 -45 ZM1152 1472 l0 -640 q0 -26 19 -45 q19 -19 45 -19 q26 0 45 19 q19 19 19 45 l0 640 q0 26 -19 45 q-19 19 -45 19 q-26 0 -45 -19 q-19 -19 -19 -45 Z"/></svg>