<?xml version="1.0" encoding="utf-8"?>
<svg xmlns="http://www.w3.org/2000/svg" width="16" height="16" viewBox="0 0 2048 2048">
  <g transform="translate(0, 2048) scale(1, -1)">
    <path fill="#000000" d="M379 512Q329 512 283.5 532.5Q238 553 203.5 587.5Q169 622 148.5 667.5Q128 713 128 763V1413Q128 1463 148.5 1508.5Q169 1554 203.5 1588.5Q238 1623 283.5 1643.5Q329 1664 379 1664H1669Q1719 1664 1764.5 1643.5Q1810 1623 1844.5 1588.5Q1879 1554 1899.5 1508.5Q1920 1463 1920 1413V763Q1920 713 1899.5 667.5Q1879 622 1844.5 587.5Q1810 553 1764.5 532.5Q1719 512 1669 512ZM256 768Q256 741 266.0 717.5Q276 694 293.0 677.0Q310 660 333.5 650.0Q357 640 384 640H1664Q1691 640 1714.0 650.0Q1737 660 1754.5 677.5Q1772 695 1782.0 718.0Q1792 741 1792 768V1408Q1792 1434 1782.0 1457.5Q1772 1481 1754.5 1498.5Q1737 1516 1713.5 1526.0Q1690 1536 1664 1536H384Q357 1536 334.0 1526.0Q311 1516 293.5 1498.5Q276 1481 266.0 1458.0Q256 1435 256 1408ZM1152 960Q1152 986 1171.0 1005.0Q1190 1024 1216 1024Q1240 1024 1252.0 1013.0Q1264 1002 1280 986V1344Q1280 1370 1299.0 1389.0Q1318 1408 1344 1408Q1370 1408 1389.0 1389.0Q1408 1370 1408 1344V986Q1423 1001 1436.0 1012.5Q1449 1024 1472 1024Q1498 1024 1517.0 1005.0Q1536 986 1536 960Q1536 934 1517 915L1389 787Q1370 768 1344 768Q1318 768 1299 787L1171 915Q1152 934 1152 960ZM576 1152Q550 1152 531.0 1171.0Q512 1190 512 1216Q512 1242 531 1261L659 1389Q678 1408 704 1408Q730 1408 749 1389L877 1261Q896 1242 896 1216Q896 1190 877.0 1171.0Q858 1152 832 1152Q808 1152 796.0 1163.0Q784 1174 768 1190V832Q768 806 749.0 787.0Q730 768 704 768Q678 768 659.0 787.0Q640 806 640 832V1190Q625 1175 612.0 1163.5Q599 1152 576 1152ZM1984 384Q2010 384 2029.0 365.0Q2048 346 2048 320Q2048 294 2029.0 275.0Q2010 256 1984 256H64Q38 256 19.0 275.0Q0 294 0 320Q0 346 19.0 365.0Q38 384 64 384Z"/>
  </g>
</svg>