<?xml version="1.0" encoding="utf-8"?>
<svg xmlns="http://www.w3.org/2000/svg" width="16" height="16" viewBox="0 0 2048 2048">
  <g transform="translate(0, 2048) scale(1, -1)">
    <path fill="#000000" d="M379 128Q329 128 283.5 148.5Q238 169 203.5 203.5Q169 238 148.5 283.5Q128 329 128 379V1856Q128 1882 147.5 1901.0Q167 1920 193 1920Q218 1920 237 1901L1280 858V1728Q1280 1767 1295.0 1802.0Q1310 1837 1336.5 1863.5Q1363 1890 1398.0 1905.0Q1433 1920 1472 1920H1728Q1767 1920 1802.0 1905.0Q1837 1890 1863.5 1863.5Q1890 1837 1905.0 1802.0Q1920 1767 1920 1728V187Q1920 177 1915.0 166.5Q1910 156 1902.0 147.5Q1894 139 1884.0 133.5Q1874 128 1864 128ZM1408 768V730L1792 346V1728Q1792 1754 1773.0 1773.0Q1754 1792 1728 1792H1472Q1450 1792 1437.0 1783.5Q1424 1775 1417.5 1761.5Q1411 1748 1409.0 1731.5Q1407 1715 1407 1698Q1407 1689 1407.5 1680.5Q1408 1672 1408 1664H1442Q1459 1664 1475.5 1662.0Q1492 1660 1505.5 1653.5Q1519 1647 1527.5 1634.5Q1536 1622 1536 1600Q1536 1578 1527.5 1565.0Q1519 1552 1505.5 1545.5Q1492 1539 1475.5 1537.0Q1459 1535 1442 1535Q1433 1535 1424.5 1535.5Q1416 1536 1408 1536V1408H1600Q1626 1408 1645.0 1389.0Q1664 1370 1664 1344Q1664 1318 1645.0 1299.0Q1626 1280 1600 1280H1408V1152H1442Q1459 1152 1475.5 1150.0Q1492 1148 1505.5 1141.5Q1519 1135 1527.5 1122.5Q1536 1110 1536 1088Q1536 1066 1527.5 1053.0Q1519 1040 1505.5 1033.5Q1492 1027 1475.5 1025.0Q1459 1023 1442 1023Q1433 1023 1424.5 1023.5Q1416 1024 1408 1024V896H1600Q1626 896 1645.0 877.0Q1664 858 1664 832Q1664 806 1645.0 787.0Q1626 768 1600 768ZM1702 256 256 1702V384Q256 357 266.0 333.5Q276 310 293.0 293.0Q310 276 333.5 266.0Q357 256 384 256ZM1024 576Q1024 550 1005.0 531.0Q986 512 960 512H576Q550 512 531.0 531.0Q512 550 512 576V960Q512 986 531.0 1005.0Q550 1024 576 1024Q602 1024 621 1005L1005 621Q1024 602 1024 576ZM640 806V640H806Z"/>
  </g>
</svg>