<?xml version="1.0" encoding="utf-8"?>
<svg xmlns="http://www.w3.org/2000/svg" width="16" height="16" viewBox="0 0 2048 2048">
  <g transform="translate(0, 2048) scale(1, -1)">
    <path fill="#ffffff" d="M256 1920Q229 1920 206.0 1910.0Q183 1900 165.5 1882.5Q148 1865 138.0 1842.0Q128 1819 128 1792V640Q128 613 138.0 590.0Q148 567 165.5 549.5Q183 532 206.0 522.0Q229 512 256 512H719L721 510Q722 501 737.0 482.5Q752 464 772.0 444.0Q792 424 811.0 407.0Q830 390 838 384H768V128H1035Q1024 97 1024 64Q1024 31 1035 0H448Q422 0 403.0 19.0Q384 38 384 64Q384 90 403.0 109.0Q422 128 448 128H640V384H256Q203 384 156.5 404.0Q110 424 75.0 459.0Q40 494 20.0 540.5Q0 587 0 640V1792Q0 1845 20.0 1891.5Q40 1938 75.0 1973.0Q110 2008 156.5 2028.0Q203 2048 256 2048H1792Q1845 2048 1891.5 2028.0Q1938 2008 1973.0 1973.0Q2008 1938 2028.0 1891.5Q2048 1845 2048 1792V1009Q2015 1023 1985.0 1023.5Q1955 1024 1920 1024V1792Q1920 1819 1910.0 1842.0Q1900 1865 1882.5 1882.5Q1865 1900 1842.0 1910.0Q1819 1920 1792 1920ZM1138 1152Q1235 1152 1318.0 1106.0Q1401 1060 1452 978Q1383 946 1326.0 896.0Q1269 846 1229 782L1133 877Q1114 896 1088 896Q1062 896 1043.0 877.0Q1024 858 1024 832Q1024 806 1043 787L1173 657Q1152 586 1152 512Q1152 459 1162 412H1156L1144 411Q1141 411 1138 411Q1061 411 993.5 440.5Q926 470 876.0 520.0Q826 570 797.0 637.5Q768 705 768 782V1070Q768 1104 792.0 1128.0Q816 1152 850 1152ZM1971 896Q2003 896 2025.5 873.5Q2048 851 2048 819V512Q2048 432 2018.0 362.5Q1988 293 1935.5 240.5Q1883 188 1813.0 158.0Q1743 128 1664 128Q1604 128 1547.0 146.0Q1490 164 1442 199L1709 467Q1728 486 1728 512Q1728 538 1709.0 557.0Q1690 576 1664 576Q1638 576 1619 557L1351 289Q1316 338 1298.0 395.0Q1280 452 1280 512Q1280 591 1310.0 661.0Q1340 731 1392.5 783.5Q1445 836 1514.5 866.0Q1584 896 1664 896ZM1261 19Q1242 0 1216 0Q1190 0 1171.0 19.0Q1152 38 1152 64Q1152 90 1171 109L1351 289Q1388 236 1441 199Z"/>
  </g>
</svg>