<?xml version="1.0" encoding="utf-8"?>
<svg xmlns="http://www.w3.org/2000/svg" width="16" height="16" viewBox="0 0 2048 2048">
  <g transform="translate(0, 2048) scale(1, -1)">
    <path fill="#000000" d="M379 512Q329 512 283.5 532.5Q238 553 203.5 587.5Q169 622 148.5 667.5Q128 713 128 763V1413Q128 1463 148.5 1508.5Q169 1554 203.5 1588.5Q238 1623 283.5 1643.5Q329 1664 379 1664H1541Q1591 1664 1636.5 1643.5Q1682 1623 1716.5 1588.5Q1751 1554 1771.5 1508.5Q1792 1463 1792 1413V763Q1792 713 1771.5 667.5Q1751 622 1716.5 587.5Q1682 553 1636.5 532.5Q1591 512 1541 512H1152V640H1536Q1563 640 1586.0 650.0Q1609 660 1626.5 677.5Q1644 695 1654.0 718.0Q1664 741 1664 768V1408Q1664 1434 1654.0 1457.5Q1644 1481 1626.5 1498.5Q1609 1516 1585.5 1526.0Q1562 1536 1536 1536H384Q357 1536 334.0 1526.0Q311 1516 293.5 1498.5Q276 1481 266.0 1458.0Q256 1435 256 1408V768Q256 741 266.0 717.5Q276 694 293.0 677.0Q310 660 333.5 650.0Q357 640 384 640H768V512ZM896 1062 749 915Q730 896 704 896Q678 896 659.0 915.0Q640 934 640 960Q640 986 659 1005L915 1261Q934 1280 960 1280Q986 1280 1005 1261L1261 1005Q1280 986 1280 960Q1280 934 1261.0 915.0Q1242 896 1216 896Q1190 896 1171 915L1024 1062V576Q1024 550 1005.0 531.0Q986 512 960 512Q934 512 915.0 531.0Q896 550 896 576ZM64 256Q38 256 19.0 275.0Q0 294 0 320Q0 346 19.0 365.0Q38 384 64 384H1856Q1882 384 1901.0 365.0Q1920 346 1920 320Q1920 294 1901.0 275.0Q1882 256 1856 256Z"/>
  </g>
</svg>