<?xml version="1.0" encoding="utf-8"?>
<svg id="" width="16" height="16" style="width:16px;height:16px;" version="1.1" xmlns="http://www.w3.org/2000/svg" viewBox="0 0 2048 2048" enable-background="new 0 0 2048 2048" xml:space="preserve">
    <path fill="#000" d="M1184 461 q0 117 -50.5 221.5 q-50.5 104.5 -141.5 177.5 l0 875 q0 65 -26 122 q-26 57 -70 99.5 q-44 42.5 -102 67 q-58 24.5 -122 24.5 q-67 0 -125 -25 q-58 -25 -101.5 -68.5 q-43.5 -43.5 -68.5 -101.5 q-25 -58 -25 -125 l0 -868 q-91 -73 -141.5 -177.5 q-50.5 -104.5 -50.5 -221.5 q0 -67 17.5 -132.5 q17.5 -65.5 50.5 -124 q33 -58.5 80.5 -107 q47.5 -48.5 107.5 -80.5 q16 -8 31 -12.5 q15 -4.5 33 -4.5 q27 0 50 10 q23 10 40.5 27.5 q17.5 17.5 27.5 40.5 q10 23 10 50 l0 269 l128 0 l0 -269 q0 -27 10 -50 q10 -23 27.5 -40.5 q17.5 -17.5 40.5 -27.5 q23 -10 50 -10 q18 0 33 4.5 q15 4.5 31 12.5 q59 32 106.5 80.5 q47.5 48.5 80.5 107 q33 58.5 51 124.5 q18 66 18 132 ZM1888 1088 l0 647 q0 65 -26 122 q-26 57 -70 99.5 q-44 42.5 -102 67 q-58 24.5 -122 24.5 q-64 0 -122 -24.5 q-58 -24.5 -102 -67 q-44 -42.5 -70 -99.5 q-26 -57 -26 -122 l0 -647 q0 -22 8.5 -34.5 q8.5 -12.5 22 -19 q13.5 -6.5 30 -8.5 q16.5 -2 33.5 -2 l34 0 l0 -625 q-6 -11 -16.5 -30.5 q-10.5 -19.5 -21 -40.5 q-10.5 -21 -18.5 -40.5 q-8 -19.5 -8 -31.5 q0 -11 9 -40.5 q9 -29.5 20 -63 q11 -33.5 22 -64 q11 -30.5 16 -44.5 q6 -19 23.5 -31.5 q17.5 -12.5 37.5 -12.5 l256 0 q21 0 37.5 12 q16.5 12 23.5 32 q4 14 15.5 44.5 q11.5 30.5 22.5 64 q11 33.5 20 63 q9 29.5 9 40.5 q0 12 -8 31.5 q-8 19.5 -18.5 40.5 q-10.5 21 -21 40.5 q-10.5 19.5 -16.5 30.5 l0 625 l34 0 q17 0 33.5 2 q16.5 2 30 8.5 q13.5 6.5 22 19 q8.5 12.5 8.5 34.5 ZM864 793 q45 -25 80.5 -61 q35.5 -36 60.5 -79 q25 -43 38 -92 q13 -49 13 -100 q0 -106 -50.5 -192.5 q-50.5 -86.5 -141.5 -140.5 l0 397 l-384 0 l0 -397 q-91 54 -141.5 140.5 q-50.5 86.5 -50.5 192.5 q0 51 13 100 q13 49 38 92 q25 43 60.5 79 q35.5 36 80.5 61 l0 935 q0 39 15 74 q15 35 41.5 61.5 q26.5 26.5 61.5 41.5 q35 15 74 15 q39 0 74 -15 q35 -15 61.5 -41.5 q26.5 -26.5 41.5 -61.5 q15 -35 15 -74 l0 -935 ZM1504 1024 l128 0 l0 -640 q0 -15 7 -29 l52 -104 l-41 -123 l-164 0 l-41 123 l52 104 q7 14 7 29 l0 640 ZM1376 1152 l0 128 l384 0 l0 -128 l-384 0 ZM1760 1728 l0 -320 l-384 0 l0 320 q0 39 15 74 q15 35 41.5 61.5 q26.5 26.5 61.5 41.5 q35 15 74 15 q39 0 74 -15 q35 -15 61.5 -41.5 q26.5 -26.5 41.5 -61.5 q15 -35 15 -74 Z"/>
</svg>