<?xml version="1.0" encoding="utf-8"?>
<svg xmlns="http://www.w3.org/2000/svg" width="16" height="16" viewBox="0 0 2048 2048">
  <g transform="translate(0, 2048) scale(1, -1)">
    <path fill="#ffffff" d="M896 256V384H1280V640H896V768H1792Q1819 768 1842.0 778.0Q1865 788 1882.5 805.5Q1900 823 1910.0 846.0Q1920 869 1920 896V1792Q1920 1818 1910.0 1841.5Q1900 1865 1882.5 1882.5Q1865 1900 1841.5 1910.0Q1818 1920 1792 1920H512Q485 1920 462.0 1910.0Q439 1900 421.5 1882.5Q404 1865 394.0 1842.0Q384 1819 384 1792V1408H256V1797Q256 1847 276.5 1892.5Q297 1938 331.5 1972.5Q366 2007 411.5 2027.5Q457 2048 507 2048H1797Q1847 2048 1892.5 2027.5Q1938 2007 1972.5 1972.5Q2007 1938 2027.5 1892.5Q2048 1847 2048 1797V891Q2048 839 2027.0 793.5Q2006 748 1971.0 714.0Q1936 680 1889.5 660.0Q1843 640 1792 640H1408V384H1600Q1626 384 1645.0 365.0Q1664 346 1664 320Q1664 294 1645.0 275.0Q1626 256 1600 256ZM192 0Q153 0 118.0 15.0Q83 30 56.5 56.5Q30 83 15.0 118.0Q0 153 0 192V1088Q0 1127 15.0 1162.0Q30 1197 56.5 1223.5Q83 1250 118.0 1265.0Q153 1280 192 1280H576Q615 1280 650.0 1265.0Q685 1250 711.5 1223.5Q738 1197 753.0 1162.0Q768 1127 768 1088V192Q768 153 753.0 118.0Q738 83 711.5 56.5Q685 30 650.0 15.0Q615 0 576 0ZM576 128Q602 128 621.0 147.0Q640 166 640 192V1088Q640 1114 621.0 1133.0Q602 1152 576 1152H192Q166 1152 147.0 1133.0Q128 1114 128 1088V192Q128 166 147.0 147.0Q166 128 192 128ZM320 256Q294 256 275.0 275.0Q256 294 256 320Q256 346 275.0 365.0Q294 384 320 384H448Q474 384 493.0 365.0Q512 346 512 320Q512 294 493.0 275.0Q474 256 448 256Z"/>
  </g>
</svg>