<?xml version="1.0" encoding="utf-8"?>
<svg xmlns="http://www.w3.org/2000/svg" width="16" height="16" viewBox="0 0 2048 2048">
  <g transform="translate(0, 2048) scale(1, -1)">
    <path fill="#ffffff" d="M896 896V768H768V640H896V512H576Q550 512 531.0 531.0Q512 550 512 576Q512 598 520.5 610.5Q529 623 542.5 629.5Q556 636 572.5 638.0Q589 640 606 640H640V768H320Q281 768 246.0 783.0Q211 798 184.5 824.5Q158 851 143.0 886.0Q128 921 128 960V1728Q128 1767 143.0 1802.0Q158 1837 184.5 1863.5Q211 1890 246.0 1905.0Q281 1920 320 1920H1472Q1511 1920 1546.0 1905.0Q1581 1890 1607.5 1863.5Q1634 1837 1649.0 1802.0Q1664 1767 1664 1728V1536H1536V1728Q1536 1754 1517.0 1773.0Q1498 1792 1472 1792H320Q294 1792 275.0 1773.0Q256 1754 256 1728V960Q256 934 275.0 915.0Q294 896 320 896ZM1728 1408Q1767 1408 1802.0 1393.0Q1837 1378 1863.5 1351.5Q1890 1325 1905.0 1290.0Q1920 1255 1920 1216V320Q1920 281 1905.0 246.0Q1890 211 1863.5 184.5Q1837 158 1802.0 143.0Q1767 128 1728 128H1216Q1177 128 1142.0 143.0Q1107 158 1080.5 184.5Q1054 211 1039.0 246.0Q1024 281 1024 320V1216Q1024 1255 1039.0 1290.0Q1054 1325 1080.5 1351.5Q1107 1378 1142.0 1393.0Q1177 1408 1216 1408ZM1792 1216Q1792 1242 1773.0 1261.0Q1754 1280 1728 1280H1216Q1190 1280 1171.0 1261.0Q1152 1242 1152 1216V320Q1152 294 1171.0 275.0Q1190 256 1216 256H1728Q1754 256 1773.0 275.0Q1792 294 1792 320ZM1664 960Q1664 921 1649.0 886.0Q1634 851 1607.5 824.5Q1581 798 1546.0 783.0Q1511 768 1472 768Q1433 768 1398.0 783.0Q1363 798 1336.5 824.5Q1310 851 1295.0 886.0Q1280 921 1280 960Q1280 999 1295.0 1034.0Q1310 1069 1336.5 1095.5Q1363 1122 1398.0 1137.0Q1433 1152 1472 1152Q1511 1152 1546.0 1137.0Q1581 1122 1607.5 1095.5Q1634 1069 1649.0 1034.0Q1664 999 1664 960ZM1536 960Q1536 986 1517.0 1005.0Q1498 1024 1472 1024Q1446 1024 1427.0 1005.0Q1408 986 1408 960Q1408 934 1427.0 915.0Q1446 896 1472 896Q1498 896 1517.0 915.0Q1536 934 1536 960ZM1600 512Q1600 485 1590.0 462.0Q1580 439 1562.5 421.5Q1545 404 1522.0 394.0Q1499 384 1472 384Q1445 384 1421.5 394.0Q1398 404 1381.0 421.0Q1364 438 1354.0 461.5Q1344 485 1344 512Q1344 539 1354.0 562.0Q1364 585 1381.5 602.5Q1399 620 1422.0 630.0Q1445 640 1472 640Q1498 640 1521.5 630.0Q1545 620 1562.5 602.5Q1580 585 1590.0 561.5Q1600 538 1600 512Z"/>
  </g>
</svg>