<?xml version="1.0" encoding="utf-8"?>
<svg xmlns="http://www.w3.org/2000/svg" width="16" height="16" viewBox="0 0 2048 2048">
  <g transform="translate(0, 2048) scale(1, -1)">
    <path fill="#ffffff" d="M340 1024Q297 1024 258.5 1040.0Q220 1056 191.0 1084.5Q162 1113 145.0 1150.5Q128 1188 128 1232V1712Q128 1755 145.0 1793.0Q162 1831 191.0 1859.5Q220 1888 258.5 1904.0Q297 1920 340 1920H1324Q1367 1920 1405.5 1904.0Q1444 1888 1473.0 1859.5Q1502 1831 1519.0 1793.0Q1536 1755 1536 1712V1472Q1536 1446 1517.0 1427.0Q1498 1408 1472 1408Q1446 1408 1427.0 1427.0Q1408 1446 1408 1472V1712Q1408 1747 1383.0 1769.5Q1358 1792 1324 1792H340Q306 1792 281.0 1769.5Q256 1747 256 1712V1232Q256 1197 281.0 1174.5Q306 1152 340 1152H768Q794 1152 813.0 1133.0Q832 1114 832 1088Q832 1062 813.0 1043.0Q794 1024 768 1024ZM1792 1024H1797Q1847 1024 1892.5 1003.5Q1938 983 1972.5 948.5Q2007 914 2027.5 868.5Q2048 823 2048 773V384Q2048 329 2010 293Q1971 256 1920 256H1792V128Q1792 73 1754 37Q1715 0 1664 0H1152Q1098 0 1061 37Q1024 74 1024 128V256H896Q842 256 805 293Q768 330 768 384V773Q768 822 788.0 867.0Q808 912 842.5 947.0Q877 982 921.5 1003.0Q966 1024 1016 1024H1024V1152Q1024 1203 1061 1242Q1097 1280 1152 1280H1664Q1690 1280 1713.0 1270.0Q1736 1260 1754 1242Q1772 1224 1782.0 1201.0Q1792 1178 1792 1152ZM1664 1152H1152V1024H1664ZM576 896Q602 896 621.0 877.0Q640 858 640 832Q640 806 621.0 787.0Q602 768 576 768H64Q38 768 19.0 787.0Q0 806 0 832Q0 858 19.0 877.0Q38 896 64 896ZM1920 384V768Q1920 794 1910.0 817.5Q1900 841 1882.5 858.5Q1865 876 1841.5 886.0Q1818 896 1792 896H1024Q997 896 974.0 886.0Q951 876 933.5 858.5Q916 841 906.0 818.0Q896 795 896 768V384H1024Q1024 411 1034.0 434.0Q1044 457 1061.5 474.5Q1079 492 1102.0 502.0Q1125 512 1152 512H1664Q1690 512 1713.5 502.0Q1737 492 1754.5 474.5Q1772 457 1782.0 433.5Q1792 410 1792 384ZM1152 128H1664V384H1152Z"/>
  </g>
</svg>