<?xml version="1.0" encoding="utf-8"?>
<svg xmlns="http://www.w3.org/2000/svg" width="16" height="16" viewBox="0 0 2048 2048">
  <g transform="translate(0, 2048) scale(1, -1)">
    <path fill="#ffffff" d="M320 896Q281 896 246.0 911.0Q211 926 184.5 952.5Q158 979 143.0 1014.0Q128 1049 128 1088V1600Q128 1639 143.0 1674.0Q158 1709 184.5 1735.5Q211 1762 246.0 1777.0Q281 1792 320 1792H1216Q1255 1792 1290.0 1777.0Q1325 1762 1351.5 1735.5Q1378 1709 1393.0 1674.0Q1408 1639 1408 1600V1408H1280V1600Q1280 1626 1261.0 1645.0Q1242 1664 1216 1664H320Q294 1664 275.0 1645.0Q256 1626 256 1600V1088Q256 1062 275.0 1043.0Q294 1024 320 1024H640V896ZM960 256Q921 256 886.0 271.0Q851 286 824.5 312.5Q798 339 783.0 374.0Q768 409 768 448V1088Q768 1127 783.0 1162.0Q798 1197 824.5 1223.5Q851 1250 886.0 1265.0Q921 1280 960 1280H1856Q1895 1280 1930.0 1265.0Q1965 1250 1991.5 1223.5Q2018 1197 2033.0 1162.0Q2048 1127 2048 1088V448Q2048 409 2033.0 374.0Q2018 339 1991.5 312.5Q1965 286 1930.0 271.0Q1895 256 1856 256ZM1856 384Q1882 384 1901.0 403.0Q1920 422 1920 448V1088Q1920 1114 1901.0 1133.0Q1882 1152 1856 1152H960Q934 1152 915.0 1133.0Q896 1114 896 1088V448Q896 422 915.0 403.0Q934 384 960 384ZM64 640Q38 640 19.0 659.0Q0 678 0 704Q0 730 19.0 749.0Q38 768 64 768H640V640ZM1344 512Q1318 512 1299.0 531.0Q1280 550 1280 576Q1280 602 1299.0 621.0Q1318 640 1344 640H1472Q1498 640 1517.0 621.0Q1536 602 1536 576Q1536 550 1517.0 531.0Q1498 512 1472 512Z"/>
  </g>
</svg>