<?xml version="1.0" encoding="utf-8"?>
<svg xmlns="http://www.w3.org/2000/svg" width="16" height="16" viewBox="0 0 2048 2048">
  <g transform="translate(0, 2048) scale(1, -1)">
    <path fill="#000000" d="M251 512Q201 512 155.5 532.5Q110 553 75.5 587.5Q41 622 20.5 667.5Q0 713 0 763V1669Q0 1719 20.5 1764.5Q41 1810 75.5 1844.5Q110 1879 155.5 1899.5Q201 1920 251 1920H1797Q1847 1920 1892.5 1899.5Q1938 1879 1972.5 1844.5Q2007 1810 2027.5 1764.5Q2048 1719 2048 1669V1374Q1990 1408 1920 1408V1664Q1920 1690 1910.0 1713.5Q1900 1737 1882.5 1754.5Q1865 1772 1841.5 1782.0Q1818 1792 1792 1792H256Q229 1792 206.0 1782.0Q183 1772 165.5 1754.5Q148 1737 138.0 1714.0Q128 1691 128 1664V768Q128 741 138.0 717.5Q148 694 165.0 677.0Q182 660 205.5 650.0Q229 640 256 640H1024V512ZM320 1504Q320 1544 348.0 1572.0Q376 1600 416 1600Q456 1600 484.0 1572.0Q512 1544 512 1504Q512 1464 484.0 1436.0Q456 1408 416 1408Q376 1408 348.0 1436.0Q320 1464 320 1504ZM704 1504Q704 1544 732.0 1572.0Q760 1600 800 1600Q840 1600 868.0 1572.0Q896 1544 896 1504Q896 1464 868.0 1436.0Q840 1408 800 1408Q760 1408 732.0 1436.0Q704 1464 704 1504ZM1088 1504Q1088 1544 1116.0 1572.0Q1144 1600 1184 1600Q1224 1600 1252.0 1572.0Q1280 1544 1280 1504Q1280 1464 1252.0 1436.0Q1224 1408 1184 1408Q1144 1408 1116.0 1436.0Q1088 1464 1088 1504ZM1472 1504Q1472 1544 1500.0 1572.0Q1528 1600 1568 1600Q1608 1600 1636.0 1572.0Q1664 1544 1664 1504Q1664 1464 1636.0 1436.0Q1608 1408 1568 1408Q1528 1408 1500.0 1436.0Q1472 1464 1472 1504ZM1344 0Q1305 0 1270.0 15.0Q1235 30 1208.5 56.5Q1182 83 1167.0 118.0Q1152 153 1152 192V1088Q1152 1127 1167.0 1162.0Q1182 1197 1208.5 1223.5Q1235 1250 1270.0 1265.0Q1305 1280 1344 1280H1856Q1895 1280 1930.0 1265.0Q1965 1250 1991.5 1223.5Q2018 1197 2033.0 1162.0Q2048 1127 2048 1088V192Q2048 153 2033.0 118.0Q2018 83 1991.5 56.5Q1965 30 1930.0 15.0Q1895 0 1856 0ZM576 1120Q576 1160 604.0 1188.0Q632 1216 672 1216Q712 1216 740.0 1188.0Q768 1160 768 1120Q768 1080 740.0 1052.0Q712 1024 672 1024Q632 1024 604.0 1052.0Q576 1080 576 1120ZM1856 128Q1882 128 1901.0 147.0Q1920 166 1920 192V1088Q1920 1114 1901.0 1133.0Q1882 1152 1856 1152H1344Q1318 1152 1299.0 1133.0Q1280 1114 1280 1088V192Q1280 166 1299.0 147.0Q1318 128 1344 128ZM1408 832Q1408 871 1423.0 906.0Q1438 941 1464.5 967.5Q1491 994 1526.0 1009.0Q1561 1024 1600 1024Q1639 1024 1674.0 1009.0Q1709 994 1735.5 967.5Q1762 941 1777.0 906.0Q1792 871 1792 832Q1792 793 1777.0 758.0Q1762 723 1735.5 696.5Q1709 670 1674.0 655.0Q1639 640 1600 640Q1561 640 1526.0 655.0Q1491 670 1464.5 696.5Q1438 723 1423.0 758.0Q1408 793 1408 832ZM448 768Q422 768 403.0 787.0Q384 806 384 832Q384 858 403.0 877.0Q422 896 448 896H1024V768ZM1664 832Q1664 858 1645.0 877.0Q1626 896 1600 896Q1574 896 1555.0 877.0Q1536 858 1536 832Q1536 806 1555.0 787.0Q1574 768 1600 768Q1626 768 1645.0 787.0Q1664 806 1664 832ZM1472 384Q1472 411 1482.0 434.0Q1492 457 1509.5 474.5Q1527 492 1550.0 502.0Q1573 512 1600 512Q1626 512 1649.5 502.0Q1673 492 1690.5 474.5Q1708 457 1718.0 433.5Q1728 410 1728 384Q1728 357 1718.0 334.0Q1708 311 1690.5 293.5Q1673 276 1650.0 266.0Q1627 256 1600 256Q1573 256 1549.5 266.0Q1526 276 1509.0 293.0Q1492 310 1482.0 333.5Q1472 357 1472 384Z"/>
  </g>
</svg>