<?xml version="1.0" encoding="utf-8"?>
<svg xmlns="http://www.w3.org/2000/svg" width="16" height="16" viewBox="0 0 2048 2048">
  <g transform="translate(0, 2048) scale(1, -1)">
    <path fill="#000000" d="M1672 2048Q1747 2048 1815.5 2017.5Q1884 1987 1935.5 1935.5Q1987 1884 2017.5 1815.5Q2048 1747 2048 1672V888Q2048 813 2017.5 744.5Q1987 676 1935.5 624.5Q1884 573 1815.5 542.5Q1747 512 1672 512H376Q301 512 232.5 542.5Q164 573 112.5 624.5Q61 676 30.5 744.5Q0 813 0 888V1672Q0 1747 30.5 1815.5Q61 1884 112.5 1935.5Q164 1987 232.5 2017.5Q301 2048 376 2048ZM1920 1669Q1920 1719 1899.5 1764.5Q1879 1810 1844.5 1844.5Q1810 1879 1764.5 1899.5Q1719 1920 1669 1920H379Q329 1920 283.5 1899.5Q238 1879 203.5 1844.5Q169 1810 148.5 1764.5Q128 1719 128 1669V1664Q269 1664 400.0 1627.5Q531 1591 644.5 1524.0Q758 1457 851.5 1363.5Q945 1270 1012.0 1156.5Q1079 1043 1115.5 912.0Q1152 781 1152 640H1669Q1719 640 1764.5 660.5Q1810 681 1844.5 715.5Q1879 750 1899.5 795.5Q1920 841 1920 891ZM1024 640Q1024 763 992.0 877.5Q960 992 901.5 1091.5Q843 1191 761.0 1273.0Q679 1355 579.5 1413.5Q480 1472 365.5 1504.0Q251 1536 128 1536V891Q128 841 148.5 795.5Q169 750 203.5 715.5Q238 681 283.5 660.5Q329 640 379 640Z"/>
  </g>
</svg>