<?xml version="1.0" encoding="utf-8"?>
<svg xmlns="http://www.w3.org/2000/svg" width="16" height="16" viewBox="0 0 2048 2048">
  <g transform="translate(0, 2048) scale(1, -1)">
    <path fill="#000000" d="M379 512Q329 512 283.5 532.5Q238 553 203.5 587.5Q169 622 148.5 667.5Q128 713 128 763V1413Q128 1463 148.5 1508.5Q169 1554 203.5 1588.5Q238 1623 283.5 1643.5Q329 1664 379 1664H1669Q1719 1664 1764.5 1643.5Q1810 1623 1844.5 1588.5Q1879 1554 1899.5 1508.5Q1920 1463 1920 1413V763Q1920 713 1899.5 667.5Q1879 622 1844.5 587.5Q1810 553 1764.5 532.5Q1719 512 1669 512ZM256 768Q256 741 266.0 717.5Q276 694 293.0 677.0Q310 660 333.5 650.0Q357 640 384 640H1024Q1024 799 1084.5 938.5Q1145 1078 1249.5 1182.5Q1354 1287 1493.5 1347.5Q1633 1408 1792 1408Q1792 1434 1782.0 1457.5Q1772 1481 1754.5 1498.5Q1737 1516 1713.5 1526.0Q1690 1536 1664 1536H384Q357 1536 334.0 1526.0Q311 1516 293.5 1498.5Q276 1481 266.0 1458.0Q256 1435 256 1408ZM1792 1280Q1659 1280 1542.5 1230.0Q1426 1180 1339.0 1093.0Q1252 1006 1202.0 889.5Q1152 773 1152 640H1664Q1691 640 1714.0 650.0Q1737 660 1754.5 677.5Q1772 695 1782.0 718.0Q1792 741 1792 768ZM1984 384Q2010 384 2029.0 365.0Q2048 346 2048 320Q2048 294 2029.0 275.0Q2010 256 1984 256H64Q38 256 19.0 275.0Q0 294 0 320Q0 346 19.0 365.0Q38 384 64 384Z"/>
  </g>
</svg>