<?xml version="1.0" encoding="utf-8"?>
<svg xmlns="http://www.w3.org/2000/svg" width="16" height="16" viewBox="0 0 2048 2048">
  <g transform="translate(0, 2048) scale(1, -1)">
    <path fill="#ffffff" d="M2047 1024Q2047 882 2010.5 751.5Q1974 621 1907.0 507.5Q1840 394 1746.5 300.5Q1653 207 1539.5 140.5Q1426 74 1295.0 37.5Q1164 1 1023 1Q882 1 751.5 37.5Q621 74 507.0 140.5Q393 207 300.0 300.0Q207 393 140.0 506.5Q73 620 36.5 751.0Q0 882 0 1023Q0 1164 36.5 1295.0Q73 1426 139.5 1540.0Q206 1654 299.5 1747.5Q393 1841 506.5 1908.0Q620 1975 751.0 2011.5Q882 2048 1023 2048Q1134 2048 1240.0 2025.0Q1346 2002 1444.0 1958.0Q1542 1914 1629.5 1849.5Q1717 1785 1791 1702V1984Q1791 2010 1810.0 2029.0Q1829 2048 1855 2048Q1881 2048 1900.0 2029.0Q1919 2010 1919 1984Q1919 1924 1919 1863L1920 1623Q1920 1563 1920 1502Q1920 1485 1918.0 1468.5Q1916 1452 1909.0 1438.5Q1902 1425 1889.0 1416.5Q1876 1408 1855 1408H1343Q1317 1408 1298.0 1427.0Q1279 1446 1279 1472Q1279 1498 1298.0 1517.0Q1317 1536 1343 1536H1758Q1695 1626 1614.0 1697.5Q1533 1769 1438.5 1818.5Q1344 1868 1239.0 1894.0Q1134 1920 1024 1920Q900 1920 785.5 1888.0Q671 1856 571.5 1797.5Q472 1739 390.5 1657.5Q309 1576 250.5 1476.5Q192 1377 160.0 1262.5Q128 1148 128 1024Q128 900 160.0 786.0Q192 672 250.0 572.5Q308 473 390.0 391.5Q472 310 571.0 251.5Q670 193 784.5 161.0Q899 129 1023 129Q1119 129 1212.5 149.5Q1306 170 1392.0 209.0Q1478 248 1555.0 304.5Q1632 361 1696 433Q1804 556 1861.5 708.0Q1919 860 1919 1024Q1919 1050 1938.0 1069.0Q1957 1088 1983 1088Q2009 1088 2028.0 1069.0Q2047 1050 2047 1024ZM1024 1024H1344Q1370 1024 1389.0 1005.0Q1408 986 1408 960Q1408 934 1389.0 915.0Q1370 896 1344 896H960Q934 896 915.0 915.0Q896 934 896 960V1600Q896 1626 915.0 1645.0Q934 1664 960 1664Q986 1664 1005.0 1645.0Q1024 1626 1024 1600Z"/>
  </g>
</svg>