<?xml version="1.0" encoding="utf-8"?>
<svg xmlns="http://www.w3.org/2000/svg" width="16" height="16" viewBox="0 0 2048 2048">
  <g transform="translate(0, 2048) scale(1, -1)">
    <path fill="#ffffff" d="M504 128Q429 128 360.5 158.5Q292 189 240.5 240.5Q189 292 158.5 360.5Q128 429 128 504V1544Q128 1619 158.5 1687.5Q189 1756 240.5 1807.5Q292 1859 360.5 1889.5Q429 1920 504 1920H1544Q1619 1920 1687.5 1889.5Q1756 1859 1807.5 1807.5Q1859 1756 1889.5 1687.5Q1920 1619 1920 1544V504Q1920 429 1889.5 360.5Q1859 292 1807.5 240.5Q1756 189 1687.5 158.5Q1619 128 1544 128ZM1541 256Q1591 256 1636.5 276.5Q1682 297 1716.5 331.5Q1751 366 1771.5 411.5Q1792 457 1792 507V1541Q1792 1591 1771.5 1636.5Q1751 1682 1716.5 1716.5Q1682 1751 1636.5 1771.5Q1591 1792 1541 1792H507Q457 1792 411.5 1771.5Q366 1751 331.5 1716.5Q297 1682 276.5 1636.5Q256 1591 256 1541V507Q256 457 276.5 411.5Q297 366 331.5 331.5Q366 297 411.5 276.5Q457 256 507 256ZM1146 512Q1127 512 1111.5 526.5Q1096 541 1091 558L888 1268L764 938Q757 919 740.5 907.5Q724 896 704 896H448Q422 896 403.0 915.0Q384 934 384 960Q384 986 403.0 1005.0Q422 1024 448 1024H660L836 1495Q843 1513 859.0 1524.5Q875 1536 895 1536Q916 1536 934.0 1523.0Q952 1510 958 1490L1168 752L1287 989Q1295 1005 1311.0 1014.5Q1327 1024 1344 1024H1600Q1626 1024 1645.0 1005.0Q1664 986 1664 960Q1664 934 1645.0 915.0Q1626 896 1600 896H1384L1209 547Q1199 528 1182.5 520.0Q1166 512 1146 512Z"/>
  </g>
</svg>