<?xml version="1.0" encoding="utf-8"?>
<svg xmlns="http://www.w3.org/2000/svg" width="16" height="16" viewBox="0 0 2048 2048">
  <g transform="translate(0, 2048) scale(1, -1)">
    <path fill="#000000" d="M1028 1902Q1125 1902 1198.5 1870.0Q1272 1838 1325.0 1784.0Q1378 1730 1413.0 1658.0Q1448 1586 1468.5 1506.0Q1489 1426 1497.5 1342.0Q1506 1258 1506 1180Q1506 1076 1494.5 967.5Q1483 859 1455.0 757.0Q1427 655 1380.0 564.5Q1333 474 1262.5 406.5Q1192 339 1095.5 300.0Q999 261 872 261Q806 261 742.5 272.5Q679 284 618 308V451Q678 421 742.5 402.5Q807 384 875 384Q975 384 1050.0 416.0Q1125 448 1179.0 502.0Q1233 556 1268.0 628.5Q1303 701 1324.0 782.0Q1345 863 1353.0 948.5Q1361 1034 1361 1114H1357Q1303 994 1209.0 939.0Q1115 884 985 884Q879 884 795.0 922.5Q711 961 653.0 1028.0Q595 1095 564.0 1184.5Q533 1274 533 1375Q533 1485 567.5 1581.0Q602 1677 666.5 1748.5Q731 1820 822.5 1861.0Q914 1902 1028 1902ZM1017 1011Q1085 1011 1145.0 1037.5Q1205 1064 1250.0 1109.0Q1295 1154 1321.5 1214.5Q1348 1275 1348 1343Q1348 1393 1339.5 1445.0Q1331 1497 1313.0 1545.5Q1295 1594 1267.5 1636.5Q1240 1679 1203.0 1710.5Q1166 1742 1118.5 1760.0Q1071 1778 1013 1778Q934 1778 872.0 1746.0Q810 1714 767.5 1661.0Q725 1608 702.5 1539.0Q680 1470 680 1397Q680 1318 700.5 1247.5Q721 1177 763.0 1124.5Q805 1072 868.0 1041.5Q931 1011 1017 1011Z"/>
  </g>
</svg>