<?xml version="1.0" encoding="utf-8"?>
<svg xmlns="http://www.w3.org/2000/svg" width="16" height="16" viewBox="0 0 2048 2048">
  <g transform="translate(0, 2048) scale(1, -1)">
    <path fill="#000000" d="M384 1792Q384 1819 394.0 1842.0Q404 1865 421.5 1882.5Q439 1900 462.0 1910.0Q485 1920 512 1920Q538 1920 561.5 1910.0Q585 1900 602.5 1882.5Q620 1865 630.0 1841.5Q640 1818 640 1792Q640 1765 630.0 1742.0Q620 1719 602.5 1701.5Q585 1684 562.0 1674.0Q539 1664 512 1664Q485 1664 461.5 1674.0Q438 1684 421.0 1701.0Q404 1718 394.0 1741.5Q384 1765 384 1792ZM896 1792Q896 1819 906.0 1842.0Q916 1865 933.5 1882.5Q951 1900 974.0 1910.0Q997 1920 1024 1920Q1050 1920 1073.5 1910.0Q1097 1900 1114.5 1882.5Q1132 1865 1142.0 1841.5Q1152 1818 1152 1792Q1152 1765 1142.0 1742.0Q1132 1719 1114.5 1701.5Q1097 1684 1074.0 1674.0Q1051 1664 1024 1664Q997 1664 973.5 1674.0Q950 1684 933.0 1701.0Q916 1718 906.0 1741.5Q896 1765 896 1792ZM1408 1792Q1408 1819 1418.0 1842.0Q1428 1865 1445.5 1882.5Q1463 1900 1486.0 1910.0Q1509 1920 1536 1920Q1562 1920 1585.5 1910.0Q1609 1900 1626.5 1882.5Q1644 1865 1654.0 1841.5Q1664 1818 1664 1792Q1664 1765 1654.0 1742.0Q1644 1719 1626.5 1701.5Q1609 1684 1586.0 1674.0Q1563 1664 1536 1664Q1509 1664 1485.5 1674.0Q1462 1684 1445.0 1701.0Q1428 1718 1418.0 1741.5Q1408 1765 1408 1792ZM384 1280Q384 1307 394.0 1330.0Q404 1353 421.5 1370.5Q439 1388 462.0 1398.0Q485 1408 512 1408Q538 1408 561.5 1398.0Q585 1388 602.5 1370.5Q620 1353 630.0 1329.5Q640 1306 640 1280Q640 1253 630.0 1230.0Q620 1207 602.5 1189.5Q585 1172 562.0 1162.0Q539 1152 512 1152Q485 1152 461.5 1162.0Q438 1172 421.0 1189.0Q404 1206 394.0 1229.5Q384 1253 384 1280ZM896 1280Q896 1307 906.0 1330.0Q916 1353 933.5 1370.5Q951 1388 974.0 1398.0Q997 1408 1024 1408Q1050 1408 1073.5 1398.0Q1097 1388 1114.5 1370.5Q1132 1353 1142.0 1329.5Q1152 1306 1152 1280Q1152 1253 1142.0 1230.0Q1132 1207 1114.5 1189.5Q1097 1172 1074.0 1162.0Q1051 1152 1024 1152Q997 1152 973.5 1162.0Q950 1172 933.0 1189.0Q916 1206 906.0 1229.5Q896 1253 896 1280ZM1408 1280Q1408 1307 1418.0 1330.0Q1428 1353 1445.5 1370.5Q1463 1388 1486.0 1398.0Q1509 1408 1536 1408Q1562 1408 1585.5 1398.0Q1609 1388 1626.5 1370.5Q1644 1353 1654.0 1329.5Q1664 1306 1664 1280Q1664 1253 1654.0 1230.0Q1644 1207 1626.5 1189.5Q1609 1172 1586.0 1162.0Q1563 1152 1536 1152Q1509 1152 1485.5 1162.0Q1462 1172 1445.0 1189.0Q1428 1206 1418.0 1229.5Q1408 1253 1408 1280ZM384 768Q384 795 394.0 818.0Q404 841 421.5 858.5Q439 876 462.0 886.0Q485 896 512 896Q538 896 561.5 886.0Q585 876 602.5 858.5Q620 841 630.0 817.5Q640 794 640 768Q640 741 630.0 718.0Q620 695 602.5 677.5Q585 660 562.0 650.0Q539 640 512 640Q485 640 461.5 650.0Q438 660 421.0 677.0Q404 694 394.0 717.5Q384 741 384 768ZM896 768Q896 795 906.0 818.0Q916 841 933.5 858.5Q951 876 974.0 886.0Q997 896 1024 896Q1050 896 1073.5 886.0Q1097 876 1114.5 858.5Q1132 841 1142.0 817.5Q1152 794 1152 768Q1152 741 1142.0 718.0Q1132 695 1114.5 677.5Q1097 660 1074.0 650.0Q1051 640 1024 640Q997 640 973.5 650.0Q950 660 933.0 677.0Q916 694 906.0 717.5Q896 741 896 768ZM1408 768Q1408 795 1418.0 818.0Q1428 841 1445.5 858.5Q1463 876 1486.0 886.0Q1509 896 1536 896Q1562 896 1585.5 886.0Q1609 876 1626.5 858.5Q1644 841 1654.0 817.5Q1664 794 1664 768Q1664 741 1654.0 718.0Q1644 695 1626.5 677.5Q1609 660 1586.0 650.0Q1563 640 1536 640Q1509 640 1485.5 650.0Q1462 660 1445.0 677.0Q1428 694 1418.0 717.5Q1408 741 1408 768ZM896 256Q896 283 906.0 306.0Q916 329 933.5 346.5Q951 364 974.0 374.0Q997 384 1024 384Q1050 384 1073.5 374.0Q1097 364 1114.5 346.5Q1132 329 1142.0 305.5Q1152 282 1152 256Q1152 229 1142.0 206.0Q1132 183 1114.5 165.5Q1097 148 1074.0 138.0Q1051 128 1024 128Q997 128 973.5 138.0Q950 148 933.0 165.0Q916 182 906.0 205.5Q896 229 896 256Z"/>
  </g>
</svg>