<?xml version="1.0" encoding="utf-8"?>
<svg xmlns="http://www.w3.org/2000/svg" width="16" height="16" viewBox="0 0 2048 2048">
  <g transform="translate(0, 2048) scale(1, -1)">
    <path fill="#ffffff" d="M92 1500V1625Q227 1668 346.5 1742.5Q466 1817 572 1910H613V288H471V1707Q435 1677 388.5 1645.5Q342 1614 291.0 1586.5Q240 1559 188.5 1536.0Q137 1513 92 1500ZM1362 1239Q1475 1239 1570.5 1210.0Q1666 1181 1735.5 1122.5Q1805 1064 1844.0 975.0Q1883 886 1883 766Q1883 642 1842.0 548.0Q1801 454 1728.5 390.5Q1656 327 1556.0 294.5Q1456 262 1338 262Q1299 262 1258.5 264.5Q1218 267 1178.5 273.5Q1139 280 1100.5 292.0Q1062 304 1027 324V479Q1099 435 1178.5 409.0Q1258 383 1343 383Q1428 383 1500.5 408.0Q1573 433 1625.5 480.0Q1678 527 1708.0 596.0Q1738 665 1738 754Q1738 853 1705.5 921.5Q1673 990 1616.5 1032.5Q1560 1075 1482.5 1093.5Q1405 1112 1315 1112Q1254 1112 1193.5 1108.0Q1133 1104 1073 1099L1122 1875H1814V1747H1243L1209 1232Q1247 1235 1285.5 1237.0Q1324 1239 1362 1239Z"/>
  </g>
</svg>