<?xml version="1.0" encoding="utf-8"?>
<svg xmlns="http://www.w3.org/2000/svg" width="16" height="16" viewBox="0 0 2048 2048">
  <g transform="translate(0, 2048) scale(1, -1)">
    <path fill="#ffffff" d="M92 1500V1625Q227 1668 346.5 1742.5Q466 1817 572 1910H613V288H471V1707Q435 1677 388.5 1645.5Q342 1614 291.0 1586.5Q240 1559 188.5 1536.0Q137 1513 92 1500ZM1112 416H1902V288H963V329Q963 385 967.0 440.0Q971 495 988 549Q1012 623 1057.0 683.0Q1102 743 1158.0 794.5Q1214 846 1278.0 892.0Q1342 938 1405.0 984.5Q1468 1031 1526.0 1080.0Q1584 1129 1628.0 1186.5Q1672 1244 1698.5 1313.0Q1725 1382 1725 1468Q1725 1540 1703.0 1597.5Q1681 1655 1640.5 1695.0Q1600 1735 1542.5 1756.5Q1485 1778 1413 1778Q1357 1778 1304.0 1763.5Q1251 1749 1202.0 1723.5Q1153 1698 1108.5 1664.5Q1064 1631 1025 1593V1750Q1115 1827 1215.0 1864.5Q1315 1902 1433 1902Q1452 1902 1470.5 1899.0Q1489 1896 1507 1893Q1545 1886 1583.0 1877.0Q1621 1868 1656 1851Q1765 1797 1817.5 1700.0Q1870 1603 1870 1484Q1870 1392 1847.5 1318.0Q1825 1244 1786.5 1182.5Q1748 1121 1696.0 1069.0Q1644 1017 1584.0 969.5Q1524 922 1459.5 876.5Q1395 831 1332 782Q1307 763 1281.0 741.0Q1255 719 1230.5 694.0Q1206 669 1185.0 642.0Q1164 615 1151 587Q1139 561 1132.5 534.5Q1126 508 1121 481Q1117 464 1114.5 448.5Q1112 433 1112 416Z"/>
  </g>
</svg>