<?xml version="1.0" encoding="utf-8"?>
<svg xmlns="http://www.w3.org/2000/svg" width="16" height="16" viewBox="0 0 2048 2048">
  <g transform="translate(0, 2048) scale(1, -1)">
    <path fill="#000000" d="M687 416H1477V288H538V329Q538 386 542.0 440.0Q546 494 563 549Q586 622 630.5 682.0Q675 742 731.0 793.5Q787 845 851.0 891.0Q915 937 978.5 983.5Q1042 1030 1100.0 1079.0Q1158 1128 1202.5 1186.0Q1247 1244 1273.5 1313.0Q1300 1382 1300 1468Q1300 1541 1278.5 1598.5Q1257 1656 1216.5 1696.0Q1176 1736 1118.0 1757.0Q1060 1778 988 1778Q932 1778 879.0 1763.5Q826 1749 777.0 1723.5Q728 1698 683.5 1664.5Q639 1631 600 1593V1750Q690 1827 790.0 1864.5Q890 1902 1008 1902Q1103 1902 1183.0 1873.0Q1263 1844 1321.5 1790.0Q1380 1736 1412.5 1658.5Q1445 1581 1445 1484Q1445 1391 1422.5 1317.0Q1400 1243 1361.5 1181.5Q1323 1120 1270.5 1068.5Q1218 1017 1158.5 970.0Q1099 923 1034.5 877.5Q970 832 907 782Q883 763 856.5 740.5Q830 718 805.5 693.5Q781 669 760.0 642.0Q739 615 726 587Q719 572 712.0 550.0Q705 528 699.5 504.0Q694 480 690.5 456.5Q687 433 687 416Z"/>
  </g>
</svg>