<?xml version="1.0" encoding="utf-8"?>
<svg xmlns="http://www.w3.org/2000/svg" width="16" height="16" viewBox="0 0 2048 2048">
  <g transform="translate(0, 2048) scale(1, -1)">
    <path fill="#000000" d="M1878 907Q1878 828 1821 771L1096 45Q1070 19 1034.0 4.0Q998 -11 960 -11Q922 -11 886.0 4.0Q850 19 824 45L99 771Q73 797 58.0 832.5Q43 868 43 906Q43 939 53.0 969.0Q63 999 83 1025L808 1957Q836 1992 875.5 2010.0Q915 2028 960 2028Q1005 2028 1044.5 2010.0Q1084 1992 1112 1957L1837 1025Q1857 999 1867.5 969.0Q1878 939 1878 907ZM1750 906Q1750 927 1736 946L1011 1879Q992 1904 960 1904Q928 1904 909 1879L184 946Q170 927 170 906Q170 880 189 861L915 136Q934 117 960 117Q986 117 1005 136L1731 861Q1750 880 1750 906ZM1472 960Q1500 960 1518.0 942.0Q1536 924 1536 896Q1536 876 1525.0 859.5Q1514 843 1495 836L1024 660V448Q1024 422 1005.0 403.0Q986 384 960 384Q934 384 915.0 403.0Q896 422 896 448V660L426 836Q407 843 395.5 859.5Q384 876 384 896Q384 923 402.5 941.5Q421 960 448 960Q460 960 471 956L896 797V1344Q896 1370 915.0 1389.0Q934 1408 960 1408Q986 1408 1005.0 1389.0Q1024 1370 1024 1344V797Q1037 802 1073.5 816.0Q1110 830 1157.5 848.0Q1205 866 1257.0 886.0Q1309 906 1354.5 922.5Q1400 939 1432.0 949.5Q1464 960 1472 960Z"/>
  </g>
</svg>