<?xml version="1.0" encoding="utf-8"?>
<svg xmlns="http://www.w3.org/2000/svg" width="16" height="16" viewBox="0 0 2048 2048">
  <g transform="translate(0, 2048) scale(1, -1)">
    <path fill="#000000" d="M1084 1281Q1189 1281 1271.5 1242.0Q1354 1203 1411.0 1136.0Q1468 1069 1497.5 980.5Q1527 892 1527 792Q1527 684 1493.5 587.5Q1460 491 1397.5 418.5Q1335 346 1245.0 303.5Q1155 261 1041 261Q943 261 869.5 293.0Q796 325 741.5 379.0Q687 433 651.0 505.0Q615 577 593.5 657.5Q572 738 563.0 822.0Q554 906 554 985Q554 1084 567.0 1190.5Q580 1297 610.0 1399.0Q640 1501 688.5 1592.5Q737 1684 807.0 1752.5Q877 1821 971.0 1861.5Q1065 1902 1186 1902Q1249 1902 1311.5 1892.5Q1374 1883 1433 1859V1719Q1376 1748 1313.5 1763.0Q1251 1778 1187 1778Q1094 1778 1021.5 1745.0Q949 1712 895.0 1656.0Q841 1600 803.5 1526.5Q766 1453 743.0 1371.5Q720 1290 710.0 1206.5Q700 1123 700 1048H705Q763 1166 858.0 1223.5Q953 1281 1084 1281ZM1049 384Q1129 384 1191.0 416.5Q1253 449 1295.0 503.0Q1337 557 1359.0 626.5Q1381 696 1381 770Q1381 848 1361.5 918.0Q1342 988 1301.5 1041.0Q1261 1094 1199.0 1125.5Q1137 1157 1052 1157Q981 1157 919.0 1128.5Q857 1100 811.0 1052.0Q765 1004 739.0 940.5Q713 877 713 807Q713 733 734.0 657.5Q755 582 797.0 521.5Q839 461 902.0 422.5Q965 384 1049 384Z"/>
  </g>
</svg>