<?xml version="1.0" encoding="utf-8"?>
<svg xmlns="http://www.w3.org/2000/svg" width="16" height="16" viewBox="0 0 2048 2048">
  <g transform="translate(0, 2048) scale(1, -1)">
    <path fill="#000000" d="M128 1342Q128 1376 145.0 1405.5Q162 1435 191 1452L960 1902Q990 1920 1025 1920Q1060 1920 1090 1902L1859 1452Q1888 1435 1905.0 1405.0Q1922 1375 1922 1341Q1922 1307 1905.0 1277.5Q1888 1248 1859 1231L1090 783Q1076 775 1059.5 770.0Q1043 765 1026 765Q991 765 961 783L192 1231Q163 1248 145.5 1278.0Q128 1308 128 1342ZM1026 914Q1061 914 1090 931L1794 1342L1090 1754Q1060 1772 1025 1772Q990 1772 960 1754L256 1342L961 931Q975 923 992.0 918.5Q1009 914 1026 914ZM128 1016Q128 1043 138 1066L962 602Q990 586 1025 586Q1060 586 1088 602L1912 1066Q1922 1043 1922 1016Q1922 982 1905.0 952.0Q1888 922 1859 905L1090 457Q1076 449 1059.5 444.0Q1043 439 1026 439Q991 439 961 457L192 905Q163 922 145.5 952.0Q128 982 128 1016ZM128 702Q128 729 138 752L962 289Q990 273 1025 273Q1060 273 1088 289L1912 752Q1922 729 1922 702Q1922 668 1905.0 638.0Q1888 608 1859 591L1090 143Q1076 135 1059.5 130.0Q1043 125 1026 125Q991 125 961 143L192 591Q163 608 145.5 638.0Q128 668 128 702Z"/>
  </g>
</svg>