<?xml version="1.0" encoding="utf-8"?>
<svg xmlns="http://www.w3.org/2000/svg" width="16" height="16" viewBox="0 0 2048 2048">
  <g transform="translate(0, 2048) scale(1, -1)">
    <path fill="#000000" d="M1224 1144Q1288 1119 1342.0 1077.5Q1396 1036 1434.0 982.5Q1472 929 1493.5 865.0Q1515 801 1515 731Q1515 621 1478.0 534.5Q1441 448 1376.0 387.5Q1311 327 1220.5 295.0Q1130 263 1024 263Q918 263 828.0 295.5Q738 328 672.5 388.5Q607 449 570.0 535.5Q533 622 533 731Q533 801 555.0 865.5Q577 930 616.0 984.0Q655 1038 709.5 1079.0Q764 1120 829 1144Q778 1169 735.0 1205.5Q692 1242 660.5 1287.0Q629 1332 611.5 1385.0Q594 1438 594 1496Q594 1587 628.5 1662.0Q663 1737 721.5 1790.0Q780 1843 858.5 1872.5Q937 1902 1025 1902Q1113 1902 1191.0 1872.5Q1269 1843 1327.5 1789.5Q1386 1736 1420.5 1661.5Q1455 1587 1455 1496Q1455 1437 1437.5 1385.0Q1420 1333 1389.5 1288.5Q1359 1244 1316.5 1207.5Q1274 1171 1224 1144ZM740 1488Q740 1428 762.0 1375.0Q784 1322 822.0 1283.0Q860 1244 912.5 1221.0Q965 1198 1025 1198Q1085 1198 1137.0 1221.0Q1189 1244 1227.5 1283.5Q1266 1323 1288.0 1376.0Q1310 1429 1310 1488Q1310 1548 1288.0 1601.0Q1266 1654 1228.0 1693.5Q1190 1733 1138.0 1756.0Q1086 1779 1025 1779Q963 1779 911.0 1756.5Q859 1734 821.0 1694.5Q783 1655 761.5 1602.0Q740 1549 740 1488ZM1024 388Q1100 388 1163.0 413.5Q1226 439 1270.0 484.5Q1314 530 1338.5 593.5Q1363 657 1363 733Q1363 806 1337.5 869.0Q1312 932 1267.0 978.0Q1222 1024 1159.5 1050.0Q1097 1076 1024 1076Q950 1076 887.5 1050.0Q825 1024 780.0 978.5Q735 933 710.0 870.0Q685 807 685 733Q685 656 709.0 592.5Q733 529 777.0 483.5Q821 438 883.5 413.0Q946 388 1024 388Z"/>
  </g>
</svg>