<?xml version="1.0" encoding="utf-8"?>
<svg xmlns="http://www.w3.org/2000/svg" width="16" height="16" viewBox="0 0 2048 2048">
  <g transform="translate(0, 2048) scale(1, -1)">
    <path fill="#000000" d="M92 1500V1625Q227 1668 346.5 1742.5Q466 1817 572 1910H613V288H471V1707Q435 1677 388.5 1645.5Q342 1614 291.0 1586.5Q240 1559 188.5 1536.0Q137 1513 92 1500ZM1466 1902Q1572 1902 1649.0 1864.0Q1726 1826 1779.0 1762.5Q1832 1699 1864.5 1616.0Q1897 1533 1914.5 1442.5Q1932 1352 1938.0 1260.5Q1944 1169 1944 1088Q1944 1004 1936.0 910.0Q1928 816 1907.0 724.5Q1886 633 1850.0 549.0Q1814 465 1757.0 401.5Q1700 338 1620.0 300.0Q1540 262 1432 262Q1330 262 1254.5 298.0Q1179 334 1125.0 395.0Q1071 456 1037.0 536.0Q1003 616 983.0 703.5Q963 791 955.5 880.0Q948 969 948 1048Q948 1134 955.5 1230.5Q963 1327 983.5 1422.0Q1004 1517 1040.0 1604.0Q1076 1691 1133.5 1757.0Q1191 1823 1272.5 1862.5Q1354 1902 1466 1902ZM1447 383Q1526 383 1583.0 418.0Q1640 453 1679.0 510.0Q1718 567 1741.5 640.0Q1765 713 1777.5 789.5Q1790 866 1794.0 939.0Q1798 1012 1798 1070Q1798 1127 1795.0 1202.0Q1792 1277 1781.0 1355.5Q1770 1434 1748.0 1510.0Q1726 1586 1688.0 1645.5Q1650 1705 1593.5 1741.5Q1537 1778 1457 1778Q1373 1778 1314.0 1741.5Q1255 1705 1214.5 1645.5Q1174 1586 1150.0 1509.5Q1126 1433 1113.5 1353.0Q1101 1273 1097.5 1196.0Q1094 1119 1094 1059Q1094 1000 1098.0 927.5Q1102 855 1114.5 780.0Q1127 705 1150.5 633.5Q1174 562 1213.0 506.5Q1252 451 1309.5 417.0Q1367 383 1447 383Z"/>
  </g>
</svg>