<?xml version="1.0" encoding="utf-8"?>
<svg xmlns="http://www.w3.org/2000/svg" width="16" height="16" viewBox="0 0 2048 2048">
  <g transform="translate(0, 2048) scale(1, -1)">
    <path fill="#ffffff" d="M1078 1116Q1157 1107 1225.0 1076.5Q1293 1046 1342.0 996.5Q1391 947 1419.0 880.0Q1447 813 1447 730Q1447 614 1403.5 526.0Q1360 438 1286.5 379.0Q1213 320 1116.0 290.5Q1019 261 911 261Q819 261 730.5 280.5Q642 300 561 346V502Q639 447 728.5 415.0Q818 383 915 383Q993 383 1063.0 403.0Q1133 423 1186.0 463.5Q1239 504 1270.0 566.5Q1301 629 1301 714Q1301 782 1282.5 833.0Q1264 884 1232.0 921.0Q1200 958 1156.0 982.5Q1112 1007 1061.0 1021.5Q1010 1036 953.5 1042.0Q897 1048 841 1048H715V1171H831Q912 1171 986.5 1185.5Q1061 1200 1118.5 1236.5Q1176 1273 1210.5 1334.5Q1245 1396 1245 1490Q1245 1565 1223.5 1619.0Q1202 1673 1162.5 1708.5Q1123 1744 1066.0 1761.0Q1009 1778 937 1778Q850 1778 771.5 1748.0Q693 1718 623 1669V1812Q704 1856 789.5 1879.0Q875 1902 967 1902Q1053 1902 1130.5 1878.0Q1208 1854 1266.0 1806.5Q1324 1759 1358.0 1688.5Q1392 1618 1392 1526Q1392 1363 1312.5 1263.5Q1233 1164 1078 1120Z"/>
  </g>
</svg>