<?xml version="1.0" encoding="utf-8"?>
<svg xmlns="http://www.w3.org/2000/svg" width="16" height="16" viewBox="0 0 2048 2048">
  <g transform="translate(0, 2048) scale(1, -1)">
    <path fill="#000000" d="M264 1500V1625Q399 1668 518.5 1742.5Q638 1817 744 1910H785V288H643V1707Q607 1677 560.5 1645.5Q514 1614 463.0 1586.5Q412 1559 360.5 1536.0Q309 1513 264 1500ZM1594 1910H1635V288H1493V1707Q1456 1675 1409.5 1644.0Q1363 1613 1313.0 1586.0Q1263 1559 1212.0 1536.5Q1161 1514 1114 1500V1625Q1249 1670 1367.5 1744.5Q1486 1819 1594 1910Z"/>
  </g>
</svg>