<?xml version="1.0" encoding="utf-8"?>
<svg xmlns="http://www.w3.org/2000/svg" width="16" height="16" viewBox="0 0 2048 2048">
  <g transform="translate(0, 2048) scale(1, -1)">
    <path fill="#000000" d="M0 535V1513Q0 1541 9.0 1569.0Q18 1597 34.0 1620.5Q50 1644 72.0 1662.5Q94 1681 121 1692L858 1986Q939 2018 1024 2018Q1109 2018 1190 1986L1927 1692Q1954 1681 1976.0 1662.5Q1998 1644 2014.0 1620.5Q2030 1597 2039.0 1569.0Q2048 1541 2048 1513V535Q2048 506 2039.0 478.5Q2030 451 2014.0 427.5Q1998 404 1976.0 385.0Q1954 366 1927 356L1190 62Q1109 30 1024 30Q939 30 858 62L121 356Q94 366 72.0 385.0Q50 404 34.0 427.5Q18 451 9.0 478.5Q0 506 0 535ZM1024 158Q1087 158 1143 180L1880 475Q1898 483 1909.0 499.0Q1920 515 1920 535V1513Q1920 1533 1909.0 1549.0Q1898 1565 1880 1573L1143 1868Q1085 1891 1024 1891Q963 1891 905 1868L168 1573Q150 1565 139.0 1549.0Q128 1533 128 1513V535Q128 515 139.0 499.0Q150 483 168 475L905 180Q961 158 1024 158ZM960 1174 422 1414Q405 1422 394.5 1437.0Q384 1452 384 1472Q384 1498 402.5 1517.0Q421 1536 447 1536Q460 1536 474 1530L1024 1286L1574 1530Q1586 1536 1600 1536Q1626 1536 1645.0 1517.0Q1664 1498 1664 1472Q1664 1452 1653.5 1437.0Q1643 1422 1626 1414L1088 1174V576Q1088 550 1069.0 531.0Q1050 512 1024 512Q998 512 979.0 531.0Q960 550 960 576Z"/>
  </g>
</svg>