<?xml version="1.0" encoding="utf-8"?>
<svg xmlns="http://www.w3.org/2000/svg" width="16" height="16" viewBox="0 0 2048 2048">
  <g transform="translate(0, 2048) scale(1, -1)">
    <path fill="#ffffff" d="M92 1500V1625Q227 1668 346.5 1742.5Q466 1817 572 1910H613V288H471V1707Q435 1677 388.5 1645.5Q342 1614 291.0 1586.5Q240 1559 188.5 1536.0Q137 1513 92 1500ZM1503 1120V1116Q1582 1107 1650.0 1076.5Q1718 1046 1767.0 996.5Q1816 947 1844.0 880.0Q1872 813 1872 730Q1872 614 1828.5 526.0Q1785 438 1711.5 379.0Q1638 320 1541.0 290.5Q1444 261 1336 261Q1244 261 1155.5 280.5Q1067 300 986 346V502Q1064 447 1153.5 415.0Q1243 383 1340 383Q1418 383 1488.0 403.0Q1558 423 1611.0 463.5Q1664 504 1695.0 566.5Q1726 629 1726 714Q1726 815 1686.0 880.0Q1646 945 1580.5 982.5Q1515 1020 1432.5 1034.0Q1350 1048 1266 1048H1140V1171H1256Q1337 1171 1411.5 1185.5Q1486 1200 1543.5 1236.5Q1601 1273 1635.5 1334.5Q1670 1396 1670 1490Q1670 1565 1648.5 1619.0Q1627 1673 1587.5 1708.5Q1548 1744 1491.0 1761.0Q1434 1778 1362 1778Q1275 1778 1196.5 1748.0Q1118 1718 1048 1669V1812Q1129 1856 1214.5 1879.0Q1300 1902 1392 1902Q1478 1902 1555.5 1878.0Q1633 1854 1691.0 1806.5Q1749 1759 1783.0 1688.5Q1817 1618 1817 1526Q1817 1363 1737.5 1263.5Q1658 1164 1503 1120Z"/>
  </g>
</svg>