<?xml version="1.0" encoding="utf-8"?>
<svg xmlns="http://www.w3.org/2000/svg" width="16" height="16" viewBox="0 0 2048 2048">
  <g transform="translate(0, 2048) scale(1, -1)">
    <path fill="#000000" d="M92 1500V1625Q227 1668 346.5 1742.5Q466 1817 572 1910H613V288H471V1707Q435 1677 388.5 1645.5Q342 1614 291.0 1586.5Q240 1559 188.5 1536.0Q137 1513 92 1500ZM1509 1281Q1614 1281 1696.5 1242.0Q1779 1203 1836.0 1136.0Q1893 1069 1922.5 980.5Q1952 892 1952 792Q1952 684 1918.5 587.5Q1885 491 1822.5 418.5Q1760 346 1670.0 303.5Q1580 261 1466 261Q1368 261 1294.5 293.0Q1221 325 1166.5 379.0Q1112 433 1076.0 505.0Q1040 577 1018.5 657.5Q997 738 988.0 822.0Q979 906 979 985Q979 1084 992.0 1190.5Q1005 1297 1035.0 1399.0Q1065 1501 1113.5 1592.5Q1162 1684 1232.0 1752.5Q1302 1821 1396.0 1861.5Q1490 1902 1611 1902Q1674 1902 1736.5 1892.5Q1799 1883 1858 1859V1719Q1801 1748 1738.5 1763.0Q1676 1778 1612 1778Q1519 1778 1446.5 1745.0Q1374 1712 1320.0 1656.0Q1266 1600 1228.5 1526.5Q1191 1453 1168.0 1371.5Q1145 1290 1135.0 1206.5Q1125 1123 1125 1048H1130Q1188 1166 1283.0 1223.5Q1378 1281 1509 1281ZM1474 384Q1554 384 1616.0 416.5Q1678 449 1720.0 503.0Q1762 557 1784.0 626.5Q1806 696 1806 770Q1806 847 1786.5 917.0Q1767 987 1726.5 1040.5Q1686 1094 1624.0 1125.5Q1562 1157 1477 1157Q1406 1157 1344.0 1128.5Q1282 1100 1236.0 1052.0Q1190 1004 1163.5 940.5Q1137 877 1137 807Q1137 758 1146.5 707.5Q1156 657 1175.0 610.0Q1194 563 1222.0 521.5Q1250 480 1287.5 449.5Q1325 419 1371.5 401.5Q1418 384 1474 384Z"/>
  </g>
</svg>