<?xml version="1.0" encoding="utf-8"?>
<svg xmlns="http://www.w3.org/2000/svg" width="16" height="16" viewBox="0 0 2048 2048">
  <g transform="translate(0, 2048) scale(1, -1)">
    <path fill="#ffffff" d="M27 1258Q27 1293 30.0 1337.5Q33 1382 46 1414Q68 1471 114.0 1517.5Q160 1564 210 1596Q289 1648 383.0 1683.5Q477 1719 576.5 1741.5Q676 1764 777.0 1774.0Q878 1784 971 1784Q1046 1784 1129.0 1777.5Q1212 1771 1296.5 1755.0Q1381 1739 1464.0 1713.5Q1547 1688 1621.5 1650.0Q1696 1612 1759.0 1560.5Q1822 1509 1867 1442Q1888 1410 1894.5 1380.0Q1901 1350 1901 1312Q1901 1275 1898.5 1234.5Q1896 1194 1888.5 1153.5Q1881 1113 1867.0 1076.0Q1853 1039 1830.0 1009.0Q1807 979 1774.5 959.0Q1742 939 1696 933Q1675 930 1653.5 929.5Q1632 929 1610 929Q1556 929 1501.5 933.5Q1447 938 1399.5 955.5Q1352 973 1316.5 1008.5Q1281 1044 1265 1106Q1263 1113 1260.0 1130.0Q1257 1147 1253.0 1168.0Q1249 1189 1244.5 1212.0Q1240 1235 1235.0 1254.0Q1230 1273 1225.0 1286.0Q1220 1299 1216 1301Q1193 1310 1161.5 1316.0Q1130 1322 1095.5 1325.0Q1061 1328 1028.0 1329.5Q995 1331 971 1331Q944 1331 911.5 1330.0Q879 1329 845.5 1325.5Q812 1322 780.5 1316.5Q749 1311 723 1302Q698 1294 690 1265L646 1091Q631 1031 594.0 995.5Q557 960 509.0 941.5Q461 923 406.0 917.0Q351 911 299 911Q294 911 288 911L269 912Q264 912 258 912Q217 913 180.0 928.0Q143 943 114.0 968.0Q85 993 65.5 1027.5Q46 1062 39 1103Q27 1179 27 1258ZM300 1039Q342 1039 383.5 1043.0Q425 1047 464 1060Q487 1068 501.5 1084.0Q516 1100 522 1123Q528 1145 533 1167L555 1253Q561 1275 566 1297Q578 1345 610.5 1378.5Q643 1412 690 1426Q757 1446 828.5 1452.0Q900 1458 969 1458Q1000 1458 1037.5 1456.5Q1075 1455 1113.5 1451.0Q1152 1447 1188.5 1440.0Q1225 1433 1255 1423Q1293 1409 1317.0 1382.0Q1341 1355 1352 1317Q1366 1272 1372.5 1226.5Q1379 1181 1390 1136Q1397 1107 1417.5 1090.0Q1438 1073 1466 1068Q1501 1062 1538.0 1059.5Q1575 1057 1611 1057Q1628 1057 1646.5 1057.5Q1665 1058 1682 1060Q1708 1064 1724.5 1080.5Q1741 1097 1748 1122Q1761 1167 1767.0 1215.0Q1773 1263 1773 1310V1319Q1773 1333 1771.0 1345.0Q1769 1357 1761 1370Q1723 1427 1667.0 1470.5Q1611 1514 1544.5 1545.5Q1478 1577 1403.5 1598.5Q1329 1620 1254.5 1632.5Q1180 1645 1107.5 1650.5Q1035 1656 972 1656Q930 1656 889.0 1654.0Q848 1652 806 1648Q737 1642 656.0 1627.5Q575 1613 495.0 1588.5Q415 1564 342.5 1528.0Q270 1492 219 1441Q204 1426 187.5 1404.5Q171 1383 164 1362Q161 1353 159.0 1338.5Q157 1324 156.0 1308.5Q155 1293 154.5 1278.0Q154 1263 154 1253Q154 1221 156.5 1188.0Q159 1155 165 1123Q170 1095 183.0 1078.5Q196 1062 214.0 1053.0Q232 1044 254.0 1041.5Q276 1039 300 1039ZM512 672Q512 712 540.0 740.0Q568 768 608 768Q648 768 676.0 740.0Q704 712 704 672Q704 632 676.0 604.0Q648 576 608 576Q568 576 540.0 604.0Q512 632 512 672ZM896 672Q896 712 924.0 740.0Q952 768 992 768Q1032 768 1060.0 740.0Q1088 712 1088 672Q1088 632 1060.0 604.0Q1032 576 992 576Q952 576 924.0 604.0Q896 632 896 672ZM1280 672Q1280 712 1308.0 740.0Q1336 768 1376 768Q1416 768 1444.0 740.0Q1472 712 1472 672Q1472 632 1444.0 604.0Q1416 576 1376 576Q1336 576 1308.0 604.0Q1280 632 1280 672ZM704 288Q704 328 732.0 356.0Q760 384 800 384Q840 384 868.0 356.0Q896 328 896 288Q896 248 868.0 220.0Q840 192 800 192Q760 192 732.0 220.0Q704 248 704 288ZM1088 288Q1088 328 1116.0 356.0Q1144 384 1184 384Q1224 384 1252.0 356.0Q1280 328 1280 288Q1280 248 1252.0 220.0Q1224 192 1184 192Q1144 192 1116.0 220.0Q1088 248 1088 288Z"/>
  </g>
</svg>