<?xml version="1.0" encoding="utf-8"?>
<svg xmlns="http://www.w3.org/2000/svg" width="16" height="16" viewBox="0 0 2048 2048">
  <g transform="translate(0, 2048) scale(1, -1)">
    <path fill="#ffffff" d="M0 576Q0 593 10 610L906 2018Q915 2032 929.5 2039.0Q944 2046 960 2046Q996 2046 1014 2018L1910 610Q1920 593 1920 576Q1920 559 1911.5 543.5Q1903 528 1888 520L992 8Q986 4 977.0 2.0Q968 0 960 0Q952 0 943.0 2.0Q934 4 928 8L32 520Q17 528 8.5 543.5Q0 559 0 576ZM154 598 960 138 1766 598 960 1865ZM896 448V1344Q896 1370 915.0 1389.0Q934 1408 960 1408Q986 1408 1005.0 1389.0Q1024 1370 1024 1344V448Q1024 422 1005.0 403.0Q986 384 960 384Q934 384 915.0 403.0Q896 422 896 448Z"/>
  </g>
</svg>