<?xml version="1.0" encoding="utf-8"?>
<svg xmlns="http://www.w3.org/2000/svg" width="16" height="16" viewBox="0 0 2048 2048">
  <g transform="translate(0, 2048) scale(1, -1)">
    <path fill="#000000" d="M937 1239Q1050 1239 1145.5 1210.0Q1241 1181 1310.5 1122.5Q1380 1064 1419.0 975.0Q1458 886 1458 766Q1458 642 1417.0 548.0Q1376 454 1303.5 390.5Q1231 327 1131.0 294.5Q1031 262 913 262Q833 262 753.5 274.0Q674 286 602 324V479Q674 434 754.0 408.5Q834 383 919 383Q1004 383 1076.5 408.0Q1149 433 1201.5 480.5Q1254 528 1283.5 597.0Q1313 666 1313 754Q1313 854 1281.0 922.5Q1249 991 1192.0 1033.0Q1135 1075 1057.5 1093.5Q980 1112 890 1112Q829 1112 768.5 1108.0Q708 1104 648 1099L697 1875H1389V1747H818L785 1232Q823 1235 861.0 1237.0Q899 1239 937 1239Z"/>
  </g>
</svg>