<?xml version="1.0" encoding="utf-8"?>
<svg xmlns="http://www.w3.org/2000/svg" width="16" height="16" viewBox="0 0 2048 2048">
  <g transform="translate(0, 2048) scale(1, -1)">
    <path fill="#000000" d="M67 1500V1625Q202 1668 321.5 1742.5Q441 1817 547 1910H588V288H446V1707Q410 1677 363.5 1645.5Q317 1614 266.0 1586.5Q215 1559 163.5 1536.0Q112 1513 67 1500ZM1772 811H2020V682H1772V288H1632V682H880V811Q986 931 1089.0 1058.0Q1192 1185 1287.5 1318.0Q1383 1451 1467.5 1590.5Q1552 1730 1621 1875H1772ZM1632 811V1648Q1501 1425 1353.5 1217.5Q1206 1010 1041 811Z"/>
  </g>
</svg>