<?xml version="1.0" encoding="utf-8"?>
<svg id="" width="16" height="16" style="width:16px;height:16px;" version="1.1" xmlns="http://www.w3.org/2000/svg" viewBox="0 0 2048 2048" enable-background="new 0 0 2048 2048" xml:space="preserve">
    <path fill="#ffffff" d="M824 1920 q27 36 59 68 q32 32 67 60 l-635 0 q-50 0 -95.5 -20.5 q-45.5 -20.5 -80 -55 q-34.5 -34.5 -55 -80 q-20.5 -45.5 -20.5 -95.5 l0 -1546 q0 -50 20.5 -95.5 q20.5 -45.5 55 -80 q34.5 -34.5 80 -55 q45.5 -20.5 95.5 -20.5 l1034 0 q50 0 95.5 20.5 q45.5 20.5 80 55 q34.5 34.5 55 80 q20.5 45.5 20.5 95.5 l0 510 q-32 -9 -64 -14 q-32 -5 -64 -8 l0 -483 q0 -26 -10 -49.5 q-10 -23.5 -27.5 -41 q-17.5 -17.5 -41 -27.5 q-23.5 -10 -49.5 -10 l-1024 0 q-27 0 -50 10 q-23 10 -40.5 27.5 q-17.5 17.5 -27.5 40.5 q-10 23 -10 50 l0 1408 l505 0 q18 67 48 128 l-553 0 q0 27 10 50.5 q10 23.5 27 40.5 q17 17 40.5 27 q23.5 10 50.5 10 l504 0 ZM1216 256 q26 0 49.5 10 q23.5 10 41 27.5 q17.5 17.5 27.5 41 q10 23.5 10 49.5 l0 128 q0 27 -10 50 q-10 23 -27.5 40.5 q-17.5 17.5 -40.5 27.5 q-23 10 -50 10 l-768 0 q-27 0 -50.5 -10 q-23.5 -10 -40.5 -27 q-17 -17 -27 -40.5 q-10 -23.5 -10 -50.5 l0 -128 q0 -27 10 -50 q10 -23 27.5 -40.5 q17.5 -17.5 40.5 -27.5 q23 -10 50 -10 l768 0 ZM448 512 l768 0 l0 -128 l-768 0 l0 128 ZM1984 1472 q0 119 -45.5 224 q-45.5 105 -123.5 183 q-78 78 -183 123.5 q-105 45.5 -224 45.5 q-120 0 -225 -45 q-105 -45 -183 -123 q-78 -78 -123 -183 q-45 -105 -45 -225 q0 -119 45.5 -224 q45.5 -105 123.5 -183 q78 -78 183 -123.5 q105 -45.5 224 -45.5 q79 0 152.5 20.5 q73.5 20.5 137.5 58 q64 37.5 117 90.5 q53 53 90.5 117 q37.5 64 58 137.5 q20.5 73.5 20.5 152.5 ZM1728 1472 q0 -26 -19 -45 q-19 -19 -45 -19 l-192 0 l0 -192 q0 -26 -19 -45 q-19 -19 -45 -19 q-26 0 -45 19 q-19 19 -19 45 l0 192 l-192 0 q-26 0 -45 19 q-19 19 -19 45 q0 26 19 45 q19 19 45 19 l192 0 l0 192 q0 26 19 45 q19 19 45 19 q26 0 45 -19 q19 -19 19 -45 l0 -192 l192 0 q26 0 45 -19 q19 -19 19 -45 Z"/>
</svg>