<?xml version="1.0" encoding="utf-8"?>
<svg xmlns="http://www.w3.org/2000/svg" width="16" height="16" viewBox="0 0 2048 2048">
  <g transform="translate(0, 2048) scale(1, -1)">
    <path fill="#000000" d="M636 128Q663 57 711 0H379Q329 0 283.5 20.5Q238 41 203.5 75.5Q169 110 148.5 155.5Q128 201 128 251V1797Q128 1847 148.5 1892.5Q169 1938 203.5 1972.5Q238 2007 283.5 2027.5Q329 2048 379 2048H1413Q1463 2048 1508.5 2027.5Q1554 2007 1588.5 1972.5Q1623 1938 1643.5 1892.5Q1664 1847 1664 1797V993Q1634 1009 1601.5 1021.0Q1569 1033 1536 1041V1792Q1536 1818 1526.0 1841.5Q1516 1865 1498.5 1882.5Q1481 1900 1457.5 1910.0Q1434 1920 1408 1920H384Q357 1920 334.0 1910.0Q311 1900 293.5 1882.5Q276 1865 266.0 1842.0Q256 1819 256 1792V384H619Q614 361 610.5 335.5Q607 310 607 285Q607 277 607.5 270.0Q608 263 609 256H256Q256 229 266.0 205.5Q276 182 293.0 165.0Q310 148 333.5 138.0Q357 128 384 128ZM1280 1792Q1306 1792 1329.5 1782.0Q1353 1772 1370.5 1754.5Q1388 1737 1398.0 1713.5Q1408 1690 1408 1664V1536Q1408 1509 1398.0 1486.0Q1388 1463 1370.5 1445.5Q1353 1428 1330.0 1418.0Q1307 1408 1280 1408H512Q485 1408 461.5 1418.0Q438 1428 421.0 1445.0Q404 1462 394.0 1485.5Q384 1509 384 1536V1664Q384 1691 394.0 1714.0Q404 1737 421.5 1754.5Q439 1772 462.0 1782.0Q485 1792 512 1792ZM512 1536H1280V1664H512ZM2048 280Q2048 224 2025.5 173.0Q2003 122 1964.5 83.5Q1926 45 1875.0 22.5Q1824 0 1768 0H1048Q990 0 939.0 23.0Q888 46 850.0 85.5Q812 125 790.0 176.5Q768 228 768 285Q768 339 787.5 388.0Q807 437 841.0 476.0Q875 515 922.0 539.5Q969 564 1023 568Q1033 638 1068.0 698.5Q1103 759 1155.0 802.5Q1207 846 1272.5 871.0Q1338 896 1408 896Q1478 896 1543.5 871.0Q1609 846 1661.0 802.5Q1713 759 1748.0 698.5Q1783 638 1793 568Q1845 564 1891.5 539.5Q1938 515 1973.0 477.0Q2008 439 2028.0 390.5Q2048 342 2048 290Z"/>
  </g>
</svg>