<?xml version="1.0" encoding="utf-8"?>
<svg xmlns="http://www.w3.org/2000/svg" width="16" height="16" viewBox="0 0 2048 2048">
  <g transform="translate(0, 2048) scale(1, -1)">
    <path fill="#000000" d="M2048 1984Q2048 1977 2046 1967L1854 1263Q1848 1241 1831.5 1228.5Q1815 1216 1792 1216Q1766 1216 1747 1235L1536 1446L896 806V501Q896 463 881.0 427.0Q866 391 840 365L493 19Q474 0 448 0Q421 0 402.5 18.5Q384 37 384 64V384H64Q38 384 19.0 403.0Q0 422 0 448Q0 474 19 493L365 840Q392 867 427.5 881.5Q463 896 501 896H806L1446 1536L1235 1747Q1216 1766 1216 1792Q1216 1815 1228.5 1831.5Q1241 1848 1263 1854L1967 2046Q1977 2048 1984 2048Q2010 2048 2029.0 2029.0Q2048 2010 2048 1984ZM1403 1759 1759 1403 1893 1893ZM768 768H501Q475 768 456 749L218 512H448Q474 512 493.0 493.0Q512 474 512 448V219L749 456Q768 475 768 501Z"/>
  </g>
</svg>