<?xml version="1.0" encoding="utf-8"?>
<svg xmlns="http://www.w3.org/2000/svg" width="16" height="16" viewBox="0 0 2048 2048">
  <g transform="translate(0, 2048) scale(1, -1)">
    <path fill="#000000" d="M697 0Q634 0 577.0 25.5Q520 51 477.5 93.5Q435 136 409.5 193.0Q384 250 384 313V1735Q384 1798 409.5 1855.0Q435 1912 477.5 1954.5Q520 1997 577.0 2022.5Q634 2048 697 2048H1351Q1414 2048 1471.0 2022.5Q1528 1997 1570.5 1954.5Q1613 1912 1638.5 1855.0Q1664 1798 1664 1735V313Q1664 250 1638.5 193.0Q1613 136 1570.5 93.5Q1528 51 1471.0 25.5Q1414 0 1351 0ZM1344 128Q1383 128 1418.0 143.0Q1453 158 1479.5 184.5Q1506 211 1521.0 246.0Q1536 281 1536 320V1728Q1536 1767 1521.0 1802.0Q1506 1837 1479.5 1863.5Q1453 1890 1418.0 1905.0Q1383 1920 1344 1920H704Q665 1920 630.0 1905.0Q595 1890 568.5 1863.5Q542 1837 527.0 1802.0Q512 1767 512 1728V320Q512 281 527.0 246.0Q542 211 568.5 184.5Q595 158 630.0 143.0Q665 128 704 128ZM832 1536Q806 1536 787.0 1555.0Q768 1574 768 1600Q768 1626 787.0 1645.0Q806 1664 832 1664H1216Q1242 1664 1261.0 1645.0Q1280 1626 1280 1600Q1280 1574 1261.0 1555.0Q1242 1536 1216 1536ZM832 1280Q806 1280 787.0 1299.0Q768 1318 768 1344Q768 1370 787.0 1389.0Q806 1408 832 1408H1216Q1242 1408 1261.0 1389.0Q1280 1370 1280 1344Q1280 1318 1261.0 1299.0Q1242 1280 1216 1280Z"/>
  </g>
</svg>