<?xml version="1.0" encoding="utf-8"?>
<svg xmlns="http://www.w3.org/2000/svg" width="16" height="16" viewBox="0 0 2048 2048">
  <g transform="translate(0, 2048) scale(1, -1)">
    <path fill="#000000" d="M541 1779 448 1871Q576 1959 722.5 2003.5Q869 2048 1024 2048Q1165 2048 1296.0 2011.5Q1427 1975 1540.5 1908.0Q1654 1841 1747.5 1747.5Q1841 1654 1907.5 1540.5Q1974 1427 2010.5 1296.0Q2047 1165 2047 1024Q2047 869 2002.5 723.0Q1958 577 1870 449L1778 542Q1847 651 1883.0 773.0Q1919 895 1919 1024Q1919 1148 1887.0 1262.5Q1855 1377 1796.5 1476.5Q1738 1576 1656.5 1657.5Q1575 1739 1475.5 1797.5Q1376 1856 1261.5 1888.0Q1147 1920 1023 1920Q893 1920 771.5 1884.0Q650 1848 541 1779ZM2048 64Q2048 38 2029.0 19.0Q2010 0 1984 0Q1958 0 1939 19L1701 257Q1632 195 1552.0 147.5Q1472 100 1386.0 67.5Q1300 35 1209.0 18.0Q1118 1 1025 1Q884 1 753.0 37.5Q622 74 508.0 140.5Q394 207 300.5 300.5Q207 394 140.0 507.5Q73 621 36.5 752.0Q0 883 0 1024Q0 1050 19.0 1069.0Q38 1088 64 1088Q90 1088 109.0 1069.0Q128 1050 128 1024Q128 861 185.5 708.0Q243 555 351 433Q414 361 491.0 304.5Q568 248 654.0 209.0Q740 170 833.0 149.5Q926 129 1022 129Q1188 129 1336.0 185.5Q1484 242 1610 348L548 1410L549 1408H192Q171 1408 158.0 1416.5Q145 1425 138.5 1438.5Q132 1452 129.5 1468.5Q127 1485 127 1502Q127 1543 127 1584L128 1747Q128 1788 128 1829L130 1828L19 1939Q0 1958 0 1984Q0 2010 19.0 2029.0Q38 2048 64 2048Q90 2048 109 2029L2029 109Q2048 90 2048 64ZM421 1536 423 1535 347 1611Q331 1593 317.0 1574.5Q303 1556 289 1536Z"/>
  </g>
</svg>