<?xml version="1.0" encoding="utf-8"?>
<svg xmlns="http://www.w3.org/2000/svg" width="16" height="16" viewBox="0 0 2048 2048">
  <g transform="translate(0, 2048) scale(1, -1)">
    <path fill="#ffffff" d="M2049 64Q2049 38 2030.0 19.0Q2011 0 1985 0Q1958 0 1939 19L1574 384H1408Q1408 357 1398.0 334.0Q1388 311 1370.5 293.5Q1353 276 1330.0 266.0Q1307 256 1280 256H640Q613 256 589.5 266.0Q566 276 549.0 293.0Q532 310 522.0 333.5Q512 357 512 384H64Q38 384 19.0 403.0Q0 422 0 448Q0 474 19.0 493.0Q38 512 64 512H512Q512 565 549 602Q587 640 640 640H768Q768 667 778.0 690.0Q788 713 805.5 730.5Q823 748 846.0 758.0Q869 768 896 768V1024H251Q201 1024 155.5 1044.5Q110 1065 75.5 1099.5Q41 1134 20.5 1179.5Q0 1225 0 1275V1536Q0 1578 13.0 1616.5Q26 1655 49.5 1687.0Q73 1719 106.0 1743.0Q139 1767 178 1780L19 1939Q0 1958 0 1984Q0 2011 19.5 2029.5Q39 2048 65 2048Q91 2048 110 2029L2030 109Q2049 90 2049 64ZM656 1664 528 1792H1669Q1719 1792 1764.5 1771.5Q1810 1751 1844.5 1716.5Q1879 1682 1899.5 1636.5Q1920 1591 1920 1541V1275Q1920 1225 1899.5 1179.5Q1879 1134 1844.5 1099.5Q1810 1065 1764.5 1044.5Q1719 1024 1669 1024H1296L1168 1152H1664Q1691 1152 1714.0 1162.0Q1737 1172 1754.5 1189.5Q1772 1207 1782.0 1230.0Q1792 1253 1792 1280V1536Q1792 1562 1782.0 1585.5Q1772 1609 1754.5 1626.5Q1737 1644 1713.5 1654.0Q1690 1664 1664 1664ZM806 1152 294 1664H256Q229 1664 206.0 1654.0Q183 1644 165.5 1626.5Q148 1609 138.0 1586.0Q128 1563 128 1536V1280Q128 1253 138.0 1229.5Q148 1206 165.0 1189.0Q182 1172 205.5 1162.0Q229 1152 256 1152ZM1440 1344Q1400 1344 1372.0 1372.0Q1344 1400 1344 1440Q1344 1480 1372.0 1508.0Q1400 1536 1440 1536Q1480 1536 1508.0 1508.0Q1536 1480 1536 1440Q1536 1400 1508.0 1372.0Q1480 1344 1440 1344ZM1024 934V768Q1050 768 1073.5 758.0Q1097 748 1114.5 730.5Q1132 713 1142.0 689.5Q1152 666 1152 640Q1168 640 1184 641H1205Q1221 642 1237 642Q1258 642 1282.5 640.5Q1307 639 1327 631ZM1280 384V512H1088Q1066 512 1053.0 520.5Q1040 529 1033.5 542.5Q1027 556 1025.5 573.0Q1024 590 1024 607V640H896V606Q896 589 894.0 572.0Q892 555 885.5 541.5Q879 528 866.0 520.0Q853 512 832 512H640V384ZM1446 512 1399 559Q1408 536 1408 512Z"/>
  </g>
</svg>