<?xml version="1.0" encoding="utf-8"?>
<svg xmlns="http://www.w3.org/2000/svg" width="16" height="16" viewBox="0 0 2048 2048">
  <g transform="translate(0, 2048) scale(1, -1)">
    <path fill="#000000" d="M1797 2048Q1847 2048 1892.5 2027.5Q1938 2007 1972.5 1972.5Q2007 1938 2027.5 1892.5Q2048 1847 2048 1797V640Q2048 567 2010.5 506.0Q1973 445 1908 412L1807 513Q1831 515 1852.0 526.0Q1873 537 1888.0 554.5Q1903 572 1911.5 594.0Q1920 616 1920 640V1792Q1920 1818 1910.0 1841.5Q1900 1865 1882.5 1882.5Q1865 1900 1841.5 1910.0Q1818 1920 1792 1920H400L272 2048ZM2048 64Q2048 38 2029.0 19.0Q2010 0 1984 0Q1958 0 1939 19L1573 385V384H1408V128H1600Q1626 128 1645.0 109.0Q1664 90 1664 64Q1664 38 1645.0 19.0Q1626 0 1600 0H448Q422 0 403.0 19.0Q384 38 384 64Q384 90 403.0 109.0Q422 128 448 128H640V384H251Q201 384 155.5 404.5Q110 425 75.5 459.5Q41 494 20.5 539.5Q0 585 0 635V1792Q0 1863 35 1922H36Q22 1936 11.0 1950.0Q0 1964 0 1984Q0 2010 19.0 2029.0Q38 2048 64 2048Q90 2048 109 2029L2029 109Q2048 90 2048 64ZM1445 512 1447 511 132 1826Q130 1818 129.0 1809.0Q128 1800 128 1792V640Q128 613 138.0 589.5Q148 566 165.0 549.0Q182 532 205.5 522.0Q229 512 256 512ZM768 128H1280V384H768Z"/>
  </g>
</svg>