<?xml version="1.0" encoding="utf-8"?>
<svg xmlns="http://www.w3.org/2000/svg" width="16" height="16" viewBox="0 0 2048 2048">
  <g transform="translate(0, 2048) scale(1, -1)">
    <path fill="#ffffff" d="M547 394Q547 489 557.5 583.5Q568 678 593 770Q565 769 537.5 768.5Q510 768 482 768Q411 768 346.5 792.0Q282 816 233.5 859.5Q185 903 156.5 963.5Q128 1024 128 1098Q128 1130 134 1162L214 1609Q231 1704 278.5 1784.5Q326 1865 395.5 1923.5Q465 1982 552.0 2015.0Q639 2048 736 2048Q771 2048 806.0 2043.0Q841 2038 875 2029L1534 1847Q1574 1836 1609.0 1814.0Q1644 1792 1671.5 1762.5Q1699 1733 1718.0 1696.5Q1737 1660 1745 1619L1787 1409Q1792 1381 1792 1356Q1792 1303 1773.0 1256.5Q1754 1210 1722.0 1171.0Q1690 1132 1648.5 1102.0Q1607 1072 1561 1052Q1534 1040 1510.0 1027.0Q1486 1014 1463 994Q1390 930 1334.0 864.0Q1278 798 1232.0 727.0Q1186 656 1146.0 579.0Q1106 502 1064 417Q1029 345 1002.5 271.0Q976 197 947 122Q926 68 882.0 34.0Q838 0 778 0Q742 0 714.5 13.0Q687 26 661 52Q625 88 602.5 127.5Q580 167 567.5 210.0Q555 253 551.0 299.0Q547 345 547 394ZM1664 1356Q1664 1370 1661 1384L1620 1594Q1611 1641 1578.5 1676.0Q1546 1711 1500 1724L841 1906Q815 1914 788.5 1917.0Q762 1920 735 1920Q662 1920 596.0 1894.5Q530 1869 477.5 1824.5Q425 1780 389.0 1719.0Q353 1658 340 1586L260 1139Q258 1129 257.0 1119.0Q256 1109 256 1099Q256 1053 274.0 1015.5Q292 978 322.5 951.5Q353 925 393.0 910.5Q433 896 477 896Q499 896 520 897H548Q569 898 591 898Q618 898 641.5 888.5Q665 879 682.5 861.5Q700 844 710.5 821.0Q721 798 721 771Q721 765 720 760L719 753Q718 748 718 742Q717 738 716 734L715 729Q715 725 713 721Q695 640 685.0 560.0Q675 480 675 397Q675 362 677.0 327.0Q679 292 687.5 259.5Q696 227 711.5 196.5Q727 166 754 140Q759 135 764.5 131.5Q770 128 778 128Q795 128 807.0 139.0Q819 150 826 164Q837 187 844.0 211.5Q851 236 859 259Q901 380 958.0 495.5Q1015 611 1078 723Q1138 829 1212.0 919.0Q1286 1009 1377 1089Q1409 1117 1442.5 1135.5Q1476 1154 1514 1171Q1542 1183 1569.0 1201.0Q1596 1219 1617.0 1242.5Q1638 1266 1651.0 1294.5Q1664 1323 1664 1356Z"/>
  </g>
</svg>