<?xml version="1.0" encoding="utf-8"?>
<svg xmlns="http://www.w3.org/2000/svg" width="16" height="16" viewBox="0 0 2048 2048">
  <g transform="translate(0, 2048) scale(1, -1)">
    <path fill="#ffffff" d="M704 0Q665 0 630.0 15.0Q595 30 568.5 56.5Q542 83 527.0 118.0Q512 153 512 192V673Q512 696 506 719L394 1170Q389 1190 386.5 1209.0Q384 1228 384 1248V1856Q384 1895 399.0 1930.0Q414 1965 440.5 1991.5Q467 2018 502.0 2033.0Q537 2048 576 2048H1344Q1383 2048 1418.0 2033.0Q1453 2018 1479.5 1991.5Q1506 1965 1521.0 1930.0Q1536 1895 1536 1856V1248Q1536 1207 1527 1170L1414 719Q1408 696 1408 673V192Q1408 153 1393.0 118.0Q1378 83 1351.5 56.5Q1325 30 1290.0 15.0Q1255 0 1216 0ZM1216 128Q1242 128 1261.0 147.0Q1280 166 1280 192V673Q1280 693 1282.5 711.5Q1285 730 1290 750L1402 1201Q1408 1223 1408 1248V1856Q1408 1882 1389.0 1901.0Q1370 1920 1344 1920H576Q550 1920 531.0 1901.0Q512 1882 512 1856V1248Q512 1223 518 1201L630 750Q635 730 637.5 711.5Q640 693 640 673V192Q640 166 659.0 147.0Q678 128 704 128ZM896 1536Q888 1536 879.5 1535.5Q871 1535 862 1535Q845 1535 828.5 1537.0Q812 1539 798.5 1545.5Q785 1552 776.5 1565.0Q768 1578 768 1600Q768 1622 776.5 1634.5Q785 1647 798.5 1653.5Q812 1660 828.5 1662.0Q845 1664 862 1664H896Q896 1672 895.5 1680.5Q895 1689 895 1698Q895 1715 897.0 1731.5Q899 1748 905.5 1761.5Q912 1775 925.0 1783.5Q938 1792 960 1792Q982 1792 994.5 1783.5Q1007 1775 1013.5 1761.5Q1020 1748 1022.0 1731.5Q1024 1715 1024 1698V1664H1058Q1075 1664 1091.5 1662.0Q1108 1660 1121.5 1653.5Q1135 1647 1143.5 1634.5Q1152 1622 1152 1600Q1152 1578 1143.5 1565.0Q1135 1552 1121.5 1545.5Q1108 1539 1091.5 1537.0Q1075 1535 1058 1535Q1049 1535 1040.5 1535.5Q1032 1536 1024 1536V1502Q1024 1485 1022.0 1468.5Q1020 1452 1013.5 1438.5Q1007 1425 994.5 1416.5Q982 1408 960 1408Q938 1408 925.0 1416.5Q912 1425 905.5 1438.5Q899 1452 897.0 1468.5Q895 1485 895 1502Q895 1511 895.5 1519.5Q896 1528 896 1536ZM640 1344Q640 1370 659.0 1389.0Q678 1408 704 1408Q730 1408 749.0 1389.0Q768 1370 768 1344Q768 1318 749.0 1299.0Q730 1280 704 1280Q678 1280 659.0 1299.0Q640 1318 640 1344ZM1152 1344Q1152 1370 1171.0 1389.0Q1190 1408 1216 1408Q1242 1408 1261.0 1389.0Q1280 1370 1280 1344Q1280 1318 1261.0 1299.0Q1242 1280 1216 1280Q1190 1280 1171.0 1299.0Q1152 1318 1152 1344ZM768 1088Q768 1114 787.0 1133.0Q806 1152 832 1152Q858 1152 877.0 1133.0Q896 1114 896 1088Q896 1062 877.0 1043.0Q858 1024 832 1024Q806 1024 787.0 1043.0Q768 1062 768 1088ZM1024 1088Q1024 1114 1043.0 1133.0Q1062 1152 1088 1152Q1114 1152 1133.0 1133.0Q1152 1114 1152 1088Q1152 1062 1133.0 1043.0Q1114 1024 1088 1024Q1062 1024 1043.0 1043.0Q1024 1062 1024 1088ZM896 832Q896 858 915.0 877.0Q934 896 960 896Q986 896 1005.0 877.0Q1024 858 1024 832Q1024 806 1005.0 787.0Q986 768 960 768Q934 768 915.0 787.0Q896 806 896 832ZM896 576Q896 602 915.0 621.0Q934 640 960 640Q986 640 1005.0 621.0Q1024 602 1024 576Q1024 550 1005.0 531.0Q986 512 960 512Q934 512 915.0 531.0Q896 550 896 576ZM896 320Q896 346 915.0 365.0Q934 384 960 384Q986 384 1005.0 365.0Q1024 346 1024 320Q1024 294 1005.0 275.0Q986 256 960 256Q934 256 915.0 275.0Q896 294 896 320Z"/>
  </g>
</svg>