<?xml version="1.0" encoding="utf-8"?>
<svg xmlns="http://www.w3.org/2000/svg" width="16" height="16" viewBox="0 0 2048 2048">
  <g transform="translate(0, 2048) scale(1, -1)">
    <path fill="#000000" d="M376 384Q301 384 232.5 414.5Q164 445 112.5 496.5Q61 548 30.5 616.5Q0 685 0 760V1544Q0 1619 30.5 1687.5Q61 1756 112.5 1807.5Q164 1859 232.5 1889.5Q301 1920 376 1920H1672Q1747 1920 1815.5 1889.5Q1884 1859 1935.5 1807.5Q1987 1756 2017.5 1687.5Q2048 1619 2048 1544V1216Q2018 1238 1985.5 1257.0Q1953 1276 1920 1293V1541Q1920 1591 1899.5 1636.5Q1879 1682 1844.5 1716.5Q1810 1751 1764.5 1771.5Q1719 1792 1669 1792H379Q329 1792 283.5 1771.5Q238 1751 203.5 1716.5Q169 1682 148.5 1636.5Q128 1591 128 1541V763Q128 711 149.0 665.5Q170 620 205.0 586.0Q240 552 286.5 532.0Q333 512 384 512H768V384ZM1408 1152Q1333 1152 1262.5 1136.5Q1192 1121 1123 1091Q1051 1059 996.5 1017.5Q942 976 887 921Q876 910 865.5 905.0Q855 900 840 900Q814 900 794.5 919.0Q775 938 775 964Q775 977 779.5 987.5Q784 998 792 1008Q817 1039 850.5 1068.5Q884 1098 921.0 1123.5Q958 1149 996.5 1171.0Q1035 1193 1072 1209Q1232 1280 1408 1280Q1584 1280 1744 1209Q1780 1193 1819.0 1171.0Q1858 1149 1895.0 1123.5Q1932 1098 1965.0 1068.5Q1998 1039 2024 1008Q2040 989 2040 964Q2040 937 2021.5 919.0Q2003 901 1976 901Q1949 901 1929 921Q1918 931 1908.0 941.5Q1898 952 1887 963Q1801 1043 1693 1091Q1624 1121 1553.5 1136.5Q1483 1152 1408 1152ZM1408 765Q1325 765 1257.5 740.5Q1190 716 1124 667Q1114 659 1105.0 655.5Q1096 652 1083 652Q1056 652 1037.5 670.5Q1019 689 1019 716Q1019 745 1043 766Q1080 797 1123.5 821.0Q1167 845 1214.0 860.5Q1261 876 1310.5 884.0Q1360 892 1408 892Q1455 892 1504.5 884.0Q1554 876 1602.0 860.5Q1650 845 1693.5 821.0Q1737 797 1773 766Q1796 746 1796 716Q1796 689 1777.5 670.5Q1759 652 1732 652Q1720 652 1711.0 655.5Q1702 659 1692 667Q1626 716 1558.0 740.5Q1490 765 1408 765ZM1088 0Q1049 0 1014.0 15.0Q979 30 952.5 56.5Q926 83 911.0 118.0Q896 153 896 192V320Q896 359 911.0 394.0Q926 429 952.5 455.5Q979 482 1014.0 497.0Q1049 512 1088 512H1728Q1767 512 1802.0 497.0Q1837 482 1863.5 455.5Q1890 429 1905.0 394.0Q1920 359 1920 320V192Q1920 153 1905.0 118.0Q1890 83 1863.5 56.5Q1837 30 1802.0 15.0Q1767 0 1728 0ZM1728 128Q1754 128 1773.0 147.0Q1792 166 1792 192V320Q1792 346 1773.0 365.0Q1754 384 1728 384H1088Q1062 384 1043.0 365.0Q1024 346 1024 320V192Q1024 166 1043.0 147.0Q1062 128 1088 128Z"/>
  </g>
</svg>