<?xml version="1.0" encoding="utf-8"?>
<svg id="" width="16" height="16" style="width:16px;height:16px;" version="1.1"
    xmlns="http://www.w3.org/2000/svg" viewBox="0 0 2048 2048" enable-background="new 0 0 2048 2048"
    xml:space="preserve"><path fill="#ffffff" d="M1792 784 l0 1008 q0 53 -20 99.5 q-20 46.5 -55 81.5 q-35 35 -81.5 55 q-46.5 20 -99.5 20 l-1024 0 q-53 0 -99.5 -20 q-46.5 -20 -81.5 -55 q-35 -35 -55 -81.5 q-20 -46.5 -20 -99.5 l0 -1536 q0 -53 20 -99.5 q20 -46.5 55 -81.5 q35 -35 81.5 -55 q46.5 -20 99.5 -20 l496 0 q51 0 98 19.5 q47 19.5 83 55.5 l528 528 q36 36 55.5 83 q19.5 47 19.5 98 ZM1664 784 q0 -4 0 -8 q0 -4 -1 -8 l-383 0 q-53 0 -99.5 -20 q-46.5 -20 -81.5 -55 q-35 -35 -55 -81.5 q-20 -46.5 -20 -99.5 l0 -383 q-4 -1 -8 -1 q-4 0 -8 0 l-496 0 q-27 0 -50 10 q-23 10 -40.5 27.5 q-17.5 17.5 -27.5 40.5 q-10 23 -10 50 l0 1536 q0 27 10 50.5 q10 23.5 27 40.5 q17 17 40.5 27 q23.5 10 50.5 10 l1024 0 q27 0 50 -10 q23 -10 40.5 -27.5 q17.5 -17.5 27.5 -40.5 q10 -23 10 -50 l0 -1008 ZM1574 640 l-422 -422 l0 294 q0 27 10 50.5 q10 23.5 27 40.5 q17 17 40.5 27 q23.5 10 50.5 10 l294 0 Z"/></svg>