<?xml version="1.0" encoding="utf-8"?>
<svg xmlns="http://www.w3.org/2000/svg" width="16" height="16" viewBox="0 0 2048 2048">
  <g transform="translate(0, 2048) scale(1, -1)">
    <path fill="#000000" d="M768 897Q768 918 783 938Q852 1025 912.0 1110.5Q972 1196 1022 1296L843 1565Q832 1581 832 1600Q832 1627 851.5 1645.5Q871 1664 897 1664Q912 1664 926.5 1656.5Q941 1649 949 1636L1081 1439Q1141 1610 1150 1792H832Q806 1792 787.0 1811.0Q768 1830 768 1856Q768 1882 787.0 1901.0Q806 1920 832 1920H1216Q1242 1920 1261.0 1901.0Q1280 1882 1280 1856Q1280 1714 1251.0 1577.5Q1222 1441 1167 1310L1333 1060Q1344 1043 1344 1024Q1344 998 1325.0 979.0Q1306 960 1280 960Q1246 960 1227 989L1102 1175Q1057 1090 1001.5 1007.5Q946 925 881 854Q861 832 832 832Q804 832 786.0 850.5Q768 869 768 897ZM1216 832Q1216 851 1225.0 864.5Q1234 878 1249 888Q1261 896 1273 903L1290 913Q1302 920 1314 928Q1381 973 1439.0 1027.5Q1497 1082 1546 1146Q1501 1213 1463.5 1292.0Q1426 1371 1399.5 1455.0Q1373 1539 1358.5 1625.0Q1344 1711 1344 1792Q1318 1792 1299.0 1811.0Q1280 1830 1280 1856Q1280 1882 1299.0 1901.0Q1318 1920 1344 1920H1856Q1885 1920 1902.5 1900.0Q1920 1880 1920 1852Q1920 1765 1903.5 1671.5Q1887 1578 1858.0 1485.5Q1829 1393 1789.5 1306.5Q1750 1220 1703 1148Q1745 1099 1793.5 1056.5Q1842 1014 1897 981Q1907 975 1917 970L1930 964Q1939 959 1949 953Q1965 943 1974.5 929.0Q1984 915 1984 896Q1984 870 1965.0 851.0Q1946 832 1920 832Q1911 832 1905.0 833.5Q1899 835 1891 839Q1816 875 1749.5 927.5Q1683 980 1627 1042Q1597 1006 1560.0 967.5Q1523 929 1481.5 893.5Q1440 858 1396.5 827.5Q1353 797 1311 776Q1297 768 1280 768Q1254 768 1235.0 787.0Q1216 806 1216 832ZM1789 1792H1472Q1472 1724 1482.5 1654.5Q1493 1585 1513.0 1516.5Q1533 1448 1560.5 1383.5Q1588 1319 1623 1261Q1657 1319 1685.5 1384.0Q1714 1449 1735.5 1517.0Q1757 1585 1770.5 1654.5Q1784 1724 1789 1792ZM760 384H393L316 171Q308 151 292.5 139.5Q277 128 256 128Q229 128 210.5 146.5Q192 165 192 192Q192 203 196 214L516 1110Q523 1130 539.5 1139.0Q556 1148 576 1148Q596 1148 612.5 1139.0Q629 1130 636 1110L956 214Q960 203 960 192Q960 166 941.0 147.0Q922 128 896 128Q875 128 859.0 139.5Q843 151 836 171ZM576 898 438 512H714Z"/>
  </g>
</svg>