<?xml version="1.0" encoding="utf-8"?>
<svg xmlns="http://www.w3.org/2000/svg" width="16" height="16" viewBox="0 0 2048 2048">
  <g transform="translate(0, 2048) scale(1, -1)">
    <path fill="#ffffff" d="M256 1408Q230 1408 211.0 1427.0Q192 1446 192 1472Q192 1498 211.0 1517.0Q230 1536 256 1536H640Q666 1536 685.0 1517.0Q704 1498 704 1472Q704 1446 685.0 1427.0Q666 1408 640 1408ZM1920 576V1472Q1920 1498 1939.0 1517.0Q1958 1536 1984 1536Q2010 1536 2029.0 1517.0Q2048 1498 2048 1472V1204Q2092 1244 2140.0 1262.0Q2188 1280 2247 1280Q2320 1280 2378.5 1244.5Q2437 1209 2477.0 1153.5Q2517 1098 2538.5 1030.0Q2560 962 2560 896Q2560 830 2538.5 762.0Q2517 694 2477.0 638.5Q2437 583 2378.5 547.5Q2320 512 2247 512Q2188 512 2140.0 530.0Q2092 548 2048 588Q2048 558 2033.0 535.0Q2018 512 1984 512Q1958 512 1939.0 531.0Q1920 550 1920 576ZM0 870Q0 902 12.5 930.0Q25 958 46.0 979.0Q67 1000 95.0 1012.0Q123 1024 155 1024H192V1152Q192 1205 229 1242Q267 1280 320 1280H576Q628 1280 666 1242Q684 1224 694.0 1201.0Q704 1178 704 1152V1024H742Q774 1024 802.0 1012.0Q830 1000 851.0 979.0Q872 958 884.0 930.0Q896 902 896 870Q896 839 884.5 810.5Q873 782 851 760L493 403Q474 384 448 384Q422 384 403 403L45 760Q23 782 11.5 810.5Q0 839 0 870ZM1152 768Q1152 835 1178.0 883.0Q1204 931 1247.5 962.5Q1291 994 1347.0 1009.0Q1403 1024 1463 1024Q1514 1024 1564.0 1020.0Q1614 1016 1664 1005V1024Q1664 1061 1647.5 1086.0Q1631 1111 1605.5 1125.5Q1580 1140 1548.5 1146.0Q1517 1152 1486 1152Q1441 1152 1408.0 1146.5Q1375 1141 1336 1118Q1327 1113 1320.0 1110.5Q1313 1108 1302 1108Q1275 1108 1256.5 1126.5Q1238 1145 1238 1172Q1238 1206 1267.5 1227.0Q1297 1248 1337.5 1260.0Q1378 1272 1419.5 1276.0Q1461 1280 1486 1280Q1545 1280 1600.5 1264.5Q1656 1249 1698.5 1217.5Q1741 1186 1766.5 1138.0Q1792 1090 1792 1024V576Q1792 550 1773.0 531.0Q1754 512 1728 512Q1709 512 1692.5 522.5Q1676 533 1669 551Q1620 530 1573.5 521.0Q1527 512 1474 512Q1411 512 1353.0 525.0Q1295 538 1250.0 568.0Q1205 598 1178.5 647.0Q1152 696 1152 768ZM2688 896Q2688 974 2705.0 1044.0Q2722 1114 2760.5 1166.5Q2799 1219 2860.0 1249.5Q2921 1280 3008 1280Q3067 1280 3127.0 1260.5Q3187 1241 3229 1197Q3247 1179 3247 1153Q3247 1127 3228.5 1107.5Q3210 1088 3183 1088Q3165 1088 3151.5 1098.0Q3138 1108 3120.5 1120.0Q3103 1132 3077.0 1142.0Q3051 1152 3008 1152Q2949 1152 2911.5 1130.5Q2874 1109 2853.0 1073.5Q2832 1038 2824.0 992.0Q2816 946 2816 896Q2816 846 2824.0 800.0Q2832 754 2853.0 718.5Q2874 683 2911.5 661.5Q2949 640 3008 640Q3059 640 3087.0 652.5Q3115 665 3133.0 680.5Q3151 696 3164.5 708.5Q3178 721 3200 721Q3227 721 3245.5 702.0Q3264 683 3264 657Q3264 646 3260.0 636.0Q3256 626 3250 617Q3230 589 3202.0 569.0Q3174 549 3141.5 536.5Q3109 524 3075.0 518.0Q3041 512 3008 512Q2921 512 2860.0 542.5Q2799 573 2760.5 625.5Q2722 678 2705.0 748.0Q2688 818 2688 896ZM768 870Q768 881 760.5 888.5Q753 896 742 896H640Q614 896 595.0 915.0Q576 934 576 960V1152H320V960Q320 934 301.0 915.0Q282 896 256 896H155Q144 896 136.0 888.5Q128 881 128 870Q128 859 136 851L448 539L760 851Q768 859 768 870ZM2432 896V902Q2432 942 2419.0 986.0Q2406 1030 2381.5 1067.0Q2357 1104 2321.0 1128.0Q2285 1152 2240 1152Q2193 1152 2157.0 1127.0Q2121 1102 2097.0 1064.5Q2073 1027 2060.5 981.5Q2048 936 2048 896Q2048 855 2060.5 810.0Q2073 765 2097.0 727.5Q2121 690 2157.0 665.0Q2193 640 2240 640Q2287 640 2323.0 665.0Q2359 690 2383.0 728.0Q2407 766 2419.5 811.0Q2432 856 2432 896ZM1664 696V874Q1616 887 1564.5 891.5Q1513 896 1463 896Q1432 896 1399.5 890.0Q1367 884 1340.5 869.5Q1314 855 1297.0 830.5Q1280 806 1280 768Q1280 725 1297.5 700.0Q1315 675 1342.5 661.5Q1370 648 1404.5 644.0Q1439 640 1474 640Q1528 640 1573.5 652.0Q1619 664 1664 696Z"/>
  </g>
</svg>