<?xml version="1.0" encoding="utf-8"?>
<svg xmlns="http://www.w3.org/2000/svg" width="16" height="16" viewBox="0 0 2048 2048">
  <g transform="translate(0, 2048) scale(1, -1)">
    <path fill="#000000" d="M2048 1856V1034Q2020 1069 1988.0 1101.0Q1956 1133 1920 1160V1761L1408 1557V1309Q1376 1306 1344.0 1301.0Q1312 1296 1280 1287V1557L768 1761V791Q768 783 762.0 767.0Q756 751 754 741Q748 714 744.0 686.0Q740 658 738 630Q737 616 736.5 603.0Q736 590 736 576Q736 526 742 478L704 501L97 137Q82 128 64 128Q37 128 18.5 146.5Q0 165 0 192V1600Q0 1643 40 1659L680 1915Q693 1920 704 1920Q715 1920 728 1915L1344 1669L1960 1915Q1973 1920 1985 1920Q2011 1920 2029.5 1901.0Q2048 1882 2048 1856ZM640 1761 128 1557V305L640 612ZM2048 576Q2048 457 2002.5 352.0Q1957 247 1879.0 169.0Q1801 91 1696.0 45.5Q1591 0 1472 0Q1352 0 1247.0 45.0Q1142 90 1064.0 168.0Q986 246 941.0 351.0Q896 456 896 576Q896 695 941.5 800.0Q987 905 1065.0 983.0Q1143 1061 1248.0 1106.5Q1353 1152 1472 1152Q1551 1152 1624.5 1131.5Q1698 1111 1762.0 1073.5Q1826 1036 1879.0 983.0Q1932 930 1969.5 866.0Q2007 802 2027.5 728.5Q2048 655 2048 576ZM1800 576Q1800 606 1779.0 627.0Q1758 648 1728 648Q1698 648 1677 627L1536 486V832Q1536 858 1517.0 877.0Q1498 896 1472 896Q1446 896 1427.0 877.0Q1408 858 1408 832V486L1267 627Q1246 648 1216 648Q1186 648 1165.0 627.0Q1144 606 1144 576Q1144 546 1165 525L1421 269Q1442 248 1472 248Q1502 248 1523 269L1779 525Q1800 546 1800 576Z"/>
  </g>
</svg>