<?xml version="1.0" encoding="utf-8"?>
<svg xmlns="http://www.w3.org/2000/svg" height="16" width="16" viewBox="0 0 16 16">
  <g>
    <path id="path1" transform="rotate(0,8,8) translate(0.5,0) scale(0.03125,0.03125)  " fill="#FFFFFF" d="M48,352L51.140625,352.296875 54.0625,353.1875 56.765625,354.671875 59.25,356.75 61.328125,359.234375 62.8125,361.9375 63.703125,364.859375 64,368 64,448 64.625,454.53125 66.5,460.625 69.4375,466.09375 73.25,470.75 77.90625,474.5625 83.375,477.5 89.46875,479.375 96,480 384,480 390.499969482422,479.375 396.5,477.5 401.90625,474.53125 406.625,470.625 410.531219482422,465.90625 413.5,460.5 415.375,454.5 416,448 416,368 416.296875,364.859375 417.1875,361.9375 418.671875,359.234375 420.75,356.75 423.234375,354.671875 425.9375,353.1875 428.859375,352.296875 432,352 435.140625,352.296875 438.0625,353.1875 440.765625,354.671875 443.25,356.75 445.328125,359.234375 446.8125,361.9375 447.703125,364.859375 448,368 448,449.25 447.6796875,455.4296875 446.71875,461.46875 445.1171875,467.3671875 442.875,473.125 440.09375,478.640625 436.875,483.8125 433.21875,488.640625 429.125,493.125 424.640625,497.21875 419.8125,500.875 414.640625,504.09375 409.125,506.875 403.3671875,509.1171875 397.46875,510.71875 391.4296875,511.6796875 385.25,512 94.75,512 88.5703125,511.6796875 82.53125,510.71875 76.6328125,509.1171875 70.875,506.875 65.359375,504.09375 60.1875,500.875 55.359375,497.21875 50.875,493.125 46.78125,488.640625 43.125,483.8125 39.90625,478.640625 37.125,473.125 34.8828125,467.3671875 33.28125,461.46875 32.3203125,455.4296875 32,449.25 32,368 32.296875,364.859375 33.1875,361.9375 34.671875,359.234375 36.75,356.75 39.234375,354.671875 41.9375,353.1875 44.859375,352.296875 48,352z M240,0L243.140625,0.296876430511475 246.0625,1.18750381469727 248.765625,2.67187929153442 251.25,4.75 253.328125,7.2343864440918 254.8125,9.93751525878906 255.703125,12.8593864440918 256,16 256,361.25 372.75,244.75 375.234375,242.671875 377.9375,241.1875 380.859375,240.296875 384,240 387.140625,240.296875 390.0625,241.1875 392.765625,242.671875 395.25,244.75 397.328125,247.234390258789 398.8125,249.937515258789 399.703125,252.859390258789 400,256 399.703125,259.140625 398.8125,262.0625 397.328125,264.765625 395.25,267.25 251.25,411.25 248.765625,413.328125 246.0625,414.8125 243.140625,415.703125 240,416 236.859375,415.703125 233.9375,414.8125 231.234375,413.328125 228.75,411.25 84.75,267.25 82.671875,264.765625 81.1875,262.0625 80.296875,259.140625 80,256 80.296875,252.859390258789 81.1875,249.937515258789 82.671875,247.234390258789 84.75,244.75 87.234375,242.671875 89.9375,241.1875 92.859375,240.296875 96,240 99.140625,240.296875 102.0625,241.1875 104.765625,242.671875 107.25,244.75 224,361.25 224,16 224.296875,12.8593864440918 225.1875,9.93751525878906 226.671875,7.2343864440918 228.75,4.75 231.234375,2.67187929153442 233.9375,1.18750381469727 236.859375,0.296876430511475 240,0z" />
  </g>
</svg>
