<?xml version="1.0" encoding="utf-8"?>
<svg xmlns="http://www.w3.org/2000/svg" width="16" height="16" viewBox="0 0 2048 2048">
  <g transform="translate(0, 2048) scale(1, -1)">
    <path fill="#ffffff" d="M896 384Q869 384 845.5 394.0Q822 404 805.0 421.0Q788 438 778.0 461.5Q768 485 768 512V768H512Q485 768 461.5 778.0Q438 788 421.0 805.0Q404 822 394.0 845.5Q384 869 384 896V1152Q384 1179 394.0 1202.0Q404 1225 421.5 1242.5Q439 1260 462.0 1270.0Q485 1280 512 1280H768V1536Q768 1563 778.0 1586.0Q788 1609 805.5 1626.5Q823 1644 846.0 1654.0Q869 1664 896 1664H1152Q1178 1664 1201.5 1654.0Q1225 1644 1242.5 1626.5Q1260 1609 1270.0 1585.5Q1280 1562 1280 1536V1280H1536Q1562 1280 1585.5 1270.0Q1609 1260 1626.5 1242.5Q1644 1225 1654.0 1201.5Q1664 1178 1664 1152V896Q1664 869 1654.0 846.0Q1644 823 1626.5 805.5Q1609 788 1586.0 778.0Q1563 768 1536 768H1280V512Q1280 485 1270.0 462.0Q1260 439 1242.5 421.5Q1225 404 1202.0 394.0Q1179 384 1152 384ZM896 512H1152V832Q1152 858 1171.0 877.0Q1190 896 1216 896H1536V1152H1216Q1190 1152 1171.0 1171.0Q1152 1190 1152 1216V1536H896V1216Q896 1190 877.0 1171.0Q858 1152 832 1152H512V896H832Q858 896 877.0 877.0Q896 858 896 832Z"/>
  </g>
</svg>