<?xml version="1.0" encoding="utf-8"?>
<svg xmlns="http://www.w3.org/2000/svg" width="16" height="16" viewBox="0 0 2048 2048">
  <g transform="translate(0, 2048) scale(1, -1)">
    <path fill="#000000" d="M2046 1854Q2046 1823 2039.0 1799.5Q2032 1776 2019.5 1756.5Q2007 1737 1990.0 1719.0Q1973 1701 1953 1680L1680 1953Q1701 1973 1719.0 1990.0Q1737 2007 1756.5 2019.5Q1776 2032 1799.5 2039.0Q1823 2046 1854 2046Q1894 2046 1929.0 2031.0Q1964 2016 1990.0 1990.0Q2016 1964 2031.0 1929.0Q2046 1894 2046 1854ZM1564 1843 1843 1564 574 228Q552 204 521 189L326 91Q300 78 269 78Q249 78 229.0 84.0Q209 90 193 103L109 19Q90 0 64 0Q38 0 19.0 19.0Q0 38 0 64Q0 90 19 109L103 193Q90 209 84.0 229.0Q78 249 78 269Q78 300 91 326L189 521Q204 552 228 574ZM1728 128Q1754 128 1773.0 109.0Q1792 90 1792 64Q1792 38 1773.0 19.0Q1754 0 1728 0H704Q678 0 659.0 19.0Q640 38 640 64Q640 90 659.0 109.0Q678 128 704 128Z"/>
  </g>
</svg>