<?xml version="1.0" encoding="utf-8"?>
<svg xmlns="http://www.w3.org/2000/svg" width="16" height="16" viewBox="0 0 2048 2048">
  <g transform="translate(0, 2048) scale(1, -1)">
    <path fill="#000000" d="M2047 1854Q2047 1813 2032.5 1780.5Q2018 1748 1990 1719L574 228Q563 216 549.0 206.5Q535 197 520 189L326 91Q300 78 269 78Q227 78 193 103L109 19Q90 0 64 0Q38 0 19.0 19.0Q0 38 0 64Q0 90 19 109L103 193Q90 209 84.0 229.0Q78 249 78 269Q78 300 91 326L189 521Q203 551 228 574L1720 1991Q1749 2018 1781.5 2032.0Q1814 2046 1854 2046Q1894 2046 1929.0 2031.0Q1964 2016 1990.0 1990.0Q2016 1964 2031.5 1929.0Q2047 1894 2047 1854ZM1919 1854Q1919 1881 1900.5 1899.5Q1882 1918 1855 1918Q1840 1918 1826.5 1911.5Q1813 1905 1801.5 1895.0Q1790 1885 1779.5 1873.5Q1769 1862 1759 1852L1852 1758Q1861 1767 1872.5 1778.0Q1884 1789 1894.5 1801.0Q1905 1813 1912.0 1826.0Q1919 1839 1919 1854ZM1764 1666 1666 1764 316 481Q313 478 309.0 472.5Q305 467 303 463L206 269L269 206L463 303Q467 305 472.5 309.0Q478 313 481 316ZM1728 128Q1754 128 1773.0 109.0Q1792 90 1792 64Q1792 38 1773.0 19.0Q1754 0 1728 0H704Q678 0 659.0 19.0Q640 38 640 64Q640 90 659.0 109.0Q678 128 704 128Z"/>
  </g>
</svg>