<?xml version="1.0" encoding="utf-8"?>
<svg xmlns="http://www.w3.org/2000/svg" width="16" height="16" viewBox="0 0 2048 2048">
  <g transform="translate(0, 2048) scale(1, -1)">
    <path fill="#000000" d="M256 767Q256 875 285.5 979.0Q315 1083 372 1174L861 1958Q887 2000 930.5 2024.0Q974 2048 1024 2048Q1074 2048 1117.5 2024.0Q1161 2000 1187 1958L1676 1174Q1733 1083 1762.5 980.0Q1792 877 1792 769Q1792 663 1764.5 565.0Q1737 467 1687.0 381.5Q1637 296 1567.0 225.5Q1497 155 1412.0 105.0Q1327 55 1228.5 27.5Q1130 0 1024 0Q918 0 820.0 27.5Q722 55 636.5 105.0Q551 155 481.0 224.5Q411 294 361.0 379.5Q311 465 283.5 563.0Q256 661 256 767Z"/>
  </g>
</svg>