<?xml version="1.0" encoding="utf-8"?>
<svg xmlns="http://www.w3.org/2000/svg" width="16" height="16" viewBox="0 0 2048 2048">
  <g transform="translate(0, 2048) scale(1, -1)">
    <path fill="#000000" d="M2337 2017 2442 2048Q2484 1966 2513.0 1879.0Q2542 1792 2563 1702L2454 1667Q2432 1758 2403.5 1845.0Q2375 1932 2337 2017ZM3234 2048Q3282 2048 3324.0 2030.0Q3366 2012 3397.0 1981.5Q3428 1951 3446.0 1909.0Q3464 1867 3464 1819Q3464 1771 3446.0 1729.0Q3428 1687 3397.0 1656.0Q3366 1625 3324.0 1607.0Q3282 1589 3234 1589Q3186 1589 3144.0 1607.0Q3102 1625 3071.5 1656.0Q3041 1687 3023.0 1729.0Q3005 1771 3005 1819Q3005 1866 3023.0 1908.0Q3041 1950 3072.0 1981.0Q3103 2012 3145.0 2030.0Q3187 2048 3234 2048ZM2104 1964 2210 1997Q2252 1912 2281.5 1822.5Q2311 1733 2337 1642L2225 1604Q2201 1697 2172.5 1787.0Q2144 1877 2104 1964ZM3234 1677Q3264 1677 3290.0 1688.0Q3316 1699 3335.0 1718.0Q3354 1737 3365.0 1763.0Q3376 1789 3376 1819Q3376 1849 3365.0 1875.0Q3354 1901 3335.0 1919.5Q3316 1938 3290.0 1949.0Q3264 1960 3234 1960Q3204 1960 3178.5 1949.0Q3153 1938 3134.0 1919.0Q3115 1900 3104.0 1874.5Q3093 1849 3093 1819Q3093 1789 3104.0 1763.0Q3115 1737 3133.5 1718.0Q3152 1699 3178.0 1688.0Q3204 1677 3234 1677ZM840 1868Q876 1866 913.0 1864.5Q950 1863 985 1855Q993 1853 1002.5 1850.5Q1012 1848 1012 1837Q1012 1828 1007.5 1817.0Q1003 1806 1000 1798Q995 1784 992.5 1763.0Q990 1742 988.5 1719.0Q987 1696 987 1674V721Q987 663 988 605L990 528Q991 471 991 412Q991 368 984.5 334.0Q978 300 961.0 275.0Q944 250 914.0 234.5Q884 219 838 213Q796 208 755.0 206.5Q714 205 672 205H627Q619 205 612.0 206.0Q605 207 598 212Q598 212 592.0 231.0Q586 250 577.5 274.0Q569 298 560.0 320.5Q551 343 545 352Q596 344 647.5 342.0Q699 340 750 340Q779 340 799.0 344.0Q819 348 831.0 359.0Q843 370 848.5 389.0Q854 408 854 438V1656Q854 1710 852.0 1762.5Q850 1815 840 1868ZM391 1415Q400 1413 426.0 1405.5Q452 1398 480.0 1388.0Q508 1378 529.5 1367.5Q551 1357 551 1348Q551 1339 547.5 1334.5Q544 1330 539 1323Q525 1304 518.5 1290.5Q512 1277 504 1255Q441 1070 355.5 903.5Q270 737 147 584Q142 577 135.5 570.0Q129 563 121 559Q90 575 62.0 594.5Q34 614 0 625Q67 696 134.5 791.0Q202 886 257.0 992.0Q312 1098 349.0 1207.0Q386 1316 391 1415ZM1414 1412Q1419 1412 1421.0 1407.5Q1423 1403 1425 1399Q1465 1288 1504.5 1193.0Q1544 1098 1590.0 1010.5Q1636 923 1693.0 837.5Q1750 752 1825 659Q1773 634 1731 596Q1726 592 1717.0 583.5Q1708 575 1702 575Q1695 575 1688.0 584.0Q1681 593 1677 598Q1624 669 1568.5 764.0Q1513 859 1462.0 961.5Q1411 1064 1368.5 1165.5Q1326 1267 1300 1352Q1298 1358 1298 1361Q1298 1362 1302.0 1365.0Q1306 1368 1311.5 1370.5Q1317 1373 1322.0 1375.0Q1327 1377 1329 1378Q1334 1380 1346.5 1385.5Q1359 1391 1373.0 1397.0Q1387 1403 1398.5 1407.5Q1410 1412 1414 1412Z"/>
  </g>
</svg>