<?xml version="1.0" encoding="utf-8"?>
<svg xmlns="http://www.w3.org/2000/svg" width="16" height="16" viewBox="0 0 2048 2048">
  <g transform="translate(0, 2048) scale(1, -1)">
    <path fill="#000000" d="M1735 1920Q1798 1920 1855.0 1894.5Q1912 1869 1954.5 1826.5Q1997 1784 2022.5 1727.0Q2048 1670 2048 1607V832Q2048 775 2028.5 722.5Q2009 670 1974.0 628.0Q1939 586 1891.5 556.5Q1844 527 1787 517Q1777 462 1748.5 414.5Q1720 367 1678.5 331.5Q1637 296 1585.0 276.0Q1533 256 1478 256H313Q250 256 193.0 281.5Q136 307 93.5 349.5Q51 392 25.5 449.0Q0 506 0 569V1344Q0 1400 19.5 1452.5Q39 1505 73.5 1547.0Q108 1589 155.0 1618.0Q202 1647 258 1658Q264 1713 289.5 1761.0Q315 1809 354.5 1844.0Q394 1879 444.0 1899.5Q494 1920 550 1920ZM1920 1600Q1920 1639 1905.0 1674.0Q1890 1709 1863.5 1735.5Q1837 1762 1802.0 1777.0Q1767 1792 1728 1792H550Q521 1792 495.0 1782.5Q469 1773 447.5 1755.5Q426 1738 410.5 1714.5Q395 1691 388 1664H1479Q1544 1664 1601.0 1638.0Q1658 1612 1700.5 1568.0Q1743 1524 1767.5 1466.0Q1792 1408 1792 1344V651Q1821 661 1844.5 679.0Q1868 697 1885.0 721.0Q1902 745 1911.0 773.0Q1920 801 1920 832ZM1472 384Q1511 384 1546.0 399.0Q1581 414 1607.5 440.5Q1634 467 1649.0 502.0Q1664 537 1664 576V1344Q1664 1383 1649.0 1418.0Q1634 1453 1607.5 1479.5Q1581 1506 1546.0 1521.0Q1511 1536 1472 1536H320Q281 1536 246.0 1521.0Q211 1506 184.5 1479.5Q158 1453 143.0 1418.0Q128 1383 128 1344V576Q128 537 143.0 502.0Q158 467 184.5 440.5Q211 414 246.0 399.0Q281 384 320 384ZM320 1280Q294 1280 275.0 1299.0Q256 1318 256 1344Q256 1370 275.0 1389.0Q294 1408 320 1408H832Q858 1408 877.0 1389.0Q896 1370 896 1344Q896 1318 877.0 1299.0Q858 1280 832 1280ZM1472 1408Q1498 1408 1517.0 1389.0Q1536 1370 1536 1344V960Q1536 934 1517.0 915.0Q1498 896 1472 896H1088Q1062 896 1043.0 915.0Q1024 934 1024 960V1344Q1024 1370 1043.0 1389.0Q1062 1408 1088 1408ZM1152 1024H1408V1280H1152ZM320 896Q294 896 275.0 915.0Q256 934 256 960Q256 986 275.0 1005.0Q294 1024 320 1024H832Q858 1024 877.0 1005.0Q896 986 896 960Q896 934 877.0 915.0Q858 896 832 896ZM1472 640Q1498 640 1517.0 621.0Q1536 602 1536 576Q1536 550 1517.0 531.0Q1498 512 1472 512H320Q294 512 275.0 531.0Q256 550 256 576Q256 602 275.0 621.0Q294 640 320 640Z"/>
  </g>
</svg>