<?xml version="1.0" encoding="utf-8"?>
<svg xmlns="http://www.w3.org/2000/svg" width="16" height="16" viewBox="0 0 2048 2048">
  <g transform="translate(0, 2048) scale(1, -1)">
    <path fill="#000000" d="M1607 1792Q1670 1792 1727.0 1766.5Q1784 1741 1826.5 1698.5Q1869 1656 1894.5 1599.0Q1920 1542 1920 1479V448Q1920 409 1905.0 374.0Q1890 339 1863.5 312.5Q1837 286 1802.0 271.0Q1767 256 1728 256H1464Q1460 256 1455 258L47 642Q24 648 12.0 666.0Q0 684 0 707V1472Q0 1536 24.5 1594.0Q49 1652 91.5 1696.0Q134 1740 191.0 1766.0Q248 1792 313 1792ZM1792 1472Q1792 1511 1777.0 1546.0Q1762 1581 1735.5 1607.5Q1709 1634 1674.0 1649.0Q1639 1664 1600 1664H320Q281 1664 246.0 1649.0Q211 1634 184.5 1607.5Q158 1581 143.0 1546.0Q128 1511 128 1472V837L362 1024H358Q340 1024 322.0 1025.0Q304 1026 289.5 1032.0Q275 1038 265.5 1051.0Q256 1064 256 1088V1472Q256 1498 275.0 1517.0Q294 1536 320 1536H704Q730 1536 749.0 1517.0Q768 1498 768 1472V1167Q840 1145 896 1089Q897 1115 915.5 1133.5Q934 1152 960 1152H1600Q1626 1152 1645.0 1133.0Q1664 1114 1664 1088Q1664 1062 1645.0 1043.0Q1626 1024 1600 1024H953L1172 768H1600Q1626 768 1645.0 749.0Q1664 730 1664 704Q1664 678 1645.0 659.0Q1626 640 1600 640H1282Q1338 576 1393.0 512.5Q1448 449 1502 384H1728Q1754 384 1773.0 403.0Q1792 422 1792 448ZM1600 1536Q1626 1536 1645.0 1517.0Q1664 1498 1664 1472Q1664 1446 1645.0 1427.0Q1626 1408 1600 1408H960Q934 1408 915.0 1427.0Q896 1446 896 1472Q896 1498 915.0 1517.0Q934 1536 960 1536ZM640 1408H384V1152Q398 1152 422.5 1153.0Q447 1154 472 1154Q491 1154 507.0 1153.0Q523 1152 531 1149Q557 1163 584.0 1170.0Q611 1177 640 1181ZM1288 437 817 986Q790 1018 751.5 1035.5Q713 1053 671 1053Q604 1053 551 1011L202 733L725 590L558 763Q540 781 540 807Q540 833 558.0 852.0Q576 871 603 871Q630 871 649 852Q729 770 807.5 687.0Q886 604 968 524Z"/>
  </g>
</svg>