<?xml version="1.0" encoding="utf-8"?>
<svg xmlns="http://www.w3.org/2000/svg" width="16" height="16" viewBox="0 0 2048 2048">
  <g transform="translate(0, 2048) scale(1, -1)">
    <path fill="#000000" d="M1344 256H313Q250 256 193.0 281.5Q136 307 93.5 349.5Q51 392 25.5 449.0Q0 506 0 569V1479Q0 1542 25.5 1599.0Q51 1656 93.5 1698.5Q136 1741 193.0 1766.5Q250 1792 313 1792H1857Q1883 1792 1901.5 1773.0Q1920 1754 1920 1728Q1920 1714 1916 1705L1405 300Q1398 280 1381.5 268.0Q1365 256 1344 256ZM128 576Q128 537 143.0 502.0Q158 467 184.5 440.5Q211 414 246.0 399.0Q281 384 320 384H1190L980 593Q969 604 959.5 616.0Q950 628 942 640H320Q294 640 275.0 659.0Q256 678 256 704Q256 730 275.0 749.0Q294 768 320 768H891Q889 781 888.0 793.5Q887 806 887 819Q887 875 906.0 928.0Q925 981 961 1024Q935 1024 915.5 1042.5Q896 1061 896 1088Q896 1114 915.0 1133.0Q934 1152 960 1152Q964 1152 974.0 1152.0Q984 1152 997.0 1152.5Q1010 1153 1024.0 1153.0Q1038 1153 1051 1153Q1069 1153 1082.5 1152.5Q1096 1152 1100 1151L1394 1408H960Q934 1408 915.0 1427.0Q896 1446 896 1472Q896 1498 915.0 1517.0Q934 1536 960 1536H1540L1686 1664H320Q281 1664 246.0 1649.0Q211 1634 184.5 1607.5Q158 1581 143.0 1546.0Q128 1511 128 1472ZM320 1024Q294 1024 275.0 1043.0Q256 1062 256 1088V1472Q256 1498 275.0 1517.0Q294 1536 320 1536H704Q730 1536 749.0 1517.0Q768 1498 768 1472V1088Q768 1062 749.0 1043.0Q730 1024 704 1024ZM1472 858 1711 1516 1080 964Q1049 937 1032.0 898.5Q1015 860 1015 819Q1015 781 1029.5 746.0Q1044 711 1071 684L1318 436L1424 726L1299 851Q1280 870 1280 896Q1280 922 1299.0 941.0Q1318 960 1344 960Q1370 960 1389 941ZM640 1408H384V1152H640Z"/>
  </g>
</svg>