<?xml version="1.0" encoding="utf-8"?>
<svg xmlns="http://www.w3.org/2000/svg" width="16" height="16" viewBox="0 0 2048 2048">
  <g transform="translate(0, 2048) scale(1, -1)">
    <path fill="#ffffff" d="M1344 128H569Q506 128 449.0 153.5Q392 179 349.5 221.5Q307 264 281.5 321.0Q256 378 256 441V1735Q256 1798 281.5 1855.0Q307 1912 349.5 1954.5Q392 1997 449.0 2022.5Q506 2048 569 2048H1479Q1542 2048 1599.0 2022.5Q1656 1997 1698.5 1954.5Q1741 1912 1766.5 1855.0Q1792 1798 1792 1735Q1792 1721 1793.0 1694.0Q1794 1667 1794 1640Q1794 1622 1793.0 1606.5Q1792 1591 1790 1583L1406 175Q1400 154 1383.0 141.0Q1366 128 1344 128ZM384 448Q384 409 399.0 374.0Q414 339 440.5 312.5Q467 286 502.0 271.0Q537 256 576 256H1152L1014 359Q935 418 903 512H576Q550 512 531.0 531.0Q512 550 512 576Q512 602 531.0 621.0Q550 640 576 640H887Q891 684 903.0 717.5Q915 751 933.0 780.0Q951 809 975.0 836.5Q999 864 1027 896H576Q550 896 531.0 915.0Q512 934 512 960Q512 986 531.0 1005.0Q550 1024 576 1024H1139L1363 1280H1216Q1190 1280 1171.0 1299.0Q1152 1318 1152 1344Q1152 1370 1171.0 1389.0Q1190 1408 1216 1408H1475L1664 1624V1728Q1664 1767 1649.0 1802.0Q1634 1837 1607.5 1863.5Q1581 1890 1546.0 1905.0Q1511 1920 1472 1920H576Q537 1920 502.0 1905.0Q467 1890 440.5 1863.5Q414 1837 399.0 1802.0Q384 1767 384 1728ZM576 1280Q550 1280 531.0 1299.0Q512 1318 512 1344V1728Q512 1754 531.0 1773.0Q550 1792 576 1792H960Q986 1792 1005.0 1773.0Q1024 1754 1024 1728V1344Q1024 1318 1005.0 1299.0Q986 1280 960 1280ZM1216 1664Q1190 1664 1171.0 1683.0Q1152 1702 1152 1728Q1152 1754 1171.0 1773.0Q1190 1792 1216 1792H1472Q1498 1792 1517.0 1773.0Q1536 1754 1536 1728Q1536 1702 1517.0 1683.0Q1498 1664 1472 1664ZM896 1664H640V1408H896ZM1593 1349 1062 742Q1015 687 1015 617Q1015 572 1035.0 530.5Q1055 489 1091 462L1307 300L1365 512L1178 653Q1152 673 1152 704Q1152 730 1171.0 749.0Q1190 768 1216 768Q1237 768 1254 755L1401 645L1466 885Q1455 893 1445.0 900.0Q1435 907 1426.5 915.5Q1418 924 1413.0 934.5Q1408 945 1408 960Q1408 986 1427.0 1005.0Q1446 1024 1472 1024Q1488 1024 1502 1016Z"/>
  </g>
</svg>