<?xml version="1.0" encoding="utf-8"?>
<svg xmlns="http://www.w3.org/2000/svg" width="16" height="16" viewBox="0 0 2048 2048">
  <g transform="translate(0, 2048) scale(1, -1)">
    <path fill="#ffffff" d="M1607 1792Q1670 1792 1727.0 1766.5Q1784 1741 1826.5 1698.5Q1869 1656 1894.5 1599.0Q1920 1542 1920 1479V569Q1920 506 1894.5 449.0Q1869 392 1826.5 349.5Q1784 307 1727.0 281.5Q1670 256 1607 256H576Q555 256 538.5 268.0Q522 280 515 300L4 1705Q0 1714 0 1728Q0 1754 19.0 1773.0Q38 1792 64 1792ZM1792 1472Q1792 1511 1777.0 1546.0Q1762 1581 1735.5 1607.5Q1709 1634 1674.0 1649.0Q1639 1664 1600 1664H234L380 1536H960Q986 1536 1005.0 1517.0Q1024 1498 1024 1472Q1024 1446 1005.0 1427.0Q986 1408 960 1408H526L820 1151Q824 1152 837.5 1152.5Q851 1153 869 1153Q882 1153 896.0 1153.0Q910 1153 923.0 1152.5Q936 1152 945.5 1152.0Q955 1152 960 1152Q986 1152 1005.0 1133.0Q1024 1114 1024 1088Q1024 1061 1004.5 1042.5Q985 1024 959 1024Q995 981 1014.0 928.0Q1033 875 1033 819Q1033 806 1032.0 793.5Q1031 781 1029 768H1600Q1626 768 1645.0 749.0Q1664 730 1664 704Q1664 678 1645.0 659.0Q1626 640 1600 640H978Q970 628 960.5 616.0Q951 604 940 593L730 384H1600Q1639 384 1674.0 399.0Q1709 414 1735.5 440.5Q1762 467 1777.0 502.0Q1792 537 1792 576ZM1600 1536Q1626 1536 1645.0 1517.0Q1664 1498 1664 1472V1088Q1664 1062 1645.0 1043.0Q1626 1024 1600 1024H1216Q1190 1024 1171.0 1043.0Q1152 1062 1152 1088V1472Q1152 1498 1171.0 1517.0Q1190 1536 1216 1536ZM209 1516 448 858 531 941Q550 960 576 960Q602 960 621.0 941.0Q640 922 640 896Q640 870 621 851L496 726L602 436L849 684Q905 740 905 819Q905 860 888.0 898.5Q871 937 840 964ZM1280 1152H1536V1408H1280Z"/>
  </g>
</svg>