<?xml version="1.0" encoding="utf-8"?>
<svg xmlns="http://www.w3.org/2000/svg" width="16" height="16" viewBox="0 0 2048 2048">
  <g transform="translate(0, 2048) scale(1, -1)">
    <path fill="#000000" d="M1479 2048Q1542 2048 1599.0 2022.5Q1656 1997 1698.5 1954.5Q1741 1912 1766.5 1855.0Q1792 1798 1792 1735V640Q1792 615 1778.0 600.5Q1764 586 1742 578L469 132Q458 128 446 128Q407 128 372.5 142.5Q338 157 312.0 182.5Q286 208 271.0 242.5Q256 277 256 316V1735Q256 1798 281.5 1855.0Q307 1912 349.5 1954.5Q392 1997 449.0 2022.5Q506 2048 569 2048ZM384 316Q384 298 393.5 283.5Q403 269 419 261L600 515Q583 515 567.5 517.5Q552 520 539.5 526.5Q527 533 519.5 545.5Q512 558 512 579Q512 605 531.0 624.0Q550 643 576 643H692L873 896H576Q550 896 531.0 915.0Q512 934 512 960Q512 986 531.0 1005.0Q550 1024 576 1024H1016Q1080 1053 1149 1053Q1218 1053 1282 1024H1472Q1498 1024 1517.0 1005.0Q1536 986 1536 960Q1536 934 1518.0 915.5Q1500 897 1474 896L1664 763V1728Q1664 1767 1649.0 1802.0Q1634 1837 1607.5 1863.5Q1581 1890 1546.0 1905.0Q1511 1920 1472 1920H576Q537 1920 502.0 1905.0Q467 1890 440.5 1863.5Q414 1837 399.0 1802.0Q384 1767 384 1728ZM576 1664Q550 1664 531.0 1683.0Q512 1702 512 1728Q512 1754 531.0 1773.0Q550 1792 576 1792H832Q858 1792 877.0 1773.0Q896 1754 896 1728Q896 1702 877.0 1683.0Q858 1664 832 1664ZM1088 1280Q1062 1280 1043.0 1299.0Q1024 1318 1024 1344V1728Q1024 1754 1043.0 1773.0Q1062 1792 1088 1792H1472Q1498 1792 1517.0 1773.0Q1536 1754 1536 1728V1344Q1536 1318 1517.0 1299.0Q1498 1280 1472 1280ZM1408 1664H1152V1408H1408ZM576 1280Q550 1280 531.0 1299.0Q512 1318 512 1344Q512 1370 531.0 1389.0Q550 1408 576 1408H832Q858 1408 877.0 1389.0Q896 1370 896 1344Q896 1318 877.0 1299.0Q858 1280 832 1280ZM1156 508 1589 659 1259 890Q1210 925 1149 925Q1101 925 1061.0 903.5Q1021 882 993 844L617 319L950 436L1164 741Q1173 754 1187.0 761.0Q1201 768 1216 768Q1242 768 1261.0 749.0Q1280 730 1280 704Q1280 683 1268 667Z"/>
  </g>
</svg>