<?xml version="1.0" encoding="utf-8"?>
<svg xmlns="http://www.w3.org/2000/svg" width="16" height="16" viewBox="0 0 2048 2048">
  <g transform="translate(0, 2048) scale(1, -1)">
    <path fill="#000000" d="M1479 2048Q1542 2048 1599.0 2022.5Q1656 1997 1698.5 1954.5Q1741 1912 1766.5 1855.0Q1792 1798 1792 1735V316Q1792 278 1777.0 243.5Q1762 209 1736.5 183.5Q1711 158 1676.5 143.0Q1642 128 1604 128Q1591 128 1579 132L306 578Q284 586 270.0 600.5Q256 615 256 640V1735Q256 1798 281.5 1855.0Q307 1912 349.5 1954.5Q392 1997 449.0 2022.5Q506 2048 569 2048ZM1664 1728Q1664 1767 1649.0 1802.0Q1634 1837 1607.5 1863.5Q1581 1890 1546.0 1905.0Q1511 1920 1472 1920H576Q537 1920 502.0 1905.0Q467 1890 440.5 1863.5Q414 1837 399.0 1802.0Q384 1767 384 1728V763L575 896Q549 897 530.5 915.5Q512 934 512 960Q512 986 531.0 1005.0Q550 1024 576 1024H767Q798 1038 831.0 1045.5Q864 1053 898 1053Q967 1053 1031 1024H1472Q1498 1024 1517.0 1005.0Q1536 986 1536 960Q1536 934 1517.0 915.0Q1498 896 1472 896H1176L1357 643H1472Q1498 643 1517.0 624.0Q1536 605 1536 579Q1536 558 1528.5 545.5Q1521 533 1508.5 526.5Q1496 520 1480.0 517.5Q1464 515 1448 515L1629 261Q1645 269 1654.5 283.5Q1664 298 1664 316ZM960 1792Q986 1792 1005.0 1773.0Q1024 1754 1024 1728V1344Q1024 1318 1005.0 1299.0Q986 1280 960 1280H576Q550 1280 531.0 1299.0Q512 1318 512 1344V1728Q512 1754 531.0 1773.0Q550 1792 576 1792ZM1472 1792Q1498 1792 1517.0 1773.0Q1536 1754 1536 1728Q1536 1702 1517.0 1683.0Q1498 1664 1472 1664H1216Q1190 1664 1171.0 1683.0Q1152 1702 1152 1728Q1152 1754 1171.0 1773.0Q1190 1792 1216 1792ZM640 1408H896V1664H640ZM1472 1408Q1498 1408 1517.0 1389.0Q1536 1370 1536 1344Q1536 1318 1517.0 1299.0Q1498 1280 1472 1280H1216Q1190 1280 1171.0 1299.0Q1152 1318 1152 1344Q1152 1370 1171.0 1389.0Q1190 1408 1216 1408ZM1098 436 1431 319 1055 844Q1027 882 987.0 903.5Q947 925 899 925Q838 925 789 890L459 659L892 508L780 667Q768 683 768 704Q768 730 787.0 749.0Q806 768 832 768Q865 768 884 741Z"/>
  </g>
</svg>