<?xml version="1.0" encoding="utf-8"?>
<svg xmlns="http://www.w3.org/2000/svg" width="16" height="16" viewBox="0 0 2048 2048">
  <g transform="translate(0, 2048) scale(1, -1)">
    <path fill="#000000" d="M1479 2048Q1542 2048 1599.0 2022.5Q1656 1997 1698.5 1954.5Q1741 1912 1766.5 1855.0Q1792 1798 1792 1735V441Q1792 378 1766.5 321.0Q1741 264 1698.5 221.5Q1656 179 1599.0 153.5Q1542 128 1479 128H704Q682 128 665.0 141.0Q648 154 642 175L258 1583Q256 1588 256 1592V1735Q256 1798 281.5 1855.0Q307 1912 349.5 1954.5Q392 1997 449.0 2022.5Q506 2048 569 2048ZM1664 1728Q1664 1767 1649.0 1802.0Q1634 1837 1607.5 1863.5Q1581 1890 1546.0 1905.0Q1511 1920 1472 1920H576Q537 1920 502.0 1905.0Q467 1890 440.5 1863.5Q414 1837 399.0 1802.0Q384 1767 384 1728V1624L573 1408H832Q858 1408 877.0 1389.0Q896 1370 896 1344Q896 1318 877.0 1299.0Q858 1280 832 1280H685L909 1024H1472Q1498 1024 1517.0 1005.0Q1536 986 1536 960Q1536 934 1517.0 915.0Q1498 896 1472 896H1021Q1049 864 1073.0 836.5Q1097 809 1115.0 780.0Q1133 751 1144.5 717.5Q1156 684 1161 640H1472Q1498 640 1517.0 621.0Q1536 602 1536 576Q1536 550 1517.0 531.0Q1498 512 1472 512H1145Q1113 418 1034 359L896 256H1472Q1511 256 1546.0 271.0Q1581 286 1607.5 312.5Q1634 339 1649.0 374.0Q1664 409 1664 448ZM832 1792Q858 1792 877.0 1773.0Q896 1754 896 1728Q896 1702 877.0 1683.0Q858 1664 832 1664H576Q550 1664 531.0 1683.0Q512 1702 512 1728Q512 1754 531.0 1773.0Q550 1792 576 1792ZM1472 1792Q1498 1792 1517.0 1773.0Q1536 1754 1536 1728V1344Q1536 1318 1517.0 1299.0Q1498 1280 1472 1280H1088Q1062 1280 1043.0 1299.0Q1024 1318 1024 1344V1728Q1024 1754 1043.0 1773.0Q1062 1792 1088 1792ZM1152 1408H1408V1664H1152ZM455 1349 546 1016Q560 1024 576 1024Q602 1024 621.0 1005.0Q640 986 640 960Q640 945 635.0 934.5Q630 924 621.5 915.5Q613 907 602.5 900.0Q592 893 582 885L647 645L794 755Q811 768 832 768Q858 768 877.0 749.0Q896 730 896 704Q896 673 870 653L683 512L741 300L957 462Q993 489 1013.5 529.0Q1034 569 1034 614Q1034 686 986 742Z"/>
  </g>
</svg>