<?xml version="1.0" encoding="utf-8"?>
<svg xmlns="http://www.w3.org/2000/svg" width="16" height="16" viewBox="0 0 2048 2048">
  <g transform="translate(0, 2048) scale(1, -1)">
    <path fill="#000000" d="M465 258Q460 256 457 256H192Q153 256 118.0 271.0Q83 286 56.5 312.5Q30 339 15.0 374.0Q0 409 0 448V1479Q0 1542 25.5 1599.0Q51 1656 93.5 1698.5Q136 1741 193.0 1766.5Q250 1792 313 1792H1607Q1670 1792 1727.0 1766.5Q1784 1741 1826.5 1698.5Q1869 1656 1894.5 1599.0Q1920 1542 1920 1479V711Q1920 687 1909.0 668.0Q1898 649 1873 642ZM128 448Q128 422 147.0 403.0Q166 384 192 384H418Q460 432 501 480L555 544Q596 592 638 640H320Q294 640 275.0 659.0Q256 678 256 704Q256 730 275.0 749.0Q294 768 320 768H748L967 1024H320Q294 1024 275.0 1043.0Q256 1062 256 1088Q256 1114 275.0 1133.0Q294 1152 320 1152H960Q986 1152 1004.5 1133.5Q1023 1115 1024 1089Q1080 1145 1152 1167V1472Q1152 1498 1171.0 1517.0Q1190 1536 1216 1536H1600Q1626 1536 1645.0 1517.0Q1664 1498 1664 1472V1088Q1664 1064 1654.5 1051.0Q1645 1038 1630.0 1032.0Q1615 1026 1597.0 1025.0Q1579 1024 1562 1024H1558L1792 837V1472Q1792 1511 1777.0 1546.0Q1762 1581 1735.5 1607.5Q1709 1634 1674.0 1649.0Q1639 1664 1600 1664H320Q281 1664 246.0 1649.0Q211 1634 184.5 1607.5Q158 1581 143.0 1546.0Q128 1511 128 1472ZM320 1408Q294 1408 275.0 1427.0Q256 1446 256 1472Q256 1498 275.0 1517.0Q294 1536 320 1536H960Q986 1536 1005.0 1517.0Q1024 1498 1024 1472Q1024 1446 1005.0 1427.0Q986 1408 960 1408ZM1536 1152V1408H1280V1180Q1307 1178 1333.0 1170.5Q1359 1163 1384 1152ZM1195 590 1718 733 1369 1011Q1316 1054 1248 1054Q1206 1054 1168.5 1036.5Q1131 1019 1104 987L632 437L952 524Q1034 604 1112.5 687.0Q1191 770 1271 852Q1290 871 1317 871Q1343 871 1362.0 852.5Q1381 834 1381 808Q1381 794 1376.0 783.5Q1371 773 1362 763Z"/>
  </g>
</svg>