<?xml version="1.0" encoding="utf-8"?>
<svg xmlns="http://www.w3.org/2000/svg" width="16" height="16" viewBox="0 0 2048 2048">
  <g transform="translate(0, 2048) scale(1, -1)">
    <path fill="#000000" d="M1607 1920Q1670 1920 1727.0 1894.5Q1784 1869 1826.5 1826.5Q1869 1784 1894.5 1727.0Q1920 1670 1920 1607V697Q1920 632 1894.0 575.0Q1868 518 1824.0 475.5Q1780 433 1722.0 408.5Q1664 384 1600 384H1402Q1391 329 1361.5 282.0Q1332 235 1290.0 201.0Q1248 167 1196.0 147.5Q1144 128 1088 128H441Q378 128 321.0 153.5Q264 179 221.5 221.5Q179 264 153.5 321.0Q128 378 128 441V1351Q128 1416 154.0 1473.0Q180 1530 224.0 1572.5Q268 1615 326.0 1639.5Q384 1664 448 1664H646Q657 1719 686.5 1766.0Q716 1813 758.0 1847.0Q800 1881 852.0 1900.5Q904 1920 960 1920ZM1792 1600Q1792 1639 1777.0 1674.0Q1762 1709 1735.5 1735.5Q1709 1762 1674.0 1777.0Q1639 1792 1600 1792H960Q929 1792 901.0 1783.0Q873 1774 849.0 1757.0Q825 1740 807.0 1716.5Q789 1693 779 1664H1095Q1160 1664 1217.0 1638.0Q1274 1612 1316.5 1568.0Q1359 1524 1383.5 1466.0Q1408 1408 1408 1344V512H1600Q1639 512 1674.0 527.0Q1709 542 1735.5 568.5Q1762 595 1777.0 630.0Q1792 665 1792 704ZM1088 256Q1127 256 1162.0 271.0Q1197 286 1223.5 312.5Q1250 339 1265.0 374.0Q1280 409 1280 448V1344Q1280 1383 1265.0 1418.0Q1250 1453 1223.5 1479.5Q1197 1506 1162.0 1521.0Q1127 1536 1088 1536H448Q409 1536 374.0 1521.0Q339 1506 312.5 1479.5Q286 1453 271.0 1418.0Q256 1383 256 1344V448Q256 409 271.0 374.0Q286 339 312.5 312.5Q339 286 374.0 271.0Q409 256 448 256ZM448 896Q422 896 403.0 915.0Q384 934 384 960V1344Q384 1370 403.0 1389.0Q422 1408 448 1408H704Q730 1408 749.0 1389.0Q768 1370 768 1344V960Q768 934 749.0 915.0Q730 896 704 896ZM1088 1408Q1114 1408 1133.0 1389.0Q1152 1370 1152 1344Q1152 1318 1133.0 1299.0Q1114 1280 1088 1280H960Q934 1280 915.0 1299.0Q896 1318 896 1344Q896 1370 915.0 1389.0Q934 1408 960 1408ZM640 1280H512V1024H640ZM1088 1024Q1114 1024 1133.0 1005.0Q1152 986 1152 960Q1152 934 1133.0 915.0Q1114 896 1088 896H960Q934 896 915.0 915.0Q896 934 896 960Q896 986 915.0 1005.0Q934 1024 960 1024ZM1088 640Q1114 640 1133.0 621.0Q1152 602 1152 576Q1152 550 1133.0 531.0Q1114 512 1088 512H448Q422 512 403.0 531.0Q384 550 384 576Q384 602 403.0 621.0Q422 640 448 640Z"/>
  </g>
</svg>