<?xml version="1.0" encoding="utf-8"?>
<svg xmlns="http://www.w3.org/2000/svg" width="16" height="16" viewBox="0 0 2048 2048">
  <g transform="translate(0, 2048) scale(1, -1)">
    <path fill="#ffffff" d="M1152 1728Q1152 1702 1133.0 1683.0Q1114 1664 1088 1664Q1058 1664 1041.0 1647.0Q1024 1630 1024 1600Q1024 1574 1005.0 1555.0Q986 1536 960 1536Q934 1536 915.0 1555.0Q896 1574 896 1600Q896 1630 879.0 1647.0Q862 1664 832 1664Q806 1664 787.0 1683.0Q768 1702 768 1728Q768 1754 787.0 1773.0Q806 1792 832 1792Q869 1792 882.5 1805.5Q896 1819 896 1856Q896 1882 915.0 1901.0Q934 1920 960 1920Q986 1920 1005.0 1901.0Q1024 1882 1024 1856Q1024 1819 1037.5 1805.5Q1051 1792 1088 1792Q1114 1792 1133.0 1773.0Q1152 1754 1152 1728ZM1920 1600Q1920 1572 1904.0 1549.0Q1888 1526 1862 1515L1814 1496Q1776 1481 1754.5 1459.5Q1733 1438 1719.0 1414.0Q1705 1390 1696.5 1366.0Q1688 1342 1676.5 1323.0Q1665 1304 1647.5 1292.0Q1630 1280 1600 1280Q1572 1280 1549.0 1296.0Q1526 1312 1515 1338Q1503 1366 1493.0 1390.0Q1483 1414 1469.5 1433.5Q1456 1453 1436.5 1468.5Q1417 1484 1386 1496Q1367 1504 1348.0 1511.5Q1329 1519 1314.0 1530.5Q1299 1542 1289.5 1558.5Q1280 1575 1280 1600Q1280 1630 1292.0 1647.5Q1304 1665 1323.0 1676.0Q1342 1687 1365.5 1696.0Q1389 1705 1413.0 1718.5Q1437 1732 1459.0 1754.0Q1481 1776 1496 1814L1515 1862Q1526 1888 1549.5 1901.5Q1573 1915 1600 1915Q1628 1915 1651.5 1901.0Q1675 1887 1686 1861L1704 1814Q1718 1777 1739.5 1755.5Q1761 1734 1785.0 1720.5Q1809 1707 1833.0 1697.5Q1857 1688 1876.5 1676.5Q1896 1665 1908.0 1647.5Q1920 1630 1920 1600ZM1734 1600Q1691 1622 1657.0 1657.0Q1623 1692 1600 1734Q1578 1691 1543.0 1657.0Q1508 1623 1466 1600Q1508 1577 1543.0 1543.0Q1578 1509 1600 1466Q1623 1508 1657.0 1543.0Q1691 1578 1734 1600ZM1024 885Q1053 875 1076.5 857.0Q1100 839 1117.0 815.0Q1134 791 1143.0 763.0Q1152 735 1152 704V192Q1152 153 1137.0 118.0Q1122 83 1095.5 56.5Q1069 30 1034.0 15.0Q999 0 960 0H320Q281 0 246.0 15.0Q211 30 184.5 56.5Q158 83 143.0 118.0Q128 153 128 192V704Q128 735 137.0 763.0Q146 791 163.0 815.0Q180 839 203.5 857.0Q227 875 256 885V1032Q256 1110 287.0 1178.5Q318 1247 371.0 1298.0Q424 1349 493.5 1378.5Q563 1408 640 1408Q717 1408 786.5 1378.5Q856 1349 909.0 1298.0Q962 1247 993.0 1178.5Q1024 1110 1024 1032ZM384 896H896V1029Q896 1081 875.0 1126.5Q854 1172 819.0 1206.0Q784 1240 737.5 1260.0Q691 1280 640 1280Q589 1280 542.5 1260.0Q496 1240 461.0 1206.0Q426 1172 405.0 1126.5Q384 1081 384 1029ZM1664 960Q1664 934 1645.0 915.0Q1626 896 1600 896Q1570 896 1553.0 879.0Q1536 862 1536 832Q1536 806 1517.0 787.0Q1498 768 1472 768Q1446 768 1427.0 787.0Q1408 806 1408 832Q1408 862 1391.0 879.0Q1374 896 1344 896Q1318 896 1299.0 915.0Q1280 934 1280 960Q1280 986 1299.0 1005.0Q1318 1024 1344 1024Q1381 1024 1394.5 1037.5Q1408 1051 1408 1088Q1408 1114 1427.0 1133.0Q1446 1152 1472 1152Q1498 1152 1517.0 1133.0Q1536 1114 1536 1088Q1536 1051 1549.5 1037.5Q1563 1024 1600 1024Q1626 1024 1645.0 1005.0Q1664 986 1664 960ZM1024 704Q1024 730 1005.0 749.0Q986 768 960 768H320Q294 768 275.0 749.0Q256 730 256 704V192Q256 166 275.0 147.0Q294 128 320 128H960Q986 128 1005.0 147.0Q1024 166 1024 192ZM768 448Q768 421 758.0 398.0Q748 375 730.5 357.5Q713 340 690.0 330.0Q667 320 640 320Q613 320 589.5 330.0Q566 340 549.0 357.0Q532 374 522.0 397.5Q512 421 512 448Q512 475 522.0 498.0Q532 521 549.5 538.5Q567 556 590.0 566.0Q613 576 640 576Q666 576 689.5 566.0Q713 556 730.5 538.5Q748 521 758.0 497.5Q768 474 768 448Z"/>
  </g>
</svg>