<?xml version="1.0" encoding="utf-8"?>
<svg xmlns="http://www.w3.org/2000/svg" width="16" height="16" viewBox="0 0 2048 2048">
  <g transform="translate(0, 2048) scale(1, -1)">
    <path fill="#ffffff" d="M1792 1312Q1792 1217 1777.5 1141.5Q1763 1066 1732.5 999.0Q1702 932 1653.5 870.5Q1605 809 1537 743Q1502 708 1477.5 675.0Q1453 642 1437.5 606.5Q1422 571 1415.0 530.0Q1408 489 1408 440Q1408 349 1371.5 269.0Q1335 189 1273.5 129.0Q1212 69 1130.5 34.5Q1049 0 960 0Q871 0 789.5 34.5Q708 69 646.5 129.0Q585 189 548.5 269.0Q512 349 512 440Q512 469 528.0 490.5Q544 512 576 512Q607 512 623.5 491.0Q640 470 640 441Q640 376 666.0 319.0Q692 262 736.0 219.5Q780 177 838.0 152.5Q896 128 960 128Q1027 128 1085.0 153.0Q1143 178 1186.5 221.5Q1230 265 1255.0 323.0Q1280 381 1280 448Q1280 568 1321.5 660.0Q1363 752 1449 836Q1491 877 1529.0 920.5Q1567 964 1596 1015Q1616 1050 1631.0 1087.0Q1646 1124 1653 1163Q1659 1200 1661.5 1237.0Q1664 1274 1664 1312Q1664 1399 1640.0 1478.0Q1616 1557 1573.5 1624.5Q1531 1692 1471.5 1746.5Q1412 1801 1340.5 1839.5Q1269 1878 1189.0 1899.0Q1109 1920 1024 1920Q944 1920 866.5 1901.5Q789 1883 719.0 1847.0Q649 1811 589.0 1758.5Q529 1706 484 1639Q450 1588 427.0 1532.5Q404 1477 393 1417Q390 1400 388.5 1384.5Q387 1369 385 1352Q381 1326 364.5 1309.5Q348 1293 321 1293Q295 1293 276.5 1311.5Q258 1330 258 1356Q258 1400 267.5 1447.0Q277 1494 293.0 1540.0Q309 1586 331.0 1629.0Q353 1672 377 1708Q431 1788 503.0 1851.5Q575 1915 658.5 1958.5Q742 2002 834.5 2025.0Q927 2048 1024 2048Q1126 2048 1223.0 2022.5Q1320 1997 1405.5 1950.0Q1491 1903 1562.0 1837.0Q1633 1771 1684.0 1689.0Q1735 1607 1763.5 1512.0Q1792 1417 1792 1312ZM1531 1353Q1531 1352 1531 1351L1532 1346Q1532 1345 1532 1344Q1532 1318 1513.0 1299.0Q1494 1280 1468 1280Q1442 1280 1425.5 1295.5Q1409 1311 1404 1335Q1398 1362 1392.5 1386.0Q1387 1410 1375 1436Q1352 1486 1316.0 1528.0Q1280 1570 1235.0 1600.0Q1190 1630 1137.5 1647.0Q1085 1664 1030 1664H1016Q941 1664 872.5 1633.5Q804 1603 752.5 1551.5Q701 1500 670.5 1431.5Q640 1363 640 1288Q640 1160 700.5 1071.0Q761 982 874 926Q892 917 902.5 903.0Q913 889 913 868Q913 841 894.5 822.5Q876 804 849 804Q837 804 824 809Q751 840 693.0 889.5Q635 939 595.0 1001.5Q555 1064 533.5 1137.5Q512 1211 512 1290Q512 1357 530.5 1420.0Q549 1483 582.5 1539.0Q616 1595 662.5 1641.5Q709 1688 765.0 1721.5Q821 1755 884.0 1773.5Q947 1792 1014 1792Q1111 1792 1198.5 1759.5Q1286 1727 1355.5 1669.0Q1425 1611 1471.0 1530.5Q1517 1450 1531 1353ZM1024 832Q1024 871 1009.0 906.0Q994 941 967.5 967.5Q941 994 906.0 1009.0Q871 1024 832 1024Q806 1024 787.0 1043.0Q768 1062 768 1088Q768 1119 789.0 1135.5Q810 1152 839 1152Q904 1152 961.0 1126.0Q1018 1100 1060.5 1056.0Q1103 1012 1127.5 954.0Q1152 896 1152 832Q1152 768 1127.5 710.0Q1103 652 1060.5 608.0Q1018 564 961.0 538.0Q904 512 839 512Q810 512 789.0 528.5Q768 545 768 576Q768 602 787.0 621.0Q806 640 832 640Q871 640 906.0 655.0Q941 670 967.5 696.5Q994 723 1009.0 758.0Q1024 793 1024 832Z"/>
  </g>
</svg>