<?xml version="1.0" encoding="utf-8"?>
<svg xmlns="http://www.w3.org/2000/svg" width="16" height="16" viewBox="0 0 2048 2048">
  <g transform="translate(0, 2048) scale(1, -1)">
    <path fill="#ffffff" d="M395 1664Q405 1693 423.0 1716.5Q441 1740 465.0 1757.0Q489 1774 517.0 1783.0Q545 1792 576 1792H645Q695 1792 740.5 1771.5Q786 1751 820.5 1716.5Q855 1682 875.5 1636.5Q896 1591 896 1541V1147Q896 1097 875.5 1051.5Q855 1006 820.5 971.5Q786 937 740.5 916.5Q695 896 645 896H576Q545 896 517.0 905.0Q489 914 465.0 931.0Q441 948 423.0 971.5Q405 995 395 1024Q370 1024 345.5 1023.0Q321 1022 297 1022Q252 1022 210.0 1028.5Q168 1035 128 1058V576Q128 550 109.0 531.0Q90 512 64 512Q38 512 19.0 531.0Q0 550 0 576V1413Q0 1465 21.0 1510.5Q42 1556 77.0 1590.0Q112 1624 158.5 1644.0Q205 1664 256 1664ZM768 1536Q768 1562 758.0 1585.5Q748 1609 730.5 1626.5Q713 1644 689.5 1654.0Q666 1664 640 1664H576Q550 1664 531.0 1645.0Q512 1626 512 1600V1088Q512 1062 531.0 1043.0Q550 1024 576 1024H640Q667 1024 690.0 1034.0Q713 1044 730.5 1061.5Q748 1079 758.0 1102.0Q768 1125 768 1152ZM256 1152H384V1536H256Q229 1536 206.0 1526.0Q183 1516 165.5 1498.5Q148 1481 138.0 1458.0Q128 1435 128 1408V1280Q128 1253 138.0 1229.5Q148 1206 165.0 1189.0Q182 1172 205.5 1162.0Q229 1152 256 1152ZM1797 1408Q1847 1408 1892.5 1387.5Q1938 1367 1972.5 1332.5Q2007 1298 2027.5 1252.5Q2048 1207 2048 1157V320Q2048 294 2029.0 275.0Q2010 256 1984 256Q1958 256 1939.0 275.0Q1920 294 1920 320V802Q1879 779 1837.0 772.5Q1795 766 1751 766Q1727 766 1702.5 767.0Q1678 768 1653 768Q1643 739 1625.0 715.5Q1607 692 1583.0 675.0Q1559 658 1531.0 649.0Q1503 640 1472 640H1408Q1357 640 1310.5 660.0Q1264 680 1229.0 714.0Q1194 748 1173.0 793.5Q1152 839 1152 891V1285Q1152 1335 1172.5 1380.5Q1193 1426 1227.5 1460.5Q1262 1495 1307.5 1515.5Q1353 1536 1403 1536H1472Q1503 1536 1531.0 1527.0Q1559 1518 1583.0 1501.0Q1607 1484 1625.0 1460.5Q1643 1437 1653 1408ZM1472 768Q1498 768 1517.0 787.0Q1536 806 1536 832V1344Q1536 1370 1517.0 1389.0Q1498 1408 1472 1408H1408Q1381 1408 1358.0 1398.0Q1335 1388 1317.5 1370.5Q1300 1353 1290.0 1330.0Q1280 1307 1280 1280V896Q1280 869 1290.0 845.5Q1300 822 1317.0 805.0Q1334 788 1357.5 778.0Q1381 768 1408 768ZM1792 896Q1819 896 1842.0 906.0Q1865 916 1882.5 933.5Q1900 951 1910.0 974.0Q1920 997 1920 1024V1152Q1920 1178 1910.0 1201.5Q1900 1225 1882.5 1242.5Q1865 1260 1841.5 1270.0Q1818 1280 1792 1280H1664V896Z"/>
  </g>
</svg>