<?xml version="1.0" encoding="utf-8"?>
<svg xmlns="http://www.w3.org/2000/svg" width="16" height="16" viewBox="0 0 2048 2048">
  <g transform="translate(0, 2048) scale(1, -1)">
    <path fill="#ffffff" d="M1408 1920Q1487 1920 1557.0 1890.0Q1627 1860 1679.5 1807.5Q1732 1755 1762.0 1685.0Q1792 1615 1792 1536V896Q1792 816 1762.0 746.5Q1732 677 1679.5 624.5Q1627 572 1557.0 542.0Q1487 512 1408 512H1216Q1176 512 1141.0 527.0Q1106 542 1080.0 568.0Q1054 594 1039.0 629.0Q1024 664 1024 704V768H704Q652 768 603.0 784.5Q554 801 512 832V64Q512 38 493.0 19.0Q474 0 448 0Q422 0 403.0 19.0Q384 38 384 64V1344Q384 1410 409.0 1468.5Q434 1527 477.5 1570.5Q521 1614 579.5 1639.0Q638 1664 704 1664H1024V1728Q1024 1768 1039.0 1803.0Q1054 1838 1080.0 1864.0Q1106 1890 1141.0 1905.0Q1176 1920 1216 1920ZM1152 704Q1152 678 1171.0 659.0Q1190 640 1216 640H1408Q1461 640 1507.5 660.0Q1554 680 1589.0 715.0Q1624 750 1644.0 796.5Q1664 843 1664 896V1536Q1664 1589 1644.0 1635.5Q1624 1682 1589.0 1717.0Q1554 1752 1507.5 1772.0Q1461 1792 1408 1792H1216Q1190 1792 1171.0 1773.0Q1152 1754 1152 1728ZM1024 1536H704Q664 1536 629.0 1521.0Q594 1506 568.0 1480.0Q542 1454 527.0 1419.0Q512 1384 512 1344V1088Q512 1048 527.0 1013.0Q542 978 568.0 952.0Q594 926 629.0 911.0Q664 896 704 896H1024Z"/>
  </g>
</svg>