<?xml version="1.0" encoding="utf-8"?>
<svg xmlns="http://www.w3.org/2000/svg" width="16" height="16" viewBox="0 0 2048 2048">
  <g transform="translate(0, 2048) scale(1, -1)">
    <path fill="#ffffff" d="M1920 1535Q1920 1501 1909.5 1468.5Q1899 1436 1880.0 1408.5Q1861 1381 1834.5 1360.0Q1808 1339 1776 1327L1408 1187V880Q1408 877 1422.0 838.0Q1436 799 1457.5 740.5Q1479 682 1504.5 612.5Q1530 543 1553.5 479.5Q1577 416 1594.5 367.0Q1612 318 1618 301Q1624 282 1628.0 263.0Q1632 244 1632 224Q1632 177 1614.5 136.5Q1597 96 1566.0 65.5Q1535 35 1494.0 17.5Q1453 0 1407 0Q1372 0 1339.5 10.5Q1307 21 1279.0 40.5Q1251 60 1230.0 87.5Q1209 115 1197 148L1024 625L850 148Q838 114 817.0 87.0Q796 60 768.5 40.5Q741 21 708.5 10.5Q676 0 640 0Q594 0 553.0 17.5Q512 35 481.5 65.5Q451 96 433.5 137.0Q416 178 416 224Q416 244 420.0 263.0Q424 282 430 301Q434 314 445.5 345.0Q457 376 472.5 418.5Q488 461 506.5 511.0Q525 561 543.5 611.5Q562 662 579.5 709.5Q597 757 610.5 794.0Q624 831 632.0 854.0Q640 877 640 879V1187L272 1327Q239 1339 212.5 1360.5Q186 1382 167.5 1409.0Q149 1436 138.5 1468.5Q128 1501 128 1536Q128 1582 145.5 1623.0Q163 1664 193.5 1694.5Q224 1725 264.5 1742.5Q305 1760 352 1760Q393 1760 432 1745L717 1636Q710 1660 707.0 1685.0Q704 1710 704 1735Q704 1800 730.0 1857.0Q756 1914 800.0 1956.5Q844 1999 902.0 2023.5Q960 2048 1024 2048Q1088 2048 1146.0 2023.5Q1204 1999 1248.0 1956.5Q1292 1914 1318.0 1857.0Q1344 1800 1344 1735Q1344 1710 1341.0 1685.0Q1338 1660 1330 1636L1616 1745Q1655 1760 1696 1760Q1742 1760 1783.0 1742.5Q1824 1725 1854.5 1694.0Q1885 1663 1902.5 1622.0Q1920 1581 1920 1535ZM832 1728Q832 1689 847.0 1654.0Q862 1619 888.5 1592.5Q915 1566 950.0 1551.0Q985 1536 1024 1536Q1063 1536 1098.0 1551.0Q1133 1566 1159.5 1592.5Q1186 1619 1201.0 1654.0Q1216 1689 1216 1728Q1216 1767 1201.0 1802.0Q1186 1837 1159.5 1863.5Q1133 1890 1098.0 1905.0Q1063 1920 1024 1920Q985 1920 950.0 1905.0Q915 1890 888.5 1863.5Q862 1837 847.0 1802.0Q832 1767 832 1728ZM1792 1537Q1792 1556 1784.5 1573.5Q1777 1591 1763.5 1604.0Q1750 1617 1732.5 1624.5Q1715 1632 1696 1632Q1678 1632 1662 1626L1126 1422Q1102 1413 1076.0 1408.0Q1050 1403 1024 1403Q973 1403 921 1422L386 1626Q369 1632 352 1632Q311 1632 283.5 1604.5Q256 1577 256 1536Q256 1506 272.5 1481.5Q289 1457 318 1446L727 1291Q746 1284 757.0 1267.5Q768 1251 768 1231V868Q768 855 764 846L550 257Q544 240 544 224Q544 184 572.0 156.0Q600 128 640 128Q670 128 694.5 145.0Q719 162 730 191L904 668Q918 708 949.5 730.5Q981 753 1024 753Q1067 753 1098.5 730.5Q1130 708 1144 668L1318 191Q1329 162 1353.0 145.0Q1377 128 1408 128Q1448 128 1476.0 156.0Q1504 184 1504 224Q1504 240 1498 257L1284 846Q1280 855 1280 868V1231Q1280 1251 1291.0 1267.5Q1302 1284 1321 1291L1730 1446Q1759 1457 1775.5 1481.5Q1792 1506 1792 1537Z"/>
  </g>
</svg>