<?xml version="1.0" encoding="utf-8"?>
<svg xmlns="http://www.w3.org/2000/svg" width="16" height="16" viewBox="0 0 2048 2048">
  <g transform="translate(0, 2048) scale(1, -1)">
    <path fill="#ffffff" d="M2017 87Q2017 61 1998.0 42.5Q1979 24 1953 24Q1948 24 1938 26L1443 150Q1426 155 1410.5 163.0Q1395 171 1383 183L106 1461Q55 1512 27.5 1580.0Q0 1648 0 1720Q0 1789 25.5 1849.0Q51 1909 95.5 1953.0Q140 1997 200.0 2022.5Q260 2048 329 2048Q395 2048 457.0 2022.5Q519 1997 566 1950L1858 658Q1870 646 1878.0 630.5Q1886 615 1891 598L2015 103Q2017 93 2017 87ZM250 1499 543 1792Q519 1816 496.5 1839.0Q474 1862 449.5 1880.0Q425 1898 396.0 1909.0Q367 1920 329 1920Q285 1920 248.0 1904.5Q211 1889 184.5 1861.5Q158 1834 143.0 1796.5Q128 1759 128 1715Q128 1677 138.0 1648.0Q148 1619 164.5 1594.0Q181 1569 203.0 1546.0Q225 1523 250 1499ZM340 1409 1474 274 1865 176 1767 567 633 1702Z"/>
  </g>
</svg>