<?xml version="1.0" encoding="utf-8"?>
<svg id="" width="16" height="16" style="width:16px;height:16px;" version="1.1"
    xmlns="http://www.w3.org/2000/svg" viewBox="0 0 2048 2048" enable-background="new 0 0 2048 2048"
    xml:space="preserve"><path fill="#000000" d="M2044.46 332.9 q0 72.85 -27.32 141.16 q-27.32 68.31 -78.93 119.91 l-1293.15 1293.15 q-12.14 12.15 -27.83 20.25 q-15.68 8.1 -32.88 13.15 l-500.87 125.47 q-10.12 2.02 -15.18 2.02 q-26.31 0 -45.53 -18.72 q-19.23 -18.72 -19.23 -45.03 q0 -6.07 2.03 -16.19 l125.47 -500.87 q5.05 -17.2 13.15 -32.89 q8.09 -15.68 20.25 -27.82 l1307.32 -1307.32 q47.55 -47.56 110.8 -73.36 q63.24 -25.8 130.02 -25.8 q69.82 0 130.53 25.8 q60.71 25.8 105.74 70.83 q45.03 45.03 70.33 105.74 q25.3 60.71 25.3 130.53 ZM1914.94 336.95 q0 -43.51 -14.67 -81.45 q-14.67 -37.94 -41.49 -66.28 q-26.81 -28.33 -64.25 -44.02 q-37.44 -15.68 -81.96 -15.68 q-38.45 0 -67.79 10.63 q-29.35 10.63 -54.14 28.84 q-24.79 18.21 -47.05 41.48 q-22.26 23.28 -47.56 48.58 l296.48 296.47 q25.29 -24.28 47.55 -47.55 q22.26 -23.28 38.96 -48.57 q16.7 -25.3 26.31 -54.64 q9.61 -29.35 9.61 -67.8 ZM157.34 1894.2 l395.64 -99.16 l1148.46 -1148.46 l-296.48 -296.48 l-1148.45 1148.46 l-99.17 395.64 Z"/>
</svg>