<?xml version="1.0" encoding="utf-8"?>
<svg xmlns="http://www.w3.org/2000/svg" width="16" height="16" viewBox="0 0 2048 2048">
  <g transform="translate(0, 2048) scale(1, -1)">
    <path fill="#000000" d="M64 256Q38 256 19.0 275.0Q0 294 0 320Q0 327 11.0 363.0Q22 399 38.5 450.0Q55 501 74.5 559.5Q94 618 112.0 671.5Q130 725 144.0 765.5Q158 806 163 820Q167 833 179 845L1283 1949Q1327 1993 1384.5 2017.0Q1442 2041 1504 2041Q1568 2041 1625.0 2016.5Q1682 1992 1725.0 1949.0Q1768 1906 1792.5 1849.0Q1817 1792 1817 1728Q1817 1665 1793.0 1608.5Q1769 1552 1725 1507L1563 1344Q1603 1300 1625.5 1257.0Q1648 1214 1648 1152Q1648 1101 1628.5 1054.0Q1609 1007 1573 971L1389 787Q1370 768 1344 768Q1318 768 1299.0 787.0Q1280 806 1280 832Q1280 858 1299 877L1483 1061Q1521 1099 1521 1152Q1521 1183 1508.0 1208.0Q1495 1233 1472 1253L621 403Q608 390 592 386L80 258Q70 256 64 256ZM162 410 543 506 1635 1597Q1661 1623 1675.0 1657.0Q1689 1691 1689 1728Q1689 1767 1674.5 1800.5Q1660 1834 1635.0 1859.0Q1610 1884 1576.5 1898.5Q1543 1913 1504 1913Q1467 1913 1433.0 1899.0Q1399 1885 1373 1859L280 765ZM320 192Q320 218 339.0 237.0Q358 256 384 256Q388 256 400.0 254.0Q412 252 414 248Q428 247 449.0 238.0Q470 229 485 224Q523 213 561.5 202.5Q600 192 639 182Q700 167 753.5 157.0Q807 147 859.0 140.5Q911 134 965.0 131.5Q1019 129 1082 129Q1097 129 1113 128L1133 126Q1149 125 1164 125Q1231 125 1313.5 134.5Q1396 144 1480.0 165.0Q1564 186 1643.0 220.5Q1722 255 1783.5 305.0Q1845 355 1882.5 422.0Q1920 489 1920 576Q1920 619 1906.0 654.5Q1892 690 1866.5 715.0Q1841 740 1806.0 754.0Q1771 768 1728 768Q1685 768 1650.0 754.0Q1615 740 1589.5 715.0Q1564 690 1550.0 654.5Q1536 619 1536 576Q1536 514 1564.0 458.5Q1592 403 1633 358Q1604 341 1572.5 329.0Q1541 317 1509 306Q1464 361 1436.0 432.5Q1408 504 1408 576Q1408 646 1432.0 704.5Q1456 763 1498.5 805.5Q1541 848 1600.0 872.0Q1659 896 1728 896Q1797 896 1856.0 872.0Q1915 848 1957.5 805.5Q2000 763 2024.0 704.5Q2048 646 2048 576Q2048 483 2016.5 402.5Q1985 322 1919 256H1953Q1970 256 1987.0 254.0Q2004 252 2017.5 245.5Q2031 239 2039.5 226.5Q2048 214 2048 192Q2048 170 2039.5 157.0Q2031 144 2017.5 137.5Q2004 131 1987.5 129.0Q1971 127 1954 127Q1945 127 1936.5 127.5Q1928 128 1920 128Q1882 128 1843.5 132.0Q1805 136 1767 145Q1686 102 1594.0 74.0Q1502 46 1405.5 29.5Q1309 13 1211.5 6.5Q1114 0 1024 0Q953 0 879.0 8.0Q805 16 731.5 29.5Q658 43 586.0 61.5Q514 80 447 102Q425 109 400.0 116.5Q375 124 355 135Q339 144 329.5 158.5Q320 173 320 192Z"/>
  </g>
</svg>