<?xml version="1.0" encoding="utf-8"?>
<svg id="" width="16" height="16" style="width:16px;height:16px;" version="1.1" xmlns="http://www.w3.org/2000/svg" viewBox="0 0 2048 2048" enable-background="new 0 0 2048 2048" xml:space="preserve">
    <path fill="#000" transform="translate(0, 300)" d="M384 785 l-256 -136 l0 405 q0 26 -19 45 q-19 19 -45 19 q-26 0 -45 -19 q-19 -19 -19 -45 l0 -512 q0 -18 9 -33 q9 -15 25 -23 l839 -448 q35 -18 73.5 -28 q38.5 -10 77.5 -10 q81 0 151 38 l839 448 q16 8 25 23 q9 15 9 33 q0 18 -9 33 q-9 15 -25 23 l-350 187 l0 397 q0 14 -5 24 q-5 10 -14 21 q-21 24 -50.5 48 q-29.5 24 -62 47 q-32.5 23 -65.5 42.5 q-33 19.5 -61 34.5 q-88 47 -184.5 75 q-96.5 28 -197.5 28 q-101 0 -197.5 -28 q-96.5 -28 -184.5 -75 q-28 -15 -61 -34.5 q-33 -19.5 -65.5 -42.5 q-32.5 -23 -62 -47 q-29.5 -24 -50.5 -48 q-9 -11 -14 -21 q-5 -10 -5 -24 l0 -397 ZM1024 955 q47 0 90 -22 l734 -391 l-734 -391 q-43 -23 -90 -23 q-47 0 -90 23 l-734 391 l734 391 q43 22 90 22 ZM1536 1155 l0 -302 l-361 193 q-35 19 -73 28 q-38 9 -78 9 q-39 0 -77.5 -9 q-38.5 -9 -73.5 -28 l-361 -193 l0 302 q49 45 110 84.5 q61 39.5 127.5 69.5 q66.5 30 136.5 47.5 q70 17.5 138 17.5 q67 0 137.5 -17.5 q70.5 -17.5 137 -47.5 q66.5 -30 127.5 -69.5 q61 -39.5 110 -84.5 Z"/>
</svg>