<?xml version="1.0" encoding="utf-8"?>
<svg xmlns="http://www.w3.org/2000/svg" width="16" height="16" viewBox="0 0 2048 2048">
  <g transform="translate(0, 2048) scale(1, -1)">
    <path fill="#000000" d="M512 1664Q512 1694 529.5 1720.0Q547 1746 575 1757Q590 1763 605.0 1768.5Q620 1774 635 1779Q684 1797 723.0 1837.0Q762 1877 781 1925Q790 1947 798.0 1969.0Q806 1991 818.0 2008.5Q830 2026 848.5 2037.0Q867 2048 896 2048Q930 2048 949.0 2033.5Q968 2019 981.0 1995.0Q994 1971 1005.5 1941.5Q1017 1912 1034.5 1882.5Q1052 1853 1080.5 1825.5Q1109 1798 1157 1780L1217 1757Q1245 1746 1262.5 1720.0Q1280 1694 1280 1664Q1280 1633 1263.0 1608.0Q1246 1583 1217 1572L1157 1549Q1109 1530 1080.5 1503.0Q1052 1476 1034.5 1446.0Q1017 1416 1006.0 1386.5Q995 1357 982.0 1333.5Q969 1310 949.5 1295.0Q930 1280 896 1280Q865 1280 840.0 1297.0Q815 1314 804 1343L781 1403Q762 1451 735.0 1480.0Q708 1509 678.0 1526.5Q648 1544 618.5 1555.0Q589 1566 565.0 1578.5Q541 1591 526.5 1610.5Q512 1630 512 1664ZM1101 1664Q1032 1693 978.5 1746.5Q925 1800 896 1869Q867 1800 813.5 1746.5Q760 1693 691 1664Q760 1635 813.5 1581.5Q867 1528 896 1459Q925 1528 978.5 1581.5Q1032 1635 1101 1664ZM1024 1024Q1024 1059 1044.0 1088.0Q1064 1117 1096 1130L1232 1182Q1287 1203 1319.0 1237.5Q1351 1272 1370.5 1311.0Q1390 1350 1402.0 1390.5Q1414 1431 1429.5 1463.0Q1445 1495 1469.0 1515.5Q1493 1536 1536 1536Q1569 1536 1599.0 1516.5Q1629 1497 1641 1465Q1648 1448 1655 1430L1680 1363Q1687 1346 1694 1328Q1715 1274 1749.5 1242.0Q1784 1210 1823.0 1190.5Q1862 1171 1902.5 1158.0Q1943 1145 1975.0 1129.5Q2007 1114 2027.5 1090.0Q2048 1066 2048 1024Q2048 990 2028.0 961.0Q2008 932 1976 919L1839 866Q1784 845 1752.0 810.5Q1720 776 1700.5 736.5Q1681 697 1668.5 657.0Q1656 617 1641.0 585.0Q1626 553 1602.0 532.5Q1578 512 1536 512Q1501 512 1472.0 531.5Q1443 551 1430 584L1378 720Q1357 774 1323.0 806.0Q1289 838 1249.5 858.0Q1210 878 1170.0 890.5Q1130 903 1097.5 919.0Q1065 935 1044.5 958.5Q1024 982 1024 1024ZM1893 1024Q1838 1045 1790.0 1066.0Q1742 1087 1702.5 1115.0Q1663 1143 1631.0 1182.5Q1599 1222 1575 1281L1536 1381L1498 1282Q1475 1222 1443.0 1182.5Q1411 1143 1370.5 1115.0Q1330 1087 1282.0 1066.5Q1234 1046 1179 1024Q1236 1003 1284.0 982.5Q1332 962 1371.5 934.0Q1411 906 1442.0 866.0Q1473 826 1497 766L1536 667Q1557 722 1577.5 770.0Q1598 818 1626.0 858.0Q1654 898 1693.5 929.5Q1733 961 1793 985ZM128 577Q128 614 149.0 644.0Q170 674 204 688L378 755Q435 777 468.5 815.0Q502 853 523.0 897.0Q544 941 557.5 986.5Q571 1032 588.5 1068.5Q606 1105 632.0 1128.5Q658 1152 704 1152Q740 1152 770.5 1131.0Q801 1110 815 1076L883 901Q899 859 925.0 830.0Q951 801 982.0 781.0Q1013 761 1047.0 747.5Q1081 734 1114.5 722.5Q1148 711 1178.0 700.0Q1208 689 1230.5 673.0Q1253 657 1266.5 634.0Q1280 611 1280 577Q1280 540 1259.5 509.5Q1239 479 1204 465L1029 397Q973 375 939.5 337.5Q906 300 885.0 255.5Q864 211 849.5 165.5Q835 120 818.0 83.5Q801 47 775.0 23.5Q749 0 704 0Q666 0 636.0 20.5Q606 41 592 77L525 251Q503 308 465.0 341.5Q427 375 383.0 395.5Q339 416 293.5 430.0Q248 444 211.5 461.0Q175 478 151.5 504.5Q128 531 128 577ZM1137 577Q1118 585 1099 592L1021 621Q1002 629 983 636Q916 662 873.0 700.0Q830 738 800.5 786.0Q771 834 749.5 890.5Q728 947 704 1009Q680 946 658.5 890.0Q637 834 607.5 786.0Q578 738 534.5 700.0Q491 662 424 636L271 577Q333 553 389.0 531.5Q445 510 493.0 480.5Q541 451 579.0 407.5Q617 364 644 297L704 143L764 298Q790 365 828.5 408.0Q867 451 914.5 480.5Q962 510 1018.5 531.5Q1075 553 1137 577Z"/>
  </g>
</svg>