<?xml version="1.0" encoding="utf-8"?>
<svg xmlns="http://www.w3.org/2000/svg" width="16" height="16" viewBox="0 0 2048 2048">
  <g transform="translate(0, 2048) scale(1, -1)">
    <path fill="#ffffff" d="M306 640Q272 640 243.0 653.0Q214 666 192.5 688.0Q171 710 158.5 739.5Q146 769 146 802Q146 847 173 888L890 1977Q913 2011 948.0 2030.0Q983 2049 1024 2049Q1065 2049 1100.0 2030.0Q1135 2011 1158 1977L1875 888Q1902 847 1902 802Q1902 769 1889.5 739.5Q1877 710 1855.5 688.0Q1834 666 1805.0 653.0Q1776 640 1742 640ZM1742 768Q1756 768 1765.0 778.0Q1774 788 1774 801Q1774 804 1772.5 809.5Q1771 815 1769 818L1051 1907Q1046 1914 1039.0 1917.5Q1032 1921 1024 1921Q1016 1921 1009.0 1917.5Q1002 1914 997 1907L280 818Q278 814 276.0 810.0Q274 806 274 801Q274 788 283.0 778.0Q292 768 306 768ZM192 256Q166 256 147.0 275.0Q128 294 128 320Q128 346 147.0 365.0Q166 384 192 384H1856Q1882 384 1901.0 365.0Q1920 346 1920 320Q1920 294 1901.0 275.0Q1882 256 1856 256Z"/>
  </g>
</svg>