<?xml version="1.0" encoding="utf-8"?>
<svg xmlns="http://www.w3.org/2000/svg" height="16" width="16" viewBox="0 0 16 16">
  <g>
    <path id="path1" transform="rotate(0,8,8) translate(0,0) scale(0.03125,0.03125)  " fill="#000000" d="M320,288L352,288 352,432 351.703125,435.140625 350.8125,438.0625 349.328125,440.765625 347.25,443.25 344.765625,445.328125 342.0625,446.8125 339.140625,447.703125 336,448 320,448 320,288z M208,248L212.8125,248.4375 217.25,249.75 221.3125,251.9375 225,255 228.0625,258.6875 230.25,262.75 231.5625,267.1875 232,272 231.5625,276.8125 230.25,281.25 228.0625,285.3125 225,289 221.3125,292.0625 217.25,294.25 212.8125,295.5625 208,296 203.187484741211,295.5625 198.749984741211,294.25 194.6875,292.0625 191,289 187.9375,285.3125 185.75,281.25 184.4375,276.8125 184,272 184.4375,267.1875 185.75,262.75 187.9375,258.6875 191,255 194.6875,251.9375 198.749984741211,249.75 203.187484741211,248.4375 208,248z M256,66.75L64,96 64,416 256,445.5 256,66.75z M320,63.9999961853027L336,63.9999961853027 339.140625,64.296875 342.0625,65.1875 344.765625,66.6718826293945 347.25,68.75 349.328125,71.2343902587891 350.8125,73.9375152587891 351.703125,76.8593902587891 352,80 352,192 320,192 320,63.9999961853027z M272.25,32L275.484375,32.2890777587891 278.4375,33.1562690734863 281.109375,34.6015739440918 283.5,36.625 285.46875,39.0703163146973 286.875,41.7812538146973 287.71875,44.7578125 288,48 288,224 453.5,224 421.5,196 419.09375,193.46875 417.375,190.625 416.34375,187.46875 416,184 416.296875,180.859390258789 417.1875,177.937515258789 418.671875,175.234390258789 420.75,172.75 423.234375,170.671875 425.9375,169.1875 428.859375,168.296875 432,168 434.921844482422,168.25 437.687469482422,169 440.296875,170.25 442.75,172 506.5,228 508.90625,230.625 510.625,233.5 511.65625,236.625 512,240 511.65625,243.46875 510.625,246.625 508.90625,249.46875 506.5,252 442.75,308 440.296875,309.75 437.687469482422,311 434.921844482422,311.75 432,312 428.859375,311.703125 425.9375,310.8125 423.234375,309.328125 420.75,307.25 418.671875,304.765625 417.1875,302.0625 416.296875,299.140625 416,296 416.34375,292.625 417.375,289.5 419.09375,286.625 421.5,284 453.5,256 288,256 288,464 287.7265625,467.140625 286.90625,470.0625 285.5390625,472.765625 283.625,475.25 281.2890625,477.328125 278.65625,478.8125 275.7265625,479.703125 272.5,480 270.75,479.9375 269.5,479.75 45.5,445.5 42.640625,444.7890625 40.0625,443.65625 37.765625,442.1015625 35.75,440.125 34.109375,437.8359375 32.9375,435.34375 32.234375,432.6484375 32,429.75 32,82.25 32.234375,79.3515777587891 32.9375,76.6562652587891 34.109375,74.1640777587891 35.75,71.875 37.765625,69.8984451293945 40.0625,68.3437652587891 42.640625,67.2109451293945 45.5,66.5 269.5,32.2500038146973 270.6875,32.0625267028809 272.25,32z" />
  </g>
</svg>
