<?xml version="1.0" encoding="utf-8"?>
<svg xmlns="http://www.w3.org/2000/svg" width="16" height="16" viewBox="0 0 2048 2048">
  <g transform="translate(0, 2048) scale(1, -1)">
    <path fill="#ffffff" d="M320 0Q294 0 275.0 19.0Q256 38 256 64V1856Q256 1895 271.0 1930.0Q286 1965 312.5 1991.5Q339 2018 374.0 2033.0Q409 2048 448 2048H1216Q1255 2048 1290.0 2033.0Q1325 2018 1351.5 1991.5Q1378 1965 1393.0 1930.0Q1408 1895 1408 1856V1280H1600Q1639 1280 1674.0 1265.0Q1709 1250 1735.5 1223.5Q1762 1197 1777.0 1162.0Q1792 1127 1792 1088V64Q1792 38 1773.0 19.0Q1754 0 1728 0ZM384 128H640V448Q640 474 659.0 493.0Q678 512 704 512H1344Q1370 512 1389.0 493.0Q1408 474 1408 448V128H1664V1088Q1664 1114 1645.0 1133.0Q1626 1152 1600 1152H1344Q1318 1152 1299.0 1171.0Q1280 1190 1280 1216V1856Q1280 1882 1261.0 1901.0Q1242 1920 1216 1920H448Q422 1920 403.0 1901.0Q384 1882 384 1856ZM512 1568Q512 1608 540.0 1636.0Q568 1664 608 1664Q648 1664 676.0 1636.0Q704 1608 704 1568Q704 1528 676.0 1500.0Q648 1472 608 1472Q568 1472 540.0 1500.0Q512 1528 512 1568ZM896 1568Q896 1608 924.0 1636.0Q952 1664 992 1664Q1032 1664 1060.0 1636.0Q1088 1608 1088 1568Q1088 1528 1060.0 1500.0Q1032 1472 992 1472Q952 1472 924.0 1500.0Q896 1528 896 1568ZM512 1184Q512 1224 540.0 1252.0Q568 1280 608 1280Q648 1280 676.0 1252.0Q704 1224 704 1184Q704 1144 676.0 1116.0Q648 1088 608 1088Q568 1088 540.0 1116.0Q512 1144 512 1184ZM896 1184Q896 1224 924.0 1252.0Q952 1280 992 1280Q1032 1280 1060.0 1252.0Q1088 1224 1088 1184Q1088 1144 1060.0 1116.0Q1032 1088 992 1088Q952 1088 924.0 1116.0Q896 1144 896 1184ZM512 800Q512 840 540.0 868.0Q568 896 608 896Q648 896 676.0 868.0Q704 840 704 800Q704 760 676.0 732.0Q648 704 608 704Q568 704 540.0 732.0Q512 760 512 800ZM896 800Q896 840 924.0 868.0Q952 896 992 896Q1032 896 1060.0 868.0Q1088 840 1088 800Q1088 760 1060.0 732.0Q1032 704 992 704Q952 704 924.0 732.0Q896 760 896 800ZM1280 800Q1280 840 1308.0 868.0Q1336 896 1376 896Q1416 896 1444.0 868.0Q1472 840 1472 800Q1472 760 1444.0 732.0Q1416 704 1376 704Q1336 704 1308.0 732.0Q1280 760 1280 800ZM768 384V128H960V384ZM1088 384V128H1280V384Z"/>
  </g>
</svg>