<?xml version="1.0" encoding="utf-8"?>
<svg xmlns="http://www.w3.org/2000/svg" width="16" height="16" viewBox="0 0 2048 2048">
  <g transform="translate(0, 2048) scale(1, -1)">
    <path fill="#ffffff" d="M1417 2048H1585Q1750 1841 1834.5 1596.5Q1919 1352 1919 1088Q1919 824 1834.5 579.5Q1750 335 1585 128H1417Q1508 225 1577.5 337.5Q1647 450 1694.5 572.5Q1742 695 1766.5 825.0Q1791 955 1791 1088Q1791 1221 1766.5 1351.0Q1742 1481 1694.5 1603.5Q1647 1726 1577.5 1838.0Q1508 1950 1417 2048ZM256 1408Q229 1408 206.0 1418.0Q183 1428 165.5 1445.5Q148 1463 138.0 1486.0Q128 1509 128 1536Q128 1563 138.0 1586.0Q148 1609 165.5 1626.5Q183 1644 206.0 1654.0Q229 1664 256 1664Q283 1664 306.0 1654.0Q329 1644 346.5 1626.5Q364 1609 374.0 1586.0Q384 1563 384 1536Q384 1509 374.0 1486.0Q364 1463 346.5 1445.5Q329 1428 306.0 1418.0Q283 1408 256 1408ZM1280 1024H640V1152H1280ZM256 256H128L256 768H416Z"/>
  </g>
</svg>