<?xml version="1.0" encoding="utf-8"?>
<svg xmlns="http://www.w3.org/2000/svg" width="16" height="16" viewBox="0 0 2048 2048">
  <g transform="translate(0, 2048) scale(1, -1)">
    <path fill="#000000" d="M0 1088Q0 1220 34.5 1342.5Q69 1465 131.5 1572.0Q194 1679 281.5 1766.5Q369 1854 476.0 1916.5Q583 1979 705.5 2013.5Q828 2048 960 2048Q1092 2048 1214.5 2013.5Q1337 1979 1443.5 1916.5Q1550 1854 1638.0 1766.0Q1726 1678 1788.5 1571.5Q1851 1465 1885.5 1342.5Q1920 1220 1920 1088Q1920 956 1885.5 833.5Q1851 711 1788.5 604.0Q1726 497 1638.5 409.5Q1551 322 1444.0 259.5Q1337 197 1214.5 162.5Q1092 128 960 128Q827 128 704.5 162.5Q582 197 475.5 259.5Q369 322 281.5 409.5Q194 497 131.5 603.5Q69 710 34.5 833.0Q0 956 0 1088ZM1792 1088Q1792 1203 1762.0 1309.0Q1732 1415 1678.0 1507.5Q1624 1600 1548.0 1676.0Q1472 1752 1379.5 1806.0Q1287 1860 1181.0 1890.0Q1075 1920 960 1920Q845 1920 739.0 1890.0Q633 1860 540.5 1806.0Q448 1752 372.0 1676.0Q296 1600 242.0 1507.5Q188 1415 158.0 1309.0Q128 1203 128 1088Q128 973 158.0 867.0Q188 761 242.0 668.5Q296 576 372.0 500.0Q448 424 540.5 370.0Q633 316 739.0 286.0Q845 256 960 256Q1075 256 1181.0 286.0Q1287 316 1379.5 370.0Q1472 424 1548.0 500.0Q1624 576 1678.0 668.5Q1732 761 1762.0 867.0Q1792 973 1792 1088ZM960 1024Q934 1024 915.0 1043.0Q896 1062 896 1088V1600Q896 1626 915.0 1645.0Q934 1664 960 1664Q986 1664 1005.0 1645.0Q1024 1626 1024 1600V1152H1344Q1370 1152 1389.0 1133.0Q1408 1114 1408 1088Q1408 1062 1389.0 1043.0Q1370 1024 1344 1024Z"/>
  </g>
</svg>