<?xml version="1.0" encoding="utf-8"?>
<svg xmlns="http://www.w3.org/2000/svg" width="16" height="16" viewBox="0 0 2048 2048">
  <g transform="translate(0, 2048) scale(1, -1)">
    <path fill="#000000" d="M1920 1791V267Q1920 214 1900.0 167.5Q1880 121 1845.5 86.0Q1811 51 1764.0 30.5Q1717 10 1664 10Q1630 10 1598.0 19.0Q1566 28 1537 45L203 807Q143 841 109.5 897.5Q76 954 76 1023Q76 1100 121 1161Q214 1291 331.0 1405.5Q448 1520 581.5 1616.0Q715 1712 861.5 1787.0Q1008 1862 1160 1912Q1190 1922 1232.5 1935.0Q1275 1948 1323.5 1961.5Q1372 1975 1423.5 1987.5Q1475 2000 1523.5 2010.5Q1572 2021 1614.5 2027.0Q1657 2033 1688 2033Q1738 2033 1780.5 2013.5Q1823 1994 1854.0 1961.0Q1885 1928 1902.5 1884.0Q1920 1840 1920 1791ZM424 828Q526 1013 673.0 1164.5Q820 1316 998.5 1424.5Q1177 1533 1379.0 1595.0Q1581 1657 1792 1663V1791Q1792 1813 1784.5 1833.5Q1777 1854 1763.5 1870.0Q1750 1886 1731.0 1895.5Q1712 1905 1689 1905Q1684 1905 1681.0 1905.0Q1678 1905 1673 1904Q1434 1868 1204 1792Q1067 1747 939.5 1682.0Q812 1617 692 1537Q630 1496 565.0 1443.0Q500 1390 438.0 1331.0Q376 1272 321.0 1209.0Q266 1146 224 1085Q214 1070 208.5 1055.5Q203 1041 203 1023Q203 991 220.5 962.5Q238 934 266 918ZM1792 267V1527Q1663 1523 1537.5 1496.0Q1412 1469 1294.0 1421.5Q1176 1374 1067.0 1307.0Q958 1240 862.0 1156.0Q766 1072 685.0 972.5Q604 873 542 760L1601 156Q1630 139 1665 139Q1691 139 1714.0 149.0Q1737 159 1754.5 176.5Q1772 194 1782.0 217.0Q1792 240 1792 267ZM1664 1088Q1664 1049 1649.0 1014.0Q1634 979 1607.5 952.5Q1581 926 1546.0 911.0Q1511 896 1472 896Q1433 896 1398.0 911.0Q1363 926 1336.5 952.5Q1310 979 1295.0 1014.0Q1280 1049 1280 1088Q1280 1127 1295.0 1162.0Q1310 1197 1336.5 1223.5Q1363 1250 1398.0 1265.0Q1433 1280 1472 1280Q1511 1280 1546.0 1265.0Q1581 1250 1607.5 1223.5Q1634 1197 1649.0 1162.0Q1664 1127 1664 1088ZM1152 768Q1152 741 1142.0 718.0Q1132 695 1114.5 677.5Q1097 660 1074.0 650.0Q1051 640 1024 640Q997 640 973.5 650.0Q950 660 933.0 677.0Q916 694 906.0 717.5Q896 741 896 768Q896 795 906.0 818.0Q916 841 933.5 858.5Q951 876 974.0 886.0Q997 896 1024 896Q1050 896 1073.5 886.0Q1097 876 1114.5 858.5Q1132 841 1142.0 817.5Q1152 794 1152 768ZM1664 512Q1664 485 1654.0 462.0Q1644 439 1626.5 421.5Q1609 404 1586.0 394.0Q1563 384 1536 384Q1509 384 1485.5 394.0Q1462 404 1445.0 421.0Q1428 438 1418.0 461.5Q1408 485 1408 512Q1408 539 1418.0 562.0Q1428 585 1445.5 602.5Q1463 620 1486.0 630.0Q1509 640 1536 640Q1562 640 1585.5 630.0Q1609 620 1626.5 602.5Q1644 585 1654.0 561.5Q1664 538 1664 512Z"/>
  </g>
</svg>