<?xml version="1.0" encoding="utf-8"?>
<svg xmlns="http://www.w3.org/2000/svg" width="16" height="16" viewBox="0 0 2048 2048">
  <g transform="translate(0, 2048) scale(1, -1)">
    <path fill="#ffffff" d="M2048 1101V576Q2048 537 2033.0 502.0Q2018 467 1991.5 440.5Q1965 414 1930.0 399.0Q1895 384 1856 384H1758Q1724 324 1664.5 290.0Q1605 256 1536 256Q1467 256 1407.5 290.0Q1348 324 1314 384H734Q700 324 640.5 290.0Q581 256 512 256Q443 256 383.5 290.0Q324 324 290 384H192Q153 384 118.0 399.0Q83 414 56.5 440.5Q30 467 15.0 502.0Q0 537 0 576V901Q0 952 20.5 997.0Q41 1042 75.5 1076.0Q110 1110 155.5 1130.5Q201 1151 251 1152H416L704 1536Q750 1597 817.0 1630.5Q884 1664 960 1664H1593Q1641 1664 1686.0 1650.5Q1731 1637 1769.0 1612.0Q1807 1587 1837.0 1551.5Q1867 1516 1886 1472L2043 1114Q2045 1112 2045 1109L2046 1106Q2047 1103 2048 1101ZM1856 512Q1888 512 1904.0 533.5Q1920 555 1920 584Q1887 592 1864.5 619.5Q1842 647 1842 682Q1842 717 1864.0 745.0Q1886 773 1920 782V1024H1728Q1702 1024 1683.0 1043.0Q1664 1062 1664 1088V1344Q1664 1367 1673.5 1380.0Q1683 1393 1698.0 1399.0Q1713 1405 1731.0 1406.5Q1749 1408 1766 1408H1774Q1747 1466 1703.5 1501.0Q1660 1536 1593 1536H960Q923 1536 896.0 1526.0Q869 1516 847.0 1499.0Q825 1482 806.5 1458.5Q788 1435 768 1408H960Q986 1408 1005.0 1389.0Q1024 1370 1024 1344V1088Q1024 1062 1005.0 1043.0Q986 1024 960 1024H256Q229 1024 206.0 1014.0Q183 1004 165.5 986.5Q148 969 138.0 946.0Q128 923 128 896V785Q154 785 169.0 777.0Q184 769 192.0 755.5Q200 742 202.0 724.5Q204 707 204 688V649Q204 616 181.5 598.0Q159 580 128 580V576Q128 554 136.5 541.0Q145 528 158.5 521.5Q172 515 188.5 513.0Q205 511 222 511Q231 511 239.5 511.5Q248 512 256 512V517Q256 569 277.0 614.5Q298 660 333.0 694.0Q368 728 414.5 748.0Q461 768 512 768Q561 768 607.5 748.0Q654 728 689.5 694.5Q725 661 746.5 616.0Q768 571 768 520V512H1280V517Q1280 569 1301.0 614.5Q1322 660 1357.0 694.0Q1392 728 1438.5 748.0Q1485 768 1536 768Q1585 768 1631.5 748.0Q1678 728 1713.5 694.5Q1749 661 1770.5 616.0Q1792 571 1792 520V512ZM1472 1408Q1498 1408 1517.0 1389.0Q1536 1370 1536 1344V1088Q1536 1062 1517.0 1043.0Q1498 1024 1472 1024H1216Q1190 1024 1171.0 1043.0Q1152 1062 1152 1088V1344Q1152 1370 1171.0 1389.0Q1190 1408 1216 1408ZM640 512Q640 538 630.0 561.5Q620 585 602.5 602.5Q585 620 561.5 630.0Q538 640 512 640Q485 640 462.0 630.0Q439 620 421.5 602.5Q404 585 394.0 562.0Q384 539 384 512Q384 485 394.0 461.5Q404 438 421.0 421.0Q438 404 461.5 394.0Q485 384 512 384Q539 384 562.0 394.0Q585 404 602.5 421.5Q620 439 630.0 462.0Q640 485 640 512ZM1664 512Q1664 538 1654.0 561.5Q1644 585 1626.5 602.5Q1609 620 1585.5 630.0Q1562 640 1536 640Q1509 640 1486.0 630.0Q1463 620 1445.5 602.5Q1428 585 1418.0 562.0Q1408 539 1408 512Q1408 485 1418.0 461.5Q1428 438 1445.0 421.0Q1462 404 1485.5 394.0Q1509 384 1536 384Q1563 384 1586.0 394.0Q1609 404 1626.5 421.5Q1644 439 1654.0 462.0Q1664 485 1664 512Z"/>
  </g>
</svg>