<?xml version="1.0" encoding="utf-8"?>
<svg xmlns="http://www.w3.org/2000/svg" width="16" height="16" viewBox="0 0 2048 2048">
  <g transform="translate(0, 2048) scale(1, -1)">
    <path fill="#ffffff" d="M432 0Q345 0 266.5 35.0Q188 70 129.0 129.0Q70 188 35.0 266.5Q0 345 0 432Q0 488 11.0 534.0Q22 580 44 631Q47 639 49.5 646.5Q52 654 52 662Q52 670 49.5 677.5Q47 685 44 693Q24 741 12.0 788.0Q0 835 0 887Q0 957 18.5 1017.0Q37 1077 75 1136Q113 1195 129.5 1256.0Q146 1317 146 1386Q146 1474 181.5 1554.0Q217 1634 277.5 1695.0Q338 1756 417.5 1792.0Q497 1828 585 1828Q608 1828 626.0 1834.5Q644 1841 658 1860Q727 1951 818.0 1999.5Q909 2048 1024 2048Q1143 2048 1230.5 2000.0Q1318 1952 1390 1860Q1405 1840 1421.0 1834.5Q1437 1829 1460 1829Q1551 1829 1631.5 1792.0Q1712 1755 1772.0 1693.0Q1832 1631 1867.0 1549.0Q1902 1467 1902 1377Q1902 1323 1913.0 1281.0Q1924 1239 1940 1203Q1952 1175 1966 1149L1984 1116Q1998 1090 2010 1063Q2026 1026 2037.0 983.5Q2048 941 2048 887Q2048 834 2036.5 787.5Q2025 741 2004 693Q1997 678 1997 662Q1997 646 2004 631Q2026 580 2037.0 534.0Q2048 488 2048 432Q2048 345 2013.0 266.5Q1978 188 1919.0 129.0Q1860 70 1781.5 35.0Q1703 0 1616 0ZM1013 128Q898 128 792.5 168.0Q687 208 602.0 278.5Q517 349 458.0 446.0Q399 543 378 656Q340 670 309.0 694.0Q278 718 256.0 749.5Q234 781 222.5 818.0Q211 855 211 896Q211 969 249.0 1030.5Q287 1092 352 1125Q354 1206 387.5 1260.0Q421 1314 492 1354H494Q533 1374 561.5 1400.5Q590 1427 607 1469L608 1470Q622 1504 643.5 1528.0Q665 1552 706 1552Q733 1552 751.0 1540.0Q769 1528 784.5 1510.5Q800 1493 817.0 1474.5Q834 1456 860 1443Q886 1430 918.0 1423.0Q950 1416 983.5 1412.5Q1017 1409 1050.0 1408.5Q1083 1408 1112 1408H1496Q1514 1408 1532.0 1400.0Q1550 1392 1566.0 1379.5Q1582 1367 1595.5 1352.5Q1609 1338 1620 1325Q1653 1283 1671.0 1238.0Q1689 1193 1694 1140Q1731 1125 1761.0 1101.0Q1791 1077 1812.0 1046.0Q1833 1015 1844.5 978.5Q1856 942 1856 902Q1856 860 1842.0 820.5Q1828 781 1803.5 748.0Q1779 715 1744.5 691.0Q1710 667 1669 656Q1648 543 1589.0 446.0Q1530 349 1445.5 278.5Q1361 208 1255.5 168.0Q1150 128 1035 128H1614Q1675 128 1730.5 152.5Q1786 177 1828.0 219.0Q1870 261 1895.0 316.5Q1920 372 1920 434Q1920 475 1912.5 506.5Q1905 538 1889 575Q1880 596 1874.5 617.5Q1869 639 1869 662Q1869 691 1877.0 715.0Q1885 739 1894.5 764.5Q1904 790 1912.0 819.0Q1920 848 1920 887Q1920 937 1906.0 980.5Q1892 1024 1866 1066Q1819 1142 1796.5 1218.0Q1774 1294 1774 1384Q1774 1449 1748.0 1507.0Q1722 1565 1678.0 1608.0Q1634 1651 1575.5 1676.0Q1517 1701 1452 1701Q1403 1701 1370.5 1717.0Q1338 1733 1312.5 1757.5Q1287 1782 1263.5 1810.5Q1240 1839 1209.0 1863.5Q1178 1888 1134.0 1904.0Q1090 1920 1024 1920Q945 1920 878.0 1886.5Q811 1853 765 1789Q731 1741 687.5 1721.5Q644 1702 587 1700Q521 1698 464.0 1672.0Q407 1646 364.5 1602.5Q322 1559 298.0 1501.0Q274 1443 274 1377Q274 1295 250.5 1215.0Q227 1135 182 1066Q156 1026 142.0 980.5Q128 935 128 887Q128 850 136.0 821.5Q144 793 153.5 767.5Q163 742 171.0 717.0Q179 692 179 662Q179 638 174.0 617.5Q169 597 159 575Q142 540 135.0 506.5Q128 473 128 434Q128 372 152.5 316.5Q177 261 219.0 219.0Q261 177 316.5 152.5Q372 128 434 128ZM1556 771 1609 775Q1634 777 1656.0 787.5Q1678 798 1694.0 815.0Q1710 832 1719.0 854.0Q1728 876 1728 902Q1728 926 1720.0 947.0Q1712 968 1697.5 985.0Q1683 1002 1663.5 1013.5Q1644 1025 1621 1029Q1614 1030 1607 1031L1579 1036Q1572 1037 1565 1038Q1566 1058 1567.0 1076.5Q1568 1095 1568 1115Q1568 1163 1545.5 1205.0Q1523 1247 1488 1278L1485 1280H1112Q1058 1280 1004.0 1282.5Q950 1285 899.0 1296.0Q848 1307 801.0 1330.0Q754 1353 714 1394Q687 1341 646.5 1303.5Q606 1266 552 1240Q551 1240 550 1239L547 1238Q546 1238 545 1237L544 1236Q527 1231 514.5 1218.0Q502 1205 494.5 1189.0Q487 1173 483.5 1155.0Q480 1137 480 1121Q480 1099 481.0 1077.0Q482 1055 483 1033Q454 1026 428.0 1016.5Q402 1007 382.5 992.0Q363 977 351.0 954.0Q339 931 339 896Q339 849 369.0 814.0Q399 779 445 770L491 762L497 715Q510 617 555.5 533.0Q601 449 670.0 387.5Q739 326 828.0 291.0Q917 256 1016 256Q1119 256 1210.5 289.5Q1302 323 1373.5 384.0Q1445 445 1491.0 530.0Q1537 615 1550 719ZM574 1153Q560 1153 549.5 1162.0Q539 1171 539 1186Q539 1206 565.0 1221.0Q591 1236 625.5 1246.0Q660 1256 693.5 1261.0Q727 1266 743 1266H747Q757 1266 771.0 1265.5Q785 1265 797.0 1261.0Q809 1257 817.5 1249.5Q826 1242 826 1229Q826 1214 816.0 1204.0Q806 1194 791 1194Q780 1194 767.5 1196.0Q755 1198 743 1198Q719 1198 695.5 1194.0Q672 1190 649 1182Q643 1180 632.0 1175.0Q621 1170 609.5 1165.0Q598 1160 588.0 1156.5Q578 1153 574 1153ZM1304 1198Q1292 1198 1280.0 1196.0Q1268 1194 1257 1194Q1243 1194 1232.5 1203.5Q1222 1213 1222 1227Q1222 1241 1230.5 1249.0Q1239 1257 1251.0 1260.5Q1263 1264 1276.5 1265.0Q1290 1266 1301 1266H1305Q1320 1266 1354.0 1261.0Q1388 1256 1422.0 1246.5Q1456 1237 1482.0 1222.0Q1508 1207 1508 1186Q1508 1172 1498.5 1162.5Q1489 1153 1475 1153Q1470 1153 1460.0 1157.0Q1450 1161 1438.0 1166.0Q1426 1171 1415.0 1175.5Q1404 1180 1398 1182Q1375 1190 1351.5 1194.0Q1328 1198 1304 1198ZM585 896Q568 896 558.5 906.5Q549 917 549 932Q549 936 550 939Q539 948 530.5 957.0Q522 966 522 982Q522 997 531.0 1007.5Q540 1018 551 1026Q583 1050 614.0 1062.0Q645 1074 686 1074Q690 1074 693 1073H696Q699 1072 703 1072Q707 1072 711 1073H716Q719 1074 723 1074Q755 1074 784.0 1063.5Q813 1053 836.0 1033.5Q859 1014 875.0 987.5Q891 961 897 930Q897 929 897 928L898 926Q898 925 898 924Q898 906 885.0 901.0Q872 896 858 896Q861 904 861.5 911.0Q862 918 862 926Q862 950 853.5 971.0Q845 992 829.5 1007.0Q814 1022 793.5 1031.0Q773 1040 749 1040Q725 1040 704.0 1031.0Q683 1022 668.0 1007.0Q653 992 644.0 971.0Q635 950 635 926Q635 918 636.0 911.0Q637 904 639 896ZM1186 896Q1174 896 1165.5 904.5Q1157 913 1157 925V930Q1161 961 1177.5 987.5Q1194 1014 1218.0 1033.0Q1242 1052 1271.5 1063.0Q1301 1074 1331 1074Q1345 1074 1359 1071Q1369 1074 1382 1074Q1423 1074 1454.0 1062.0Q1485 1050 1517 1026Q1528 1018 1537.0 1008.0Q1546 998 1546 982Q1546 962 1532.5 951.5Q1519 941 1505 931Q1505 917 1494.5 906.5Q1484 896 1470 896H1415Q1419 909 1419 926Q1419 950 1410.0 970.5Q1401 991 1385.5 1006.5Q1370 1022 1349.5 1031.0Q1329 1040 1305 1040Q1282 1040 1261.5 1031.5Q1241 1023 1225.5 1008.0Q1210 993 1201.0 972.5Q1192 952 1192 928Q1192 909 1196 896ZM692 896Q684 910 684 926Q684 935 686.5 943.0Q689 951 693 959Q700 949 710 949Q718 949 724.0 955.5Q730 962 730 970Q730 981 723 985Q735 991 749 991Q776 991 795.0 972.0Q814 953 814 926Q814 910 806 896ZM1247 896Q1240 912 1240 926Q1240 945 1251 962Q1256 949 1269 949Q1278 949 1284.0 955.0Q1290 961 1290 970Q1290 980 1281 987Q1292 991 1305 991Q1332 991 1350.5 971.5Q1369 952 1369 926Q1369 909 1362 896ZM974 640Q945 640 925.0 659.5Q905 679 905 708Q905 720 914.0 753.0Q923 786 935.0 823.5Q947 861 958.5 895.5Q970 930 975 945Q980 961 993.5 971.0Q1007 981 1024 981Q1041 981 1054.5 971.5Q1068 962 1073 945Q1078 930 1089.5 895.5Q1101 861 1113.0 823.5Q1125 786 1134.0 753.0Q1143 720 1143 708Q1143 679 1123.0 659.5Q1103 640 1074 640ZM819 535Q819 543 825.0 548.5Q831 554 839 554Q841 554 844.0 553.0Q847 552 848 552Q874 541 893.5 533.5Q913 526 932.0 520.5Q951 515 972.5 512.5Q994 510 1024 510Q1054 510 1075.5 512.5Q1097 515 1116.0 520.5Q1135 526 1154.5 533.5Q1174 541 1200 552Q1201 552 1204.0 553.0Q1207 554 1209 554Q1228 554 1228 535Q1228 529 1225 525Q1193 473 1138.5 445.0Q1084 417 1024 417Q965 417 909.5 445.5Q854 474 822 525Q819 529 819 535Z"/>
  </g>
</svg>