<?xml version="1.0" encoding="utf-8"?>
<svg xmlns="http://www.w3.org/2000/svg" width="16" height="16" viewBox="0 0 2048 2048">
  <g transform="translate(0, 2048) scale(1, -1)">
    <path fill="#000000" d="M0 1024Q0 1257 72.5 1446.0Q145 1635 279.0 1769.0Q413 1903 602.0 1975.5Q791 2048 1024 2048Q1257 2048 1446.0 1975.5Q1635 1903 1769.0 1769.0Q1903 1635 1975.5 1446.0Q2048 1257 2048 1024Q2048 791 1975.5 602.0Q1903 413 1769.0 279.0Q1635 145 1446.0 72.5Q1257 0 1024 0Q791 0 602.0 72.5Q413 145 279.0 279.0Q145 413 72.5 602.0Q0 791 0 1024ZM1920 1024Q1920 1230 1857.5 1396.0Q1795 1562 1678.5 1678.5Q1562 1795 1396.0 1857.5Q1230 1920 1024 1920Q818 1920 652.0 1857.5Q486 1795 369.5 1678.5Q253 1562 190.5 1396.0Q128 1230 128 1024Q128 818 190.5 652.0Q253 486 369.5 369.5Q486 253 652.0 190.5Q818 128 1024 128Q1230 128 1396.0 190.5Q1562 253 1678.5 369.5Q1795 486 1857.5 652.0Q1920 818 1920 1024ZM512 1408Q512 1448 527.0 1483.0Q542 1518 568.0 1544.0Q594 1570 629.0 1585.0Q664 1600 704 1600Q743 1600 778.0 1585.0Q813 1570 839.5 1543.5Q866 1517 881.0 1482.0Q896 1447 896 1408Q896 1369 881.0 1334.0Q866 1299 839.5 1272.5Q813 1246 778.0 1231.0Q743 1216 704 1216Q665 1216 630.0 1231.0Q595 1246 568.5 1272.5Q542 1299 527.0 1334.0Q512 1369 512 1408ZM1152 1408Q1152 1447 1167.0 1482.0Q1182 1517 1208.5 1543.5Q1235 1570 1270.0 1585.0Q1305 1600 1344 1600Q1383 1600 1418.0 1585.0Q1453 1570 1479.5 1543.5Q1506 1517 1521.0 1482.0Q1536 1447 1536 1408Q1536 1369 1521.0 1334.0Q1506 1299 1479.5 1272.5Q1453 1246 1418.0 1231.0Q1383 1216 1344 1216Q1305 1216 1270.0 1231.0Q1235 1246 1208.5 1272.5Q1182 1299 1167.0 1334.0Q1152 1369 1152 1408ZM416 1024H1632Q1632 947 1612.0 873.5Q1592 800 1555.5 733.5Q1519 667 1468.0 610.0Q1417 553 1354 510Q1279 459 1196.5 437.5Q1114 416 1024 416Q935 416 851.0 437.5Q767 459 693 510Q631 553 580.0 610.0Q529 667 492.5 733.5Q456 800 436.0 874.0Q416 948 416 1024Z"/>
  </g>
</svg>