<?xml version="1.0" encoding="utf-8"?>
<svg xmlns="http://www.w3.org/2000/svg" width="16" height="16" viewBox="0 0 2048 2048">
  <g transform="translate(0, 2048) scale(1, -1)">
    <path fill="#ffffff" d="M128 1152Q128 1008 178.5 878.5Q229 749 318.0 647.0Q407 545 528.5 477.5Q650 410 793 391Q811 321 844 257Q726 264 617.0 300.0Q508 336 414.5 396.0Q321 456 244.5 537.0Q168 618 113.5 715.0Q59 812 29.5 922.5Q0 1033 0 1152Q0 1276 32.0 1390.5Q64 1505 122.5 1604.5Q181 1704 262.5 1785.5Q344 1867 443.5 1925.5Q543 1984 657.5 2016.0Q772 2048 896 2048Q1014 2048 1125.0 2018.5Q1236 1989 1333.0 1934.5Q1430 1880 1511.0 1803.5Q1592 1727 1652.0 1633.5Q1712 1540 1748.0 1431.0Q1784 1322 1791 1204Q1727 1237 1657 1255Q1638 1398 1570.5 1519.5Q1503 1641 1401.0 1730.0Q1299 1819 1169.5 1869.5Q1040 1920 896 1920Q790 1920 692.0 1892.5Q594 1865 508.5 1815.0Q423 1765 353.0 1695.0Q283 1625 233.0 1539.5Q183 1454 155.5 1356.0Q128 1258 128 1152ZM512 1408Q512 1435 522.0 1458.0Q532 1481 549.5 1498.5Q567 1516 590.0 1526.0Q613 1536 640 1536Q667 1536 690.0 1526.0Q713 1516 730.5 1498.5Q748 1481 758.0 1458.0Q768 1435 768 1408Q768 1381 758.0 1358.0Q748 1335 730.5 1317.5Q713 1300 690.0 1290.0Q667 1280 640 1280Q613 1280 590.0 1290.0Q567 1300 549.5 1317.5Q532 1335 522.0 1358.0Q512 1381 512 1408ZM1024 1408Q1024 1435 1034.0 1458.0Q1044 1481 1061.5 1498.5Q1079 1516 1102.0 1526.0Q1125 1536 1152 1536Q1179 1536 1202.0 1526.0Q1225 1516 1242.5 1498.5Q1260 1481 1270.0 1458.0Q1280 1435 1280 1408Q1280 1381 1270.0 1358.0Q1260 1335 1242.5 1317.5Q1225 1300 1202.0 1290.0Q1179 1280 1152 1280Q1125 1280 1102.0 1290.0Q1079 1300 1061.5 1317.5Q1044 1335 1034.0 1358.0Q1024 1381 1024 1408ZM1472 1152Q1591 1152 1696.0 1106.5Q1801 1061 1879.0 983.0Q1957 905 2002.5 800.0Q2048 695 2048 576Q2048 457 2002.5 352.0Q1957 247 1879.0 169.0Q1801 91 1696.0 45.5Q1591 0 1472 0Q1353 0 1248.0 45.5Q1143 91 1065.0 169.0Q987 247 941.5 352.0Q896 457 896 576Q896 695 941.5 800.0Q987 905 1065.0 983.0Q1143 1061 1248.0 1106.5Q1353 1152 1472 1152ZM512 1088Q530 1088 542.5 1080.5Q555 1073 565 1059Q614 992 689.0 950.5Q764 909 846 899Q831 870 819.0 839.5Q807 809 797 777Q753 785 703.5 804.0Q654 823 607.5 851.0Q561 879 522.0 914.0Q483 949 459 989Q454 998 451.0 1005.5Q448 1013 448 1024Q448 1050 467.0 1069.0Q486 1088 512 1088ZM1344 321Q1362 321 1377 330L1697 521Q1711 530 1719.5 544.5Q1728 559 1728 576Q1728 593 1719.5 607.5Q1711 622 1697 631L1377 823Q1362 832 1344 832Q1318 832 1299.0 813.0Q1280 794 1280 768V385Q1280 359 1298.5 340.0Q1317 321 1344 321Z"/>
  </g>
</svg>