<?xml version="1.0" encoding="utf-8"?>
<svg xmlns="http://www.w3.org/2000/svg" width="16" height="16" viewBox="0 0 2048 2048">
  <g transform="translate(0, 2048) scale(1, -1)">
    <path fill="#ffffff" d="M0 1024Q0 1165 36.5 1296.0Q73 1427 140.0 1540.5Q207 1654 300.5 1747.5Q394 1841 507.5 1908.0Q621 1975 752.0 2011.5Q883 2048 1024 2048Q1165 2048 1296.0 2011.5Q1427 1975 1540.5 1908.0Q1654 1841 1747.5 1747.5Q1841 1654 1908.0 1540.5Q1975 1427 2011.5 1296.0Q2048 1165 2048 1024Q2048 883 2011.5 752.0Q1975 621 1908.0 507.5Q1841 394 1747.5 300.5Q1654 207 1540.5 140.0Q1427 73 1296.0 36.5Q1165 0 1024 0Q883 0 752.0 36.5Q621 73 507.5 140.0Q394 207 300.5 300.5Q207 394 140.0 507.5Q73 621 36.5 752.0Q0 883 0 1024ZM1920 1024Q1920 1147 1888.0 1261.5Q1856 1376 1797.5 1475.5Q1739 1575 1657.0 1657.0Q1575 1739 1475.5 1797.5Q1376 1856 1261.5 1888.0Q1147 1920 1024 1920Q900 1920 785.5 1888.0Q671 1856 571.5 1797.5Q472 1739 390.5 1657.5Q309 1576 250.5 1476.5Q192 1377 160.0 1262.5Q128 1148 128 1024Q128 900 160.0 785.5Q192 671 250.5 571.5Q309 472 390.5 390.5Q472 309 571.5 250.5Q671 192 785.5 160.0Q900 128 1024 128Q1148 128 1262.5 160.0Q1377 192 1476.5 250.5Q1576 309 1657.5 390.5Q1739 472 1797.5 571.5Q1856 671 1888.0 785.5Q1920 900 1920 1024ZM576 1216Q576 1243 586.0 1266.0Q596 1289 613.5 1306.5Q631 1324 654.0 1334.0Q677 1344 704 1344Q730 1344 753.5 1334.0Q777 1324 794.5 1306.5Q812 1289 822.0 1265.5Q832 1242 832 1216Q832 1189 822.0 1166.0Q812 1143 794.5 1125.5Q777 1108 754.0 1098.0Q731 1088 704 1088Q677 1088 653.5 1098.0Q630 1108 613.0 1125.0Q596 1142 586.0 1165.5Q576 1189 576 1216ZM1216 1216Q1216 1243 1226.0 1266.0Q1236 1289 1253.5 1306.5Q1271 1324 1294.0 1334.0Q1317 1344 1344 1344Q1370 1344 1393.5 1334.0Q1417 1324 1434.5 1306.5Q1452 1289 1462.0 1265.5Q1472 1242 1472 1216Q1472 1189 1462.0 1166.0Q1452 1143 1434.5 1125.5Q1417 1108 1394.0 1098.0Q1371 1088 1344 1088Q1317 1088 1293.5 1098.0Q1270 1108 1253.0 1125.0Q1236 1142 1226.0 1165.5Q1216 1189 1216 1216ZM544 672Q544 698 563.0 717.0Q582 736 608 736Q624 736 633.0 731.5Q642 727 653 717Q698 679 738.5 650.0Q779 621 822.0 601.0Q865 581 914.0 570.5Q963 560 1024 560Q1112 560 1186.5 585.5Q1261 611 1331 664Q1348 677 1363.0 690.0Q1378 703 1395 717Q1406 726 1415.0 731.0Q1424 736 1440 736Q1466 736 1485.0 717.0Q1504 698 1504 672Q1504 658 1499.0 648.0Q1494 638 1485 627Q1469 608 1445.5 588.5Q1422 569 1395.5 551.0Q1369 533 1342.5 517.5Q1316 502 1294 491Q1231 459 1162.5 445.5Q1094 432 1024 432Q952 432 882.5 446.5Q813 461 749 494Q736 500 716.0 511.5Q696 523 673.5 538.0Q651 553 628.0 570.0Q605 587 586.0 604.5Q567 622 555.5 639.5Q544 657 544 672Z"/>
  </g>
</svg>