<?xml version="1.0" encoding="utf-8"?>
<svg xmlns="http://www.w3.org/2000/svg" width="16" height="16" viewBox="0 0 2048 2048">
  <g transform="translate(0, 2048) scale(1, -1)">
    <path fill="#ffffff" d="M320 0Q294 0 275.0 19.0Q256 38 256 64Q256 90 275.0 109.0Q294 128 320 128Q354 128 395.0 129.5Q436 131 476.5 138.5Q517 146 552.5 162.5Q588 179 610 209Q627 233 633.5 262.0Q640 291 640 320Q640 414 656.0 505.5Q672 597 710 683Q696 689 680.0 695.0Q664 701 650.5 710.0Q637 719 628.0 732.0Q619 745 619 764Q619 790 636.0 808.0Q653 826 679 829Q610 876 555.5 936.0Q501 996 462.5 1066.0Q424 1136 404.0 1214.0Q384 1292 384 1376Q384 1472 410.0 1559.5Q436 1647 483.0 1721.5Q530 1796 595.5 1856.5Q661 1917 739.0 1959.5Q817 2002 905.5 2025.0Q994 2048 1088 2048Q1182 2048 1270.5 2025.0Q1359 2002 1437.0 1959.5Q1515 1917 1580.5 1856.5Q1646 1796 1693.0 1721.5Q1740 1647 1766.0 1559.5Q1792 1472 1792 1376Q1792 1280 1766.0 1192.5Q1740 1105 1693.0 1030.5Q1646 956 1580.5 895.5Q1515 835 1437.0 792.5Q1359 750 1270.5 727.0Q1182 704 1088 704Q1013 704 940 719Q964 700 964 669Q964 642 945.5 624.0Q927 606 900 606Q881 606 862.5 614.5Q844 623 827 631Q794 558 781.0 479.0Q768 400 768 320Q768 218 729.0 155.0Q690 92 627.0 57.5Q564 23 483.5 11.5Q403 0 320 0ZM1664 1376Q1664 1493 1616.5 1593.0Q1569 1693 1489.5 1765.5Q1410 1838 1306.0 1879.0Q1202 1920 1088 1920Q974 1920 870.0 1879.0Q766 1838 686.5 1765.5Q607 1693 559.5 1593.0Q512 1493 512 1376Q512 1258 559.0 1158.0Q606 1058 685.5 985.5Q765 913 869.5 872.5Q974 832 1088 832Q1202 832 1306.0 873.0Q1410 914 1489.5 986.5Q1569 1059 1616.5 1158.5Q1664 1258 1664 1376ZM1508 1442Q1473 1442 1438.5 1459.0Q1404 1476 1376.5 1503.0Q1349 1530 1332.0 1564.5Q1315 1599 1315 1634Q1315 1677 1341.0 1703.5Q1367 1730 1411 1730Q1446 1730 1480.5 1713.0Q1515 1696 1542.0 1668.5Q1569 1641 1586.0 1606.5Q1603 1572 1603 1537Q1603 1494 1577.0 1468.0Q1551 1442 1508 1442Z"/>
  </g>
</svg>