<?xml version="1.0" encoding="utf-8"?>
<svg xmlns="http://www.w3.org/2000/svg" width="16" height="16" viewBox="0 0 2048 2048">
  <g transform="translate(0, 2048) scale(1, -1)">
    <path fill="#ffffff" d="M128 1728Q128 1767 143.0 1802.0Q158 1837 184.5 1863.5Q211 1890 246.0 1905.0Q281 1920 320 1920Q359 1920 394.0 1905.0Q429 1890 455.5 1863.5Q482 1837 497.0 1802.0Q512 1767 512 1728Q512 1689 497.0 1654.0Q482 1619 455.5 1592.5Q429 1566 394.0 1551.0Q359 1536 320 1536Q281 1536 246.0 1551.0Q211 1566 184.5 1592.5Q158 1619 143.0 1654.0Q128 1689 128 1728ZM1359 1792Q1348 1792 1336.0 1791.5Q1324 1791 1310 1791Q1293 1791 1276.0 1793.0Q1259 1795 1245.5 1802.0Q1232 1809 1224.0 1822.0Q1216 1835 1216 1856Q1216 1882 1235.0 1901.0Q1254 1920 1280 1920H1536Q1562 1920 1581.0 1901.0Q1600 1882 1600 1856V1600Q1600 1574 1581.0 1555.0Q1562 1536 1536 1536Q1510 1536 1491.0 1555.0Q1472 1574 1472 1600V1712Q1413 1684 1378.5 1628.0Q1344 1572 1344 1507Q1344 1463 1361.0 1422.0Q1378 1381 1408.0 1349.5Q1438 1318 1478.0 1299.0Q1518 1280 1563 1280Q1611 1280 1652.5 1297.5Q1694 1315 1725.0 1345.5Q1756 1376 1774.0 1417.5Q1792 1459 1792 1507Q1792 1533 1811.0 1552.0Q1830 1571 1856 1571Q1887 1571 1903.5 1550.0Q1920 1529 1920 1500Q1920 1429 1891.5 1365.5Q1863 1302 1815.0 1254.5Q1767 1207 1703.0 1179.5Q1639 1152 1568 1152Q1497 1152 1433.0 1179.5Q1369 1207 1321.0 1254.5Q1273 1302 1244.5 1365.5Q1216 1429 1216 1500Q1216 1588 1252.5 1663.5Q1289 1739 1359 1792ZM128 1216Q128 1242 147 1261L787 1901Q806 1920 832 1920Q858 1920 877.0 1901.0Q896 1882 896 1856Q896 1830 877 1811L237 1171Q218 1152 192 1152Q166 1152 147.0 1171.0Q128 1190 128 1216ZM256 1728Q256 1702 275.0 1683.0Q294 1664 320 1664Q346 1664 365.0 1683.0Q384 1702 384 1728Q384 1754 365.0 1773.0Q346 1792 320 1792Q294 1792 275.0 1773.0Q256 1754 256 1728ZM896 1344Q896 1305 881.0 1270.0Q866 1235 839.5 1208.5Q813 1182 778.0 1167.0Q743 1152 704 1152Q665 1152 630.0 1167.0Q595 1182 568.5 1208.5Q542 1235 527.0 1270.0Q512 1305 512 1344Q512 1383 527.0 1418.0Q542 1453 568.5 1479.5Q595 1506 630.0 1521.0Q665 1536 704 1536Q743 1536 778.0 1521.0Q813 1506 839.5 1479.5Q866 1453 881.0 1418.0Q896 1383 896 1344ZM768 1344Q768 1370 749.0 1389.0Q730 1408 704 1408Q678 1408 659.0 1389.0Q640 1370 640 1344Q640 1318 659.0 1299.0Q678 1280 704 1280Q730 1280 749.0 1299.0Q768 1318 768 1344ZM1856 576Q1856 550 1837.0 531.0Q1818 512 1792 512H1536V256Q1536 230 1517.0 211.0Q1498 192 1472 192Q1446 192 1427.0 211.0Q1408 230 1408 256V512H1152Q1126 512 1107.0 531.0Q1088 550 1088 576Q1088 602 1107.0 621.0Q1126 640 1152 640H1408V896Q1408 922 1427.0 941.0Q1446 960 1472 960Q1498 960 1517.0 941.0Q1536 922 1536 896V640H1792Q1818 640 1837.0 621.0Q1856 602 1856 576ZM1024 192Q1024 166 1005.0 147.0Q986 128 960 128H192Q166 128 147.0 147.0Q128 166 128 192Q128 210 137 225L521 865Q529 879 544.0 886.5Q559 894 576 894Q593 894 607.5 887.0Q622 880 631 865L1015 225Q1024 210 1024 192ZM576 708 305 256H847Z"/>
  </g>
</svg>