<?xml version="1.0" encoding="utf-8"?>
<svg xmlns="http://www.w3.org/2000/svg" width="16" height="16" viewBox="0 0 2048 2048">
  <g transform="translate(0, 2048) scale(1, -1)">
    <path fill="#000000" d="M128 1152Q128 1020 171.0 898.5Q214 777 291.5 678.0Q369 579 476.0 508.0Q583 437 712 406Q683 383 667.0 354.5Q651 326 643 292Q548 320 463.0 367.0Q378 414 307.0 476.5Q236 539 179.0 615.0Q122 691 82.0 777.5Q42 864 21.0 958.5Q0 1053 0 1152Q0 1276 32.0 1390.5Q64 1505 122.5 1604.5Q181 1704 262.5 1785.5Q344 1867 443.5 1925.5Q543 1984 657.5 2016.0Q772 2048 896 2048Q1017 2048 1129.0 2017.5Q1241 1987 1339.5 1930.5Q1438 1874 1519.5 1795.5Q1601 1717 1660.0 1620.5Q1719 1524 1753.5 1413.0Q1788 1302 1792 1181Q1754 1161 1721.5 1126.0Q1689 1091 1659 1061Q1661 1084 1662.5 1106.5Q1664 1129 1664 1152Q1664 1258 1636.5 1356.0Q1609 1454 1559.0 1539.5Q1509 1625 1439.0 1695.0Q1369 1765 1283.5 1815.0Q1198 1865 1100.0 1892.5Q1002 1920 896 1920Q790 1920 692.0 1892.5Q594 1865 508.5 1815.0Q423 1765 353.0 1695.0Q283 1625 233.0 1539.5Q183 1454 155.5 1356.0Q128 1258 128 1152ZM640 1280Q613 1280 590.0 1290.0Q567 1300 549.5 1317.5Q532 1335 522.0 1358.0Q512 1381 512 1408Q512 1435 522.0 1458.0Q532 1481 549.5 1498.5Q567 1516 590.0 1526.0Q613 1536 640 1536Q667 1536 690.0 1526.0Q713 1516 730.5 1498.5Q748 1481 758.0 1458.0Q768 1435 768 1408Q768 1381 758.0 1358.0Q748 1335 730.5 1317.5Q713 1300 690.0 1290.0Q667 1280 640 1280ZM1280 1408Q1280 1381 1270.0 1358.0Q1260 1335 1242.5 1317.5Q1225 1300 1202.0 1290.0Q1179 1280 1152 1280Q1125 1280 1102.0 1290.0Q1079 1300 1061.5 1317.5Q1044 1335 1034.0 1358.0Q1024 1381 1024 1408Q1024 1435 1034.0 1458.0Q1044 1481 1061.5 1498.5Q1079 1516 1102.0 1526.0Q1125 1536 1152 1536Q1179 1536 1202.0 1526.0Q1225 1516 1242.5 1498.5Q1260 1481 1270.0 1458.0Q1280 1435 1280 1408ZM896 768Q790 768 692.5 807.5Q595 847 519 920Q502 935 486.0 952.5Q470 970 459 989Q454 998 451.0 1006.0Q448 1014 448 1024Q448 1050 467.0 1069.0Q486 1088 512 1088Q530 1088 542.0 1080.5Q554 1073 565 1059Q624 982 711.5 939.0Q799 896 896 896Q993 896 1080.5 939.0Q1168 982 1227 1059Q1238 1073 1250.0 1080.5Q1262 1088 1280 1088Q1306 1088 1325.0 1069.0Q1344 1050 1344 1024Q1344 1014 1341.0 1006.0Q1338 998 1333 989Q1322 970 1306.0 952.5Q1290 935 1273 920Q1197 847 1099.5 807.5Q1002 768 896 768ZM1920 1088Q1947 1088 1970.0 1078.0Q1993 1068 2010.5 1050.5Q2028 1033 2038.0 1009.5Q2048 986 2048 960Q2048 935 2038.5 911.5Q2029 888 2011 870L1642 501Q1653 473 1658.5 443.5Q1664 414 1664 384Q1664 296 1622.0 226.0Q1580 156 1513.5 107.5Q1447 59 1365.5 33.0Q1284 7 1205 7Q1144 7 1084.0 21.0Q1024 35 969.0 62.0Q914 89 866.0 128.0Q818 167 782 216Q768 235 768 256Q768 279 780.5 294.5Q793 310 814 317Q841 326 869.5 336.0Q898 346 925.0 359.5Q952 373 975.0 391.5Q998 410 1013 436Q1024 454 1032.0 473.0Q1040 492 1049 511Q1070 555 1100.5 590.5Q1131 626 1168.5 651.5Q1206 677 1250.5 690.5Q1295 704 1344 704Q1374 704 1403.5 698.5Q1433 693 1461 682L1829 1050Q1867 1088 1920 1088ZM1480 248Q1507 275 1521.5 310.5Q1536 346 1536 384Q1536 424 1521.0 459.0Q1506 494 1480.0 520.0Q1454 546 1419.0 561.0Q1384 576 1344 576Q1306 576 1270.5 561.5Q1235 547 1208 520Q1192 504 1181.0 485.5Q1170 467 1160.5 447.5Q1151 428 1142.0 408.0Q1133 388 1122 369Q1092 318 1046.5 285.0Q1001 252 947 229Q1001 184 1067.5 159.5Q1134 135 1205 135Q1282 135 1353.5 164.0Q1425 193 1479 248Z"/>
  </g>
</svg>