<?xml version="1.0" encoding="utf-8"?>
<svg xmlns="http://www.w3.org/2000/svg" width="16" height="16" viewBox="0 0 2048 2048">
  <g transform="translate(0, 2048) scale(1, -1)">
    <path fill="#000000" d="M0 1024Q0 1166 36.5 1297.0Q73 1428 139.5 1541.5Q206 1655 299.5 1748.5Q393 1842 506.5 1908.5Q620 1975 751.0 2011.5Q882 2048 1024 2048Q1165 2048 1296.0 2011.5Q1427 1975 1541.0 1908.5Q1655 1842 1748.5 1748.5Q1842 1655 1908.5 1541.0Q1975 1427 2011.5 1296.0Q2048 1165 2048 1024Q2048 882 2011.5 751.0Q1975 620 1908.5 506.5Q1842 393 1748.5 299.5Q1655 206 1541.5 139.5Q1428 73 1297.0 36.5Q1166 0 1024 0Q882 0 751.0 36.5Q620 73 506.0 139.5Q392 206 299.0 299.0Q206 392 139.5 506.0Q73 620 36.5 751.0Q0 882 0 1024ZM1920 1024Q1920 1147 1888.0 1261.5Q1856 1376 1797.5 1475.5Q1739 1575 1657.0 1657.0Q1575 1739 1475.5 1797.5Q1376 1856 1261.5 1888.0Q1147 1920 1024 1920Q900 1920 785.5 1888.0Q671 1856 571.5 1797.5Q472 1739 390.5 1657.5Q309 1576 250.5 1476.5Q192 1377 160.0 1262.5Q128 1148 128 1024Q128 900 160.0 785.5Q192 671 250.5 571.5Q309 472 390.5 390.5Q472 309 571.5 250.5Q671 192 785.5 160.0Q900 128 1024 128Q1148 128 1262.5 160.0Q1377 192 1476.5 250.5Q1576 309 1657.5 390.5Q1739 472 1797.5 571.5Q1856 671 1888.0 785.5Q1920 900 1920 1024ZM672 1472Q712 1472 749.5 1458.5Q787 1445 817.0 1421.0Q847 1397 868.0 1363.5Q889 1330 895 1290Q895 1289 895 1288L896 1283Q896 1282 896 1281Q896 1254 876.5 1235.0Q857 1216 830 1216Q808 1216 796.5 1225.5Q785 1235 777.5 1249.0Q770 1263 764.0 1280.0Q758 1297 747.5 1311.0Q737 1325 719.5 1334.5Q702 1344 672 1344Q642 1344 624.5 1334.5Q607 1325 596.5 1311.0Q586 1297 580.0 1280.0Q574 1263 566.0 1249.0Q558 1235 546.5 1225.5Q535 1216 513 1216Q487 1216 467.5 1234.0Q448 1252 448 1279Q448 1286 449 1290Q456 1330 476.5 1363.5Q497 1397 527.0 1421.0Q557 1445 594.0 1458.5Q631 1472 672 1472ZM1376 1472Q1416 1472 1453.5 1458.5Q1491 1445 1521.0 1421.0Q1551 1397 1572.0 1363.5Q1593 1330 1599 1290Q1599 1289 1599 1288L1600 1283Q1600 1282 1600 1281Q1600 1254 1580.5 1235.0Q1561 1216 1534 1216Q1512 1216 1500.5 1225.5Q1489 1235 1481.5 1249.0Q1474 1263 1468.0 1280.0Q1462 1297 1451.5 1311.0Q1441 1325 1423.5 1334.5Q1406 1344 1376 1344Q1346 1344 1328.5 1334.5Q1311 1325 1300.5 1311.0Q1290 1297 1284.0 1280.0Q1278 1263 1270.0 1249.0Q1262 1235 1250.5 1225.5Q1239 1216 1217 1216Q1191 1216 1171.5 1234.0Q1152 1252 1152 1279Q1152 1286 1153 1290Q1160 1331 1180.5 1364.5Q1201 1398 1230.5 1422.0Q1260 1446 1297.5 1459.0Q1335 1472 1376 1472ZM384 962Q384 988 402.5 1006.0Q421 1024 447 1024H1599Q1631 1024 1647.0 1003.5Q1663 983 1663 954Q1663 915 1651.0 870.0Q1639 825 1625 789Q1590 693 1529.5 617.5Q1469 542 1390.0 490.0Q1311 438 1217.5 411.0Q1124 384 1023 384Q895 384 784.5 425.0Q674 466 589.5 541.0Q505 616 451.0 721.0Q397 826 384 954ZM1524 896H523Q544 805 591.5 733.5Q639 662 706.0 613.0Q773 564 856.0 538.0Q939 512 1030 512Q1119 512 1200.0 539.0Q1281 566 1346.0 616.0Q1411 666 1457.5 737.0Q1504 808 1524 896Z"/>
  </g>
</svg>