<?xml version="1.0" encoding="utf-8"?>
<svg xmlns="http://www.w3.org/2000/svg" width="16" height="16" viewBox="0 0 2048 2048">
  <g transform="translate(0, 2048) scale(1, -1)">
    <path fill="#000000" d="M128 64V1856Q128 1882 147.0 1901.0Q166 1920 192 1920H1728Q1754 1920 1773.0 1901.0Q1792 1882 1792 1856Q1792 1837 1781 1820L1421 1280L1781 739Q1792 723 1792 704Q1792 678 1773.0 659.0Q1754 640 1728 640H256V64Q256 38 237.0 19.0Q218 0 192 0Q166 0 147.0 19.0Q128 38 128 64ZM256 768H1608L1291 1244Q1280 1261 1280 1280Q1280 1298 1291 1315L1608 1792H256Z"/>
  </g>
</svg>