<?xml version="1.0" encoding="utf-8"?>
<svg xmlns="http://www.w3.org/2000/svg" width="16" height="16" viewBox="0 0 2048 2048">
  <g transform="translate(0, 2048) scale(1, -1)">
    <path fill="#000000" d="M576 1760Q636 1760 688.5 1737.5Q741 1715 780.0 1676.0Q819 1637 841.5 1584.5Q864 1532 864 1472Q864 1412 841.5 1359.5Q819 1307 780.0 1268.0Q741 1229 688.5 1206.5Q636 1184 576 1184Q516 1184 463.5 1206.5Q411 1229 372.0 1268.0Q333 1307 310.5 1359.5Q288 1412 288 1472Q288 1532 310.5 1584.5Q333 1637 372.0 1676.0Q411 1715 463.5 1737.5Q516 1760 576 1760ZM1158 256 1327 1024H1664L1425 256Z"/>
  </g>
</svg>