<?xml version="1.0" encoding="utf-8"?>
<svg xmlns="http://www.w3.org/2000/svg" width="16" height="16" viewBox="0 0 2048 2048">
  <g transform="translate(0, 2048) scale(1, -1)">
    <path fill="#ffffff" d="M0 1600Q0 1626 19.0 1645.0Q38 1664 64 1664H1030Q1041 1719 1070.5 1766.0Q1100 1813 1142.0 1847.0Q1184 1881 1236.0 1900.5Q1288 1920 1344 1920Q1400 1920 1452.0 1900.5Q1504 1881 1546.0 1847.0Q1588 1813 1617.5 1766.0Q1647 1719 1658 1664H1984Q2010 1664 2029.0 1645.0Q2048 1626 2048 1600Q2048 1574 2029.0 1555.0Q2010 1536 1984 1536H1658Q1647 1481 1617.5 1434.0Q1588 1387 1546.0 1353.0Q1504 1319 1452.0 1299.5Q1400 1280 1344 1280Q1288 1280 1236.0 1299.5Q1184 1319 1142.0 1353.0Q1100 1387 1070.5 1434.0Q1041 1481 1030 1536H64Q38 1536 19.0 1555.0Q0 1574 0 1600ZM1152 1600Q1152 1561 1167.0 1526.0Q1182 1491 1208.5 1464.5Q1235 1438 1270.0 1423.0Q1305 1408 1344 1408Q1383 1408 1418.0 1423.0Q1453 1438 1479.5 1464.5Q1506 1491 1521.0 1526.0Q1536 1561 1536 1600Q1536 1639 1521.0 1674.0Q1506 1709 1479.5 1735.5Q1453 1762 1418.0 1777.0Q1383 1792 1344 1792Q1305 1792 1270.0 1777.0Q1235 1762 1208.5 1735.5Q1182 1709 1167.0 1674.0Q1152 1639 1152 1600ZM2048 448Q2048 422 2029.0 403.0Q2010 384 1984 384H1018Q1007 329 977.5 282.0Q948 235 906.0 201.0Q864 167 812.0 147.5Q760 128 704 128Q648 128 596.0 147.5Q544 167 502.0 201.0Q460 235 430.5 282.0Q401 329 390 384H64Q38 384 19.0 403.0Q0 422 0 448Q0 474 19.0 493.0Q38 512 64 512H390Q401 567 430.5 614.0Q460 661 502.0 695.0Q544 729 596.0 748.5Q648 768 704 768Q760 768 812.0 748.5Q864 729 906.0 695.0Q948 661 977.5 614.0Q1007 567 1018 512H1984Q2010 512 2029.0 493.0Q2048 474 2048 448ZM896 448Q896 487 881.0 522.0Q866 557 839.5 583.5Q813 610 778.0 625.0Q743 640 704 640Q665 640 630.0 625.0Q595 610 568.5 583.5Q542 557 527.0 522.0Q512 487 512 448Q512 409 527.0 374.0Q542 339 568.5 312.5Q595 286 630.0 271.0Q665 256 704 256Q743 256 778.0 271.0Q813 286 839.5 312.5Q866 339 881.0 374.0Q896 409 896 448Z"/>
  </g>
</svg>