<?xml version="1.0" encoding="utf-8"?>
<svg id="" width="16" height="16" style="width:16px;height:16px;" version="1.1" xmlns="http://www.w3.org/2000/svg" viewBox="0 0 2048 2048" enable-background="new 0 0 2048 2048" xml:space="preserve">
    <path fill="#000" d="M734 2048 q-38 0 -73 -14.5 q-35 -14.5 -62 -41.5 l-543 -543 q-26 -26 -41 -62 q-15 -36 -15 -74 q0 -38 15 -74 q15 -36 41 -62 l1121 -1121 q27 -27 62.5 -41.5 q35.5 -14.5 73.5 -14.5 q80 0 136 56 l543 543 q56 56 56 136 q0 38 -14.5 73.5 q-14.5 35.5 -41.5 62.5 l-1049 1049 l657 0 q26 0 45 19 q19 19 19 45 q0 26 -19 45 q-19 19 -45 19 l-866 0 ZM1920 735 q0 -26 -19 -45 l-543 -543 q-19 -19 -45 -19 q-26 0 -45 19 l-815 815 l633 633 l815 -815 q19 -19 19 -45 ZM735 1921 q26 0 45 -19 l216 -216 l-634 -634 l-216 216 q-18 18 -18 45 q0 12 4.5 24 q4.5 12 13.5 21 l544 544 q19 19 45 19 Z"/>
</svg>