<?xml version="1.0" encoding="utf-8"?>
<svg xmlns="http://www.w3.org/2000/svg" width="16" height="16" viewBox="0 0 2048 2048">
  <g transform="translate(0, 2048) scale(1, -1)">
    <path fill="#000000" d="M632 0Q557 0 488.5 30.5Q420 61 368.5 112.5Q317 164 286.5 232.5Q256 301 256 376V1672Q256 1747 286.5 1815.5Q317 1884 368.5 1935.5Q420 1987 488.5 2017.5Q557 2048 632 2048H1083Q1159 2048 1230.0 2019.0Q1301 1990 1355 1936L1680 1611Q1734 1557 1763.0 1486.0Q1792 1415 1792 1339V376Q1792 301 1761.5 232.5Q1731 164 1679.5 112.5Q1628 61 1559.5 30.5Q1491 0 1416 0ZM1413 128Q1463 128 1508.5 148.5Q1554 169 1588.5 203.5Q1623 238 1643.5 283.5Q1664 329 1664 379V1339Q1664 1390 1644.5 1437.0Q1625 1484 1589 1520L1264 1845Q1228 1881 1181.0 1900.5Q1134 1920 1083 1920H635Q585 1920 539.5 1899.5Q494 1879 459.5 1844.5Q425 1810 404.5 1764.5Q384 1719 384 1669V379Q384 329 404.5 283.5Q425 238 459.5 203.5Q494 169 539.5 148.5Q585 128 635 128ZM832 384Q793 384 758.0 399.0Q723 414 696.5 440.5Q670 467 655.0 502.0Q640 537 640 576V960Q640 999 655.0 1034.0Q670 1069 696.5 1095.5Q723 1122 758.0 1137.0Q793 1152 832 1152H1216Q1255 1152 1290.0 1137.0Q1325 1122 1351.5 1095.5Q1378 1069 1393.0 1034.0Q1408 999 1408 960V576Q1408 537 1393.0 502.0Q1378 467 1351.5 440.5Q1325 414 1290.0 399.0Q1255 384 1216 384ZM768 896H1024V1024H832Q806 1024 787.0 1005.0Q768 986 768 960ZM1216 512Q1242 512 1261.0 531.0Q1280 550 1280 576V960Q1280 986 1261.0 1005.0Q1242 1024 1216 1024H1152V512ZM1024 512V768H768V576Q768 550 787.0 531.0Q806 512 832 512Z"/>
  </g>
</svg>