<?xml version="1.0" encoding="utf-8"?>
<svg xmlns="http://www.w3.org/2000/svg" width="16" height="16" viewBox="0 0 2048 2048">
  <g transform="translate(0, 2048) scale(1, -1)">
    <path fill="#000000" d="M376 0Q301 0 232.5 30.5Q164 61 112.5 112.5Q61 164 30.5 232.5Q0 301 0 376V1672Q0 1747 30.5 1815.5Q61 1884 112.5 1935.5Q164 1987 232.5 2017.5Q301 2048 376 2048H827Q903 2048 974.0 2019.0Q1045 1990 1099 1936L1424 1611Q1488 1546 1512.0 1472.0Q1536 1398 1536 1309Q1504 1312 1472 1312Q1439 1312 1408 1309Q1408 1372 1393.5 1423.0Q1379 1474 1333 1520L1008 1845Q972 1881 925.0 1900.5Q878 1920 827 1920H379Q329 1920 283.5 1899.5Q238 1879 203.5 1844.5Q169 1810 148.5 1764.5Q128 1719 128 1669V379Q128 327 149.0 281.5Q170 236 205.0 202.0Q240 168 286.5 148.0Q333 128 384 128H888Q915 92 947.0 60.0Q979 28 1014 0ZM576 384Q537 384 502.0 399.0Q467 414 440.5 440.5Q414 467 399.0 502.0Q384 537 384 576V960Q384 999 399.0 1034.0Q414 1069 440.5 1095.5Q467 1122 502.0 1137.0Q537 1152 576 1152H960Q984 1152 1007 1146Q917 1073 854.5 976.0Q792 879 761 768H512V576Q512 550 531.0 531.0Q550 512 576 512H738Q741 480 747.0 448.0Q753 416 761 384ZM896 576Q896 695 941.5 800.0Q987 905 1065.0 983.0Q1143 1061 1248.0 1106.5Q1353 1152 1472 1152Q1551 1152 1624.5 1131.5Q1698 1111 1762.0 1073.5Q1826 1036 1879.0 983.0Q1932 930 1969.5 866.0Q2007 802 2027.5 728.5Q2048 655 2048 576Q2048 457 2002.5 352.0Q1957 247 1879.0 169.0Q1801 91 1696.0 45.5Q1591 0 1472 0Q1352 0 1247.0 45.0Q1142 90 1064.0 168.0Q986 246 941.0 351.0Q896 456 896 576ZM512 896H768V1024H576Q550 1024 531.0 1005.0Q512 986 512 960ZM1728 640Q1754 640 1773.0 659.0Q1792 678 1792 704V896Q1792 922 1773.0 941.0Q1754 960 1728 960Q1709 960 1697.0 953.0Q1685 946 1677.5 934.5Q1670 923 1667.0 908.0Q1664 893 1664 877Q1616 902 1571.0 915.0Q1526 928 1471 928Q1435 928 1397.5 920.5Q1360 913 1324.5 898.5Q1289 884 1257.0 863.5Q1225 843 1200 816Q1181 795 1181 771Q1181 744 1200.0 725.0Q1219 706 1246 706Q1264 706 1283.0 720.5Q1302 735 1327.5 753.0Q1353 771 1387.0 785.5Q1421 800 1470 800Q1505 800 1535.0 792.0Q1565 784 1596 768H1565Q1547 768 1530.5 766.0Q1514 764 1501.0 757.5Q1488 751 1480.0 738.0Q1472 725 1472 704Q1472 678 1491.0 659.0Q1510 640 1536 640ZM1280 275Q1328 250 1373.0 237.0Q1418 224 1472 224Q1546 224 1619.0 253.0Q1692 282 1743 336Q1762 355 1762 382Q1762 408 1743.0 427.0Q1724 446 1698 446Q1680 446 1660.5 431.5Q1641 417 1615.5 399.0Q1590 381 1556.0 366.5Q1522 352 1474 352Q1444 352 1408.5 359.5Q1373 367 1348 384H1377Q1394 384 1411.0 386.0Q1428 388 1441.5 394.5Q1455 401 1463.5 413.5Q1472 426 1472 448Q1472 474 1453.0 493.0Q1434 512 1408 512H1216Q1190 512 1171.0 493.0Q1152 474 1152 448V256Q1152 230 1171.0 211.0Q1190 192 1216 192Q1235 192 1247.0 199.0Q1259 206 1266.5 217.5Q1274 229 1277.0 244.0Q1280 259 1280 275Z"/>
  </g>
</svg>