<?xml version="1.0" encoding="utf-8"?>
<svg xmlns="http://www.w3.org/2000/svg" width="16" height="16" viewBox="0 0 2048 2048">
  <g transform="translate(0, 2048) scale(1, -1)">
    <path fill="#ffffff" d="M1536 512V384H1408V128H1536V0H448Q422 0 403.0 19.0Q384 38 384 64Q384 90 403.0 109.0Q422 128 448 128H640V384H251Q201 384 155.5 404.5Q110 425 75.5 459.5Q41 494 20.5 539.5Q0 585 0 635V1797Q0 1847 20.5 1892.5Q41 1938 75.5 1972.5Q110 2007 155.5 2027.5Q201 2048 251 2048H1314Q1280 1990 1280 1920H256Q229 1920 206.0 1910.0Q183 1900 165.5 1882.5Q148 1865 138.0 1842.0Q128 1819 128 1792V640Q128 613 138.0 589.5Q148 566 165.0 549.0Q182 532 205.5 522.0Q229 512 256 512ZM1856 2048Q1895 2048 1930.0 2033.0Q1965 2018 1991.5 1991.5Q2018 1965 2033.0 1930.0Q2048 1895 2048 1856V1344Q2048 1305 2033.0 1270.0Q2018 1235 1991.5 1208.5Q1965 1182 1930.0 1167.0Q1895 1152 1856 1152H1792V64Q1792 38 1773.0 19.0Q1754 0 1728 0Q1702 0 1683.0 19.0Q1664 38 1664 64V1152H1600Q1561 1152 1526.0 1167.0Q1491 1182 1464.5 1208.5Q1438 1235 1423.0 1270.0Q1408 1305 1408 1344V1856Q1408 1895 1423.0 1930.0Q1438 1965 1464.5 1991.5Q1491 2018 1526.0 2033.0Q1561 2048 1600 2048ZM1600 1920Q1574 1920 1555.0 1901.0Q1536 1882 1536 1856V1792H1920V1856Q1920 1882 1901.0 1901.0Q1882 1920 1856 1920ZM1856 1280Q1882 1280 1901.0 1299.0Q1920 1318 1920 1344V1664H1536V1344Q1536 1318 1555.0 1299.0Q1574 1280 1600 1280ZM768 128H1280V384H768Z"/>
  </g>
</svg>