<?xml version="1.0" encoding="utf-8"?>
<svg xmlns="http://www.w3.org/2000/svg" width="16" height="16" viewBox="0 0 2048 2048">
  <g transform="translate(0, 2048) scale(1, -1)">
    <path fill="#ffffff" d="M128 1160Q92 1133 60.0 1101.0Q28 1069 0 1034V1797Q0 1847 20.5 1892.5Q41 1938 75.5 1972.5Q110 2007 155.5 2027.5Q201 2048 251 2048H1314Q1280 1990 1280 1920H256Q229 1920 206.0 1910.0Q183 1900 165.5 1882.5Q148 1865 138.0 1842.0Q128 1819 128 1792ZM1856 2048Q1895 2048 1930.0 2033.0Q1965 2018 1991.5 1991.5Q2018 1965 2033.0 1930.0Q2048 1895 2048 1856V1344Q2048 1305 2033.0 1270.0Q2018 1235 1991.5 1208.5Q1965 1182 1930.0 1167.0Q1895 1152 1856 1152H1792V64Q1792 38 1773.0 19.0Q1754 0 1728 0Q1702 0 1683.0 19.0Q1664 38 1664 64V1152H1600Q1561 1152 1526.0 1167.0Q1491 1182 1464.5 1208.5Q1438 1235 1423.0 1270.0Q1408 1305 1408 1344V1856Q1408 1895 1423.0 1930.0Q1438 1965 1464.5 1991.5Q1491 2018 1526.0 2033.0Q1561 2048 1600 2048ZM1600 1920Q1574 1920 1555.0 1901.0Q1536 1882 1536 1856V1792H1920V1856Q1920 1882 1901.0 1901.0Q1882 1920 1856 1920ZM1856 1280Q1882 1280 1901.0 1299.0Q1920 1318 1920 1344V1664H1536V1344Q1536 1318 1555.0 1299.0Q1574 1280 1600 1280ZM1152 576Q1152 457 1106.5 352.0Q1061 247 983.0 169.0Q905 91 800.0 45.5Q695 0 576 0Q456 0 351.0 45.0Q246 90 168.0 168.0Q90 246 45.0 351.0Q0 456 0 576Q0 695 45.5 800.0Q91 905 169.0 983.0Q247 1061 352.0 1106.5Q457 1152 576 1152Q655 1152 728.5 1131.5Q802 1111 866.0 1073.5Q930 1036 983.0 983.0Q1036 930 1073.5 866.0Q1111 802 1131.5 728.5Q1152 655 1152 576ZM673 576 881 783Q901 803 901 832Q901 861 881.0 881.0Q861 901 832 901Q803 901 783 881L576 673L369 881Q349 901 320 901Q291 901 271.0 881.0Q251 861 251 832Q251 819 256.5 805.5Q262 792 271 783L479 576L271 369Q251 349 251 320Q251 291 271.0 271.0Q291 251 320 251Q349 251 369 271L576 479L783 271Q792 262 805.5 256.5Q819 251 832 251Q861 251 881.0 271.0Q901 291 901 320Q901 349 881 369ZM1536 512V384H1408V128H1536V0H1034Q1069 28 1101.0 60.0Q1133 92 1160 128H1280V361Q1280 363 1283.5 377.5Q1287 392 1291.5 411.0Q1296 430 1300.0 447.5Q1304 465 1305 473L1309 512Z"/>
  </g>
</svg>