<?xml version="1.0" encoding="utf-8"?>
<svg xmlns="http://www.w3.org/2000/svg" width="16" height="16" viewBox="0 0 2048 2048">
  <g transform="translate(0, 2048) scale(1, -1)">
    <path fill="#000000" d="M128 700 34 512Q0 570 0 640V1797Q0 1847 20.5 1892.5Q41 1938 75.5 1972.5Q110 2007 155.5 2027.5Q201 2048 251 2048H1314Q1280 1990 1280 1920H256Q229 1920 206.0 1910.0Q183 1900 165.5 1882.5Q148 1865 138.0 1842.0Q128 1819 128 1792ZM1856 2048Q1895 2048 1930.0 2033.0Q1965 2018 1991.5 1991.5Q2018 1965 2033.0 1930.0Q2048 1895 2048 1856V1344Q2048 1305 2033.0 1270.0Q2018 1235 1991.5 1208.5Q1965 1182 1930.0 1167.0Q1895 1152 1856 1152H1792V64Q1792 38 1773.0 19.0Q1754 0 1728 0Q1702 0 1683.0 19.0Q1664 38 1664 64V1152H1600Q1561 1152 1526.0 1167.0Q1491 1182 1464.5 1208.5Q1438 1235 1423.0 1270.0Q1408 1305 1408 1344V1856Q1408 1895 1423.0 1930.0Q1438 1965 1464.5 1991.5Q1491 2018 1526.0 2033.0Q1561 2048 1600 2048ZM1600 1920Q1574 1920 1555.0 1901.0Q1536 1882 1536 1856V1792H1920V1856Q1920 1882 1901.0 1901.0Q1882 1920 1856 1920ZM1856 1280Q1882 1280 1901.0 1299.0Q1920 1318 1920 1344V1664H1536V1344Q1536 1318 1555.0 1299.0Q1574 1280 1600 1280ZM1151 128Q1151 102 1140.5 79.0Q1130 56 1112.5 38.5Q1095 21 1072.0 10.5Q1049 0 1023 0H128Q102 0 79.0 10.5Q56 21 38.5 38.5Q21 56 10.5 79.0Q0 102 0 128Q0 159 13 185L461 1081Q478 1115 508.0 1133.5Q538 1152 576 1152Q614 1152 643.5 1133.5Q673 1115 690 1081L1138 185Q1151 159 1151 128ZM639 833Q639 859 620.0 878.0Q601 897 575 897Q549 897 530.0 878.0Q511 859 511 833V448Q511 422 530.0 403.0Q549 384 575 384Q601 384 620.0 403.0Q639 422 639 448ZM1118 512H1536V384H1408V128H1536V0H1245Q1262 29 1271.0 61.5Q1280 94 1280 128V384H1182ZM639 192Q639 219 620.5 237.5Q602 256 575 256Q549 256 530.0 237.0Q511 218 511 192Q511 166 530.0 147.0Q549 128 575 128Q601 128 620.0 147.0Q639 166 639 192Z"/>
  </g>
</svg>