<?xml version="1.0" encoding="utf-8"?>
<svg xmlns="http://www.w3.org/2000/svg" width="16" height="16" viewBox="0 0 2048 2048">
  <g transform="translate(0, 2048) scale(1, -1)">
    <path fill="#ffffff" d="M1280 1920H984Q960 1951 925.0 1967.5Q890 1984 851 1984Q797 1984 748.5 2000.5Q700 2017 656 2048H1314Q1280 1988 1280 1920ZM1408 1856Q1408 1896 1423.0 1931.0Q1438 1966 1464.0 1992.0Q1490 2018 1525.0 2033.0Q1560 2048 1600 2048H1856Q1896 2048 1931.0 2033.0Q1966 2018 1992.0 1992.0Q2018 1966 2033.0 1931.0Q2048 1896 2048 1856V1344Q2048 1304 2033.0 1269.0Q2018 1234 1992.0 1208.0Q1966 1182 1931.0 1167.0Q1896 1152 1856 1152H1792V64Q1792 38 1773.0 19.0Q1754 0 1728 0Q1702 0 1683.0 19.0Q1664 38 1664 64V1152H1600Q1560 1152 1525.0 1167.0Q1490 1182 1464.0 1208.0Q1438 1234 1423.0 1269.0Q1408 1304 1408 1344ZM1600 1920Q1574 1920 1555.0 1901.0Q1536 1882 1536 1856V1792H1920V1856Q1920 1882 1901.0 1901.0Q1882 1920 1856 1920ZM1920 1664H1536V1344Q1536 1318 1555.0 1299.0Q1574 1280 1600 1280H1856Q1882 1280 1901.0 1299.0Q1920 1318 1920 1344ZM0 1065Q23 1026 58.0 989.5Q93 953 128 924V640Q128 613 138.0 590.0Q148 567 165.5 549.5Q183 532 206.0 522.0Q229 512 256 512H1536V384H1408V128H1536V0H448Q422 0 403.0 19.0Q384 38 384 64Q384 90 403.0 109.0Q422 128 448 128H640V384H256Q203 384 156.5 404.0Q110 424 75.0 459.0Q40 494 20.0 540.5Q0 587 0 640ZM768 128H1280V384H768Z"/>
  </g>
</svg>