<?xml version="1.0" encoding="utf-8"?>
<svg xmlns="http://www.w3.org/2000/svg" width="16" height="16" viewBox="0 0 2048 2048">
  <g transform="translate(0, 2048) scale(1, -1)">
    <path fill="#ffffff" d="M1621 1877Q1674 1877 1720.5 1857.0Q1767 1837 1802.0 1802.0Q1837 1767 1857.0 1720.5Q1877 1674 1877 1621V427Q1877 376 1857.0 329.5Q1837 283 1803.0 248.0Q1769 213 1723.5 192.0Q1678 171 1626 171H422Q372 171 326.5 191.5Q281 212 246.5 246.5Q212 281 191.5 326.5Q171 372 171 422V1626Q171 1678 192.0 1723.5Q213 1769 248.0 1803.0Q283 1837 329.5 1857.0Q376 1877 427 1877ZM427 1707Q409 1707 393.5 1700.0Q378 1693 366.5 1681.5Q355 1670 348.0 1654.5Q341 1639 341 1621V1536H1707V1621Q1707 1639 1700.0 1654.5Q1693 1670 1681.5 1681.5Q1670 1693 1654.5 1700.0Q1639 1707 1621 1707ZM1621 341Q1639 341 1654.5 348.0Q1670 355 1681.5 366.5Q1693 378 1700.0 393.5Q1707 409 1707 427V1365H341V427Q341 409 348.0 393.5Q355 378 366.5 366.5Q378 355 393.5 348.0Q409 341 427 341ZM512 1109Q512 1144 536.5 1169.5Q561 1195 596 1195Q634 1195 658.5 1170.5Q683 1146 683 1108Q683 1073 657.5 1048.5Q632 1024 597 1024Q562 1024 537.0 1049.0Q512 1074 512 1109ZM1024 1108Q1024 1073 999.0 1048.5Q974 1024 939 1024Q903 1024 878.0 1048.5Q853 1073 853 1109Q853 1127 859.5 1142.5Q866 1158 877.5 1169.5Q889 1181 904.5 1188.0Q920 1195 938 1195Q975 1195 999.5 1170.0Q1024 1145 1024 1108ZM1365 1110Q1365 1075 1340.5 1049.5Q1316 1024 1280 1024Q1245 1024 1220.0 1049.0Q1195 1074 1195 1109Q1195 1126 1201.5 1141.5Q1208 1157 1219.5 1169.0Q1231 1181 1246.0 1188.0Q1261 1195 1279 1195Q1297 1195 1312.5 1188.5Q1328 1182 1339.5 1170.5Q1351 1159 1358.0 1143.5Q1365 1128 1365 1110ZM683 768Q683 750 676.0 734.5Q669 719 657.0 707.5Q645 696 629.5 689.5Q614 683 596 683Q561 683 536.5 708.5Q512 734 512 769Q512 787 519.0 802.0Q526 817 537.5 828.5Q549 840 564.5 846.5Q580 853 597 853Q633 853 658.0 828.5Q683 804 683 768ZM1024 768Q1024 750 1017.0 734.5Q1010 719 998.5 707.5Q987 696 971.5 689.5Q956 683 938 683Q902 683 877.5 708.5Q853 734 853 769Q853 787 860.0 802.0Q867 817 879.0 828.5Q891 840 906.5 846.5Q922 853 939 853Q974 853 999.0 828.0Q1024 803 1024 768Z"/>
  </g>
</svg>