<?xml version="1.0" encoding="utf-8"?>
<svg xmlns="http://www.w3.org/2000/svg" width="16" height="16" viewBox="0 0 2048 2048">
  <g transform="translate(0, 2048) scale(1, -1)">
    <path fill="#ffffff" d="M704 1536Q743 1536 778.0 1521.0Q813 1506 839.5 1479.5Q866 1453 881.0 1418.0Q896 1383 896 1344V832Q896 793 881.0 758.0Q866 723 839.5 696.5Q813 670 778.0 655.0Q743 640 704 640H192Q153 640 118.0 655.0Q83 670 56.5 696.5Q30 723 15.0 758.0Q0 793 0 832V1344Q0 1383 15.0 1418.0Q30 1453 56.5 1479.5Q83 1506 118.0 1521.0Q153 1536 192 1536ZM2048 1088Q2048 1062 2029.0 1043.0Q2010 1024 1984 1024H1243L1517 749Q1526 739 1531.0 728.5Q1536 718 1536 704Q1536 678 1517.0 659.0Q1498 640 1472 640Q1446 640 1427 659L1043 1043Q1024 1062 1024 1088Q1024 1114 1043 1133L1427 1517Q1446 1536 1472 1536Q1498 1536 1517.0 1517.0Q1536 1498 1536 1472Q1536 1446 1517 1427L1243 1152H1984Q2010 1152 2029.0 1133.0Q2048 1114 2048 1088ZM768 1344Q768 1370 749.0 1389.0Q730 1408 704 1408H192Q166 1408 147.0 1389.0Q128 1370 128 1344V832Q128 806 147.0 787.0Q166 768 192 768H704Q730 768 749.0 787.0Q768 806 768 832Z"/>
  </g>
</svg>