<?xml version="1.0" encoding="utf-8"?>
<svg xmlns="http://www.w3.org/2000/svg" width="16" height="16" viewBox="0 0 2048 2048">
  <g transform="translate(0, 2048) scale(1, -1)">
    <path fill="#000000" d="M1856 1536Q1895 1536 1930.0 1521.0Q1965 1506 1991.5 1479.5Q2018 1453 2033.0 1418.0Q2048 1383 2048 1344V832Q2048 793 2033.0 758.0Q2018 723 1991.5 696.5Q1965 670 1930.0 655.0Q1895 640 1856 640H1344Q1305 640 1270.0 655.0Q1235 670 1208.5 696.5Q1182 723 1167.0 758.0Q1152 793 1152 832V1344Q1152 1383 1167.0 1418.0Q1182 1453 1208.5 1479.5Q1235 1506 1270.0 1521.0Q1305 1536 1344 1536ZM1024 1088Q1024 1062 1005 1043L621 659Q602 640 576 640Q550 640 531.0 659.0Q512 678 512 704Q512 730 531 749L806 1024H64Q38 1024 19.0 1043.0Q0 1062 0 1088Q0 1114 19.0 1133.0Q38 1152 64 1152H806L531 1427Q512 1446 512 1472Q512 1498 531.0 1517.0Q550 1536 576 1536Q602 1536 621 1517L1005 1133Q1024 1114 1024 1088ZM1920 1344Q1920 1370 1901.0 1389.0Q1882 1408 1856 1408H1344Q1318 1408 1299.0 1389.0Q1280 1370 1280 1344V832Q1280 806 1299.0 787.0Q1318 768 1344 768H1856Q1882 768 1901.0 787.0Q1920 806 1920 832Z"/>
  </g>
</svg>