<?xml version="1.0" encoding="utf-8"?>
<svg xmlns="http://www.w3.org/2000/svg" width="16" height="16" viewBox="0 0 2048 2048">
  <g transform="translate(0, 2048) scale(1, -1)">
    <path fill="#ffffff" d="M128 1728V448Q128 422 109.0 403.0Q90 384 64 384Q38 384 19.0 403.0Q0 422 0 448V1728Q0 1754 19.0 1773.0Q38 1792 64 1792Q90 1792 109.0 1773.0Q128 1754 128 1728ZM1408 448Q1382 448 1363.0 467.0Q1344 486 1344 512Q1344 538 1363 557L1829 1024H320Q294 1024 275.0 1043.0Q256 1062 256 1088Q256 1114 275.0 1133.0Q294 1152 320 1152H1829L1363 1619Q1344 1638 1344 1664Q1344 1690 1363.0 1709.0Q1382 1728 1408 1728Q1434 1728 1453 1709L2026 1136Q2037 1125 2042.5 1114.0Q2048 1103 2048 1088Q2048 1073 2042.5 1062.0Q2037 1051 2026 1040L1453 467Q1434 448 1408 448Z"/>
  </g>
</svg>