<?xml version="1.0" encoding="utf-8"?>
<svg xmlns="http://www.w3.org/2000/svg" width="16" height="16" viewBox="0 0 2048 2048">
  <g transform="translate(0, 2048) scale(1, -1)">
    <path fill="#000000" d="M2048 1728V448Q2048 422 2029.0 403.0Q2010 384 1984 384Q1958 384 1939.0 403.0Q1920 422 1920 448V1728Q1920 1754 1939.0 1773.0Q1958 1792 1984 1792Q2010 1792 2029.0 1773.0Q2048 1754 2048 1728ZM1792 1088Q1792 1062 1773.0 1043.0Q1754 1024 1728 1024H219L685 557Q704 538 704 512Q704 486 685.0 467.0Q666 448 640 448Q614 448 595 467L22 1040Q11 1051 5.5 1062.0Q0 1073 0 1088Q0 1103 5.5 1114.0Q11 1125 22 1136L595 1709Q614 1728 640 1728Q666 1728 685.0 1709.0Q704 1690 704 1664Q704 1638 685 1619L219 1152H1728Q1754 1152 1773.0 1133.0Q1792 1114 1792 1088Z"/>
  </g>
</svg>