<?xml version="1.0" encoding="utf-8"?>
<svg id="" width="16" height="16" style="width:16px;height:16px;" version="1.1" xmlns="http://www.w3.org/2000/svg" viewBox="0 0 2048 2048" enable-background="new 0 0 2048 2048" xml:space="preserve">
    <path fill="#000" d="M682.67 368 q0 -75.73 28.8 -142.93 q28.8 -67.2 78.93 -117.33 q50.13 -50.13 117.33 -78.94 q67.2 -28.8 142.94 -28.8 q53.33 0 95.99 11.73 q42.66 11.73 79.47 32.53 q36.8 20.8 69.87 50.67 q33.07 29.86 68.27 66.13 q35.2 -36.27 68.26 -65.6 q33.07 -29.34 69.33 -50.14 q36.27 -20.8 78.4 -32.53 q42.13 -11.73 95.46 -11.73 q76.8 0 144.53 29.33 q67.74 29.33 118.4 80 q50.66 50.67 80 117.87 q29.34 67.2 29.34 144 q0 73.6 -27.74 141.33 q-27.73 67.73 -79.99 120 l-532.27 532.27 q-17.07 17.06 -40.53 17.06 q-23.47 0 -40.54 -17.06 l-535.46 -535.47 q-52.27 -52.27 -80.54 -120.53 q-28.26 -68.26 -28.26 -141.87 ZM401.07 2048 q-80 0 -153.07 -32.53 q-73.07 -32.54 -128 -87.47 q-54.93 -54.93 -87.47 -128 q-32.53 -73.07 -32.53 -153.07 l0 -1109.33 q0 -80 32.53 -153.06 q32.53 -73.06 87.47 -128 q54.93 -54.94 128 -87.47 q73.07 -32.53 153.07 -32.53 l163.2 0 q-16 32 -26.67 66.67 q-10.67 34.67 -17.07 69.87 l-116.26 0 q-53.34 0 -101.87 21.87 q-48.53 21.87 -85.33 58.67 q-36.8 36.8 -58.67 85.33 q-21.87 48.54 -21.87 101.86 l0 1102.93 q0 53.34 21.87 101.87 q21.87 48.53 58.67 85.33 q36.8 36.8 85.33 58.67 q48.53 21.87 101.87 21.87 l1102.93 0 q55.47 0 104 -22.4 q48.53 -22.4 84.8 -59.74 q36.27 -37.34 57.6 -86.93 q21.33 -49.6 21.33 -104 l0 -598.4 l136.54 -136.53 l0 743.46 q0 80 -32.54 153.07 q-32.53 73.07 -87.47 128 q-54.94 54.93 -128 87.47 q-73.07 32.53 -153.07 32.53 l-1109.33 0 Z"/>
</svg>