<?xml version="1.0" encoding="utf-8"?>
<svg xmlns="http://www.w3.org/2000/svg" width="16" height="16" viewBox="0 0 2048 2048">
  <g transform="translate(0, 2048) scale(1, -1)">
    <path fill="#000000" d="M2046 1729Q2046 1665 2021.5 1606.0Q1997 1547 1952 1502L1743 1293L1747 1288Q1775 1257 1789.0 1225.5Q1803 1194 1803 1152Q1803 1114 1788.5 1078.5Q1774 1043 1747 1016L1608 877Q1581 851 1545.5 836.0Q1510 821 1472 821Q1437 821 1403.5 833.5Q1370 846 1344 870L769 295Q745 271 717.0 255.0Q689 239 658.5 228.5Q628 218 596.0 212.0Q564 206 531 201Q489 195 446.0 179.0Q403 163 361.0 142.0Q319 121 279.0 97.0Q239 73 203 51Q187 41 173.5 36.5Q160 32 141 32Q119 32 99.5 40.5Q80 49 65.5 63.5Q51 78 42.5 97.5Q34 117 34 139Q34 157 38.5 171.5Q43 186 53 202Q76 239 100.0 278.5Q124 318 144.5 359.5Q165 401 180.5 443.5Q196 486 202 531Q206 564 212.5 596.0Q219 628 229.0 658.5Q239 689 255.0 717.0Q271 745 295 769L870 1344Q845 1371 833.0 1403.5Q821 1436 821 1472Q821 1510 835.5 1545.5Q850 1581 877 1608L1016 1747Q1043 1774 1078.5 1788.5Q1114 1803 1152 1803Q1234 1803 1290 1745L1500 1955Q1545 2000 1603.5 2024.5Q1662 2049 1726 2049Q1792 2049 1850.0 2023.5Q1908 1998 1951.5 1954.5Q1995 1911 2020.5 1853.0Q2046 1795 2046 1729ZM1918 1729Q1918 1769 1903.0 1804.0Q1888 1839 1862.0 1864.5Q1836 1890 1801.0 1905.0Q1766 1920 1726 1920Q1688 1920 1652.5 1905.5Q1617 1891 1590 1864L1381 1655L1652 1383L1862 1593Q1889 1620 1903.5 1655.5Q1918 1691 1918 1729ZM1675 1152Q1675 1178 1656 1197L1197 1656Q1178 1675 1152 1675Q1126 1675 1107 1656L968 1517Q949 1498 949 1472Q949 1446 968 1427L1389 1005Q1398 996 1407.0 986.5Q1416 977 1426.0 968.5Q1436 960 1447.0 954.5Q1458 949 1472 949Q1498 949 1517 968L1656 1107Q1675 1126 1675 1152ZM1254 960 960 1254 385 679Q369 663 359.5 643.5Q350 624 344.0 602.5Q338 581 335.0 558.5Q332 536 329 515Q318 431 281.5 352.0Q245 273 203 201Q276 244 352.5 279.5Q429 315 514 328Q533 331 556.0 335.0Q579 339 601.5 345.0Q624 351 644.0 360.5Q664 370 679 385Z"/>
  </g>
</svg>