<?xml version="1.0" encoding="utf-8"?>
<svg xmlns="http://www.w3.org/2000/svg" width="16" height="16" viewBox="0 0 2048 2048">
  <g transform="translate(0, 2048) scale(1, -1)">
    <path fill="#ffffff" d="M0 1344V1735Q0 1798 25.5 1855.0Q51 1912 93.5 1954.5Q136 1997 193.0 2022.5Q250 2048 313 2048H704Q730 2048 749.0 2029.0Q768 2010 768 1984Q768 1958 749.0 1939.0Q730 1920 704 1920H320Q281 1920 246.0 1905.0Q211 1890 184.5 1863.5Q158 1837 143.0 1802.0Q128 1767 128 1728V1344Q128 1318 109.0 1299.0Q90 1280 64 1280Q38 1280 19.0 1299.0Q0 1318 0 1344ZM1280 1984Q1280 2010 1299.0 2029.0Q1318 2048 1344 2048H1735Q1798 2048 1855.0 2022.5Q1912 1997 1954.5 1954.5Q1997 1912 2022.5 1855.0Q2048 1798 2048 1735V1344Q2048 1318 2029.0 1299.0Q2010 1280 1984 1280Q1958 1280 1939.0 1299.0Q1920 1318 1920 1344V1728Q1920 1767 1905.0 1802.0Q1890 1837 1863.5 1863.5Q1837 1890 1802.0 1905.0Q1767 1920 1728 1920H1344Q1318 1920 1299.0 1939.0Q1280 1958 1280 1984ZM256 1088Q256 1099 261.5 1112.5Q267 1126 274.5 1139.5Q282 1153 291.0 1165.0Q300 1177 306 1185Q438 1362 620.5 1449.0Q803 1536 1024 1536Q1132 1536 1234.0 1514.0Q1336 1492 1427.5 1448.0Q1519 1404 1598.5 1338.5Q1678 1273 1742 1185Q1748 1177 1756.5 1165.0Q1765 1153 1773.0 1140.0Q1781 1127 1786.5 1113.5Q1792 1100 1792 1088Q1792 1062 1773.0 1043.0Q1754 1024 1728 1024Q1708 1024 1694.5 1033.5Q1681 1043 1671 1060Q1621 1146 1550.0 1211.0Q1479 1276 1394.5 1320.0Q1310 1364 1215.5 1386.0Q1121 1408 1024 1408Q837 1408 680.0 1334.5Q523 1261 410 1111Q401 1099 393.0 1085.5Q385 1072 377 1059Q366 1043 353.0 1033.5Q340 1024 320 1024Q294 1024 275.0 1043.0Q256 1062 256 1088ZM640 832V840Q640 918 671.0 986.5Q702 1055 755.0 1106.0Q808 1157 877.5 1186.5Q947 1216 1024 1216Q1104 1216 1174.0 1186.0Q1244 1156 1296.0 1104.0Q1348 1052 1378.0 982.0Q1408 912 1408 832Q1408 752 1378.0 682.0Q1348 612 1296.0 560.0Q1244 508 1174.0 478.0Q1104 448 1024 448Q944 448 874.0 478.0Q804 508 752.0 560.0Q700 612 670.0 682.0Q640 752 640 832ZM1280 832V837Q1280 889 1259.0 934.5Q1238 980 1203.0 1014.0Q1168 1048 1121.5 1068.0Q1075 1088 1024 1088Q971 1088 924.5 1067.5Q878 1047 843.5 1012.5Q809 978 788.5 931.0Q768 884 768 832Q768 779 788.5 732.5Q809 686 843.5 651.5Q878 617 924.5 596.5Q971 576 1024 576Q1076 576 1123.0 596.5Q1170 617 1204.5 651.5Q1239 686 1259.5 732.5Q1280 779 1280 832ZM313 0Q250 0 193.0 25.5Q136 51 93.5 93.5Q51 136 25.5 193.0Q0 250 0 313V704Q0 730 19.0 749.0Q38 768 64 768Q90 768 109.0 749.0Q128 730 128 704V320Q128 281 143.0 246.0Q158 211 184.5 184.5Q211 158 246.0 143.0Q281 128 320 128H704Q730 128 749.0 109.0Q768 90 768 64Q768 38 749.0 19.0Q730 0 704 0ZM1280 64Q1280 90 1299.0 109.0Q1318 128 1344 128H1728Q1767 128 1802.0 143.0Q1837 158 1863.5 184.5Q1890 211 1905.0 246.0Q1920 281 1920 320V704Q1920 730 1939.0 749.0Q1958 768 1984 768Q2010 768 2029.0 749.0Q2048 730 2048 704V313Q2048 250 2022.5 193.0Q1997 136 1954.5 93.5Q1912 51 1855.0 25.5Q1798 0 1735 0H1344Q1318 0 1299.0 19.0Q1280 38 1280 64Z"/>
  </g>
</svg>