<?xml version="1.0" encoding="utf-8"?>
<svg xmlns="http://www.w3.org/2000/svg" width="16" height="16" viewBox="0 0 2048 2048">
  <g transform="translate(0, 2048) scale(1, -1)">
    <path fill="#000000" d="M64 1280Q38 1280 19.0 1299.0Q0 1318 0 1344V1600Q0 1640 15.0 1675.0Q30 1710 56.0 1736.0Q82 1762 117.0 1777.0Q152 1792 192 1792H448Q474 1792 493.0 1773.0Q512 1754 512 1728Q512 1702 493.0 1683.0Q474 1664 448 1664H192Q166 1664 147.0 1645.0Q128 1626 128 1600V1344Q128 1318 109.0 1299.0Q90 1280 64 1280ZM1856 1792Q1896 1792 1931.0 1777.0Q1966 1762 1992.0 1736.0Q2018 1710 2033.0 1675.0Q2048 1640 2048 1600V1344Q2048 1318 2029.0 1299.0Q2010 1280 1984 1280Q1958 1280 1939.0 1299.0Q1920 1318 1920 1344V1600Q1920 1626 1901.0 1645.0Q1882 1664 1856 1664H1600Q1574 1664 1555.0 1683.0Q1536 1702 1536 1728Q1536 1754 1555.0 1773.0Q1574 1792 1600 1792ZM1024 1472Q1104 1472 1182.0 1451.0Q1260 1430 1329.5 1390.5Q1399 1351 1456.5 1295.0Q1514 1239 1554 1169Q1572 1137 1586.0 1099.5Q1600 1062 1600 1024Q1600 987 1586.0 949.5Q1572 912 1554 880Q1514 810 1456.5 754.0Q1399 698 1329.5 658.5Q1260 619 1182.0 597.5Q1104 576 1024 576Q944 576 866.0 597.0Q788 618 718.5 657.5Q649 697 591.5 753.0Q534 809 494 879Q476 911 462.0 948.5Q448 986 448 1024Q448 1046 453.5 1068.5Q459 1091 467.5 1113.0Q476 1135 487.0 1156.0Q498 1177 510 1195Q552 1259 609.0 1310.5Q666 1362 732.5 1398.0Q799 1434 873.0 1453.0Q947 1472 1024 1472ZM1024 704Q1090 704 1148.0 729.0Q1206 754 1249.5 797.5Q1293 841 1318.5 899.5Q1344 958 1344 1024Q1344 1090 1319.0 1148.0Q1294 1206 1250.5 1249.5Q1207 1293 1148.5 1318.5Q1090 1344 1024 1344Q958 1344 899.5 1318.5Q841 1293 797.5 1249.5Q754 1206 729.0 1148.0Q704 1090 704 1024Q704 958 729.0 899.5Q754 841 797.5 797.5Q841 754 899.5 729.0Q958 704 1024 704ZM1024 1216Q1064 1216 1099.0 1201.0Q1134 1186 1160.0 1160.0Q1186 1134 1201.0 1099.0Q1216 1064 1216 1024Q1216 985 1201.0 950.0Q1186 915 1160.0 888.5Q1134 862 1099.5 847.0Q1065 832 1025 832Q984 832 949.0 847.0Q914 862 888.0 888.0Q862 914 847.0 949.0Q832 984 832 1025Q832 1065 847.0 1099.5Q862 1134 888.5 1160.0Q915 1186 950.0 1201.0Q985 1216 1024 1216ZM64 768Q90 768 109.0 749.0Q128 730 128 704V448Q128 422 147.0 403.0Q166 384 192 384H448Q474 384 493.0 365.0Q512 346 512 320Q512 294 493.0 275.0Q474 256 448 256H192Q152 256 117.0 271.0Q82 286 56.0 312.0Q30 338 15.0 373.0Q0 408 0 448V704Q0 730 19.0 749.0Q38 768 64 768ZM1984 768Q2010 768 2029.0 749.0Q2048 730 2048 704V448Q2048 408 2033.0 373.0Q2018 338 1992.0 312.0Q1966 286 1931.0 271.0Q1896 256 1856 256H1600Q1574 256 1555.0 275.0Q1536 294 1536 320Q1536 346 1555.0 365.0Q1574 384 1600 384H1856Q1882 384 1901.0 403.0Q1920 422 1920 448V704Q1920 730 1939.0 749.0Q1958 768 1984 768Z"/>
  </g>
</svg>