<?xml version="1.0" encoding="utf-8"?>
<svg xmlns="http://www.w3.org/2000/svg" width="16" height="16" viewBox="0 0 2048 2048">
  <g transform="translate(0, 2048) scale(1, -1)">
    <path fill="#000000" d="M256 1664V1672Q256 1750 287.0 1818.5Q318 1887 371.0 1938.0Q424 1989 493.5 2018.5Q563 2048 640 2048Q720 2048 790.0 2018.0Q860 1988 912.0 1936.0Q964 1884 994.0 1814.0Q1024 1744 1024 1664Q1024 1584 994.0 1514.0Q964 1444 912.0 1392.0Q860 1340 790.0 1310.0Q720 1280 640 1280Q560 1280 490.0 1310.0Q420 1340 368.0 1392.0Q316 1444 286.0 1514.0Q256 1584 256 1664ZM896 1664V1669Q896 1721 875.0 1766.5Q854 1812 819.0 1846.0Q784 1880 737.5 1900.0Q691 1920 640 1920Q587 1920 540.5 1899.5Q494 1879 459.5 1844.5Q425 1810 404.5 1763.0Q384 1716 384 1664Q384 1611 404.5 1564.5Q425 1518 459.5 1483.5Q494 1449 540.5 1428.5Q587 1408 640 1408Q692 1408 739.0 1428.5Q786 1449 820.5 1483.5Q855 1518 875.5 1564.5Q896 1611 896 1664ZM1280 1413Q1280 1465 1301.0 1510.5Q1322 1556 1357.0 1590.0Q1392 1624 1438.5 1644.0Q1485 1664 1536 1664Q1588 1664 1635.0 1643.5Q1682 1623 1716.5 1588.5Q1751 1554 1771.5 1507.0Q1792 1460 1792 1408Q1792 1357 1772.0 1310.5Q1752 1264 1718.0 1229.0Q1684 1194 1638.5 1173.0Q1593 1152 1541 1152Q1485 1152 1437.5 1172.0Q1390 1192 1355.0 1227.0Q1320 1262 1300.0 1309.5Q1280 1357 1280 1413ZM1664 1408Q1664 1434 1654.0 1457.5Q1644 1481 1626.5 1498.5Q1609 1516 1585.5 1526.0Q1562 1536 1536 1536Q1509 1536 1486.0 1526.0Q1463 1516 1445.5 1498.5Q1428 1481 1418.0 1458.0Q1408 1435 1408 1408Q1408 1381 1418.0 1357.5Q1428 1334 1445.0 1317.0Q1462 1300 1485.5 1290.0Q1509 1280 1536 1280Q1563 1280 1586.0 1290.0Q1609 1300 1626.5 1317.5Q1644 1335 1654.0 1358.0Q1664 1381 1664 1408ZM1029 1280Q1081 1280 1126.5 1259.0Q1172 1238 1206.0 1203.0Q1240 1168 1260.0 1121.5Q1280 1075 1280 1024Q1280 971 1260.0 924.0Q1240 877 1205.5 842.5Q1171 808 1124.0 788.0Q1077 768 1024 768Q973 768 926.5 788.0Q880 808 845.0 842.0Q810 876 789.0 921.5Q768 967 768 1019Q768 1075 788.0 1122.5Q808 1170 843.0 1205.0Q878 1240 925.5 1260.0Q973 1280 1029 1280ZM192 1152H662Q640 1092 640 1024H192Q170 1024 157.0 1015.5Q144 1007 137.5 993.5Q131 980 129.0 963.5Q127 947 127 930Q127 921 127.5 912.5Q128 904 128 896Q128 836 151.0 782.5Q174 729 212.0 685.0Q250 641 299.5 607.5Q349 574 402 553Q391 521 387.5 489.5Q384 458 384 424Q309 448 239.5 493.0Q170 538 117.0 598.5Q64 659 32.0 733.0Q0 807 0 890V960Q0 999 15.0 1034.0Q30 1069 56.5 1095.5Q83 1122 118.0 1137.0Q153 1152 192 1152ZM1035 896Q1059 896 1080.5 907.5Q1102 919 1118.0 937.0Q1134 955 1143.0 978.0Q1152 1001 1152 1024Q1152 1050 1142.0 1073.5Q1132 1097 1114.5 1114.5Q1097 1132 1073.5 1142.0Q1050 1152 1024 1152Q997 1152 974.0 1142.0Q951 1132 933.5 1114.5Q916 1097 906.0 1074.0Q896 1051 896 1024Q896 993 907.0 969.5Q918 946 936.5 929.5Q955 913 980.5 904.5Q1006 896 1035 896ZM1664 448Q1664 487 1655 525Q1714 537 1763.0 563.5Q1812 590 1847.0 629.0Q1882 668 1901.0 719.0Q1920 770 1920 832Q1920 858 1901.0 877.0Q1882 896 1856 896H1386Q1408 956 1408 1024H1856Q1895 1024 1930.0 1009.0Q1965 994 1991.5 967.5Q2018 941 2033.0 906.0Q2048 871 2048 832Q2048 742 2019.5 669.0Q1991 596 1940.0 540.5Q1889 485 1818.0 448.5Q1747 412 1662 395Q1663 409 1663.5 421.5Q1664 434 1664 448ZM512 448Q512 488 527.0 523.0Q542 558 568.0 584.0Q594 610 629.0 625.0Q664 640 704 640H1344Q1384 640 1419.0 625.0Q1454 610 1480.0 584.0Q1506 558 1521.0 523.0Q1536 488 1536 448Q1536 338 1494.0 254.5Q1452 171 1381.5 114.5Q1311 58 1218.5 29.0Q1126 0 1024 0Q922 0 829.0 28.5Q736 57 665.5 113.5Q595 170 553.5 254.0Q512 338 512 448ZM1408 448Q1408 474 1389.0 493.0Q1370 512 1344 512H704Q678 512 659.0 493.0Q640 474 640 448Q640 365 672.0 304.5Q704 244 757.5 205.0Q811 166 880.0 147.0Q949 128 1024 128Q1099 128 1168.0 147.0Q1237 166 1290.5 205.0Q1344 244 1376.0 304.5Q1408 365 1408 448Z"/>
  </g>
</svg>