<?xml version="1.0" encoding="utf-8"?>
<svg xmlns="http://www.w3.org/2000/svg" width="16" height="16" viewBox="0 0 2048 2048">
  <g transform="translate(0, 2048) scale(1, -1)">
    <path fill="#ffffff" d="M2005 1024Q2005 961 1954 922L1101 282Q1067 256 1024 256Q997 256 974.0 266.0Q951 276 933.5 293.5Q916 311 906.0 334.5Q896 358 896 384V800L205 282Q171 256 128 256Q101 256 78.0 266.0Q55 276 37.5 293.5Q20 311 10.0 334.5Q0 358 0 384V1664Q0 1691 10.0 1714.0Q20 1737 37.5 1754.5Q55 1772 78.5 1782.0Q102 1792 129 1792Q150 1792 169.0 1785.0Q188 1778 205 1766L896 1248V1664Q896 1691 906.0 1714.0Q916 1737 933.5 1754.5Q951 1772 974.5 1782.0Q998 1792 1025 1792Q1046 1792 1065.0 1785.0Q1084 1778 1101 1766L1954 1126Q2005 1087 2005 1024ZM128 1664V384L896 960V1088ZM1024 384 1877 1024 1024 1664Z"/>
  </g>
</svg>