<?xml version="1.0" encoding="utf-8"?>
<svg xmlns="http://www.w3.org/2000/svg" width="16" height="16" viewBox="0 0 2048 2048">
  <g transform="translate(0, 2048) scale(1, -1)">
    <path fill="#000000" d="M441 128Q378 128 321.0 153.5Q264 179 221.5 221.5Q179 264 153.5 321.0Q128 378 128 441V1607Q128 1670 153.5 1727.0Q179 1784 221.5 1826.5Q264 1869 321.0 1894.5Q378 1920 441 1920H1607Q1670 1920 1727.0 1894.5Q1784 1869 1826.5 1826.5Q1869 1784 1894.5 1727.0Q1920 1670 1920 1607V441Q1920 378 1894.5 321.0Q1869 264 1826.5 221.5Q1784 179 1727.0 153.5Q1670 128 1607 128ZM1600 256Q1639 256 1674.0 271.0Q1709 286 1735.5 312.5Q1762 339 1777.0 374.0Q1792 409 1792 448V1408H960Q921 1408 886.0 1423.0Q851 1438 824.5 1464.5Q798 1491 783.0 1526.0Q768 1561 768 1600V1792H448Q409 1792 374.0 1777.0Q339 1762 312.5 1735.5Q286 1709 271.0 1674.0Q256 1639 256 1600V448Q256 409 271.0 374.0Q286 339 312.5 312.5Q339 286 374.0 271.0Q409 256 448 256ZM1792 1536V1600Q1792 1639 1777.0 1674.0Q1762 1709 1735.5 1735.5Q1709 1762 1674.0 1777.0Q1639 1792 1600 1792H896V1600Q896 1574 915.0 1555.0Q934 1536 960 1536ZM512 896Q512 923 522.0 946.0Q532 969 549.5 986.5Q567 1004 590.0 1014.0Q613 1024 640 1024Q666 1024 689.5 1014.0Q713 1004 730.5 986.5Q748 969 758.0 945.5Q768 922 768 896Q768 869 758.0 846.0Q748 823 730.5 805.5Q713 788 690.0 778.0Q667 768 640 768Q613 768 589.5 778.0Q566 788 549.0 805.0Q532 822 522.0 845.5Q512 869 512 896ZM896 896Q896 923 906.0 946.0Q916 969 933.5 986.5Q951 1004 974.0 1014.0Q997 1024 1024 1024Q1050 1024 1073.5 1014.0Q1097 1004 1114.5 986.5Q1132 969 1142.0 945.5Q1152 922 1152 896Q1152 869 1142.0 846.0Q1132 823 1114.5 805.5Q1097 788 1074.0 778.0Q1051 768 1024 768Q997 768 973.5 778.0Q950 788 933.0 805.0Q916 822 906.0 845.5Q896 869 896 896ZM1280 896Q1280 923 1290.0 946.0Q1300 969 1317.5 986.5Q1335 1004 1358.0 1014.0Q1381 1024 1408 1024Q1434 1024 1457.5 1014.0Q1481 1004 1498.5 986.5Q1516 969 1526.0 945.5Q1536 922 1536 896Q1536 869 1526.0 846.0Q1516 823 1498.5 805.5Q1481 788 1458.0 778.0Q1435 768 1408 768Q1381 768 1357.5 778.0Q1334 788 1317.0 805.0Q1300 822 1290.0 845.5Q1280 869 1280 896Z"/>
  </g>
</svg>