<?xml version="1.0" encoding="utf-8"?>
<svg xmlns="http://www.w3.org/2000/svg" width="16" height="16" viewBox="0 0 2048 2048">
  <g transform="translate(0, 2048) scale(1, -1)">
    <path fill="#000000" d="M432 48Q406 48 387.0 67.5Q368 87 368 113Q368 120 369 124L476 750L21 1193Q2 1212 2 1238Q2 1261 18.0 1280.0Q34 1299 57 1303L685 1394L967 1964Q975 1980 990.5 1989.5Q1006 1999 1023 1999Q1041 1999 1057.0 1990.0Q1073 1981 1081 1964L1363 1394L1991 1303Q2015 1299 2030.5 1281.0Q2046 1263 2046 1239Q2046 1211 2027 1193L1572 750L1679 124Q1680 120 1680 113Q1680 87 1661.0 68.0Q1642 49 1616 49Q1599 49 1586 56L1024 352L462 56Q448 48 432 48Z"/>
  </g>
</svg>