<?xml version="1.0" encoding="utf-8"?>
<svg xmlns="http://www.w3.org/2000/svg" width="16" height="16" viewBox="0 0 2048 2048">
  <g transform="translate(0, 2048) scale(1, -1)">
    <path fill="#ffffff" d="M476 750 21 1193Q2 1212 2 1238Q2 1261 18.0 1280.0Q34 1299 57 1303L685 1394L967 1964Q975 1980 991.0 1989.5Q1007 1999 1024 1999Q1041 1999 1057.0 1989.5Q1073 1980 1081 1964L1363 1394L1991 1303Q2015 1299 2030.5 1281.0Q2046 1263 2046 1239Q2046 1212 2027 1193L1572 750L1679 124Q1680 120 1680 113Q1680 87 1661.0 68.0Q1642 49 1616 49Q1599 49 1586 56L1024 352L462 56Q449 49 432 49Q406 49 387.0 68.0Q368 87 368 113Q368 120 369 124ZM517 230 1024 497 1531 230Q1507 372 1483.5 512.5Q1460 653 1434 795L1845 1195L1278 1277Q1213 1406 1150.5 1534.0Q1088 1662 1024 1791Q960 1662 897.5 1534.0Q835 1406 770 1277L203 1195L614 795Q588 653 564.5 512.5Q541 372 517 230Z"/>
  </g>
</svg>