<?xml version="1.0" encoding="utf-8"?>
<svg xmlns="http://www.w3.org/2000/svg" width="16" height="16" viewBox="0 0 2048 2048">
  <g transform="translate(0, 2048) scale(1, -1)">
    <path fill="#000000" d="M433 50Q407 50 387.5 68.5Q368 87 368 113Q368 121 369 124L476 750L21 1194Q2 1212 2 1240Q2 1263 18.0 1281.5Q34 1300 57 1303L685 1394L967 1964Q975 1981 990.5 1990.0Q1006 1999 1025 1999Q1042 1999 1057.0 1989.5Q1072 1980 1080 1966L1382 1408H1984Q2010 1408 2029.0 1389.0Q2048 1370 2048 1344Q2048 1318 2029.0 1299.0Q2010 1280 1984 1280H1344Q1327 1280 1311.5 1289.5Q1296 1299 1288 1314L1027 1796L785 1307Q771 1277 737 1272L204 1195L590 818Q609 799 609 773Q609 766 608 762L517 230L994 481Q1007 488 1024 488Q1050 488 1069.0 469.5Q1088 451 1088 425Q1088 407 1079.0 391.5Q1070 376 1054 368L462 57Q449 50 433 50ZM1344 896Q1318 896 1299.0 915.0Q1280 934 1280 960Q1280 986 1299.0 1005.0Q1318 1024 1344 1024H1984Q2010 1024 2029.0 1005.0Q2048 986 2048 960Q2048 934 2029.0 915.0Q2010 896 1984 896ZM1344 512Q1318 512 1299.0 531.0Q1280 550 1280 576Q1280 602 1299.0 621.0Q1318 640 1344 640H1984Q2010 640 2029.0 621.0Q2048 602 2048 576Q2048 550 2029.0 531.0Q2010 512 1984 512Z"/>
  </g>
</svg>