<?xml version="1.0" encoding="utf-8"?>
<svg xmlns="http://www.w3.org/2000/svg" width="16" height="16" viewBox="0 0 2048 2048">
  <g transform="translate(0, 2048) scale(1, -1)">
    <path fill="#000000" d="M1172 895Q1161 895 1156.5 904.0Q1152 913 1152 922V1152H1075Q1084 1170 1086.0 1183.0Q1088 1196 1088 1216Q1088 1233 1081.5 1248.0Q1075 1263 1075 1280H1280V1165L1395 1280H1920V1920H896V1613Q866 1634 835.5 1657.5Q805 1681 768 1690V1958Q768 1997 793.5 2022.5Q819 2048 858 2048H1958Q1997 2048 2022.5 2022.5Q2048 1997 2048 1958V1242Q2048 1203 2022.5 1177.5Q1997 1152 1958 1152H1446L1190 909Q1185 904 1182.5 899.5Q1180 895 1172 895ZM256 1216V1223Q256 1288 282.0 1345.0Q308 1402 352.0 1444.5Q396 1487 454.0 1511.5Q512 1536 576 1536Q643 1536 701.0 1511.0Q759 1486 802.5 1442.5Q846 1399 871.0 1341.0Q896 1283 896 1216Q896 1149 871.0 1091.0Q846 1033 802.5 989.5Q759 946 701.0 921.0Q643 896 576 896Q509 896 451.0 921.0Q393 946 349.5 989.5Q306 1033 281.0 1091.0Q256 1149 256 1216ZM38 0Q0 0 0 38V192Q0 312 45.0 417.0Q90 522 168.0 600.0Q246 678 351.0 723.0Q456 768 576 768Q696 768 801.0 723.0Q906 678 984.0 600.0Q1062 522 1107.0 417.0Q1152 312 1152 192V38Q1152 0 1114 0Z"/>
  </g>
</svg>