<?xml version="1.0" encoding="utf-8"?>
<svg xmlns="http://www.w3.org/2000/svg" width="16" height="16" viewBox="0 0 2048 2048">
  <g transform="translate(0, 2048) scale(1, -1)">
    <path fill="#ffffff" d="M383 512Q341 512 302.5 493.5Q264 475 237 443L6 933Q0 945 0 960Q0 982 13.0 999.0Q26 1016 47 1022L256 1080V1600Q256 1626 275.0 1645.0Q294 1664 320 1664H640V1979Q640 2005 659.0 2024.0Q678 2043 704 2043H1344Q1370 2043 1389.0 2024.0Q1408 2005 1408 1979V1664H1728Q1754 1664 1773.0 1645.0Q1792 1626 1792 1600V1080L2001 1022Q2022 1016 2035.0 998.5Q2048 981 2048 959Q2048 944 2042 932L1808 447Q1781 478 1744.5 495.0Q1708 512 1666 512Q1606 512 1556.5 478.5Q1507 445 1485 389L1476 368Q1467 350 1453.5 330.5Q1440 311 1423.0 294.5Q1406 278 1386.0 267.0Q1366 256 1345 256Q1315 256 1291.0 273.5Q1267 291 1249 314Q1235 331 1223.0 350.5Q1211 370 1203 390Q1181 446 1132.5 479.5Q1084 513 1024 513Q958 513 915.0 480.0Q872 447 845 390Q835 370 824.0 350.5Q813 331 799 313Q782 291 757.5 273.5Q733 256 704 256Q683 256 663.0 267.0Q643 278 626.0 294.5Q609 311 595.5 330.5Q582 350 573 368L564 389Q542 445 492.5 478.5Q443 512 383 512ZM768 1915V1664H1280V1915ZM1664 1116V1536H384V1116L920 1265Q973 1279 1024 1279Q1074 1279 1127 1265ZM0 64Q0 90 19.0 109.0Q38 128 64 128Q127 128 179.0 153.5Q231 179 269 230Q281 247 292.0 266.0Q303 285 311 305Q316 318 320.5 332.5Q325 347 332.5 358.0Q340 369 351.5 376.5Q363 384 382 384Q404 384 420.0 373.0Q436 362 444 342V341L459 310Q476 275 501.0 242.0Q526 209 557.0 183.5Q588 158 625.0 143.0Q662 128 704 128Q747 128 783.5 143.0Q820 158 850.0 183.0Q880 208 904.5 241.0Q929 274 948 309Q951 314 953 318L958 332Q960 337 963 341V342Q971 360 987.0 372.0Q1003 384 1023 384Q1045 384 1059.5 373.0Q1074 362 1083 343Q1102 303 1127.0 264.5Q1152 226 1183.5 195.5Q1215 165 1255.0 146.5Q1295 128 1344 128Q1386 128 1423.0 143.0Q1460 158 1491.0 183.5Q1522 209 1547.0 242.0Q1572 275 1589 310L1604 341V342Q1612 361 1627.5 372.5Q1643 384 1664 384Q1684 384 1695.5 376.5Q1707 369 1714.5 357.5Q1722 346 1726.5 332.0Q1731 318 1737 304Q1745 284 1756.0 265.0Q1767 246 1779 229Q1816 179 1867.0 153.5Q1918 128 1980 128Q2006 128 2027.0 110.5Q2048 93 2048 65Q2048 39 2030.0 19.5Q2012 0 1985 0Q1877 0 1797.5 45.5Q1718 91 1658 179Q1601 99 1523.0 49.5Q1445 0 1344 0Q1293 0 1247.0 13.5Q1201 27 1161.0 52.0Q1121 77 1086.5 111.5Q1052 146 1024 187Q996 146 962.0 111.5Q928 77 887.5 52.5Q847 28 801.0 14.0Q755 0 704 0Q652 0 607.5 13.0Q563 26 524.5 49.5Q486 73 452.5 106.0Q419 139 389 179Q328 93 250.0 46.5Q172 0 64 0Q38 0 19.0 19.0Q0 38 0 64Z"/>
  </g>
</svg>