<?xml version="1.0" encoding="utf-8"?>
<svg xmlns="http://www.w3.org/2000/svg" width="16" height="16" viewBox="0 0 2048 2048">
  <g transform="translate(0, 2048) scale(1, -1)">
    <path fill="#000000" d="M0 965Q0 987 13.0 1004.0Q26 1021 47 1027L256 1085V1605Q256 1631 275.0 1650.0Q294 1669 320 1669H640V1984Q640 2010 659.0 2029.0Q678 2048 704 2048H1344Q1370 2048 1389.0 2029.0Q1408 2010 1408 1984V1669H1728Q1754 1669 1773.0 1650.0Q1792 1631 1792 1605V1085L2001 1027Q2022 1021 2035.0 1003.5Q2048 986 2048 964Q2048 949 2042 937L1808 452Q1785 477 1757.0 493.0Q1729 509 1696 514L1893 924L1092 1147Q1059 1156 1024 1156Q988 1156 955 1147L154 924L347 513Q282 501 237 448L6 938Q0 950 0 965ZM768 1920V1669H1280V1920ZM1664 1121V1541H384V1121L920 1270Q973 1284 1024 1284Q1074 1284 1127 1270ZM0 69Q0 95 19.0 114.0Q38 133 64 133Q127 133 179.0 158.5Q231 184 269 235Q281 252 292.0 271.0Q303 290 311 310Q316 323 320.5 337.5Q325 352 332.5 363.0Q340 374 351.5 381.5Q363 389 382 389Q402 389 419.0 378.0Q436 367 444 348V346Q448 340 450 334L455 322Q457 318 459 314Q476 279 501.0 246.5Q526 214 557.5 188.5Q589 163 626.0 148.0Q663 133 704 133Q747 133 783.5 148.0Q820 163 850.0 188.0Q880 213 904.5 246.0Q929 279 948 314Q952 322 955.0 330.5Q958 339 963 346V347Q971 365 987.0 377.0Q1003 389 1023 389Q1064 389 1083 348Q1101 308 1126.0 269.5Q1151 231 1183.0 200.5Q1215 170 1255.0 151.5Q1295 133 1344 133Q1385 133 1422.0 148.0Q1459 163 1490.5 188.5Q1522 214 1547.0 246.5Q1572 279 1589 314Q1591 318 1593 322L1598 334Q1600 340 1604 346V347Q1612 366 1627.5 377.5Q1643 389 1664 389Q1687 389 1703.0 375.0Q1719 361 1726 340V339Q1730 332 1732.0 324.5Q1734 317 1737 309Q1769 230 1831.0 181.5Q1893 133 1980 133Q2006 133 2027.0 115.5Q2048 98 2048 70Q2048 44 2030.0 24.5Q2012 5 1985 5Q1877 5 1797.5 50.5Q1718 96 1658 184Q1601 104 1523.0 54.5Q1445 5 1344 5Q1293 5 1247.0 18.5Q1201 32 1161.0 57.0Q1121 82 1086.5 116.5Q1052 151 1024 192Q996 151 961.5 116.5Q927 82 887.0 57.5Q847 33 801.0 19.0Q755 5 704 5Q652 5 607.5 18.0Q563 31 524.5 54.5Q486 78 452.5 111.0Q419 144 389 184Q328 98 250.0 51.5Q172 5 64 5Q38 5 19.0 24.0Q0 43 0 69Z"/>
  </g>
</svg>