<?xml version="1.0" encoding="utf-8"?>
<svg xmlns="http://www.w3.org/2000/svg" width="16" height="16" viewBox="0 0 2048 2048">
  <g transform="translate(0, 2048) scale(1, -1)">
    <path fill="#000000" d="M512 1536Q512 1616 542.0 1685.5Q572 1755 624.5 1807.5Q677 1860 747.0 1890.0Q817 1920 896 1920Q968 1920 1032.5 1895.0Q1097 1870 1147.5 1826.0Q1198 1782 1232.0 1722.0Q1266 1662 1276 1593Q1333 1627 1396 1645Q1378 1731 1332.0 1805.0Q1286 1879 1219.5 1933.0Q1153 1987 1070.5 2017.5Q988 2048 896 2048Q790 2048 696.5 2008.0Q603 1968 533.5 1898.5Q464 1829 424.0 1735.5Q384 1642 384 1536Q384 1430 424.0 1336.5Q464 1243 533.5 1173.5Q603 1104 696.5 1064.0Q790 1024 896 1024Q932 1024 967.0 1029.0Q1002 1034 1036 1043Q1024 1096 1024 1152V1174Q994 1163 962.0 1157.5Q930 1152 896 1152Q817 1152 747.0 1182.0Q677 1212 624.5 1264.5Q572 1317 542.0 1387.0Q512 1457 512 1536ZM256 896H1093Q1113 860 1139.5 828.0Q1166 796 1197 768H256Q230 768 206.5 758.5Q183 749 165 731Q147 713 137.5 689.5Q128 666 128 640Q128 534 170.5 443.5Q213 353 303 284Q394 214 540.5 171.0Q687 128 896 128Q1011 128 1106.5 141.5Q1202 155 1280 179V46Q1197 23 1101.5 11.5Q1006 0 896 0Q672 0 505.5 47.0Q339 94 225 182Q110 270 55.0 388.0Q0 506 0 640Q0 691 19.5 738.0Q39 785 75 821Q111 857 158.0 876.5Q205 896 256 896ZM1174 1025Q1163 1055 1157.5 1087.0Q1152 1119 1152 1152Q1152 1232 1182.0 1301.5Q1212 1371 1264.5 1423.5Q1317 1476 1387.0 1506.0Q1457 1536 1536 1536Q1616 1536 1685.5 1506.0Q1755 1476 1807.5 1423.5Q1860 1371 1890.0 1301.5Q1920 1232 1920 1152Q1920 1088 1900.0 1030.0Q1880 972 1844.5 924.0Q1809 876 1760.0 840.5Q1711 805 1653 787L1773 682Q1792 666 1792.0 641.5Q1792 617 1773 600L1600 449L1772 296Q1790 280 1791.0 257.0Q1792 234 1775 217L1579 16Q1562 -1 1537.5 0.0Q1513 1 1497 20L1421 113Q1408 127 1408 148V537V791Q1402 793 1397 795Q1319 825 1260.5 885.0Q1202 945 1174 1025ZM1536 1152Q1563 1152 1586.0 1162.0Q1609 1172 1626.5 1189.5Q1644 1207 1654.0 1230.5Q1664 1254 1664 1280Q1664 1307 1654.0 1330.0Q1644 1353 1626.5 1370.5Q1609 1388 1586.0 1398.0Q1563 1408 1536 1408Q1509 1408 1486.0 1398.0Q1463 1388 1445.5 1370.5Q1428 1353 1418.0 1330.0Q1408 1307 1408 1280Q1408 1254 1418.0 1230.5Q1428 1207 1445.5 1189.5Q1463 1172 1486.0 1162.0Q1509 1152 1536 1152Z"/>
  </g>
</svg>