<?xml version="1.0" encoding="utf-8"?>
<svg xmlns="http://www.w3.org/2000/svg" width="16" height="16" viewBox="0 0 2048 2048">
  <g transform="translate(0, 2048) scale(1, -1)">
    <path fill="#ffffff" d="M0 1824Q0 1864 28.0 1892.0Q56 1920 96 1920H681Q724 1920 763.0 1903.5Q802 1887 833 1857L982 1711Q978 1708 974.5 1705.0Q971 1702 967 1698L862 1592Q835 1565 799.5 1550.5Q764 1536 726 1536H0ZM96 128Q56 128 28.0 156.0Q0 184 0 224V1408H726Q791 1408 848 1433Q884 1448 914.0 1471.5Q944 1495 969.5 1520.5Q995 1546 1019.0 1571.5Q1043 1597 1068.5 1617.5Q1094 1638 1122.0 1651.0Q1150 1664 1184 1664H1952Q1992 1664 2020.0 1636.0Q2048 1608 2048 1568V224Q2048 184 2020.0 156.0Q1992 128 1952 128H1792V602Q1792 663 1769.0 716.5Q1746 770 1706.0 810.0Q1666 850 1612.5 873.0Q1559 896 1498 896H550Q489 896 435.5 873.0Q382 850 342.0 810.0Q302 770 279.0 716.5Q256 663 256 602V128ZM384 602Q384 636 397.5 666.5Q411 697 433.5 719.5Q456 742 486.0 755.0Q516 768 550 768H1498Q1532 768 1562.0 754.5Q1592 741 1614.5 718.5Q1637 696 1650.5 666.0Q1664 636 1664 602V128H384ZM1344 384Q1370 384 1389.0 403.0Q1408 422 1408 448Q1408 474 1389.0 493.0Q1370 512 1344 512H704Q678 512 659.0 493.0Q640 474 640 448Q640 422 659.0 403.0Q678 384 704 384Z"/>
  </g>
</svg>