<?xml version="1.0" encoding="utf-8"?>
<svg xmlns="http://www.w3.org/2000/svg" width="16" height="16" viewBox="0 0 2048 2048">
  <g transform="translate(0, 2048) scale(1, -1)">
    <path fill="#ffffff" d="M1735 1664Q1798 1664 1855.0 1638.5Q1912 1613 1954.5 1570.5Q1997 1528 2022.5 1471.0Q2048 1414 2048 1351V441Q2048 378 2022.5 321.0Q1997 264 1954.5 221.5Q1912 179 1855.0 153.5Q1798 128 1735 128H313Q250 128 193.0 153.5Q136 179 93.5 221.5Q51 264 25.5 321.0Q0 378 0 441V1607Q0 1670 25.5 1727.0Q51 1784 93.5 1826.5Q136 1869 193.0 1894.5Q250 1920 313 1920H704Q781 1920 847.5 1886.5Q914 1853 960 1792L1056 1664ZM128 1536H754Q781 1536 804.5 1543.0Q828 1550 849.0 1561.5Q870 1573 890.5 1587.0Q911 1601 932 1616Q908 1648 886.0 1679.5Q864 1711 838.5 1736.0Q813 1761 780.5 1776.5Q748 1792 704 1792H320Q281 1792 246.0 1777.0Q211 1762 184.5 1735.5Q158 1709 143.0 1674.0Q128 1639 128 1600ZM1920 1344Q1920 1383 1905.0 1418.0Q1890 1453 1863.5 1479.5Q1837 1506 1802.0 1521.0Q1767 1536 1728 1536H1043Q1007 1512 974.5 1489.0Q942 1466 907.5 1448.0Q873 1430 836.0 1419.0Q799 1408 754 1408H128V448Q128 409 143.0 374.0Q158 339 184.5 312.5Q211 286 246.0 271.0Q281 256 320 256H384V704Q384 743 399.0 778.0Q414 813 440.5 839.5Q467 866 502.0 881.0Q537 896 576 896H1472Q1511 896 1546.0 881.0Q1581 866 1607.5 839.5Q1634 813 1649.0 778.0Q1664 743 1664 704V256H1728Q1767 256 1802.0 271.0Q1837 286 1863.5 312.5Q1890 339 1905.0 374.0Q1920 409 1920 448ZM1536 256V704Q1536 730 1517.0 749.0Q1498 768 1472 768H576Q550 768 531.0 749.0Q512 730 512 704V256ZM1344 512Q1370 512 1389.0 493.0Q1408 474 1408 448Q1408 422 1389.0 403.0Q1370 384 1344 384H704Q678 384 659.0 403.0Q640 422 640 448Q640 474 659.0 493.0Q678 512 704 512Z"/>
  </g>
</svg>