<?xml version="1.0" encoding="utf-8"?>
<svg id="" width="16" height="16" style="width:16px;height:16px;" version="1.1"
    xmlns="http://www.w3.org/2000/svg" viewBox="0 0 2048 2048" enable-background="new 0 0 2048 2048"
    xml:space="preserve"><path fill="#ffffff" transform="translate(0, 50)" d="M0 192 q0 -40 15 -75 q15 -35 41 -61 q26 -26 61 -41 q35 -15 75 -15 l1664 0 q40 0 75 15 q35 15 61 41 q26 26 41 61 q15 35 15 75 q0 82 -60 139 l-648 618 q-14 14 -25 30 q-11 16 -19 33 q-16 35 -16 76 l0 768 q0 26 -19 45 q-19 19 -45 19 q-19 0 -35 -11 l-384 -256 q-29 -19 -29 -53 l0 -512 q0 -40 -15 -76 q-8 -18 -19.5 -33.5 q-11.5 -15.5 -25.5 -29.5 l-648 -618 q-60 -57 -60 -139 ZM1920 191 q0 -26 -19 -44.5 q-19 -18.5 -45 -18.5 l-1664 0 q-26 0 -45 18.5 q-19 18.5 -19 44.5 q0 29 20 47 l649 618 q47 45 73 106 q26 61 26 126 l0 478 l256 170 l0 -648 q0 -65 26 -126 q26 -61 73 -106 l649 -618 q20 -18 20 -47 Z"/></svg>