<?xml version="1.0" encoding="utf-8"?>
<svg id="" width="16" height="16" style="width:16px;height:16px;" version="1.1" xmlns="http://www.w3.org/2000/svg" viewBox="0 0 2048 2048" enable-background="new 0 0 2048 2048" xml:space="preserve">
    <path fill="#000" d="M1017.5 128.06 q-61.03 0 -121.06 9 q-60.03 9 -120.06 23.02 q-64.03 16.01 -123.06 38.52 q-59.03 22.51 -119.06 50.52 q-8 4 -14 5.5 q-6 1.5 -15 1.5 q-26.02 0 -45.02 -19.01 q-19 -19.01 -19 -45.03 q0 -19.01 9.5 -33.52 q9.5 -14.5 25.51 -23.5 q53.03 -30.02 117.06 -52.53 q64.03 -22.51 122.06 -39.52 q74.04 -23.01 149.57 -33.02 q75.54 -10.01 152.58 -10.01 q168.08 0 325.65 49.52 q157.58 49.52 288.64 155.57 q13 11.01 19.5 22.52 q6.51 11.5 6.51 28.51 q0 26.01 -19.01 45.02 q-19.01 19.01 -45.02 19.01 q-13.01 0 -20.52 -3.01 q-7.5 -3 -17.5 -10 q-61.03 -42.02 -122.06 -77.54 q-61.03 -35.52 -132.06 -59.53 q-69.04 -23.01 -140.58 -32.52 q-71.54 -9.5 -143.57 -9.5 ZM49.02 574.28 q0 -16.01 12.51 -40.02 q12.51 -24.01 32.02 -50.52 q19.51 -26.51 43.52 -54.52 q24.01 -28.01 48.02 -53.03 q24.01 -25.01 45.52 -45.03 q21.51 -20.01 34.52 -31.01 q20.01 -15.01 41.02 -15.01 q27.01 0 45.52 19.01 q18.51 19.01 18.51 46.02 q0 28.01 -22.01 48.02 q-54.03 49.03 -98.05 98.56 q-44.02 49.52 -83.04 111.55 q-20.01 30.01 -55.03 30.01 q-27.01 0 -45.02 -19.01 q-18.01 -19.01 -18.01 -45.02 ZM1012.49 384.19 q0 -26.02 19.51 -44.52 q19.51 -18.5 45.53 -18.5 q42.02 0 92.04 11 q50.03 11 100.55 28.01 q50.52 17 98.05 37.51 q47.53 20.51 84.55 39.52 q109.05 55.03 196.59 136.07 q87.55 81.04 159.58 179.09 q88.05 120.06 131.57 257.62 q43.52 137.57 58.53 284.64 l0 6.01 q0 26.01 -18.51 45.02 q-18.51 19.01 -45.53 19.01 q-26.01 0 -42.51 -17.01 q-16.51 -17.01 -21.52 -41.02 q-5 -29.02 -8 -58.03 q-3 -29.01 -8 -58.03 q-19.01 -99.05 -54.53 -190.09 q-35.52 -91.04 -95.55 -172.09 q-63.03 -86.04 -139.07 -157.07 q-76.03 -71.04 -171.08 -120.06 q-62.03 -32.02 -126.06 -56.03 q-64.03 -24.01 -133.07 -37.02 q-16 -3 -32.01 -4.5 q-16.01 -1.5 -32.02 -4.5 q-25.01 -5 -42.02 -21.51 q-17.01 -16.51 -17.01 -43.52 ZM81.04 1329.65 q0 -165.08 45.02 -312.15 q45.02 -147.07 130.06 -271.13 q85.05 -124.07 205.6 -220.61 q120.55 -96.55 272.63 -159.57 q12 -6 26.01 -6 q26.01 0 45.02 19 q19.01 19 19.01 45.02 q0 20.01 -10.5 35.52 q-10.5 15.5 -28.51 23.51 q-97.04 46.02 -183.08 100.04 q-86.05 54.02 -158.08 134.07 q-234.12 261.13 -234.12 612.3 q0 51.02 5.51 98.55 q5.5 47.52 15.5 97.54 q2 8.01 2 15.01 q0 26.02 -19 44.53 q-19.01 18.5 -45.03 18.5 q-23.01 0 -39.52 -13.5 q-16.5 -13.51 -23.52 -35.52 q-16.01 -52.03 -20.51 -111.56 q-4.5 -59.52 -4.5 -113.55 ZM378.18 1419.69 q0 -32.01 2.5 -64.53 q2.5 -32.51 7.5 -64.53 q19.01 -117.06 51.03 -218.11 q32.01 -101.05 87.04 -182.09 q55.02 -81.03 139.57 -139.56 q84.54 -58.53 208.6 -90.55 q38.02 -10 76.54 -14.5 q38.51 -4.51 77.53 -4.51 q76.04 0 153.58 22.52 q77.54 22.51 149.07 61.53 q71.53 39.01 132.56 92.04 q61.03 53.03 105.06 114.05 q7 10.01 10 19.01 q3 9 3 21 q0 26.02 -19.01 44.53 q-19.01 18.51 -45.02 18.51 q-16.01 0 -28.02 -7 q-12 -7.01 -23 -18.02 q-26.02 -29.01 -46.53 -51.52 q-20.51 -22.51 -41.52 -42.02 q-21.01 -19.51 -45.52 -37.52 q-24.51 -18.01 -59.53 -39.02 q-117.06 -70.03 -250.12 -70.03 q-60.03 0 -117.06 15 q-104.05 28.02 -172.08 76.54 q-68.03 48.52 -111.05 115.55 q-43.03 67.03 -67.54 151.07 q-24.51 84.04 -40.52 183.09 q-9 54.03 -9 110.05 q0 114.06 31.51 223.61 q31.51 109.56 86.53 209.61 q5.01 9 7.51 16 q2.5 7.01 2.5 18.01 q0 26.01 -19.01 45.02 q-19.01 19.01 -45.02 19.01 q-18.01 0 -30.51 -7.5 q-12.5 -7.5 -23.51 -21.51 q-13 -17.01 -23.5 -37.52 q-10.5 -20.51 -18.51 -40.52 q-46.02 -97.05 -71.04 -207.1 q-25.01 -110.05 -25.01 -218.11 ZM696.34 1447.71 q0 -38.02 1 -77.04 q1 -39.02 4 -77.04 q6.01 -76.04 29.52 -138.07 q23.51 -62.03 65.03 -105.55 q41.52 -43.52 101.55 -67.53 q60.03 -24.01 140.07 -24.01 q69.03 0 120.56 14.5 q51.52 14.5 88.55 41.52 q37.02 27.01 62.53 64.53 q25.51 37.52 44.02 83.54 q18.51 46.02 32.02 98.55 q13.5 52.53 26.51 109.56 q5 22.01 11.51 51.03 q6.5 29.01 14.51 58.53 q8.01 29.52 18.51 57.03 q10.5 27.51 23.5 45.52 q9.01 12.01 26.52 35.02 q17.5 23.01 37.51 47.53 q20.01 24.51 38.52 45.02 q18.51 20.51 28.52 27.51 q13 8 20.51 14.51 q7.5 6.5 13.5 21.51 q4.01 9 4.01 23.01 q0 26.01 -19.51 45.52 q-19.51 19.51 -45.53 19.51 q-19.01 0 -39.52 -15.01 q-20.51 -15.01 -34.51 -27.01 q-38.02 -35.02 -70.54 -78.04 q-32.51 -43.02 -62.53 -84.04 q-17.01 -23.01 -29.01 -47.53 q-12.01 -24.51 -20.01 -51.52 q-14.01 -46.02 -26.01 -103.05 q-12.01 -57.03 -26.01 -114.05 q-14.01 -57.03 -33.02 -109.55 q-19.01 -52.53 -47.03 -90.55 q-13 -18.01 -32.01 -28.51 q-19.01 -10.51 -40.02 -16.51 q-21.01 -6 -43.52 -8 q-22.51 -2 -42.52 -2 q-76.04 0 -119.06 29.02 q-43.02 29.01 -64.03 75.53 q-21.01 46.52 -25.51 104.55 q-4.5 58.03 -4.5 116.06 l0 53.03 q0 36.01 10 81.04 q10 45.02 24.51 91.54 q14.51 46.52 31.51 91.04 q17.01 44.53 31.02 77.54 q16.01 38.02 34.02 73.54 q18.01 35.52 38.02 70.53 q10 16.01 10 34.02 q0 26.01 -19.01 45.02 q-19.01 19.01 -45.02 19.01 q-35.02 0 -55.03 -31.02 q-24.01 -36.01 -46.52 -82.53 q-22.51 -46.53 -43.02 -96.55 q-20.51 -50.03 -37.52 -99.55 q-17.01 -49.52 -29.01 -91.54 q-14.01 -50.02 -23.01 -98.54 q-9 -48.53 -9 -100.55 ZM1552.76 1269.62 q0 -30.01 20.51 -46.52 q20.51 -16.51 48.52 -16.51 q27.02 0 41.53 18.51 q14.5 18.51 17.5 42.52 q4 37.02 13 76.54 q9.01 39.52 25.52 75.54 q16.51 36.01 42.52 65.03 q26.01 29.02 64.03 45.03 q41.02 17.01 41.02 60.03 q0 27.01 -18.51 45.52 q-18.51 18.51 -45.52 18.51 q-12.01 0 -24.01 -5 q-52.03 -19.01 -94.05 -61.03 q-42.02 -42.03 -71.04 -95.05 q-29.01 -53.02 -45.02 -111.55 q-16 -58.53 -16 -111.56 ZM980.48 1347.66 q0 -27.02 18.51 -46.02 q18.51 -19.01 45.52 -19.01 q28.01 0 45.02 17.51 q17.01 17.5 19.01 44.52 q4 74.03 18.51 147.56 q14.51 73.54 40.52 143.07 q26.01 69.53 64.53 133.07 q38.52 63.53 90.55 117.56 q10 10.01 15.01 20.51 q5 10.51 5 24.51 q0 26.02 -18.51 45.53 q-18.51 19.5 -45.53 19.5 q-25.01 0 -44.02 -18 q-56.02 -50.03 -103.05 -127.07 q-47.02 -77.04 -80.54 -164.08 q-33.51 -87.04 -52.02 -176.09 q-18.51 -89.05 -18.51 -163.08 Z"/>
</svg>