<?xml version="1.0" encoding="utf-8"?>
<svg xmlns="http://www.w3.org/2000/svg" width="16" height="16" viewBox="0 0 2048 2048">
  <g transform="translate(0, 2048) scale(1, -1)">
    <path fill="#000000" d="M1280 1472Q1280 1498 1299.0 1517.0Q1318 1536 1344 1536H1664Q1691 1536 1714.0 1546.0Q1737 1556 1754.5 1573.5Q1772 1591 1782.0 1614.0Q1792 1637 1792 1664Q1792 1690 1782.0 1713.5Q1772 1737 1754.5 1754.5Q1737 1772 1713.5 1782.0Q1690 1792 1664 1792Q1638 1792 1619.0 1811.0Q1600 1830 1600 1856Q1600 1885 1620.5 1902.5Q1641 1920 1669 1920Q1721 1920 1766.5 1899.0Q1812 1878 1846.0 1843.0Q1880 1808 1900.0 1761.5Q1920 1715 1920 1664Q1920 1613 1900.0 1566.5Q1880 1520 1846.0 1485.0Q1812 1450 1766.5 1429.0Q1721 1408 1669 1408H1344Q1318 1408 1299.0 1427.0Q1280 1446 1280 1472ZM1162 130Q1120 130 1081.0 142.0Q1042 154 1008.5 176.0Q975 198 946.5 227.0Q918 256 896 291Q852 360 797.5 415.0Q743 470 676 517Q632 547 589.0 567.0Q546 587 502.0 600.5Q458 614 411.0 623.0Q364 632 313 640Q287 644 271.5 661.0Q256 678 256 704Q256 710 258 720Q271 778 300.0 823.0Q329 868 370.0 899.0Q411 930 462.5 946.0Q514 962 573 962Q623 962 671.5 953.0Q720 944 768 928V1472Q768 1511 783.0 1546.0Q798 1581 824.5 1607.5Q851 1634 886.0 1649.0Q921 1664 960 1664Q999 1664 1034.0 1649.0Q1069 1634 1095.5 1607.5Q1122 1581 1137.0 1546.0Q1152 1511 1152 1472V1206L1528 1140Q1585 1130 1633.5 1101.0Q1682 1072 1717.5 1030.0Q1753 988 1773.0 935.5Q1793 883 1793 825Q1793 769 1773 714L1647 372Q1617 291 1552.0 237.0Q1487 183 1402 168L1207 134Q1187 130 1162 130ZM128 1280V1285Q128 1335 148.5 1380.5Q169 1426 203.5 1460.5Q238 1495 283.5 1515.5Q329 1536 379 1536H576Q602 1536 621.0 1517.0Q640 1498 640 1472Q640 1446 621.0 1427.0Q602 1408 576 1408H384Q331 1408 293 1370Q256 1333 256 1280Q256 1253 266.0 1229.5Q276 1206 293.0 1189.0Q310 1172 333.5 1162.0Q357 1152 384 1152Q410 1152 429.0 1133.0Q448 1114 448 1088Q448 1059 427.5 1041.5Q407 1024 379 1024Q327 1024 281.5 1045.0Q236 1066 202.0 1101.0Q168 1136 148.0 1182.5Q128 1229 128 1280ZM1665 824Q1665 859 1653.0 890.5Q1641 922 1620.0 947.5Q1599 973 1569.5 990.5Q1540 1008 1506 1014L1077 1089Q1054 1093 1039.0 1111.0Q1024 1129 1024 1152V1472Q1024 1498 1005.0 1517.0Q986 1536 960 1536Q934 1536 915.0 1517.0Q896 1498 896 1472V832Q896 805 877.5 786.5Q859 768 832 768Q823 768 817.0 769.5Q811 771 803 775Q749 800 692.5 817.0Q636 834 576 834Q523 834 481.0 817.0Q439 800 409 755Q601 720 749.5 622.0Q898 524 1004 359Q1017 339 1034.0 321.0Q1051 303 1072.0 289.0Q1093 275 1116.0 266.5Q1139 258 1164 258Q1169 258 1175.0 258.5Q1181 259 1186 260L1380 294Q1431 303 1470.0 336.0Q1509 369 1527 417L1653 758Q1665 789 1665 824Z"/>
  </g>
</svg>