<?xml version="1.0" encoding="utf-8"?>
<svg id="" width="16" height="16" style="width:16px;height:16px;" version="1.1" xmlns="http://www.w3.org/2000/svg" viewBox="0 0 2048 2048" enable-background="new 0 0 2048 2048" xml:space="preserve">
    <path fill="#000" transform="translate(0, 250)" d="M251 1536 q-50 0 -95.5 -20.5 q-45.5 -20.5 -80 -55 q-34.5 -34.5 -55 -80 q-20.5 -45.5 -20.5 -95.5 l0 -1034 q0 -50 20.5 -95.5 q20.5 -45.5 55 -80 q34.5 -34.5 80 -55 q45.5 -20.5 95.5 -20.5 l1546 0 q50 0 95.5 20.5 q45.5 20.5 80 55 q34.5 34.5 55 80 q20.5 45.5 20.5 95.5 l0 1034 q0 50 -20.5 95.5 q-20.5 45.5 -55 80 q-34.5 34.5 -80 55 q-45.5 20.5 -95.5 20.5 l-1546 0 ZM1792 1408 q27 0 50 -10 q23 -10 40.5 -27.5 q17.5 -17.5 27.5 -40.5 q10 -23 10 -50 l0 -1024 q0 -26 -10 -49.5 q-10 -23.5 -27.5 -41 q-17.5 -17.5 -41 -27.5 q-23.5 -10 -49.5 -10 l-1536 0 q-27 0 -50 10 q-23 10 -40.5 27.5 q-17.5 17.5 -27.5 40.5 q-10 23 -10 50 l0 1024 q0 27 10 50.5 q10 23.5 27 40.5 q17 17 40.5 27 q23.5 10 50.5 10 l1536 0 ZM256 576 l0 -128 q0 -39 15 -74 q15 -35 41.5 -61.5 q26.5 -26.5 61.5 -41.5 q35 -15 74 -15 l128 0 q26 0 45 19 q19 19 19 45 q0 26 -19 45 q-19 19 -45 19 l-128 0 q-21 0 -34 7.5 q-13 7.5 -20 21 q-7 13.5 -9 31 q-2 17.5 -2 36.5 q0 16 1 32 q1 16 1 32 q0 20 -2.5 37 q-2.5 17 -9 30.5 q-6.5 13.5 -19.5 21 q-13 7.5 -34 7.5 q-26 0 -45 -19 q-19 -19 -19 -45 ZM1408 320 q0 -26 19 -45 q19 -19 45 -19 l128 0 q39 0 74 15 q35 15 61.5 41.5 q26.5 26.5 41.5 61.5 q15 35 15 74 l0 128 q0 26 -19 45 q-19 19 -45 19 q-26 0 -45 -19 q-19 -19 -19 -45 l0 -128 q0 -21 -7.5 -34 q-7.5 -13 -21 -19.5 q-13.5 -6.5 -31 -9 q-17.5 -2.5 -36.5 -2.5 q-16 0 -32 1 q-16 1 -32 1 q-20 0 -37 -2 q-17 -2 -30.5 -9 q-13.5 -7 -21 -20 q-7.5 -13 -7.5 -34 ZM448 1280 q-39 0 -74 -15 q-35 -15 -61.5 -41.5 q-26.5 -26.5 -41.5 -61.5 q-15 -35 -15 -74 l0 -128 q0 -26 19 -45 q19 -19 45 -19 q26 0 45 19 q19 19 19 45 l0 128 q0 21 7.5 34 q7.5 13 21 20 q13.5 7 30.5 9 q17 2 37 2 q16 0 32 -1 q16 -1 32 -1 q19 0 36.5 2.5 q17.5 2.5 31 9 q13.5 6.5 21 19.5 q7.5 13 7.5 34 q0 26 -19 45 q-19 19 -45 19 l-128 0 ZM1472 1280 q-26 0 -45 -19 q-19 -19 -19 -45 q0 -26 19 -45 q19 -19 45 -19 l128 0 q21 0 34 -7.5 q13 -7.5 19.5 -21 q6.5 -13.5 9 -30.5 q2.5 -17 2.5 -37 q0 -16 -1 -32 q-1 -16 -1 -32 q0 -19 2 -36.5 q2 -17.5 9 -31 q7 -13.5 20 -21 q13 -7.5 34 -7.5 q26 0 45 19 q19 19 19 45 l0 128 q0 39 -15 74 q-15 35 -41.5 61.5 q-26.5 26.5 -61.5 41.5 q-35 15 -74 15 l-128 0 Z"/>
</svg>