<?xml version="1.0" encoding="utf-8"?>
<svg id="" width="16" height="16" style="width:16px;height:16px;" version="1.1" xmlns="http://www.w3.org/2000/svg" viewBox="0 0 2048 2048" enable-background="new 0 0 2048 2048" xml:space="preserve">
    <path fill="#ffffff" d="M136.53 1979.73 l0 -1911.46 q0 -27.74 20.27 -48 q20.27 -20.27 48 -20.27 l1638.4 0 q27.73 0 48 20.27 q20.27 20.27 20.27 48 q0 20.26 -11.74 38.4 l-384 576 l384 577.06 q11.74 17.07 11.74 37.34 q0 27.73 -20.27 48 q-20.27 20.26 -48 20.26 l-1570.13 0 l0 614.4 q0 27.74 -20.27 48.01 q-20.27 20.26 -48 20.26 q-27.73 0 -48 -20.26 q-20.27 -20.27 -20.27 -48.01 ZM273.07 1228.8 l1442.13 0 l-338.13 -507.73 q-11.74 -18.14 -11.74 -38.4 q0 -19.2 11.74 -37.34 l338.13 -508.8 l-1442.13 0 l0 1092.27 Z"/>
</svg>