<?xml version="1.0" encoding="utf-8"?>
<svg xmlns="http://www.w3.org/2000/svg" width="16" height="16" viewBox="0 0 2048 2048">
  <g transform="translate(0, 2048) scale(1, -1)">
    <path fill="#ffffff" d="M2048 1728V320Q2048 294 2029.0 275.0Q2010 256 1984 256H1465Q1401 256 1344.5 281.5Q1288 307 1245.5 349.5Q1203 392 1178.0 449.0Q1153 506 1152 569V640H192Q153 640 118.0 655.0Q83 670 56.5 696.5Q30 723 15.0 758.0Q0 793 0 832V1216Q0 1255 15.0 1290.0Q30 1325 56.5 1351.5Q83 1378 118.0 1393.0Q153 1408 192 1408H1152V1479Q1152 1542 1177.5 1599.0Q1203 1656 1245.5 1698.5Q1288 1741 1345.0 1766.5Q1402 1792 1465 1792H1984Q2010 1792 2029.0 1773.0Q2048 1754 2048 1728ZM1920 384V1664H1472Q1433 1664 1398.0 1649.0Q1363 1634 1336.5 1607.5Q1310 1581 1295.0 1546.0Q1280 1511 1280 1472V576Q1280 537 1295.0 502.0Q1310 467 1336.5 440.5Q1363 414 1398.0 399.0Q1433 384 1472 384ZM1152 768V1280H192Q166 1280 147.0 1261.0Q128 1242 128 1216V832Q128 806 147.0 787.0Q166 768 192 768ZM704 1088Q730 1088 749.0 1069.0Q768 1050 768 1024Q768 998 749.0 979.0Q730 960 704 960H448Q422 960 403.0 979.0Q384 998 384 1024Q384 1050 403.0 1069.0Q422 1088 448 1088Z"/>
  </g>
</svg>