<?xml version="1.0" encoding="utf-8"?>
<svg xmlns="http://www.w3.org/2000/svg" width="16" height="16" viewBox="0 0 2048 2048">
  <g transform="translate(0, 2048) scale(1, -1)">
    <path fill="#000000" d="M1856 1792Q1895 1792 1930.0 1777.0Q1965 1762 1991.5 1735.5Q2018 1709 2033.0 1674.0Q2048 1639 2048 1600V1216Q2048 1177 2033.0 1142.0Q2018 1107 1991.5 1080.5Q1965 1054 1930.0 1039.0Q1895 1024 1856 1024H1472Q1433 1024 1398.0 1039.0Q1363 1054 1336.5 1080.5Q1310 1107 1295.0 1142.0Q1280 1177 1280 1216V1408H1199Q1175 1408 1157.0 1392.0Q1139 1376 1136 1353L1039 677Q1034 642 1017.0 611.5Q1000 581 974.5 559.0Q949 537 917.0 524.5Q885 512 849 512H768V448Q768 409 753.0 374.0Q738 339 711.5 312.5Q685 286 650.0 271.0Q615 256 576 256H192Q153 256 118.0 271.0Q83 286 56.5 312.5Q30 339 15.0 374.0Q0 409 0 448V832Q0 871 15.0 906.0Q30 941 56.5 967.5Q83 994 118.0 1009.0Q153 1024 192 1024H576Q615 1024 650.0 1009.0Q685 994 711.5 967.5Q738 941 753.0 906.0Q768 871 768 832V640H849Q873 640 891.0 656.0Q909 672 912 695L1009 1371Q1014 1406 1031.0 1436.5Q1048 1467 1073.5 1489.0Q1099 1511 1131.0 1523.5Q1163 1536 1199 1536H1280V1600Q1280 1639 1295.0 1674.0Q1310 1709 1336.5 1735.5Q1363 1762 1398.0 1777.0Q1433 1792 1472 1792ZM1920 1600Q1920 1626 1901.0 1645.0Q1882 1664 1856 1664H1472Q1446 1664 1427.0 1645.0Q1408 1626 1408 1600V1216Q1408 1190 1427.0 1171.0Q1446 1152 1472 1152H1856Q1882 1152 1901.0 1171.0Q1920 1190 1920 1216ZM640 832Q640 858 621.0 877.0Q602 896 576 896H192Q166 896 147.0 877.0Q128 858 128 832V448Q128 422 147.0 403.0Q166 384 192 384H576Q602 384 621.0 403.0Q640 422 640 448Z"/>
  </g>
</svg>