<?xml version="1.0" encoding="utf-8"?>
<svg xmlns="http://www.w3.org/2000/svg" height="16" width="16" viewBox="0 0 16 16">
  <g>
    <path id="path1" transform="rotate(0,8,8) translate(0,0) scale(0.03125,0.03125)  " fill="#FFFFFF" d="M160,288L160,470 334.25,383 338.15625,380.6640625 341.625,377.90625 344.65625,374.7265625 347.25,371.125 349.328125,367.2109375 350.8125,363.09375 351.703125,358.7734375 352,354.25 352,288 160,288z M96,192L96,224 96.625,230.53125 98.5,236.625 101.4375,242.093765258789 105.25,246.75 109.90625,250.5625 115.375,253.5 121.46875,255.375 128,256 384,256 390.499969482422,255.375 396.5,253.5 401.90625,250.531265258789 406.625,246.625 410.531219482422,241.90625 413.5,236.5 415.375,230.5 416,224 416,192 96,192z M48,0L51.140625,0.296876430511475 54.0625,1.18750381469727 56.765625,2.67187929153442 59.25,4.75 61.328125,7.2343864440918 62.8125,9.93751525878906 63.703125,12.8593864440918 64,16 64,144 64.296875,147.140625 65.1875,150.0625 66.671875,152.765625 68.75,155.25 71.234375,157.328140258789 73.9375,158.8125 76.859375,159.703125 80,160 432,160 435.140625,159.703125 438.0625,158.8125 440.765625,157.328140258789 443.25,155.25 445.328125,152.765625 446.8125,150.0625 447.703125,147.140625 448,144 448,16 448.296875,12.8593864440918 449.1875,9.93751525878906 450.671875,7.2343864440918 452.75,4.75 455.234344482422,2.67187929153442 457.937469482422,1.18750381469727 460.859344482422,0.296876430511475 464,0 467.140625,0.296876430511475 470.0625,1.18750381469727 472.765625,2.67187929153442 475.25,4.75 477.328094482422,7.2343864440918 478.812469482422,9.93751525878906 479.703094482422,12.8593864440918 480,16 480,144 479.437469482422,151.562515258789 477.75,158.75 474.999969482422,165.5 471.25,171.75 466.59375,177.375 461.125,182.25 454.90625,186.25 448,189.25 448,225.25 447.6796875,231.2109375 446.71875,237.09375 445.1171875,242.898452758789 442.875,248.625 440.1015625,254.1484375 436.90625,259.34375 433.2890625,264.2109375 429.25,268.75 424.8359375,272.90625 420.093719482422,276.625 415.023406982422,279.90625 409.625,282.75 403.9921875,285.046875 398.21875,286.6875 392.3046875,287.671875 386.25,288 384,288 384,354.25 383.375,363.15625 381.5,371.875 378.46875,380.21875 374.375,388 369.28125,395.125 363.25,401.5 356.3125,407 348.5,411.5 151.25,510.25 147.8125,511.5625 144,512 140.7578125,511.7109375 137.78125,510.84375 135.0703125,509.3984375 132.625,507.375 130.6015625,504.9296875 129.15625,502.21875 128.2890625,499.2421875 128,496 128,288 121.484367370605,287.6953125 115.187492370605,286.78125 109.109367370605,285.2578125 103.25,283.125 97.6796875,280.4609375 92.46875,277.34375 87.6171875,273.7734375 83.125,269.75 79.03125,265.3125 75.375,260.5 72.15625,255.312515258789 69.375,249.75 67.1171875,243.90625 65.46875,237.875015258789 64.4296875,231.656265258789 64,225.25 63.75,219.25 63.75,213.25 63.875,201.25 64,189.25 57.09375,186.25 50.875,182.25 45.40625,177.375 40.75,171.75 37,165.5 34.25,158.75 32.5625,151.562515258789 32,144 32,16 32.296875,12.8593864440918 33.1875,9.93751525878906 34.671875,7.2343864440918 36.75,4.75 39.234375,2.67187929153442 41.9375,1.18750381469727 44.859375,0.296876430511475 48,0z" />
  </g>
</svg>
