<?xml version="1.0" encoding="utf-8"?>
<svg xmlns="http://www.w3.org/2000/svg" width="16" height="16" viewBox="0 0 2048 2048">
  <g transform="translate(0, 2048) scale(1, -1)">
    <path fill="#ffffff" d="M315 192Q265 192 219.5 212.5Q174 233 139.5 267.5Q105 302 84.5 347.5Q64 393 64 443V1605Q64 1655 84.5 1700.5Q105 1746 139.5 1780.5Q174 1815 219.5 1835.5Q265 1856 315 1856H704Q764 1856 818.5 1829.0Q873 1802 909 1754Q924 1735 938 1716L995 1638Q1010 1619 1024 1600H1733Q1783 1600 1828.5 1579.5Q1874 1559 1908.5 1524.5Q1943 1490 1963.5 1444.5Q1984 1399 1984 1349V443Q1984 393 1963.5 347.5Q1943 302 1908.5 267.5Q1874 233 1828.5 212.5Q1783 192 1733 192Z"/>
  </g>
</svg>