<?xml version="1.0" encoding="utf-8"?>
<svg xmlns="http://www.w3.org/2000/svg" width="16" height="16" viewBox="0 0 2048 2048">
  <g transform="translate(0, 2048) scale(1, -1)">
    <path fill="#000000" d="M313 128Q250 128 193.0 153.5Q136 179 93.5 221.5Q51 264 25.5 321.0Q0 378 0 441V1607Q0 1670 25.5 1727.0Q51 1784 93.5 1826.5Q136 1869 193.0 1894.5Q250 1920 313 1920H704Q773 1920 822.5 1898.5Q872 1877 912.0 1841.0Q952 1805 986.0 1759.0Q1020 1713 1056 1664H1735Q1798 1664 1855.0 1638.5Q1912 1613 1954.5 1570.5Q1997 1528 2022.5 1471.0Q2048 1414 2048 1351V441Q2048 378 2022.5 321.0Q1997 264 1954.5 221.5Q1912 179 1855.0 153.5Q1798 128 1735 128ZM754 1536Q781 1536 804.0 1543.0Q827 1550 849.0 1561.5Q871 1573 891.0 1587.0Q911 1601 932 1616Q909 1647 887.0 1678.5Q865 1710 839.0 1735.0Q813 1760 780.5 1776.0Q748 1792 704 1792H320Q281 1792 246.0 1777.0Q211 1762 184.5 1735.5Q158 1709 143.0 1674.0Q128 1639 128 1600V1536ZM1728 256Q1767 256 1802.0 271.0Q1837 286 1863.5 312.5Q1890 339 1905.0 374.0Q1920 409 1920 448V1344Q1920 1383 1905.0 1418.0Q1890 1453 1863.5 1479.5Q1837 1506 1802.0 1521.0Q1767 1536 1728 1536H1043Q1008 1512 975.5 1489.0Q943 1466 908.5 1448.0Q874 1430 836.0 1419.0Q798 1408 754 1408H128V448Q128 409 143.0 374.0Q158 339 184.5 312.5Q211 286 246.0 271.0Q281 256 320 256Z"/>
  </g>
</svg>