<?xml version="1.0" encoding="utf-8"?>
<svg xmlns="http://www.w3.org/2000/svg" height="16" width="16" viewBox="0 0 16 16">
  <g>
    <path id="path1" transform="rotate(0,8,8) translate(0,0) scale(0.166666666666667,0.166666666666667)  " fill="#FFFFFF" d="M48.890625,24L45.7265625,26.203125 42.5859375,28.125 39.1875,29.484375 35.34375,30 6,30 6,75 6.703125,78.46875 8.6484375,81.3515625 11.53125,83.296875 15,84 81,84 84.46875,83.296875 87.3515625,81.3515625 89.296875,78.46875 90,75 90,33 89.296875,29.53125 87.3515625,26.6484375 84.46875,24.703125 81,24 48.890625,24z M15,12L11.53125,12.703125 8.6484375,14.6484375 6.703125,17.53125 6,21 6,24 35.34375,24 37.6875,23.671875 39.796875,22.8046875 41.765625,21.609375 43.6875,20.25 41.578125,17.3203125 39.328125,14.671875 36.5859375,12.75 33,12 15,12z M14.671875,6L33,6 36.005859375,6.251953125 38.5546875,7.0078125 42.75,9.703125 46.21875,13.546875 49.5,18 81.328125,18 84.2109375,18.298828125 86.953125,19.1953125 89.455078125,20.58984375 91.6171875,22.3828125 93.41015625,24.544921875 94.8046875,27.046875 95.701171875,29.7890625 96,32.671875 96,75.328125 95.701171875,78.2109375 94.8046875,80.953125 93.41015625,83.455078125 91.6171875,85.6171875 89.455078125,87.41015625 86.953125,88.8046875 84.2109375,89.701171875 81.328125,90 14.671875,90 11.7890625,89.701171875 9.046875,88.8046875 6.54492139816284,87.41015625 4.3828125,85.6171875 2.58984375,83.455078125 1.1953125,80.953125 0.298828125,78.2109375 0,75.328125 0,20.671875 0.298828125,17.7890625 1.1953125,15.046875 2.58984375,12.544921875 4.3828125,10.3828125 6.54492139816284,8.58984375 9.046875,7.1953125 11.7890625,6.298828125 14.671875,6z" />
  </g>
</svg>
