<?xml version="1.0" encoding="utf-8"?>
<svg xmlns="http://www.w3.org/2000/svg" width="16" height="16" viewBox="0 0 2048 2048">
  <g transform="translate(0, 2048) scale(1, -1)">
    <path fill="#000000" d="M313 128Q250 128 193.0 153.5Q136 179 93.5 221.5Q51 264 25.5 321.0Q0 378 0 441V1607Q0 1670 25.5 1727.0Q51 1784 93.5 1826.5Q136 1869 193.0 1894.5Q250 1920 313 1920H704Q781 1920 847.5 1886.5Q914 1853 960 1792L1056 1664H1735Q1798 1664 1855.0 1638.5Q1912 1613 1954.5 1570.5Q1997 1528 2022.5 1471.0Q2048 1414 2048 1351V1216Q2019 1238 1987.0 1252.0Q1955 1266 1920 1274V1344Q1920 1383 1905.0 1418.0Q1890 1453 1863.5 1479.5Q1837 1506 1802.0 1521.0Q1767 1536 1728 1536H1043Q1007 1512 974.0 1489.0Q941 1466 907.5 1448.0Q874 1430 836.5 1419.0Q799 1408 754 1408H128V448Q128 409 143.0 374.0Q158 339 184.5 312.5Q211 286 246.0 271.0Q281 256 320 256H768V213Q768 191 769.0 170.0Q770 149 774 128ZM754 1536Q781 1536 804.5 1543.0Q828 1550 849.0 1561.5Q870 1573 890.5 1587.0Q911 1601 932 1616Q908 1648 886.0 1679.5Q864 1711 838.5 1736.0Q813 1761 780.5 1776.5Q748 1792 704 1792H320Q281 1792 246.0 1777.0Q211 1762 184.5 1735.5Q158 1709 143.0 1674.0Q128 1639 128 1600V1536ZM1088 0Q1049 0 1014.0 15.0Q979 30 952.5 56.5Q926 83 911.0 118.0Q896 153 896 192V960Q896 999 911.0 1034.0Q926 1069 952.5 1095.5Q979 1122 1014.0 1137.0Q1049 1152 1088 1152H1856Q1895 1152 1930.0 1137.0Q1965 1122 1991.5 1095.5Q2018 1069 2033.0 1034.0Q2048 999 2048 960V192Q2048 153 2033.0 118.0Q2018 83 1991.5 56.5Q1965 30 1930.0 15.0Q1895 0 1856 0ZM1344 248Q1374 248 1395 269L1843 717Q1864 738 1864 768Q1864 798 1843.0 819.0Q1822 840 1792 840Q1762 840 1741 819L1344 422L1203 563Q1182 584 1152 584Q1122 584 1101.0 563.0Q1080 542 1080 512Q1080 482 1101 461L1293 269Q1314 248 1344 248Z"/>
  </g>
</svg>