<?xml version="1.0" encoding="utf-8"?>
<svg xmlns="http://www.w3.org/2000/svg" width="16" height="16" viewBox="0 0 2048 2048">
  <g transform="translate(0, 2048) scale(1, -1)">
    <path fill="#ffffff" d="M1280 1856Q1280 1882 1299.0 1901.0Q1318 1920 1344 1920Q1360 1920 1373 1913L1600 1800L1827 1913Q1840 1920 1856 1920Q1882 1920 1901.0 1901.0Q1920 1882 1920 1856Q1920 1839 1910.5 1823.0Q1901 1807 1885 1799L1629 1671Q1613 1664 1600 1664Q1587 1664 1571 1671L1315 1799Q1299 1807 1289.5 1823.0Q1280 1839 1280 1856ZM512 449Q512 462 516 471L964 1623Q972 1642 988.0 1653.0Q1004 1664 1024 1664Q1044 1664 1060.0 1653.0Q1076 1642 1084 1623L1532 471Q1536 462 1536 449Q1536 423 1518.0 403.5Q1500 384 1473 384Q1453 384 1436.5 395.0Q1420 406 1412 425L1279 768H769L636 425Q628 406 611.5 395.0Q595 384 575 384Q548 384 530.0 403.5Q512 423 512 449ZM1024 1423 819 896H1229Z"/>
  </g>
</svg>