<?xml version="1.0" encoding="utf-8"?>
<svg id="" width="16" height="16" style="width:16px;height:16px;" version="1.1" xmlns="http://www.w3.org/2000/svg" viewBox="0 0 2048 2048" enable-background="new 0 0 2048 2048" xml:space="preserve">
    <path fill="#ffffff" d="M1194.67 341.33 q-34.67 0 -60.01 -25.33 q-25.34 -25.33 -25.34 -60 q0 -22.67 12.67 -44 q12.67 -21.33 34 -32 l341.33 -170.67 q17.34 -9.33 38.67 -9.33 q21.33 0 38.67 9.33 l341.33 170.67 q21.33 10.67 34 32 q12.67 21.33 12.67 44 q0 34.67 -25.34 60 q-25.34 25.33 -60.01 25.33 q-21.33 0 -38.66 -9.33 l-302.67 -150.67 l-302.67 150.67 q-17.33 9.33 -38.66 9.33 ZM85.33 1961.33 q0 -17.33 5.34 -29.33 l597.33 -1536 q10.67 -25.33 32 -40 q21.33 -14.67 48 -14.67 q26.67 0 48 14.67 q21.33 14.67 32 40 l597.33 1536 q5.34 12 5.34 29.33 q0 34.67 -24 60.67 q-24 26 -60 26 q-26.67 0 -48.67 -14.66 q-22 -14.66 -32.67 -40.01 l-177.33 -457.33 l-680 0 l-177.33 457.33 q-10.67 25.34 -32.67 40.01 q-22 14.66 -48.67 14.66 q-36 0 -60 -26 q-24 -26 -24 -60.67 ZM768 662.67 l-273.33 702.66 l546.66 0 l-273.33 -702.66 Z"/>
</svg>