<?xml version="1.0" encoding="utf-8"?>
<svg xmlns="http://www.w3.org/2000/svg" height="16" width="16" viewBox="0 0 16 16">
  <g>
    <path id="path1" transform="rotate(0,8,8) translate(0,0) scale(0.03125,0.03125)  " fill="#FFFFFF" d="M176,160L336,160 339.140625,160.296875 342.0625,161.1875 344.765625,162.671875 347.25,164.75 349.328125,167.234390258789 350.8125,169.937515258789 351.703125,172.859390258789 352,176 352,208 351.703125,211.140625 350.8125,214.0625 349.328125,216.765625 347.25,219.25 344.765625,221.328140258789 342.0625,222.8125 339.140625,223.703125 336,224 331.0625,223.46875 327.25,221.875 324.40625,219.4375 322.375,216.375 321.03125,212.8125 320.25,208.875 319.75,200.5 319.875,196.125 320,192 272,192 272,320 280.5,320 288.875,320.5 292.8125,321.28125 296.375,322.625 299.4375,324.625 301.875,327.375 303.46875,331.09375 304,336 303.703125,339.140625 302.8125,342.0625 301.328125,344.765625 299.25,347.25 296.765625,349.328125 294.0625,350.8125 291.140625,351.703125 288,352 224,352 220.859375,351.703125 217.9375,350.8125 215.234375,349.328125 212.75,347.25 210.671875,344.765625 209.1875,342.0625 208.296875,339.140625 208,336 208.53125,331.09375 210.125,327.375 212.562484741211,324.625 215.625,322.625 219.187484741211,321.28125 223.125,320.5 231.5,320 240,320 240,192 192,192 192,200.5 191.5,208.875 190.71875,212.8125 189.375,216.375 187.375,219.4375 184.625,221.875 180.90625,223.46875 176,224 172.859375,223.703125 169.9375,222.8125 167.234375,221.328140258789 164.75,219.25 162.671875,216.765625 161.1875,214.0625 160.296875,211.140625 160,208 160,176 160.296875,172.859390258789 161.1875,169.937515258789 162.671875,167.234390258789 164.75,164.75 167.234375,162.671875 169.9375,161.1875 172.859375,160.296875 176,160z M94.75,96L88.5703125,96.3203125 82.53125,97.28125 76.6328125,98.8828201293945 70.875,101.125 65.359375,103.906265258789 60.1875,107.125015258789 55.359375,110.781265258789 50.875,114.875 46.78125,119.359390258789 43.125,124.187515258789 39.90625,129.359390258789 37.125,134.875 34.8828125,140.6328125 33.28125,146.531265258789 32.3203125,152.570327758789 32,158.75 32,353.25 32.3203125,359.4296875 33.28125,365.46875 34.8828125,371.3671875 37.125,377.125 39.90625,382.640625 43.125,387.8125 46.78125,392.640625 50.875,397.125 55.359375,401.21875 60.1875,404.875 65.359375,408.09375 70.875,410.875 76.6328125,413.1171875 82.53125,414.71875 88.5703125,415.6796875 94.75,416 417.25,416 423.4296875,415.6796875 429.468719482422,414.71875 435.367156982422,413.1171875 441.125,410.875 446.640625,408.09375 451.8125,404.875 456.640625,401.21875 461.125,397.125 465.21875,392.640625 468.875,387.8125 472.09375,382.640625 474.875,377.125 477.117156982422,371.3671875 478.718719482422,365.46875 479.679656982422,359.4296875 480,353.25 480,158.75 479.679656982422,152.570327758789 478.718719482422,146.531265258789 477.117156982422,140.6328125 474.875,134.875 472.09375,129.359390258789 468.875,124.187515258789 465.21875,119.359390258789 461.125,114.875 456.640625,110.781265258789 451.8125,107.125015258789 446.640625,103.906265258789 441.125,101.125 435.367156982422,98.8828201293945 429.468719482422,97.28125 423.4296875,96.3203125 417.25,96 94.75,96z M94,64L418,64 427.2734375,64.4765625 436.34375,65.9062576293945 445.2109375,68.2890701293945 453.875,71.625 462.171844482422,75.7656478881836 469.937469482422,80.5625228881836 477.171844482422,86.0156402587891 483.875,92.125 489.984375,98.8281326293945 495.4375,106.062507629395 500.234375,113.828132629395 504.375,122.125 507.7109375,130.789077758789 510.09375,139.65625 511.5234375,148.7265625 512,158 512,354 511.5234375,363.2734375 510.09375,372.34375 507.7109375,381.2109375 504.375,389.875 500.234375,398.171875 495.4375,405.9375 489.984375,413.171875 483.875,419.875 477.171844482422,425.984375 469.937469482422,431.4375 462.171844482422,436.234375 453.875,440.375 445.2109375,443.7109375 436.34375,446.09375 427.2734375,447.5234375 418,448 94,448 84.7265625,447.5234375 75.65625,446.09375 66.7890625,443.7109375 58.125,440.375 49.828125,436.234375 42.0625,431.4375 34.828125,425.984375 28.125,419.875 22.015625,413.171875 16.5625,405.9375 11.765625,398.171875 7.625,389.875 4.2890625,381.2109375 1.90625,372.34375 0.4765625,363.2734375 0,354 0,158 0.4765625,148.7265625 1.90625,139.65625 4.2890625,130.789077758789 7.625,122.125 11.765625,113.828132629395 16.5625,106.062507629395 22.015625,98.8281326293945 28.125,92.125 34.828125,86.0156402587891 42.0625,80.5625228881836 49.828125,75.7656478881836 58.125,71.625 66.7890625,68.2890701293945 75.65625,65.9062576293945 84.7265625,64.4765625 94,64z" />
  </g>
</svg>
