<?xml version="1.0" encoding="utf-8"?>
<svg id="" width="16" height="16" style="width:16px;height:16px;" version="1.1" xmlns="http://www.w3.org/2000/svg" viewBox="0 0 2048 2048" enable-background="new 0 0 2048 2048" xml:space="preserve">
    <path fill="#ffffff" transform="translate(0, 150)" d="M635 1280 l-374 0 l-138 344 q-8 18 -23 29 q-15 11 -35 11 q-26 0 -45.5 -18 q-19.5 -18 -19.5 -45 q0 -12 5 -25 l384 -960 q16 -40 59 -40 q23 0 36 10.5 q13 10.5 23 29.5 q9 18 16 38.5 q7 20.5 15 39.5 l73 182 q55 138 109.5 274 q54.5 136 109.5 273 l351 -936 l117 -311 q12 -33 24 -67.5 q12 -34.5 26 -66.5 q9 -19 23.5 -30.5 q14.5 -11.5 36.5 -11.5 q23 0 37 11.5 q14 11.5 23 30.5 q11 23 19.5 49 q8.5 26 17.5 50 l87 232 l260 694 q7 18 24 62 q17 44 39 100.5 q22 56.5 45.5 118.5 q23.5 62 43 115 q19.5 53 32 91 q12.5 38 12.5 46 q0 27 -18.5 45.5 q-18.5 18.5 -45.5 18.5 q-20 0 -36.5 -11.5 q-16.5 -11.5 -23.5 -30.5 l-176 -470 l-680 0 l-176 470 q-7 19 -23 30.5 q-16 11.5 -36 11.5 q-20 0 -36 -10.5 q-16 -10.5 -24 -29.5 l-138 -344 ZM1408 246 l-292 778 l584 0 l-292 -778 ZM448 812 l-136 340 l272 0 l-136 -340 Z"/>
</svg>