<?xml version="1.0" encoding="utf-8"?>
<svg xmlns="http://www.w3.org/2000/svg" width="16" height="16" viewBox="0 0 2048 2048">
  <g transform="translate(0, 2048) scale(1, -1)">
    <path fill="#000000" d="M576 1023Q576 1035 581 1048L965 2008Q972 2026 989.0 2035.0Q1006 2044 1024 2044Q1044 2044 1059.5 2035.5Q1075 2027 1083 2008L1467 1048Q1472 1035 1472 1023Q1472 997 1453.0 978.5Q1434 960 1408 960Q1388 960 1372.5 971.0Q1357 982 1349 1000L1237 1280H811L699 1000Q691 982 676.0 971.0Q661 960 641 960Q615 960 595.5 978.0Q576 996 576 1023ZM1186 1408 1024 1812 862 1408ZM1728 768Q1766 768 1800.5 752.0Q1835 736 1861.5 709.5Q1888 683 1904.0 648.5Q1920 614 1920 576V192Q1920 154 1904.0 119.5Q1888 85 1861.5 58.5Q1835 32 1800.5 16.0Q1766 0 1728 0H320Q282 0 247.5 16.0Q213 32 186.5 58.5Q160 85 144.0 119.5Q128 154 128 192V576Q128 614 144.0 648.5Q160 683 186.5 709.5Q213 736 247.5 752.0Q282 768 320 768ZM1792 576Q1792 605 1774.5 622.5Q1757 640 1728 640H320Q291 640 273.5 622.5Q256 605 256 576V192Q256 164 274.0 146.0Q292 128 320 128H1728Q1757 128 1774.5 145.5Q1792 163 1792 192Z"/>
  </g>
</svg>