<?xml version="1.0" encoding="utf-8"?>
<svg xmlns="http://www.w3.org/2000/svg" width="16" height="16" viewBox="0 0 2048 2048">
  <g transform="translate(0, 2048) scale(1, -1)">
    <path fill="#ffffff" d="M512 2048Q532 2048 548.5 2036.5Q565 2025 572 2007L938 1070Q921 1038 912.5 1009.0Q904 980 900.5 951.0Q897 922 896.5 891.5Q896 861 896 826L769 1152H257L124 809Q117 791 100.5 779.5Q84 768 64 768Q37 768 18.5 787.0Q0 806 0 833Q0 846 4 855L452 2007Q459 2025 475.5 2036.5Q492 2048 512 2048ZM512 1808 307 1280H719ZM1536 1792Q1589 1792 1635.5 1772.0Q1682 1752 1717.0 1717.0Q1752 1682 1772.0 1635.5Q1792 1589 1792 1536V1152Q1845 1152 1891.5 1132.0Q1938 1112 1973.0 1077.0Q2008 1042 2028.0 995.5Q2048 949 2048 896V430Q2048 400 2045.5 356.5Q2043 313 2035.5 265.0Q2028 217 2015.0 170.0Q2002 123 1980.5 85.0Q1959 47 1928.5 23.5Q1898 0 1856 0H1561Q1556 0 1550.0 -2.0Q1544 -4 1538 -4Q1525 -4 1516 0H896Q870 0 851.0 19.0Q832 38 832 64Q832 78 837.0 88.0Q842 98 851 109Q877 140 896.5 181.5Q916 223 930.5 268.5Q945 314 955.0 360.0Q965 406 972 445Q992 558 1001.5 671.0Q1011 784 1018 899Q1021 951 1042.5 997.5Q1064 1044 1099.0 1078.0Q1134 1112 1180.0 1132.0Q1226 1152 1280 1152V1536Q1280 1589 1300.0 1635.5Q1320 1682 1355.0 1717.0Q1390 1752 1436.5 1772.0Q1483 1792 1536 1792ZM1920 896Q1920 923 1910.0 946.0Q1900 969 1882.5 986.5Q1865 1004 1842.0 1014.0Q1819 1024 1792 1024Q1774 1024 1761.5 1023.5Q1749 1023 1747 1023Q1727 1023 1708.5 1028.0Q1690 1033 1677.0 1046.5Q1664 1060 1664 1088V1536Q1664 1563 1654.0 1586.0Q1644 1609 1626.5 1626.5Q1609 1644 1586.0 1654.0Q1563 1664 1536 1664Q1509 1664 1486.0 1654.0Q1463 1644 1445.5 1626.5Q1428 1609 1418.0 1586.0Q1408 1563 1408 1536V1088Q1408 1060 1395.0 1046.5Q1382 1033 1363.5 1028.0Q1345 1023 1325 1023Q1323 1023 1310.5 1023.5Q1298 1024 1280 1024Q1253 1024 1230.0 1014.0Q1207 1004 1189.0 986.5Q1171 969 1160.0 945.5Q1149 922 1147 896ZM1631 128H1855Q1867 136 1876.5 157.5Q1886 179 1893.0 208.0Q1900 237 1905.0 270.5Q1910 304 1913.5 335.0Q1917 366 1918.5 392.0Q1920 418 1920 433V768H1139Q1133 688 1125.0 606.0Q1117 524 1103.0 442.5Q1089 361 1067.5 282.0Q1046 203 1014 128H1210Q1248 200 1264.0 283.5Q1280 367 1280 448Q1280 474 1299.0 493.0Q1318 512 1344 512Q1370 512 1389.0 493.0Q1408 474 1408 448Q1408 365 1394.5 285.5Q1381 206 1351 128H1496Q1503 146 1510.0 168.5Q1517 191 1523.0 214.5Q1529 238 1532.5 261.0Q1536 284 1536 303Q1536 317 1538.5 331.5Q1541 346 1548.0 357.5Q1555 369 1566.5 376.5Q1578 384 1595 384Q1632 384 1648.5 363.0Q1665 342 1665 307Q1665 264 1655.0 217.0Q1645 170 1631 128Z"/>
  </g>
</svg>