<?xml version="1.0" encoding="utf-8"?>
<svg xmlns="http://www.w3.org/2000/svg" width="16" height="16" viewBox="0 0 2048 2048">
  <g transform="translate(0, 2048) scale(1, -1)">
    <path fill="#000000" d="M1088 512Q1062 512 1043.0 531.0Q1024 550 1024 576Q1024 602 1043 621L1446 1024H448Q422 1024 403.0 1043.0Q384 1062 384 1088Q384 1114 403.0 1133.0Q422 1152 448 1152H1446L1043 1555Q1024 1574 1024 1600Q1024 1626 1043.0 1645.0Q1062 1664 1088 1664Q1114 1664 1133 1645L1642 1136Q1653 1125 1658.5 1114.0Q1664 1103 1664 1088Q1664 1073 1658.5 1062.0Q1653 1051 1642 1040L1133 531Q1114 512 1088 512Z"/>
  </g>
</svg>