<?xml version="1.0" encoding="utf-8"?>
<svg xmlns="http://www.w3.org/2000/svg" width="16" height="16" viewBox="0 0 2048 2048">
  <g transform="translate(0, 2048) scale(1, -1)">
    <path fill="#000000" d="M1664 256V1792Q1664 1819 1674.0 1842.0Q1684 1865 1701.5 1882.5Q1719 1900 1742.0 1910.0Q1765 1920 1792 1920Q1818 1920 1841.5 1910.0Q1865 1900 1882.5 1882.5Q1900 1865 1910.0 1841.5Q1920 1818 1920 1792V256Q1920 229 1910.0 206.0Q1900 183 1882.5 165.5Q1865 148 1842.0 138.0Q1819 128 1792 128Q1765 128 1741.5 138.0Q1718 148 1701.0 165.0Q1684 182 1674.0 205.5Q1664 229 1664 256ZM128 306V1742Q128 1776 141.0 1805.0Q154 1834 176.0 1855.5Q198 1877 227.5 1889.5Q257 1902 290 1902Q335 1902 376 1875L1465 1158Q1499 1135 1518.0 1100.0Q1537 1065 1537 1024Q1537 983 1518.0 948.0Q1499 913 1465 890L376 173Q356 160 333.5 153.0Q311 146 287 146Q254 146 225.5 159.0Q197 172 175.0 193.5Q153 215 140.5 244.0Q128 273 128 306Z"/>
  </g>
</svg>