<?xml version="1.0" encoding="utf-8"?>
<svg xmlns="http://www.w3.org/2000/svg" width="16" height="16" viewBox="0 0 2048 2048">
  <g transform="translate(0, 2048) scale(1, -1)">
    <path fill="#ffffff" d="M1329 135Q1355 135 1373.5 116.0Q1392 97 1392 71Q1392 45 1376.0 28.5Q1360 12 1336 7Q1313 2 1288.0 0.5Q1263 -1 1237 -1Q1222 -1 1207.0 -0.5Q1192 0 1178 0Q1030 0 882.5 14.5Q735 29 592 67Q464 101 358.5 169.5Q253 238 169 341Q115 407 81.5 483.0Q48 559 29.5 640.5Q11 722 5.0 806.0Q-1 890 -1 973Q-1 1259 101 1525Q150 1652 225.5 1749.5Q301 1847 399.5 1913.5Q498 1980 617.0 2014.0Q736 2048 871 2048Q939 2048 1009.0 2037.5Q1079 2027 1145.5 2004.5Q1212 1982 1273.0 1947.0Q1334 1912 1383 1863Q1438 1809 1461.5 1742.5Q1485 1676 1485 1600Q1485 1546 1493.5 1489.0Q1502 1432 1531 1384Q1549 1355 1572.0 1327.5Q1595 1300 1626 1283Q1665 1263 1709 1254Q1740 1248 1770.0 1234.0Q1800 1220 1827 1205Q1851 1192 1872.0 1173.0Q1893 1154 1912.0 1132.5Q1931 1111 1946.5 1087.5Q1962 1064 1976 1041Q1998 1004 2012.0 962.5Q2026 921 2034.0 877.5Q2042 834 2045.0 790.0Q2048 746 2048 704Q2048 678 2029.0 659.0Q2010 640 1984 640Q1958 640 1939.0 659.0Q1920 678 1920 704Q1920 769 1910.5 837.5Q1901 906 1870 964Q1852 999 1827.5 1034.0Q1803 1069 1769 1090Q1753 1100 1730.5 1112.0Q1708 1124 1690 1128Q1645 1137 1608.5 1151.5Q1572 1166 1541.0 1187.0Q1510 1208 1482.5 1236.5Q1455 1265 1430 1302Q1408 1334 1394.0 1370.5Q1380 1407 1371.5 1445.0Q1363 1483 1360.0 1522.5Q1357 1562 1357 1600Q1357 1667 1332.5 1720.0Q1308 1773 1252 1811Q1168 1869 1069.5 1894.5Q971 1920 870 1920Q745 1920 639.5 1887.0Q534 1854 449.0 1791.0Q364 1728 301.5 1636.0Q239 1544 201 1426Q178 1356 160.5 1284.0Q143 1212 137 1138Q133 1088 130.5 1038.5Q128 989 128 938Q128 766 165.0 639.5Q202 513 269.5 423.0Q337 333 432.0 275.5Q527 218 644.0 185.5Q761 153 896.0 140.5Q1031 128 1178 128Q1214 128 1250.0 128.5Q1286 129 1321 134Q1322 134 1323 134L1327 135Q1328 135 1329 135ZM2048 320Q2048 294 2029.0 275.0Q2010 256 1984 256H1792V64Q1792 38 1773.0 19.0Q1754 0 1728 0Q1702 0 1683.0 19.0Q1664 38 1664 64V256H1472Q1446 256 1427.0 275.0Q1408 294 1408 320Q1408 346 1427.0 365.0Q1446 384 1472 384H1664V576Q1664 602 1683.0 621.0Q1702 640 1728 640Q1754 640 1773.0 621.0Q1792 602 1792 576V384H1984Q2010 384 2029.0 365.0Q2048 346 2048 320Z"/>
  </g>
</svg>