<?xml version="1.0" encoding="utf-8"?>
<svg id="" width="16" height="16" style="width:16px;height:16px;" version="1.1" xmlns="http://www.w3.org/2000/svg" viewBox="0 0 2048 2048" enable-background="new 0 0 2048 2048" xml:space="preserve">
    <path fill="#ffffff" d="M1344 1136 q97 77 144.5 182.5 q47.5 105.5 47.5 227.5 q0 104 -41.5 195.5 q-41.5 91.5 -112 159.5 q-70.5 68 -163 107.5 q-92.5 39.5 -195.5 39.5 q-103 0 -195.5 -39.5 q-92.5 -39.5 -163 -107.5 q-70.5 -68 -112 -159.5 q-41.5 -91.5 -41.5 -195.5 q0 -122 47.5 -227.5 q47.5 -105.5 144.5 -182.5 l0 -823 q0 -65 26 -122 q26 -57 70 -99.5 q44 -42.5 102 -67 q58 -24.5 122 -24.5 q67 0 125 25 q58 25 101.5 68.5 q43.5 43.5 68.5 101.5 q25 58 25 125 l0 816 ZM1216 1202 l0 -882 q0 -39 -15 -74 q-15 -35 -41.5 -61.5 q-26.5 -26.5 -61.5 -41.5 q-35 -15 -74 -15 q-39 0 -74 15 q-35 15 -61.5 41.5 q-26.5 26.5 -41.5 61.5 q-15 35 -15 74 l0 882 q-46 32 -82 68 q-36 36 -60.5 77.5 q-24.5 41.5 -37 90 q-12.5 48.5 -12.5 106.5 q0 78 31 146.5 q31 68.5 84 119.5 q53 51 122.5 80.5 q69.5 29.5 146.5 29.5 q77 0 146.5 -29.5 q69.5 -29.5 122.5 -80.5 q53 -51 84 -119.5 q31 -68.5 31 -146.5 q0 -58 -12.5 -106.5 q-12.5 -48.5 -37 -90 q-24.5 -41.5 -60.5 -77.5 q-36 -36 -82 -68 ZM1280 1541 q0 52 -21 97.5 q-21 45.5 -56 79.5 q-35 34 -81.5 54 q-46.5 20 -97.5 20 q-51 0 -97.5 -20 q-46.5 -20 -81.5 -54 q-35 -34 -56 -79.5 q-21 -45.5 -21 -97.5 q0 -45 14 -85.5 q14 -40.5 39 -74 q25 -33.5 60.5 -58 q35.5 -24.5 79.5 -35.5 q-3 -12 -3 -27 q0 -11 1 -22.5 q1 -11.5 1 -22.5 q0 -26 19 -45 q19 -19 45 -19 q26 0 45 19 q19 19 19 45 q0 11 0.5 22.5 q0.5 11.5 0.5 22.5 q0 7 0 14 q0 7 -2 13 q43 11 79 35.5 q36 24.5 61 58 q25 33.5 39 74 q14 40.5 14 85.5 Z"/>
</svg>