<?xml version="1.0" encoding="utf-8"?>
<svg xmlns="http://www.w3.org/2000/svg" width="16" height="16" viewBox="0 0 2048 2048">
  <g transform="translate(0, 2048) scale(1, -1)">
    <path fill="#000000" d="M1792 673Q1792 648 1791.5 622.5Q1791 597 1787 572Q1777 506 1747.5 438.5Q1718 371 1685 314Q1643 245 1588.0 190.5Q1533 136 1465 92Q1387 41 1297.5 20.5Q1208 0 1116 0Q1090 0 1071.0 19.0Q1052 38 1052 64Q1052 90 1071.0 109.0Q1090 128 1116 128Q1201 128 1283.5 148.5Q1366 169 1434 223Q1485 263 1529.0 311.5Q1573 360 1600 420Q1615 453 1627.0 483.0Q1639 513 1647.5 543.5Q1656 574 1660.5 606.0Q1665 638 1665 674Q1665 773 1637.5 851.5Q1610 930 1558.5 987.5Q1507 1045 1432.0 1082.5Q1357 1120 1261 1137Q1225 1024 1181.0 909.5Q1137 795 1080.5 686.5Q1024 578 954.5 478.5Q885 379 799 295Q718 216 621.5 172.0Q525 128 410 128Q339 128 286.5 156.5Q234 185 199.5 232.0Q165 279 148.5 339.5Q132 400 132 464Q132 518 140.5 571.5Q149 625 163 678Q187 771 232.5 847.0Q278 923 340.0 985.0Q402 1047 478.0 1095.0Q554 1143 640 1179Q640 1359 649 1539Q542 1536 435 1536Q413 1536 391.5 1535.5Q370 1535 347 1535Q325 1535 303.0 1536.0Q281 1537 260 1539Q234 1542 216.0 1557.5Q198 1573 198 1601Q198 1626 214.0 1646.5Q230 1667 256 1667Q286 1667 316 1666L355 1665Q385 1664 415 1664Q475 1664 535.5 1665.0Q596 1666 656 1668Q660 1726 665.0 1783.5Q670 1841 675 1898Q677 1921 678.5 1944.5Q680 1968 684 1991Q689 2015 705.5 2031.0Q722 2047 748 2047Q774 2047 793.0 2028.0Q812 2009 812 1983V1977Q804 1901 797.0 1825.5Q790 1750 785 1673Q890 1678 994.0 1687.5Q1098 1697 1202 1712Q1283 1724 1360.0 1742.0Q1437 1760 1515 1786Q1528 1791 1539 1791Q1565 1791 1583.5 1772.0Q1602 1753 1602 1727Q1602 1686 1561 1667Q1516 1647 1455.0 1630.5Q1394 1614 1323.5 1601.5Q1253 1589 1178.0 1579.5Q1103 1570 1030.5 1563.0Q958 1556 892.5 1551.5Q827 1547 777 1545Q773 1464 770.5 1384.5Q768 1305 768 1224Q856 1249 944.5 1263.5Q1033 1278 1124 1278Q1135 1278 1146.5 1278.0Q1158 1278 1169 1277Q1174 1295 1178.0 1317.5Q1182 1340 1190.5 1360.0Q1199 1380 1213.0 1394.0Q1227 1408 1251 1408Q1278 1408 1297.5 1389.0Q1317 1370 1317 1343Q1317 1337 1314.5 1325.5Q1312 1314 1309.0 1301.5Q1306 1289 1302.5 1278.0Q1299 1267 1297 1261Q1414 1238 1506.0 1188.5Q1598 1139 1661.5 1065.0Q1725 991 1758.5 892.5Q1792 794 1792 673ZM1132 1150Q1130 1150 1128 1150L1122 1151Q1120 1151 1118 1151Q1030 1151 941.5 1134.5Q853 1118 770 1092Q771 1034 774.5 962.0Q778 890 786.0 815.5Q794 741 809.0 671.0Q824 601 848 548Q895 614 936.0 687.5Q977 761 1012.0 838.5Q1047 916 1077.0 994.5Q1107 1073 1132 1150ZM761 440Q726 495 704.5 572.5Q683 650 670.0 733.0Q657 816 651.0 897.0Q645 978 643 1042Q579 1012 522.0 972.5Q465 933 419.0 884.0Q373 835 339.0 775.5Q305 716 287 646Q276 601 268.0 556.0Q260 511 260 465Q260 430 267.0 393.5Q274 357 291.0 326.0Q308 295 336.0 275.5Q364 256 406 256Q460 256 509.0 270.5Q558 285 602.5 310.0Q647 335 686.5 368.5Q726 402 761 440Z"/>
  </g>
</svg>