<?xml version="1.0" encoding="utf-8"?>
<svg xmlns="http://www.w3.org/2000/svg" width="16" height="16" viewBox="0 0 2048 2048">
  <g transform="translate(0, 2048) scale(1, -1)">
    <path fill="#ffffff" d="M5 465Q5 519 13.0 572.5Q21 626 35 678Q60 771 105.0 847.5Q150 924 212.0 985.5Q274 1047 350.0 1095.0Q426 1143 512 1179Q512 1359 521 1539Q413 1536 305 1536Q286 1536 267.0 1535.5Q248 1535 228 1535Q203 1535 179.0 1536.0Q155 1537 131 1539Q106 1541 88.0 1557.5Q70 1574 70 1600Q70 1630 88.5 1647.5Q107 1665 136 1666H166Q189 1666 211 1665H241Q264 1664 286 1664Q347 1664 407.0 1665.0Q467 1666 528 1668Q532 1725 536.5 1782.5Q541 1840 546 1897Q548 1920 550.0 1944.0Q552 1968 556 1991Q561 2015 578.0 2031.0Q595 2047 620 2047Q646 2047 665.0 2028.0Q684 2009 684 1983V1977Q677 1901 670.0 1825.5Q663 1750 657 1673Q749 1678 841.5 1685.0Q934 1692 1026.5 1704.5Q1119 1717 1209.5 1736.5Q1300 1756 1387 1786Q1400 1791 1411 1791Q1437 1791 1455.5 1772.0Q1474 1753 1474 1727Q1474 1684 1433 1667Q1388 1647 1326.0 1630.5Q1264 1614 1193.5 1601.0Q1123 1588 1048.0 1578.5Q973 1569 901.0 1562.0Q829 1555 764.0 1551.0Q699 1547 649 1545Q645 1464 642.5 1384.5Q640 1305 640 1224Q728 1249 816.5 1263.5Q905 1278 996 1278Q1007 1278 1018.5 1278.0Q1030 1278 1041 1277Q1046 1295 1050.0 1317.5Q1054 1340 1062.5 1360.0Q1071 1380 1085.0 1394.0Q1099 1408 1124 1408Q1151 1408 1170.0 1389.0Q1189 1370 1189 1343Q1189 1337 1186.5 1325.5Q1184 1314 1181.0 1302.0Q1178 1290 1174.5 1279.0Q1171 1268 1169 1261Q1192 1256 1214.0 1251.0Q1236 1246 1258 1238Q1213 1217 1169.0 1207.0Q1125 1197 1075 1195Q1042 1193 1012.5 1182.5Q983 1172 957 1150Q877 1146 797.5 1131.0Q718 1116 642 1091Q643 1035 647.0 962.5Q651 890 660.0 815.0Q669 740 683.5 670.0Q698 600 720 549Q773 623 817.0 702.5Q861 782 896 866V782Q896 736 897.5 691.0Q899 646 906 601Q854 515 790.5 430.5Q727 346 649.5 279.0Q572 212 479.5 170.0Q387 128 278 128Q207 128 156.0 157.5Q105 187 71.0 234.5Q37 282 21.0 342.5Q5 403 5 465ZM1024 693V1013Q1024 1036 1039 1051Q1053 1065 1075 1067Q1109 1070 1138.0 1073.0Q1167 1076 1194.5 1081.5Q1222 1087 1249.5 1096.0Q1277 1105 1309 1120Q1367 1146 1411.5 1182.5Q1456 1219 1500 1264Q1503 1267 1507.5 1270.5Q1512 1274 1516 1276Q1524 1280 1536 1280Q1547 1280 1556 1276Q1562 1273 1564.5 1271.0Q1567 1269 1572 1264Q1612 1219 1660.5 1182.5Q1709 1146 1764 1120Q1850 1079 1947 1070Q1956 1069 1966 1068L1978 1069Q1988 1069 1997 1067Q2013 1065 2030.0 1054.0Q2047 1043 2047 1024Q2047 954 2048 885V793Q2049 724 2049 654Q2049 538 2012.5 434.0Q1976 330 1910.5 245.0Q1845 160 1753.5 98.0Q1662 36 1552 3Q1543 0 1536 0Q1527 0 1520 3Q1446 28 1379.0 63.0Q1312 98 1255.0 145.0Q1198 192 1154.0 252.5Q1110 313 1084 389Q1075 415 1064.5 456.0Q1054 497 1045.0 540.5Q1036 584 1030.0 625.0Q1024 666 1024 693ZM632 440Q598 494 576.5 570.5Q555 647 542.0 730.0Q529 813 523.0 894.5Q517 976 515 1040Q451 1010 394.5 971.0Q338 932 291.5 883.0Q245 834 211.0 775.0Q177 716 159 646Q148 601 140.5 556.5Q133 512 133 466Q133 432 139.5 395.0Q146 358 162.5 327.0Q179 296 207.0 276.0Q235 256 277 256Q330 256 379.0 270.5Q428 285 472.5 310.0Q517 335 557.0 368.5Q597 402 632 440ZM924 64Q924 95 941.0 108.5Q958 122 983.0 126.5Q1008 131 1035.5 131.0Q1063 131 1083 135Q1108 105 1136.0 78.5Q1164 52 1195 29Q1144 14 1092.5 7.0Q1041 0 988 0Q962 0 943.0 19.0Q924 38 924 64Z"/>
  </g>
</svg>