<?xml version="1.0" encoding="utf-8"?>
<svg xmlns="http://www.w3.org/2000/svg" width="16" height="16" viewBox="0 0 2048 2048">
  <g transform="translate(0, 2048) scale(1, -1)">
    <path fill="#ffffff" d="M1216 0Q1190 0 1171.0 19.0Q1152 38 1152 64Q1152 85 1159.5 97.5Q1167 110 1180.5 117.0Q1194 124 1213.0 126.5Q1232 129 1254 129Q1277 129 1303.5 127.5Q1330 126 1356 126Q1400 126 1442.0 134.0Q1484 142 1518 168Q1569 208 1586 273Q1625 420 1644.5 571.5Q1664 723 1664 875V1408H1024V1394Q1024 1264 1000.0 1134.5Q976 1005 944 879Q925 805 898.5 726.5Q872 648 837.0 569.5Q802 491 758.0 416.5Q714 342 661.5 277.0Q609 212 547.0 159.0Q485 106 413 71Q399 64 384 64Q358 64 339.0 83.0Q320 102 320 128Q320 148 329.5 161.5Q339 175 355 185Q371 195 387.0 203.5Q403 212 419 223Q488 270 541.0 332.0Q594 394 636 466Q691 559 738.5 674.5Q786 790 821.0 913.0Q856 1036 876.0 1159.5Q896 1283 896 1393V1408H448Q422 1408 403.0 1427.0Q384 1446 384 1472Q384 1498 403.0 1517.0Q422 1536 448 1536H896V1984Q896 2010 915.0 2029.0Q934 2048 960 2048Q986 2048 1005.0 2029.0Q1024 2010 1024 1984V1536H1728Q1754 1536 1773.0 1517.0Q1792 1498 1792 1472V875Q1792 714 1772.0 555.5Q1752 397 1711 242Q1697 189 1667.5 144.5Q1638 100 1597.0 68.0Q1556 36 1505.5 18.0Q1455 0 1400 0Z"/>
  </g>
</svg>