<?xml version="1.0" encoding="utf-8"?>
<svg xmlns="http://www.w3.org/2000/svg" width="16" height="16" viewBox="0 0 2048 2048">
  <g transform="translate(0, 2048) scale(1, -1)">
    <path fill="#ffffff" d="M128 64Q102 64 83.0 83.0Q64 102 64 128Q64 147 73.5 161.5Q83 176 99 185Q120 197 140.0 209.0Q160 221 180 235Q238 278 286.0 333.5Q334 389 373.5 452.0Q413 515 444.5 582.0Q476 649 502 715Q529 785 554.0 871.5Q579 958 598.0 1048.5Q617 1139 628.5 1228.0Q640 1317 640 1394V1408H192Q166 1408 147.0 1427.0Q128 1446 128 1472Q128 1498 147.0 1517.0Q166 1536 192 1536H640V1984Q640 2010 659.0 2029.0Q678 2048 704 2048Q730 2048 749.0 2029.0Q768 2010 768 1984V1536H1472Q1494 1536 1506.5 1527.5Q1519 1519 1525.5 1505.5Q1532 1492 1534.0 1475.5Q1536 1459 1536 1442V1408Q1499 1408 1466.0 1394.0Q1433 1380 1408 1353V1408H768Q768 1303 751.0 1176.5Q734 1050 700.5 918.0Q667 786 616.0 656.0Q565 526 497.0 412.5Q429 299 344.0 209.5Q259 120 157 71Q143 64 128 64ZM1024 693V1013Q1024 1036 1039 1051Q1053 1065 1075 1067Q1109 1070 1138.0 1073.0Q1167 1076 1194.5 1081.5Q1222 1087 1249.5 1096.0Q1277 1105 1309 1120Q1367 1146 1411.5 1182.5Q1456 1219 1500 1264Q1503 1267 1507.5 1270.5Q1512 1274 1516 1276Q1524 1280 1536 1280Q1547 1280 1556 1276Q1562 1273 1564.5 1271.0Q1567 1269 1572 1264Q1612 1219 1660.5 1182.5Q1709 1146 1764 1120Q1850 1079 1947 1070Q1956 1069 1966 1068L1978 1069Q1988 1069 1997 1067Q2013 1065 2030.0 1054.0Q2047 1043 2047 1024Q2047 954 2048 885V793Q2049 724 2049 654Q2049 538 2012.5 434.0Q1976 330 1910.5 245.0Q1845 160 1753.5 98.0Q1662 36 1552 3Q1543 0 1536 0Q1527 0 1520 3Q1446 28 1379.0 63.0Q1312 98 1255.0 145.0Q1198 192 1154.0 252.5Q1110 313 1084 389Q1075 415 1064.5 456.0Q1054 497 1045.0 540.5Q1036 584 1030.0 625.0Q1024 666 1024 693Z"/>
  </g>
</svg>