<?xml version="1.0" encoding="utf-8"?>
<svg xmlns="http://www.w3.org/2000/svg" width="16" height="16" viewBox="0 0 2048 2048">
  <g transform="translate(0, 2048) scale(1, -1)">
    <path fill="#ffffff" d="M205 410Q163 410 125.5 426.0Q88 442 60.5 470.0Q33 498 16.5 535.0Q0 572 0 614V1536Q0 1578 16.0 1615.5Q32 1653 60.0 1681.0Q88 1709 125.5 1725.0Q163 1741 205 1741H1843Q1885 1741 1922.5 1725.0Q1960 1709 1988.0 1681.0Q2016 1653 2032.0 1615.5Q2048 1578 2048 1536V614Q2048 572 2031.5 535.0Q2015 498 1987.5 470.0Q1960 442 1922.5 426.0Q1885 410 1843 410ZM1843 512Q1864 512 1882.5 520.0Q1901 528 1915.5 542.0Q1930 556 1938.0 574.5Q1946 593 1946 614V1536Q1946 1557 1938.0 1575.5Q1930 1594 1915.5 1608.0Q1901 1622 1882.5 1630.0Q1864 1638 1843 1638H205Q184 1638 165.5 1630.0Q147 1622 132.5 1608.0Q118 1594 110.0 1575.5Q102 1557 102 1536V614Q102 593 110.0 574.5Q118 556 132.5 542.0Q147 528 165.5 520.0Q184 512 205 512ZM358 1306Q358 1338 380.5 1360.0Q403 1382 435 1382Q467 1382 489.5 1360.0Q512 1338 512 1306Q512 1274 489.5 1251.5Q467 1229 435 1229Q403 1229 380.5 1251.5Q358 1274 358 1306ZM666 1306Q666 1338 688.0 1360.0Q710 1382 742 1382Q774 1382 796.5 1360.0Q819 1338 819 1306Q819 1274 796.5 1251.5Q774 1229 742 1229Q710 1229 688.0 1251.5Q666 1274 666 1306ZM973 1306Q973 1338 995.5 1360.0Q1018 1382 1050 1382Q1082 1382 1104.0 1360.0Q1126 1338 1126 1306Q1126 1274 1104.0 1251.5Q1082 1229 1050 1229Q1018 1229 995.5 1251.5Q973 1274 973 1306ZM1280 1306Q1280 1338 1302.5 1360.0Q1325 1382 1357 1382Q1389 1382 1411.5 1360.0Q1434 1338 1434 1306Q1434 1274 1411.5 1251.5Q1389 1229 1357 1229Q1325 1229 1302.5 1251.5Q1280 1274 1280 1306ZM1587 1306Q1587 1338 1609.5 1360.0Q1632 1382 1664 1382Q1696 1382 1718.5 1360.0Q1741 1338 1741 1306Q1741 1274 1718.5 1251.5Q1696 1229 1664 1229Q1632 1229 1609.5 1251.5Q1587 1274 1587 1306ZM563 998Q563 1030 585.5 1052.5Q608 1075 640 1075Q672 1075 694.5 1052.5Q717 1030 717 998Q717 966 694.5 944.0Q672 922 640 922Q608 922 585.5 944.0Q563 966 563 998ZM870 998Q870 1030 892.5 1052.5Q915 1075 947 1075Q979 1075 1001.5 1052.5Q1024 1030 1024 998Q1024 966 1001.5 944.0Q979 922 947 922Q915 922 892.5 944.0Q870 966 870 998ZM1178 998Q1178 1030 1200.0 1052.5Q1222 1075 1254 1075Q1286 1075 1308.5 1052.5Q1331 1030 1331 998Q1331 966 1308.5 944.0Q1286 922 1254 922Q1223 922 1200.5 944.5Q1178 967 1178 998ZM1485 998Q1485 1030 1507.5 1052.5Q1530 1075 1562 1075Q1594 1075 1616.0 1052.5Q1638 1030 1638 998Q1638 966 1616.0 944.0Q1594 922 1562 922Q1530 922 1507.5 944.0Q1485 966 1485 998ZM461 614Q439 614 424.5 629.5Q410 645 410 666Q410 687 425.0 702.0Q440 717 461 717H1587Q1608 717 1623.0 702.0Q1638 687 1638 666Q1638 644 1623.5 629.0Q1609 614 1587 614Z"/>
  </g>
</svg>