<?xml version="1.0" encoding="utf-8"?>
<svg xmlns="http://www.w3.org/2000/svg" width="16" height="16" viewBox="0 0 2048 2048">
  <g transform="translate(0, 2048) scale(1, -1)">
    <path fill="#000000" d="M1625 640H424L121 35Q113 19 97.0 9.5Q81 0 64 0Q38 0 19.0 19.0Q0 38 0 64Q0 79 7 93L967 2013Q975 2029 991.0 2037.0Q1007 2045 1024 2045Q1043 2045 1058.0 2037.5Q1073 2030 1081 2013L2041 93Q2048 79 2048 64Q2048 38 2029.0 19.0Q2010 0 1984 0Q1967 0 1951.0 9.5Q1935 19 1927 35ZM1024 1841 488 768H1561Z"/>
  </g>
</svg>