<?xml version="1.0" encoding="utf-8"?>
<svg id="" width="16" height="16" style="width:16px;height:16px;" version="1.1" xmlns="http://www.w3.org/2000/svg" viewBox="0 0 2048 2048" enable-background="new 0 0 2048 2048" xml:space="preserve">
    <path fill="#000" d="M1974.86 0 q29.71 0 51.42 21.71 q21.72 21.71 21.72 51.42 l0 877.72 q0 29.71 -21.72 51.43 q-21.71 21.71 -51.42 21.71 q-29.72 0 -51.43 -21.71 q-21.72 -21.72 -21.72 -51.43 l0 -701.72 l-1652.57 1652.57 l701.72 0 q29.71 0 51.43 21.72 q21.71 21.71 21.71 51.43 q0 29.71 -21.71 51.42 q-21.72 21.72 -51.43 21.72 l-878.86 0 q-29.71 0 -50.86 -21.72 q-21.14 -21.71 -21.14 -51.42 l0 -877.72 q0 -29.71 21.71 -51.42 q21.71 -21.72 51.42 -21.72 q29.72 0 51.43 21.72 q21.72 21.71 21.72 51.42 l0 701.72 l1652.57 -1652.57 l-701.72 0 q-29.71 0 -51.42 -21.72 q-21.72 -21.71 -21.72 -51.43 q0 -29.71 21.72 -51.42 q21.71 -21.71 51.42 -21.71 l877.72 0 Z"/>
</svg>