<?xml version="1.0" encoding="utf-8"?>
<svg xmlns="http://www.w3.org/2000/svg" width="16" height="16" viewBox="0 0 2048 2048">
  <g transform="translate(0, 2048) scale(1, -1)">
    <path fill="#ffffff" d="M896 768Q896 736 896.5 704.0Q897 672 901 640H424L121 35Q113 19 97.0 9.5Q81 0 64 0Q38 0 19.0 19.0Q0 38 0 64Q0 79 7 93L967 2013Q975 2029 991.0 2038.5Q1007 2048 1024 2048Q1041 2048 1057.0 2038.5Q1073 2029 1081 2013L1410 1355Q1385 1332 1363.0 1309.0Q1341 1286 1311 1268L1024 1841L488 768ZM2049 654Q2049 538 2012.5 434.0Q1976 330 1910.5 245.0Q1845 160 1753.5 98.0Q1662 36 1552 3Q1543 0 1536 0Q1527 0 1520 3Q1446 28 1379.0 63.0Q1312 98 1255.0 145.0Q1198 192 1154.0 252.5Q1110 313 1084 389Q1075 415 1064.5 456.0Q1054 497 1045.0 540.5Q1036 584 1030.0 625.0Q1024 666 1024 693V1013Q1024 1036 1039 1051Q1053 1065 1075 1067Q1109 1070 1138.0 1073.0Q1167 1076 1194.5 1081.5Q1222 1087 1249.5 1096.0Q1277 1105 1309 1120Q1367 1146 1411.5 1182.5Q1456 1219 1500 1264Q1503 1267 1507.5 1270.5Q1512 1274 1516 1276Q1524 1280 1536 1280Q1547 1280 1556 1276Q1562 1273 1564.5 1271.0Q1567 1269 1572 1264Q1612 1219 1660.5 1182.5Q1709 1146 1764 1120Q1850 1079 1947 1070Q1956 1069 1966 1068L1978 1069Q1988 1069 1997 1067Q2013 1065 2030.0 1054.0Q2047 1043 2047 1024Q2047 954 2048 885V793Q2049 724 2049 654Z"/>
  </g>
</svg>