<?xml version="1.0" encoding="utf-8"?>
<svg xmlns="http://www.w3.org/2000/svg" width="16" height="16" viewBox="0 0 2048 2048">
  <g transform="translate(0, 2048) scale(1, -1)">
    <path fill="#ffffff" d="M1728 1920Q1767 1920 1802.0 1905.0Q1837 1890 1863.5 1863.5Q1890 1837 1905.0 1802.0Q1920 1767 1920 1728V832Q1920 793 1905.0 758.0Q1890 723 1863.5 696.5Q1837 670 1802.0 655.0Q1767 640 1728 640H1536V320Q1536 281 1521.0 246.0Q1506 211 1479.5 184.5Q1453 158 1418.0 143.0Q1383 128 1344 128H320Q281 128 246.0 143.0Q211 158 184.5 184.5Q158 211 143.0 246.0Q128 281 128 320V1344Q128 1383 143.0 1418.0Q158 1453 184.5 1479.5Q211 1506 246.0 1521.0Q281 1536 320 1536H640V1728Q640 1767 655.0 1802.0Q670 1837 696.5 1863.5Q723 1890 758.0 1905.0Q793 1920 832 1920ZM1792 1728Q1792 1754 1773.0 1773.0Q1754 1792 1728 1792H832Q806 1792 787.0 1773.0Q768 1754 768 1728V1536H1344Q1383 1536 1418.0 1521.0Q1453 1506 1479.5 1479.5Q1506 1453 1521.0 1418.0Q1536 1383 1536 1344V768H1728Q1754 768 1773.0 787.0Q1792 806 1792 832ZM1408 1344Q1408 1370 1389.0 1389.0Q1370 1408 1344 1408H320Q294 1408 275.0 1389.0Q256 1370 256 1344V320Q256 294 275.0 275.0Q294 256 320 256H1344Q1370 256 1389.0 275.0Q1408 294 1408 320ZM768 1216Q768 1190 749.0 1171.0Q730 1152 704 1152Q678 1152 659.0 1171.0Q640 1190 640 1216Q640 1242 659.0 1261.0Q678 1280 704 1280Q730 1280 749.0 1261.0Q768 1242 768 1216ZM768 960Q768 934 749.0 915.0Q730 896 704 896Q678 896 659.0 915.0Q640 934 640 960Q640 986 659.0 1005.0Q678 1024 704 1024Q730 1024 749.0 1005.0Q768 986 768 960ZM1024 704Q1024 678 1005.0 659.0Q986 640 960 640Q934 640 915.0 659.0Q896 678 896 704Q896 730 915.0 749.0Q934 768 960 768Q986 768 1005.0 749.0Q1024 730 1024 704ZM1280 704Q1280 678 1261.0 659.0Q1242 640 1216 640Q1190 640 1171.0 659.0Q1152 678 1152 704Q1152 730 1171.0 749.0Q1190 768 1216 768Q1242 768 1261.0 749.0Q1280 730 1280 704Z"/>
  </g>
</svg>