<?xml version="1.0" encoding="utf-8"?>
<svg xmlns="http://www.w3.org/2000/svg" width="16" height="16" viewBox="0 0 2048 2048">
  <g transform="translate(0, 2048) scale(1, -1)">
    <path fill="#ffffff" d="M192 512Q153 512 118.0 527.0Q83 542 56.5 568.5Q30 595 15.0 630.0Q0 665 0 704V1472Q0 1511 15.0 1546.0Q30 1581 56.5 1607.5Q83 1634 118.0 1649.0Q153 1664 192 1664H1856Q1895 1664 1930.0 1649.0Q1965 1634 1991.5 1607.5Q2018 1581 2033.0 1546.0Q2048 1511 2048 1472V704Q2048 665 2033.0 630.0Q2018 595 1991.5 568.5Q1965 542 1930.0 527.0Q1895 512 1856 512ZM1856 640Q1882 640 1901.0 659.0Q1920 678 1920 704V1472Q1920 1498 1901.0 1517.0Q1882 1536 1856 1536H192Q166 1536 147.0 1517.0Q128 1498 128 1472V704Q128 678 147.0 659.0Q166 640 192 640ZM448 1280Q422 1280 403.0 1299.0Q384 1318 384 1344Q384 1370 403.0 1389.0Q422 1408 448 1408H1600Q1626 1408 1645.0 1389.0Q1664 1370 1664 1344Q1664 1318 1645.0 1299.0Q1626 1280 1600 1280ZM256 832Q256 858 275.0 877.0Q294 896 320 896Q346 896 365.0 877.0Q384 858 384 832Q384 806 365.0 787.0Q346 768 320 768Q294 768 275.0 787.0Q256 806 256 832ZM512 832Q512 858 531.0 877.0Q550 896 576 896Q602 896 621.0 877.0Q640 858 640 832Q640 806 621.0 787.0Q602 768 576 768Q550 768 531.0 787.0Q512 806 512 832Z"/>
  </g>
</svg>