<?xml version="1.0" encoding="utf-8"?>
<svg id="" width="16" height="16" style="width:16px;height:16px;" version="1.1" xmlns="http://www.w3.org/2000/svg" viewBox="0 0 2048 2048" enable-background="new 0 0 2048 2048" xml:space="preserve">
    <path fill="#ffffff" transform="translate(0, 300)" d="M1344 0 q97 0 187 25 q90 25 168 71 q78 46 142.5 110.5 q64.5 64.5 110.5 142.5 q46 78 71 168 q25 90 25 187 q0 97 -25 187 q-25 90 -71 168 q-46 78 -110.5 142.5 q-64.5 64.5 -142.5 110.5 q-78 46 -168 71 q-90 25 -187 25 l-640 0 q-97 0 -187 -25 q-90 -25 -168 -71 q-78 -46 -142.5 -110.5 q-64.5 -64.5 -110.5 -142.5 q-46 -78 -71 -168 q-25 -90 -25 -187 q0 -97 25 -187 q25 -90 71 -168 q46 -78 110.5 -142.5 q64.5 -64.5 142.5 -110.5 q78 -46 168 -71 q90 -25 187 -25 l640 0 ZM1344 1280 q119 0 224 -45.5 q105 -45.5 183 -123.5 q78 -78 123.5 -183 q45.5 -105 45.5 -224 q0 -79 -20.5 -152.5 q-20.5 -73.5 -58 -137.5 q-37.5 -64 -90.5 -117 q-53 -53 -117 -90.5 q-64 -37.5 -137.5 -58 q-73.5 -20.5 -152.5 -20.5 l-640 0 q-119 0 -224 45.5 q-105 45.5 -183 123.5 q-78 78 -123.5 183 q-45.5 105 -45.5 224 q0 120 45 225 q45 105 123 183 q78 78 183 123 q105 45 225 45 l640 0 ZM896 704 q0 26 -19 45 q-19 19 -45 19 l-192 0 l0 192 q0 26 -19 45 q-19 19 -45 19 q-26 0 -45 -19 q-19 -19 -19 -45 l0 -192 l-192 0 q-26 0 -45 -19 q-19 -19 -19 -45 q0 -26 19 -45 q19 -19 45 -19 l192 0 l0 -192 q0 -26 19 -45 q19 -19 45 -19 q26 0 45 19 q19 19 19 45 l0 192 l192 0 q26 0 45 19 q19 19 19 45 ZM1664 512 q0 27 -10 50 q-10 23 -27.5 40.5 q-17.5 17.5 -40.5 27.5 q-23 10 -50 10 q-27 0 -50.5 -10 q-23.5 -10 -40.5 -27 q-17 -17 -27 -40.5 q-10 -23.5 -10 -50.5 q0 -27 10 -50 q10 -23 27.5 -40.5 q17.5 -17.5 40.5 -27.5 q23 -10 50 -10 q26 0 49.5 10 q23.5 10 41 27.5 q17.5 17.5 27.5 41 q10 23.5 10 49.5 ZM1408 896 q0 27 -10 50 q-10 23 -27.5 40.5 q-17.5 17.5 -40.5 27.5 q-23 10 -50 10 q-27 0 -50.5 -10 q-23.5 -10 -40.5 -27 q-17 -17 -27 -40.5 q-10 -23.5 -10 -50.5 q0 -27 10 -50 q10 -23 27.5 -40.5 q17.5 -17.5 40.5 -27.5 q23 -10 50 -10 q26 0 49.5 10 q23.5 10 41 27.5 q17.5 17.5 27.5 41 q10 23.5 10 49.5 Z"/>
</svg>