<?xml version="1.0" encoding="utf-8"?>
<svg xmlns="http://www.w3.org/2000/svg" width="16" height="16" viewBox="0 0 2048 2048">
  <g transform="translate(0, 2048) scale(1, -1)">
    <path fill="#000000" d="M1920 1088Q1920 1062 1901.0 1043.0Q1882 1024 1856 1024Q1830 1024 1811.0 1043.0Q1792 1062 1792 1088Q1792 1200 1764.5 1304.0Q1737 1408 1680 1505Q1623 1602 1545.5 1679.0Q1468 1756 1375.5 1809.5Q1283 1863 1177.5 1891.5Q1072 1920 960 1920Q847 1920 742.0 1891.5Q637 1863 544.5 1809.5Q452 1756 374.5 1679.0Q297 1602 240 1505Q183 1408 155.5 1304.0Q128 1200 128 1088Q128 1062 109.0 1043.0Q90 1024 64 1024Q38 1024 19.0 1043.0Q0 1062 0 1088Q0 1220 34.5 1342.5Q69 1465 131.5 1572.0Q194 1679 281.5 1766.5Q369 1854 476.0 1916.5Q583 1979 705.5 2013.5Q828 2048 960 2048Q1092 2048 1214.5 2013.5Q1337 1979 1443.5 1916.5Q1550 1854 1638.0 1766.0Q1726 1678 1788.5 1571.5Q1851 1465 1885.5 1342.5Q1920 1220 1920 1088ZM384 1024Q358 1024 339.0 1043.0Q320 1062 320 1088Q320 1221 370.0 1337.5Q420 1454 507.0 1541.0Q594 1628 710.5 1678.0Q827 1728 960 1728Q1093 1728 1209.5 1678.0Q1326 1628 1413.0 1541.0Q1500 1454 1550.0 1337.5Q1600 1221 1600 1088Q1600 1062 1581.0 1043.0Q1562 1024 1536 1024Q1503 1024 1487.5 1046.5Q1472 1069 1472 1098Q1472 1202 1430.5 1293.5Q1389 1385 1318.5 1453.0Q1248 1521 1155.5 1560.5Q1063 1600 960 1600Q854 1600 760.5 1560.0Q667 1520 597.5 1450.5Q528 1381 488.0 1287.5Q448 1194 448 1088Q448 1062 429.0 1043.0Q410 1024 384 1024ZM1479 640Q1544 640 1601.0 614.0Q1658 588 1700.5 544.0Q1743 500 1767.5 442.0Q1792 384 1792 320Q1792 256 1767.5 198.0Q1743 140 1700.5 96.0Q1658 52 1601.0 26.0Q1544 0 1479 0H441Q376 0 319.0 26.0Q262 52 219.5 96.0Q177 140 152.5 198.0Q128 256 128 320Q128 387 153.0 445.0Q178 503 221.5 546.5Q265 590 323.0 615.0Q381 640 448 640H896V774Q839 786 791.5 816.0Q744 846 710.5 888.5Q677 931 658.5 984.0Q640 1037 640 1095Q640 1160 666.0 1217.0Q692 1274 736.0 1316.5Q780 1359 838.0 1383.5Q896 1408 960 1408Q1024 1408 1082.0 1383.5Q1140 1359 1184.0 1316.5Q1228 1274 1254.0 1217.0Q1280 1160 1280 1095Q1280 1037 1261.5 984.0Q1243 931 1209.5 888.5Q1176 846 1128.5 816.0Q1081 786 1024 774V640ZM960 896Q999 896 1034.0 911.0Q1069 926 1095.5 952.5Q1122 979 1137.0 1014.0Q1152 1049 1152 1088Q1152 1127 1137.0 1162.0Q1122 1197 1095.5 1223.5Q1069 1250 1034.0 1265.0Q999 1280 960 1280Q921 1280 886.0 1265.0Q851 1250 824.5 1223.5Q798 1197 783.0 1162.0Q768 1127 768 1088Q768 1049 783.0 1014.0Q798 979 824.5 952.5Q851 926 886.0 911.0Q921 896 960 896ZM1472 128Q1511 128 1546.0 143.0Q1581 158 1607.5 184.5Q1634 211 1649.0 246.0Q1664 281 1664 320Q1664 359 1649.0 394.0Q1634 429 1607.5 455.5Q1581 482 1546.0 497.0Q1511 512 1472 512H448Q409 512 374.0 497.0Q339 482 312.5 455.5Q286 429 271.0 394.0Q256 359 256 320Q256 281 271.0 246.0Q286 211 312.5 184.5Q339 158 374.0 143.0Q409 128 448 128Z"/>
  </g>
</svg>