<?xml version="1.0" encoding="utf-8"?>
<svg xmlns="http://www.w3.org/2000/svg" width="16" height="16" viewBox="0 0 2048 2048">
  <g transform="translate(0, 2048) scale(1, -1)">
    <path fill="#000000" d="M192 1280Q166 1280 147.0 1299.0Q128 1318 128 1344V1536Q128 1615 158.0 1685.0Q188 1755 240.5 1807.5Q293 1860 362.5 1890.0Q432 1920 512 1920H704Q730 1920 749.0 1901.0Q768 1882 768 1856Q768 1830 749.0 1811.0Q730 1792 704 1792H512Q459 1792 412.5 1772.0Q366 1752 331.0 1717.0Q296 1682 276.0 1635.5Q256 1589 256 1536V1344Q256 1318 237.0 1299.0Q218 1280 192 1280ZM1536 1920Q1615 1920 1685.0 1890.0Q1755 1860 1807.5 1807.5Q1860 1755 1890.0 1685.0Q1920 1615 1920 1536V1344Q1920 1318 1901.0 1299.0Q1882 1280 1856 1280Q1830 1280 1811.0 1299.0Q1792 1318 1792 1344V1536Q1792 1589 1772.0 1635.5Q1752 1682 1717.0 1717.0Q1682 1752 1635.5 1772.0Q1589 1792 1536 1792H1344Q1318 1792 1299.0 1811.0Q1280 1830 1280 1856Q1280 1882 1299.0 1901.0Q1318 1920 1344 1920ZM384 1344Q384 1370 403.0 1389.0Q422 1408 448 1408Q474 1408 493.0 1389.0Q512 1370 512 1344V704Q512 678 493.0 659.0Q474 640 448 640Q422 640 403.0 659.0Q384 678 384 704ZM832 1408Q858 1408 877.0 1389.0Q896 1370 896 1344V704Q896 678 877.0 659.0Q858 640 832 640Q806 640 787.0 659.0Q768 678 768 704V1344Q768 1370 787.0 1389.0Q806 1408 832 1408ZM1280 704Q1280 678 1261.0 659.0Q1242 640 1216 640Q1190 640 1171.0 659.0Q1152 678 1152 704V1344Q1152 1370 1171.0 1389.0Q1190 1408 1216 1408Q1242 1408 1261.0 1389.0Q1280 1370 1280 1344ZM1664 704Q1664 678 1645.0 659.0Q1626 640 1600 640Q1574 640 1555.0 659.0Q1536 678 1536 704V1344Q1536 1370 1555.0 1389.0Q1574 1408 1600 1408Q1626 1408 1645.0 1389.0Q1664 1370 1664 1344ZM1856 768Q1882 768 1901.0 749.0Q1920 730 1920 704V512Q1920 432 1890.0 362.5Q1860 293 1807.5 240.5Q1755 188 1685.0 158.0Q1615 128 1536 128H1344Q1318 128 1299.0 147.0Q1280 166 1280 192Q1280 218 1299.0 237.0Q1318 256 1344 256H1536Q1589 256 1635.5 276.0Q1682 296 1717.0 331.0Q1752 366 1772.0 412.5Q1792 459 1792 512V704Q1792 730 1811.0 749.0Q1830 768 1856 768ZM192 768Q218 768 237.0 749.0Q256 730 256 704V512Q256 459 276.0 412.5Q296 366 331.0 331.0Q366 296 412.5 276.0Q459 256 512 256H704Q730 256 749.0 237.0Q768 218 768 192Q768 166 749.0 147.0Q730 128 704 128H512Q432 128 362.5 158.0Q293 188 240.5 240.5Q188 293 158.0 362.5Q128 432 128 512V704Q128 730 147.0 749.0Q166 768 192 768Z"/>
  </g>
</svg>