<?xml version="1.0" encoding="utf-8"?>
<svg xmlns="http://www.w3.org/2000/svg" width="16" height="16" viewBox="0 0 2048 2048">
  <g transform="translate(0, 2048) scale(1, -1)">
    <path fill="#000000" d="M1544 1920Q1619 1920 1687.5 1889.5Q1756 1859 1807.5 1807.5Q1859 1756 1889.5 1687.5Q1920 1619 1920 1544V504Q1920 429 1889.5 360.5Q1859 292 1807.5 240.5Q1756 189 1687.5 158.5Q1619 128 1544 128H504Q429 128 360.5 158.5Q292 189 240.5 240.5Q189 292 158.5 360.5Q128 429 128 504V1544Q128 1619 158.5 1687.5Q189 1756 240.5 1807.5Q292 1859 360.5 1889.5Q429 1920 504 1920ZM507 1792Q457 1792 411.5 1771.5Q366 1751 331.5 1716.5Q297 1682 276.5 1636.5Q256 1591 256 1541V1536H1792V1541Q1792 1591 1771.5 1636.5Q1751 1682 1716.5 1716.5Q1682 1751 1636.5 1771.5Q1591 1792 1541 1792ZM1541 256Q1591 256 1636.5 276.5Q1682 297 1716.5 331.5Q1751 366 1771.5 411.5Q1792 457 1792 507V1408H256V507Q256 457 276.5 411.5Q297 366 331.5 331.5Q366 297 411.5 276.5Q457 256 507 256ZM832 1152Q858 1152 877.0 1133.0Q896 1114 896 1088V576Q896 550 877.0 531.0Q858 512 832 512H448Q422 512 403.0 531.0Q384 550 384 576V1088Q384 1114 403.0 1133.0Q422 1152 448 1152ZM1600 1152Q1626 1152 1645.0 1133.0Q1664 1114 1664 1088Q1664 1062 1645.0 1043.0Q1626 1024 1600 1024H1088Q1062 1024 1043.0 1043.0Q1024 1062 1024 1088Q1024 1114 1043.0 1133.0Q1062 1152 1088 1152ZM512 640H768V1024H512ZM1472 896Q1498 896 1517.0 877.0Q1536 858 1536 832Q1536 806 1517.0 787.0Q1498 768 1472 768H1088Q1062 768 1043.0 787.0Q1024 806 1024 832Q1024 858 1043.0 877.0Q1062 896 1088 896Z"/>
  </g>
</svg>