<?xml version="1.0" encoding="utf-8"?>
<svg xmlns="http://www.w3.org/2000/svg" width="16" height="16" viewBox="0 0 2048 2048">
  <g transform="translate(0, 2048) scale(1, -1)">
    <path fill="#000000" d="M376 256Q301 256 232.5 286.5Q164 317 112.5 368.5Q61 420 30.5 488.5Q0 557 0 632V1416Q0 1491 30.5 1559.5Q61 1628 112.5 1679.5Q164 1731 232.5 1761.5Q301 1792 376 1792H1672Q1747 1792 1815.5 1761.5Q1884 1731 1935.5 1679.5Q1987 1628 2017.5 1559.5Q2048 1491 2048 1416V632Q2048 557 2017.5 488.5Q1987 420 1935.5 368.5Q1884 317 1815.5 286.5Q1747 256 1672 256ZM1669 384Q1719 384 1764.5 404.5Q1810 425 1844.5 459.5Q1879 494 1899.5 539.5Q1920 585 1920 635V1413Q1920 1463 1899.5 1508.5Q1879 1554 1844.5 1588.5Q1810 1623 1764.5 1643.5Q1719 1664 1669 1664H379Q329 1664 283.5 1643.5Q238 1623 203.5 1588.5Q169 1554 148.5 1508.5Q128 1463 128 1413V635Q128 585 148.5 539.5Q169 494 203.5 459.5Q238 425 283.5 404.5Q329 384 379 384ZM256 1030Q256 1106 283.0 1174.5Q310 1243 358.0 1295.0Q406 1347 472.0 1377.5Q538 1408 616 1408Q631 1408 655.0 1407.0Q679 1406 706.0 1402.5Q733 1399 761.0 1392.5Q789 1386 811.0 1375.0Q833 1364 847.0 1348.5Q861 1333 861 1312Q861 1284 840.0 1266.0Q819 1248 792 1248Q776 1248 761 1255Q727 1270 692.5 1275.0Q658 1280 621 1280Q568 1280 525.5 1258.5Q483 1237 454.0 1201.5Q425 1166 409.5 1120.0Q394 1074 394 1024Q394 978 410.0 932.0Q426 886 455.0 849.5Q484 813 525.5 790.5Q567 768 617 768Q637 768 661.5 773.5Q686 779 707.5 791.0Q729 803 743.5 821.0Q758 839 758 864V960H746Q729 960 710.5 961.5Q692 963 676.0 969.0Q660 975 650.0 988.0Q640 1001 640 1024Q640 1053 661.0 1070.5Q682 1088 709 1088H827Q853 1088 874.5 1070.0Q896 1052 896 1024V864Q896 811 870.5 769.5Q845 728 805.5 699.5Q766 671 717.0 655.5Q668 640 621 640Q544 640 477.5 670.5Q411 701 362.0 753.0Q313 805 284.5 873.5Q256 942 256 1017ZM1088 704V1344Q1088 1370 1107.0 1389.0Q1126 1408 1152 1408Q1178 1408 1197.0 1389.0Q1216 1370 1216 1344V704Q1216 678 1197.0 659.0Q1178 640 1152 640Q1126 640 1107.0 659.0Q1088 678 1088 704ZM1408 704V1344Q1408 1370 1427.0 1389.0Q1446 1408 1472 1408H1728Q1754 1408 1773.0 1389.0Q1792 1370 1792 1344Q1792 1318 1773.0 1299.0Q1754 1280 1728 1280H1536V1024H1728Q1754 1024 1773.0 1005.0Q1792 986 1792 960Q1792 934 1773.0 915.0Q1754 896 1728 896H1536V704Q1536 678 1517.0 659.0Q1498 640 1472 640Q1446 640 1427.0 659.0Q1408 678 1408 704Z"/>
  </g>
</svg>