<?xml version="1.0" encoding="utf-8"?>
<svg xmlns="http://www.w3.org/2000/svg" width="16" height="16" viewBox="0 0 2048 2048">
  <g transform="translate(0, 2048) scale(1, -1)">
    <path fill="#000000" d="M1152 1728Q1152 1758 1164.0 1775.5Q1176 1793 1195.0 1804.0Q1214 1815 1237.5 1824.0Q1261 1833 1285.0 1846.5Q1309 1860 1331.0 1882.0Q1353 1904 1368 1942L1387 1990Q1398 2016 1421.5 2029.5Q1445 2043 1472 2043Q1500 2043 1523.5 2029.0Q1547 2015 1558 1989L1576 1942Q1590 1905 1611.5 1883.5Q1633 1862 1657.0 1848.5Q1681 1835 1705.0 1825.5Q1729 1816 1748.5 1804.5Q1768 1793 1780.0 1775.5Q1792 1758 1792 1728Q1792 1700 1776.0 1677.0Q1760 1654 1734 1643L1686 1624Q1648 1609 1626.5 1587.0Q1605 1565 1591.0 1541.0Q1577 1517 1568.5 1493.5Q1560 1470 1548.5 1451.0Q1537 1432 1519.5 1420.0Q1502 1408 1472 1408Q1444 1408 1421.0 1424.0Q1398 1440 1387 1466Q1375 1494 1365.0 1518.0Q1355 1542 1341.5 1561.5Q1328 1581 1308.5 1596.5Q1289 1612 1258 1624Q1239 1632 1220.0 1639.5Q1201 1647 1186.0 1658.5Q1171 1670 1161.5 1686.5Q1152 1703 1152 1728ZM16 1728Q16 1748 30.0 1762.0Q44 1776 64 1776Q80 1776 93.5 1783.5Q107 1791 118 1802Q133 1817 138.0 1835.0Q143 1853 147.5 1868.5Q152 1884 160.5 1894.0Q169 1904 192 1904Q212 1904 226.0 1890.0Q240 1876 240 1856Q240 1840 247.5 1826.5Q255 1813 266 1802Q281 1787 299.0 1782.0Q317 1777 332.5 1772.5Q348 1768 358.0 1759.5Q368 1751 368 1728Q368 1708 354.0 1694.0Q340 1680 320 1680Q304 1680 290.5 1672.5Q277 1665 266 1654Q251 1639 246.0 1621.0Q241 1603 236.5 1587.5Q232 1572 223.5 1562.0Q215 1552 192 1552Q173 1552 158.5 1566.5Q144 1581 144 1600Q144 1614 137.0 1628.5Q130 1643 118.5 1654.5Q107 1666 92.5 1673.0Q78 1680 64 1680Q45 1680 30.5 1694.5Q16 1709 16 1728ZM1606 1728Q1563 1750 1528.5 1784.5Q1494 1819 1472 1862Q1424 1776 1338 1728Q1381 1706 1415.0 1671.0Q1449 1636 1472 1594Q1494 1637 1528.5 1671.5Q1563 1706 1606 1728ZM631 834Q631 855 642.5 870.0Q654 885 672 893Q743 926 807.0 968.5Q871 1011 919.0 1066.5Q967 1122 995.5 1190.5Q1024 1259 1024 1344Q1024 1393 1014.5 1449.0Q1005 1505 982.0 1553.0Q959 1601 918.5 1632.5Q878 1664 817 1664Q779 1664 747.0 1656.5Q715 1649 691.0 1632.0Q667 1615 653.5 1587.0Q640 1559 640 1517Q640 1499 646.0 1479.5Q652 1460 663.5 1444.5Q675 1429 691.5 1418.5Q708 1408 729 1408Q758 1408 773.0 1419.0Q788 1430 799.5 1443.5Q811 1457 823.5 1468.5Q836 1480 860 1480Q887 1480 905.5 1461.0Q924 1442 924 1416Q924 1405 920.0 1395.0Q916 1385 910 1376Q878 1329 830.5 1304.5Q783 1280 726 1280Q681 1280 642.0 1300.0Q603 1320 574.0 1352.5Q545 1385 528.5 1426.0Q512 1467 512 1510Q512 1579 535.0 1631.5Q558 1684 598.5 1720.0Q639 1756 695.0 1774.0Q751 1792 817 1792Q877 1792 925.0 1774.0Q973 1756 1010.5 1724.0Q1048 1692 1074.5 1649.5Q1101 1607 1118.5 1558.0Q1136 1509 1144.0 1456.5Q1152 1404 1152 1352Q1152 1270 1134.0 1195.5Q1116 1121 1068 1052Q1031 998 986.0 950.5Q941 903 887 867Q875 859 848.5 842.5Q822 826 793.0 810.0Q764 794 737.0 782.0Q710 770 696 770Q669 770 650.0 788.5Q631 807 631 834ZM1680 1344Q1680 1364 1694.0 1378.0Q1708 1392 1728 1392Q1744 1392 1757.5 1399.5Q1771 1407 1782 1418Q1797 1433 1802.0 1451.0Q1807 1469 1811.5 1484.5Q1816 1500 1824.5 1510.0Q1833 1520 1856 1520Q1876 1520 1890.0 1506.0Q1904 1492 1904 1472Q1904 1456 1911.5 1442.5Q1919 1429 1930 1418Q1945 1403 1963.0 1398.0Q1981 1393 1996.5 1388.5Q2012 1384 2022.0 1375.5Q2032 1367 2032 1344Q2032 1324 2018.0 1310.0Q2004 1296 1984 1296Q1968 1296 1954.5 1288.5Q1941 1281 1930 1270Q1915 1255 1910.0 1237.0Q1905 1219 1900.5 1203.5Q1896 1188 1887.5 1178.0Q1879 1168 1856 1168Q1837 1168 1822.5 1182.5Q1808 1197 1808 1216Q1808 1230 1801.0 1244.5Q1794 1259 1782.5 1270.5Q1771 1282 1756.5 1289.0Q1742 1296 1728 1296Q1709 1296 1694.5 1310.5Q1680 1325 1680 1344ZM569 0Q504 0 447.0 26.0Q390 52 347.5 96.0Q305 140 280.5 198.0Q256 256 256 320V933L109 787Q90 768 64 768Q38 768 19.0 787.0Q0 806 0 832Q0 858 19 877L275 1133Q294 1152 320 1152H822Q749 1071 651 1024H384V320Q384 281 399.0 246.0Q414 211 440.5 184.5Q467 158 502.0 143.0Q537 128 576 128H1472Q1511 128 1546.0 143.0Q1581 158 1607.5 184.5Q1634 211 1649.0 246.0Q1664 281 1664 320V1024H1198Q1215 1054 1228.5 1086.5Q1242 1119 1252 1152H1728Q1754 1152 1773 1133L2029 877Q2048 858 2048 832Q2048 806 2029.0 787.0Q2010 768 1984 768Q1958 768 1939 787L1792 933V313Q1792 250 1766.5 193.0Q1741 136 1698.5 93.5Q1656 51 1599.0 25.5Q1542 0 1479 0Z"/>
  </g>
</svg>