<?xml version="1.0" encoding="utf-8"?>
<svg xmlns="http://www.w3.org/2000/svg" width="16" height="16" viewBox="0 0 2048 2048">
  <g transform="translate(0, 2048) scale(1, -1)">
    <path fill="#000000" d="M1923 1087Q1923 1065 1914.5 1052.0Q1906 1039 1892.5 1032.5Q1879 1026 1862.5 1024.0Q1846 1022 1829 1022Q1818 1022 1808.0 1022.5Q1798 1023 1789 1023Q1781 921 1749.5 827.5Q1718 734 1667.0 651.5Q1616 569 1547.0 500.5Q1478 432 1395.5 381.0Q1313 330 1219.0 299.0Q1125 268 1024 260V128H1216Q1242 128 1261.0 109.0Q1280 90 1280 64Q1280 38 1261.0 19.0Q1242 0 1216 0H704Q678 0 659.0 19.0Q640 38 640 64Q640 90 659.0 109.0Q678 128 704 128H896V260Q794 268 700.5 299.0Q607 330 524.5 381.0Q442 432 373.0 500.5Q304 569 253.0 651.5Q202 734 170.5 828.0Q139 922 131 1023Q123 1023 113.5 1022.5Q104 1022 93 1022Q76 1022 59.5 1024.0Q43 1026 29.5 1032.5Q16 1039 8.0 1052.0Q0 1065 0 1087Q0 1109 8.5 1121.5Q17 1134 30.5 1140.5Q44 1147 61.0 1149.0Q78 1151 95 1151H130Q138 1253 169.0 1347.5Q200 1442 251.0 1525.0Q302 1608 371.0 1677.0Q440 1746 522.5 1797.5Q605 1849 699.0 1880.5Q793 1912 896 1920Q896 1928 895.5 1936.5Q895 1945 895 1954Q895 1971 897.0 1987.5Q899 2004 905.5 2017.5Q912 2031 925.0 2039.5Q938 2048 960 2048Q982 2048 994.5 2039.5Q1007 2031 1013.5 2017.5Q1020 2004 1022.0 1987.5Q1024 1971 1024 1954V1920Q1126 1912 1220.5 1880.5Q1315 1849 1397.5 1797.5Q1480 1746 1549.0 1677.0Q1618 1608 1669.0 1525.0Q1720 1442 1751.0 1347.5Q1782 1253 1790 1151H1828Q1845 1151 1862.0 1149.0Q1879 1147 1892.5 1140.5Q1906 1134 1914.5 1121.5Q1923 1109 1923 1087ZM1199 1151Q1197 1262 1178 1373Q1174 1399 1165.0 1438.5Q1156 1478 1142.5 1522.0Q1129 1566 1111.0 1611.5Q1093 1657 1070.5 1695.0Q1048 1733 1021.0 1759.0Q994 1785 962 1792Q960 1793 955.5 1793.0Q951 1793 949 1793Q917 1793 889.0 1768.5Q861 1744 837.5 1705.5Q814 1667 794.5 1619.5Q775 1572 760.5 1526.0Q746 1480 736.5 1440.5Q727 1401 723 1378Q704 1266 702 1151ZM1661 1151Q1651 1257 1612.5 1352.5Q1574 1448 1512.0 1527.0Q1450 1606 1366.0 1665.5Q1282 1725 1181 1759Q1220 1695 1246.5 1619.5Q1273 1544 1290.5 1464.5Q1308 1385 1316.5 1304.5Q1325 1224 1327 1151ZM259 1151H574Q575 1224 583.5 1303.0Q592 1382 608.5 1460.0Q625 1538 651.0 1612.0Q677 1686 715 1751Q619 1716 539.5 1656.0Q460 1596 400.5 1517.5Q341 1439 304.5 1346.0Q268 1253 259 1151ZM259 1023Q268 921 306.0 827.0Q344 733 405.0 655.0Q466 577 548.0 518.0Q630 459 727 425Q687 487 659.0 561.0Q631 635 613.0 713.5Q595 792 586.0 871.0Q577 950 574 1023ZM1199 1023H702Q705 941 716.0 859.0Q727 777 750 698Q755 679 765.0 649.5Q775 620 788.5 587.0Q802 554 819.5 521.0Q837 488 857.5 461.5Q878 435 901.5 418.5Q925 402 951 402Q981 402 1008.0 423.0Q1035 444 1057.5 478.0Q1080 512 1098.5 553.5Q1117 595 1131.5 636.0Q1146 677 1155.0 713.0Q1164 749 1169 771Q1183 834 1190.0 896.5Q1197 959 1199 1023ZM1661 1023H1327Q1324 949 1315.0 868.5Q1306 788 1287.0 708.5Q1268 629 1239.5 554.0Q1211 479 1169 417Q1271 449 1356.5 508.0Q1442 567 1506.5 646.0Q1571 725 1611.0 821.0Q1651 917 1661 1023Z"/>
  </g>
</svg>