<?xml version="1.0" encoding="utf-8"?>
<svg xmlns="http://www.w3.org/2000/svg" height="16" width="16" viewBox="0 0 16 16">
  <g>
    <path id="path1" transform="rotate(0,8,8) translate(0,0) scale(0.03125,0.03125)  " fill="#000000" d="M375,352L371.8046875,367.40625 367.96875,382.625 363.4921875,397.65625 358.375,412.5 352.4765625,427.015625 345.65625,441.0625 337.9140625,454.640625 329.25,467.75 339.640625,464.1875 349.8125,460 359.765625,455.1875 369.5,449.75 378.9609375,443.765625 388.09375,437.3125 396.8984375,430.390625 405.375,423 413.4921875,415.203125 421.21875,407.0625 428.5546875,398.578125 435.5,389.75 442,380.640625 448,371.3125 453.5,361.765625 458.5,352 375,352z M169.75,352L170.859375,357.09375 172.1875,362.625 173.734375,368.59375 175.5,375 179.6875,388.5 184.75,402.5 190.65625,416.65625 197.375,430.625 204.9375,443.78125 213.375,455.5 217.921875,460.734375 222.6875,465.4375 227.671875,469.609375 232.875,473.25 238.3046875,476.203125 243.96875,478.3125 249.8671875,479.578125 256,480 262.1328125,479.578125 268.03125,478.3125 273.6953125,476.203125 279.125,473.25 284.328125,469.609375 289.3125,465.4375 294.078125,460.734375 298.625,455.5 307.0625,443.78125 314.625,430.625 321.34375,416.65625 327.25,402.5 332.3125,388.5 336.5,375 338.265625,368.59375 339.8125,362.625 341.140625,357.09375 342.25,352 169.75,352z M53.5,352L58.390625,361.6640625 63.8125,371.15625 69.765625,380.4765625 76.25,389.625 83.203125,398.5 90.5625,407 98.328125,415.125 106.5,422.875 115.03125,430.21875 123.874992370605,437.125 133.03125,443.59375 142.5,449.625 152.234375,455.1171875 162.1875,459.96875 172.359375,464.1796875 182.75,467.75 174.0859375,454.640625 166.34375,441.0625 159.5234375,427.015625 153.625,412.5 148.5078125,397.65625 144.03125,382.625 140.1953125,367.40625 137,352 53.5,352z M380,192L381.90625,207.968765258789 383.125,223.875 383.78125,239.843765258789 384,256 383.78125,272.15625 383.125,288.125 381.90625,304.03125 380,320 470.75,320 474.71875,304.21875 477.625,288.375 479.406219482422,272.34375 480,256 479.406219482422,239.65625 477.625,223.625 474.71875,207.78125 470.75,192 380,192z M164,192L162.09375,207.968765258789 160.875,223.875 160.21875,239.843765258789 160,256 160.21875,272.15625 160.875,288.125 162.09375,304.03125 164,320 348,320 349.90625,304.03125 351.125,288.125 351.78125,272.15625 352,256 351.78125,239.843765258789 351.125,223.875 349.90625,207.968765258789 348,192 164,192z M41.25,192L37.28125,207.78125 34.375,223.625 32.59375,239.65625 32,256 32.59375,272.34375 34.375,288.375 37.28125,304.21875 41.25,320 132,320 130.09375,304.03125 128.875,288.125 128.21875,272.15625 128,256 128.21875,239.843765258789 128.875,223.875 130.09375,207.968765258789 132,192 41.25,192z M329.25,44.25L337.9140625,57.3593864440918 345.65625,70.9375152587891 352.4765625,84.9843826293945 358.375,99.5 363.4921875,114.343757629395 367.96875,129.375015258789 371.8046875,144.59375 375,160 458.5,160 453.5,150.234375 448,140.6875 442,131.359375 435.5,122.25 428.5546875,113.421875 421.21875,104.937507629395 413.4921875,96.7968826293945 405.375,89 396.8984375,81.6093826293945 388.09375,74.6875152587891 378.9609375,68.2343826293945 369.5,62.25 359.765625,56.8125228881836 349.8125,52.0000305175781 339.640625,47.8125228881836 329.25,44.25z M182.75,44.25L172.359375,47.8125228881836 162.1875,52.0000305175781 152.234375,56.8125228881836 142.5,62.25 133.0390625,68.2343826293945 123.906242370605,74.6875152587891 115.1015625,81.6093826293945 106.625,89 98.5,96.7968826293945 90.75,104.937507629395 83.375,113.421875 76.375,122.25 69.8359375,131.359375 63.84375,140.6875 58.3984375,150.234375 53.5,160 137,160 140.1953125,144.59375 144.03125,129.375015258789 148.5078125,114.343757629395 153.625,99.5 159.5234375,84.9843826293945 166.34375,70.9375152587891 174.0859375,57.3593864440918 182.75,44.25z M256,32L249.8671875,32.4218902587891 243.96875,33.6875228881836 238.3046875,35.7968902587891 232.875,38.75 227.671875,42.3906402587891 222.6875,46.5625190734863 217.921875,51.2656364440918 213.375,56.5 204.9375,68.21875 197.375,81.375 190.65625,95.34375 184.75,109.5 179.6875,123.500007629395 175.5,137 173.734375,143.40625 172.1875,149.375 170.859375,154.90625 169.75,160 342.25,160 341.140625,154.90625 339.8125,149.375 338.265625,143.40625 336.5,137 332.3125,123.500007629395 327.25,109.5 321.34375,95.34375 314.625,81.375 307.0625,68.21875 298.625,56.5 294.078125,51.2656364440918 289.3125,46.5625190734863 284.328125,42.3906402587891 279.125,38.75 273.6953125,35.7968902587891 268.03125,33.6875228881836 262.1328125,32.4218902587891 256,32z M256,0L273.46875,0.570315361022949 290.625,2.28125762939453 307.46875,5.13282108306885 324,9.125 340.109375,14.1562576293945 355.6875,20.1250114440918 370.734375,27.0312595367432 385.25,34.875 399.1796875,43.6093940734863 412.46875,53.1875228881836 425.1171875,63.6093902587891 437.125,74.875 448.390625,86.8828201293945 458.812469482422,99.53125 468.390594482422,112.8203125 477.125,126.75 484.96875,141.265625 491.875,156.3125 497.84375,171.890640258789 502.875,188 506.8671875,204.53125 509.71875,221.375 511.4296875,238.53125 512,256 511.4296875,273.5703125 509.71875,290.78125 506.8671875,307.6328125 502.875,324.125 497.84375,340.1796875 491.875,355.71875 484.96875,370.7421875 477.125,385.25 468.390594482422,399.1796875 458.812469482422,412.46875 448.390625,425.1171875 437.125,437.125 425.1171875,448.390625 412.46875,458.8125 399.1796875,468.390625 385.25,477.125 370.734375,484.96875 355.6875,491.875 340.109375,497.84375 324,502.875 307.46875,506.8671875 290.625,509.71875 273.46875,511.4296875 256,512 238.429672241211,511.4296875 221.218734741211,509.71875 204.367172241211,506.8671875 187.875,502.875 171.8203125,497.84375 156.28125,491.875 141.2578125,484.96875 126.75,477.125 112.820304870605,468.390625 99.5312423706055,458.8125 86.8828125,448.390625 74.875,437.125 63.609375,425.1171875 53.1875,412.46875 43.609375,399.1796875 34.875,385.25 27.03125,370.734375 20.125,355.6875 14.15625,340.109375 9.125,324 5.1328125,307.46875 2.28125,290.625 0.5703125,273.46875 0,256 0.5703125,238.53125 2.28125,221.375 5.1328125,204.53125 9.125,188 14.15625,171.890640258789 20.125,156.3125 27.03125,141.265625 34.875,126.75 43.609375,112.8203125 53.1875,99.53125 63.609375,86.8828201293945 74.875,74.875 86.8828125,63.6093902587891 99.5312423706055,53.1875228881836 112.820304870605,43.6093940734863 126.75,34.875 141.265625,27.0312595367432 156.3125,20.1250114440918 171.890625,14.1562576293945 188,9.125 204.53125,5.13282108306885 221.375,2.28125762939453 238.53125,0.570315361022949 256,0z" />
  </g>
</svg>

