<?xml version="1.0" encoding="utf-8"?>
<svg xmlns="http://www.w3.org/2000/svg" width="16" height="16" viewBox="0 0 2048 2048">
  <g transform="translate(0, 2048) scale(1, -1)">
    <path fill="#ffffff" d="M1856 1920Q1882 1920 1901.0 1901.0Q1920 1882 1920 1856V704Q1920 678 1901.0 659.0Q1882 640 1856 640Q1830 640 1811.0 659.0Q1792 678 1792 704V1702L237 147Q218 128 192 128Q166 128 147.0 147.0Q128 166 128 192Q128 218 147 237L1702 1792H704Q678 1792 659.0 1811.0Q640 1830 640 1856Q640 1882 659.0 1901.0Q678 1920 704 1920Z"/>
  </g>
</svg>