<?xml version="1.0" encoding="utf-8"?>
<svg xmlns="http://www.w3.org/2000/svg" width="16" height="16" viewBox="0 0 2048 2048">
  <g transform="translate(0, 2048) scale(1, -1)">
    <path fill="#000000" d="M1920 192Q1920 166 1901.0 147.0Q1882 128 1856 128Q1830 128 1811 147L256 1702V704Q256 678 237.0 659.0Q218 640 192 640Q166 640 147.0 659.0Q128 678 128 704V1856Q128 1882 147.0 1901.0Q166 1920 192 1920H1344Q1370 1920 1389.0 1901.0Q1408 1882 1408 1856Q1408 1830 1389.0 1811.0Q1370 1792 1344 1792H346L1901 237Q1920 218 1920 192Z"/>
  </g>
</svg>