<?xml version="1.0" encoding="utf-8"?>
<svg xmlns="http://www.w3.org/2000/svg" width="16" height="16" viewBox="0 0 2048 2048">
  <g transform="translate(0, 2048) scale(1, -1)">
    <path fill="#000000" d="M441 128Q378 128 321.0 153.5Q264 179 221.5 221.5Q179 264 153.5 321.0Q128 378 128 441V1607Q128 1670 153.5 1727.0Q179 1784 221.5 1826.5Q264 1869 321.0 1894.5Q378 1920 441 1920H1607Q1670 1920 1727.0 1894.5Q1784 1869 1826.5 1826.5Q1869 1784 1894.5 1727.0Q1920 1670 1920 1607V441Q1920 378 1894.5 321.0Q1869 264 1826.5 221.5Q1784 179 1727.0 153.5Q1670 128 1607 128H1216V256H1600Q1639 256 1674.0 271.0Q1709 286 1735.5 312.5Q1762 339 1777.0 374.0Q1792 409 1792 448V1408H256V448Q256 409 271.0 374.0Q286 339 312.5 312.5Q339 286 374.0 271.0Q409 256 448 256H832V128ZM256 1536H1792V1600Q1792 1639 1777.0 1674.0Q1762 1709 1735.5 1735.5Q1709 1762 1674.0 1777.0Q1639 1792 1600 1792H448Q409 1792 374.0 1777.0Q339 1762 312.5 1735.5Q286 1709 271.0 1674.0Q256 1639 256 1600ZM896 1152Q896 1179 906.0 1202.0Q916 1225 933.5 1242.5Q951 1260 974.0 1270.0Q997 1280 1024 1280Q1050 1280 1073.5 1270.0Q1097 1260 1114.5 1242.5Q1132 1225 1142.0 1201.5Q1152 1178 1152 1152Q1152 1125 1142.0 1102.0Q1132 1079 1114.5 1061.5Q1097 1044 1074.0 1034.0Q1051 1024 1024 1024Q997 1024 973.5 1034.0Q950 1044 933.0 1061.0Q916 1078 906.0 1101.5Q896 1125 896 1152ZM960 567 873 495Q855 480 832 480Q806 480 787.0 499.0Q768 518 768 544Q768 575 791 593L983 753Q1001 768 1024 768Q1047 768 1065 753L1257 593Q1280 575 1280 544Q1280 518 1261.0 499.0Q1242 480 1216 480Q1193 480 1175 495L1088 567V64Q1088 38 1069.0 19.0Q1050 0 1024 0Q998 0 979.0 19.0Q960 38 960 64Z"/>
  </g>
</svg>