<?xml version="1.0" encoding="utf-8"?>
<svg xmlns="http://www.w3.org/2000/svg" width="16" height="16" viewBox="0 0 2048 2048">
  <g transform="translate(0, 2048) scale(1, -1)">
    <path fill="#000000" d="M1672 1792Q1747 1792 1815.5 1761.5Q1884 1731 1935.5 1679.5Q1987 1628 2017.5 1559.5Q2048 1491 2048 1416V632Q2048 557 2017.5 488.5Q1987 420 1935.5 368.5Q1884 317 1815.5 286.5Q1747 256 1672 256H376Q301 256 232.5 286.5Q164 317 112.5 368.5Q61 420 30.5 488.5Q0 557 0 632V1416Q0 1491 30.5 1559.5Q61 1628 112.5 1679.5Q164 1731 232.5 1761.5Q301 1792 376 1792ZM1920 1413Q1920 1463 1899.5 1508.5Q1879 1554 1844.5 1588.5Q1810 1623 1764.5 1643.5Q1719 1664 1669 1664H379Q329 1664 283.5 1643.5Q238 1623 203.5 1588.5Q169 1554 148.5 1508.5Q128 1463 128 1413V635Q128 584 149.0 538.0Q170 492 205.0 458.0Q240 424 286.5 404.0Q333 384 384 384V1216Q384 1255 399.0 1290.0Q414 1325 440.5 1351.5Q467 1378 502.0 1393.0Q537 1408 576 1408H1472Q1511 1408 1546.0 1393.0Q1581 1378 1607.5 1351.5Q1634 1325 1649.0 1290.0Q1664 1255 1664 1216V384H1669Q1719 384 1764.5 404.5Q1810 425 1844.5 459.5Q1879 494 1899.5 539.5Q1920 585 1920 635ZM1536 384V1216Q1536 1242 1517.0 1261.0Q1498 1280 1472 1280H576Q550 1280 531.0 1261.0Q512 1242 512 1216V384ZM928 1056Q928 1016 900.0 988.0Q872 960 832 960Q792 960 764.0 988.0Q736 1016 736 1056Q736 1096 764.0 1124.0Q792 1152 832 1152Q872 1152 900.0 1124.0Q928 1096 928 1056ZM1312 1056Q1312 1016 1284.0 988.0Q1256 960 1216 960Q1176 960 1148.0 988.0Q1120 1016 1120 1056Q1120 1096 1148.0 1124.0Q1176 1152 1216 1152Q1256 1152 1284.0 1124.0Q1312 1096 1312 1056ZM928 672Q928 632 900.0 604.0Q872 576 832 576Q792 576 764.0 604.0Q736 632 736 672Q736 712 764.0 740.0Q792 768 832 768Q872 768 900.0 740.0Q928 712 928 672ZM1312 672Q1312 632 1284.0 604.0Q1256 576 1216 576Q1176 576 1148.0 604.0Q1120 632 1120 672Q1120 712 1148.0 740.0Q1176 768 1216 768Q1256 768 1284.0 740.0Q1312 712 1312 672Z"/>
  </g>
</svg>