<?xml version="1.0" encoding="utf-8"?>
<svg xmlns="http://www.w3.org/2000/svg" width="16" height="16" viewBox="0 0 2048 2048">
  <g transform="translate(0, 2048) scale(1, -1)">
    <path fill="#ffffff" d="M555 114 79 2Q71 0 64 0Q37 0 18.5 18.5Q0 37 0 64Q0 72 8.0 106.5Q16 141 27.5 190.0Q39 239 53.5 295.5Q68 352 81.0 403.0Q94 454 104.0 493.0Q114 532 118 546Q59 657 29.5 778.0Q0 899 0 1024Q0 1166 36.5 1297.0Q73 1428 139.5 1541.5Q206 1655 299.5 1748.5Q393 1842 506.5 1908.5Q620 1975 751.0 2011.5Q882 2048 1024 2048Q1164 2048 1294.5 2012.0Q1425 1976 1538.0 1910.0Q1651 1844 1744.5 1751.5Q1838 1659 1905.0 1546.5Q1972 1434 2009.0 1304.0Q2046 1174 2048 1034Q1989 1111 1908 1169Q1881 1331 1801.5 1469.0Q1722 1607 1604.0 1707.0Q1486 1807 1337.5 1863.5Q1189 1920 1024 1920Q900 1920 785.5 1888.0Q671 1856 571.5 1797.5Q472 1739 390.5 1657.5Q309 1576 250.5 1476.5Q192 1377 160.0 1262.5Q128 1148 128 1024Q128 903 158.0 798.0Q188 693 242 586Q246 578 248.5 570.0Q251 562 251 553Q251 547 244.5 518.0Q238 489 228.0 448.0Q218 407 206.0 360.0Q194 313 183.0 270.0Q172 227 163.5 194.5Q155 162 152 150L549 244Q554 245 563 245Q580 245 594 238Q664 203 732.5 178.0Q801 153 879 140Q937 59 1014 0Q893 2 778.0 29.5Q663 57 555 114ZM896 576Q896 695 941.5 800.0Q987 905 1065.0 983.0Q1143 1061 1248.0 1106.5Q1353 1152 1472 1152Q1551 1152 1624.5 1131.5Q1698 1111 1762.0 1073.5Q1826 1036 1879.0 983.0Q1932 930 1969.5 866.0Q2007 802 2027.5 728.5Q2048 655 2048 576Q2048 457 2002.5 352.0Q1957 247 1879.0 169.0Q1801 91 1696.0 45.5Q1591 0 1472 0Q1352 0 1247.0 45.0Q1142 90 1064.0 168.0Q986 246 941.0 351.0Q896 456 896 576ZM1472 248Q1502 248 1523 269L1779 525Q1800 546 1800 576Q1800 606 1779 627L1523 883Q1502 904 1472 904Q1442 904 1421.0 883.0Q1400 862 1400 832Q1400 802 1421 781L1562 640H1216Q1190 640 1171.0 621.0Q1152 602 1152 576Q1152 550 1171.0 531.0Q1190 512 1216 512H1562L1421 371Q1400 350 1400 320Q1400 290 1421.0 269.0Q1442 248 1472 248Z"/>
  </g>
</svg>