<?xml version="1.0" encoding="utf-8"?>
<svg xmlns="http://www.w3.org/2000/svg" width="16" height="16" viewBox="0 0 2048 2048">
  <g transform="translate(0, 2048) scale(1, -1)">
    <path fill="#000000" d="M504 256Q429 256 360.5 286.5Q292 317 240.5 368.5Q189 420 158.5 488.5Q128 557 128 632V1544Q128 1619 158.5 1687.5Q189 1756 240.5 1807.5Q292 1859 360.5 1889.5Q429 1920 504 1920H1416Q1491 1920 1559.5 1889.5Q1628 1859 1679.5 1807.5Q1731 1756 1761.5 1687.5Q1792 1619 1792 1544V632Q1792 557 1761.5 488.5Q1731 420 1679.5 368.5Q1628 317 1559.5 286.5Q1491 256 1416 256ZM256 1408H640V1792H507Q457 1792 411.5 1771.5Q366 1751 331.5 1716.5Q297 1682 276.5 1636.5Q256 1591 256 1541ZM768 1792V1408H1152V1792ZM1280 1408H1664V1541Q1664 1591 1643.5 1636.5Q1623 1682 1588.5 1716.5Q1554 1751 1508.5 1771.5Q1463 1792 1413 1792H1280ZM256 1280V896H640V1280ZM768 1280V896H1152V1280ZM1280 1280V896H1664V1280ZM640 384V768H256V635Q256 585 276.5 539.5Q297 494 331.5 459.5Q366 425 411.5 404.5Q457 384 507 384ZM768 768V384H1152V768ZM1413 384Q1463 384 1508.5 404.5Q1554 425 1588.5 459.5Q1623 494 1643.5 539.5Q1664 585 1664 635V768H1280V384Z"/>
  </g>
</svg>