<?xml version="1.0" encoding="utf-8"?>
<svg xmlns="http://www.w3.org/2000/svg" width="16" height="16" viewBox="0 0 2048 2048">
  <g transform="translate(0, 2048) scale(1, -1)">
    <path fill="#ffffff" d="M64 1152Q38 1152 19.0 1171.0Q0 1190 0 1216Q0 1242 19.0 1261.0Q38 1280 64 1280H1984Q2010 1280 2029.0 1261.0Q2048 1242 2048 1216Q2048 1190 2029.0 1171.0Q2010 1152 1984 1152ZM64 768Q38 768 19.0 787.0Q0 806 0 832Q0 858 19.0 877.0Q38 896 64 896H1984Q2010 896 2029.0 877.0Q2048 858 2048 832Q2048 806 2029.0 787.0Q2010 768 1984 768Z"/>
  </g>
</svg>