<?xml version="1.0" encoding="utf-8"?>
<svg xmlns="http://www.w3.org/2000/svg" width="16" height="16" viewBox="0 0 2048 2048">
  <g transform="translate(0, 2048) scale(1, -1)">
    <path fill="#ffffff" d="M384 640V1408Q384 1543 433.5 1659.5Q483 1776 569.5 1862.5Q656 1949 772.5 1998.5Q889 2048 1024 2048Q1159 2048 1275.5 1998.5Q1392 1949 1478.5 1862.5Q1565 1776 1614.5 1659.5Q1664 1543 1664 1408V640Q1664 505 1614.5 388.5Q1565 272 1478.5 185.5Q1392 99 1275.5 49.5Q1159 0 1024 0Q889 0 772.5 49.5Q656 99 569.5 185.5Q483 272 433.5 388.5Q384 505 384 640ZM1408 1408V1415Q1408 1495 1377.5 1564.0Q1347 1633 1295.0 1683.5Q1243 1734 1173.0 1763.0Q1103 1792 1024 1792Q942 1792 872.0 1762.5Q802 1733 750.5 1681.5Q699 1630 669.5 1560.0Q640 1490 640 1408Q640 1326 669.5 1256.0Q699 1186 750.5 1134.5Q802 1083 872.0 1053.5Q942 1024 1024 1024Q1106 1024 1176.0 1053.5Q1246 1083 1297.5 1134.5Q1349 1186 1378.5 1256.0Q1408 1326 1408 1408ZM755 1408Q755 1466 775.5 1515.0Q796 1564 832.0 1600.0Q868 1636 917.0 1656.5Q966 1677 1024 1677Q1082 1677 1131.0 1656.5Q1180 1636 1216.0 1600.0Q1252 1564 1272.5 1515.0Q1293 1466 1293 1408Q1293 1350 1272.5 1301.0Q1252 1252 1216.0 1216.0Q1180 1180 1131.0 1159.5Q1082 1139 1024 1139Q966 1139 917.0 1159.5Q868 1180 832.0 1216.0Q796 1252 775.5 1301.0Q755 1350 755 1408Z"/>
  </g>
</svg>