<?xml version="1.0" encoding="utf-8"?>
<svg xmlns="http://www.w3.org/2000/svg" width="16" height="16" viewBox="0 0 2048 2048">
  <g transform="translate(0, 2048) scale(1, -1)">
    <path fill="#ffffff" d="M768 64V1984Q768 2010 787.0 2029.0Q806 2048 832 2048Q858 2048 877.0 2029.0Q896 2010 896 1984V64Q896 38 877.0 19.0Q858 0 832 0Q806 0 787.0 19.0Q768 38 768 64ZM1152 64V1984Q1152 2010 1171.0 2029.0Q1190 2048 1216 2048Q1242 2048 1261.0 2029.0Q1280 2010 1280 1984V64Q1280 38 1261.0 19.0Q1242 0 1216 0Q1190 0 1171.0 19.0Q1152 38 1152 64Z"/>
  </g>
</svg>