<?xml version="1.0" encoding="utf-8"?>
<svg xmlns="http://www.w3.org/2000/svg" width="16" height="16" viewBox="0 0 2048 2048">
  <g transform="translate(0, 2048) scale(1, -1)">
    <path fill="#000000" d="M1792 1078V251Q1792 201 1771.5 155.5Q1751 110 1716.5 75.5Q1682 41 1636.5 20.5Q1591 0 1541 0H379Q329 0 283.5 20.5Q238 41 203.5 75.5Q169 110 148.5 155.5Q128 201 128 251V1078Q128 1104 147.0 1123.0Q166 1142 192 1142Q209 1142 226.0 1132.5Q243 1123 257 1115Q261 1161 278.0 1204.0Q295 1247 322.5 1283.0Q350 1319 387.0 1346.0Q424 1373 468 1389Q455 1399 440.0 1405.0Q425 1411 412.0 1418.5Q399 1426 390.0 1437.5Q381 1449 381 1471Q381 1498 399.5 1517.0Q418 1536 445 1536Q454 1536 463 1533Q514 1518 553.5 1485.5Q593 1453 618 1405Q677 1397 728.0 1369.0Q779 1341 816.5 1298.5Q854 1256 875.0 1202.0Q896 1148 896 1088Q896 1081 896.0 1074.5Q896 1068 895 1061Q911 1052 931.5 1041.0Q952 1030 970 1030Q984 1030 997.5 1036.5Q1011 1043 1024 1049V1743Q1024 1807 1050.5 1862.5Q1077 1918 1121.5 1959.5Q1166 2001 1223.5 2024.5Q1281 2048 1344 2048Q1409 2048 1467.0 2024.0Q1525 2000 1569.0 1958.0Q1613 1916 1638.5 1859.0Q1664 1802 1664 1736V1116Q1678 1124 1694.5 1133.0Q1711 1142 1728 1142Q1755 1142 1773.5 1123.5Q1792 1105 1792 1078ZM1152 1736V1613Q1161 1622 1169.0 1632.0Q1177 1642 1186.5 1650.5Q1196 1659 1207.5 1664.0Q1219 1669 1233 1669Q1259 1669 1277.5 1649.5Q1296 1630 1296 1604Q1296 1578 1279 1561Q1247 1527 1216.0 1491.5Q1185 1456 1152 1425V1356Q1161 1366 1169.5 1375.5Q1178 1385 1187.0 1393.0Q1196 1401 1207.0 1406.0Q1218 1411 1232 1411Q1258 1411 1277.0 1392.0Q1296 1373 1296 1347Q1296 1321 1279 1304Q1248 1270 1217.0 1234.0Q1186 1198 1152 1167V1113Q1188 1128 1227 1128Q1264 1128 1302.0 1112.5Q1340 1097 1375.0 1079.0Q1410 1061 1440.0 1045.5Q1470 1030 1493 1030Q1505 1030 1515.5 1034.5Q1526 1039 1536 1045V1736Q1536 1775 1520.0 1808.5Q1504 1842 1477.5 1866.5Q1451 1891 1416.5 1905.5Q1382 1920 1344 1920Q1306 1920 1271.5 1905.5Q1237 1891 1210.5 1866.5Q1184 1842 1168.0 1808.5Q1152 1775 1152 1736ZM387 1043Q403 1034 414.5 1027.5Q426 1021 444 1021Q468 1021 497.5 1038.5Q527 1056 560.5 1077.5Q594 1099 631.5 1116.5Q669 1134 709 1134Q735 1134 764 1126Q754 1173 724.0 1210.5Q694 1248 649 1266Q648 1248 645.0 1228.5Q642 1209 634.0 1192.5Q626 1176 612.0 1165.5Q598 1155 576 1155Q550 1155 531.0 1174.5Q512 1194 512 1220Q512 1233 516.0 1246.0Q520 1259 521 1272Q491 1263 466.0 1245.0Q441 1227 422.5 1202.5Q404 1178 394.0 1148.5Q384 1119 384 1088Q384 1080 385 1071L386 1060Q387 1051 387 1043ZM1664 969Q1643 957 1623.0 945.5Q1603 934 1582.5 924.0Q1562 914 1540.0 908.0Q1518 902 1493 902Q1455 902 1417.5 917.5Q1380 933 1345.5 951.0Q1311 969 1280.5 984.5Q1250 1000 1227 1000Q1206 1000 1177.0 984.5Q1148 969 1114.5 951.0Q1081 933 1044.0 917.5Q1007 902 970 902Q931 902 894.0 918.0Q857 934 824.0 953.5Q791 973 762.0 989.5Q733 1006 711 1006Q687 1006 658.0 988.5Q629 971 595.5 949.5Q562 928 524.0 910.5Q486 893 444 893Q417 893 393.0 900.0Q369 907 346.0 918.5Q323 930 300.5 943.5Q278 957 256 969V256Q256 229 266.0 205.5Q276 182 293.0 165.0Q310 148 333.5 138.0Q357 128 384 128H1536Q1563 128 1586.0 138.0Q1609 148 1626.5 165.5Q1644 183 1654.0 206.0Q1664 229 1664 256Z"/>
  </g>
</svg>