<?xml version="1.0" encoding="utf-8"?>
<svg xmlns="http://www.w3.org/2000/svg" width="16" height="16" viewBox="0 0 2048 2048">
  <g transform="translate(0, 2048) scale(1, -1)">
    <path fill="#ffffff" d="M320 1152Q281 1152 246.0 1167.0Q211 1182 184.5 1208.5Q158 1235 143.0 1270.0Q128 1305 128 1344V1728Q128 1767 143.0 1802.0Q158 1837 184.5 1863.5Q211 1890 246.0 1905.0Q281 1920 320 1920H448Q474 1920 493.0 1901.0Q512 1882 512 1856Q512 1835 504.5 1822.0Q497 1809 483.5 1802.0Q470 1795 452.5 1793.0Q435 1791 416 1791Q404 1791 392 1792H376Q364 1793 352 1793Q332 1793 315.0 1790.5Q298 1788 284.5 1781.5Q271 1775 263.5 1762.0Q256 1749 256 1728V1344Q256 1323 263.5 1310.0Q271 1297 284.5 1290.0Q298 1283 315.0 1281.0Q332 1279 352 1279Q364 1279 376 1280H392Q404 1281 416 1281Q435 1281 452.5 1278.5Q470 1276 483.5 1269.5Q497 1263 504.5 1250.0Q512 1237 512 1216Q512 1190 493.0 1171.0Q474 1152 448 1152ZM704 1664Q678 1664 659.0 1683.0Q640 1702 640 1728Q640 1754 659.0 1773.0Q678 1792 704 1792H1856Q1882 1792 1901.0 1773.0Q1920 1754 1920 1728Q1920 1702 1901.0 1683.0Q1882 1664 1856 1664ZM704 1280Q678 1280 659.0 1299.0Q640 1318 640 1344Q640 1370 659.0 1389.0Q678 1408 704 1408H1856Q1882 1408 1901.0 1389.0Q1920 1370 1920 1344Q1920 1318 1901.0 1299.0Q1882 1280 1856 1280ZM320 128Q281 128 246.0 143.0Q211 158 184.5 184.5Q158 211 143.0 246.0Q128 281 128 320V704Q128 743 143.0 778.0Q158 813 184.5 839.5Q211 866 246.0 881.0Q281 896 320 896H448Q474 896 493.0 877.0Q512 858 512 832Q512 811 504.5 798.0Q497 785 483.5 778.0Q470 771 452.5 769.0Q435 767 416 767Q404 767 392 768H376Q364 769 352 769Q332 769 315.0 766.5Q298 764 284.5 757.5Q271 751 263.5 738.0Q256 725 256 704V320Q256 299 263.5 286.0Q271 273 284.5 266.0Q298 259 315.0 257.0Q332 255 352 255Q364 255 376 256H392Q404 257 416 257Q435 257 452.5 254.5Q470 252 483.5 245.5Q497 239 504.5 226.0Q512 213 512 192Q512 166 493.0 147.0Q474 128 448 128ZM704 640Q678 640 659.0 659.0Q640 678 640 704Q640 730 659.0 749.0Q678 768 704 768H1856Q1882 768 1901.0 749.0Q1920 730 1920 704Q1920 678 1901.0 659.0Q1882 640 1856 640ZM704 256Q678 256 659.0 275.0Q640 294 640 320Q640 346 659.0 365.0Q678 384 704 384H1856Q1882 384 1901.0 365.0Q1920 346 1920 320Q1920 294 1901.0 275.0Q1882 256 1856 256Z"/>
  </g>
</svg>