<?xml version="1.0" encoding="utf-8"?>
<svg xmlns="http://www.w3.org/2000/svg" width="16" height="16" viewBox="0 0 2048 2048">
  <g transform="translate(0, 2048) scale(1, -1)">
    <path fill="#000000" d="M384 1664V1669Q384 1721 405.0 1766.5Q426 1812 461.0 1846.0Q496 1880 542.5 1900.0Q589 1920 640 1920Q692 1920 739.0 1899.5Q786 1879 820.5 1844.5Q855 1810 875.5 1763.0Q896 1716 896 1664Q896 1611 875.5 1564.5Q855 1518 820.5 1483.5Q786 1449 739.0 1428.5Q692 1408 640 1408Q587 1408 540.5 1428.5Q494 1449 459.5 1483.5Q425 1518 404.5 1564.5Q384 1611 384 1664ZM1152 1664V1669Q1152 1721 1173.0 1766.5Q1194 1812 1229.0 1846.0Q1264 1880 1310.5 1900.0Q1357 1920 1408 1920Q1460 1920 1507.0 1899.5Q1554 1879 1588.5 1844.5Q1623 1810 1643.5 1763.0Q1664 1716 1664 1664Q1664 1611 1643.5 1564.5Q1623 1518 1588.5 1483.5Q1554 1449 1507.0 1428.5Q1460 1408 1408 1408Q1355 1408 1308.5 1428.5Q1262 1449 1227.5 1483.5Q1193 1518 1172.5 1564.5Q1152 1611 1152 1664ZM768 1664Q768 1690 758.0 1713.5Q748 1737 730.5 1754.5Q713 1772 689.5 1782.0Q666 1792 640 1792Q613 1792 590.0 1782.0Q567 1772 549.5 1754.5Q532 1737 522.0 1714.0Q512 1691 512 1664Q512 1637 522.0 1613.5Q532 1590 549.0 1573.0Q566 1556 589.5 1546.0Q613 1536 640 1536Q667 1536 690.0 1546.0Q713 1556 730.5 1573.5Q748 1591 758.0 1614.0Q768 1637 768 1664ZM1536 1664Q1536 1690 1526.0 1713.5Q1516 1737 1498.5 1754.5Q1481 1772 1457.5 1782.0Q1434 1792 1408 1792Q1381 1792 1358.0 1782.0Q1335 1772 1317.5 1754.5Q1300 1737 1290.0 1714.0Q1280 1691 1280 1664Q1280 1637 1290.0 1613.5Q1300 1590 1317.0 1573.0Q1334 1556 1357.5 1546.0Q1381 1536 1408 1536Q1435 1536 1458.0 1546.0Q1481 1556 1498.5 1573.5Q1516 1591 1526.0 1614.0Q1536 1637 1536 1664ZM768 1152V1157Q768 1209 789.0 1254.5Q810 1300 845.0 1334.0Q880 1368 926.5 1388.0Q973 1408 1024 1408Q1076 1408 1123.0 1387.5Q1170 1367 1204.5 1332.5Q1239 1298 1259.5 1251.0Q1280 1204 1280 1152Q1280 1099 1259.5 1052.5Q1239 1006 1204.5 971.5Q1170 937 1123.0 916.5Q1076 896 1024 896Q971 896 924.5 916.5Q878 937 843.5 971.5Q809 1006 788.5 1052.5Q768 1099 768 1152ZM128 1088Q128 1127 143.0 1162.0Q158 1197 184.5 1223.5Q211 1250 246.0 1265.0Q281 1280 320 1280H628Q608 1217 608 1152H320Q294 1152 275.0 1133.0Q256 1114 256 1088Q256 988 298.0 914.5Q340 841 435 802Q414 778 398.0 749.5Q382 721 371 691Q247 746 187.5 850.5Q128 955 128 1088ZM1152 1152Q1152 1178 1142.0 1201.5Q1132 1225 1114.5 1242.5Q1097 1260 1073.5 1270.0Q1050 1280 1024 1280Q997 1280 974.0 1270.0Q951 1260 933.5 1242.5Q916 1225 906.0 1202.0Q896 1179 896 1152Q896 1125 906.0 1101.5Q916 1078 933.0 1061.0Q950 1044 973.5 1034.0Q997 1024 1024 1024Q1051 1024 1074.0 1034.0Q1097 1044 1114.5 1061.5Q1132 1079 1142.0 1102.0Q1152 1125 1152 1152ZM1613 802Q1708 841 1750.0 914.5Q1792 988 1792 1088Q1792 1114 1773.0 1133.0Q1754 1152 1728 1152H1440Q1440 1217 1420 1280H1728Q1767 1280 1802.0 1265.0Q1837 1250 1863.5 1223.5Q1890 1197 1905.0 1162.0Q1920 1127 1920 1088Q1920 955 1860.5 850.5Q1801 746 1677 691Q1666 721 1650.0 749.5Q1634 778 1613 802ZM512 576Q512 615 527.0 650.0Q542 685 568.5 711.5Q595 738 630.0 753.0Q665 768 704 768H1344Q1383 768 1418.0 753.0Q1453 738 1479.5 711.5Q1506 685 1521.0 650.0Q1536 615 1536 576Q1536 460 1496.0 376.0Q1456 292 1387.0 236.5Q1318 181 1224.5 154.5Q1131 128 1024 128Q917 128 823.5 154.5Q730 181 661.0 236.5Q592 292 552.0 376.0Q512 460 512 576ZM1408 576Q1408 602 1389.0 621.0Q1370 640 1344 640H704Q678 640 659.0 621.0Q640 602 640 576Q640 487 670.0 426.0Q700 365 751.5 327.0Q803 289 873.0 272.5Q943 256 1024 256Q1105 256 1175.0 272.5Q1245 289 1296.5 327.0Q1348 365 1378.0 426.0Q1408 487 1408 576Z"/>
  </g>
</svg>