<?xml version="1.0" encoding="utf-8"?>
<svg xmlns="http://www.w3.org/2000/svg" width="16" height="16" viewBox="0 0 2048 2048">
  <g transform="translate(0, 2048) scale(1, -1)">
    <path fill="#000000" d="M448 0Q409 0 374.0 15.0Q339 30 312.5 56.5Q286 83 271.0 118.0Q256 153 256 192V1600Q256 1639 271.0 1674.0Q286 1709 312.5 1735.5Q339 1762 374.0 1777.0Q409 1792 448 1792H640V1797Q640 1847 660.5 1892.5Q681 1938 715.5 1972.5Q750 2007 795.5 2027.5Q841 2048 891 2048H1157Q1205 2048 1250.5 2027.5Q1296 2007 1331.0 1973.0Q1366 1939 1387.0 1894.5Q1408 1850 1408 1801V1792H1600Q1639 1792 1674.0 1777.0Q1709 1762 1735.5 1735.5Q1762 1709 1777.0 1674.0Q1792 1639 1792 1600V192Q1792 153 1777.0 118.0Q1762 83 1735.5 56.5Q1709 30 1674.0 15.0Q1639 0 1600 0ZM1152 1664Q1179 1664 1202.0 1674.0Q1225 1684 1242.5 1701.5Q1260 1719 1270.0 1742.0Q1280 1765 1280 1792Q1280 1818 1270.0 1841.5Q1260 1865 1242.5 1882.5Q1225 1900 1201.5 1910.0Q1178 1920 1152 1920H896Q869 1920 846.0 1910.0Q823 1900 805.5 1882.5Q788 1865 778.0 1842.0Q768 1819 768 1792Q768 1765 778.0 1741.5Q788 1718 805.0 1701.0Q822 1684 845.5 1674.0Q869 1664 896 1664ZM1600 128Q1626 128 1645.0 147.0Q1664 166 1664 192V1600Q1664 1626 1645.0 1645.0Q1626 1664 1600 1664H1374Q1340 1604 1280.5 1570.0Q1221 1536 1152 1536H896Q827 1536 767.5 1570.0Q708 1604 674 1664H448Q422 1664 403.0 1645.0Q384 1626 384 1600V192Q384 166 403.0 147.0Q422 128 448 128ZM768 1152V1157Q768 1209 789.0 1254.5Q810 1300 845.0 1334.0Q880 1368 926.5 1388.0Q973 1408 1024 1408Q1076 1408 1123.0 1387.5Q1170 1367 1204.5 1332.5Q1239 1298 1259.5 1251.0Q1280 1204 1280 1152Q1280 1099 1259.5 1052.5Q1239 1006 1204.5 971.5Q1170 937 1123.0 916.5Q1076 896 1024 896Q971 896 924.5 916.5Q878 937 843.5 971.5Q809 1006 788.5 1052.5Q768 1099 768 1152ZM1152 1152Q1152 1178 1142.0 1201.5Q1132 1225 1114.5 1242.5Q1097 1260 1073.5 1270.0Q1050 1280 1024 1280Q997 1280 974.0 1270.0Q951 1260 933.5 1242.5Q916 1225 906.0 1202.0Q896 1179 896 1152Q896 1125 906.0 1101.5Q916 1078 933.0 1061.0Q950 1044 973.5 1034.0Q997 1024 1024 1024Q1051 1024 1074.0 1034.0Q1097 1044 1114.5 1061.5Q1132 1079 1142.0 1102.0Q1152 1125 1152 1152ZM562 601Q562 638 574.5 669.0Q587 700 609.5 722.0Q632 744 663.5 756.0Q695 768 732 768H1316Q1353 768 1384.5 756.0Q1416 744 1438.5 722.0Q1461 700 1473.5 669.0Q1486 638 1486 601Q1486 502 1445.0 435.5Q1404 369 1338.5 329.5Q1273 290 1190.5 273.0Q1108 256 1024 256Q940 256 857.5 273.0Q775 290 709.5 329.5Q644 369 603.0 435.5Q562 502 562 601ZM1358 606Q1358 626 1345.5 633.0Q1333 640 1316 640H732Q715 640 702.5 633.0Q690 626 690 606Q690 535 721.0 491.5Q752 448 800.0 424.0Q848 400 907.5 392.0Q967 384 1024 384Q1081 384 1140.5 392.0Q1200 400 1248.0 424.0Q1296 448 1327.0 491.5Q1358 535 1358 606Z"/>
  </g>
</svg>