<?xml version="1.0" encoding="utf-8"?>
<svg xmlns="http://www.w3.org/2000/svg" width="16" height="16" viewBox="0 0 2048 2048">
  <g transform="translate(0, 2048) scale(1, -1)">
    <path fill="#ffffff" d="M866 1069Q866 980 832.0 900.5Q798 821 739.0 762.0Q680 703 601.5 668.5Q523 634 433 634Q343 634 264.5 668.5Q186 703 127.0 762.0Q68 821 34.0 900.5Q0 980 0 1069Q0 1158 34.0 1236.5Q68 1315 126.5 1373.0Q185 1431 263.0 1464.5Q341 1498 430 1498Q520 1498 599.5 1465.0Q679 1432 738.0 1374.0Q797 1316 831.5 1238.0Q866 1160 866 1069ZM678 1069Q678 1120 658.5 1164.5Q639 1209 606.0 1242.5Q573 1276 528.5 1295.5Q484 1315 433 1315Q382 1315 337.5 1295.5Q293 1276 260.0 1242.5Q227 1209 207.5 1164.5Q188 1120 188 1069Q188 1018 206.5 972.5Q225 927 257.5 892.0Q290 857 334.0 836.5Q378 816 430 816Q482 816 527.5 836.5Q573 857 606.5 891.5Q640 926 659.0 972.0Q678 1018 678 1069Z"/>
  </g>
</svg>