<?xml version="1.0" encoding="utf-8"?>
<svg xmlns="http://www.w3.org/2000/svg" width="16" height="16" viewBox="0 0 2048 2048">
  <g transform="translate(0, 2048) scale(1, -1)">
    <path fill="#000000" d="M1472 0Q1446 0 1427.0 19.0Q1408 38 1408 64Q1408 85 1415.5 97.5Q1423 110 1436.5 117.0Q1450 124 1469.0 126.5Q1488 129 1510 129Q1533 129 1559.5 127.5Q1586 126 1612 126Q1656 126 1698.0 134.0Q1740 142 1774 168Q1825 208 1842 273Q1881 420 1900.5 571.5Q1920 723 1920 875V1408H1664V1394Q1664 1264 1640.0 1134.5Q1616 1005 1584 879Q1565 805 1538.5 726.5Q1512 648 1477.0 569.5Q1442 491 1398.0 416.5Q1354 342 1301.5 277.0Q1249 212 1187.0 159.0Q1125 106 1053 71Q1039 64 1024 64Q998 64 979.0 83.0Q960 102 960 128Q960 148 969.5 161.5Q979 175 995 185Q1011 195 1027.0 203.5Q1043 212 1059 223Q1128 270 1181.0 332.0Q1234 394 1276 466Q1331 559 1378.5 674.5Q1426 790 1461.0 913.0Q1496 1036 1516.0 1159.5Q1536 1283 1536 1393V1408H1088Q1062 1408 1043.0 1427.0Q1024 1446 1024 1472Q1024 1498 1043.0 1517.0Q1062 1536 1088 1536H1536V1984Q1536 2010 1555.0 2029.0Q1574 2048 1600 2048Q1626 2048 1645.0 2029.0Q1664 2010 1664 1984V1536H1984Q2010 1536 2029.0 1517.0Q2048 1498 2048 1472V875Q2048 714 2028.0 555.5Q2008 397 1967 242Q1953 189 1923.5 144.5Q1894 100 1853.0 68.0Q1812 36 1761.5 18.0Q1711 0 1656 0ZM64 0Q38 0 19.0 19.0Q0 38 0 64V320Q0 346 19.0 365.0Q38 384 64 384Q90 384 109.0 365.0Q128 346 128 320V128H768V320Q768 346 787.0 365.0Q806 384 832 384Q858 384 877.0 365.0Q896 346 896 320V64Q896 38 877.0 19.0Q858 0 832 0Z"/>
  </g>
</svg>