<?xml version="1.0" encoding="utf-8"?>
<svg xmlns="http://www.w3.org/2000/svg" width="16" height="16" viewBox="0 0 2048 2048">
  <g transform="translate(0, 2048) scale(1, -1)">
    <path fill="#ffffff" d="M2048 1187Q2017 1196 1984.5 1196.5Q1952 1197 1920 1203V1408H1664V1354Q1640 1380 1605.5 1394.0Q1571 1408 1536 1408H1088Q1062 1408 1043.0 1427.0Q1024 1446 1024 1472Q1024 1498 1043.0 1517.0Q1062 1536 1088 1536H1536V1984Q1536 2010 1555.0 2029.0Q1574 2048 1600 2048Q1626 2048 1645.0 2029.0Q1664 2010 1664 1984V1536H1984Q2010 1536 2029.0 1517.0Q2048 1498 2048 1472ZM1024 693V1013Q1024 1036 1039 1051Q1053 1065 1075 1067Q1109 1070 1138.0 1073.0Q1167 1076 1194.5 1081.5Q1222 1087 1249.5 1096.0Q1277 1105 1309 1120Q1367 1146 1411.5 1182.5Q1456 1219 1500 1264Q1503 1267 1507.5 1270.5Q1512 1274 1516 1276Q1524 1280 1536 1280Q1547 1280 1556 1276Q1562 1273 1564.5 1271.0Q1567 1269 1572 1264Q1612 1219 1660.5 1182.5Q1709 1146 1764 1120Q1850 1079 1947 1070Q1956 1069 1966 1068L1978 1069Q1988 1069 1997 1067Q2013 1065 2030.0 1054.0Q2047 1043 2047 1024Q2047 954 2048 885V793Q2049 724 2049 654Q2049 538 2012.5 434.0Q1976 330 1910.5 245.0Q1845 160 1753.5 98.0Q1662 36 1552 3Q1543 0 1536 0Q1527 0 1520 3Q1446 28 1379.0 63.0Q1312 98 1255.0 145.0Q1198 192 1154.0 252.5Q1110 313 1084 389Q1075 415 1064.5 456.0Q1054 497 1045.0 540.5Q1036 584 1030.0 625.0Q1024 666 1024 693ZM64 0Q38 0 19.0 19.0Q0 38 0 64V320Q0 346 19.0 365.0Q38 384 64 384Q90 384 109.0 365.0Q128 346 128 320V128H768V320Q768 346 787.0 365.0Q806 384 832 384Q858 384 877.0 365.0Q896 346 896 320V64Q896 38 877.0 19.0Q858 0 832 0Z"/>
  </g>
</svg>