<?xml version="1.0" encoding="utf-8"?>
<svg xmlns="http://www.w3.org/2000/svg" width="16" height="16" viewBox="0 0 2048 2048">
  <g transform="translate(0, 2048) scale(1, -1)">
    <path fill="#000000" d="M1449 640H599L380 42Q373 23 356.5 11.5Q340 0 320 0Q293 0 274.5 18.5Q256 37 256 64Q256 75 260 86L964 2006Q971 2025 987.5 2034.5Q1004 2044 1024 2044Q1043 2044 1060.0 2034.5Q1077 2025 1084 2006L1788 86Q1792 75 1792 64Q1792 38 1773.0 19.0Q1754 0 1728 0Q1708 0 1691.5 11.5Q1675 23 1668 42ZM1024 1798 646 768H1402Z"/>
  </g>
</svg>