<?xml version="1.0" encoding="utf-8"?>
<svg xmlns="http://www.w3.org/2000/svg" width="16" height="16" viewBox="0 0 2048 2048">
  <g transform="translate(0, 2048) scale(1, -1)">
    <path fill="#000000" d="M1797 1792Q1847 1792 1892.5 1771.5Q1938 1751 1972.5 1716.5Q2007 1682 2027.5 1636.5Q2048 1591 2048 1541V635Q2048 585 2027.5 539.5Q2007 494 1972.5 459.5Q1938 425 1892.5 404.5Q1847 384 1797 384H251Q201 384 155.5 404.5Q110 425 75.5 459.5Q41 494 20.5 539.5Q0 585 0 635V1541Q0 1593 21.0 1638.5Q42 1684 77.0 1718.0Q112 1752 158.5 1772.0Q205 1792 256 1792H1057L1239 1974Q1313 2048 1417 2048Q1468 2048 1512.5 2029.0Q1557 2010 1591.0 1977.5Q1625 1945 1644.5 1901.0Q1664 1857 1664 1806V1792ZM637 1191 578 957 812 1016 1494 1698Q1515 1719 1525.5 1746.5Q1536 1774 1536 1803Q1536 1828 1526.5 1849.5Q1517 1871 1501.0 1886.5Q1485 1902 1463.5 1911.0Q1442 1920 1417 1920Q1366 1920 1330 1884ZM1920 1536Q1920 1562 1910.0 1585.0Q1900 1608 1882 1626Q1864 1644 1841.0 1654.0Q1818 1664 1792 1664H1627Q1619 1648 1608.5 1634.5Q1598 1621 1585 1608L896 919Q877 900 851 894Q839 891 808.0 883.0Q777 875 736.5 864.5Q696 854 652.0 842.5Q608 831 569.5 821.5Q531 812 503.0 806.0Q475 800 468 800Q447 800 434.0 814.0Q421 828 421 849Q421 855 427.0 882.5Q433 910 442.5 948.5Q452 987 463.5 1031.5Q475 1076 485.5 1116.5Q496 1157 504.0 1188.0Q512 1219 515 1230Q521 1256 540 1275L929 1664H256Q229 1664 206.0 1654.0Q183 1644 165.5 1626.5Q148 1609 138.0 1586.0Q128 1563 128 1536V640Q128 613 138.0 589.5Q148 566 165.0 549.0Q182 532 205.5 522.0Q229 512 256 512H1792Q1819 512 1842.0 522.0Q1865 532 1882.5 549.5Q1900 567 1910.0 590.0Q1920 613 1920 640Z"/>
  </g>
</svg>