<?xml version="1.0" encoding="utf-8"?>
<svg xmlns="http://www.w3.org/2000/svg" width="16" height="16" viewBox="0 0 2048 2048">
  <g transform="translate(0, 2048) scale(1, -1)">
    <path fill="#000000" d="M2048 1536V614Q2048 572 2031.5 535.0Q2015 498 1987.5 470.0Q1960 442 1922.5 426.0Q1885 410 1843 410H205Q163 410 125.5 426.0Q88 442 60.5 470.0Q33 498 16.5 535.0Q0 572 0 614V1536Q0 1578 16.0 1615.5Q32 1653 60.0 1681.0Q88 1709 125.5 1725.0Q163 1741 205 1741H1153L1401 1989Q1460 2048 1544 2048Q1585 2048 1621.0 2032.5Q1657 2017 1683.5 1990.5Q1710 1964 1725.5 1928.0Q1741 1892 1741 1851Q1741 1822 1733.5 1794.5Q1726 1767 1712 1741H1843Q1885 1741 1922.5 1725.0Q1960 1709 1988.0 1681.0Q2016 1653 2032.0 1615.5Q2048 1578 2048 1536ZM703 1146 657 960 843 1007 1605 1768Q1622 1785 1630.0 1808.0Q1638 1831 1638 1854Q1638 1873 1630.5 1890.0Q1623 1907 1610.0 1919.5Q1597 1932 1580.0 1939.0Q1563 1946 1544 1946Q1525 1946 1506.5 1938.5Q1488 1931 1474 1917ZM1946 1536Q1946 1557 1938.0 1575.5Q1930 1594 1915.5 1608.0Q1901 1622 1882.5 1630.0Q1864 1638 1843 1638H1619L911 929Q895 913 875 909Q866 907 841.0 900.5Q816 894 784.0 885.5Q752 877 716.0 868.0Q680 859 649.5 851.5Q619 844 596.5 839.0Q574 834 569 834Q554 834 542.0 844.5Q530 855 530 871Q530 875 532 881L606 1178Q610 1198 626 1214L1050 1638H205Q184 1638 165.5 1630.0Q147 1622 132.5 1608.0Q118 1594 110.0 1575.5Q102 1557 102 1536V614Q102 593 110.0 574.5Q118 556 132.5 542.0Q147 528 165.5 520.0Q184 512 205 512H1843Q1864 512 1882.5 520.0Q1901 528 1915.5 542.0Q1930 556 1938.0 574.5Q1946 593 1946 614Z"/>
  </g>
</svg>