<?xml version="1.0" encoding="utf-8"?>
<svg xmlns="http://www.w3.org/2000/svg" width="16" height="16" viewBox="0 0 2048 2048">
  <g transform="translate(0, 2048) scale(1, -1)">
    <path fill="#000000" d="M2029 1312Q2029 1256 2022.5 1193.5Q2016 1131 1995.0 1076.5Q1974 1022 1933.5 982.5Q1893 943 1824 933Q1803 930 1781.5 929.5Q1760 929 1738 929Q1683 929 1628.5 933.0Q1574 937 1527.5 954.5Q1481 972 1445.5 1007.5Q1410 1043 1393 1106Q1390 1118 1385.0 1148.0Q1380 1178 1373.0 1211.0Q1366 1244 1358.5 1270.5Q1351 1297 1344 1301Q1328 1310 1295.5 1315.5Q1263 1321 1226.0 1324.5Q1189 1328 1154.0 1329.5Q1119 1331 1099 1331Q1074 1331 1040.5 1330.0Q1007 1329 972.5 1326.0Q938 1323 905.5 1317.0Q873 1311 851 1302Q837 1296 829.5 1287.5Q822 1279 818 1265Q813 1243 807 1221L785 1135Q780 1113 774 1091Q759 1031 722.0 995.5Q685 960 637.0 941.5Q589 923 534.0 917.0Q479 911 427 911Q340 911 287.0 937.0Q234 963 204.5 1009.5Q175 1056 165.0 1119.5Q155 1183 155 1258Q155 1295 157.5 1337.0Q160 1379 174 1414Q196 1471 242.0 1517.5Q288 1564 338 1596Q418 1648 512.0 1684.0Q606 1720 705.5 1742.0Q805 1764 905.5 1774.0Q1006 1784 1100 1784Q1174 1784 1257.0 1777.5Q1340 1771 1425.0 1755.0Q1510 1739 1593.0 1713.5Q1676 1688 1751.0 1650.0Q1826 1612 1888.5 1560.5Q1951 1509 1995 1442Q2016 1410 2022.5 1380.0Q2029 1350 2029 1312ZM1100 1656Q1043 1656 976.5 1651.5Q910 1647 840.5 1636.5Q771 1626 701.0 1610.0Q631 1594 566.0 1570.0Q501 1546 445.0 1514.0Q389 1482 347 1441Q330 1425 315.0 1404.5Q300 1384 292 1362Q288 1351 286.0 1337.0Q284 1323 283.0 1308.0Q282 1293 282.0 1278.5Q282 1264 282 1253Q282 1221 284.0 1188.0Q286 1155 293 1123Q299 1095 311.5 1078.5Q324 1062 341.5 1053.0Q359 1044 381.0 1041.5Q403 1039 428 1039Q468 1039 511.0 1042.5Q554 1046 592 1060Q636 1076 650 1123Q663 1166 672.5 1209.5Q682 1253 694 1297Q708 1345 739.0 1378.5Q770 1412 818 1426Q885 1446 956.0 1452.0Q1027 1458 1097 1458Q1128 1458 1166.0 1456.5Q1204 1455 1242.5 1451.0Q1281 1447 1317.5 1440.0Q1354 1433 1383 1423Q1421 1409 1444.5 1382.0Q1468 1355 1480 1317Q1494 1272 1500.0 1226.5Q1506 1181 1518 1136Q1534 1080 1594 1068Q1629 1060 1666.5 1058.5Q1704 1057 1739 1057H1762Q1774 1057 1786.5 1057.5Q1799 1058 1810 1060Q1838 1065 1853.0 1080.5Q1868 1096 1876 1122Q1890 1170 1895.5 1219.5Q1901 1269 1901 1319Q1901 1333 1899.0 1345.0Q1897 1357 1889 1370Q1852 1427 1796.5 1470.0Q1741 1513 1674.0 1545.0Q1607 1577 1532.5 1598.0Q1458 1619 1382.5 1632.0Q1307 1645 1234.5 1650.5Q1162 1656 1100 1656ZM1344 640Q1370 640 1389.0 621.0Q1408 602 1408 576Q1408 550 1389 531L1136 278Q1125 267 1114.5 261.5Q1104 256 1088 256Q1072 256 1061.5 261.5Q1051 267 1040 278L787 531Q768 550 768 576Q768 602 787.0 621.0Q806 640 832 640Q858 640 877 621L1024 475V960Q1024 986 1043.0 1005.0Q1062 1024 1088 1024Q1114 1024 1133.0 1005.0Q1152 986 1152 960V475L1299 621Q1318 640 1344 640Z"/>
  </g>
</svg>