<?xml version="1.0" encoding="utf-8"?>
<svg xmlns="http://www.w3.org/2000/svg" width="16" height="16" viewBox="0 0 2048 2048">
  <g transform="translate(0, 2048) scale(1, -1)">
    <path fill="#ffffff" d="M251 640Q201 640 155.5 660.5Q110 681 75.5 715.5Q41 750 20.5 795.5Q0 841 0 891V1157Q0 1207 20.5 1252.5Q41 1298 75.5 1332.5Q110 1367 155.5 1387.5Q201 1408 251 1408H1797Q1847 1408 1892.5 1387.5Q1938 1367 1972.5 1332.5Q2007 1298 2027.5 1252.5Q2048 1207 2048 1157V891Q2048 841 2027.5 795.5Q2007 750 1972.5 715.5Q1938 681 1892.5 660.5Q1847 640 1797 640ZM1792 768Q1819 768 1842.0 778.0Q1865 788 1882.5 805.5Q1900 823 1910.0 846.0Q1920 869 1920 896V1152Q1920 1178 1910.0 1201.5Q1900 1225 1882.5 1242.5Q1865 1260 1841.5 1270.0Q1818 1280 1792 1280H256Q229 1280 206.0 1270.0Q183 1260 165.5 1242.5Q148 1225 138.0 1202.0Q128 1179 128 1152V896Q128 869 138.0 845.5Q148 822 165.0 805.0Q182 788 205.5 778.0Q229 768 256 768ZM1472 1056Q1472 1096 1500.0 1124.0Q1528 1152 1568 1152Q1608 1152 1636.0 1124.0Q1664 1096 1664 1056Q1664 1016 1636.0 988.0Q1608 960 1568 960Q1528 960 1500.0 988.0Q1472 1016 1472 1056Z"/>
  </g>
</svg>