<?xml version="1.0" encoding="utf-8"?>
<svg xmlns="http://www.w3.org/2000/svg" width="16" height="16" viewBox="0 0 2048 2048">
  <g transform="translate(0, 2048) scale(1, -1)">
    <path fill="#000000" d="M802 128H632Q557 128 488.5 158.5Q420 189 368.5 240.5Q317 292 286.5 360.5Q256 429 256 504V1280Q256 1384 282.0 1481.0Q308 1578 357.5 1663.5Q407 1749 478.0 1820.0Q549 1891 639 1944Q817 2048 1024 2048Q1183 2048 1322.5 1987.5Q1462 1927 1566.5 1822.5Q1671 1718 1731.5 1578.5Q1792 1439 1792 1280V891Q1792 841 1771.5 795.5Q1751 750 1716.5 715.5Q1682 681 1636.5 660.5Q1591 640 1541 640H1408Q1354 640 1317 677Q1280 714 1280 768V1152Q1280 1179 1290.0 1202.0Q1300 1225 1317.5 1242.5Q1335 1260 1358.0 1270.0Q1381 1280 1408 1280H1664Q1664 1413 1614.0 1529.5Q1564 1646 1477.0 1733.0Q1390 1820 1273.5 1870.0Q1157 1920 1024 1920Q891 1920 774.5 1870.0Q658 1820 571.0 1733.0Q484 1646 434.0 1529.5Q384 1413 384 1280H640Q666 1280 689.5 1270.0Q713 1260 730.5 1242.5Q748 1225 758.0 1201.5Q768 1178 768 1152V768Q768 741 758.0 718.0Q748 695 730.5 677.5Q713 660 690.0 650.0Q667 640 640 640H384V512Q384 461 404.0 414.5Q424 368 458.0 333.0Q492 298 537.5 277.0Q583 256 635 256H768V261Q768 313 789.0 358.5Q810 404 845.0 438.0Q880 472 926.5 492.0Q973 512 1024 512Q1076 512 1123.0 491.5Q1170 471 1204.5 436.5Q1239 402 1259.5 355.0Q1280 308 1280 256Q1280 205 1260.0 158.5Q1240 112 1206.0 77.0Q1172 42 1126.5 21.0Q1081 0 1029 0Q957 0 897.0 32.5Q837 65 802 128ZM384 1152V768H640V1152ZM1536 768Q1563 768 1586.0 778.0Q1609 788 1626.5 805.5Q1644 823 1654.0 846.0Q1664 869 1664 896V1152H1408V768ZM1152 256Q1152 282 1142.0 305.5Q1132 329 1114.5 346.5Q1097 364 1073.5 374.0Q1050 384 1024 384Q997 384 974.0 374.0Q951 364 933.5 346.5Q916 329 906.0 306.0Q896 283 896 256Q896 229 906.0 205.5Q916 182 933.0 165.0Q950 148 973.5 138.0Q997 128 1024 128Q1051 128 1074.0 138.0Q1097 148 1114.5 165.5Q1132 183 1142.0 206.0Q1152 229 1152 256Z"/>
  </g>
</svg>