<?xml version="1.0" encoding="utf-8"?>
<svg xmlns="http://www.w3.org/2000/svg" width="16" height="16" viewBox="0 0 2048 2048">
  <g transform="translate(0, 2048) scale(1, -1)">
    <path fill="#ffffff" d="M704 512H576Q550 512 531.0 531.0Q512 550 512 576V960Q512 986 531.0 1005.0Q550 1024 576 1024H768V1088Q768 1155 743.0 1213.0Q718 1271 674.5 1314.5Q631 1358 573.0 1383.0Q515 1408 448 1408Q384 1408 326.0 1383.5Q268 1359 224.0 1316.5Q180 1274 154.0 1217.0Q128 1160 128 1095V1024H320Q346 1024 365.0 1005.0Q384 986 384 960V576Q384 550 365.0 531.0Q346 512 320 512H192Q153 512 118.0 527.0Q83 542 56.5 568.5Q30 595 15.0 630.0Q0 665 0 704V1096Q0 1187 36.5 1267.0Q73 1347 134.5 1407.0Q196 1467 277.5 1501.5Q359 1536 448 1536Q537 1536 618.5 1501.5Q700 1467 761.5 1407.0Q823 1347 859.5 1267.0Q896 1187 896 1096V704Q896 665 881.0 630.0Q866 595 839.5 568.5Q813 542 778.0 527.0Q743 512 704 512ZM256 896H128V704Q128 678 147.0 659.0Q166 640 192 640H256ZM768 896H640V640H704Q730 640 749.0 659.0Q768 678 768 704Z"/>
  </g>
</svg>