<?xml version="1.0" encoding="utf-8"?>
<svg id="" width="16" height="16" style="width:16px;height:16px;" version="1.1" xmlns="http://www.w3.org/2000/svg" viewBox="0 0 2048 2048" enable-background="new 0 0 2048 2048" xml:space="preserve">
    <path fill="#000" d="M2048 1024 l0 666.29 q0 72 -29.14 137.14 q-29.14 65.14 -77.72 113.71 q-48.57 48.57 -113.71 77.72 q-65.14 29.14 -137.14 29.14 l-300.58 0 q-29.71 0 -51.43 -21.72 q-21.71 -21.71 -21.71 -51.42 l0 -731.43 q0 -29.72 21.71 -51.43 q21.72 -21.71 51.43 -21.71 l512 0 l0 -146.29 q0 -181.71 -69.14 -341.14 q-69.14 -159.43 -188.57 -278.86 q-119.43 -119.43 -278.86 -188.57 q-159.43 -69.14 -341.14 -69.14 q-181.71 0 -341.14 69.14 q-159.43 69.14 -278.86 188.57 q-119.43 119.43 -188.57 278.86 q-69.14 159.43 -69.14 341.14 l0 146.29 l512 0 q29.71 0 51.42 21.71 q21.72 21.71 21.72 51.43 l0 731.43 q0 29.71 -21.72 51.42 q-21.71 21.72 -51.42 21.72 l-300.58 0 q-72 0 -137.14 -29.14 q-65.14 -29.14 -113.71 -77.72 q-48.57 -48.57 -77.72 -113.71 q-29.14 -65.14 -29.14 -137.14 l0 -666.29 q0 -141.71 36.57 -272.57 q36.57 -130.86 103.43 -244.58 q66.86 -113.72 160 -206.86 q93.14 -93.14 206.86 -160 q113.72 -66.86 244.58 -103.43 q130.86 -36.57 272.57 -36.57 q140.57 0 271.43 36.57 q130.86 36.57 244.57 103.43 q113.71 66.86 207.43 160.58 q93.71 93.71 160.57 207.42 q66.86 113.71 103.43 244.57 q36.57 130.86 36.57 271.43 ZM585.14 1901.71 l0 -585.14 l-438.85 0 l0 365.72 q0 44.57 17.14 84.57 q17.14 40 47.42 70.29 q30.28 30.29 70.28 47.43 q40 17.14 84.57 17.14 l219.43 0 ZM1901.71 1316.57 l-438.85 0 l0 585.14 l219.43 0 q44.57 0 84.57 -17.14 q40 -17.14 70.29 -47.43 q30.29 -30.29 47.43 -70.29 q17.14 -40 17.14 -84.57 l0 -365.72 Z"/>
</svg>