<?xml version="1.0" encoding="utf-8"?>
<svg xmlns="http://www.w3.org/2000/svg" width="16" height="16" viewBox="0 0 2048 2048">
  <g transform="translate(0, 2048) scale(1, -1)">
    <path fill="#ffffff" d="M704 512H576Q550 512 531.0 531.0Q512 550 512 576V960Q512 986 531.0 1005.0Q550 1024 576 1024H768V1088Q768 1155 743.0 1213.0Q718 1271 674.5 1314.5Q631 1358 573.0 1383.0Q515 1408 448 1408Q384 1408 326.0 1383.5Q268 1359 224.0 1316.5Q180 1274 154.0 1217.0Q128 1160 128 1095V1024H320Q346 1024 365.0 1005.0Q384 986 384 960V576Q384 550 365.0 531.0Q346 512 320 512H192Q153 512 118.0 527.0Q83 542 56.5 568.5Q30 595 15.0 630.0Q0 665 0 704V1096Q0 1187 36.5 1267.0Q73 1347 134.5 1407.0Q196 1467 277.5 1501.5Q359 1536 448 1536Q537 1536 618.5 1501.5Q700 1467 761.5 1407.0Q823 1347 859.5 1267.0Q896 1187 896 1096V704Q896 665 881.0 630.0Q866 595 839.5 568.5Q813 542 778.0 527.0Q743 512 704 512ZM1280 1024Q1280 977 1271.5 927.5Q1263 878 1246.5 830.0Q1230 782 1205.5 738.5Q1181 695 1150 659Q1129 636 1100 636Q1073 636 1054.5 654.0Q1036 672 1036 699Q1036 712 1039.5 721.0Q1043 730 1051 740Q1099 806 1125.5 873.5Q1152 941 1152 1024Q1152 1107 1125.5 1174.5Q1099 1242 1051 1308Q1043 1318 1039.5 1327.0Q1036 1336 1036 1349Q1036 1376 1054.5 1394.0Q1073 1412 1100 1412Q1129 1412 1149 1389Q1181 1353 1205.5 1309.5Q1230 1266 1246.5 1218.5Q1263 1171 1271.5 1121.5Q1280 1072 1280 1024ZM256 896H128V704Q128 678 147.0 659.0Q166 640 192 640H256ZM768 896H640V640H704Q730 640 749.0 659.0Q768 678 768 704Z"/>
  </g>
</svg>