<?xml version="1.0" encoding="utf-8"?>
<svg xmlns="http://www.w3.org/2000/svg" width="16" height="16" viewBox="0 0 2048 2048">
  <g transform="translate(0, 2048) scale(1, -1)">
    <path fill="#ffffff" d="M2048 1024Q2048 776 1941 553Q1916 502 1883.5 449.0Q1851 396 1812.0 346.5Q1773 297 1729.5 253.0Q1686 209 1640 175Q1631 168 1621.5 164.5Q1612 161 1600 161Q1574 161 1555.0 180.0Q1536 199 1536 225Q1536 242 1542.0 253.0Q1548 264 1560 275Q1571 286 1583 295L1598 308Q1610 318 1621 328Q1685 388 1736.5 458.5Q1788 529 1826 608Q1874 707 1897.0 811.0Q1920 915 1920 1024Q1920 1133 1897.0 1237.0Q1874 1341 1826 1440Q1788 1519 1736.5 1590.0Q1685 1661 1621 1721Q1606 1735 1590.0 1747.5Q1574 1760 1560 1774Q1548 1785 1542.0 1796.0Q1536 1807 1536 1824Q1536 1851 1554.5 1869.0Q1573 1887 1600 1887Q1612 1887 1621.0 1883.5Q1630 1880 1640 1873Q1687 1839 1730.5 1795.0Q1774 1751 1812.5 1701.5Q1851 1652 1883.5 1599.5Q1916 1547 1941 1495Q2048 1272 2048 1024ZM1664 1024Q1664 848 1593 688Q1578 653 1556.0 614.0Q1534 575 1507.5 537.0Q1481 499 1451.5 465.5Q1422 432 1392 408Q1382 400 1372.0 396.0Q1362 392 1349 392Q1323 392 1303.5 410.5Q1284 429 1284 455Q1284 471 1289.5 481.5Q1295 492 1306 503Q1416 611 1476.0 739.0Q1536 867 1536 1024Q1536 1181 1476.0 1309.0Q1416 1437 1306 1545Q1295 1556 1289.5 1566.5Q1284 1577 1284 1593Q1284 1619 1303.5 1637.5Q1323 1656 1349 1656Q1363 1656 1372.0 1652.5Q1381 1649 1392 1640Q1423 1614 1452.5 1581.0Q1482 1548 1508.0 1511.0Q1534 1474 1555.5 1435.5Q1577 1397 1593 1360Q1664 1200 1664 1024ZM704 512H576Q550 512 531.0 531.0Q512 550 512 576V960Q512 986 531.0 1005.0Q550 1024 576 1024H768V1088Q768 1155 743.0 1213.0Q718 1271 674.5 1314.5Q631 1358 573.0 1383.0Q515 1408 448 1408Q384 1408 326.0 1383.5Q268 1359 224.0 1316.5Q180 1274 154.0 1217.0Q128 1160 128 1095V1024H320Q346 1024 365.0 1005.0Q384 986 384 960V576Q384 550 365.0 531.0Q346 512 320 512H192Q153 512 118.0 527.0Q83 542 56.5 568.5Q30 595 15.0 630.0Q0 665 0 704V1096Q0 1187 36.5 1267.0Q73 1347 134.5 1407.0Q196 1467 277.5 1501.5Q359 1536 448 1536Q537 1536 618.5 1501.5Q700 1467 761.5 1407.0Q823 1347 859.5 1267.0Q896 1187 896 1096V704Q896 665 881.0 630.0Q866 595 839.5 568.5Q813 542 778.0 527.0Q743 512 704 512ZM1100 1412Q1129 1412 1149 1389Q1181 1353 1205.5 1309.5Q1230 1266 1246.5 1218.5Q1263 1171 1271.5 1121.5Q1280 1072 1280 1024Q1280 977 1271.5 927.5Q1263 878 1246.5 830.0Q1230 782 1205.5 738.5Q1181 695 1150 659Q1129 636 1100 636Q1073 636 1054.5 654.0Q1036 672 1036 699Q1036 712 1039.5 721.0Q1043 730 1051 740Q1099 806 1125.5 873.5Q1152 941 1152 1024Q1152 1107 1125.5 1174.5Q1099 1242 1051 1308Q1043 1318 1039.5 1327.0Q1036 1336 1036 1349Q1036 1376 1054.5 1394.0Q1073 1412 1100 1412ZM256 896H128V704Q128 678 147.0 659.0Q166 640 192 640H256ZM768 896H640V640H704Q730 640 749.0 659.0Q768 678 768 704Z"/>
  </g>
</svg>