<?xml version="1.0" encoding="utf-8"?>
<svg xmlns="http://www.w3.org/2000/svg" width="16" height="16" viewBox="0 0 2048 2048">
  <g transform="translate(0, 2048) scale(1, -1)">
    <path fill="#ffffff" d="M1792 1418Q1792 1522 1750.5 1613.5Q1709 1705 1638.5 1773.0Q1568 1841 1475.5 1880.5Q1383 1920 1280 1920Q1254 1920 1235.0 1939.0Q1216 1958 1216 1984Q1216 2010 1235.0 2029.0Q1254 2048 1280 2048Q1413 2048 1529.5 1998.0Q1646 1948 1733.0 1861.0Q1820 1774 1870.0 1657.5Q1920 1541 1920 1408Q1920 1382 1901.0 1363.0Q1882 1344 1856 1344Q1823 1344 1807.5 1366.5Q1792 1389 1792 1418ZM1536 1413Q1536 1465 1515.0 1510.5Q1494 1556 1459.0 1590.0Q1424 1624 1377.5 1644.0Q1331 1664 1280 1664Q1254 1664 1235.0 1683.0Q1216 1702 1216 1728Q1216 1760 1237.5 1776.0Q1259 1792 1288 1792Q1363 1792 1431.5 1761.5Q1500 1731 1551.5 1679.5Q1603 1628 1633.5 1559.5Q1664 1491 1664 1416Q1664 1387 1648.0 1365.5Q1632 1344 1600 1344Q1571 1344 1553.5 1364.5Q1536 1385 1536 1413ZM507 0Q457 0 411.5 20.5Q366 41 331.5 75.5Q297 110 276.5 155.5Q256 201 256 251V1285Q256 1335 276.5 1380.5Q297 1426 331.5 1460.5Q366 1495 411.5 1515.5Q457 1536 507 1536H1157Q1207 1536 1252.5 1515.5Q1298 1495 1332.5 1460.5Q1367 1426 1387.5 1380.5Q1408 1335 1408 1285V251Q1408 201 1387.5 155.5Q1367 110 1332.5 75.5Q1298 41 1252.5 20.5Q1207 0 1157 0ZM1152 128Q1179 128 1202.0 138.0Q1225 148 1242.5 165.5Q1260 183 1270.0 206.0Q1280 229 1280 256V1280Q1280 1306 1270.0 1329.5Q1260 1353 1242.5 1370.5Q1225 1388 1201.5 1398.0Q1178 1408 1152 1408H512Q485 1408 462.0 1398.0Q439 1388 421.5 1370.5Q404 1353 394.0 1330.0Q384 1307 384 1280V256Q384 229 394.0 205.5Q404 182 421.0 165.0Q438 148 461.5 138.0Q485 128 512 128ZM576 1024V1029Q576 1081 597.0 1126.5Q618 1172 653.0 1206.0Q688 1240 734.5 1260.0Q781 1280 832 1280Q884 1280 931.0 1259.5Q978 1239 1012.5 1204.5Q1047 1170 1067.5 1123.0Q1088 1076 1088 1024Q1088 971 1067.5 924.5Q1047 878 1012.5 843.5Q978 809 931.0 788.5Q884 768 832 768Q779 768 732.5 788.5Q686 809 651.5 843.5Q617 878 596.5 924.5Q576 971 576 1024ZM960 1024Q960 1050 950.0 1073.5Q940 1097 922.5 1114.5Q905 1132 881.5 1142.0Q858 1152 832 1152Q805 1152 782.0 1142.0Q759 1132 741.5 1114.5Q724 1097 714.0 1074.0Q704 1051 704 1024Q704 997 714.0 973.5Q724 950 741.0 933.0Q758 916 781.5 906.0Q805 896 832 896Q859 896 882.0 906.0Q905 916 922.5 933.5Q940 951 950.0 974.0Q960 997 960 1024ZM704 448Q704 475 714.0 498.0Q724 521 741.5 538.5Q759 556 782.0 566.0Q805 576 832 576Q858 576 881.5 566.0Q905 556 922.5 538.5Q940 521 950.0 497.5Q960 474 960 448Q960 421 950.0 398.0Q940 375 922.5 357.5Q905 340 882.0 330.0Q859 320 832 320Q805 320 781.5 330.0Q758 340 741.0 357.0Q724 374 714.0 397.5Q704 421 704 448Z"/>
  </g>
</svg>