<?xml version="1.0" encoding="utf-8"?>
<svg xmlns="http://www.w3.org/2000/svg" width="16" height="16" viewBox="0 0 2048 2048">
  <g transform="translate(0, 2048) scale(1, -1)">
    <path fill="#ffffff" d="M40 1152Q20 1203 10.0 1255.5Q0 1308 0 1362Q0 1477 43.0 1578.5Q86 1680 160.5 1756.0Q235 1832 335.5 1876.0Q436 1920 552 1920Q658 1920 757.5 1881.0Q857 1842 933 1768Q945 1757 956 1745L1000 1700Q1012 1689 1023 1677Q1046 1700 1068.0 1723.0Q1090 1746 1113 1768Q1189 1841 1286.5 1879.5Q1384 1918 1490 1918Q1606 1918 1708.0 1873.0Q1810 1828 1885.5 1751.5Q1961 1675 2004.5 1572.0Q2048 1469 2048 1354Q2048 1302 2039.0 1251.0Q2030 1200 2011 1152H1870Q1920 1247 1920 1355Q1920 1444 1886.5 1523.0Q1853 1602 1794.5 1661.0Q1736 1720 1658.0 1754.5Q1580 1789 1490 1789Q1403 1789 1327.0 1757.5Q1251 1726 1190 1664Q1171 1644 1152.5 1625.0Q1134 1606 1114 1587Q1076 1549 1023 1549Q970 1549 932 1587Q922 1597 912 1607L875 1645Q865 1655 855 1665Q795 1726 716.5 1759.0Q638 1792 552 1792Q463 1792 385.5 1758.0Q308 1724 251.0 1665.5Q194 1607 161.0 1529.0Q128 1451 128 1363Q128 1307 142.0 1254.0Q156 1201 182 1152ZM1021 640Q1005 640 989.5 650.5Q974 661 967 675L696 1217L501 925Q482 896 448 896H64Q38 896 19.0 915.0Q0 934 0 960Q0 986 19.0 1005.0Q38 1024 64 1024H414L651 1380Q660 1394 674.5 1401.0Q689 1408 705 1408Q722 1408 737.5 1398.5Q753 1389 761 1373L1030 835L1290 1250Q1309 1280 1343 1280Q1370 1280 1389 1261L1627 1024H1984Q2010 1024 2029.0 1005.0Q2048 986 2048 960Q2048 934 2029.0 915.0Q2010 896 1984 896H1600Q1574 896 1555 915L1356 1114L1078 670Q1059 640 1021 640ZM358 768H538L1027 274L1516 768H1697L1088 153Q1063 128 1027 128Q992 128 967 153Z"/>
  </g>
</svg>