<?xml version="1.0" encoding="utf-8"?>
<svg xmlns="http://www.w3.org/2000/svg" width="16" height="16" viewBox="0 0 2048 2048">
  <g transform="translate(0, 2048) scale(1, -1)">
    <path fill="#000000" d="M1024 1920Q936 1920 854.0 1897.0Q772 1874 701.0 1832.5Q630 1791 571.5 1732.5Q513 1674 471.5 1603.0Q430 1532 407.0 1450.0Q384 1368 384 1280Q384 1219 395.5 1159.0Q407 1099 430 1042Q456 1061 487.0 1072.0Q518 1083 550 1087Q512 1180 512 1280Q512 1386 552.0 1479.5Q592 1573 661.5 1642.5Q731 1712 824.5 1752.0Q918 1792 1024 1792Q1072 1792 1123.0 1781.5Q1174 1771 1222.5 1751.5Q1271 1732 1314.0 1703.5Q1357 1675 1390 1638Q1398 1628 1403.0 1617.5Q1408 1607 1408 1593Q1408 1567 1389.5 1548.5Q1371 1530 1344 1530Q1330 1530 1319.5 1535.0Q1309 1540 1298 1549Q1286 1560 1275.0 1570.5Q1264 1581 1250 1591Q1201 1626 1143.0 1645.0Q1085 1664 1024 1664Q944 1664 874.5 1634.0Q805 1604 752.5 1551.5Q700 1499 670.0 1429.0Q640 1359 640 1280Q640 1222 655.0 1173.5Q670 1125 699 1075Q702 1069 704.5 1063.5Q707 1058 708 1051Q766 1016 799.0 958.0Q832 900 832 832Q832 779 812.0 732.5Q792 686 757.0 651.0Q722 616 675.5 596.0Q629 576 576 576Q523 576 476.5 596.0Q430 616 395.0 651.0Q360 686 340.0 732.5Q320 779 320 832Q320 883 340 931Q298 1012 277.0 1100.5Q256 1189 256 1280Q256 1386 283.5 1484.0Q311 1582 361.0 1667.5Q411 1753 481.0 1823.0Q551 1893 636.5 1943.0Q722 1993 820.0 2020.5Q918 2048 1024 2048H1152Q1255 2048 1352.0 2022.5Q1449 1997 1534.5 1950.0Q1620 1903 1690.5 1836.5Q1761 1770 1812.0 1688.0Q1863 1606 1891.5 1510.5Q1920 1415 1920 1310Q1920 1171 1882.0 1054.0Q1844 937 1750 832Q1729 808 1708.0 795.0Q1687 782 1664.5 776.0Q1642 770 1617.0 769.0Q1592 768 1563 768Q1557 761 1550.5 755.0Q1544 749 1537 743Q1503 709 1478.5 676.0Q1454 643 1438.5 608.0Q1423 573 1415.5 533.0Q1408 493 1408 446Q1408 353 1372.5 272.0Q1337 191 1276.0 130.5Q1215 70 1133.5 35.0Q1052 0 960 0Q915 0 868.0 10.0Q821 20 777.0 39.0Q733 58 694.0 85.5Q655 113 626 149Q610 168 610 192Q610 219 628.5 237.5Q647 256 674 256Q689 256 700.0 251.0Q711 246 722 235Q734 224 735.5 221.5Q737 219 737 219Q737 219 739.0 217.0Q741 215 753 204Q796 167 849.5 147.5Q903 128 960 128Q1027 128 1085.5 153.5Q1144 179 1187.0 222.5Q1230 266 1255.0 324.5Q1280 383 1280 450Q1280 510 1290.5 562.0Q1301 614 1322.0 660.5Q1343 707 1374.5 750.5Q1406 794 1449 836Q1506 893 1546.5 943.5Q1587 994 1613.5 1049.0Q1640 1104 1652.0 1167.5Q1664 1231 1664 1312Q1664 1399 1640.0 1478.0Q1616 1557 1573.5 1624.5Q1531 1692 1471.5 1746.5Q1412 1801 1340.5 1839.5Q1269 1878 1189.0 1899.0Q1109 1920 1024 1920ZM976 1215Q1005 1215 1026 1191Q1088 1117 1120.0 1022.0Q1152 927 1152 832Q1152 736 1120.0 641.0Q1088 546 1025 472Q1004 448 975 448Q949 448 930.0 467.0Q911 486 911 512Q911 533 925 552Q972 618 998.0 683.5Q1024 749 1024 832Q1024 914 998.5 979.5Q973 1045 926 1111Q919 1120 915.5 1129.5Q912 1139 912 1151Q912 1177 931.0 1196.0Q950 1215 976 1215Z"/>
  </g>
</svg>