<?xml version="1.0" encoding="utf-8"?>
<svg xmlns="http://www.w3.org/2000/svg" width="16" height="16" viewBox="0 0 2048 2048">
  <g transform="translate(0, 2048) scale(1, -1)">
    <path fill="#ffffff" d="M2048 1355Q2048 1245 2006.5 1141.5Q1965 1038 1887 960L1088 153Q1063 128 1027 128Q992 128 967 153L163 965Q84 1045 42.0 1148.0Q0 1251 0 1363Q0 1478 43.0 1579.0Q86 1680 160.5 1756.0Q235 1832 335.5 1876.0Q436 1920 552 1920Q664 1920 765.5 1877.0Q867 1834 946 1755L1023 1677L1099 1754Q1177 1832 1278.0 1874.5Q1379 1917 1490 1917Q1607 1917 1708.5 1872.5Q1810 1828 1885.5 1751.5Q1961 1675 2004.5 1573.0Q2048 1471 2048 1355ZM1920 1355Q1920 1444 1886.5 1523.0Q1853 1602 1794.5 1661.0Q1736 1720 1658.0 1754.5Q1580 1789 1490 1789Q1405 1789 1327.5 1756.5Q1250 1724 1190 1664Q1187 1661 1174.5 1648.0Q1162 1635 1148.0 1621.0Q1134 1607 1122.5 1595.5Q1111 1584 1109 1583V1582L957 1410L1291 1069Q1309 1051 1309 1024Q1309 999 1292 980L1073 745Q1053 724 1026 724Q999 724 980.5 742.5Q962 761 962 788Q962 813 979 832L1157 1023L824 1363Q806 1381 806 1408Q806 1422 809.5 1431.0Q813 1440 822 1450L938 1581Q928 1592 917 1602L876 1644Q866 1655 855 1665Q795 1726 716.5 1759.0Q638 1792 552 1792Q463 1792 385.5 1758.0Q308 1724 251.0 1666.0Q194 1608 161.0 1529.5Q128 1451 128 1363Q128 1276 160.5 1196.5Q193 1117 254 1055L1027 274L1796 1050Q1856 1110 1888.0 1190.0Q1920 1270 1920 1355Z"/>
  </g>
</svg>