<?xml version="1.0" encoding="utf-8"?>
<svg id="" width="16" height="16" style="width:16px;height:16px;" version="1.1"
    xmlns="http://www.w3.org/2000/svg" viewBox="0 0 2048 2048" enable-background="new 0 0 2048 2048"
    xml:space="preserve"><path fill="#000000" transform="translate(0, 100)" d="M0 557 q0 -115 43 -216 q43 -101 117.5 -177 q74.5 -76 175 -120 q100.5 -44 216.5 -44 q112 0 213.5 43 q101.5 43 180.5 122 q20 20 38.5 39 q18.5 19 38.5 39 q19 -20 37.5 -39 q18.5 -19 38.5 -38 q78 -78 179 -120.5 q101 -42.5 212 -42.5 q116 0 218 44.5 q102 44.5 177.5 121 q75.5 76.5 119 178.5 q43.5 102 43.5 218 q0 110 -41.5 213.5 q-41.5 103.5 -119.5 181.5 l-799 807 q-25 25 -61 25 q-35 0 -60 -25 l-804 -812 q-79 -80 -121 -183 q-42 -103 -42 -215 ZM1920 565 q0 -89 -33.5 -168 q-33.5 -79 -92 -138 q-58.5 -59 -136.5 -93.5 q-78 -34.5 -168 -34.5 q-85 0 -162.5 32.5 q-77.5 32.5 -137.5 92.5 q-19 19 -37.5 39 q-18.5 20 -38.5 38 q-20 19 -41.5 28 q-21.5 9 -49.5 9 q-27 0 -49 -9.5 q-22 -9.5 -42 -27.5 q-20 -19 -38.5 -38.5 q-18.5 -19.5 -38.5 -39.5 q-62 -61 -138.5 -94 q-76.5 -33 -164.5 -33 q-89 0 -166.5 34 q-77.5 34 -134.5 92 q-57 58 -90 136.5 q-33 78.5 -33 166.5 q0 86 33 166.5 q33 80.5 93 141.5 l773 781 l769 -776 q60 -61 92 -140.5 q32 -79.5 32 -164.5 Z"/></svg>