<?xml version="1.0" encoding="utf-8"?>
<svg xmlns="http://www.w3.org/2000/svg" width="16" height="16" viewBox="0 0 2048 2048">
  <g transform="translate(0, 2048) scale(1, -1)">
    <path fill="#ffffff" d="M0 1363Q0 1478 43.0 1579.0Q86 1680 160.5 1756.0Q235 1832 335.5 1876.0Q436 1920 552 1920Q665 1920 765.5 1877.0Q866 1834 946 1755Q956 1745 966 1735L1003 1697Q1013 1687 1023 1677Q1042 1697 1060.5 1716.0Q1079 1735 1099 1754Q1180 1832 1278.5 1874.5Q1377 1917 1490 1917Q1606 1917 1708.0 1872.5Q1810 1828 1885.5 1751.5Q1961 1675 2004.5 1573.0Q2048 1471 2048 1355Q2048 1245 2006.5 1141.5Q1965 1038 1887 960L1088 153Q1063 128 1027 128Q992 128 967 153L163 965Q85 1044 42.5 1147.5Q0 1251 0 1363Z"/>
  </g>
</svg>