<?xml version="1.0" encoding="utf-8"?>
<svg xmlns="http://www.w3.org/2000/svg" width="16" height="16" viewBox="0 0 2048 2048">
  <g transform="translate(0, 2048) scale(1, -1)">
    <path fill="#000000" d="M512 1418Q512 1522 553.5 1613.5Q595 1705 665.5 1773.0Q736 1841 828.5 1880.5Q921 1920 1024 1920Q1127 1920 1219.5 1880.5Q1312 1841 1382.5 1773.0Q1453 1705 1494.5 1613.5Q1536 1522 1536 1418Q1536 1389 1520.0 1366.5Q1504 1344 1472 1344Q1441 1344 1424.5 1365.5Q1408 1387 1408 1416Q1408 1494 1377.0 1562.5Q1346 1631 1293.5 1682.0Q1241 1733 1171.0 1762.5Q1101 1792 1024 1792Q947 1792 877.0 1762.5Q807 1733 754.5 1682.0Q702 1631 671.0 1562.5Q640 1494 640 1416Q640 1379 645.5 1344.5Q651 1310 665 1276Q679 1244 699.0 1216.5Q719 1189 742.0 1165.0Q765 1141 790.5 1118.5Q816 1096 842 1073Q896 1025 941.0 980.5Q986 936 1019.0 886.0Q1052 836 1070.0 776.5Q1088 717 1088 640V576Q1088 550 1069.0 531.0Q1050 512 1024 512Q1002 512 989.0 520.5Q976 529 969.5 542.5Q963 556 961.5 573.0Q960 590 960 607V640Q960 704 940.5 754.0Q921 804 889.5 845.5Q858 887 818.0 922.5Q778 958 736.0 994.5Q694 1031 653.5 1071.5Q613 1112 581.5 1161.5Q550 1211 531.0 1274.0Q512 1337 512 1418ZM928 224Q928 264 956.0 292.0Q984 320 1024 320Q1064 320 1092.0 292.0Q1120 264 1120 224Q1120 184 1092.0 156.0Q1064 128 1024 128Q984 128 956.0 156.0Q928 184 928 224Z"/>
  </g>
</svg>