<?xml version="1.0" encoding="utf-8"?>
<svg xmlns="http://www.w3.org/2000/svg" height="16" width="16" viewBox="0 0 16 16">
  <g>
    <path id="path1" transform="rotate(0,8,8) translate(0,0.00390625) scale(0.03125,0.03125)  " fill="#FFFFFF" d="M304.25,378.25L300.3125,378.59375 296.5,379.625 292.9375,381.3125 289.75,383.625 287.03125,386.46875 284.875,389.75 283.46875,393.4375 283,397.5 283.4375,401.5625 284.75,405.25 286.8125,408.5 289.5,411.25 292.71875,413.46875 296.375,415.125 300.28125,416.15625 304.25,416.5 308.25,416.1796875 312,415.21875 315.5,413.6171875 318.75,411.375 321.484375,408.5859375 323.4375,405.34375 324.609375,401.6484375 325,397.5 324.5625,393.59375 323.25,389.875 321.21875,386.53125 318.625,383.75 315.53125,381.5 312,379.75 308.1875,378.625 304.25,378.25z M306.25,213.25L294.4375,214 283,216.25 277.4375,217.953125 272,220.0625 266.6875,222.578125 261.5,225.5 261.5,259.5 265.640625,255.8203125 270.0625,252.53125 274.765625,249.6328125 279.75,247.125 284.9375,245.101577758789 290.25,243.65625 295.6875,242.7890625 301.25,242.5 305.75,242.8359375 310,243.84375 314,245.523452758789 317.75,247.875 320.921875,250.8515625 323.1875,254.40625 324.546875,258.5390625 325,263.25 324.25,269.4375 322,275 318.625,280.09375 314.5,284.875 304.875,294.125 295.25,304 291.125,309.46875 287.75,315.375 285.5,321.96875 284.75,329.5 285.25,338.625 286.0625,343.28125 287.5,347.5 318,347.5 316.359375,344.25 315.1875,340.75 314.484375,337 314.25,333 314.4609375,329.6015625 315.09375,326.40625 316.1484375,323.4140625 317.625,320.625 321.40625,315.40625 326,310.5 331.21875,305.71875 336.875,300.875 342.53125,295.625 347.75,289.625 352.34375,282.78125 356.125,275 357.6015625,270.65625 358.65625,265.875 359.2890625,260.65625 359.5,255 359.203125,249.695327758789 358.3125,244.78125 356.828125,240.2578125 354.75,236.125 349.3125,228.9375 342.5,223.125 334.5,218.6875 325.5,215.625 315.9375,213.84375 306.25,213.25z M304.25,127L316.265625,127.3984375 328.0625,128.59375 339.640625,130.5859375 351,133.375 362.0625,136.8828125 372.75,141.03125 383.0625,145.8203125 393,151.25 402.531219482422,157.289077758789 411.624969482422,163.90625 420.28125,171.1015625 428.5,178.875 436.21875,187.15625 443.375,195.875 449.96875,205.031265258789 456,214.625 461.421875,224.6171875 466.1875,234.96875 470.296875,245.6796875 473.75,256.75 476.484344482422,268.109375 478.437469482422,279.6875 479.609344482422,291.484375 480,303.5 479.734375,313.37890625 478.937469482422,323.140625 477.609344482422,332.78515625 475.749969482422,342.3125 473.359344482422,351.72265625 470.4375,361.015625 466.984375,370.19140625 463,379.25 463.8046875,381.28125 464.968719482422,384.125 466.492156982422,387.78125 468.375,392.25 472.843719482422,402.75 478,414.75 483.625,427.90625 489.5,441.875 495.25,455.71875 500.5,468.5 502.890625,474.3984375 505.0625,479.84375 507.015625,484.8359375 508.75,489.375 510.171875,493.2421875 511.1875,496.21875 511.796875,498.3046875 512,499.5 511.7578125,502.015625 511.03125,504.3125 509.8203125,506.390625 508.125,508.25 506.1171875,509.78125 503.96875,510.875 501.6796875,511.53125 499.25,511.75 497.953125,511.546875 495.8125,510.9375 492.828125,509.921875 489,508.5 484.515625,506.765625 479.5625,504.8125 474.140625,502.640625 468.25,500.25 455.499969482422,495.03125 441.75,489.375 427.874969482422,483.625 414.75,478.125 408.562469482422,475.5078125 402.749969482422,473.03125 397.312469482422,470.6953125 392.25,468.5 387.78125,466.5625 384.125,465 381.28125,463.8125 379.25,463 370.19140625,466.984375 361.015625,470.4375 351.72265625,473.359375 342.3125,475.75 332.78515625,477.609375 323.140625,478.9375 313.37890625,479.734375 303.5,480 291.375,479.609375 279.5,478.4375 267.875,476.484375 256.5,473.75 245.429672241211,470.296875 234.718734741211,466.1875 224.367172241211,461.421875 214.375,456 204.78125,449.9609375 195.625,443.34375 186.90625,436.1484375 178.625,428.375 170.8515625,420.09375 163.65625,411.375 157.0390625,402.21875 151,392.625 145.578125,382.6328125 140.8125,372.28125 136.703125,361.5703125 133.25,350.5 130.515625,339.125 128.5625,327.5 127.390625,315.625 127,303.5 127.3984375,291.375 128.59375,279.5 130.5859375,267.875 133.375,256.5 136.8828125,245.4296875 141.03125,234.71875 145.8203125,224.3671875 151.25,214.375 157.296875,204.781265258789 163.9375,195.625 171.171875,186.90625 179,178.625 187.34375,170.8515625 196.125,163.65625 205.34375,157.039077758789 215,151 225.046875,145.578125 235.437484741211,140.812515258789 246.171859741211,136.703140258789 257.25,133.25 268.625,130.515625 280.25,128.5625 292.125,127.390625 304.25,127z M191.75,0.5L203.78125,0.93751859664917 215.624984741211,2.25002670288086 227.281234741211,4.43752145767212 238.75,7.5 249.9140625,11.3671989440918 260.65625,15.9687652587891 270.9765625,21.3046989440918 280.875,27.375 290.296875,34.1484603881836 299.1875,41.5937805175781 307.546875,49.7109603881836 315.375,58.5 322.5859375,67.8906326293945 329.09375,77.8125076293945 334.8984375,88.265625 340,99.25 330.53125,97.5937652587891 321.125,96.625 302.25,96 297.796875,88.8047027587891 292.9375,81.9687652587891 287.671875,75.4922027587891 282,69.375 275.9765625,63.6640853881836 269.65625,58.4062767028809 263.0390625,53.6015815734863 256.125,49.25 248.9453125,45.3593902587891 241.53125,41.9375228881836 233.8828125,38.9843902587891 226,36.5 217.921859741211,34.5312652587891 209.687484741211,33.1250228881836 201.296859741211,32.2812652587891 192.75,32 179.8203125,32.6328277587891 167.28125,34.5312728881836 155.1328125,37.6953277587891 143.375,42.125 132.171875,47.6484565734863 121.6875,54.0937767028809 111.921875,61.4609603881836 102.875,69.75 94.6484375,78.8515701293945 87.34375,88.6562652587891 80.9609375,99.1640701293945 75.5,110.375 71.125,122.132820129395 68,134.28125 66.125,146.8203125 65.5,159.75 65.8125,168.687515258789 66.75,177 68.21875,184.906265258789 70.125,192.625 72.46875,200.250015258789 75.25,207.875 82,223.75 48.75,303.25 97,283 96.25,293.5 96,304 96.75,318 95.2265625,318.625 93.15625,319.5 90.5390625,320.625 87.375,322 80,325.1875 71.625,328.75 62.53125,332.59375 53,336.625 43.5625,340.5625 34.75,344.125 26.84375,347.21875 20.125,349.75 17.3515625,350.734375 15.15625,351.4375 13.5390625,351.859375 12.5,352 10.078125,351.765625 7.81249952316284,351.0625 5.70312452316284,349.890625 3.75,348.25 2.109375,346.296875 0.9375,344.1875 0.234375,341.921875 0,339.5 0.195312514901161,338.328125 0.78125,336.3125 1.7578125,333.453125 3.125,329.75 4.7890625,325.3984375 6.65625,320.59375 8.7265625,315.3359375 11,309.625 16,297.3125 21.5,284.125 27.125,270.8125 32.5,258.125 37.4375,246.5 41.75,236.375 43.578125,232.0859375 45.0625,228.59375 46.203125,225.8984375 47,224 43.9375,216.4453125 41.25,208.78125 38.9375,201.0078125 37,193.125 35.46875,185.148452758789 34.375,177.09375 33.71875,168.9609375 33.5,160.75 33.693359375,152.619140625 34.2734375,144.601577758789 35.240234375,136.697280883789 36.59375,128.906265258789 38.333984375,121.228530883789 40.4609375,113.664077758789 42.974609375,106.212898254395 45.875,98.875 52.625,84.7656326293945 60.5,71.5625076293945 69.5,59.2656326293945 79.625,47.875 90.78125,37.5078239440918 102.875,28.2812690734863 115.90625,20.1953277587891 129.875,13.25 137.158203125,10.2617282867432 144.5703125,7.6718921661377 152.111328125,5.48049020767212 159.78125,3.68752288818359 167.580078125,2.29299020767212 175.5078125,1.2968921661377 183.564453125,0.699228763580322 191.75,0.5z" />
  </g>
</svg>

