<?xml version="1.0" encoding="utf-8"?>
<svg xmlns="http://www.w3.org/2000/svg" width="16" height="16" viewBox="0 0 2048 2048">
  <g transform="translate(0, 2048) scale(1, -1)">
    <path fill="#ffffff" d="M320 1126 109 915Q90 896 64 896Q38 896 19.0 915.0Q0 934 0 960Q0 986 19 1005L275 1261Q294 1280 320 1280Q346 1280 365 1261L621 1005Q640 986 640 960Q640 934 621.0 915.0Q602 896 576 896Q550 896 531 915ZM832 1024Q806 1024 787.0 1043.0Q768 1062 768 1088Q768 1114 787.0 1133.0Q806 1152 832 1152H1984Q2010 1152 2029.0 1133.0Q2048 1114 2048 1088Q2048 1062 2029.0 1043.0Q2010 1024 1984 1024Z"/>
  </g>
</svg>