<?xml version="1.0" encoding="utf-8"?>
<svg id="" width="16" height="16" style="width:16px;height:16px;" version="1.1"
    xmlns="http://www.w3.org/2000/svg" viewBox="0 0 2048 2048" enable-background="new 0 0 2048 2048"
    xml:space="preserve"><path fill="#ffffff" d="M2048 1983.03 q0 25.99 -18.99 44.98 q-18.99 18.99 -44.98 18.99 q-26.99 0 -45.98 -18.99 l-550.73 -550.73 q-66.96 91.95 -162.91 138.93 q-95.95 46.98 -208.9 46.98 q-87.95 0 -167.41 -35.99 q-79.47 -35.98 -139.94 -96.45 q-60.47 -60.47 -96.45 -139.93 q-35.98 -79.46 -35.98 -167.42 q0 -112.94 46.97 -208.9 q46.98 -95.96 138.94 -162.92 l-201.9 -201.9 q-127.94 81.96 -222.39 203.4 q-94.46 121.44 -146.43 263.37 q-7 19 -13 46.98 q-6 27.99 -15.99 54.47 q-10 26.48 -25.99 44.97 q-16 18.49 -41.98 18.49 q-25.98 0 -44.97 -18.99 q-18.99 -18.99 -18.99 -44.97 q0 -6 1.99 -16 q21.99 -96.95 62.47 -188.41 q40.48 -91.46 95.95 -173.92 q55.47 -82.46 125.44 -153.42 q69.96 -70.96 151.92 -127.93 l-448.78 -448.78 q-18.99 -18.99 -18.99 -44.98 q0 -26.99 19.49 -45.48 q19.49 -18.49 45.48 -18.49 q25.99 0 44.98 18.99 l1919.06 1919.06 q18.99 18.99 18.99 44.98 ZM810.6 538.74 l-101.95 -102.95 q75.97 -25.99 154.93 -38.99 q78.96 -13 159.92 -13 q143.93 0 277.37 40.98 q133.43 40.98 249.38 115.45 q115.95 74.47 210.89 177.92 q94.95 103.45 160.92 228.39 q10 17.99 25.99 55.47 q15.99 37.48 31.48 78.46 q15.5 40.98 26.49 78.46 q10.99 37.49 10.99 56.48 q0 26.98 -18.99 45.48 q-19 18.49 -45.98 18.49 q-25.99 0 -38.98 -13.49 q-13 -13.5 -21.99 -35.49 q-11 -25.99 -17.49 -53.97 q-6.5 -27.99 -15.5 -54.98 q-23.99 -68.96 -61.47 -136.43 q-37.48 -67.47 -82.46 -124.44 q-62.97 -80.96 -139.93 -145.43 q-76.96 -64.47 -164.92 -109.45 q-87.96 -44.97 -185.41 -69.46 q-97.45 -24.49 -200.4 -24.49 q-109.95 0 -212.9 26.99 ZM1295.37 1385.32 l-441.79 -441.78 q-73.96 47.98 -111.94 119.45 q-37.98 71.46 -37.98 159.41 q0 62.97 25.49 119.94 q25.49 56.98 67.97 99.46 q42.48 42.48 99.45 67.96 q56.97 25.49 119.94 25.49 q87.96 0 159.43 -37.98 q71.46 -37.98 119.44 -111.95 Z"/></svg>