<?xml version="1.0" encoding="utf-8"?>
<svg xmlns="http://www.w3.org/2000/svg" width="16" height="16" viewBox="0 0 2048 2048">
  <g transform="translate(0, 2048) scale(1, -1)">
    <path fill="#000000" d="M320 1344Q293 1344 269.5 1354.0Q246 1364 229.0 1381.0Q212 1398 202.0 1421.5Q192 1445 192 1472V1920H1408V1344ZM1536 1344V1920H1856V1472Q1856 1445 1846.0 1422.0Q1836 1399 1818.5 1381.5Q1801 1364 1778.0 1354.0Q1755 1344 1728 1344ZM576 64V960H1472V631Q1472 576 1443.5 530.0Q1415 484 1366 459Z"/>
  </g>
</svg>