<?xml version="1.0" encoding="utf-8"?>
<svg id="" width="16" height="16" style="width:16px;height:16px;" version="1.1"
    xmlns="http://www.w3.org/2000/svg" viewBox="0 0 2048 2048" enable-background="new 0 0 2048 2048"
    xml:space="preserve"><path fill="#ffffff" d="M2048 1024.5 q0 141.07 -36.52 272.13 q-36.52 131.07 -103.05 244.62 q-66.53 113.55 -160.08 207.1 q-93.55 93.55 -207.1 160.08 q-113.56 66.53 -244.62 103.05 q-131.07 36.52 -272.13 36.52 q-141.07 0 -272.13 -36.52 q-131.07 -36.52 -244.62 -103.05 q-113.56 -66.53 -207.1 -160.08 q-93.54 -93.55 -160.57 -207.1 q-67.03 -113.56 -103.55 -244.62 q-36.52 -131.07 -36.52 -272.13 q0 -26.01 19.01 -45.02 q19.01 -19.01 45.02 -19.01 q26.01 0 45.02 19.01 q19.01 19.01 19.01 45.02 q0 164.08 57.53 316.15 q57.53 152.08 165.58 275.13 q63.03 72.03 140.07 128.56 q77.04 56.53 163.08 95.55 q86.04 39.02 179.09 59.53 q93.05 20.51 189.1 20.51 q124.06 0 238.62 -32.01 q114.56 -32.02 214.61 -90.05 q100.05 -58.03 181.59 -139.57 q81.54 -81.54 140.07 -181.09 q58.53 -99.55 90.55 -214.11 q32.01 -114.56 32.01 -238.62 q0 -124.06 -32.01 -238.62 q-32.02 -114.55 -90.55 -214.11 q-58.53 -99.55 -140.07 -181.09 q-81.54 -81.54 -181.09 -140.07 q-99.55 -58.53 -214.11 -90.55 q-114.56 -32.01 -238.62 -32.01 q-110.05 0 -215.11 26.51 q-105.05 26.52 -199.6 76.04 q-94.55 49.52 -176.09 120.56 q-81.54 71.04 -143.57 161.08 l415.2 0 q26.02 0 45.03 19.01 q19.01 19.01 19.01 45.02 q0 26.01 -19.01 45.02 q-19.01 19.01 -45.03 19.01 l-512.25 0 q-21.01 0 -34.02 -8.5 q-13 -8.5 -20.01 -22.01 q-7 -13.5 -9 -30.01 q-2 -16.5 -2 -33.51 q0 -121.06 0.5 -241.12 q0.5 -120.06 0.5 -241.12 q0 -26.01 19.01 -45.02 q19.01 -19.01 45.02 -19.01 q26.02 0 45.03 19.01 q19.01 19.01 19.01 45.02 l0 282.14 q73.03 -83.04 161.08 -147.57 q88.04 -64.53 186.09 -108.55 q98.04 -44.02 204.1 -67.03 q106.06 -23.01 217.11 -23.01 q141.07 0 272.13 36.52 q131.07 36.52 244.62 103.55 q113.55 67.03 207.1 160.57 q93.55 93.55 160.08 207.1 q66.53 113.55 103.05 244.62 q36.52 131.06 36.52 272.13 ZM1024.5 1024.5 l320.16 0 q26.01 0 45.02 19.01 q19.01 19.01 19.01 45.02 q0 26.01 -19.01 45.02 q-19.01 19.01 -45.02 19.01 l-384.19 0 q-26.01 0 -45.02 -19.01 q-19.01 -19.01 -19.01 -45.02 l0 -640.31 q0 -26.01 19.01 -45.02 q19.01 -19.01 45.02 -19.01 q26.01 0 45.02 19.01 q19.01 19.01 19.01 45.02 l0 576.28 Z"/></svg>