<?xml version="1.0" encoding="utf-8"?>
<svg xmlns="http://www.w3.org/2000/svg" width="16" height="16" viewBox="0 0 2048 2048">
  <g transform="translate(0, 2048) scale(1, -1)">
    <path fill="#000000" d="M406 512Q323 512 249.5 545.5Q176 579 120.5 636.0Q65 693 32.5 767.5Q0 842 0 923V1258Q0 1316 35 1362Q71 1408 127 1423Q346 1480 572.0 1508.0Q798 1536 1024 1536Q1250 1536 1476.0 1508.0Q1702 1480 1921 1423Q1949 1415 1972.5 1399.5Q1996 1384 2012.5 1362.0Q2029 1340 2038.5 1313.5Q2048 1287 2048 1258V925Q2048 843 2015.5 768.5Q1983 694 1927.5 637.0Q1872 580 1798.0 546.0Q1724 512 1642 512H1377Q1317 512 1264.5 536.5Q1212 561 1173 606Q1158 624 1142.5 644.0Q1127 664 1109.0 681.0Q1091 698 1070.5 709.5Q1050 721 1024 721Q994 721 971.5 705.5Q949 690 927.5 667.0Q906 644 883.0 616.5Q860 589 831.0 566.0Q802 543 763.0 527.5Q724 512 671 512ZM1024 850Q1075 850 1110.5 834.5Q1146 819 1173.0 795.5Q1200 772 1221.5 745.0Q1243 718 1265.5 694.5Q1288 671 1314.0 655.5Q1340 640 1377 640H1639Q1696 640 1747.0 663.5Q1798 687 1836.5 726.0Q1875 765 1897.5 816.5Q1920 868 1920 925V1258Q1920 1289 1890 1298Q1867 1306 1838.5 1313.0Q1810 1320 1780.0 1326.0Q1750 1332 1720.5 1337.0Q1691 1342 1667 1347Q1507 1377 1347.0 1392.5Q1187 1408 1024 1408Q861 1408 701.0 1392.5Q541 1377 381 1347Q357 1342 327.5 1337.0Q298 1332 268.0 1326.0Q238 1320 209.5 1313.0Q181 1306 158 1298Q128 1289 128 1258V925Q128 868 150.5 816.5Q173 765 211.5 726.0Q250 687 301.0 663.5Q352 640 409 640H671Q707 640 733.5 655.5Q760 671 782.5 694.5Q805 718 827.0 745.0Q849 772 876.0 795.5Q903 819 938.5 834.5Q974 850 1024 850ZM928 1184Q928 1224 956.0 1252.0Q984 1280 1024 1280Q1064 1280 1092.0 1252.0Q1120 1224 1120 1184Q1120 1144 1092.0 1116.0Q1064 1088 1024 1088Q984 1088 956.0 1116.0Q928 1144 928 1184ZM320 1024Q294 1024 275.0 1043.0Q256 1062 256 1088Q256 1114 275.0 1133.0Q294 1152 320 1152H512Q538 1152 557.0 1133.0Q576 1114 576 1088Q576 1062 557.0 1043.0Q538 1024 512 1024ZM1536 1024Q1510 1024 1491.0 1043.0Q1472 1062 1472 1088Q1472 1114 1491.0 1133.0Q1510 1152 1536 1152H1728Q1755 1152 1773.5 1132.5Q1792 1113 1792 1087Q1792 1061 1773.0 1042.5Q1754 1024 1728 1024Z"/>
  </g>
</svg>