<?xml version="1.0" encoding="utf-8"?>
<svg xmlns="http://www.w3.org/2000/svg" width="16" height="16" viewBox="0 0 2048 2048">
  <g transform="translate(0, 2048) scale(1, -1)">
    <path fill="#ffffff" d="M376 256Q301 256 232.5 286.5Q164 317 112.5 368.5Q61 420 30.5 488.5Q0 557 0 632V1416Q0 1491 30.5 1559.5Q61 1628 112.5 1679.5Q164 1731 232.5 1761.5Q301 1792 376 1792H1672Q1747 1792 1815.5 1761.5Q1884 1731 1935.5 1679.5Q1987 1628 2017.5 1559.5Q2048 1491 2048 1416V632Q2048 557 2017.5 488.5Q1987 420 1935.5 368.5Q1884 317 1815.5 286.5Q1747 256 1672 256ZM1669 384Q1719 384 1764.5 404.5Q1810 425 1844.5 459.5Q1879 494 1899.5 539.5Q1920 585 1920 635V1413Q1920 1463 1899.5 1508.5Q1879 1554 1844.5 1588.5Q1810 1623 1764.5 1643.5Q1719 1664 1669 1664H379Q329 1664 283.5 1643.5Q238 1623 203.5 1588.5Q169 1554 148.5 1508.5Q128 1463 128 1413V635Q128 585 148.5 539.5Q169 494 203.5 459.5Q238 425 283.5 404.5Q329 384 379 384ZM256 1280Q256 1307 266.0 1330.0Q276 1353 293.5 1370.5Q311 1388 334.0 1398.0Q357 1408 384 1408Q410 1408 433.5 1398.0Q457 1388 474.5 1370.5Q492 1353 502.0 1329.5Q512 1306 512 1280Q512 1253 502.0 1230.0Q492 1207 474.5 1189.5Q457 1172 434.0 1162.0Q411 1152 384 1152Q357 1152 333.5 1162.0Q310 1172 293.0 1189.0Q276 1206 266.0 1229.5Q256 1253 256 1280ZM256 768Q256 795 266.0 818.0Q276 841 293.5 858.5Q311 876 334.0 886.0Q357 896 384 896Q410 896 433.5 886.0Q457 876 474.5 858.5Q492 841 502.0 817.5Q512 794 512 768Q512 741 502.0 718.0Q492 695 474.5 677.5Q457 660 434.0 650.0Q411 640 384 640Q357 640 333.5 650.0Q310 660 293.0 677.0Q276 694 266.0 717.5Q256 741 256 768Z"/>
  </g>
</svg>