<?xml version="1.0" encoding="utf-8"?>
<svg xmlns="http://www.w3.org/2000/svg" width="16" height="16" viewBox="0 0 2048 2048">
  <g transform="translate(0, 2048) scale(1, -1)">
    <path fill="#000000" d="M632 0Q557 0 488.5 30.5Q420 61 368.5 112.5Q317 164 286.5 232.5Q256 301 256 376V1672Q256 1747 286.5 1815.5Q317 1884 368.5 1935.5Q420 1987 488.5 2017.5Q557 2048 632 2048H1416Q1491 2048 1559.5 2017.5Q1628 1987 1679.5 1935.5Q1731 1884 1761.5 1815.5Q1792 1747 1792 1672V376Q1792 301 1761.5 232.5Q1731 164 1679.5 112.5Q1628 61 1559.5 30.5Q1491 0 1416 0ZM1413 128Q1463 128 1508.5 148.5Q1554 169 1588.5 203.5Q1623 238 1643.5 283.5Q1664 329 1664 379V1669Q1664 1719 1643.5 1764.5Q1623 1810 1588.5 1844.5Q1554 1879 1508.5 1899.5Q1463 1920 1413 1920H635Q585 1920 539.5 1899.5Q494 1879 459.5 1844.5Q425 1810 404.5 1764.5Q384 1719 384 1669V379Q384 329 404.5 283.5Q425 238 459.5 203.5Q494 169 539.5 148.5Q585 128 635 128ZM640 1664Q640 1691 650.0 1714.0Q660 1737 677.5 1754.5Q695 1772 718.0 1782.0Q741 1792 768 1792Q794 1792 817.5 1782.0Q841 1772 858.5 1754.5Q876 1737 886.0 1713.5Q896 1690 896 1664Q896 1637 886.0 1614.0Q876 1591 858.5 1573.5Q841 1556 818.0 1546.0Q795 1536 768 1536Q741 1536 717.5 1546.0Q694 1556 677.0 1573.0Q660 1590 650.0 1613.5Q640 1637 640 1664ZM1152 1664Q1152 1691 1162.0 1714.0Q1172 1737 1189.5 1754.5Q1207 1772 1230.0 1782.0Q1253 1792 1280 1792Q1306 1792 1329.5 1782.0Q1353 1772 1370.5 1754.5Q1388 1737 1398.0 1713.5Q1408 1690 1408 1664Q1408 1637 1398.0 1614.0Q1388 1591 1370.5 1573.5Q1353 1556 1330.0 1546.0Q1307 1536 1280 1536Q1253 1536 1229.5 1546.0Q1206 1556 1189.0 1573.0Q1172 1590 1162.0 1613.5Q1152 1637 1152 1664Z"/>
  </g>
</svg>