<?xml version="1.0" encoding="utf-8"?>
<svg xmlns="http://www.w3.org/2000/svg" width="16" height="16" viewBox="0 0 2048 2048">
  <g transform="translate(0, 2048) scale(1, -1)">
    <path fill="#000000" d="M632 0Q557 0 488.5 30.5Q420 61 368.5 112.5Q317 164 286.5 232.5Q256 301 256 376V1672Q256 1747 286.5 1815.5Q317 1884 368.5 1935.5Q420 1987 488.5 2017.5Q557 2048 632 2048H1416Q1491 2048 1559.5 2017.5Q1628 1987 1679.5 1935.5Q1731 1884 1761.5 1815.5Q1792 1747 1792 1672V376Q1792 301 1761.5 232.5Q1731 164 1679.5 112.5Q1628 61 1559.5 30.5Q1491 0 1416 0ZM1413 128Q1463 128 1508.5 148.5Q1554 169 1588.5 203.5Q1623 238 1643.5 283.5Q1664 329 1664 379V1669Q1664 1719 1643.5 1764.5Q1623 1810 1588.5 1844.5Q1554 1879 1508.5 1899.5Q1463 1920 1413 1920H635Q585 1920 539.5 1899.5Q494 1879 459.5 1844.5Q425 1810 404.5 1764.5Q384 1719 384 1669V379Q384 329 404.5 283.5Q425 238 459.5 203.5Q494 169 539.5 148.5Q585 128 635 128ZM640 384Q640 411 650.0 434.0Q660 457 677.5 474.5Q695 492 718.0 502.0Q741 512 768 512Q794 512 817.5 502.0Q841 492 858.5 474.5Q876 457 886.0 433.5Q896 410 896 384Q896 357 886.0 334.0Q876 311 858.5 293.5Q841 276 818.0 266.0Q795 256 768 256Q741 256 717.5 266.0Q694 276 677.0 293.0Q660 310 650.0 333.5Q640 357 640 384ZM1152 384Q1152 411 1162.0 434.0Q1172 457 1189.5 474.5Q1207 492 1230.0 502.0Q1253 512 1280 512Q1306 512 1329.5 502.0Q1353 492 1370.5 474.5Q1388 457 1398.0 433.5Q1408 410 1408 384Q1408 357 1398.0 334.0Q1388 311 1370.5 293.5Q1353 276 1330.0 266.0Q1307 256 1280 256Q1253 256 1229.5 266.0Q1206 276 1189.0 293.0Q1172 310 1162.0 333.5Q1152 357 1152 384Z"/>
  </g>
</svg>