<?xml version="1.0" encoding="utf-8"?>
<svg xmlns="http://www.w3.org/2000/svg" width="16" height="16" viewBox="0 0 2048 2048">
  <g transform="translate(0, 2048) scale(1, -1)">
    <path fill="#000000" d="M632 0Q557 0 488.5 30.5Q420 61 368.5 112.5Q317 164 286.5 232.5Q256 301 256 376V1672Q256 1747 286.5 1815.5Q317 1884 368.5 1935.5Q420 1987 488.5 2017.5Q557 2048 632 2048H1416Q1491 2048 1559.5 2017.5Q1628 1987 1679.5 1935.5Q1731 1884 1761.5 1815.5Q1792 1747 1792 1672V376Q1792 301 1761.5 232.5Q1731 164 1679.5 112.5Q1628 61 1559.5 30.5Q1491 0 1416 0ZM1413 128Q1463 128 1508.5 148.5Q1554 169 1588.5 203.5Q1623 238 1643.5 283.5Q1664 329 1664 379V1669Q1664 1719 1643.5 1764.5Q1623 1810 1588.5 1844.5Q1554 1879 1508.5 1899.5Q1463 1920 1413 1920H635Q585 1920 539.5 1899.5Q494 1879 459.5 1844.5Q425 1810 404.5 1764.5Q384 1719 384 1669V379Q384 329 404.5 283.5Q425 238 459.5 203.5Q494 169 539.5 148.5Q585 128 635 128ZM512 1536Q512 1563 522.0 1586.0Q532 1609 549.5 1626.5Q567 1644 590.0 1654.0Q613 1664 640 1664Q666 1664 689.5 1654.0Q713 1644 730.5 1626.5Q748 1609 758.0 1585.5Q768 1562 768 1536Q768 1509 758.0 1486.0Q748 1463 730.5 1445.5Q713 1428 690.0 1418.0Q667 1408 640 1408Q613 1408 589.5 1418.0Q566 1428 549.0 1445.0Q532 1462 522.0 1485.5Q512 1509 512 1536ZM512 1024Q512 1051 522.0 1074.0Q532 1097 549.5 1114.5Q567 1132 590.0 1142.0Q613 1152 640 1152Q666 1152 689.5 1142.0Q713 1132 730.5 1114.5Q748 1097 758.0 1073.5Q768 1050 768 1024Q768 997 758.0 974.0Q748 951 730.5 933.5Q713 916 690.0 906.0Q667 896 640 896Q613 896 589.5 906.0Q566 916 549.0 933.0Q532 950 522.0 973.5Q512 997 512 1024ZM512 512Q512 539 522.0 562.0Q532 585 549.5 602.5Q567 620 590.0 630.0Q613 640 640 640Q666 640 689.5 630.0Q713 620 730.5 602.5Q748 585 758.0 561.5Q768 538 768 512Q768 485 758.0 462.0Q748 439 730.5 421.5Q713 404 690.0 394.0Q667 384 640 384Q613 384 589.5 394.0Q566 404 549.0 421.0Q532 438 522.0 461.5Q512 485 512 512Z"/>
  </g>
</svg>