<?xml version="1.0" encoding="utf-8"?>
<svg xmlns="http://www.w3.org/2000/svg" width="16" height="16" viewBox="0 0 2048 2048">
  <g transform="translate(0, 2048) scale(1, -1)">
    <path fill="#ffffff" d="M376 256Q301 256 232.5 286.5Q164 317 112.5 368.5Q61 420 30.5 488.5Q0 557 0 632V1416Q0 1491 30.5 1559.5Q61 1628 112.5 1679.5Q164 1731 232.5 1761.5Q301 1792 376 1792H1672Q1747 1792 1815.5 1761.5Q1884 1731 1935.5 1679.5Q1987 1628 2017.5 1559.5Q2048 1491 2048 1416V632Q2048 557 2017.5 488.5Q1987 420 1935.5 368.5Q1884 317 1815.5 286.5Q1747 256 1672 256ZM1669 384Q1719 384 1764.5 404.5Q1810 425 1844.5 459.5Q1879 494 1899.5 539.5Q1920 585 1920 635V1413Q1920 1463 1899.5 1508.5Q1879 1554 1844.5 1588.5Q1810 1623 1764.5 1643.5Q1719 1664 1669 1664H379Q329 1664 283.5 1643.5Q238 1623 203.5 1588.5Q169 1554 148.5 1508.5Q128 1463 128 1413V635Q128 585 148.5 539.5Q169 494 203.5 459.5Q238 425 283.5 404.5Q329 384 379 384ZM1536 1280Q1536 1307 1546.0 1330.0Q1556 1353 1573.5 1370.5Q1591 1388 1614.0 1398.0Q1637 1408 1664 1408Q1690 1408 1713.5 1398.0Q1737 1388 1754.5 1370.5Q1772 1353 1782.0 1329.5Q1792 1306 1792 1280Q1792 1253 1782.0 1230.0Q1772 1207 1754.5 1189.5Q1737 1172 1714.0 1162.0Q1691 1152 1664 1152Q1637 1152 1613.5 1162.0Q1590 1172 1573.0 1189.0Q1556 1206 1546.0 1229.5Q1536 1253 1536 1280ZM1536 768Q1536 795 1546.0 818.0Q1556 841 1573.5 858.5Q1591 876 1614.0 886.0Q1637 896 1664 896Q1690 896 1713.5 886.0Q1737 876 1754.5 858.5Q1772 841 1782.0 817.5Q1792 794 1792 768Q1792 741 1782.0 718.0Q1772 695 1754.5 677.5Q1737 660 1714.0 650.0Q1691 640 1664 640Q1637 640 1613.5 650.0Q1590 660 1573.0 677.0Q1556 694 1546.0 717.5Q1536 741 1536 768Z"/>
  </g>
</svg>