<?xml version="1.0" encoding="utf-8"?>
<svg xmlns="http://www.w3.org/2000/svg" width="16" height="16" viewBox="0 0 2048 2048">
  <g transform="translate(0, 2048) scale(1, -1)">
    <path fill="#ffffff" d="M632 0Q557 0 488.5 30.5Q420 61 368.5 112.5Q317 164 286.5 232.5Q256 301 256 376V1672Q256 1747 286.5 1815.5Q317 1884 368.5 1935.5Q420 1987 488.5 2017.5Q557 2048 632 2048H1416Q1491 2048 1559.5 2017.5Q1628 1987 1679.5 1935.5Q1731 1884 1761.5 1815.5Q1792 1747 1792 1672V376Q1792 301 1761.5 232.5Q1731 164 1679.5 112.5Q1628 61 1559.5 30.5Q1491 0 1416 0ZM1413 128Q1463 128 1508.5 148.5Q1554 169 1588.5 203.5Q1623 238 1643.5 283.5Q1664 329 1664 379V1669Q1664 1719 1643.5 1764.5Q1623 1810 1588.5 1844.5Q1554 1879 1508.5 1899.5Q1463 1920 1413 1920H635Q585 1920 539.5 1899.5Q494 1879 459.5 1844.5Q425 1810 404.5 1764.5Q384 1719 384 1669V379Q384 329 404.5 283.5Q425 238 459.5 203.5Q494 169 539.5 148.5Q585 128 635 128ZM1280 1536Q1280 1563 1290.0 1586.0Q1300 1609 1317.5 1626.5Q1335 1644 1358.0 1654.0Q1381 1664 1408 1664Q1434 1664 1457.5 1654.0Q1481 1644 1498.5 1626.5Q1516 1609 1526.0 1585.5Q1536 1562 1536 1536Q1536 1509 1526.0 1486.0Q1516 1463 1498.5 1445.5Q1481 1428 1458.0 1418.0Q1435 1408 1408 1408Q1381 1408 1357.5 1418.0Q1334 1428 1317.0 1445.0Q1300 1462 1290.0 1485.5Q1280 1509 1280 1536ZM1280 1024Q1280 1051 1290.0 1074.0Q1300 1097 1317.5 1114.5Q1335 1132 1358.0 1142.0Q1381 1152 1408 1152Q1434 1152 1457.5 1142.0Q1481 1132 1498.5 1114.5Q1516 1097 1526.0 1073.5Q1536 1050 1536 1024Q1536 997 1526.0 974.0Q1516 951 1498.5 933.5Q1481 916 1458.0 906.0Q1435 896 1408 896Q1381 896 1357.5 906.0Q1334 916 1317.0 933.0Q1300 950 1290.0 973.5Q1280 997 1280 1024ZM1280 512Q1280 539 1290.0 562.0Q1300 585 1317.5 602.5Q1335 620 1358.0 630.0Q1381 640 1408 640Q1434 640 1457.5 630.0Q1481 620 1498.5 602.5Q1516 585 1526.0 561.5Q1536 538 1536 512Q1536 485 1526.0 462.0Q1516 439 1498.5 421.5Q1481 404 1458.0 394.0Q1435 384 1408 384Q1381 384 1357.5 394.0Q1334 404 1317.0 421.0Q1300 438 1290.0 461.5Q1280 485 1280 512Z"/>
  </g>
</svg>