<?xml version="1.0" encoding="utf-8"?>
<svg xmlns="http://www.w3.org/2000/svg" width="16" height="16" viewBox="0 0 2048 2048">
  <g transform="translate(0, 2048) scale(1, -1)">
    <path fill="#000000" d="M376 256Q301 256 232.5 286.5Q164 317 112.5 368.5Q61 420 30.5 488.5Q0 557 0 632V1416Q0 1491 30.5 1559.5Q61 1628 112.5 1679.5Q164 1731 232.5 1761.5Q301 1792 376 1792H1672Q1747 1792 1815.5 1761.5Q1884 1731 1935.5 1679.5Q1987 1628 2017.5 1559.5Q2048 1491 2048 1416V632Q2048 557 2017.5 488.5Q1987 420 1935.5 368.5Q1884 317 1815.5 286.5Q1747 256 1672 256ZM1669 384Q1719 384 1764.5 404.5Q1810 425 1844.5 459.5Q1879 494 1899.5 539.5Q1920 585 1920 635V1413Q1920 1463 1899.5 1508.5Q1879 1554 1844.5 1588.5Q1810 1623 1764.5 1643.5Q1719 1664 1669 1664H379Q329 1664 283.5 1643.5Q238 1623 203.5 1588.5Q169 1554 148.5 1508.5Q128 1463 128 1413V635Q128 585 148.5 539.5Q169 494 203.5 459.5Q238 425 283.5 404.5Q329 384 379 384ZM384 640Q384 667 394.0 690.0Q404 713 421.5 730.5Q439 748 462.0 758.0Q485 768 512 768Q538 768 561.5 758.0Q585 748 602.5 730.5Q620 713 630.0 689.5Q640 666 640 640Q640 613 630.0 590.0Q620 567 602.5 549.5Q585 532 562.0 522.0Q539 512 512 512Q485 512 461.5 522.0Q438 532 421.0 549.0Q404 566 394.0 589.5Q384 613 384 640ZM896 640Q896 667 906.0 690.0Q916 713 933.5 730.5Q951 748 974.0 758.0Q997 768 1024 768Q1050 768 1073.5 758.0Q1097 748 1114.5 730.5Q1132 713 1142.0 689.5Q1152 666 1152 640Q1152 613 1142.0 590.0Q1132 567 1114.5 549.5Q1097 532 1074.0 522.0Q1051 512 1024 512Q997 512 973.5 522.0Q950 532 933.0 549.0Q916 566 906.0 589.5Q896 613 896 640ZM1408 640Q1408 667 1418.0 690.0Q1428 713 1445.5 730.5Q1463 748 1486.0 758.0Q1509 768 1536 768Q1562 768 1585.5 758.0Q1609 748 1626.5 730.5Q1644 713 1654.0 689.5Q1664 666 1664 640Q1664 613 1654.0 590.0Q1644 567 1626.5 549.5Q1609 532 1586.0 522.0Q1563 512 1536 512Q1509 512 1485.5 522.0Q1462 532 1445.0 549.0Q1428 566 1418.0 589.5Q1408 613 1408 640Z"/>
  </g>
</svg>