<?xml version="1.0" encoding="utf-8"?>
<svg xmlns="http://www.w3.org/2000/svg" width="16" height="16" viewBox="0 0 2048 2048">
  <g transform="translate(0, 2048) scale(1, -1)">
    <path fill="#000000" d="M376 256Q301 256 232.5 286.5Q164 317 112.5 368.5Q61 420 30.5 488.5Q0 557 0 632V1416Q0 1491 30.5 1559.5Q61 1628 112.5 1679.5Q164 1731 232.5 1761.5Q301 1792 376 1792H1672Q1747 1792 1815.5 1761.5Q1884 1731 1935.5 1679.5Q1987 1628 2017.5 1559.5Q2048 1491 2048 1416V632Q2048 557 2017.5 488.5Q1987 420 1935.5 368.5Q1884 317 1815.5 286.5Q1747 256 1672 256ZM1669 384Q1719 384 1764.5 404.5Q1810 425 1844.5 459.5Q1879 494 1899.5 539.5Q1920 585 1920 635V1413Q1920 1463 1899.5 1508.5Q1879 1554 1844.5 1588.5Q1810 1623 1764.5 1643.5Q1719 1664 1669 1664H379Q329 1664 283.5 1643.5Q238 1623 203.5 1588.5Q169 1554 148.5 1508.5Q128 1463 128 1413V635Q128 585 148.5 539.5Q169 494 203.5 459.5Q238 425 283.5 404.5Q329 384 379 384ZM384 1408Q384 1435 394.0 1458.0Q404 1481 421.5 1498.5Q439 1516 462.0 1526.0Q485 1536 512 1536Q538 1536 561.5 1526.0Q585 1516 602.5 1498.5Q620 1481 630.0 1457.5Q640 1434 640 1408Q640 1381 630.0 1358.0Q620 1335 602.5 1317.5Q585 1300 562.0 1290.0Q539 1280 512 1280Q485 1280 461.5 1290.0Q438 1300 421.0 1317.0Q404 1334 394.0 1357.5Q384 1381 384 1408ZM896 1408Q896 1435 906.0 1458.0Q916 1481 933.5 1498.5Q951 1516 974.0 1526.0Q997 1536 1024 1536Q1050 1536 1073.5 1526.0Q1097 1516 1114.5 1498.5Q1132 1481 1142.0 1457.5Q1152 1434 1152 1408Q1152 1381 1142.0 1358.0Q1132 1335 1114.5 1317.5Q1097 1300 1074.0 1290.0Q1051 1280 1024 1280Q997 1280 973.5 1290.0Q950 1300 933.0 1317.0Q916 1334 906.0 1357.5Q896 1381 896 1408ZM1408 1408Q1408 1435 1418.0 1458.0Q1428 1481 1445.5 1498.5Q1463 1516 1486.0 1526.0Q1509 1536 1536 1536Q1562 1536 1585.5 1526.0Q1609 1516 1626.5 1498.5Q1644 1481 1654.0 1457.5Q1664 1434 1664 1408Q1664 1381 1654.0 1358.0Q1644 1335 1626.5 1317.5Q1609 1300 1586.0 1290.0Q1563 1280 1536 1280Q1509 1280 1485.5 1290.0Q1462 1300 1445.0 1317.0Q1428 1334 1418.0 1357.5Q1408 1381 1408 1408Z"/>
  </g>
</svg>