<?xml version="1.0" encoding="utf-8"?>
<svg xmlns="http://www.w3.org/2000/svg" width="16" height="16" viewBox="0 0 2048 2048">
  <g transform="translate(0, 2048) scale(1, -1)">
    <path fill="#ffffff" d="M467 1853 377 1943Q430 1994 498.0 2021.0Q566 2048 640 2048H1416Q1491 2048 1559.5 2017.5Q1628 1987 1679.5 1935.5Q1731 1884 1761.5 1815.5Q1792 1747 1792 1672V528L1664 656V1669Q1664 1719 1643.5 1764.5Q1623 1810 1588.5 1844.5Q1554 1879 1508.5 1899.5Q1463 1920 1413 1920H640Q592 1920 547.0 1902.5Q502 1885 467 1853ZM2049 64Q2049 38 2030.0 19.0Q2011 0 1985 0Q1958 0 1939 19L1750 208Q1725 160 1688.5 121.5Q1652 83 1608.0 56.0Q1564 29 1513.0 14.5Q1462 0 1408 0H632Q557 0 488.5 30.5Q420 61 368.5 112.5Q317 164 286.5 232.5Q256 301 256 376V1664Q256 1673 256.5 1682.0Q257 1691 258 1700L19 1939Q0 1958 0 1984Q0 2011 19.5 2029.5Q39 2048 65 2048Q91 2048 110 2029L2030 109Q2049 90 2049 64ZM1652 306 384 1574V379Q384 329 404.5 283.5Q425 238 459.5 203.5Q494 169 539.5 148.5Q585 128 635 128H1408Q1450 128 1488.5 141.0Q1527 154 1559.0 177.5Q1591 201 1615.0 234.0Q1639 267 1652 306ZM512 1024Q512 1051 522.0 1074.0Q532 1097 549.5 1114.5Q567 1132 590.0 1142.0Q613 1152 640 1152Q666 1152 689.5 1142.0Q713 1132 730.5 1114.5Q748 1097 758.0 1073.5Q768 1050 768 1024Q768 997 758.0 974.0Q748 951 730.5 933.5Q713 916 690.0 906.0Q667 896 640 896Q613 896 589.5 906.0Q566 916 549.0 933.0Q532 950 522.0 973.5Q512 997 512 1024ZM512 512Q512 539 522.0 562.0Q532 585 549.5 602.5Q567 620 590.0 630.0Q613 640 640 640Q666 640 689.5 630.0Q713 620 730.5 602.5Q748 585 758.0 561.5Q768 538 768 512Q768 485 758.0 462.0Q748 439 730.5 421.5Q713 404 690.0 394.0Q667 384 640 384Q613 384 589.5 394.0Q566 404 549.0 421.0Q532 438 522.0 461.5Q512 485 512 512Z"/>
  </g>
</svg>