<?xml version="1.0" encoding="utf-8"?>
<svg xmlns="http://www.w3.org/2000/svg" width="16" height="16" viewBox="0 0 2048 2048">
  <g transform="translate(0, 2048) scale(1, -1)">
    <path fill="#ffffff" d="M2048 1514V1188Q2048 1123 2028 1058Q2003 1087 1976.0 1112.5Q1949 1138 1919 1161Q1920 1168 1920 1175V1514Q1920 1543 1890 1554Q1858 1565 1818.5 1573.0Q1779 1581 1745 1588Q1655 1493 1551.0 1424.0Q1447 1355 1332.5 1306.0Q1218 1257 1096.0 1226.5Q974 1196 849.0 1179.0Q724 1162 597.0 1155.5Q470 1149 347 1149Q307 1149 266 1150H211Q171 1151 130 1151Q136 1099 160.5 1053.0Q185 1007 222.5 972.0Q260 937 308.0 916.5Q356 896 409 896H671Q702 896 726.5 908.0Q751 920 771.5 939.0Q792 958 810.0 980.5Q828 1003 846 1024Q868 1049 892.0 1065.5Q916 1082 948 1093Q884 1028 838.0 951.0Q792 874 766 786Q721 768 671 768H406Q323 768 249.5 801.5Q176 835 120.5 892.0Q65 949 32.5 1023.5Q0 1098 0 1179V1514Q0 1572 35 1618Q71 1664 127 1679Q345 1738 571.5 1765.0Q798 1792 1024 1792Q1250 1792 1476.5 1765.0Q1703 1738 1921 1679Q1978 1664 2013.0 1618.5Q2048 1573 2048 1514ZM349 1277Q508 1277 675.5 1289.0Q843 1301 1005.0 1337.0Q1167 1373 1317.0 1440.0Q1467 1507 1591 1617Q1450 1640 1308.5 1652.0Q1167 1664 1024 1664Q861 1664 701.0 1648.5Q541 1633 381 1603Q357 1598 327.5 1593.0Q298 1588 268.0 1582.0Q238 1576 209.5 1569.0Q181 1562 158 1554Q128 1545 128 1514V1279Q170 1279 211 1278H266Q307 1277 349 1277ZM2048 576Q2048 457 2002.5 352.0Q1957 247 1879.0 169.0Q1801 91 1696.0 45.5Q1591 0 1472 0Q1352 0 1247.0 45.0Q1142 90 1064.0 168.0Q986 246 941.0 351.0Q896 456 896 576Q896 695 941.5 800.0Q987 905 1065.0 983.0Q1143 1061 1248.0 1106.5Q1353 1152 1472 1152Q1551 1152 1624.5 1131.5Q1698 1111 1762.0 1073.5Q1826 1036 1879.0 983.0Q1932 930 1969.5 866.0Q2007 802 2027.5 728.5Q2048 655 2048 576ZM1864 768Q1864 798 1843.0 819.0Q1822 840 1792 840Q1762 840 1741 819L1344 422L1203 563Q1182 584 1152 584Q1122 584 1101.0 563.0Q1080 542 1080 512Q1080 482 1101 461L1293 269Q1314 248 1344 248Q1374 248 1395 269L1843 717Q1864 738 1864 768Z"/>
  </g>
</svg>