<?xml version="1.0" encoding="utf-8"?>
<svg xmlns="http://www.w3.org/2000/svg" width="16" height="16" viewBox="0 0 2048 2048">
  <g transform="translate(0, 2048) scale(1, -1)">
    <path fill="#000000" d="M2048 1258V925Q2048 843 2015.5 768.5Q1983 694 1927.5 637.0Q1872 580 1798.0 546.0Q1724 512 1642 512H1377Q1317 512 1264.5 536.5Q1212 561 1173 606Q1158 624 1142.5 644.0Q1127 664 1109.0 681.0Q1091 698 1070.5 709.5Q1050 721 1024 721Q994 721 971.5 705.5Q949 690 927.5 667.0Q906 644 883.0 616.5Q860 589 831.0 566.0Q802 543 763.0 527.5Q724 512 671 512H406Q323 512 249.5 545.5Q176 579 120.5 636.0Q65 693 32.5 767.5Q0 842 0 923V1258Q0 1316 35 1362Q71 1408 127 1423Q346 1480 572.0 1508.0Q798 1536 1024 1536Q1250 1536 1476.0 1508.0Q1702 1480 1921 1423Q1949 1415 1972.5 1399.5Q1996 1384 2012.5 1362.0Q2029 1340 2038.5 1313.5Q2048 1287 2048 1258ZM128 1258V1023Q170 1023 211 1022H266Q307 1021 349 1021Q508 1021 675.5 1033.0Q843 1045 1005.0 1081.0Q1167 1117 1317.0 1184.0Q1467 1251 1591 1361Q1450 1384 1308.5 1396.0Q1167 1408 1024 1408Q861 1408 701.0 1392.5Q541 1377 381 1347Q357 1342 327.5 1337.0Q298 1332 268.0 1326.0Q238 1320 209.5 1313.0Q181 1306 158 1298Q128 1289 128 1258ZM1745 1332Q1655 1237 1551.0 1168.0Q1447 1099 1332.5 1050.0Q1218 1001 1096.0 970.5Q974 940 849.0 923.0Q724 906 597.0 899.5Q470 893 347 893Q238 893 130 896Q136 842 160.5 795.5Q185 749 223.5 714.5Q262 680 311.0 660.0Q360 640 414 640H671Q707 640 733.5 655.5Q760 671 782.5 694.5Q805 718 826.5 745.0Q848 772 875.5 795.5Q903 819 938.5 834.5Q974 850 1024 850Q1075 850 1110.5 834.5Q1146 819 1173.0 795.5Q1200 772 1221.5 745.0Q1243 718 1265.5 694.5Q1288 671 1314.0 655.5Q1340 640 1377 640H1639Q1696 640 1747.0 663.5Q1798 687 1836.5 726.0Q1875 765 1897.5 816.5Q1920 868 1920 925V1258Q1920 1287 1890 1298Q1860 1309 1819.0 1317.0Q1778 1325 1745 1332Z"/>
  </g>
</svg>