<?xml version="1.0" encoding="utf-8"?>
<svg xmlns="http://www.w3.org/2000/svg" width="16" height="16" viewBox="0 0 2048 2048">
  <g transform="translate(0, 2048) scale(1, -1)">
    <path fill="#000000" d="M2048 440Q2048 349 2011.5 269.0Q1975 189 1913.5 129.0Q1852 69 1770.5 34.5Q1689 0 1600 0Q1511 0 1429.5 34.5Q1348 69 1286.5 129.0Q1225 189 1188.5 269.0Q1152 349 1152 440Q1152 466 1154.0 491.0Q1156 516 1162 541Q1076 569 1003.5 623.0Q931 677 878.5 748.5Q826 820 797.0 905.5Q768 991 768 1081Q768 1202 812.5 1308.0Q857 1414 934.5 1493.0Q1012 1572 1117.0 1618.0Q1222 1664 1344 1664Q1362 1664 1379.5 1663.0Q1397 1662 1415 1660Q1410 1679 1409.0 1697.5Q1408 1716 1408 1735Q1408 1800 1434.0 1857.0Q1460 1914 1504.0 1956.5Q1548 1999 1606.0 2023.5Q1664 2048 1728 2048Q1792 2048 1850.0 2023.5Q1908 1999 1952.0 1956.5Q1996 1914 2022.0 1857.0Q2048 1800 2048 1735Q2048 1680 2031.5 1629.5Q2015 1579 1984.5 1537.5Q1954 1496 1911.0 1465.5Q1868 1435 1815 1420Q1867 1347 1893.5 1262.5Q1920 1178 1920 1088Q1920 1017 1903.5 949.0Q1887 881 1853 818Q1949 752 1998.5 653.5Q2048 555 2048 440ZM1571 1617Q1644 1587 1704 1537H1714L1723 1536Q1726 1536 1728 1536Q1766 1536 1801.0 1551.5Q1836 1567 1862.5 1593.5Q1889 1620 1904.5 1655.0Q1920 1690 1920 1728Q1920 1767 1905.0 1802.0Q1890 1837 1863.5 1863.5Q1837 1890 1802.0 1905.0Q1767 1920 1728 1920Q1689 1920 1654.0 1905.0Q1619 1890 1592.5 1863.5Q1566 1837 1551.0 1802.0Q1536 1767 1536 1728Q1536 1667 1571 1617ZM1206 661Q1236 715 1278.0 758.5Q1320 802 1371.0 832.5Q1422 863 1480.0 879.5Q1538 896 1600 896Q1673 896 1738 874Q1767 928 1779.5 982.0Q1792 1036 1792 1096Q1792 1187 1755.5 1267.0Q1719 1347 1657.5 1407.0Q1596 1467 1514.5 1501.5Q1433 1536 1344 1536Q1255 1536 1173.5 1501.5Q1092 1467 1030.5 1407.0Q969 1347 932.5 1267.0Q896 1187 896 1096Q896 1022 917.5 953.5Q939 885 979.5 827.5Q1020 770 1077.5 726.5Q1135 683 1206 661ZM640 1088V1081Q640 1016 614.0 959.0Q588 902 544.0 859.5Q500 817 442.0 792.5Q384 768 320 768Q253 768 195.0 793.0Q137 818 93.5 861.5Q50 905 25.0 963.0Q0 1021 0 1088Q0 1155 25.0 1213.0Q50 1271 93.5 1314.5Q137 1358 195.0 1383.0Q253 1408 320 1408Q387 1408 445.0 1383.0Q503 1358 546.5 1314.5Q590 1271 615.0 1213.0Q640 1155 640 1088ZM512 1088Q512 1127 497.0 1162.0Q482 1197 455.5 1223.5Q429 1250 394.0 1265.0Q359 1280 320 1280Q281 1280 246.0 1265.0Q211 1250 184.5 1223.5Q158 1197 143.0 1162.0Q128 1127 128 1088Q128 1049 143.0 1014.0Q158 979 184.5 952.5Q211 926 246.0 911.0Q281 896 320 896Q359 896 394.0 911.0Q429 926 455.5 952.5Q482 979 497.0 1014.0Q512 1049 512 1088ZM1920 448V455Q1920 520 1894.0 577.0Q1868 634 1824.0 676.5Q1780 719 1722.0 743.5Q1664 768 1600 768Q1533 768 1475.0 743.0Q1417 718 1373.5 674.5Q1330 631 1305.0 573.0Q1280 515 1280 448Q1280 381 1305.0 323.0Q1330 265 1373.5 221.5Q1417 178 1475.0 153.0Q1533 128 1600 128Q1667 128 1725.0 153.0Q1783 178 1826.5 221.5Q1870 265 1895.0 323.0Q1920 381 1920 448Z"/>
  </g>
</svg>