<?xml version="1.0" encoding="utf-8"?>
<svg id="ic_fluent_home_16_filled" width="16" height="16" style="width:16px;height:16px;"
    version="1.1" xmlns="http://www.w3.org/2000/svg" viewBox="0 0 500 500"
    enable-background="new 0 0 500 500" xml:space="preserve"><path fill="#000000" d="M275.9 9.85 q-11.09 -9.85 -25.86 -9.85 q-14.78 0 -25.85 9.85 l-187.16 176.08 q-18.47 17.24 -17.24 43.1 l0 214.25 q0 23.39 16.63 40.63 q16.63 17.24 40.02 16.01 l57.87 0 q24.63 1.23 41.25 -16.01 q16.63 -17.24 16.63 -40.63 l0 -97.28 q0 -7.39 5.54 -12.93 q5.54 -5.54 14.16 -5.54 l76.34 0 q8.62 0 14.16 5.54 q5.54 5.54 5.54 14.16 l0 96.05 q0 23.39 16.63 40.02 q16.63 16.63 41.24 16.63 l57.88 0 q23.39 0 40.01 -16.63 q16.63 -16.63 16.63 -40.02 l0 -214.25 q0 -25.86 -17.24 -41.87 l-187.16 -177.31 Z"/></svg>