<?xml version="1.0" encoding="utf-8"?>
<svg xmlns="http://www.w3.org/2000/svg" width="16" height="16" viewBox="0 0 2048 2048">
  <g transform="translate(0, 2048) scale(1, -1)">
    <path fill="#000000" d="M1920 1163V379Q1920 329 1899.5 283.5Q1879 238 1844.5 203.5Q1810 169 1764.5 148.5Q1719 128 1669 128H1408Q1381 128 1357.5 138.0Q1334 148 1317.0 165.0Q1300 182 1290.0 205.5Q1280 229 1280 256V768Q1280 794 1270.0 817.5Q1260 841 1242.5 858.5Q1225 876 1201.5 886.0Q1178 896 1152 896H896Q869 896 846.0 886.0Q823 876 805.5 858.5Q788 841 778.0 818.0Q768 795 768 768V256Q768 229 758.0 206.0Q748 183 730.5 165.5Q713 148 690.0 138.0Q667 128 640 128H379Q329 128 283.5 148.5Q238 169 203.5 203.5Q169 238 148.5 283.5Q128 329 128 379V1163Q128 1201 142.5 1236.5Q157 1272 184 1299L866 1980Q898 2012 938.5 2029.0Q979 2046 1024 2046Q1069 2046 1109.5 2029.0Q1150 2012 1182 1980L1864 1299Q1891 1272 1905.5 1236.5Q1920 1201 1920 1163Z"/>
  </g>
</svg>