<?xml version="1.0" encoding="utf-8"?>
<svg xmlns="http://www.w3.org/2000/svg" width="16" height="16" viewBox="0 0 2048 2048">
  <g transform="translate(0, 2048) scale(1, -1)">
    <path fill="#ffffff" d="M2048 1728V448Q2048 422 2029.0 403.0Q2010 384 1984 384Q1958 384 1939.0 403.0Q1920 422 1920 448V1728Q1920 1754 1939.0 1773.0Q1958 1792 1984 1792Q2010 1792 2029.0 1773.0Q2048 1754 2048 1728ZM1792 1088Q1792 1062 1773 1043L1197 467Q1178 448 1152 448Q1126 448 1107.0 467.0Q1088 486 1088 512Q1088 538 1107 557L1574 1024H64Q38 1024 19.0 1043.0Q0 1062 0 1088Q0 1114 19.0 1133.0Q38 1152 64 1152H1574L1107 1619Q1088 1638 1088 1664Q1088 1690 1107.0 1709.0Q1126 1728 1152 1728Q1178 1728 1197 1709L1773 1133Q1792 1114 1792 1088Z"/>
  </g>
</svg>