<?xml version="1.0" encoding="utf-8"?>
<svg xmlns="http://www.w3.org/2000/svg" width="16" height="16" viewBox="0 0 2048 2048">
  <g transform="translate(0, 2048) scale(1, -1)">
    <path fill="#ffffff" d="M1130 1792Q1156 1792 1168.5 1780.0Q1181 1768 1191 1747Q1200 1727 1208.0 1704.0Q1216 1681 1223.5 1656.0Q1231 1631 1238.0 1607.0Q1245 1583 1252 1562Q1335 1319 1439.5 1086.0Q1544 853 1666 627Q1701 562 1739.0 500.0Q1777 438 1812 374Q1817 366 1819.5 358.0Q1822 350 1822 340Q1822 314 1803.0 295.0Q1784 276 1758 276Q1738 276 1726.0 284.5Q1714 293 1703 307Q1689 324 1678.0 345.0Q1667 366 1656 386Q1621 446 1587.0 506.0Q1553 566 1521 628Q1396 864 1291.5 1107.0Q1187 1350 1103 1604Q914 1393 762.5 1159.0Q611 925 493 668Q442 557 400 443Q388 409 377.5 373.0Q367 337 351 305Q340 285 328.0 273.0Q316 261 290 261Q264 261 245.5 280.0Q227 299 227 325Q227 334 230 345Q285 523 363.0 697.0Q441 871 536.0 1036.0Q631 1201 742.0 1356.0Q853 1511 975 1652Q987 1665 1005.5 1689.0Q1024 1713 1046.0 1735.5Q1068 1758 1090.0 1775.0Q1112 1792 1130 1792Z"/>
  </g>
</svg>