<?xml version="1.0" encoding="utf-8"?>
<svg xmlns="http://www.w3.org/2000/svg" width="16" height="16" viewBox="0 0 2048 2048">
  <g transform="translate(0, 2048) scale(1, -1)">
    <path fill="#ffffff" d="M1914 1364Q1940 1364 1959.0 1345.0Q1978 1326 1978 1300Q1978 1285 1970 1271Q1922 1177 1857.0 1094.0Q1792 1011 1713.0 941.0Q1634 871 1543.5 815.0Q1453 759 1355.0 720.0Q1257 681 1153.0 660.5Q1049 640 944 640Q782 640 647.5 685.0Q513 730 404.5 813.5Q296 897 213.5 1015.0Q131 1133 75 1280Q70 1292 70 1304Q70 1330 89.5 1349.0Q109 1368 135 1368Q158 1368 174.5 1351.0Q191 1334 203.5 1310.0Q216 1286 225.0 1260.5Q234 1235 243 1218Q352 1000 524.5 884.0Q697 768 945 768Q1062 768 1176.0 797.0Q1290 826 1394.5 878.5Q1499 931 1590.5 1005.5Q1682 1080 1754 1172Q1784 1210 1807.0 1250.5Q1830 1291 1857 1330Q1868 1347 1880.5 1355.5Q1893 1364 1914 1364Z"/>
  </g>
</svg>