<?xml version="1.0" encoding="utf-8"?>
<svg xmlns="http://www.w3.org/2000/svg" width="16" height="16" viewBox="0 0 2048 2048">
  <g transform="translate(0, 2048) scale(1, -1)">
    <path fill="#ffffff" d="M1475 1848Q1504 1848 1519.5 1829.5Q1535 1811 1540 1785Q1543 1767 1543.5 1748.5Q1544 1730 1544 1710V1670Q1544 1660 1545 1652Q1552 1494 1566.5 1340.0Q1581 1186 1601.0 1033.0Q1621 880 1647.5 727.5Q1674 575 1705 420Q1706 417 1706.0 413.5Q1706 410 1706 407Q1706 376 1686.0 359.5Q1666 343 1637 343Q1611 343 1583.5 346.0Q1556 349 1529 351Q1422 357 1314 357Q1042 357 778.5 317.0Q515 277 253 203Q244 200 235 200Q209 200 189.5 219.0Q170 238 170 264Q170 289 183.0 302.5Q196 316 216 326Q251 343 293.5 351.0Q336 359 374 369Q607 427 842.5 455.5Q1078 484 1319 484Q1380 484 1440.5 482.5Q1501 481 1562 477Q1511 728 1477.5 978.5Q1444 1229 1426 1485Q1421 1560 1416.5 1633.5Q1412 1707 1412 1782Q1412 1808 1430.0 1828.0Q1448 1848 1475 1848Z"/>
  </g>
</svg>