<?xml version="1.0" encoding="utf-8"?>
<svg xmlns="http://www.w3.org/2000/svg" width="16" height="16" viewBox="0 0 2048 2048">
  <g transform="translate(0, 2048) scale(1, -1)">
    <path fill="#ffffff" d="M1591 642Q1617 642 1636.0 623.0Q1655 604 1655 578Q1655 561 1644.0 545.0Q1633 529 1618.0 514.0Q1603 499 1586.0 486.5Q1569 474 1557 465Q1479 403 1383.5 343.0Q1288 283 1184.5 235.0Q1081 187 974.0 157.5Q867 128 766 128Q649 128 554.5 171.0Q460 214 393.5 288.5Q327 363 291.5 462.5Q256 562 256 675Q256 753 273.5 834.0Q291 915 321.0 995.5Q351 1076 392.5 1154.5Q434 1233 481.5 1306.0Q529 1379 581.0 1445.0Q633 1511 685 1566Q774 1660 881.0 1740.0Q988 1820 1105 1877Q1141 1894 1179.5 1907.0Q1218 1920 1259 1920Q1308 1920 1344.0 1902.0Q1380 1884 1404.0 1854.0Q1428 1824 1440.0 1783.5Q1452 1743 1452 1698Q1452 1674 1449.5 1651.5Q1447 1629 1442 1606Q1411 1451 1331.0 1315.0Q1251 1179 1136.5 1072.5Q1022 966 881.0 893.5Q740 821 587 793Q561 788 534.5 784.5Q508 781 481 781Q455 781 434.0 797.0Q413 813 413 841Q413 873 428.5 888.0Q444 903 473 909Q490 913 508.0 914.5Q526 916 543 918Q583 924 621.5 932.0Q660 940 698 953Q812 991 913.5 1057.5Q1015 1124 1096.5 1212.5Q1178 1301 1235.0 1407.5Q1292 1514 1317 1632Q1324 1664 1324 1700Q1324 1716 1321.5 1732.5Q1319 1749 1312.0 1762.0Q1305 1775 1292.5 1783.5Q1280 1792 1260 1792Q1234 1792 1209.0 1782.5Q1184 1773 1161 1762Q1053 1708 956.5 1635.0Q860 1562 776.5 1474.5Q693 1387 623.5 1287.5Q554 1188 499 1082Q450 987 417.0 885.0Q384 783 384 674Q384 587 409.5 511.0Q435 435 484.0 378.5Q533 322 604.0 289.0Q675 256 766 256Q852 256 946.0 282.5Q1040 309 1132.5 351.5Q1225 394 1309.5 446.5Q1394 499 1460 551Q1483 569 1504.0 588.5Q1525 608 1548 625Q1559 633 1568.0 637.5Q1577 642 1591 642Z"/>
  </g>
</svg>