<?xml version="1.0" encoding="utf-8"?>
<svg xmlns="http://www.w3.org/2000/svg" width="16" height="16" viewBox="0 0 2048 2048">
  <g transform="translate(0, 2048) scale(1, -1)">
    <path fill="#ffffff" d="M1757 1132Q1788 1132 1818 1131H1859Q1889 1130 1920 1130Q1926 1130 1931 1130L1952 1131H1975Q1980 1131 1985 1130Q2011 1128 2029.5 1110.0Q2048 1092 2048 1065Q2048 1039 2029.0 1020.5Q2010 1002 1984 1002Q1940 1002 1896 1003H1839Q1795 1004 1751 1004Q1328 1004 910.0 983.0Q492 962 71 917H69L66 916Q65 916 64 916Q38 916 19.0 935.0Q0 954 0 980Q0 1008 16.0 1022.5Q32 1037 57 1044Q95 1054 138.0 1055.0Q181 1056 221 1060Q303 1068 385.0 1074.5Q467 1081 549 1087Q1152 1132 1757 1132Z"/>
  </g>
</svg>