<?xml version="1.0" encoding="utf-8"?>
<svg xmlns="http://www.w3.org/2000/svg" width="16" height="16" viewBox="0 0 2048 2048">
  <g transform="translate(0, 2048) scale(1, -1)">
    <path fill="#ffffff" d="M1047 66Q1047 40 1029.5 20.0Q1012 0 985 0Q955 0 939.5 17.0Q924 34 919 62Q918 69 916.5 80.5Q915 92 914.0 105.0Q913 118 912.5 129.5Q912 141 912 148V328Q912 397 909.5 464.5Q907 532 905 601Q901 744 898.5 886.5Q896 1029 896 1172Q896 1315 901.0 1455.5Q906 1596 906 1739V1985Q906 2012 925.5 2030.0Q945 2048 971 2048Q998 2048 1016.0 2028.5Q1034 2009 1034 1983Q1034 1805 1030 1628L1028 1528Q1024 1352 1024 1173Q1024 961 1029.0 751.5Q1034 542 1040 331Q1042 265 1044.5 198.5Q1047 132 1047 66Z"/>
  </g>
</svg>