<?xml version="1.0" encoding="utf-8"?>
<svg xmlns="http://www.w3.org/2000/svg" width="16" height="16" viewBox="0 0 2048 2048">
  <g transform="translate(0, 2048) scale(1, -1)">
    <path fill="#000000" d="M2048 1364Q2048 1353 2045.0 1345.0Q2042 1337 2037 1328Q2020 1297 1991.0 1250.5Q1962 1204 1928.5 1149.5Q1895 1095 1861.0 1036.5Q1827 978 1799.5 923.5Q1772 869 1754.5 822.5Q1737 776 1737 745Q1737 726 1743.5 716.0Q1750 706 1757.5 698.0Q1765 690 1771.5 680.5Q1778 671 1778 652Q1778 626 1759.5 607.0Q1741 588 1715 588Q1688 588 1668.5 604.0Q1649 620 1635.5 644.0Q1622 668 1615.5 695.5Q1609 723 1609 745Q1609 792 1622.0 832.5Q1635 873 1655 915Q1741 1092 1842 1258Q1782 1219 1727.0 1173.0Q1672 1127 1621.0 1077.0Q1570 1027 1522.0 974.0Q1474 921 1426 868Q1372 807 1317.0 747.0Q1262 687 1202 631Q1183 613 1167.5 602.5Q1152 592 1126 586Q1121 584 1115.0 584.0Q1109 584 1104 584Q1073 584 1050.5 598.0Q1028 612 1014.0 634.5Q1000 657 993.0 684.5Q986 712 986 739Q986 782 1004.0 834.5Q1022 887 1051.0 944.0Q1080 1001 1116.5 1060.0Q1153 1119 1190.0 1174.0Q1227 1229 1260.5 1278.0Q1294 1327 1318 1364Q1240 1301 1175.5 1227.5Q1111 1154 1047 1077Q1004 1026 954.5 968.0Q905 910 852.0 854.0Q799 798 742.5 749.0Q686 700 628 666Q612 656 594 656Q569 656 553.0 671.0Q537 686 527.5 708.0Q518 730 514.0 754.5Q510 779 510 798Q510 830 517.0 861.5Q524 893 536.0 923.5Q548 954 563.5 982.5Q579 1011 595 1038L774 1336Q729 1300 691.0 1258.5Q653 1217 616 1174L155 635Q144 622 128.5 616.0Q113 610 96 610Q72 610 54.0 621.0Q36 632 24.0 649.5Q12 667 6.0 688.5Q0 710 0 731Q0 742 1.5 751.5Q3 761 5 771Q25 858 60.0 940.0Q95 1022 140 1098Q159 1129 184.5 1168.5Q210 1208 239.0 1247.0Q268 1286 298.5 1321.0Q329 1356 357 1378Q368 1386 378.0 1391.0Q388 1396 402 1396Q428 1396 447.0 1377.0Q466 1358 466 1332Q466 1316 455.5 1299.5Q445 1283 430.5 1267.0Q416 1251 400.5 1236.5Q385 1222 375 1210Q231 1043 158 835L519 1257Q561 1306 605.0 1353.0Q649 1400 698.5 1439.0Q748 1478 804.0 1506.5Q860 1535 928 1547Q931 1548 938 1548Q964 1548 983.0 1529.5Q1002 1511 1002 1485Q1002 1468 992 1451L705 972Q685 939 667.5 905.5Q650 872 642 834Q714 893 777.5 961.5Q841 1030 901.0 1102.0Q961 1174 1020.5 1245.5Q1080 1317 1145.5 1382.0Q1211 1447 1285.5 1502.0Q1360 1557 1449 1596Q1459 1601 1475 1601Q1501 1601 1520.0 1582.5Q1539 1564 1539 1538Q1539 1527 1535 1516Q1501 1419 1447.5 1333.0Q1394 1247 1337 1162Q1322 1139 1299.5 1106.0Q1277 1073 1252.0 1034.5Q1227 996 1202.0 954.0Q1177 912 1157.5 872.5Q1138 833 1125.5 798.0Q1113 763 1113 738Q1113 736 1113 734L1114 728Q1114 726 1114 724Q1206 812 1293.5 912.0Q1381 1012 1472.0 1107.0Q1563 1202 1663.0 1286.0Q1763 1370 1880 1427Q1897 1435 1915.5 1440.0Q1934 1445 1953 1445Q1970 1445 1987.0 1439.5Q2004 1434 2017.5 1423.5Q2031 1413 2039.5 1398.0Q2048 1383 2048 1364Z"/>
  </g>
</svg>