<?xml version="1.0" encoding="utf-8"?>
<svg id="" width="16" height="16" style="width:16px;height:16px;" version="1.1" xmlns="http://www.w3.org/2000/svg" viewBox="0 0 2048 2048" enable-background="new 0 0 2048 2048" xml:space="preserve">
    <path fill="#ffffff" d="M0 576 q0 -119 45.5 -224 q45.5 -105 123.5 -183 q78 -78 183 -123.5 q105 -45.5 224 -45.5 q79 0 152.5 20.5 q73.5 20.5 137.5 58 q64 37.5 117 90.5 q53 53 90.5 117 q37.5 64 58 137.5 q20.5 73.5 20.5 152.5 q0 119 -45.5 224 q-45.5 105 -123.5 183 q-78 78 -183 123.5 q-105 45.5 -224 45.5 q-120 0 -225 -45 q-105 -45 -183 -123 q-78 -78 -123 -183 q-45 -105 -45 -225 ZM640 486 l141 141 q21 21 51 21 q30 0 51 -21 q21 -21 21 -51 q0 -30 -21 -51 l-256 -256 q-21 -21 -51 -21 q-30 0 -51 21 l-256 256 q-21 21 -21 51 q0 30 21 51 q21 21 51 21 q30 0 51 -21 l141 -141 l0 346 q0 26 19 45 q19 19 45 19 q26 0 45 -19 q19 -19 19 -45 l0 -346 ZM632 2048 q-75 0 -143.5 -30.5 q-68.5 -30.5 -120 -82 q-51.5 -51.5 -82 -120 q-30.5 -68.5 -30.5 -143.5 l0 -433 q61 30 128 48 l0 377 q0 69 35 130 l575 -574 q32 -32 72.5 -49 q40.5 -17 85.5 -17 q45 0 85.5 17 q40.5 17 72.5 49 l575 574 q35 -61 35 -130 l0 -1029 q0 -52 -21 -97.5 q-21 -45.5 -56 -79.5 q-35 -34 -81.5 -54 q-46.5 -20 -97.5 -20 l-377 0 q-18 -67 -48 -128 l433 0 q75 0 143.5 30.5 q68.5 30.5 120 82 q51.5 51.5 82 120 q30.5 68.5 30.5 143.5 l0 1040 q0 75 -30.5 143.5 q-30.5 68.5 -82 120 q-51.5 51.5 -120 82 q-68.5 30.5 -143.5 30.5 l-1040 0 ZM1280 832 q0 -39 15 -74 q15 -35 41.5 -61.5 q26.5 -26.5 61.5 -41.5 q35 -15 74 -15 q39 0 74 15 q35 15 61.5 41.5 q26.5 26.5 41.5 61.5 q15 35 15 74 q0 39 -15 74 q-15 35 -41.5 61.5 q-26.5 26.5 -61.5 41.5 q-35 15 -74 15 q-39 0 -74 -15 q-35 -15 -61.5 -41.5 q-26.5 -26.5 -41.5 -61.5 q-15 -35 -15 -74 ZM1536 832 q0 -26 -19 -45 q-19 -19 -45 -19 q-26 0 -45 19 q-19 19 -19 45 q0 26 19 45 q19 19 45 19 q26 0 45 -19 q19 -19 19 -45 ZM1664 1920 q69 0 130 -35 l-574 -575 q-28 -28 -68 -28 q-40 0 -68 28 l-574 575 q61 35 130 35 l1024 0 Z"/>
</svg>