<?xml version="1.0" encoding="utf-8"?>
<svg xmlns="http://www.w3.org/2000/svg" width="16" height="16" viewBox="0 0 2048 2048">
  <g transform="translate(0, 2048) scale(1, -1)">
    <path fill="#ffffff" d="M640 1672Q640 1750 671.0 1818.5Q702 1887 754.5 1938.0Q807 1989 877.0 2018.5Q947 2048 1024 2048Q1101 2048 1171.0 2018.5Q1241 1989 1293.5 1938.0Q1346 1887 1377.0 1818.5Q1408 1750 1408 1672Q1408 1563 1395.0 1456.0Q1382 1349 1359 1243Q1336 1134 1311.0 1024.0Q1286 914 1251 808Q1238 770 1218.5 740.0Q1199 710 1166 686Q1104 640 1024 640Q946 640 882 686Q849 709 829.5 739.5Q810 770 797 808Q762 914 736.5 1024.0Q711 1134 688 1244Q666 1350 653.0 1456.5Q640 1563 640 1672ZM1280 1669Q1280 1721 1259.0 1766.5Q1238 1812 1203.0 1846.0Q1168 1880 1121.5 1900.0Q1075 1920 1024 1920Q973 1920 926.5 1900.0Q880 1880 845.0 1846.0Q810 1812 789.0 1766.5Q768 1721 768 1669Q768 1580 778.0 1491.5Q788 1403 804.5 1316.0Q821 1229 842.0 1142.5Q863 1056 885 970Q893 938 901.0 906.5Q909 875 920 844Q933 809 959.0 788.5Q985 768 1024 768Q1062 768 1088.5 788.5Q1115 809 1129 844Q1140 871 1146.5 900.0Q1153 929 1161 957Q1184 1044 1205.5 1132.0Q1227 1220 1243.5 1309.5Q1260 1399 1270.0 1489.0Q1280 1579 1280 1669ZM768 261Q768 313 789.0 358.5Q810 404 845.0 438.0Q880 472 926.5 492.0Q973 512 1024 512Q1076 512 1123.0 491.5Q1170 471 1204.5 436.5Q1239 402 1259.5 355.0Q1280 308 1280 256Q1280 203 1259.5 156.5Q1239 110 1204.5 75.5Q1170 41 1123.0 20.5Q1076 0 1024 0Q970 0 923.0 20.5Q876 41 841.5 76.5Q807 112 787.5 159.5Q768 207 768 261ZM1152 256Q1152 282 1142.0 305.5Q1132 329 1114.5 346.5Q1097 364 1073.5 374.0Q1050 384 1024 384Q997 384 974.0 374.0Q951 364 933.5 346.5Q916 329 906.0 306.0Q896 283 896 256Q896 229 906.0 205.5Q916 182 933.0 165.0Q950 148 973.5 138.0Q997 128 1024 128Q1051 128 1074.0 138.0Q1097 148 1114.5 165.5Q1132 183 1142.0 206.0Q1152 229 1152 256Z"/>
  </g>
</svg>