<?xml version="1.0" encoding="utf-8"?>
<svg xmlns="http://www.w3.org/2000/svg" width="16" height="16" viewBox="0 0 2048 2048">
  <g transform="translate(0, 2048) scale(1, -1)">
    <path fill="#ffffff" d="M128 1728V448Q128 422 109.0 403.0Q90 384 64 384Q38 384 19.0 403.0Q0 422 0 448V1728Q0 1754 19.0 1773.0Q38 1792 64 1792Q90 1792 109.0 1773.0Q128 1754 128 1728ZM2048 1088Q2048 1062 2029.0 1043.0Q2010 1024 1984 1024H475L941 557Q960 538 960 512Q960 486 941.0 467.0Q922 448 896 448Q870 448 851 467L278 1040Q267 1051 261.5 1062.0Q256 1073 256 1088Q256 1103 261.5 1114.0Q267 1125 278 1136L851 1709Q870 1728 896 1728Q922 1728 941.0 1709.0Q960 1690 960 1664Q960 1638 941 1619L475 1152H1984Q2010 1152 2029.0 1133.0Q2048 1114 2048 1088Z"/>
  </g>
</svg>