<?xml version="1.0" encoding="utf-8"?>
<svg xmlns="http://www.w3.org/2000/svg" width="16" height="16" viewBox="0 0 2048 2048">
  <g transform="translate(0, 2048) scale(1, -1)">
    <path fill="#000000" d="M2048 1728V448Q2048 422 2029.0 403.0Q2010 384 1984 384Q1958 384 1939.0 403.0Q1920 422 1920 448V1728Q1920 1754 1939.0 1773.0Q1958 1792 1984 1792Q2010 1792 2029.0 1773.0Q2048 1754 2048 1728ZM1408 1088Q1408 1062 1389 1043L813 467Q794 448 768 448Q742 448 723.0 467.0Q704 486 704 512Q704 538 723 557L1190 1024H64Q38 1024 19.0 1043.0Q0 1062 0 1088Q0 1114 19.0 1133.0Q38 1152 64 1152H1190L723 1619Q704 1638 704 1664Q704 1690 723.0 1709.0Q742 1728 768 1728Q794 1728 813 1709L1389 1133Q1408 1114 1408 1088ZM1792 1088Q1792 1062 1773 1043L1197 467Q1178 448 1152 448Q1126 448 1107.0 467.0Q1088 486 1088 512Q1088 538 1107 557L1638 1088L1107 1619Q1088 1638 1088 1664Q1088 1690 1107.0 1709.0Q1126 1728 1152 1728Q1178 1728 1197 1709L1773 1133Q1792 1114 1792 1088Z"/>
  </g>
</svg>