<?xml version="1.0" encoding="utf-8"?>
<svg xmlns="http://www.w3.org/2000/svg" width="16" height="16" viewBox="0 0 2048 2048">
  <g transform="translate(0, 2048) scale(1, -1)">
    <path fill="#ffffff" d="M207 128Q168 128 133.5 143.0Q99 158 72.5 183.5Q46 209 30.5 243.5Q15 278 15 317Q15 363 35 405L788 1911Q813 1961 859.0 1989.0Q905 2017 960 2017Q1015 2017 1061.0 1989.0Q1107 1961 1132 1911L1885 405Q1905 363 1905 317Q1905 278 1889.5 243.5Q1874 209 1847.5 183.5Q1821 158 1786.5 143.0Q1752 128 1713 128ZM1024 816V1328Q1024 1354 1005.0 1373.0Q986 1392 960 1392Q934 1392 915.0 1373.0Q896 1354 896 1328V816Q896 789 914.5 770.5Q933 752 960 752Q987 752 1005.5 770.5Q1024 789 1024 816ZM1056 560Q1056 579 1048.5 596.5Q1041 614 1027.5 627.5Q1014 641 996.5 648.5Q979 656 960 656Q940 656 922.5 648.0Q905 640 892.0 627.0Q879 614 871.5 596.0Q864 578 864 559Q864 539 871.5 521.5Q879 504 892.5 491.5Q906 479 923.0 471.5Q940 464 960 464Q1000 464 1028.0 492.0Q1056 520 1056 560Z"/>
  </g>
</svg>