<?xml version="1.0" encoding="utf-8"?>
<svg xmlns="http://www.w3.org/2000/svg" width="16" height="16" viewBox="0 0 2048 2048">
  <g transform="translate(0, 2048) scale(1, -1)">
    <path fill="#000000" d="M1107 0Q1050 0 997.5 17.5Q945 35 897 66Q798 131 709.0 211.0Q620 291 541.0 381.0Q462 471 393.0 569.0Q324 667 265 768Q202 876 153.5 983.5Q105 1091 72.0 1202.0Q39 1313 22.0 1429.5Q5 1546 5 1671Q5 1761 42.0 1831.5Q79 1902 140.0 1950.5Q201 1999 279.0 2025.0Q357 2051 440 2051Q483 2051 526.0 2045.0Q569 2039 607.5 2024.0Q646 2009 678.5 1983.0Q711 1957 734 1917L858 1700Q901 1626 901 1541Q901 1475 882.5 1428.5Q864 1382 836.0 1347.5Q808 1313 776.0 1288.0Q744 1263 716.0 1240.5Q688 1218 669.5 1195.5Q651 1173 651 1144Q651 1115 666.0 1073.5Q681 1032 703.5 990.0Q726 948 752.0 911.5Q778 875 800 857Q814 846 827.0 841.0Q840 836 858 836Q882 836 908.5 845.5Q935 855 964.5 867.0Q994 879 1027.5 888.5Q1061 898 1100 898Q1188 898 1262.5 854.5Q1337 811 1380 734L1502 516Q1532 463 1532 402Q1532 360 1517 320Q1494 256 1453.5 198.0Q1413 140 1360.0 96.0Q1307 52 1242.5 26.0Q1178 0 1107 0ZM1216 1152Q1190 1152 1171.0 1171.0Q1152 1190 1152 1216V1856Q1152 1882 1171.0 1901.0Q1190 1920 1216 1920Q1242 1920 1261.0 1901.0Q1280 1882 1280 1856V1371L1939 2029Q1958 2048 1984 2048Q2010 2048 2029.0 2029.0Q2048 2010 2048 1984Q2048 1958 2029 1939L1371 1280H1856Q1882 1280 1901.0 1261.0Q1920 1242 1920 1216Q1920 1190 1901.0 1171.0Q1882 1152 1856 1152ZM1404 402Q1404 429 1390 454L1268 672Q1242 718 1198.0 744.0Q1154 770 1101 770Q1069 770 1039.0 760.5Q1009 751 979.5 739.0Q950 727 919.5 717.5Q889 708 856 708Q771 708 711 765Q678 796 644.5 842.5Q611 889 584.0 941.0Q557 993 540.0 1046.5Q523 1100 523 1146Q523 1199 541.5 1235.5Q560 1272 588.0 1299.0Q616 1326 648.0 1349.0Q680 1372 708.0 1398.0Q736 1424 754.5 1457.5Q773 1491 773 1540Q773 1590 747 1636L623 1853Q609 1876 588.0 1890.0Q567 1904 541.5 1911.5Q516 1919 489.0 1921.0Q462 1923 438 1923Q372 1923 316.0 1905.0Q260 1887 219.5 1851.5Q179 1816 156.0 1763.5Q133 1711 133 1642Q133 1507 164.0 1366.0Q195 1225 250.5 1086.0Q306 947 383.5 814.5Q461 682 554.0 564.0Q647 446 752.0 346.0Q857 246 968 173Q1000 152 1035.0 140.0Q1070 128 1108 128Q1159 128 1204.5 148.0Q1250 168 1287.5 201.0Q1325 234 1352.5 276.5Q1380 319 1397 364Q1401 375 1402.5 383.0Q1404 391 1404 402Z"/>
  </g>
</svg>