<?xml version="1.0" encoding="utf-8"?>
<svg xmlns="http://www.w3.org/2000/svg" width="16" height="16" viewBox="0 0 2048 2048">
  <g transform="translate(0, 2048) scale(1, -1)">
    <path fill="#000000" d="M832 1792Q832 1831 847.0 1866.0Q862 1901 888.5 1927.5Q915 1954 950.0 1969.0Q985 1984 1024 1984Q1063 1984 1098.0 1969.0Q1133 1954 1159.5 1927.5Q1186 1901 1201.0 1866.0Q1216 1831 1216 1792Q1216 1753 1201.0 1718.0Q1186 1683 1159.5 1656.5Q1133 1630 1098.0 1615.0Q1063 1600 1024 1600Q985 1600 950.0 1615.0Q915 1630 888.5 1656.5Q862 1683 847.0 1718.0Q832 1753 832 1792ZM896 256V1280Q896 1307 906.0 1330.0Q916 1353 933.5 1370.5Q951 1388 974.0 1398.0Q997 1408 1024 1408Q1050 1408 1073.5 1398.0Q1097 1388 1114.5 1370.5Q1132 1353 1142.0 1329.5Q1152 1306 1152 1280V256Q1152 229 1142.0 206.0Q1132 183 1114.5 165.5Q1097 148 1074.0 138.0Q1051 128 1024 128Q997 128 973.5 138.0Q950 148 933.0 165.0Q916 182 906.0 205.5Q896 229 896 256Z"/>
  </g>
</svg>