<?xml version="1.0" encoding="utf-8"?>
<svg xmlns="http://www.w3.org/2000/svg" width="16" height="16" viewBox="0 0 2048 2048">
  <g transform="translate(0, 2048) scale(1, -1)">
    <path fill="#000000" d="M1408 1920V1472H1512L1160 768H1017L1368 1472H443Q393 1472 347.5 1492.5Q302 1513 267.5 1547.5Q233 1582 212.5 1627.5Q192 1673 192 1723V1920ZM1536 1920H1856V1723Q1856 1673 1835.5 1627.5Q1815 1582 1780.5 1547.5Q1746 1513 1700.5 1492.5Q1655 1472 1605 1472H1536ZM832 576H1216Q1216 546 1213.5 497.0Q1211 448 1203.5 391.0Q1196 334 1183.0 276.0Q1170 218 1148.5 170.5Q1127 123 1096.5 93.5Q1066 64 1024 64Q982 64 951.0 93.5Q920 123 899.0 170.5Q878 218 864.5 276.0Q851 334 844.0 391.0Q837 448 834.5 497.5Q832 547 832 576Z"/>
  </g>
</svg>