<?xml version="1.0" encoding="utf-8"?>
<svg xmlns="http://www.w3.org/2000/svg" width="16" height="16" viewBox="0 0 2048 2048">
  <g transform="translate(0, 2048) scale(1, -1)">
    <path fill="#ffffff" d="M1920 1984V1664Q1920 1592 1883.0 1531.0Q1846 1470 1782 1437L1373 618Q1359 589 1334.0 565.5Q1309 542 1279 529Q1276 438 1262.0 347.5Q1248 257 1219 169Q1207 133 1190.5 102.5Q1174 72 1150.5 49.0Q1127 26 1095.5 13.0Q1064 0 1024 0Q983 0 952.0 13.0Q921 26 897.5 49.0Q874 72 857.5 102.5Q841 133 829 169Q800 257 786.0 347.5Q772 438 769 529Q739 542 714.0 565.5Q689 589 675 618L266 1437Q202 1470 165.0 1531.0Q128 1592 128 1664V1984Q128 2010 147.0 2029.0Q166 2048 192 2048Q218 2048 237.0 2029.0Q256 2010 256 1984V1664Q256 1637 266.0 1613.5Q276 1590 293.0 1573.0Q310 1556 333.5 1546.0Q357 1536 384 1536H1664Q1691 1536 1714.0 1546.0Q1737 1556 1754.5 1573.5Q1772 1591 1782.0 1614.0Q1792 1637 1792 1664V1984Q1792 2010 1811.0 2029.0Q1830 2048 1856 2048Q1882 2048 1901.0 2029.0Q1920 2010 1920 1984ZM1625 1408H424L790 675Q798 659 814.0 649.5Q830 640 847 640H1201Q1218 640 1234.0 649.5Q1250 659 1258 675ZM1150 512H898Q898 497 901.5 462.5Q905 428 911.0 385.5Q917 343 927.0 297.5Q937 252 951.0 214.0Q965 176 983.0 152.0Q1001 128 1024 128Q1047 128 1065.0 152.0Q1083 176 1097.0 214.0Q1111 252 1121.0 297.5Q1131 343 1137.0 385.5Q1143 428 1146.0 462.5Q1149 497 1150 512Z"/>
  </g>
</svg>