<?xml version="1.0" encoding="utf-8"?>
<svg xmlns="http://www.w3.org/2000/svg" width="16" height="16" viewBox="0 0 2048 2048">
  <g transform="translate(0, 2048) scale(1, -1)">
    <path fill="#000000" d="M1024 1920Q1148 1920 1262.5 1888.0Q1377 1856 1476.5 1797.5Q1576 1739 1657.5 1657.5Q1739 1576 1797.5 1476.5Q1856 1377 1888.0 1262.5Q1920 1148 1920 1024Q1920 900 1888.0 785.5Q1856 671 1797.5 571.5Q1739 472 1657.5 390.5Q1576 309 1476.5 250.5Q1377 192 1262.5 160.0Q1148 128 1024 128Q900 128 785.5 160.0Q671 192 571.5 250.5Q472 309 390.5 390.5Q309 472 250.5 571.5Q192 671 160.0 785.5Q128 900 128 1024Q128 1148 160.0 1262.5Q192 1377 250.5 1476.5Q309 1576 390.5 1657.5Q472 1739 571.5 1797.5Q671 1856 785.5 1888.0Q900 1920 1024 1920Z"/>
  </g>
</svg>