<?xml version="1.0" encoding="utf-8"?>
<svg xmlns="http://www.w3.org/2000/svg" width="16" height="16" viewBox="0 0 2048 2048">
  <g transform="translate(0, 2048) scale(1, -1)">
    <path fill="#000000" d="M1024 2048Q1165 2048 1296.0 2011.5Q1427 1975 1540.5 1908.0Q1654 1841 1747.5 1747.5Q1841 1654 1908.0 1540.5Q1975 1427 2011.5 1296.0Q2048 1165 2048 1024Q2048 883 2011.5 752.0Q1975 621 1908.0 507.5Q1841 394 1747.5 300.5Q1654 207 1540.5 140.0Q1427 73 1296.0 36.5Q1165 0 1024 0Q883 0 752.0 36.5Q621 73 507.5 140.0Q394 207 300.5 300.5Q207 394 140.0 507.5Q73 621 36.5 752.0Q0 883 0 1024Q0 1165 36.5 1296.0Q73 1427 140.0 1540.5Q207 1654 300.5 1747.5Q394 1841 507.5 1908.0Q621 1975 752.0 2011.5Q883 2048 1024 2048ZM1024 256Q1130 256 1228.0 283.5Q1326 311 1411.5 361.0Q1497 411 1567.0 481.0Q1637 551 1687.0 636.5Q1737 722 1764.5 820.0Q1792 918 1792 1024Q1792 1130 1764.5 1228.0Q1737 1326 1687.0 1411.5Q1637 1497 1567.0 1567.0Q1497 1637 1411.5 1687.0Q1326 1737 1228.0 1764.5Q1130 1792 1024 1792Q918 1792 820.0 1764.5Q722 1737 636.5 1687.0Q551 1637 481.0 1567.0Q411 1497 361.0 1411.5Q311 1326 283.5 1228.0Q256 1130 256 1024Q256 918 283.5 820.0Q311 722 361.0 636.5Q411 551 481.0 481.0Q551 411 636.5 361.0Q722 311 820.0 283.5Q918 256 1024 256Z"/>
  </g>
</svg>