<?xml version="1.0" encoding="utf-8"?>
<svg xmlns="http://www.w3.org/2000/svg" width="16" height="16" viewBox="0 0 2048 2048">
  <g transform="translate(0, 2048) scale(1, -1)">
    <path fill="#ffffff" d="M441 128Q378 128 321.0 153.5Q264 179 221.5 221.5Q179 264 153.5 321.0Q128 378 128 441V1607Q128 1670 153.5 1727.0Q179 1784 221.5 1826.5Q264 1869 321.0 1894.5Q378 1920 441 1920H1607Q1670 1920 1727.0 1894.5Q1784 1869 1826.5 1826.5Q1869 1784 1894.5 1727.0Q1920 1670 1920 1607V441Q1920 378 1894.5 321.0Q1869 264 1826.5 221.5Q1784 179 1727.0 153.5Q1670 128 1607 128ZM256 1536H360L616 1792H448Q409 1792 374.0 1777.0Q339 1762 312.5 1735.5Q286 1709 271.0 1674.0Q256 1639 256 1600ZM797 1792 541 1536H903L1159 1792ZM1084 1536H1446L1683 1773Q1645 1792 1600 1792H1340ZM1627 1536H1792V1600Q1792 1641 1773 1682ZM1318 1408H956L256 708V448Q256 403 275 365ZM256 1251V889L775 1408H413ZM709 256 1792 1339V1408H1499L365 274Q404 256 448 256ZM1792 1158 890 256H1252L1792 796ZM1600 256Q1639 256 1674.0 271.0Q1709 286 1735.5 312.5Q1762 339 1777.0 374.0Q1792 409 1792 448V615L1433 256Z"/>
  </g>
</svg>