<?xml version="1.0" encoding="utf-8"?>
<svg xmlns="http://www.w3.org/2000/svg" width="16" height="16" viewBox="0 0 2048 2048">
  <g transform="translate(0, 2048) scale(1, -1)">
    <path fill="#ffffff" d="M251 512Q201 512 155.5 532.5Q110 553 75.5 587.5Q41 622 20.5 667.5Q0 713 0 763V1669Q0 1719 20.5 1764.5Q41 1810 75.5 1844.5Q110 1879 155.5 1899.5Q201 1920 251 1920H1797Q1847 1920 1892.5 1899.5Q1938 1879 1972.5 1844.5Q2007 1810 2027.5 1764.5Q2048 1719 2048 1669V1408H1920V1664Q1920 1690 1910.0 1713.5Q1900 1737 1882.5 1754.5Q1865 1772 1841.5 1782.0Q1818 1792 1792 1792H256Q229 1792 206.0 1782.0Q183 1772 165.5 1754.5Q148 1737 138.0 1714.0Q128 1691 128 1664V768Q128 741 138.0 717.5Q148 694 165.0 677.0Q182 660 205.5 650.0Q229 640 256 640H1024V512ZM320 1504Q320 1544 348.0 1572.0Q376 1600 416 1600Q456 1600 484.0 1572.0Q512 1544 512 1504Q512 1464 484.0 1436.0Q456 1408 416 1408Q376 1408 348.0 1436.0Q320 1464 320 1504ZM704 1504Q704 1544 732.0 1572.0Q760 1600 800 1600Q840 1600 868.0 1572.0Q896 1544 896 1504Q896 1464 868.0 1436.0Q840 1408 800 1408Q760 1408 732.0 1436.0Q704 1464 704 1504ZM1088 1504Q1088 1544 1116.0 1572.0Q1144 1600 1184 1600Q1224 1600 1252.0 1572.0Q1280 1544 1280 1504Q1280 1464 1252.0 1436.0Q1224 1408 1184 1408Q1144 1408 1116.0 1436.0Q1088 1464 1088 1504ZM1472 1504Q1472 1544 1500.0 1572.0Q1528 1600 1568 1600Q1608 1600 1636.0 1572.0Q1664 1544 1664 1504Q1664 1464 1636.0 1436.0Q1608 1408 1568 1408Q1528 1408 1500.0 1436.0Q1472 1464 1472 1504ZM1152 967Q1152 1030 1177.5 1087.0Q1203 1144 1245.5 1186.5Q1288 1229 1345.0 1254.5Q1402 1280 1465 1280H1735Q1798 1280 1855.0 1254.5Q1912 1229 1954.5 1186.5Q1997 1144 2022.5 1087.0Q2048 1030 2048 967V440Q2048 349 2011.5 269.0Q1975 189 1913.5 129.0Q1852 69 1770.5 34.5Q1689 0 1600 0Q1511 0 1429.5 34.5Q1348 69 1286.5 129.0Q1225 189 1188.5 269.0Q1152 349 1152 440ZM576 1120Q576 1160 604.0 1188.0Q632 1216 672 1216Q712 1216 740.0 1188.0Q768 1160 768 1120Q768 1080 740.0 1052.0Q712 1024 672 1024Q632 1024 604.0 1052.0Q576 1080 576 1120ZM960 1120Q960 1160 988.0 1188.0Q1016 1216 1056 1216Q1096 1216 1124.0 1188.0Q1152 1160 1152 1120Q1152 1080 1124.0 1052.0Q1096 1024 1056 1024Q1016 1024 988.0 1052.0Q960 1080 960 1120ZM1664 1152V832Q1664 806 1645.0 787.0Q1626 768 1600 768Q1574 768 1555.0 787.0Q1536 806 1536 832V1152H1472Q1433 1152 1398.0 1137.0Q1363 1122 1336.5 1095.5Q1310 1069 1295.0 1034.0Q1280 999 1280 960V441Q1280 376 1306.0 319.0Q1332 262 1376.0 219.5Q1420 177 1478.0 152.5Q1536 128 1600 128Q1664 128 1722.0 152.5Q1780 177 1824.0 219.5Q1868 262 1894.0 319.0Q1920 376 1920 441V960Q1920 999 1905.0 1034.0Q1890 1069 1863.5 1095.5Q1837 1122 1802.0 1137.0Q1767 1152 1728 1152ZM448 768Q422 768 403.0 787.0Q384 806 384 832Q384 858 403.0 877.0Q422 896 448 896H1024V768Z"/>
  </g>
</svg>