<?xml version="1.0" encoding="utf-8"?>
<svg xmlns="http://www.w3.org/2000/svg" width="16" height="16" viewBox="0 0 2048 2048">
  <g transform="translate(0, 2048) scale(1, -1)">
    <path fill="#000000" d="M1344 1728Q1318 1728 1299.0 1747.0Q1280 1766 1280 1792V1984Q1280 2010 1299.0 2029.0Q1318 2048 1344 2048Q1370 2048 1389.0 2029.0Q1408 2010 1408 1984V1792Q1408 1766 1389.0 1747.0Q1370 1728 1344 1728ZM1664 1600Q1638 1600 1619.0 1619.0Q1600 1638 1600 1664Q1600 1690 1619 1709L1875 1965Q1894 1984 1920 1984Q1946 1984 1965.0 1965.0Q1984 1946 1984 1920Q1984 1894 1965 1875L1709 1619Q1690 1600 1664 1600ZM961 1792Q974 1792 984 1782L1782 984Q1792 974 1792 961Q1792 942 1777 933L742 270Q769 234 810.0 213.0Q851 192 896 192Q936 192 971.0 207.0Q1006 222 1032.0 248.0Q1058 274 1073.0 309.0Q1088 344 1088 384H1216Q1216 318 1191.0 259.5Q1166 201 1122.5 157.5Q1079 114 1020.5 89.0Q962 64 896 64Q818 64 748.5 100.0Q679 136 634 200L338 10Q329 4 321.0 2.0Q313 0 302 0Q275 0 256 19L19 256Q0 275 0 302Q0 313 2.0 321.0Q4 329 10 338L933 1777Q942 1792 961 1792ZM1792 1408H1984Q2010 1408 2029.0 1389.0Q2048 1370 2048 1344Q2048 1318 2029.0 1299.0Q2010 1280 1984 1280H1792Q1766 1280 1747.0 1299.0Q1728 1318 1728 1344Q1728 1370 1747.0 1389.0Q1766 1408 1792 1408Z"/>
  </g>
</svg>