<?xml version="1.0" encoding="utf-8"?>
<svg xmlns="http://www.w3.org/2000/svg" width="16" height="16" viewBox="0 0 2048 2048">
  <g transform="translate(0, 2048) scale(1, -1)">
    <path fill="#000000" d="M1379 328Q1379 302 1360.5 283.0Q1342 264 1316 264Q1297 264 1284.5 272.5Q1272 281 1261 295Q1240 323 1223.0 355.5Q1206 388 1189 419Q1117 550 1056.0 685.5Q995 821 946 963Q853 854 777.5 734.5Q702 615 644 484Q624 439 608.5 392.0Q593 345 573 300Q564 280 549.5 268.0Q535 256 512 256Q486 256 467.0 275.0Q448 294 448 320Q448 331 451 340Q511 529 606.0 698.0Q701 867 826 1020Q849 1049 873.5 1078.5Q898 1108 925 1132Q935 1141 946.0 1146.5Q957 1152 971 1152Q996 1152 1011.5 1136.0Q1027 1120 1037.0 1097.5Q1047 1075 1053.5 1049.5Q1060 1024 1066 1006Q1087 942 1114.0 873.0Q1141 804 1171.5 735.5Q1202 667 1235.5 600.5Q1269 534 1303 476Q1310 464 1322.5 444.5Q1335 425 1347.5 403.0Q1360 381 1369.5 361.0Q1379 341 1379 328Z"/>
  </g>
</svg>