<?xml version="1.0" encoding="utf-8"?>
<svg xmlns="http://www.w3.org/2000/svg" width="16" height="16" viewBox="0 0 2048 2048">
  <g transform="translate(0, 2048) scale(1, -1)">
    <path fill="#ffffff" d="M128 1088Q128 951 172.0 820.5Q216 690 301 581Q314 565 327 550L346 531Q359 516 372 500Q382 488 386.5 480.0Q391 472 391 455Q391 428 372.0 409.5Q353 391 326 391Q311 391 301.5 395.5Q292 400 281 409Q253 430 222.0 469.5Q191 509 162.0 554.0Q133 599 109.0 644.5Q85 690 72 723Q37 811 19.0 902.5Q1 994 1 1088Q1 1182 19.0 1273.0Q37 1364 72 1452Q87 1489 110.0 1533.5Q133 1578 160.5 1621.5Q188 1665 219.0 1703.5Q250 1742 281 1767Q293 1777 301.5 1781.5Q310 1786 327 1786Q353 1786 372.0 1767.0Q391 1748 391 1722Q391 1705 386.5 1696.5Q382 1688 372 1676Q357 1657 341 1639L319 1615Q303 1598 288 1578Q210 1473 169.0 1346.0Q128 1219 128 1088ZM1920 1088Q1920 924 1869.0 779.0Q1818 634 1721 503Q1711 490 1696.5 471.0Q1682 452 1665.0 434.0Q1648 416 1630.0 403.5Q1612 391 1594 391Q1567 391 1548.0 409.5Q1529 428 1529 455Q1529 469 1534.0 479.0Q1539 489 1548 500Q1559 514 1571.5 526.0Q1584 538 1596 551Q1644 604 1680.5 668.0Q1717 732 1741.5 801.5Q1766 871 1779.0 944.0Q1792 1017 1792 1088Q1792 1160 1779.0 1232.5Q1766 1305 1741.5 1374.0Q1717 1443 1680.5 1507.0Q1644 1571 1596 1625Q1585 1638 1572.0 1650.0Q1559 1662 1548 1676Q1539 1687 1534.0 1697.5Q1529 1708 1529 1722Q1529 1749 1548.5 1767.5Q1568 1786 1594 1786Q1610 1786 1618.5 1781.5Q1627 1777 1639 1767Q1671 1741 1702.0 1702.5Q1733 1664 1760.5 1621.5Q1788 1579 1810.5 1534.5Q1833 1490 1848 1452Q1883 1365 1901.5 1273.5Q1920 1182 1920 1088ZM662 1450Q662 1435 657.0 1425.5Q652 1416 643 1405Q612 1365 587.5 1330.5Q563 1296 546.5 1259.5Q530 1223 521.0 1181.5Q512 1140 512 1088Q512 1036 520.5 994.5Q529 953 546.0 916.5Q563 880 587.0 845.0Q611 810 643 771Q653 759 657.5 750.5Q662 742 662 726Q662 700 643.0 681.0Q624 662 598 662Q583 662 573.5 666.5Q564 671 553 681Q513 715 481.5 763.5Q450 812 428.5 867.0Q407 922 395.5 979.0Q384 1036 384 1088Q384 1139 395.0 1196.5Q406 1254 428.0 1309.5Q450 1365 481.0 1413.5Q512 1462 553 1495Q564 1504 572.5 1509.0Q581 1514 598 1514Q624 1514 643.0 1495.0Q662 1476 662 1450ZM1536 1088Q1536 1036 1524.5 979.0Q1513 922 1491.5 867.0Q1470 812 1438.5 763.5Q1407 715 1367 681Q1356 671 1346.5 666.5Q1337 662 1322 662Q1296 662 1277.0 681.0Q1258 700 1258 726Q1258 741 1263.0 750.5Q1268 760 1277 771Q1308 810 1332.0 845.0Q1356 880 1373.0 916.5Q1390 953 1399.0 994.5Q1408 1036 1408 1088Q1408 1140 1399.0 1181.5Q1390 1223 1373.5 1259.5Q1357 1296 1332.5 1330.5Q1308 1365 1277 1405Q1268 1416 1263.0 1425.5Q1258 1435 1258 1450Q1258 1476 1277.0 1495.0Q1296 1514 1322 1514Q1337 1514 1346.5 1509.5Q1356 1505 1367 1495Q1408 1460 1439.5 1412.0Q1471 1364 1492.5 1309.0Q1514 1254 1525.0 1197.0Q1536 1140 1536 1088ZM1152 1088Q1152 1057 1143.0 1029.0Q1134 1001 1117.0 977.0Q1100 953 1076.5 935.0Q1053 917 1024 907V64Q1024 38 1005.0 19.0Q986 0 960 0Q934 0 915.0 19.0Q896 38 896 64V907Q867 917 843.5 935.0Q820 953 803.0 977.0Q786 1001 777.0 1029.0Q768 1057 768 1088Q768 1127 783.0 1162.0Q798 1197 824.5 1223.5Q851 1250 886.0 1265.0Q921 1280 960 1280Q999 1280 1034.0 1265.0Q1069 1250 1095.5 1223.5Q1122 1197 1137.0 1162.0Q1152 1127 1152 1088ZM1024 1088Q1024 1114 1005.0 1133.0Q986 1152 960 1152Q934 1152 915.0 1133.0Q896 1114 896 1088Q896 1062 915.0 1043.0Q934 1024 960 1024Q986 1024 1005.0 1043.0Q1024 1062 1024 1088Z"/>
  </g>
</svg>