<?xml version="1.0" encoding="utf-8"?>
<svg xmlns="http://www.w3.org/2000/svg" width="16" height="16" viewBox="0 0 2048 2048">
  <g transform="translate(0, 2048) scale(1, -1)">
    <path fill="#ffffff" d="M1920 960Q1920 934 1901.0 915.0Q1882 896 1856 896H192Q166 896 147.0 915.0Q128 934 128 960Q128 986 147.0 1005.0Q166 1024 192 1024H896V1856Q896 1882 915.0 1901.0Q934 1920 960 1920Q986 1920 1005.0 1901.0Q1024 1882 1024 1856V1024H1856Q1882 1024 1901.0 1005.0Q1920 986 1920 960ZM384 1216V1728Q384 1754 403.0 1773.0Q422 1792 448 1792Q474 1792 493.0 1773.0Q512 1754 512 1728V1216Q512 1190 493.0 1171.0Q474 1152 448 1152Q422 1152 403.0 1171.0Q384 1190 384 1216ZM1216 1664Q1190 1664 1171.0 1683.0Q1152 1702 1152 1728Q1152 1754 1171.0 1773.0Q1190 1792 1216 1792H1472Q1498 1792 1517.0 1773.0Q1536 1754 1536 1728Q1536 1702 1517.0 1683.0Q1498 1664 1472 1664ZM640 1216V1600Q640 1626 659.0 1645.0Q678 1664 704 1664Q730 1664 749.0 1645.0Q768 1626 768 1600V1216Q768 1190 749.0 1171.0Q730 1152 704 1152Q678 1152 659.0 1171.0Q640 1190 640 1216ZM1216 1408Q1190 1408 1171.0 1427.0Q1152 1446 1152 1472Q1152 1498 1171.0 1517.0Q1190 1536 1216 1536H1856Q1882 1536 1901.0 1517.0Q1920 1498 1920 1472Q1920 1446 1901.0 1427.0Q1882 1408 1856 1408ZM128 1216V1344Q128 1370 147.0 1389.0Q166 1408 192 1408Q218 1408 237.0 1389.0Q256 1370 256 1344V1216Q256 1190 237.0 1171.0Q218 1152 192 1152Q166 1152 147.0 1171.0Q128 1190 128 1216ZM1216 1152Q1190 1152 1171.0 1171.0Q1152 1190 1152 1216Q1152 1242 1171.0 1261.0Q1190 1280 1216 1280H1600Q1626 1280 1645.0 1261.0Q1664 1242 1664 1216Q1664 1190 1645.0 1171.0Q1626 1152 1600 1152ZM576 768Q602 768 621.0 749.0Q640 730 640 704V192Q640 166 621.0 147.0Q602 128 576 128H192Q166 128 147.0 147.0Q128 166 128 192V704Q128 730 147.0 749.0Q166 768 192 768ZM1216 768Q1242 768 1261.0 749.0Q1280 730 1280 704V192Q1280 166 1261.0 147.0Q1242 128 1216 128H832Q806 128 787.0 147.0Q768 166 768 192V704Q768 730 787.0 749.0Q806 768 832 768ZM1856 768Q1882 768 1901.0 749.0Q1920 730 1920 704V192Q1920 166 1901.0 147.0Q1882 128 1856 128H1472Q1446 128 1427.0 147.0Q1408 166 1408 192V704Q1408 730 1427.0 749.0Q1446 768 1472 768ZM256 256H512V640H256ZM896 256H1152V640H896ZM1536 256H1792V640H1536Z"/>
  </g>
</svg>