<?xml version="1.0" encoding="utf-8"?>
<svg id="" width="16" height="16" style="width:16px;height:16px;" version="1.1" xmlns="http://www.w3.org/2000/svg" viewBox="0 0 2048 2048" enable-background="new 0 0 2048 2048" xml:space="preserve">
    <path fill="#ffffff" d="M1024 1792 q0 -66 30.5 -122.5 q30.5 -56.5 86.5 -92.5 l-58 -174 q-14 2 -29.5 3.5 q-15.5 1.5 -29.5 1.5 q-94 0 -174 -41 q-80 -41 -136 -116 l-208 103 q6 27 6 54 q0 53 -20 99.5 q-20 46.5 -55 81.5 q-35 35 -81.5 55 q-46.5 20 -99.5 20 q-53 0 -99.5 -20 q-46.5 -20 -81.5 -55 q-35 -35 -55 -81.5 q-20 -46.5 -20 -99.5 q0 -53 20 -99.5 q20 -46.5 55 -81.5 q35 -35 81.5 -55 q46.5 -20 99.5 -20 q56 0 106 23 q50 23 87 65 l208 -104 q-17 -56 -17 -112 q0 -72 25 -137.5 q25 -65.5 73 -118.5 l-121 -151 q-25 11 -51.5 17 q-26.5 6 -53.5 6 q-53 0 -100 -20 q-47 -20 -81.5 -54.5 q-34.5 -34.5 -54.5 -81.5 q-20 -47 -20 -100 q0 -53 20 -100 q20 -47 54.5 -81.5 q34.5 -34.5 81.5 -54.5 q47 -20 100 -20 q53 0 99.5 20 q46.5 20 81.5 54.5 q35 34.5 55 81.5 q20 47 20 100 q0 86 -51 153 l120 151 q43 -23 90.5 -35.5 q47.5 -12.5 96.5 -12.5 q83 0 157 33 l164 -246 q-31 -35 -48 -79 q-17 -44 -17 -92 q0 -53 20 -99.5 q20 -46.5 55 -81.5 q35 -35 81.5 -55 q46.5 -20 99.5 -20 q53 0 99.5 20 q46.5 20 81.5 55 q35 35 55 81.5 q20 46.5 20 99.5 q0 53 -20 99.5 q-20 46.5 -55 81.5 q-35 35 -81.5 55 q-46.5 20 -99.5 20 q-22 0 -43 -4 q-21 -4 -41 -10 l-165 247 q60 55 90 126.5 q30 71.5 31 151.5 l150 25 q15 -34 39.5 -62.5 q24.5 -28.5 55 -48 q30.5 -19.5 66 -30.5 q35.5 -11 73.5 -11 q53 0 100 20 q47 20 81.5 54.5 q34.5 34.5 54.5 81.5 q20 47 20 100 q0 53 -20 100 q-20 47 -54.5 81.5 q-34.5 34.5 -81.5 54.5 q-47 20 -100 20 q-48 0 -93 -18 q-45 -18 -80.5 -49.5 q-35.5 -31.5 -57.5 -74.5 q-22 -43 -24 -92 l-150 -25 q-24 69 -71 124 q-47 55 -112 90 l58 174 q5 -1 9 -1 q4 0 9 0 q53 0 99.5 20 q46.5 20 81.5 54.5 q35 34.5 55 81.5 q20 47 20 100 q0 53 -20 99.5 q-20 46.5 -54.5 81.5 q-34.5 35 -81.5 55 q-47 20 -100 20 q-53 0 -100 -20 q-47 -20 -81.5 -54.5 q-34.5 -34.5 -54.5 -81.5 q-20 -47 -20 -100 ZM1664 259 q0 -25 -10 -48.5 q-10 -23.5 -27 -42 q-17 -18.5 -39.5 -29.5 q-22.5 -11 -48.5 -11 q-25 0 -48.5 10 q-23.5 10 -42 27 q-18.5 17 -29.5 39.5 q-11 22.5 -11 48.5 q0 26 9.5 49.5 q9.5 23.5 26.5 41.5 q17 18 39.5 29 q22.5 11 49.5 11 q26 0 49.5 -9.5 q23.5 -9.5 41.5 -26.5 q18 -17 29 -39.5 q11 -22.5 11 -49.5 ZM640 387 q0 -25 -9.5 -49 q-9.5 -24 -26.5 -42 q-17 -18 -40 -29 q-23 -11 -49 -11 q-26 0 -49.5 9.5 q-23.5 9.5 -41.5 26.5 q-18 17 -29 40 q-11 23 -11 49 q0 26 9.5 49.5 q9.5 23.5 26.5 41.5 q17 18 40 29 q23 11 49 11 q25 0 49 -9.5 q24 -9.5 42 -26.5 q18 -17 29 -40 q11 -23 11 -49 ZM1280 1024 q0 -53 -20 -99.5 q-20 -46.5 -54.5 -81.5 q-34.5 -35 -81.5 -55 q-47 -20 -100 -20 q-53 0 -99.5 20 q-46.5 20 -81.5 55 q-35 35 -55 81.5 q-20 46.5 -20 99.5 q0 53 20 99.5 q20 46.5 55 81.5 q35 35 81.5 55 q46.5 20 99.5 20 q53 0 100 -20 q47 -20 81.5 -54.5 q34.5 -34.5 54.5 -81.5 q20 -47 20 -100 ZM1920 1155 q0 -25 -9.5 -49 q-9.5 -24 -26.5 -42 q-17 -18 -40 -29 q-23 -11 -49 -11 q-26 0 -49.5 9.5 q-23.5 9.5 -41.5 26.5 q-18 17 -29 40 q-11 23 -11 49 q0 26 9.5 49.5 q9.5 23.5 26.5 41.5 q17 18 40 29 q23 11 49 11 q25 0 49 -9.5 q24 -9.5 42 -26.5 q18 -17 29 -40 q11 -23 11 -49 ZM384 1411 q0 -25 -9.5 -49 q-9.5 -24 -26.5 -42 q-17 -18 -40 -29 q-23 -11 -49 -11 q-26 0 -49.5 9.5 q-23.5 9.5 -41.5 26.5 q-18 17 -29 40 q-11 23 -11 49 q0 26 9.5 49.5 q9.5 23.5 26.5 41.5 q17 18 40 29 q23 11 49 11 q25 0 49 -9.5 q24 -9.5 42 -26.5 q18 -17 29 -40 q11 -23 11 -49 ZM1408 1795 q0 -25 -9.5 -49 q-9.5 -24 -26.5 -42 q-17 -18 -40 -29 q-23 -11 -49 -11 q-26 0 -49.5 9.5 q-23.5 9.5 -41.5 26.5 q-18 17 -29 40 q-11 23 -11 49 q0 26 9.5 49.5 q9.5 23.5 26.5 41.5 q17 18 40 29 q23 11 49 11 q25 0 49 -9.5 q24 -9.5 42 -26.5 q18 -17 29 -40 q11 -23 11 -49 Z"/>
</svg>