<?xml version="1.0" encoding="utf-8"?>
<svg xmlns="http://www.w3.org/2000/svg" width="16" height="16" viewBox="0 0 2048 2048">
  <g transform="translate(0, 2048) scale(1, -1)">
    <path fill="#ffffff" d="M1792 1920Q1818 1920 1837.0 1901.0Q1856 1882 1856 1856Q1856 1830 1837.0 1811.0Q1818 1792 1792 1792H1388L797 256H1216Q1242 256 1261.0 237.0Q1280 218 1280 192Q1280 166 1261.0 147.0Q1242 128 1216 128H256Q230 128 211.0 147.0Q192 166 192 192Q192 218 211.0 237.0Q230 256 256 256H660L1251 1792H832Q806 1792 787.0 1811.0Q768 1830 768 1856Q768 1882 787.0 1901.0Q806 1920 832 1920Z"/>
  </g>
</svg>