<?xml version="1.0" encoding="utf-8"?>
<svg xmlns="http://www.w3.org/2000/svg" width="16" height="16" viewBox="0 0 2048 2048">
  <g transform="translate(0, 2048) scale(1, -1)">
    <path fill="#ffffff" d="M1344 960Q1370 960 1389.0 941.0Q1408 922 1408 896Q1408 792 1380.0 699.5Q1352 607 1296.0 536.5Q1240 466 1156.0 425.0Q1072 384 960 384Q829 384 742.5 431.5Q656 479 605.0 559.0Q554 639 533.0 743.0Q512 847 512 960Q512 986 531.0 1005.0Q550 1024 576 1024Q602 1024 621.0 1005.0Q640 986 640 960Q640 876 651.5 795.5Q663 715 697.5 652.0Q732 589 795.0 550.5Q858 512 960 512Q1045 512 1105.5 543.5Q1166 575 1205.0 627.5Q1244 680 1262.0 749.5Q1280 819 1280 896Q1280 922 1299.0 941.0Q1318 960 1344 960Z"/>
  </g>
</svg>