<?xml version="1.0" encoding="utf-8"?>
<svg xmlns="http://www.w3.org/2000/svg" width="16" height="16" viewBox="0 0 2048 2048">
  <g transform="translate(0, 2048) scale(1, -1)">
    <path fill="#ffffff" d="M640 1664H320Q294 1664 275.0 1683.0Q256 1702 256 1728Q256 1754 275.0 1773.0Q294 1792 320 1792H640Q640 1800 639.5 1808.5Q639 1817 639 1826Q639 1843 641.0 1859.5Q643 1876 649.5 1889.5Q656 1903 669.0 1911.5Q682 1920 704 1920Q726 1920 738.5 1911.5Q751 1903 757.5 1889.5Q764 1876 766.0 1859.5Q768 1843 768 1826V1792H1152Q1152 1800 1151.5 1808.5Q1151 1817 1151 1826Q1151 1843 1153.0 1859.5Q1155 1876 1161.5 1889.5Q1168 1903 1181.0 1911.5Q1194 1920 1216 1920Q1238 1920 1250.5 1911.5Q1263 1903 1269.5 1889.5Q1276 1876 1278.0 1859.5Q1280 1843 1280 1826V1792H1600Q1626 1792 1645.0 1773.0Q1664 1754 1664 1728Q1664 1702 1645.0 1683.0Q1626 1664 1600 1664H1280V1630Q1280 1613 1278.0 1596.5Q1276 1580 1269.5 1566.5Q1263 1553 1250.5 1544.5Q1238 1536 1216 1536Q1194 1536 1181.0 1544.5Q1168 1553 1161.5 1566.5Q1155 1580 1153.0 1596.5Q1151 1613 1151 1630Q1151 1639 1151.5 1647.5Q1152 1656 1152 1664H768V1630Q768 1613 766.0 1596.5Q764 1580 757.5 1566.5Q751 1553 738.5 1544.5Q726 1536 704 1536Q682 1536 669.0 1544.5Q656 1553 649.5 1566.5Q643 1580 641.0 1596.5Q639 1613 639 1630Q639 1639 639.5 1647.5Q640 1656 640 1664ZM960 666Q825 510 648.5 408.0Q472 306 272 258Q264 256 257 256Q230 256 211.0 275.0Q192 294 192 321Q192 344 206.0 359.5Q220 375 241 382Q273 392 304.5 400.5Q336 409 368 420Q520 472 648.0 557.5Q776 643 879 768H192Q166 768 147.0 787.0Q128 806 128 832Q128 858 147.0 877.0Q166 896 192 896H384V1344Q384 1370 403.0 1389.0Q422 1408 448 1408H896Q896 1416 895.5 1424.5Q895 1433 895 1442Q895 1459 897.0 1475.5Q899 1492 905.5 1505.5Q912 1519 925.0 1527.5Q938 1536 960 1536Q982 1536 994.5 1527.5Q1007 1519 1013.5 1505.5Q1020 1492 1022.0 1475.5Q1024 1459 1024 1442V1408H1472Q1498 1408 1517.0 1389.0Q1536 1370 1536 1344V896H1728Q1754 896 1773.0 877.0Q1792 858 1792 832Q1792 806 1773.0 787.0Q1754 768 1728 768H1041Q1139 648 1261.0 564.5Q1383 481 1529 428Q1567 414 1604.5 404.0Q1642 394 1680 382Q1701 375 1714.5 359.5Q1728 344 1728 321Q1728 294 1709.5 275.0Q1691 256 1664 256Q1657 256 1649 258Q1448 306 1271.5 407.5Q1095 509 960 666ZM512 1280V896H896V1280ZM1024 1280V896H1408V1280Z"/>
  </g>
</svg>