<?xml version="1.0" encoding="utf-8"?>
<svg xmlns="http://www.w3.org/2000/svg" width="16" height="16" viewBox="0 0 2048 2048">
  <g transform="translate(0, 2048) scale(1, -1)">
    <path fill="#ffffff" d="M1152 1408H960Q934 1408 915.0 1427.0Q896 1446 896 1472Q896 1498 915.0 1517.0Q934 1536 960 1536H1152Q1152 1544 1151.5 1552.5Q1151 1561 1151 1570Q1151 1587 1153.0 1603.5Q1155 1620 1161.5 1633.5Q1168 1647 1181.0 1655.5Q1194 1664 1216 1664Q1238 1664 1250.5 1655.5Q1263 1647 1269.5 1633.5Q1276 1620 1278.0 1603.5Q1280 1587 1280 1570V1536H1664Q1664 1544 1663.5 1552.5Q1663 1561 1663 1570Q1663 1587 1665.0 1603.5Q1667 1620 1673.5 1633.5Q1680 1647 1693.0 1655.5Q1706 1664 1728 1664Q1750 1664 1762.5 1655.5Q1775 1647 1781.5 1633.5Q1788 1620 1790.0 1603.5Q1792 1587 1792 1570V1536H1984Q2010 1536 2029.0 1517.0Q2048 1498 2048 1472Q2048 1446 2029.0 1427.0Q2010 1408 1984 1408H1792V1374Q1792 1357 1790.0 1340.5Q1788 1324 1781.5 1310.5Q1775 1297 1762.5 1288.5Q1750 1280 1728 1280Q1706 1280 1693.0 1288.5Q1680 1297 1673.5 1310.5Q1667 1324 1665.0 1340.5Q1663 1357 1663 1374Q1663 1383 1663.5 1391.5Q1664 1400 1664 1408H1280V1374Q1280 1357 1278.0 1340.5Q1276 1324 1269.5 1310.5Q1263 1297 1250.5 1288.5Q1238 1280 1216 1280Q1194 1280 1181.0 1288.5Q1168 1297 1161.5 1310.5Q1155 1324 1153.0 1340.5Q1151 1357 1151 1374Q1151 1383 1151.5 1391.5Q1152 1400 1152 1408ZM320 640Q266 640 229 677Q192 714 192 768V896H155Q123 896 95.0 908.5Q67 921 46.0 942.0Q25 963 12.5 991.0Q0 1019 0 1051Q0 1080 12.0 1109.5Q24 1139 45 1160L403 1517Q422 1536 448 1536Q474 1536 493 1517L851 1160Q873 1138 884.5 1109.5Q896 1081 896 1051Q896 1019 884.0 991.0Q872 963 851.0 942.0Q830 921 802.0 908.5Q774 896 742 896H704V768Q704 715 666 677Q629 640 576 640ZM320 768H576V960Q576 986 595.0 1005.0Q614 1024 640 1024H742Q753 1024 760.5 1032.0Q768 1040 768 1051Q768 1061 760 1069L448 1382L136 1069Q128 1061 128 1051Q128 1040 136.0 1032.0Q144 1024 155 1024H256Q282 1024 301.0 1005.0Q320 986 320 960ZM896 320Q896 346 915.0 365.0Q934 384 960 384Q1015 384 1076.5 409.0Q1138 434 1196.0 472.5Q1254 511 1304.5 556.0Q1355 601 1389 640H960Q934 640 915.0 659.0Q896 678 896 704Q896 726 904.5 738.5Q913 751 926.5 757.5Q940 764 956.5 766.0Q973 768 990 768H1024V1088Q1024 1114 1043.0 1133.0Q1062 1152 1088 1152H1408Q1408 1160 1407.5 1168.5Q1407 1177 1407 1186Q1407 1203 1409.0 1219.5Q1411 1236 1417.5 1249.5Q1424 1263 1437.0 1271.5Q1450 1280 1472 1280Q1494 1280 1506.5 1271.5Q1519 1263 1525.5 1249.5Q1532 1236 1534.0 1219.5Q1536 1203 1536 1186V1152H1856Q1882 1152 1901.0 1133.0Q1920 1114 1920 1088V768H1954Q1971 768 1987.5 766.0Q2004 764 2017.5 757.5Q2031 751 2039.5 738.5Q2048 726 2048 704Q2048 678 2029.0 659.0Q2010 640 1984 640H1556Q1593 599 1643.0 554.0Q1693 509 1749.5 471.0Q1806 433 1866.5 408.5Q1927 384 1984 384Q2010 384 2029.0 365.0Q2048 346 2048 320Q2048 294 2029.0 275.0Q2010 256 1984 256Q1912 256 1840.5 281.5Q1769 307 1703.0 348.0Q1637 389 1578.5 440.0Q1520 491 1473 542Q1429 493 1369.5 442.0Q1310 391 1242.0 350.0Q1174 309 1101.5 282.5Q1029 256 960 256Q934 256 915.0 275.0Q896 294 896 320ZM1152 1024V768H1408V1024ZM1536 1024V768H1792V1024ZM256 384Q230 384 211.0 403.0Q192 422 192 448Q192 474 211.0 493.0Q230 512 256 512H640Q666 512 685.0 493.0Q704 474 704 448Q704 422 685.0 403.0Q666 384 640 384Z"/>
  </g>
</svg>