<?xml version="1.0" encoding="utf-8"?>
<svg xmlns="http://www.w3.org/2000/svg" width="16" height="16" viewBox="0 0 2048 2048">
  <g transform="translate(0, 2048) scale(1, -1)">
    <path fill="#ffffff" d="M313 128Q250 128 193.0 153.5Q136 179 93.5 221.5Q51 264 25.5 321.0Q0 378 0 441V1735Q0 1798 25.5 1855.0Q51 1912 93.5 1954.5Q136 1997 193.0 2022.5Q250 2048 313 2048H1607Q1670 2048 1727.0 2022.5Q1784 1997 1826.5 1954.5Q1869 1912 1894.5 1855.0Q1920 1798 1920 1735V441Q1920 378 1894.5 321.0Q1869 264 1826.5 221.5Q1784 179 1727.0 153.5Q1670 128 1607 128ZM768 1664H1152Q1152 1656 1151.5 1647.5Q1151 1639 1151 1630Q1151 1613 1153.0 1596.5Q1155 1580 1161.5 1566.5Q1168 1553 1181.0 1544.5Q1194 1536 1216 1536Q1238 1536 1250.5 1544.5Q1263 1553 1269.5 1566.5Q1276 1580 1278.0 1596.5Q1280 1613 1280 1630V1664H1600Q1626 1664 1645.0 1683.0Q1664 1702 1664 1728Q1664 1754 1645.0 1773.0Q1626 1792 1600 1792H1280V1826Q1280 1843 1278.0 1859.5Q1276 1876 1269.5 1889.5Q1263 1903 1250.5 1911.5Q1238 1920 1216 1920Q1194 1920 1181.0 1911.5Q1168 1903 1161.5 1889.5Q1155 1876 1153.0 1859.5Q1151 1843 1151 1826Q1151 1817 1151.5 1808.5Q1152 1800 1152 1792H768V1826Q768 1843 766.0 1859.5Q764 1876 757.5 1889.5Q751 1903 738.5 1911.5Q726 1920 704 1920Q682 1920 669.0 1911.5Q656 1903 649.5 1889.5Q643 1876 641.0 1859.5Q639 1843 639 1826Q639 1817 639.5 1808.5Q640 1800 640 1792H320Q294 1792 275.0 1773.0Q256 1754 256 1728Q256 1702 275.0 1683.0Q294 1664 320 1664H640Q640 1656 639.5 1647.5Q639 1639 639 1630Q639 1613 641.0 1596.5Q643 1580 649.5 1566.5Q656 1553 669.0 1544.5Q682 1536 704 1536Q726 1536 738.5 1544.5Q751 1553 757.5 1566.5Q764 1580 766.0 1596.5Q768 1613 768 1630ZM960 666Q1094 510 1271.5 408.0Q1449 306 1648 258Q1658 256 1664 256Q1691 256 1709.5 274.5Q1728 293 1728 320Q1728 343 1715.0 359.0Q1702 375 1680 382Q1642 394 1604.5 404.0Q1567 414 1530 428Q1385 481 1262.0 565.0Q1139 649 1041 768H1728Q1754 768 1773.0 787.0Q1792 806 1792 832Q1792 858 1773.0 877.0Q1754 896 1728 896H1536V1344Q1536 1370 1517.0 1389.0Q1498 1408 1472 1408H1024V1442Q1024 1459 1022.0 1475.5Q1020 1492 1013.5 1505.5Q1007 1519 994.5 1527.5Q982 1536 960 1536Q938 1536 925.0 1527.5Q912 1519 905.5 1505.5Q899 1492 897.0 1475.5Q895 1459 895 1442Q895 1433 895.5 1424.5Q896 1416 896 1408H448Q422 1408 403.0 1389.0Q384 1370 384 1344V896H192Q166 896 147.0 877.0Q128 858 128 832Q128 806 147.0 787.0Q166 768 192 768H879Q781 649 658.0 565.0Q535 481 390 428Q353 414 315.5 404.0Q278 394 240 382Q218 375 205.0 359.0Q192 343 192 320Q192 294 211.0 275.0Q230 256 256 256Q262 256 272 258Q471 306 648.5 408.0Q826 510 960 666ZM896 896H512V1280H896ZM1408 896H1024V1280H1408Z"/>
  </g>
</svg>