<?xml version="1.0" encoding="utf-8"?>
<svg xmlns="http://www.w3.org/2000/svg" width="16" height="16" viewBox="0 0 2048 2048">
  <g transform="translate(0, 2048) scale(1, -1)">
    <path fill="#ffffff" d="M313 128Q250 128 193.0 153.5Q136 179 93.5 221.5Q51 264 25.5 321.0Q0 378 0 441V1735Q0 1798 25.5 1855.0Q51 1912 93.5 1954.5Q136 1997 193.0 2022.5Q250 2048 313 2048H1607Q1670 2048 1727.0 2022.5Q1784 1997 1826.5 1954.5Q1869 1912 1894.5 1855.0Q1920 1798 1920 1735V441Q1920 378 1894.5 321.0Q1869 264 1826.5 221.5Q1784 179 1727.0 153.5Q1670 128 1607 128ZM1216 512Q1255 512 1290.0 527.0Q1325 542 1351.5 568.5Q1378 595 1393.0 630.0Q1408 665 1408 704V896H1506Q1538 896 1567.0 908.5Q1596 921 1617.5 942.5Q1639 964 1651.5 993.0Q1664 1022 1664 1054Q1664 1111 1627 1155L1009 1897Q989 1920 960 1920Q931 1920 911 1897L293 1155Q256 1111 256 1054Q256 1022 268.5 993.0Q281 964 302.5 942.5Q324 921 353.0 908.5Q382 896 414 896H512V704Q512 665 527.0 630.0Q542 595 568.5 568.5Q595 542 630.0 527.0Q665 512 704 512ZM704 640Q678 640 659.0 659.0Q640 678 640 704V960Q640 981 632.0 993.5Q624 1006 611.0 1013.5Q598 1021 580.0 1023.5Q562 1026 543 1026Q518 1026 492.0 1023.5Q466 1021 444 1021Q418 1021 401.0 1027.5Q384 1034 384 1054Q384 1065 391 1073L960 1756L1529 1073Q1536 1065 1536 1054Q1536 1034 1519.0 1027.5Q1502 1021 1476 1021Q1454 1021 1428.0 1023.5Q1402 1026 1377 1026Q1357 1026 1339.5 1023.5Q1322 1021 1309.0 1013.5Q1296 1006 1288.0 993.5Q1280 981 1280 960V704Q1280 678 1261.0 659.0Q1242 640 1216 640ZM1344 256Q1370 256 1389.0 275.0Q1408 294 1408 320Q1408 346 1389.0 365.0Q1370 384 1344 384H576Q550 384 531.0 365.0Q512 346 512 320Q512 294 531.0 275.0Q550 256 576 256Z"/>
  </g>
</svg>