<?xml version="1.0" encoding="utf-8"?>
<svg xmlns="http://www.w3.org/2000/svg" width="16" height="16" viewBox="0 0 2048 2048">
  <g transform="translate(0, 2048) scale(1, -1)">
    <path fill="#ffffff" d="M1408 64V1984Q1408 2010 1427.0 2029.0Q1446 2048 1472 2048Q1498 2048 1517.0 2029.0Q1536 2010 1536 1984V1280H1856Q1882 1280 1901.0 1261.0Q1920 1242 1920 1216Q1920 1190 1901.0 1171.0Q1882 1152 1856 1152H1536V64Q1536 38 1517.0 19.0Q1498 0 1472 0Q1446 0 1427.0 19.0Q1408 38 1408 64ZM192 576Q192 597 202.5 611.5Q213 626 231 635Q260 649 288.5 662.0Q317 675 345 689Q450 744 543.0 816.0Q636 888 711 980Q856 1158 933.5 1359.5Q1011 1561 1022 1792H320Q294 1792 275.0 1811.0Q256 1830 256 1856Q256 1882 275.0 1901.0Q294 1920 320 1920H1088Q1114 1920 1133.0 1901.0Q1152 1882 1152 1856Q1152 1749 1135.5 1643.0Q1119 1537 1093 1434Q1076 1366 1050.5 1300.5Q1025 1235 992.0 1172.0Q959 1109 920.5 1049.0Q882 989 840 934Q788 865 724.5 803.0Q661 741 589.0 688.5Q517 636 439.0 592.5Q361 549 281 517Q268 512 256 512Q230 512 211.0 531.0Q192 550 192 576Z"/>
  </g>
</svg>