<?xml version="1.0" encoding="utf-8"?>
<svg xmlns="http://www.w3.org/2000/svg" width="16" height="16" viewBox="0 0 2048 2048">
  <g transform="translate(0, 2048) scale(1, -1)">
    <path fill="#ffffff" d="M205 512Q163 512 125.5 528.0Q88 544 60.0 572.0Q32 600 16.0 637.5Q0 675 0 717V1638Q0 1680 16.0 1717.5Q32 1755 60.0 1783.0Q88 1811 125.5 1827.0Q163 1843 205 1843H1843Q1885 1843 1922.5 1827.0Q1960 1811 1988.0 1783.0Q2016 1755 2032.0 1717.5Q2048 1680 2048 1638V918Q2004 987 1946 1044V1638Q1946 1659 1938.0 1678.0Q1930 1697 1916.0 1711.0Q1902 1725 1883.0 1733.0Q1864 1741 1843 1741H205Q184 1741 165.0 1733.0Q146 1725 132.0 1711.0Q118 1697 110.0 1678.0Q102 1659 102 1638V717Q102 696 110.0 677.0Q118 658 132.0 644.0Q146 630 165.0 622.0Q184 614 205 614H821Q820 601 819.5 588.5Q819 576 819 563Q819 550 819.5 537.5Q820 525 821 512ZM358 1408Q358 1440 380.5 1462.5Q403 1485 435 1485Q467 1485 489.5 1462.5Q512 1440 512 1408Q512 1376 489.5 1353.5Q467 1331 435 1331Q404 1331 381.0 1354.0Q358 1377 358 1408ZM666 1408Q666 1440 688.0 1462.5Q710 1485 742 1485Q774 1485 796.5 1462.5Q819 1440 819 1408Q819 1376 796.5 1353.5Q774 1331 742 1331Q710 1331 688.0 1353.5Q666 1376 666 1408ZM973 1408Q973 1440 995.5 1462.5Q1018 1485 1050 1485Q1082 1485 1104.0 1462.5Q1126 1440 1126 1408Q1126 1376 1104.0 1353.5Q1082 1331 1050 1331Q1018 1331 995.5 1353.5Q973 1376 973 1408ZM1280 1408Q1280 1440 1302.5 1462.5Q1325 1485 1357 1485Q1389 1485 1411.5 1462.5Q1434 1440 1434 1408Q1434 1376 1411.5 1353.5Q1389 1331 1357 1331Q1325 1331 1302.5 1353.5Q1280 1376 1280 1408ZM1587 1408Q1587 1440 1609.5 1462.5Q1632 1485 1664 1485Q1696 1485 1718.5 1462.5Q1741 1440 1741 1408Q1741 1376 1718.5 1353.5Q1696 1331 1664 1331Q1633 1331 1610.0 1354.0Q1587 1377 1587 1408ZM563 1101Q563 1133 585.5 1155.5Q608 1178 640 1178Q672 1178 694.5 1155.5Q717 1133 717 1101Q717 1069 694.5 1046.5Q672 1024 640 1024Q608 1024 585.5 1046.5Q563 1069 563 1101ZM870 1101Q870 1133 892.5 1155.5Q915 1178 947 1178Q979 1178 1001.5 1155.5Q1024 1133 1024 1101Q1024 1069 1001.5 1046.5Q979 1024 947 1024Q915 1024 892.5 1046.5Q870 1069 870 1101ZM1293 51Q1205 81 1132 139Q1142 169 1150.5 197.5Q1159 226 1159 258Q1159 294 1147.5 326.0Q1136 358 1115.0 384.5Q1094 411 1065.0 429.5Q1036 448 1002 457L929 475Q925 497 923.5 519.0Q922 541 922 563Q922 585 923.0 607.0Q924 629 929 651L1002 669Q1036 678 1065.0 696.5Q1094 715 1115.0 741.5Q1136 768 1147.5 800.0Q1159 832 1159 868Q1159 900 1150.0 929.0Q1141 958 1132 988Q1206 1046 1293 1075Q1315 1052 1335.0 1032.5Q1355 1013 1377.0 998.5Q1399 984 1425.0 975.5Q1451 967 1485 967Q1519 967 1545.0 975.5Q1571 984 1592.5 998.5Q1614 1013 1634.0 1032.5Q1654 1052 1676 1075Q1763 1046 1837 988Q1828 958 1819.5 929.0Q1811 900 1811 868Q1811 832 1822.5 800.0Q1834 768 1854.5 741.5Q1875 715 1903.5 696.5Q1932 678 1967 669L2041 651Q2044 629 2046.0 607.0Q2048 585 2048 563Q2048 541 2046.0 519.0Q2044 497 2041 475L1967 457Q1932 448 1903.0 429.5Q1874 411 1853.5 385.0Q1833 359 1822.0 326.5Q1811 294 1811 258Q1811 227 1819.5 197.5Q1828 168 1837 139Q1764 81 1676 51Q1654 74 1634.0 94.0Q1614 114 1592.5 128.5Q1571 143 1545.0 151.5Q1519 160 1485 160Q1451 160 1425.0 151.5Q1399 143 1377.0 128.5Q1355 114 1335.0 94.0Q1315 74 1293 51ZM461 717Q440 717 425.0 732.0Q410 747 410 768Q410 789 425.0 804.0Q440 819 461 819H870Q860 794 851.5 768.5Q843 743 837 717ZM1638 563Q1638 594 1625.5 621.0Q1613 648 1592.0 668.5Q1571 689 1543.5 700.5Q1516 712 1485 712Q1454 712 1426.0 700.5Q1398 689 1377.0 669.0Q1356 649 1343.5 621.5Q1331 594 1331 563Q1331 531 1343.5 504.0Q1356 477 1377.0 457.5Q1398 438 1426.0 426.5Q1454 415 1485 415Q1516 415 1543.5 426.5Q1571 438 1592.0 458.0Q1613 478 1625.5 505.0Q1638 532 1638 563Z"/>
  </g>
</svg>