<?xml version="1.0" encoding="utf-8"?>
<svg xmlns="http://www.w3.org/2000/svg" width="16" height="16" viewBox="0 0 2048 2048">
  <g transform="translate(0, 2048) scale(1, -1)">
    <path fill="#ffffff" d="M376 256Q301 256 232.5 286.5Q164 317 112.5 368.5Q61 420 30.5 488.5Q0 557 0 632V1416Q0 1491 30.5 1559.5Q61 1628 112.5 1679.5Q164 1731 232.5 1761.5Q301 1792 376 1792H1672Q1747 1792 1815.5 1761.5Q1884 1731 1935.5 1679.5Q1987 1628 2017.5 1559.5Q2048 1491 2048 1416V632Q2048 557 2017.5 488.5Q1987 420 1935.5 368.5Q1884 317 1815.5 286.5Q1747 256 1672 256ZM1669 384Q1719 384 1764.5 404.5Q1810 425 1844.5 459.5Q1879 494 1899.5 539.5Q1920 585 1920 635V1413Q1920 1463 1899.5 1508.5Q1879 1554 1844.5 1588.5Q1810 1623 1764.5 1643.5Q1719 1664 1669 1664H379Q329 1664 283.5 1643.5Q238 1623 203.5 1588.5Q169 1554 148.5 1508.5Q128 1463 128 1413V635Q128 585 148.5 539.5Q169 494 203.5 459.5Q238 425 283.5 404.5Q329 384 379 384ZM448 640Q409 640 374.0 655.0Q339 670 312.5 696.5Q286 723 271.0 758.0Q256 793 256 832V1344Q256 1383 271.0 1418.0Q286 1453 312.5 1479.5Q339 1506 374.0 1521.0Q409 1536 448 1536H960Q999 1536 1034.0 1521.0Q1069 1506 1095.5 1479.5Q1122 1453 1137.0 1418.0Q1152 1383 1152 1344V832Q1152 793 1137.0 758.0Q1122 723 1095.5 696.5Q1069 670 1034.0 655.0Q999 640 960 640ZM960 768Q986 768 1005.0 787.0Q1024 806 1024 832V1344Q1024 1370 1005.0 1389.0Q986 1408 960 1408H448Q422 1408 403.0 1389.0Q384 1370 384 1344V832Q384 806 403.0 787.0Q422 768 448 768ZM512 1216Q512 1242 531.0 1261.0Q550 1280 576 1280Q602 1280 621.0 1261.0Q640 1242 640 1216Q640 1190 621.0 1171.0Q602 1152 576 1152Q550 1152 531.0 1171.0Q512 1190 512 1216ZM768 1216Q768 1242 787.0 1261.0Q806 1280 832 1280Q858 1280 877.0 1261.0Q896 1242 896 1216Q896 1190 877.0 1171.0Q858 1152 832 1152Q806 1152 787.0 1171.0Q768 1190 768 1216ZM512 960Q512 986 531.0 1005.0Q550 1024 576 1024Q602 1024 621.0 1005.0Q640 986 640 960Q640 934 621.0 915.0Q602 896 576 896Q550 896 531.0 915.0Q512 934 512 960ZM768 960Q768 986 787.0 1005.0Q806 1024 832 1024Q858 1024 877.0 1005.0Q896 986 896 960Q896 934 877.0 915.0Q858 896 832 896Q806 896 787.0 915.0Q768 934 768 960Z"/>
  </g>
</svg>