<?xml version="1.0" encoding="utf-8"?>
<svg xmlns="http://www.w3.org/2000/svg" width="16" height="16" viewBox="0 0 2048 2048">
  <g transform="translate(0, 2048) scale(1, -1)">
    <path fill="#000000" d="M251 384Q201 384 155.5 404.5Q110 425 75.5 459.5Q41 494 20.5 539.5Q0 585 0 635V1541Q0 1591 20.5 1636.5Q41 1682 75.5 1716.5Q110 1751 155.5 1771.5Q201 1792 251 1792H1797Q1847 1792 1892.5 1771.5Q1938 1751 1972.5 1716.5Q2007 1682 2027.5 1636.5Q2048 1591 2048 1541V635Q2048 585 2027.5 539.5Q2007 494 1972.5 459.5Q1938 425 1892.5 404.5Q1847 384 1797 384ZM1792 512Q1819 512 1842.0 522.0Q1865 532 1882.5 549.5Q1900 567 1910.0 590.0Q1920 613 1920 640V1536Q1920 1562 1910.0 1585.5Q1900 1609 1882.5 1626.5Q1865 1644 1841.5 1654.0Q1818 1664 1792 1664H256Q229 1664 206.0 1654.0Q183 1644 165.5 1626.5Q148 1609 138.0 1586.0Q128 1563 128 1536V640Q128 613 138.0 589.5Q148 566 165.0 549.0Q182 532 205.5 522.0Q229 512 256 512ZM320 1376Q320 1416 348.0 1444.0Q376 1472 416 1472Q456 1472 484.0 1444.0Q512 1416 512 1376Q512 1336 484.0 1308.0Q456 1280 416 1280Q376 1280 348.0 1308.0Q320 1336 320 1376ZM704 1376Q704 1416 732.0 1444.0Q760 1472 800 1472Q840 1472 868.0 1444.0Q896 1416 896 1376Q896 1336 868.0 1308.0Q840 1280 800 1280Q760 1280 732.0 1308.0Q704 1336 704 1376ZM1088 1376Q1088 1416 1116.0 1444.0Q1144 1472 1184 1472Q1224 1472 1252.0 1444.0Q1280 1416 1280 1376Q1280 1336 1252.0 1308.0Q1224 1280 1184 1280Q1144 1280 1116.0 1308.0Q1088 1336 1088 1376ZM1472 1376Q1472 1416 1500.0 1444.0Q1528 1472 1568 1472Q1608 1472 1636.0 1444.0Q1664 1416 1664 1376Q1664 1336 1636.0 1308.0Q1608 1280 1568 1280Q1528 1280 1500.0 1308.0Q1472 1336 1472 1376ZM576 992Q576 1032 604.0 1060.0Q632 1088 672 1088Q712 1088 740.0 1060.0Q768 1032 768 992Q768 952 740.0 924.0Q712 896 672 896Q632 896 604.0 924.0Q576 952 576 992ZM960 992Q960 1032 988.0 1060.0Q1016 1088 1056 1088Q1096 1088 1124.0 1060.0Q1152 1032 1152 992Q1152 952 1124.0 924.0Q1096 896 1056 896Q1016 896 988.0 924.0Q960 952 960 992ZM1344 992Q1344 1032 1372.0 1060.0Q1400 1088 1440 1088Q1480 1088 1508.0 1060.0Q1536 1032 1536 992Q1536 952 1508.0 924.0Q1480 896 1440 896Q1400 896 1372.0 924.0Q1344 952 1344 992ZM448 640Q422 640 403.0 659.0Q384 678 384 704Q384 730 403.0 749.0Q422 768 448 768H1600Q1626 768 1645.0 749.0Q1664 730 1664 704Q1664 678 1645.0 659.0Q1626 640 1600 640Z"/>
  </g>
</svg>