<?xml version="1.0" encoding="utf-8"?>
<svg xmlns="http://www.w3.org/2000/svg" width="16" height="16" viewBox="0 0 2048 2048">
  <g transform="translate(0, 2048) scale(1, -1)">
    <path fill="#ffffff" d="M507 0Q457 0 411.5 20.5Q366 41 331.5 75.5Q297 110 276.5 155.5Q256 201 256 251V1797Q256 1847 276.5 1892.5Q297 1938 331.5 1972.5Q366 2007 411.5 2027.5Q457 2048 507 2048H1541Q1591 2048 1636.5 2027.5Q1682 2007 1716.5 1972.5Q1751 1938 1771.5 1892.5Q1792 1847 1792 1797V251Q1792 201 1771.5 155.5Q1751 110 1716.5 75.5Q1682 41 1636.5 20.5Q1591 0 1541 0ZM1536 128Q1563 128 1586.0 138.0Q1609 148 1626.5 165.5Q1644 183 1654.0 206.0Q1664 229 1664 256V1792Q1664 1818 1654.0 1841.5Q1644 1865 1626.5 1882.5Q1609 1900 1585.5 1910.0Q1562 1920 1536 1920H512Q485 1920 462.0 1910.0Q439 1900 421.5 1882.5Q404 1865 394.0 1842.0Q384 1819 384 1792V256Q384 229 394.0 205.5Q404 182 421.0 165.0Q438 148 461.5 138.0Q485 128 512 128ZM576 1632Q576 1672 604.0 1700.0Q632 1728 672 1728Q712 1728 740.0 1700.0Q768 1672 768 1632Q768 1592 740.0 1564.0Q712 1536 672 1536Q632 1536 604.0 1564.0Q576 1592 576 1632ZM928 1632Q928 1672 956.0 1700.0Q984 1728 1024 1728Q1064 1728 1092.0 1700.0Q1120 1672 1120 1632Q1120 1592 1092.0 1564.0Q1064 1536 1024 1536Q984 1536 956.0 1564.0Q928 1592 928 1632ZM1280 1632Q1280 1672 1308.0 1700.0Q1336 1728 1376 1728Q1416 1728 1444.0 1700.0Q1472 1672 1472 1632Q1472 1592 1444.0 1564.0Q1416 1536 1376 1536Q1336 1536 1308.0 1564.0Q1280 1592 1280 1632ZM576 1248Q576 1288 604.0 1316.0Q632 1344 672 1344Q712 1344 740.0 1316.0Q768 1288 768 1248Q768 1208 740.0 1180.0Q712 1152 672 1152Q632 1152 604.0 1180.0Q576 1208 576 1248ZM928 1248Q928 1288 956.0 1316.0Q984 1344 1024 1344Q1064 1344 1092.0 1316.0Q1120 1288 1120 1248Q1120 1208 1092.0 1180.0Q1064 1152 1024 1152Q984 1152 956.0 1180.0Q928 1208 928 1248ZM1280 1248Q1280 1288 1308.0 1316.0Q1336 1344 1376 1344Q1416 1344 1444.0 1316.0Q1472 1288 1472 1248Q1472 1208 1444.0 1180.0Q1416 1152 1376 1152Q1336 1152 1308.0 1180.0Q1280 1208 1280 1248ZM576 864Q576 904 604.0 932.0Q632 960 672 960Q712 960 740.0 932.0Q768 904 768 864Q768 824 740.0 796.0Q712 768 672 768Q632 768 604.0 796.0Q576 824 576 864ZM928 864Q928 904 956.0 932.0Q984 960 1024 960Q1064 960 1092.0 932.0Q1120 904 1120 864Q1120 824 1092.0 796.0Q1064 768 1024 768Q984 768 956.0 796.0Q928 824 928 864ZM1280 864Q1280 904 1308.0 932.0Q1336 960 1376 960Q1416 960 1444.0 932.0Q1472 904 1472 864Q1472 824 1444.0 796.0Q1416 768 1376 768Q1336 768 1308.0 796.0Q1280 824 1280 864ZM576 480Q576 520 604.0 548.0Q632 576 672 576Q712 576 740.0 548.0Q768 520 768 480Q768 440 740.0 412.0Q712 384 672 384Q632 384 604.0 412.0Q576 440 576 480ZM928 480Q928 520 956.0 548.0Q984 576 1024 576Q1064 576 1092.0 548.0Q1120 520 1120 480Q1120 440 1092.0 412.0Q1064 384 1024 384Q984 384 956.0 412.0Q928 440 928 480ZM1280 480Q1280 520 1308.0 548.0Q1336 576 1376 576Q1416 576 1444.0 548.0Q1472 520 1472 480Q1472 440 1444.0 412.0Q1416 384 1376 384Q1336 384 1308.0 412.0Q1280 440 1280 480Z"/>
  </g>
</svg>