<?xml version="1.0" encoding="utf-8"?>
<svg xmlns="http://www.w3.org/2000/svg" width="16" height="16" viewBox="0 0 2048 2048">
  <g transform="translate(0, 2048) scale(1, -1)">
    <path fill="#000000" d="M896 1472V1728Q896 1754 915.0 1773.0Q934 1792 960 1792Q986 1792 1005.0 1773.0Q1024 1754 1024 1728V1472Q1024 1446 1005.0 1427.0Q986 1408 960 1408Q934 1408 915.0 1427.0Q896 1446 896 1472ZM192 1536Q192 1562 211.0 1581.0Q230 1600 256 1600Q282 1600 301 1581L493 1389Q512 1370 512 1344Q512 1318 493.0 1299.0Q474 1280 448 1280Q422 1280 403 1299L211 1491Q192 1510 192 1536ZM1408 1344Q1408 1370 1427 1389L1619 1581Q1638 1600 1664 1600Q1690 1600 1709.0 1581.0Q1728 1562 1728 1536Q1728 1510 1709 1491L1517 1299Q1498 1280 1472 1280Q1446 1280 1427.0 1299.0Q1408 1318 1408 1344ZM512 840Q512 931 548.5 1011.0Q585 1091 646.5 1151.0Q708 1211 789.5 1245.5Q871 1280 960 1280Q1049 1280 1130.5 1245.5Q1212 1211 1273.5 1151.0Q1335 1091 1371.5 1011.0Q1408 931 1408 840Q1408 811 1392.0 789.5Q1376 768 1344 768Q1313 768 1296.5 789.0Q1280 810 1280 839Q1280 904 1254.0 961.0Q1228 1018 1184.0 1060.5Q1140 1103 1082.0 1127.5Q1024 1152 960 1152Q893 1152 835.0 1127.0Q777 1102 733.5 1058.5Q690 1015 665.0 957.0Q640 899 640 832Q640 806 621.0 787.0Q602 768 576 768Q544 768 528.0 789.5Q512 811 512 840ZM64 896Q38 896 19.0 915.0Q0 934 0 960Q0 986 19.0 1005.0Q38 1024 64 1024H320Q346 1024 365.0 1005.0Q384 986 384 960Q384 934 365.0 915.0Q346 896 320 896ZM1600 896Q1574 896 1555.0 915.0Q1536 934 1536 960Q1536 986 1555.0 1005.0Q1574 1024 1600 1024H1856Q1882 1024 1901.0 1005.0Q1920 986 1920 960Q1920 934 1901.0 915.0Q1882 896 1856 896ZM64 512Q38 512 19.0 531.0Q0 550 0 576Q0 602 19.0 621.0Q38 640 64 640H1856Q1882 640 1901.0 621.0Q1920 602 1920 576Q1920 550 1901.0 531.0Q1882 512 1856 512Z"/>
  </g>
</svg>