<?xml version="1.0" encoding="utf-8"?>
<svg xmlns="http://www.w3.org/2000/svg" width="16" height="16" viewBox="0 0 2048 2048">
  <g transform="translate(0, 2048) scale(1, -1)">
    <path fill="#000000" d="M507 384Q457 384 411.5 404.5Q366 425 331.5 459.5Q297 494 276.5 539.5Q256 585 256 635V1541Q256 1591 276.5 1636.5Q297 1682 331.5 1716.5Q366 1751 411.5 1771.5Q457 1792 507 1792H1541Q1591 1792 1636.5 1771.5Q1682 1751 1716.5 1716.5Q1751 1682 1771.5 1636.5Q1792 1591 1792 1541V635Q1792 585 1771.5 539.5Q1751 494 1716.5 459.5Q1682 425 1636.5 404.5Q1591 384 1541 384ZM1536 512Q1563 512 1586.0 522.0Q1609 532 1626.5 549.5Q1644 567 1654.0 590.0Q1664 613 1664 640V1536Q1664 1562 1654.0 1585.5Q1644 1609 1626.5 1626.5Q1609 1644 1585.5 1654.0Q1562 1664 1536 1664H512Q485 1664 462.0 1654.0Q439 1644 421.5 1626.5Q404 1609 394.0 1586.0Q384 1563 384 1536V640Q384 613 394.0 589.5Q404 566 421.0 549.0Q438 532 461.5 522.0Q485 512 512 512ZM576 1376Q576 1416 604.0 1444.0Q632 1472 672 1472Q712 1472 740.0 1444.0Q768 1416 768 1376Q768 1336 740.0 1308.0Q712 1280 672 1280Q632 1280 604.0 1308.0Q576 1336 576 1376ZM928 1376Q928 1416 956.0 1444.0Q984 1472 1024 1472Q1064 1472 1092.0 1444.0Q1120 1416 1120 1376Q1120 1336 1092.0 1308.0Q1064 1280 1024 1280Q984 1280 956.0 1308.0Q928 1336 928 1376ZM1280 1376Q1280 1416 1308.0 1444.0Q1336 1472 1376 1472Q1416 1472 1444.0 1444.0Q1472 1416 1472 1376Q1472 1336 1444.0 1308.0Q1416 1280 1376 1280Q1336 1280 1308.0 1308.0Q1280 1336 1280 1376ZM736 992Q736 1032 764.0 1060.0Q792 1088 832 1088Q872 1088 900.0 1060.0Q928 1032 928 992Q928 952 900.0 924.0Q872 896 832 896Q792 896 764.0 924.0Q736 952 736 992ZM1120 992Q1120 1032 1148.0 1060.0Q1176 1088 1216 1088Q1256 1088 1284.0 1060.0Q1312 1032 1312 992Q1312 952 1284.0 924.0Q1256 896 1216 896Q1176 896 1148.0 924.0Q1120 952 1120 992ZM832 640Q806 640 787.0 659.0Q768 678 768 704Q768 730 787.0 749.0Q806 768 832 768H1216Q1242 768 1261.0 749.0Q1280 730 1280 704Q1280 678 1261.0 659.0Q1242 640 1216 640Z"/>
  </g>
</svg>