<?xml version="1.0" encoding="utf-8"?>
<svg xmlns="http://www.w3.org/2000/svg" width="16" height="16" viewBox="0 0 2048 2048">
  <g transform="translate(0, 2048) scale(1, -1)">
    <path fill="#ffffff" d="M251 640Q201 640 155.5 660.5Q110 681 75.5 715.5Q41 750 20.5 795.5Q0 841 0 891V1541Q0 1591 20.5 1636.5Q41 1682 75.5 1716.5Q110 1751 155.5 1771.5Q201 1792 251 1792H1797Q1847 1792 1892.5 1771.5Q1938 1751 1972.5 1716.5Q2007 1682 2027.5 1636.5Q2048 1591 2048 1541V891Q2048 841 2027.5 795.5Q2007 750 1972.5 715.5Q1938 681 1892.5 660.5Q1847 640 1797 640ZM1792 768Q1819 768 1842.0 778.0Q1865 788 1882.5 805.5Q1900 823 1910.0 846.0Q1920 869 1920 896V1536Q1920 1562 1910.0 1585.5Q1900 1609 1882.5 1626.5Q1865 1644 1841.5 1654.0Q1818 1664 1792 1664H256Q229 1664 206.0 1654.0Q183 1644 165.5 1626.5Q148 1609 138.0 1586.0Q128 1563 128 1536V896Q128 869 138.0 845.5Q148 822 165.0 805.0Q182 788 205.5 778.0Q229 768 256 768ZM640 448Q640 474 659.0 493.0Q678 512 704 512Q730 512 749 493L1024 219L1299 493Q1318 512 1344 512Q1370 512 1389.0 493.0Q1408 474 1408 448Q1408 422 1389 403L1069 83Q1050 64 1024 64Q998 64 979 83L659 403Q640 422 640 448Z"/>
  </g>
</svg>