<?xml version="1.0" encoding="utf-8"?>
<svg xmlns="http://www.w3.org/2000/svg" width="16" height="16" viewBox="0 0 2048 2048">
  <g transform="translate(0, 2048) scale(1, -1)">
    <path fill="#ffffff" d="M376 256Q301 256 232.5 286.5Q164 317 112.5 368.5Q61 420 30.5 488.5Q0 557 0 632V1416Q0 1491 30.5 1559.5Q61 1628 112.5 1679.5Q164 1731 232.5 1761.5Q301 1792 376 1792H1672Q1747 1792 1815.5 1761.5Q1884 1731 1935.5 1679.5Q1987 1628 2017.5 1559.5Q2048 1491 2048 1416V632Q2048 557 2017.5 488.5Q1987 420 1935.5 368.5Q1884 317 1815.5 286.5Q1747 256 1672 256ZM1669 384Q1719 384 1764.5 404.5Q1810 425 1844.5 459.5Q1879 494 1899.5 539.5Q1920 585 1920 635V1413Q1920 1463 1899.5 1508.5Q1879 1554 1844.5 1588.5Q1810 1623 1764.5 1643.5Q1719 1664 1669 1664H379Q329 1664 283.5 1643.5Q238 1623 203.5 1588.5Q169 1554 148.5 1508.5Q128 1463 128 1413V635Q128 585 148.5 539.5Q169 494 203.5 459.5Q238 425 283.5 404.5Q329 384 379 384ZM448 512Q409 512 374.0 527.0Q339 542 312.5 568.5Q286 595 271.0 630.0Q256 665 256 704V1344Q256 1383 271.0 1418.0Q286 1453 312.5 1479.5Q339 1506 374.0 1521.0Q409 1536 448 1536H1600Q1639 1536 1674.0 1521.0Q1709 1506 1735.5 1479.5Q1762 1453 1777.0 1418.0Q1792 1383 1792 1344V704Q1792 665 1777.0 630.0Q1762 595 1735.5 568.5Q1709 542 1674.0 527.0Q1639 512 1600 512ZM1600 640Q1626 640 1645.0 659.0Q1664 678 1664 704V1344Q1664 1370 1645.0 1389.0Q1626 1408 1600 1408H448Q422 1408 403.0 1389.0Q384 1370 384 1344V704Q384 678 403.0 659.0Q422 640 448 640ZM576 1120Q576 1160 604.0 1188.0Q632 1216 672 1216Q712 1216 740.0 1188.0Q768 1160 768 1120Q768 1080 740.0 1052.0Q712 1024 672 1024Q632 1024 604.0 1052.0Q576 1080 576 1120ZM960 1120Q960 1160 988.0 1188.0Q1016 1216 1056 1216Q1096 1216 1124.0 1188.0Q1152 1160 1152 1120Q1152 1080 1124.0 1052.0Q1096 1024 1056 1024Q1016 1024 988.0 1052.0Q960 1080 960 1120ZM1344 1120Q1344 1160 1372.0 1188.0Q1400 1216 1440 1216Q1480 1216 1508.0 1188.0Q1536 1160 1536 1120Q1536 1080 1508.0 1052.0Q1480 1024 1440 1024Q1400 1024 1372.0 1052.0Q1344 1080 1344 1120ZM704 768Q678 768 659.0 787.0Q640 806 640 832Q640 858 659.0 877.0Q678 896 704 896H1344Q1370 896 1389.0 877.0Q1408 858 1408 832Q1408 806 1389.0 787.0Q1370 768 1344 768Z"/>
  </g>
</svg>