<?xml version="1.0" encoding="utf-8"?>
<svg xmlns="http://www.w3.org/2000/svg" width="16" height="16" viewBox="0 0 2048 2048">
  <g transform="translate(0, 2048) scale(1, -1)">
    <path fill="#000000" d="M251 512Q201 512 155.5 532.5Q110 553 75.5 587.5Q41 622 20.5 667.5Q0 713 0 763V1669Q0 1719 20.5 1764.5Q41 1810 75.5 1844.5Q110 1879 155.5 1899.5Q201 1920 251 1920H1797Q1847 1920 1892.5 1899.5Q1938 1879 1972.5 1844.5Q2007 1810 2027.5 1764.5Q2048 1719 2048 1669V981Q1995 1058 1920 1119V1664Q1920 1690 1910.0 1713.5Q1900 1737 1882.5 1754.5Q1865 1772 1841.5 1782.0Q1818 1792 1792 1792H256Q229 1792 206.0 1782.0Q183 1772 165.5 1754.5Q148 1737 138.0 1714.0Q128 1691 128 1664V768Q128 741 138.0 717.5Q148 694 165.0 677.0Q182 660 205.5 650.0Q229 640 256 640H771Q768 608 768 576Q768 543 771 512ZM320 1504Q320 1544 348.0 1572.0Q376 1600 416 1600Q456 1600 484.0 1572.0Q512 1544 512 1504Q512 1464 484.0 1436.0Q456 1408 416 1408Q376 1408 348.0 1436.0Q320 1464 320 1504ZM704 1504Q704 1544 732.0 1572.0Q760 1600 800 1600Q840 1600 868.0 1572.0Q896 1544 896 1504Q896 1464 868.0 1436.0Q840 1408 800 1408Q760 1408 732.0 1436.0Q704 1464 704 1504ZM1088 1504Q1088 1544 1116.0 1572.0Q1144 1600 1184 1600Q1224 1600 1252.0 1572.0Q1280 1544 1280 1504Q1280 1464 1252.0 1436.0Q1224 1408 1184 1408Q1144 1408 1116.0 1436.0Q1088 1464 1088 1504ZM1472 1504Q1472 1544 1500.0 1572.0Q1528 1600 1568 1600Q1608 1600 1636.0 1572.0Q1664 1544 1664 1504Q1664 1464 1636.0 1436.0Q1608 1408 1568 1408Q1528 1408 1500.0 1436.0Q1472 1464 1472 1504ZM576 1120Q576 1160 604.0 1188.0Q632 1216 672 1216Q712 1216 740.0 1188.0Q768 1160 768 1120Q768 1080 740.0 1052.0Q712 1024 672 1024Q632 1024 604.0 1052.0Q576 1080 576 1120ZM960 1120Q960 1160 988.0 1188.0Q1016 1216 1056 1216Q1094 1216 1124 1188Q1082 1164 1044.5 1135.5Q1007 1107 973 1072Q960 1094 960 1120ZM1244 65Q1187 89 1132 126Q1141 158 1149.5 188.5Q1158 219 1158 252Q1158 296 1143.0 336.5Q1128 377 1102.0 410.0Q1076 443 1040.0 466.5Q1004 490 961 500L899 514Q896 545 896 576Q896 606 899 638L961 652Q1004 662 1040.0 685.5Q1076 709 1102.0 742.0Q1128 775 1143.0 815.5Q1158 856 1158 900Q1158 933 1149.5 963.5Q1141 994 1132 1026Q1187 1063 1244 1087Q1271 1060 1294.5 1038.0Q1318 1016 1344.5 999.5Q1371 983 1401.5 974.0Q1432 965 1472 965Q1512 965 1543.0 974.0Q1574 983 1600.0 999.5Q1626 1016 1649.5 1038.0Q1673 1060 1700 1087Q1757 1063 1812 1026Q1803 994 1794.5 963.5Q1786 933 1786 900Q1786 856 1800.5 815.5Q1815 775 1841.5 742.0Q1868 709 1904.0 685.5Q1940 662 1983 652L2045 638Q2048 606 2048 576Q2048 545 2045 514L1983 500Q1940 490 1904.0 466.5Q1868 443 1841.5 410.0Q1815 377 1800.5 336.5Q1786 296 1786 252Q1786 219 1794.5 188.5Q1803 158 1812 126Q1757 89 1700 65Q1673 92 1649.5 114.0Q1626 136 1600.0 152.5Q1574 169 1543.0 178.0Q1512 187 1472 187Q1431 187 1400.5 178.0Q1370 169 1344.0 152.5Q1318 136 1294.5 114.0Q1271 92 1244 65ZM448 768Q422 768 403.0 787.0Q384 806 384 832Q384 858 403.0 877.0Q422 896 448 896H845Q813 833 795 768ZM1600 576Q1600 602 1590.0 625.5Q1580 649 1562.5 666.5Q1545 684 1521.5 694.0Q1498 704 1472 704Q1445 704 1422.0 694.0Q1399 684 1381.5 666.5Q1364 649 1354.0 626.0Q1344 603 1344 576Q1344 549 1354.0 525.5Q1364 502 1381.0 485.0Q1398 468 1421.5 458.0Q1445 448 1472 448Q1499 448 1522.0 458.0Q1545 468 1562.5 485.5Q1580 503 1590.0 526.0Q1600 549 1600 576Z"/>
  </g>
</svg>