<?xml version="1.0" encoding="utf-8"?>
<svg xmlns="http://www.w3.org/2000/svg" width="16" height="16" viewBox="0 0 2048 2048">
  <g transform="translate(0, 2048) scale(1, -1)">
    <path fill="#ffffff" d="M251 512Q201 512 155.5 532.5Q110 553 75.5 587.5Q41 622 20.5 667.5Q0 713 0 763V1669Q0 1719 20.5 1764.5Q41 1810 75.5 1844.5Q110 1879 155.5 1899.5Q201 1920 251 1920H1797Q1847 1920 1892.5 1899.5Q1938 1879 1972.5 1844.5Q2007 1810 2027.5 1764.5Q2048 1719 2048 1669V1088Q2019 1110 1987.0 1124.0Q1955 1138 1920 1146V1664Q1920 1690 1910.0 1713.5Q1900 1737 1882.5 1754.5Q1865 1772 1841.5 1782.0Q1818 1792 1792 1792H256Q229 1792 206.0 1782.0Q183 1772 165.5 1754.5Q148 1737 138.0 1714.0Q128 1691 128 1664V768Q128 741 138.0 717.5Q148 694 165.0 677.0Q182 660 205.5 650.0Q229 640 256 640H896V512ZM320 1504Q320 1544 348.0 1572.0Q376 1600 416 1600Q456 1600 484.0 1572.0Q512 1544 512 1504Q512 1464 484.0 1436.0Q456 1408 416 1408Q376 1408 348.0 1436.0Q320 1464 320 1504ZM704 1504Q704 1544 732.0 1572.0Q760 1600 800 1600Q840 1600 868.0 1572.0Q896 1544 896 1504Q896 1464 868.0 1436.0Q840 1408 800 1408Q760 1408 732.0 1436.0Q704 1464 704 1504ZM1088 1504Q1088 1544 1116.0 1572.0Q1144 1600 1184 1600Q1224 1600 1252.0 1572.0Q1280 1544 1280 1504Q1280 1464 1252.0 1436.0Q1224 1408 1184 1408Q1144 1408 1116.0 1436.0Q1088 1464 1088 1504ZM1472 1504Q1472 1544 1500.0 1572.0Q1528 1600 1568 1600Q1608 1600 1636.0 1572.0Q1664 1544 1664 1504Q1664 1464 1636.0 1436.0Q1608 1408 1568 1408Q1528 1408 1500.0 1436.0Q1472 1464 1472 1504ZM576 1120Q576 1160 604.0 1188.0Q632 1216 672 1216Q712 1216 740.0 1188.0Q768 1160 768 1120Q768 1080 740.0 1052.0Q712 1024 672 1024Q632 1024 604.0 1052.0Q576 1080 576 1120ZM960 1120Q960 1160 988.0 1188.0Q1016 1216 1056 1216Q1088 1216 1114.5 1196.5Q1141 1177 1149 1145Q1101 1134 1060.0 1111.5Q1019 1089 986 1054Q960 1083 960 1120ZM1350 1152Q1360 1181 1385.0 1198.5Q1410 1216 1440 1216Q1471 1216 1495.5 1198.0Q1520 1180 1531 1152ZM1216 0Q1177 0 1142.0 15.0Q1107 30 1080.5 56.5Q1054 83 1039.0 118.0Q1024 153 1024 192V832Q1024 871 1039.0 906.0Q1054 941 1080.5 967.5Q1107 994 1142.0 1009.0Q1177 1024 1216 1024H1856Q1895 1024 1930.0 1009.0Q1965 994 1991.5 967.5Q2018 941 2033.0 906.0Q2048 871 2048 832V192Q2048 153 2033.0 118.0Q2018 83 1991.5 56.5Q1965 30 1930.0 15.0Q1895 0 1856 0ZM448 768Q422 768 403.0 787.0Q384 806 384 832Q384 858 403.0 877.0Q422 896 448 896H902Q898 875 897.0 853.5Q896 832 896 811V768ZM1792 320V704Q1792 730 1773.0 749.0Q1754 768 1728 768H1344Q1318 768 1299.0 749.0Q1280 730 1280 704Q1280 678 1299.0 659.0Q1318 640 1344 640H1551L1287 377Q1276 366 1270.0 350.5Q1264 335 1264 320Q1264 287 1287.5 263.5Q1311 240 1344 240Q1359 240 1374.5 246.0Q1390 252 1401 263L1664 527V320Q1664 294 1683.0 275.0Q1702 256 1728 256Q1754 256 1773.0 275.0Q1792 294 1792 320Z"/>
  </g>
</svg>