<?xml version="1.0" encoding="utf-8"?>
<svg xmlns="http://www.w3.org/2000/svg" width="16" height="16" viewBox="0 0 2048 2048">
  <g transform="translate(0, 2048) scale(1, -1)">
    <path fill="#ffffff" d="M896 1472V1536Q896 1562 915.0 1581.0Q934 1600 960 1600Q986 1600 1005.0 1581.0Q1024 1562 1024 1536V1472Q1024 1446 1005.0 1427.0Q986 1408 960 1408Q934 1408 915.0 1427.0Q896 1446 896 1472ZM352 1376Q352 1402 371.0 1421.0Q390 1440 416 1440Q443 1440 459.5 1423.0Q476 1406 493 1389Q512 1370 512 1344Q512 1318 493.0 1299.0Q474 1280 448 1280Q422 1280 403 1299Q395 1307 386.0 1315.5Q377 1324 369.5 1333.0Q362 1342 357.0 1352.5Q352 1363 352 1376ZM1408 1344Q1408 1370 1425.0 1387.0Q1442 1404 1459 1421Q1478 1440 1504 1440Q1530 1440 1549.0 1421.0Q1568 1402 1568 1376Q1568 1350 1551.0 1333.0Q1534 1316 1517 1299Q1498 1280 1472 1280Q1446 1280 1427.0 1299.0Q1408 1318 1408 1344ZM512 840Q512 931 548.5 1011.0Q585 1091 646.5 1151.0Q708 1211 789.5 1245.5Q871 1280 960 1280Q1049 1280 1130.5 1245.5Q1212 1211 1273.5 1151.0Q1335 1091 1371.5 1011.0Q1408 931 1408 840Q1408 811 1392.0 789.5Q1376 768 1344 768Q1313 768 1296.5 789.0Q1280 810 1280 839Q1280 904 1254.0 961.0Q1228 1018 1184.0 1060.5Q1140 1103 1082.0 1127.5Q1024 1152 960 1152Q893 1152 835.0 1127.0Q777 1102 733.5 1058.5Q690 1015 665.0 957.0Q640 899 640 832Q640 806 621.0 787.0Q602 768 576 768Q544 768 528.0 789.5Q512 811 512 840ZM256 896Q230 896 211.0 915.0Q192 934 192 960Q192 986 211.0 1005.0Q230 1024 256 1024H320Q346 1024 365.0 1005.0Q384 986 384 960Q384 934 365.0 915.0Q346 896 320 896ZM1600 896Q1574 896 1555.0 915.0Q1536 934 1536 960Q1536 986 1555.0 1005.0Q1574 1024 1600 1024H1664Q1690 1024 1709.0 1005.0Q1728 986 1728 960Q1728 934 1709.0 915.0Q1690 896 1664 896ZM64 512Q38 512 19.0 531.0Q0 550 0 576Q0 602 19.0 621.0Q38 640 64 640H1856Q1882 640 1901.0 621.0Q1920 602 1920 576Q1920 550 1901.0 531.0Q1882 512 1856 512Z"/>
  </g>
</svg>