<?xml version="1.0" encoding="utf-8"?>
<svg xmlns="http://www.w3.org/2000/svg" width="16" height="16" viewBox="0 0 2048 2048">
  <g transform="translate(0, 2048) scale(1, -1)">
    <path fill="#ffffff" d="M1797 1792Q1847 1792 1892.5 1771.5Q1938 1751 1972.5 1716.5Q2007 1682 2027.5 1636.5Q2048 1591 2048 1541V507Q2048 457 2027.5 411.5Q2007 366 1972.5 331.5Q1938 297 1892.5 276.5Q1847 256 1797 256H251Q201 256 155.5 276.5Q110 297 75.5 331.5Q41 366 20.5 411.5Q0 457 0 507V1541Q0 1591 20.5 1636.5Q41 1682 75.5 1716.5Q110 1751 155.5 1771.5Q201 1792 251 1792ZM256 1664Q229 1664 206.0 1654.0Q183 1644 165.5 1626.5Q148 1609 138.0 1586.0Q128 1563 128 1536V1280H1920V1536Q1920 1562 1910.0 1585.5Q1900 1609 1882.5 1626.5Q1865 1644 1841.5 1654.0Q1818 1664 1792 1664ZM1792 384Q1819 384 1842.0 394.0Q1865 404 1882.5 421.5Q1900 439 1910.0 462.0Q1920 485 1920 512V1152H128V512Q128 485 138.0 461.5Q148 438 165.0 421.0Q182 404 205.5 394.0Q229 384 256 384ZM416 768Q376 768 348.0 796.0Q320 824 320 864Q320 904 348.0 932.0Q376 960 416 960Q456 960 484.0 932.0Q512 904 512 864Q512 824 484.0 796.0Q456 768 416 768ZM704 864Q704 904 732.0 932.0Q760 960 800 960Q840 960 868.0 932.0Q896 904 896 864Q896 824 868.0 796.0Q840 768 800 768Q760 768 732.0 796.0Q704 824 704 864ZM1088 864Q1088 904 1116.0 932.0Q1144 960 1184 960Q1224 960 1252.0 932.0Q1280 904 1280 864Q1280 824 1252.0 796.0Q1224 768 1184 768Q1144 768 1116.0 796.0Q1088 824 1088 864ZM1664 864Q1664 824 1636.0 796.0Q1608 768 1568 768Q1528 768 1500.0 796.0Q1472 824 1472 864Q1472 904 1500.0 932.0Q1528 960 1568 960Q1608 960 1636.0 932.0Q1664 904 1664 864ZM1600 640Q1626 640 1645.0 621.0Q1664 602 1664 576Q1664 550 1645.0 531.0Q1626 512 1600 512H448Q422 512 403.0 531.0Q384 550 384 576Q384 602 403.0 621.0Q422 640 448 640Z"/>
  </g>
</svg>