<?xml version="1.0" encoding="utf-8"?>
<svg xmlns="http://www.w3.org/2000/svg" width="16" height="16" viewBox="0 0 2048 2048">
  <g transform="translate(0, 2048) scale(1, -1)">
    <path fill="#000000" d="M376 256Q301 256 232.5 286.5Q164 317 112.5 368.5Q61 420 30.5 488.5Q0 557 0 632V1416Q0 1491 30.5 1559.5Q61 1628 112.5 1679.5Q164 1731 232.5 1761.5Q301 1792 376 1792H1672Q1747 1792 1815.5 1761.5Q1884 1731 1935.5 1679.5Q1987 1628 2017.5 1559.5Q2048 1491 2048 1416V632Q2048 557 2017.5 488.5Q1987 420 1935.5 368.5Q1884 317 1815.5 286.5Q1747 256 1672 256ZM1669 384Q1719 384 1764.5 404.5Q1810 425 1844.5 459.5Q1879 494 1899.5 539.5Q1920 585 1920 635V1413Q1920 1463 1899.5 1508.5Q1879 1554 1844.5 1588.5Q1810 1623 1764.5 1643.5Q1719 1664 1669 1664H379Q329 1664 283.5 1643.5Q238 1623 203.5 1588.5Q169 1554 148.5 1508.5Q128 1463 128 1413V635Q128 585 148.5 539.5Q169 494 203.5 459.5Q238 425 283.5 404.5Q329 384 379 384ZM1088 640Q1049 640 1014.0 655.0Q979 670 952.5 696.5Q926 723 911.0 758.0Q896 793 896 832V1344Q896 1383 911.0 1418.0Q926 1453 952.5 1479.5Q979 1506 1014.0 1521.0Q1049 1536 1088 1536H1600Q1639 1536 1674.0 1521.0Q1709 1506 1735.5 1479.5Q1762 1453 1777.0 1418.0Q1792 1383 1792 1344V832Q1792 793 1777.0 758.0Q1762 723 1735.5 696.5Q1709 670 1674.0 655.0Q1639 640 1600 640ZM1600 768Q1626 768 1645.0 787.0Q1664 806 1664 832V1344Q1664 1370 1645.0 1389.0Q1626 1408 1600 1408H1088Q1062 1408 1043.0 1389.0Q1024 1370 1024 1344V832Q1024 806 1043.0 787.0Q1062 768 1088 768ZM1152 1216Q1152 1242 1171.0 1261.0Q1190 1280 1216 1280Q1242 1280 1261.0 1261.0Q1280 1242 1280 1216Q1280 1190 1261.0 1171.0Q1242 1152 1216 1152Q1190 1152 1171.0 1171.0Q1152 1190 1152 1216ZM1408 1216Q1408 1242 1427.0 1261.0Q1446 1280 1472 1280Q1498 1280 1517.0 1261.0Q1536 1242 1536 1216Q1536 1190 1517.0 1171.0Q1498 1152 1472 1152Q1446 1152 1427.0 1171.0Q1408 1190 1408 1216ZM1152 960Q1152 986 1171.0 1005.0Q1190 1024 1216 1024Q1242 1024 1261.0 1005.0Q1280 986 1280 960Q1280 934 1261.0 915.0Q1242 896 1216 896Q1190 896 1171.0 915.0Q1152 934 1152 960ZM1408 960Q1408 986 1427.0 1005.0Q1446 1024 1472 1024Q1498 1024 1517.0 1005.0Q1536 986 1536 960Q1536 934 1517.0 915.0Q1498 896 1472 896Q1446 896 1427.0 915.0Q1408 934 1408 960Z"/>
  </g>
</svg>