<?xml version="1.0" encoding="utf-8"?>
<svg xmlns="http://www.w3.org/2000/svg" width="16" height="16" viewBox="0 0 2048 2048">
  <g transform="translate(0, 2048) scale(1, -1)">
    <path fill="#000000" d="M251 384Q201 384 155.5 404.5Q110 425 75.5 459.5Q41 494 20.5 539.5Q0 585 0 635V1541Q0 1591 20.5 1636.5Q41 1682 75.5 1716.5Q110 1751 155.5 1771.5Q201 1792 251 1792H1797Q1847 1792 1892.5 1771.5Q1938 1751 1972.5 1716.5Q2007 1682 2027.5 1636.5Q2048 1591 2048 1541V635Q2048 585 2027.5 539.5Q2007 494 1972.5 459.5Q1938 425 1892.5 404.5Q1847 384 1797 384ZM1792 512Q1819 512 1842.0 522.0Q1865 532 1882.5 549.5Q1900 567 1910.0 590.0Q1920 613 1920 640V1536Q1920 1562 1910.0 1585.5Q1900 1609 1882.5 1626.5Q1865 1644 1841.5 1654.0Q1818 1664 1792 1664H256Q229 1664 206.0 1654.0Q183 1644 165.5 1626.5Q148 1609 138.0 1586.0Q128 1563 128 1536V640Q128 613 138.0 589.5Q148 566 165.0 549.0Q182 532 205.5 522.0Q229 512 256 512ZM320 1376Q320 1416 348.0 1444.0Q376 1472 416 1472Q456 1472 484.0 1444.0Q512 1416 512 1376Q512 1336 484.0 1308.0Q456 1280 416 1280Q376 1280 348.0 1308.0Q320 1336 320 1376ZM640 1376Q640 1416 668.0 1444.0Q696 1472 736 1472Q776 1472 804.0 1444.0Q832 1416 832 1376Q832 1336 804.0 1308.0Q776 1280 736 1280Q696 1280 668.0 1308.0Q640 1336 640 1376ZM1216 1376Q1216 1416 1244.0 1444.0Q1272 1472 1312 1472Q1352 1472 1380.0 1444.0Q1408 1416 1408 1376Q1408 1336 1380.0 1308.0Q1352 1280 1312 1280Q1272 1280 1244.0 1308.0Q1216 1336 1216 1376ZM1536 1376Q1536 1416 1564.0 1444.0Q1592 1472 1632 1472Q1672 1472 1700.0 1444.0Q1728 1416 1728 1376Q1728 1336 1700.0 1308.0Q1672 1280 1632 1280Q1592 1280 1564.0 1308.0Q1536 1336 1536 1376ZM320 992Q320 1032 348.0 1060.0Q376 1088 416 1088Q456 1088 484.0 1060.0Q512 1032 512 992Q512 952 484.0 924.0Q456 896 416 896Q376 896 348.0 924.0Q320 952 320 992ZM640 992Q640 1032 668.0 1060.0Q696 1088 736 1088Q776 1088 804.0 1060.0Q832 1032 832 992Q832 952 804.0 924.0Q776 896 736 896Q696 896 668.0 924.0Q640 952 640 992ZM1216 992Q1216 1032 1244.0 1060.0Q1272 1088 1312 1088Q1352 1088 1380.0 1060.0Q1408 1032 1408 992Q1408 952 1380.0 924.0Q1352 896 1312 896Q1272 896 1244.0 924.0Q1216 952 1216 992ZM1536 992Q1536 1032 1564.0 1060.0Q1592 1088 1632 1088Q1672 1088 1700.0 1060.0Q1728 1032 1728 992Q1728 952 1700.0 924.0Q1672 896 1632 896Q1592 896 1564.0 924.0Q1536 952 1536 992ZM384 640Q358 640 339.0 659.0Q320 678 320 704Q320 730 339.0 749.0Q358 768 384 768H768Q794 768 813.0 749.0Q832 730 832 704Q832 678 813.0 659.0Q794 640 768 640ZM1280 640Q1254 640 1235.0 659.0Q1216 678 1216 704Q1216 730 1235.0 749.0Q1254 768 1280 768H1664Q1690 768 1709.0 749.0Q1728 730 1728 704Q1728 678 1709.0 659.0Q1690 640 1664 640Z"/>
  </g>
</svg>