<?xml version="1.0" encoding="utf-8"?>
<svg xmlns="http://www.w3.org/2000/svg" width="16" height="16" viewBox="0 0 2048 2048">
  <g transform="translate(0, 2048) scale(1, -1)">
    <path fill="#000000" d="M251 384Q201 384 155.5 404.5Q110 425 75.5 459.5Q41 494 20.5 539.5Q0 585 0 635V1541Q0 1591 20.5 1636.5Q41 1682 75.5 1716.5Q110 1751 155.5 1771.5Q201 1792 251 1792H1797Q1847 1792 1892.5 1771.5Q1938 1751 1972.5 1716.5Q2007 1682 2027.5 1636.5Q2048 1591 2048 1541V635Q2048 585 2027.5 539.5Q2007 494 1972.5 459.5Q1938 425 1892.5 404.5Q1847 384 1797 384ZM528 1376Q528 1424 496.0 1456.0Q464 1488 416 1488Q393 1488 372.5 1479.0Q352 1470 337.0 1455.0Q322 1440 313.0 1419.5Q304 1399 304 1376Q304 1353 313.0 1332.5Q322 1312 337.0 1297.0Q352 1282 372.5 1273.0Q393 1264 416 1264Q439 1264 459.5 1273.0Q480 1282 495.0 1297.0Q510 1312 519.0 1332.5Q528 1353 528 1376ZM912 1376Q912 1424 880.0 1456.0Q848 1488 800 1488Q777 1488 756.5 1479.0Q736 1470 721.0 1455.0Q706 1440 697.0 1419.5Q688 1399 688 1376Q688 1353 697.0 1332.5Q706 1312 721.0 1297.0Q736 1282 756.5 1273.0Q777 1264 800 1264Q823 1264 843.5 1273.0Q864 1282 879.0 1297.0Q894 1312 903.0 1332.5Q912 1353 912 1376ZM1296 1376Q1296 1424 1264.0 1456.0Q1232 1488 1184 1488Q1161 1488 1140.5 1479.0Q1120 1470 1105.0 1455.0Q1090 1440 1081.0 1419.5Q1072 1399 1072 1376Q1072 1353 1081.0 1332.5Q1090 1312 1105.0 1297.0Q1120 1282 1140.5 1273.0Q1161 1264 1184 1264Q1207 1264 1227.5 1273.0Q1248 1282 1263.0 1297.0Q1278 1312 1287.0 1332.5Q1296 1353 1296 1376ZM1680 1376Q1680 1424 1648.0 1456.0Q1616 1488 1568 1488Q1545 1488 1524.5 1479.0Q1504 1470 1489.0 1455.0Q1474 1440 1465.0 1419.5Q1456 1399 1456 1376Q1456 1353 1465.0 1332.5Q1474 1312 1489.0 1297.0Q1504 1282 1524.5 1273.0Q1545 1264 1568 1264Q1591 1264 1611.5 1273.0Q1632 1282 1647.0 1297.0Q1662 1312 1671.0 1332.5Q1680 1353 1680 1376ZM784 992Q784 1040 752.0 1072.0Q720 1104 672 1104Q649 1104 628.5 1095.0Q608 1086 593.0 1071.0Q578 1056 569.0 1035.5Q560 1015 560 992Q560 969 569.0 948.5Q578 928 593.0 913.0Q608 898 628.5 889.0Q649 880 672 880Q695 880 715.5 889.0Q736 898 751.0 913.0Q766 928 775.0 948.5Q784 969 784 992ZM1168 992Q1168 1040 1136.0 1072.0Q1104 1104 1056 1104Q1033 1104 1012.5 1095.0Q992 1086 977.0 1071.0Q962 1056 953.0 1035.5Q944 1015 944 992Q944 969 953.0 948.5Q962 928 977.0 913.0Q992 898 1012.5 889.0Q1033 880 1056 880Q1079 880 1099.5 889.0Q1120 898 1135.0 913.0Q1150 928 1159.0 948.5Q1168 969 1168 992ZM1552 992Q1552 1040 1520.0 1072.0Q1488 1104 1440 1104Q1417 1104 1396.5 1095.0Q1376 1086 1361.0 1071.0Q1346 1056 1337.0 1035.5Q1328 1015 1328 992Q1328 969 1337.0 948.5Q1346 928 1361.0 913.0Q1376 898 1396.5 889.0Q1417 880 1440 880Q1463 880 1483.5 889.0Q1504 898 1519.0 913.0Q1534 928 1543.0 948.5Q1552 969 1552 992ZM1600 640Q1626 640 1645.0 659.0Q1664 678 1664 704Q1664 730 1645.0 749.0Q1626 768 1600 768H448Q422 768 403.0 749.0Q384 730 384 704Q384 678 403.0 659.0Q422 640 448 640Z"/>
  </g>
</svg>