<?xml version="1.0" encoding="utf-8"?>
<svg xmlns="http://www.w3.org/2000/svg" width="16" height="16" viewBox="0 0 2048 2048">
  <g transform="translate(0, 2048) scale(1, -1)">
    <path fill="#ffffff" d="M251 384Q201 384 155.5 404.5Q110 425 75.5 459.5Q41 494 20.5 539.5Q0 585 0 635V1541Q0 1591 20.5 1636.5Q41 1682 75.5 1716.5Q110 1751 155.5 1771.5Q201 1792 251 1792H1797Q1847 1792 1892.5 1771.5Q1938 1751 1972.5 1716.5Q2007 1682 2027.5 1636.5Q2048 1591 2048 1541V635Q2048 585 2027.5 539.5Q2007 494 1972.5 459.5Q1938 425 1892.5 404.5Q1847 384 1797 384ZM1792 512Q1819 512 1842.0 522.0Q1865 532 1882.5 549.5Q1900 567 1910.0 590.0Q1920 613 1920 640V1536Q1920 1562 1910.0 1585.5Q1900 1609 1882.5 1626.5Q1865 1644 1841.5 1654.0Q1818 1664 1792 1664H256Q229 1664 206.0 1654.0Q183 1644 165.5 1626.5Q148 1609 138.0 1586.0Q128 1563 128 1536V640Q128 613 138.0 589.5Q148 566 165.0 549.0Q182 532 205.5 522.0Q229 512 256 512ZM1216 1376Q1216 1416 1244.0 1444.0Q1272 1472 1312 1472Q1352 1472 1380.0 1444.0Q1408 1416 1408 1376Q1408 1336 1380.0 1308.0Q1352 1280 1312 1280Q1272 1280 1244.0 1308.0Q1216 1336 1216 1376ZM1536 1376Q1536 1416 1564.0 1444.0Q1592 1472 1632 1472Q1672 1472 1700.0 1444.0Q1728 1416 1728 1376Q1728 1336 1700.0 1308.0Q1672 1280 1632 1280Q1592 1280 1564.0 1308.0Q1536 1336 1536 1376ZM1216 992Q1216 1032 1244.0 1060.0Q1272 1088 1312 1088Q1352 1088 1380.0 1060.0Q1408 1032 1408 992Q1408 952 1380.0 924.0Q1352 896 1312 896Q1272 896 1244.0 924.0Q1216 952 1216 992ZM1536 992Q1536 1032 1564.0 1060.0Q1592 1088 1632 1088Q1672 1088 1700.0 1060.0Q1728 1032 1728 992Q1728 952 1700.0 924.0Q1672 896 1632 896Q1592 896 1564.0 924.0Q1536 952 1536 992ZM1280 640Q1254 640 1235.0 659.0Q1216 678 1216 704Q1216 730 1235.0 749.0Q1254 768 1280 768H1664Q1690 768 1709.0 749.0Q1728 730 1728 704Q1728 678 1709.0 659.0Q1690 640 1664 640Z"/>
  </g>
</svg>