<?xml version="1.0" encoding="utf-8"?>
<svg xmlns="http://www.w3.org/2000/svg" width="16" height="16" viewBox="0 0 2048 2048">
  <g transform="translate(0, 2048) scale(1, -1)">
    <path fill="#000000" d="M1543 2049Q1593 2049 1638.5 2028.5Q1684 2008 1718.5 1973.5Q1753 1939 1773.5 1893.5Q1794 1848 1794 1798V1148Q1794 1096 1773.0 1050.5Q1752 1005 1717.0 971.0Q1682 937 1635.5 917.0Q1589 897 1538 897H1282V129H1474Q1501 129 1519.5 110.5Q1538 92 1538 65Q1538 39 1519.0 20.0Q1500 1 1474 1H578Q552 1 533.0 20.0Q514 39 514 65Q514 91 533.0 110.0Q552 129 578 129H770V897H509Q459 897 413.5 917.5Q368 938 333.5 972.5Q299 1007 278.5 1052.5Q258 1098 258 1148V1798Q258 1848 278.5 1893.5Q299 1939 333.5 1973.5Q368 2008 413.5 2028.5Q459 2049 509 2049ZM1666 1793Q1666 1819 1656.0 1842.5Q1646 1866 1628.5 1883.5Q1611 1901 1587.5 1911.0Q1564 1921 1538 1921H514Q488 1921 464.5 1911.0Q441 1901 423.5 1883.5Q406 1866 396.0 1842.5Q386 1819 386 1793V1153Q386 1127 396.5 1104.0Q407 1081 424.5 1063.5Q442 1046 465.0 1035.5Q488 1025 514 1025H1538Q1564 1025 1587.5 1035.0Q1611 1045 1628.5 1062.5Q1646 1080 1656.0 1103.5Q1666 1127 1666 1153ZM898 129H1154V897H898Z"/>
  </g>
</svg>