<?xml version="1.0" encoding="utf-8"?>
<svg xmlns="http://www.w3.org/2000/svg" width="16" height="16" viewBox="0 0 2048 2048">
  <g transform="translate(0, 2048) scale(1, -1)">
    <path fill="#ffffff" d="M1792 1265V251Q1792 201 1771.5 155.5Q1751 110 1716.5 75.5Q1682 41 1636.5 20.5Q1591 0 1541 0H507Q457 0 411.5 20.5Q366 41 331.5 75.5Q297 110 276.5 155.5Q256 201 256 251V1797Q256 1847 276.5 1892.5Q297 1938 331.5 1972.5Q366 2007 411.5 2027.5Q457 2048 507 2048H1009Q1060 2048 1107.0 2028.5Q1154 2009 1190 1973L1717 1446Q1753 1410 1772.5 1363.0Q1792 1316 1792 1265ZM1664 1265Q1664 1275 1663 1280H1275Q1223 1280 1177.5 1301.0Q1132 1322 1098.0 1357.0Q1064 1392 1044.0 1438.5Q1024 1485 1024 1536V1919Q1019 1920 1009 1920H512Q485 1920 462.0 1910.0Q439 1900 421.5 1882.5Q404 1865 394.0 1842.0Q384 1819 384 1792V256Q384 229 394.0 205.5Q404 182 421.0 165.0Q438 148 461.5 138.0Q485 128 512 128H1536Q1563 128 1586.0 138.0Q1609 148 1626.5 165.5Q1644 183 1654.0 206.0Q1664 229 1664 256ZM1574 1408 1152 1830V1536Q1152 1509 1162.0 1485.5Q1172 1462 1189.0 1445.0Q1206 1428 1229.5 1418.0Q1253 1408 1280 1408ZM1344 1024Q1370 1024 1389.0 1005.0Q1408 986 1408 960Q1408 934 1389.0 915.0Q1370 896 1344 896H704Q678 896 659.0 915.0Q640 934 640 960Q640 986 659.0 1005.0Q678 1024 704 1024ZM1344 640Q1370 640 1389.0 621.0Q1408 602 1408 576Q1408 550 1389.0 531.0Q1370 512 1344 512H704Q678 512 659.0 531.0Q640 550 640 576Q640 602 659.0 621.0Q678 640 704 640Z"/>
  </g>
</svg>