<?xml version="1.0" encoding="utf-8"?>
<svg xmlns="http://www.w3.org/2000/svg" width="16" height="16" viewBox="0 0 2048 2048">
  <g transform="translate(0, 2048) scale(1, -1)">
    <path fill="#ffffff" d="M192 1664Q166 1664 147.0 1683.0Q128 1702 128 1728Q128 1754 147.0 1773.0Q166 1792 192 1792H640V1984Q640 2010 659.0 2029.0Q678 2048 704 2048Q730 2048 749.0 2029.0Q768 2010 768 1984V1792H1216Q1242 1792 1261.0 1773.0Q1280 1754 1280 1728Q1280 1702 1261.0 1683.0Q1242 1664 1216 1664ZM1536 576V1984Q1536 2010 1555.0 2029.0Q1574 2048 1600 2048Q1626 2048 1645.0 2029.0Q1664 2010 1664 1984V1280H1856Q1882 1280 1901.0 1261.0Q1920 1242 1920 1216Q1920 1190 1901.0 1171.0Q1882 1152 1856 1152H1664V576Q1664 550 1645.0 531.0Q1626 512 1600 512Q1574 512 1555.0 531.0Q1536 550 1536 576ZM256 1152V1158Q256 1242 295.5 1312.0Q335 1382 397.5 1431.5Q460 1481 538.0 1508.5Q616 1536 694 1536H704Q785 1536 865.5 1509.0Q946 1482 1009.5 1432.5Q1073 1383 1112.5 1311.5Q1152 1240 1152 1152Q1152 1063 1112.5 992.0Q1073 921 1009.5 871.5Q946 822 865.5 795.0Q785 768 704 768Q623 768 542.5 795.0Q462 822 398.5 871.5Q335 921 295.5 992.0Q256 1063 256 1152ZM1024 1152V1157Q1024 1217 993.5 1264.0Q963 1311 916.5 1343.0Q870 1375 813.0 1391.5Q756 1408 704 1408Q649 1408 592.5 1391.0Q536 1374 489.5 1341.5Q443 1309 413.5 1261.0Q384 1213 384 1152Q384 1090 413.5 1042.5Q443 995 489.5 962.5Q536 930 592.5 913.0Q649 896 704 896Q759 896 815.5 913.0Q872 930 918.5 962.5Q965 995 994.5 1042.5Q1024 1090 1024 1152ZM576 128Q550 128 531.0 147.0Q512 166 512 192V576Q512 602 531.0 621.0Q550 640 576 640Q602 640 621.0 621.0Q640 602 640 576V256H1600Q1626 256 1645.0 237.0Q1664 218 1664 192Q1664 166 1645.0 147.0Q1626 128 1600 128Z"/>
  </g>
</svg>