<?xml version="1.0" encoding="utf-8"?>
<svg id="" width="16" height="16" style="width:16px;height:16px;" version="1.1" xmlns="http://www.w3.org/2000/svg" viewBox="0 0 2048 2048" enable-background="new 0 0 2048 2048" xml:space="preserve">
    <path fill="#000" d="M697.6 1303.47 q0 -6.4 6.4 -35.73 q6.4 -29.34 16.53 -70.4 q10.13 -41.07 22.4 -88.54 q12.27 -47.47 23.47 -90.67 q11.2 -43.2 19.73 -76.26 q8.53 -33.07 11.74 -44.79 q6.4 -27.74 26.66 -48 l770.14 -770.14 q78.93 -78.93 189.86 -78.93 q54.4 0 102.4 19.73 q48 19.73 83.73 54.94 q35.74 35.2 56.54 82.67 q20.8 47.47 20.8 101.86 q0 58.67 -21.34 113.6 q-21.34 54.93 -62.93 96.53 l-759.46 759.47 q-20.27 20.27 -48 26.67 q-12.8 3.2 -45.87 11.73 q-33.07 8.53 -76.27 19.73 q-43.2 11.2 -90.13 23.47 q-46.93 12.27 -88 22.4 q-41.07 10.13 -70.93 16.53 q-29.87 6.4 -37.34 6.4 q-22.4 0 -36.26 -15.47 q-13.87 -15.46 -13.87 -36.79 ZM333.87 2048 q-67.2 0 -128 -27.2 q-60.8 -27.2 -106.14 -72.54 q-45.34 -45.33 -72.53 -106.13 q-27.2 -60.8 -27.2 -128 l0 -1243.73 q0 -67.2 27.2 -128 q27.2 -60.8 72.53 -106.13 q45.33 -45.34 106.14 -72.53 q60.8 -27.2 128 -27.2 l826.66 0 q27.74 0 48 20.27 q20.27 20.27 20.27 48 q0 27.73 -20.27 48 q-20.26 20.27 -48 20.27 l-819.2 0 q-41.6 0 -78.93 16 q-37.33 16 -65.6 44.27 q-28.27 28.26 -44.27 65.6 q-16 37.33 -16 78.94 l0 1228.8 q0 41.6 16 78.93 q16 37.33 44.27 65.6 q28.27 28.27 65.6 44.27 q37.33 16 78.93 16 l1228.8 0 q41.6 0 78.93 -16 q37.34 -16 65.6 -44.27 q28.27 -28.27 44.27 -65.6 q16 -37.33 16 -78.93 l0 -819.2 q0 -27.74 20.27 -48 q20.27 -20.26 48 -20.26 q27.73 0 48 20.26 q20.27 20.26 20.27 48 l0 826.66 q0 67.2 -27.2 128 q-27.2 60.8 -72.53 106.13 q-45.34 45.34 -106.14 72.54 q-60.8 27.2 -128 27.2 l-1243.73 0 ZM865.07 1188.27 l249.6 -62.94 l752 -752 q22.4 -22.4 33.6 -51.73 q11.2 -29.33 11.2 -60.27 q0 -26.66 -10.13 -49.59 q-10.13 -22.94 -27.2 -39.47 q-17.07 -16.53 -40 -26.13 q-22.93 -9.6 -49.61 -9.6 q-54.4 0 -92.8 38.4 l-763.73 763.74 l-62.93 249.6 Z"/>
</svg>