<?xml version="1.0" encoding="utf-8"?>
<svg xmlns="http://www.w3.org/2000/svg" width="16" height="16" viewBox="0 0 2048 2048">
  <g transform="translate(0, 2048) scale(1, -1)">
    <path fill="#ffffff" d="M1797 1792Q1847 1792 1892.5 1771.5Q1938 1751 1972.5 1716.5Q2007 1682 2027.5 1636.5Q2048 1591 2048 1541V507Q2048 457 2027.5 411.5Q2007 366 1972.5 331.5Q1938 297 1892.5 276.5Q1847 256 1797 256H251Q201 256 155.5 276.5Q110 297 75.5 331.5Q41 366 20.5 411.5Q0 457 0 507V1009Q0 1060 19.5 1107.5Q39 1155 75 1190L603 1717Q639 1753 685.5 1772.5Q732 1792 784 1792ZM1920 1536Q1920 1562 1910.0 1585.5Q1900 1609 1882.5 1626.5Q1865 1644 1841.5 1654.0Q1818 1664 1792 1664H776Q772 1664 768 1663V1275Q768 1223 747.0 1177.5Q726 1132 691.0 1098.0Q656 1064 609.5 1044.0Q563 1024 512 1024H129Q128 1019 128 1009V512Q128 485 138.0 461.5Q148 438 165.0 421.0Q182 404 205.5 394.0Q229 384 256 384H1792Q1819 384 1842.0 394.0Q1865 404 1882.5 421.5Q1900 439 1910.0 462.0Q1920 485 1920 512ZM640 1574 219 1152H512Q539 1152 562.0 1162.0Q585 1172 602.5 1189.5Q620 1207 630.0 1230.0Q640 1253 640 1280Z"/>
  </g>
</svg>