<?xml version="1.0" encoding="utf-8"?>
<svg xmlns="http://www.w3.org/2000/svg" width="16" height="16" viewBox="0 0 2048 2048">
  <g transform="translate(0, 2048) scale(1, -1)">
    <path fill="#ffffff" d="M384 192V1728Q384 1754 403.0 1773.0Q422 1792 448 1792H1600Q1626 1792 1645.0 1773.0Q1664 1754 1664 1728V192Q1664 166 1645.0 147.0Q1626 128 1600 128Q1574 128 1555.0 147.0Q1536 166 1536 192V384H512V192Q512 166 493.0 147.0Q474 128 448 128Q422 128 403.0 147.0Q384 166 384 192ZM512 1664V1152H1536V1664ZM512 1024V512H1536V1024Z"/>
  </g>
</svg>