<?xml version="1.0" encoding="utf-8"?>
<svg xmlns="http://www.w3.org/2000/svg" width="16" height="16" viewBox="0 0 2048 2048">
  <g transform="translate(0, 2048) scale(1, -1)">
    <path fill="#000000" d="M152 1588Q122 1625 86 1660Q183 1735 263.0 1825.5Q343 1916 406 2021L498 1988Q480 1960 462.0 1933.0Q444 1906 425 1879H1112V1801H365Q317 1742 263.5 1689.5Q210 1637 152 1588ZM1160 1476Q1144 1494 1127.0 1511.5Q1110 1529 1092 1545Q1191 1637 1266.0 1747.5Q1341 1858 1401 1979L1493 1949Q1471 1904 1447.0 1862.0Q1423 1820 1398 1777H1977V1696H1835Q1818 1641 1797.5 1586.0Q1777 1531 1750.5 1479.0Q1724 1427 1691.0 1379.0Q1658 1331 1616 1289Q1655 1262 1700.0 1238.5Q1745 1215 1792.5 1195.5Q1840 1176 1888.5 1159.5Q1937 1143 1982 1130Q1968 1110 1953.5 1089.5Q1939 1069 1928 1047Q1881 1062 1830.0 1080.5Q1779 1099 1729.0 1121.5Q1679 1144 1632.0 1170.5Q1585 1197 1545 1227Q1466 1166 1369.0 1121.0Q1272 1076 1178 1041Q1164 1061 1151.0 1080.5Q1138 1100 1123 1119Q1166 1134 1212.0 1152.0Q1258 1170 1302.5 1191.0Q1347 1212 1389.0 1236.0Q1431 1260 1468 1288Q1399 1355 1354.0 1438.5Q1309 1522 1280 1613Q1251 1578 1221.5 1543.0Q1192 1508 1160 1476ZM1735 1696H1348Q1363 1649 1381.0 1602.0Q1399 1555 1422.5 1510.5Q1446 1466 1475.5 1425.0Q1505 1384 1541 1349Q1614 1420 1660.0 1510.0Q1706 1600 1735 1696ZM1135 523Q1135 484 1135 446L1136 293Q1136 254 1136 215Q1136 160 1120.5 124.0Q1105 88 1076.5 66.5Q1048 45 1007.5 35.5Q967 26 918 24Q863 22 808.5 21.0Q754 20 699 20L680 120Q732 118 783.5 117.0Q835 116 887 116Q925 116 952.5 121.5Q980 127 997.5 142.0Q1015 157 1023.5 183.0Q1032 209 1032 249V521Q893 517 755.5 512.5Q618 508 479 503Q423 501 368.0 499.0Q313 497 258 489L222 591Q282 602 339.5 616.0Q397 630 455 647Q595 687 733.0 724.5Q871 762 1008 810Q881 808 756.0 804.0Q631 800 504 794Q469 792 433.0 790.5Q397 789 362 782L328 876Q373 884 416.0 896.5Q459 909 503 923Q600 954 694.5 986.5Q789 1019 884 1054L887 1075H182L238 1331H66V1405H255L309 1642H1029L1008 1405H1191V1331H1001L988 1146H1099V1075H990L1042 1024Q929 982 815.5 947.0Q702 912 587 876Q725 880 862.0 881.5Q999 883 1137 883Q1145 883 1154.0 882.5Q1163 882 1173 882Q1198 882 1217 886Q1243 891 1266.0 902.0Q1289 913 1313 923Q1367 945 1420.5 965.5Q1474 986 1528 1009L1596 931Q1328 832 1055.0 748.5Q782 665 509 583Q750 591 989.5 597.0Q1229 603 1470 609Q1420 638 1370.5 665.5Q1321 693 1269 718L1333 786Q1454 722 1572.5 656.5Q1691 591 1810 523L1749 449Q1711 469 1674.0 492.0Q1637 515 1599 537Q1482 535 1367.0 531.5Q1252 528 1135 523ZM913 1405 930 1570H385L347 1405ZM757 1470 700 1415 544 1510 597 1562ZM907 1331H331L293 1146H894ZM725 1229 671 1174 512 1268 563 1321ZM1322 353 1379 435Q1531 381 1681.0 325.0Q1831 269 1982 211L1926 125Q1777 188 1626.0 243.5Q1475 299 1322 353ZM676 432 734 350Q581 291 427.5 238.5Q274 186 119 135L72 224Q226 269 376.5 320.5Q527 372 676 432Z"/>
  </g>
</svg>