<?xml version="1.0" encoding="utf-8"?>
<svg xmlns="http://www.w3.org/2000/svg" height="16" width="16" viewBox="0 0 16 16">
  <g>
    <path id="path1" transform="rotate(0,8,8) translate(0,0.5) scale(0.03125,0.03125)  " fill="#FFFFFF" d="M192,317.5L167,384 217,384 192,317.5z M192,257L196.75,257.5625 201,259.25 204.5,262.125 207,266.25 230.75,330.5 242.6875,362.5625 255,394.75 279,458.25 279.75,460.8125 280,464 279.7109375,467.2421875 278.84375,470.21875 277.3984375,472.9296875 275.375,475.375 272.9296875,477.3984375 270.21875,478.84375 267.2421875,479.7109375 264,480 259.21875,479.28125 254.875,477.125 251.34375,473.78125 249,469.5 229,416 155,416 135,469.5 132.65625,473.78125 129.125,477.125 124.78125,479.28125 120,480 116.859375,479.703125 113.9375,478.8125 111.234375,477.328125 108.75,475.25 106.671875,472.765625 105.1875,470.0625 104.296875,467.140625 104,464 104.25,460.8125 105,458.25 129,394.75 153.125,330.5 177,266.25 179.375,262.125 183,259.25 187.375,257.5625 192,257z M336,256L432,256 435.140625,256.296875 438.0625,257.1875 440.765625,258.671875 443.25,260.75 445.328125,263.234375 446.8125,265.9375 447.703125,268.859375 448,272 447.3125,276.5625 445.25,280.75 419.25,320 496,320 499.140625,320.296875 502.0625,321.1875 504.765625,322.671875 507.25,324.75 509.328125,327.234375 510.8125,329.9375 511.703125,332.859375 512,336 511.703125,339.140625 510.8125,342.0625 509.328125,344.765625 507.25,347.25 504.765625,349.328125 502.0625,350.8125 499.140625,351.703125 496,352 416,352 416,416 415.375,422.5 413.5,428.5 410.531219482422,433.90625 406.625,438.625 401.90625,442.53125 396.5,445.5 390.499969482422,447.375 384,448 368,448 364.859375,447.703125 361.9375,446.8125 359.234375,445.328125 356.75,443.25 354.671875,440.765625 353.1875,438.0625 352.296875,435.140625 352,432 352.53125,427.09375 354.125,423.375 356.5625,420.625 359.625,418.625 363.1875,417.28125 367.125,416.5 375.5,416 384,416 384,352 304,352 300.859375,351.703125 297.9375,350.8125 295.234375,349.328125 292.75,347.25 290.671875,344.765625 289.1875,342.0625 288.296875,339.140625 288,336 288.296875,332.859375 289.1875,329.9375 290.671875,327.234375 292.75,324.75 295.234375,322.671875 297.9375,321.1875 300.859375,320.296875 304,320 384,320 384.53125,316.4375 386.125,312.25 388.46875,307.75 391.25,303.25 397.25,294.75 399.9375,291.0625 402,288 336,288 332.859375,287.703125 329.9375,286.8125 327.234375,285.328125 324.75,283.25 322.671875,280.765625 321.1875,278.0625 320.296875,275.140625 320,272 320.296875,268.859375 321.1875,265.9375 322.671875,263.234375 324.75,260.75 327.234375,258.671875 329.9375,257.1875 332.859375,256.296875 336,256z M49.25,224L55.25,233.4296875 62,242.21875 69.5,250.367202758789 77.75,257.875 86.609375,264.6640625 95.9375,270.65625 105.734375,275.8515625 116,280.25 111.015625,266.609375 106.8125,252.6875 103.390625,238.484375 100.75,224 49.25,224z M384,160L388.90625,160.53125 392.625,162.125 395.375,164.5625 397.375,167.625 398.718719482422,171.1875 399.5,175.125 400,183.5 400,192 496,192 499.140625,192.296875 502.0625,193.1875 504.765625,194.671875 507.25,196.75 509.328125,199.234390258789 510.8125,201.937515258789 511.703125,204.859390258789 512,208 512,256 511.703125,259.140625 510.8125,262.0625 509.328125,264.765625 507.25,267.25 504.765625,269.328125 502.0625,270.8125 499.140625,271.703125 496,272 492.859375,271.703125 489.9375,270.8125 487.234375,269.328125 484.75,267.25 482.671875,264.765625 481.187469482422,262.0625 480.296844482422,259.140625 480,256 480,224 288,224 288,256 287.703125,259.140625 286.8125,262.0625 285.328125,264.765625 283.25,267.25 280.765625,269.328125 278.0625,270.8125 275.140625,271.703125 272,272 268.859375,271.703125 265.9375,270.8125 263.234375,269.328125 260.75,267.25 258.671875,264.765625 257.1875,262.0625 256.296875,259.140625 256,256 256,208 256.296875,204.859390258789 257.1875,201.937515258789 258.671875,199.234390258789 260.75,196.75 263.234375,194.671875 265.9375,193.1875 268.859375,192.296875 272,192 368,192 367.875,187.875 367.75,183.5 368.25,175.125 369.03125,171.1875 370.375,167.625 372.40625,164.5625 375.25,162.125 379.0625,160.53125 384,160z M129.25,128L128.375,144 128,160 128.375,176 129.25,192 190.75,192 191.625,176 192,160 191.625,144 190.75,128 129.25,128z M36,128L34.25,136.000015258789 33,144 32.25,152.000015258789 32,160 32.25,168.000015258789 33,176 34.25,184.000015258789 36,192 97.25,192 96.375,176 96,160 96.375,144 97.25,128 36,128z M204,39.75L208.984375,53.390625 213.1875,67.3125 216.609375,81.515625 219.25,96 271,96 265,86.5625 258.25,77.7500076293945 250.75,69.5625076293945 242.5,62 233.625,55.1718826293945 224.25,49.1875114440918 214.375,44.0468864440918 204,39.75z M116,39.75L105.625,44.0468864440918 95.75,49.1875114440918 86.375,55.1718826293945 77.5,62 69.25,69.5625076293945 61.75,77.7500076293945 55,86.5625 49,96 100.75,96 103.390625,81.515625 106.8125,67.3125 111.015625,53.390625 116,39.75z M159.75,32L157.171875,33.5000152587891 154.6875,35.7500228881836 152.296875,38.7500152587891 150,42.5 145.78125,51.2187728881836 142.125,60.875 139.03125,70.9375152587891 136.5,80.875 135.453125,85.5234451293945 134.5625,89.59375 133.828125,93.0859375 133.25,96 186.75,96 186.171875,93.0859375 185.4375,89.59375 184.546875,85.5234451293945 183.5,80.875 180.96875,70.9375152587891 177.875,60.875 174.21875,51.2187728881836 170,42.5 167.703125,38.7500152587891 165.3125,35.7500228881836 162.828125,33.5000152587891 160.25,32 159.75,32z M160,0L168.248046875,0.195313334465027 176.3671875,0.781252861022949 184.357421875,1.75781786441803 192.21875,3.12500762939453 199.951171875,4.88282155990601 207.5546875,7.03125858306885 215.029296875,9.5703182220459 222.375,12.5 236.4765625,19.3281288146973 249.65625,27.3125038146973 261.9140625,36.453125 273.25,46.75 283.546875,58.0859375 292.6875,70.34375 300.671875,83.5234451293945 307.5,97.625 310.4296875,104.970710754395 312.96875,112.445320129395 315.1171875,120.048843383789 316.875,127.781265258789 318.2421875,135.642593383789 319.21875,143.6328125 319.8046875,151.751953125 320,160 288,160 287.75,152.000015258789 287,144 285.75,136.000015258789 284,128 222.75,128 223.625,144 224,160 223.65625,176.062515258789 222.625,191.75 219.25,223.25 219.25,224 133.25,224 136.125,238.125 139.75,252 139.5,252.25 128,283.125 116.5,314 104.125,310.1171875 92.25,305.21875 80.875,299.3046875 70,292.375 59.7265586853027,284.6015625 50.1562461853027,276.15625 41.2890625,267.0390625 33.125,257.25 25.7421875,246.859375 19.21875,235.9375 13.5546875,224.484375 8.75,212.5 4.921875,200.156265258789 2.1875,187.625015258789 0.546875,174.90625 0,162 0.3515625,150.968765258789 1.40625,140.125015258789 3.1640625,129.46875 5.625,119 8.7265625,108.796882629395 12.40625,98.9375076293945 16.6640625,89.421875 21.5,80.25 26.890625,71.453125 32.8125,63.0625038146973 39.265625,55.0781288146973 46.25,47.5 53.703125,40.3828277587891 61.5625,33.7812728881836 69.828125,27.6953315734863 78.5,22.125 87.5546875,17.1171970367432 96.96875,12.7187614440918 106.7421875,8.92969512939453 116.875,5.75 127.3046875,3.23438358306885 137.96875,1.43750762939453 148.8671875,0.359377861022949 160,0z" />
  </g>
</svg>

