<?xml version="1.0" encoding="utf-8"?>
<svg xmlns="http://www.w3.org/2000/svg" width="16" height="16" viewBox="0 0 2048 2048">
  <g transform="translate(0, 2048) scale(1, -1)">
    <path fill="#000000" d="M379 640Q329 640 283.5 660.5Q238 681 203.5 715.5Q169 750 148.5 795.5Q128 841 128 891V1541Q128 1591 148.5 1636.5Q169 1682 203.5 1716.5Q238 1751 283.5 1771.5Q329 1792 379 1792H1669Q1719 1792 1764.5 1771.5Q1810 1751 1844.5 1716.5Q1879 1682 1899.5 1636.5Q1920 1591 1920 1541V1203Q1853 1216 1792 1253V1536Q1792 1562 1782.0 1585.5Q1772 1609 1754.5 1626.5Q1737 1644 1713.5 1654.0Q1690 1664 1664 1664H384Q357 1664 334.0 1654.0Q311 1644 293.5 1626.5Q276 1609 266.0 1586.0Q256 1563 256 1536V896Q256 869 266.0 845.5Q276 822 293.0 805.0Q310 788 333.5 778.0Q357 768 384 768H896Q896 736 896.5 704.0Q897 672 901 640ZM2048 692Q2048 430 1921.5 260.5Q1795 91 1552 3Q1544 0 1536 0Q1527 0 1520 3Q1446 28 1378.5 63.0Q1311 98 1254.5 144.5Q1198 191 1154.5 251.5Q1111 312 1084 389Q1075 415 1064.5 456.0Q1054 497 1045.0 540.5Q1036 584 1030.0 625.0Q1024 666 1024 693V1013Q1024 1034 1038.5 1050.5Q1053 1067 1075 1067Q1178 1067 1267.5 1103.0Q1357 1139 1435 1204Q1452 1218 1467.5 1233.5Q1483 1249 1500 1264Q1508 1272 1516.0 1276.0Q1524 1280 1536 1280Q1548 1280 1556.0 1276.0Q1564 1272 1572 1264Q1589 1249 1604.0 1233.5Q1619 1218 1636 1204Q1714 1139 1804.0 1103.0Q1894 1067 1997 1067Q2004 1067 2013.0 1063.5Q2022 1060 2029.5 1054.0Q2037 1048 2042.0 1040.0Q2047 1032 2047 1024Q2047 982 2047 941L2048 776Q2048 734 2048 692ZM920 512Q926 480 933.5 448.0Q941 416 951 384H64Q38 384 19.0 403.0Q0 422 0 448Q0 474 19.0 493.0Q38 512 64 512Z"/>
  </g>
</svg>