<?xml version="1.0" encoding="utf-8"?>
<svg xmlns="http://www.w3.org/2000/svg" width="16" height="16" viewBox="0 0 2048 2048">
  <g transform="translate(0, 2048) scale(1, -1)">
    <path fill="#ffffff" d="M379 640Q329 640 283.5 660.5Q238 681 203.5 715.5Q169 750 148.5 795.5Q128 841 128 891V1541Q128 1591 148.5 1636.5Q169 1682 203.5 1716.5Q238 1751 283.5 1771.5Q329 1792 379 1792H1669Q1719 1792 1764.5 1771.5Q1810 1751 1844.5 1716.5Q1879 1682 1899.5 1636.5Q1920 1591 1920 1541V1160Q1890 1183 1858.0 1202.5Q1826 1222 1792 1239V1536Q1792 1562 1782.0 1585.5Q1772 1609 1754.5 1626.5Q1737 1644 1713.5 1654.0Q1690 1664 1664 1664H384Q357 1664 334.0 1654.0Q311 1644 293.5 1626.5Q276 1609 266.0 1586.0Q256 1563 256 1536V896Q256 869 266.0 845.5Q276 822 293.0 805.0Q310 788 333.5 778.0Q357 768 384 768H761Q752 736 747.0 704.0Q742 672 739 640ZM896 576Q896 695 941.5 800.0Q987 905 1065.0 983.0Q1143 1061 1248.0 1106.5Q1353 1152 1472 1152Q1551 1152 1624.5 1131.5Q1698 1111 1762.0 1073.5Q1826 1036 1879.0 983.0Q1932 930 1969.5 866.0Q2007 802 2027.5 728.5Q2048 655 2048 576Q2048 457 2002.5 352.0Q1957 247 1879.0 169.0Q1801 91 1696.0 45.5Q1591 0 1472 0Q1352 0 1247.0 45.0Q1142 90 1064.0 168.0Q986 246 941.0 351.0Q896 456 896 576ZM1344 248Q1374 248 1395 269L1843 717Q1864 738 1864 768Q1864 798 1843.0 819.0Q1822 840 1792 840Q1762 840 1741 819L1344 422L1203 563Q1182 584 1152 584Q1122 584 1101.0 563.0Q1080 542 1080 512Q1080 482 1101 461L1293 269Q1314 248 1344 248ZM64 384Q38 384 19.0 403.0Q0 422 0 448Q0 474 19.0 493.0Q38 512 64 512H739Q742 480 747.0 448.0Q752 416 761 384Z"/>
  </g>
</svg>