<?xml version="1.0" encoding="utf-8"?>
<svg xmlns="http://www.w3.org/2000/svg" width="16" height="16" viewBox="0 0 2048 2048">
  <g transform="translate(0, 2048) scale(1, -1)">
    <path fill="#ffffff" d="M635 384Q585 384 539.5 404.5Q494 425 459.5 459.5Q425 494 404.5 539.5Q384 585 384 635V1413Q384 1463 404.5 1508.5Q425 1554 459.5 1588.5Q494 1623 539.5 1643.5Q585 1664 635 1664H1413Q1463 1664 1508.5 1643.5Q1554 1623 1588.5 1588.5Q1623 1554 1643.5 1508.5Q1664 1463 1664 1413V635Q1664 585 1643.5 539.5Q1623 494 1588.5 459.5Q1554 425 1508.5 404.5Q1463 384 1413 384ZM1408 512Q1435 512 1458.0 522.0Q1481 532 1498.5 549.5Q1516 567 1526.0 590.0Q1536 613 1536 640V1408Q1536 1434 1526.0 1457.5Q1516 1481 1498.5 1498.5Q1481 1516 1457.5 1526.0Q1434 1536 1408 1536H640Q613 1536 590.0 1526.0Q567 1516 549.5 1498.5Q532 1481 522.0 1458.0Q512 1435 512 1408V640Q512 613 522.0 589.5Q532 566 549.0 549.0Q566 532 589.5 522.0Q613 512 640 512Z"/>
  </g>
</svg>