<?xml version="1.0" encoding="utf-8"?>
<svg xmlns="http://www.w3.org/2000/svg" width="16" height="16" viewBox="0 0 2048 2048">
  <g transform="translate(0, 2048) scale(1, -1)">
    <path fill="#ffffff" d="M0 1751Q0 1786 13.5 1816.5Q27 1847 50.0 1870.0Q73 1893 103.5 1906.5Q134 1920 169 1920H640Q719 1920 794.5 1901.0Q870 1882 938.5 1846.0Q1007 1810 1065.0 1758.5Q1123 1707 1168 1642Q1211 1653 1255.0 1658.5Q1299 1664 1344 1664H1868Q1905 1664 1938.0 1650.0Q1971 1636 1995.5 1611.5Q2020 1587 2034.0 1554.0Q2048 1521 2048 1484V960Q2048 863 2023.0 773.0Q1998 683 1952.0 604.5Q1906 526 1842.0 462.0Q1778 398 1699.5 352.0Q1621 306 1531.0 281.0Q1441 256 1344 256Q1220 256 1104.5 297.5Q989 339 894 419L620 145Q601 126 574 126Q548 126 529.0 145.0Q510 164 510 190Q510 217 529 236L803 510Q777 541 755.0 574.5Q733 608 715 644Q696 642 677.5 641.0Q659 640 640 640Q552 640 470.0 663.0Q388 686 317.0 727.5Q246 769 187.5 827.5Q129 886 87.5 957.0Q46 1028 23.0 1110.0Q0 1192 0 1280ZM169 1792Q152 1792 140.0 1780.0Q128 1768 128 1751V1280Q128 1174 168.0 1080.5Q208 987 277.5 917.5Q347 848 440.5 808.0Q534 768 640 768Q647 768 653.0 768.0Q659 768 666 769Q652 816 646.0 864.0Q640 912 640 960Q640 1062 669 1161L403 1427Q384 1446 384 1472Q384 1498 403.0 1517.0Q422 1536 448 1536Q474 1536 493 1517L722 1289Q775 1390 857.5 1469.0Q940 1548 1043 1596Q1007 1642 961.5 1678.5Q916 1715 864.0 1740.0Q812 1765 755.5 1778.5Q699 1792 640 1792ZM984 510Q1061 449 1153.0 416.5Q1245 384 1344 384Q1463 384 1568.0 429.5Q1673 475 1751.0 553.0Q1829 631 1874.5 736.0Q1920 841 1920 960V1484Q1920 1505 1904.5 1520.5Q1889 1536 1868 1536H1344Q1225 1536 1120.0 1490.5Q1015 1445 937.0 1367.0Q859 1289 813.5 1184.0Q768 1079 768 960Q768 861 800.5 769.0Q833 677 894 600L1299 1005Q1318 1024 1344 1024Q1370 1024 1389.0 1005.0Q1408 986 1408 960Q1408 934 1389 915Z"/>
  </g>
</svg>