<?xml version="1.0" encoding="utf-8"?>
<svg id="" width="16" height="16" style="width:16px;height:16px;" version="1.1" xmlns="http://www.w3.org/2000/svg" viewBox="0 0 2048 2048" enable-background="new 0 0 2048 2048" xml:space="preserve">
    <path fill="#ffffff" d="M959.97 1790.87 q-100.05 -8 -191.6 -40.51 q-91.54 -32.52 -170.09 -84.54 q-78.54 -52.03 -142.57 -121.06 q-64.03 -69.04 -109.55 -152.08 q-45.52 -83.04 -70.03 -176.59 q-24.51 -93.55 -24.51 -193.6 q0 -152.07 57.03 -292.14 q57.03 -140.07 163.08 -249.13 l415.2 -423.2 q56.03 -58.03 137.07 -58.03 q79.04 0 137.07 58.03 l415.2 423.2 q106.05 109.06 163.08 248.63 q57.03 139.56 57.03 291.64 q0 151.07 -54.03 285.13 q-54.03 134.07 -149.57 237.62 q-95.55 103.55 -225.11 168.59 q-129.57 65.03 -279.63 78.03 l0 193.1 q0 26.01 -19.01 45.02 q-19.01 19.01 -45.02 19.01 q-26.01 0 -45.02 -19.01 q-19.01 -19.01 -19.01 -45.02 l0 -193.1 ZM1024 895.44 q26.01 0 45.02 19.01 q19.01 19.01 19.01 45.02 l0 703.34 q123.06 -13 229.11 -68.03 q106.05 -55.03 184.09 -141.07 q78.04 -86.04 122.56 -197.1 q44.52 -111.06 44.52 -235.12 q0 -128.06 -47.52 -243.62 q-47.52 -115.56 -136.57 -206.6 l-414.2 -424.21 q-19.01 -19.01 -46.02 -19.01 q-28.01 0 -46.02 19.01 l-414.2 424.21 q-89.05 91.04 -136.57 206.6 q-47.52 115.56 -47.52 243.62 q0 124.06 44.52 235.12 q44.52 111.06 122.56 197.1 q78.04 86.04 184.09 141.07 q106.05 55.03 229.11 68.03 l0 -703.34 q0 -26.01 19.01 -45.02 q19.01 -19.01 45.02 -19.01 Z"/>
</svg>