<?xml version="1.0" encoding="utf-8"?>
<svg xmlns="http://www.w3.org/2000/svg" width="16" height="16" viewBox="0 0 2048 2048">
  <g transform="translate(0, 2048) scale(1, -1)">
    <path fill="#ffffff" d="M1169 140Q1247 153 1315.5 178.0Q1384 203 1454 238Q1468 245 1485 245Q1494 245 1499 244L1896 150Q1893 162 1884.5 194.5Q1876 227 1865.0 270.0Q1854 313 1842.0 360.0Q1830 407 1820.0 448.0Q1810 489 1803.5 518.0Q1797 547 1797 553Q1797 562 1799.5 570.0Q1802 578 1806 586Q1860 693 1890.0 798.0Q1920 903 1920 1024Q1920 1147 1888.0 1261.5Q1856 1376 1797.5 1475.5Q1739 1575 1657.0 1657.0Q1575 1739 1475.5 1797.5Q1376 1856 1261.5 1888.0Q1147 1920 1024 1920Q914 1920 811.0 1894.5Q708 1869 615.5 1821.5Q523 1774 444.0 1707.0Q365 1640 303.5 1556.5Q242 1473 200.0 1375.0Q158 1277 140 1169Q59 1111 0 1034Q1 1174 38.5 1304.0Q76 1434 143.0 1546.5Q210 1659 303.5 1751.5Q397 1844 510.0 1910.0Q623 1976 753.5 2012.0Q884 2048 1024 2048Q1165 2048 1296.0 2011.5Q1427 1975 1541.0 1908.5Q1655 1842 1748.5 1748.5Q1842 1655 1908.5 1541.0Q1975 1427 2011.5 1296.0Q2048 1165 2048 1024Q2048 899 2018.5 778.0Q1989 657 1930 546Q1933 532 1943.5 493.0Q1954 454 1967.0 403.0Q1980 352 1994.5 295.5Q2009 239 2020.5 190.0Q2032 141 2040.0 106.5Q2048 72 2048 64Q2048 37 2029.5 18.5Q2011 0 1984 0Q1977 0 1969 2L1493 114Q1385 57 1270.0 29.5Q1155 2 1034 0Q1111 59 1169 140ZM0 576Q0 695 45.5 800.0Q91 905 169.0 983.0Q247 1061 352.0 1106.5Q457 1152 576 1152Q655 1152 728.5 1131.5Q802 1111 866.0 1073.5Q930 1036 983.0 983.0Q1036 930 1073.5 866.0Q1111 802 1131.5 728.5Q1152 655 1152 576Q1152 457 1106.5 352.0Q1061 247 983.0 169.0Q905 91 800.0 45.5Q695 0 576 0Q456 0 351.0 45.0Q246 90 168.0 168.0Q90 246 45.0 351.0Q0 456 0 576ZM576 248Q606 248 627 269L883 525Q904 546 904 576Q904 606 883 627L627 883Q606 904 576 904Q546 904 525.0 883.0Q504 862 504 832Q504 802 525 781L666 640H320Q294 640 275.0 621.0Q256 602 256 576Q256 550 275.0 531.0Q294 512 320 512H666L525 371Q504 350 504 320Q504 290 525.0 269.0Q546 248 576 248Z"/>
  </g>
</svg>