<?xml version="1.0" encoding="utf-8"?>
<svg xmlns="http://www.w3.org/2000/svg" width="16" height="16" viewBox="0 0 2048 2048">
  <g transform="translate(0, 2048) scale(1, -1)">
    <path fill="#ffffff" d="M555 114 79 2Q69 0 64 0Q37 0 18.5 18.5Q0 37 0 64Q0 77 3.0 93.5Q6 110 10.5 127.5Q15 145 19.5 161.5Q24 178 27 190L118 546Q59 657 29.5 778.0Q0 899 0 1024Q0 1166 36.5 1297.0Q73 1428 139.5 1541.5Q206 1655 299.5 1748.5Q393 1842 506.5 1908.5Q620 1975 751.0 2011.5Q882 2048 1024 2048Q1164 2048 1294.5 2012.0Q1425 1976 1538.0 1910.0Q1651 1844 1744.5 1751.5Q1838 1659 1905.0 1546.5Q1972 1434 2009.0 1304.0Q2046 1174 2048 1034Q1989 1111 1908 1169Q1881 1331 1801.5 1469.0Q1722 1607 1604.0 1707.0Q1486 1807 1337.5 1863.5Q1189 1920 1024 1920Q900 1920 785.5 1888.0Q671 1856 571.5 1797.5Q472 1739 390.5 1657.5Q309 1576 250.5 1476.5Q192 1377 160.0 1262.5Q128 1148 128 1024Q128 962 136.0 906.5Q144 851 159.0 798.0Q174 745 195.0 693.0Q216 641 242 586Q246 578 248.5 570.0Q251 562 251 553Q251 547 248.0 532.0Q245 517 241.0 500.5Q237 484 233.0 469.0Q229 454 228 448Q210 373 191.0 299.0Q172 225 152 150Q166 153 199.5 161.5Q233 170 275.5 180.5Q318 191 365.0 202.5Q412 214 453.0 223.5Q494 233 524.0 239.0Q554 245 563 245Q580 245 594 238Q664 206 733.0 179.5Q802 153 879 140Q937 59 1014 0Q893 2 777.5 30.0Q662 58 555 114ZM896 576Q896 695 941.5 800.0Q987 905 1065.0 983.0Q1143 1061 1248.0 1106.5Q1353 1152 1472 1152Q1551 1152 1624.5 1131.5Q1698 1111 1762.0 1073.5Q1826 1036 1879.0 983.0Q1932 930 1969.5 866.0Q2007 802 2027.5 728.5Q2048 655 2048 576Q2048 457 2002.5 352.0Q1957 247 1879.0 169.0Q1801 91 1696.0 45.5Q1591 0 1472 0Q1352 0 1247.0 45.0Q1142 90 1064.0 168.0Q986 246 941.0 351.0Q896 456 896 576ZM1472 248Q1502 248 1523.0 269.0Q1544 290 1544 320Q1544 350 1523 371L1382 512H1728Q1754 512 1773.0 531.0Q1792 550 1792 576Q1792 602 1773.0 621.0Q1754 640 1728 640H1382L1523 781Q1544 802 1544 832Q1544 862 1523.0 883.0Q1502 904 1472 904Q1442 904 1421 883L1165 627Q1144 606 1144 576Q1144 546 1165 525L1421 269Q1442 248 1472 248Z"/>
  </g>
</svg>