<?xml version="1.0" encoding="utf-8"?>
<svg xmlns="http://www.w3.org/2000/svg" width="16" height="16" viewBox="0 0 2048 2048">
  <g transform="translate(0, 2048) scale(1, -1)">
    <path fill="#ffffff" d="M896 1856V1984Q896 2010 915.0 2029.0Q934 2048 960 2048Q986 2048 1005.0 2029.0Q1024 2010 1024 1984V1856Q1024 1830 1005.0 1811.0Q986 1792 960 1792Q934 1792 915.0 1811.0Q896 1830 896 1856ZM256 1728Q256 1754 275.0 1773.0Q294 1792 320 1792Q346 1792 365 1773L493 1645Q512 1626 512 1600Q512 1574 493.0 1555.0Q474 1536 448 1536Q422 1536 403 1555L275 1683Q256 1702 256 1728ZM1408 1600Q1408 1626 1427 1645L1555 1773Q1574 1792 1600 1792Q1626 1792 1645.0 1773.0Q1664 1754 1664 1728Q1664 1702 1645 1683L1517 1555Q1498 1536 1472 1536Q1446 1536 1427.0 1555.0Q1408 1574 1408 1600ZM1536 576V320Q1536 294 1517.0 275.0Q1498 256 1472 256H1280V64Q1280 38 1261.0 19.0Q1242 0 1216 0Q1190 0 1171.0 19.0Q1152 38 1152 64V256H768V64Q768 38 749.0 19.0Q730 0 704 0Q678 0 659.0 19.0Q640 38 640 64V256H448Q422 256 403.0 275.0Q384 294 384 320V576Q384 598 392.5 610.5Q401 623 414.5 629.5Q428 636 444.5 638.0Q461 640 478 640H512V1224Q512 1315 548.5 1395.0Q585 1475 646.5 1535.0Q708 1595 789.5 1629.5Q871 1664 960 1664Q1052 1664 1133.5 1628.5Q1215 1593 1276.0 1532.0Q1337 1471 1372.5 1389.5Q1408 1308 1408 1216V640H1442Q1459 640 1475.5 638.0Q1492 636 1505.5 629.5Q1519 623 1527.5 610.5Q1536 598 1536 576ZM640 640H1280V1223Q1280 1288 1254.0 1345.0Q1228 1402 1184.0 1444.5Q1140 1487 1082.0 1511.5Q1024 1536 960 1536Q896 1536 838.0 1511.5Q780 1487 736.0 1444.5Q692 1402 666.0 1345.0Q640 1288 640 1223ZM320 1280Q346 1280 365.0 1261.0Q384 1242 384 1216Q384 1190 365.0 1171.0Q346 1152 320 1152H192Q166 1152 147.0 1171.0Q128 1190 128 1216Q128 1242 147.0 1261.0Q166 1280 192 1280ZM1728 1280Q1754 1280 1773.0 1261.0Q1792 1242 1792 1216Q1792 1190 1773.0 1171.0Q1754 1152 1728 1152H1600Q1574 1152 1555.0 1171.0Q1536 1190 1536 1216Q1536 1242 1555.0 1261.0Q1574 1280 1600 1280ZM512 384H1408V512H512Z"/>
  </g>
</svg>