<?xml version="1.0" encoding="utf-8"?>
<svg xmlns="http://www.w3.org/2000/svg" width="16" height="16" viewBox="0 0 2048 2048">
  <g transform="translate(0, 2048) scale(1, -1)">
    <path fill="#000000" d="M327 1981V1825H326Q271 1825 237.0 1794.0Q203 1763 184.5 1717.0Q166 1671 159.5 1619.0Q153 1567 153 1525H329V1182H0V1525Q0 1577 7.0 1631.0Q14 1685 29.0 1736.0Q44 1787 69.0 1831.5Q94 1876 130.5 1909.0Q167 1942 215.5 1961.5Q264 1981 327 1981ZM699 1525H875V1182H543V1525Q543 1576 550.0 1630.0Q557 1684 573.0 1734.5Q589 1785 614.5 1830.0Q640 1875 676.5 1908.5Q713 1942 761.0 1961.5Q809 1981 871 1981V1825H870Q814 1825 780.5 1794.0Q747 1763 729.0 1717.0Q711 1671 705.0 1619.0Q699 1567 699 1525Z"/>
  </g>
</svg>