<?xml version="1.0" encoding="utf-8"?>
<svg xmlns="http://www.w3.org/2000/svg" width="16" height="16" viewBox="0 0 2048 2048">
  <g transform="translate(0, 2048) scale(1, -1)">
    <path fill="#ffffff" d="M2048 1088Q2048 1062 2029.0 1043.0Q2010 1024 1984 1024H219L685 557Q704 538 704 512Q704 486 685.0 467.0Q666 448 640 448Q614 448 595 467L22 1040Q11 1051 5.5 1062.0Q0 1073 0 1088Q0 1103 5.5 1114.0Q11 1125 22 1136L595 1709Q614 1728 640 1728Q666 1728 685.0 1709.0Q704 1690 704 1664Q704 1638 685 1619L219 1152H1984Q2010 1152 2029.0 1133.0Q2048 1114 2048 1088Z"/>
  </g>
</svg>