<?xml version="1.0" encoding="utf-8"?>
<svg xmlns="http://www.w3.org/2000/svg" width="16" height="16" viewBox="0 0 2048 2048">
  <g transform="translate(0, 2048) scale(1, -1)">
    <path fill="#ffffff" d="M942 128Q966 91 995.5 59.5Q1025 28 1059 0H251Q201 0 155.5 20.5Q110 41 75.5 75.5Q41 110 20.5 155.5Q0 201 0 251V1797Q0 1847 20.5 1892.5Q41 1938 75.5 1972.5Q110 2007 155.5 2027.5Q201 2048 251 2048H1285Q1335 2048 1380.5 2027.5Q1426 2007 1460.5 1972.5Q1495 1938 1515.5 1892.5Q1536 1847 1536 1797V1568Q1473 1568 1408 1551V1792Q1408 1818 1398.0 1841.5Q1388 1865 1370.5 1882.5Q1353 1900 1329.5 1910.0Q1306 1920 1280 1920H256Q229 1920 206.0 1910.0Q183 1900 165.5 1882.5Q148 1865 138.0 1842.0Q128 1819 128 1792V384H863Q863 352 867.5 319.5Q872 287 882 256H128Q128 229 138.0 205.5Q148 182 165.0 165.0Q182 148 205.5 138.0Q229 128 256 128ZM1280 1536Q1280 1511 1271 1489Q1218 1455 1180 1411Q1166 1408 1152 1408H384Q357 1408 333.5 1418.0Q310 1428 293.0 1445.0Q276 1462 266.0 1485.5Q256 1509 256 1536V1664Q256 1691 266.0 1714.0Q276 1737 293.5 1754.5Q311 1772 334.0 1782.0Q357 1792 384 1792H1152Q1178 1792 1201.5 1782.0Q1225 1772 1242.5 1754.5Q1260 1737 1270.0 1713.5Q1280 1690 1280 1664ZM384 1536H1152V1664H384ZM1535 1408H1542Q1607 1408 1664.0 1382.0Q1721 1356 1763.5 1312.0Q1806 1268 1830.5 1210.0Q1855 1152 1855 1088Q1855 1021 1830.0 963.0Q1805 905 1761.5 861.5Q1718 818 1660.0 793.0Q1602 768 1535 768Q1468 768 1410.0 793.0Q1352 818 1308.5 861.5Q1265 905 1240.0 963.0Q1215 1021 1215 1088Q1215 1155 1240.0 1213.0Q1265 1271 1308.5 1314.5Q1352 1358 1410.0 1383.0Q1468 1408 1535 1408ZM1023 376V432Q1023 475 1039.5 512.5Q1056 550 1084.5 578.5Q1113 607 1150.5 623.5Q1188 640 1231 640H1839Q1882 640 1919.5 623.5Q1957 607 1985.5 578.5Q2014 550 2030.5 512.5Q2047 475 2047 432V376Q2047 315 2024.5 264.0Q2002 213 1963.5 171.0Q1925 129 1874.5 97.0Q1824 65 1768.5 43.5Q1713 22 1655.5 11.0Q1598 0 1546 0H1524Q1472 0 1414.5 11.0Q1357 22 1301.5 43.5Q1246 65 1195.5 97.0Q1145 129 1106.5 171.0Q1068 213 1045.5 264.5Q1023 316 1023 376Z"/>
  </g>
</svg>