<?xml version="1.0" encoding="utf-8"?>
<svg xmlns="http://www.w3.org/2000/svg" width="16" height="16" viewBox="0 0 2048 2048">
  <g transform="translate(0, 2048) scale(1, -1)">
    <path fill="#ffffff" d="M192 0Q153 0 118.0 15.0Q83 30 56.5 56.5Q30 83 15.0 118.0Q0 153 0 192V1856Q0 1895 15.0 1930.0Q30 1965 56.5 1991.5Q83 2018 118.0 2033.0Q153 2048 192 2048H320Q359 2048 394.0 2033.0Q429 2018 455.5 1991.5Q482 1965 497.0 1930.0Q512 1895 512 1856V192Q512 153 497.0 118.0Q482 83 455.5 56.5Q429 30 394.0 15.0Q359 0 320 0ZM832 0Q793 0 758.0 15.0Q723 30 696.5 56.5Q670 83 655.0 118.0Q640 153 640 192V1856Q640 1895 655.0 1930.0Q670 1965 696.5 1991.5Q723 2018 758.0 2033.0Q793 2048 832 2048H960Q999 2048 1034.0 2033.0Q1069 2018 1095.5 1991.5Q1122 1965 1137.0 1930.0Q1152 1895 1152 1856V192Q1152 153 1137.0 118.0Q1122 83 1095.5 56.5Q1069 30 1034.0 15.0Q999 0 960 0ZM320 128Q346 128 365.0 147.0Q384 166 384 192V1856Q384 1882 365.0 1901.0Q346 1920 320 1920H192Q166 1920 147.0 1901.0Q128 1882 128 1856V192Q128 166 147.0 147.0Q166 128 192 128ZM960 128Q986 128 1005.0 147.0Q1024 166 1024 192V1856Q1024 1882 1005.0 1901.0Q986 1920 960 1920H832Q806 1920 787.0 1901.0Q768 1882 768 1856V192Q768 166 787.0 147.0Q806 128 832 128ZM1281 1445Q1281 1511 1319.5 1561.0Q1358 1611 1421 1630Q1457 1641 1495.0 1653.0Q1533 1665 1571 1665Q1604 1665 1634.5 1653.5Q1665 1642 1689.5 1622.0Q1714 1602 1731.5 1574.5Q1749 1547 1757 1515L2043 270Q2048 247 2048 227Q2048 160 2008.5 109.5Q1969 59 1905 41Q1863 29 1818.5 15.0Q1774 1 1729 1Q1695 1 1664.0 12.5Q1633 24 1608.0 44.0Q1583 64 1565.5 92.5Q1548 121 1541 154L1285 1407Q1281 1424 1281 1445ZM1920 226Q1920 231 1918 241L1632 1487Q1627 1508 1609.5 1522.0Q1592 1536 1570 1536Q1544 1536 1512.5 1525.5Q1481 1515 1455 1507Q1435 1501 1422.0 1483.5Q1409 1466 1409 1445Q1409 1442 1409.0 1438.5Q1409 1435 1410 1432L1666 180Q1671 157 1688.5 143.0Q1706 129 1729 129Q1741 129 1760.0 133.0Q1779 137 1799.5 143.0Q1820 149 1839.5 155.0Q1859 161 1872 165Q1892 171 1906.0 187.5Q1920 204 1920 226Z"/>
  </g>
</svg>