<?xml version="1.0" encoding="utf-8"?>
<svg id="ic_fluent_library_16_filled" width="16" height="16" style="width:16px;height:16px;"
    version="1.1" xmlns="http://www.w3.org/2000/svg" viewBox="0 0 500 500"
    enable-background="new 0 0 500 500" xml:space="preserve"><path fill="#ffffff" transform="translate(0, 30)" d="M44.54 0 q-18.27 0 -31.41 13.13 q-13.13 13.13 -13.13 32.55 l0 338.07 q0 18.28 13.13 31.42 q13.13 13.13 31.41 13.13 l18.28 0 q18.27 0 31.4 -13.13 q13.14 -13.13 13.14 -31.42 l0 -338.07 q0 -19.42 -13.14 -32.55 q-13.13 -13.13 -31.4 -13.13 l-18.28 0 ZM187.31 0 q-18.27 0 -31.41 13.13 q-13.13 13.13 -13.13 32.55 l0 338.07 q0 18.28 13.13 31.42 q13.13 13.13 31.41 13.13 l18.28 0 q18.27 0 31.41 -13.13 q13.13 -13.13 13.13 -31.42 l0 -338.07 q0 -19.42 -13.13 -32.55 q-13.13 -13.13 -31.41 -13.13 l-18.28 0 ZM391.76 99.37 q-6.85 -15.99 -22.84 -23.42 q-15.99 -7.42 -33.13 -1.72 l-20.56 6.85 q-18.27 6.86 -26.26 23.99 q-8 17.13 0 35.4 l103.93 260.42 q6.85 17.13 23.42 23.98 q16.56 6.85 32.56 1.14 l21.7 -6.85 q17.13 -6.85 25.13 -23.99 q8 -17.13 1.14 -35.41 l-105.08 -260.41 Z"/></svg>