<?xml version="1.0" encoding="utf-8"?>
<svg xmlns="http://www.w3.org/2000/svg" width="16" height="16" viewBox="0 0 2048 2048">
  <g transform="translate(0, 2048) scale(1, -1)">
    <path fill="#000000" d="M960 1856V1984Q960 2010 979.0 2029.0Q998 2048 1024 2048Q1050 2048 1069.0 2029.0Q1088 2010 1088 1984V1856Q1088 1830 1069.0 1811.0Q1050 1792 1024 1792Q998 1792 979.0 1811.0Q960 1830 960 1856ZM512 1600Q512 1574 493.0 1555.0Q474 1536 448 1536Q422 1536 403 1555L275 1683Q256 1702 256 1728Q256 1754 275.0 1773.0Q294 1792 320 1792Q346 1792 365 1773L493 1645Q512 1626 512 1600ZM1728 1792Q1754 1792 1773.0 1773.0Q1792 1754 1792 1728Q1792 1702 1773 1683L1645 1555Q1626 1536 1600 1536Q1574 1536 1555.0 1555.0Q1536 1574 1536 1600Q1536 1626 1555 1645L1683 1773Q1702 1792 1728 1792ZM1536 1024V1014Q1536 910 1494.5 818.5Q1453 727 1382.5 659.0Q1312 591 1219.5 551.5Q1127 512 1024 512Q918 512 824.5 552.0Q731 592 661.5 661.5Q592 731 552.0 824.5Q512 918 512 1024Q512 1130 552.0 1223.5Q592 1317 661.5 1386.5Q731 1456 824.5 1496.0Q918 1536 1024 1536Q1130 1536 1223.5 1496.0Q1317 1456 1386.5 1386.5Q1456 1317 1496.0 1223.5Q1536 1130 1536 1024ZM1024 640H1032Q1110 640 1178.5 671.0Q1247 702 1298.0 755.0Q1349 808 1378.5 877.5Q1408 947 1408 1024Q1408 1101 1378.5 1170.5Q1349 1240 1298.0 1293.0Q1247 1346 1178.5 1377.0Q1110 1408 1032 1408H1024ZM192 1088Q218 1088 237.0 1069.0Q256 1050 256 1024Q256 998 237.0 979.0Q218 960 192 960H64Q38 960 19.0 979.0Q0 998 0 1024Q0 1050 19.0 1069.0Q38 1088 64 1088ZM1984 1088Q2010 1088 2029.0 1069.0Q2048 1050 2048 1024Q2048 998 2029.0 979.0Q2010 960 1984 960H1856Q1830 960 1811.0 979.0Q1792 998 1792 1024Q1792 1050 1811.0 1069.0Q1830 1088 1856 1088ZM448 512Q474 512 493.0 493.0Q512 474 512 448Q512 422 493 403L365 275Q346 256 320 256Q294 256 275.0 275.0Q256 294 256 320Q256 346 275 365L403 493Q422 512 448 512ZM1792 320Q1792 294 1773.0 275.0Q1754 256 1728 256Q1702 256 1683 275L1555 403Q1536 422 1536 448Q1536 474 1555.0 493.0Q1574 512 1600 512Q1626 512 1645 493L1773 365Q1792 346 1792 320ZM1088 192V64Q1088 38 1069.0 19.0Q1050 0 1024 0Q998 0 979.0 19.0Q960 38 960 64V192Q960 218 979.0 237.0Q998 256 1024 256Q1050 256 1069.0 237.0Q1088 218 1088 192Z"/>
  </g>
</svg>