<?xml version="1.0" encoding="utf-8"?>
<svg xmlns="http://www.w3.org/2000/svg" width="16" height="16" viewBox="0 0 2048 2048">
  <g transform="translate(0, 2048) scale(1, -1)">
    <path fill="#ffffff" d="M1792 1302Q1792 1176 1749.0 1055.0Q1706 934 1625 837Q1610 819 1588.5 799.0Q1567 779 1547.0 757.5Q1527 736 1510.5 714.0Q1494 692 1489 669L1377 197Q1366 153 1343.0 117.0Q1320 81 1287.0 55.0Q1254 29 1213.5 14.5Q1173 0 1128 0H920Q875 0 834.5 14.5Q794 29 761.0 55.5Q728 82 704.5 118.0Q681 154 671 197L557 671Q551 695 535.5 717.0Q520 739 500.0 759.5Q480 780 459.0 799.5Q438 819 422 838Q341 935 298.5 1055.5Q256 1176 256 1302Q256 1407 284.0 1503.5Q312 1600 363.0 1683.0Q414 1766 484.5 1833.5Q555 1901 640.5 1948.5Q726 1996 823.0 2022.0Q920 2048 1024 2048Q1127 2048 1224.5 2022.0Q1322 1996 1407.0 1948.0Q1492 1900 1563.0 1832.5Q1634 1765 1685.0 1682.5Q1736 1600 1764.0 1503.5Q1792 1407 1792 1302ZM1664 1302Q1664 1389 1640.5 1469.0Q1617 1549 1574.5 1617.5Q1532 1686 1472.5 1742.0Q1413 1798 1342.0 1837.5Q1271 1877 1190.5 1898.5Q1110 1920 1024 1920Q938 1920 857.5 1898.5Q777 1877 706.0 1837.5Q635 1798 575.5 1742.0Q516 1686 473.5 1617.5Q431 1549 407.5 1469.0Q384 1389 384 1302Q384 1232 398.0 1170.5Q412 1109 438.0 1053.0Q464 997 502.5 946.0Q541 895 590 847Q608 829 622.0 813.5Q636 798 647.0 781.0Q658 764 666.5 744.5Q675 725 682 700Q695 653 706 607L727 512H1321Q1332 559 1342.0 605.5Q1352 652 1365 699Q1372 724 1380.5 743.5Q1389 763 1400.0 780.0Q1411 797 1425.0 812.5Q1439 828 1457 846Q1506 894 1545.0 945.0Q1584 996 1610.0 1052.0Q1636 1108 1650.0 1169.5Q1664 1231 1664 1302ZM1128 128Q1173 128 1207.5 155.5Q1242 183 1253 226Q1264 265 1272.5 304.5Q1281 344 1290 384H757Q767 344 775.5 304.5Q784 265 795 226Q806 183 840.5 155.5Q875 128 920 128Z"/>
  </g>
</svg>