<?xml version="1.0" encoding="utf-8"?>
<svg xmlns="http://www.w3.org/2000/svg" width="16" height="16" viewBox="0 0 2048 2048">
  <g transform="translate(0, 2048) scale(1, -1)">
    <path fill="#ffffff" d="M388 141Q388 160 392 175L545 768H384Q356 768 331.0 779.0Q306 790 287.5 808.5Q269 827 258.0 852.0Q247 877 247 905Q247 923 252 941L533 1954Q544 1996 579.0 2022.0Q614 2048 657 2048H1350Q1377 2048 1400.0 2037.5Q1423 2027 1440.5 2009.5Q1458 1992 1468.0 1968.5Q1478 1945 1478 1919Q1478 1897 1471 1877L1306 1408H1631Q1659 1408 1683.5 1397.0Q1708 1386 1727.0 1367.0Q1746 1348 1757.0 1323.5Q1768 1299 1768 1271Q1768 1214 1730 1175L628 43Q608 23 582.5 12.0Q557 1 528 1Q499 1 474.0 12.0Q449 23 429.5 42.5Q410 62 399.0 87.0Q388 112 388 141ZM1641 1271Q1641 1275 1637.5 1277.5Q1634 1280 1631 1280H1216Q1190 1280 1171.0 1298.5Q1152 1317 1152 1343Q1152 1348 1153.0 1354.0Q1154 1360 1156 1365L1350 1920H657Q653 1906 639.0 1856.0Q625 1806 604.5 1732.5Q584 1659 559.0 1569.5Q534 1480 508.5 1389.0Q483 1298 459.0 1211.5Q435 1125 416.5 1057.5Q398 990 386.5 948.5Q375 907 375 905Q375 896 384 896H627Q654 896 672.5 877.5Q691 859 691 832Q691 826 689 816L516 143V140Q516 129 529 129Q533 129 536 132L1638 1264Q1641 1267 1641 1271Z"/>
  </g>
</svg>