<?xml version="1.0" encoding="utf-8"?>
<svg xmlns="http://www.w3.org/2000/svg" width="16" height="16" viewBox="0 0 2048 2048">
  <g transform="translate(0, 2048) scale(1, -1)">
    <path fill="#000000" d="M278 911Q278 963 284 1016Q286 1033 291.0 1050.0Q296 1067 301.5 1084.0Q307 1101 311.0 1118.0Q315 1135 315 1152H245Q195 1152 150.5 1171.0Q106 1190 72.5 1223.0Q39 1256 19.5 1300.0Q0 1344 0 1395Q0 1419 4 1439L60 1746Q72 1811 105.0 1866.5Q138 1922 186.5 1962.5Q235 2003 295.5 2025.5Q356 2048 422 2048Q447 2048 470.5 2044.5Q494 2041 518 2035L1038 1910Q1096 1896 1134.0 1853.0Q1172 1810 1185 1753Q1195 1710 1206.5 1664.0Q1218 1618 1218 1573Q1218 1535 1205.0 1503.0Q1192 1471 1170.0 1445.0Q1148 1419 1119.0 1399.0Q1090 1379 1058 1364Q1039 1356 1022.0 1346.5Q1005 1337 989 1323Q927 1270 875 1206Q824 1143 786.0 1071.0Q748 999 713 927Q693 885 677.0 842.0Q661 799 643 756Q620 702 573.5 671.0Q527 640 469 640Q412 640 375.0 664.5Q338 689 316.5 728.0Q295 767 286.5 815.5Q278 864 278 911ZM1089 1573Q1089 1610 1078.0 1651.0Q1067 1692 1059 1728Q1054 1749 1040.0 1765.5Q1026 1782 1005 1787L488 1910Q471 1914 454.0 1916.5Q437 1919 420 1919Q376 1919 337.0 1904.5Q298 1890 267.0 1864.0Q236 1838 215.0 1802.0Q194 1766 186 1723L130 1416Q129 1411 128.5 1405.5Q128 1400 128 1395Q128 1353 155 1322Q179 1293 206.5 1286.0Q234 1279 266 1279Q278 1279 290.0 1279.5Q302 1280 315 1280Q342 1280 365.5 1269.5Q389 1259 406.5 1241.0Q424 1223 434.0 1199.5Q444 1176 444 1149Q444 1130 440.0 1112.0Q436 1094 430.5 1076.0Q425 1058 419.5 1040.0Q414 1022 411 1003Q407 979 406.5 955.0Q406 931 406 907Q406 889 407.0 865.0Q408 841 415.0 819.5Q422 798 435.5 783.0Q449 768 475 768Q489 768 503.5 779.0Q518 790 524 802Q532 817 536.5 833.5Q541 850 547 866Q575 941 611.5 1014.0Q648 1087 688 1156Q715 1204 750.0 1252.5Q785 1301 825.5 1345.0Q866 1389 913.0 1425.0Q960 1461 1011 1483Q1024 1489 1038.0 1497.5Q1052 1506 1063.5 1517.5Q1075 1529 1082.0 1542.5Q1089 1556 1089 1573ZM831 474Q831 512 843.5 544.5Q856 577 878.0 603.0Q900 629 929.0 649.5Q958 670 991 685Q1010 693 1026.5 702.5Q1043 712 1059 725Q1090 751 1118.5 780.5Q1147 810 1172 842Q1222 906 1261.5 977.0Q1301 1048 1336 1121Q1356 1163 1371.5 1206.0Q1387 1249 1405 1292Q1427 1345 1473.5 1377.0Q1520 1409 1578 1409Q1635 1409 1672.5 1384.5Q1710 1360 1731.5 1321.0Q1753 1282 1761.5 1234.0Q1770 1186 1770 1138Q1770 1112 1769.0 1085.0Q1768 1058 1764 1032Q1762 1017 1757.0 1000.0Q1752 983 1746.5 966.0Q1741 949 1736.5 932.5Q1732 916 1732 903Q1732 903 1732 902L1734 897Q1734 897 1734 896Q1743 896 1751 896L1786 897Q1795 897 1803 897Q1853 897 1897.5 878.0Q1942 859 1975.5 826.0Q2009 793 2028.5 749.0Q2048 705 2048 654Q2048 630 2044 610L1988 303Q1976 237 1943.5 181.5Q1911 126 1863.0 86.0Q1815 46 1754.5 23.5Q1694 1 1627 1Q1602 1 1578.0 4.5Q1554 8 1530 14L1011 138Q953 152 914.5 195.5Q876 239 863 296Q853 339 842.0 384.0Q831 429 831 474ZM1628 129Q1671 129 1710.5 143.5Q1750 158 1781.0 184.0Q1812 210 1833.0 246.0Q1854 282 1862 325L1918 633Q1919 638 1919.5 643.5Q1920 649 1920 654Q1920 678 1910.5 699.0Q1901 720 1885.5 735.5Q1870 751 1848.5 760.0Q1827 769 1803 769H1733Q1705 769 1681.5 779.5Q1658 790 1640.5 808.5Q1623 827 1613.5 851.5Q1604 876 1604 903Q1604 922 1608.0 939.5Q1612 957 1617.5 974.5Q1623 992 1628.5 1010.0Q1634 1028 1637 1046Q1640 1071 1641.0 1095.5Q1642 1120 1642 1145Q1642 1163 1641.0 1186.5Q1640 1210 1633.5 1231.0Q1627 1252 1613.0 1266.0Q1599 1280 1574 1280Q1557 1280 1544.0 1270.5Q1531 1261 1524 1247Q1502 1202 1487.0 1155.5Q1472 1109 1450 1064Q1428 1019 1405.5 975.5Q1383 932 1358 889Q1315 814 1261.5 750.0Q1208 686 1144 629Q1119 607 1093.5 593.0Q1068 579 1038 566Q1024 560 1010.0 551.5Q996 543 985.0 531.0Q974 519 966.5 505.0Q959 491 959 475Q959 440 970.0 398.0Q981 356 989 321Q994 300 1007.5 283.5Q1021 267 1043 262L1560 138Q1577 134 1594.0 131.5Q1611 129 1628 129Z"/>
  </g>
</svg>