<?xml version="1.0" encoding="utf-8"?>
<svg xmlns="http://www.w3.org/2000/svg" width="16" height="16" viewBox="0 0 2048 2048">
  <g transform="translate(0, 2048) scale(1, -1)">
    <path fill="#ffffff" d="M128 692Q128 746 146.5 792.5Q165 839 196.5 877.0Q228 915 270.0 945.0Q312 975 358 996Q385 1008 409.5 1021.5Q434 1035 457 1054Q526 1111 582.5 1178.5Q639 1246 687.0 1320.0Q735 1394 776.5 1472.5Q818 1551 856 1630Q891 1702 916.5 1777.0Q942 1852 973 1926Q996 1980 1038.5 2014.0Q1081 2048 1141 2048Q1176 2048 1205.0 2033.5Q1234 2019 1259 1996Q1295 1961 1317.5 1921.5Q1340 1882 1352.0 1838.5Q1364 1795 1368.5 1748.5Q1373 1702 1373 1654Q1373 1558 1360.0 1465.0Q1347 1372 1327 1278Q1355 1279 1382.5 1279.5Q1410 1280 1438 1280Q1509 1280 1573.5 1256.0Q1638 1232 1686.5 1188.5Q1735 1145 1763.5 1084.5Q1792 1024 1792 950Q1792 917 1786 886L1706 439Q1689 344 1641.5 263.5Q1594 183 1524.5 124.5Q1455 66 1368.0 33.0Q1281 0 1184 0Q1149 0 1114.0 5.0Q1079 10 1045 19L386 200Q304 223 248.0 284.5Q192 346 175 429L133 639Q128 667 128 692ZM1185 128Q1258 128 1324.0 153.5Q1390 179 1442.5 223.5Q1495 268 1531.0 329.0Q1567 390 1580 462L1660 909Q1662 919 1663.0 929.0Q1664 939 1664 949Q1664 995 1646.0 1032.5Q1628 1070 1597.0 1096.5Q1566 1123 1526.0 1137.5Q1486 1152 1443 1152Q1421 1152 1400 1151H1372Q1351 1150 1329 1150Q1302 1150 1278.5 1160.0Q1255 1170 1237.5 1187.0Q1220 1204 1209.5 1227.5Q1199 1251 1199 1278Q1199 1295 1203.5 1311.5Q1208 1328 1213 1345Q1233 1420 1239.0 1497.0Q1245 1574 1245 1651Q1245 1687 1243.0 1721.5Q1241 1756 1233.0 1789.0Q1225 1822 1209.0 1852.0Q1193 1882 1166 1908Q1161 1913 1155.5 1916.5Q1150 1920 1142 1920Q1125 1920 1113.0 1909.0Q1101 1898 1094 1884Q1083 1862 1076.0 1838.0Q1069 1814 1061 1791Q1019 1670 962.5 1554.0Q906 1438 842 1326Q783 1223 708.0 1130.0Q633 1037 543 959Q512 932 477.5 913.0Q443 894 406 877Q378 864 351.0 846.0Q324 828 303.0 805.0Q282 782 269.0 753.5Q256 725 256 692Q256 677 259 664L300 454Q309 407 341.5 372.0Q374 337 420 324L1079 142Q1105 134 1131.5 131.0Q1158 128 1185 128Z"/>
  </g>
</svg>