<?xml version="1.0" encoding="utf-8"?>
<svg xmlns="http://www.w3.org/2000/svg" width="16" height="16" viewBox="0 0 2048 2048">
  <g transform="translate(0, 2048) scale(1, -1)">
    <path fill="#000000" d="M1728 1920Q1767 1920 1802.0 1905.0Q1837 1890 1863.5 1863.5Q1890 1837 1905.0 1802.0Q1920 1767 1920 1728V1344Q1920 1305 1905.0 1270.0Q1890 1235 1863.5 1208.5Q1837 1182 1802.0 1167.0Q1767 1152 1728 1152H1280V373Q1324 357 1349.5 332.5Q1375 308 1388.5 277.0Q1402 246 1405.5 210.5Q1409 175 1409 138Q1409 119 1408.5 100.5Q1408 82 1408 64Q1408 38 1389.0 19.0Q1370 0 1344 0H704Q678 0 659.0 19.0Q640 38 640 64V192Q640 223 649.0 251.0Q658 279 675.0 303.0Q692 327 715.5 345.0Q739 363 768 373V1152H320Q281 1152 246.0 1167.0Q211 1182 184.5 1208.5Q158 1235 143.0 1270.0Q128 1305 128 1344V1728Q128 1767 143.0 1802.0Q158 1837 184.5 1863.5Q211 1890 246.0 1905.0Q281 1920 320 1920ZM1792 1728Q1792 1754 1773.0 1773.0Q1754 1792 1728 1792H320Q294 1792 275.0 1773.0Q256 1754 256 1728V1344Q256 1318 275.0 1299.0Q294 1280 320 1280H1728Q1754 1280 1773.0 1299.0Q1792 1318 1792 1344ZM768 1600Q768 1574 749.0 1555.0Q730 1536 704 1536Q678 1536 659.0 1555.0Q640 1574 640 1600Q640 1626 659.0 1645.0Q678 1664 704 1664Q730 1664 749.0 1645.0Q768 1626 768 1600ZM1472 1664Q1498 1664 1517.0 1645.0Q1536 1626 1536 1600Q1536 1574 1517.0 1555.0Q1498 1536 1472 1536H1216Q1190 1536 1171.0 1555.0Q1152 1574 1152 1600Q1152 1626 1171.0 1645.0Q1190 1664 1216 1664ZM576 1536Q602 1536 621.0 1517.0Q640 1498 640 1472Q640 1446 621.0 1427.0Q602 1408 576 1408H448Q422 1408 403.0 1427.0Q384 1446 384 1472Q384 1498 403.0 1517.0Q422 1536 448 1536ZM1088 1536Q1114 1536 1133.0 1517.0Q1152 1498 1152 1472Q1152 1446 1133.0 1427.0Q1114 1408 1088 1408H832Q806 1408 787.0 1427.0Q768 1446 768 1472Q768 1498 787.0 1517.0Q806 1536 832 1536ZM1664 1472Q1664 1446 1645.0 1427.0Q1626 1408 1600 1408Q1574 1408 1555.0 1427.0Q1536 1446 1536 1472Q1536 1498 1555.0 1517.0Q1574 1536 1600 1536Q1626 1536 1645.0 1517.0Q1664 1498 1664 1472ZM896 384H1152V1152H896ZM1280 128V192Q1280 218 1261.0 237.0Q1242 256 1216 256H832Q806 256 787.0 237.0Q768 218 768 192V128Z"/>
  </g>
</svg>