<?xml version="1.0" encoding="utf-8"?>
<svg xmlns="http://www.w3.org/2000/svg" width="16" height="16" viewBox="0 0 2048 2048">
  <g transform="translate(0, 2048) scale(1, -1)">
    <path fill="#000000" d="M512 1856Q512 1882 531.0 1901.0Q550 1920 576 1920H1984Q2011 1920 2029.5 1901.5Q2048 1883 2048 1856Q2048 1830 2029.0 1811.0Q2010 1792 1984 1792H576Q550 1792 531.0 1811.0Q512 1830 512 1856ZM0 1087Q0 1113 19.0 1132.0Q38 1151 64 1151H1984Q2011 1151 2029.5 1132.5Q2048 1114 2048 1087Q2048 1061 2029.0 1042.0Q2010 1023 1984 1023H64Q37 1023 18.5 1041.5Q0 1060 0 1087ZM640 320Q640 346 659.0 365.0Q678 384 704 384H1984Q2011 384 2029.5 365.5Q2048 347 2048 320Q2048 294 2029.0 275.0Q2010 256 1984 256H704Q677 256 658.5 274.5Q640 293 640 320Z"/>
  </g>
</svg>