<?xml version="1.0" encoding="utf-8"?>
<svg xmlns="http://www.w3.org/2000/svg" width="16" height="16" viewBox="0 0 2048 2048">
  <g transform="translate(0, 2048) scale(1, -1)">
    <path fill="#000000" d="M64 1792Q38 1792 19.0 1811.0Q0 1830 0 1856Q0 1883 18.5 1901.5Q37 1920 64 1920H1472Q1498 1920 1517.0 1901.0Q1536 1882 1536 1856Q1536 1830 1517.0 1811.0Q1498 1792 1472 1792ZM64 1023Q38 1023 19.0 1042.0Q0 1061 0 1087Q0 1114 18.5 1132.5Q37 1151 64 1151H1984Q2010 1151 2029.0 1132.0Q2048 1113 2048 1087Q2048 1060 2029.5 1041.5Q2011 1023 1984 1023ZM64 256Q38 256 19.0 275.0Q0 294 0 320Q0 347 18.5 365.5Q37 384 64 384H1344Q1370 384 1389.0 365.0Q1408 346 1408 320Q1408 293 1389.5 274.5Q1371 256 1344 256Z"/>
  </g>
</svg>