<?xml version="1.0" encoding="utf-8"?>
<svg xmlns="http://www.w3.org/2000/svg" width="16" height="16" viewBox="0 0 2048 2048">
  <g transform="translate(0, 2048) scale(1, -1)">
    <path fill="#000000" d="M466 792Q365 819 280.0 878.5Q195 938 132.5 1019.0Q70 1100 35.0 1198.0Q0 1296 0 1400Q0 1489 22.5 1572.0Q45 1655 86.0 1727.0Q127 1799 185.0 1858.0Q243 1917 314.0 1959.5Q385 2002 467.5 2025.0Q550 2048 640 2048Q773 2048 889.5 1998.0Q1006 1948 1093.0 1861.0Q1180 1774 1230.0 1657.5Q1280 1541 1280 1408H1152Q1152 1440 1148.0 1472.0Q1144 1504 1136 1536H891Q893 1504 894.5 1472.0Q896 1440 896 1408Q896 1343 890.5 1281.0Q885 1219 877 1155V1152H533Q538 1123 544.5 1095.5Q551 1068 559 1040ZM533 1664H747Q743 1685 734.0 1724.5Q725 1764 711.5 1804.5Q698 1845 680.0 1878.0Q662 1911 641 1920H639Q618 1911 600.0 1878.0Q582 1845 568.5 1804.5Q555 1764 546.0 1724.5Q537 1685 533 1664ZM196 1664H403Q421 1781 464 1889Q379 1858 310.0 1800.0Q241 1742 196 1664ZM1084 1664Q1039 1742 970.0 1800.0Q901 1858 816 1889Q859 1781 877 1664ZM144 1536Q136 1504 132.0 1472.0Q128 1440 128 1408Q128 1376 132.0 1344.0Q136 1312 144 1280H389Q387 1312 385.5 1344.0Q384 1376 384 1408Q384 1440 385.5 1472.0Q387 1504 389 1536ZM763 1536H517Q515 1504 513.5 1472.0Q512 1440 512 1408Q512 1376 513.5 1344.0Q515 1312 517 1280H763Q765 1312 766.5 1344.0Q768 1376 768 1408Q768 1440 766.5 1472.0Q765 1504 763 1536ZM2048 1216V1024Q2048 998 2029.0 979.0Q2010 960 1984 960Q1958 960 1939.0 979.0Q1920 998 1920 1024V1152H1152V1024Q1152 998 1133.0 979.0Q1114 960 1088 960Q1062 960 1043.0 979.0Q1024 998 1024 1024V1216Q1024 1242 1043.0 1261.0Q1062 1280 1088 1280H1472Q1472 1288 1471.5 1296.5Q1471 1305 1471 1314Q1471 1331 1473.0 1347.5Q1475 1364 1481.5 1377.5Q1488 1391 1501.0 1399.5Q1514 1408 1536 1408Q1558 1408 1570.5 1399.5Q1583 1391 1589.5 1377.5Q1596 1364 1598.0 1347.5Q1600 1331 1600 1314V1280H1984Q2010 1280 2029.0 1261.0Q2048 1242 2048 1216ZM197 1152Q242 1074 311.0 1016.5Q380 959 464 927Q421 1035 403 1152ZM2048 704Q2048 678 2029.0 659.0Q2010 640 1984 640H1664V384Q1664 357 1654.0 334.0Q1644 311 1626.5 293.5Q1609 276 1586.0 266.0Q1563 256 1536 256H1472Q1446 256 1427.0 275.0Q1408 294 1408 320Q1408 342 1416.5 354.5Q1425 367 1438.5 373.5Q1452 380 1468.5 382.0Q1485 384 1502 384H1536V640H1216Q1190 640 1171.0 659.0Q1152 678 1152 704Q1152 730 1171.0 749.0Q1190 768 1216 768H1536Q1536 781 1544.5 799.0Q1553 817 1565.0 835.0Q1577 853 1589.0 869.0Q1601 885 1608 896H1344Q1318 896 1299.0 915.0Q1280 934 1280 960Q1280 986 1299.0 1005.0Q1318 1024 1344 1024H1728Q1754 1024 1773.0 1005.0Q1792 986 1792 960Q1792 941 1781 925L1677 768H1984Q2010 768 2029.0 749.0Q2048 730 2048 704ZM1120 192Q1120 165 1101.5 146.5Q1083 128 1056 128Q1036 128 1019.5 139.5Q1003 151 996 170L916 384H620L540 170Q533 151 516.5 139.5Q500 128 480 128Q454 128 435.0 147.0Q416 166 416 192Q416 206 420 215L516 469Q565 598 612.5 726.0Q660 854 708 983Q715 1002 732.0 1011.0Q749 1020 768 1020Q788 1020 804.0 1011.0Q820 1002 828 983Q876 854 923.0 726.0Q970 598 1020 469L1116 215Q1120 206 1120 192ZM768 778 668 512H868Z"/>
  </g>
</svg>