<?xml version="1.0" encoding="utf-8"?>
<svg xmlns="http://www.w3.org/2000/svg" width="16" height="16" viewBox="0 0 2048 2048">
  <g transform="translate(0, 2048) scale(1, -1)">
    <path fill="#ffffff" d="M251 0Q201 0 155.5 20.5Q110 41 75.5 75.5Q41 110 20.5 155.5Q0 201 0 251V1797Q0 1847 20.5 1892.5Q41 1938 75.5 1972.5Q110 2007 155.5 2027.5Q201 2048 251 2048H1029Q1079 2048 1124.5 2027.5Q1170 2007 1204.5 1972.5Q1239 1938 1259.5 1892.5Q1280 1847 1280 1797V905Q1247 897 1215.0 886.0Q1183 875 1152 861V1792Q1152 1818 1142.0 1841.5Q1132 1865 1114.5 1882.5Q1097 1900 1073.5 1910.0Q1050 1920 1024 1920H256Q229 1920 206.0 1910.0Q183 1900 165.5 1882.5Q148 1865 138.0 1842.0Q128 1819 128 1792V256Q128 229 138.0 205.5Q148 182 165.0 165.0Q182 148 205.5 138.0Q229 128 256 128H749Q762 63 790 0ZM2046 337Q2047 335 2047.5 329.0Q2048 323 2048 320Q2048 293 2029.0 274.5Q2010 256 1984 256Q1961 256 1945.5 270.0Q1930 284 1922 304Q1912 332 1903.0 358.0Q1894 384 1879 410Q1849 462 1805.0 504.5Q1761 547 1708.5 577.0Q1656 607 1597.5 623.5Q1539 640 1478 640H1466Q1405 640 1346.5 623.5Q1288 607 1235.5 577.0Q1183 547 1139.0 504.5Q1095 462 1065 410Q1050 384 1041.0 358.0Q1032 332 1022 304Q1014 282 999.0 269.0Q984 256 960 256Q933 256 914.5 274.5Q896 293 896 320Q896 326 898 336Q922 432 978.0 511.5Q1034 591 1111.5 648.0Q1189 705 1281.5 736.5Q1374 768 1472 768Q1569 768 1662.0 737.0Q1755 706 1832.5 649.0Q1910 592 1966.0 512.5Q2022 433 2046 337ZM512 384Q486 384 467.0 403.0Q448 422 448 448Q448 474 467.0 493.0Q486 512 512 512H768Q778 512 789 509Q775 479 765.5 447.5Q756 416 749 384ZM1216 256V261Q1216 313 1237.0 358.5Q1258 404 1293.0 438.0Q1328 472 1374.5 492.0Q1421 512 1472 512Q1524 512 1571.0 491.5Q1618 471 1652.5 436.5Q1687 402 1707.5 355.0Q1728 308 1728 256Q1728 203 1707.5 156.5Q1687 110 1652.5 75.5Q1618 41 1571.0 20.5Q1524 0 1472 0Q1419 0 1372.5 20.5Q1326 41 1291.5 75.5Q1257 110 1236.5 156.5Q1216 203 1216 256Z"/>
  </g>
</svg>