<?xml version="1.0" encoding="utf-8"?>
<svg xmlns="http://www.w3.org/2000/svg" width="16" height="16" viewBox="0 0 2048 2048">
  <g transform="translate(0, 2048) scale(1, -1)">
    <path fill="#000000" d="M555 114 79 2Q69 0 64 0Q37 0 18.5 18.5Q0 37 0 64Q0 70 3.0 85.5Q6 101 10.0 118.5Q14 136 18.0 151.0Q22 166 23 171Q40 242 58 312L83 405Q101 476 118 546Q59 657 29.5 778.0Q0 899 0 1024Q0 1166 36.5 1297.0Q73 1428 139.5 1541.5Q206 1655 299.5 1748.5Q393 1842 506.5 1908.5Q620 1975 751.0 2011.5Q882 2048 1024 2048Q1165 2048 1296.0 2011.5Q1427 1975 1541.0 1908.5Q1655 1842 1748.5 1748.5Q1842 1655 1908.5 1541.0Q1975 1427 2011.5 1296.0Q2048 1165 2048 1024Q2048 882 2011.5 751.0Q1975 620 1908.5 506.5Q1842 393 1748.5 299.5Q1655 206 1541.5 139.5Q1428 73 1297.0 36.5Q1166 0 1024 0Q902 0 783.0 28.5Q664 57 555 114ZM1920 1024Q1920 1147 1888.0 1261.5Q1856 1376 1797.5 1475.5Q1739 1575 1657.0 1657.0Q1575 1739 1475.5 1797.5Q1376 1856 1261.5 1888.0Q1147 1920 1024 1920Q900 1920 785.5 1888.0Q671 1856 571.5 1797.5Q472 1739 390.5 1657.5Q309 1576 250.5 1476.5Q192 1377 160.0 1262.5Q128 1148 128 1024Q128 962 136.0 906.5Q144 851 159.0 798.0Q174 745 195.0 693.0Q216 641 242 586Q246 578 248.5 570.0Q251 562 251 553Q251 547 247.5 529.5Q244 512 239.5 493.0Q235 474 230.5 456.5Q226 439 224 433Q207 361 188.5 291.0Q170 221 152 150Q166 153 199.5 161.5Q233 170 275.5 180.5Q318 191 365.0 202.5Q412 214 453.0 223.5Q494 233 524.0 239.0Q554 245 563 245Q580 245 594 238Q649 212 700.0 191.5Q751 171 802.0 157.0Q853 143 907.5 135.5Q962 128 1024 128Q1148 128 1262.5 160.0Q1377 192 1476.5 250.5Q1576 309 1657.5 390.5Q1739 472 1797.5 571.5Q1856 671 1888.0 785.5Q1920 900 1920 1024ZM352 1024Q352 1057 365.0 1086.0Q378 1115 399.5 1136.5Q421 1158 450.0 1171.0Q479 1184 512 1184Q545 1184 574.0 1171.0Q603 1158 624.5 1136.5Q646 1115 659.0 1086.0Q672 1057 672 1024Q672 991 659.0 962.0Q646 933 624.5 911.5Q603 890 574.0 877.0Q545 864 512 864Q479 864 450.0 877.0Q421 890 399.5 911.5Q378 933 365.0 962.0Q352 991 352 1024ZM864 1024Q864 1057 877.0 1086.0Q890 1115 911.5 1136.5Q933 1158 962.0 1171.0Q991 1184 1024 1184Q1057 1184 1086.0 1171.0Q1115 1158 1136.5 1136.5Q1158 1115 1171.0 1086.0Q1184 1057 1184 1024Q1184 991 1171.0 962.0Q1158 933 1136.5 911.5Q1115 890 1086.0 877.0Q1057 864 1024 864Q991 864 962.0 877.0Q933 890 911.5 911.5Q890 933 877.0 962.0Q864 991 864 1024ZM1376 1024Q1376 1057 1389.0 1086.0Q1402 1115 1423.5 1136.5Q1445 1158 1474.0 1171.0Q1503 1184 1536 1184Q1569 1184 1598.0 1171.0Q1627 1158 1648.5 1136.5Q1670 1115 1683.0 1086.0Q1696 1057 1696 1024Q1696 991 1683.0 962.0Q1670 933 1648.5 911.5Q1627 890 1598.0 877.0Q1569 864 1536 864Q1503 864 1474.0 877.0Q1445 890 1423.5 911.5Q1402 933 1389.0 962.0Q1376 991 1376 1024Z"/>
  </g>
</svg>