<?xml version="1.0" encoding="utf-8"?>
<svg xmlns="http://www.w3.org/2000/svg" width="16" height="16" viewBox="0 0 2048 2048">
  <g transform="translate(0, 2048) scale(1, -1)">
    <path fill="#ffffff" d="M1792 1024V256Q1792 203 1772.0 156.5Q1752 110 1717.0 75.0Q1682 40 1635.5 20.0Q1589 0 1536 0H512Q459 0 412.5 20.0Q366 40 331.0 75.0Q296 110 276.0 156.5Q256 203 256 256V1024Q256 1077 276.0 1123.5Q296 1170 331.0 1205.0Q366 1240 412.5 1260.0Q459 1280 512 1280V1536Q512 1642 552.0 1735.5Q592 1829 661.5 1898.5Q731 1968 824.5 2008.0Q918 2048 1024 2048Q1130 2048 1223.5 2008.0Q1317 1968 1386.5 1898.5Q1456 1829 1496.0 1735.5Q1536 1642 1536 1536V1280Q1589 1280 1635.5 1260.0Q1682 1240 1717.0 1205.0Q1752 1170 1772.0 1123.5Q1792 1077 1792 1024ZM640 1280H1408V1536Q1408 1616 1378.0 1686.0Q1348 1756 1296.0 1808.0Q1244 1860 1174.0 1890.0Q1104 1920 1024 1920Q944 1920 874.0 1890.0Q804 1860 752.0 1808.0Q700 1756 670.0 1686.0Q640 1616 640 1536ZM1664 1024Q1664 1050 1654.0 1073.5Q1644 1097 1626.5 1114.5Q1609 1132 1585.5 1142.0Q1562 1152 1536 1152H512Q485 1152 462.0 1142.0Q439 1132 421.5 1114.5Q404 1097 394.0 1074.0Q384 1051 384 1024V256Q384 229 394.0 205.5Q404 182 421.0 165.0Q438 148 461.5 138.0Q485 128 512 128H1536Q1563 128 1586.0 138.0Q1609 148 1626.5 165.5Q1644 183 1654.0 206.0Q1664 229 1664 256ZM1152 640Q1152 613 1142.0 590.0Q1132 567 1114.5 549.5Q1097 532 1074.0 522.0Q1051 512 1024 512Q997 512 973.5 522.0Q950 532 933.0 549.0Q916 566 906.0 589.5Q896 613 896 640Q896 667 906.0 690.0Q916 713 933.5 730.5Q951 748 974.0 758.0Q997 768 1024 768Q1050 768 1073.5 758.0Q1097 748 1114.5 730.5Q1132 713 1142.0 689.5Q1152 666 1152 640Z"/>
  </g>
</svg>