<?xml version="1.0" encoding="utf-8"?>
<svg xmlns="http://www.w3.org/2000/svg" width="16" height="16" viewBox="0 0 2048 2048">
  <g transform="translate(0, 2048) scale(1, -1)">
    <path fill="#000000" d="M960 1728V1792Q960 1818 979.0 1837.0Q998 1856 1024 1856Q1050 1856 1069.0 1837.0Q1088 1818 1088 1792V1728Q1088 1702 1069.0 1683.0Q1050 1664 1024 1664Q998 1664 979.0 1683.0Q960 1702 960 1728ZM384 1600Q384 1626 403.0 1645.0Q422 1664 448 1664Q474 1664 493 1645L557 1581Q576 1562 576 1536Q576 1510 557.0 1491.0Q538 1472 512 1472Q486 1472 467 1491L403 1555Q384 1574 384 1600ZM1472 1536Q1472 1562 1491 1581L1555 1645Q1574 1664 1600 1664Q1626 1664 1645.0 1645.0Q1664 1626 1664 1600Q1664 1574 1645 1555L1581 1491Q1562 1472 1536 1472Q1510 1472 1491.0 1491.0Q1472 1510 1472 1536ZM512 1024V1034Q512 1138 553.5 1229.5Q595 1321 665.5 1389.0Q736 1457 828.5 1496.5Q921 1536 1024 1536Q1130 1536 1223.5 1496.0Q1317 1456 1386.5 1386.5Q1456 1317 1496.0 1223.5Q1536 1130 1536 1024Q1536 918 1496.0 824.5Q1456 731 1386.5 661.5Q1317 592 1223.5 552.0Q1130 512 1024 512Q918 512 824.5 552.0Q731 592 661.5 661.5Q592 731 552.0 824.5Q512 918 512 1024ZM1408 1024V1032Q1408 1110 1377.0 1178.5Q1346 1247 1293.0 1298.0Q1240 1349 1170.5 1378.5Q1101 1408 1024 1408Q944 1408 874.0 1378.0Q804 1348 752.0 1296.0Q700 1244 670.0 1174.0Q640 1104 640 1024Q640 944 670.0 874.0Q700 804 752.0 752.0Q804 700 874.0 670.0Q944 640 1024 640Q1104 640 1174.0 670.0Q1244 700 1296.0 752.0Q1348 804 1378.0 874.0Q1408 944 1408 1024ZM256 960Q230 960 211.0 979.0Q192 998 192 1024Q192 1050 211.0 1069.0Q230 1088 256 1088H320Q346 1088 365.0 1069.0Q384 1050 384 1024Q384 998 365.0 979.0Q346 960 320 960ZM1728 960Q1702 960 1683.0 979.0Q1664 998 1664 1024Q1664 1050 1683.0 1069.0Q1702 1088 1728 1088H1792Q1818 1088 1837.0 1069.0Q1856 1050 1856 1024Q1856 998 1837.0 979.0Q1818 960 1792 960ZM384 448Q384 474 403 493L467 557Q486 576 512 576Q538 576 557.0 557.0Q576 538 576 512Q576 486 557 467L493 403Q474 384 448 384Q422 384 403.0 403.0Q384 422 384 448ZM1472 512Q1472 538 1491.0 557.0Q1510 576 1536 576Q1562 576 1581 557L1645 493Q1664 474 1664 448Q1664 422 1645.0 403.0Q1626 384 1600 384Q1574 384 1555 403L1491 467Q1472 486 1472 512ZM960 256V320Q960 346 979.0 365.0Q998 384 1024 384Q1050 384 1069.0 365.0Q1088 346 1088 320V256Q1088 230 1069.0 211.0Q1050 192 1024 192Q998 192 979.0 211.0Q960 230 960 256Z"/>
  </g>
</svg>