<?xml version="1.0" encoding="utf-8"?>
<svg xmlns="http://www.w3.org/2000/svg" width="16" height="16" viewBox="0 0 2048 2048">
  <g transform="translate(0, 2048) scale(1, -1)">
    <path fill="#ffffff" d="M1920 1141Q1949 1131 1972.5 1113.0Q1996 1095 2013.0 1071.0Q2030 1047 2039.0 1019.0Q2048 991 2048 960V320Q2048 294 2029.0 275.0Q2010 256 1984 256H1088Q1062 256 1043.0 275.0Q1024 294 1024 320V512H251Q201 512 155.5 532.5Q110 553 75.5 587.5Q41 622 20.5 667.5Q0 713 0 763V1541Q0 1591 20.5 1636.5Q41 1682 75.5 1716.5Q110 1751 155.5 1771.5Q201 1792 251 1792H1669Q1721 1792 1766.5 1771.0Q1812 1750 1846.0 1715.0Q1880 1680 1900.0 1633.5Q1920 1587 1920 1536ZM128 896H1024V960Q1024 999 1039.0 1034.0Q1054 1069 1080.5 1095.5Q1107 1122 1142.0 1137.0Q1177 1152 1216 1152H1792V1536Q1792 1562 1782.0 1585.5Q1772 1609 1754.5 1626.5Q1737 1644 1713.5 1654.0Q1690 1664 1664 1664H256Q229 1664 206.0 1654.0Q183 1644 165.5 1626.5Q148 1609 138.0 1586.0Q128 1563 128 1536ZM576 1536Q602 1536 621.0 1517.0Q640 1498 640 1472Q640 1446 621.0 1427.0Q602 1408 576 1408H320Q294 1408 275.0 1427.0Q256 1446 256 1472Q256 1498 275.0 1517.0Q294 1536 320 1536ZM1920 384V960Q1920 986 1901.0 1005.0Q1882 1024 1856 1024H1216Q1190 1024 1171.0 1005.0Q1152 986 1152 960V384ZM1408 832Q1408 806 1389.0 787.0Q1370 768 1344 768Q1318 768 1299.0 787.0Q1280 806 1280 832Q1280 859 1298.5 877.0Q1317 895 1344 895Q1371 895 1389.5 877.0Q1408 859 1408 832ZM1024 640V768H128Q128 741 138.0 717.5Q148 694 165.0 677.0Q182 660 205.5 650.0Q229 640 256 640Z"/>
  </g>
</svg>