<?xml version="1.0" encoding="utf-8"?>
<svg id="" width="16" height="16" style="width:16px;height:16px;" version="1.1"
    xmlns="http://www.w3.org/2000/svg" viewBox="0 0 2048 2048" enable-background="new 0 0 2048 2048"
    xml:space="preserve"><path fill="#ffffff" transform="translate(0, 175)" d="M1735 0 q63 0 120 25.5 q57 25.5 99.5 68 q42.5 42.5 68 99.5 q25.5 57 25.5 120 l0 1038 q0 63 -25.5 120 q-25.5 57 -68 99.5 q-42.5 42.5 -99.5 68 q-57 25.5 -120 25.5 l-1422 0 q-63 0 -120 -25.5 q-57 -25.5 -99.5 -68 q-42.5 -42.5 -68 -99.5 q-25.5 -57 -25.5 -120 l0 -1038 q0 -63 25.5 -120 q25.5 -57 68 -99.5 q42.5 -42.5 99.5 -68 q57 -25.5 120 -25.5 l1422 0 ZM320 128 q-39 0 -74 15 q-35 15 -61.5 41.5 q-26.5 26.5 -41.5 61.5 q-15 35 -15 74 l0 28 l896 537 l896 -537 l0 -28 q0 -39 -15 -74 q-15 -35 -41.5 -61.5 q-26.5 -26.5 -61.5 -41.5 q-35 -15 -74 -15 l-1408 0 ZM1728 1536 q39 0 74 -15 q35 -15 61.5 -41.5 q26.5 -26.5 41.5 -61.5 q15 -35 15 -74 l0 -847 l-863 518 q-15 9 -33 9 q-18 0 -33 -9 l-863 -518 l0 847 q0 39 15 74 q15 35 41.5 61.5 q26.5 26.5 61.5 41.5 q35 15 74 15 l1408 0 Z"/>
</svg>