<?xml version="1.0" encoding="utf-8"?>
<svg xmlns="http://www.w3.org/2000/svg" width="16" height="16" viewBox="0 0 2048 2048">
  <g transform="translate(0, 2048) scale(1, -1)">
    <path fill="#ffffff" d="M315 192Q265 192 219.5 212.5Q174 233 139.5 267.5Q105 302 84.5 347.5Q64 393 64 443V1477Q64 1527 84.5 1572.5Q105 1618 139.5 1652.5Q174 1687 219.5 1707.5Q265 1728 315 1728H1733Q1783 1728 1828.5 1707.5Q1874 1687 1908.5 1652.5Q1943 1618 1963.5 1572.5Q1984 1527 1984 1477V443Q1984 393 1963.5 347.5Q1943 302 1908.5 267.5Q1874 233 1828.5 212.5Q1783 192 1733 192Z"/>
  </g>
</svg>