<?xml version="1.0" encoding="utf-8"?>
<svg xmlns="http://www.w3.org/2000/svg" width="16" height="16" viewBox="0 0 2048 2048">
  <g transform="translate(0, 2048) scale(1, -1)">
    <path fill="#ffffff" d="M313 128Q250 128 193.0 153.5Q136 179 93.5 221.5Q51 264 25.5 321.0Q0 378 0 441V1479Q0 1542 25.5 1599.0Q51 1656 93.5 1698.5Q136 1741 193.0 1766.5Q250 1792 313 1792H1735Q1798 1792 1855.0 1766.5Q1912 1741 1954.5 1698.5Q1997 1656 2022.5 1599.0Q2048 1542 2048 1479V1034Q2020 1069 1988.0 1101.0Q1956 1133 1920 1160V1295L1811 1230Q1741 1266 1659 1288L1920 1444V1472Q1920 1511 1905.0 1546.0Q1890 1581 1863.5 1607.5Q1837 1634 1802.0 1649.0Q1767 1664 1728 1664H320Q281 1664 246.0 1649.0Q211 1634 184.5 1607.5Q158 1581 143.0 1546.0Q128 1511 128 1472V1444L870 999Q851 973 835.0 945.0Q819 917 805 888L128 1295V448Q128 409 143.0 374.0Q158 339 184.5 312.5Q211 286 246.0 271.0Q281 256 320 256H809Q826 222 845.5 190.0Q865 158 888 128ZM896 576Q896 695 941.5 800.0Q987 905 1065.0 983.0Q1143 1061 1248.0 1106.5Q1353 1152 1472 1152Q1551 1152 1624.5 1131.5Q1698 1111 1762.0 1073.5Q1826 1036 1879.0 983.0Q1932 930 1969.5 866.0Q2007 802 2027.5 728.5Q2048 655 2048 576Q2048 457 2002.5 352.0Q1957 247 1879.0 169.0Q1801 91 1696.0 45.5Q1591 0 1472 0Q1352 0 1247.0 45.0Q1142 90 1064.0 168.0Q986 246 941.0 351.0Q896 456 896 576ZM1792 357Q1792 415 1768.5 466.5Q1745 518 1705.5 556.5Q1666 595 1613.5 617.5Q1561 640 1504 640H1254L1395 781Q1416 802 1416 832Q1416 862 1395.0 883.0Q1374 904 1344 904Q1314 904 1293 883L1037 627Q1016 606 1016 576Q1016 546 1037 525L1293 269Q1314 248 1344 248Q1374 248 1395.0 269.0Q1416 290 1416 320Q1416 350 1395 371L1254 512H1504Q1537 512 1566.0 499.0Q1595 486 1616.5 464.5Q1638 443 1651.0 414.0Q1664 385 1664 352Q1664 335 1666.0 317.5Q1668 300 1674.5 286.5Q1681 273 1693.5 264.5Q1706 256 1728 256Q1751 256 1764.0 265.0Q1777 274 1783.0 288.5Q1789 303 1790.5 321.0Q1792 339 1792 357Z"/>
  </g>
</svg>