<?xml version="1.0" encoding="utf-8"?>
<svg xmlns="http://www.w3.org/2000/svg" width="16" height="16" viewBox="0 0 2048 2048">
  <g transform="translate(0, 2048) scale(1, -1)">
    <path fill="#ffffff" d="M1797 1792Q1847 1792 1892.5 1771.5Q1938 1751 1972.5 1716.5Q2007 1682 2027.5 1636.5Q2048 1591 2048 1541V379Q2048 329 2027.5 283.5Q2007 238 1972.5 203.5Q1938 169 1892.5 148.5Q1847 128 1797 128H1160Q1183 158 1202.5 190.0Q1222 222 1239 256H1792Q1819 256 1842.0 266.0Q1865 276 1882.5 293.5Q1900 311 1910.0 334.0Q1920 357 1920 384V1310L1241 891Q1227 920 1211.0 947.5Q1195 975 1177 1001L1920 1460V1536Q1920 1562 1910.0 1585.5Q1900 1609 1882.5 1626.5Q1865 1644 1841.5 1654.0Q1818 1664 1792 1664H256Q229 1664 206.0 1654.0Q183 1644 165.5 1626.5Q148 1609 138.0 1586.0Q128 1563 128 1536V1460L402 1291Q325 1272 249 1235L128 1310V1160Q92 1133 60.0 1101.0Q28 1069 0 1034V1541Q0 1591 20.5 1636.5Q41 1682 75.5 1716.5Q110 1751 155.5 1771.5Q201 1792 251 1792ZM1152 576Q1152 457 1106.5 352.0Q1061 247 983.0 169.0Q905 91 800.0 45.5Q695 0 576 0Q456 0 351.0 45.0Q246 90 168.0 168.0Q90 246 45.0 351.0Q0 456 0 576Q0 695 45.5 800.0Q91 905 169.0 983.0Q247 1061 352.0 1106.5Q457 1152 576 1152Q655 1152 728.5 1131.5Q802 1111 866.0 1073.5Q930 1036 983.0 983.0Q1036 930 1073.5 866.0Q1111 802 1131.5 728.5Q1152 655 1152 576ZM704 904Q674 904 653.0 883.0Q632 862 632 832Q632 802 653 781L794 640H539Q482 640 431.0 617.0Q380 594 341.0 555.0Q302 516 279.0 465.0Q256 414 256 357Q256 339 257.5 321.0Q259 303 265.0 288.5Q271 274 284.0 265.0Q297 256 320 256Q342 256 354.5 264.5Q367 273 373.5 286.5Q380 300 382.0 317.5Q384 335 384 352Q384 385 397.0 414.0Q410 443 431.5 464.5Q453 486 482.0 499.0Q511 512 544 512H794L653 371Q632 350 632 320Q632 290 653.0 269.0Q674 248 704 248Q734 248 755 269L1011 525Q1032 546 1032 576Q1032 606 1011 627L755 883Q734 904 704 904Z"/>
  </g>
</svg>