<?xml version="1.0" encoding="utf-8"?>
<svg xmlns="http://www.w3.org/2000/svg" width="16" height="16" viewBox="0 0 2048 2048">
  <g transform="translate(0, 2048) scale(1, -1)">
    <path fill="#ffffff" d="M313 128Q250 128 193.0 153.5Q136 179 93.5 221.5Q51 264 25.5 321.0Q0 378 0 441V1479Q0 1542 25.5 1599.0Q51 1656 93.5 1698.5Q136 1741 193.0 1766.5Q250 1792 313 1792H1735Q1798 1792 1855.0 1766.5Q1912 1741 1954.5 1698.5Q1997 1656 2022.5 1599.0Q2048 1542 2048 1479V1034Q2020 1069 1988.0 1101.0Q1956 1133 1920 1160V1295L1811 1230Q1741 1266 1659 1288L1920 1444V1472Q1920 1511 1905.0 1546.0Q1890 1581 1863.5 1607.5Q1837 1634 1802.0 1649.0Q1767 1664 1728 1664H320Q281 1664 246.0 1649.0Q211 1634 184.5 1607.5Q158 1581 143.0 1546.0Q128 1511 128 1472V1444L870 999Q851 973 835.0 945.0Q819 917 805 888L128 1295V448Q128 409 143.0 374.0Q158 339 184.5 312.5Q211 286 246.0 271.0Q281 256 320 256H809Q826 222 845.5 190.0Q865 158 888 128ZM896 576Q896 695 941.5 800.0Q987 905 1065.0 983.0Q1143 1061 1248.0 1106.5Q1353 1152 1472 1152Q1551 1152 1624.5 1131.5Q1698 1111 1762.0 1073.5Q1826 1036 1879.0 983.0Q1932 930 1969.5 866.0Q2007 802 2027.5 728.5Q2048 655 2048 576Q2048 457 2002.5 352.0Q1957 247 1879.0 169.0Q1801 91 1696.0 45.5Q1591 0 1472 0Q1352 0 1247.0 45.0Q1142 90 1064.0 168.0Q986 246 941.0 351.0Q896 456 896 576ZM1280 248Q1310 248 1331.0 269.0Q1352 290 1352 320Q1352 350 1331 371L1126 576L1331 781Q1352 802 1352 832Q1352 862 1331.0 883.0Q1310 904 1280 904Q1250 904 1229 883L973 627Q952 606 952 576Q952 546 973 525L1229 269Q1250 248 1280 248ZM1920 357Q1920 415 1896.5 466.5Q1873 518 1833.5 556.5Q1794 595 1741.5 617.5Q1689 640 1632 640H1510L1651 781Q1672 802 1672 832Q1672 862 1651.0 883.0Q1630 904 1600 904Q1570 904 1549 883L1293 627Q1272 606 1272 576Q1272 546 1293 525L1549 269Q1570 248 1600 248Q1630 248 1651.0 269.0Q1672 290 1672 320Q1672 350 1651 371L1510 512H1632Q1665 512 1694.0 499.0Q1723 486 1744.5 464.5Q1766 443 1779.0 414.0Q1792 385 1792 352Q1792 335 1794.0 317.5Q1796 300 1802.5 286.5Q1809 273 1821.5 264.5Q1834 256 1856 256Q1879 256 1892.0 265.0Q1905 274 1911.0 288.5Q1917 303 1918.5 321.0Q1920 339 1920 357Z"/>
  </g>
</svg>