<?xml version="1.0" encoding="utf-8"?>
<svg xmlns="http://www.w3.org/2000/svg" width="16" height="16" viewBox="0 0 2048 2048">
  <g transform="translate(0, 2048) scale(1, -1)">
    <path fill="#ffffff" d="M1797 1792Q1847 1792 1892.5 1771.5Q1938 1751 1972.5 1716.5Q2007 1682 2027.5 1636.5Q2048 1591 2048 1541V379Q2048 329 2027.5 283.5Q2007 238 1972.5 203.5Q1938 169 1892.5 148.5Q1847 128 1797 128H1160Q1183 158 1202.5 190.0Q1222 222 1239 256H1792Q1819 256 1842.0 266.0Q1865 276 1882.5 293.5Q1900 311 1910.0 334.0Q1920 357 1920 384V1310L1241 891Q1227 920 1211.0 947.5Q1195 975 1177 1001L1920 1460V1536Q1920 1562 1910.0 1585.5Q1900 1609 1882.5 1626.5Q1865 1644 1841.5 1654.0Q1818 1664 1792 1664H256Q229 1664 206.0 1654.0Q183 1644 165.5 1626.5Q148 1609 138.0 1586.0Q128 1563 128 1536V1460L402 1291Q325 1272 249 1235L128 1310V1160Q92 1133 60.0 1101.0Q28 1069 0 1034V1541Q0 1591 20.5 1636.5Q41 1682 75.5 1716.5Q110 1751 155.5 1771.5Q201 1792 251 1792ZM1152 576Q1152 457 1106.5 352.0Q1061 247 983.0 169.0Q905 91 800.0 45.5Q695 0 576 0Q456 0 351.0 45.0Q246 90 168.0 168.0Q90 246 45.0 351.0Q0 456 0 576Q0 695 45.5 800.0Q91 905 169.0 983.0Q247 1061 352.0 1106.5Q457 1152 576 1152Q655 1152 728.5 1131.5Q802 1111 866.0 1073.5Q930 1036 983.0 983.0Q1036 930 1073.5 866.0Q1111 802 1131.5 728.5Q1152 655 1152 576ZM896 576Q896 602 877.0 621.0Q858 640 832 640H486L627 781Q648 802 648 832Q648 862 627.0 883.0Q606 904 576 904Q546 904 525 883L269 627Q248 606 248 576Q248 546 269 525L525 269Q546 248 576 248Q606 248 627.0 269.0Q648 290 648 320Q648 350 627 371L486 512H832Q858 512 877.0 531.0Q896 550 896 576Z"/>
  </g>
</svg>