<?xml version="1.0" encoding="utf-8"?>
<svg xmlns="http://www.w3.org/2000/svg" width="16" height="16" viewBox="0 0 2048 2048">
  <g transform="translate(0, 2048) scale(1, -1)">
    <path fill="#ffffff" d="M768 256V213Q768 192 769.0 170.5Q770 149 774 128H504Q429 128 360.5 158.5Q292 189 240.5 240.5Q189 292 158.5 360.5Q128 429 128 504V1544Q128 1619 158.5 1687.5Q189 1756 240.5 1807.5Q292 1859 360.5 1889.5Q429 1920 504 1920H1544Q1619 1920 1687.5 1889.5Q1756 1859 1807.5 1807.5Q1859 1756 1889.5 1687.5Q1920 1619 1920 1544V1017L1914 1019Q1903 1078 1871.5 1129.0Q1840 1180 1792 1216V1408H256V507Q256 455 277.0 409.5Q298 364 333.0 330.0Q368 296 414.5 276.0Q461 256 512 256ZM507 1792Q456 1792 410.0 1771.0Q364 1750 330.0 1715.0Q296 1680 276.0 1633.5Q256 1587 256 1536H1792V1541Q1792 1591 1771.5 1636.5Q1751 1682 1716.5 1716.5Q1682 1751 1636.5 1771.5Q1591 1792 1541 1792ZM2048 704V512H1792V546Q1792 563 1790.0 580.0Q1788 597 1781.5 610.5Q1775 624 1762.0 632.0Q1749 640 1728 640Q1706 640 1693.0 631.5Q1680 623 1673.5 609.5Q1667 596 1665.5 578.5Q1664 561 1664 544V512H1280V546Q1280 563 1278.0 580.0Q1276 597 1269.5 610.5Q1263 624 1250.0 632.0Q1237 640 1216 640Q1194 640 1181.0 631.5Q1168 623 1161.5 609.5Q1155 596 1153.5 578.5Q1152 561 1152 544V512H896V704Q896 744 911.0 779.0Q926 814 952.0 840.0Q978 866 1013.0 881.0Q1048 896 1088 896H1152V960Q1152 1000 1167.0 1035.0Q1182 1070 1208.0 1096.0Q1234 1122 1269.0 1137.0Q1304 1152 1344 1152H1600Q1639 1152 1674.0 1137.0Q1709 1122 1735.5 1095.5Q1762 1069 1777.0 1034.0Q1792 999 1792 960V896H1856Q1895 896 1930.0 881.0Q1965 866 1991.5 839.5Q2018 813 2033.0 778.0Q2048 743 2048 704ZM1664 896V960Q1664 986 1645.0 1005.0Q1626 1024 1600 1024H1344Q1318 1024 1299.0 1005.0Q1280 986 1280 960V896ZM1792 384H2048V192Q2048 153 2033.0 118.0Q2018 83 1991.5 56.5Q1965 30 1930.0 15.0Q1895 0 1856 0H1088Q1048 0 1013.0 15.0Q978 30 952.0 56.0Q926 82 911.0 117.0Q896 152 896 192V384H1152V349Q1152 332 1154.0 315.0Q1156 298 1162.5 285.0Q1169 272 1182.0 264.0Q1195 256 1216 256Q1238 256 1250.5 264.5Q1263 273 1269.5 286.5Q1276 300 1278.0 317.0Q1280 334 1280 351V384H1664V349Q1664 332 1666.0 315.0Q1668 298 1674.5 285.0Q1681 272 1694.0 264.0Q1707 256 1728 256Q1750 256 1762.5 264.5Q1775 273 1781.5 286.5Q1788 300 1790.0 317.0Q1792 334 1792 351Z"/>
  </g>
</svg>