<?xml version="1.0" encoding="utf-8"?>
<svg xmlns="http://www.w3.org/2000/svg" width="16" height="16" viewBox="0 0 2048 2048">
  <g transform="translate(0, 2048) scale(1, -1)">
    <path fill="#000000" d="M1024 1024V768Q1050 768 1073.5 758.0Q1097 748 1114.5 730.5Q1132 713 1142.0 689.5Q1152 666 1152 640H1280Q1306 640 1329.0 630.0Q1352 620 1370 602Q1408 564 1408 512H1856Q1882 512 1901.0 493.0Q1920 474 1920 448Q1920 422 1901.0 403.0Q1882 384 1856 384H1408Q1408 357 1398.0 334.0Q1388 311 1370.5 293.5Q1353 276 1330.0 266.0Q1307 256 1280 256H640Q613 256 589.5 266.0Q566 276 549.0 293.0Q532 310 522.0 333.5Q512 357 512 384H64Q38 384 19.0 403.0Q0 422 0 448Q0 474 19.0 493.0Q38 512 64 512H512Q512 565 549 602Q587 640 640 640H768Q768 667 778.0 690.0Q788 713 805.5 730.5Q823 748 846.0 758.0Q869 768 896 768V1024H251Q201 1024 155.5 1044.5Q110 1065 75.5 1099.5Q41 1134 20.5 1179.5Q0 1225 0 1275V1541Q0 1591 20.5 1636.5Q41 1682 75.5 1716.5Q110 1751 155.5 1771.5Q201 1792 251 1792H1669Q1719 1792 1764.5 1771.5Q1810 1751 1844.5 1716.5Q1879 1682 1899.5 1636.5Q1920 1591 1920 1541V1275Q1920 1223 1899.0 1177.5Q1878 1132 1843.0 1098.0Q1808 1064 1761.5 1044.0Q1715 1024 1664 1024ZM128 1280Q128 1253 138.0 1229.5Q148 1206 165.0 1189.0Q182 1172 205.5 1162.0Q229 1152 256 1152H1664Q1691 1152 1714.0 1162.0Q1737 1172 1754.5 1189.5Q1772 1207 1782.0 1230.0Q1792 1253 1792 1280V1536Q1792 1562 1782.0 1585.5Q1772 1609 1754.5 1626.5Q1737 1644 1713.5 1654.0Q1690 1664 1664 1664H256Q229 1664 206.0 1654.0Q183 1644 165.5 1626.5Q148 1609 138.0 1586.0Q128 1563 128 1536ZM1344 1440Q1344 1480 1372.0 1508.0Q1400 1536 1440 1536Q1480 1536 1508.0 1508.0Q1536 1480 1536 1440Q1536 1400 1508.0 1372.0Q1480 1344 1440 1344Q1400 1344 1372.0 1372.0Q1344 1400 1344 1440ZM1024 640H896V606Q896 589 894.0 572.0Q892 555 885.5 541.5Q879 528 866.0 520.0Q853 512 832 512H640V384H1280V512H1088Q1066 512 1053.0 520.5Q1040 529 1033.5 542.5Q1027 556 1025.5 573.0Q1024 590 1024 607Z"/>
  </g>
</svg>