<?xml version="1.0" encoding="utf-8"?>
<svg xmlns="http://www.w3.org/2000/svg" width="16" height="16" viewBox="0 0 2048 2048">
  <g transform="translate(0, 2048) scale(1, -1)">
    <path fill="#000000" d="M0 1024Q0 1087 23.5 1144.5Q47 1202 92 1247L801 1956Q846 2001 903.5 2024.5Q961 2048 1024 2048Q1087 2048 1144.5 2024.5Q1202 2001 1247 1956L1956 1247Q2001 1202 2024.5 1144.5Q2048 1087 2048 1024Q2048 961 2024.5 903.5Q2001 846 1956 801L1247 92Q1202 47 1144.5 23.5Q1087 0 1024 0Q961 0 903.5 23.5Q846 47 801 92L92 801Q47 846 23.5 903.5Q0 961 0 1024ZM1024 131Q1100 131 1154 185L1863 894Q1917 948 1917 1024Q1917 1100 1863 1154L1154 1863Q1100 1917 1024 1917Q948 1917 894 1863L185 1154Q131 1100 131 1024Q131 948 185 894L894 185Q948 131 1024 131ZM768 704V967Q768 1032 794.0 1089.0Q820 1146 864.0 1188.5Q908 1231 966.0 1255.5Q1024 1280 1088 1280H1189L1043 1427Q1024 1446 1024 1472Q1024 1498 1043.0 1517.0Q1062 1536 1088 1536Q1114 1536 1133 1517L1389 1261Q1408 1242 1408 1216Q1408 1190 1389 1171L1133 915Q1114 896 1088 896Q1062 896 1043.0 915.0Q1024 934 1024 960Q1024 986 1043 1005L1189 1152H1088Q1049 1152 1014.0 1137.0Q979 1122 952.5 1095.5Q926 1069 911.0 1034.0Q896 999 896 960V704Q896 678 877.0 659.0Q858 640 832 640Q806 640 787.0 659.0Q768 678 768 704Z"/>
  </g>
</svg>