<?xml version="1.0" encoding="utf-8"?>
<svg xmlns="http://www.w3.org/2000/svg" width="16" height="16" viewBox="0 0 2048 2048">
  <g transform="translate(0, 2048) scale(1, -1)">
    <path fill="#000000" d="M1024 1157V64Q1024 38 1005.0 19.0Q986 0 960 0Q934 0 915.0 19.0Q896 38 896 64V1157Q814 1167 743.5 1207.0Q673 1247 621.5 1307.0Q570 1367 541.0 1442.5Q512 1518 512 1600Q512 1692 547.5 1773.5Q583 1855 644.0 1916.0Q705 1977 786.5 2012.5Q868 2048 960 2048Q1050 2048 1131.0 2013.0Q1212 1978 1273.5 1918.0Q1335 1858 1371.5 1778.0Q1408 1698 1408 1608Q1408 1524 1379.5 1447.0Q1351 1370 1300.0 1309.5Q1249 1249 1178.5 1208.5Q1108 1168 1024 1157ZM1280 1607Q1280 1672 1254.0 1729.0Q1228 1786 1184.0 1828.5Q1140 1871 1082.0 1895.5Q1024 1920 960 1920Q893 1920 835.0 1895.0Q777 1870 733.5 1826.5Q690 1783 665.0 1725.0Q640 1667 640 1600Q640 1533 665.0 1475.0Q690 1417 733.5 1373.5Q777 1330 835.0 1305.0Q893 1280 960 1280Q1029 1280 1087.5 1305.5Q1146 1331 1189.0 1375.5Q1232 1420 1256.0 1479.5Q1280 1539 1280 1607Z"/>
  </g>
</svg>