<?xml version="1.0" encoding="utf-8"?>
<svg xmlns="http://www.w3.org/2000/svg" width="16" height="16" viewBox="0 0 2048 2048">
  <g transform="translate(0, 2048) scale(1, -1)">
    <path fill="#000000" d="M1863 192Q1863 152 1848.0 117.0Q1833 82 1807.0 56.0Q1781 30 1746.0 15.0Q1711 0 1671 0H249Q209 0 174.0 15.0Q139 30 113.0 56.0Q87 82 72.0 117.0Q57 152 57 192Q57 227 69 260L357 1027Q367 1055 385.5 1078.0Q404 1101 427.5 1117.5Q451 1134 479.0 1143.0Q507 1152 537 1152H896V1414Q839 1426 791.5 1456.0Q744 1486 710.5 1528.5Q677 1571 658.5 1624.0Q640 1677 640 1735Q640 1800 666.0 1857.0Q692 1914 736.0 1956.5Q780 1999 838.0 2023.5Q896 2048 960 2048Q1024 2048 1082.0 2023.5Q1140 1999 1184.0 1956.5Q1228 1914 1254.0 1857.0Q1280 1800 1280 1735Q1280 1677 1261.5 1624.0Q1243 1571 1209.5 1528.5Q1176 1486 1128.5 1456.0Q1081 1426 1024 1414V1152H1383Q1413 1152 1441.0 1143.0Q1469 1134 1492.5 1117.5Q1516 1101 1534.0 1078.0Q1552 1055 1563 1027L1851 260Q1863 227 1863 192ZM960 1536Q999 1536 1034.0 1551.0Q1069 1566 1095.5 1592.5Q1122 1619 1137.0 1654.0Q1152 1689 1152 1728Q1152 1767 1137.0 1802.0Q1122 1837 1095.5 1863.5Q1069 1890 1034.0 1905.0Q999 1920 960 1920Q921 1920 886.0 1905.0Q851 1890 824.5 1863.5Q798 1837 783.0 1802.0Q768 1767 768 1728Q768 1689 783.0 1654.0Q798 1619 824.5 1592.5Q851 1566 886.0 1551.0Q921 1536 960 1536ZM1735 192Q1735 206 1731 215L1443 982Q1436 1001 1419.5 1012.5Q1403 1024 1383 1024H1024V576Q1024 550 1005.0 531.0Q986 512 960 512Q934 512 915.0 531.0Q896 550 896 576V1024H537Q517 1024 500.5 1013.0Q484 1002 477 983L189 215Q185 206 185 192Q185 165 203.5 146.5Q222 128 249 128H1671Q1698 128 1716.5 146.5Q1735 165 1735 192Z"/>
  </g>
</svg>