<?xml version="1.0" encoding="utf-8"?>
<svg xmlns="http://www.w3.org/2000/svg" width="16" height="16" viewBox="0 0 2048 2048">
  <g transform="translate(0, 2048) scale(1, -1)">
    <path fill="#000000" d="M1216 384Q1190 384 1171.0 403.0Q1152 422 1152 448Q1152 474 1171.0 493.0Q1190 512 1216 512H1829L1088 1253L813 979Q794 960 768 960Q742 960 723 979L19 1683Q0 1702 0 1728Q0 1754 19.0 1773.0Q38 1792 64 1792Q90 1792 109 1773L768 1115L1043 1389Q1062 1408 1088 1408Q1114 1408 1133 1389L1920 603V1216Q1920 1242 1939.0 1261.0Q1958 1280 1984 1280Q2010 1280 2029.0 1261.0Q2048 1242 2048 1216V448Q2048 422 2029.0 403.0Q2010 384 1984 384Z"/>
  </g>
</svg>