<?xml version="1.0" encoding="utf-8"?>
<svg xmlns="http://www.w3.org/2000/svg" width="16" height="16" viewBox="0 0 2048 2048">
  <g transform="translate(0, 2048) scale(1, -1)">
    <path fill="#ffffff" d="M2048 1984V1664Q2048 1592 2011.0 1531.0Q1974 1470 1910 1437L1501 618Q1470 557 1408 529V376Q1408 298 1377.0 229.5Q1346 161 1293.0 110.0Q1240 59 1170.5 29.5Q1101 0 1024 0Q947 0 877.5 29.5Q808 59 755.0 110.0Q702 161 671.0 229.5Q640 298 640 376V529Q578 557 547 618L138 1437Q74 1470 37.0 1531.0Q0 1592 0 1664V1984Q0 2010 19.0 2029.0Q38 2048 64 2048Q90 2048 109.0 2029.0Q128 2010 128 1984V1664Q128 1637 138.0 1613.5Q148 1590 165.0 1573.0Q182 1556 205.5 1546.0Q229 1536 256 1536H1792Q1819 1536 1842.0 1546.0Q1865 1556 1882.5 1573.5Q1900 1591 1910.0 1614.0Q1920 1637 1920 1664V1984Q1920 2010 1939.0 2029.0Q1958 2048 1984 2048Q2010 2048 2029.0 2029.0Q2048 2010 2048 1984ZM1753 1408H296L662 675Q670 659 686.0 649.5Q702 640 719 640H1329Q1346 640 1362.0 649.5Q1378 659 1386 675ZM1280 512H768V379Q768 327 789.0 281.5Q810 236 845.0 202.0Q880 168 926.5 148.0Q973 128 1024 128Q1075 128 1121.5 148.0Q1168 168 1203.0 202.0Q1238 236 1259.0 281.5Q1280 327 1280 379Z"/>
  </g>
</svg>