<?xml version="1.0" encoding="utf-8"?>
<svg id="" width="16" height="16" style="width:16px;height:16px;" version="1.1" xmlns="http://www.w3.org/2000/svg" viewBox="0 0 2048 2048" enable-background="new 0 0 2048 2048" xml:space="preserve">
    <path fill="#000" transform="translate(0, 300)" d="M0 1344 q0 -26 19 -45 l704 -704 q19 -19 45 -19 q26 0 45 19 l275 274 l741 -741 l-613 0 q-26 0 -45 -19 q-19 -19 -19 -45 q0 -26 19 -45 q19 -19 45 -19 l768 0 q26 0 45 19 q19 19 19 45 l0 768 q0 26 -19 45 q-19 19 -45 19 q-26 0 -45 -19 q-19 -19 -19 -45 l0 -613 l-787 786 q-19 19 -45 19 q-26 0 -45 -19 l-275 -274 l-659 658 q-19 19 -45 19 q-26 0 -45 -19 q-19 -19 -19 -45 Z"/>
</svg>