<?xml version="1.0" encoding="utf-8"?>
<svg xmlns="http://www.w3.org/2000/svg" width="16" height="16" viewBox="0 0 2048 2048">
  <g transform="translate(0, 2048) scale(1, -1)">
    <path fill="#000000" d="M1664 1664H1472Q1446 1664 1427.0 1683.0Q1408 1702 1408 1728Q1408 1754 1427.0 1773.0Q1446 1792 1472 1792H1664V1984Q1664 2010 1683.0 2029.0Q1702 2048 1728 2048Q1754 2048 1773.0 2029.0Q1792 2010 1792 1984V1792H1984Q2010 1792 2029.0 1773.0Q2048 1754 2048 1728Q2048 1702 2029.0 1683.0Q2010 1664 1984 1664H1792V1472Q1792 1446 1773.0 1427.0Q1754 1408 1728 1408Q1702 1408 1683.0 1427.0Q1664 1446 1664 1472ZM128 1472V1541Q128 1591 148.5 1636.5Q169 1682 203.5 1716.5Q238 1751 283.5 1771.5Q329 1792 379 1792H417Q434 1792 451.0 1790.0Q468 1788 481.5 1781.5Q495 1775 503.5 1762.5Q512 1750 512 1728Q512 1702 493.0 1683.0Q474 1664 448 1664H403Q372 1664 345.5 1658.0Q319 1652 293 1626Q268 1601 261.5 1574.0Q255 1547 255 1517Q255 1506 255.5 1495.0Q256 1484 256 1472Q256 1446 237.0 1427.0Q218 1408 192 1408Q166 1408 147.0 1427.0Q128 1446 128 1472ZM832 1664Q806 1664 787.0 1683.0Q768 1702 768 1728Q768 1754 787.0 1773.0Q806 1792 832 1792H1088Q1114 1792 1133.0 1773.0Q1152 1754 1152 1728Q1152 1702 1133.0 1683.0Q1114 1664 1088 1664ZM128 832V1088Q128 1114 147.0 1133.0Q166 1152 192 1152Q218 1152 237.0 1133.0Q256 1114 256 1088V832Q256 806 237.0 787.0Q218 768 192 768Q166 768 147.0 787.0Q128 806 128 832ZM1664 832V1088Q1664 1114 1683.0 1133.0Q1702 1152 1728 1152Q1754 1152 1773.0 1133.0Q1792 1114 1792 1088V832Q1792 806 1773.0 787.0Q1754 768 1728 768Q1702 768 1683.0 787.0Q1664 806 1664 832ZM379 128Q329 128 283.5 148.5Q238 169 203.5 203.5Q169 238 148.5 283.5Q128 329 128 379Q128 387 127.5 396.5Q127 406 127 417Q127 434 129.0 451.0Q131 468 137.5 481.5Q144 495 157.0 503.5Q170 512 192 512Q218 512 237.0 493.0Q256 474 256 448Q256 436 255.5 425.0Q255 414 255 403Q255 373 261.5 345.5Q268 318 293 293Q318 268 345.5 261.5Q373 255 403 255Q414 255 425.0 255.5Q436 256 448 256Q474 256 493.0 237.0Q512 218 512 192Q512 166 493.0 147.0Q474 128 448 128ZM1408 192Q1408 218 1427.0 237.0Q1446 256 1472 256Q1484 256 1495.0 255.5Q1506 255 1517 255Q1547 255 1574.0 261.5Q1601 268 1626 293Q1652 319 1658.0 345.5Q1664 372 1664 403V448Q1664 474 1683.0 493.0Q1702 512 1728 512Q1754 512 1773.0 493.0Q1792 474 1792 448V379Q1792 329 1771.5 283.5Q1751 238 1716.5 203.5Q1682 169 1636.5 148.5Q1591 128 1541 128Q1533 128 1523.5 127.5Q1514 127 1503 127Q1486 127 1469.0 129.0Q1452 131 1438.5 137.5Q1425 144 1416.5 157.0Q1408 170 1408 192ZM832 128Q806 128 787.0 147.0Q768 166 768 192Q768 218 787.0 237.0Q806 256 832 256H1088Q1114 256 1133.0 237.0Q1152 218 1152 192Q1152 166 1133.0 147.0Q1114 128 1088 128Z"/>
  </g>
</svg>