<?xml version="1.0" encoding="utf-8"?>
<svg xmlns="http://www.w3.org/2000/svg" width="16" height="16" viewBox="0 0 2048 2048">
  <g transform="translate(0, 2048) scale(1, -1)">
    <path fill="#000000" d="M1920 192Q1920 166 1901.0 147.0Q1882 128 1856 128H1408Q1408 101 1398.0 78.0Q1388 55 1370.5 37.5Q1353 20 1330.0 10.0Q1307 0 1280 0H640Q613 0 589.5 10.0Q566 20 549.0 37.0Q532 54 522.0 77.5Q512 101 512 128H64Q38 128 19.0 147.0Q0 166 0 192Q0 218 19.0 237.0Q38 256 64 256H512Q512 309 549 346Q587 384 640 384H768Q768 411 778.0 434.0Q788 457 805.5 474.5Q823 492 846.0 502.0Q869 512 896 512V640H763Q713 640 667.5 660.5Q622 681 587.5 715.5Q553 750 532.5 795.5Q512 841 512 891V1797Q512 1847 532.5 1892.5Q553 1938 587.5 1972.5Q622 2007 667.5 2027.5Q713 2048 763 2048H1157Q1207 2048 1252.5 2027.5Q1298 2007 1332.5 1972.5Q1367 1938 1387.5 1892.5Q1408 1847 1408 1797V891Q1408 840 1387.5 795.0Q1367 750 1332.5 715.5Q1298 681 1252.5 661.0Q1207 641 1157 640Q1152 640 1146 640L1124 639Q1119 639 1113 639Q1090 639 1068.0 639.5Q1046 640 1024 640V512Q1050 512 1073.5 502.0Q1097 492 1114.5 474.5Q1132 457 1142.0 433.5Q1152 410 1152 384H1280Q1306 384 1329.0 374.0Q1352 364 1370 346Q1408 308 1408 256H1856Q1882 256 1901.0 237.0Q1920 218 1920 192ZM1152 768Q1179 768 1202.0 778.0Q1225 788 1242.5 805.5Q1260 823 1270.0 846.0Q1280 869 1280 896V1792Q1280 1818 1270.0 1841.5Q1260 1865 1242.5 1882.5Q1225 1900 1201.5 1910.0Q1178 1920 1152 1920H768Q741 1920 718.0 1910.0Q695 1900 677.5 1882.5Q660 1865 650.0 1842.0Q640 1819 640 1792V896Q640 869 650.0 845.5Q660 822 677.0 805.0Q694 788 717.5 778.0Q741 768 768 768ZM1056 1088Q1056 1048 1028.0 1020.0Q1000 992 960 992Q920 992 892.0 1020.0Q864 1048 864 1088Q864 1128 892.0 1156.0Q920 1184 960 1184Q1000 1184 1028.0 1156.0Q1056 1128 1056 1088ZM1280 128V256H1088Q1066 256 1053.0 264.5Q1040 273 1033.5 286.5Q1027 300 1025.0 316.5Q1023 333 1023 350Q1023 359 1023.5 367.5Q1024 376 1024 384H896V350Q896 333 894.0 316.5Q892 300 885.5 286.5Q879 273 866.5 264.5Q854 256 832 256H640V128Z"/>
  </g>
</svg>