<?xml version="1.0" encoding="utf-8"?>
<svg id="" width="16" height="16" style="width:16px;height:16px;" version="1.1" xmlns="http://www.w3.org/2000/svg" viewBox="0 0 2048 2048" enable-background="new 0 0 2048 2048" xml:space="preserve">
    <path fill="#ffffff" transform="translate(0, 150)" d="M2048 192 l0 1319 q0 39 -15 74.5 q-15 35.5 -41 61.5 q-26 26 -60.5 41.5 q-34.5 15.5 -74.5 15.5 q-16 0 -32 -2.5 q-16 -2.5 -30 -7.5 l-608 -203 q-23 59 -62.5 107 q-39.5 48 -91 82.5 q-51.5 34.5 -111 53.5 q-59.5 19 -122.5 19 q-83 0 -158.5 -32 q-75.5 -32 -132.5 -87.5 q-57 -55.5 -91 -129.5 q-34 -74 -34 -159 l0 -122 l-253 -84 q-60 -20 -95.5 -69.5 q-35.5 -49.5 -35.5 -112.5 l0 -322 q0 -33 10.5 -62.5 q10.5 -29.5 29.5 -54 q19 -24.5 45 -42.5 q26 -18 58 -26 l1664 -444 q24 -6 49 -6 q40 0 75 15 q35 15 61 41 q26 26 41 61 q15 35 15 75 ZM1920 192 q0 -27 -18.5 -45.5 q-18.5 -18.5 -45.5 -18.5 q-6 0 -16 2 l-1664 443 q-21 6 -34.5 23.5 q-13.5 17.5 -13.5 38.5 l0 322 q0 20 12.5 37 q12.5 17 31.5 23 l1664 555 q9 3 20 3 q26 0 45 -19 q19 -19 19 -45 l0 -1319 ZM1065 1450 l-553 -184 l0 76 q0 57 23 108 q23 51 62 90 q39 39 90 62 q51 23 108 23 q44 0 85 -12 q41 -12 76.5 -34.5 q35.5 -22.5 63 -55 q27.5 -32.5 45.5 -73.5 Z"/>
</svg>