<?xml version="1.0" encoding="utf-8"?>
<svg xmlns="http://www.w3.org/2000/svg" width="16" height="16" viewBox="0 0 2048 2048">
  <g transform="translate(0, 2048) scale(1, -1)">
    <path fill="#ffffff" d="M251 256Q201 256 155.5 276.5Q110 297 75.5 331.5Q41 366 20.5 411.5Q0 457 0 507V1541Q0 1591 20.5 1636.5Q41 1682 75.5 1716.5Q110 1751 155.5 1771.5Q201 1792 251 1792H1797Q1847 1792 1892.5 1771.5Q1938 1751 1972.5 1716.5Q2007 1682 2027.5 1636.5Q2048 1591 2048 1541V507Q2048 457 2027.5 411.5Q2007 366 1972.5 331.5Q1938 297 1892.5 276.5Q1847 256 1797 256ZM1792 384Q1819 384 1842.0 394.0Q1865 404 1882.5 421.5Q1900 439 1910.0 462.0Q1920 485 1920 512V1536Q1920 1562 1910.0 1585.5Q1900 1609 1882.5 1626.5Q1865 1644 1841.5 1654.0Q1818 1664 1792 1664H256Q229 1664 206.0 1654.0Q183 1644 165.5 1626.5Q148 1609 138.0 1586.0Q128 1563 128 1536V512Q128 485 138.0 461.5Q148 438 165.0 421.0Q182 404 205.5 394.0Q229 384 256 384ZM384 1029Q384 1079 404.5 1124.5Q425 1170 459.5 1204.5Q494 1239 539.5 1259.5Q585 1280 635 1280H1413Q1465 1280 1510.5 1259.0Q1556 1238 1590.0 1203.0Q1624 1168 1644.0 1121.5Q1664 1075 1664 1024Q1664 971 1643.5 924.5Q1623 878 1588.5 843.5Q1554 809 1507.0 788.5Q1460 768 1408 768Q1357 768 1310.5 788.0Q1264 808 1229.0 842.0Q1194 876 1173.0 921.5Q1152 967 1152 1019Q1152 1054 1160.0 1088.0Q1168 1122 1186 1152H862Q880 1122 888.0 1088.0Q896 1054 896 1019Q896 967 875.0 921.5Q854 876 819.0 842.0Q784 808 737.5 788.0Q691 768 640 768Q586 768 539.0 789.0Q492 810 457.5 845.5Q423 881 403.5 928.5Q384 976 384 1029ZM768 1024Q768 1050 758.0 1073.5Q748 1097 730.5 1114.5Q713 1132 689.5 1142.0Q666 1152 640 1152Q613 1152 590.0 1142.0Q567 1132 549.5 1114.5Q532 1097 522.0 1074.0Q512 1051 512 1024Q512 997 522.0 973.5Q532 950 549.0 933.0Q566 916 589.5 906.0Q613 896 640 896Q667 896 690.0 906.0Q713 916 730.5 933.5Q748 951 758.0 974.0Q768 997 768 1024ZM1536 1024Q1536 1050 1526.0 1073.5Q1516 1097 1498.5 1114.5Q1481 1132 1457.5 1142.0Q1434 1152 1408 1152Q1381 1152 1358.0 1142.0Q1335 1132 1317.5 1114.5Q1300 1097 1290.0 1074.0Q1280 1051 1280 1024Q1280 997 1290.0 973.5Q1300 950 1317.0 933.0Q1334 916 1357.5 906.0Q1381 896 1408 896Q1435 896 1458.0 906.0Q1481 916 1498.5 933.5Q1516 951 1526.0 974.0Q1536 997 1536 1024Z"/>
  </g>
</svg>