<?xml version="1.0" encoding="utf-8"?>
<svg xmlns="http://www.w3.org/2000/svg" height="16" width="16" viewBox="0 0 16 16">
  <g>
    <path id="path1" transform="rotate(0,8,8) translate(0,0.5) scale(0.166666666666667,0.166666666666667)  " fill="#ffffff" d="M3,72L93,72 94.13671875,72.22265625 95.109375,72.890625 95.77734375,73.86328125 96,75 95.77734375,76.13671875 95.109375,77.109375 94.13671875,77.77734375 93,78 3,78 1.86328125,77.77734375 0.890625,77.109375 0.22265625,76.13671875 0,75 0.22265625,73.86328125 0.890625,72.890625 1.86328125,72.22265625 3,72z M3,42L93,42 94.13671875,42.2226600646973 95.109375,42.890625 95.77734375,43.8632850646973 96,45 95.77734375,46.1367225646973 95.109375,47.109375 94.13671875,47.77734375 93,48 3,48 1.86328125,47.77734375 0.890625,47.109375 0.22265625,46.1367225646973 0,45 0.22265625,43.8632850646973 0.890625,42.890625 1.86328125,42.2226600646973 3,42z M3,12L93,12 94.13671875,12.22265625 95.109375,12.890625 95.77734375,13.86328125 96,15 95.77734375,16.13671875 95.109375,17.109375 94.13671875,17.77734375 93,18 3,18 1.86328125,17.77734375 0.890625,17.109375 0.22265625,16.13671875 0,15 0.22265625,13.86328125 0.890625,12.890625 1.86328125,12.22265625 3,12z" />
  </g>
</svg>
