<?xml version="1.0" encoding="utf-8"?>
<svg xmlns="http://www.w3.org/2000/svg" width="16" height="16" viewBox="0 0 2048 2048">
  <g transform="translate(0, 2048) scale(1, -1)">
    <path fill="#000000" d="M1728 64Q1728 38 1709.0 19.0Q1690 0 1664 0Q1551 0 1443.5 33.0Q1336 66 1243.5 126.5Q1151 187 1078.0 272.0Q1005 357 960 461Q915 357 842.0 272.0Q769 187 676.5 126.5Q584 66 476.5 33.0Q369 0 256 0Q230 0 211.0 19.0Q192 38 192 64Q192 90 211.0 109.0Q230 128 256 128Q429 128 577 214Q652 257 711.0 317.0Q770 377 811.0 448.5Q852 520 874.0 601.0Q896 682 896 768V1830L493 1427Q474 1408 448 1408Q422 1408 403.0 1427.0Q384 1446 384 1472Q384 1498 403 1517L915 2029Q934 2048 960 2048Q986 2048 1005 2029L1517 1517Q1536 1498 1536 1472Q1536 1446 1517.0 1427.0Q1498 1408 1472 1408Q1446 1408 1427 1427L1024 1830V768Q1024 682 1046.0 601.0Q1068 520 1109.0 448.5Q1150 377 1209.0 317.0Q1268 257 1343 214Q1491 128 1664 128Q1690 128 1709.0 109.0Q1728 90 1728 64Z"/>
  </g>
</svg>