<?xml version="1.0" encoding="utf-8"?>
<svg xmlns="http://www.w3.org/2000/svg" width="16" height="16" viewBox="0 0 2048 2048">
  <g transform="translate(0, 2048) scale(1, -1)">
    <path fill="#000000" d="M640 1601V1672Q640 1750 671.0 1818.5Q702 1887 755.0 1938.0Q808 1989 877.5 2018.5Q947 2048 1024 2048Q1101 2048 1170.5 2018.5Q1240 1989 1293.0 1938.0Q1346 1887 1377.0 1818.5Q1408 1750 1408 1672V1620L1176 1455L928 1765Q855 1724 783.5 1683.5Q712 1643 640 1601ZM64 1920Q64 1946 83.0 1965.0Q102 1984 128 1984Q143 1984 157 1977L413 1849Q429 1841 438.5 1825.0Q448 1809 448 1792Q448 1766 429.0 1747.0Q410 1728 384 1728Q369 1728 355 1735L99 1863Q83 1871 73.5 1887.0Q64 1903 64 1920ZM1664 1728Q1638 1728 1619.0 1747.0Q1600 1766 1600 1792Q1600 1809 1609.5 1825.0Q1619 1841 1635 1849L1891 1977Q1905 1984 1920 1984Q1946 1984 1965.0 1965.0Q1984 1946 1984 1920Q1984 1903 1974.5 1887.0Q1965 1871 1949 1863L1693 1735Q1679 1728 1664 1728ZM448 1408Q448 1391 438.5 1375.0Q429 1359 413 1351L157 1223Q143 1216 128 1216Q102 1216 83.0 1235.0Q64 1254 64 1280Q64 1297 73.5 1313.0Q83 1329 99 1337L355 1465Q369 1472 384 1472Q410 1472 429.0 1453.0Q448 1434 448 1408ZM1984 1280Q1984 1254 1965.0 1235.0Q1946 1216 1920 1216Q1905 1216 1891 1223L1635 1351Q1619 1359 1609.5 1375.0Q1600 1391 1600 1408Q1600 1434 1619.0 1453.0Q1638 1472 1664 1472Q1679 1472 1693 1465L1949 1337Q1965 1329 1974.5 1313.0Q1984 1297 1984 1280ZM640 1306 864 1435 1128 1105Q1198 1156 1267.5 1205.5Q1337 1255 1408 1306V1016Q1408 938 1377.0 869.5Q1346 801 1293.0 750.0Q1240 699 1170.5 669.5Q1101 640 1024 640Q947 640 877.5 669.5Q808 699 755.0 750.0Q702 801 671.0 869.5Q640 938 640 1016ZM1728 1024Q1728 887 1679.0 765.0Q1630 643 1544.0 549.0Q1458 455 1341.0 395.0Q1224 335 1088 323V64Q1088 38 1069.0 19.0Q1050 0 1024 0Q998 0 979.0 19.0Q960 38 960 64V323Q824 335 707.0 395.0Q590 455 504.0 549.0Q418 643 369.0 765.0Q320 887 320 1024Q320 1050 339.0 1069.0Q358 1088 384 1088Q410 1088 429.0 1069.0Q448 1050 448 1024Q448 908 492.0 803.5Q536 699 617 617Q699 535 803.5 491.5Q908 448 1024 448Q1140 448 1244.5 491.5Q1349 535 1431 617Q1512 699 1556.0 803.5Q1600 908 1600 1024Q1600 1050 1619.0 1069.0Q1638 1088 1664 1088Q1690 1088 1709.0 1069.0Q1728 1050 1728 1024Z"/>
  </g>
</svg>