<?xml version="1.0" encoding="utf-8"?>
<svg xmlns="http://www.w3.org/2000/svg" width="16" height="16" viewBox="0 0 2048 2048">
  <g transform="translate(0, 2048) scale(1, -1)">
    <path fill="#000000" d="M256 1735Q256 1800 282.0 1857.0Q308 1914 352.0 1956.5Q396 1999 454.0 2023.5Q512 2048 576 2048Q640 2048 698.0 2023.5Q756 1999 800.0 1956.5Q844 1914 870.0 1857.0Q896 1800 896 1735V1337Q896 1272 870.0 1215.0Q844 1158 800.0 1115.5Q756 1073 698.0 1048.5Q640 1024 576 1024Q512 1024 454.0 1048.5Q396 1073 352.0 1115.5Q308 1158 282.0 1215.0Q256 1272 256 1337ZM384 1344Q384 1305 399.0 1270.0Q414 1235 440.5 1208.5Q467 1182 502.0 1167.0Q537 1152 576 1152Q615 1152 650.0 1167.0Q685 1182 711.5 1208.5Q738 1235 753.0 1270.0Q768 1305 768 1344V1728Q768 1767 753.0 1802.0Q738 1837 711.5 1863.5Q685 1890 650.0 1905.0Q615 1920 576 1920Q537 1920 502.0 1905.0Q467 1890 440.5 1863.5Q414 1837 399.0 1802.0Q384 1767 384 1728ZM2560 1345Q2560 1335 2557 1326L2173 46Q2167 26 2150.5 13.0Q2134 0 2112 0Q2092 0 2075.5 12.0Q2059 24 2052 42L1872 521L1330 642Q1309 647 1294.5 664.5Q1280 682 1280 704Q1280 721 1289.0 736.5Q1298 752 1313 760L2465 1400Q2471 1404 2480.0 1406.0Q2489 1408 2496 1408Q2522 1408 2541.0 1389.5Q2560 1371 2560 1345ZM1152 1344Q1152 1234 1113.0 1135.5Q1074 1037 1005.0 960.0Q936 883 842.5 833.0Q749 783 640 771V576Q640 550 621.0 531.0Q602 512 576 512Q550 512 531.0 531.0Q512 550 512 576V771Q403 783 309.5 833.0Q216 883 147.0 960.0Q78 1037 39.0 1135.5Q0 1234 0 1344Q0 1370 19.0 1389.0Q38 1408 64 1408Q90 1408 109.0 1389.0Q128 1370 128 1344Q128 1250 163.0 1169.0Q198 1088 258.5 1028.0Q319 968 401.0 934.0Q483 900 576 900Q669 900 751.0 934.0Q833 968 893.5 1028.0Q954 1088 989.0 1169.0Q1024 1250 1024 1344Q1024 1370 1043.0 1389.0Q1062 1408 1088 1408Q1114 1408 1133.0 1389.0Q1152 1370 1152 1344ZM2105 264 2390 1212 1522 730 1934 639Q1949 635 1962.0 624.5Q1975 614 1980 599Z"/>
  </g>
</svg>