<?xml version="1.0" encoding="utf-8"?>
<svg xmlns="http://www.w3.org/2000/svg" width="16" height="16" viewBox="0 0 2048 2048">
  <g transform="translate(0, 2048) scale(1, -1)">
    <path fill="#000000" d="M640 1672Q640 1750 671.0 1818.5Q702 1887 755.0 1938.0Q808 1989 877.5 2018.5Q947 2048 1024 2048Q1101 2048 1170.5 2018.5Q1240 1989 1293.0 1938.0Q1346 1887 1377.0 1818.5Q1408 1750 1408 1672V1016Q1408 941 1377.5 872.5Q1347 804 1295.5 752.5Q1244 701 1175.5 670.5Q1107 640 1032 640Q954 640 883.0 668.5Q812 697 758.0 747.0Q704 797 672.0 866.0Q640 935 640 1016ZM1088 323V64Q1088 38 1069.0 19.0Q1050 0 1024 0Q998 0 979.0 19.0Q960 38 960 64V323Q824 336 707.0 395.5Q590 455 504.0 549.0Q418 643 369.0 765.0Q320 887 320 1024Q320 1050 339.0 1069.0Q358 1088 384 1088Q410 1088 429.0 1069.0Q448 1050 448 1024Q448 948 467.5 874.5Q487 801 525 735Q564 668 618.0 615.0Q672 562 736.5 525.0Q801 488 874.0 468.0Q947 448 1024 448Q1102 448 1174.5 468.0Q1247 488 1311.5 525.0Q1376 562 1429.5 615.0Q1483 668 1522 735Q1600 868 1600 1024Q1600 1050 1619.0 1069.0Q1638 1088 1664 1088Q1690 1088 1709.0 1069.0Q1728 1050 1728 1024Q1728 933 1705.5 848.0Q1683 763 1642.5 688.0Q1602 613 1544.0 550.0Q1486 487 1415.0 439.0Q1344 391 1261.0 361.0Q1178 331 1088 323Z"/>
  </g>
</svg>