<?xml version="1.0" encoding="utf-8"?>
<svg xmlns="http://www.w3.org/2000/svg" width="16" height="16" viewBox="0 0 2048 2048">
  <g transform="translate(0, 2048) scale(1, -1)">
    <path fill="#000000" d="M768 1552 640 1679Q641 1756 673.0 1823.0Q705 1890 757.5 1940.0Q810 1990 879.0 2019.0Q948 2048 1024 2048Q1101 2048 1170.5 2018.5Q1240 1989 1293.0 1938.0Q1346 1887 1377.0 1818.5Q1408 1750 1408 1672V1024Q1408 999 1405.0 974.0Q1402 949 1395 925L1280 1040V1669Q1280 1721 1259.0 1766.5Q1238 1812 1203.0 1846.0Q1168 1880 1121.5 1900.0Q1075 1920 1024 1920Q972 1920 926.0 1900.0Q880 1880 845.0 1846.0Q810 1812 789.5 1766.5Q769 1721 768 1669Q768 1664 768 1659L767 1640V1610L768 1572Q768 1562 768 1552ZM2048 64Q2048 38 2029.0 19.0Q2010 0 1984 0Q1958 0 1939 19L19 1939Q0 1958 0 1984Q0 2010 19.0 2029.0Q38 2048 64 2048Q90 2048 109 2029L2029 109Q2048 90 2048 64ZM1154 803 1247 711Q1195 674 1137.0 657.0Q1079 640 1016 640Q941 640 872.5 670.5Q804 701 752.5 752.5Q701 804 670.5 872.5Q640 941 640 1016V1317L768 1189V1019Q768 969 788.5 923.5Q809 878 843.5 843.5Q878 809 923.5 788.5Q969 768 1019 768Q1056 768 1089.0 776.0Q1122 784 1154 803ZM1024 448Q1123 448 1215.0 480.5Q1307 513 1384 574L1474 483Q1392 414 1293.0 373.5Q1194 333 1088 323V64Q1088 38 1069.0 19.0Q1050 0 1024 0Q998 0 979.0 19.0Q960 38 960 64V323Q869 331 786.5 361.0Q704 391 633.0 438.5Q562 486 504.0 549.5Q446 613 405.0 688.0Q364 763 342.0 848.0Q320 933 320 1024Q320 1050 339.0 1069.0Q358 1088 384 1088Q410 1088 429.0 1069.0Q448 1050 448 1024Q448 909 492.0 803.5Q536 698 617 617Q698 536 803.5 492.0Q909 448 1024 448ZM1639 681 1544 776Q1571 835 1585.5 897.0Q1600 959 1600 1024Q1600 1050 1619.0 1069.0Q1638 1088 1664 1088Q1690 1088 1709.0 1069.0Q1728 1050 1728 1024Q1728 934 1706.0 846.5Q1684 759 1639 681Z"/>
  </g>
</svg>