<?xml version="1.0" encoding="utf-8"?>
<svg xmlns="http://www.w3.org/2000/svg" width="16" height="16" viewBox="0 0 2048 2048">
  <g transform="translate(0, 2048) scale(1, -1)">
    <path fill="#000000" d="M384 1672Q384 1750 415.0 1818.5Q446 1887 499.0 1938.0Q552 1989 621.5 2018.5Q691 2048 768 2048Q845 2048 914.5 2018.5Q984 1989 1037.0 1938.0Q1090 1887 1121.0 1818.5Q1152 1750 1152 1672V1239Q1118 1222 1086.0 1202.5Q1054 1183 1024 1160V1669Q1024 1721 1003.0 1766.5Q982 1812 947.0 1846.0Q912 1880 865.5 1900.0Q819 1920 768 1920Q717 1920 670.5 1900.0Q624 1880 589.0 1846.0Q554 1812 533.0 1766.5Q512 1721 512 1669V1019Q512 969 532.0 923.5Q552 878 586.5 843.5Q621 809 666.0 788.5Q711 768 761 768Q752 737 747.0 705.0Q742 673 739 641Q667 645 602.5 677.0Q538 709 489.5 760.5Q441 812 412.5 878.5Q384 945 384 1017ZM2048 576Q2048 457 2002.5 352.0Q1957 247 1879.0 169.0Q1801 91 1696.0 45.5Q1591 0 1472 0Q1352 0 1247.0 45.0Q1142 90 1064.0 168.0Q986 246 941.0 351.0Q896 456 896 576Q896 695 941.5 800.0Q987 905 1065.0 983.0Q1143 1061 1248.0 1106.5Q1353 1152 1472 1152Q1551 1152 1624.5 1131.5Q1698 1111 1762.0 1073.5Q1826 1036 1879.0 983.0Q1932 930 1969.5 866.0Q2007 802 2027.5 728.5Q2048 655 2048 576ZM832 384V64Q832 38 813.0 19.0Q794 0 768 0Q742 0 723.0 19.0Q704 38 704 64V323Q568 335 451.0 395.0Q334 455 248.0 549.0Q162 643 113.0 765.0Q64 887 64 1024Q64 1050 83.0 1069.0Q102 1088 128 1088Q154 1088 173.0 1069.0Q192 1050 192 1024Q192 909 236.0 803.5Q280 698 361 617Q439 539 538.5 496.0Q638 453 747 448L748 445Q757 448 768 448Q794 448 813.0 429.0Q832 410 832 384ZM1114 308 1740 934Q1679 981 1610.0 1002.5Q1541 1024 1464 1024Q1376 1024 1296.5 988.0Q1217 952 1156.5 891.5Q1096 831 1060.0 751.5Q1024 672 1024 584Q1024 507 1045.5 438.0Q1067 369 1114 308ZM1830 844 1204 218Q1265 171 1334.0 149.5Q1403 128 1480 128Q1568 128 1647.5 164.0Q1727 200 1787.5 260.5Q1848 321 1884.0 400.5Q1920 480 1920 568Q1920 645 1898.5 714.0Q1877 783 1830 844Z"/>
  </g>
</svg>