<?xml version="1.0" encoding="utf-8"?>
<svg xmlns="http://www.w3.org/2000/svg" width="16" height="16" viewBox="0 0 2048 2048">
  <g transform="translate(0, 2048) scale(1, -1)">
    <path fill="#ffffff" d="M640 1672Q640 1750 671.0 1818.5Q702 1887 755.0 1938.0Q808 1989 877.5 2018.5Q947 2048 1024 2048Q1101 2048 1170.5 2018.5Q1240 1989 1293.0 1938.0Q1346 1887 1377.0 1818.5Q1408 1750 1408 1672V1016Q1408 938 1377.0 869.5Q1346 801 1293.0 750.0Q1240 699 1170.5 669.5Q1101 640 1024 640Q947 640 877.5 669.5Q808 699 755.0 750.0Q702 801 671.0 869.5Q640 938 640 1016ZM768 1280H1280V1669Q1280 1721 1259.0 1766.5Q1238 1812 1203.0 1846.0Q1168 1880 1121.5 1900.0Q1075 1920 1024 1920Q973 1920 926.5 1900.0Q880 1880 845.0 1846.0Q810 1812 789.0 1766.5Q768 1721 768 1669ZM1088 323V64Q1088 38 1069.0 19.0Q1050 0 1024 0Q998 0 979.0 19.0Q960 38 960 64V323Q824 335 707.0 395.0Q590 455 504.0 549.0Q418 643 369.0 765.0Q320 887 320 1024Q320 1050 339.0 1069.0Q358 1088 384 1088Q410 1088 429.0 1069.0Q448 1050 448 1024Q448 908 492.0 803.5Q536 699 617 617Q699 535 803.5 491.5Q908 448 1024 448Q1140 448 1244.5 491.5Q1349 535 1431 617Q1512 699 1556.0 803.5Q1600 908 1600 1024Q1600 1050 1619.0 1069.0Q1638 1088 1664 1088Q1690 1088 1709.0 1069.0Q1728 1050 1728 1024Q1728 887 1679.0 765.0Q1630 643 1544.0 549.0Q1458 455 1341.0 395.0Q1224 335 1088 323Z"/>
  </g>
</svg>