<?xml version="1.0" encoding="utf-8"?>
<svg xmlns="http://www.w3.org/2000/svg" width="16" height="16" viewBox="0 0 2048 2048">
  <g transform="translate(0, 2048) scale(1, -1)">
    <path fill="#000000" d="M640 1672Q640 1750 671.0 1818.5Q702 1887 755.0 1938.0Q808 1989 877.5 2018.5Q947 2048 1024 2048Q1101 2048 1170.5 2018.5Q1240 1989 1293.0 1938.0Q1346 1887 1377.0 1818.5Q1408 1750 1408 1672V1016Q1408 938 1377.0 869.5Q1346 801 1293.0 750.0Q1240 699 1170.5 669.5Q1101 640 1024 640Q947 640 877.5 669.5Q808 699 755.0 750.0Q702 801 671.0 869.5Q640 938 640 1016ZM1152 267V128Q1152 75 1114 37Q1077 0 1024 0Q970 0 933 37Q896 74 896 128V267Q758 291 640.5 359.5Q523 428 437.5 528.5Q352 629 304.0 756.0Q256 883 256 1024Q256 1051 266.0 1074.0Q276 1097 293.5 1114.5Q311 1132 334.0 1142.0Q357 1152 384 1152Q436 1152 474 1114Q492 1096 502.0 1073.0Q512 1050 512 1024Q512 918 552.0 824.5Q592 731 661.5 661.5Q731 592 824.5 552.0Q918 512 1024 512Q1130 512 1223.5 552.0Q1317 592 1386.5 661.5Q1456 731 1496.0 824.5Q1536 918 1536 1024Q1536 1051 1546.0 1074.0Q1556 1097 1573.5 1114.5Q1591 1132 1614.0 1142.0Q1637 1152 1664 1152Q1690 1152 1713.5 1142.0Q1737 1132 1754.5 1114.5Q1772 1097 1782.0 1073.5Q1792 1050 1792 1024Q1792 883 1744.0 756.0Q1696 629 1610.5 528.5Q1525 428 1407.5 359.5Q1290 291 1152 267Z"/>
  </g>
</svg>