<?xml version="1.0" encoding="utf-8"?>
<svg id="" width="16" height="16" style="width:16px;height:16px;" version="1.1"
    xmlns="http://www.w3.org/2000/svg" viewBox="0 0 2048 2048" enable-background="new 0 0 2048 2048"
    xml:space="preserve"><path fill="#ffffff" d="M640 376 q0 -78 31 -146.5 q31 -68.5 83.5 -119.5 q52.5 -51 122.5 -80.5 q70 -29.5 147 -29.5 q77 0 147 29.5 q70 29.5 122.5 80.5 q52.5 51 83.5 119.5 q31 68.5 31 146.5 l0 656 q0 75 -30.5 143.5 q-30.5 68.5 -82 120 q-51.5 51.5 -120 82 q-68.5 30.5 -143.5 30.5 q-79 0 -150 -28.5 q-71 -28.5 -125 -79 q-54 -50.5 -85.5 -119 q-31.5 -68.5 -31.5 -149.5 l0 -656 ZM1019 1280 q52 0 99.5 -19 q47.5 -19 83.5 -53 q36 -34 57 -80 q21 -46 21 -99 l0 -645 q0 -51 -20 -97.5 q-20 -46.5 -54 -81.5 q-34 -35 -79.5 -56 q-45.5 -21 -97.5 -21 q-52 0 -99.5 19.5 q-47.5 19.5 -83.5 53 q-36 33.5 -57 79.5 q-21 46 -21 99 l0 645 q0 51 20 97.5 q20 46.5 54 81.5 q34 35 79.5 56 q45.5 21 97.5 21 ZM1088 1725 l0 259 q0 26 -19 45 q-19 19 -45 19 q-26 0 -45 -19 q-19 -19 -19 -45 l0 -259 q-136 -13 -253 -72.5 q-117 -59.5 -203 -153.5 q-86 -94 -135 -216 q-49 -122 -49 -259 q0 -26 19 -45 q19 -19 45 -19 q26 0 45 19 q19 19 19 45 q0 76 19.5 149.5 q19.5 73.5 57.5 139.5 q39 66 93 119.5 q54 53.5 118.5 90.5 q64.5 37 137.5 57 q73 20 150 20 q77 0 150 -20 q73 -20 137.5 -57 q64.5 -37 118 -90 q53.5 -53 92.5 -120 q39 -66 58.5 -139 q19.5 -73 19.5 -150 q0 -26 19 -45 q19 -19 45 -19 q26 0 45 19 q19 19 19 45 q0 91 -22.5 176 q-22.5 85 -63 160 q-40.5 75 -98.5 138 q-58 63 -129 111 q-71 48 -154 78 q-83 30 -173 38 Z"/></svg>