<?xml version="1.0" encoding="utf-8"?>
<svg xmlns="http://www.w3.org/2000/svg" width="16" height="16" viewBox="0 0 2048 2048">
  <g transform="translate(0, 2048) scale(1, -1)">
    <path fill="#000000" d="M384 1672Q384 1750 415.0 1818.5Q446 1887 499.0 1938.0Q552 1989 621.5 2018.5Q691 2048 768 2048Q845 2048 914.5 2018.5Q984 1989 1037.0 1938.0Q1090 1887 1121.0 1818.5Q1152 1750 1152 1672V1016Q1152 938 1121.0 869.5Q1090 801 1037.0 750.0Q984 699 914.5 669.5Q845 640 768 640Q691 640 621.5 669.5Q552 699 499.0 750.0Q446 801 415.0 869.5Q384 938 384 1016ZM512 1019Q512 967 533.0 921.5Q554 876 589.0 842.0Q624 808 670.5 788.0Q717 768 768 768Q819 768 865.5 788.0Q912 808 947.0 842.0Q982 876 1003.0 921.5Q1024 967 1024 1019V1669Q1024 1721 1003.0 1766.5Q982 1812 947.0 1846.0Q912 1880 865.5 1900.0Q819 1920 768 1920Q717 1920 670.5 1900.0Q624 1880 589.0 1846.0Q554 1812 533.0 1766.5Q512 1721 512 1669ZM1472 0Q1400 0 1330.0 18.0Q1260 36 1196.5 70.0Q1133 104 1079.5 152.5Q1026 201 988 263Q983 271 983 281Q983 298 995.5 309.0Q1008 320 1024 320Q1179 320 1312 397Q1379 436 1432.0 490.0Q1485 544 1522.5 608.5Q1560 673 1580.0 746.0Q1600 819 1600 896Q1600 933 1595.0 967.5Q1590 1002 1582 1038Q1580 1048 1580 1056Q1580 1081 1596.0 1103.0Q1612 1125 1639 1125Q1648 1125 1657 1122Q1743 1093 1815.0 1039.5Q1887 986 1938.5 914.5Q1990 843 2019.0 758.0Q2048 673 2048 583Q2048 462 2003.5 356.0Q1959 250 1881.5 171.0Q1804 92 1698.5 46.0Q1593 0 1472 0ZM832 331Q832 323 830.0 315.5Q828 308 826 300Q823 274 823 248Q823 227 827.5 203.0Q832 179 832 167V64Q832 38 813.0 19.0Q794 0 768 0Q742 0 723.0 19.0Q704 38 704 64V323Q568 335 451.0 395.0Q334 455 248.0 549.0Q162 643 113.0 765.0Q64 887 64 1024Q64 1050 83.0 1069.0Q102 1088 128 1088Q154 1088 173.0 1069.0Q192 1050 192 1024Q192 909 236.0 803.5Q280 698 361 617Q442 536 547.5 492.0Q653 448 768 448Q790 448 803.0 439.5Q816 431 822.5 417.5Q829 404 830.5 387.0Q832 370 832 353Z"/>
  </g>
</svg>