<?xml version="1.0" encoding="utf-8"?>
<svg xmlns="http://www.w3.org/2000/svg" width="16" height="16" viewBox="0 0 2048 2048">
  <g transform="translate(0, 2048) scale(1, -1)">
    <path fill="#000000" d="M1544 1920Q1619 1920 1687.5 1889.5Q1756 1859 1807.5 1807.5Q1859 1756 1889.5 1687.5Q1920 1619 1920 1544V504Q1920 429 1889.5 360.5Q1859 292 1807.5 240.5Q1756 189 1687.5 158.5Q1619 128 1544 128H1216Q1190 128 1171.0 147.0Q1152 166 1152 192Q1152 218 1171.0 237.0Q1190 256 1216 256H1541Q1591 256 1636.5 276.5Q1682 297 1716.5 331.5Q1751 366 1771.5 411.5Q1792 457 1792 507V1024H1275Q1223 1024 1177.5 1045.0Q1132 1066 1098.0 1101.0Q1064 1136 1044.0 1182.5Q1024 1229 1024 1280V1792H507Q455 1792 409.5 1771.0Q364 1750 330.0 1715.0Q296 1680 276.0 1633.5Q256 1587 256 1536V1216Q256 1190 237.0 1171.0Q218 1152 192 1152Q166 1152 147.0 1171.0Q128 1190 128 1216V1544Q128 1619 158.5 1687.5Q189 1756 240.5 1807.5Q292 1859 360.5 1889.5Q429 1920 504 1920ZM1792 1152V1541Q1792 1591 1771.5 1636.5Q1751 1682 1716.5 1716.5Q1682 1751 1636.5 1771.5Q1591 1792 1541 1792H1152V1280Q1152 1253 1162.0 1229.5Q1172 1206 1189.0 1189.0Q1206 1172 1229.5 1162.0Q1253 1152 1280 1152ZM832 896Q858 896 877.0 877.0Q896 858 896 832V192Q896 166 877.0 147.0Q858 128 832 128Q806 128 787.0 147.0Q768 166 768 192V678L237 147Q218 128 192 128Q166 128 147.0 147.0Q128 166 128 192Q128 218 147 237L678 768H192Q166 768 147.0 787.0Q128 806 128 832Q128 858 147.0 877.0Q166 896 192 896Z"/>
  </g>
</svg>