<?xml version="1.0" encoding="utf-8"?>
<svg xmlns="http://www.w3.org/2000/svg" height="16" width="16" viewBox="0 0 16 16">
  <g>
    <path id="path1" transform="rotate(0,8,8) translate(0,0) scale(0.0333333333333333,0.0333333333333333)  " fill="#FFFFFF" d="M48,288L51.140625,288.296875 54.0625,289.1875 56.765625,290.671875 59.2500038146973,292.75 61.328125,295.234375 62.8125,297.9375 63.703125,300.859375 64,304 64,425.5 196.75,292.75 199.234375,290.671875 201.9375,289.1875 204.859375,288.296875 208,288 211.140609741211,288.296875 214.062484741211,289.1875 216.765609741211,290.671875 219.25,292.75 221.328125,295.234375 222.8125,297.9375 223.703125,300.859375 224,304 223.703125,307.140625 222.8125,310.0625 221.328125,312.765625 219.25,315.25 86.5,448 208,448 211.140609741211,448.296875 214.062484741211,449.1875 216.765609741211,450.671875 219.25,452.75 221.328125,455.234375 222.8125,457.9375 223.703125,460.859375 224,464 223.703125,467.140625 222.8125,470.0625 221.328125,472.765625 219.25,475.25 216.765609741211,477.328125 214.062484741211,478.8125 211.140609741211,479.703125 208,480 48,480 44.859375,479.703125 41.9375,478.8125 39.234375,477.328125 36.75,475.25 34.671875,472.765625 33.1875,470.0625 32.296875,467.140625 32,464 32,304 32.296875,300.859375 33.1875,297.9375 34.671875,295.234375 36.75,292.75 39.234375,290.671875 41.9375,289.1875 44.859375,288.296875 48,288z M288,64L288,161.25 288.3203125,167.4296875 289.28125,173.468765258789 290.8828125,179.367202758789 293.125,185.125 295.90625,190.640625 299.125,195.8125 302.78125,200.640625 306.875,205.125 311.359375,209.21875 316.1875,212.875 321.359375,216.09375 326.875,218.875 332.6328125,221.117202758789 338.53125,222.71875 344.5703125,223.6796875 350.75,224 448,224 448,126.75 447.6796875,120.570320129395 446.71875,114.531265258789 445.1171875,108.632820129395 442.875,102.875 440.09375,97.3593826293945 436.875,92.1875076293945 433.21875,87.359375 429.125,82.875 424.640625,78.78125 419.8125,75.1250076293945 414.640625,71.9062576293945 409.125,69.125 403.3671875,66.8828201293945 397.46875,65.28125 391.4296875,64.3203125 385.25,64 288,64z M126,32L386,32 395.2734375,32.4765777587891 404.34375,33.9062690734863 413.2109375,36.2890739440918 421.875,39.625 430.171875,43.7656326293945 437.9375,48.5625114440918 445.171875,54.0156364440918 451.875,60.1250038146973 457.984375,66.8281326293945 463.4375,74.0625076293945 468.234375,81.8281326293945 472.375,90.125 475.7109375,98.7890701293945 478.093719482422,107.656257629395 479.523406982422,116.7265625 480,126 480,386 479.523406982422,395.2734375 478.093719482422,404.34375 475.7109375,413.2109375 472.375,421.875 468.234375,430.171875 463.4375,437.9375 457.984375,445.171875 451.875,451.875 445.171875,457.984375 437.9375,463.4375 430.171875,468.234375 421.875,472.375 413.2109375,475.7109375 404.34375,478.09375 395.2734375,479.5234375 386,480 304,480 300.859375,479.703125 297.9375,478.8125 295.234375,477.328125 292.75,475.25 290.671875,472.765625 289.1875,470.0625 288.296875,467.140625 288,464 288.296875,460.859375 289.1875,457.9375 290.671875,455.234375 292.75,452.75 295.234375,450.671875 297.9375,449.1875 300.859375,448.296875 304,448 385.25,448 391.4296875,447.6796875 397.46875,446.71875 403.3671875,445.1171875 409.125,442.875 414.640625,440.09375 419.8125,436.875 424.640625,433.21875 429.125,429.125 433.21875,424.640625 436.875,419.8125 440.09375,414.640625 442.875,409.125 445.1171875,403.3671875 446.71875,397.46875 447.6796875,391.4296875 448,385.25 448,256 350,256 340.3984375,255.515625 331.09375,254.0625 322.0859375,251.640640258789 313.375,248.25 305.0859375,244.03125 297.34375,239.125 290.1484375,233.53125 283.5,227.25 277.4609375,220.367202758789 272.09375,212.968765258789 267.3984375,205.0546875 263.375,196.625 260.1484375,187.820327758789 257.84375,178.781265258789 256.4609375,169.5078125 256,160 256,64 126.75,64 120.3515625,64.328125 114.15625,65.3125 108.1640625,66.953125 102.375,69.25 96.8671875,72.09375 91.71875,75.3750076293945 86.9296875,79.0937576293945 82.5,83.25 78.46875,87.8047103881836 74.875,92.7187805175781 71.71875,97.9922027587891 69,103.625 66.8125,109.507827758789 65.25,115.531272888184 64.3125,121.695327758789 64,128 64,208 63.703125,211.140625 62.8125,214.0625 61.328125,216.765625 59.2500038146973,219.25 56.765625,221.328140258789 54.0625,222.8125 51.140625,223.703125 48,224 44.859375,223.703125 41.9375,222.8125 39.234375,221.328140258789 36.75,219.25 34.671875,216.765625 33.1875,214.0625 32.296875,211.140625 32,208 32,126 32.4765625,116.7265625 33.90625,107.656257629395 36.2890625,98.7890701293945 39.625,90.125 43.765625,81.8281326293945 48.5625,74.0625076293945 54.015625,66.8281326293945 60.1250038146973,60.1250038146973 66.828125,54.0156364440918 74.0625,48.5625114440918 81.828125,43.7656326293945 90.125,39.625 98.7890548706055,36.2890739440918 107.656242370605,33.9062690734863 116.726554870605,32.4765777587891 126,32z" />
  </g>
</svg>

