<?xml version="1.0" encoding="utf-8"?>
<svg xmlns="http://www.w3.org/2000/svg" width="16" height="16" viewBox="0 0 2048 2048">
  <g transform="translate(0, 2048) scale(1, -1)">
    <path fill="#ffffff" d="M256 1408V1792H2048V640H1280V768H1920V1664H384V1408ZM1408 896H1280Q1280 1002 1239.5 1095.0Q1199 1188 1129.5 1257.5Q1060 1327 967.0 1367.5Q874 1408 768 1408V1536Q901 1536 1017.5 1486.0Q1134 1436 1221.0 1349.0Q1308 1262 1358.0 1145.5Q1408 1029 1408 896ZM1024 512V768H1152V512Q1152 485 1142.0 462.0Q1132 439 1114.5 421.5Q1097 404 1074.0 394.0Q1051 384 1024 384H128Q101 384 78.0 394.0Q55 404 37.5 421.5Q20 439 10.0 462.0Q0 485 0 512V1152Q0 1179 10.0 1202.0Q20 1225 37.5 1242.5Q55 1260 78.0 1270.0Q101 1280 128 1280H640V1152H128V512ZM768 1152V1280Q848 1280 918.0 1250.0Q988 1220 1040.0 1168.0Q1092 1116 1122.0 1046.0Q1152 976 1152 896H1024Q1024 949 1004.0 995.5Q984 1042 949.0 1077.0Q914 1112 867.5 1132.0Q821 1152 768 1152ZM768 896V1024Q795 1024 818.0 1014.0Q841 1004 858.5 986.5Q876 969 886.0 946.0Q896 923 896 896Z"/>
  </g>
</svg>