<?xml version="1.0" encoding="utf-8"?>
<svg xmlns="http://www.w3.org/2000/svg" width="16" height="16" viewBox="0 0 2048 2048">
  <g transform="translate(0, 2048) scale(1, -1)">
    <path fill="#ffffff" d="M1280 1792V1920Q1386 1920 1484.5 1892.5Q1583 1865 1668.0 1815.0Q1753 1765 1823.0 1695.0Q1893 1625 1943.0 1540.0Q1993 1455 2020.5 1356.5Q2048 1258 2048 1152H1920Q1920 1240 1897.0 1322.0Q1874 1404 1832.5 1475.0Q1791 1546 1732.5 1604.5Q1674 1663 1603.0 1704.5Q1532 1746 1450.0 1769.0Q1368 1792 1280 1792ZM1664 384V1024H1792V384Q1792 357 1782.0 334.0Q1772 311 1754.5 293.5Q1737 276 1714.0 266.0Q1691 256 1664 256H128Q101 256 78.0 266.0Q55 276 37.5 293.5Q20 311 10.0 334.0Q0 357 0 384V1536Q0 1563 10.0 1586.0Q20 1609 37.5 1626.5Q55 1644 78.0 1654.0Q101 1664 128 1664H1152V1536H128V384ZM1280 1536V1664Q1386 1664 1479.5 1624.0Q1573 1584 1642.5 1514.5Q1712 1445 1752.0 1351.5Q1792 1258 1792 1152H1664Q1664 1231 1634.0 1301.0Q1604 1371 1551.5 1423.5Q1499 1476 1429.0 1506.0Q1359 1536 1280 1536ZM1536 1152H1408Q1408 1179 1398.0 1202.0Q1388 1225 1370.5 1242.5Q1353 1260 1330.0 1270.0Q1307 1280 1280 1280V1408Q1333 1408 1379.5 1388.0Q1426 1368 1461.0 1333.0Q1496 1298 1516.0 1251.5Q1536 1205 1536 1152Z"/>
  </g>
</svg>