<?xml version="1.0" encoding="utf-8"?>
<svg id="" width="16" height="16" style="width:16px;height:16px;" version="1.1" xmlns="http://www.w3.org/2000/svg" viewBox="0 0 2048 2048" enable-background="new 0 0 2048 2048" xml:space="preserve">
    <path fill="#000" d="M2048 320 q0 26 -19 45 q-19 19 -45 19 l-326 0 q-11 55 -40.5 102 q-29.5 47 -71.5 81 q-42 34 -94 53.5 q-52 19.5 -108 19.5 q-56 0 -108 -19.5 q-52 -19.5 -94 -53.5 q-42 -34 -71.5 -81 q-29.5 -47 -40.5 -102 l-966 0 q-26 0 -45 -19 q-19 -19 -19 -45 q0 -26 19 -45 q19 -19 45 -19 l966 0 q11 -55 40.5 -102 q29.5 -47 71.5 -81 q42 -34 94 -53.5 q52 -19.5 108 -19.5 q56 0 108 19.5 q52 19.5 94 53.5 q42 34 71.5 81 q29.5 47 40.5 102 l326 0 q26 0 45 19 q19 19 19 45 ZM1536 320 q0 -39 -15 -74 q-15 -35 -41.5 -61.5 q-26.5 -26.5 -61.5 -41.5 q-35 -15 -74 -15 q-39 0 -74 15 q-35 15 -61.5 41.5 q-26.5 26.5 -41.5 61.5 q-15 35 -15 74 q0 39 15 74 q15 35 41.5 61.5 q26.5 26.5 61.5 41.5 q35 15 74 15 q39 0 74 -15 q35 -15 61.5 -41.5 q26.5 -26.5 41.5 -61.5 q15 -35 15 -74 ZM1984 1472 q0 79 -12 157 q-12 78 -40 153 q-6 17 -15.5 40.5 q-9.5 23.5 -23 45.5 q-13.5 22 -30.5 37 q-17 15 -39 15 q-27 0 -45.5 -18.5 q-18.5 -18.5 -18.5 -45.5 q0 -7 1.5 -15 q1.5 -8 4.5 -14 q13 -23 25 -43 q12 -20 21 -46 q23 -64 33.5 -131 q10.5 -67 10.5 -135 q0 -68 -10.5 -135 q-10.5 -67 -33.5 -131 q-14 -40 -39 -80 q-6 -10 -9.5 -17.5 q-3.5 -7.5 -3.5 -20.5 q0 -27 18.5 -45.5 q18.5 -18.5 45.5 -18.5 q22 0 39 15 q17 15 30.5 37 q13.5 22 23 45.5 q9.5 23.5 15.5 40.5 q28 75 40 153 q12 78 12 157 ZM1408 1088 l0 768 q0 26 -19.5 45 q-19.5 19 -45.5 19 q-26 0 -45 -19 l-237 -237 l-101 0 q-26 0 -45 -19 q-19 -19 -19 -45 l0 -256 q0 -26 19 -45 q19 -19 45 -19 l101 0 l237 -237 q19 -19 45 -19 q26 0 45.5 19 q19.5 19 19.5 45 ZM1728 1472 q0 32 -5.5 69.5 q-5.5 37.5 -15 76 q-9.5 38.5 -22.5 75 q-13 36.5 -28 64.5 q-8 16 -23.5 25.5 q-15.5 9.5 -33.5 9.5 q-26 0 -45 -19 q-19 -19 -19 -45 q0 -9 4.5 -22.5 q4.5 -13.5 10 -28 q5.5 -14.5 11.5 -28 q6 -13.5 9 -21.5 q14 -36 21.5 -77 q7.5 -41 7.5 -79 q0 -40 -8.5 -79 q-8.5 -39 -20.5 -77 q-3 -9 -9 -23 q-6 -14 -11.5 -28 q-5.5 -14 -10 -27.5 q-4.5 -13.5 -4.5 -21.5 q0 -26 19 -45 q19 -19 45 -19 q18 0 33.5 9.5 q15.5 9.5 23.5 25.5 q15 28 28 64.5 q13 36.5 22.5 75 q9.5 38.5 15 76.5 q5.5 38 5.5 69 ZM704 1408 q26 0 45 19 q19 19 19 45 q0 26 -19 45 q-19 19 -45 19 l-640 0 q-26 0 -45 -19 q-19 -19 -19 -45 q0 -26 19 -45 q19 -19 45 -19 l640 0 Z"/>
</svg>