<?xml version="1.0" encoding="utf-8"?>
<svg xmlns="http://www.w3.org/2000/svg" width="16" height="16" viewBox="0 0 2048 2048">
  <g transform="translate(0, 2048) scale(1, -1)">
    <path fill="#ffffff" d="M1799 1273Q1850 1273 1895.5 1253.5Q1941 1234 1975.0 1200.0Q2009 1166 2028.5 1120.5Q2048 1075 2048 1024Q2048 972 2028.0 926.5Q2008 881 1974.0 847.0Q1940 813 1894.5 793.5Q1849 774 1797 774Q1696 774 1594.5 779.0Q1493 784 1391 788L927 92Q906 61 873.0 43.0Q840 25 802 25Q771 25 743.5 37.0Q716 49 696.0 69.5Q676 90 664.0 117.5Q652 145 652 176Q652 192 655 207L784 808L400 821L309 609Q290 564 250.0 538.0Q210 512 162 512Q129 512 99.5 524.5Q70 537 48.0 559.0Q26 581 13.5 610.5Q1 640 1 673Q1 691 7.5 719.5Q14 748 23.0 779.0Q32 810 41.0 839.0Q50 868 56 887Q29 914 14.5 950.0Q0 986 0 1024Q0 1062 14.5 1098.0Q29 1134 56 1161Q50 1180 41.0 1209.0Q32 1238 23.0 1268.5Q14 1299 7.5 1328.0Q1 1357 1 1375Q1 1408 13.5 1437.5Q26 1467 48.0 1489.0Q70 1511 99.5 1523.5Q129 1536 162 1536Q210 1536 250.0 1510.0Q290 1484 309 1439L400 1227L784 1240L655 1841Q652 1856 652 1872Q652 1903 664.0 1930.5Q676 1958 696.0 1978.5Q716 1999 743.5 2011.0Q771 2023 802 2023Q840 2023 873.0 2005.0Q906 1987 927 1956L1391 1260Q1493 1263 1595.0 1268.0Q1697 1273 1799 1273ZM1920 1024Q1920 1048 1910.5 1070.5Q1901 1093 1885.0 1109.5Q1869 1126 1847.5 1136.0Q1826 1146 1801 1146H1794L1324 1130L821 1885Q814 1895 801 1895Q792 1895 786.0 1888.0Q780 1881 780 1872V1868L941 1117L317 1096L192 1388Q184 1408 162 1408Q148 1408 138.5 1398.5Q129 1389 129 1375Q129 1371 134.0 1352.0Q139 1333 146.5 1306.0Q154 1279 163.5 1247.0Q173 1215 181.0 1187.0Q189 1159 195.5 1137.0Q202 1115 204 1108Q190 1100 176.5 1092.5Q163 1085 152.5 1076.0Q142 1067 135.0 1054.5Q128 1042 128 1024Q128 1006 135.0 993.5Q142 981 152.5 972.0Q163 963 176.5 955.5Q190 948 204 940Q202 933 195.5 911.5Q189 890 181.0 861.0Q173 832 163.5 800.5Q154 769 146.5 742.0Q139 715 134.0 695.5Q129 676 129 673Q129 659 138.5 649.5Q148 640 162 640Q184 640 192 660L317 952L941 931L780 180V176Q780 167 786.0 160.0Q792 153 801 153Q814 153 821 163L1324 918L1794 902H1801Q1826 902 1847.5 912.0Q1869 922 1885.0 938.5Q1901 955 1910.5 977.5Q1920 1000 1920 1024Z"/>
  </g>
</svg>