<?xml version="1.0" encoding="utf-8"?>
<svg xmlns="http://www.w3.org/2000/svg" width="16" height="16" viewBox="0 0 2048 2048">
  <g transform="translate(0, 2048) scale(1, -1)">
    <path fill="#000000" d="M650 384H379Q329 384 283.5 404.5Q238 425 203.5 459.5Q169 494 148.5 539.5Q128 585 128 635V1669Q128 1719 148.5 1764.5Q169 1810 203.5 1844.5Q238 1879 283.5 1899.5Q329 1920 379 1920H1669Q1719 1920 1764.5 1899.5Q1810 1879 1844.5 1844.5Q1879 1810 1899.5 1764.5Q1920 1719 1920 1669V635Q1920 583 1899.0 537.5Q1878 492 1843.0 458.0Q1808 424 1761.5 404.0Q1715 384 1664 384H1398L1072 21Q1053 0 1024 0Q995 0 976 21ZM1792 640V1664Q1792 1690 1782.0 1713.5Q1772 1737 1754.5 1754.5Q1737 1772 1713.5 1782.0Q1690 1792 1664 1792H384Q357 1792 334.0 1782.0Q311 1772 293.5 1754.5Q276 1737 266.0 1714.0Q256 1691 256 1664V640Q256 613 266.0 589.5Q276 566 293.0 549.0Q310 532 333.5 522.0Q357 512 384 512H678Q692 512 704.5 507.0Q717 502 726 491L1024 160L1322 491Q1331 502 1343.5 507.0Q1356 512 1370 512H1664Q1691 512 1714.0 522.0Q1737 532 1754.5 549.5Q1772 567 1782.0 590.0Q1792 613 1792 640Z"/>
  </g>
</svg>