<?xml version="1.0" encoding="utf-8"?>
<svg xmlns="http://www.w3.org/2000/svg" width="16" height="16" viewBox="0 0 2048 2048">
  <g transform="translate(0, 2048) scale(1, -1)">
    <path fill="#ffffff" d="M299 1032Q281 1032 268.5 1044.5Q256 1057 256 1075V1408H52Q38 1408 29.0 1417.0Q20 1426 20 1440Q20 1444 31.0 1468.5Q42 1493 60.5 1531.0Q79 1569 103.0 1617.0Q127 1665 152.0 1715.5Q177 1766 202.0 1815.5Q227 1865 248.0 1906.0Q269 1947 284.0 1976.5Q299 2006 304 2016Q309 2027 319.0 2033.5Q329 2040 341 2040Q359 2040 371.5 2027.5Q384 2015 384 1997V1664H588Q602 1664 611.0 1655.0Q620 1646 620 1632Q620 1624 617 1618L336 1056Q331 1045 321.0 1038.5Q311 1032 299 1032ZM313 384Q250 384 193.0 409.5Q136 435 93.5 477.5Q51 520 25.5 577.0Q0 634 0 697V1280H128V704Q128 665 143.0 630.0Q158 595 184.5 568.5Q211 542 246.0 527.0Q281 512 320 512H1472Q1511 512 1546.0 527.0Q1581 542 1607.5 568.5Q1634 595 1649.0 630.0Q1664 665 1664 704V1344Q1664 1383 1649.0 1418.0Q1634 1453 1607.5 1479.5Q1581 1506 1546.0 1521.0Q1511 1536 1472 1536H755Q780 1584 780 1634Q780 1642 779.5 1649.0Q779 1656 778 1664H1479Q1543 1664 1599.5 1638.5Q1656 1613 1698.5 1570.5Q1741 1528 1766.0 1471.0Q1791 1414 1792 1351V1216H1920Q1946 1216 1969.0 1206.0Q1992 1196 2010 1178Q2028 1160 2038.0 1137.0Q2048 1114 2048 1088V960Q2048 907 2010 869Q1973 832 1920 832H1792V697Q1792 634 1766.5 577.0Q1741 520 1698.5 477.5Q1656 435 1599.0 409.5Q1542 384 1479 384ZM352 640Q312 640 284.0 668.0Q256 696 256 736V877Q281 872 301 872Q358 872 405.5 902.5Q453 933 479 984L691 1408H1440Q1480 1408 1508.0 1380.0Q1536 1352 1536 1312V736Q1536 696 1508.0 668.0Q1480 640 1440 640Z"/>
  </g>
</svg>