<?xml version="1.0" encoding="utf-8"?>
<svg xmlns="http://www.w3.org/2000/svg" width="16" height="16" viewBox="0 0 2048 2048">
  <g transform="translate(0, 2048) scale(1, -1)">
    <path fill="#ffffff" d="M896 883 490 528Q473 512 448 512Q421 512 402.5 531.0Q384 550 384 577Q384 605 406 624L863 1024L406 1424Q384 1443 384 1472Q384 1499 402.5 1517.5Q421 1536 448 1536Q473 1536 490 1520L896 1165V1984Q896 2010 915.5 2029.0Q935 2048 961 2048Q986 2048 1005 2029L1517 1517Q1536 1498 1536 1473Q1536 1443 1514 1424L1057 1024L1514 624Q1526 613 1531.0 602.0Q1536 591 1536 575Q1536 550 1517 531L1005 19Q986 0 960 0Q934 0 915.0 19.0Q896 38 896 64ZM1024 1830V1165L1378 1475ZM1024 883V219L1378 573Z"/>
  </g>
</svg>