<?xml version="1.0" encoding="utf-8"?>
<svg xmlns="http://www.w3.org/2000/svg" width="16" height="16" viewBox="0 0 2048 2048">
  <g transform="translate(0, 2048) scale(1, -1)">
    <path fill="#000000" d="M2048 960Q2048 907 2010 869Q1973 832 1920 832H1792V697Q1792 634 1766.5 577.0Q1741 520 1698.5 477.5Q1656 435 1599.0 409.5Q1542 384 1479 384H313Q250 384 193.0 409.5Q136 435 93.5 477.5Q51 520 25.5 577.0Q0 634 0 697V1351Q0 1414 25.5 1471.0Q51 1528 93.5 1570.5Q136 1613 193.0 1638.5Q250 1664 313 1664H1479Q1543 1664 1599.5 1638.5Q1656 1613 1698.5 1570.5Q1741 1528 1766.0 1471.0Q1791 1414 1792 1351V1216H1920Q1946 1216 1969.0 1206.0Q1992 1196 2010 1178Q2028 1160 2038.0 1137.0Q2048 1114 2048 1088ZM1664 1344Q1664 1383 1649.0 1418.0Q1634 1453 1607.5 1479.5Q1581 1506 1546.0 1521.0Q1511 1536 1472 1536H320Q281 1536 246.0 1521.0Q211 1506 184.5 1479.5Q158 1453 143.0 1418.0Q128 1383 128 1344V704Q128 665 143.0 630.0Q158 595 184.5 568.5Q211 542 246.0 527.0Q281 512 320 512H1472Q1511 512 1546.0 527.0Q1581 542 1607.5 568.5Q1634 595 1649.0 630.0Q1664 665 1664 704ZM1280 1344Q1280 1318 1261 1299L987 1024L1261 749Q1280 730 1280 704Q1280 678 1261.0 659.0Q1242 640 1216 640Q1190 640 1171 659L896 934L621 659Q602 640 576 640Q550 640 531.0 659.0Q512 678 512 704Q512 730 531 749L806 1024L531 1299Q512 1318 512 1344Q512 1370 531.0 1389.0Q550 1408 576 1408Q602 1408 621 1389L896 1115L1171 1389Q1190 1408 1216 1408Q1242 1408 1261.0 1389.0Q1280 1370 1280 1344Z"/>
  </g>
</svg>