<?xml version="1.0" encoding="utf-8"?>
<svg xmlns="http://www.w3.org/2000/svg" width="16" height="16" viewBox="0 0 2048 2048">
  <g transform="translate(0, 2048) scale(1, -1)">
    <path fill="#ffffff" d="M64 640Q38 640 19.0 659.0Q0 678 0 704Q0 727 12.5 742.0Q25 757 45 765Q120 793 178.0 832.0Q236 871 287 935Q210 966 155.5 1006.5Q101 1047 66.5 1099.0Q32 1151 16.0 1216.5Q0 1282 0 1365Q0 1415 20.0 1465.0Q40 1515 72.5 1560.5Q105 1606 145.0 1643.5Q185 1681 224 1707Q322 1771 399.5 1850.5Q477 1930 550 2021Q561 2034 573.5 2041.0Q586 2048 603 2048Q621 2048 637.0 2037.5Q653 2027 661 2010L847 1593Q871 1538 884.0 1478.0Q897 1418 897 1358Q897 1243 847.5 1147.0Q798 1051 712 977Q707 973 701.5 970.0Q696 967 690 967Q678 967 670.0 977.0Q662 987 662 998Q662 1005 665 1011Q707 1114 732.0 1226.5Q757 1339 757 1451Q757 1483 733.0 1506.0Q709 1529 677 1529Q643 1529 621.0 1507.5Q599 1486 597 1453Q592 1385 582.5 1316.5Q573 1248 555.5 1181.0Q538 1114 510.5 1050.5Q483 987 443 931Q407 881 369.0 837.0Q331 793 287.5 756.0Q244 719 193.5 690.5Q143 662 83 643Q74 640 64 640ZM90 481Q125 486 164.0 501.0Q203 516 235 532Q277 512 320 512H1472Q1511 512 1546.0 527.0Q1581 542 1607.5 568.5Q1634 595 1649.0 630.0Q1664 665 1664 704V1344Q1664 1383 1649.0 1418.0Q1634 1453 1607.5 1479.5Q1581 1506 1546.0 1521.0Q1511 1536 1472 1536H1035Q1027 1570 1015.0 1601.0Q1003 1632 991 1664H1479Q1543 1664 1599.5 1638.5Q1656 1613 1698.5 1570.5Q1741 1528 1766.0 1471.0Q1791 1414 1792 1351V1216H1920Q1946 1216 1969.0 1206.0Q1992 1196 2010 1178Q2028 1160 2038.0 1137.0Q2048 1114 2048 1088V960Q2048 907 2010 869Q1973 832 1920 832H1792V697Q1792 634 1766.5 577.0Q1741 520 1698.5 477.5Q1656 435 1599.0 409.5Q1542 384 1479 384H320Q255 384 195.0 409.0Q135 434 90 481ZM400 640Q426 662 449.5 686.0Q473 710 496 736Q569 737 637.0 759.0Q705 781 765.0 819.5Q825 858 875.0 910.5Q925 963 962.5 1024.5Q1000 1086 1024.0 1154.0Q1048 1222 1055 1292Q1058 1326 1058 1360Q1058 1372 1058.0 1384.0Q1058 1396 1057 1408H1184Q1224 1408 1252.0 1380.0Q1280 1352 1280 1312V736Q1280 696 1252.0 668.0Q1224 640 1184 640Z"/>
  </g>
</svg>