<?xml version="1.0" encoding="utf-8"?>
<svg xmlns="http://www.w3.org/2000/svg" width="16" height="16" viewBox="0 0 2048 2048">
  <g transform="translate(0, 2048) scale(1, -1)">
    <path fill="#ffffff" d="M256 256H192Q153 256 118.0 271.0Q83 286 56.5 312.5Q30 339 15.0 374.0Q0 409 0 448V1088Q0 1120 10.0 1149.5Q20 1179 38.0 1203.5Q56 1228 81.5 1245.5Q107 1263 138 1272L152 1344H96Q56 1344 28.0 1372.0Q0 1400 0 1440Q0 1480 28.0 1508.0Q56 1536 96 1536H191L216 1663Q227 1718 256.5 1765.0Q286 1812 328.0 1846.5Q370 1881 422.0 1900.5Q474 1920 530 1920H1518Q1574 1920 1626.0 1900.5Q1678 1881 1720.0 1846.5Q1762 1812 1791.5 1765.0Q1821 1718 1832 1663L1857 1536Q1865 1536 1872 1536L1901 1537Q1909 1537 1916 1537Q1941 1537 1965.0 1533.0Q1989 1529 2007.5 1518.5Q2026 1508 2037.0 1489.0Q2048 1470 2048 1440Q2048 1403 2024.0 1377.0Q2000 1351 1965 1345Q1958 1343 1951.5 1343.0Q1945 1343 1937 1343Q1927 1343 1917.0 1343.5Q1907 1344 1896 1344L1910 1272Q1941 1263 1966.5 1245.5Q1992 1228 2010.0 1203.5Q2028 1179 2038.0 1149.5Q2048 1120 2048 1088V448Q2048 409 2033.0 374.0Q2018 339 1991.5 312.5Q1965 286 1930.0 271.0Q1895 256 1856 256H1792V128Q1792 73 1754 37Q1717 0 1664 0Q1610 0 1573 37Q1536 74 1536 128V256H512V128Q512 73 474 37Q437 0 384 0Q330 0 293 37Q256 74 256 128ZM270 1280H1778L1706 1638Q1699 1671 1681.5 1699.0Q1664 1727 1638.5 1747.5Q1613 1768 1582.0 1780.0Q1551 1792 1518 1792H530Q495 1792 464.0 1780.5Q433 1769 408.5 1748.5Q384 1728 367.0 1700.0Q350 1672 342 1638Q322 1549 305.0 1459.5Q288 1370 270 1280ZM1856 384Q1882 384 1901.0 403.0Q1920 422 1920 448V1088Q1920 1114 1901.0 1133.0Q1882 1152 1856 1152H192Q166 1152 147.0 1133.0Q128 1114 128 1088V448Q128 422 147.0 403.0Q166 384 192 384ZM384 768Q384 795 394.0 818.0Q404 841 421.5 858.5Q439 876 462.0 886.0Q485 896 512 896Q538 896 561.5 886.0Q585 876 602.5 858.5Q620 841 630.0 817.5Q640 794 640 768Q640 741 630.0 718.0Q620 695 602.5 677.5Q585 660 562.0 650.0Q539 640 512 640Q485 640 461.5 650.0Q438 660 421.0 677.0Q404 694 394.0 717.5Q384 741 384 768ZM1408 768Q1408 795 1418.0 818.0Q1428 841 1445.5 858.5Q1463 876 1486.0 886.0Q1509 896 1536 896Q1562 896 1585.5 886.0Q1609 876 1626.5 858.5Q1644 841 1654.0 817.5Q1664 794 1664 768Q1664 741 1654.0 718.0Q1644 695 1626.5 677.5Q1609 660 1586.0 650.0Q1563 640 1536 640Q1509 640 1485.5 650.0Q1462 660 1445.0 677.0Q1428 694 1418.0 717.5Q1408 741 1408 768Z"/>
  </g>
</svg>