<?xml version="1.0" encoding="utf-8"?>
<svg xmlns="http://www.w3.org/2000/svg" width="16" height="16" viewBox="0 0 2048 2048">
  <g transform="translate(0, 2048) scale(1, -1)">
    <path fill="#000000" d="M376 0Q301 0 232.5 30.5Q164 61 112.5 112.5Q61 164 30.5 232.5Q0 301 0 376V1672Q0 1747 30.5 1815.5Q61 1884 112.5 1935.5Q164 1987 232.5 2017.5Q301 2048 376 2048H827Q903 2048 974.0 2019.0Q1045 1990 1099 1936L1424 1611Q1488 1546 1512.0 1472.0Q1536 1398 1536 1309Q1504 1312 1472 1312Q1439 1312 1408 1309Q1408 1372 1393.5 1423.0Q1379 1474 1333 1520L1008 1845Q972 1881 925.0 1900.5Q878 1920 827 1920H379Q329 1920 283.5 1899.5Q238 1879 203.5 1844.5Q169 1810 148.5 1764.5Q128 1719 128 1669V379Q128 327 149.0 281.5Q170 236 205.0 202.0Q240 168 286.5 148.0Q333 128 384 128H888Q915 92 947.0 60.0Q979 28 1014 0ZM576 384Q537 384 502.0 399.0Q467 414 440.5 440.5Q414 467 399.0 502.0Q384 537 384 576V960Q384 999 399.0 1034.0Q414 1069 440.5 1095.5Q467 1122 502.0 1137.0Q537 1152 576 1152H960Q984 1152 1007 1146Q917 1073 854.5 976.0Q792 879 761 768H512V576Q512 550 531.0 531.0Q550 512 576 512H738Q741 480 747.0 448.0Q753 416 761 384ZM896 576Q896 695 941.5 800.0Q987 905 1065.0 983.0Q1143 1061 1248.0 1106.5Q1353 1152 1472 1152Q1551 1152 1624.5 1131.5Q1698 1111 1762.0 1073.5Q1826 1036 1879.0 983.0Q1932 930 1969.5 866.0Q2007 802 2027.5 728.5Q2048 655 2048 576Q2048 457 2002.5 352.0Q1957 247 1879.0 169.0Q1801 91 1696.0 45.5Q1591 0 1472 0Q1352 0 1247.0 45.0Q1142 90 1064.0 168.0Q986 246 941.0 351.0Q896 456 896 576ZM512 896H768V1024H576Q550 1024 531.0 1005.0Q512 986 512 960ZM1709 715Q1709 763 1691.0 807.0Q1673 851 1642.0 885.0Q1611 919 1568.5 939.5Q1526 960 1477 960Q1423 960 1378.0 940.5Q1333 921 1301.5 887.5Q1270 854 1252.5 808.0Q1235 762 1235 709Q1235 683 1254.0 664.5Q1273 646 1299 646Q1327 646 1345.0 666.0Q1363 686 1363 713Q1363 737 1370.5 759.0Q1378 781 1392.0 797.0Q1406 813 1426.0 822.5Q1446 832 1472 832Q1497 832 1517.0 822.0Q1537 812 1551.5 795.0Q1566 778 1573.5 756.0Q1581 734 1581 710Q1581 688 1568.0 672.0Q1555 656 1536.0 640.5Q1517 625 1494.5 609.0Q1472 593 1453.0 571.0Q1434 549 1421.0 519.0Q1408 489 1408 448Q1408 422 1427.0 403.0Q1446 384 1472 384Q1490 384 1501.5 389.5Q1513 395 1520.0 405.0Q1527 415 1530.5 428.0Q1534 441 1536 456Q1539 475 1553.0 490.0Q1567 505 1586.0 519.0Q1605 533 1627.0 549.5Q1649 566 1667.0 588.0Q1685 610 1697.0 641.0Q1709 672 1709 715ZM1552 255Q1552 288 1528.5 311.5Q1505 335 1472 335Q1439 335 1415.5 311.5Q1392 288 1392 255Q1392 222 1415.5 198.5Q1439 175 1472 175Q1505 175 1528.5 198.5Q1552 222 1552 255Z"/>
  </g>
</svg>