<?xml version="1.0" encoding="utf-8"?>
<svg xmlns="http://www.w3.org/2000/svg" width="16" height="16" viewBox="0 0 2048 2048">
  <g transform="translate(0, 2048) scale(1, -1)">
    <path fill="#ffffff" d="M384 256Q384 229 394.0 205.5Q404 182 421.0 165.0Q438 148 461.5 138.0Q485 128 512 128H1152V0H507Q457 0 411.5 20.5Q366 41 331.5 75.5Q297 110 276.5 155.5Q256 201 256 251V1797Q256 1847 276.5 1892.5Q297 1938 331.5 1972.5Q366 2007 411.5 2027.5Q457 2048 507 2048H1285Q1335 2048 1380.5 2027.5Q1426 2007 1460.5 1972.5Q1495 1938 1515.5 1892.5Q1536 1847 1536 1797V1130Q1464 1104 1408 1054V1792Q1408 1818 1398.0 1841.5Q1388 1865 1370.5 1882.5Q1353 1900 1329.5 1910.0Q1306 1920 1280 1920H512Q485 1920 462.0 1910.0Q439 1900 421.5 1882.5Q404 1865 394.0 1842.0Q384 1819 384 1792ZM2048 576V64Q2048 38 2029.0 19.0Q2010 0 1984 0H1344Q1317 0 1298.5 18.5Q1280 37 1280 64V576Q1280 598 1288.0 610.5Q1296 623 1309.5 629.5Q1323 636 1339.5 638.0Q1356 640 1373 640H1408Q1408 663 1407.0 687.0Q1406 711 1406 736Q1406 769 1410.0 802.0Q1414 835 1427 866Q1458 938 1521.5 981.0Q1585 1024 1664 1024Q1717 1024 1763.5 1004.0Q1810 984 1845.0 949.0Q1880 914 1900.0 867.5Q1920 821 1920 768V640H1952Q1969 640 1986.0 638.0Q2003 636 2017.0 629.5Q2031 623 2039.5 610.5Q2048 598 2048 576ZM1536 640H1792V768Q1792 795 1782.0 818.0Q1772 841 1754.5 858.5Q1737 876 1714.0 886.0Q1691 896 1664 896Q1637 896 1614.0 886.0Q1591 876 1573.5 858.5Q1556 841 1546.0 818.0Q1536 795 1536 768ZM1024 512Q1050 512 1069.0 493.0Q1088 474 1088 448Q1088 422 1069.0 403.0Q1050 384 1024 384H768Q742 384 723.0 403.0Q704 422 704 448Q704 474 723.0 493.0Q742 512 768 512ZM1792 320Q1792 346 1782.0 369.5Q1772 393 1754.5 410.5Q1737 428 1713.5 438.0Q1690 448 1664 448Q1637 448 1614.0 438.0Q1591 428 1573.5 410.5Q1556 393 1546.0 370.0Q1536 347 1536 320Q1536 293 1546.0 269.5Q1556 246 1573.0 229.0Q1590 212 1613.5 202.0Q1637 192 1664 192Q1690 192 1713.5 202.0Q1737 212 1754.5 229.5Q1772 247 1782.0 270.5Q1792 294 1792 320Z"/>
  </g>
</svg>