<?xml version="1.0" encoding="utf-8"?>
<svg xmlns="http://www.w3.org/2000/svg" width="16" height="16" viewBox="0 0 2048 2048">
  <g transform="translate(0, 2048) scale(1, -1)">
    <path fill="#000000" d="M251 0Q201 0 155.5 20.5Q110 41 75.5 75.5Q41 110 20.5 155.5Q0 201 0 251V1797Q0 1847 20.5 1892.5Q41 1938 75.5 1972.5Q110 2007 155.5 2027.5Q201 2048 251 2048H1029Q1079 2048 1124.5 2027.5Q1170 2007 1204.5 1972.5Q1239 1938 1259.5 1892.5Q1280 1847 1280 1797V1287Q1213 1269 1152 1239V1792Q1152 1818 1142.0 1841.5Q1132 1865 1114.5 1882.5Q1097 1900 1073.5 1910.0Q1050 1920 1024 1920H256Q229 1920 206.0 1910.0Q183 1900 165.5 1882.5Q148 1865 138.0 1842.0Q128 1819 128 1792V256Q128 229 138.0 205.5Q148 182 165.0 165.0Q182 148 205.5 138.0Q229 128 256 128H888Q915 92 947.0 60.0Q979 28 1014 0ZM896 576Q896 695 941.5 800.0Q987 905 1065.0 983.0Q1143 1061 1248.0 1106.5Q1353 1152 1472 1152Q1551 1152 1624.5 1131.5Q1698 1111 1762.0 1073.5Q1826 1036 1879.0 983.0Q1932 930 1969.5 866.0Q2007 802 2027.5 728.5Q2048 655 2048 576Q2048 457 2002.5 352.0Q1957 247 1879.0 169.0Q1801 91 1696.0 45.5Q1591 0 1472 0Q1352 0 1247.0 45.0Q1142 90 1064.0 168.0Q986 246 941.0 351.0Q896 456 896 576ZM1344 248Q1374 248 1395 269L1843 717Q1864 738 1864 768Q1864 798 1843.0 819.0Q1822 840 1792 840Q1762 840 1741 819L1344 422L1203 563Q1182 584 1152 584Q1122 584 1101.0 563.0Q1080 542 1080 512Q1080 482 1101 461L1293 269Q1314 248 1344 248ZM512 384Q486 384 467.0 403.0Q448 422 448 448Q448 474 467.0 493.0Q486 512 512 512H739Q742 480 747.0 448.0Q752 416 761 384Z"/>
  </g>
</svg>