<?xml version="1.0" encoding="utf-8"?>
<svg xmlns="http://www.w3.org/2000/svg" width="16" height="16" viewBox="0 0 2048 2048">
  <g transform="translate(0, 2048) scale(1, -1)">
    <path fill="#ffffff" d="M1024 640V768H1812Q1833 768 1852.5 776.0Q1872 784 1887.0 797.5Q1902 811 1911.0 830.0Q1920 849 1920 871V1817Q1920 1839 1911.0 1858.0Q1902 1877 1887.0 1890.5Q1872 1904 1852.5 1912.0Q1833 1920 1812 1920H492Q471 1920 451.5 1912.0Q432 1904 417.0 1890.5Q402 1877 393.0 1858.0Q384 1839 384 1817V1664H256V1822Q256 1869 275.5 1910.5Q295 1952 328.0 1982.5Q361 2013 403.5 2030.5Q446 2048 492 2048H1812Q1858 2048 1900.5 2030.5Q1943 2013 1976.0 1982.5Q2009 1952 2028.5 1910.5Q2048 1869 2048 1822V866Q2048 820 2029.0 779.0Q2010 738 1978.0 707.0Q1946 676 1904.0 658.0Q1862 640 1817 640ZM192 128Q153 128 118.0 143.0Q83 158 56.5 184.5Q30 211 15.0 246.0Q0 281 0 320V1344Q0 1383 15.0 1418.0Q30 1453 56.5 1479.5Q83 1506 118.0 1521.0Q153 1536 192 1536H704Q743 1536 778.0 1521.0Q813 1506 839.5 1479.5Q866 1453 881.0 1418.0Q896 1383 896 1344V320Q896 281 881.0 246.0Q866 211 839.5 184.5Q813 158 778.0 143.0Q743 128 704 128ZM704 256Q730 256 749.0 275.0Q768 294 768 320V1344Q768 1370 749.0 1389.0Q730 1408 704 1408H192Q166 1408 147.0 1389.0Q128 1370 128 1344V320Q128 294 147.0 275.0Q166 256 192 256ZM1024 896V1024H1344Q1370 1024 1389.0 1005.0Q1408 986 1408 960Q1408 934 1389.0 915.0Q1370 896 1344 896ZM384 384Q358 384 339.0 403.0Q320 422 320 448Q320 474 339.0 493.0Q358 512 384 512H512Q538 512 557.0 493.0Q576 474 576 448Q576 422 557.0 403.0Q538 384 512 384Z"/>
  </g>
</svg>