<?xml version="1.0" encoding="utf-8"?>
<svg xmlns="http://www.w3.org/2000/svg" width="16" height="16" viewBox="0 0 2048 2048">
  <g transform="translate(0, 2048) scale(1, -1)">
    <path fill="#ffffff" d="M1024 1920Q1112 1920 1194.0 1897.0Q1276 1874 1347.0 1832.5Q1418 1791 1476.5 1732.5Q1535 1674 1576.5 1603.0Q1618 1532 1641.0 1450.0Q1664 1368 1664 1280V809L1830 589Q1842 572 1849.0 552.5Q1856 533 1856 513Q1856 486 1846.0 462.5Q1836 439 1818.5 421.5Q1801 404 1777.5 394.0Q1754 384 1727 384H1338Q1326 328 1297.0 281.0Q1268 234 1226.5 200.0Q1185 166 1133.0 147.0Q1081 128 1024 128Q967 128 915.0 147.0Q863 166 821.5 200.0Q780 234 751.0 281.0Q722 328 710 384H321Q294 384 270.5 394.0Q247 404 229.5 421.5Q212 439 202.0 462.5Q192 486 192 513Q192 533 199.0 552.5Q206 572 218 589L384 809V1280Q384 1368 407.0 1450.0Q430 1532 471.5 1603.0Q513 1674 571.5 1732.5Q630 1791 701.0 1832.5Q772 1874 854.0 1897.0Q936 1920 1024 1920ZM1024 1792Q918 1792 824.5 1752.0Q731 1712 661.5 1642.5Q592 1573 552.0 1479.5Q512 1386 512 1280V798Q512 783 507.0 767.5Q502 752 493 740L321 512H1727L1555 740Q1546 752 1541.0 767.5Q1536 783 1536 798V1280Q1536 1386 1496.0 1479.5Q1456 1573 1386.5 1642.5Q1317 1712 1223.5 1752.0Q1130 1792 1024 1792ZM843 384Q853 355 871.0 331.5Q889 308 913.0 291.0Q937 274 965.5 265.0Q994 256 1024 256Q1054 256 1082.5 265.0Q1111 274 1135.0 291.0Q1159 308 1177.0 331.5Q1195 355 1205 384Z"/>
  </g>
</svg>