<?xml version="1.0" encoding="utf-8"?>
<svg xmlns="http://www.w3.org/2000/svg" width="16" height="16" viewBox="0 0 2048 2048">
  <g transform="translate(0, 2048) scale(1, -1)">
    <path fill="#000000" d="M1024 1920Q1112 1920 1194.0 1897.0Q1276 1874 1347.0 1832.5Q1418 1791 1476.5 1732.5Q1535 1674 1576.5 1603.0Q1618 1532 1641.0 1450.0Q1664 1368 1664 1280V809L1830 589Q1842 572 1849.0 552.5Q1856 533 1856 513Q1856 486 1846.0 462.5Q1836 439 1818.5 421.5Q1801 404 1777.5 394.0Q1754 384 1727 384H321Q294 384 270.5 394.0Q247 404 229.5 421.5Q212 439 202.0 462.5Q192 486 192 513Q192 533 199.0 552.5Q206 572 218 589L384 809V1280Q384 1368 407.0 1450.0Q430 1532 471.5 1603.0Q513 1674 571.5 1732.5Q630 1791 701.0 1832.5Q772 1874 854.0 1897.0Q936 1920 1024 1920ZM1024 0Q967 0 915.0 19.0Q863 38 821.5 72.0Q780 106 751.0 153.0Q722 200 710 256H1338Q1326 200 1297.0 153.0Q1268 106 1226.5 72.0Q1185 38 1133.0 19.0Q1081 0 1024 0Z"/>
  </g>
</svg>