<?xml version="1.0" encoding="utf-8"?>
<svg xmlns="http://www.w3.org/2000/svg" width="16" height="16" viewBox="0 0 2048 2048">
  <g transform="translate(0, 2048) scale(1, -1)">
    <path fill="#000000" d="M302 533Q302 582 332.0 615.5Q362 649 407 660Q501 684 581.5 721.0Q662 758 739 819Q814 878 873.0 951.5Q932 1025 972.5 1109.0Q1013 1193 1034.5 1284.5Q1056 1376 1056 1472Q1056 1542 1044.0 1607.5Q1032 1673 1012 1740Q1009 1751 1006.5 1762.0Q1004 1773 1004 1784Q1004 1810 1013.5 1833.5Q1023 1857 1039.5 1874.5Q1056 1892 1079.0 1902.5Q1102 1913 1128 1913Q1133 1913 1136.5 1913.0Q1140 1913 1145 1912Q1256 1896 1351.0 1859.0Q1446 1822 1538 1757Q1628 1693 1699.0 1612.0Q1770 1531 1819.0 1437.5Q1868 1344 1894.0 1239.5Q1920 1135 1920 1024Q1920 900 1888.0 785.5Q1856 671 1797.5 571.5Q1739 472 1657.5 390.5Q1576 309 1476.5 250.5Q1377 192 1262.5 160.0Q1148 128 1024 128Q927 128 828.5 150.0Q730 172 639.5 214.0Q549 256 469.5 317.0Q390 378 330 457Q316 475 309.0 492.5Q302 510 302 533ZM1792 1024Q1792 1166 1742.0 1295.5Q1692 1425 1603.5 1527.0Q1515 1629 1394.5 1696.5Q1274 1764 1133 1784V1782Q1133 1779 1137.0 1765.5Q1141 1752 1146.0 1735.0Q1151 1718 1155.5 1702.0Q1160 1686 1161 1680Q1184 1576 1184 1472Q1184 1361 1159.5 1255.0Q1135 1149 1088.5 1052.5Q1042 956 974.0 871.5Q906 787 819 718Q731 648 637.5 605.0Q544 562 435 535L432 534Q487 468 554.0 416.0Q621 364 697.0 328.5Q773 293 855.5 274.5Q938 256 1024 256Q1130 256 1228.0 283.5Q1326 311 1411.5 361.0Q1497 411 1567.0 481.0Q1637 551 1687.0 636.5Q1737 722 1764.5 820.0Q1792 918 1792 1024Z"/>
  </g>
</svg>