<?xml version="1.0" encoding="utf-8"?>
<svg xmlns="http://www.w3.org/2000/svg" width="16" height="16" viewBox="0 0 2048 2048">
  <g transform="translate(0, 2048) scale(1, -1)">
    <path fill="#000000" d="M376 0Q301 0 232.5 30.5Q164 61 112.5 112.5Q61 164 30.5 232.5Q0 301 0 376V1672Q0 1747 30.5 1815.5Q61 1884 112.5 1935.5Q164 1987 232.5 2017.5Q301 2048 376 2048H827Q903 2048 974.0 2019.0Q1045 1990 1099 1936L1424 1611Q1488 1546 1512.0 1472.0Q1536 1398 1536 1309Q1504 1312 1472 1312Q1439 1312 1408 1309Q1408 1372 1393.5 1423.0Q1379 1474 1333 1520L1008 1845Q972 1881 925.0 1900.5Q878 1920 827 1920H379Q329 1920 283.5 1899.5Q238 1879 203.5 1844.5Q169 1810 148.5 1764.5Q128 1719 128 1669V379Q128 327 149.0 281.5Q170 236 205.0 202.0Q240 168 286.5 148.0Q333 128 384 128H888Q915 92 947.0 60.0Q979 28 1014 0ZM576 384Q537 384 502.0 399.0Q467 414 440.5 440.5Q414 467 399.0 502.0Q384 537 384 576V960Q384 999 399.0 1034.0Q414 1069 440.5 1095.5Q467 1122 502.0 1137.0Q537 1152 576 1152H960Q984 1152 1007 1146Q917 1073 854.5 976.0Q792 879 761 768H512V576Q512 550 531.0 531.0Q550 512 576 512H739Q742 480 747.0 448.0Q752 416 761 384ZM896 576Q896 695 941.5 800.0Q987 905 1065.0 983.0Q1143 1061 1248.0 1106.5Q1353 1152 1472 1152Q1551 1152 1624.5 1131.5Q1698 1111 1762.0 1073.5Q1826 1036 1879.0 983.0Q1932 930 1969.5 866.0Q2007 802 2027.5 728.5Q2048 655 2048 576Q2048 457 2002.5 352.0Q1957 247 1879.0 169.0Q1801 91 1696.0 45.5Q1591 0 1472 0Q1352 0 1247.0 45.0Q1142 90 1064.0 168.0Q986 246 941.0 351.0Q896 456 896 576ZM512 896H768V1024H576Q550 1024 531.0 1005.0Q512 986 512 960ZM1216 251Q1245 251 1265 271L1472 479L1679 271Q1699 251 1728 251Q1757 251 1777.0 271.0Q1797 291 1797 320Q1797 349 1777 369L1569 576L1777 783Q1797 803 1797 832Q1797 861 1777.0 881.0Q1757 901 1728 901Q1699 901 1679 881L1472 673L1265 881Q1245 901 1216 901Q1187 901 1167.0 881.0Q1147 861 1147 832Q1147 818 1152.5 805.0Q1158 792 1167 783L1375 576L1167 369Q1147 349 1147 320Q1147 291 1167.0 271.0Q1187 251 1216 251Z"/>
  </g>
</svg>