<?xml version="1.0" encoding="utf-8"?>
<svg xmlns="http://www.w3.org/2000/svg" width="16" height="16" viewBox="0 0 2048 2048">
  <g transform="translate(0, 2048) scale(1, -1)">
    <path fill="#000000" d="M1664 811 1831 589Q1844 572 1850.0 552.5Q1856 533 1856 513Q1856 486 1846.5 462.5Q1837 439 1819.5 421.5Q1802 404 1778.5 394.0Q1755 384 1728 384H1338Q1327 329 1297.5 282.0Q1268 235 1226.0 201.0Q1184 167 1132.0 147.5Q1080 128 1024 128Q968 128 916.0 147.5Q864 167 822.0 201.0Q780 235 750.5 282.0Q721 329 710 384H320Q293 384 270.0 394.0Q247 404 229.5 421.5Q212 439 202.0 462.5Q192 486 192 513Q192 534 199.0 553.0Q206 572 218 589L384 811V1280Q384 1413 434.0 1529.5Q484 1646 571.0 1733.0Q658 1820 774.5 1870.0Q891 1920 1024 1920Q1077 1920 1132.0 1912.0Q1187 1904 1237 1884Q1257 1876 1268.5 1861.0Q1280 1846 1280 1824Q1280 1797 1261.5 1778.0Q1243 1759 1216 1759Q1211 1759 1205.5 1760.0Q1200 1761 1195 1763Q1150 1777 1106.0 1784.5Q1062 1792 1014 1792Q910 1792 818.5 1750.5Q727 1709 659.0 1638.5Q591 1568 551.5 1475.5Q512 1383 512 1280V789Q512 768 499 751L320 512H1728L1549 751Q1536 767 1536 790V1088Q1536 1114 1555.0 1133.0Q1574 1152 1600 1152Q1626 1152 1645.0 1133.0Q1664 1114 1664 1088ZM1920 1344Q1920 1318 1901.0 1299.0Q1882 1280 1856 1280H1472Q1446 1280 1427.0 1299.0Q1408 1318 1408 1344Q1408 1365 1421 1382L1728 1792H1472Q1446 1792 1427.0 1811.0Q1408 1830 1408 1856Q1408 1882 1427.0 1901.0Q1446 1920 1472 1920H1856Q1882 1920 1901.0 1901.0Q1920 1882 1920 1856Q1920 1835 1907 1818L1600 1408H1856Q1882 1408 1901.0 1389.0Q1920 1370 1920 1344ZM1280 1344Q1280 1321 1265 1303L1033 1024H1216Q1242 1024 1261.0 1005.0Q1280 986 1280 960Q1280 934 1261.0 915.0Q1242 896 1216 896H896Q870 896 851.0 915.0Q832 934 832 960Q832 983 847 1001L1079 1280H896Q870 1280 851.0 1299.0Q832 1318 832 1344Q832 1370 851.0 1389.0Q870 1408 896 1408H1216Q1242 1408 1261.0 1389.0Q1280 1370 1280 1344ZM1205 384H843Q853 355 871.0 331.5Q889 308 913.0 291.0Q937 274 965.0 265.0Q993 256 1024 256Q1055 256 1083.0 265.0Q1111 274 1135.0 291.0Q1159 308 1177.0 331.5Q1195 355 1205 384Z"/>
  </g>
</svg>