<?xml version="1.0" encoding="utf-8"?>
<svg xmlns="http://www.w3.org/2000/svg" width="16" height="16" viewBox="0 0 2048 2048">
  <g transform="translate(0, 2048) scale(1, -1)">
    <path fill="#000000" d="M326 384Q299 384 275.5 394.0Q252 404 234.5 421.5Q217 439 207.0 462.5Q197 486 197 513Q197 536 204.0 554.5Q211 573 225 591L384 795V1280Q384 1413 434.0 1529.5Q484 1646 571.0 1733.0Q658 1820 774.5 1870.0Q891 1920 1024 1920Q1157 1920 1280 1867Q1280 1826 1294.0 1789.0Q1308 1752 1333.0 1724.0Q1358 1696 1393.5 1680.0Q1429 1664 1472 1664L1341 1490Q1315 1512 1283.0 1524.0Q1251 1536 1216 1536H896Q857 1536 822.0 1521.0Q787 1506 760.5 1479.5Q734 1453 719.0 1418.0Q704 1383 704 1344Q704 1287 735.5 1239.0Q767 1191 819 1168Q799 1144 778.5 1121.0Q758 1098 741.5 1073.5Q725 1049 714.5 1021.0Q704 993 704 960Q704 920 719.0 885.0Q734 850 760.0 824.0Q786 798 821.0 783.0Q856 768 896 768H1216Q1255 768 1290.0 783.0Q1325 798 1351.5 824.5Q1378 851 1393.0 886.0Q1408 921 1408 960Q1408 1017 1376.5 1065.0Q1345 1113 1293 1136L1346 1200Q1372 1176 1404.5 1164.0Q1437 1152 1472 1152H1664V795L1823 591Q1837 573 1844.0 554.5Q1851 536 1851 513Q1851 486 1841.0 462.5Q1831 439 1813.5 421.5Q1796 404 1772.5 394.0Q1749 384 1722 384ZM1472 1280Q1446 1280 1427.0 1299.0Q1408 1318 1408 1344Q1408 1365 1421 1382L1728 1792H1472Q1446 1792 1427.0 1811.0Q1408 1830 1408 1856Q1408 1882 1427.0 1901.0Q1446 1920 1472 1920H1856Q1882 1920 1901.0 1901.0Q1920 1882 1920 1856Q1920 1835 1907 1818L1600 1408H1856Q1882 1408 1901.0 1389.0Q1920 1370 1920 1344Q1920 1318 1901.0 1299.0Q1882 1280 1856 1280ZM896 896Q870 896 851.0 915.0Q832 934 832 960Q832 983 847 1001L1079 1280H896Q870 1280 851.0 1299.0Q832 1318 832 1344Q832 1370 851.0 1389.0Q870 1408 896 1408H1216Q1242 1408 1261.0 1389.0Q1280 1370 1280 1344Q1280 1321 1265 1303L1033 1024H1216Q1242 1024 1261.0 1005.0Q1280 986 1280 960Q1280 934 1261.0 915.0Q1242 896 1216 896ZM710 256H1338Q1326 201 1297.0 154.0Q1268 107 1226.0 73.0Q1184 39 1132.0 19.5Q1080 0 1024 0Q968 0 916.0 19.5Q864 39 822.0 73.0Q780 107 751.0 154.0Q722 201 710 256Z"/>
  </g>
</svg>