<?xml version="1.0" encoding="utf-8"?>
<svg xmlns="http://www.w3.org/2000/svg" width="16" height="16" viewBox="0 0 2048 2048">
  <g transform="translate(0, 2048) scale(1, -1)">
    <path fill="#000000" d="M864 512Q864 545 877.0 574.0Q890 603 911.5 624.5Q933 646 962.0 659.0Q991 672 1024 672Q1057 672 1086.0 659.0Q1115 646 1136.5 624.5Q1158 603 1171.0 574.0Q1184 545 1184 512Q1184 479 1171.0 450.0Q1158 421 1136.5 399.5Q1115 378 1086.0 365.0Q1057 352 1024 352Q991 352 962.0 365.0Q933 378 911.5 399.5Q890 421 877.0 450.0Q864 479 864 512Z"/>
  </g>
</svg>