<?xml version="1.0" encoding="utf-8"?>
<svg xmlns="http://www.w3.org/2000/svg" width="16" height="16" viewBox="0 0 2048 2048">
  <g transform="translate(0, 2048) scale(1, -1)">
    <path fill="#ffffff" d="M1024 1280Q950 1280 877.0 1264.0Q804 1248 736.5 1217.5Q669 1187 608.5 1143.0Q548 1099 499 1044Q475 1017 455.5 987.0Q436 957 414 928Q402 913 390.5 904.5Q379 896 359 896Q333 896 314.0 915.0Q295 934 295 960Q295 976 303 992Q354 1087 433.0 1164.0Q512 1241 608.0 1295.0Q704 1349 810.5 1378.5Q917 1408 1024 1408Q1130 1408 1237.0 1378.5Q1344 1349 1440.0 1295.0Q1536 1241 1615.0 1164.0Q1694 1087 1745 992Q1753 976 1753 960Q1753 934 1734.0 915.0Q1715 896 1689 896Q1669 896 1657.5 904.5Q1646 913 1634 928Q1612 957 1592.5 987.0Q1573 1017 1549 1044Q1500 1099 1439.5 1143.0Q1379 1187 1311.5 1217.5Q1244 1248 1171.0 1264.0Q1098 1280 1024 1280ZM1024 896Q968 896 917.0 880.5Q866 865 818 836Q791 819 771.5 802.0Q752 785 736.5 766.0Q721 747 707.0 725.5Q693 704 677 677Q667 660 653.0 650.0Q639 640 619 640Q592 640 573.5 659.0Q555 678 555 705Q555 718 561 732Q590 796 640.0 850.0Q690 904 752.0 942.5Q814 981 884.0 1002.5Q954 1024 1024 1024Q1096 1024 1166.0 1003.0Q1236 982 1297.5 944.0Q1359 906 1408.0 852.0Q1457 798 1487 732Q1493 718 1493 705Q1493 679 1474.0 659.5Q1455 640 1429 640Q1409 640 1395.0 650.0Q1381 660 1371 677Q1355 704 1341.0 725.5Q1327 747 1311.0 766.0Q1295 785 1275.5 802.0Q1256 819 1229 836Q1182 865 1130.5 880.5Q1079 896 1024 896ZM864 512Q864 545 877.0 574.0Q890 603 911.5 624.5Q933 646 962.0 659.0Q991 672 1024 672Q1057 672 1086.0 659.0Q1115 646 1136.5 624.5Q1158 603 1171.0 574.0Q1184 545 1184 512Q1184 479 1171.0 450.0Q1158 421 1136.5 399.5Q1115 378 1086.0 365.0Q1057 352 1024 352Q991 352 962.0 365.0Q933 378 911.5 399.5Q890 421 877.0 450.0Q864 479 864 512Z"/>
  </g>
</svg>