<?xml version="1.0" encoding="utf-8"?>
<svg xmlns="http://www.w3.org/2000/svg" width="16" height="16" viewBox="0 0 2048 2048">
  <g transform="translate(0, 2048) scale(1, -1)">
    <path fill="#000000" d="M2 1216Q2 1235 13 1252Q92 1378 204.5 1478.0Q317 1578 450.0 1648.0Q583 1718 729.5 1755.0Q876 1792 1024 1792Q1172 1792 1318.5 1755.0Q1465 1718 1597.5 1648.0Q1730 1578 1842.5 1478.0Q1955 1378 2035 1252Q2046 1235 2046 1216Q2046 1190 2027.0 1171.0Q2008 1152 1982 1152Q1962 1152 1951.5 1159.0Q1941 1166 1929 1180Q1896 1220 1867.0 1260.5Q1838 1301 1801 1338Q1724 1416 1634.0 1477.0Q1544 1538 1445.0 1579.5Q1346 1621 1240.0 1642.5Q1134 1664 1024 1664Q914 1664 808.0 1642.5Q702 1621 603.0 1579.5Q504 1538 414.5 1477.0Q325 1416 247 1338Q223 1314 200.5 1288.5Q178 1263 158 1235Q148 1221 139.0 1207.0Q130 1193 119 1180Q108 1167 95.5 1159.5Q83 1152 66 1152Q40 1152 21.0 1171.0Q2 1190 2 1216ZM295 960Q295 976 303 992Q354 1088 433.0 1165.0Q512 1242 607.5 1296.0Q703 1350 810.0 1379.0Q917 1408 1024 1408Q1142 1408 1255.0 1375.5Q1368 1343 1468 1280Q1424 1279 1382.5 1264.0Q1341 1249 1307 1221Q1172 1280 1024 1280Q949 1280 876.0 1264.0Q803 1248 735.0 1217.5Q667 1187 606.5 1143.0Q546 1099 497 1043Q473 1016 454.5 986.0Q436 956 414 928Q402 913 391.0 904.5Q380 896 359 896Q333 896 314.0 915.0Q295 934 295 960ZM1024 0Q998 0 975.0 10.5Q952 21 934.5 38.5Q917 56 906.5 79.0Q896 102 896 128Q896 159 909 185L1357 1081Q1374 1114 1404.0 1133.0Q1434 1152 1472 1152Q1510 1152 1539.5 1133.5Q1569 1115 1586 1081L2034 185Q2047 159 2047 128Q2047 102 2036.5 79.0Q2026 56 2008.5 38.5Q1991 21 1968.0 10.5Q1945 0 1919 0ZM555 705Q555 719 561 731Q591 797 640.0 851.5Q689 906 750.5 944.0Q812 982 882.0 1003.0Q952 1024 1024 1024Q1102 1024 1174 1002L1116 885Q1069 896 1024 896Q933 896 857.0 858.5Q781 821 724 749Q710 732 699.0 714.0Q688 696 677 677Q667 660 653.0 650.0Q639 640 619 640Q593 640 574.0 659.5Q555 679 555 705ZM1535 448V833Q1535 859 1516.0 878.0Q1497 897 1471 897Q1445 897 1426.0 878.0Q1407 859 1407 833V448Q1407 422 1426.0 403.0Q1445 384 1471 384Q1497 384 1516.0 403.0Q1535 422 1535 448ZM888 428Q864 465 864 512Q864 542 875.5 570.0Q887 598 906.5 619.5Q926 641 952.5 655.0Q979 669 1009 671ZM1535 192Q1535 219 1516.5 237.5Q1498 256 1471 256Q1445 256 1426.0 237.0Q1407 218 1407 192Q1407 166 1426.0 147.0Q1445 128 1471 128Q1497 128 1516.0 147.0Q1535 166 1535 192Z"/>
  </g>
</svg>