<?xml version="1.0" encoding="utf-8"?>
<svg xmlns="http://www.w3.org/2000/svg" width="16" height="16" viewBox="0 0 2048 2048">
  <g transform="translate(0, 2048) scale(1, -1)">
    <path fill="#ffffff" d="M2 1216Q2 1235 13 1252Q92 1378 204.5 1478.0Q317 1578 450.0 1648.0Q583 1718 729.5 1755.0Q876 1792 1024 1792Q1172 1792 1318.5 1755.0Q1465 1718 1597.5 1648.0Q1730 1578 1842.5 1478.0Q1955 1378 2035 1252Q2046 1235 2046 1216Q2046 1190 2027.0 1171.0Q2008 1152 1982 1152Q1962 1152 1951.5 1159.0Q1941 1166 1929 1180Q1896 1220 1867.0 1260.5Q1838 1301 1801 1338Q1724 1416 1634.0 1477.0Q1544 1538 1445.0 1579.5Q1346 1621 1240.0 1642.5Q1134 1664 1024 1664Q914 1664 808.0 1642.5Q702 1621 603.0 1579.5Q504 1538 414.5 1477.0Q325 1416 247 1338Q223 1314 200.5 1288.5Q178 1263 158 1235Q148 1221 139.0 1207.0Q130 1193 119 1180Q108 1167 95.5 1159.5Q83 1152 66 1152Q40 1152 21.0 1171.0Q2 1190 2 1216ZM295 960Q295 976 303 992Q354 1088 433.0 1165.0Q512 1242 607.5 1296.0Q703 1350 810.0 1379.0Q917 1408 1024 1408Q1188 1408 1338.5 1346.5Q1489 1285 1607 1170Q1563 1184 1519 1184Q1491 1184 1464.0 1178.0Q1437 1172 1411 1164Q1325 1221 1226.0 1250.5Q1127 1280 1024 1280Q949 1280 876.0 1264.0Q803 1248 735.0 1217.5Q667 1187 606.5 1143.0Q546 1099 497 1043Q473 1016 454.5 986.0Q436 956 414 928Q402 913 391.0 904.5Q380 896 359 896Q333 896 314.0 915.0Q295 934 295 960ZM1822 0Q1802 0 1780.5 4.0Q1759 8 1740 16Q1687 40 1634.5 74.0Q1582 108 1535.5 150.0Q1489 192 1450.0 240.5Q1411 289 1385 342Q1331 451 1306.0 563.5Q1281 676 1281 797Q1281 833 1293.0 865.5Q1305 898 1326.0 925.5Q1347 953 1375.5 973.5Q1404 994 1437 1005Q1457 1012 1477.5 1018.0Q1498 1024 1519 1024Q1556 1024 1580.5 1008.0Q1605 992 1622.5 967.0Q1640 942 1652.0 912.0Q1664 882 1676 854Q1689 824 1689 790Q1689 745 1670.0 714.0Q1651 683 1628.5 661.5Q1606 640 1587.5 624.5Q1569 609 1569 594Q1569 584 1576.0 564.0Q1583 544 1594.0 520.0Q1605 496 1619.0 470.5Q1633 445 1647.5 424.5Q1662 404 1675.5 390.5Q1689 377 1699 377Q1718 377 1738.0 384.0Q1758 391 1778.5 399.5Q1799 408 1820.0 415.0Q1841 422 1862 422Q1885 422 1905.0 411.5Q1925 401 1939 382L2024 262Q2048 229 2048 188Q2048 165 2042.0 147.5Q2036 130 2026.0 115.5Q2016 101 2002.5 88.0Q1989 75 1974 61Q1942 32 1904.0 16.0Q1866 0 1822 0ZM555 705Q555 719 561 731Q591 797 640.0 851.5Q689 906 750.5 944.0Q812 982 882.0 1003.0Q952 1024 1024 1024Q1107 1024 1182 999Q1146 946 1131 881Q1078 896 1024 896Q933 896 857.0 858.5Q781 821 724 749Q710 732 699.0 714.0Q688 696 677 677Q667 660 653.0 650.0Q639 640 619 640Q593 640 574.0 659.5Q555 679 555 705ZM864 512Q864 545 877.0 574.0Q890 603 911.5 624.5Q933 646 962.0 659.0Q991 672 1024 672Q1081 672 1125 636Q1130 585 1139.5 535.0Q1149 485 1165 436Q1144 398 1106.0 375.0Q1068 352 1024 352Q991 352 962.0 365.0Q933 378 911.5 399.5Q890 421 877.0 450.0Q864 479 864 512Z"/>
  </g>
</svg>