<?xml version="1.0" encoding="utf-8"?>
<svg xmlns="http://www.w3.org/2000/svg" width="16" height="16" viewBox="0 0 2048 2048">
  <g transform="translate(0, 2048) scale(1, -1)">
    <path fill="#000000" d="M256 704V1608Q256 1696 292.0 1775.5Q328 1855 388.5 1915.5Q449 1976 528.5 2012.0Q608 2048 696 2048H1224Q1312 2048 1391.5 2012.0Q1471 1976 1531.5 1915.5Q1592 1855 1628.0 1775.5Q1664 1696 1664 1608V704Q1664 609 1639.5 520.0Q1615 431 1569.5 352.5Q1524 274 1459.0 208.5Q1394 143 1312 95Q1149 0 960 0Q863 0 773.0 25.0Q683 50 605.0 96.0Q527 142 462.5 206.5Q398 271 352.0 349.0Q306 427 281.0 517.0Q256 607 256 704ZM1536 704V1607Q1536 1670 1510.5 1727.0Q1485 1784 1442.5 1826.5Q1400 1869 1343.0 1894.5Q1286 1920 1223 1920H1024V1344Q1024 1318 1005.0 1299.0Q986 1280 960 1280Q934 1280 915.0 1299.0Q896 1318 896 1344V1920H697Q634 1920 577.0 1894.5Q520 1869 477.5 1826.5Q435 1784 409.5 1727.0Q384 1670 384 1607V704Q384 584 429.0 479.0Q474 374 552.0 296.0Q630 218 735.0 173.0Q840 128 960 128Q1079 128 1184.0 173.5Q1289 219 1367.0 297.0Q1445 375 1490.5 480.0Q1536 585 1536 704Z"/>
  </g>
</svg>