<?xml version="1.0" encoding="utf-8"?>
<svg id="" width="16" height="16" style="width:16px;height:16px;" version="1.1" xmlns="http://www.w3.org/2000/svg" viewBox="0 0 2048 2048" enable-background="new 0 0 2048 2048" xml:space="preserve">
    <path fill="#ffffff" d="M955.73 232.53 l-225.06 225.07 q-20.27 20.27 -48 20.27 q-27.74 0 -48 -20.27 q-20.26 -20.27 -20.26 -48 q0 -27.73 20.27 -48 l341.33 -341.33 q20.27 -20.27 48 -20.27 q27.73 0 48 20.27 l341.33 341.33 q20.27 20.27 20.27 48 q0 27.73 -20.26 48 q-20.27 20.27 -48.01 20.27 q-27.73 0 -48 -20.27 l-225.06 -225.07 l0 518.4 q0 27.74 -20.27 48 q-20.27 20.27 -48 20.27 q-27.73 0 -48 -20.27 q-20.27 -20.26 -20.27 -48 l0 -518.4 ZM0 1024 q0 -27.73 20.27 -48 l341.33 -341.33 q20.27 -20.27 48 -20.27 q27.73 0 48 20.26 q20.27 20.26 20.27 48 q0 27.73 -20.27 48 l-224 225.06 l517.33 0 q27.74 0 48 20.27 q20.27 20.27 20.27 48 q0 27.73 -20.27 48 q-20.26 20.27 -48 20.27 l-517.33 0 l224 225.06 q20.27 20.27 20.27 48 q0 27.74 -20.27 48.01 q-20.27 20.26 -48 20.26 q-27.73 0 -48 -20.27 l-341.33 -341.33 q-20.27 -20.27 -20.27 -48 ZM1570.13 1365.33 q0 -27.73 20.27 -48 l225.07 -225.06 l-518.4 0 q-27.74 0 -48 -20.27 q-20.27 -20.27 -20.27 -48 q0 -27.73 20.27 -48 q20.26 -20.27 48 -20.27 l518.4 0 l-225.07 -225.06 q-20.27 -20.27 -20.27 -48 q0 -27.74 20.27 -48 q20.27 -20.26 48 -20.26 q27.73 0 48 20.27 l341.33 341.33 q20.27 20.27 20.27 48 q0 27.73 -20.27 48 l-341.33 341.33 q-20.27 20.27 -48 20.27 q-27.73 0 -48 -20.26 q-20.27 -20.27 -20.27 -48.01 ZM614.4 1638.4 q0 -27.73 20.26 -48 q20.26 -20.27 48 -20.27 q27.73 0 48 20.27 l225.06 224 l0 -517.33 q0 -27.74 20.27 -48 q20.27 -20.27 48 -20.27 q27.73 0 48 20.27 q20.27 20.26 20.27 48 l0 517.33 l225.06 -224 q20.27 -20.27 48 -20.27 q27.74 0 48.01 20.27 q20.26 20.27 20.26 48 q0 27.73 -20.27 48 l-341.33 341.33 q-20.27 20.27 -48 20.27 q-27.73 0 -48 -20.27 l-341.33 -341.33 q-20.27 -20.27 -20.27 -48 Z"/>
</svg>