<?xml version="1.0" encoding="utf-8"?>
<svg xmlns="http://www.w3.org/2000/svg" height="16" width="16" viewBox="0 0 16 16">
  <g>
    <path id="path1" transform="rotate(0,8,8) translate(0,0) scale(0.03125,0.03125)  " fill="#FFFFFF" d="M64,224L64,432 64.234375,436.8125 64.9375,441.5 66.109375,446.0625 67.75,450.5 72.21875,458.71875 78.125,465.875 85.28125,471.78125 93.5,476.25 97.9375,477.890625 102.5,479.0625 107.1875,479.765625 112,480 400,480 404.8125,479.765625 409.5,479.0625 414.0625,477.890625 418.5,476.25 426.71875,471.78125 433.875,465.875 439.78125,458.71875 444.25,450.5 445.890625,446.0625 447.0625,441.5 447.765625,436.8125 448,432 448,224 64,224z M124.5,102.75L87.25,113.5 79.84375,116.3125 73.125,120.25 67.21875,125.125 62.25,130.75 58.2499961853027,137.09375 55.25,144.125 53.375,151.656265258789 52.75,159.5 53.28125,166.875 54.875,174 59,188.25 78.25,182.5 124.5,102.75z M236.75,70.25L168.75,90 156.78125,109.65625 145.375,129.625 122.75,169.75 190.5,150.25 236.75,70.25z M348.75,38L280.75,57.5 280.4375,58.2968864440918 279.75,59.6875152587891 278.6875,61.6718864440918 277.25,64.25 273.625,70.625 269.25,78.25 264.3125,86.8125076293945 259,96 253.624984741211,105.250030517578 248.5,114 243.8125,122.000015258789 239.75,129 238.03125,131.96875 236.625,134.375015258789 235.53125,136.218765258789 234.75,137.5 302.75,118 348.75,38z M388.5,33L379.0625,50.6562576293945 368.25,69.125 357.1875,87.59375 347,105.25 428,81.75 425.249969482422,73.2187576293945 422.5,65.125 419.375,57.625 415.5,50.8750038146973 410.71875,44.9375038146973 404.875,39.8749961853027 401.4609375,37.7109451293945 397.59375,35.8437576293945 393.2734375,34.2734413146973 388.5,33z M377.25,-0.25L383.8125,0.015627846121788 390.25,0.812507510185242 396.5625,2.14063310623169 402.75,3.99999904632568 408.75,6.33594417572021 414.5,9.0937614440918 420,12.2734489440918 425.25,15.8750038146973 430.203125,19.8750095367432 434.8125,24.2500114440918 443,34.125 446.515625,39.5703353881836 449.5625,45.2812767028809 452.140625,51.2578315734863 454.25,57.5 455.21875,60.9687728881836 456.625,65.375 459.875,75.5 462.625,85.5 463.46875,89.6875152587891 463.75,92.75 463.546875,95.3203277587891 462.9375,97.7812805175781 461.921875,100.132835388184 460.5,102.375 456.8125,106.031257629395 452.25,108.25 161.25,192 464,192 467.140625,192.296875 470.0625,193.1875 472.765625,194.671875 475.25,196.75 477.328094482422,199.234390258789 478.812469482422,201.937515258789 479.703094482422,204.859390258789 480,208 480,433.75 479.601531982422,441.53125 478.406219482422,449.125 476.414031982422,456.53125 473.625,463.75 470.171844482422,470.6484375 466.187469482422,477.09375 461.671875,483.0859375 456.625,488.625 451.0859375,493.671875 445.09375,498.1875 438.6484375,502.171875 431.75,505.625 424.53125,508.4140625 417.125,510.40625 409.53125,511.6015625 401.75,512 110.25,512 102.25,511.59375 94.5,510.375 87,508.34375 79.75,505.5 72.8515625,501.96875 66.40625,497.875 60.4140625,493.21875 54.875,488 49.84375,482.28125 45.375,476.125 41.4687461853027,469.53125 38.1249961853027,462.5 35.4453086853027,455.15625 33.53125,447.625 32.3828125,439.90625 31.9999980926514,432 31.9999980926514,210.25 31.9218730926514,209.984375 31.6875,209.1875 31.2968730926514,207.859375 30.7499980926514,206 29.4375,201.531265258789 28,196.625 25.25,187 24.6875,184.984375 24.25,183.4375 23.9375,182.359375 23.75,181.75 21.3750019073486,170.75 20.71875,165.1875 20.5000019073486,159.5 20.7734375,152.937515258789 21.59375,146.500015258789 22.9609375,140.187515258789 24.875,134 27.2656230926514,128.0078125 30.0624980926514,122.28125 33.2656211853027,116.8203125 36.8749961853027,111.625 45.25,102.15625 50,97.9140625 55.125,94 60.5703125,90.484375 66.28125,87.4375 72.2578125,84.859375 78.5,82.75 355.25,2.74999928474426 366,0.500011324882507 371.5625,-0.0624957196414471 377.25,-0.25z" />
  </g>
</svg>
