<?xml version="1.0" encoding="utf-8"?>
<svg xmlns="http://www.w3.org/2000/svg" width="16" height="16" viewBox="0 0 2048 2048">
  <g transform="translate(0, 2048) scale(1, -1)">
    <path fill="#000000" d="M504 128Q429 128 360.5 158.5Q292 189 240.5 240.5Q189 292 158.5 360.5Q128 429 128 504V1544Q128 1619 158.5 1687.5Q189 1756 240.5 1807.5Q292 1859 360.5 1889.5Q429 1920 504 1920H1544Q1619 1920 1687.5 1889.5Q1756 1859 1807.5 1807.5Q1859 1756 1889.5 1687.5Q1920 1619 1920 1544V504Q1920 429 1889.5 360.5Q1859 292 1807.5 240.5Q1756 189 1687.5 158.5Q1619 128 1544 128ZM1541 256Q1591 256 1636.5 276.5Q1682 297 1716.5 331.5Q1751 366 1771.5 411.5Q1792 457 1792 507V1541Q1792 1591 1771.5 1636.5Q1751 1682 1716.5 1716.5Q1682 1751 1636.5 1771.5Q1591 1792 1541 1792H507Q457 1792 411.5 1771.5Q366 1751 331.5 1716.5Q297 1682 276.5 1636.5Q256 1591 256 1541V507Q256 457 276.5 411.5Q297 366 331.5 331.5Q366 297 411.5 276.5Q457 256 507 256ZM384 1472V1600Q384 1626 403.0 1645.0Q422 1664 448 1664Q474 1664 493.0 1645.0Q512 1626 512 1600V1472Q512 1446 493.0 1427.0Q474 1408 448 1408Q422 1408 403.0 1427.0Q384 1446 384 1472ZM1536 1472V1600Q1536 1626 1555.0 1645.0Q1574 1664 1600 1664Q1626 1664 1645.0 1645.0Q1664 1626 1664 1600V1472Q1664 1446 1645.0 1427.0Q1626 1408 1600 1408Q1574 1408 1555.0 1427.0Q1536 1446 1536 1472ZM384 960V1088Q384 1114 403.0 1133.0Q422 1152 448 1152Q474 1152 493.0 1133.0Q512 1114 512 1088V960Q512 934 493.0 915.0Q474 896 448 896Q422 896 403.0 915.0Q384 934 384 960ZM1536 960V1088Q1536 1114 1555.0 1133.0Q1574 1152 1600 1152Q1626 1152 1645.0 1133.0Q1664 1114 1664 1088V960Q1664 934 1645.0 915.0Q1626 896 1600 896Q1574 896 1555.0 915.0Q1536 934 1536 960ZM384 448V576Q384 602 403.0 621.0Q422 640 448 640Q474 640 493.0 621.0Q512 602 512 576V448Q512 422 493.0 403.0Q474 384 448 384Q422 384 403.0 403.0Q384 422 384 448ZM1536 448V576Q1536 602 1555.0 621.0Q1574 640 1600 640Q1626 640 1645.0 621.0Q1664 602 1664 576V448Q1664 422 1645.0 403.0Q1626 384 1600 384Q1574 384 1555.0 403.0Q1536 422 1536 448Z"/>
  </g>
</svg>