<?xml version="1.0" encoding="utf-8"?>
<svg xmlns="http://www.w3.org/2000/svg" width="16" height="16" viewBox="0 0 2048 2048">
  <g transform="translate(0, 2048) scale(1, -1)">
    <path fill="#ffffff" d="M1797 2048Q1847 2048 1892.5 2027.5Q1938 2007 1972.5 1972.5Q2007 1938 2027.5 1892.5Q2048 1847 2048 1797V635Q2048 583 2027.0 537.5Q2006 492 1971.0 458.0Q1936 424 1889.5 404.0Q1843 384 1792 384H1408V128H1600Q1626 128 1645.0 109.0Q1664 90 1664 64Q1664 38 1645.0 19.0Q1626 0 1600 0H448Q422 0 403.0 19.0Q384 38 384 64Q384 90 403.0 109.0Q422 128 448 128H640V384H251Q201 384 155.5 404.5Q110 425 75.5 459.5Q41 494 20.5 539.5Q0 585 0 635V1797Q0 1847 20.5 1892.5Q41 1938 75.5 1972.5Q110 2007 155.5 2027.5Q201 2048 251 2048ZM1920 1792Q1920 1818 1910.0 1841.5Q1900 1865 1882.5 1882.5Q1865 1900 1841.5 1910.0Q1818 1920 1792 1920H256Q229 1920 206.0 1910.0Q183 1900 165.5 1882.5Q148 1865 138.0 1842.0Q128 1819 128 1792V640Q128 613 138.0 589.5Q148 566 165.0 549.0Q182 532 205.5 522.0Q229 512 256 512H1792Q1819 512 1842.0 522.0Q1865 532 1882.5 549.5Q1900 567 1910.0 590.0Q1920 613 1920 640ZM1413 1408Q1465 1408 1510.5 1387.0Q1556 1366 1590.0 1331.0Q1624 1296 1644.0 1249.5Q1664 1203 1664 1152Q1664 1099 1643.5 1052.5Q1623 1006 1588.5 971.5Q1554 937 1507.0 916.5Q1460 896 1408 896Q1357 896 1310.5 916.0Q1264 936 1229.0 970.0Q1194 1004 1173.0 1049.5Q1152 1095 1152 1147Q1152 1183 1160.0 1215.5Q1168 1248 1186 1280H862Q880 1248 888.0 1215.5Q896 1183 896 1147Q896 1095 875.0 1049.5Q854 1004 819.0 970.0Q784 936 737.5 916.0Q691 896 640 896Q587 896 540.5 916.5Q494 937 459.5 971.5Q425 1006 404.5 1052.5Q384 1099 384 1152Q384 1203 404.0 1249.5Q424 1296 458.0 1331.0Q492 1366 537.5 1387.0Q583 1408 635 1408ZM640 1280Q613 1280 590.0 1270.0Q567 1260 549.5 1242.5Q532 1225 522.0 1202.0Q512 1179 512 1152Q512 1125 522.0 1101.5Q532 1078 549.0 1061.0Q566 1044 589.5 1034.0Q613 1024 640 1024Q667 1024 690.0 1034.0Q713 1044 730.5 1061.5Q748 1079 758.0 1102.0Q768 1125 768 1152Q768 1178 758.0 1201.5Q748 1225 730.5 1242.5Q713 1260 689.5 1270.0Q666 1280 640 1280ZM1536 1152Q1536 1178 1526.0 1201.5Q1516 1225 1498.5 1242.5Q1481 1260 1457.5 1270.0Q1434 1280 1408 1280Q1381 1280 1358.0 1270.0Q1335 1260 1317.5 1242.5Q1300 1225 1290.0 1202.0Q1280 1179 1280 1152Q1280 1125 1290.0 1101.5Q1300 1078 1317.0 1061.0Q1334 1044 1357.5 1034.0Q1381 1024 1408 1024Q1435 1024 1458.0 1034.0Q1481 1044 1498.5 1061.5Q1516 1079 1526.0 1102.0Q1536 1125 1536 1152ZM768 128H1280V384H768Z"/>
  </g>
</svg>