<?xml version="1.0" encoding="utf-8"?>
<svg xmlns="http://www.w3.org/2000/svg" width="16" height="16" viewBox="0 0 2048 2048">
  <g transform="translate(0, 2048) scale(1, -1)">
    <path fill="#ffffff" d="M1984 671Q1984 638 1971.0 609.0Q1958 580 1936.5 558.5Q1915 537 1886.0 524.0Q1857 511 1824 511Q1791 511 1762.0 524.0Q1733 537 1711.5 558.5Q1690 580 1677.0 609.0Q1664 638 1664 671V706Q1647 703 1632 703Q1599 703 1570.0 716.0Q1541 729 1519.5 750.5Q1498 772 1485.0 801.0Q1472 830 1472 863Q1472 896 1485.0 925.0Q1498 954 1519.5 975.5Q1541 997 1570.0 1010.0Q1599 1023 1632 1023Q1647 1023 1664 1020V1669Q1664 1719 1643.5 1764.5Q1623 1810 1588.5 1844.5Q1554 1879 1508.5 1899.5Q1463 1920 1413 1920Q1342 1920 1281.0 1886.5Q1220 1853 1185 1790Q1232 1784 1273.0 1761.5Q1314 1739 1344.0 1704.5Q1374 1670 1391.0 1627.0Q1408 1584 1408 1536V379Q1408 329 1387.5 283.5Q1367 238 1332.5 203.5Q1298 169 1252.5 148.5Q1207 128 1157 128H379Q329 128 283.5 148.5Q238 169 203.5 203.5Q169 238 148.5 283.5Q128 329 128 379V1541Q128 1593 149.0 1638.5Q170 1684 205.0 1718.0Q240 1752 286.5 1772.0Q333 1792 384 1792H1045Q1066 1852 1103.5 1899.5Q1141 1947 1189.5 1980.0Q1238 2013 1295.5 2030.5Q1353 2048 1416 2048Q1494 2048 1562.5 2017.0Q1631 1986 1682.0 1933.0Q1733 1880 1762.5 1810.5Q1792 1741 1792 1664V828Q1808 831 1824 831Q1857 831 1886.0 818.0Q1915 805 1936.5 783.5Q1958 762 1971.0 733.0Q1984 704 1984 671ZM1280 1536Q1280 1562 1270.0 1585.5Q1260 1609 1242.5 1626.5Q1225 1644 1201.5 1654.0Q1178 1664 1152 1664H384Q357 1664 334.0 1654.0Q311 1644 293.5 1626.5Q276 1609 266.0 1586.0Q256 1563 256 1536V384Q256 357 266.0 333.5Q276 310 293.0 293.0Q310 276 333.5 266.0Q357 256 384 256H1152Q1179 256 1202.0 266.0Q1225 276 1242.5 293.5Q1260 311 1270.0 334.0Q1280 357 1280 384ZM1030 964Q1030 929 1001 910L609 653Q601 648 592.0 645.5Q583 643 574 643Q546 643 528.0 661.0Q510 679 510 707V1213Q510 1239 528.0 1258.5Q546 1278 573 1278Q592 1278 608 1267L1000 1018Q1030 999 1030 964ZM638 1097V825L848 963ZM1632 837Q1643 837 1653.5 843.5Q1664 850 1664 863Q1664 876 1654.5 885.5Q1645 895 1632 895Q1619 895 1609.5 885.5Q1600 876 1600 863Q1600 850 1610.5 843.5Q1621 837 1632 837ZM1824 645Q1835 645 1845.5 651.5Q1856 658 1856 671Q1856 684 1846.5 693.5Q1837 703 1824 703Q1811 703 1801.5 693.5Q1792 684 1792 671Q1792 658 1802.5 651.5Q1813 645 1824 645Z"/>
  </g>
</svg>