<?xml version="1.0" encoding="utf-8"?>
<svg xmlns="http://www.w3.org/2000/svg" width="16" height="16" viewBox="0 0 2048 2048">
  <g transform="translate(0, 2048) scale(1, -1)">
    <path fill="#ffffff" d="M0 1600Q0 1626 19.0 1645.0Q38 1664 64 1664Q90 1664 109 1645L192 1563L531 1901Q550 1920 576 1920Q602 1920 621.0 1901.0Q640 1882 640 1856Q640 1830 621 1811L237 1427Q218 1408 192 1408Q166 1408 147 1427L19 1555Q0 1574 0 1600ZM832 1536Q806 1536 787.0 1555.0Q768 1574 768 1600Q768 1626 787.0 1645.0Q806 1664 832 1664H1984Q2010 1664 2029.0 1645.0Q2048 1626 2048 1600Q2048 1574 2029.0 1555.0Q2010 1536 1984 1536ZM832 896Q806 896 787.0 915.0Q768 934 768 960Q768 986 787.0 1005.0Q806 1024 832 1024H1984Q2010 1024 2029.0 1005.0Q2048 986 2048 960Q2048 934 2029.0 915.0Q2010 896 1984 896ZM0 320Q0 346 19.0 365.0Q38 384 64 384Q90 384 109 365L192 283L531 621Q550 640 576 640Q602 640 621.0 621.0Q640 602 640 576Q640 550 621 531L237 147Q218 128 192 128Q166 128 147 147L19 275Q0 294 0 320ZM832 256Q806 256 787.0 275.0Q768 294 768 320Q768 346 787.0 365.0Q806 384 832 384H1984Q2010 384 2029.0 365.0Q2048 346 2048 320Q2048 294 2029.0 275.0Q2010 256 1984 256Z"/>
  </g>
</svg>