<?xml version="1.0" encoding="utf-8"?>
<svg xmlns="http://www.w3.org/2000/svg" width="16" height="16" viewBox="0 0 2048 2048">
  <g transform="translate(0, 2048) scale(1, -1)">
    <path fill="#000000" d="M1664 192Q1664 166 1645.0 147.0Q1626 128 1600 128H1280Q1280 101 1270.0 78.0Q1260 55 1242.5 37.5Q1225 20 1202.0 10.0Q1179 0 1152 0H512Q485 0 461.5 10.0Q438 20 421.0 37.0Q404 54 394.0 77.5Q384 101 384 128H64Q38 128 19.0 147.0Q0 166 0 192Q0 218 19.0 237.0Q38 256 64 256H384Q384 307 421 346Q457 384 512 384H640Q640 411 650.0 434.0Q660 457 677.5 474.5Q695 492 718.0 502.0Q741 512 768 512V640H635Q585 640 539.5 660.5Q494 681 459.5 715.5Q425 750 404.5 795.5Q384 841 384 891V1797Q384 1847 404.5 1892.5Q425 1938 459.5 1972.5Q494 2007 539.5 2027.5Q585 2048 635 2048H922Q901 2019 887.0 1987.0Q873 1955 868 1920H640Q613 1920 590.0 1910.0Q567 1900 549.5 1882.5Q532 1865 522.0 1842.0Q512 1819 512 1792V896Q512 869 522.0 845.5Q532 822 549.0 805.0Q566 788 589.5 778.0Q613 768 640 768H1024Q1061 768 1093 788Q1121 782 1152 782Q1181 782 1209.0 787.5Q1237 793 1263 804Q1248 766 1224.0 736.0Q1200 706 1169.0 684.5Q1138 663 1101.0 651.5Q1064 640 1024 640H896V512Q922 512 945.5 502.0Q969 492 986.5 474.5Q1004 457 1014.0 433.5Q1024 410 1024 384H1152Q1178 384 1201.0 374.0Q1224 364 1242 346Q1280 308 1280 256H1600Q1626 256 1645.0 237.0Q1664 218 1664 192ZM1983 1472Q1983 1437 1966.0 1407.5Q1949 1378 1919 1361L1216 959Q1187 942 1152 942Q1126 942 1102.5 952.0Q1079 962 1061.5 979.5Q1044 997 1034.0 1020.5Q1024 1044 1024 1070V1874Q1024 1900 1034.0 1923.5Q1044 1947 1061.5 1964.5Q1079 1982 1102.5 1992.0Q1126 2002 1152 2002Q1187 2002 1216 1985L1919 1583Q1949 1566 1966.0 1536.5Q1983 1507 1983 1472ZM928 1088Q928 1048 900.0 1020.0Q872 992 832 992Q792 992 764.0 1020.0Q736 1048 736 1088Q736 1128 764.0 1156.0Q792 1184 832 1184Q872 1184 900.0 1156.0Q928 1128 928 1088ZM1152 128V256H960Q938 256 925.0 264.5Q912 273 905.5 286.5Q899 300 897.0 316.5Q895 333 895 350Q895 359 895.5 367.5Q896 376 896 384H768V350Q768 333 766.0 316.5Q764 300 757.5 286.5Q751 273 738.5 264.5Q726 256 704 256H512V128Z"/>
  </g>
</svg>