<?xml version="1.0" encoding="utf-8"?>
<svg xmlns="http://www.w3.org/2000/svg" width="16" height="16" viewBox="0 0 2048 2048">
  <g transform="translate(0, 2048) scale(1, -1)">
    <path fill="#000000" d="M192 512Q153 512 118.0 527.0Q83 542 56.5 568.5Q30 595 15.0 630.0Q0 665 0 704V1600Q0 1639 15.0 1674.0Q30 1709 56.5 1735.5Q83 1762 118.0 1777.0Q153 1792 192 1792H1600Q1639 1792 1674.0 1777.0Q1709 1762 1735.5 1735.5Q1762 1709 1777.0 1674.0Q1792 1639 1792 1600V1024H1664V1600Q1664 1626 1645.0 1645.0Q1626 1664 1600 1664H192Q166 1664 147.0 1645.0Q128 1626 128 1600V704Q128 678 147.0 659.0Q166 640 192 640H640V512ZM523 1216Q523 1233 532 1248Q567 1314 622.0 1367.5Q677 1421 743.0 1458.5Q809 1496 883.0 1516.0Q957 1536 1031 1536Q1105 1536 1179.0 1516.0Q1253 1496 1319.0 1458.5Q1385 1421 1440.0 1367.5Q1495 1314 1530 1248Q1539 1233 1539 1216Q1539 1189 1520.0 1170.5Q1501 1152 1474 1152Q1440 1152 1419 1184Q1384 1238 1347.0 1276.0Q1310 1314 1254 1347Q1150 1408 1031 1408Q971 1408 914.5 1393.0Q858 1378 807 1348Q779 1332 756.5 1314.0Q734 1296 714.5 1276.0Q695 1256 677.5 1233.0Q660 1210 643 1184Q622 1152 587 1152Q561 1152 542.0 1171.0Q523 1190 523 1216ZM1031 1152Q978 1152 935.0 1126.5Q892 1101 864 1056Q854 1041 841.5 1032.5Q829 1024 810 1024Q784 1024 764.5 1042.0Q745 1060 745 1087Q745 1105 754 1120Q775 1157 805.0 1186.5Q835 1216 871.0 1237.0Q907 1258 948.0 1269.0Q989 1280 1031 1280Q1073 1280 1114.0 1269.0Q1155 1258 1191.0 1237.0Q1227 1216 1257.0 1186.5Q1287 1157 1308 1120Q1317 1105 1317 1088Q1317 1062 1298.0 1043.0Q1279 1024 1253 1024Q1218 1024 1197 1056Q1168 1101 1126.5 1126.5Q1085 1152 1031 1152ZM960 256Q921 256 886.0 271.0Q851 286 824.5 312.5Q798 339 783.0 374.0Q768 409 768 448V704Q768 743 783.0 778.0Q798 813 824.5 839.5Q851 866 886.0 881.0Q921 896 960 896H1856Q1895 896 1930.0 881.0Q1965 866 1991.5 839.5Q2018 813 2033.0 778.0Q2048 743 2048 704V448Q2048 409 2033.0 374.0Q2018 339 1991.5 312.5Q1965 286 1930.0 271.0Q1895 256 1856 256ZM1856 384Q1882 384 1901.0 403.0Q1920 422 1920 448V704Q1920 730 1901.0 749.0Q1882 768 1856 768H960Q934 768 915.0 749.0Q896 730 896 704V448Q896 422 915.0 403.0Q934 384 960 384ZM1664 576Q1664 602 1683.0 621.0Q1702 640 1728 640Q1754 640 1773.0 621.0Q1792 602 1792 576Q1792 550 1773.0 531.0Q1754 512 1728 512Q1702 512 1683.0 531.0Q1664 550 1664 576Z"/>
  </g>
</svg>