<?xml version="1.0" encoding="utf-8"?>
<svg xmlns="http://www.w3.org/2000/svg" width="16" height="16" viewBox="0 0 2048 2048">
  <g transform="translate(0, 2048) scale(1, -1)">
    <path fill="#ffffff" d="M1407 1600Q1407 1627 1426.5 1645.5Q1446 1664 1472 1664Q1498 1664 1517 1645L1599 1563L1938 1901Q1957 1920 1984 1920Q2010 1920 2029.0 1901.0Q2048 1882 2048 1856Q2048 1830 2029 1811L1645 1427Q1626 1408 1599 1408Q1573 1408 1554 1427L1426 1555Q1407 1574 1407 1600ZM64 1536Q38 1536 19.0 1555.0Q0 1574 0 1600Q0 1626 19.0 1645.0Q38 1664 64 1664H1216Q1242 1664 1261.0 1645.0Q1280 1626 1280 1600Q1280 1574 1261.0 1555.0Q1242 1536 1216 1536ZM64 896Q38 896 19.0 915.0Q0 934 0 960Q0 986 19.0 1005.0Q38 1024 64 1024H1216Q1242 1024 1261.0 1005.0Q1280 986 1280 960Q1280 934 1261.0 915.0Q1242 896 1216 896ZM1407 320Q1407 347 1426.5 365.5Q1446 384 1472 384Q1498 384 1517 365L1599 283L1938 621Q1957 640 1984 640Q2010 640 2029.0 621.0Q2048 602 2048 576Q2048 550 2029 531L1645 147Q1626 128 1599 128Q1573 128 1554 147L1426 275Q1407 294 1407 320ZM64 256Q38 256 19.0 275.0Q0 294 0 320Q0 346 19.0 365.0Q38 384 64 384H1216Q1242 384 1261.0 365.0Q1280 346 1280 320Q1280 294 1261.0 275.0Q1242 256 1216 256Z"/>
  </g>
</svg>