<?xml version="1.0" encoding="utf-8"?>
<svg xmlns="http://www.w3.org/2000/svg" width="16" height="16" viewBox="0 0 2048 2048">
  <g transform="translate(0, 2048) scale(1, -1)">
    <path fill="#ffffff" d="M504 128Q429 128 360.5 158.5Q292 189 240.5 240.5Q189 292 158.5 360.5Q128 429 128 504V1544Q128 1619 158.5 1687.5Q189 1756 240.5 1807.5Q292 1859 360.5 1889.5Q429 1920 504 1920H1544Q1619 1920 1687.5 1889.5Q1756 1859 1807.5 1807.5Q1859 1756 1889.5 1687.5Q1920 1619 1920 1544V504Q1920 429 1889.5 360.5Q1859 292 1807.5 240.5Q1756 189 1687.5 158.5Q1619 128 1544 128ZM1541 256Q1591 256 1636.5 276.5Q1682 297 1716.5 331.5Q1751 366 1771.5 411.5Q1792 457 1792 507V1541Q1792 1591 1771.5 1636.5Q1751 1682 1716.5 1716.5Q1682 1751 1636.5 1771.5Q1591 1792 1541 1792H507Q457 1792 411.5 1771.5Q366 1751 331.5 1716.5Q297 1682 276.5 1636.5Q256 1591 256 1541V507Q256 457 276.5 411.5Q297 366 331.5 331.5Q366 297 411.5 276.5Q457 256 507 256ZM384 1024Q384 1157 434.0 1273.5Q484 1390 571.0 1477.0Q658 1564 774.5 1614.0Q891 1664 1024 1664Q1157 1664 1273.5 1614.0Q1390 1564 1477.0 1477.0Q1564 1390 1614.0 1273.5Q1664 1157 1664 1024Q1664 891 1614.0 774.5Q1564 658 1477.0 571.0Q1390 484 1273.5 434.0Q1157 384 1024 384Q891 384 774.5 434.0Q658 484 571.0 571.0Q484 658 434.0 774.5Q384 891 384 1024ZM1536 1024V1034Q1536 1138 1494.5 1229.5Q1453 1321 1382.5 1389.0Q1312 1457 1219.5 1496.5Q1127 1536 1024 1536Q918 1536 824.5 1496.0Q731 1456 661.5 1386.5Q592 1317 552.0 1223.5Q512 1130 512 1024Q512 918 552.0 824.5Q592 731 661.5 661.5Q731 592 824.5 552.0Q918 512 1024 512Q1130 512 1223.5 552.0Q1317 592 1386.5 661.5Q1456 731 1496.0 824.5Q1536 918 1536 1024ZM896 1024Q896 1051 906.0 1074.0Q916 1097 933.5 1114.5Q951 1132 974.0 1142.0Q997 1152 1024 1152Q1050 1152 1073.5 1142.0Q1097 1132 1114.5 1114.5Q1132 1097 1142.0 1073.5Q1152 1050 1152 1024Q1152 997 1142.0 974.0Q1132 951 1114.5 933.5Q1097 916 1074.0 906.0Q1051 896 1024 896Q997 896 973.5 906.0Q950 916 933.0 933.0Q916 950 906.0 973.5Q896 997 896 1024Z"/>
  </g>
</svg>