<?xml version="1.0" encoding="utf-8"?>
<svg xmlns="http://www.w3.org/2000/svg" height="16" width="16" viewBox="0 0 16 16">
  <g>
    <path id="path1" transform="rotate(0,8,8) translate(0,-0.5) scale(0.03125,0.03125)  " fill="#000000" d="M490.25,225.25L494.625,225.6875 498.75,227 502.46875,229.0625 505.625,231.75 508.218719482422,235 510.25,238.75 511.5625,242.875 512,247.25 512,432 511.765625,436.8125 511.0625,441.5 509.890625,446.0625 508.25,450.5 503.78125,458.71875 497.875,465.875 490.71875,471.78125 482.5,476.25 478.0625,477.890625 473.5,479.0625 468.8125,479.765625 464,480 459.1875,479.765625 454.5,479.0625 449.9375,477.890625 445.5,476.25 437.28125,471.78125 430.125,465.875 424.21875,458.71875 419.75,450.5 418.109375,446.0625 416.9375,441.5 416.234375,436.8125 416,432 416.234375,427.1875 416.9375,422.5 418.109375,417.9375 419.75,413.5 424.21875,405.28125 430.125,398.125 437.28125,392.21875 445.5,387.75 449.9375,386.109375 454.5,384.9375 459.1875,384.234375 464,384 471.874969482422,384.6875 480,386.75 480,307.5 352,333 352,464 351.765625,468.8125 351.0625,473.5 349.890625,478.0625 348.25,482.5 343.78125,490.71875 337.875,497.875 330.71875,503.78125 322.5,508.25 318.0625,509.890625 313.5,511.0625 308.8125,511.765625 304,512 299.1875,511.765625 294.5,511.0625 289.9375,509.890625 285.5,508.25 277.28125,503.78125 270.125,497.875 264.21875,490.71875 259.75,482.5 258.109375,478.0625 256.9375,473.5 256.234375,468.8125 256,464 256.234375,459.1875 256.9375,454.5 258.109375,449.9375 259.75,445.5 264.21875,437.28125 270.125,430.125 277.28125,424.21875 285.5,419.75 289.9375,418.109375 294.5,416.9375 299.1875,416.234375 304,416 311.875,416.6875 320,418.75 320,277 320.3203125,273.21875 321.28125,269.625 322.8828125,266.21875 325.125,263 327.8359375,260.171875 330.84375,257.9375 334.1484375,256.296875 337.75,255.25 485.75,225.75 490.25,225.25z M64,64L57.5,64.625 51.5,66.5 46.09375,69.4687652587891 41.375,73.375 37.46875,78.0937652587891 34.5,83.5 32.625,89.5 32,96 32,128 193.5,128 198.468734741211,127.656257629395 202.875,126.625 207.031234741211,124.906257629395 211.25,122.5 233,108 209.5,76.75 204.4375,71.40625 198.25,67.375 194.828125,65.8984375 191.3125,64.84375 187.703125,64.2109375 184,64 64,64z M62.75,32L184,32 191.4140625,32.4218902587891 198.65625,33.6875228881836 205.7265625,35.7968902587891 212.625,38.75 219.1484375,42.4531402587891 225.09375,46.8125228881836 230.4609375,51.8281402587891 235.25,57.5 264,96 449.25,96 455.4296875,96.3203125 461.46875,97.28125 467.3671875,98.8828201293945 473.125,101.125 478.640625,103.906265258789 483.812469482422,107.125015258789 488.640594482422,110.781265258789 493.125,114.875 497.218719482422,119.359390258789 500.874969482422,124.187515258789 504.09375,129.359390258789 506.875,134.875 509.1171875,140.6328125 510.71875,146.531265258789 511.6796875,152.570327758789 512,158.75 512,184 480,192 480,160 479.374969482422,153.687515258789 477.5,147.75 474.5,142.3125 470.5,137.5 465.6875,133.5 460.25,130.5 454.312469482422,128.625 448,128 261,128 229,149.25 220.781234741211,153.953140258789 212.124984741211,157.3125 203.031234741211,159.328125 193.5,160 32,160 32,416 32.625,422.53125 34.5,428.625 37.4375,434.09375 41.25,438.75 45.90625,442.5625 51.375,445.5 57.46875,447.375 64,448 217.5,448 216.374984741211,456 216,464 216.374984741211,472.125 217.5,480 62.75,480 56.5703125,479.6796875 50.5312461853027,478.71875 44.6328086853027,477.1171875 38.875,474.875 33.359375,472.09375 28.1875,468.875 23.359375,465.21875 18.875,461.125 14.78125,456.640625 11.125,451.8125 7.90624952316284,446.640625 5.125,441.125 2.8828125,435.3671875 1.28125,429.46875 0.3203125,423.4296875 0,417.25 0,94.75 0.3203125,88.5703277587891 1.28125,82.5312728881836 2.8828125,76.6328353881836 5.125,70.875 7.90624952316284,65.3593826293945 11.125,60.1875076293945 14.78125,55.3593788146973 18.875,50.875 23.359375,46.7812538146973 28.1875,43.1250076293945 33.359375,39.9062576293945 38.875,37.125 44.6328086853027,34.8828353881836 50.5312461853027,33.2812767028809 56.5703125,32.3203315734863 62.75,32z" />
  </g>
</svg>
