<?xml version="1.0" encoding="utf-8"?>
<svg xmlns="http://www.w3.org/2000/svg" width="16" height="16" viewBox="0 0 2048 2048">
  <g transform="translate(0, 2048) scale(1, -1)">
    <path fill="#000000" d="M2049 64Q2049 38 2030.0 19.0Q2011 0 1985 0Q1958 0 1939 19L640 1318Q625 1303 612.0 1291.5Q599 1280 576 1280Q550 1280 531.0 1299.0Q512 1318 512 1344Q512 1367 523.5 1380.0Q535 1393 550 1408L422 1536H384Q329 1536 293 1498Q268 1473 261.5 1446.0Q255 1419 255 1389Q255 1378 255.5 1367.0Q256 1356 256 1344Q256 1318 237.0 1299.0Q218 1280 192 1280Q170 1280 157.0 1288.5Q144 1297 137.5 1310.5Q131 1324 129.0 1340.5Q127 1357 127 1374Q127 1383 127.5 1391.5Q128 1400 128 1408Q128 1450 141.0 1488.5Q154 1527 177.5 1559.0Q201 1591 234.0 1615.0Q267 1639 306 1652L19 1939Q0 1958 0 1984Q0 2011 19.5 2029.5Q39 2048 65 2048Q91 2048 110 2029L2030 109Q2049 90 2049 64ZM1296 1024 1024 1296V1480Q1024 1571 1060.5 1651.0Q1097 1731 1158.5 1791.0Q1220 1851 1301.5 1885.5Q1383 1920 1472 1920Q1561 1920 1642.5 1885.5Q1724 1851 1785.5 1791.0Q1847 1731 1883.5 1651.0Q1920 1571 1920 1480V1216Q1920 1177 1905.0 1142.0Q1890 1107 1863.5 1080.5Q1837 1054 1802.0 1039.0Q1767 1024 1728 1024H1600Q1574 1024 1555.0 1043.0Q1536 1062 1536 1088V1472Q1536 1498 1555.0 1517.0Q1574 1536 1600 1536H1786Q1775 1591 1745.5 1638.0Q1716 1685 1674.0 1719.0Q1632 1753 1580.0 1772.5Q1528 1792 1472 1792Q1416 1792 1364.0 1772.5Q1312 1753 1270.0 1719.0Q1228 1685 1198.5 1638.0Q1169 1591 1158 1536H1344Q1370 1536 1389.0 1517.0Q1408 1498 1408 1472V1088Q1408 1065 1399.0 1052.0Q1390 1039 1376.0 1033.0Q1362 1027 1345.0 1025.5Q1328 1024 1311 1024ZM677 1664Q640 1701 603.5 1737.0Q567 1773 531 1811Q512 1830 512 1856Q512 1882 531.0 1901.0Q550 1920 576 1920Q602 1920 621 1901L877 1645Q896 1626 896 1600Q896 1584 888.0 1570.0Q880 1556 868.5 1543.5Q857 1531 844.0 1520.0Q831 1509 821 1499L656 1664ZM1280 1152V1408H1152V1216Q1152 1190 1171.0 1171.0Q1190 1152 1216 1152ZM1792 1408H1664V1152H1728Q1754 1152 1773.0 1171.0Q1792 1190 1792 1216ZM832 128H704Q678 128 659.0 147.0Q640 166 640 192V576Q640 602 659.0 621.0Q678 640 704 640H890Q879 695 849.5 742.0Q820 789 778.0 823.0Q736 857 684.0 876.5Q632 896 576 896Q520 896 468.0 876.5Q416 857 374.0 823.0Q332 789 302.5 742.0Q273 695 262 640H448Q474 640 493.0 621.0Q512 602 512 576V192Q512 166 493.0 147.0Q474 128 448 128H320Q281 128 246.0 143.0Q211 158 184.5 184.5Q158 211 143.0 246.0Q128 281 128 320V584Q128 675 164.5 755.0Q201 835 262.5 895.0Q324 955 405.5 989.5Q487 1024 576 1024Q665 1024 746.5 989.5Q828 955 889.5 895.0Q951 835 987.5 755.0Q1024 675 1024 584V320Q1024 281 1009.0 246.0Q994 211 967.5 184.5Q941 158 906.0 143.0Q871 128 832 128Z"/>
  </g>
</svg>