<?xml version="1.0" encoding="utf-8"?>
<svg xmlns="http://www.w3.org/2000/svg" width="16" height="16" viewBox="0 0 2048 2048">
  <g transform="translate(0, 2048) scale(1, -1)">
    <path fill="#ffffff" d="M1792 1649V1376Q1792 1350 1773.5 1331.0Q1755 1312 1729 1312Q1722 1312 1681.0 1323.5Q1640 1335 1580.5 1352.0Q1521 1369 1452.5 1390.0Q1384 1411 1322.5 1430.0Q1261 1449 1214.0 1463.0Q1167 1477 1152 1482V376Q1152 298 1121.0 229.5Q1090 161 1037.0 110.0Q984 59 914.5 29.5Q845 0 768 0Q688 0 618.0 30.0Q548 60 496.0 112.0Q444 164 414.0 234.0Q384 304 384 384Q384 461 413.5 530.5Q443 600 494.0 653.0Q545 706 613.5 737.0Q682 768 760 768Q835 768 901.5 744.5Q968 721 1024 670V1984Q1024 2010 1043.0 2029.0Q1062 2048 1088 2048Q1094 2048 1131.5 2038.0Q1169 2028 1222.0 2012.0Q1275 1996 1337.0 1977.5Q1399 1959 1455.0 1941.5Q1511 1924 1553.0 1911.0Q1595 1898 1609 1894Q1650 1882 1683.5 1858.0Q1717 1834 1741.0 1802.0Q1765 1770 1778.5 1731.0Q1792 1692 1792 1649ZM1664 1462V1649Q1664 1691 1639.0 1725.5Q1614 1760 1573 1772L1152 1898V1616ZM1024 384V389Q1024 441 1003.0 486.5Q982 532 947.0 566.0Q912 600 865.5 620.0Q819 640 768 640Q715 640 668.5 619.5Q622 599 587.5 564.5Q553 530 532.5 483.0Q512 436 512 384Q512 331 532.5 284.5Q553 238 587.5 203.5Q622 169 668.5 148.5Q715 128 768 128Q820 128 867.0 148.5Q914 169 948.5 203.5Q983 238 1003.5 284.5Q1024 331 1024 384Z"/>
  </g>
</svg>