<?xml version="1.0" encoding="utf-8"?>
<svg xmlns="http://www.w3.org/2000/svg" width="16" height="16" viewBox="0 0 2048 2048">
  <g transform="translate(0, 2048) scale(1, -1)">
    <path fill="#000000" d="M64 1536Q38 1536 19.0 1555.0Q0 1574 0 1600Q0 1626 19.0 1645.0Q38 1664 64 1664H1984Q2010 1664 2029.0 1645.0Q2048 1626 2048 1600Q2048 1574 2029.0 1555.0Q2010 1536 1984 1536ZM64 1024Q38 1024 19.0 1043.0Q0 1062 0 1088Q0 1114 19.0 1133.0Q38 1152 64 1152H1024Q1050 1152 1069.0 1133.0Q1088 1114 1088 1088Q1088 1062 1069.0 1043.0Q1050 1024 1024 1024ZM1024 192Q1024 231 1039.0 266.0Q1054 301 1080.5 327.5Q1107 354 1142.0 369.0Q1177 384 1216 384Q1247 384 1280 373V940Q1280 971 1300.5 996.0Q1321 1021 1351 1027L1943 1145Q1948 1146 1952.0 1146.5Q1956 1147 1961 1147Q1979 1147 1995.0 1140.0Q2011 1133 2022.5 1121.0Q2034 1109 2041.0 1093.0Q2048 1077 2048 1059V320Q2048 281 2033.0 246.0Q2018 211 1991.5 184.5Q1965 158 1930.0 143.0Q1895 128 1856 128Q1817 128 1782.0 143.0Q1747 158 1720.5 184.5Q1694 211 1679.0 246.0Q1664 281 1664 320Q1664 359 1679.0 394.0Q1694 429 1720.5 455.5Q1747 482 1782.0 497.0Q1817 512 1856 512Q1887 512 1920 501V818L1408 716V192Q1408 153 1393.0 118.0Q1378 83 1351.5 56.5Q1325 30 1290.0 15.0Q1255 0 1216 0Q1177 0 1142.0 15.0Q1107 30 1080.5 56.5Q1054 83 1039.0 118.0Q1024 153 1024 192ZM64 512Q38 512 19.0 531.0Q0 550 0 576Q0 602 19.0 621.0Q38 640 64 640H1024Q1050 640 1069.0 621.0Q1088 602 1088 576Q1088 550 1069.0 531.0Q1050 512 1024 512Z"/>
  </g>
</svg>