<?xml version="1.0" encoding="utf-8"?>
<svg id="" width="16" height="16" style="width:16px;height:16px;" version="1.1" xmlns="http://www.w3.org/2000/svg" viewBox="0 0 2048 2048" enable-background="new 0 0 2048 2048" xml:space="preserve">
    <path fill="#ffffff" transform="translate(0, 250)" d="M450.13 1179.73 l-245.33 0 q-41.6 0 -78.94 -16 q-37.33 -16 -65.6 -44.26 q-28.27 -28.27 -44.27 -65.6 q-16 -37.34 -16 -78.94 l0 -409.6 q0 -41.6 16 -78.93 q16 -37.33 44.27 -65.6 q28.27 -28.27 65.6 -44.27 q37.33 -16 78.94 -16 l245.33 0 l330.67 -331.73 q14.93 -14.93 33.6 -21.87 q18.67 -6.93 38.93 -6.93 q43.74 0 73.07 28.8 q29.33 28.8 29.33 72.53 l0 1337.6 q0 21.34 -8 39.47 q-8 18.13 -22.4 32.53 q-14.4 14.4 -33.06 22.4 q-18.66 8 -38.93 8 q-42.66 0 -72.53 -29.86 l-330.67 -331.74 ZM819.2 1355.73 l0 -1172.26 l-293.33 293.33 q-20.27 20.27 -48 20.27 l-273.07 0 q-27.73 0 -48 20.27 q-20.27 20.26 -20.27 48 l0 409.6 q0 27.74 20.27 48 q20.27 20.27 48 20.27 l273.07 0 q27.73 0 48 20.27 l293.33 292.26 ZM1638.4 866.13 l-293.33 293.34 q-20.27 20.26 -48 20.26 q-27.74 0 -48 -20.26 q-20.27 -20.27 -20.27 -48 q0 -27.74 20.27 -48 l293.33 -293.34 l-293.33 -293.33 q-20.27 -20.27 -20.27 -48 q0 -27.73 20.27 -48 q20.26 -20.27 48 -20.27 q27.73 0 48 20.27 l293.33 292.27 l293.33 -292.27 q20.27 -20.27 48 -20.27 q27.74 0 48.01 20.27 q20.26 20.27 20.26 48 q0 27.73 -20.27 48 l-292.26 293.33 l292.26 293.34 q20.27 20.26 20.27 48 q0 27.73 -20.26 48 q-20.27 20.26 -48.01 20.26 q-27.73 0 -48 -20.26 l-293.33 -293.34 Z"/>
</svg>