<?xml version="1.0" encoding="utf-8"?>
<svg xmlns="http://www.w3.org/2000/svg" width="16" height="16" viewBox="0 0 2048 2048">
  <g transform="translate(0, 2048) scale(1, -1)">
    <path fill="#000000" d="M2048 1024Q2048 906 2021.5 793.5Q1995 681 1946.0 579.5Q1897 478 1826.5 389.0Q1756 300 1668.5 228.5Q1581 157 1477.5 105.5Q1374 54 1259 27Q1280 75 1280 128V369Q1310 434 1332.0 502.0Q1354 570 1369 640H1280V768H1391Q1399 832 1403.5 895.5Q1408 959 1408 1024Q1408 1089 1403.5 1152.5Q1399 1216 1391 1280H656Q648 1214 644 1152H516Q518 1184 520.5 1216.0Q523 1248 528 1280H165Q156 1248 148.5 1216.0Q141 1184 137 1152Q101 1152 69.0 1144.5Q37 1137 5 1120Q17 1251 60.5 1371.0Q104 1491 173.5 1594.0Q243 1697 335.0 1781.0Q427 1865 536.0 1924.0Q645 1983 768.5 2015.5Q892 2048 1024 2048Q1165 2048 1296.0 2011.5Q1427 1975 1540.5 1908.0Q1654 1841 1747.5 1747.5Q1841 1654 1908.0 1540.5Q1975 1427 2011.5 1296.0Q2048 1165 2048 1024ZM1369 1408Q1361 1445 1346.0 1497.5Q1331 1550 1309.0 1606.5Q1287 1663 1258.0 1719.5Q1229 1776 1193.0 1820.5Q1157 1865 1115.0 1892.5Q1073 1920 1024 1920Q975 1920 933.0 1892.5Q891 1865 855.0 1820.5Q819 1776 790.0 1719.5Q761 1663 739.0 1606.5Q717 1550 702.0 1497.5Q687 1445 679 1408ZM548 1408Q560 1468 576.5 1529.5Q593 1591 615.5 1650.5Q638 1710 667.5 1766.5Q697 1823 733 1872Q647 1843 570.0 1797.0Q493 1751 426.5 1692.0Q360 1633 306.5 1561.0Q253 1489 214 1408ZM1833 1408Q1795 1489 1741.0 1560.5Q1687 1632 1620.5 1691.5Q1554 1751 1477.0 1796.5Q1400 1842 1315 1871Q1352 1822 1381.0 1766.0Q1410 1710 1432.5 1650.0Q1455 1590 1471.5 1528.5Q1488 1467 1500 1408ZM1520 1280Q1529 1216 1532.5 1152.5Q1536 1089 1536 1024Q1536 959 1532.5 895.5Q1529 832 1520 768H1883Q1920 891 1920 1024Q1920 1157 1883 1280ZM1024 1024Q1050 1024 1073.5 1014.0Q1097 1004 1114.5 986.5Q1132 969 1142.0 945.5Q1152 922 1152 896V384Q1152 358 1142.0 334.5Q1132 311 1114.5 293.5Q1097 276 1073.5 266.0Q1050 256 1024 256H768V128H803Q820 128 836.5 126.0Q853 124 866.5 117.5Q880 111 888.0 98.5Q896 86 896 64Q896 38 877.0 19.0Q858 0 832 0H320Q294 0 275.0 19.0Q256 38 256 64Q256 86 264.0 98.5Q272 111 285.5 117.5Q299 124 315.5 126.0Q332 128 349 128H384V256H128Q102 256 78.5 266.0Q55 276 37.5 293.5Q20 311 10.0 334.5Q0 358 0 384V896Q0 922 10.0 945.5Q20 969 37.5 986.5Q55 1004 78.5 1014.0Q102 1024 128 1024ZM1833 640H1500Q1488 580 1471.5 518.5Q1455 457 1432.5 397.5Q1410 338 1380.5 281.5Q1351 225 1315 176Q1400 205 1477.0 251.0Q1554 297 1620.5 356.0Q1687 415 1740.5 487.0Q1794 559 1833 640Z"/>
  </g>
</svg>