<?xml version="1.0" encoding="utf-8"?>
<svg xmlns="http://www.w3.org/2000/svg" width="16" height="16" viewBox="0 0 2048 2048">
  <g transform="translate(0, 2048) scale(1, -1)">
    <path fill="#ffffff" d="M522 0Q512 0 512 10Q512 34 521 55Q535 87 565.0 107.5Q595 128 630 128H768V256H128Q103 256 80.0 265.5Q57 275 39.0 292.0Q21 309 10.5 331.0Q0 353 0 379V1454Q0 1489 24.0 1512.5Q48 1536 83 1536H645Q643 1552 641.5 1568.0Q640 1584 640 1600Q640 1693 675.0 1774.5Q710 1856 771.0 1917.0Q832 1978 913.5 2013.0Q995 2048 1088 2048H1600Q1693 2048 1774.5 2013.0Q1856 1978 1917.0 1917.0Q1978 1856 2013.0 1774.5Q2048 1693 2048 1600Q2048 1543 2033.0 1487.0Q2018 1431 1990.5 1380.5Q1963 1330 1923.0 1288.5Q1883 1247 1833 1218Q1764 1257 1689.5 1279.5Q1615 1302 1536 1309V1900Q1536 1908 1528.5 1914.0Q1521 1920 1513 1920Q1508 1920 1492.0 1909.5Q1476 1899 1454.5 1883.0Q1433 1867 1408.5 1848.0Q1384 1829 1362.0 1811.0Q1340 1793 1323.0 1779.0Q1306 1765 1299 1760H1185Q1171 1760 1161.5 1750.5Q1152 1741 1152 1727V1473Q1152 1459 1161.5 1449.5Q1171 1440 1185 1440H1299L1463 1312Q1342 1311 1229.0 1271.0Q1116 1231 1020 1157Q966 1164 915.5 1186.0Q865 1208 821.0 1241.0Q777 1274 741.5 1316.5Q706 1359 683 1408H128V384H761Q791 270 856.5 172.0Q922 74 1014 0ZM896 576Q896 695 941.5 800.0Q987 905 1065.0 983.0Q1143 1061 1248.0 1106.5Q1353 1152 1472 1152Q1551 1152 1624.5 1131.5Q1698 1111 1762.0 1073.5Q1826 1036 1879.0 983.0Q1932 930 1969.5 866.0Q2007 802 2027.5 728.5Q2048 655 2048 576Q2048 457 2002.5 352.0Q1957 247 1879.0 169.0Q1801 91 1696.0 45.5Q1591 0 1472 0Q1352 0 1247.0 45.0Q1142 90 1064.0 168.0Q986 246 941.0 351.0Q896 456 896 576ZM1472 248Q1502 248 1523.0 269.0Q1544 290 1544 320Q1544 350 1523 371L1382 512H1728Q1754 512 1773.0 531.0Q1792 550 1792 576Q1792 602 1773.0 621.0Q1754 640 1728 640H1382L1523 781Q1544 802 1544 832Q1544 862 1523.0 883.0Q1502 904 1472 904Q1442 904 1421 883L1165 627Q1144 606 1144 576Q1144 546 1165 525L1421 269Q1442 248 1472 248Z"/>
  </g>
</svg>