<?xml version="1.0" encoding="utf-8"?>
<svg xmlns="http://www.w3.org/2000/svg" width="16" height="16" viewBox="0 0 2048 2048">
  <g transform="translate(0, 2048) scale(1, -1)">
    <path fill="#000000" d="M2048 1600Q2048 1516 2019.0 1441.0Q1990 1366 1938.5 1307.0Q1887 1248 1816.5 1208.5Q1746 1169 1664 1157V384Q1664 357 1654.0 334.0Q1644 311 1626.5 293.5Q1609 276 1586.0 266.0Q1563 256 1536 256H896V128H1034Q1058 128 1079.5 118.5Q1101 109 1117.0 93.0Q1133 77 1142.5 55.5Q1152 34 1152 10Q1152 0 1142 0H522Q512 0 512 10Q512 34 521.5 55.5Q531 77 547.0 93.0Q563 109 584.5 118.5Q606 128 630 128H768V256H128Q101 256 78.0 266.0Q55 276 37.5 293.5Q20 311 10.0 334.0Q0 357 0 384V1454Q0 1488 24.5 1512.0Q49 1536 83 1536H645Q643 1552 641.5 1568.0Q640 1584 640 1600Q640 1693 675.0 1774.5Q710 1856 771.0 1917.0Q832 1978 913.5 2013.0Q995 2048 1088 2048H1600Q1693 2048 1774.5 2013.0Q1856 1978 1917.0 1917.0Q1978 1856 2013.0 1774.5Q2048 1693 2048 1600ZM1152 1727V1473Q1152 1459 1161.5 1449.5Q1171 1440 1185 1440H1299L1496 1286Q1503 1280 1512 1280Q1520 1280 1528.0 1285.5Q1536 1291 1536 1300V1900Q1536 1909 1528.5 1914.5Q1521 1920 1513 1920Q1503 1920 1496 1914L1299 1760H1185Q1171 1760 1161.5 1750.5Q1152 1741 1152 1727ZM128 1408V384H1536V1152H1459L1218 910Q1207 899 1191 899Q1174 899 1163.0 910.0Q1152 921 1152 938V1152H1088Q1023 1152 962.0 1170.0Q901 1188 848.5 1221.5Q796 1255 753.5 1302.0Q711 1349 683 1408Z"/>
  </g>
</svg>