<?xml version="1.0" encoding="utf-8"?>
<svg xmlns="http://www.w3.org/2000/svg" width="16" height="16" viewBox="0 0 2048 2048">
  <g transform="translate(0, 2048) scale(1, -1)">
    <path fill="#000000" d="M1024 1984Q1024 2010 1043.0 2029.0Q1062 2048 1088 2048Q1220 2048 1342.5 2013.5Q1465 1979 1571.5 1916.5Q1678 1854 1766.0 1766.0Q1854 1678 1916.5 1571.5Q1979 1465 2013.5 1342.5Q2048 1220 2048 1088Q2048 1062 2029.0 1043.0Q2010 1024 1984 1024Q1958 1024 1939.0 1043.0Q1920 1062 1920 1088Q1920 1200 1892.5 1304.0Q1865 1408 1808 1505Q1696 1696 1505 1808Q1408 1865 1304.0 1892.5Q1200 1920 1088 1920Q1062 1920 1043.0 1939.0Q1024 1958 1024 1984ZM1024 1728Q1024 1754 1043.0 1773.0Q1062 1792 1088 1792Q1185 1792 1275.0 1767.0Q1365 1742 1443.0 1696.0Q1521 1650 1585.5 1585.5Q1650 1521 1696.0 1443.0Q1742 1365 1767.0 1275.0Q1792 1185 1792 1088Q1792 1062 1773.0 1043.0Q1754 1024 1728 1024Q1702 1024 1683.0 1043.0Q1664 1062 1664 1088Q1664 1166 1644.5 1237.0Q1625 1308 1586 1376Q1547 1443 1493.5 1496.0Q1440 1549 1375.5 1586.5Q1311 1624 1238.5 1644.0Q1166 1664 1088 1664Q1062 1664 1043.0 1683.0Q1024 1702 1024 1728ZM896 761Q824 755 752.5 741.0Q681 727 614 701Q540 672 481.5 628.0Q423 584 365 531Q355 522 344.5 517.0Q334 512 320 512Q294 512 275.0 530.5Q256 549 256 575Q256 605 263.5 640.5Q271 676 283.0 713.0Q295 750 309.0 784.0Q323 818 336 845Q376 930 434.5 999.5Q493 1069 565.0 1121.5Q637 1174 720.5 1209.5Q804 1245 896 1263V1472Q896 1498 915.0 1517.0Q934 1536 960 1536Q974 1536 983.0 1532.0Q992 1528 1002 1520L1514 1072Q1536 1052 1536 1024Q1536 995 1514 976L1002 528Q992 520 983.0 516.0Q974 512 960 512Q934 512 915.0 531.0Q896 550 896 576ZM192 128Q153 128 118.0 143.0Q83 158 56.5 184.5Q30 211 15.0 246.0Q0 281 0 320V1216Q0 1255 15.0 1290.0Q30 1325 56.5 1351.5Q83 1378 118.0 1393.0Q153 1408 192 1408H576Q602 1408 621.0 1389.0Q640 1370 640 1344Q640 1318 621.0 1299.0Q602 1280 576 1280H192Q166 1280 147.0 1261.0Q128 1242 128 1216V320Q128 294 147.0 275.0Q166 256 192 256H1088Q1109 256 1122.0 263.5Q1135 271 1141.5 284.5Q1148 298 1150.5 315.0Q1153 332 1153 352Q1153 364 1152 376V392Q1151 404 1151 416Q1151 435 1153.0 452.5Q1155 470 1162.0 483.5Q1169 497 1182.0 504.5Q1195 512 1216 512Q1242 512 1261.0 493.0Q1280 474 1280 448V320Q1280 281 1265.0 246.0Q1250 211 1223.5 184.5Q1197 158 1162.0 143.0Q1127 128 1088 128ZM1024 717 1375 1024 1024 1331V1208Q1024 1182 1008.0 1166.0Q992 1150 968 1145Q951 1141 933.5 1139.0Q916 1137 898 1133Q824 1117 755.5 1086.5Q687 1056 628 1008Q565 955 515.0 891.0Q465 827 433 751Q488 787 552.5 813.5Q617 840 685.0 857.5Q753 875 822.5 884.0Q892 893 957 893Q986 893 1005.0 875.5Q1024 858 1024 829Z"/>
  </g>
</svg>