<?xml version="1.0" encoding="utf-8"?>
<svg xmlns="http://www.w3.org/2000/svg" width="16" height="16" viewBox="0 0 2048 2048">
  <g transform="translate(0, 2048) scale(1, -1)">
    <path fill="#ffffff" d="M256 1152Q256 1179 266.0 1202.0Q276 1225 293.5 1242.5Q311 1260 334.0 1270.0Q357 1280 384 1280H640V1152H384V896H640V768H384Q330 768 293 805Q256 842 256 896V1024H128Q74 1024 37 1061Q0 1098 0 1152V1541Q0 1590 20.0 1635.0Q40 1680 74.5 1715.0Q109 1750 153.5 1771.0Q198 1792 248 1792H256V1920Q256 1973 293 2010Q331 2048 384 2048H896Q948 2048 986 2010Q1004 1992 1014.0 1969.0Q1024 1946 1024 1920V1792H1029Q1079 1792 1124.5 1771.5Q1170 1751 1204.5 1716.5Q1239 1682 1259.5 1636.5Q1280 1591 1280 1541V1408H1152V1536Q1152 1562 1142.0 1585.0Q1132 1608 1114 1626Q1096 1644 1073.0 1654.0Q1050 1664 1024 1664H256Q229 1664 206.0 1654.0Q183 1644 165.5 1626.5Q148 1609 138.0 1586.0Q128 1563 128 1536V1152ZM896 1920H384V1792H896ZM2009 768Q2009 737 1995 711L1785 291Q1777 275 1761.0 265.5Q1745 256 1728 256H831Q805 256 786.5 275.0Q768 294 768 320V1145Q768 1172 778.0 1195.0Q788 1218 805.5 1235.5Q823 1253 846.0 1263.0Q869 1273 896 1273H1191Q1241 1273 1278 1238L1370 1152H1664Q1690 1152 1713.5 1142.0Q1737 1132 1754.5 1114.5Q1772 1097 1782.0 1073.5Q1792 1050 1792 1024V896H1881Q1907 896 1930.0 885.5Q1953 875 1970.5 857.5Q1988 840 1998.5 817.0Q2009 794 2009 768ZM1191 1145H896V592L995 790Q1019 839 1066.0 867.5Q1113 896 1167 896H1664V1024H1370Q1320 1024 1282 1059ZM1689 384 1881 768H1167Q1150 768 1134.0 758.5Q1118 749 1110 733L936 384Z"/>
  </g>
</svg>