<?xml version="1.0" encoding="utf-8"?>
<svg xmlns="http://www.w3.org/2000/svg" width="16" height="16" viewBox="0 0 2048 2048">
  <g transform="translate(0, 2048) scale(1, -1)">
    <path fill="#000000" d="M1920 192Q1920 166 1901.0 147.0Q1882 128 1856 128H1408Q1408 101 1398.0 78.0Q1388 55 1370.5 37.5Q1353 20 1330.0 10.0Q1307 0 1280 0H640Q613 0 589.5 10.0Q566 20 549.0 37.0Q532 54 522.0 77.5Q512 101 512 128H64Q38 128 19.0 147.0Q0 166 0 192Q0 218 19.0 237.0Q38 256 64 256H512Q512 309 549 346Q587 384 640 384H768Q768 411 778.0 434.0Q788 457 805.5 474.5Q823 492 846.0 502.0Q869 512 896 512V640H704Q665 640 630.0 655.0Q595 670 568.5 696.5Q542 723 527.0 758.0Q512 793 512 832V1856Q512 1895 527.0 1930.0Q542 1965 568.5 1991.5Q595 2018 630.0 2033.0Q665 2048 704 2048H1216Q1255 2048 1290.0 2033.0Q1325 2018 1351.5 1991.5Q1378 1965 1393.0 1930.0Q1408 1895 1408 1856V832Q1408 793 1393.0 758.0Q1378 723 1351.5 696.5Q1325 670 1290.0 655.0Q1255 640 1216 640H1024V512Q1050 512 1073.5 502.0Q1097 492 1114.5 474.5Q1132 457 1142.0 433.5Q1152 410 1152 384H1280Q1306 384 1329.0 374.0Q1352 364 1370 346Q1408 308 1408 256H1856Q1882 256 1901.0 237.0Q1920 218 1920 192ZM1216 768Q1242 768 1261.0 787.0Q1280 806 1280 832V1856Q1280 1882 1261.0 1901.0Q1242 1920 1216 1920H704Q678 1920 659.0 1901.0Q640 1882 640 1856V832Q640 806 659.0 787.0Q678 768 704 768ZM1088 1792Q1114 1792 1133.0 1773.0Q1152 1754 1152 1728Q1152 1702 1133.0 1683.0Q1114 1664 1088 1664H832Q806 1664 787.0 1683.0Q768 1702 768 1728Q768 1754 787.0 1773.0Q806 1792 832 1792ZM1088 1536Q1114 1536 1133.0 1517.0Q1152 1498 1152 1472Q1152 1446 1133.0 1427.0Q1114 1408 1088 1408H832Q806 1408 787.0 1427.0Q768 1446 768 1472Q768 1498 787.0 1517.0Q806 1536 832 1536ZM1280 128V256H1088Q1066 256 1053.0 264.5Q1040 273 1033.5 286.5Q1027 300 1025.0 316.5Q1023 333 1023 350Q1023 359 1023.5 367.5Q1024 376 1024 384H896V350Q896 333 894.0 316.5Q892 300 885.5 286.5Q879 273 866.5 264.5Q854 256 832 256H640V128Z"/>
  </g>
</svg>