<?xml version="1.0" encoding="utf-8"?>
<svg xmlns="http://www.w3.org/2000/svg" width="16" height="16" viewBox="0 0 2048 2048">
  <g transform="translate(0, 2048) scale(1, -1)">
    <path fill="#000000" d="M1014 0Q874 1 744.5 38.0Q615 75 502.5 142.5Q390 210 297.0 303.5Q204 397 138.0 510.5Q72 624 36.0 754.0Q0 884 0 1024Q0 1165 36.5 1296.0Q73 1427 140.0 1540.5Q207 1654 300.5 1747.5Q394 1841 507.5 1908.0Q621 1975 752.0 2011.5Q883 2048 1024 2048Q1163 2048 1293.0 2011.5Q1423 1975 1536.5 1909.0Q1650 1843 1744.0 1750.5Q1838 1658 1905.0 1545.5Q1972 1433 2009.5 1303.5Q2047 1174 2048 1034Q2017 1072 1982.5 1105.5Q1948 1139 1908 1168Q1903 1197 1896.5 1224.5Q1890 1252 1882 1280Q1866 1280 1850 1280L1784 1279H1720Q1704 1279 1687 1280Q1682 1280 1673.0 1282.0Q1664 1284 1653.5 1287.0Q1643 1290 1633.0 1293.0Q1623 1296 1617 1298Q1581 1305 1545.0 1308.5Q1509 1312 1472 1312H1471Q1450 1312 1429.0 1310.5Q1408 1309 1387 1307Q1342 1302 1299 1292Q1288 1289 1278.0 1284.5Q1268 1280 1257 1280H657Q649 1216 644.5 1152.5Q640 1089 640 1024Q640 959 644.5 895.5Q649 832 657 768H761Q752 736 747.0 704.0Q742 672 739 640H679Q690 589 704.0 539.5Q718 490 737 442Q740 435 743 427L753 405Q758 393 762 382Q768 366 772.5 350.0Q777 334 783 317Q800 269 824.5 225.0Q849 181 879 140H880Q909 100 942.5 65.5Q976 31 1014 0ZM1369 1408Q1361 1445 1346.0 1497.5Q1331 1550 1309.0 1606.5Q1287 1663 1258.0 1719.5Q1229 1776 1193.0 1820.5Q1157 1865 1115.0 1892.5Q1073 1920 1024 1920Q975 1920 933.0 1892.5Q891 1865 855.0 1820.5Q819 1776 790.0 1719.5Q761 1663 739.0 1606.5Q717 1550 702.0 1497.5Q687 1445 679 1408ZM215 1408H548Q560 1467 576.5 1528.5Q593 1590 615.5 1650.0Q638 1710 667.0 1766.0Q696 1822 733 1871Q648 1842 571.0 1796.5Q494 1751 427.5 1691.5Q361 1632 307.0 1560.5Q253 1489 215 1408ZM1833 1408Q1794 1490 1740.0 1561.5Q1686 1633 1620.0 1692.0Q1554 1751 1477.0 1796.0Q1400 1841 1315 1871Q1352 1822 1381.0 1766.0Q1410 1710 1432.5 1650.0Q1455 1590 1471.5 1528.5Q1488 1467 1500 1408ZM527 768Q512 895 512 1024Q512 1089 515.5 1152.5Q519 1216 528 1280H165Q128 1157 128 1024Q128 891 165 768ZM2048 576Q2048 457 2002.5 352.0Q1957 247 1879.0 169.0Q1801 91 1696.0 45.5Q1591 0 1472 0Q1352 0 1247.0 45.0Q1142 90 1064.0 168.0Q986 246 941.0 351.0Q896 456 896 576Q896 695 941.5 800.0Q987 905 1065.0 983.0Q1143 1061 1248.0 1106.5Q1353 1152 1472 1152Q1551 1152 1624.5 1131.5Q1698 1111 1762.0 1073.5Q1826 1036 1879.0 983.0Q1932 930 1969.5 866.0Q2007 802 2027.5 728.5Q2048 655 2048 576ZM1114 308 1740 934Q1679 981 1610.0 1002.5Q1541 1024 1464 1024Q1376 1024 1296.5 988.0Q1217 952 1156.5 891.5Q1096 831 1060.0 751.5Q1024 672 1024 584Q1024 507 1045.5 438.0Q1067 369 1114 308ZM1830 844 1204 218Q1265 171 1334.0 149.5Q1403 128 1480 128Q1568 128 1647.5 164.0Q1727 200 1787.5 260.5Q1848 321 1884.0 400.5Q1920 480 1920 568Q1920 645 1898.5 714.0Q1877 783 1830 844ZM215 640Q253 559 307.0 487.5Q361 416 427.0 356.5Q493 297 570.0 251.5Q647 206 732 177Q696 227 667.0 283.0Q638 339 615.5 398.5Q593 458 576.5 519.0Q560 580 548 640Z"/>
  </g>
</svg>