<?xml version="1.0" encoding="utf-8"?>
<svg xmlns="http://www.w3.org/2000/svg" width="16" height="16" viewBox="0 0 2048 2048">
  <g transform="translate(0, 2048) scale(1, -1)">
    <path fill="#000000" d="M1920 192Q1920 166 1901.0 147.0Q1882 128 1856 128H1408Q1408 101 1398.0 78.0Q1388 55 1370.5 37.5Q1353 20 1330.0 10.0Q1307 0 1280 0H640Q613 0 589.5 10.0Q566 20 549.0 37.0Q532 54 522.0 77.5Q512 101 512 128H64Q38 128 19.0 147.0Q0 166 0 192Q0 218 19.0 237.0Q38 256 64 256H512Q512 309 549 346Q587 384 640 384H768Q768 411 778.0 434.0Q788 457 805.5 474.5Q823 492 846.0 502.0Q869 512 896 512V640H640Q613 640 589.5 650.0Q566 660 549.0 677.0Q532 694 522.0 717.5Q512 741 512 768V896H384Q330 896 293 933Q256 970 256 1024V1413Q256 1462 276.0 1507.0Q296 1552 330.5 1587.0Q365 1622 409.5 1643.0Q454 1664 504 1664H512V1792Q512 1845 549 1882Q587 1920 640 1920H1280Q1306 1920 1329.0 1910.0Q1352 1900 1370 1882Q1388 1864 1398.0 1841.0Q1408 1818 1408 1792V1664H1413Q1463 1664 1508.5 1643.5Q1554 1623 1588.5 1588.5Q1623 1554 1643.5 1508.5Q1664 1463 1664 1413V1024Q1664 971 1626 933Q1589 896 1536 896H1408V768Q1408 741 1398.0 718.0Q1388 695 1370.5 677.5Q1353 660 1330.0 650.0Q1307 640 1280 640H1024V512Q1050 512 1073.5 502.0Q1097 492 1114.5 474.5Q1132 457 1142.0 433.5Q1152 410 1152 384H1280Q1306 384 1329.0 374.0Q1352 364 1370 346Q1408 308 1408 256H1856Q1882 256 1901.0 237.0Q1920 218 1920 192ZM1280 1792H640V1664H1280ZM512 1024Q512 1051 522.0 1074.0Q532 1097 549.5 1114.5Q567 1132 590.0 1142.0Q613 1152 640 1152H1280Q1306 1152 1329.5 1142.0Q1353 1132 1370.5 1114.5Q1388 1097 1398.0 1073.5Q1408 1050 1408 1024H1536V1408Q1536 1434 1526.0 1457.5Q1516 1481 1498.5 1498.5Q1481 1516 1457.5 1526.0Q1434 1536 1408 1536H512Q485 1536 462.0 1526.0Q439 1516 421.5 1498.5Q404 1481 394.0 1458.0Q384 1435 384 1408V1024ZM640 1024V768H1280V1024ZM1280 128V256H1088Q1066 256 1053.0 264.5Q1040 273 1033.5 286.5Q1027 300 1025.0 316.5Q1023 333 1023 350Q1023 359 1023.5 367.5Q1024 376 1024 384H896V350Q896 333 894.0 316.5Q892 300 885.5 286.5Q879 273 866.5 264.5Q854 256 832 256H640V128Z"/>
  </g>
</svg>