<?xml version="1.0" encoding="utf-8"?>
<svg xmlns="http://www.w3.org/2000/svg" width="16" height="16" viewBox="0 0 2048 2048">
  <g transform="translate(0, 2048) scale(1, -1)">
    <path fill="#000000" d="M2048 1034Q1989 1111 1908 1169Q1903 1198 1897.0 1225.0Q1891 1252 1883 1280Q1851 1280 1818.0 1279.5Q1785 1279 1752 1279Q1735 1279 1719.5 1279.0Q1704 1279 1687 1280Q1683 1280 1673.5 1282.5Q1664 1285 1653.5 1288.0Q1643 1291 1632.5 1294.0Q1622 1297 1617 1298Q1581 1305 1545.0 1308.5Q1509 1312 1472 1312H1471Q1450 1312 1429.0 1310.5Q1408 1309 1388 1307Q1368 1305 1348.0 1302.0Q1328 1299 1308 1294Q1295 1291 1283.0 1285.5Q1271 1280 1257 1280H657Q649 1216 644.5 1152.5Q640 1089 640 1024Q640 959 644.5 895.5Q649 832 657 768H761Q752 736 747.0 704.0Q742 672 739 640H679Q690 588 704.5 537.0Q719 486 738 436Q744 421 751.5 406.0Q759 391 764 376Q772 354 778.5 332.5Q785 311 794 289Q830 204 886.0 130.5Q942 57 1014 0Q873 1 743.5 38.5Q614 76 501.5 143.0Q389 210 296.5 303.5Q204 397 138.0 510.0Q72 623 36.0 753.5Q0 884 0 1024Q0 1166 36.5 1297.0Q73 1428 139.5 1541.5Q206 1655 299.5 1748.5Q393 1842 506.5 1908.5Q620 1975 751.0 2011.5Q882 2048 1024 2048Q1164 2048 1294.0 2012.0Q1424 1976 1537.5 1910.0Q1651 1844 1744.0 1751.5Q1837 1659 1904.5 1546.5Q1972 1434 2009.0 1304.0Q2046 1174 2048 1034ZM1369 1408Q1361 1447 1346.0 1500.0Q1331 1553 1309.0 1610.0Q1287 1667 1258.5 1722.5Q1230 1778 1194.0 1822.0Q1158 1866 1115.5 1893.0Q1073 1920 1024 1920Q974 1920 931.5 1893.0Q889 1866 853.5 1822.0Q818 1778 789.5 1722.5Q761 1667 739.0 1610.0Q717 1553 702.0 1500.0Q687 1447 679 1408ZM1834 1408Q1795 1489 1741.0 1560.5Q1687 1632 1621.0 1691.5Q1555 1751 1478.0 1796.5Q1401 1842 1316 1871Q1352 1823 1381.0 1766.5Q1410 1710 1432.5 1650.0Q1455 1590 1471.5 1528.0Q1488 1466 1500 1408ZM214 1408H548Q571 1529 614.5 1649.5Q658 1770 731 1871Q646 1842 569.0 1796.5Q492 1751 426.0 1691.5Q360 1632 306.0 1560.5Q252 1489 214 1408ZM528 768Q519 832 515.5 895.5Q512 959 512 1024Q512 1089 515.5 1152.5Q519 1216 528 1280H165Q128 1157 128 1024Q128 891 165 768ZM548 640H214Q252 559 306.0 487.5Q360 416 426.0 356.5Q492 297 569.0 251.5Q646 206 731 177Q695 225 666.5 281.5Q638 338 615.5 398.0Q593 458 576.0 519.5Q559 581 548 640Z"/>
  </g>
</svg>