<?xml version="1.0" encoding="utf-8"?>
<svg xmlns="http://www.w3.org/2000/svg" width="16" height="16" viewBox="0 0 2048 2048">
  <g transform="translate(0, 2048) scale(1, -1)">
    <path fill="#ffffff" d="M545 1088Q545 1062 526.0 1043.0Q507 1024 481 1024Q452 1024 432 1047Q389 1095 356.5 1153.5Q324 1212 301.5 1276.0Q279 1340 267.5 1406.5Q256 1473 256 1536Q256 1597 267.5 1663.5Q279 1730 301.0 1794.5Q323 1859 355.0 1917.5Q387 1976 429 2022Q439 2033 451.5 2039.5Q464 2046 479 2046Q505 2046 524.0 2027.0Q543 2008 543 1982Q543 1969 539.5 1960.0Q536 1951 528 1941Q515 1924 502.0 1907.0Q489 1890 478 1871Q431 1796 407.5 1710.5Q384 1625 384 1536Q384 1447 408.0 1361.0Q432 1275 479 1199Q491 1180 504.0 1163.5Q517 1147 530 1129Q538 1119 541.5 1110.0Q545 1101 545 1088ZM1792 1536Q1792 1474 1780.5 1407.0Q1769 1340 1747.0 1275.5Q1725 1211 1692.5 1152.0Q1660 1093 1617 1047Q1596 1024 1567 1024Q1541 1024 1522.0 1043.0Q1503 1062 1503 1088Q1503 1101 1506.5 1110.0Q1510 1119 1518 1129Q1531 1147 1544.0 1163.5Q1557 1180 1569 1199Q1616 1275 1640.0 1361.0Q1664 1447 1664 1536Q1664 1625 1640.5 1710.5Q1617 1796 1570 1871Q1559 1890 1546.0 1907.0Q1533 1924 1520 1941Q1512 1951 1508.5 1960.0Q1505 1969 1505 1982Q1505 2008 1524.0 2026.5Q1543 2045 1569 2045Q1598 2045 1619 2022Q1661 1975 1693.5 1916.5Q1726 1858 1748.0 1794.0Q1770 1730 1781.0 1664.0Q1792 1598 1792 1536ZM512 1536Q512 1585 521.5 1634.0Q531 1683 549.5 1729.5Q568 1776 595.0 1817.5Q622 1859 658 1894Q678 1914 704 1914Q730 1914 749.0 1895.0Q768 1876 768 1850Q768 1836 763.5 1826.0Q759 1816 750 1805Q696 1746 668.0 1681.5Q640 1617 640 1536Q640 1473 658.0 1421.5Q676 1370 709 1317Q720 1300 720 1280Q720 1254 701.0 1235.0Q682 1216 656 1216Q640 1216 626.5 1223.5Q613 1231 604 1243Q559 1304 535.5 1382.5Q512 1461 512 1536ZM1280 1850Q1280 1876 1299.0 1895.0Q1318 1914 1344 1914Q1358 1914 1369.5 1908.5Q1381 1903 1390 1894Q1462 1824 1499.0 1730.0Q1536 1636 1536 1536Q1536 1423 1487 1317Q1481 1303 1472.0 1285.5Q1463 1268 1451.0 1252.5Q1439 1237 1424.5 1226.5Q1410 1216 1392 1216Q1365 1216 1346.5 1234.5Q1328 1253 1328 1280Q1328 1292 1332.5 1304.0Q1337 1316 1344.0 1327.0Q1351 1338 1358.5 1349.0Q1366 1360 1371 1371Q1408 1448 1408 1536Q1408 1616 1380.0 1681.5Q1352 1747 1298 1805Q1280 1824 1280 1850ZM1536 63Q1536 36 1516.5 18.0Q1497 0 1471 0Q1449 0 1433.0 13.0Q1417 26 1411 46L1348 256H700L637 46Q631 26 614.5 13.0Q598 0 576 0Q550 0 531.0 19.0Q512 38 512 64Q512 70 517.0 90.5Q522 111 530.0 138.5Q538 166 547.5 197.0Q557 228 566.0 256.5Q575 285 582.0 307.5Q589 330 592 340L886 1320Q829 1357 798.5 1415.0Q768 1473 768 1541Q768 1593 789.0 1638.5Q810 1684 845.0 1718.0Q880 1752 926.5 1772.0Q973 1792 1024 1792Q1075 1792 1121.5 1772.0Q1168 1752 1203.0 1718.0Q1238 1684 1259.0 1638.5Q1280 1593 1280 1541Q1280 1473 1249.5 1415.0Q1219 1357 1162 1320L1456 340Q1459 330 1466.0 307.5Q1473 285 1482.0 256.5Q1491 228 1500.5 197.0Q1510 166 1518.0 138.5Q1526 111 1531.0 90.5Q1536 70 1536 63ZM896 1536Q896 1509 906.0 1485.5Q916 1462 933.0 1445.0Q950 1428 973.5 1418.0Q997 1408 1024 1408Q1051 1408 1074.0 1418.0Q1097 1428 1114.5 1445.5Q1132 1463 1142.0 1486.0Q1152 1509 1152 1536Q1152 1562 1142.0 1585.5Q1132 1609 1114.5 1626.5Q1097 1644 1073.5 1654.0Q1050 1664 1024 1664Q997 1664 974.0 1654.0Q951 1644 933.5 1626.5Q916 1609 906.0 1586.0Q896 1563 896 1536ZM1008 1280 739 384H1309L1040 1280Z"/>
  </g>
</svg>