<?xml version="1.0" encoding="utf-8"?>
<svg xmlns="http://www.w3.org/2000/svg" width="16" height="16" viewBox="0 0 2048 2048">
  <g transform="translate(0, 2048) scale(1, -1)">
    <path fill="#ffffff" d="M2048 1472V704Q2048 665 2033.0 630.0Q2018 595 1991.5 568.5Q1965 542 1930.0 527.0Q1895 512 1856 512H1792V320Q1792 294 1773.0 275.0Q1754 256 1728 256H1216Q1195 256 1182.0 263.5Q1169 271 1162.0 284.5Q1155 298 1153.0 315.0Q1151 332 1151 352Q1151 364 1152 376V392Q1153 404 1153 416Q1153 435 1150.5 452.5Q1148 470 1141.5 483.5Q1135 497 1122.0 504.5Q1109 512 1088 512Q1067 512 1054.0 504.5Q1041 497 1034.0 483.5Q1027 470 1025.0 452.5Q1023 435 1023 416Q1023 404 1024 392V376Q1025 364 1025 352Q1025 332 1022.5 315.0Q1020 298 1013.5 284.5Q1007 271 994.0 263.5Q981 256 960 256H448Q422 256 403.0 275.0Q384 294 384 320V512H256V192Q256 166 237.0 147.0Q218 128 192 128Q166 128 147.0 147.0Q128 166 128 192V1792Q120 1792 111.5 1791.5Q103 1791 94 1791Q77 1791 60.5 1793.0Q44 1795 30.5 1801.5Q17 1808 8.5 1821.0Q0 1834 0 1856Q0 1882 19.0 1901.0Q38 1920 64 1920H192Q218 1920 237.0 1901.0Q256 1882 256 1856V1664H1856Q1895 1664 1930.0 1649.0Q1965 1634 1991.5 1607.5Q2018 1581 2033.0 1546.0Q2048 1511 2048 1472ZM1920 1472Q1920 1498 1901.0 1517.0Q1882 1536 1856 1536H256V640H1856Q1882 640 1901.0 659.0Q1920 678 1920 704ZM960 1408Q986 1408 1005.0 1389.0Q1024 1370 1024 1344V960Q1024 934 1005.0 915.0Q986 896 960 896H448Q422 896 403.0 915.0Q384 934 384 960V1344Q384 1370 403.0 1389.0Q422 1408 448 1408ZM1152 1344Q1152 1370 1171.0 1389.0Q1190 1408 1216 1408Q1242 1408 1261.0 1389.0Q1280 1370 1280 1344Q1280 1318 1261.0 1299.0Q1242 1280 1216 1280Q1190 1280 1171.0 1299.0Q1152 1318 1152 1344ZM1408 1344Q1408 1370 1427.0 1389.0Q1446 1408 1472 1408Q1498 1408 1517.0 1389.0Q1536 1370 1536 1344Q1536 1318 1517.0 1299.0Q1498 1280 1472 1280Q1446 1280 1427.0 1299.0Q1408 1318 1408 1344ZM1792 1344Q1792 1318 1773.0 1299.0Q1754 1280 1728 1280Q1702 1280 1683.0 1299.0Q1664 1318 1664 1344Q1664 1370 1683.0 1389.0Q1702 1408 1728 1408Q1754 1408 1773.0 1389.0Q1792 1370 1792 1344ZM512 1024H896V1280H512ZM1216 1024Q1190 1024 1171.0 1043.0Q1152 1062 1152 1088Q1152 1114 1171.0 1133.0Q1190 1152 1216 1152H1472Q1498 1152 1517.0 1133.0Q1536 1114 1536 1088Q1536 1062 1517.0 1043.0Q1498 1024 1472 1024ZM1792 1088Q1792 1062 1773.0 1043.0Q1754 1024 1728 1024Q1702 1024 1683.0 1043.0Q1664 1062 1664 1088Q1664 1114 1683.0 1133.0Q1702 1152 1728 1152Q1754 1152 1773.0 1133.0Q1792 1114 1792 1088ZM1280 832Q1280 806 1261.0 787.0Q1242 768 1216 768Q1190 768 1171.0 787.0Q1152 806 1152 832Q1152 858 1171.0 877.0Q1190 896 1216 896Q1242 896 1261.0 877.0Q1280 858 1280 832ZM1728 896Q1754 896 1773.0 877.0Q1792 858 1792 832Q1792 806 1773.0 787.0Q1754 768 1728 768H1472Q1446 768 1427.0 787.0Q1408 806 1408 832Q1408 858 1427.0 877.0Q1446 896 1472 896ZM907 512H512V384H896Q896 396 895.5 407.5Q895 419 895 430Q895 451 897.0 470.5Q899 490 907 512ZM1664 384V512H1269Q1277 490 1278.5 470.5Q1280 451 1280 430V384Z"/>
  </g>
</svg>