<?xml version="1.0" encoding="utf-8"?>
<svg xmlns="http://www.w3.org/2000/svg" width="16" height="16" viewBox="0 0 2048 2048">
  <g transform="translate(0, 2048) scale(1, -1)">
    <path fill="#ffffff" d="M320 896Q281 896 246.0 911.0Q211 926 184.5 952.5Q158 979 143.0 1014.0Q128 1049 128 1088V1728Q128 1767 143.0 1802.0Q158 1837 184.5 1863.5Q211 1890 246.0 1905.0Q281 1920 320 1920H1344Q1383 1920 1418.0 1905.0Q1453 1890 1479.5 1863.5Q1506 1837 1521.0 1802.0Q1536 1767 1536 1728V1088Q1536 1049 1521.0 1014.0Q1506 979 1479.5 952.5Q1453 926 1418.0 911.0Q1383 896 1344 896ZM256 1088Q256 1062 275.0 1043.0Q294 1024 320 1024H1344Q1370 1024 1389.0 1043.0Q1408 1062 1408 1088V1728Q1408 1754 1389.0 1773.0Q1370 1792 1344 1792H320Q294 1792 275.0 1773.0Q256 1754 256 1728ZM1920 192Q1920 166 1901.0 147.0Q1882 128 1856 128H1408Q1408 101 1398.0 78.0Q1388 55 1370.5 37.5Q1353 20 1330.0 10.0Q1307 0 1280 0H640Q613 0 589.5 10.0Q566 20 549.0 37.0Q532 54 522.0 77.5Q512 101 512 128H64Q38 128 19.0 147.0Q0 166 0 192Q0 218 19.0 237.0Q38 256 64 256H512Q512 307 549 346Q585 384 640 384H768Q768 411 778.0 434.0Q788 457 805.5 474.5Q823 492 846.0 502.0Q869 512 896 512V640H576Q545 640 517.0 649.0Q489 658 465.0 675.0Q441 692 423.0 715.5Q405 739 395 768H1472Q1511 768 1546.0 783.0Q1581 798 1607.5 824.5Q1634 851 1649.0 886.0Q1664 921 1664 960V1653Q1693 1643 1716.5 1625.0Q1740 1607 1757.0 1583.0Q1774 1559 1783.0 1531.0Q1792 1503 1792 1472V953Q1792 888 1766.0 831.0Q1740 774 1696.0 731.5Q1652 689 1594.0 664.5Q1536 640 1472 640H1024V512Q1050 512 1073.5 502.0Q1097 492 1114.5 474.5Q1132 457 1142.0 433.5Q1152 410 1152 384H1280Q1306 384 1329.0 374.0Q1352 364 1370 346Q1408 308 1408 256H1856Q1882 256 1901.0 237.0Q1920 218 1920 192ZM1280 128V256H1088Q1066 256 1053.0 264.5Q1040 273 1033.5 286.5Q1027 300 1025.0 316.5Q1023 333 1023 350Q1023 359 1023.5 367.5Q1024 376 1024 384H896V350Q896 333 894.0 316.5Q892 300 885.5 286.5Q879 273 866.5 264.5Q854 256 832 256H640V128Z"/>
  </g>
</svg>