<?xml version="1.0" encoding="utf-8"?>
<svg xmlns="http://www.w3.org/2000/svg" width="16" height="16" viewBox="0 0 2048 2048">
  <g transform="translate(0, 2048) scale(1, -1)">
    <path fill="#ffffff" d="M1544 1792Q1619 1792 1687.5 1761.5Q1756 1731 1807.5 1679.5Q1859 1628 1889.5 1559.5Q1920 1491 1920 1416V632Q1920 557 1889.5 488.5Q1859 420 1807.5 368.5Q1756 317 1687.5 286.5Q1619 256 1544 256H1152V384H1541Q1591 384 1636.5 404.5Q1682 425 1716.5 459.5Q1751 494 1771.5 539.5Q1792 585 1792 635V1413Q1792 1463 1771.5 1508.5Q1751 1554 1716.5 1588.5Q1682 1623 1636.5 1643.5Q1591 1664 1541 1664H379Q329 1664 283.5 1643.5Q238 1623 203.5 1588.5Q169 1554 148.5 1508.5Q128 1463 128 1413V635Q128 583 149.0 537.5Q170 492 205.0 458.0Q240 424 286.5 404.0Q333 384 384 384H768V256H376Q301 256 232.5 286.5Q164 317 112.5 368.5Q61 420 30.5 488.5Q0 557 0 632V1416Q0 1491 30.5 1559.5Q61 1628 112.5 1679.5Q164 1731 232.5 1761.5Q301 1792 376 1792ZM1024 1062V192Q1024 166 1005.0 147.0Q986 128 960 128Q934 128 915.0 147.0Q896 166 896 192V1062L621 787Q602 768 576 768Q550 768 531.0 787.0Q512 806 512 832Q512 858 531 877L912 1258Q923 1269 934.0 1274.5Q945 1280 960 1280Q975 1280 986.0 1274.5Q997 1269 1008 1258L1389 877Q1408 858 1408 832Q1408 806 1389.0 787.0Q1370 768 1344 768Q1318 768 1299 787Z"/>
  </g>
</svg>