<?xml version="1.0" encoding="utf-8"?>
<svg xmlns="http://www.w3.org/2000/svg" width="16" height="16" viewBox="0 0 2048 2048">
  <g transform="translate(0, 2048) scale(1, -1)">
    <path fill="#ffffff" d="M1792 192V1856Q1792 1882 1811.0 1901.0Q1830 1920 1856 1920Q1882 1920 1901.0 1901.0Q1920 1882 1920 1856V192Q1920 166 1901.0 147.0Q1882 128 1856 128Q1830 128 1811.0 147.0Q1792 166 1792 192ZM128 306V1742Q128 1775 141.0 1804.5Q154 1834 175.5 1855.5Q197 1877 226.5 1889.5Q256 1902 289 1902Q335 1902 376 1875L1465 1158Q1499 1136 1518.0 1100.5Q1537 1065 1537 1024Q1537 983 1518.0 947.5Q1499 912 1465 890L376 173Q356 160 333.5 153.0Q311 146 287 146Q254 146 225.5 159.0Q197 172 175.0 193.5Q153 215 140.5 244.0Q128 273 128 306ZM1409 1024Q1409 1032 1405.5 1039.0Q1402 1046 1395 1051L306 1769Q303 1771 297.5 1772.5Q292 1774 288 1774Q275 1774 265.5 1764.5Q256 1755 256 1742V306Q256 292 265.5 283.0Q275 274 289 274Q297 274 305 279L1395 997Q1402 1002 1405.5 1009.0Q1409 1016 1409 1024Z"/>
  </g>
</svg>