<?xml version="1.0" encoding="utf-8"?>
<svg xmlns="http://www.w3.org/2000/svg" width="16" height="16" viewBox="0 0 2048 2048">
  <g transform="translate(0, 2048) scale(1, -1)">
    <path fill="#ffffff" d="M2049 64Q2049 38 2030.0 19.0Q2011 0 1985 0Q1958 0 1939 19L896 1062V704Q896 678 877.0 659.0Q858 640 832 640Q806 640 787.0 659.0Q768 678 768 704V1190L640 1318V320Q640 294 621.0 275.0Q602 256 576 256Q550 256 531.0 275.0Q512 294 512 320V1446L19 1939Q0 1958 0 1984Q0 2011 19.5 2029.5Q39 2048 65 2048Q91 2048 110 2029L2030 109Q2049 90 2049 64ZM384 1344V832Q384 806 365.0 787.0Q346 768 320 768Q294 768 275.0 787.0Q256 806 256 832V1344Q256 1370 275.0 1389.0Q294 1408 320 1408Q346 1408 365.0 1389.0Q384 1370 384 1344ZM128 1088Q128 1062 109.0 1043.0Q90 1024 64 1024Q38 1024 19.0 1043.0Q0 1062 0 1088Q0 1114 19.0 1133.0Q38 1152 64 1152Q90 1152 109.0 1133.0Q128 1114 128 1088ZM1280 1088Q1280 1114 1299.0 1133.0Q1318 1152 1344 1152Q1370 1152 1389.0 1133.0Q1408 1114 1408 1088Q1408 1062 1389.0 1043.0Q1370 1024 1344 1024Q1318 1024 1299.0 1043.0Q1280 1062 1280 1088ZM1536 1088Q1536 1114 1555.0 1133.0Q1574 1152 1600 1152Q1626 1152 1645.0 1133.0Q1664 1114 1664 1088Q1664 1062 1645.0 1043.0Q1626 1024 1600 1024Q1574 1024 1555.0 1043.0Q1536 1062 1536 1088ZM1792 1088Q1792 1114 1811.0 1133.0Q1830 1152 1856 1152Q1882 1152 1901.0 1133.0Q1920 1114 1920 1088Q1920 1062 1901.0 1043.0Q1882 1024 1856 1024Q1830 1024 1811.0 1043.0Q1792 1062 1792 1088Z"/>
  </g>
</svg>