<?xml version="1.0" encoding="utf-8"?>
<svg xmlns="http://www.w3.org/2000/svg" width="16" height="16" viewBox="0 0 2048 2048">
  <g transform="translate(0, 2048) scale(1, -1)">
    <path fill="#000000" d="M1074 1546Q1100 1546 1118.5 1527.5Q1137 1509 1137 1483V1128Q1137 1104 1127.5 1091.5Q1118 1079 1103.0 1073.0Q1088 1067 1069.5 1066.0Q1051 1065 1034 1065V1270Q1034 1293 1025.0 1313.5Q1016 1334 1001.0 1349.0Q986 1364 965.5 1373.0Q945 1382 922 1382Q899 1382 878.5 1373.0Q858 1364 842.5 1349.0Q827 1334 818.0 1313.5Q809 1293 809 1270V1065H718Q692 1065 673.5 1083.5Q655 1102 655 1128V1483Q655 1509 673.5 1527.5Q692 1546 718 1546Z"/>
  </g>
</svg>