<?xml version="1.0" encoding="utf-8"?>
<svg xmlns="http://www.w3.org/2000/svg" width="16" height="16" viewBox="0 0 2048 2048">
  <g transform="translate(0, 2048) scale(1, -1)">
    <path fill="#ffffff" d="M1454 774V530Q1454 509 1446.0 490.5Q1438 472 1424.0 457.5Q1410 443 1391.5 435.0Q1373 427 1352 427Q1339 427 1322 432Q1305 380 1270.5 335.0Q1236 290 1188 263V61Q1188 53 1181.5 47.0Q1175 41 1167 41Q1159 41 1153.0 47.0Q1147 53 1147 61V269Q1147 284 1160 294Q1189 316 1213.5 336.0Q1238 356 1257 389Q1268 409 1279.0 435.5Q1290 462 1290 485V711Q1290 719 1296.5 725.0Q1303 731 1311 731Q1319 731 1325.0 725.0Q1331 719 1331 711V472Q1340 468 1352 468Q1378 468 1395.5 486.0Q1413 504 1413 530V774Q1413 795 1398.0 813.0Q1383 831 1363 835L969 913Q964 914 958.5 919.5Q953 925 953 931Q953 972 953 1013L952 1177Q952 1218 952 1259Q952 1288 931.0 1309.5Q910 1331 881 1331Q852 1331 830.5 1310.0Q809 1289 809 1260V409Q809 401 802.5 395.0Q796 389 788 389Q780 389 774.0 395.0Q768 401 768 409V1055H752Q735 1055 717.5 1056.5Q700 1058 686.0 1064.5Q672 1071 663.5 1083.5Q655 1096 655 1118V1473Q655 1499 673.5 1517.5Q692 1536 718 1536H1074Q1100 1536 1118.5 1517.5Q1137 1499 1137 1473V1118Q1137 1097 1129.0 1084.5Q1121 1072 1108.0 1065.0Q1095 1058 1078.5 1056.0Q1062 1054 1045 1054Q1031 1054 1017.5 1054.5Q1004 1055 993 1055V949L1371 875Q1407 868 1430.5 839.5Q1454 811 1454 774ZM881 1372Q905 1372 925.5 1363.0Q946 1354 961.0 1338.5Q976 1323 984.5 1302.5Q993 1282 993 1259V1096H1074Q1083 1096 1089.5 1102.5Q1096 1109 1096 1118V1473Q1096 1482 1089.5 1488.5Q1083 1495 1074 1495H718Q709 1495 702.5 1488.5Q696 1482 696 1473V1118Q696 1109 702.5 1102.5Q709 1096 718 1096H768V1265Q768 1287 777.5 1306.5Q787 1326 802.5 1340.5Q818 1355 838.5 1363.5Q859 1372 881 1372Z"/>
  </g>
</svg>