<?xml version="1.0" encoding="utf-8"?>
<svg xmlns="http://www.w3.org/2000/svg" width="16" height="16" viewBox="0 0 2048 2048">
  <g transform="translate(0, 2048) scale(1, -1)">
    <path fill="#000000" d="M815 1469Q815 1436 802.0 1406.0Q789 1376 767.0 1353.5Q745 1331 715.5 1318.0Q686 1305 652 1305Q618 1305 588.5 1318.0Q559 1331 537.0 1353.0Q515 1375 502.0 1404.5Q489 1434 489 1468Q489 1502 501.5 1532.0Q514 1562 536.0 1584.5Q558 1607 587.5 1620.0Q617 1633 651 1633Q685 1633 714.5 1620.0Q744 1607 766.5 1584.5Q789 1562 802.0 1532.5Q815 1503 815 1469ZM1235 1469Q1235 1503 1248.0 1533.0Q1261 1563 1283.0 1585.0Q1305 1607 1335.0 1620.0Q1365 1633 1399 1633Q1433 1633 1462.5 1620.0Q1492 1607 1514.0 1584.5Q1536 1562 1548.5 1532.5Q1561 1503 1561 1469Q1561 1435 1548.0 1405.5Q1535 1376 1513.0 1353.5Q1491 1331 1461.5 1318.0Q1432 1305 1398 1305Q1364 1305 1334.5 1318.0Q1305 1331 1283.0 1353.5Q1261 1376 1248.0 1405.5Q1235 1435 1235 1469ZM1019 473Q920 473 821.0 499.0Q722 525 632.0 573.5Q542 622 467.0 691.0Q392 760 342 847Q334 861 329.5 873.5Q325 886 325 903Q325 924 333.0 942.5Q341 961 355.5 975.5Q370 990 388.5 998.0Q407 1006 428 1006Q458 1006 478.5 993.0Q499 980 516 957Q535 932 553.5 908.0Q572 884 593 861Q684 767 793.0 723.0Q902 679 1032 679Q1116 679 1186.5 698.0Q1257 717 1318.0 753.0Q1379 789 1432.0 840.5Q1485 892 1534 957Q1551 979 1570.0 992.5Q1589 1006 1618 1006Q1664 1006 1694.5 978.0Q1725 950 1725 903Q1725 886 1721.0 875.0Q1717 864 1709 850Q1684 805 1651.0 767.5Q1618 730 1582 695Q1467 586 1322.0 529.5Q1177 473 1019 473Z"/>
  </g>
</svg>