<?xml version="1.0" encoding="utf-8"?>
<svg xmlns="http://www.w3.org/2000/svg" width="16" height="16" viewBox="0 0 2048 2048">
  <g transform="translate(0, 2048) scale(1, -1)">
    <path fill="#000000" d="M1004 969 1333 903Q1361 897 1385.5 882.5Q1410 868 1427.0 846.5Q1444 825 1454.0 798.5Q1464 772 1464 743V501Q1464 489 1459.5 463.0Q1455 437 1446.5 410.0Q1438 383 1426.5 362.5Q1415 342 1400 342Q1392 342 1385.5 348.0Q1379 354 1379 362Q1379 365 1386.0 379.5Q1393 394 1401.0 413.5Q1409 433 1416.0 456.5Q1423 480 1423 501V743Q1423 765 1415.5 785.0Q1408 805 1395.0 821.0Q1382 837 1364.0 848.0Q1346 859 1325 863L979 932Q963 935 963 952V1275Q963 1303 943.5 1322.5Q924 1342 896 1342Q868 1342 848.5 1322.5Q829 1303 829 1275V594Q829 586 823.0 580.0Q817 574 809 574Q801 574 794.5 580.0Q788 586 788 594V776Q756 769 736.5 743.5Q717 718 717 686V478Q717 455 726.0 433.5Q735 412 752 396L917 233Q929 222 935.5 206.5Q942 191 942 174V62Q942 54 936.0 47.5Q930 41 922 41Q906 41 902.5 55.0Q899 69 899 81Q899 98 901.0 115.5Q903 133 903 151Q903 164 900.5 179.0Q898 194 888 204L723 367Q701 389 688.5 418.0Q676 447 676 478V686Q676 710 684.5 732.5Q693 755 708.0 772.5Q723 790 743.5 802.0Q764 814 788 818V1065Q783 1065 778 1065L758 1064Q753 1064 748 1064Q731 1064 714.5 1066.0Q698 1068 684.5 1075.0Q671 1082 663.0 1094.5Q655 1107 655 1128V1483Q655 1509 673.5 1527.5Q692 1546 718 1546H1074Q1100 1546 1118.5 1527.5Q1137 1509 1137 1483V1128Q1137 1107 1128.5 1094.0Q1120 1081 1106.5 1074.5Q1093 1068 1076.0 1066.0Q1059 1064 1042 1064Q1032 1064 1022.5 1064.5Q1013 1065 1004 1065ZM896 1383Q918 1383 937.5 1374.5Q957 1366 972.0 1351.0Q987 1336 995.5 1316.5Q1004 1297 1004 1275V1106H1074Q1083 1106 1089.5 1112.5Q1096 1119 1096 1128V1483Q1096 1492 1089.5 1498.5Q1083 1505 1074 1505H718Q709 1505 702.5 1498.5Q696 1492 696 1483V1128Q696 1119 702.5 1112.5Q709 1106 718 1106H788V1275Q788 1297 796.5 1316.5Q805 1336 820.0 1351.0Q835 1366 854.5 1374.5Q874 1383 896 1383Z"/>
  </g>
</svg>