<?xml version="1.0" encoding="utf-8"?>
<svg xmlns="http://www.w3.org/2000/svg" width="16" height="16" viewBox="0 0 2048 2048">
  <g transform="translate(0, 2048) scale(1, -1)">
    <path fill="#ffffff" d="M1074 1526Q1092 1526 1104.0 1513.0Q1116 1500 1116 1483V1128Q1116 1111 1103.5 1098.0Q1091 1085 1074 1085H983V1275Q983 1311 957.5 1336.5Q932 1362 896 1362Q860 1362 834.5 1336.5Q809 1311 809 1275V1085H718Q701 1085 688.5 1098.0Q676 1111 676 1128V1483Q676 1500 688.0 1513.0Q700 1526 718 1526Z"/>
  </g>
</svg>