<?xml version="1.0" encoding="utf-8"?>
<svg xmlns="http://www.w3.org/2000/svg" width="16" height="16" viewBox="0 0 2048 2048">
  <g transform="translate(0, 2048) scale(1, -1)">
    <path fill="#ffffff" d="M1034 955 1199 872Q1247 848 1273.5 805.0Q1300 762 1300 708V369Q1300 361 1294.0 354.5Q1288 348 1280 348Q1272 348 1266.0 354.5Q1260 361 1260 369V708Q1260 748 1238.5 783.0Q1217 818 1181 836L1034 909V892Q1034 881 1031.0 870.5Q1028 860 1014 860Q1005 860 999.0 866.0Q993 872 993 881V1270Q993 1299 972.0 1320.0Q951 1341 922 1341Q893 1341 871.5 1320.0Q850 1299 850 1270V666Q850 652 845.0 634.0Q840 616 830.5 600.0Q821 584 807.5 573.5Q794 563 778 563Q770 563 764.0 569.5Q758 576 758 584Q758 594 766.0 599.0Q774 604 783.5 610.5Q793 617 801.0 629.5Q809 642 809 666V748H737Q722 748 709.0 741.5Q696 735 686.5 724.0Q677 713 671.5 699.5Q666 686 666 671V449Q666 425 675.5 401.5Q685 378 702 361L876 187Q893 170 897.5 150.0Q902 130 902 107Q902 102 902 96L901 72Q901 67 901 61Q901 53 895.0 47.0Q889 41 881 41Q867 41 862.5 53.0Q858 65 858 79Q858 89 859.0 97.5Q860 106 860 112Q860 124 858.0 137.0Q856 150 847 159L673 332Q650 355 637.5 386.0Q625 417 625 449V680Q625 702 634.5 721.5Q644 741 659.5 756.0Q675 771 695.5 779.5Q716 788 737 788H809V1065Q798 1065 787 1064H772Q761 1063 750 1063Q733 1063 716.0 1065.5Q699 1068 685.5 1074.5Q672 1081 663.5 1094.0Q655 1107 655 1128V1483Q655 1509 673.5 1527.5Q692 1546 718 1546H1074Q1100 1546 1118.5 1527.5Q1137 1509 1137 1483V1128Q1137 1105 1127.5 1092.0Q1118 1079 1103.0 1073.0Q1088 1067 1070.0 1066.0Q1052 1065 1034 1065ZM922 1382Q945 1382 965.5 1373.0Q986 1364 1001.0 1349.0Q1016 1334 1025.0 1313.5Q1034 1293 1034 1270V1106H1074Q1083 1106 1089.5 1112.5Q1096 1119 1096 1128V1483Q1096 1492 1089.5 1498.5Q1083 1505 1074 1505H718Q709 1505 702.5 1498.5Q696 1492 696 1483V1128Q696 1119 702.5 1112.5Q709 1106 718 1106H809V1270Q809 1293 818.0 1313.5Q827 1334 842.5 1349.0Q858 1364 878.5 1373.0Q899 1382 922 1382Z"/>
  </g>
</svg>