<?xml version="1.0" encoding="utf-8"?>
<svg xmlns="http://www.w3.org/2000/svg" width="16" height="16" viewBox="0 0 2048 2048">
  <g transform="translate(0, 2048) scale(1, -1)">
    <path fill="#000000" d="M1074 1065H983V1106H1074Q1083 1106 1089.5 1112.5Q1096 1119 1096 1128V1483Q1096 1492 1089.5 1498.5Q1083 1505 1074 1505H718Q709 1505 702.5 1498.5Q696 1492 696 1483V1128Q696 1119 702.5 1112.5Q709 1106 718 1106H788V1065H718Q692 1065 673.5 1083.5Q655 1102 655 1128V1483Q655 1509 673.5 1527.5Q692 1546 718 1546H1074Q1100 1546 1118.5 1527.5Q1137 1509 1137 1483V1128Q1137 1102 1118.5 1083.5Q1100 1065 1074 1065Z"/>
  </g>
</svg>