<?xml version="1.0" encoding="utf-8"?>
<svg xmlns="http://www.w3.org/2000/svg" width="16" height="16" viewBox="0 0 2048 2048">
  <g transform="translate(0, 2048) scale(1, -1)">
    <path fill="#000000" d="M1074 1065H718Q692 1065 673.5 1083.5Q655 1102 655 1128V1483Q655 1509 673.5 1527.5Q692 1546 718 1546H1074Q1100 1546 1118.5 1527.5Q1137 1509 1137 1483V1128Q1137 1102 1118.5 1083.5Q1100 1065 1074 1065ZM696 1483V1128Q696 1119 702.5 1112.5Q709 1106 718 1106H1074Q1083 1106 1089.5 1112.5Q1096 1119 1096 1128V1483Q1096 1492 1089.5 1498.5Q1083 1505 1074 1505H718Q709 1505 702.5 1498.5Q696 1492 696 1483ZM1004 314 1333 248Q1361 242 1385.0 227.0Q1409 212 1426.5 190.5Q1444 169 1454.0 142.0Q1464 115 1464 87V0H1423V44Q1423 73 1420.0 99.5Q1417 126 1407.0 148.0Q1397 170 1377.5 185.0Q1358 200 1325 207L979 277Q963 280 963 297V619Q963 647 943.5 666.5Q924 686 896 686Q869 686 849.0 667.0Q829 648 829 620V0H788V120Q764 115 750.0 103.5Q736 92 728.5 76.0Q721 60 719.0 40.5Q717 21 717 0H676V31Q676 56 684.5 78.0Q693 100 708.0 117.0Q723 134 743.5 146.0Q764 158 788 162V619Q788 641 796.5 660.5Q805 680 820.0 695.0Q835 710 854.5 718.5Q874 727 896 727Q918 727 937.5 718.5Q957 710 972.0 695.5Q987 681 995.5 661.5Q1004 642 1004 620Z"/>
  </g>
</svg>