<?xml version="1.0" encoding="utf-8"?>
<svg xmlns="http://www.w3.org/2000/svg" width="16" height="16" viewBox="0 0 2048 2048">
  <g transform="translate(0, 2048) scale(1, -1)">
    <path fill="#ffffff" d="M1004 969 1333 903Q1361 897 1385.5 882.5Q1410 868 1427.0 846.5Q1444 825 1454.0 798.5Q1464 772 1464 743V501Q1464 489 1459.5 463.0Q1455 437 1446.5 410.0Q1438 383 1426.5 362.5Q1415 342 1400 342Q1392 342 1385.5 348.0Q1379 354 1379 362Q1379 365 1386.0 379.5Q1393 394 1401.0 413.5Q1409 433 1416.0 456.5Q1423 480 1423 501V743Q1423 765 1415.5 785.0Q1408 805 1395.0 821.0Q1382 837 1364.0 848.0Q1346 859 1325 863L979 932Q963 935 963 952V1275Q963 1303 943.5 1322.5Q924 1342 896 1342Q868 1342 848.5 1322.5Q829 1303 829 1275V594Q829 586 823.0 580.0Q817 574 809 574Q801 574 794.5 580.0Q788 586 788 594V776Q756 769 736.5 743.5Q717 718 717 686V478Q717 455 726.0 433.5Q735 412 752 396L917 233Q929 222 935.5 206.5Q942 191 942 174V62Q942 54 936.0 47.5Q930 41 922 41Q914 41 909.0 45.0Q904 49 902.0 55.5Q900 62 899.5 69.0Q899 76 899 82Q899 95 900 108L901 125Q902 138 902 151Q902 164 900.0 179.0Q898 194 888 204L723 367Q701 389 688.5 418.0Q676 447 676 478V686Q676 710 684.5 732.5Q693 755 708.0 772.5Q723 790 743.5 802.0Q764 814 788 818V1275Q788 1297 796.5 1316.5Q805 1336 820.0 1351.0Q835 1366 854.5 1374.5Q874 1383 896 1383Q918 1383 937.5 1374.5Q957 1366 972.0 1351.0Q987 1336 995.5 1316.5Q1004 1297 1004 1275Z"/>
  </g>
</svg>