<?xml version="1.0" encoding="utf-8"?>
<svg xmlns="http://www.w3.org/2000/svg" width="16" height="16" viewBox="0 0 2048 2048">
  <g transform="translate(0, 2048) scale(1, -1)">
    <path fill="#ffffff" d="M1025 1637Q1138 1637 1252.0 1605.0Q1366 1573 1468.0 1514.0Q1570 1455 1653.0 1372.0Q1736 1289 1787 1186Q1793 1174 1797.0 1160.5Q1801 1147 1801 1133Q1801 1083 1767.5 1052.5Q1734 1022 1685 1022Q1654 1022 1632.5 1038.5Q1611 1055 1594 1079Q1580 1099 1568.5 1119.0Q1557 1139 1543 1158Q1498 1219 1440.0 1267.0Q1382 1315 1315.0 1348.5Q1248 1382 1174.5 1399.5Q1101 1417 1025 1417Q944 1417 864.5 1396.5Q785 1376 713.5 1337.0Q642 1298 581.5 1242.5Q521 1187 478 1117L454 1076Q438 1051 414.0 1036.5Q390 1022 360 1022Q337 1022 317.0 1031.0Q297 1040 282.0 1055.0Q267 1070 258.0 1090.0Q249 1110 249 1133Q249 1160 263 1186Q317 1290 399.5 1373.5Q482 1457 582.0 1515.5Q682 1574 795.5 1605.5Q909 1637 1025 1637ZM1025 1086Q1091 1086 1149.0 1061.0Q1207 1036 1250.0 992.5Q1293 949 1318.0 891.0Q1343 833 1343 767Q1343 701 1317.5 642.5Q1292 584 1248.5 541.0Q1205 498 1147.0 473.0Q1089 448 1023 448Q956 448 898.5 473.0Q841 498 798.5 541.5Q756 585 731.5 643.5Q707 702 707 768Q707 834 732.0 891.5Q757 949 800.5 992.5Q844 1036 901.5 1061.0Q959 1086 1025 1086Z"/>
  </g>
</svg>