<?xml version="1.0" encoding="utf-8"?>
<svg xmlns="http://www.w3.org/2000/svg" width="16" height="16" viewBox="0 0 2048 2048">
  <g transform="translate(0, 2048) scale(1, -1)">
    <path fill="#ffffff" d="M1920 1408Q1920 1371 1905.0 1334.5Q1890 1298 1864 1272L1615 1023Q1652 1020 1684.5 1004.0Q1717 988 1741.0 962.5Q1765 937 1778.5 903.0Q1792 869 1792 832V320Q1792 280 1777.0 245.0Q1762 210 1736.0 184.0Q1710 158 1675.0 143.0Q1640 128 1600 128H320Q280 128 245.0 143.0Q210 158 184.0 184.0Q158 210 143.0 245.0Q128 280 128 320V1600Q128 1640 143.0 1675.0Q158 1710 184.0 1736.0Q210 1762 245.0 1777.0Q280 1792 320 1792H832Q869 1792 903.0 1778.5Q937 1765 962.5 1741.0Q988 1717 1004.0 1684.5Q1020 1652 1023 1615L1272 1864Q1298 1890 1334.0 1905.0Q1370 1920 1408 1920Q1446 1920 1482.0 1905.0Q1518 1890 1544 1864L1864 1544Q1890 1518 1905.0 1482.0Q1920 1446 1920 1408ZM1792 1408Q1792 1434 1773 1453L1453 1773Q1434 1792 1408 1792Q1382 1792 1363 1773L1043 1453Q1024 1434 1024 1408Q1024 1382 1043 1363L1363 1043Q1382 1024 1408 1024Q1434 1024 1453 1043L1773 1363Q1792 1382 1792 1408ZM896 1024V1600Q896 1626 877.0 1645.0Q858 1664 832 1664H320Q294 1664 275.0 1645.0Q256 1626 256 1600V1024ZM1200 1024 1024 1200V1024ZM896 256V896H256V320Q256 294 275.0 275.0Q294 256 320 256ZM1664 832Q1664 858 1645.0 877.0Q1626 896 1600 896H1024V256H1600Q1626 256 1645.0 275.0Q1664 294 1664 320Z"/>
  </g>
</svg>