<?xml version="1.0" encoding="utf-8"?>
<svg xmlns="http://www.w3.org/2000/svg" width="16" height="16" viewBox="0 0 2048 2048">
  <g transform="translate(0, 2048) scale(1, -1)">
    <path fill="#ffffff" d="M205 410Q163 410 125.5 426.0Q88 442 60.5 470.0Q33 498 16.5 535.0Q0 572 0 614V1536Q0 1578 16.0 1615.5Q32 1653 60.0 1681.0Q88 1709 125.5 1725.0Q163 1741 205 1741H1843Q1885 1741 1922.5 1725.0Q1960 1709 1988.0 1681.0Q2016 1653 2032.0 1615.5Q2048 1578 2048 1536V614Q2048 572 2031.5 535.0Q2015 498 1987.5 470.0Q1960 442 1922.5 426.0Q1885 410 1843 410ZM1843 512Q1864 512 1882.5 520.0Q1901 528 1915.5 542.0Q1930 556 1938.0 574.5Q1946 593 1946 614V1536Q1946 1557 1938.0 1575.5Q1930 1594 1915.5 1608.0Q1901 1622 1882.5 1630.0Q1864 1638 1843 1638H205Q184 1638 165.5 1630.0Q147 1622 132.5 1608.0Q118 1594 110.0 1575.5Q102 1557 102 1536V614Q102 593 110.0 574.5Q118 556 132.5 542.0Q147 528 165.5 520.0Q184 512 205 512ZM307 1306Q307 1338 329.5 1360.0Q352 1382 384 1382Q416 1382 438.5 1360.0Q461 1338 461 1306Q461 1274 438.5 1251.5Q416 1229 384 1229Q352 1229 329.5 1251.5Q307 1274 307 1306ZM614 1306Q614 1338 636.5 1360.0Q659 1382 691 1382Q723 1382 745.5 1360.0Q768 1338 768 1306Q768 1274 745.5 1251.5Q723 1229 691 1229Q659 1229 636.5 1251.5Q614 1274 614 1306ZM410 998Q410 1030 432.0 1052.5Q454 1075 486 1075Q518 1075 540.5 1052.5Q563 1030 563 998Q563 966 540.5 944.0Q518 922 486 922Q455 922 432.5 944.5Q410 967 410 998ZM717 998Q717 1030 739.5 1052.5Q762 1075 794 1075Q826 1075 848.0 1052.5Q870 1030 870 998Q870 966 848.0 944.0Q826 922 794 922Q762 922 739.5 944.0Q717 966 717 998ZM461 614Q439 614 424.5 629.5Q410 645 410 666Q410 687 425.0 702.0Q440 717 461 717H768Q789 717 804.0 702.0Q819 687 819 666Q819 645 804.5 629.5Q790 614 768 614Z"/>
  </g>
</svg>