<?xml version="1.0" encoding="utf-8"?>
<svg xmlns="http://www.w3.org/2000/svg" width="16" height="16" viewBox="0 0 2048 2048">
  <g transform="translate(0, 2048) scale(1, -1)">
    <path fill="#ffffff" d="M205 410Q163 410 125.5 426.0Q88 442 60.5 470.0Q33 498 16.5 535.0Q0 572 0 614V1536Q0 1578 16.0 1615.5Q32 1653 60.0 1681.0Q88 1709 125.5 1725.0Q163 1741 205 1741H1843Q1885 1741 1922.5 1725.0Q1960 1709 1988.0 1681.0Q2016 1653 2032.0 1615.5Q2048 1578 2048 1536V614Q2048 572 2031.5 535.0Q2015 498 1987.5 470.0Q1960 442 1922.5 426.0Q1885 410 1843 410ZM1843 512Q1864 512 1882.5 520.0Q1901 528 1915.5 542.0Q1930 556 1938.0 574.5Q1946 593 1946 614V1536Q1946 1557 1938.0 1575.5Q1930 1594 1915.5 1608.0Q1901 1622 1882.5 1630.0Q1864 1638 1843 1638H205Q184 1638 165.5 1630.0Q147 1622 132.5 1608.0Q118 1594 110.0 1575.5Q102 1557 102 1536V614Q102 593 110.0 574.5Q118 556 132.5 542.0Q147 528 165.5 520.0Q184 512 205 512ZM1280 1306Q1280 1338 1302.5 1360.0Q1325 1382 1357 1382Q1389 1382 1411.5 1360.0Q1434 1338 1434 1306Q1434 1274 1411.5 1251.5Q1389 1229 1357 1229Q1325 1229 1302.5 1251.5Q1280 1274 1280 1306ZM1587 1306Q1587 1338 1609.5 1360.0Q1632 1382 1664 1382Q1696 1382 1718.5 1360.0Q1741 1338 1741 1306Q1741 1274 1718.5 1251.5Q1696 1229 1664 1229Q1632 1229 1609.5 1251.5Q1587 1274 1587 1306ZM1178 998Q1178 1030 1200.0 1052.5Q1222 1075 1254 1075Q1286 1075 1308.5 1052.5Q1331 1030 1331 998Q1331 966 1308.5 944.0Q1286 922 1254 922Q1223 922 1200.5 944.5Q1178 967 1178 998ZM1485 998Q1485 1030 1507.5 1052.5Q1530 1075 1562 1075Q1594 1075 1616.0 1052.5Q1638 1030 1638 998Q1638 966 1616.0 944.0Q1594 922 1562 922Q1530 922 1507.5 944.0Q1485 966 1485 998ZM1280 614Q1258 614 1243.5 629.5Q1229 645 1229 666Q1229 687 1244.0 702.0Q1259 717 1280 717H1587Q1608 717 1623.0 702.0Q1638 687 1638 666Q1638 644 1623.5 629.0Q1609 614 1587 614Z"/>
  </g>
</svg>