<?xml version="1.0" encoding="utf-8"?>
<svg xmlns="http://www.w3.org/2000/svg" width="16" height="16" viewBox="0 0 2048 2048">
  <g transform="translate(0, 2048) scale(1, -1)">
    <path fill="#ffffff" d="M1558 1024 1430 912Q1410 895 1408.5 868.5Q1407 842 1424 822Q1441 802 1467.5 800.5Q1494 799 1514 816L1770 1040Q1792 1059 1792 1088Q1792 1117 1770 1136L1514 1360Q1494 1377 1467.5 1375.5Q1441 1374 1424 1354Q1407 1334 1408.5 1307.5Q1410 1281 1430 1264L1558 1152H960Q934 1152 915.0 1133.0Q896 1114 896 1088Q896 1062 915.0 1043.0Q934 1024 960 1024ZM1792 256Q1845 256 1891.5 276.0Q1938 296 1973.0 331.0Q2008 366 2028.0 412.5Q2048 459 2048 512V1664Q2048 1717 2028.0 1763.5Q2008 1810 1973.0 1845.0Q1938 1880 1891.5 1900.0Q1845 1920 1792 1920H256Q203 1920 156.5 1900.0Q110 1880 75.0 1845.0Q40 1810 20.0 1763.5Q0 1717 0 1664V512Q0 459 20.0 412.5Q40 366 75.0 331.0Q110 296 156.5 276.0Q203 256 256 256ZM128 1664Q128 1691 138.0 1714.0Q148 1737 165.5 1754.5Q183 1772 206.0 1782.0Q229 1792 256 1792H640V384H256Q229 384 206.0 394.0Q183 404 165.5 421.5Q148 439 138.0 462.0Q128 485 128 512ZM1792 1792Q1819 1792 1842.0 1782.0Q1865 1772 1882.5 1754.5Q1900 1737 1910.0 1714.0Q1920 1691 1920 1664V512Q1920 485 1910.0 462.0Q1900 439 1882.5 421.5Q1865 404 1842.0 394.0Q1819 384 1792 384H768V1792Z"/>
  </g>
</svg>