<?xml version="1.0" encoding="utf-8"?>
<svg xmlns="http://www.w3.org/2000/svg" width="16" height="16" viewBox="0 0 2048 2048">
  <g transform="translate(0, 2048) scale(1, -1)">
    <path fill="#000000" d="M896 960Q896 986 915 1005L1702 1792H1088Q1062 1792 1043.0 1811.0Q1024 1830 1024 1856Q1024 1882 1043.0 1901.0Q1062 1920 1088 1920H1856Q1882 1920 1901.0 1901.0Q1920 1882 1920 1856V1088Q1920 1062 1901.0 1043.0Q1882 1024 1856 1024Q1830 1024 1811.0 1043.0Q1792 1062 1792 1088V1701L1005 915Q995 906 984.5 901.0Q974 896 960 896Q934 896 915.0 915.0Q896 934 896 960ZM504 128Q429 128 360.5 158.5Q292 189 240.5 240.5Q189 292 158.5 360.5Q128 429 128 504V1416Q128 1491 158.5 1559.5Q189 1628 240.5 1679.5Q292 1731 360.5 1761.5Q429 1792 504 1792H832Q858 1792 877.0 1773.0Q896 1754 896 1728Q896 1702 877.0 1683.0Q858 1664 832 1664H507Q457 1664 411.5 1643.5Q366 1623 331.5 1588.5Q297 1554 276.5 1508.5Q256 1463 256 1413V507Q256 457 276.5 411.5Q297 366 331.5 331.5Q366 297 411.5 276.5Q457 256 507 256H1413Q1465 256 1510.5 277.0Q1556 298 1590.0 333.0Q1624 368 1644.0 414.5Q1664 461 1664 512V832Q1664 858 1683.0 877.0Q1702 896 1728 896Q1754 896 1773.0 877.0Q1792 858 1792 832V504Q1792 429 1761.5 360.5Q1731 292 1679.5 240.5Q1628 189 1559.5 158.5Q1491 128 1416 128Z"/>
  </g>
</svg>