<?xml version="1.0" encoding="utf-8"?>
<svg xmlns="http://www.w3.org/2000/svg" width="16" height="16" viewBox="0 0 2048 2048">
  <g transform="translate(0, 2048) scale(1, -1)">
    <path fill="#ffffff" d="M1536 1408Q1509 1408 1485.5 1418.0Q1462 1428 1445.0 1445.0Q1428 1462 1418.0 1485.5Q1408 1509 1408 1536V1792Q1408 1819 1418.0 1842.0Q1428 1865 1445.5 1882.5Q1463 1900 1486.0 1910.0Q1509 1920 1536 1920H1792Q1818 1920 1841.5 1910.0Q1865 1900 1882.5 1882.5Q1900 1865 1910.0 1841.5Q1920 1818 1920 1792V1536Q1920 1509 1910.0 1486.0Q1900 1463 1882.5 1445.5Q1865 1428 1842.0 1418.0Q1819 1408 1792 1408ZM192 1664Q166 1664 147.0 1683.0Q128 1702 128 1728Q128 1754 147.0 1773.0Q166 1792 192 1792H1216Q1242 1792 1261.0 1773.0Q1280 1754 1280 1728Q1280 1702 1261.0 1683.0Q1242 1664 1216 1664ZM1536 1792V1536H1792V1792ZM1536 768Q1509 768 1485.5 778.0Q1462 788 1445.0 805.0Q1428 822 1418.0 845.5Q1408 869 1408 896V1152Q1408 1179 1418.0 1202.0Q1428 1225 1445.5 1242.5Q1463 1260 1486.0 1270.0Q1509 1280 1536 1280H1792Q1818 1280 1841.5 1270.0Q1865 1260 1882.5 1242.5Q1900 1225 1910.0 1201.5Q1920 1178 1920 1152V896Q1920 869 1910.0 846.0Q1900 823 1882.5 805.5Q1865 788 1842.0 778.0Q1819 768 1792 768ZM0 576Q0 695 45.5 800.0Q91 905 169.0 983.0Q247 1061 352.0 1106.5Q457 1152 576 1152Q655 1152 728.5 1131.5Q802 1111 866.0 1073.5Q930 1036 983.0 983.0Q1036 930 1073.5 866.0Q1111 802 1131.5 728.5Q1152 655 1152 576Q1152 457 1106.5 352.0Q1061 247 983.0 169.0Q905 91 800.0 45.5Q695 0 576 0Q456 0 351.0 45.0Q246 90 168.0 168.0Q90 246 45.0 351.0Q0 456 0 576ZM1160 1024Q1133 1060 1101.0 1092.0Q1069 1124 1034 1152H1216Q1242 1152 1261.0 1133.0Q1280 1114 1280 1088Q1280 1062 1261.0 1043.0Q1242 1024 1216 1024ZM1536 1152V896H1792V1152ZM768 315Q797 315 817.0 335.0Q837 355 837 384Q837 413 817 433L482 768H704Q730 768 749.0 787.0Q768 806 768 832Q768 858 749.0 877.0Q730 896 704 896H320Q294 896 275.0 877.0Q256 858 256 832V448Q256 422 275.0 403.0Q294 384 320 384Q346 384 365.0 403.0Q384 422 384 448V670L719 335Q739 315 768 315ZM1536 128Q1509 128 1485.5 138.0Q1462 148 1445.0 165.0Q1428 182 1418.0 205.5Q1408 229 1408 256V512Q1408 539 1418.0 562.0Q1428 585 1445.5 602.5Q1463 620 1486.0 630.0Q1509 640 1536 640H1792Q1818 640 1841.5 630.0Q1865 620 1882.5 602.5Q1900 585 1910.0 561.5Q1920 538 1920 512V256Q1920 229 1910.0 206.0Q1900 183 1882.5 165.5Q1865 148 1842.0 138.0Q1819 128 1792 128ZM1536 512V256H1792V512Z"/>
  </g>
</svg>