<?xml version="1.0" encoding="utf-8"?>
<svg xmlns="http://www.w3.org/2000/svg" width="16" height="16" viewBox="0 0 2048 2048">
  <g transform="translate(0, 2048) scale(1, -1)">
    <path fill="#000000" d="M1792 1264V251Q1792 201 1771.5 155.5Q1751 110 1716.5 75.5Q1682 41 1636.5 20.5Q1591 0 1541 0H1034Q1069 28 1101.0 60.0Q1133 92 1160 128H1536Q1563 128 1586.0 138.0Q1609 148 1626.5 165.5Q1644 183 1654.0 206.0Q1664 229 1664 256V1272Q1664 1276 1663 1280H1275Q1223 1280 1177.5 1301.0Q1132 1322 1098.0 1357.0Q1064 1392 1044.0 1438.5Q1024 1485 1024 1536V1919Q1020 1920 1016 1920H512Q485 1920 462.0 1910.0Q439 1900 421.5 1882.5Q404 1865 394.0 1842.0Q384 1819 384 1792V1287Q317 1269 256 1239V1797Q256 1847 276.5 1892.5Q297 1938 331.5 1972.5Q366 2007 411.5 2027.5Q457 2048 507 2048H1008Q1059 2048 1106.0 2028.5Q1153 2009 1189 1973L1717 1445Q1753 1409 1772.5 1362.0Q1792 1315 1792 1264ZM1152 1536Q1152 1509 1162.0 1485.5Q1172 1462 1189.0 1445.0Q1206 1428 1229.5 1418.0Q1253 1408 1280 1408H1574L1152 1830ZM1152 576Q1152 457 1106.5 352.0Q1061 247 983.0 169.0Q905 91 800.0 45.5Q695 0 576 0Q456 0 351.0 45.0Q246 90 168.0 168.0Q90 246 45.0 351.0Q0 456 0 576Q0 695 45.5 800.0Q91 905 169.0 983.0Q247 1061 352.0 1106.5Q457 1152 576 1152Q655 1152 728.5 1131.5Q802 1111 866.0 1073.5Q930 1036 983.0 983.0Q1036 930 1073.5 866.0Q1111 802 1131.5 728.5Q1152 655 1152 576ZM896 832Q896 858 877.0 877.0Q858 896 832 896H448Q422 896 403.0 877.0Q384 858 384 832Q384 806 403.0 787.0Q422 768 448 768H670L335 433Q315 413 315 384Q315 355 335.0 335.0Q355 315 384 315Q413 315 433 335L768 670V448Q768 422 787.0 403.0Q806 384 832 384Q858 384 877.0 403.0Q896 422 896 448Z"/>
  </g>
</svg>