<?xml version="1.0" encoding="utf-8"?>
<svg xmlns="http://www.w3.org/2000/svg" width="16" height="16" viewBox="0 0 2048 2048">
  <g transform="translate(0, 2048) scale(1, -1)">
    <path fill="#ffffff" d="M256 1408Q229 1408 205.5 1418.0Q182 1428 165.0 1445.0Q148 1462 138.0 1485.5Q128 1509 128 1536V1792Q128 1819 138.0 1842.0Q148 1865 165.5 1882.5Q183 1900 206.0 1910.0Q229 1920 256 1920H512Q538 1920 561.5 1910.0Q585 1900 602.5 1882.5Q620 1865 630.0 1841.5Q640 1818 640 1792V1536Q640 1509 630.0 1486.0Q620 1463 602.5 1445.5Q585 1428 562.0 1418.0Q539 1408 512 1408ZM256 1792V1536H512V1792ZM832 1664Q806 1664 787.0 1683.0Q768 1702 768 1728Q768 1754 787.0 1773.0Q806 1792 832 1792H1856Q1882 1792 1901.0 1773.0Q1920 1754 1920 1728Q1920 1702 1901.0 1683.0Q1882 1664 1856 1664ZM256 768Q229 768 205.5 778.0Q182 788 165.0 805.0Q148 822 138.0 845.5Q128 869 128 896V1152Q128 1179 138.0 1202.0Q148 1225 165.5 1242.5Q183 1260 206.0 1270.0Q229 1280 256 1280H512Q538 1280 561.5 1270.0Q585 1260 602.5 1242.5Q620 1225 630.0 1201.5Q640 1178 640 1152V896Q640 869 630.0 846.0Q620 823 602.5 805.5Q585 788 562.0 778.0Q539 768 512 768ZM256 1152V896H512V1152ZM832 1024Q806 1024 787.0 1043.0Q768 1062 768 1088Q768 1114 787.0 1133.0Q806 1152 832 1152H1014Q979 1124 947.0 1092.0Q915 1060 888 1024ZM896 576Q896 695 941.5 800.0Q987 905 1065.0 983.0Q1143 1061 1248.0 1106.5Q1353 1152 1472 1152Q1551 1152 1624.5 1131.5Q1698 1111 1762.0 1073.5Q1826 1036 1879.0 983.0Q1932 930 1969.5 866.0Q2007 802 2027.5 728.5Q2048 655 2048 576Q2048 457 2002.5 352.0Q1957 247 1879.0 169.0Q1801 91 1696.0 45.5Q1591 0 1472 0Q1352 0 1247.0 45.0Q1142 90 1064.0 168.0Q986 246 941.0 351.0Q896 456 896 576ZM1280 315Q1309 315 1329 335L1664 670V448Q1664 422 1683.0 403.0Q1702 384 1728 384Q1754 384 1773.0 403.0Q1792 422 1792 448V832Q1792 858 1773.0 877.0Q1754 896 1728 896H1344Q1318 896 1299.0 877.0Q1280 858 1280 832Q1280 806 1299.0 787.0Q1318 768 1344 768H1566L1231 433Q1211 413 1211 384Q1211 355 1231.0 335.0Q1251 315 1280 315ZM256 128Q229 128 205.5 138.0Q182 148 165.0 165.0Q148 182 138.0 205.5Q128 229 128 256V512Q128 539 138.0 562.0Q148 585 165.5 602.5Q183 620 206.0 630.0Q229 640 256 640H512Q538 640 561.5 630.0Q585 620 602.5 602.5Q620 585 630.0 561.5Q640 538 640 512V256Q640 229 630.0 206.0Q620 183 602.5 165.5Q585 148 562.0 138.0Q539 128 512 128ZM256 512V256H512V512Z"/>
  </g>
</svg>