<?xml version="1.0" encoding="utf-8"?>
<svg xmlns="http://www.w3.org/2000/svg" width="16" height="16" viewBox="0 0 2048 2048">
  <g transform="translate(0, 2048) scale(1, -1)">
    <path fill="#000000" d="M490 1088 618 1200Q638 1217 639.5 1243.5Q641 1270 624 1290Q607 1310 580.5 1311.5Q554 1313 534 1296L278 1072Q256 1053 256 1024Q256 995 278 976L534 752Q554 735 580.5 736.5Q607 738 624 758Q641 778 639.5 804.5Q638 831 618 848L490 960H1088Q1114 960 1133.0 979.0Q1152 998 1152 1024Q1152 1050 1133.0 1069.0Q1114 1088 1088 1088ZM256 1792Q203 1792 156.5 1772.0Q110 1752 75.0 1717.0Q40 1682 20.0 1635.5Q0 1589 0 1536V512Q0 459 20.0 412.5Q40 366 75.0 331.0Q110 296 156.5 276.0Q203 256 256 256H1792Q1845 256 1891.5 276.0Q1938 296 1973.0 331.0Q2008 366 2028.0 412.5Q2048 459 2048 512V1536Q2048 1589 2028.0 1635.5Q2008 1682 1973.0 1717.0Q1938 1752 1891.5 1772.0Q1845 1792 1792 1792ZM1920 512Q1920 485 1910.0 462.0Q1900 439 1882.5 421.5Q1865 404 1842.0 394.0Q1819 384 1792 384H1408V1664H1792Q1819 1664 1842.0 1654.0Q1865 1644 1882.5 1626.5Q1900 1609 1910.0 1586.0Q1920 1563 1920 1536ZM256 384Q229 384 206.0 394.0Q183 404 165.5 421.5Q148 439 138.0 462.0Q128 485 128 512V1536Q128 1563 138.0 1586.0Q148 1609 165.5 1626.5Q183 1644 206.0 1654.0Q229 1664 256 1664H1280V384Z"/>
  </g>
</svg>