<?xml version="1.0" encoding="utf-8"?>
<svg xmlns="http://www.w3.org/2000/svg" width="16" height="16" viewBox="0 0 2048 2048">
  <g transform="translate(0, 2048) scale(1, -1)">
    <path fill="#ffffff" d="M313 128Q250 128 193.0 153.5Q136 179 93.5 221.5Q51 264 25.5 321.0Q0 378 0 441V1607Q0 1670 25.5 1727.0Q51 1784 93.5 1826.5Q136 1869 193.0 1894.5Q250 1920 313 1920H704Q773 1920 822.5 1898.5Q872 1877 912.0 1841.0Q952 1805 986.0 1759.0Q1020 1713 1056 1664H1605Q1667 1664 1724.0 1639.0Q1781 1614 1824.0 1571.5Q1867 1529 1893.0 1473.0Q1919 1417 1920 1355Q1967 1318 1993.0 1265.0Q2019 1212 2019 1152Q2019 1143 2019.0 1134.5Q2019 1126 2017 1117L1918 404Q1910 347 1882.0 296.5Q1854 246 1812.0 208.5Q1770 171 1717.0 149.5Q1664 128 1606 128ZM1781 1407Q1771 1436 1753.0 1459.5Q1735 1483 1711.0 1500.0Q1687 1517 1659.0 1526.5Q1631 1536 1600 1536H992L858 1715Q831 1751 790.0 1771.5Q749 1792 704 1792H320Q281 1792 246.0 1777.0Q211 1762 184.5 1735.5Q158 1709 143.0 1674.0Q128 1639 128 1600V442L129 431Q129 428 129 425L290 1204Q299 1248 322.5 1285.5Q346 1323 379.5 1350.0Q413 1377 454.5 1392.5Q496 1408 541 1408H1773Q1776 1408 1781 1407ZM1601 256Q1637 256 1669.5 268.5Q1702 281 1727.5 303.5Q1753 326 1769.5 356.0Q1786 386 1791 422L1890 1134Q1891 1139 1891.0 1143.0Q1891 1147 1891 1152Q1891 1178 1881.0 1201.5Q1871 1225 1854.0 1242.5Q1837 1260 1814.0 1270.0Q1791 1280 1764 1280H541Q518 1280 497.5 1272.5Q477 1265 460.0 1251.5Q443 1238 431.0 1219.0Q419 1200 415 1178L230 279Q273 256 320 256Z"/>
  </g>
</svg>