<?xml version="1.0" encoding="utf-8"?>
<svg xmlns="http://www.w3.org/2000/svg" width="16" height="16" viewBox="0 0 2048 2048">
  <g transform="translate(0, 2048) scale(1, -1)">
    <path fill="#ffffff" d="M313 128Q250 128 193.0 153.5Q136 179 93.5 221.5Q51 264 25.5 321.0Q0 378 0 441V1607Q0 1670 25.5 1727.0Q51 1784 93.5 1826.5Q136 1869 193.0 1894.5Q250 1920 313 1920H704Q773 1920 822.5 1898.5Q872 1877 911.5 1841.5Q951 1806 985.0 1760.0Q1019 1714 1056 1664H1735Q1798 1664 1855.0 1638.5Q1912 1613 1954.5 1570.5Q1997 1528 2022.5 1471.0Q2048 1414 2048 1351V1034Q2020 1069 1988.0 1101.0Q1956 1133 1920 1160V1344Q1920 1383 1905.0 1418.0Q1890 1453 1863.5 1479.5Q1837 1506 1802.0 1521.0Q1767 1536 1728 1536H1043Q1008 1512 975.0 1489.0Q942 1466 908.0 1448.0Q874 1430 836.5 1419.0Q799 1408 754 1408H128V448Q128 409 143.0 374.0Q158 339 184.5 312.5Q211 286 246.0 271.0Q281 256 320 256H809Q826 222 845.5 190.0Q865 158 888 128ZM754 1536Q781 1536 804.5 1543.0Q828 1550 849.0 1561.5Q870 1573 890.5 1587.0Q911 1601 932 1616Q909 1647 887.0 1678.5Q865 1710 839.0 1735.0Q813 1760 780.5 1776.0Q748 1792 704 1792H320Q281 1792 246.0 1777.0Q211 1762 184.5 1735.5Q158 1709 143.0 1674.0Q128 1639 128 1600V1536ZM896 576Q896 695 941.5 800.0Q987 905 1065.0 983.0Q1143 1061 1248.0 1106.5Q1353 1152 1472 1152Q1551 1152 1624.5 1131.5Q1698 1111 1762.0 1073.5Q1826 1036 1879.0 983.0Q1932 930 1969.5 866.0Q2007 802 2027.5 728.5Q2048 655 2048 576Q2048 457 2002.5 352.0Q1957 247 1879.0 169.0Q1801 91 1696.0 45.5Q1591 0 1472 0Q1352 0 1247.0 45.0Q1142 90 1064.0 168.0Q986 246 941.0 351.0Q896 456 896 576ZM1280 315Q1309 315 1329 335L1664 670V448Q1664 422 1683.0 403.0Q1702 384 1728 384Q1754 384 1773.0 403.0Q1792 422 1792 448V832Q1792 858 1773.0 877.0Q1754 896 1728 896H1344Q1318 896 1299.0 877.0Q1280 858 1280 832Q1280 806 1299.0 787.0Q1318 768 1344 768H1566L1231 433Q1211 413 1211 384Q1211 355 1231.0 335.0Q1251 315 1280 315Z"/>
  </g>
</svg>