<?xml version="1.0" encoding="utf-8"?>
<svg xmlns="http://www.w3.org/2000/svg" width="16" height="16" viewBox="0 0 2048 2048">
  <g transform="translate(0, 2048) scale(1, -1)">
    <path fill="#000000" d="M0 1600V1728Q0 1754 19.0 1773.0Q38 1792 64 1792H192Q218 1792 237.0 1773.0Q256 1754 256 1728Q256 1706 247.5 1693.0Q239 1680 225.5 1673.5Q212 1667 194.5 1665.5Q177 1664 160 1664H128V1630Q128 1613 126.0 1596.0Q124 1579 117.5 1565.5Q111 1552 98.0 1544.0Q85 1536 64 1536Q38 1536 19.0 1555.0Q0 1574 0 1600ZM448 1664Q422 1664 403.0 1683.0Q384 1702 384 1728Q384 1754 403.0 1773.0Q422 1792 448 1792H576Q602 1792 621.0 1773.0Q640 1754 640 1728Q640 1702 621.0 1683.0Q602 1664 576 1664ZM768 1728Q768 1754 787.0 1773.0Q806 1792 832 1792H960Q986 1792 1005.0 1773.0Q1024 1754 1024 1728V1600Q1024 1574 1005.0 1555.0Q986 1536 960 1536Q938 1536 925.0 1544.5Q912 1553 905.5 1566.5Q899 1580 897.5 1597.0Q896 1614 896 1631V1664H862Q845 1664 828.0 1666.0Q811 1668 797.5 1674.5Q784 1681 776.0 1694.0Q768 1707 768 1728ZM1626 1535Q1714 1532 1791.0 1494.5Q1868 1457 1925.0 1395.5Q1982 1334 2015.0 1254.5Q2048 1175 2048 1088Q2048 998 2013.0 917.0Q1978 836 1918.0 774.5Q1858 713 1778.0 676.5Q1698 640 1608 640Q1579 640 1557.5 656.5Q1536 673 1536 704Q1536 735 1557.0 751.5Q1578 768 1607 768Q1672 768 1729.0 794.0Q1786 820 1828.5 864.0Q1871 908 1895.5 966.0Q1920 1024 1920 1088Q1920 1149 1897.5 1205.0Q1875 1261 1835.5 1304.5Q1796 1348 1742.5 1375.5Q1689 1403 1627 1407Q1642 1393 1653.0 1380.0Q1664 1367 1664 1344Q1664 1318 1645.0 1299.0Q1626 1280 1600 1280Q1574 1280 1555 1299L1427 1427Q1408 1446 1408 1472Q1408 1498 1427 1517L1555 1645Q1574 1664 1600 1664Q1626 1664 1645.0 1645.0Q1664 1626 1664 1600Q1664 1578 1652.0 1563.5Q1640 1549 1626 1535ZM0 1216V1344Q0 1370 19.0 1389.0Q38 1408 64 1408Q90 1408 109.0 1389.0Q128 1370 128 1344V1216Q128 1190 109.0 1171.0Q90 1152 64 1152Q38 1152 19.0 1171.0Q0 1190 0 1216ZM1024 1216Q1024 1190 1005.0 1171.0Q986 1152 960 1152Q934 1152 915.0 1171.0Q896 1190 896 1216V1344Q896 1370 915.0 1389.0Q934 1408 960 1408Q986 1408 1005.0 1389.0Q1024 1370 1024 1344ZM1408 960V448Q1408 409 1393.0 374.0Q1378 339 1351.5 312.5Q1325 286 1290.0 271.0Q1255 256 1216 256H192Q153 256 118.0 271.0Q83 286 56.5 312.5Q30 339 15.0 374.0Q0 409 0 448V960Q0 999 15.0 1034.0Q30 1069 56.5 1095.5Q83 1122 118.0 1137.0Q153 1152 192 1152H1216Q1255 1152 1290.0 1137.0Q1325 1122 1351.5 1095.5Q1378 1069 1393.0 1034.0Q1408 999 1408 960ZM1280 960Q1280 986 1261.0 1005.0Q1242 1024 1216 1024H192Q166 1024 147.0 1005.0Q128 986 128 960V448Q128 422 147.0 403.0Q166 384 192 384H1216Q1242 384 1261.0 403.0Q1280 422 1280 448Z"/>
  </g>
</svg>