<?xml version="1.0" encoding="utf-8"?>
<svg xmlns="http://www.w3.org/2000/svg" width="16" height="16" viewBox="0 0 2048 2048">
  <g transform="translate(0, 2048) scale(1, -1)">
    <path fill="#000000" d="M882 256Q903 188 942 128H504Q429 128 360.5 158.5Q292 189 240.5 240.5Q189 292 158.5 360.5Q128 429 128 504V1544Q128 1619 158.5 1687.5Q189 1756 240.5 1807.5Q292 1859 360.5 1889.5Q429 1920 504 1920H1544Q1619 1920 1687.5 1889.5Q1756 1859 1807.5 1807.5Q1859 1756 1889.5 1687.5Q1920 1619 1920 1544V1375Q1894 1410 1861.5 1440.0Q1829 1470 1792 1494V1541Q1792 1591 1771.5 1636.5Q1751 1682 1716.5 1716.5Q1682 1751 1636.5 1771.5Q1591 1792 1541 1792H507Q456 1792 410.0 1771.0Q364 1750 330.0 1715.0Q296 1680 276.0 1633.5Q256 1587 256 1536H1363Q1254 1495 1178 1408H256V507Q256 455 277.0 409.5Q298 364 333.0 330.0Q368 296 414.5 276.0Q461 256 512 256ZM1856 1081Q1856 1016 1830.0 959.0Q1804 902 1760.0 859.5Q1716 817 1658.0 792.5Q1600 768 1536 768Q1469 768 1411.0 793.0Q1353 818 1309.5 861.5Q1266 905 1241.0 963.0Q1216 1021 1216 1088Q1216 1155 1241.0 1213.0Q1266 1271 1309.5 1314.5Q1353 1358 1411.0 1383.0Q1469 1408 1536 1408Q1605 1408 1663.5 1382.5Q1722 1357 1765.0 1312.5Q1808 1268 1832.0 1208.5Q1856 1149 1856 1081ZM2048 384Q2048 320 2025.5 266.5Q2003 213 1964.5 170.5Q1926 128 1875.0 96.0Q1824 64 1767.0 42.5Q1710 21 1650.5 10.5Q1591 0 1536 0Q1483 0 1424.5 10.5Q1366 21 1309.0 42.0Q1252 63 1200.5 94.5Q1149 126 1109.5 168.0Q1070 210 1047.0 262.0Q1024 314 1024 376V432Q1024 475 1040.0 513.0Q1056 551 1084.5 579.5Q1113 608 1150.5 624.0Q1188 640 1232 640H1840Q1883 640 1921.0 623.5Q1959 607 1987.0 579.0Q2015 551 2031.5 513.0Q2048 475 2048 432Z"/>
  </g>
</svg>