<?xml version="1.0" encoding="utf-8"?>
<svg xmlns="http://www.w3.org/2000/svg" width="16" height="16" viewBox="0 0 2048 2048">
  <g transform="translate(0, 2048) scale(1, -1)">
    <path fill="#ffffff" d="M368 113Q368 120 369 124L476 750L21 1193Q12 1202 7.0 1215.0Q2 1228 2 1241Q2 1264 18.5 1282.0Q35 1300 57 1303L685 1394L967 1964Q984 1999 1024 1999Q1064 1999 1081 1964L1363 1394L1991 1303Q2014 1300 2030.0 1281.5Q2046 1263 2046 1240Q2046 1228 2041.0 1215.0Q2036 1202 2027 1193L1572 750L1679 124Q1680 120 1680 113Q1680 86 1661.0 67.5Q1642 49 1616 49Q1600 49 1586 56L1024 352L462 56Q449 49 432 49Q406 49 387.0 68.0Q368 87 368 113ZM614 795 517 230 1024 497 1531 230 1434 795 1536 894V1239L1278 1277L1024 1791L770 1277L203 1195Z"/>
  </g>
</svg>