<?xml version="1.0" encoding="utf-8"?>
<svg xmlns="http://www.w3.org/2000/svg" width="16" height="16" viewBox="0 0 2048 2048">
  <g transform="translate(0, 2048) scale(1, -1)">
    <path fill="#ffffff" d="M1024 352 462 56Q449 49 432 49Q406 49 387.0 67.5Q368 86 368 112Q368 120 369 124L476 750L21 1193Q12 1202 7.0 1215.0Q2 1228 2 1240Q2 1263 18.0 1281.5Q34 1300 57 1303L685 1394L967 1964Q984 1999 1024 1999Q1064 1999 1081 1964L1363 1394L1991 1303Q2013 1300 2029.5 1282.0Q2046 1264 2046 1241Q2046 1228 2041.0 1215.0Q2036 1202 2027 1193L1572 750L1679 124Q1680 120 1680 113Q1680 87 1661.0 68.0Q1642 49 1616 49Q1599 49 1586 56ZM614 795 517 230 1024 497 1531 230 1434 795 1845 1195 1278 1277 1024 1791 770 1277 512 1239V894Z"/>
  </g>
</svg>