<?xml version="1.0" encoding="utf-8"?>
<svg xmlns="http://www.w3.org/2000/svg" width="16" height="16" viewBox="0 0 2048 2048">
  <g transform="translate(0, 2048) scale(1, -1)">
    <path fill="#000000" d="M1024 352 462 56Q449 49 432 49Q406 49 387.0 68.0Q368 87 368 113Q368 120 369 124L476 750L21 1193Q12 1202 7.0 1215.0Q2 1228 2 1241Q2 1264 18.5 1282.0Q35 1300 57 1303L685 1394L967 1964Q984 1999 1024 1999Q1064 1999 1081 1964L1363 1394L1991 1303Q2013 1300 2029.5 1282.0Q2046 1264 2046 1241Q2046 1228 2041.0 1215.0Q2036 1202 2027 1193L1572 750L1679 124Q1680 120 1680 113Q1680 87 1661.0 68.0Q1642 49 1616 49Q1599 49 1586 56ZM517 230 1024 497V1791Q960 1662 897.5 1533.5Q835 1405 770 1277L203 1195L614 795Q588 653 564.5 512.5Q541 372 517 230Z"/>
  </g>
</svg>