<?xml version="1.0" encoding="utf-8"?>
<svg xmlns="http://www.w3.org/2000/svg" width="16" height="16" viewBox="0 0 2048 2048">
  <g transform="translate(0, 2048) scale(1, -1)">
    <path fill="#ffffff" d="M366 113Q366 120 367 124L474 750L19 1193Q10 1202 5.0 1215.0Q0 1228 0 1241Q0 1264 16.5 1282.0Q33 1300 55 1303L683 1394L965 1964Q982 1999 1022 1999V1791Q958 1662 895.5 1533.5Q833 1405 768 1277L201 1195L612 795Q586 653 562.5 512.5Q539 372 515 230L1022 497V352L460 56Q447 49 430 49Q404 49 385.0 68.0Q366 87 366 113Z"/>
  </g>
</svg>