<?xml version="1.0" encoding="utf-8"?>
<svg xmlns="http://www.w3.org/2000/svg" width="16" height="16" viewBox="0 0 2048 2048">
  <g transform="translate(0, 2048) scale(1, -1)">
    <path fill="#ffffff" d="M674 1123Q688 1123 703.0 1118.5Q718 1114 718 1096Q718 1084 709.5 1078.5Q701 1073 690 1073H594Q594 1059 594 1044L595 988V944Q595 928 594.0 903.5Q593 879 589.5 856.0Q586 833 578.0 816.5Q570 800 557 800Q545 800 542.5 813.5Q540 827 540 835V1317Q537 1323 525.5 1328.0Q514 1333 502.0 1338.0Q490 1343 480.5 1348.5Q471 1354 471 1361Q471 1371 484.0 1373.5Q497 1376 504 1376Q511 1376 526.0 1373.0Q541 1370 557.0 1365.0Q573 1360 585.0 1353.0Q597 1346 597 1337Q597 1333 596 1330V1325Q595 1322 595 1318V1108H617Q628 1108 641.5 1115.5Q655 1123 674 1123ZM1255 1123Q1269 1123 1285.0 1119.0Q1301 1115 1301 1096Q1301 1084 1292.0 1078.5Q1283 1073 1272 1073H1173V1055Q1173 1049 1174.0 1025.5Q1175 1002 1175 970Q1175 942 1173.5 912.0Q1172 882 1167.5 857.0Q1163 832 1155.5 816.0Q1148 800 1135 800Q1123 800 1120.5 813.5Q1118 827 1118 835V1053Q1087 1041 1050.0 1028.0Q1013 1015 974.5 1004.5Q936 994 897.5 987.0Q859 980 826 980Q818 980 811.0 985.0Q804 990 799.5 997.5Q795 1005 792.5 1013.5Q790 1022 790 1029L789 1209Q789 1213 779.0 1217.0Q769 1221 757.0 1225.0Q745 1229 735.0 1234.0Q725 1239 725 1245Q725 1253 734.0 1257.5Q743 1262 750 1262Q757 1262 773.0 1261.5Q789 1261 805.0 1258.0Q821 1255 833.5 1249.5Q846 1244 846 1234Q846 1197 845 1161L842 1112Q841 1076 841 1039Q841 1032 844.5 1031.0Q848 1030 853 1030Q880 1030 915.0 1035.0Q950 1040 987.0 1047.5Q1024 1055 1058.5 1064.5Q1093 1074 1118 1083V1317Q1113 1323 1101.5 1328.0Q1090 1333 1078.0 1338.5Q1066 1344 1056.5 1349.5Q1047 1355 1047 1361Q1047 1371 1060.0 1373.5Q1073 1376 1080 1376Q1087 1376 1103.0 1373.5Q1119 1371 1135.0 1365.5Q1151 1360 1163.5 1353.0Q1176 1346 1176 1337Q1176 1333 1175 1330V1325Q1174 1322 1174 1318V1108H1197Q1208 1108 1221.5 1115.5Q1235 1123 1255 1123ZM1875 1123Q1889 1123 1904.5 1118.5Q1920 1114 1920 1096Q1920 1084 1911.5 1078.5Q1903 1073 1892 1073H1793Q1793 1068 1794.0 1043.0Q1795 1018 1795 984Q1795 954 1793.5 921.5Q1792 889 1787.5 862.0Q1783 835 1775.5 817.5Q1768 800 1755 800Q1742 800 1739.5 813.0Q1737 826 1737 835V1053Q1711 1041 1672.5 1025.5Q1634 1010 1592.5 997.0Q1551 984 1511.5 975.0Q1472 966 1444 966Q1435 966 1428.0 972.0Q1421 978 1416.0 986.5Q1411 995 1408.5 1004.5Q1406 1014 1406 1022L1404 1214Q1404 1217 1397.5 1220.5Q1391 1224 1383.0 1227.0Q1375 1230 1367.5 1233.0Q1360 1236 1357 1238Q1352 1238 1348.0 1241.0Q1344 1244 1344 1249Q1344 1257 1353.5 1262.0Q1363 1267 1370 1267Q1394 1267 1420.5 1261.0Q1447 1255 1462 1255Q1485 1255 1507.5 1255.5Q1530 1256 1553 1259Q1573 1261 1587.0 1269.0Q1601 1277 1624 1277Q1630 1277 1638.0 1276.5Q1646 1276 1653.5 1273.5Q1661 1271 1666.0 1266.5Q1671 1262 1671 1254Q1671 1243 1662.5 1238.0Q1654 1233 1644 1231Q1607 1226 1570.5 1225.0Q1534 1224 1497 1224H1460Q1460 1188 1459 1153L1458 1106Q1457 1071 1457 1035Q1457 1029 1459.0 1022.5Q1461 1016 1469 1016Q1492 1016 1529.0 1023.0Q1566 1030 1605.0 1040.0Q1644 1050 1680.0 1062.0Q1716 1074 1737 1084V1317Q1732 1323 1720.5 1328.0Q1709 1333 1697.0 1338.0Q1685 1343 1675.5 1348.5Q1666 1354 1666 1361Q1666 1366 1670.0 1369.0Q1674 1372 1679.5 1373.5Q1685 1375 1691.0 1375.5Q1697 1376 1700 1376Q1707 1376 1723.0 1373.5Q1739 1371 1755.0 1365.5Q1771 1360 1783.0 1353.0Q1795 1346 1795 1337Q1795 1333 1794 1330V1325Q1793 1322 1793 1318V1108H1816Q1828 1108 1841.5 1115.5Q1855 1123 1875 1123ZM410 1253Q414 1253 422.0 1252.5Q430 1252 438.0 1250.0Q446 1248 451.5 1244.5Q457 1241 457 1234Q457 1226 451.0 1221.0Q445 1216 442 1210Q434 1196 427 1181L418 1162Q411 1147 403 1133Q358 1057 297.5 998.5Q237 940 163 893Q154 887 147.5 884.5Q141 882 130 882Q130 883 130 884L128 890Q128 891 128 892Q128 897 135.0 904.5Q142 912 146 915Q181 947 216.0 980.0Q251 1013 282.0 1049.5Q313 1086 337.5 1126.0Q362 1166 377 1213Q358 1212 339 1212H312Q286 1212 262 1205Q254 1203 246.0 1199.0Q238 1195 229 1195Q223 1195 210.0 1199.0Q197 1203 184.5 1209.0Q172 1215 162.0 1222.5Q152 1230 152 1237Q152 1242 156.5 1245.0Q161 1248 166 1248Q183 1248 200 1246L222 1243Q239 1241 256 1241Q285 1241 315.5 1242.0Q346 1243 375 1246Q384 1247 392.5 1250.0Q401 1253 410 1253Z"/>
  </g>
</svg>