<?xml version="1.0" encoding="utf-8"?>
<svg xmlns="http://www.w3.org/2000/svg" width="16" height="16" viewBox="0 0 2048 2048">
  <g transform="translate(0, 2048) scale(1, -1)">
    <path fill="#ffffff" d="M1313 1326Q1354 1326 1374.0 1300.0Q1394 1274 1394 1236Q1394 1175 1367.5 1114.5Q1341 1054 1300.0 999.0Q1259 944 1209.5 896.5Q1160 849 1115 815Q1100 804 1079.0 790.5Q1058 777 1038 777Q1025 777 1017.0 786.5Q1009 796 1009 808Q1009 823 1020 834Q1028 843 1035.0 847.0Q1042 851 1053 856Q1095 876 1130.5 899.5Q1166 923 1199 956Q1224 980 1249.0 1011.5Q1274 1043 1294.0 1078.0Q1314 1113 1326.5 1150.0Q1339 1187 1339 1223Q1339 1245 1329.5 1256.0Q1320 1267 1297 1267Q1268 1267 1240.5 1254.0Q1213 1241 1188.0 1220.0Q1163 1199 1140.5 1171.5Q1118 1144 1099.0 1115.0Q1080 1086 1064.5 1058.0Q1049 1030 1038 1007Q1021 972 1011.0 936.5Q1001 901 991 863Q987 848 979.0 835.0Q971 822 952 822Q947 822 942.0 826.5Q937 831 933.0 838.0Q929 845 927.0 851.5Q925 858 925 863Q925 962 922.5 1060.0Q920 1158 916 1257Q914 1332 911.0 1406.0Q908 1480 903 1555Q902 1569 899.0 1582.0Q896 1595 896 1609Q896 1621 901.5 1628.5Q907 1636 920 1636Q933 1636 941.5 1627.0Q950 1618 955.0 1605.0Q960 1592 962.0 1578.5Q964 1565 964 1555Q964 1534 964.0 1487.0Q964 1440 964.5 1380.5Q965 1321 966.0 1256.5Q967 1192 969.0 1136.0Q971 1080 974.0 1039.5Q977 999 982 989Q991 1018 1009.5 1054.5Q1028 1091 1053.5 1128.5Q1079 1166 1110.0 1201.5Q1141 1237 1175.0 1264.5Q1209 1292 1244.0 1309.0Q1279 1326 1313 1326ZM1835 1053Q1840 1053 1844.5 1050.5Q1849 1048 1849 1042Q1849 1033 1838.0 1015.0Q1827 997 1810.0 974.5Q1793 952 1772.0 928.0Q1751 904 1731.0 882.5Q1711 861 1694.5 845.0Q1678 829 1669 822Q1646 805 1622.0 794.0Q1598 783 1569 783Q1545 783 1526.0 794.5Q1507 806 1494.5 824.0Q1482 842 1475.5 864.5Q1469 887 1469 909Q1469 938 1478.5 984.0Q1488 1030 1504.5 1082.0Q1521 1134 1545.0 1186.5Q1569 1239 1597.5 1281.5Q1626 1324 1659.0 1350.5Q1692 1377 1728 1377Q1741 1377 1754.5 1369.5Q1768 1362 1778.0 1351.0Q1788 1340 1794.5 1326.0Q1801 1312 1801 1299Q1801 1295 1800.0 1283.5Q1799 1272 1796.5 1259.5Q1794 1247 1791.0 1237.0Q1788 1227 1785 1227Q1773 1227 1769.0 1242.0Q1765 1257 1763.5 1274.5Q1762 1292 1759.5 1307.0Q1757 1322 1748 1322Q1718 1322 1689.5 1299.0Q1661 1276 1636.5 1239.0Q1612 1202 1591.5 1156.0Q1571 1110 1556.5 1065.0Q1542 1020 1534.0 980.5Q1526 941 1526 916Q1526 903 1528.0 889.5Q1530 876 1535.5 865.0Q1541 854 1551.0 847.0Q1561 840 1577 840Q1607 840 1637.0 856.0Q1667 872 1694.0 895.5Q1721 919 1745.0 946.5Q1769 974 1787.5 997.5Q1806 1021 1818.5 1037.0Q1831 1053 1835 1053ZM765 830Q765 824 762.0 816.0Q759 808 754.0 800.0Q749 792 742.5 786.5Q736 781 730 781Q717 781 709.5 790.0Q702 799 697.5 812.0Q693 825 691.5 839.0Q690 853 690 862Q690 902 691 941L693 993Q694 1032 694 1072Q694 1083 691.5 1093.0Q689 1103 680 1110Q653 1064 616.5 1006.5Q580 949 535.0 898.0Q490 847 436.5 812.5Q383 778 323 778Q285 778 265.0 802.0Q245 826 245 862Q245 892 265.0 940.0Q285 988 318.0 1042.0Q351 1096 393.0 1150.5Q435 1205 478.5 1248.5Q522 1292 563.0 1319.5Q604 1347 636 1347Q653 1347 668.5 1339.0Q684 1331 696.0 1317.5Q708 1304 715.0 1287.5Q722 1271 722 1255Q722 1218 702 1187Q704 1188 712.5 1190.5Q721 1193 722 1193Q728 1193 732.0 1182.5Q736 1172 737.5 1157.5Q739 1143 739.5 1128.0Q740 1113 740 1104V1070Q740 1050 740.5 1026.0Q741 1002 741.5 975.5Q742 949 743.0 926.0Q744 903 745.0 885.5Q746 868 748 862Q750 854 757.5 845.0Q765 836 765 830ZM678 1231Q678 1254 664.0 1272.5Q650 1291 625 1291Q600 1291 567.0 1267.0Q534 1243 498.5 1204.5Q463 1166 429.0 1119.0Q395 1072 367.5 1026.0Q340 980 323.5 940.0Q307 900 307 876Q307 860 314.5 850.5Q322 841 339 841Q372 841 405.5 857.0Q439 873 471.0 898.5Q503 924 532.5 957.5Q562 991 587.5 1026.0Q613 1061 632.5 1095.0Q652 1129 664 1156Q672 1174 675.0 1192.5Q678 1211 678 1231Z"/>
  </g>
</svg>