<?xml version="1.0" encoding="utf-8"?>
<svg xmlns="http://www.w3.org/2000/svg" width="16" height="16" viewBox="0 0 2048 2048">
  <g transform="translate(0, 2048) scale(1, -1)">
    <path fill="#ffffff" d="M568 0Q478 0 398.0 36.5Q318 73 258.0 134.5Q198 196 163.0 277.0Q128 358 128 448V1419Q99 1429 75.5 1447.0Q52 1465 35.0 1489.0Q18 1513 9.0 1541.0Q0 1569 0 1600V1856Q0 1895 15.0 1930.0Q30 1965 56.5 1991.5Q83 2018 118.0 2033.0Q153 2048 192 2048H1856Q1895 2048 1930.0 2033.0Q1965 2018 1991.5 1991.5Q2018 1965 2033.0 1930.0Q2048 1895 2048 1856V1600Q2048 1569 2039.0 1541.0Q2030 1513 2013.0 1489.0Q1996 1465 1972.5 1447.0Q1949 1429 1920 1419V440Q1920 352 1884.0 272.5Q1848 193 1787.5 132.5Q1727 72 1647.5 36.0Q1568 0 1480 0ZM1856 1536Q1882 1536 1901.0 1555.0Q1920 1574 1920 1600V1856Q1920 1882 1901.0 1901.0Q1882 1920 1856 1920H192Q166 1920 147.0 1901.0Q128 1882 128 1856V1600Q128 1574 147.0 1555.0Q166 1536 192 1536ZM1479 128Q1542 128 1599.0 153.5Q1656 179 1698.5 221.5Q1741 264 1766.5 321.0Q1792 378 1792 441V1408H256V441Q256 378 281.5 321.0Q307 264 349.5 221.5Q392 179 449.0 153.5Q506 128 569 128ZM832 1024Q806 1024 787.0 1043.0Q768 1062 768 1088Q768 1114 787.0 1133.0Q806 1152 832 1152H1216Q1242 1152 1261.0 1133.0Q1280 1114 1280 1088Q1280 1062 1261.0 1043.0Q1242 1024 1216 1024Z"/>
  </g>
</svg>