<?xml version="1.0" encoding="utf-8"?>
<svg xmlns="http://www.w3.org/2000/svg" width="16" height="16" viewBox="0 0 2048 2048">
  <g transform="translate(0, 2048) scale(1, -1)">
    <path fill="#ffffff" d="M1792 1792V256Q1792 203 1772.0 156.5Q1752 110 1717.0 75.0Q1682 40 1635.5 20.0Q1589 0 1536 0H512Q459 0 412.5 20.0Q366 40 331.0 75.0Q296 110 276.0 156.5Q256 203 256 256V1264Q256 1370 331 1445L859 1973Q934 2048 1040 2048H1536Q1589 2048 1635.5 2028.0Q1682 2008 1717.0 1973.0Q1752 1938 1772.0 1891.5Q1792 1845 1792 1792ZM1664 1792Q1664 1818 1654.0 1841.5Q1644 1865 1626.5 1882.5Q1609 1900 1585.5 1910.0Q1562 1920 1536 1920H1032Q1028 1920 1024 1919V1536Q1024 1483 1004.0 1436.5Q984 1390 949.0 1355.0Q914 1320 867.5 1300.0Q821 1280 768 1280H385Q384 1276 384 1272V256Q384 229 394.0 205.5Q404 182 421.0 165.0Q438 148 461.5 138.0Q485 128 512 128H1536Q1563 128 1586.0 138.0Q1609 148 1626.5 165.5Q1644 183 1654.0 206.0Q1664 229 1664 256ZM896 1830 474 1408H768Q795 1408 818.0 1418.0Q841 1428 858.5 1445.5Q876 1463 886.0 1486.0Q896 1509 896 1536Z"/>
  </g>
</svg>