<?xml version="1.0" encoding="utf-8"?>
<svg xmlns="http://www.w3.org/2000/svg" width="16" height="16" viewBox="0 0 2048 2048">
  <g transform="translate(0, 2048) scale(1, -1)">
    <path fill="#000000" d="M1672 1792Q1747 1792 1815.5 1761.5Q1884 1731 1935.5 1679.5Q1987 1628 2017.5 1559.5Q2048 1491 2048 1416V632Q2048 557 2017.5 488.5Q1987 420 1935.5 368.5Q1884 317 1815.5 286.5Q1747 256 1672 256H320Q256 256 198.0 280.5Q140 305 96.0 347.5Q52 390 26.0 447.0Q0 504 0 569V1479Q0 1542 25.5 1599.0Q51 1656 93.5 1698.5Q136 1741 193.0 1766.5Q250 1792 313 1792ZM1664 1536V1664H384V1536ZM256 1653Q215 1639 184.5 1608.0Q154 1577 139 1536H256ZM1886 1536Q1851 1595 1792 1630V1536ZM256 1408H128V640H256ZM1664 1408H384V640H1664ZM1920 1408H1792V640H1920ZM139 512Q154 471 184.5 440.0Q215 409 256 395V512ZM384 512V384H1664V512ZM1792 418Q1851 453 1886 512H1792Z"/>
  </g>
</svg>