<?xml version="1.0" encoding="utf-8"?>
<svg xmlns="http://www.w3.org/2000/svg" width="16" height="16" viewBox="0 0 2048 2048">
  <g transform="translate(0, 2048) scale(1, -1)">
    <path fill="#000000" d="M1792 1264V256Q1792 203 1772.0 156.5Q1752 110 1717.0 75.0Q1682 40 1635.5 20.0Q1589 0 1536 0H512Q459 0 412.5 20.0Q366 40 331.0 75.0Q296 110 276.0 156.5Q256 203 256 256V1792Q256 1845 276.0 1891.5Q296 1938 331.0 1973.0Q366 2008 412.5 2028.0Q459 2048 512 2048H1008Q1059 2048 1106.0 2028.5Q1153 2009 1189 1973L1717 1445Q1753 1409 1772.5 1362.0Q1792 1315 1792 1264ZM1024 1919Q1020 1920 1016 1920H512Q485 1920 462.0 1910.0Q439 1900 421.5 1882.5Q404 1865 394.0 1842.0Q384 1819 384 1792V256Q384 229 394.0 205.5Q404 182 421.0 165.0Q438 148 461.5 138.0Q485 128 512 128H1536Q1563 128 1586.0 138.0Q1609 148 1626.5 165.5Q1644 183 1654.0 206.0Q1664 229 1664 256V1272Q1664 1276 1663 1280H1280Q1227 1280 1180.5 1300.0Q1134 1320 1099.0 1355.0Q1064 1390 1044.0 1436.5Q1024 1483 1024 1536ZM1574 1408 1152 1830V1536Q1152 1509 1162.0 1485.5Q1172 1462 1189.0 1445.0Q1206 1428 1229.5 1418.0Q1253 1408 1280 1408Z"/>
  </g>
</svg>