<?xml version="1.0" encoding="utf-8"?>
<svg id="" width="16" height="16" style="width:16px;height:16px;" version="1.1" xmlns="http://www.w3.org/2000/svg" viewBox="0 0 2048 2048" enable-background="new 0 0 2048 2048" xml:space="preserve">
    <path fill="#000" d="M0 1024 q0 -140.8 36.8 -271.46 q36.8 -130.67 103.46 -244.8 q66.67 -114.13 160 -207.47 q93.34 -93.33 207.47 -160 q114.13 -66.66 244.8 -103.46 q130.66 -36.8 271.46 -36.8 q140.8 0 271.47 36.8 q130.66 36.8 244.26 103.46 q113.6 66.67 207.47 160.54 q93.87 93.87 160.54 207.47 q66.66 113.6 103.46 244.27 q36.8 130.66 36.8 271.46 q0 140.8 -36.8 271.47 q-36.8 130.66 -103.46 244.8 q-66.67 114.13 -160 207.47 q-93.34 93.33 -207.47 160 q-114.13 66.66 -244.8 103.46 q-130.67 36.8 -271.47 36.8 q-141.87 0 -272.54 -36.8 q-130.66 -36.8 -244.26 -103.46 q-113.6 -66.67 -206.94 -160 q-93.33 -93.34 -160 -206.93 q-66.66 -113.6 -103.46 -244.8 q-36.8 -131.2 -36.8 -272 ZM1911.47 1024 q0 -122.67 -32 -235.73 q-32 -113.07 -89.6 -211.73 q-57.6 -98.67 -138.67 -179.74 q-81.07 -81.07 -179.73 -138.67 q-98.67 -57.6 -211.73 -89.6 q-113.07 -32 -235.74 -32 q-122.67 0 -235.73 32 q-113.07 32 -211.73 89.6 q-98.67 57.6 -179.74 138.67 q-81.07 81.07 -138.67 179.74 q-57.6 98.66 -89.6 211.73 q-32 113.06 -32 235.73 q0 122.67 32 235.74 q32 113.06 89.6 211.73 q57.6 98.66 138.67 179.73 q81.07 81.07 179.74 138.67 q98.66 57.6 211.73 89.6 q113.06 32 235.73 32 q122.67 0 235.74 -32 q113.06 -32 211.73 -89.6 q98.66 -57.6 179.73 -138.67 q81.07 -81.07 138.67 -179.73 q57.6 -98.67 89.6 -211.73 q32 -113.07 32 -235.74 ZM819.2 1433.6 q0 -27.73 20.27 -48 l361.6 -361.6 l-361.6 -361.6 q-20.27 -20.27 -20.27 -48 q0 -27.73 20.26 -48 q20.26 -20.27 48 -20.27 q27.73 0 48 20.27 l409.6 409.6 q20.26 20.27 20.26 48 q0 27.73 -20.26 48 l-409.6 409.6 q-20.27 20.27 -48 20.27 q-27.74 0 -48 -20.27 q-20.26 -20.27 -20.26 -48 Z"/>
</svg>