<?xml version="1.0" encoding="utf-8"?>
<svg xmlns="http://www.w3.org/2000/svg" width="16" height="16" viewBox="0 0 2048 2048">
  <g transform="translate(0, 2048) scale(1, -1)">
    <path fill="#ffffff" d="M507 0Q457 0 411.5 20.5Q366 41 331.5 75.5Q297 110 276.5 155.5Q256 201 256 251V1797Q256 1847 276.5 1892.5Q297 1938 331.5 1972.5Q366 2007 411.5 2027.5Q457 2048 507 2048H1024V1531Q1024 1479 1045.0 1433.5Q1066 1388 1101.0 1354.0Q1136 1320 1182.5 1300.0Q1229 1280 1280 1280H1792V251Q1792 201 1771.5 155.5Q1751 110 1716.5 75.5Q1682 41 1636.5 20.5Q1591 0 1541 0ZM1280 1408Q1253 1408 1229.5 1418.0Q1206 1428 1189.0 1445.0Q1172 1462 1162.0 1485.5Q1152 1509 1152 1536V2011L1755 1408Z"/>
  </g>
</svg>