<?xml version="1.0" encoding="utf-8"?>
<svg xmlns="http://www.w3.org/2000/svg" width="16" height="16" viewBox="0 0 2048 2048">
  <g transform="translate(0, 2048) scale(1, -1)">
    <path fill="#ffffff" d="M1479 2048Q1542 2048 1599.0 2022.5Q1656 1997 1698.5 1954.5Q1741 1912 1766.5 1855.0Q1792 1798 1792 1735V313Q1792 250 1766.5 193.0Q1741 136 1698.5 93.5Q1656 51 1599.0 25.5Q1542 0 1479 0H569Q506 0 449.0 25.5Q392 51 349.5 93.5Q307 136 281.5 193.0Q256 250 256 313V1735Q256 1798 281.5 1855.0Q307 1912 349.5 1954.5Q392 1997 449.0 2022.5Q506 2048 569 2048ZM640 1920V1792H1408V1920ZM1653 1792Q1639 1834 1608.5 1864.5Q1578 1895 1536 1909V1792ZM512 1909Q470 1895 439.5 1864.5Q409 1834 395 1792H512ZM512 1664H384V384H512ZM640 1664V384H1408V1664ZM1536 384H1664V1664H1536ZM395 256Q409 215 440.0 184.5Q471 154 512 139V256ZM640 128H1408V256H640ZM1536 139Q1578 153 1608.5 183.5Q1639 214 1653 256H1536Z"/>
  </g>
</svg>