<?xml version="1.0" encoding="utf-8"?>
<svg xmlns="http://www.w3.org/2000/svg" width="16" height="16" viewBox="0 0 2048 2048">
  <g transform="translate(0, 2048) scale(1, -1)">
    <path fill="#000000" d="M0 1024Q0 1165 36.5 1296.0Q73 1427 140.0 1540.5Q207 1654 300.5 1747.5Q394 1841 507.5 1908.0Q621 1975 752.0 2011.5Q883 2048 1024 2048Q1165 2048 1296.0 2011.5Q1427 1975 1540.5 1908.0Q1654 1841 1747.5 1747.5Q1841 1654 1908.0 1540.5Q1975 1427 2011.5 1296.0Q2048 1165 2048 1024Q2048 883 2011.5 752.0Q1975 621 1908.0 507.5Q1841 394 1747.5 300.5Q1654 207 1540.5 140.0Q1427 73 1296.0 36.5Q1165 0 1024 0Q883 0 752.0 36.5Q621 73 507.5 140.0Q394 207 300.5 300.5Q207 394 140.0 507.5Q73 621 36.5 752.0Q0 883 0 1024ZM1843 1024Q1843 1137 1814.0 1242.0Q1785 1347 1731.5 1438.0Q1678 1529 1603.5 1603.5Q1529 1678 1438.0 1731.5Q1347 1785 1242.0 1814.0Q1137 1843 1024 1843Q911 1843 806.0 1814.0Q701 1785 610.0 1731.5Q519 1678 444.5 1603.5Q370 1529 316.5 1438.0Q263 1347 234.0 1242.0Q205 1137 205 1024Q205 911 234.0 806.0Q263 701 316.5 610.0Q370 519 444.5 444.5Q519 370 610.0 316.5Q701 263 806.0 234.0Q911 205 1024 205Q1137 205 1242.0 234.0Q1347 263 1438.0 316.5Q1529 370 1603.5 444.5Q1678 519 1731.5 610.0Q1785 701 1814.0 806.0Q1843 911 1843 1024Z"/>
  </g>
</svg>