<?xml version="1.0" encoding="utf-8"?>
<svg xmlns="http://www.w3.org/2000/svg" height="16" width="16" viewBox="0 0 16 16">
  <g>
    <path id="path1" transform="rotate(0,8,8) translate(0.0272506082725048,0) scale(0.0311435523114355,0.0311435523114355)  " fill="#FFFFFF" d="M336,360L340.8125,360.4375 345.25,361.75 349.3125,363.9375 353,367 356.0625,370.6875 358.25,374.75 359.5625,379.1875 360,384 359.5625,388.8125 358.25,393.25 356.0625,397.3125 353,401 349.3125,404.0625 345.25,406.25 340.8125,407.5625 336,408 331.1875,407.5625 326.75,406.25 322.6875,404.0625 319,401 315.9375,397.3125 313.75,393.25 312.4375,388.8125 312,384 312.4375,379.1875 313.75,374.75 315.9375,370.6875 319,367 322.6875,363.9375 326.75,361.75 331.1875,360.4375 336,360z M400,296L404.8125,296.4375 409.25,297.75 413.3125,299.9375 417,303 420.0625,306.6875 422.25,310.75 423.5625,315.1875 424,320 423.5625,324.8125 422.25,329.25 420.0625,333.3125 417,337 413.3125,340.0625 409.25,342.25 404.8125,343.5625 400,344 395.1875,343.5625 390.749969482422,342.25 386.687469482422,340.0625 383,337 379.9375,333.3125 377.75,329.25 376.4375,324.8125 376,320 376.4375,315.1875 377.75,310.75 379.9375,306.6875 383,303 386.687469482422,299.9375 390.749969482422,297.75 395.1875,296.4375 400,296z M400,200L404.8125,200.4375 409.25,201.75 413.3125,203.9375 417,207 420.0625,210.687515258789 422.25,214.750015258789 423.5625,219.1875 424,224 423.5625,228.812515258789 422.25,233.250015258789 420.0625,237.3125 417,241 413.3125,244.062515258789 409.25,246.25 404.8125,247.5625 400,248 395.1875,247.5625 390.749969482422,246.25 386.687469482422,244.062515258789 383,241 379.9375,237.3125 377.75,233.250015258789 376.4375,228.812515258789 376,224 376.4375,219.1875 377.75,214.750015258789 379.9375,210.687515258789 383,207 386.687469482422,203.9375 390.749969482422,201.75 395.1875,200.4375 400,200z M344,128L348.8125,128.4375 353.25,129.75 357.3125,131.9375 361,135 364.0625,138.687515258789 366.25,142.750015258789 367.5625,147.1875 368,152 367.5625,156.812515258789 366.25,161.250015258789 364.0625,165.3125 361,169 357.3125,172.062515258789 353.25,174.25 348.8125,175.5625 344,176 339.1875,175.5625 334.75,174.25 330.6875,172.062515258789 327,169 323.9375,165.3125 321.75,161.250015258789 320.4375,156.812515258789 320,152 320.4375,147.1875 321.75,142.750015258789 323.9375,138.687515258789 327,135 330.6875,131.9375 334.75,129.75 339.1875,128.4375 344,128z M248,96L252.8125,96.4375 257.25,97.75 261.3125,99.9375076293945 265,103 268.0625,106.687515258789 270.25,110.750022888184 271.5625,115.187522888184 272,120 271.5625,124.812507629395 270.25,129.250015258789 268.0625,133.3125 265,137 261.3125,140.062515258789 257.25,142.25 252.8125,143.5625 248,144 243.1875,143.5625 238.75,142.25 234.6875,140.062515258789 231,137 227.9375,133.3125 225.75,129.250015258789 224.4375,124.812507629395 224,120 224.4375,115.187522888184 225.75,110.750022888184 227.9375,106.687515258789 231,103 234.6875,99.9375076293945 238.75,97.75 243.1875,96.4375 248,96z M246,31.7499980926514L229.023422241211,32.4375038146973 212.593734741211,34.5000076293945 196.710922241211,37.9375114440918 181.375,42.7500038146973 166.6328125,48.7734603881836 152.53125,55.8437805175781 139.0703125,63.9609603881836 126.25,73.125 114.078125,83.2343826293945 102.562492370605,94.1875152587891 91.7031173706055,105.984382629395 81.5,118.625 72.015625,131.945327758789 63.3125,145.781265258789 55.390625,160.1328125 48.25,175 41.84375,190.500015258789 36.625,206.5 34.6015625,214.671875 33.15625,222.937515258789 32.2890625,231.296890258789 32.0000038146973,239.75 32.25,246.101577758789 33,252.156265258789 34.25,257.9140625 36,263.375 38.359375,268.5703125 41.4375,273.53125 45.234375,278.2578125 49.7500038146973,282.75 52.8437461853027,285.375 56.6249961853027,288.25 65.25,293.875 74.25,298.375 78.5625,299.78125 82.5,300.25 86.0625,299.9609375 89.75,299.09375 93.5625,297.6484375 97.5,295.625 105.90625,290.8125 115.125,285.625 125.21875,280.4375 136.25,275.625 142.171875,273.6015625 148.4375,272.15625 155.046875,271.2890625 162,271 169.75,271.34375 177.5,272.375 185.125,273.96875 192.5,276 200.15625,278.90625 206.875,282.375 212.65625,286.40625 217.5,291 221.5859375,296.0546875 225.09375,301.46875 228.0234375,307.2421875 230.375,313.375 232.2421875,319.828125 233.71875,326.5625 234.8046875,333.578125 235.5,340.875 237.375,371.25 238.625,386.75 240.625,402.25 242.085922241211,409.8984375 244.093734741211,417.34375 246.648422241211,424.5859375 249.75,431.625 253.5,438.4140625 258,444.90625 263.25,451.1015625 269.25,457 276.171875,462.5 284.1875,467.5 293.296875,472 303.5,476 311.546875,478.515625 319.6875,480.3125 327.921875,481.390625 336.25,481.75 345.515625,481.3046875 354.5625,479.96875 363.390625,477.7421875 372,474.625 380.34375,470.7734375 388.375,466.34375 396.09375,461.3359375 403.5,455.75 413.046875,447.390625 421.9375,438.3125 430.171875,428.515625 437.75,418 444.687469482422,406.9453125 450.999969482422,395.53125 456.687469482422,383.7578125 461.75,371.625 466.1875,359.21875 470,346.625 473.1875,333.84375 475.75,320.875 477.71875,307.8984375 479.125,295.09375 479.96875,282.4609375 480.25,270 479.7109375,252.859375 478.09375,236.187515258789 475.3984375,219.984390258789 471.625,204.25 466.8203125,189.0234375 461.03125,174.34375 454.2578125,160.2109375 446.5,146.625 437.796875,133.6171875 428.1875,121.21875 417.671875,109.4296875 406.25,98.25 393.96875,87.703125 380.875,77.8125 366.96875,68.578125 352.25,60 339.953125,53.7343826293945 327.3125,48.1875076293945 314.328125,43.3593788146973 301,39.2500038146973 287.4375,35.96875 273.75,33.625 259.9375,32.21875 246,31.7499980926514z M246,0.25L261.8125,0.765625 277.5,2.31249976158142 293.0625,4.89062404632568 308.5,8.49999809265137 323.703125,13.0468740463257 338.5625,18.4375 353.078125,24.671875 367.25,31.7499980926514 383.9140625,41.515625 399.65625,52.0625038146973 414.4765625,63.3906288146973 428.375,75.5 441.296844482422,88.3437652587891 453.187469482422,101.875015258789 464.046875,116.093765258789 473.875,131 482.6328125,146.5546875 490.28125,162.718765258789 496.8203125,179.492202758789 502.25,196.875 506.515625,214.8046875 509.5625,233.21875 511.390625,252.1171875 512,271.5 511.7734375,283.4765625 511.09375,295.40625 509.9609375,307.2890625 508.375,319.125 506.3515625,330.8984375 503.906219482422,342.59375 501.039031982422,354.2109375 497.75,365.75 491.53125,383.53125 483.875,401.375 474.781219482422,418.875 464.25,435.625 452.374969482422,451.5 439.25,466.375 432.2265625,473.3203125 424.90625,479.78125 417.2890625,485.7578125 409.375,491.25 401.171875,496.21875 392.6875,500.625 383.921875,504.46875 374.875,507.75 365.5703125,510.375 356.03125,512.25 346.2578125,513.375 336.25,513.75 325.09375,513.25 314.125,511.75 303.34375,509.3125 292.75,506 282.140625,501.890625 272.3125,497.3125 263.265625,492.265625 255,486.75 247.460922241211,480.765625 240.593734741211,474.3125 234.3984375,467.390625 228.875,460 224,452.140625 219.75,443.8125 216.125,435.015625 213.125,425.75 210.6796875,416.015625 208.718734741211,405.8125 207.242172241211,395.140625 206.25,384 204.875,356.5 203.78125,342.8125 201.25,329.25 199,321.25 197.375,317.375 195,314.25 191.9375,311.4375 188.25,309 184.125,307 179.75,305.5 170.625,303.625 162,303 156.5,303.28125 151.25,304.125 146.25,305.53125 141.5,307.5 132.34375,312.25 123.375,317.5 114.34375,322.75 105,327.5 100.125,329.46875 95,330.875 89.625,331.71875 84,332 76.34375,331.53125 68.875,330.125 61.59375,327.78125 54.5,324.5 41.1875,316.4375 29.2500019073486,307.25 22.140625,300.3828125 16.0625,293.03125 11.0156259536743,285.1953125 7.00000238418579,276.875 3.9375011920929,268.1328125 1.75000047683716,259.03125 0.437500566244125,249.5703125 1.21444463729858E-06,239.75 0.343750506639481,229.757827758789 1.37500011920929,219.78125 3.09375,209.8203125 5.5,199.875 11.6249990463257,180.46875 18.9999980926514,162 28.4374980926514,142.8125 39.25,124.25 51.25,106.4375 64.25,89.5 76.875,74.9062576293945 90.25,61.1249961853027 104.6875,48.4687767028809 120.5,37.2500038146973 134.8515625,28.781270980835 149.65625,21.3750267028809 164.9140625,15.0312728881836 180.625,9.75000286102295 196.6640625,5.59376001358032 212.90625,2.62500810623169 229.3515625,0.843752920627594 246,0.25z" />
  </g>
</svg>

