<?xml version="1.0" encoding="utf-8"?>
<svg xmlns="http://www.w3.org/2000/svg" width="16" height="16" viewBox="0 0 2048 2048">
  <g transform="translate(0, 2048) scale(1, -1)">
    <path fill="#000000" d="M1024 1894 749 1619Q730 1600 704 1600Q678 1600 659.0 1619.0Q640 1638 640 1664Q640 1690 659 1709L979 2029Q998 2048 1024 2048Q1050 2048 1069 2029L1389 1709Q1408 1690 1408 1664Q1408 1638 1389.0 1619.0Q1370 1600 1344 1600Q1318 1600 1299 1619ZM0 1024Q0 1050 19 1069L339 1389Q358 1408 384 1408Q410 1408 429.0 1389.0Q448 1370 448 1344Q448 1318 429 1299L155 1024L429 749Q448 730 448 704Q448 678 429.0 659.0Q410 640 384 640Q358 640 339 659L19 979Q0 998 0 1024ZM1600 704Q1600 730 1619 749L1894 1024L1619 1299Q1600 1318 1600 1344Q1600 1370 1619.0 1389.0Q1638 1408 1664 1408Q1690 1408 1709 1389L2029 1069Q2048 1050 2048 1024Q2048 998 2029 979L1709 659Q1690 640 1664 640Q1638 640 1619.0 659.0Q1600 678 1600 704ZM864 1024Q864 1057 877.0 1086.0Q890 1115 911.5 1136.5Q933 1158 962.0 1171.0Q991 1184 1024 1184Q1057 1184 1086.0 1171.0Q1115 1158 1136.5 1136.5Q1158 1115 1171.0 1086.0Q1184 1057 1184 1024Q1184 991 1171.0 962.0Q1158 933 1136.5 911.5Q1115 890 1086.0 877.0Q1057 864 1024 864Q991 864 962.0 877.0Q933 890 911.5 911.5Q890 933 877.0 962.0Q864 991 864 1024ZM640 384Q640 410 659.0 429.0Q678 448 704 448Q730 448 749 429L1024 155L1299 429Q1318 448 1344 448Q1370 448 1389.0 429.0Q1408 410 1408 384Q1408 358 1389 339L1069 19Q1050 0 1024 0Q998 0 979 19L659 339Q640 358 640 384Z"/>
  </g>
</svg>