<?xml version="1.0" encoding="utf-8"?>
<svg xmlns="http://www.w3.org/2000/svg" width="16" height="16" viewBox="0 0 2048 2048">
  <g transform="translate(0, 2048) scale(1, -1)">
    <path fill="#000000" d="M290 384H128Q76 384 38 422Q0 460 0 512V768Q0 826 17.0 880.5Q34 935 65.0 981.5Q96 1028 139.5 1064.5Q183 1101 237 1123Q285 1143 328.0 1147.5Q371 1152 422 1152L749 1480Q776 1507 811.5 1521.5Q847 1536 885 1536H1792Q1818 1536 1837.0 1517.0Q1856 1498 1856 1472Q1856 1450 1847.5 1437.5Q1839 1425 1826.0 1418.5Q1813 1412 1796.0 1410.0Q1779 1408 1763 1408L2019 845Q2039 800 2043.5 763.0Q2048 726 2048 683V640Q2048 602 2037.5 566.5Q2027 531 2007.0 501.0Q1987 471 1959.0 447.0Q1931 423 1897 407Q1865 338 1802.5 297.0Q1740 256 1664 256Q1595 256 1536.0 290.5Q1477 325 1442 384H734Q699 325 640.0 290.5Q581 256 512 256Q443 256 384.0 290.5Q325 325 290 384ZM603 1152H1152V1408H885Q859 1408 840 1389ZM1280 1152H1739L1640 1371Q1632 1388 1616.5 1398.0Q1601 1408 1582 1408H1280ZM640 512Q640 538 630.0 561.5Q620 585 602.5 602.5Q585 620 561.5 630.0Q538 640 512 640Q485 640 462.0 630.0Q439 620 421.5 602.5Q404 585 394.0 562.0Q384 539 384 512Q384 485 394.0 461.5Q404 438 421.0 421.0Q438 404 461.5 394.0Q485 384 512 384Q539 384 562.0 394.0Q585 404 602.5 421.5Q620 439 630.0 462.0Q640 485 640 512ZM1792 512Q1792 538 1782.0 561.5Q1772 585 1754.5 602.5Q1737 620 1713.5 630.0Q1690 640 1664 640Q1637 640 1614.0 630.0Q1591 620 1573.5 602.5Q1556 585 1546.0 562.0Q1536 539 1536 512Q1536 485 1546.0 461.5Q1556 438 1573.0 421.0Q1590 404 1613.5 394.0Q1637 384 1664 384Q1691 384 1714.0 394.0Q1737 404 1754.5 421.5Q1772 439 1782.0 462.0Q1792 485 1792 512Z"/>
  </g>
</svg>