<?xml version="1.0" encoding="utf-8"?>
<svg xmlns="http://www.w3.org/2000/svg" width="16" height="16" viewBox="0 0 2048 2048">
  <g transform="translate(0, 2048) scale(1, -1)">
    <path fill="#ffffff" d="M151 407Q116 423 88.5 447.0Q61 471 41.0 501.0Q21 531 10.5 566.5Q0 602 0 640V713Q0 782 29 845L285 1408Q268 1408 251.5 1410.0Q235 1412 222.0 1418.5Q209 1425 200.5 1437.5Q192 1450 192 1472Q192 1498 211.0 1517.0Q230 1536 256 1536H1163Q1201 1536 1236.5 1521.5Q1272 1507 1299 1480L1627 1152Q1676 1152 1720.0 1147.0Q1764 1142 1811 1123Q1865 1101 1909.0 1064.5Q1953 1028 1983.5 981.5Q2014 935 2031.0 880.5Q2048 826 2048 768V512Q2048 459 2011 422Q1993 404 1969.5 394.0Q1946 384 1920 384H1758Q1723 325 1664.0 290.5Q1605 256 1536 256Q1467 256 1408.0 290.5Q1349 325 1314 384H606Q571 325 512.0 290.5Q453 256 384 256Q308 256 245.5 297.0Q183 338 151 407ZM309 1152H768V1408H466Q447 1408 431.5 1398.0Q416 1388 408 1371ZM896 1152H1446L1208 1389Q1189 1408 1163 1408H896ZM768 512V1024H251L145 792Q128 755 128 713V640Q128 614 139 587Q152 629 176.5 662.5Q201 696 233.5 719.5Q266 743 305.5 755.5Q345 768 389 768Q438 768 483.0 748.0Q528 728 563.0 693.5Q598 659 619.0 614.0Q640 569 640 520V512ZM1280 512V517Q1280 569 1301.0 614.5Q1322 660 1357.0 694.0Q1392 728 1438.5 748.0Q1485 768 1536 768Q1585 768 1631.5 748.0Q1678 728 1713.5 694.5Q1749 661 1770.5 616.0Q1792 571 1792 520V512H1920V768Q1920 821 1900.0 868.0Q1880 915 1845.5 949.5Q1811 984 1764.0 1004.0Q1717 1024 1664 1024H896V512ZM512 512Q512 538 502.0 561.5Q492 585 474.5 602.5Q457 620 433.5 630.0Q410 640 384 640Q357 640 334.0 630.0Q311 620 293.5 602.5Q276 585 266.0 562.0Q256 539 256 512Q256 485 266.0 461.5Q276 438 293.0 421.0Q310 404 333.5 394.0Q357 384 384 384Q411 384 434.0 394.0Q457 404 474.5 421.5Q492 439 502.0 462.0Q512 485 512 512ZM1664 512Q1664 538 1654.0 561.5Q1644 585 1626.5 602.5Q1609 620 1585.5 630.0Q1562 640 1536 640Q1509 640 1486.0 630.0Q1463 620 1445.5 602.5Q1428 585 1418.0 562.0Q1408 539 1408 512Q1408 485 1418.0 461.5Q1428 438 1445.0 421.0Q1462 404 1485.5 394.0Q1509 384 1536 384Q1563 384 1586.0 394.0Q1609 404 1626.5 421.5Q1644 439 1654.0 462.0Q1664 485 1664 512Z"/>
  </g>
</svg>