<?xml version="1.0" encoding="utf-8"?>
<svg xmlns="http://www.w3.org/2000/svg" width="16" height="16" viewBox="0 0 2048 2048">
  <g transform="translate(0, 2048) scale(1, -1)">
    <path fill="#ffffff" d="M384 1536V1546Q384 1613 402.5 1676.0Q421 1739 454.5 1795.0Q488 1851 534.5 1897.5Q581 1944 637.0 1977.5Q693 2011 756.0 2029.5Q819 2048 886 2048H904Q971 2048 1034.5 2029.5Q1098 2011 1154.0 1977.5Q1210 1944 1257.0 1897.5Q1304 1851 1337.5 1795.0Q1371 1739 1389.5 1675.5Q1408 1612 1408 1545V1537Q1337 1512 1275 1474Q1277 1491 1278.5 1509.0Q1280 1527 1280 1544Q1280 1622 1249.0 1690.5Q1218 1759 1165.0 1810.0Q1112 1861 1042.5 1890.5Q973 1920 896 1920Q816 1920 746.0 1890.0Q676 1860 624.0 1808.0Q572 1756 542.0 1686.0Q512 1616 512 1536Q512 1459 541.5 1389.5Q571 1320 622.0 1267.0Q673 1214 741.5 1183.0Q810 1152 888 1152Q926 1152 961.0 1157.5Q996 1163 1032 1177Q1005 1108 996 1034Q969 1028 941.5 1026.0Q914 1024 886 1024Q782 1024 690.5 1065.5Q599 1107 531.0 1177.5Q463 1248 423.5 1340.5Q384 1433 384 1536ZM1152 960V968Q1152 1059 1188.5 1139.0Q1225 1219 1286.5 1279.0Q1348 1339 1429.5 1373.5Q1511 1408 1600 1408Q1692 1408 1773.5 1372.5Q1855 1337 1916.0 1276.0Q1977 1215 2012.5 1133.5Q2048 1052 2048 960Q2048 868 2012.5 786.5Q1977 705 1916.0 644.0Q1855 583 1773.5 547.5Q1692 512 1600 512Q1508 512 1426.5 547.5Q1345 583 1284.0 644.0Q1223 705 1187.5 786.5Q1152 868 1152 960ZM0 640Q0 693 20.0 739.5Q40 786 75.0 821.0Q110 856 156.5 876.0Q203 896 256 896H995Q1003 829 1023 768H256Q229 768 205.5 758.0Q182 748 165.0 731.0Q148 714 138.0 690.5Q128 667 128 640Q128 537 162.0 459.5Q196 382 254.0 325.0Q312 268 389.0 230.0Q466 192 551.0 169.5Q636 147 725.0 137.5Q814 128 896 128Q961 128 1025.0 132.5Q1089 137 1152 149V19Q1089 8 1025.0 4.0Q961 0 896 0Q810 0 720.5 8.0Q631 16 544.0 37.0Q457 58 375.5 93.0Q294 128 225 182Q114 268 57.0 384.0Q0 500 0 640ZM1344 5Q1317 5 1298.5 23.5Q1280 42 1280 69V443Q1352 398 1433.5 375.0Q1515 352 1600 352Q1685 352 1766.5 375.0Q1848 398 1920 443V69Q1920 42 1901.5 23.5Q1883 5 1856 5Q1833 5 1816 19L1640 160Q1622 174 1600 174Q1577 174 1560 160L1384 19Q1367 5 1344 5Z"/>
  </g>
</svg>