<?xml version="1.0" encoding="utf-8"?>
<svg xmlns="http://www.w3.org/2000/svg" width="16" height="16" viewBox="0 0 2048 2048">
  <g transform="translate(0, 2048) scale(1, -1)">
    <path fill="#000000" d="M1024 1664Q998 1664 979.0 1683.0Q960 1702 960 1728V1984Q960 2010 979.0 2029.0Q998 2048 1024 2048Q1050 2048 1069.0 2029.0Q1088 2010 1088 1984V1728Q1088 1702 1069.0 1683.0Q1050 1664 1024 1664ZM160 1952Q186 1952 205 1933L397 1741Q416 1722 416 1696Q416 1670 397.0 1651.0Q378 1632 352 1632Q326 1632 307 1651L115 1843Q96 1862 96 1888Q96 1914 115.0 1933.0Q134 1952 160 1952ZM1952 1888Q1952 1862 1933 1843L1741 1651Q1722 1632 1696 1632Q1670 1632 1651.0 1651.0Q1632 1670 1632 1696Q1632 1722 1651 1741L1843 1933Q1862 1952 1888 1952Q1914 1952 1933.0 1933.0Q1952 1914 1952 1888ZM768 1408Q741 1408 718.0 1398.0Q695 1388 677.5 1370.5Q660 1353 650.0 1330.0Q640 1307 640 1280V768Q640 723 667.5 688.0Q695 653 739 643Q736 610 736 576Q736 545 739 514Q691 519 649.5 541.0Q608 563 577.5 597.5Q547 632 529.5 675.5Q512 719 512 768V1280Q512 1333 532.0 1379.5Q552 1426 587.0 1461.0Q622 1496 668.5 1516.0Q715 1536 768 1536H1280Q1329 1536 1372.5 1518.5Q1416 1501 1450.5 1470.5Q1485 1440 1507.0 1398.5Q1529 1357 1534 1309Q1502 1312 1472 1312Q1438 1312 1405 1309Q1395 1353 1360.0 1380.5Q1325 1408 1280 1408ZM1472 1152Q1591 1152 1696.0 1106.5Q1801 1061 1879.0 983.0Q1957 905 2002.5 800.0Q2048 695 2048 576Q2048 457 2002.5 352.0Q1957 247 1879.0 169.0Q1801 91 1696.0 45.5Q1591 0 1472 0Q1353 0 1248.0 45.5Q1143 91 1065.0 169.0Q987 247 941.5 352.0Q896 457 896 576Q896 695 941.5 800.0Q987 905 1065.0 983.0Q1143 1061 1248.0 1106.5Q1353 1152 1472 1152ZM384 1024Q384 998 365.0 979.0Q346 960 320 960H64Q38 960 19.0 979.0Q0 998 0 1024Q0 1050 19.0 1069.0Q38 1088 64 1088H320Q346 1088 365.0 1069.0Q384 1050 384 1024ZM1024 576Q1024 503 1046.5 434.5Q1069 366 1113 308L1740 935Q1682 979 1613.5 1001.5Q1545 1024 1472 1024Q1379 1024 1297.5 989.0Q1216 954 1155.0 893.0Q1094 832 1059.0 750.5Q1024 669 1024 576ZM1472 128Q1565 128 1646.5 163.0Q1728 198 1789.0 259.0Q1850 320 1885.0 401.5Q1920 483 1920 576Q1920 649 1897.5 717.5Q1875 786 1831 844L1204 217Q1262 173 1330.5 150.5Q1399 128 1472 128ZM96 160Q96 186 115 205L307 397Q326 416 352 416Q378 416 397.0 397.0Q416 378 416 352Q416 326 397 307L205 115Q186 96 160 96Q134 96 115.0 115.0Q96 134 96 160Z"/>
  </g>
</svg>