<?xml version="1.0" encoding="utf-8"?>
<svg xmlns="http://www.w3.org/2000/svg" width="16" height="16" viewBox="0 0 2048 2048">
  <g transform="translate(0, 2048) scale(1, -1)">
    <path fill="#000000" d="M960 1728V1984Q960 2010 979.0 2029.0Q998 2048 1024 2048Q1050 2048 1069.0 2029.0Q1088 2010 1088 1984V1728Q1088 1702 1069.0 1683.0Q1050 1664 1024 1664Q998 1664 979.0 1683.0Q960 1702 960 1728ZM96 1888Q96 1914 115.0 1933.0Q134 1952 160 1952Q186 1952 205 1933L397 1741Q416 1722 416 1696Q416 1670 397.0 1651.0Q378 1632 352 1632Q326 1632 307 1651L115 1843Q96 1862 96 1888ZM1632 1696Q1632 1722 1651 1741L1843 1933Q1862 1952 1888 1952Q1914 1952 1933.0 1933.0Q1952 1914 1952 1888Q1952 1862 1933 1843L1741 1651Q1722 1632 1696 1632Q1670 1632 1651.0 1651.0Q1632 1670 1632 1696ZM763 512Q713 512 667.5 532.5Q622 553 587.5 587.5Q553 622 532.5 667.5Q512 713 512 763V1285Q512 1335 532.5 1380.5Q553 1426 587.5 1460.5Q622 1495 667.5 1515.5Q713 1536 763 1536H1285Q1335 1536 1380.5 1515.5Q1426 1495 1460.5 1460.5Q1495 1426 1515.5 1380.5Q1536 1335 1536 1285V763Q1536 713 1515.5 667.5Q1495 622 1460.5 587.5Q1426 553 1380.5 532.5Q1335 512 1285 512ZM1280 640Q1307 640 1330.0 650.0Q1353 660 1370.5 677.5Q1388 695 1398.0 718.0Q1408 741 1408 768V1280Q1408 1306 1398.0 1329.5Q1388 1353 1370.5 1370.5Q1353 1388 1329.5 1398.0Q1306 1408 1280 1408H768Q741 1408 718.0 1398.0Q695 1388 677.5 1370.5Q660 1353 650.0 1330.0Q640 1307 640 1280V768Q640 741 650.0 717.5Q660 694 677.0 677.0Q694 660 717.5 650.0Q741 640 768 640ZM64 960Q38 960 19.0 979.0Q0 998 0 1024Q0 1050 19.0 1069.0Q38 1088 64 1088H320Q346 1088 365.0 1069.0Q384 1050 384 1024Q384 998 365.0 979.0Q346 960 320 960ZM1728 960Q1702 960 1683.0 979.0Q1664 998 1664 1024Q1664 1050 1683.0 1069.0Q1702 1088 1728 1088H1984Q2010 1088 2029.0 1069.0Q2048 1050 2048 1024Q2048 998 2029.0 979.0Q2010 960 1984 960ZM96 160Q96 186 115 205L307 397Q326 416 352 416Q378 416 397.0 397.0Q416 378 416 352Q416 326 397 307L205 115Q186 96 160 96Q134 96 115.0 115.0Q96 134 96 160ZM1632 352Q1632 378 1651.0 397.0Q1670 416 1696 416Q1722 416 1741 397L1933 205Q1952 186 1952 160Q1952 134 1933.0 115.0Q1914 96 1888 96Q1862 96 1843 115L1651 307Q1632 326 1632 352ZM960 64V320Q960 346 979.0 365.0Q998 384 1024 384Q1050 384 1069.0 365.0Q1088 346 1088 320V64Q1088 38 1069.0 19.0Q1050 0 1024 0Q998 0 979.0 19.0Q960 38 960 64Z"/>
  </g>
</svg>