<?xml version="1.0" encoding="utf-8"?>
<svg xmlns="http://www.w3.org/2000/svg" width="16" height="16" viewBox="0 0 2048 2048">
  <g transform="translate(0, 2048) scale(1, -1)">
    <path fill="#000000" d="M1920 1088V320Q1920 281 1905.0 246.0Q1890 211 1863.5 184.5Q1837 158 1802.0 143.0Q1767 128 1728 128H960Q921 128 886.0 143.0Q851 158 824.5 184.5Q798 211 783.0 246.0Q768 281 768 320V643Q736 640 704 640Q607 640 517.0 665.0Q427 690 349.0 736.0Q271 782 206.5 846.5Q142 911 96.0 989.0Q50 1067 25.0 1157.0Q0 1247 0 1344Q0 1441 25.0 1531.0Q50 1621 96.0 1699.0Q142 1777 206.5 1841.5Q271 1906 349.0 1952.0Q427 1998 517.0 2023.0Q607 2048 704 2048Q801 2048 891.0 2023.0Q981 1998 1059.0 1952.0Q1137 1906 1201.5 1841.5Q1266 1777 1312.0 1699.0Q1358 1621 1383.0 1531.0Q1408 1441 1408 1344Q1408 1311 1405 1280H1728Q1767 1280 1802.0 1265.0Q1837 1250 1863.5 1223.5Q1890 1197 1905.0 1162.0Q1920 1127 1920 1088ZM704 768Q823 768 928.0 813.5Q1033 859 1111.0 937.0Q1189 1015 1234.5 1120.0Q1280 1225 1280 1344Q1280 1423 1259.5 1496.5Q1239 1570 1201.5 1634.0Q1164 1698 1111.0 1751.0Q1058 1804 994.0 1841.5Q930 1879 856.5 1899.5Q783 1920 704 1920Q585 1920 480.0 1874.5Q375 1829 297.0 1751.0Q219 1673 173.5 1568.0Q128 1463 128 1344Q128 1224 173.0 1119.0Q218 1014 296.0 936.0Q374 858 479.0 813.0Q584 768 704 768ZM960 1536Q986 1536 1005.0 1517.0Q1024 1498 1024 1472Q1024 1446 1005 1427L685 1107Q666 1088 640 1088Q614 1088 595 1107L403 1299Q384 1318 384 1344Q384 1370 403.0 1389.0Q422 1408 448 1408Q474 1408 493 1389L640 1243L915 1517Q934 1536 960 1536ZM1792 1088Q1792 1114 1773.0 1133.0Q1754 1152 1728 1152H1381Q1356 1065 1310.0 987.5Q1264 910 1201.0 847.0Q1138 784 1060.5 738.0Q983 692 896 667V320Q896 294 915.0 275.0Q934 256 960 256H1728Q1754 256 1773.0 275.0Q1792 294 1792 320ZM1600 896Q1626 896 1645.0 877.0Q1664 858 1664 832Q1664 806 1645 787L1389 531Q1370 512 1344 512Q1318 512 1299 531L1171 659Q1152 678 1152 704Q1152 730 1171.0 749.0Q1190 768 1216 768Q1242 768 1261 749L1344 667L1555 877Q1574 896 1600 896Z"/>
  </g>
</svg>