<?xml version="1.0" encoding="utf-8"?>
<svg xmlns="http://www.w3.org/2000/svg" height="16" width="16" viewBox="0 0 16 16">
  <g>
    <path id="path1" transform="rotate(0,8,8) translate(0,0) scale(0.166666666666667,0.166666666666667)  " fill="#FFFFFF" d="M51,36L49.8632774353027,36.2226600646973 48.890625,36.890625 48.22265625,37.8632850646973 48,39 48,87 48.22265625,88.13671875 48.890625,89.109375 49.8632774353027,89.77734375 51,90 81,90 82.13671875,89.77734375 83.109375,89.109375 83.77734375,88.13671875 84,87 84,39 83.77734375,37.8632850646973 83.109375,36.890625 82.13671875,36.2226600646973 81,36 51,36z M51,30L81,30 84.46875,30.703125 87.3515625,32.6484375 89.296875,35.53125 90,39 90,87 89.296875,90.46875 87.3515625,93.3515625 84.46875,95.296875 81,96 51,96 47.53125,95.296875 44.6484375,93.3515625 42.703125,90.46875 42,87 42,39 42.703125,35.53125 44.6484375,32.6484375 47.53125,30.703125 51,30z M33,6L31.86328125,6.22265625 30.890625,6.890625 30.2226543426514,7.86328125 30,9 30.2226543426514,10.13671875 30.890625,11.109375 31.86328125,11.77734375 33,12 51,12 52.1367149353027,11.77734375 53.109375,11.109375 53.7773399353027,10.13671875 54,9 53.7773399353027,7.86328125 53.109375,6.890625 52.1367149353027,6.22265625 51,6 33,6z M33,0L51,0 53.765625,0.421875 56.203125,1.640625 58.171875,3.5390625 59.484375,6 69,6 72.46875,6.703125 75.3515625,8.6484375 77.296875,11.53125 78,15 78,21 77.77734375,22.13671875 77.109375,23.109375 76.13671875,23.77734375 75,24 73.40625,23.625 72.4921875,22.6171875 72.0703125,21.1640625 71.953125,19.5 72,17.9296875 72.046875,16.5 71.953125,14.859375 71.5546875,13.4296875 70.640625,12.3984375 69,12 59.484375,12 58.171875,14.4609375 56.203125,16.359375 53.765625,17.578125 51,18 33,18 30.234375,17.578125 27.796875,16.359375 25.828125,14.4609375 24.515625,12 15,12 13.8632802963257,12.22265625 12.890625,12.890625 12.22265625,13.86328125 12,15 12,87 12.22265625,88.13671875 12.890625,89.109375 13.8632802963257,89.77734375 15,90 33,90 34.13671875,90.22265625 35.109375,90.890625 35.77734375,91.86328125 36,93 35.77734375,94.13671875 35.109375,95.109375 34.13671875,95.77734375 33,96 15,96 11.53125,95.296875 8.6484375,93.3515625 6.703125,90.46875 6,87 6,15 6.703125,11.53125 8.6484375,8.6484375 11.53125,6.703125 15,6 24.515625,6 25.828125,3.5390625 27.796875,1.640625 30.234375,0.421875 33,0z" />
  </g>
</svg>
