<?xml version="1.0" encoding="utf-8"?>
<svg id="" width="16" height="16" style="width:16px;height:16px;" version="1.1" xmlns="http://www.w3.org/2000/svg" viewBox="0 0 2048 2048" enable-background="new 0 0 2048 2048" xml:space="preserve">
    <path fill="#ffffff" d="M219.43 2048 q-44.57 0 -84.57 -17.14 q-40 -17.14 -70.29 -47.43 q-30.29 -30.29 -47.43 -70.29 q-17.14 -40 -17.14 -84.57 l0 -1609.14 q0 -44.57 17.14 -84.57 q17.14 -40 47.43 -70.29 q30.28 -30.29 70.29 -47.43 q40 -17.14 84.57 -17.14 l292.57 0 q44.57 0 84.57 17.14 q40 17.14 70.28 47.43 q30.28 30.28 47.43 70.29 q17.14 40 17.14 84.57 l0 1609.14 q0 44.57 -17.14 84.57 q-17.14 40 -47.43 70.29 q-30.28 30.28 -70.28 47.43 q-40 17.14 -84.57 17.14 l-292.57 0 ZM1536 2048 q-44.57 0 -84.57 -17.14 q-40 -17.14 -70.29 -47.43 q-30.29 -30.29 -47.43 -70.29 q-17.14 -40 -17.14 -84.57 l0 -1609.14 q0 -44.57 17.14 -84.57 q17.14 -40 47.43 -70.29 q30.29 -30.29 70.29 -47.43 q40 -17.14 84.57 -17.14 l292.57 0 q44.57 0 84.57 17.14 q40 17.14 70.29 47.43 q30.28 30.28 47.43 70.29 q17.14 40 17.14 84.57 l0 1609.14 q0 44.57 -17.14 84.57 q-17.14 40 -47.43 70.29 q-30.29 30.28 -70.29 47.43 q-40 17.14 -84.57 17.14 l-292.57 0 Z"/>
</svg>