<?xml version="1.0" encoding="utf-8"?>
<svg xmlns="http://www.w3.org/2000/svg" width="16" height="16" viewBox="0 0 2048 2048">
  <g transform="translate(0, 2048) scale(1, -1)">
    <path fill="#ffffff" d="M1797 1664Q1847 1664 1892.5 1643.5Q1938 1623 1972.5 1588.5Q2007 1554 2027.5 1508.5Q2048 1463 2048 1413V635Q2048 585 2027.5 539.5Q2007 494 1972.5 459.5Q1938 425 1892.5 404.5Q1847 384 1797 384H251Q201 384 155.5 404.5Q110 425 75.5 459.5Q41 494 20.5 539.5Q0 585 0 635V1413Q0 1463 20.5 1508.5Q41 1554 75.5 1588.5Q110 1623 155.5 1643.5Q201 1664 251 1664ZM256 1536Q229 1536 206.0 1526.0Q183 1516 165.5 1498.5Q148 1481 138.0 1458.0Q128 1435 128 1408V1280H1920V1408Q1920 1434 1910.0 1457.5Q1900 1481 1882.5 1498.5Q1865 1516 1841.5 1526.0Q1818 1536 1792 1536ZM1792 512Q1819 512 1842.0 522.0Q1865 532 1882.5 549.5Q1900 567 1910.0 590.0Q1920 613 1920 640V1152H128V640Q128 613 138.0 589.5Q148 566 165.0 549.0Q182 532 205.5 522.0Q229 512 256 512ZM1728 768Q1754 768 1773.0 749.0Q1792 730 1792 704Q1792 678 1773.0 659.0Q1754 640 1728 640H1472Q1446 640 1427.0 659.0Q1408 678 1408 704Q1408 730 1427.0 749.0Q1446 768 1472 768Z"/>
  </g>
</svg>