<?xml version="1.0" encoding="utf-8"?>
<svg xmlns="http://www.w3.org/2000/svg" width="16" height="16" viewBox="0 0 2048 2048">
  <g transform="translate(0, 2048) scale(1, -1)">
    <path fill="#ffffff" d="M320 128Q281 128 246.0 143.0Q211 158 184.5 184.5Q158 211 143.0 246.0Q128 281 128 320V1728Q128 1767 143.0 1802.0Q158 1837 184.5 1863.5Q211 1890 246.0 1905.0Q281 1920 320 1920H960Q999 1920 1034.0 1905.0Q1069 1890 1095.5 1863.5Q1122 1837 1137.0 1802.0Q1152 1767 1152 1728V1536H1024V1728Q1024 1754 1005.0 1773.0Q986 1792 960 1792H320Q294 1792 275.0 1773.0Q256 1754 256 1728V320Q256 294 275.0 275.0Q294 256 320 256H896V128ZM448 1536Q422 1536 403.0 1555.0Q384 1574 384 1600Q384 1626 403.0 1645.0Q422 1664 448 1664H832Q858 1664 877.0 1645.0Q896 1626 896 1600Q896 1574 877.0 1555.0Q858 1536 832 1536ZM448 1280Q422 1280 403.0 1299.0Q384 1318 384 1344Q384 1370 403.0 1389.0Q422 1408 448 1408H640V1280ZM1088 128Q1062 128 1043.0 147.0Q1024 166 1024 192Q1024 214 1032.5 226.5Q1041 239 1054.5 245.5Q1068 252 1085.0 254.0Q1102 256 1119 256H1152V384H960Q921 384 886.0 399.0Q851 414 824.5 440.5Q798 467 783.0 502.0Q768 537 768 576V1216Q768 1255 783.0 1290.0Q798 1325 824.5 1351.5Q851 1378 886.0 1393.0Q921 1408 960 1408H1856Q1895 1408 1930.0 1393.0Q1965 1378 1991.5 1351.5Q2018 1325 2033.0 1290.0Q2048 1255 2048 1216V576Q2048 537 2033.0 502.0Q2018 467 1991.5 440.5Q1965 414 1930.0 399.0Q1895 384 1856 384H1664V256H1698Q1715 256 1732.0 254.0Q1749 252 1762.5 245.5Q1776 239 1784.0 226.0Q1792 213 1792 192Q1792 166 1773.0 147.0Q1754 128 1728 128ZM1856 512Q1882 512 1901.0 531.0Q1920 550 1920 576V1216Q1920 1242 1901.0 1261.0Q1882 1280 1856 1280H960Q934 1280 915.0 1261.0Q896 1242 896 1216V576Q896 550 915.0 531.0Q934 512 960 512ZM1280 384V256H1536V384Z"/>
  </g>
</svg>