<?xml version="1.0" encoding="utf-8"?>
<svg xmlns="http://www.w3.org/2000/svg" width="16" height="16" viewBox="0 0 2048 2048">
  <g transform="translate(0, 2048) scale(1, -1)">
    <path fill="#000000" d="M1665 1141Q1694 1131 1717.5 1113.0Q1741 1095 1758.0 1071.0Q1775 1047 1784.0 1019.0Q1793 991 1793 960V448Q1793 417 1784.0 389.0Q1775 361 1758.0 337.0Q1741 313 1717.5 295.0Q1694 277 1665 267V251Q1665 201 1644.5 155.5Q1624 110 1589.5 75.5Q1555 41 1509.5 20.5Q1464 0 1414 0H380Q329 0 284.0 20.5Q239 41 205.0 75.5Q171 110 150.5 155.5Q130 201 129 251V267Q100 277 76.5 295.0Q53 313 36.0 337.0Q19 361 10.0 389.0Q1 417 1 448V960Q1 991 10.0 1019.0Q19 1047 36.0 1071.0Q53 1095 76.5 1113.0Q100 1131 129 1141V1797Q129 1847 149.5 1892.5Q170 1938 204.5 1972.5Q239 2007 284.5 2027.5Q330 2048 380 2048H882Q933 2048 980.0 2028.5Q1027 2009 1063 1973L1590 1446Q1615 1420 1630.0 1394.0Q1645 1368 1653.0 1341.0Q1661 1314 1663.5 1285.0Q1666 1256 1666 1226Q1666 1206 1665.5 1184.5Q1665 1163 1665 1141ZM385 1920Q358 1920 335.0 1910.0Q312 1900 294.5 1882.5Q277 1865 267.0 1842.0Q257 1819 257 1792V1152H1537V1265Q1537 1275 1536 1280H1148Q1096 1280 1050.5 1301.0Q1005 1322 971.0 1357.0Q937 1392 917.0 1438.5Q897 1485 897 1536V1919Q892 1920 882 1920ZM1447 1408 1025 1830V1536Q1025 1509 1035.0 1485.5Q1045 1462 1062.0 1445.0Q1079 1428 1102.5 1418.0Q1126 1408 1153 1408ZM1665 960Q1665 986 1646.0 1005.0Q1627 1024 1601 1024H193Q167 1024 148.0 1005.0Q129 986 129 960V448Q129 422 148.0 403.0Q167 384 193 384H1601Q1627 384 1646.0 403.0Q1665 422 1665 448ZM556 896Q586 896 613.5 884.0Q641 872 661.0 852.0Q681 832 693.0 804.5Q705 777 705 747Q705 716 693.0 689.0Q681 662 661.0 641.5Q641 621 614.0 609.0Q587 597 556 597H513Q513 581 510.5 566.0Q508 551 500.5 539.0Q493 527 480.5 519.5Q468 512 449 512Q423 512 404.0 531.0Q385 550 385 576V832Q385 858 404.0 877.0Q423 896 449 896ZM897 896Q936 896 971.0 881.0Q1006 866 1032.5 839.5Q1059 813 1074.0 778.0Q1089 743 1089 704Q1089 665 1074.0 630.0Q1059 595 1032.5 568.5Q1006 542 971.0 527.0Q936 512 897 512H833Q807 512 788.0 531.0Q769 550 769 576V832Q769 858 788.0 877.0Q807 896 833 896ZM1281 768V725H1316Q1333 725 1349.5 723.0Q1366 721 1379.5 714.5Q1393 708 1401.0 695.5Q1409 683 1409 661Q1409 639 1400.5 626.0Q1392 613 1378.5 606.5Q1365 600 1348.5 598.0Q1332 596 1315 596Q1306 596 1297.5 596.5Q1289 597 1281 597Q1281 581 1278.5 565.5Q1276 550 1268.5 538.0Q1261 526 1248.5 519.0Q1236 512 1217 512Q1191 512 1172.0 531.0Q1153 550 1153 576V832Q1153 858 1172.0 877.0Q1191 896 1217 896H1345Q1371 896 1390.0 877.0Q1409 858 1409 832Q1409 810 1400.5 797.0Q1392 784 1378.5 777.5Q1365 771 1348.5 769.0Q1332 767 1315 767Q1306 767 1297.5 767.5Q1289 768 1281 768ZM556 725Q565 725 571.0 732.0Q577 739 577 747Q577 755 570.5 761.5Q564 768 556 768H513V725ZM897 640Q923 640 942.0 659.0Q961 678 961 704Q961 730 942.0 749.0Q923 768 897 768ZM1409 128Q1436 128 1459.0 138.0Q1482 148 1499.5 165.5Q1517 183 1527.0 206.0Q1537 229 1537 256H257Q257 229 267.0 205.5Q277 182 294.0 165.0Q311 148 334.5 138.0Q358 128 385 128Z"/>
  </g>
</svg>