<?xml version="1.0" encoding="utf-8"?>
<svg xmlns="http://www.w3.org/2000/svg" width="16" height="16" viewBox="0 0 2048 2048">
  <g transform="translate(0, 2048) scale(1, -1)">
    <path fill="#000000" d="M192 128Q165 128 146.5 146.5Q128 165 128 192Q128 199 139.0 235.0Q150 271 166.5 322.0Q183 373 202.5 431.5Q222 490 240.0 543.5Q258 597 272.0 637.5Q286 678 291 692Q295 705 307 717L1411 1821Q1455 1865 1512.5 1889.0Q1570 1913 1632 1913Q1696 1913 1753.0 1888.5Q1810 1864 1853.0 1821.0Q1896 1778 1920.5 1721.0Q1945 1664 1945 1600Q1945 1537 1921.0 1480.5Q1897 1424 1853 1379L1691 1216Q1731 1172 1753.5 1129.0Q1776 1086 1776 1024Q1776 973 1756.5 926.0Q1737 879 1701 843L1517 659Q1498 640 1472 640Q1446 640 1427.0 659.0Q1408 678 1408 704Q1408 730 1427 749L1611 933Q1649 971 1649 1024Q1649 1056 1635.5 1079.5Q1622 1103 1600 1125L749 275Q736 262 720 258L208 130Q198 128 192 128ZM290 282 671 378 1763 1469Q1789 1495 1803.0 1529.0Q1817 1563 1817 1600Q1817 1639 1802.5 1672.5Q1788 1706 1763.0 1731.0Q1738 1756 1704.5 1770.5Q1671 1785 1632 1785Q1595 1785 1561.0 1771.0Q1527 1757 1501 1731L408 637Z"/>
  </g>
</svg>