<?xml version="1.0" encoding="utf-8"?>
<svg xmlns="http://www.w3.org/2000/svg" width="16" height="16" viewBox="0 0 2048 2048">
  <g transform="translate(0, 2048) scale(1, -1)">
    <path fill="#000000" d="M1792 1984V1536Q1792 1521 1786 1508L1082 36Q1074 19 1058.5 9.5Q1043 0 1024 0Q1005 0 989.5 9.5Q974 19 966 36L262 1508Q256 1521 256 1536V1984Q256 2010 275.0 2029.0Q294 2048 320 2048Q346 2048 365.0 2029.0Q384 2010 384 1984V1655L669 1845Q685 1856 704 1856Q714 1856 725.0 1852.0Q736 1848 744 1842L1024 1618L1304 1842Q1321 1856 1344 1856Q1363 1856 1380 1845L1664 1656V1984Q1664 2010 1683.0 2029.0Q1702 2048 1728 2048Q1754 2048 1773.0 2029.0Q1792 2010 1792 1984ZM701 1713 402 1514 697 896H1351L1646 1514L1347 1713L1064 1486Q1056 1480 1045.0 1476.0Q1034 1472 1024 1472Q1014 1472 1003.0 1476.0Q992 1480 984 1486ZM758 768 1024 212 1290 768Z"/>
  </g>
</svg>