<?xml version="1.0" encoding="utf-8"?>
<svg xmlns="http://www.w3.org/2000/svg" height="16" width="16" viewBox="0 0 16 16">
  <g>
    <path id="path1" transform="rotate(0,8,8) translate(0,0) scale(0.03125,0.03125)  " fill="#000000" d="M326.25,382.25L333.9375,382.875 341,384.75 346.015625,386.7734375 350.5625,389.09375 354.640625,391.7109375 358.25,394.625 364.4375,401.125 369.5,408.375 373.65625,416.34375 377.125,425 383.25,443.5 384.71875,447.6875 386.625,451.75 388.96875,455.5625 391.75,459 395.375,462.375 397.593719482422,463.59375 400,464 402.8828125,463.7890625 406.03125,463.15625 409.4453125,462.1015625 413.125,460.625 420.78125,456.90625 428.5,452.5 443.375,442.75 449.90625,438.1875 455.25,434.5 462.968719482422,429.6875 471.125,425.25 479.59375,421.25 488.25,417.75 492.3125,416.4375 496,416 499.2421875,416.2890625 502.21875,417.15625 504.9296875,418.6015625 507.375,420.625 509.3984375,423.0703125 510.84375,425.78125 511.7109375,428.7578125 512,432 511.796875,434.5625 511.1875,437 510.171875,439.3125 508.75,441.5 505.0625,445.0625 500.5,447.25 500,447.625 499,447.75 493.09375,450.3359375 487.125,453.34375 481.09375,456.7734375 475,460.625 450.25,476.625 437.71875,483.96875 425.125,490.25 418.8203125,492.765625 412.53125,494.5625 406.2578125,495.640625 400,496 395.234375,495.734375 390.6875,494.9375 386.359375,493.609375 382.25,491.75 374.625,486.75 371.09375,483.6875 367.75,480.25 362.59375,473.875 358.625,467.25 355.46875,460.1875 352.75,452.5 351.125,447.5 349.25,441.5 346.96875,435.125 344.125,429 340.6875,423.4375 336.625,418.75 334.3359375,416.890625 331.84375,415.5625 329.1484375,414.765625 326.25,414.5 321.375,414.953125 316.25,416.3125 310.875,418.578125 305.25,421.75 299.375,425.59375 293.25,429.875 286.875,434.59375 280.25,439.75 266.25,451 251.25,463.25 235.34375,475.5 218.625,486.75 209.9609375,491.90625 201.09375,496.625 192.0234375,500.90625 182.75,504.75 173.296875,507.921875 163.6875,510.1875 153.921875,511.546875 144,512 130.1875,511.4296875 116.499992370605,509.71875 102.9375,506.8671875 89.5,502.875 76.40625,497.8359375 63.875,491.84375 51.90625,484.8984375 40.5,477 39,475.75 82,465 89.3203125,468.4140625 96.78125,471.40625 104.3828125,473.9765625 112.125,476.125 119.9765625,477.8203125 127.906242370605,479.03125 135.9140625,479.7578125 144,480 152.453125,479.546875 160.8125,478.1875 169.078125,475.921875 177.25,472.75 185.335922241211,468.8984375 193.343734741211,464.59375 201.273422241211,459.8359375 209.125,454.625 224.625,443.3125 239.875,431.125 254.875,418.9375 269.625,407.625 276.90625,402.4140625 284.125,397.65625 291.28125,393.3515625 298.375,389.5 305.4140625,386.328125 312.40625,384.0625 319.3515625,382.703125 326.25,382.25z M376,33.75L371.421875,33.9687538146973 366.9375,34.6250076293945 362.546875,35.7187576293945 358.25,37.25 350.25,41.5000114440918 343.25,47.25 70,320.75 40.5,409.5 135.75,385.5 408.75,112.75 414.5,105.750015258789 418.75,97.75 420.28125,93.4531326293945 421.374969482422,89.0625152587891 422.031219482422,84.5781326293945 422.25,80 422.023406982422,75.2109527587891 421.343719482422,70.5937805175781 420.210906982422,66.1484603881836 418.625,61.875 414.34375,54.0312652587891 408.75,47.25 401.96875,41.6562728881836 394.125,37.375 389.8515625,35.7890663146973 385.40625,34.6562538146973 380.7890625,33.9765625 376,33.75z M376,1.75L383.890625,2.13281536102295 391.5625,3.28125762939453 399.015625,5.19532108306885 406.25,7.875 413.15625,11.2265853881836 419.625,15.1562805175781 425.65625,19.6640853881836 431.25,24.75 436.3359375,30.3437576293945 440.84375,36.3750076293945 444.7734375,42.8437538146973 448.125,49.75 450.8046875,56.984375 452.71875,64.4375 453.8671875,72.1093826293945 454.25,80 453.875,87.7734527587891 452.75,95.3437805175781 450.875,102.710960388184 448.25,109.875 444.9375,116.757820129395 441,123.281257629395 436.4375,129.4453125 431.25,135.25 390.75,176 395.4765625,181.484375 399.65625,186.9375 403.2890625,192.359375 406.375,197.75 408.8359375,203.421890258789 410.59375,209.687515258789 411.6484375,216.546890258789 412,224 411.6953125,230.3125 410.78125,236.5 409.2578125,242.562515258789 407.125,248.5 404.4296875,254.203125 401.21875,259.5625 397.4921875,264.578125 393.25,269.25 347.25,315.25 344.765625,317.328125 342.0625,318.8125 339.140625,319.703125 336,320 332.859375,319.703125 329.9375,318.8125 327.234375,317.328125 324.75,315.25 322.671875,312.765625 321.1875,310.0625 320.296875,307.140625 320,304 320.296875,300.859375 321.1875,297.9375 322.671875,295.234375 324.75,292.75 370.75,246.75 374.90625,241.765640258789 377.875,236.312515258789 379.65625,230.390625 380.25,224 380.046875,220.21875 379.4375,216.625015258789 378.421875,213.218765258789 377,210 373.125,204.0625 368,198.75 155.25,411.25 151.8125,413.9375 148,415.5 20,447.5 17.75,447.875 16,448 12.859375,447.703125 9.9375,446.8125 7.234375,445.328125 4.75,443.25 2.671875,440.765625 1.1875,438.0625 0.296875,435.140625 0,432 0.171875,430.671875 0.6875,428.4375 1.546875,425.296875 2.75,421.25 4.2109375,416.515625 5.84375,411.3125 7.6484375,405.640625 9.625,399.5 13.9375,386.28125 18.625,372.125 23.40625,357.8125 28,344.125 30.1875,337.640625 32.25,331.5625 34.1875,325.890625 36,320.625 37.609375,315.9765625 38.9375,312.15625 39.984375,309.1640625 40.75,307 42.25,303.8125 44.75,300.75 320.75,24.75 326.4609375,19.5625076293945 332.59375,15.0000076293945 339.1484375,11.0625028610229 346.125,7.75 353.3828125,5.125 360.78125,3.25 368.3203125,2.125 376,1.75z" />
  </g>
</svg>

