<?xml version="1.0" encoding="utf-8"?>
<svg xmlns="http://www.w3.org/2000/svg" width="16" height="16" viewBox="0 0 2048 2048">
  <g transform="translate(0, 2048) scale(1, -1)">
    <path fill="#000000" d="M64 256Q38 256 19.0 275.0Q0 294 0 320Q0 327 11.0 363.0Q22 399 38.5 450.0Q55 501 74.5 559.5Q94 618 112.0 671.5Q130 725 144.0 765.5Q158 806 163 820Q167 833 179 845L1283 1949Q1327 1993 1384.5 2017.0Q1442 2041 1504 2041Q1568 2041 1625.0 2016.5Q1682 1992 1725.0 1949.0Q1768 1906 1792.5 1849.0Q1817 1792 1817 1728Q1817 1665 1793.0 1608.5Q1769 1552 1725 1507L1563 1344Q1603 1300 1625.5 1257.0Q1648 1214 1648 1152Q1648 1101 1628.5 1054.0Q1609 1007 1573 971L1389 787Q1370 768 1344 768Q1318 768 1299.0 787.0Q1280 806 1280 832Q1280 858 1299 877L1483 1061Q1521 1099 1521 1152Q1521 1183 1508.0 1208.0Q1495 1233 1472 1253L621 403Q608 390 592 386L80 258Q70 256 64 256ZM162 410 543 506 1635 1597Q1661 1623 1675.0 1657.0Q1689 1691 1689 1728Q1689 1767 1674.5 1800.5Q1660 1834 1635.0 1859.0Q1610 1884 1576.5 1898.5Q1543 1913 1504 1913Q1467 1913 1433.0 1899.0Q1399 1885 1373 1859L280 765ZM156 145 328 188Q386 159 448.5 143.5Q511 128 576 128Q644 128 709.0 157.0Q774 186 836.5 229.5Q899 273 959.5 323.5Q1020 374 1078.5 417.5Q1137 461 1193.5 490.0Q1250 519 1305 519Q1337 519 1364 509Q1406 494 1433.0 469.5Q1460 445 1478.0 414.5Q1496 384 1508.5 348.0Q1521 312 1533 274Q1538 257 1546.5 241.0Q1555 225 1567 212Q1573 205 1581.5 198.5Q1590 192 1600 192Q1622 192 1652.5 205.5Q1683 219 1714.0 238.0Q1745 257 1773.5 277.0Q1802 297 1821 310Q1851 330 1884.5 347.0Q1918 364 1953 377Q1970 384 1984 384Q2011 384 2029.5 365.5Q2048 347 2048 320Q2048 299 2035.0 282.0Q2022 265 2002 259Q2001 257 1996 257Q1949 238 1900.0 205.5Q1851 173 1801.0 141.5Q1751 110 1700.5 87.0Q1650 64 1600 64Q1561 64 1529.0 81.0Q1497 98 1471 127Q1448 152 1434.5 179.0Q1421 206 1411 238Q1405 256 1397.0 282.0Q1389 308 1376.5 332.0Q1364 356 1346.5 373.0Q1329 390 1305 390Q1267 390 1221.0 361.0Q1175 332 1121.0 289.0Q1067 246 1005.0 195.0Q943 144 874.5 101.0Q806 58 731.0 29.0Q656 0 576 0Q465 0 358.0 36.5Q251 73 162 140Z"/>
  </g>
</svg>