<?xml version="1.0" encoding="utf-8"?>
<svg xmlns="http://www.w3.org/2000/svg" width="16" height="16" viewBox="0 0 2048 2048">
  <g transform="translate(0, 2048) scale(1, -1)">
    <path fill="#ffffff" d="M576 1253Q552 1232 540.0 1208.0Q528 1184 528 1152Q528 1098 565 1061L749 877Q768 858 768 832Q768 806 749.0 787.0Q730 768 704 768Q677 768 658 787L474 971Q438 1007 418.5 1054.0Q399 1101 399 1152Q399 1211 421.5 1257.0Q444 1303 485 1344L322 1507Q278 1551 254.5 1608.5Q231 1666 231 1728Q231 1793 255.5 1850.0Q280 1907 322.5 1949.5Q365 1992 422.0 2016.5Q479 2041 544 2041Q606 2041 663.5 2017.0Q721 1993 765 1949L1869 845Q1879 835 1884 820Q1888 807 1902.0 766.5Q1916 726 1934.0 672.5Q1952 619 1972.0 559.0Q1992 499 2009.0 447.5Q2026 396 2037.0 360.5Q2048 325 2048 320Q2048 294 2029.0 275.0Q2010 256 1984 256Q1978 256 1968 258L1456 386Q1438 391 1426 403ZM1886 410 1768 765 674 1859Q620 1913 544 1913Q505 1913 471.5 1898.5Q438 1884 413.0 1859.0Q388 1834 373.5 1800.5Q359 1767 359 1728Q359 1691 373.0 1657.0Q387 1623 413 1597L1504 506ZM743 390Q718 390 700.5 373.5Q683 357 670.5 333.0Q658 309 650.5 283.0Q643 257 637 238Q628 207 613.5 179.0Q599 151 577 127Q551 98 519.0 81.0Q487 64 448 64Q395 64 347.5 85.5Q300 107 254.5 137.0Q209 167 164.5 198.0Q120 229 74 248Q70 250 60.0 254.0Q50 258 46 258L45 259Q25 265 12.0 282.0Q-1 299 -1 320Q-1 347 17.5 365.5Q36 384 63 384Q77 384 94.5 377.0Q112 370 125 365Q147 356 174.0 339.5Q201 323 230.5 304.0Q260 285 291.0 265.0Q322 245 350.5 229.0Q379 213 404.0 202.5Q429 192 448 192Q459 192 466.5 198.0Q474 204 481 212Q493 226 501.0 241.5Q509 257 514 274Q526 311 538.0 347.5Q550 384 568.5 415.0Q587 446 614.5 470.5Q642 495 683 509Q712 519 743 519Q799 519 855.5 490.0Q912 461 970.0 417.5Q1028 374 1088.0 323.5Q1148 273 1210.5 229.5Q1273 186 1338.0 157.0Q1403 128 1472 128Q1537 128 1599.0 143.5Q1661 159 1719 188L1892 145Q1797 77 1693.5 38.5Q1590 0 1472 0Q1391 0 1316.0 29.0Q1241 58 1172.5 101.0Q1104 144 1042.0 195.0Q980 246 926.0 289.0Q872 332 826.0 361.0Q780 390 743 390Z"/>
  </g>
</svg>