<?xml version="1.0" encoding="utf-8"?>
<svg xmlns="http://www.w3.org/2000/svg" width="16" height="16" viewBox="0 0 2048 2048">
  <g transform="translate(0, 2048) scale(1, -1)">
    <path fill="#ffffff" d="M192 128Q166 128 147.0 147.0Q128 166 128 192Q128 199 139.0 235.0Q150 271 166.5 322.0Q183 373 202.5 431.5Q222 490 240.0 543.5Q258 597 272.0 637.5Q286 678 291 692Q295 705 307 717L1411 1821Q1455 1865 1512.5 1889.0Q1570 1913 1632 1913Q1696 1913 1753.0 1888.5Q1810 1864 1853.0 1821.0Q1896 1778 1920.5 1721.0Q1945 1664 1945 1600Q1945 1541 1927.5 1495.5Q1910 1450 1880.5 1411.5Q1851 1373 1813.5 1337.5Q1776 1302 1737 1263Q1669 1288 1595 1302L1763 1469Q1789 1495 1803.0 1529.5Q1817 1564 1817 1600Q1817 1639 1802.5 1672.5Q1788 1706 1763.0 1731.0Q1738 1756 1704.5 1770.5Q1671 1785 1632 1785Q1595 1785 1561.0 1771.0Q1527 1757 1501 1731L408 637L290 282L671 378L746 453Q760 379 785 311Q772 298 755.5 280.5Q739 263 720 258L208 130Q198 128 192 128ZM896 576Q896 695 941.5 800.0Q987 905 1065.0 983.0Q1143 1061 1248.0 1106.5Q1353 1152 1472 1152Q1551 1152 1624.5 1131.5Q1698 1111 1762.0 1073.5Q1826 1036 1879.0 983.0Q1932 930 1969.5 866.0Q2007 802 2027.5 728.5Q2048 655 2048 576Q2048 457 2002.5 352.0Q1957 247 1879.0 169.0Q1801 91 1696.0 45.5Q1591 0 1472 0Q1352 0 1247.0 45.0Q1142 90 1064.0 168.0Q986 246 941.0 351.0Q896 456 896 576ZM1536 448Q1536 490 1523.0 519.5Q1510 549 1491.0 571.0Q1472 593 1449.5 609.0Q1427 625 1408.0 640.5Q1389 656 1376.0 672.0Q1363 688 1363 710Q1363 734 1370.5 756.0Q1378 778 1392.5 795.0Q1407 812 1427.0 822.0Q1447 832 1472 832Q1498 832 1518.0 822.5Q1538 813 1552.0 797.0Q1566 781 1573.5 759.0Q1581 737 1581 713Q1581 686 1599.0 666.0Q1617 646 1645 646Q1671 646 1690.0 664.5Q1709 683 1709 709Q1709 762 1691.5 808.0Q1674 854 1642.5 887.5Q1611 921 1566.0 940.5Q1521 960 1467 960Q1418 960 1375.5 939.5Q1333 919 1302.0 885.0Q1271 851 1253.0 807.0Q1235 763 1235 715Q1235 675 1244.0 647.5Q1253 620 1269.5 598.0Q1286 576 1310.0 556.5Q1334 537 1363 514Q1377 503 1391.5 489.5Q1406 476 1408 456Q1411 427 1424.0 405.5Q1437 384 1472 384Q1498 384 1517.0 403.0Q1536 422 1536 448ZM1552 255Q1552 288 1528.5 311.5Q1505 335 1472 335Q1439 335 1415.5 311.5Q1392 288 1392 255Q1392 222 1415.5 198.5Q1439 175 1472 175Q1505 175 1528.5 198.5Q1552 222 1552 255Z"/>
  </g>
</svg>