<?xml version="1.0" encoding="utf-8"?>
<svg xmlns="http://www.w3.org/2000/svg" width="16" height="16" viewBox="0 0 2048 2048">
  <g transform="translate(0, 2048) scale(1, -1)">
    <path fill="#000000" d="M871 1604 1525 611Q1536 595 1536 576V64Q1536 38 1517.0 19.0Q1498 0 1472 0Q1464 0 1430.0 13.0Q1396 26 1348.0 46.0Q1300 66 1244.5 89.5Q1189 113 1139.0 135.0Q1089 157 1051.0 174.0Q1013 191 999 197Q983 204 971 221L109 1513Q51 1602 51 1703Q51 1774 78.0 1836.5Q105 1899 152.0 1945.5Q199 1992 261.5 2019.0Q324 2046 395 2046Q483 2046 558.0 2005.5Q633 1965 681 1892L801 1711Q824 1727 844.0 1740.0Q864 1753 884.5 1762.0Q905 1771 928.0 1775.5Q951 1780 980 1780Q1042 1780 1097.0 1752.0Q1152 1724 1188 1673L1396 1381Q1408 1364 1408 1344Q1408 1318 1389.0 1299.0Q1370 1280 1344 1280Q1329 1280 1315.0 1287.0Q1301 1294 1292 1307L1084 1599Q1066 1625 1037.5 1638.5Q1009 1652 978 1652Q961 1652 947.0 1648.0Q933 1644 920.5 1637.5Q908 1631 896.0 1622.5Q884 1614 871 1604ZM1408 161V557L574 1822Q545 1867 496.5 1893.0Q448 1919 394 1919Q349 1919 310.0 1902.0Q271 1885 242.0 1855.5Q213 1826 196.5 1786.5Q180 1747 180 1703Q180 1671 189.0 1640.5Q198 1610 216 1584L1067 307ZM427 768 512 640H251Q201 640 155.5 660.5Q110 681 75.5 715.5Q41 750 20.5 795.5Q0 841 0 891Q0 934 12.5 973.5Q25 1013 48.0 1045.5Q71 1078 104.0 1102.0Q137 1126 179 1140L256 1024Q229 1024 206.0 1014.0Q183 1004 165.5 986.5Q148 969 138.0 946.0Q128 923 128 896Q128 869 138.0 845.5Q148 822 165.0 805.0Q182 788 205.5 778.0Q229 768 256 768ZM1672 768Q1750 768 1818.5 737.0Q1887 706 1938.0 653.0Q1989 600 2018.5 530.5Q2048 461 2048 384Q2048 307 2018.5 237.5Q1989 168 1938.0 115.0Q1887 62 1818.5 31.0Q1750 0 1672 0H1664V128H1669Q1721 128 1766.5 149.0Q1812 170 1846.0 205.0Q1880 240 1900.0 286.5Q1920 333 1920 384Q1920 433 1900.0 479.5Q1880 526 1846.5 561.5Q1813 597 1768.0 618.5Q1723 640 1672 640H1664L1579 768Z"/>
  </g>
</svg>