<?xml version="1.0" encoding="utf-8"?>
<svg xmlns="http://www.w3.org/2000/svg" width="16" height="16" viewBox="0 0 2048 2048">
  <g transform="translate(0, 2048) scale(1, -1)">
    <path fill="#ffffff" d="M1997 1701Q1997 1600 1939 1513L1077 221Q1065 204 1049 197Q1035 191 997.0 174.0Q959 157 909.0 135.0Q859 113 803.5 89.5Q748 66 700.0 46.0Q652 26 617.5 13.0Q583 0 576 0Q550 0 531.0 19.0Q512 38 512 64V576Q512 595 523 611L1178 1604Q1164 1613 1152.0 1622.0Q1140 1631 1127.5 1637.5Q1115 1644 1101.0 1648.0Q1087 1652 1070 1652Q1039 1652 1010.5 1638.5Q982 1625 964 1599L756 1307Q737 1280 704 1280Q678 1280 659.0 1299.0Q640 1318 640 1344Q640 1364 652 1381L860 1673Q896 1724 951.0 1752.0Q1006 1780 1068 1780Q1097 1780 1120.0 1775.0Q1143 1770 1164.0 1761.0Q1185 1752 1205.0 1739.0Q1225 1726 1248 1710L1368 1892Q1416 1964 1490.5 2005.0Q1565 2046 1653 2046Q1725 2046 1787.5 2019.0Q1850 1992 1896.5 1945.5Q1943 1899 1970.0 1836.0Q1997 1773 1997 1701ZM1868 1703Q1868 1747 1851.5 1786.5Q1835 1826 1806.0 1855.5Q1777 1885 1738.0 1902.0Q1699 1919 1654 1919Q1600 1919 1551.5 1893.0Q1503 1867 1474 1822L640 557V161L981 307L1833 1584Q1850 1610 1859.0 1641.0Q1868 1672 1868 1703ZM1869 1140Q1911 1126 1944.0 1102.0Q1977 1078 2000.0 1045.5Q2023 1013 2035.5 973.5Q2048 934 2048 891Q2048 841 2027.5 795.5Q2007 750 1972.5 715.5Q1938 681 1892.5 660.5Q1847 640 1797 640H1536L1621 768H1792Q1819 768 1842.0 778.0Q1865 788 1882.5 805.5Q1900 823 1910.0 846.0Q1920 869 1920 896Q1920 922 1910.0 945.5Q1900 969 1882.5 986.5Q1865 1004 1841.5 1014.0Q1818 1024 1792 1024ZM469 768 384 640H379Q327 640 281.5 619.0Q236 598 202.0 563.0Q168 528 148.0 481.5Q128 435 128 384Q128 334 147.5 288.0Q167 242 201.0 206.5Q235 171 280.0 149.5Q325 128 376 128H384V0H376Q298 0 229.5 31.0Q161 62 110.0 115.0Q59 168 29.5 237.5Q0 307 0 384Q0 461 29.5 530.5Q59 600 110.0 653.0Q161 706 229.5 737.0Q298 768 376 768Z"/>
  </g>
</svg>