<?xml version="1.0" encoding="utf-8"?>
<svg id="" width="16" height="16" style="width:16px;height:16px;" version="1.1"
    xmlns="http://www.w3.org/2000/svg" viewBox="0 0 2048 2048" enable-background="new 0 0 2048 2048"
    xml:space="preserve"><path fill="#ffffff" d="M256 440 q0 -90 36.5 -170 q36.5 -80 98 -140 q61.5 -60 142.5 -95 q81 -35 171 -35 q92 0 173.5 35.5 q81.5 35.5 142.5 96.5 q61 61 96.5 142.5 q35.5 81.5 35.5 173.5 q0 92 -35.5 173.5 q-35.5 81.5 -96.5 142.5 q-61 61 -142.5 96.5 q-81.5 35.5 -173.5 35.5 q-95 0 -177 -36 q-82 -36 -142 -98 q-60 -62 -94.5 -145 q-34.5 -83 -34.5 -177 ZM1024 441 q0 -65 -26 -122 q-26 -57 -70 -99.5 q-44 -42.5 -102 -67 q-58 -24.5 -122 -24.5 q-67 0 -125 25 q-58 25 -101.5 68.5 q-43.5 43.5 -68.5 101.5 q-25 58 -25 125 q0 67 25 125 q25 58 68.5 101.5 q43.5 43.5 101.5 68.5 q58 25 125 25 q69 0 127.5 -25.5 q58.5 -25.5 101.5 -70 q43 -44.5 67 -104 q24 -59.5 24 -127.5 ZM1280 569 q0 -65 26 -122 q26 -57 70 -99.5 q44 -42.5 102 -67 q58 -24.5 122 -24.5 q67 0 125 25 q58 25 101.5 68.5 q43.5 43.5 68.5 101.5 q25 58 25 125 q0 67 -25 125 q-25 58 -68.5 101.5 q-43.5 43.5 -101.5 68.5 q-58 25 -125 25 q-69 0 -127.5 -25.5 q-58.5 -25.5 -101.5 -70 q-43 -44.5 -67 -104 q-24 -59.5 -24 -127.5 ZM1792 576 q0 -39 -15 -74 q-15 -35 -41.5 -61.5 q-26.5 -26.5 -61.5 -41.5 q-35 -15 -74 -15 q-39 0 -74 15 q-35 15 -61.5 41.5 q-26.5 26.5 -41.5 61.5 q-15 35 -15 74 q0 39 15 74 q15 35 41.5 61.5 q26.5 26.5 61.5 41.5 q35 15 74 15 q39 0 74 -15 q35 -15 61.5 -41.5 q26.5 -26.5 41.5 -61.5 q15 -35 15 -74 ZM0 1276 q0 -43 14.5 -88 q14.5 -45 41.5 -81.5 q27 -36.5 65.5 -59.5 q38.5 -23 86.5 -23 l992 0 q48 0 86.5 23 q38.5 23 65.5 59.5 q27 36.5 41.5 81.5 q14.5 45 14.5 88 q0 87 -18 167.5 q-18 80.5 -55.5 151.5 q-37.5 71 -94 130.5 q-56.5 59.5 -133.5 103.5 q-45 26 -94.5 43.5 q-49.5 17.5 -100.5 28 q-51 10.5 -103.5 15 q-52.5 4.5 -104.5 4.5 q-105 0 -208 -19 q-103 -19 -195 -72 q-78 -45 -134.5 -104 q-56.5 -59 -93.5 -129.5 q-37 -70.5 -55 -151 q-18 -80.5 -18 -168.5 ZM1397 1792 q49 -59 84 -131 q93 -7 173.5 -34.5 q80.5 -27.5 139.5 -78 q59 -50.5 92.5 -125 q33.5 -74.5 33.5 -175.5 q0 -15 -4.5 -31.5 q-4.5 -16.5 -13 -31 q-8.5 -14.5 -21.5 -24 q-13 -9.5 -30 -9.5 l-301 0 q-11 -34 -26 -66.5 q-15 -32.5 -35 -61.5 l362 0 q44 0 80.5 19.5 q36.5 19.5 62.5 51 q26 31.5 40 72 q14 40.5 14 81.5 q0 154 -69 273 q-69 119 -205 193 q-86 47 -183 62.5 q-97 15.5 -194 15.5 ZM1280 1280 q0 -17 -5 -39.5 q-5 -22.5 -15.5 -42 q-10.5 -19.5 -26.5 -33 q-16 -13.5 -37 -13.5 l-984 0 q-21 0 -37 13.5 q-16 13.5 -26.5 33 q-10.5 19.5 -15.5 42 q-5 22.5 -5 39.5 q0 133 43.5 229.5 q43.5 96.5 120.5 159.5 q77 63 182.5 93 q105.5 30 229.5 30 q124 0 229.5 -30 q105.5 -30 182.5 -93 q77 -63 120.5 -159.5 q43.5 -96.5 43.5 -229.5 Z"/></svg>