<?xml version="1.0" encoding="utf-8"?>
<svg xmlns="http://www.w3.org/2000/svg" width="16" height="16" viewBox="0 0 2048 2048">
  <g transform="translate(0, 2048) scale(1, -1)">
    <path fill="#ffffff" d="M301 729Q368 729 424.0 704.0Q480 679 520.5 636.0Q561 593 583.5 535.0Q606 477 606 412Q606 347 583.0 289.5Q560 232 519.5 188.0Q479 144 423.0 118.5Q367 93 301 93Q236 93 180.5 119.0Q125 145 85.0 189.0Q45 233 22.5 291.0Q0 349 0 412Q0 476 22.5 533.5Q45 591 84.5 634.5Q124 678 179.5 703.5Q235 729 301 729ZM301 228Q340 228 372.0 242.5Q404 257 427.5 282.0Q451 307 463.5 340.5Q476 374 476 412Q476 450 463.5 483.5Q451 517 427.5 541.5Q404 566 372.0 580.5Q340 595 301 595Q262 595 230.0 580.5Q198 566 176.0 541.5Q154 517 142.0 483.5Q130 450 130 412Q130 375 142.0 341.5Q154 308 176.5 283.0Q199 258 230.5 243.0Q262 228 301 228Z"/>
  </g>
</svg>