<?xml version="1.0" encoding="utf-8"?>
<svg xmlns="http://www.w3.org/2000/svg" width="16" height="16" viewBox="0 0 2048 2048">
  <g transform="translate(0, 2048) scale(1, -1)">
    <path fill="#000000" d="M192 0Q153 0 118.0 15.0Q83 30 56.5 56.5Q30 83 15.0 118.0Q0 153 0 192V395Q0 433 14.5 468.5Q29 504 56 531L620 1094Q638 1112 647.0 1136.5Q656 1161 656 1186Q656 1200 653 1215Q648 1247 644.0 1279.0Q640 1311 640 1343Q640 1436 666.0 1524.5Q692 1613 739.5 1691.0Q787 1769 852.0 1835.0Q917 1901 995.5 1948.0Q1074 1995 1162.0 2021.5Q1250 2048 1343 2048Q1440 2048 1530.5 2023.0Q1621 1998 1699.0 1952.0Q1777 1906 1841.5 1841.5Q1906 1777 1952.0 1699.0Q1998 1621 2023.0 1530.5Q2048 1440 2048 1343Q2048 1246 2023.0 1156.0Q1998 1066 1952.0 988.0Q1906 910 1841.5 846.0Q1777 782 1699.0 736.0Q1621 690 1531.0 665.0Q1441 640 1344 640Q1245 640 1152 667V665Q1152 613 1138.0 582.5Q1124 552 1100.0 536.0Q1076 520 1044.0 515.5Q1012 511 975 511Q956 511 936.0 511.5Q916 512 896 512V384Q896 331 858 293Q821 256 768 256H640V192Q640 153 625.0 118.0Q610 83 583.5 56.5Q557 30 522.0 15.0Q487 0 448 0ZM448 128Q470 128 483.0 136.5Q496 145 502.0 158.0Q508 171 509.5 187.5Q511 204 511 221V237Q511 267 519.0 293.5Q527 320 543.0 340.0Q559 360 583.0 372.0Q607 384 640 384H768V512Q768 565 805 602Q843 640 896 640H1024V758Q1024 785 1042.5 803.5Q1061 822 1088 822Q1101 822 1114 817Q1145 806 1172.5 797.0Q1200 788 1226.5 781.5Q1253 775 1281.5 771.5Q1310 768 1344 768Q1423 768 1496.5 788.5Q1570 809 1634.0 846.5Q1698 884 1751.0 936.5Q1804 989 1841.5 1053.0Q1879 1117 1899.5 1190.5Q1920 1264 1920 1343Q1920 1423 1899.5 1496.5Q1879 1570 1841.5 1634.0Q1804 1698 1751.5 1751.0Q1699 1804 1635.0 1841.5Q1571 1879 1497.5 1899.5Q1424 1920 1344 1920H1323Q1294 1920 1265.0 1915.0Q1236 1910 1207 1902Q1117 1877 1037.0 1822.5Q957 1768 897.5 1693.0Q838 1618 803.0 1528.5Q768 1439 768 1344Q768 1309 774 1275L778 1255Q784 1221 784 1186Q784 1135 765.0 1087.5Q746 1040 710 1004L147 440Q128 421 128 395V192Q128 166 147.0 147.0Q166 128 192 128ZM1408 1536Q1408 1563 1418.0 1586.0Q1428 1609 1445.5 1626.5Q1463 1644 1486.0 1654.0Q1509 1664 1536 1664Q1562 1664 1585.5 1654.0Q1609 1644 1626.5 1626.5Q1644 1609 1654.0 1585.5Q1664 1562 1664 1536Q1664 1509 1654.0 1486.0Q1644 1463 1626.5 1445.5Q1609 1428 1586.0 1418.0Q1563 1408 1536 1408Q1509 1408 1485.5 1418.0Q1462 1428 1445.0 1445.0Q1428 1462 1418.0 1485.5Q1408 1509 1408 1536Z"/>
  </g>
</svg>