<?xml version="1.0" encoding="utf-8"?>
<svg xmlns="http://www.w3.org/2000/svg" width="16" height="16" viewBox="0 0 2048 2048">
  <g transform="translate(0, 2048) scale(1, -1)">
    <path fill="#ffffff" d="M2047 1864Q2047 1831 2035.5 1796.5Q2024 1762 2005 1735L1834 1486Q1630 1188 1396.5 919.5Q1163 651 896 407Q895 335 871.0 273.5Q847 212 793 163Q747 121 690.0 90.5Q633 60 571.0 39.5Q509 19 444.5 9.5Q380 0 319 0Q293 0 256.0 2.5Q219 5 180.0 10.5Q141 16 105.0 23.0Q69 30 45 39Q24 47 12.0 62.0Q0 77 0 100Q0 129 23 149Q62 181 103.0 213.5Q144 246 179 283Q210 315 221.5 354.5Q233 394 238 437Q239 445 239 450V459Q238 459 238 460Q238 462 238.5 466.5Q239 471 241 482Q247 535 270.0 583.5Q293 632 331 670Q366 705 410.5 726.5Q455 748 503 759Q726 1059 981.0 1326.0Q1236 1593 1525 1831L1721 1992Q1751 2017 1786.5 2031.5Q1822 2046 1861 2046Q1898 2046 1932.0 2031.5Q1966 2017 1991.5 1992.5Q2017 1968 2032.0 1934.5Q2047 1901 2047 1864ZM1919 1863Q1919 1886 1901.0 1902.0Q1883 1918 1861 1918Q1844 1918 1830.0 1911.0Q1816 1904 1803 1893L1606 1732Q1340 1515 1104.5 1271.0Q869 1027 660 755Q734 733 788.0 681.5Q842 630 870 558Q1113 784 1327.5 1033.5Q1542 1283 1729 1558L1898 1806Q1906 1818 1912.5 1833.0Q1919 1848 1919 1863ZM768 409Q768 441 761.5 473.5Q755 506 741.0 534.5Q727 563 704.5 586.0Q682 609 649 622Q636 627 615.5 633.5Q595 640 581 640Q539 640 494.5 624.0Q450 608 420 579Q387 547 378.0 509.5Q369 472 366 429Q364 397 356.0 363.0Q348 329 337 299Q326 271 313.5 249.0Q301 227 285.0 208.5Q269 190 250.0 172.5Q231 155 209 137Q236 133 263.5 130.5Q291 128 319 128Q361 128 410.5 134.5Q460 141 510.0 155.0Q560 169 606.5 190.5Q653 212 689.0 243.5Q725 275 746.5 316.0Q768 357 768 409Z"/>
  </g>
</svg>