<?xml version="1.0" encoding="utf-8"?>
<svg xmlns="http://www.w3.org/2000/svg" width="16" height="16" viewBox="0 0 2048 2048">
  <g transform="translate(0, 2048) scale(1, -1)">
    <path fill="#ffffff" d="M313 128Q250 128 193.0 153.5Q136 179 93.5 221.5Q51 264 25.5 321.0Q0 378 0 441V1607Q0 1670 25.5 1727.0Q51 1784 93.5 1826.5Q136 1869 193.0 1894.5Q250 1920 313 1920H704Q781 1920 847.5 1886.5Q914 1853 960 1792L1056 1664H1728Q1784 1664 1836.0 1644.5Q1888 1625 1930.0 1591.0Q1972 1557 2001.5 1510.0Q2031 1463 2042 1408H1909Q1899 1437 1881.0 1460.5Q1863 1484 1839.0 1501.0Q1815 1518 1787.0 1527.0Q1759 1536 1728 1536H1043Q1007 1512 974.5 1489.0Q942 1466 907.5 1448.0Q873 1430 836.0 1419.0Q799 1408 754 1408H128V448Q128 409 143.0 374.0Q158 339 184.5 312.5Q211 286 246.0 271.0Q281 256 320 256H882Q893 222 908.0 190.0Q923 158 942 128ZM754 1536Q781 1536 804.5 1543.0Q828 1550 849.0 1561.5Q870 1573 890.5 1587.0Q911 1601 932 1616Q908 1648 886.0 1679.5Q864 1711 838.5 1736.0Q813 1761 780.5 1776.5Q748 1792 704 1792H320Q281 1792 246.0 1777.0Q211 1762 184.5 1735.5Q158 1709 143.0 1674.0Q128 1639 128 1600V1536ZM1215 1088V1095Q1215 1160 1241.0 1217.0Q1267 1274 1311.0 1316.5Q1355 1359 1413.0 1383.5Q1471 1408 1535 1408Q1602 1408 1660.0 1383.0Q1718 1358 1761.5 1314.5Q1805 1271 1830.0 1213.0Q1855 1155 1855 1088Q1855 1021 1830.0 963.0Q1805 905 1761.5 861.5Q1718 818 1660.0 793.0Q1602 768 1535 768Q1468 768 1410.0 793.0Q1352 818 1308.5 861.5Q1265 905 1240.0 963.0Q1215 1021 1215 1088ZM1231 640H1839Q1882 640 1919.5 623.5Q1957 607 1985.5 578.5Q2014 550 2030.5 512.5Q2047 475 2047 432V384Q2047 322 2025.0 269.5Q2003 217 1965.0 174.5Q1927 132 1877.5 99.0Q1828 66 1772.0 44.0Q1716 22 1658.0 11.0Q1600 0 1546 0H1524Q1472 0 1414.5 11.0Q1357 22 1301.5 43.5Q1246 65 1195.5 97.0Q1145 129 1106.5 171.0Q1068 213 1045.5 264.5Q1023 316 1023 376V432Q1023 475 1039.5 512.5Q1056 550 1084.5 578.5Q1113 607 1150.5 623.5Q1188 640 1231 640Z"/>
  </g>
</svg>