<?xml version="1.0" encoding="utf-8"?>
<svg xmlns="http://www.w3.org/2000/svg" width="16" height="16" viewBox="0 0 2048 2048">
  <g transform="translate(0, 2048) scale(1, -1)">
    <path fill="#ffffff" d="M512 1920H1792Q1819 1920 1842.0 1910.0Q1865 1900 1882.5 1882.5Q1900 1865 1910.0 1842.0Q1920 1819 1920 1792V896Q1920 869 1910.0 846.0Q1900 823 1882.5 805.5Q1865 788 1842.0 778.0Q1819 768 1792 768H896V640H1280V384H896V256H1600Q1626 256 1645.0 275.0Q1664 294 1664 320Q1664 346 1645.0 365.0Q1626 384 1600 384H1408V640H1792Q1845 640 1891.5 660.0Q1938 680 1973.0 715.0Q2008 750 2028.0 796.5Q2048 843 2048 896V1792Q2048 1845 2028.0 1891.5Q2008 1938 1973.0 1973.0Q1938 2008 1891.5 2028.0Q1845 2048 1792 2048H512Q459 2048 412.5 2028.0Q366 2008 331.0 1973.0Q296 1938 276.0 1891.5Q256 1845 256 1792V1408H384V1792Q384 1819 394.0 1842.0Q404 1865 421.5 1882.5Q439 1900 462.0 1910.0Q485 1920 512 1920ZM320 384Q294 384 275.0 365.0Q256 346 256 320Q256 294 275.0 275.0Q294 256 320 256H448Q474 256 493.0 275.0Q512 294 512 320Q512 346 493.0 365.0Q474 384 448 384ZM0 1088Q0 1128 15.0 1163.0Q30 1198 56.0 1224.0Q82 1250 117.0 1265.0Q152 1280 192 1280H576Q616 1280 651.0 1265.0Q686 1250 712.0 1224.0Q738 1198 753.0 1163.0Q768 1128 768 1088V192Q768 152 753.0 117.0Q738 82 712.0 56.0Q686 30 651.0 15.0Q616 0 576 0H192Q152 0 117.0 15.0Q82 30 56.0 56.0Q30 82 15.0 117.0Q0 152 0 192ZM192 1152Q166 1152 147.0 1133.0Q128 1114 128 1088V192Q128 166 147.0 147.0Q166 128 192 128H576Q602 128 621.0 147.0Q640 166 640 192V1088Q640 1114 621.0 1133.0Q602 1152 576 1152Z"/>
  </g>
</svg>