<?xml version="1.0" encoding="utf-8"?>
<svg xmlns="http://www.w3.org/2000/svg" width="16" height="16" viewBox="0 0 2048 2048">
  <g transform="translate(0, 2048) scale(1, -1)">
    <path fill="#ffffff" d="M640 680Q640 706 657.5 723.5Q675 741 701 741Q789 741 866.0 707.5Q943 674 1000.5 616.5Q1058 559 1091.5 482.0Q1125 405 1125 317Q1125 291 1107.5 273.5Q1090 256 1064 256Q1039 256 1021.5 273.5Q1004 291 1004 317Q1004 380 980.0 435.0Q956 490 915.0 531.0Q874 572 819.0 596.0Q764 620 701 620Q675 620 657.5 637.5Q640 655 640 680ZM701 1024Q799 1024 889.0 999.0Q979 974 1057.5 928.0Q1136 882 1200.5 817.5Q1265 753 1311.0 674.5Q1357 596 1382.5 505.5Q1408 415 1408 317Q1408 291 1390.5 273.5Q1373 256 1347 256Q1322 256 1304.5 273.5Q1287 291 1287 317Q1287 439 1241.0 545.5Q1195 652 1115.5 731.5Q1036 811 929.5 857.0Q823 903 701 903Q675 903 657.5 920.5Q640 938 640 963Q640 989 657.5 1006.5Q675 1024 701 1024ZM842 357Q842 336 834.0 317.5Q826 299 812.5 285.5Q799 272 780.5 264.0Q762 256 741 256Q720 256 701.5 264.0Q683 272 669.5 285.5Q656 299 648.0 317.5Q640 336 640 357Q640 378 648.0 396.5Q656 415 669.5 428.5Q683 442 701.5 450.0Q720 458 741 458Q762 458 780.5 450.0Q799 442 812.5 428.5Q826 415 834.0 396.5Q842 378 842 357ZM384 1869Q384 1906 398.0 1938.5Q412 1971 436.5 1995.5Q461 2020 494.0 2034.0Q527 2048 564 2048H1484Q1521 2048 1554.0 2034.0Q1587 2020 1611.5 1995.5Q1636 1971 1650.0 1938.5Q1664 1906 1664 1869V179Q1664 142 1650.0 109.5Q1636 77 1611.5 52.5Q1587 28 1554.0 14.0Q1521 0 1484 0H564Q527 0 494.0 14.0Q461 28 436.5 52.5Q412 77 398.0 109.5Q384 142 384 179ZM576 1920Q551 1920 531.5 1900.5Q512 1881 512 1856V192Q512 167 531.5 147.5Q551 128 576 128H1472Q1497 128 1516.5 147.5Q1536 167 1536 192V1856Q1536 1881 1516.5 1900.5Q1497 1920 1472 1920Z"/>
  </g>
</svg>