<?xml version="1.0" encoding="utf-8"?>
<svg xmlns="http://www.w3.org/2000/svg" width="16" height="16" viewBox="0 0 2048 2048">
  <g transform="translate(0, 2048) scale(1, -1)">
    <path fill="#000000" d="M507 0Q457 0 411.5 20.5Q366 41 331.5 75.5Q297 110 276.5 155.5Q256 201 256 251V1797Q256 1847 276.5 1892.5Q297 1938 331.5 1972.5Q366 2007 411.5 2027.5Q457 2048 507 2048H1541Q1591 2048 1636.5 2027.5Q1682 2007 1716.5 1972.5Q1751 1938 1771.5 1892.5Q1792 1847 1792 1797V384Q1792 357 1782.0 334.0Q1772 311 1754.5 293.5Q1737 276 1714.0 266.0Q1691 256 1664 256H384Q384 229 394.0 205.5Q404 182 421.0 165.0Q438 148 461.5 138.0Q485 128 512 128H1728Q1754 128 1773.0 109.0Q1792 90 1792 64Q1792 38 1773.0 19.0Q1754 0 1728 0ZM384 384H1664V1792Q1664 1818 1654.0 1841.5Q1644 1865 1626.5 1882.5Q1609 1900 1585.5 1910.0Q1562 1920 1536 1920H512Q485 1920 462.0 1910.0Q439 1900 421.5 1882.5Q404 1865 394.0 1842.0Q384 1819 384 1792ZM832 1344Q832 1383 847.0 1418.0Q862 1453 888.5 1479.5Q915 1506 950.0 1521.0Q985 1536 1024 1536Q1063 1536 1098.0 1521.0Q1133 1506 1159.5 1479.5Q1186 1453 1201.0 1418.0Q1216 1383 1216 1344Q1216 1305 1201.0 1270.0Q1186 1235 1159.5 1208.5Q1133 1182 1098.0 1167.0Q1063 1152 1024 1152Q985 1152 950.0 1167.0Q915 1182 888.5 1208.5Q862 1235 847.0 1270.0Q832 1305 832 1344ZM891 640Q841 640 795.5 660.5Q750 681 715.5 715.5Q681 750 660.5 795.5Q640 841 640 891V928Q640 968 668.0 996.0Q696 1024 736 1024H1312Q1352 1024 1380.0 996.0Q1408 968 1408 928V896Q1408 845 1388.0 798.5Q1368 752 1334.0 717.0Q1300 682 1254.5 661.0Q1209 640 1157 640Z"/>
  </g>
</svg>