<?xml version="1.0" encoding="utf-8"?>
<svg xmlns="http://www.w3.org/2000/svg" width="16" height="16" viewBox="0 0 2048 2048">
  <g transform="translate(0, 2048) scale(1, -1)">
    <path fill="#ffffff" d="M504 384Q429 384 360.5 414.5Q292 445 240.5 496.5Q189 548 158.5 616.5Q128 685 128 760V1544Q128 1619 158.5 1687.5Q189 1756 240.5 1807.5Q292 1859 360.5 1889.5Q429 1920 504 1920H1288Q1363 1920 1431.5 1889.5Q1500 1859 1551.5 1807.5Q1603 1756 1633.5 1687.5Q1664 1619 1664 1544V760Q1664 685 1633.5 616.5Q1603 548 1551.5 496.5Q1500 445 1431.5 414.5Q1363 384 1288 384ZM896 1136Q947 1136 994.0 1116.5Q1041 1097 1077 1061L1501 638Q1518 667 1527.0 700.5Q1536 734 1536 768V1541Q1536 1591 1515.5 1636.5Q1495 1682 1460.5 1716.5Q1426 1751 1380.5 1771.5Q1335 1792 1285 1792H507Q457 1792 411.5 1771.5Q366 1751 331.5 1716.5Q297 1682 276.5 1636.5Q256 1591 256 1541V768Q256 734 265.0 700.5Q274 667 291 638L715 1061Q751 1097 798.0 1116.5Q845 1136 896 1136ZM1088 1472Q1088 1499 1098.0 1522.0Q1108 1545 1125.5 1562.5Q1143 1580 1166.0 1590.0Q1189 1600 1216 1600Q1242 1600 1265.5 1590.0Q1289 1580 1306.5 1562.5Q1324 1545 1334.0 1521.5Q1344 1498 1344 1472Q1344 1445 1334.0 1422.0Q1324 1399 1306.5 1381.5Q1289 1364 1266.0 1354.0Q1243 1344 1216 1344Q1189 1344 1165.5 1354.0Q1142 1364 1125.0 1381.0Q1108 1398 1098.0 1421.5Q1088 1445 1088 1472ZM768 128Q686 128 611.0 161.0Q536 194 482 256H1351Q1442 256 1522.5 292.0Q1603 328 1663.0 389.5Q1723 451 1757.5 532.0Q1792 613 1792 704V1566Q1854 1512 1887.0 1437.0Q1920 1362 1920 1280V704Q1920 585 1874.5 480.0Q1829 375 1751.0 297.0Q1673 219 1568.0 173.5Q1463 128 1344 128ZM1280 512Q1314 512 1347.5 521.0Q1381 530 1410 547L987 971Q949 1009 896 1009Q843 1009 805 971L382 547Q411 530 444.5 521.0Q478 512 512 512Z"/>
  </g>
</svg>