<?xml version="1.0" encoding="utf-8"?>
<svg xmlns="http://www.w3.org/2000/svg" width="16" height="16" viewBox="0 0 2048 2048">
  <g transform="translate(0, 2048) scale(1, -1)">
    <path fill="#000000" d="M1544 1920Q1619 1920 1687.5 1889.5Q1756 1859 1807.5 1807.5Q1859 1756 1889.5 1687.5Q1920 1619 1920 1544V504Q1920 429 1889.5 360.5Q1859 292 1807.5 240.5Q1756 189 1687.5 158.5Q1619 128 1544 128H504Q429 128 360.5 158.5Q292 189 240.5 240.5Q189 292 158.5 360.5Q128 429 128 504V1544Q128 1619 158.5 1687.5Q189 1756 240.5 1807.5Q292 1859 360.5 1889.5Q429 1920 504 1920ZM292 382 866 956Q898 988 938.5 1004.5Q979 1021 1024 1021Q1069 1021 1109.5 1004.5Q1150 988 1182 956L1756 382Q1774 411 1783.0 444.0Q1792 477 1792 512V1541Q1792 1591 1771.5 1636.5Q1751 1682 1716.5 1716.5Q1682 1751 1636.5 1771.5Q1591 1792 1541 1792H507Q457 1792 411.5 1771.5Q366 1751 331.5 1716.5Q297 1682 276.5 1636.5Q256 1591 256 1541V512Q256 477 265.0 444.0Q274 411 292 382ZM1152 1344Q1152 1383 1167.0 1418.0Q1182 1453 1208.5 1479.5Q1235 1506 1270.0 1521.0Q1305 1536 1344 1536Q1383 1536 1418.0 1521.0Q1453 1506 1479.5 1479.5Q1506 1453 1521.0 1418.0Q1536 1383 1536 1344Q1536 1305 1521.0 1270.0Q1506 1235 1479.5 1208.5Q1453 1182 1418.0 1167.0Q1383 1152 1344 1152Q1305 1152 1270.0 1167.0Q1235 1182 1208.5 1208.5Q1182 1235 1167.0 1270.0Q1152 1305 1152 1344ZM1280 1344Q1280 1318 1299.0 1299.0Q1318 1280 1344 1280Q1370 1280 1389.0 1299.0Q1408 1318 1408 1344Q1408 1370 1389.0 1389.0Q1370 1408 1344 1408Q1318 1408 1299.0 1389.0Q1280 1370 1280 1344ZM1536 256Q1607 256 1666 292L1092 866Q1064 894 1024 894Q984 894 956 866L382 292Q411 274 444.0 265.0Q477 256 512 256Z"/>
  </g>
</svg>