<?xml version="1.0" encoding="utf-8"?>
<svg id="" width="16" height="16" style="width:16px;height:16px;" version="1.1" xmlns="http://www.w3.org/2000/svg" viewBox="0 0 2048 2048" enable-background="new 0 0 2048 2048" xml:space="preserve">
    <path fill="#000" d="M1152 1024 q-27 0 -50.5 -10 q-23.5 -10 -40.5 -27 q-17 -17 -27 -40.5 q-10 -23.5 -10 -50.5 l0 -776 q0 -59 36.5 -89.5 q36.5 -30.5 91.5 -30.5 q121 0 234 31 q113 31 213 88.5 q100 57.5 183.5 140.5 q83.5 83 144.5 187 q65 111 93 224.5 q28 113.5 28 241.5 q0 24 -10 44.5 q-10 20.5 -26.5 35.5 q-16.5 15 -38.5 23 q-22 8 -45 8 l-776 0 ZM1920 896 q0 -159 -60.5 -298.5 q-60.5 -139.5 -165 -244 q-104.5 -104.5 -244 -165 q-139.5 -60.5 -298.5 -60.5 l0 768 l768 0 ZM0 1152 q0 -109 25.5 -213.5 q25.5 -104.5 74 -198.5 q48.5 -94 118.5 -175 q70 -81 159 -144 q91 -64 186.5 -101.5 q95.5 -37.5 204.5 -54.5 q4 -1 8 -1 q4 0 8 0 q25 0 45.5 10 q20.5 10 35.5 26.5 q15 16.5 23 38 q8 21.5 8 45.5 l0 768 l768 0 q24 0 45.5 8 q21.5 8 38 23 q16.5 15 26.5 35.5 q10 20.5 10 45.5 q0 4 0 8 q0 4 -1 8 q-17 109 -54.5 204.5 q-37.5 95.5 -101.5 186.5 q-63 89 -144 159 q-81 70 -175 118.5 q-94 48.5 -198.5 74 q-104.5 25.5 -213.5 25.5 q-124 0 -238.5 -32 q-114.5 -32 -214 -90.5 q-99.5 -58.5 -181 -140 q-81.5 -81.5 -140 -181 q-58.5 -99.5 -90.5 -214 q-32 -114.5 -32 -238.5 ZM1653 1280 l-757 0 q-27 0 -50.5 -10 q-23.5 -10 -40.5 -27 q-17 -17 -27 -40.5 q-10 -23.5 -10 -50.5 l0 -757 q-92 16 -175.5 52 q-83.5 36 -154.5 89 q-71 53 -128.5 120.5 q-57.5 67.5 -97.5 146.5 q-40 79 -62 167.5 q-22 88.5 -22 181.5 q0 106 27.5 204.5 q27.5 98.5 77.5 183.5 q50 85 120 155 q70 70 155 120 q85 50 183.5 77.5 q98.5 27.5 204.5 27.5 q93 0 181.5 -22 q88.5 -22 167.5 -62 q79 -40 146.5 -97.5 q67.5 -57.5 120.5 -128.5 q53 -71 89 -154.5 q36 -83.5 52 -175.5 Z"/>
</svg>