<?xml version="1.0" encoding="utf-8"?>
<svg id="" width="16" height="16" style="width:16px;height:16px;" version="1.1"
    xmlns="http://www.w3.org/2000/svg" viewBox="0 0 2048 2048" enable-background="new 0 0 2048 2048"
    xml:space="preserve"><path fill="#ffffff" d="M2045.46 835.84 q0 58.83 -32.46 107.52 q-32.46 48.69 -87.23 71 l-542.69 226.21 q-13.18 5.07 -23.32 15.72 q-10.15 10.65 -14.21 24.85 l-177.51 590.36 q-6.09 20.29 -22.82 33.47 q-16.74 13.19 -39.06 13.19 q-26.37 0 -45.64 -19.27 l-408.79 -408.79 l-557.9 557.9 l-91.29 0 l0 -92.31 l557.9 -556.88 l-408.79 -408.79 q-19.28 -19.27 -19.28 -46.66 q0 -19.27 11.16 -35.5 q11.16 -16.23 29.42 -23.33 l601.52 -240.41 q23.33 -9.13 34.48 -33.47 l225.19 -496.03 q23.33 -52.74 72.02 -83.68 q48.69 -30.94 106.51 -30.94 q38.55 0 74.56 15.21 q36.01 15.21 62.38 41.58 l639.05 640.07 q27.39 27.39 42.1 63.9 q14.7 36.51 14.7 75.07 ZM1212.67 129.84 q-20.29 0 -36.01 10.15 q-15.72 10.14 -23.84 28.39 l-225.18 496.03 q-15.22 34.49 -42.61 60.36 q-27.39 25.87 -62.89 40.07 l-509.21 202.87 l761.79 762.8 l146.07 -485.88 q12.17 -41.58 42.1 -74.04 q29.92 -32.46 69.48 -49.71 l543.7 -227.22 q18.25 -8.11 28.9 -23.83 q10.66 -15.73 10.66 -36.01 q0 -27.39 -18.26 -45.65 l-640.07 -639.05 q-19.27 -19.27 -44.63 -19.27 Z"/></svg>