<?xml version="1.0" encoding="utf-8"?>
<svg xmlns="http://www.w3.org/2000/svg" width="16" height="16" viewBox="0 0 2048 2048">
  <g transform="translate(0, 2048) scale(1, -1)">
    <path fill="#ffffff" d="M1088 192 192 1088 784 1325Q833 1345 853 1391L1076 1880Q1092 1915 1122.5 1935.0Q1153 1955 1191 1955Q1217 1955 1241.0 1945.0Q1265 1935 1283 1917L1913 1287Q1950 1250 1950 1197Q1950 1178 1944.5 1160.0Q1939 1142 1928.5 1126.0Q1918 1110 1904.0 1097.5Q1890 1085 1872 1078L1336 855Q1281 833 1263 774Z"/>
  </g>
</svg>