<?xml version="1.0" encoding="utf-8"?>
<svg xmlns="http://www.w3.org/2000/svg" width="16" height="16" viewBox="0 0 2048 2048">
  <g transform="translate(0, 2048) scale(1, -1)">
    <path fill="#ffffff" d="M2014 1195Q2014 1137 1982.0 1089.0Q1950 1041 1896 1019L1361 796Q1348 791 1338.0 780.5Q1328 770 1324 756L1149 174Q1143 154 1126.5 141.0Q1110 128 1088 128Q1062 128 1043 147L640 550L90 0H0V91L550 640L147 1043Q128 1062 128 1089Q128 1108 139.0 1124.0Q150 1140 168 1147L761 1384Q784 1393 795 1417L1017 1906Q1040 1958 1088.0 1988.5Q1136 2019 1193 2019Q1231 2019 1266.5 2004.0Q1302 1989 1328 1963L1958 1332Q1985 1305 1999.5 1269.0Q2014 1233 2014 1195ZM1193 1891Q1173 1891 1157.5 1881.0Q1142 1871 1134 1853L912 1364Q897 1330 870.0 1304.5Q843 1279 808 1265L306 1065L1057 313L1201 792Q1213 833 1242.5 865.0Q1272 897 1311 914L1847 1138Q1865 1146 1875.5 1161.5Q1886 1177 1886 1197Q1886 1224 1868 1242L1237 1872Q1218 1891 1193 1891Z"/>
  </g>
</svg>