<?xml version="1.0" encoding="utf-8"?>
<svg xmlns="http://www.w3.org/2000/svg" width="16" height="16" viewBox="0 0 2048 2048">
  <g transform="translate(0, 2048) scale(1, -1)">
    <path fill="#ffffff" d="M635 0Q583 0 537.5 21.0Q492 42 458.0 77.0Q424 112 404.0 158.5Q384 205 384 256V915Q384 951 364.0 990.5Q344 1030 320.0 1073.0Q296 1116 276.0 1163.0Q256 1210 256 1261V1797Q256 1847 276.5 1892.5Q297 1938 331.5 1972.5Q366 2007 411.5 2027.5Q457 2048 507 2048H1541Q1591 2048 1636.5 2027.5Q1682 2007 1716.5 1972.5Q1751 1938 1771.5 1892.5Q1792 1847 1792 1797V1261Q1792 1210 1772.0 1163.0Q1752 1116 1728.0 1072.5Q1704 1029 1684.0 989.5Q1664 950 1664 915V251Q1664 201 1643.5 155.5Q1623 110 1588.5 75.5Q1554 41 1508.5 20.5Q1463 0 1413 0ZM1408 128Q1435 128 1458.0 138.0Q1481 148 1498.5 165.5Q1516 183 1526.0 206.0Q1536 229 1536 256V915Q1536 975 1563 1029L1651 1204Q1658 1217 1661.0 1232.0Q1664 1247 1664 1261V1792Q1664 1818 1654.0 1841.5Q1644 1865 1626.5 1882.5Q1609 1900 1585.5 1910.0Q1562 1920 1536 1920H512Q485 1920 462.0 1910.0Q439 1900 421.5 1882.5Q404 1865 394.0 1842.0Q384 1819 384 1792V1261Q384 1226 404.0 1186.5Q424 1147 448.0 1103.5Q472 1060 492.0 1013.0Q512 966 512 915V256Q512 229 522.0 205.5Q532 182 549.0 165.0Q566 148 589.5 138.0Q613 128 640 128ZM640 1280Q613 1280 589.5 1290.0Q566 1300 549.0 1317.0Q532 1334 522.0 1357.5Q512 1381 512 1408V1664Q512 1691 522.0 1714.0Q532 1737 549.5 1754.5Q567 1772 590.0 1782.0Q613 1792 640 1792H1408Q1434 1792 1457.5 1782.0Q1481 1772 1498.5 1754.5Q1516 1737 1526.0 1713.5Q1536 1690 1536 1664V1408Q1536 1381 1526.0 1358.0Q1516 1335 1498.5 1317.5Q1481 1300 1458.0 1290.0Q1435 1280 1408 1280ZM640 1664V1408H1408V1664ZM640 928Q640 968 668.0 996.0Q696 1024 736 1024Q776 1024 804.0 996.0Q832 968 832 928Q832 888 804.0 860.0Q776 832 736 832Q696 832 668.0 860.0Q640 888 640 928ZM928 928Q928 968 956.0 996.0Q984 1024 1024 1024Q1064 1024 1092.0 996.0Q1120 968 1120 928Q1120 888 1092.0 860.0Q1064 832 1024 832Q984 832 956.0 860.0Q928 888 928 928ZM1216 928Q1216 968 1244.0 996.0Q1272 1024 1312 1024Q1352 1024 1380.0 996.0Q1408 968 1408 928Q1408 888 1380.0 860.0Q1352 832 1312 832Q1272 832 1244.0 860.0Q1216 888 1216 928ZM768 544Q768 584 796.0 612.0Q824 640 864 640Q904 640 932.0 612.0Q960 584 960 544Q960 504 932.0 476.0Q904 448 864 448Q824 448 796.0 476.0Q768 504 768 544ZM1088 544Q1088 584 1116.0 612.0Q1144 640 1184 640Q1224 640 1252.0 612.0Q1280 584 1280 544Q1280 504 1252.0 476.0Q1224 448 1184 448Q1144 448 1116.0 476.0Q1088 504 1088 544Z"/>
  </g>
</svg>