<?xml version="1.0" encoding="utf-8"?>
<svg xmlns="http://www.w3.org/2000/svg" width="16" height="16" viewBox="0 0 2048 2048">
  <g transform="translate(0, 2048) scale(1, -1)">
    <path fill="#ffffff" d="M1472 1664Q1472 1685 1485 1702L1677 1958Q1695 1984 1728 1984Q1754 1984 1773.0 1965.0Q1792 1946 1792 1920Q1792 1899 1779 1882L1587 1626Q1578 1614 1564.5 1607.0Q1551 1600 1536 1600Q1510 1600 1491.0 1619.0Q1472 1638 1472 1664ZM960 1920Q960 1946 979.0 1965.0Q998 1984 1024 1984Q1050 1984 1069 1965Q1081 1953 1101.5 1930.5Q1122 1908 1145.5 1880.0Q1169 1852 1193.0 1820.5Q1217 1789 1236.5 1759.5Q1256 1730 1268.0 1705.0Q1280 1680 1280 1664Q1280 1638 1261.0 1619.0Q1242 1600 1216 1600Q1198 1600 1183.0 1609.5Q1168 1619 1159 1635Q1121 1702 1076.0 1760.0Q1031 1818 979 1875Q971 1884 965.5 1895.5Q960 1907 960 1920ZM192 128Q166 128 147.0 147.0Q128 166 128 192Q128 213 135.5 226.0Q143 239 156.5 245.5Q170 252 187.0 254.5Q204 257 224 257Q236 257 248 256H264Q276 255 288 255Q307 255 324.5 257.0Q342 259 355.5 266.0Q369 273 376.5 286.0Q384 299 384 320V836Q370 831 343.0 819.5Q316 808 286.0 796.5Q256 785 230.0 776.5Q204 768 192 768Q165 768 146.5 786.5Q128 805 128 832Q128 852 139.5 868.5Q151 885 170 892L384 972V1408H192Q166 1408 147.0 1427.0Q128 1446 128 1472Q128 1498 147.0 1517.0Q166 1536 192 1536H384V1856Q384 1882 403.0 1901.0Q422 1920 448 1920Q474 1920 493.0 1901.0Q512 1882 512 1856V1536H704Q730 1536 749.0 1517.0Q768 1498 768 1472Q768 1446 749.0 1427.0Q730 1408 704 1408H512V1020Q525 1025 552.5 1036.0Q580 1047 610.0 1058.5Q640 1070 666.5 1079.0Q693 1088 704 1088Q732 1088 750.0 1070.0Q768 1052 768 1024Q768 1004 757.0 987.5Q746 971 727 964L512 884V320Q512 281 497.0 246.0Q482 211 455.5 184.5Q429 158 394.0 143.0Q359 128 320 128ZM640 192Q640 209 646.0 220.0Q652 231 664 242Q692 267 720.0 291.0Q748 315 774 342Q833 402 872.5 465.5Q912 529 937.5 597.0Q963 665 978.0 739.5Q993 814 1003 896H832Q806 896 787.0 915.0Q768 934 768 960Q768 986 787.0 1005.0Q806 1024 832 1024H1014Q1021 1121 1022.5 1216.0Q1024 1311 1024 1408H896Q870 1408 851.0 1427.0Q832 1446 832 1472Q832 1498 851.0 1517.0Q870 1536 896 1536H1856Q1882 1536 1901.0 1517.0Q1920 1498 1920 1472Q1920 1446 1901.0 1427.0Q1882 1408 1856 1408H1664V1024H1856Q1882 1024 1901.0 1005.0Q1920 986 1920 960Q1920 934 1901.0 915.0Q1882 896 1856 896H1664V192Q1664 166 1645.0 147.0Q1626 128 1600 128Q1574 128 1555.0 147.0Q1536 166 1536 192V896H1132Q1121 798 1103.0 710.0Q1085 622 1053.5 541.5Q1022 461 974.0 386.5Q926 312 854 241Q828 215 800.5 189.0Q773 163 744 142Q736 136 725.5 132.0Q715 128 704 128Q678 128 659.0 147.0Q640 166 640 192ZM1536 1024V1408H1152Q1152 1311 1150.5 1216.0Q1149 1121 1143 1024Z"/>
  </g>
</svg>