<?xml version="1.0" encoding="utf-8"?>
<svg xmlns="http://www.w3.org/2000/svg" width="16" height="16" viewBox="0 0 2048 2048">
  <g transform="translate(0, 2048) scale(1, -1)">
    <path fill="#ffffff" d="M128 256V1792Q128 1818 138.0 1841.0Q148 1864 165.5 1881.5Q183 1899 206.0 1909.5Q229 1920 255 1920Q291 1920 323.0 1900.5Q355 1881 371 1849L1024 542L1678 1849Q1695 1882 1725.5 1901.0Q1756 1920 1793 1920Q1820 1920 1843.0 1910.0Q1866 1900 1883.0 1882.5Q1900 1865 1910.0 1842.0Q1920 1819 1920 1792V256Q1920 229 1910.0 206.0Q1900 183 1882.5 165.5Q1865 148 1842.0 138.0Q1819 128 1792 128Q1765 128 1741.5 138.0Q1718 148 1701.0 165.0Q1684 182 1674.0 205.5Q1664 229 1664 256V1250L1139 199Q1123 167 1091.0 150.5Q1059 134 1024 134Q989 134 957.5 150.5Q926 167 910 199L384 1250V256Q384 229 374.0 206.0Q364 183 346.5 165.5Q329 148 306.0 138.0Q283 128 256 128Q229 128 205.5 138.0Q182 148 165.0 165.0Q148 182 138.0 205.5Q128 229 128 256Z"/>
  </g>
</svg>