<?xml version="1.0" encoding="utf-8"?>
<svg xmlns="http://www.w3.org/2000/svg" width="16" height="16" viewBox="0 0 2048 2048">
  <g transform="translate(0, 2048) scale(1, -1)">
    <path fill="#ffffff" d="M768 128V89Q768 66 769.5 44.0Q771 22 779 0H507Q457 0 411.5 20.5Q366 41 331.5 75.5Q297 110 276.5 155.5Q256 201 256 251V1029Q256 1078 276.0 1123.0Q296 1168 330.0 1203.0Q364 1238 408.5 1259.0Q453 1280 502 1280H512V1536Q512 1644 552.0 1736.5Q592 1829 661.0 1897.0Q730 1965 823.5 2004.0Q917 2043 1024 2043Q1131 2043 1224.5 2004.0Q1318 1965 1387.0 1897.0Q1456 1829 1496.0 1736.5Q1536 1644 1536 1536V1280L1589 1275Q1516 1264 1448.5 1233.0Q1381 1202 1325 1152H512Q485 1152 462.0 1142.0Q439 1132 421.5 1114.5Q404 1097 394.0 1074.0Q384 1051 384 1024V256Q384 229 394.0 205.5Q404 182 421.0 165.0Q438 148 461.5 138.0Q485 128 512 128ZM640 1280H1408V1536Q1408 1617 1378.0 1686.5Q1348 1756 1296.5 1807.5Q1245 1859 1175.0 1888.0Q1105 1917 1024 1917Q943 1917 873.0 1887.5Q803 1858 751.5 1807.0Q700 1756 670.0 1686.5Q640 1617 640 1536ZM2048 768V760Q2048 685 2017.5 616.5Q1987 548 1935.5 496.5Q1884 445 1815.5 414.5Q1747 384 1672 384Q1637 384 1603.0 389.0Q1569 394 1536 406Q1536 395 1536.5 381.0Q1537 367 1537 352Q1537 334 1535.0 317.0Q1533 300 1526.0 286.5Q1519 273 1506.0 264.5Q1493 256 1472 256H1408Q1408 209 1405.5 183.5Q1403 158 1390.5 145.5Q1378 133 1352.0 130.5Q1326 128 1280 128V94Q1280 77 1278.0 60.5Q1276 44 1269.5 30.5Q1263 17 1250.5 8.5Q1238 0 1216 0H960Q934 0 915.0 19.0Q896 38 896 64V256Q896 282 915 301L1291 677Q1280 729 1280 776Q1280 854 1311.0 922.5Q1342 991 1395.0 1042.0Q1448 1093 1517.5 1122.5Q1587 1152 1664 1152Q1744 1152 1814.0 1122.0Q1884 1092 1936.0 1040.0Q1988 988 2018.0 918.0Q2048 848 2048 768ZM1856 864Q1856 904 1828.0 932.0Q1800 960 1760 960Q1720 960 1692.0 932.0Q1664 904 1664 864Q1664 824 1692.0 796.0Q1720 768 1760 768Q1800 768 1828.0 796.0Q1856 824 1856 864Z"/>
  </g>
</svg>