<?xml version="1.0" encoding="utf-8"?>
<svg id="" width="16" height="16" style="width:16px;height:16px;" version="1.1" xmlns="http://www.w3.org/2000/svg" viewBox="0 0 2048 2048" enable-background="new 0 0 2048 2048" xml:space="preserve">
    <path fill="#ffffff" d="M302.55 2048 q-45.41 0 -85.15 -17.03 q-39.73 -17.03 -69.82 -46.54 q-30.08 -29.52 -47.11 -69.25 q-17.03 -39.74 -17.03 -85.15 l0 -1612.06 q0 -45.41 17.03 -85.15 q17.03 -39.73 46.54 -69.25 q29.52 -29.52 69.25 -46.55 q39.74 -17.03 85.15 -17.03 q27.25 0 54.49 6.81 q27.25 6.81 51.09 20.44 l1446.31 806.03 q52.23 29.51 81.75 80.6 q29.51 51.09 29.51 110.12 q0 60.17 -28.95 110.69 q-28.95 50.52 -82.31 80.03 l-1445.18 806.03 q-23.84 13.63 -51.09 20.44 q-27.24 6.81 -54.48 6.81 ZM1819.25 1024 q0 -19.3 -10.22 -36.89 q-10.22 -17.6 -27.25 -26.68 l-1445.18 -806.04 q-15.89 -9.08 -35.19 -9.08 q-29.52 0 -51.09 21.57 q-21.57 21.57 -21.57 51.09 l0 1612.06 q0 29.52 21.57 51.09 q21.57 21.57 51.09 21.57 q19.3 0 35.19 -9.08 l1445.18 -806.04 q17.03 -9.08 27.25 -26.67 q10.22 -17.6 10.22 -36.89 Z"/>
</svg>