<?xml version="1.0" encoding="utf-8"?>
<svg xmlns="http://www.w3.org/2000/svg" width="16" height="16" viewBox="0 0 2048 2048">
  <g transform="translate(0, 2048) scale(1, -1)">
    <path fill="#000000" d="M384 1536V1546Q384 1650 425.5 1741.5Q467 1833 537.5 1901.0Q608 1969 700.5 2008.5Q793 2048 896 2048Q999 2048 1091.5 2008.5Q1184 1969 1254.5 1901.0Q1325 1833 1366.5 1741.5Q1408 1650 1408 1546Q1408 1470 1389.5 1400.5Q1371 1331 1331 1266Q1213 1241 1110.0 1180.0Q1007 1119 930 1025Q924 1024 919 1024H886Q782 1024 690.5 1065.5Q599 1107 531.0 1177.5Q463 1248 423.5 1340.5Q384 1433 384 1536ZM1280 1536V1544Q1280 1622 1249.0 1690.5Q1218 1759 1165.0 1810.0Q1112 1861 1042.5 1890.5Q973 1920 896 1920Q816 1920 746.0 1890.0Q676 1860 624.0 1808.0Q572 1756 542.0 1686.0Q512 1616 512 1536Q512 1456 542.0 1386.0Q572 1316 624.0 1264.0Q676 1212 746.0 1182.0Q816 1152 896 1152Q976 1152 1046.0 1182.0Q1116 1212 1168.0 1264.0Q1220 1316 1250.0 1386.0Q1280 1456 1280 1536ZM1244 65Q1187 89 1132 126Q1141 158 1149.5 188.5Q1158 219 1158 252Q1158 296 1143.0 336.5Q1128 377 1102.0 410.0Q1076 443 1040.0 466.5Q1004 490 961 500L899 514Q896 545 896 576Q896 606 899 638L961 652Q1004 662 1040.0 685.5Q1076 709 1102.0 742.0Q1128 775 1143.0 815.5Q1158 856 1158 900Q1158 933 1149.5 963.5Q1141 994 1132 1026Q1187 1063 1244 1087Q1271 1060 1294.5 1038.0Q1318 1016 1344.5 999.5Q1371 983 1401.5 974.0Q1432 965 1472 965Q1512 965 1543.0 974.0Q1574 983 1600.0 999.5Q1626 1016 1649.5 1038.0Q1673 1060 1700 1087Q1757 1063 1812 1026Q1803 994 1794.5 963.5Q1786 933 1786 900Q1786 856 1800.5 815.5Q1815 775 1841.5 742.0Q1868 709 1904.0 685.5Q1940 662 1983 652L2045 638Q2048 606 2048 576Q2048 545 2045 514L1983 500Q1940 490 1904.0 466.5Q1868 443 1841.5 410.0Q1815 377 1800.5 336.5Q1786 296 1786 252Q1786 219 1794.5 188.5Q1803 158 1812 126Q1757 89 1700 65Q1673 92 1649.5 114.0Q1626 136 1600.0 152.5Q1574 169 1543.0 178.0Q1512 187 1472 187Q1431 187 1400.5 178.0Q1370 169 1344.0 152.5Q1318 136 1294.5 114.0Q1271 92 1244 65ZM0 640Q0 693 20.0 739.5Q40 786 75.0 821.0Q110 856 156.5 876.0Q203 896 256 896H845Q813 833 795 768H256Q229 768 205.5 758.0Q182 748 165.0 731.0Q148 714 138.0 690.5Q128 667 128 640Q128 537 162.0 459.5Q196 382 254.0 325.0Q312 268 389.0 230.0Q466 192 551.0 169.5Q636 147 725.0 137.5Q814 128 896 128H929Q987 59 1057 7Q1017 2 977.0 1.0Q937 0 896 0Q810 0 720.5 8.0Q631 16 544.0 37.0Q457 58 375.5 93.0Q294 128 225 182Q114 268 57.0 384.0Q0 500 0 640ZM1600 576Q1600 602 1590.0 625.5Q1580 649 1562.5 666.5Q1545 684 1521.5 694.0Q1498 704 1472 704Q1445 704 1422.0 694.0Q1399 684 1381.5 666.5Q1364 649 1354.0 626.0Q1344 603 1344 576Q1344 549 1354.0 525.5Q1364 502 1381.0 485.0Q1398 468 1421.5 458.0Q1445 448 1472 448Q1499 448 1522.0 458.0Q1545 468 1562.5 485.5Q1580 503 1590.0 526.0Q1600 549 1600 576Z"/>
  </g>
</svg>