<?xml version="1.0" encoding="utf-8"?>
<svg xmlns="http://www.w3.org/2000/svg" width="16" height="16" viewBox="0 0 2048 2048">
  <g transform="translate(0, 2048) scale(1, -1)">
    <path fill="#000000" d="M2048 1024Q2048 883 2011.5 752.0Q1975 621 1908.0 507.5Q1841 394 1747.5 300.5Q1654 207 1540.5 140.0Q1427 73 1296.0 36.5Q1165 0 1024 0Q883 0 752.0 36.5Q621 73 507.5 140.0Q394 207 300.5 300.5Q207 394 140.0 507.5Q73 621 36.5 752.0Q0 883 0 1024Q0 1165 36.5 1296.0Q73 1427 140.0 1540.5Q207 1654 300.5 1747.5Q394 1841 507.5 1908.0Q621 1975 752.0 2011.5Q883 2048 1024 2048Q1135 2048 1241.5 2025.0Q1348 2002 1446.0 1957.5Q1544 1913 1631.5 1848.5Q1719 1784 1792 1701V1984Q1792 2010 1811.0 2029.0Q1830 2048 1856 2048Q1882 2048 1901.0 2029.0Q1920 2010 1920 1984V1472Q1920 1446 1901.0 1427.0Q1882 1408 1856 1408H1344Q1318 1408 1299.0 1427.0Q1280 1446 1280 1472Q1280 1498 1299.0 1517.0Q1318 1536 1344 1536H1760Q1697 1626 1615.5 1697.5Q1534 1769 1439.0 1818.5Q1344 1868 1239.0 1894.0Q1134 1920 1024 1920Q900 1920 785.5 1888.0Q671 1856 571.5 1797.5Q472 1739 390.5 1657.5Q309 1576 250.5 1476.5Q192 1377 160.0 1262.5Q128 1148 128 1024Q128 900 160.0 785.5Q192 671 250.5 571.5Q309 472 390.5 390.5Q472 309 571.5 250.5Q671 192 785.5 160.0Q900 128 1024 128Q1145 128 1258.5 158.5Q1372 189 1471.5 247.0Q1571 305 1654.0 387.5Q1737 470 1799 575Q1920 783 1920 1024Q1920 1050 1939.0 1069.0Q1958 1088 1984 1088Q2010 1088 2029.0 1069.0Q2048 1050 2048 1024ZM1554 1024Q1554 980 1531.5 942.5Q1509 905 1471 884L1005 629Q970 610 928 610Q894 610 865.0 622.5Q836 635 814.5 656.5Q793 678 780.5 707.5Q768 737 768 770V1278Q768 1311 780.5 1340.5Q793 1370 814.5 1391.5Q836 1413 865.5 1426.0Q895 1439 928 1439Q970 1439 1005 1419L1471 1164Q1509 1143 1531.5 1105.5Q1554 1068 1554 1024ZM1426 1024Q1426 1043 1410 1052L943 1306Q936 1310 928 1310Q914 1310 905.0 1301.0Q896 1292 896 1278V770Q896 756 905.0 747.0Q914 738 928 738Q936 738 943 742L1410 996Q1426 1005 1426 1024Z"/>
  </g>
</svg>