<?xml version="1.0" encoding="utf-8"?>
<svg xmlns="http://www.w3.org/2000/svg" width="16" height="16" viewBox="0 0 2048 2048">
  <g transform="translate(0, 2048) scale(1, -1)">
    <path fill="#000000" d="M341 393V1655Q341 1689 354.5 1720.5Q368 1752 391.0 1775.0Q414 1798 444.5 1812.0Q475 1826 510 1826Q555 1826 595 1804L1727 1173Q1768 1150 1791.0 1110.5Q1814 1071 1814 1024Q1814 977 1791.0 937.5Q1768 898 1727 875L595 244Q555 222 510 222Q475 222 444.5 236.0Q414 250 391.0 273.5Q368 297 354.5 328.0Q341 359 341 393ZM1701 1024Q1701 1041 1693.0 1053.5Q1685 1066 1671 1074L540 1705Q527 1712 511 1712Q488 1712 471.5 1695.0Q455 1678 455 1655V393Q455 370 471.5 353.0Q488 336 511 336Q527 336 540 343L1671 974Q1685 982 1693.0 994.5Q1701 1007 1701 1024Z"/>
  </g>
</svg>