<?xml version="1.0" encoding="utf-8"?>
<svg id="" width="16" height="16" style="width:16px;height:16px;" version="1.1" xmlns="http://www.w3.org/2000/svg" viewBox="0 0 2048 2048" enable-background="new 0 0 2048 2048" xml:space="preserve">
    <path fill="#ffffff" d="M302.55 2048 q-45.41 0 -85.15 -17.03 q-39.73 -17.03 -69.82 -46.54 q-30.08 -29.52 -47.11 -69.25 q-17.03 -39.74 -17.03 -85.15 l0 -1612.06 q0 -45.41 17.03 -85.15 q17.03 -39.73 46.54 -69.25 q29.52 -29.52 69.25 -46.55 q39.74 -17.03 85.15 -17.03 q27.25 0 54.49 6.81 q27.25 6.81 51.09 20.44 l1446.31 806.03 q52.23 29.51 81.75 80.03 q29.51 50.52 29.51 110.69 q0 61.3 -28.95 111.26 q-28.95 49.95 -82.31 79.46 l-1445.18 806.03 q-23.84 13.63 -51.09 20.44 q-27.24 6.81 -54.48 6.81 Z"/>
</svg>