<?xml version="1.0" encoding="utf-8"?>
<svg xmlns="http://www.w3.org/2000/svg" width="16" height="16" viewBox="0 0 2048 2048">
  <g transform="translate(0, 2048) scale(1, -1)">
    <path fill="#ffffff" d="M128 1153Q128 1277 160.0 1391.5Q192 1506 250.0 1605.5Q308 1705 390.0 1786.0Q472 1867 571.5 1924.5Q671 1982 785.5 2013.5Q900 2045 1024 2045Q1148 2045 1263.0 2013.5Q1378 1982 1477.5 1924.5Q1577 1867 1658.5 1786.0Q1740 1705 1798.0 1605.5Q1856 1506 1888.0 1392.0Q1920 1278 1920 1153Q1920 1062 1902.5 974.5Q1885 887 1850.5 805.5Q1816 724 1766.0 650.0Q1716 576 1651 512L1203 73Q1167 38 1121.0 19.0Q1075 0 1024 0Q973 0 927.0 19.0Q881 38 845 73L397 512Q267 640 197.5 805.5Q128 971 128 1153ZM1024 129Q1076 129 1114 165L1562 603Q1673 712 1732.5 855.0Q1792 998 1792 1153Q1792 1259 1764.5 1357.5Q1737 1456 1687.0 1541.0Q1637 1626 1567.0 1695.5Q1497 1765 1412.0 1814.5Q1327 1864 1228.5 1891.0Q1130 1918 1024 1918Q918 1918 819.5 1891.0Q721 1864 636.0 1814.0Q551 1764 481.0 1694.5Q411 1625 361.0 1540.0Q311 1455 283.5 1356.5Q256 1258 256 1152Q256 1075 271.5 999.5Q287 924 316.5 854.0Q346 784 389.0 720.5Q432 657 487 603L934 165Q952 147 975.0 138.0Q998 129 1024 129ZM640 1152V1160Q640 1238 671.0 1306.5Q702 1375 755.0 1426.0Q808 1477 877.5 1506.5Q947 1536 1024 1536Q1104 1536 1174.0 1506.0Q1244 1476 1296.0 1424.0Q1348 1372 1378.0 1302.0Q1408 1232 1408 1152Q1408 1072 1378.0 1002.0Q1348 932 1296.0 880.0Q1244 828 1174.0 798.0Q1104 768 1024 768Q944 768 874.0 798.0Q804 828 752.0 880.0Q700 932 670.0 1002.0Q640 1072 640 1152ZM1280 1152V1157Q1280 1209 1259.0 1254.5Q1238 1300 1203.0 1334.0Q1168 1368 1121.5 1388.0Q1075 1408 1024 1408Q971 1408 924.5 1387.5Q878 1367 843.5 1332.5Q809 1298 788.5 1251.0Q768 1204 768 1152Q768 1099 788.5 1052.5Q809 1006 843.5 971.5Q878 937 924.5 916.5Q971 896 1024 896Q1076 896 1123.0 916.5Q1170 937 1204.5 971.5Q1239 1006 1259.5 1052.5Q1280 1099 1280 1152Z"/>
  </g>
</svg>