<?xml version="1.0" encoding="utf-8"?>
<svg xmlns="http://www.w3.org/2000/svg" width="16" height="16" viewBox="0 0 2048 2048">
  <g transform="translate(0, 2048) scale(1, -1)">
    <path fill="#ffffff" d="M734 0Q696 0 661.0 14.5Q626 29 599 56L56 599Q30 625 15.0 661.0Q0 697 0 735Q0 773 15.0 809.0Q30 845 56 871L1177 1992Q1204 2019 1239.5 2033.5Q1275 2048 1313 2048Q1393 2048 1449 1992L1992 1449Q2048 1393 2048 1313Q2048 1275 2033.5 1239.5Q2019 1204 1992 1177L943 128H1088Q1114 128 1133.0 109.0Q1152 90 1152 64Q1152 38 1133.0 19.0Q1114 0 1088 0ZM1920 1313Q1920 1339 1901 1358L1358 1901Q1339 1920 1313 1920Q1287 1920 1268 1901L453 1086L1086 453L1901 1268Q1920 1287 1920 1313ZM735 127Q761 127 780 146L996 362L362 996L146 780Q128 762 128 735Q128 723 132.5 711.0Q137 699 146 690L690 146Q709 127 735 127ZM192 0Q166 0 147.0 19.0Q128 38 128 64Q128 90 147.0 109.0Q166 128 192 128H320Q346 128 365.0 109.0Q384 90 384 64Q384 38 365.0 19.0Q346 0 320 0ZM1344 0Q1318 0 1299.0 19.0Q1280 38 1280 64Q1280 90 1299.0 109.0Q1318 128 1344 128H1472Q1498 128 1517.0 109.0Q1536 90 1536 64Q1536 38 1517.0 19.0Q1498 0 1472 0ZM1728 0Q1702 0 1683.0 19.0Q1664 38 1664 64Q1664 90 1683.0 109.0Q1702 128 1728 128H1856Q1882 128 1901.0 109.0Q1920 90 1920 64Q1920 38 1901.0 19.0Q1882 0 1856 0Z"/>
  </g>
</svg>