<?xml version="1.0" encoding="utf-8"?>
<svg xmlns="http://www.w3.org/2000/svg" width="16" height="16" viewBox="0 0 2048 2048">
  <g transform="translate(0, 2048) scale(1, -1)">
    <path fill="#000000" d="M1162 258Q1120 258 1081.0 270.0Q1042 282 1008.5 304.0Q975 326 946.5 355.0Q918 384 896 419Q852 488 797.5 543.0Q743 598 676 645Q632 675 589.0 695.0Q546 715 502.0 728.5Q458 742 411.0 751.0Q364 760 313 768Q287 772 271.5 789.0Q256 806 256 832Q256 838 258 848Q271 906 300.0 951.0Q329 996 370.0 1027.0Q411 1058 462.5 1074.0Q514 1090 573 1090Q623 1090 671.5 1081.0Q720 1072 768 1056V1600Q768 1639 783.0 1674.0Q798 1709 824.5 1735.5Q851 1762 886.0 1777.0Q921 1792 960 1792Q999 1792 1034.0 1777.0Q1069 1762 1095.5 1735.5Q1122 1709 1137.0 1674.0Q1152 1639 1152 1600V1334L1528 1268Q1585 1258 1633.5 1229.0Q1682 1200 1717.5 1158.0Q1753 1116 1773.0 1063.5Q1793 1011 1793 953Q1793 897 1773 842L1647 500Q1617 419 1552.0 365.0Q1487 311 1402 296L1207 262Q1187 258 1162 258ZM1665 952Q1665 987 1653.0 1018.5Q1641 1050 1620.0 1075.5Q1599 1101 1569.5 1118.5Q1540 1136 1506 1142L1077 1217Q1054 1221 1039.0 1239.0Q1024 1257 1024 1280V1600Q1024 1626 1005.0 1645.0Q986 1664 960 1664Q934 1664 915.0 1645.0Q896 1626 896 1600V960Q896 933 877.5 914.5Q859 896 832 896Q823 896 817.0 897.5Q811 899 803 903Q749 928 692.5 945.0Q636 962 576 962Q523 962 481.0 945.0Q439 928 409 883Q601 848 749.5 750.0Q898 652 1004 487Q1017 467 1034.0 449.0Q1051 431 1072.0 417.0Q1093 403 1116.0 394.5Q1139 386 1164 386Q1169 386 1175.0 386.5Q1181 387 1186 388L1380 422Q1431 431 1470.0 464.0Q1509 497 1527 545L1653 886Q1665 917 1665 952Z"/>
  </g>
</svg>