<?xml version="1.0" encoding="utf-8"?>
<svg xmlns="http://www.w3.org/2000/svg" width="16" height="16" viewBox="0 0 2048 2048">
  <g transform="translate(0, 2048) scale(1, -1)">
    <path fill="#000000" d="M576 1920Q550 1920 531.0 1939.0Q512 1958 512 1984Q512 2010 531.0 2029.0Q550 2048 576 2048H1472Q1498 2048 1517.0 2029.0Q1536 2010 1536 1984Q1536 1958 1517.0 1939.0Q1498 1920 1472 1920ZM1910 1144Q1941 1135 1966.5 1117.5Q1992 1100 2010.0 1075.5Q2028 1051 2038.0 1021.5Q2048 992 2048 960V448Q2048 409 2033.0 374.0Q2018 339 1991.5 312.5Q1965 286 1930.0 271.0Q1895 256 1856 256H1792V128Q1792 75 1754 37Q1717 0 1664 0Q1610 0 1573 37Q1536 74 1536 128V256H512V128Q512 75 474 37Q437 0 384 0Q330 0 293 37Q256 74 256 128V256H192Q153 256 118.0 271.0Q83 286 56.5 312.5Q30 339 15.0 374.0Q0 409 0 448V960Q0 992 10.0 1021.5Q20 1051 38.0 1075.5Q56 1100 81.5 1117.5Q107 1135 138 1144L152 1216H96Q56 1216 28.0 1244.0Q0 1272 0 1312Q0 1352 28.0 1380.0Q56 1408 96 1408H191L216 1535Q227 1590 256.5 1637.5Q286 1685 328.0 1719.0Q370 1753 421.5 1772.5Q473 1792 530 1792H1518Q1575 1792 1626.5 1772.5Q1678 1753 1720.0 1719.0Q1762 1685 1791.5 1637.5Q1821 1590 1832 1535L1857 1408Q1871 1408 1886.0 1408.5Q1901 1409 1916 1409Q1938 1409 1960.0 1406.5Q1982 1404 2000.0 1395.0Q2018 1386 2030.5 1369.5Q2043 1353 2047 1325Q2048 1322 2048.0 1318.5Q2048 1315 2048 1312Q2048 1276 2024.0 1249.0Q2000 1222 1965 1217Q1957 1216 1950.0 1215.5Q1943 1215 1935 1215Q1925 1215 1915.0 1215.5Q1905 1216 1896 1216ZM270 1152H1778L1706 1510Q1699 1543 1681.5 1571.0Q1664 1599 1639.0 1620.0Q1614 1641 1583.0 1652.5Q1552 1664 1518 1664H530Q495 1664 464.0 1652.5Q433 1641 408.0 1620.5Q383 1600 366.0 1572.0Q349 1544 342 1510ZM658 384 742 637Q751 666 770 691Q761 699 754.5 707.5Q748 716 741 726L542 1024H192Q166 1024 147.0 1005.0Q128 986 128 960V448Q128 422 147.0 403.0Q166 384 192 384ZM1352 1024H696L847 797Q866 768 901 768H1148Q1182 768 1201 797ZM1920 960Q1920 986 1901.0 1005.0Q1882 1024 1856 1024H1506L1307 726Q1300 716 1293.5 707.5Q1287 699 1278 691Q1297 666 1306 637L1390 384H1856Q1882 384 1901.0 403.0Q1920 422 1920 448ZM512 704Q512 677 502.0 654.0Q492 631 474.5 613.5Q457 596 434.0 586.0Q411 576 384 576Q357 576 333.5 586.0Q310 596 293.0 613.0Q276 630 266.0 653.5Q256 677 256 704Q256 731 266.0 754.0Q276 777 293.5 794.5Q311 812 334.0 822.0Q357 832 384 832Q410 832 433.5 822.0Q457 812 474.5 794.5Q492 777 502.0 753.5Q512 730 512 704ZM1792 704Q1792 677 1782.0 654.0Q1772 631 1754.5 613.5Q1737 596 1714.0 586.0Q1691 576 1664 576Q1637 576 1613.5 586.0Q1590 596 1573.0 613.0Q1556 630 1546.0 653.5Q1536 677 1536 704Q1536 731 1546.0 754.0Q1556 777 1573.5 794.5Q1591 812 1614.0 822.0Q1637 832 1664 832Q1690 832 1713.5 822.0Q1737 812 1754.5 794.5Q1772 777 1782.0 753.5Q1792 730 1792 704ZM924 640Q904 640 887.0 627.5Q870 615 864 596L793 384H1255L1184 596Q1177 616 1161.5 628.0Q1146 640 1124 640Z"/>
  </g>
</svg>