<?xml version="1.0" encoding="utf-8"?>
<svg xmlns="http://www.w3.org/2000/svg" width="16" height="16" viewBox="0 0 2048 2048">
  <g transform="translate(0, 2048) scale(1, -1)">
    <path fill="#ffffff" d="M832 384Q793 384 758.0 399.0Q723 414 696.5 440.5Q670 467 655.0 502.0Q640 537 640 576V1472Q640 1511 655.0 1546.0Q670 1581 696.5 1607.5Q723 1634 758.0 1649.0Q793 1664 832 1664H1856Q1895 1664 1930.0 1649.0Q1965 1634 1991.5 1607.5Q2018 1581 2033.0 1546.0Q2048 1511 2048 1472V576Q2048 537 2033.0 502.0Q2018 467 1991.5 440.5Q1965 414 1930.0 399.0Q1895 384 1856 384ZM1856 512Q1882 512 1901.0 531.0Q1920 550 1920 576V1472Q1920 1498 1901.0 1517.0Q1882 1536 1856 1536H832Q806 1536 787.0 1517.0Q768 1498 768 1472V576Q768 550 787.0 531.0Q806 512 832 512ZM64 1280Q38 1280 19.0 1299.0Q0 1318 0 1344Q0 1370 19.0 1389.0Q38 1408 64 1408H448Q474 1408 493.0 1389.0Q512 1370 512 1344Q512 1318 493.0 1299.0Q474 1280 448 1280ZM960 1280Q934 1280 915.0 1299.0Q896 1318 896 1344Q896 1370 915.0 1389.0Q934 1408 960 1408H1728Q1754 1408 1773.0 1389.0Q1792 1370 1792 1344Q1792 1318 1773.0 1299.0Q1754 1280 1728 1280ZM192 1024Q166 1024 147.0 1043.0Q128 1062 128 1088Q128 1114 147.0 1133.0Q166 1152 192 1152H448Q474 1152 493.0 1133.0Q512 1114 512 1088Q512 1062 493.0 1043.0Q474 1024 448 1024ZM960 1024Q934 1024 915.0 1043.0Q896 1062 896 1088Q896 1114 915.0 1133.0Q934 1152 960 1152H1088Q1114 1152 1133.0 1133.0Q1152 1114 1152 1088Q1152 1062 1133.0 1043.0Q1114 1024 1088 1024ZM1408 640Q1381 640 1357.5 650.0Q1334 660 1317.0 677.0Q1300 694 1290.0 717.5Q1280 741 1280 768V1024Q1280 1051 1290.0 1074.0Q1300 1097 1317.5 1114.5Q1335 1132 1358.0 1142.0Q1381 1152 1408 1152H1664Q1690 1152 1713.5 1142.0Q1737 1132 1754.5 1114.5Q1772 1097 1782.0 1073.5Q1792 1050 1792 1024V768Q1792 741 1782.0 718.0Q1772 695 1754.5 677.5Q1737 660 1714.0 650.0Q1691 640 1664 640ZM1408 1024V768H1664V1024ZM320 768Q294 768 275.0 787.0Q256 806 256 832Q256 858 275.0 877.0Q294 896 320 896H448Q474 896 493.0 877.0Q512 858 512 832Q512 806 493.0 787.0Q474 768 448 768ZM960 768Q934 768 915.0 787.0Q896 806 896 832Q896 858 915.0 877.0Q934 896 960 896H1088Q1114 896 1133.0 877.0Q1152 858 1152 832Q1152 806 1133.0 787.0Q1114 768 1088 768Z"/>
  </g>
</svg>