<?xml version="1.0" encoding="utf-8"?>
<svg xmlns="http://www.w3.org/2000/svg" width="16" height="16" viewBox="0 0 2048 2048">
  <g transform="translate(0, 2048) scale(1, -1)">
    <path fill="#ffffff" d="M1088 1216Q1088 1190 1069.0 1171.0Q1050 1152 1024 1152Q998 1152 979.0 1171.0Q960 1190 960 1216V1984Q960 2010 979.0 2029.0Q998 2048 1024 2048Q1050 2048 1069.0 2029.0Q1088 2010 1088 1984ZM1856 960Q1856 1055 1835 1147Q1897 1168 1953 1203Q1968 1143 1976.0 1082.5Q1984 1022 1984 960Q1984 827 1949.5 704.5Q1915 582 1852.5 475.5Q1790 369 1702.5 281.5Q1615 194 1508.5 131.5Q1402 69 1279.0 34.5Q1156 0 1024 0Q891 0 768.5 34.5Q646 69 539.5 131.5Q433 194 345.5 281.5Q258 369 195.5 475.5Q133 582 98.5 705.0Q64 828 64 960Q64 1087 96.5 1208.0Q129 1329 190.5 1437.0Q252 1545 339.5 1634.5Q427 1724 537 1788Q552 1797 569 1797Q596 1797 615.0 1778.0Q634 1759 634 1732Q634 1713 626.0 1701.0Q618 1689 603 1678Q571 1655 539.0 1634.0Q507 1613 477 1587Q409 1528 356.0 1456.5Q303 1385 266.5 1304.5Q230 1224 211.0 1137.0Q192 1050 192 960Q192 845 222.0 739.0Q252 633 306.0 540.5Q360 448 436.0 372.0Q512 296 604.5 242.0Q697 188 803.0 158.0Q909 128 1024 128Q1139 128 1245.0 158.0Q1351 188 1443.5 242.0Q1536 296 1612.0 372.0Q1688 448 1742.0 540.5Q1796 633 1826.0 739.0Q1856 845 1856 960Z"/>
  </g>
</svg>