<?xml version="1.0" encoding="utf-8"?>
<svg id="" width="16" height="16" style="width:16px;height:16px;" version="1.1" xmlns="http://www.w3.org/2000/svg" viewBox="0 0 2048 2048" enable-background="new 0 0 2048 2048" xml:space="preserve">
    <path fill="#ffffff" d="M960 832 l0 -768 q0 -26 19 -45 q19 -19 45 -19 q26 0 45 19 q19 19 19 45 l0 768 q0 26 -19 45 q-19 19 -45 19 q-26 0 -45 -19 q-19 -19 -19 -45 ZM64 1088 q0 -125 33 -246.5 q33 -121.5 94.5 -230 q61.5 -108.5 149 -199 q87.5 -90.5 196.5 -152.5 q15 -9 33 -9 q26 0 45 19 q19 19 19 45 q0 20 -8.5 32 q-8.5 12 -23.5 23 q-35 24 -68.5 46.5 q-33.5 22.5 -65.5 51.5 q-64 58 -115 129 q-51 71 -87 150 q-36 79 -55 164 q-19 85 -19 172 q0 116 29.5 222.5 q29.5 106.5 83 199.5 q53.5 93 129.5 169.5 q76 76.5 168.5 131 q92.5 54.5 199 84.5 q106.5 30 222.5 30 q116 0 222.5 -30 q106.5 -30 199 -84.5 q92.5 -54.5 168.5 -131 q76 -76.5 129.5 -169.5 q53.5 -93 83 -200 q29.5 -107 29.5 -222 q0 -87 -19 -172 q-19 -85 -55 -164 q-36 -79 -87 -150 q-51 -71 -115 -129 q-32 -29 -65.5 -51.5 q-33.5 -22.5 -68.5 -46.5 q-15 -11 -23.5 -23 q-8.5 -12 -8.5 -32 q0 -26 19 -45 q19 -19 45 -19 q18 0 33 9 q109 62 196.5 152.5 q87.5 90.5 149 199 q61.5 108.5 94.5 230 q33 121.5 33 246.5 q0 132 -34.5 254.5 q-34.5 122.5 -97 229.5 q-62.5 107 -150 194.5 q-87.5 87.5 -194.5 150 q-107 62.5 -229.5 97 q-122.5 34.5 -254.5 34.5 q-133 0 -255.5 -34.5 q-122.5 -34.5 -229 -97 q-106.5 -62.5 -194 -150 q-87.5 -87.5 -150 -194 q-62.5 -106.5 -97 -229.5 q-34.5 -123 -34.5 -255 Z"/>
</svg>