<?xml version="1.0" encoding="utf-8"?>
<svg xmlns="http://www.w3.org/2000/svg" width="16" height="16" viewBox="0 0 2048 2048">
  <g transform="translate(0, 2048) scale(1, -1)">
    <path fill="#ffffff" d="M960 1216V1984Q960 2010 979.0 2029.0Q998 2048 1024 2048Q1050 2048 1069.0 2029.0Q1088 2010 1088 1984V1216Q1088 1190 1069.0 1171.0Q1050 1152 1024 1152Q998 1152 979.0 1171.0Q960 1190 960 1216ZM64 968Q64 1092 97.5 1212.5Q131 1333 192.5 1440.5Q254 1548 341.5 1637.0Q429 1726 537 1788Q552 1797 570 1797Q596 1797 615.0 1778.0Q634 1759 634 1733Q634 1713 625.5 1700.5Q617 1688 602 1677Q566 1651 534.5 1631.0Q503 1611 469 1580Q403 1521 351.5 1450.0Q300 1379 264.5 1299.5Q229 1220 210.5 1134.0Q192 1048 192 960Q192 808 243.0 671.5Q294 535 385.5 426.0Q477 317 603.0 242.5Q729 168 878 141Q907 101 941.5 66.0Q976 31 1014 0Q880 1 757.5 36.5Q635 72 529.5 135.5Q424 199 338.0 287.0Q252 375 191.0 482.0Q130 589 97.0 712.0Q64 835 64 968ZM1812 1229Q1774 1343 1704.5 1440.5Q1635 1538 1541 1613Q1518 1631 1494.0 1645.5Q1470 1660 1446 1677Q1431 1688 1422.5 1701.0Q1414 1714 1414 1733Q1414 1759 1433.0 1778.0Q1452 1797 1478 1797Q1496 1797 1511 1788Q1601 1738 1678.0 1665.0Q1755 1592 1814.5 1503.5Q1874 1415 1914.0 1316.0Q1954 1217 1971 1117Q1935 1149 1895.5 1177.5Q1856 1206 1812 1229Z"/>
  </g>
</svg>