<?xml version="1.0" encoding="utf-8"?>
<svg xmlns="http://www.w3.org/2000/svg" width="16" height="16" viewBox="0 0 2048 2048">
  <g transform="translate(0, 2048) scale(1, -1)">
    <path fill="#ffffff" d="M1416 2048Q1491 2048 1559.5 2017.5Q1628 1987 1679.5 1935.5Q1731 1884 1761.5 1815.5Q1792 1747 1792 1672V504Q1792 429 1761.5 360.5Q1731 292 1679.5 240.5Q1628 189 1559.5 158.5Q1491 128 1416 128H504Q429 128 360.5 158.5Q292 189 240.5 240.5Q189 292 158.5 360.5Q128 429 128 504V1672Q128 1747 158.5 1815.5Q189 1884 240.5 1935.5Q292 1987 360.5 2017.5Q429 2048 504 2048ZM1664 1669Q1664 1719 1643.5 1764.5Q1623 1810 1588.5 1844.5Q1554 1879 1508.5 1899.5Q1463 1920 1413 1920H507Q457 1920 411.5 1899.5Q366 1879 331.5 1844.5Q297 1810 276.5 1764.5Q256 1719 256 1669V507Q256 457 276.5 411.5Q297 366 331.5 331.5Q366 297 411.5 276.5Q457 256 507 256H1413Q1463 256 1508.5 276.5Q1554 297 1588.5 331.5Q1623 366 1643.5 411.5Q1664 457 1664 507ZM1408 1664Q1434 1664 1457.5 1654.0Q1481 1644 1498.5 1626.5Q1516 1609 1526.0 1585.5Q1536 1562 1536 1536V1280Q1536 1253 1526.0 1230.0Q1516 1207 1498.5 1189.5Q1481 1172 1458.0 1162.0Q1435 1152 1408 1152H512Q485 1152 461.5 1162.0Q438 1172 421.0 1189.0Q404 1206 394.0 1229.5Q384 1253 384 1280V1536Q384 1563 394.0 1586.0Q404 1609 421.5 1626.5Q439 1644 462.0 1654.0Q485 1664 512 1664ZM896 1536H512V1280H896ZM1024 1280H1408V1536H1024ZM1408 1024Q1434 1024 1457.5 1014.0Q1481 1004 1498.5 986.5Q1516 969 1526.0 945.5Q1536 922 1536 896V640Q1536 613 1526.0 590.0Q1516 567 1498.5 549.5Q1481 532 1458.0 522.0Q1435 512 1408 512H512Q485 512 461.5 522.0Q438 532 421.0 549.0Q404 566 394.0 589.5Q384 613 384 640V896Q384 923 394.0 946.0Q404 969 421.5 986.5Q439 1004 462.0 1014.0Q485 1024 512 1024ZM896 896H512V640H896ZM1024 640H1408V896H1024Z"/>
  </g>
</svg>