<?xml version="1.0" encoding="utf-8"?>
<svg xmlns="http://www.w3.org/2000/svg" width="16" height="16" viewBox="0 0 2048 2048">
  <g transform="translate(0, 2048) scale(1, -1)">
    <path fill="#ffffff" d="M1416 2048Q1491 2048 1559.5 2017.5Q1628 1987 1679.5 1935.5Q1731 1884 1761.5 1815.5Q1792 1747 1792 1672V504Q1792 429 1761.5 360.5Q1731 292 1679.5 240.5Q1628 189 1559.5 158.5Q1491 128 1416 128H504Q429 128 360.5 158.5Q292 189 240.5 240.5Q189 292 158.5 360.5Q128 429 128 504V1672Q128 1747 158.5 1815.5Q189 1884 240.5 1935.5Q292 1987 360.5 2017.5Q429 2048 504 2048ZM1664 1669Q1664 1719 1643.5 1764.5Q1623 1810 1588.5 1844.5Q1554 1879 1508.5 1899.5Q1463 1920 1413 1920H507Q457 1920 411.5 1899.5Q366 1879 331.5 1844.5Q297 1810 276.5 1764.5Q256 1719 256 1669V507Q256 457 276.5 411.5Q297 366 331.5 331.5Q366 297 411.5 276.5Q457 256 507 256H1413Q1463 256 1508.5 276.5Q1554 297 1588.5 331.5Q1623 366 1643.5 411.5Q1664 457 1664 507ZM1408 1792Q1434 1792 1457.5 1782.0Q1481 1772 1498.5 1754.5Q1516 1737 1526.0 1713.5Q1536 1690 1536 1664V512Q1536 485 1526.0 462.0Q1516 439 1498.5 421.5Q1481 404 1458.0 394.0Q1435 384 1408 384H512Q485 384 461.5 394.0Q438 404 421.0 421.0Q404 438 394.0 461.5Q384 485 384 512V1664Q384 1691 394.0 1714.0Q404 1737 421.5 1754.5Q439 1772 462.0 1782.0Q485 1792 512 1792ZM896 1152V1664H512V1152ZM1024 1152H1408V1664H1024ZM896 1024H512V512H896ZM1024 1024V512H1408V1024Z"/>
  </g>
</svg>