<?xml version="1.0" encoding="utf-8"?>
<svg xmlns="http://www.w3.org/2000/svg" width="16" height="16" viewBox="0 0 2048 2048">
  <g transform="translate(0, 2048) scale(1, -1)">
    <path fill="#000000" d="M504 128Q429 128 360.5 158.5Q292 189 240.5 240.5Q189 292 158.5 360.5Q128 429 128 504V1672Q128 1747 158.5 1815.5Q189 1884 240.5 1935.5Q292 1987 360.5 2017.5Q429 2048 504 2048H1416Q1491 2048 1559.5 2017.5Q1628 1987 1679.5 1935.5Q1731 1884 1761.5 1815.5Q1792 1747 1792 1672V504Q1792 429 1761.5 360.5Q1731 292 1679.5 240.5Q1628 189 1559.5 158.5Q1491 128 1416 128ZM1413 256Q1463 256 1508.5 276.5Q1554 297 1588.5 331.5Q1623 366 1643.5 411.5Q1664 457 1664 507V1669Q1664 1719 1643.5 1764.5Q1623 1810 1588.5 1844.5Q1554 1879 1508.5 1899.5Q1463 1920 1413 1920H507Q457 1920 411.5 1899.5Q366 1879 331.5 1844.5Q297 1810 276.5 1764.5Q256 1719 256 1669V507Q256 457 276.5 411.5Q297 366 331.5 331.5Q366 297 411.5 276.5Q457 256 507 256ZM512 384Q485 384 461.5 394.0Q438 404 421.0 421.0Q404 438 394.0 461.5Q384 485 384 512V1669Q384 1696 394.0 1719.0Q404 1742 421.5 1759.5Q439 1777 462.0 1787.0Q485 1797 512 1797H1407Q1433 1797 1456.5 1787.0Q1480 1777 1497.5 1759.5Q1515 1742 1525.0 1718.5Q1535 1695 1535 1669V512Q1535 485 1525.0 462.0Q1515 439 1497.5 421.5Q1480 404 1457.0 394.0Q1434 384 1407 384ZM512 1669V512H1407V1669Z"/>
  </g>
</svg>