<?xml version="1.0" encoding="utf-8"?>
<svg xmlns="http://www.w3.org/2000/svg" width="16" height="16" viewBox="0 0 2048 2048">
  <g transform="translate(0, 2048) scale(1, -1)">
    <path fill="#ffffff" d="M376 256Q301 256 232.5 286.5Q164 317 112.5 368.5Q61 420 30.5 488.5Q0 557 0 632V1544Q0 1619 30.5 1687.5Q61 1756 112.5 1807.5Q164 1859 232.5 1889.5Q301 1920 376 1920H1544Q1619 1920 1687.5 1889.5Q1756 1859 1807.5 1807.5Q1859 1756 1889.5 1687.5Q1920 1619 1920 1544V632Q1920 557 1889.5 488.5Q1859 420 1807.5 368.5Q1756 317 1687.5 286.5Q1619 256 1544 256ZM1541 384Q1591 384 1636.5 404.5Q1682 425 1716.5 459.5Q1751 494 1771.5 539.5Q1792 585 1792 635V1541Q1792 1591 1771.5 1636.5Q1751 1682 1716.5 1716.5Q1682 1751 1636.5 1771.5Q1591 1792 1541 1792H379Q329 1792 283.5 1771.5Q238 1751 203.5 1716.5Q169 1682 148.5 1636.5Q128 1591 128 1541V635Q128 585 148.5 539.5Q169 494 203.5 459.5Q238 425 283.5 404.5Q329 384 379 384ZM384 512Q357 512 333.5 522.0Q310 532 293.0 549.0Q276 566 266.0 589.5Q256 613 256 640V1536Q256 1563 266.0 1586.0Q276 1609 293.5 1626.5Q311 1644 334.0 1654.0Q357 1664 384 1664H1536Q1562 1664 1585.5 1654.0Q1609 1644 1626.5 1626.5Q1644 1609 1654.0 1585.5Q1664 1562 1664 1536V640Q1664 613 1654.0 590.0Q1644 567 1626.5 549.5Q1609 532 1586.0 522.0Q1563 512 1536 512ZM384 1536V640H1536V1536Z"/>
  </g>
</svg>