<?xml version="1.0" encoding="utf-8"?>
<svg xmlns="http://www.w3.org/2000/svg" width="16" height="16" viewBox="0 0 2048 2048">
  <g transform="translate(0, 2048) scale(1, -1)">
    <path fill="#000000" d="M1544 1920Q1619 1920 1687.5 1889.5Q1756 1859 1807.5 1807.5Q1859 1756 1889.5 1687.5Q1920 1619 1920 1544V632Q1920 557 1889.5 488.5Q1859 420 1807.5 368.5Q1756 317 1687.5 286.5Q1619 256 1544 256H376Q301 256 232.5 286.5Q164 317 112.5 368.5Q61 420 30.5 488.5Q0 557 0 632V1544Q0 1619 30.5 1687.5Q61 1756 112.5 1807.5Q164 1859 232.5 1889.5Q301 1920 376 1920ZM1792 1541Q1792 1591 1771.5 1636.5Q1751 1682 1716.5 1716.5Q1682 1751 1636.5 1771.5Q1591 1792 1541 1792H379Q329 1792 283.5 1771.5Q238 1751 203.5 1716.5Q169 1682 148.5 1636.5Q128 1591 128 1541V635Q128 585 148.5 539.5Q169 494 203.5 459.5Q238 425 283.5 404.5Q329 384 379 384H1541Q1591 384 1636.5 404.5Q1682 425 1716.5 459.5Q1751 494 1771.5 539.5Q1792 585 1792 635ZM1536 1408Q1562 1408 1585.5 1398.0Q1609 1388 1626.5 1370.5Q1644 1353 1654.0 1329.5Q1664 1306 1664 1280V896Q1664 869 1654.0 846.0Q1644 823 1626.5 805.5Q1609 788 1586.0 778.0Q1563 768 1536 768H384Q357 768 333.5 778.0Q310 788 293.0 805.0Q276 822 266.0 845.5Q256 869 256 896V1280Q256 1307 266.0 1330.0Q276 1353 293.5 1370.5Q311 1388 334.0 1398.0Q357 1408 384 1408ZM896 1280H384V896H896ZM1024 896H1536V1280H1024Z"/>
  </g>
</svg>