<?xml version="1.0" encoding="utf-8"?>
<svg xmlns="http://www.w3.org/2000/svg" width="16" height="16" viewBox="0 0 2048 2048">
  <g transform="translate(0, 2048) scale(1, -1)">
    <path fill="#000000" d="M256 320Q217 320 182.0 335.0Q147 350 120.5 376.5Q94 403 79.0 438.0Q64 473 64 512V1536Q64 1575 79.0 1610.0Q94 1645 120.5 1671.5Q147 1698 182.0 1713.0Q217 1728 256 1728H1280Q1319 1728 1354.0 1713.0Q1389 1698 1415.5 1671.5Q1442 1645 1457.0 1610.0Q1472 1575 1472 1536V1216L1882 1523Q1898 1536 1920 1536Q1947 1536 1965.5 1517.5Q1984 1499 1984 1472V576Q1984 549 1965.5 530.5Q1947 512 1920 512Q1898 512 1882 525L1472 832V512Q1472 473 1457.0 438.0Q1442 403 1415.5 376.5Q1389 350 1354.0 335.0Q1319 320 1280 320Z"/>
  </g>
</svg>