<?xml version="1.0" encoding="utf-8"?>
<svg xmlns="http://www.w3.org/2000/svg" width="16" height="16" viewBox="0 0 2048 2048">
  <g transform="translate(0, 2048) scale(1, -1)">
    <path fill="#ffffff" d="M128 192V1856Q128 1882 147.0 1901.0Q166 1920 192 1920Q218 1920 237.0 1901.0Q256 1882 256 1856V192Q256 166 237.0 147.0Q218 128 192 128Q166 128 147.0 147.0Q128 166 128 192ZM511 1024Q511 1065 530.0 1100.0Q549 1135 583 1158L1672 1875Q1713 1902 1760 1902Q1792 1902 1821.0 1889.0Q1850 1876 1872.0 1854.0Q1894 1832 1907.0 1803.0Q1920 1774 1920 1742V306Q1920 273 1907.0 244.0Q1894 215 1872.5 193.5Q1851 172 1822.0 159.0Q1793 146 1760 146Q1712 146 1672 173L583 890Q549 912 530.0 947.5Q511 983 511 1024ZM1792 306V1742Q1792 1755 1782.5 1764.5Q1773 1774 1760 1774Q1751 1774 1742 1768L653 1051Q639 1042 639 1024Q639 1016 642.5 1009.0Q646 1002 653 997L1742 280Q1752 274 1762 274Q1774 274 1783.0 284.0Q1792 294 1792 306Z"/>
  </g>
</svg>