<?xml version="1.0" encoding="utf-8"?>
<svg xmlns="http://www.w3.org/2000/svg" width="16" height="16" viewBox="0 0 2048 2048">
  <g transform="translate(0, 2048) scale(1, -1)">
    <path fill="#000000" d="M313 128Q250 128 193.0 153.5Q136 179 93.5 221.5Q51 264 25.5 321.0Q0 378 0 441V1607Q0 1670 25.5 1727.0Q51 1784 93.5 1826.5Q136 1869 193.0 1894.5Q250 1920 313 1920H1735Q1798 1920 1855.0 1894.5Q1912 1869 1954.5 1826.5Q1997 1784 2022.5 1727.0Q2048 1670 2048 1607V441Q2048 378 2022.5 321.0Q1997 264 1954.5 221.5Q1912 179 1855.0 153.5Q1798 128 1735 128ZM1728 256Q1767 256 1802.0 271.0Q1837 286 1863.5 312.5Q1890 339 1905.0 374.0Q1920 409 1920 448V1600Q1920 1639 1905.0 1674.0Q1890 1709 1863.5 1735.5Q1837 1762 1802.0 1777.0Q1767 1792 1728 1792H320Q281 1792 246.0 1777.0Q211 1762 184.5 1735.5Q158 1709 143.0 1674.0Q128 1639 128 1600V448Q128 409 143.0 374.0Q158 339 184.5 312.5Q211 286 246.0 271.0Q281 256 320 256ZM320 1152Q294 1152 275.0 1171.0Q256 1190 256 1216V1600Q256 1626 275.0 1645.0Q294 1664 320 1664H1728Q1754 1664 1773.0 1645.0Q1792 1626 1792 1600V1216Q1792 1190 1773.0 1171.0Q1754 1152 1728 1152ZM384 1536V1280H1664V1536ZM1216 384Q1190 384 1171.0 403.0Q1152 422 1152 448V960Q1152 986 1171.0 1005.0Q1190 1024 1216 1024H1728Q1754 1024 1773.0 1005.0Q1792 986 1792 960V448Q1792 422 1773.0 403.0Q1754 384 1728 384ZM320 768Q294 768 275.0 787.0Q256 806 256 832Q256 858 275.0 877.0Q294 896 320 896H961Q987 896 1006.0 877.0Q1025 858 1025 832Q1025 806 1006.0 787.0Q987 768 961 768ZM1280 896V512H1664V896ZM320 512Q294 512 275.0 531.0Q256 550 256 576Q256 602 275.0 621.0Q294 640 320 640H961Q987 640 1006.0 621.0Q1025 602 1025 576Q1025 550 1006.0 531.0Q987 512 961 512Z"/>
  </g>
</svg>