<?xml version="1.0" encoding="utf-8"?>
<svg xmlns="http://www.w3.org/2000/svg" width="16" height="16" viewBox="0 0 2048 2048">
  <g transform="translate(0, 2048) scale(1, -1)">
    <path fill="#000000" d="M439 1905Q413 1905 393.5 1923.5Q374 1942 374 1969Q374 1994 388.5 2009.5Q403 2025 424.0 2033.5Q445 2042 469.0 2045.0Q493 2048 512 2048H640Q666 2048 685.0 2029.0Q704 2010 704 1984Q704 1958 685.0 1939.0Q666 1920 640 1920H512Q492 1920 475.0 1912.5Q458 1905 439 1905ZM1792 1280V1024Q1792 998 1773.0 979.0Q1754 960 1728 960Q1702 960 1683.0 979.0Q1664 998 1664 1024V1280H1275Q1223 1280 1177.5 1301.0Q1132 1322 1098.0 1357.0Q1064 1392 1044.0 1438.5Q1024 1485 1024 1536V1920H896Q870 1920 851.0 1939.0Q832 1958 832 1984Q832 2010 851.0 2029.0Q870 2048 896 2048H1024Q1067 2048 1108.0 2031.0Q1149 2014 1179 1984L1728 1435Q1758 1405 1775.0 1364.0Q1792 1323 1792 1280ZM256 1600V1792Q256 1811 259.0 1835.0Q262 1859 270.5 1880.0Q279 1901 294.5 1915.5Q310 1930 335 1930Q362 1930 380.5 1910.5Q399 1891 399 1865Q399 1846 391.5 1829.0Q384 1812 384 1792V1600Q384 1574 365.0 1555.0Q346 1536 320 1536Q294 1536 275.0 1555.0Q256 1574 256 1600ZM1152 1536Q1152 1509 1162.0 1485.5Q1172 1462 1189.0 1445.0Q1206 1428 1229.5 1418.0Q1253 1408 1280 1408H1574L1152 1830ZM256 832V1216Q256 1242 275.0 1261.0Q294 1280 320 1280Q346 1280 365.0 1261.0Q384 1242 384 1216V832Q384 806 365.0 787.0Q346 768 320 768Q294 768 275.0 787.0Q256 806 256 832ZM1792 512V256Q1792 237 1789.0 213.0Q1786 189 1777.5 168.0Q1769 147 1753.5 132.5Q1738 118 1713 118Q1686 118 1667.5 137.5Q1649 157 1649 183Q1649 202 1656.5 219.0Q1664 236 1664 256V512Q1664 538 1683.0 557.0Q1702 576 1728 576Q1754 576 1773.0 557.0Q1792 538 1792 512ZM399 183Q399 157 380.5 137.5Q362 118 335 118Q310 118 294.5 132.5Q279 147 270.5 168.0Q262 189 259.0 213.0Q256 237 256 256V448Q256 474 275.0 493.0Q294 512 320 512Q346 512 365.0 493.0Q384 474 384 448V256Q384 236 391.5 219.0Q399 202 399 183ZM832 64Q832 38 813.0 19.0Q794 0 768 0H512Q493 0 469.0 3.0Q445 6 424.0 14.5Q403 23 388.5 38.5Q374 54 374 79Q374 106 393.5 124.5Q413 143 439 143Q458 143 475.0 135.5Q492 128 512 128H768Q794 128 813.0 109.0Q832 90 832 64ZM1609 143Q1635 143 1654.5 124.5Q1674 106 1674 79Q1674 54 1659.5 38.5Q1645 23 1624.0 14.5Q1603 6 1579.0 3.0Q1555 0 1536 0H1280Q1254 0 1235.0 19.0Q1216 38 1216 64Q1216 90 1235.0 109.0Q1254 128 1280 128H1536Q1556 128 1573.0 135.5Q1590 143 1609 143Z"/>
  </g>
</svg>