<?xml version="1.0" encoding="utf-8"?>
<svg xmlns="http://www.w3.org/2000/svg" width="16" height="16" viewBox="0 0 2048 2048">
  <g transform="translate(0, 2048) scale(1, -1)">
    <path fill="#000000" d="M1792 1265V251Q1792 201 1771.5 155.5Q1751 110 1716.5 75.5Q1682 41 1636.5 20.5Q1591 0 1541 0H507Q457 0 411.5 20.5Q366 41 331.5 75.5Q297 110 276.5 155.5Q256 201 256 251V1797Q256 1847 276.5 1892.5Q297 1938 331.5 1972.5Q366 2007 411.5 2027.5Q457 2048 507 2048H1009Q1060 2048 1107.0 2028.5Q1154 2009 1190 1973L1717 1446Q1753 1410 1772.5 1363.0Q1792 1316 1792 1265ZM1664 1265Q1664 1275 1663 1280H1275Q1223 1280 1177.5 1301.0Q1132 1322 1098.0 1357.0Q1064 1392 1044.0 1438.5Q1024 1485 1024 1536V1919Q1019 1920 1009 1920H512Q485 1920 462.0 1910.0Q439 1900 421.5 1882.5Q404 1865 394.0 1842.0Q384 1819 384 1792V256Q384 229 394.0 205.5Q404 182 421.0 165.0Q438 148 461.5 138.0Q485 128 512 128H1536Q1563 128 1586.0 138.0Q1609 148 1626.5 165.5Q1644 183 1654.0 206.0Q1664 229 1664 256ZM1574 1408 1152 1830V1536Q1152 1509 1162.0 1485.5Q1172 1462 1189.0 1445.0Q1206 1428 1229.5 1418.0Q1253 1408 1280 1408ZM1280 1024H1285Q1335 1024 1380.5 1003.5Q1426 983 1460.5 948.5Q1495 914 1515.5 868.5Q1536 823 1536 773V512Q1536 485 1526.0 462.0Q1516 439 1498.5 421.5Q1481 404 1458.0 394.0Q1435 384 1408 384H1280Q1280 357 1270.0 334.0Q1260 311 1242.5 293.5Q1225 276 1202.0 266.0Q1179 256 1152 256H896Q869 256 845.5 266.0Q822 276 805.0 293.0Q788 310 778.0 333.5Q768 357 768 384H640Q586 384 549 421Q512 458 512 512V773Q512 822 532.0 867.0Q552 912 586.5 947.0Q621 982 665.5 1003.0Q710 1024 760 1024H768V1152Q768 1203 805 1242Q841 1280 896 1280H1152Q1178 1280 1201.0 1270.0Q1224 1260 1242 1242Q1260 1224 1270.0 1201.0Q1280 1178 1280 1152ZM1152 1152H896V1024H1152ZM1408 512V768Q1408 794 1398.0 817.5Q1388 841 1370.5 858.5Q1353 876 1329.5 886.0Q1306 896 1280 896H768Q741 896 718.0 886.0Q695 876 677.5 858.5Q660 841 650.0 818.0Q640 795 640 768V512H768Q768 539 778.0 562.0Q788 585 805.5 602.5Q823 620 846.0 630.0Q869 640 896 640H1152Q1178 640 1201.5 630.0Q1225 620 1242.5 602.5Q1260 585 1270.0 561.5Q1280 538 1280 512ZM896 384H1152V512H896Z"/>
  </g>
</svg>