<?xml version="1.0" encoding="utf-8"?>
<svg xmlns="http://www.w3.org/2000/svg" width="16" height="16" viewBox="0 0 2048 2048">
  <g transform="translate(0, 2048) scale(1, -1)">
    <path fill="#ffffff" d="M2048 1344V1034Q2020 1069 1988.0 1101.0Q1956 1133 1920 1160V1344Q1920 1382 1905.5 1417.5Q1891 1453 1864 1480Q1837 1507 1801.5 1521.5Q1766 1536 1728 1536H320Q280 1536 245.0 1521.0Q210 1506 184.0 1480.0Q158 1454 143.0 1419.0Q128 1384 128 1344V704Q128 678 147.0 659.0Q166 640 192 640H384V832Q384 871 399.0 906.0Q414 941 440.5 967.5Q467 994 502.0 1009.0Q537 1024 576 1024H888Q865 994 845.5 962.0Q826 930 809 896H576Q550 896 531.0 877.0Q512 858 512 832V320Q512 294 531.0 275.0Q550 256 576 256H809Q826 222 845.5 190.0Q865 158 888 128H576Q537 128 502.0 143.0Q467 158 440.5 184.5Q414 211 399.0 246.0Q384 281 384 320V512H192Q154 512 118.5 526.5Q83 541 56 568Q29 595 14.5 630.5Q0 666 0 704V1344Q0 1410 25.0 1468.0Q50 1526 93.5 1569.5Q137 1613 195.5 1638.5Q254 1664 320 1664H384V1728Q384 1768 399.0 1803.0Q414 1838 440.0 1864.0Q466 1890 501.0 1905.0Q536 1920 576 1920H1472Q1512 1920 1547.0 1905.0Q1582 1890 1608.0 1864.0Q1634 1838 1649.0 1803.0Q1664 1768 1664 1728V1664H1728Q1794 1664 1852.0 1638.5Q1910 1613 1953.5 1569.5Q1997 1526 2022.5 1468.0Q2048 1410 2048 1344ZM512 1664H1536V1728Q1536 1754 1517.0 1773.0Q1498 1792 1472 1792H576Q550 1792 531.0 1773.0Q512 1754 512 1728ZM2048 576Q2048 457 2002.5 352.0Q1957 247 1879.0 169.0Q1801 91 1696.0 45.5Q1591 0 1472 0Q1352 0 1247.0 45.0Q1142 90 1064.0 168.0Q986 246 941.0 351.0Q896 456 896 576Q896 695 941.5 800.0Q987 905 1065.0 983.0Q1143 1061 1248.0 1106.5Q1353 1152 1472 1152Q1551 1152 1624.5 1131.5Q1698 1111 1762.0 1073.5Q1826 1036 1879.0 983.0Q1932 930 1969.5 866.0Q2007 802 2027.5 728.5Q2048 655 2048 576ZM1864 768Q1864 798 1843.0 819.0Q1822 840 1792 840Q1762 840 1741 819L1344 422L1203 563Q1182 584 1152 584Q1122 584 1101.0 563.0Q1080 542 1080 512Q1080 482 1101 461L1293 269Q1314 248 1344 248Q1374 248 1395 269L1843 717Q1864 738 1864 768Z"/>
  </g>
</svg>