<?xml version="1.0" encoding="utf-8"?>
<svg xmlns="http://www.w3.org/2000/svg" width="16" height="16" viewBox="0 0 2048 2048">
  <g transform="translate(0, 2048) scale(1, -1)">
    <path fill="#ffffff" d="M1280 704Q1280 665 1265.0 630.0Q1250 595 1223.5 568.5Q1197 542 1162.0 527.0Q1127 512 1088 512H320Q281 512 246.0 527.0Q211 542 184.5 568.5Q158 595 143.0 630.0Q128 665 128 704V1856Q128 1895 143.0 1930.0Q158 1965 184.5 1991.5Q211 2018 246.0 2033.0Q281 2048 320 2048H651Q689 2048 724.5 2033.5Q760 2019 787 1992L1224 1555Q1251 1528 1265.5 1492.5Q1280 1457 1280 1419ZM256 704Q256 678 275.0 659.0Q294 640 320 640H1088Q1114 640 1133.0 659.0Q1152 678 1152 704V1408H832Q793 1408 758.0 1423.0Q723 1438 696.5 1464.5Q670 1491 655.0 1526.0Q640 1561 640 1600V1920H320Q294 1920 275.0 1901.0Q256 1882 256 1856ZM1061 1536 768 1829V1600Q768 1574 787.0 1555.0Q806 1536 832 1536ZM1536 569Q1536 506 1510.5 449.0Q1485 392 1442.5 349.5Q1400 307 1343.0 281.5Q1286 256 1223 256H576Q545 256 517.0 265.0Q489 274 465.0 291.0Q441 308 423.0 331.5Q405 355 395 384H1216Q1255 384 1290.0 399.0Q1325 414 1351.5 440.5Q1378 467 1393.0 502.0Q1408 537 1408 576V1371Q1432 1347 1455.0 1325.5Q1478 1304 1496.0 1280.0Q1514 1256 1525.0 1227.5Q1536 1199 1536 1163ZM960 1280Q986 1280 1005.0 1261.0Q1024 1242 1024 1216Q1024 1190 1005.0 1171.0Q986 1152 960 1152H448Q422 1152 403.0 1171.0Q384 1190 384 1216Q384 1242 403.0 1261.0Q422 1280 448 1280ZM1792 907V440Q1792 351 1756.5 271.0Q1721 191 1660.0 131.0Q1599 71 1519.0 35.5Q1439 0 1351 0H832Q801 0 773.0 9.0Q745 18 721.0 35.0Q697 52 679.0 75.5Q661 99 651 128H1351Q1416 128 1473.0 154.0Q1530 180 1572.5 224.0Q1615 268 1639.5 326.0Q1664 384 1664 448V1115Q1688 1091 1711.0 1069.5Q1734 1048 1752.0 1024.0Q1770 1000 1781.0 971.5Q1792 943 1792 907ZM960 1024Q986 1024 1005.0 1005.0Q1024 986 1024 960Q1024 934 1005.0 915.0Q986 896 960 896H448Q422 896 403.0 915.0Q384 934 384 960Q384 986 403.0 1005.0Q422 1024 448 1024Z"/>
  </g>
</svg>