<?xml version="1.0" encoding="utf-8"?>
<svg xmlns="http://www.w3.org/2000/svg" width="16" height="16" viewBox="0 0 2048 2048">
  <g transform="translate(0, 2048) scale(1, -1)">
    <path fill="#000000" d="M1024 960Q1024 921 1009.0 886.0Q994 851 967.5 824.5Q941 798 906.0 783.0Q871 768 832 768H768V448Q768 409 753.0 374.0Q738 339 711.5 312.5Q685 286 650.0 271.0Q615 256 576 256H192Q153 256 118.0 271.0Q83 286 56.5 312.5Q30 339 15.0 374.0Q0 409 0 448V1088Q0 1127 15.0 1162.0Q30 1197 56.5 1223.5Q83 1250 118.0 1265.0Q153 1280 192 1280H256V1600Q256 1639 271.0 1674.0Q286 1709 312.5 1735.5Q339 1762 374.0 1777.0Q409 1792 448 1792H832Q871 1792 906.0 1777.0Q941 1762 967.5 1735.5Q994 1709 1009.0 1674.0Q1024 1639 1024 1600ZM896 1600Q896 1626 877.0 1645.0Q858 1664 832 1664H448Q422 1664 403.0 1645.0Q384 1626 384 1600V1280H576Q615 1280 650.0 1265.0Q685 1250 711.5 1223.5Q738 1197 753.0 1162.0Q768 1127 768 1088V896H832Q858 896 877.0 915.0Q896 934 896 960ZM1856 1280Q1895 1280 1930.0 1265.0Q1965 1250 1991.5 1223.5Q2018 1197 2033.0 1162.0Q2048 1127 2048 1088V448Q2048 409 2033.0 374.0Q2018 339 1991.5 312.5Q1965 286 1930.0 271.0Q1895 256 1856 256H1472Q1433 256 1398.0 271.0Q1363 286 1336.5 312.5Q1310 339 1295.0 374.0Q1280 409 1280 448V512H1408Q1408 504 1407.5 495.5Q1407 487 1407 478Q1407 461 1409.0 444.5Q1411 428 1417.5 414.5Q1424 401 1437.0 392.5Q1450 384 1472 384H1856Q1882 384 1901.0 403.0Q1920 422 1920 448V1088Q1920 1114 1901.0 1133.0Q1882 1152 1856 1152H1472Q1446 1152 1427.0 1133.0Q1408 1114 1408 1088V896H1280V1088Q1280 1127 1295.0 1162.0Q1310 1197 1336.5 1223.5Q1363 1250 1398.0 1265.0Q1433 1280 1472 1280ZM640 1088Q640 1114 621.0 1133.0Q602 1152 576 1152H192Q166 1152 147.0 1133.0Q128 1114 128 1088V448Q128 422 147.0 403.0Q166 384 192 384H576Q602 384 621.0 403.0Q640 422 640 448ZM1574 640H1088Q1062 640 1043.0 659.0Q1024 678 1024 704Q1024 730 1043.0 749.0Q1062 768 1088 768H1574Q1560 782 1548.0 796.0Q1536 810 1536 832Q1536 858 1555.0 877.0Q1574 896 1600 896Q1626 896 1645 877L1773 749Q1792 730 1792 704Q1792 678 1773 659L1645 531Q1626 512 1600 512Q1574 512 1555.0 531.0Q1536 550 1536 576Q1536 599 1547.5 612.0Q1559 625 1574 640Z"/>
  </g>
</svg>