<?xml version="1.0" encoding="utf-8"?>
<svg xmlns="http://www.w3.org/2000/svg" width="16" height="16" viewBox="0 0 2048 2048">
  <g transform="translate(0, 2048) scale(1, -1)">
    <path fill="#000000" d="M1797 1792Q1847 1792 1892.5 1771.5Q1938 1751 1972.5 1716.5Q2007 1682 2027.5 1636.5Q2048 1591 2048 1541V507Q2048 457 2027.5 411.5Q2007 366 1972.5 331.5Q1938 297 1892.5 276.5Q1847 256 1797 256H192Q153 256 118.0 271.0Q83 286 56.5 312.5Q30 339 15.0 374.0Q0 409 0 448V1088Q0 1127 15.0 1162.0Q30 1197 56.5 1223.5Q83 1250 118.0 1265.0Q153 1280 192 1280H512V1541Q512 1591 532.5 1636.5Q553 1682 587.5 1716.5Q622 1751 667.5 1771.5Q713 1792 763 1792ZM1920 1536Q1920 1562 1910.0 1585.5Q1900 1609 1882.5 1626.5Q1865 1644 1841.5 1654.0Q1818 1664 1792 1664H768Q741 1664 718.0 1654.0Q695 1644 677.5 1626.5Q660 1609 650.0 1586.0Q640 1563 640 1536V384H1792Q1819 384 1842.0 394.0Q1865 404 1882.5 421.5Q1900 439 1910.0 462.0Q1920 485 1920 512ZM1728 576Q1728 550 1709.0 531.0Q1690 512 1664 512H896Q869 512 850.5 530.5Q832 549 832 576Q832 591 839 604L1217 1372Q1225 1389 1240.5 1398.5Q1256 1408 1274 1408Q1292 1408 1307.5 1398.5Q1323 1389 1331 1373L1721 605Q1728 592 1728 576ZM1430 896 1275 1201 1125 896ZM128 448Q128 422 147.0 403.0Q166 384 192 384H512V1152H192Q166 1152 147.0 1133.0Q128 1114 128 1088ZM384 960Q384 934 365.0 915.0Q346 896 320 896Q294 896 275.0 915.0Q256 934 256 960Q256 986 275.0 1005.0Q294 1024 320 1024Q346 1024 365.0 1005.0Q384 986 384 960ZM1062 768 999 640H1560L1495 768Z"/>
  </g>
</svg>