<?xml version="1.0" encoding="utf-8"?>
<svg xmlns="http://www.w3.org/2000/svg" width="16" height="16" viewBox="0 0 2048 2048">
  <g transform="translate(0, 2048) scale(1, -1)">
    <path fill="#ffffff" d="M832 512Q858 512 877.0 493.0Q896 474 896 448Q896 422 877 403L493 19Q474 0 448 0Q422 0 403 19L19 403Q0 422 0 448Q0 474 19.0 493.0Q38 512 64 512Q90 512 109 493L384 219V1984Q384 2010 403.0 2029.0Q422 2048 448 2048Q474 2048 493.0 2029.0Q512 2010 512 1984V219L787 493Q806 512 832 512ZM1024 1672Q1024 1750 1055.0 1818.5Q1086 1887 1138.5 1938.0Q1191 1989 1261.0 2018.5Q1331 2048 1408 2048Q1485 2048 1555.0 2018.5Q1625 1989 1677.5 1938.0Q1730 1887 1761.0 1818.5Q1792 1750 1792 1672Q1792 1563 1779.0 1456.0Q1766 1349 1743 1243Q1720 1134 1695.0 1024.0Q1670 914 1635 808Q1622 770 1602.5 740.0Q1583 710 1550 686Q1488 640 1408 640Q1330 640 1266 686Q1233 709 1213.5 739.5Q1194 770 1181 808Q1146 914 1120.5 1024.0Q1095 1134 1072 1244Q1050 1350 1037.0 1456.5Q1024 1563 1024 1672ZM1408 768Q1446 768 1472.5 788.5Q1499 809 1513 844Q1524 871 1530.5 900.0Q1537 929 1545 957Q1568 1044 1589.5 1132.0Q1611 1220 1627.5 1309.5Q1644 1399 1654.0 1489.0Q1664 1579 1664 1669Q1664 1721 1643.0 1766.5Q1622 1812 1587.0 1846.0Q1552 1880 1505.5 1900.0Q1459 1920 1408 1920Q1357 1920 1310.5 1900.0Q1264 1880 1229.0 1846.0Q1194 1812 1173.0 1766.5Q1152 1721 1152 1669Q1152 1580 1162.0 1491.5Q1172 1403 1188.5 1316.0Q1205 1229 1226.0 1142.5Q1247 1056 1269 970Q1277 938 1285.0 906.5Q1293 875 1304 844Q1317 809 1343.0 788.5Q1369 768 1408 768ZM1664 251Q1664 199 1643.0 153.5Q1622 108 1587.0 74.0Q1552 40 1505.5 20.0Q1459 0 1408 0Q1355 0 1308.5 20.5Q1262 41 1227.5 75.5Q1193 110 1172.5 156.5Q1152 203 1152 256Q1152 308 1172.5 355.0Q1193 402 1227.5 436.5Q1262 471 1308.5 491.5Q1355 512 1408 512Q1462 512 1508.5 491.5Q1555 471 1589.5 435.5Q1624 400 1644.0 352.5Q1664 305 1664 251ZM1536 256Q1536 282 1526.0 305.5Q1516 329 1498.5 346.5Q1481 364 1457.5 374.0Q1434 384 1408 384Q1381 384 1358.0 374.0Q1335 364 1317.5 346.5Q1300 329 1290.0 306.0Q1280 283 1280 256Q1280 229 1290.0 205.5Q1300 182 1317.0 165.0Q1334 148 1357.5 138.0Q1381 128 1408 128Q1435 128 1458.0 138.0Q1481 148 1498.5 165.5Q1516 183 1526.0 206.0Q1536 229 1536 256Z"/>
  </g>
</svg>