<?xml version="1.0" encoding="utf-8"?>
<svg xmlns="http://www.w3.org/2000/svg" width="16" height="16" viewBox="0 0 2048 2048">
  <g transform="translate(0, 2048) scale(1, -1)">
    <path fill="#000000" d="M1920 1344Q1920 1318 1901 1299L1389 787Q1370 768 1344 768Q1318 768 1299.0 787.0Q1280 806 1280 832Q1280 858 1299 877L1702 1280H1152Q1019 1280 902.5 1230.0Q786 1180 699.0 1093.0Q612 1006 562.0 889.5Q512 773 512 640V64Q512 38 493.0 19.0Q474 0 448 0Q422 0 403.0 19.0Q384 38 384 64V1984Q384 2010 403.0 2029.0Q422 2048 448 2048Q474 2048 493.0 2029.0Q512 2010 512 1984V1064Q566 1145 636.5 1208.5Q707 1272 789.0 1316.5Q871 1361 962.5 1384.5Q1054 1408 1152 1408H1702L1299 1811Q1280 1830 1280 1856Q1280 1882 1299.0 1901.0Q1318 1920 1344 1920Q1370 1920 1389 1901L1901 1389Q1920 1370 1920 1344Z"/>
  </g>
</svg>