<?xml version="1.0" encoding="utf-8"?>
<svg xmlns="http://www.w3.org/2000/svg" width="16" height="16" viewBox="0 0 2048 2048">
  <g transform="translate(0, 2048) scale(1, -1)">
    <path fill="#000000" d="M367 1045Q349 1045 324.0 1054.5Q299 1064 273.5 1077.5Q248 1091 225.0 1106.0Q202 1121 189 1133Q173 1147 164.0 1166.0Q155 1185 155 1206Q155 1222 161.0 1238.5Q167 1255 173.5 1271.5Q180 1288 186.0 1303.5Q192 1319 192 1333Q192 1341 186.5 1345.5Q181 1350 174 1352L82 1368Q51 1373 34.0 1389.5Q17 1406 8.5 1429.0Q0 1452 -1.5 1478.5Q-3 1505 -3 1530Q-3 1571 3 1610L4 1611Q8 1639 23.5 1655.5Q39 1672 59.0 1680.5Q79 1689 101.5 1692.5Q124 1696 143.0 1699.0Q162 1702 174.5 1707.0Q187 1712 187 1724Q187 1738 180.5 1753.5Q174 1769 166.5 1786.0Q159 1803 153.0 1820.0Q147 1837 147 1854Q147 1882 166.0 1907.0Q185 1932 212.0 1951.5Q239 1971 269.5 1986.0Q300 2001 323 2010H324Q332 2012 340.0 2014.0Q348 2016 357 2016Q389 2016 411.0 1999.0Q433 1982 449.5 1961.0Q466 1940 479.0 1923.0Q492 1906 505 1906Q509 1906 515 1908Q516 1909 517 1910L520 1912Q521 1913 522 1914L582 1986Q612 2021 656 2021Q673 2021 697.5 2011.5Q722 2002 747.0 1988.0Q772 1974 794.5 1959.0Q817 1944 830 1933H831Q865 1904 865 1860Q865 1843 859.0 1826.0Q853 1809 846.5 1792.5Q840 1776 834.0 1761.0Q828 1746 828 1733Q828 1726 834.5 1720.0Q841 1714 847 1713L939 1698Q969 1693 986.0 1676.0Q1003 1659 1011.5 1635.5Q1020 1612 1021.5 1585.5Q1023 1559 1023 1535Q1023 1518 1022.5 1500.5Q1022 1483 1019.0 1465.5Q1016 1448 1009.5 1432.5Q1003 1417 991 1404Q975 1387 948.5 1380.5Q922 1374 896.5 1369.5Q871 1365 852.0 1360.0Q833 1355 833 1341Q833 1337 838.0 1322.0Q843 1307 849.0 1290.5Q855 1274 860.5 1260.0Q866 1246 867 1244V1245Q873 1228 873 1211Q873 1190 864.0 1171.0Q855 1152 839 1138Q825 1127 802.5 1111.5Q780 1096 754.5 1082.0Q729 1068 704.5 1058.5Q680 1049 663 1049Q631 1049 609.5 1066.0Q588 1083 571.5 1104.0Q555 1125 542.0 1142.0Q529 1159 515 1159Q501 1159 488.0 1141.0Q475 1123 459.0 1102.0Q443 1081 421.0 1063.0Q399 1045 367 1045ZM513 1287Q543 1287 565.0 1279.0Q587 1271 605.0 1257.0Q623 1243 639.0 1224.0Q655 1205 673 1184Q691 1192 706.5 1202.0Q722 1212 739 1223Q728 1251 716.5 1280.0Q705 1309 705 1339Q705 1381 724.5 1414.0Q744 1447 779 1468Q804 1483 835.0 1488.5Q866 1494 894 1499Q895 1503 895 1507V1554Q895 1564 893 1575L825 1587Q770 1597 735.0 1638.0Q700 1679 700 1735Q700 1764 711.0 1792.5Q722 1821 731 1848Q715 1859 698.5 1868.5Q682 1878 665 1886Q648 1865 632.0 1845.5Q616 1826 598.0 1811.0Q580 1796 558.0 1787.0Q536 1778 507 1778Q476 1778 454.5 1786.0Q433 1794 415.5 1808.0Q398 1822 382.5 1841.0Q367 1860 348 1881Q331 1873 314.0 1863.0Q297 1853 282 1842Q293 1814 304.5 1785.0Q316 1756 316 1725Q316 1706 310.5 1688.0Q305 1670 296 1653Q281 1627 263.0 1612.0Q245 1597 224.0 1589.0Q203 1581 179.0 1576.5Q155 1572 127 1566Q126 1561 126 1557V1509Q126 1500 127 1490L195 1479Q221 1475 244.0 1461.5Q267 1448 284.0 1428.0Q301 1408 311.0 1383.5Q321 1359 321 1333Q321 1303 310.5 1274.5Q300 1246 290 1218Q305 1207 322.0 1197.5Q339 1188 356 1180Q373 1201 388.5 1220.0Q404 1239 422.0 1254.0Q440 1269 461.5 1278.0Q483 1287 513 1287ZM389 1533Q389 1558 398.5 1580.0Q408 1602 424.5 1618.0Q441 1634 463.0 1643.5Q485 1653 510 1653Q535 1653 557.0 1643.5Q579 1634 595.5 1618.0Q612 1602 621.5 1580.0Q631 1558 631 1533Q631 1508 621.5 1486.0Q612 1464 595.5 1447.5Q579 1431 557.0 1421.5Q535 1412 510 1412Q484 1412 462.0 1421.5Q440 1431 424.0 1447.0Q408 1463 398.5 1485.0Q389 1507 389 1533ZM1154 246Q1137 246 1117.5 238.5Q1098 231 1077.0 221.5Q1056 212 1034.5 204.5Q1013 197 993 197Q970 197 948.5 207.0Q927 217 913 235Q899 252 880.5 279.5Q862 307 845.0 337.5Q828 368 816.5 398.0Q805 428 805 450Q805 476 815.5 495.5Q826 515 842.0 530.5Q858 546 876.5 558.5Q895 571 911.0 583.5Q927 596 937.5 609.0Q948 622 948 639Q948 664 925.5 682.5Q903 701 876.0 721.0Q849 741 826.5 766.5Q804 792 804 830Q804 851 816.5 881.0Q829 911 846.0 942.0Q863 973 882.0 1001.0Q901 1029 915 1045Q930 1062 951.0 1072.0Q972 1082 995 1082Q1015 1082 1036.0 1074.0Q1057 1066 1078.0 1057.0Q1099 1048 1118.0 1040.0Q1137 1032 1154 1032Q1172 1032 1185.0 1042.5Q1198 1053 1201 1070L1223 1188Q1229 1221 1247.0 1239.0Q1265 1257 1290.0 1265.5Q1315 1274 1343.5 1276.0Q1372 1278 1399 1278H1407Q1426 1278 1448.5 1277.5Q1471 1277 1493.5 1273.0Q1516 1269 1536.0 1261.5Q1556 1254 1569 1241Q1590 1219 1597.0 1183.5Q1604 1148 1608.5 1114.5Q1613 1081 1622.0 1056.5Q1631 1032 1658 1032Q1678 1032 1699 1040Q1715 1045 1731 1052L1752 1061Q1767 1068 1783 1074Q1804 1081 1825 1081Q1848 1081 1869.5 1071.5Q1891 1062 1905 1044Q1918 1027 1937.0 999.5Q1956 972 1972.5 941.0Q1989 910 2001.0 880.0Q2013 850 2013 829Q2013 803 2002.5 783.5Q1992 764 1976.0 748.5Q1960 733 1941.5 720.0Q1923 707 1907.0 694.5Q1891 682 1880.5 668.5Q1870 655 1870 639Q1870 614 1892.5 595.5Q1915 577 1942.0 557.0Q1969 537 1991.5 511.5Q2014 486 2014 448Q2014 427 2001.5 397.0Q1989 367 1972.0 336.0Q1955 305 1935.5 277.0Q1916 249 1903 233Q1873 197 1824 197Q1804 197 1782.0 204.5Q1760 212 1739.0 221.5Q1718 231 1698.5 238.5Q1679 246 1663 246Q1644 246 1633.5 236.5Q1623 227 1618.0 212.5Q1613 198 1611.0 181.5Q1609 165 1607 152L1596 91Q1590 57 1570.5 38.5Q1551 20 1524.0 11.5Q1497 3 1466.5 1.5Q1436 0 1409 0Q1391 0 1369.0 0.5Q1347 1 1324.5 5.0Q1302 9 1282.0 16.0Q1262 23 1249 37Q1234 52 1227.0 73.5Q1220 95 1216.5 118.0Q1213 141 1210.5 164.0Q1208 187 1202.5 205.0Q1197 223 1186.0 234.5Q1175 246 1154 246ZM1663 374Q1703 374 1741.0 358.5Q1779 343 1815 329Q1855 380 1881 440Q1855 462 1830.0 482.0Q1805 502 1785.5 524.5Q1766 547 1754.0 574.5Q1742 602 1742 639Q1742 676 1753.5 703.5Q1765 731 1784.5 753.0Q1804 775 1829.0 794.5Q1854 814 1881 836Q1868 866 1852.5 894.0Q1837 922 1817 948Q1781 935 1742.0 919.5Q1703 904 1663 904Q1631 904 1602.5 914.5Q1574 925 1551.0 944.0Q1528 963 1512.5 989.0Q1497 1015 1491 1047L1474 1146Q1460 1148 1447.0 1149.0Q1434 1150 1420 1150Q1401 1150 1382.0 1149.5Q1363 1149 1345 1146L1327 1047Q1321 1015 1305.5 989.0Q1290 963 1267.0 944.0Q1244 925 1215.0 914.5Q1186 904 1154 904Q1115 904 1076.0 920.0Q1037 936 1002 949Q963 898 937 838Q963 816 988.0 796.0Q1013 776 1032.5 753.5Q1052 731 1064.0 703.5Q1076 676 1076 639Q1076 601 1064.5 574.0Q1053 547 1033.5 525.0Q1014 503 989.0 483.5Q964 464 937 442Q950 412 966.0 384.0Q982 356 1001 330Q1036 343 1076.5 359.0Q1117 375 1156 375Q1187 375 1216.0 364.0Q1245 353 1268.0 334.0Q1291 315 1306.5 288.5Q1322 262 1327 231L1344 132Q1360 130 1376.0 129.0Q1392 128 1408 128Q1425 128 1440.5 129.0Q1456 130 1473 132Q1479 162 1483.0 191.5Q1487 221 1495.5 247.5Q1504 274 1519.0 298.0Q1534 322 1562 342Q1584 358 1610.0 366.0Q1636 374 1663 374ZM1188 639Q1188 684 1205.5 724.5Q1223 765 1253.0 795.0Q1283 825 1323.0 842.5Q1363 860 1408 860Q1454 860 1494.5 843.0Q1535 826 1565.0 796.0Q1595 766 1612.5 725.5Q1630 685 1630 639Q1630 594 1612.5 553.5Q1595 513 1565.0 483.0Q1535 453 1494.5 435.5Q1454 418 1409 418Q1364 418 1323.5 435.5Q1283 453 1253.0 483.0Q1223 513 1205.5 553.5Q1188 594 1188 639ZM1409 547Q1448 547 1475.0 573.5Q1502 600 1502 639Q1502 658 1494.5 675.0Q1487 692 1474.5 705.0Q1462 718 1445.0 725.0Q1428 732 1409 732Q1390 732 1373.0 724.5Q1356 717 1343.5 704.5Q1331 692 1323.5 675.0Q1316 658 1316 639Q1316 619 1323.5 602.5Q1331 586 1343.5 573.5Q1356 561 1373.0 554.0Q1390 547 1409 547Z"/>
  </g>
</svg>