<?xml version="1.0" encoding="utf-8"?>
<svg xmlns="http://www.w3.org/2000/svg" width="16" height="16" viewBox="0 0 2048 2048">
  <g transform="translate(0, 2048) scale(1, -1)">
    <path fill="#ffffff" d="M970 1982Q970 2008 985.0 2028.0Q1000 2048 1029 2048Q1133 2048 1235.0 2026.5Q1337 2005 1432 1963Q1450 1955 1460.5 1939.5Q1471 1924 1471 1904Q1471 1878 1452.0 1859.0Q1433 1840 1407 1840Q1400 1840 1387.5 1843.5Q1375 1847 1361.5 1852.5Q1348 1858 1335.5 1863.0Q1323 1868 1314 1871Q1243 1894 1175.0 1905.5Q1107 1917 1033 1920Q1007 1921 988.5 1938.5Q970 1956 970 1982ZM1921 1502Q1921 1485 1919.0 1468.5Q1917 1452 1910.0 1438.5Q1903 1425 1890.0 1416.5Q1877 1408 1856 1408H1344Q1317 1408 1298.5 1426.5Q1280 1445 1280 1472Q1280 1498 1299.0 1517.0Q1318 1536 1344 1536H1759Q1719 1593 1673 1642Q1656 1660 1656 1686Q1656 1714 1674.0 1731.5Q1692 1749 1720 1749Q1746 1749 1761.5 1734.5Q1777 1720 1792 1701V1984Q1792 2010 1811.0 2029.0Q1830 2048 1856 2048Q1882 2048 1901.0 2029.0Q1920 2010 1920 1984Q1920 1924 1920 1863L1921 1623Q1921 1563 1921 1502ZM278 1699Q278 1713 283.0 1723.5Q288 1734 297 1744Q329 1777 369.5 1811.0Q410 1845 454.5 1875.0Q499 1905 545.5 1930.0Q592 1955 635 1971Q647 1976 659 1976Q687 1976 705.0 1957.5Q723 1939 723 1911Q723 1891 712.0 1875.5Q701 1860 684 1852Q636 1830 598.5 1809.5Q561 1789 527.0 1766.5Q493 1744 460.0 1716.5Q427 1689 388 1654Q367 1635 342 1635Q316 1635 297.0 1654.0Q278 1673 278 1699ZM65 941Q46 941 33.5 948.0Q21 955 14.0 966.5Q7 978 4.0 993.0Q1 1008 1 1024Q1 1120 18.5 1218.0Q36 1316 74 1404Q82 1422 97.5 1433.5Q113 1445 133 1445Q159 1445 178.5 1426.0Q198 1407 198 1381Q198 1370 193 1357Q175 1308 163.5 1266.5Q152 1225 144.5 1184.5Q137 1144 133.5 1101.0Q130 1058 129 1006Q128 979 110.5 960.0Q93 941 65 941ZM434 323Q434 296 415.5 277.5Q397 259 370 259Q345 259 326 276Q290 307 255.5 346.5Q221 386 190.5 429.0Q160 472 134.5 517.5Q109 563 90 607Q84 620 84 633Q84 660 102.5 678.5Q121 697 148 697Q168 697 183.5 686.5Q199 676 207 659Q229 614 250.5 576.5Q272 539 297.0 505.0Q322 471 350.5 438.0Q379 405 414 370Q434 350 434 323ZM1809 391Q1809 368 1793 349Q1725 272 1643.5 209.5Q1562 147 1469 103Q1462 100 1456.0 98.0Q1450 96 1442 96Q1416 96 1397.0 115.0Q1378 134 1378 160Q1378 180 1387.5 194.5Q1397 209 1414 218Q1458 241 1495.0 263.5Q1532 286 1565.5 311.5Q1599 337 1631.0 367.0Q1663 397 1697 433Q1718 455 1746 455Q1772 455 1790.5 436.0Q1809 417 1809 391ZM1136 65Q1136 41 1125.5 28.0Q1115 15 1099.5 9.0Q1084 3 1065.0 2.0Q1046 1 1029 1H1025Q936 1 846.0 16.0Q756 31 673 63Q654 71 642.5 87.0Q631 103 631 123Q631 150 649.5 168.5Q668 187 695 187Q706 187 717 183Q763 166 806.5 155.5Q850 145 893.0 139.5Q936 134 980.5 132.0Q1025 130 1074 130Q1100 130 1118.0 110.5Q1136 91 1136 65Z"/>
  </g>
</svg>