<?xml version="1.0" encoding="utf-8"?>
<svg xmlns="http://www.w3.org/2000/svg" width="16" height="16" viewBox="0 0 2048 2048">
  <g transform="translate(0, 2048) scale(1, -1)">
    <path fill="#000000" d="M1024 1952Q1057 1952 1086.0 1939.5Q1115 1927 1137.0 1905.0Q1159 1883 1171.5 1854.0Q1184 1825 1184 1792Q1184 1759 1171.5 1730.0Q1159 1701 1137.0 1679.0Q1115 1657 1086.0 1644.5Q1057 1632 1024 1632Q991 1632 962.0 1644.5Q933 1657 911.0 1679.0Q889 1701 876.5 1730.0Q864 1759 864 1792Q864 1825 876.5 1854.0Q889 1883 911.0 1905.0Q933 1927 962.0 1939.5Q991 1952 1024 1952ZM1567 1743Q1603 1743 1635.0 1729.0Q1667 1715 1691.0 1691.0Q1715 1667 1729.0 1635.0Q1743 1603 1743 1567Q1743 1531 1729.0 1499.0Q1715 1467 1691.0 1443.0Q1667 1419 1635.0 1405.0Q1603 1391 1567 1391Q1531 1391 1499.0 1405.0Q1467 1419 1443.0 1443.0Q1419 1467 1405.0 1499.0Q1391 1531 1391 1567Q1391 1603 1405.0 1635.0Q1419 1667 1443.0 1691.0Q1467 1715 1499.0 1729.0Q1531 1743 1567 1743ZM337 1567Q337 1597 348.0 1623.0Q359 1649 378.5 1668.5Q398 1688 424.5 1699.5Q451 1711 481 1711Q511 1711 537.0 1699.5Q563 1688 582.5 1668.5Q602 1649 613.5 1623.0Q625 1597 625 1567Q625 1537 613.5 1510.5Q602 1484 582.5 1464.5Q563 1445 537.0 1434.0Q511 1423 481 1423Q451 1423 424.5 1434.0Q398 1445 378.5 1464.5Q359 1484 348.0 1510.5Q337 1537 337 1567ZM256 1152Q283 1152 306.0 1142.0Q329 1132 346.5 1114.5Q364 1097 374.0 1074.0Q384 1051 384 1024Q384 997 374.0 974.0Q364 951 346.5 933.5Q329 916 306.0 906.0Q283 896 256 896Q229 896 206.0 906.0Q183 916 165.5 933.5Q148 951 138.0 974.0Q128 997 128 1024Q128 1051 138.0 1074.0Q148 1097 165.5 1114.5Q183 1132 206.0 1142.0Q229 1152 256 1152ZM1792 1088Q1818 1088 1837.0 1069.0Q1856 1050 1856 1024Q1856 998 1837.0 979.0Q1818 960 1792 960Q1766 960 1747.0 979.0Q1728 998 1728 1024Q1728 1050 1747.0 1069.0Q1766 1088 1792 1088ZM369 481Q369 504 378.0 524.5Q387 545 402.0 560.0Q417 575 437.5 584.0Q458 593 481 593Q504 593 524.5 584.0Q545 575 560.0 560.0Q575 545 584.0 524.5Q593 504 593 481Q593 458 584.0 437.5Q575 417 560.0 402.0Q545 387 524.5 378.0Q504 369 481 369Q458 369 437.5 378.0Q417 387 402.0 402.0Q387 417 378.0 437.5Q369 458 369 481ZM1487 481Q1487 515 1510.0 538.0Q1533 561 1567 561Q1601 561 1624.0 538.0Q1647 515 1647 481Q1647 447 1624.0 424.0Q1601 401 1567 401Q1533 401 1510.0 424.0Q1487 447 1487 481ZM1024 352Q1064 352 1092.0 324.0Q1120 296 1120 256Q1120 216 1092.0 188.0Q1064 160 1024 160Q984 160 956.0 188.0Q928 216 928 256Q928 296 956.0 324.0Q984 352 1024 352Z"/>
  </g>
</svg>