<?xml version="1.0" encoding="utf-8"?>
<svg xmlns="http://www.w3.org/2000/svg" width="16" height="16" viewBox="0 0 2048 2048">
  <g transform="translate(0, 2048) scale(1, -1)">
    <path fill="#000000" d="M1797 1792Q1847 1792 1892.5 1771.5Q1938 1751 1972.5 1716.5Q2007 1682 2027.5 1636.5Q2048 1591 2048 1541V891Q2048 839 2027.0 793.5Q2006 748 1971.0 714.0Q1936 680 1889.5 660.0Q1843 640 1792 640H1397Q1387 611 1369.0 587.5Q1351 564 1327.0 547.0Q1303 530 1275.0 521.0Q1247 512 1216 512H320Q281 512 246.0 527.0Q211 542 184.5 568.5Q158 595 143.0 630.0Q128 665 128 704V1216Q128 1255 143.0 1290.0Q158 1325 184.5 1351.5Q211 1378 246.0 1393.0Q281 1408 320 1408H512V1541Q512 1591 532.5 1636.5Q553 1682 587.5 1716.5Q622 1751 667.5 1771.5Q713 1792 763 1792ZM1920 1536Q1920 1562 1910.0 1585.5Q1900 1609 1882.5 1626.5Q1865 1644 1841.5 1654.0Q1818 1664 1792 1664H768Q741 1664 718.0 1654.0Q695 1644 677.5 1626.5Q660 1609 650.0 1586.0Q640 1563 640 1536V1408H1216Q1255 1408 1290.0 1393.0Q1325 1378 1351.5 1351.5Q1378 1325 1393.0 1290.0Q1408 1255 1408 1216V768H1792Q1819 768 1842.0 778.0Q1865 788 1882.5 805.5Q1900 823 1910.0 846.0Q1920 869 1920 896ZM1280 1216Q1280 1242 1261.0 1261.0Q1242 1280 1216 1280H320Q294 1280 275.0 1261.0Q256 1242 256 1216V704Q256 678 275.0 659.0Q294 640 320 640H1216Q1242 640 1261.0 659.0Q1280 678 1280 704ZM1472 384Q1498 384 1517.0 365.0Q1536 346 1536 320Q1536 294 1517.0 275.0Q1498 256 1472 256H64Q38 256 19.0 275.0Q0 294 0 320Q0 346 19.0 365.0Q38 384 64 384Z"/>
  </g>
</svg>