<?xml version="1.0" encoding="utf-8"?>
<svg id="" width="16" height="16" style="width:16px;height:16px;" version="1.1" xmlns="http://www.w3.org/2000/svg" viewBox="0 0 2048 2048" enable-background="new 0 0 2048 2048" xml:space="preserve">
    <path fill="#ffffff" transform="translate(0, 300)" d="M2048 576 l0 512 q0 39 -15 74 q-15 35 -41.5 61.5 q-26.5 26.5 -61.5 41.5 q-35 15 -74 15 l-64 0 l0 64 q0 26 -19 45 q-19 19 -45 19 l-128 0 q-22 0 -35 -8.5 q-13 -8.5 -19.5 -22 q-6.5 -13.5 -8.5 -30 q-2 -16.5 -2 -33.5 q0 -9 0.5 -17.5 q0.5 -8.5 0.5 -16.5 l-1024 0 l0 64 q0 26 -19 45 q-19 19 -45 19 l-128 0 q-22 0 -35 -8.5 q-13 -8.5 -19.5 -22 q-6.5 -13.5 -8.5 -30 q-2 -16.5 -2 -33.5 q0 -9 0.5 -17.5 q0.5 -8.5 0.5 -16.5 l-64 0 q-39 0 -74 -15 q-35 -15 -61.5 -41.5 q-26.5 -26.5 -41.5 -61.5 q-15 -35 -15 -74 l0 -512 q0 -39 15 -74 q15 -35 41.5 -61.5 q26.5 -26.5 61.5 -41.5 q35 -15 74 -15 l710 0 q10 -82 50 -152.5 q40 -70.5 100 -122 q60 -51.5 135.5 -80.5 q75.5 -29 157.5 -29 q82 0 157.5 29 q75.5 29 135.5 80.5 q60 51.5 99.5 122 q39.5 70.5 50.5 152.5 l68 0 q39 0 74 15 q35 15 61.5 41.5 q26.5 26.5 41.5 61.5 q15 35 15 74 ZM1025 448 l0 7 q0 63 25.5 120 q25.5 57 68 99.5 q42.5 42.5 99.5 68 q57 25.5 120 25.5 q68 0 127.5 -24.5 q59.5 -24.5 103.5 -67 q44 -42.5 69.5 -101 q25.5 -58.5 25.5 -127.5 q0 -66 -25 -124.5 q-25 -58.5 -68 -102 q-43 -43.5 -101 -68.5 q-58 -25 -125 -25 q-67 0 -125 25 q-58 25 -101.5 68.5 q-43.5 43.5 -68.5 101.5 q-25 58 -25 125 ZM1920 576 q0 -22 -8.5 -34.5 q-8.5 -12.5 -22 -19 q-13.5 -6.5 -30 -8.5 q-16.5 -2 -33.5 -2 l-38 0 q-11 82 -50.5 152.5 q-39.5 70.5 -99.5 122 q-60 51.5 -135.5 80.5 q-75.5 29 -157.5 29 q-82 0 -157.5 -29 q-75.5 -29 -135.5 -80.5 q-60 -51.5 -100 -122 q-40 -70.5 -50 -152.5 l-710 0 q-26 0 -45 19 q-19 19 -19 45 l0 512 q0 26 19 45 q19 19 45 19 l1664 0 q26 0 45 -19 q19 -19 19 -45 l0 -512 ZM576 640 q26 0 45 19 q19 19 19 45 q0 26 -19 45 q-19 19 -45 19 l-256 0 q-26 0 -45 -19 q-19 -19 -19 -45 q0 -26 19 -45 q19 -19 45 -19 l256 0 Z"/>
</svg>