<?xml version="1.0" encoding="utf-8"?>
<svg xmlns="http://www.w3.org/2000/svg" width="16" height="16" viewBox="0 0 2048 2048">
  <g transform="translate(0, 2048) scale(1, -1)">
    <path fill="#000000" d="M251 256Q201 256 155.5 276.5Q110 297 75.5 331.5Q41 366 20.5 411.5Q0 457 0 507V1541Q0 1591 20.5 1636.5Q41 1682 75.5 1716.5Q110 1751 155.5 1771.5Q201 1792 251 1792H1797Q1847 1792 1892.5 1771.5Q1938 1751 1972.5 1716.5Q2007 1682 2027.5 1636.5Q2048 1591 2048 1541V507Q2048 457 2027.5 411.5Q2007 366 1972.5 331.5Q1938 297 1892.5 276.5Q1847 256 1797 256ZM1792 384Q1819 384 1842.0 394.0Q1865 404 1882.5 421.5Q1900 439 1910.0 462.0Q1920 485 1920 512V1536Q1920 1562 1910.0 1585.5Q1900 1609 1882.5 1626.5Q1865 1644 1841.5 1654.0Q1818 1664 1792 1664H256Q229 1664 206.0 1654.0Q183 1644 165.5 1626.5Q148 1609 138.0 1586.0Q128 1563 128 1536V512Q128 485 138.0 461.5Q148 438 165.0 421.0Q182 404 205.5 394.0Q229 384 256 384ZM256 1280Q256 1306 275.0 1325.0Q294 1344 320 1344Q479 1344 618.5 1283.5Q758 1223 862.5 1118.5Q967 1014 1027.5 874.5Q1088 735 1088 576Q1088 550 1069.0 531.0Q1050 512 1024 512Q998 512 979.0 531.0Q960 550 960 576Q960 748 874 897Q831 971 771.5 1030.0Q712 1089 640.5 1130.5Q569 1172 487.5 1194.0Q406 1216 320 1216Q294 1216 275.0 1235.0Q256 1254 256 1280ZM640 583Q640 648 614.0 705.0Q588 762 544.0 804.5Q500 847 442.0 871.5Q384 896 320 896Q294 896 275.0 915.0Q256 934 256 960Q256 992 277.5 1008.0Q299 1024 328 1024Q416 1024 495.5 988.0Q575 952 635.5 891.5Q696 831 732.0 751.5Q768 672 768 584Q768 555 752.0 533.5Q736 512 704 512Q673 512 656.5 533.0Q640 554 640 583ZM256 608Q256 648 284.0 676.0Q312 704 352 704Q392 704 420.0 676.0Q448 648 448 608Q448 568 420.0 540.0Q392 512 352 512Q312 512 284.0 540.0Q256 568 256 608Z"/>
  </g>
</svg>