<?xml version="1.0" encoding="utf-8"?>
<svg xmlns="http://www.w3.org/2000/svg" width="16" height="16" viewBox="0 0 2048 2048">
  <g transform="translate(0, 2048) scale(1, -1)">
    <path fill="#000000" d="M2046 1408Q2046 1363 2029.0 1322.5Q2012 1282 1980 1250L798 68Q766 36 725.5 19.0Q685 2 640 2Q595 2 554.0 19.0Q513 36 482 68L275 281Q209 350 157.5 434.0Q106 518 71.5 610.0Q37 702 19.0 799.0Q1 896 1 991Q1 1137 38.5 1272.0Q76 1407 145.0 1524.5Q214 1642 310.5 1738.0Q407 1834 524.5 1903.0Q642 1972 777.0 2009.5Q912 2047 1058 2047Q1152 2047 1249.0 2029.0Q1346 2011 1438.0 1976.0Q1530 1941 1614.5 1890.0Q1699 1839 1767 1773L1980 1566Q2012 1535 2029.0 1494.0Q2046 1453 2046 1408ZM129 991Q129 906 145.5 817.0Q162 728 195.0 644.0Q228 560 276.0 484.0Q324 408 387 349L568 530Q478 624 431.0 743.0Q384 862 384 992Q384 1085 408.0 1170.5Q432 1256 476.0 1331.0Q520 1406 581.0 1467.0Q642 1528 717.0 1572.0Q792 1616 877.5 1640.0Q963 1664 1056 1664Q1186 1664 1305.0 1617.0Q1424 1570 1518 1480L1699 1661Q1635 1723 1560.0 1771.0Q1485 1819 1403.0 1852.0Q1321 1885 1233.5 1902.0Q1146 1919 1057 1919Q929 1919 810.5 1886.0Q692 1853 588.5 1792.5Q485 1732 400.5 1647.5Q316 1563 255.5 1459.5Q195 1356 162.0 1237.5Q129 1119 129 991ZM1918 1408Q1918 1449 1890 1476L1790 1572L475 257L572 158Q584 146 603.5 138.0Q623 130 640 130Q680 130 708 158L1890 1340Q1918 1368 1918 1408ZM1428 1390Q1349 1463 1252.0 1499.5Q1155 1536 1048 1536Q940 1536 843.0 1492.5Q746 1449 672.5 1375.5Q599 1302 555.5 1205.0Q512 1108 512 1000Q512 892 548.0 796.0Q584 700 659 621Z"/>
  </g>
</svg>