<?xml version="1.0" encoding="utf-8"?>
<svg xmlns="http://www.w3.org/2000/svg" width="16" height="16" viewBox="0 0 2048 2048">
  <g transform="translate(0, 2048) scale(1, -1)">
    <path fill="#000000" d="M1792 1264V251Q1792 201 1771.5 155.5Q1751 110 1716.5 75.5Q1682 41 1636.5 20.5Q1591 0 1541 0H896V128H1536Q1563 128 1586.0 138.0Q1609 148 1626.5 165.5Q1644 183 1654.0 206.0Q1664 229 1664 256V1272Q1664 1276 1663 1280H1275Q1223 1280 1177.5 1301.0Q1132 1322 1098.0 1357.0Q1064 1392 1044.0 1438.5Q1024 1485 1024 1536V1919Q1020 1920 1016 1920H512Q485 1920 462.0 1910.0Q439 1900 421.5 1882.5Q404 1865 394.0 1842.0Q384 1819 384 1792V1152Q316 1152 256 1130V1797Q256 1847 276.5 1892.5Q297 1938 331.5 1972.5Q366 2007 411.5 2027.5Q457 2048 507 2048H1008Q1059 2048 1106.0 2028.5Q1153 2009 1189 1973L1717 1445Q1753 1409 1772.5 1362.0Q1792 1315 1792 1264ZM1152 1536Q1152 1509 1162.0 1485.5Q1172 1462 1189.0 1445.0Q1206 1428 1229.5 1418.0Q1253 1408 1280 1408H1574L1152 1830ZM768 576V64Q768 38 749.0 19.0Q730 0 704 0H64Q38 0 19.0 19.0Q0 38 0 64V576Q0 598 8.5 610.5Q17 623 30.5 629.5Q44 636 61.0 638.0Q78 640 95 640H128V768Q128 821 148.0 868.0Q168 915 202.5 949.5Q237 984 284.0 1004.0Q331 1024 384 1024Q437 1024 484.0 1004.0Q531 984 565.5 949.5Q600 915 620.0 868.0Q640 821 640 768V640H674Q691 640 708.0 638.0Q725 636 738.5 629.5Q752 623 760.0 610.0Q768 597 768 576ZM256 640H512V768Q512 795 502.0 818.0Q492 841 474.5 858.5Q457 876 434.0 886.0Q411 896 384 896Q357 896 334.0 886.0Q311 876 293.5 858.5Q276 841 266.0 818.0Q256 795 256 768ZM512 320Q512 346 502.0 369.5Q492 393 474.5 410.5Q457 428 433.5 438.0Q410 448 384 448Q357 448 334.0 438.0Q311 428 293.5 410.5Q276 393 266.0 370.0Q256 347 256 320Q256 293 266.0 269.5Q276 246 293.0 229.0Q310 212 333.5 202.0Q357 192 384 192Q411 192 434.0 202.0Q457 212 474.5 229.5Q492 247 502.0 270.0Q512 293 512 320Z"/>
  </g>
</svg>