<?xml version="1.0" encoding="utf-8"?>
<svg xmlns="http://www.w3.org/2000/svg" width="16" height="16" viewBox="0 0 2048 2048">
  <g transform="translate(0, 2048) scale(1, -1)">
    <path fill="#ffffff" d="M1544 1920Q1619 1920 1687.5 1889.5Q1756 1859 1807.5 1807.5Q1859 1756 1889.5 1687.5Q1920 1619 1920 1544V1216Q1920 1190 1901.0 1171.0Q1882 1152 1856 1152Q1830 1152 1811.0 1171.0Q1792 1190 1792 1216V1541Q1792 1591 1771.5 1636.5Q1751 1682 1716.5 1716.5Q1682 1751 1636.5 1771.5Q1591 1792 1541 1792H346Q362 1777 373.0 1764.0Q384 1751 384 1728Q384 1702 365.0 1683.0Q346 1664 320 1664Q294 1664 275 1683L147 1811Q128 1830 128 1856Q128 1882 147 1901L275 2029Q294 2048 320 2048Q346 2048 365.0 2029.0Q384 2010 384 1984Q384 1961 372.5 1948.0Q361 1935 346 1920ZM1487 1024Q1487 1000 1509.5 981.0Q1532 962 1559.5 941.5Q1587 921 1609.5 895.5Q1632 870 1632 833Q1632 812 1619.5 781.5Q1607 751 1589.5 720.5Q1572 690 1553.0 662.0Q1534 634 1520 618Q1489 581 1441 581Q1421 581 1398.5 589.0Q1376 597 1354.5 606.0Q1333 615 1313.5 623.0Q1294 631 1279 631Q1264 631 1255.0 625.0Q1246 619 1240.5 610.0Q1235 601 1232.5 589.5Q1230 578 1228 566L1211 475Q1205 441 1186.0 422.5Q1167 404 1141.0 395.5Q1115 387 1085.5 385.5Q1056 384 1029 384H1024Q997 384 966.0 385.5Q935 387 908.0 396.0Q881 405 861.0 424.0Q841 443 835 477L815 593Q813 607 800.5 619.0Q788 631 773 631Q753 631 732.5 623.5Q712 616 691.0 606.5Q670 597 648.0 589.5Q626 582 605 582Q555 582 525 619Q511 635 492.5 662.5Q474 690 457.5 721.0Q441 752 429.0 782.0Q417 812 417 834Q417 873 439.5 898.5Q462 924 489.0 943.5Q516 963 538.5 981.0Q561 999 561 1024Q561 1049 538.5 1067.5Q516 1086 488.5 1106.0Q461 1126 438.5 1151.5Q416 1177 416 1215Q416 1237 428.5 1267.0Q441 1297 458.5 1327.5Q476 1358 495.0 1385.5Q514 1413 528 1430Q559 1467 607 1467Q627 1467 649.0 1459.5Q671 1452 692.0 1442.5Q713 1433 732.5 1425.5Q752 1418 768 1418Q789 1418 800.0 1429.5Q811 1441 816.5 1459.0Q822 1477 824.5 1500.0Q827 1523 831.0 1546.5Q835 1570 842.5 1591.5Q850 1613 866 1629Q878 1641 895.5 1648.0Q913 1655 932.5 1658.5Q952 1662 972.5 1663.0Q993 1664 1011 1664H1026Q1053 1664 1083.5 1662.5Q1114 1661 1141.0 1652.0Q1168 1643 1187.5 1624.0Q1207 1605 1213 1571L1233 1455Q1236 1437 1249.5 1427.5Q1263 1418 1280 1418Q1297 1418 1317.0 1425.5Q1337 1433 1358.0 1442.5Q1379 1452 1400.5 1459.5Q1422 1467 1442 1467Q1465 1467 1486.5 1457.0Q1508 1447 1522 1429Q1536 1412 1554.5 1384.5Q1573 1357 1590.0 1326.5Q1607 1296 1619.0 1266.0Q1631 1236 1631 1214Q1631 1175 1608.5 1149.5Q1586 1124 1559.0 1104.5Q1532 1085 1509.5 1067.0Q1487 1049 1487 1024ZM1359 1024Q1359 1061 1371.0 1088.5Q1383 1116 1402.5 1138.5Q1422 1161 1447.5 1180.5Q1473 1200 1499 1222Q1486 1252 1470.0 1280.0Q1454 1308 1434 1334Q1398 1321 1358.0 1305.0Q1318 1289 1278 1289Q1254 1289 1233.5 1295.0Q1213 1301 1192 1313Q1159 1332 1141.0 1355.5Q1123 1379 1114.0 1406.5Q1105 1434 1100.5 1465.5Q1096 1497 1090 1532Q1074 1534 1058.0 1535.0Q1042 1536 1025 1536Q1008 1536 992.0 1535.0Q976 1534 960 1532Q953 1497 948.5 1466.0Q944 1435 934.5 1407.5Q925 1380 907.0 1356.0Q889 1332 856 1313Q835 1300 815.0 1294.5Q795 1289 770 1289Q730 1289 690.5 1305.0Q651 1321 615 1335Q577 1284 549 1223Q575 1201 600.5 1181.0Q626 1161 645.5 1138.5Q665 1116 677.0 1088.5Q689 1061 689 1024Q689 987 677.0 959.5Q665 932 645.5 909.5Q626 887 600.5 867.5Q575 848 549 826Q562 796 578.0 768.0Q594 740 614 714Q649 727 688.5 743.0Q728 759 767 759Q799 759 828.0 748.5Q857 738 880.0 718.5Q903 699 919.0 672.5Q935 646 941 615L958 516Q975 514 990.5 513.0Q1006 512 1023 512Q1040 512 1056.0 513.0Q1072 514 1089 516Q1094 546 1098.5 575.5Q1103 605 1111.5 632.5Q1120 660 1135.5 684.5Q1151 709 1178 727Q1201 742 1226.5 750.5Q1252 759 1279 759Q1297 759 1317.0 754.0Q1337 749 1357.0 742.0Q1377 735 1396.5 727.0Q1416 719 1433 713Q1471 764 1499 825Q1473 847 1447.5 867.0Q1422 887 1402.5 909.5Q1383 932 1371.0 959.0Q1359 986 1359 1024ZM1152 1024Q1152 997 1142.0 974.0Q1132 951 1114.5 933.5Q1097 916 1074.0 906.0Q1051 896 1024 896Q997 896 973.5 906.0Q950 916 933.0 933.0Q916 950 906.0 973.5Q896 997 896 1024Q896 1051 906.0 1074.0Q916 1097 933.5 1114.5Q951 1132 974.0 1142.0Q997 1152 1024 1152Q1050 1152 1073.5 1142.0Q1097 1132 1114.5 1114.5Q1132 1097 1142.0 1073.5Q1152 1050 1152 1024ZM1920 192Q1920 166 1901 147L1773 19Q1754 0 1728 0Q1702 0 1683.0 19.0Q1664 38 1664 64Q1664 87 1675.5 100.0Q1687 113 1702 128H504Q429 128 360.5 158.5Q292 189 240.5 240.5Q189 292 158.5 360.5Q128 429 128 504V832Q128 858 147.0 877.0Q166 896 192 896Q218 896 237.0 877.0Q256 858 256 832V507Q256 457 276.5 411.5Q297 366 331.5 331.5Q366 297 411.5 276.5Q457 256 507 256H1702Q1688 270 1676.0 284.0Q1664 298 1664 320Q1664 346 1683.0 365.0Q1702 384 1728 384Q1754 384 1773 365L1901 237Q1920 218 1920 192Z"/>
  </g>
</svg>