<?xml version="1.0" encoding="utf-8"?>
<svg xmlns="http://www.w3.org/2000/svg" width="16" height="16" viewBox="0 0 2048 2048">
  <g transform="translate(0, 2048) scale(1, -1)">
    <path fill="#ffffff" d="M75 311H0V1422H476V1344H75ZM3004 1408H3090Q3159 1343 3210.0 1259.5Q3261 1176 3295.0 1083.5Q3329 991 3345.5 894.0Q3362 797 3362 704Q3362 609 3345.5 512.5Q3329 416 3295.5 324.5Q3262 233 3210.5 150.0Q3159 67 3090 0H3004V8Q3075 71 3128.0 153.0Q3181 235 3216.5 326.0Q3252 417 3269.5 514.0Q3287 611 3287 704Q3287 798 3270.0 894.5Q3253 991 3217.5 1082.0Q3182 1173 3129.0 1254.0Q3076 1335 3004 1399ZM2155 704Q2155 798 2171.5 895.0Q2188 992 2221.5 1084.0Q2255 1176 2306.5 1259.0Q2358 1342 2427 1408H2513V1399Q2481 1373 2454.5 1341.0Q2428 1309 2404 1275Q2314 1149 2272.0 1003.5Q2230 858 2230 704Q2230 610 2247.0 513.0Q2264 416 2298.5 325.0Q2333 234 2386.5 152.5Q2440 71 2513 8V0H2427Q2358 65 2306.5 148.5Q2255 232 2221.5 324.0Q2188 416 2171.5 513.5Q2155 611 2155 704ZM720 80H1122V1112H1196V0H720Z"/>
  </g>
</svg>