<?xml version="1.0" encoding="utf-8"?>
<svg xmlns="http://www.w3.org/2000/svg" width="16" height="16" viewBox="0 0 2048 2048">
  <g transform="translate(0, 2048) scale(1, -1)">
    <path fill="#ffffff" d="M2107 1162Q2107 1117 2125.5 1085.0Q2144 1053 2175.0 1027.5Q2206 1002 2245.0 981.5Q2284 961 2324.5 939.0Q2365 917 2404.0 891.0Q2443 865 2474.0 830.0Q2505 795 2523.5 748.5Q2542 702 2542 638Q2542 582 2524.5 533.5Q2507 485 2475.5 447.0Q2444 409 2399.0 383.0Q2354 357 2300 346V165H2211V341Q2185 341 2152.5 346.0Q2120 351 2088.0 361.0Q2056 371 2027.0 384.5Q1998 398 1978 416L2015 511Q2061 476 2116.5 456.5Q2172 437 2230 437Q2272 437 2307.0 450.5Q2342 464 2368.0 489.0Q2394 514 2408.5 549.0Q2423 584 2423 626Q2423 676 2404.5 712.5Q2386 749 2355.5 776.5Q2325 804 2286.0 825.5Q2247 847 2206.5 868.5Q2166 890 2127.5 914.0Q2089 938 2058.5 969.5Q2028 1001 2009.5 1043.5Q1991 1086 1991 1145Q1991 1196 2007.5 1242.5Q2024 1289 2054.5 1325.5Q2085 1362 2127.5 1386.5Q2170 1411 2221 1419V1595H2309V1424Q2363 1422 2412.5 1407.0Q2462 1392 2507 1363L2472 1272Q2425 1296 2380.5 1312.5Q2336 1329 2281 1329Q2245 1329 2213.0 1317.0Q2181 1305 2157.5 1283.0Q2134 1261 2120.5 1230.0Q2107 1199 2107 1162ZM603 1447H727L445 915H655V840H410V702H655V628H410V313H297V628H53V702H297V840H53V915H264L0 1447H127L297 1072Q314 1034 330.0 995.0Q346 956 359 915H364Q389 996 427 1075ZM3734 1283V1397H4690V1283ZM4153 970H3734V1085H4690V970H4269V328H4153Z"/>
  </g>
</svg>