<?xml version="1.0" encoding="utf-8"?>
<svg xmlns="http://www.w3.org/2000/svg" width="16" height="16" viewBox="0 0 2048 2048">
  <g transform="translate(0, 2048) scale(1, -1)">
    <path fill="#ffffff" d="M2208 1683 2405 1077H3025L2525 702L2719 104L2208 474L1697 106L1889 702L1388 1077H2011ZM3629 1522H3699Q3704 1495 3709.5 1468.0Q3715 1441 3726 1415Q3737 1391 3752.0 1370.5Q3767 1350 3786 1332Q3847 1272 3899.0 1220.5Q3951 1169 3988.5 1113.0Q4026 1057 4047.5 988.5Q4069 920 4069 827Q4069 762 4053.5 708.5Q4038 655 4010.0 608.0Q3982 561 3943.0 519.5Q3904 478 3858 437L3820 471Q3853 504 3882.0 539.0Q3911 574 3932.5 613.0Q3954 652 3967.0 695.5Q3980 739 3980 787Q3980 821 3975.0 854.0Q3970 887 3957 919Q3943 953 3914.5 985.5Q3886 1018 3851.0 1046.5Q3816 1075 3778.5 1098.5Q3741 1122 3709 1137V418Q3709 363 3686.0 313.5Q3663 264 3624.5 227.0Q3586 190 3535.5 168.5Q3485 147 3431 147Q3393 147 3361.5 156.0Q3330 165 3307.0 184.0Q3284 203 3271.0 232.0Q3258 261 3258 301Q3258 354 3282.0 400.0Q3306 446 3344.5 479.5Q3383 513 3432.0 532.5Q3481 552 3532 552Q3557 552 3582.0 546.0Q3607 540 3629 528ZM2208 572 2575 301 2432 732 2799 997H2348L2208 1441L2070 1001H1616L1982 732L1838 301ZM182 311 0 301V488H182ZM991 311H897V485H1080V311L984 112H904Z"/>
  </g>
</svg>