<?xml version="1.0" encoding="utf-8"?>
<svg xmlns="http://www.w3.org/2000/svg" width="16" height="16" viewBox="0 0 2048 2048">
  <g transform="translate(0, 2048) scale(1, -1)">
    <path fill="#ffffff" d="M191 1312H0L130 1640H268ZM1958 1312H1823L1903 1640H2092ZM2249 1312H2113L2191 1640H2383ZM4037 1633Q4080 1633 4116.5 1616.5Q4153 1600 4179.5 1571.5Q4206 1543 4221.0 1505.5Q4236 1468 4236 1426Q4236 1384 4221.0 1346.0Q4206 1308 4179.5 1279.5Q4153 1251 4116.5 1234.5Q4080 1218 4037 1218Q3993 1218 3957.0 1234.5Q3921 1251 3894.5 1279.5Q3868 1308 3853.5 1346.0Q3839 1384 3839 1426Q3839 1468 3854.0 1505.5Q3869 1543 3895.5 1571.5Q3922 1600 3958.0 1616.5Q3994 1633 4037 1633ZM4037 1329Q4056 1329 4073.0 1337.0Q4090 1345 4102.0 1358.5Q4114 1372 4121.0 1389.5Q4128 1407 4128 1426Q4128 1465 4102.5 1493.0Q4077 1521 4037 1521Q4017 1521 4001.0 1513.0Q3985 1505 3973.0 1492.0Q3961 1479 3954.5 1462.0Q3948 1445 3948 1426Q3948 1408 3954.5 1390.5Q3961 1373 3973.0 1359.5Q3985 1346 4001.5 1337.5Q4018 1329 4037 1329Z"/>
  </g>
</svg>