<?xml version="1.0" encoding="utf-8"?>
<svg xmlns="http://www.w3.org/2000/svg" width="16" height="16" viewBox="0 0 2048 2048">
  <g transform="translate(0, 2048) scale(1, -1)">
    <path fill="#000000" d="M4796 1215 4874 1265Q4910 1217 4953.0 1168.0Q4996 1119 5042.5 1073.5Q5089 1028 5139.0 987.0Q5189 946 5240 914Q5134 842 5043.0 753.5Q4952 665 4874 563L4796 613Q4849 685 4910.0 746.5Q4971 808 5037 867H3919V961H5037Q4968 1015 4908.5 1080.0Q4849 1145 4796 1215ZM939 825Q989 825 1030.5 841.5Q1072 858 1106.0 886.0Q1140 914 1167.0 951.0Q1194 988 1216 1029L1309 977Q1280 923 1242.5 875.5Q1205 828 1158.5 792.0Q1112 756 1056.5 735.5Q1001 715 937 715Q866 715 812.5 736.5Q759 758 716.0 790.0Q673 822 636.0 859.5Q599 897 560.0 929.0Q521 961 475.5 982.5Q430 1004 371 1004Q322 1004 280.5 987.0Q239 970 204.5 941.5Q170 913 142.0 875.5Q114 838 93 798L0 851Q30 906 67.0 953.5Q104 1001 150.0 1036.0Q196 1071 251.0 1091.5Q306 1112 373 1112Q446 1112 499.5 1090.5Q553 1069 595.5 1037.5Q638 1006 674.0 968.5Q710 931 748.5 899.5Q787 868 832.5 846.5Q878 825 939 825ZM2642 1008Q2661 1008 2677.5 1000.5Q2694 993 2706.0 980.0Q2718 967 2724.5 950.0Q2731 933 2731 914Q2731 895 2724.5 878.0Q2718 861 2706.0 847.5Q2694 834 2677.5 826.0Q2661 818 2642 818Q2622 818 2605.5 826.0Q2589 834 2577.0 847.0Q2565 860 2558.5 877.5Q2552 895 2552 914Q2552 955 2576.0 981.5Q2600 1008 2642 1008ZM2166 1008Q2206 1008 2231.0 980.5Q2256 953 2256 914Q2256 896 2249.0 878.5Q2242 861 2230.0 847.5Q2218 834 2201.5 826.0Q2185 818 2166 818Q2146 818 2129.5 826.0Q2113 834 2101.0 847.0Q2089 860 2082.5 877.5Q2076 895 2076 914Q2076 953 2101.0 980.5Q2126 1008 2166 1008ZM3118 1008Q3137 1008 3153.5 1000.5Q3170 993 3182.0 980.0Q3194 967 3200.5 950.0Q3207 933 3207 914Q3207 895 3200.5 878.0Q3194 861 3182.0 847.5Q3170 834 3153.5 826.0Q3137 818 3118 818Q3098 818 3081.5 826.0Q3065 834 3053.0 847.0Q3041 860 3034.0 877.5Q3027 895 3027 914Q3027 954 3052.0 981.0Q3077 1008 3118 1008Z"/>
  </g>
</svg>