<?xml version="1.0" encoding="utf-8"?>
<svg xmlns="http://www.w3.org/2000/svg" width="16" height="16" viewBox="0 0 2048 2048">
  <g transform="translate(0, 2048) scale(1, -1)">
    <path fill="#ffffff" d="M130 1089Q157 1089 180.0 1080.0Q203 1071 220.5 1055.0Q238 1039 248.0 1016.5Q258 994 258 967Q258 938 248.0 915.5Q238 893 220.0 877.5Q202 862 178.0 853.5Q154 845 127 845Q101 845 77.5 854.0Q54 863 37.0 879.5Q20 896 10.0 918.0Q0 940 0 967Q0 995 10.0 1017.5Q20 1040 38.0 1056.0Q56 1072 79.5 1080.5Q103 1089 130 1089ZM2074 1089Q2129 1089 2164.5 1056.0Q2200 1023 2200 967Q2200 907 2164.0 876.0Q2128 845 2071 845Q2045 845 2022.0 854.0Q1999 863 1982.0 879.5Q1965 896 1955.0 918.5Q1945 941 1945 967Q1945 1024 1982.0 1056.5Q2019 1089 2074 1089ZM130 548Q157 548 180.5 539.5Q204 531 221.0 515.0Q238 499 248.0 477.0Q258 455 258 427Q258 369 220.5 337.0Q183 305 127 305Q101 305 77.5 314.0Q54 323 37.0 339.0Q20 355 10.0 377.5Q0 400 0 427Q0 455 10.0 477.5Q20 500 38.0 515.5Q56 531 79.5 539.5Q103 548 130 548ZM2074 135H1903L1973 509H2177ZM3749 103V191H4342V103Z"/>
  </g>
</svg>