<?xml version="1.0" encoding="utf-8"?>
<svg xmlns="http://www.w3.org/2000/svg" width="16" height="16" viewBox="0 0 2048 2048">
  <g transform="translate(0, 2048) scale(1, -1)">
    <path fill="#ffffff" d="M2462 2048Q2553 2048 2635.5 2023.5Q2718 1999 2780.0 1949.5Q2842 1900 2878.5 1826.0Q2915 1752 2915 1653Q2915 1574 2892.0 1515.0Q2869 1456 2832.5 1408.0Q2796 1360 2751.5 1320.5Q2707 1281 2664.5 1242.0Q2622 1203 2586.0 1161.0Q2550 1119 2531 1067Q2523 1045 2517.5 1018.0Q2512 991 2509.0 963.0Q2506 935 2504.5 907.0Q2503 879 2503 856H2368Q2368 893 2369.0 931.0Q2370 969 2374.0 1006.0Q2378 1043 2386.5 1079.0Q2395 1115 2411 1150Q2432 1197 2465.0 1236.5Q2498 1276 2534.0 1312.0Q2570 1348 2606.5 1384.0Q2643 1420 2672.0 1460.5Q2701 1501 2719.0 1547.5Q2737 1594 2737 1653Q2737 1716 2717.0 1763.5Q2697 1811 2661.0 1843.0Q2625 1875 2575.0 1891.0Q2525 1907 2465 1907Q2390 1907 2334.5 1885.5Q2279 1864 2240.0 1824.5Q2201 1785 2178.5 1728.0Q2156 1671 2147 1601L1979 1644Q1996 1740 2037.0 1815.0Q2078 1890 2140.0 1942.0Q2202 1994 2283.5 2021.0Q2365 2048 2462 2048ZM3608 2021 3561 854H3430L3391 2021ZM1292 827Q1351 827 1403.5 805.0Q1456 783 1495.5 744.5Q1535 706 1558.0 654.0Q1581 602 1581 542Q1581 482 1558.0 430.5Q1535 379 1495.5 340.5Q1456 302 1403.5 280.0Q1351 258 1292 258Q1233 258 1180.5 280.0Q1128 302 1088.5 340.5Q1049 379 1026.0 430.5Q1003 482 1003 542Q1003 602 1026.0 654.0Q1049 706 1088.0 744.5Q1127 783 1179.5 805.0Q1232 827 1292 827ZM192 760Q198 760 204.0 755.5Q210 751 215 748Q267 713 322.0 671.0Q377 629 429.5 581.5Q482 534 528.0 482.5Q574 431 608 379Q611 374 614.5 367.0Q618 360 618 354Q618 348 603.0 332.0Q588 316 569.0 299.0Q550 282 532.5 269.0Q515 256 510 256Q502 256 497.0 261.5Q492 267 487 272Q439 335 398.0 384.5Q357 434 314.5 478.5Q272 523 223.0 565.0Q174 607 110 655Q108 657 102.0 661.5Q96 666 96 669Q96 675 108.5 690.0Q121 705 137.5 720.5Q154 736 170.0 748.0Q186 760 192 760ZM1292 360Q1330 360 1363.5 374.0Q1397 388 1421.5 413.0Q1446 438 1460.5 471.0Q1475 504 1475 542Q1475 580 1460.5 613.5Q1446 647 1421.5 671.5Q1397 696 1363.5 710.5Q1330 725 1292 725Q1254 725 1220.5 710.5Q1187 696 1162.5 671.5Q1138 647 1123.5 613.5Q1109 580 1109 542Q1109 504 1123.5 471.0Q1138 438 1163.0 413.0Q1188 388 1221.0 374.0Q1254 360 1292 360ZM2546 401H2323V620H2546ZM3387 401V620H3610V401Z"/>
  </g>
</svg>