<?xml version="1.0" encoding="utf-8"?>
<svg xmlns="http://www.w3.org/2000/svg" width="16" height="16" viewBox="0 0 2048 2048">
  <g transform="translate(0, 2048) scale(1, -1)">
    <path fill="#000000" d="M4225 1425Q4202 1425 4182.0 1434.5Q4162 1444 4148.0 1459.5Q4134 1475 4126.0 1495.5Q4118 1516 4118 1539Q4118 1561 4126.5 1581.0Q4135 1601 4149.0 1617.0Q4163 1633 4182.5 1642.5Q4202 1652 4225 1652Q4247 1652 4267.0 1642.5Q4287 1633 4301.5 1617.5Q4316 1602 4324.5 1581.5Q4333 1561 4333 1539Q4333 1517 4324.5 1496.5Q4316 1476 4301.5 1460.0Q4287 1444 4267.0 1434.5Q4247 1425 4225 1425ZM4696 1650 4739 1607 4267 1107 4739 608 4696 564 4225 1064 3754 563 3711 606 4184 1107 3712 1607 3755 1650 4225 1152ZM2298 1158Q2255 1158 2227.5 1187.5Q2200 1217 2200 1259Q2200 1303 2226.0 1334.0Q2252 1365 2298 1365Q2345 1365 2369.5 1335.0Q2394 1305 2394 1260Q2394 1218 2368.0 1188.0Q2342 1158 2298 1158ZM577 1324 674 1152 438 965 676 715 574 609 340 861 102 609 0 717 238 965 0 1218 100 1324 340 1072ZM3819 994Q3796 994 3776.5 1003.5Q3757 1013 3742.5 1028.5Q3728 1044 3719.5 1064.5Q3711 1085 3711 1107Q3711 1129 3719.0 1150.0Q3727 1171 3741.5 1186.5Q3756 1202 3776.0 1211.5Q3796 1221 3819 1221Q3842 1221 3861.5 1211.5Q3881 1202 3895.5 1186.0Q3910 1170 3918.0 1149.5Q3926 1129 3926 1107Q3926 1085 3918.0 1064.5Q3910 1044 3895.5 1028.5Q3881 1013 3861.5 1003.5Q3842 994 3819 994ZM4633 1221Q4656 1221 4675.5 1211.5Q4695 1202 4709.5 1186.0Q4724 1170 4732.0 1149.5Q4740 1129 4740 1107Q4740 1085 4732.0 1064.5Q4724 1044 4709.5 1028.5Q4695 1013 4675.5 1003.5Q4656 994 4633 994Q4609 994 4589.5 1003.0Q4570 1012 4556.0 1027.5Q4542 1043 4534.0 1063.5Q4526 1084 4526 1107Q4526 1129 4534.0 1150.0Q4542 1171 4556.0 1186.5Q4570 1202 4590.0 1211.5Q4610 1221 4633 1221ZM2634 891H1955V1041H2634ZM4225 788Q4248 788 4268.0 779.0Q4288 770 4302.5 755.0Q4317 740 4325.0 719.5Q4333 699 4333 676Q4333 654 4324.5 633.5Q4316 613 4301.5 597.5Q4287 582 4267.5 572.5Q4248 563 4225 563Q4202 563 4182.5 572.5Q4163 582 4148.5 597.5Q4134 613 4126.0 633.5Q4118 654 4118 676Q4118 698 4126.0 718.5Q4134 739 4148.5 754.5Q4163 770 4182.5 779.0Q4202 788 4225 788ZM2295 775Q2341 775 2366.5 743.5Q2392 712 2392 668Q2392 647 2385.0 629.0Q2378 611 2365.0 597.0Q2352 583 2334.0 575.0Q2316 567 2295 567Q2253 567 2225.0 596.0Q2197 625 2197 667Q2197 689 2203.5 708.5Q2210 728 2223.0 743.0Q2236 758 2254.0 766.5Q2272 775 2295 775Z"/>
  </g>
</svg>