<?xml version="1.0" encoding="utf-8"?>
<svg xmlns="http://www.w3.org/2000/svg" width="16" height="16" viewBox="0 0 2048 2048">
  <g transform="translate(0, 2048) scale(1, -1)">
    <path fill="#000000" d="M586 1485Q692 1485 778.0 1447.0Q864 1409 924.5 1342.5Q985 1276 1017.5 1186.0Q1050 1096 1050 993Q1050 951 1043.0 904.5Q1036 858 1021.5 813.0Q1007 768 984.5 726.5Q962 685 930.5 653.5Q899 622 858.0 603.5Q817 585 767 585Q731 585 708.5 596.5Q686 608 673.5 628.0Q661 648 656.0 674.5Q651 701 651 730V741H645Q607 671 550.5 628.0Q494 585 412 585Q370 585 338.0 604.0Q306 623 284.5 654.0Q263 685 252.5 722.5Q242 760 242 798Q242 878 270.5 951.5Q299 1025 349.5 1081.5Q400 1138 470.0 1171.5Q540 1205 623 1205Q667 1205 710.0 1197.0Q753 1189 793 1171L731 837Q726 813 723.0 790.0Q720 767 720 742Q720 724 722.5 708.0Q725 692 732.5 680.0Q740 668 753.0 660.5Q766 653 787 653Q816 653 839.5 668.0Q863 683 881 703Q906 730 923.5 763.5Q941 797 952.0 833.0Q963 869 968.0 907.0Q973 945 973 981Q973 1074 947.0 1154.0Q921 1234 870.5 1293.0Q820 1352 745.0 1386.0Q670 1420 573 1420Q494 1420 426.5 1397.0Q359 1374 303.5 1333.0Q248 1292 206.0 1236.5Q164 1181 135.0 1116.0Q106 1051 91.5 979.0Q77 907 77 835Q77 740 105.0 654.5Q133 569 186.5 504.0Q240 439 318.5 400.5Q397 362 498 362Q564 362 627.0 376.5Q690 391 747 426L770 365Q706 325 632.5 308.5Q559 292 484 292Q371 292 281.5 336.0Q192 380 129.5 454.0Q67 528 33.5 625.0Q0 722 0 828Q0 914 18.0 996.0Q36 1078 70.5 1151.0Q105 1224 155.5 1285.5Q206 1347 271.5 1391.0Q337 1435 416.0 1460.0Q495 1485 586 1485ZM2384 1145Q2384 1091 2373.5 1033.0Q2363 975 2337.5 926.5Q2312 878 2268.5 846.5Q2225 815 2159 815Q2097 815 2055.0 844.5Q2013 874 1987.5 919.0Q1962 964 1950.5 1019.0Q1939 1074 1939 1125Q1939 1178 1951.0 1235.5Q1963 1293 1990.0 1340.5Q2017 1388 2061.0 1418.5Q2105 1449 2169 1449Q2232 1449 2273.0 1421.0Q2314 1393 2339.0 1349.0Q2364 1305 2374.0 1251.0Q2384 1197 2384 1145ZM2159 297 2810 1444H2890L2238 297ZM4947 1084V995H4746L4717 751H4910V662H4703L4661 315H4571L4612 662H4356L4315 315H4225L4266 662H4077V751H4279L4309 995H4116V1084H4322L4363 1425H4453L4413 1084H4668L4706 1425H4800L4759 1084ZM2031 1133Q2031 1102 2035.5 1060.5Q2040 1019 2053.5 981.5Q2067 944 2092.5 918.0Q2118 892 2160 892Q2205 892 2231.0 918.0Q2257 944 2270.0 981.5Q2283 1019 2286.5 1061.5Q2290 1104 2290 1137Q2290 1170 2286.5 1211.0Q2283 1252 2270.5 1288.0Q2258 1324 2232.0 1348.0Q2206 1372 2161 1372Q2119 1372 2093.5 1346.5Q2068 1321 2054.0 1284.0Q2040 1247 2035.5 1205.5Q2031 1164 2031 1133ZM446 662Q479 662 506.5 676.0Q534 690 556.5 712.5Q579 735 596.0 762.5Q613 790 626 817Q642 851 652.5 888.0Q663 925 670.5 963.5Q678 1002 683.5 1040.5Q689 1079 697 1115Q675 1122 652.5 1126.0Q630 1130 607 1130Q545 1130 494.0 1100.5Q443 1071 406.5 1023.5Q370 976 350.0 918.0Q330 860 330 803Q330 775 336.5 749.5Q343 724 357.0 704.5Q371 685 393.0 673.5Q415 662 446 662ZM4371 751H4626L4654 995H4400ZM2905 941Q2968 941 3009.0 912.5Q3050 884 3074.5 840.0Q3099 796 3109.0 742.0Q3119 688 3119 636Q3119 582 3108.5 524.0Q3098 466 3072.5 418.0Q3047 370 3004.0 339.0Q2961 308 2895 308Q2834 308 2792.0 337.0Q2750 366 2723.5 411.0Q2697 456 2685.5 511.0Q2674 566 2674 617Q2674 659 2680.5 703.5Q2687 748 2703.5 788.5Q2720 829 2747.0 863.0Q2774 897 2815 918Q2858 941 2905 941ZM2898 385Q2943 385 2968.5 411.0Q2994 437 3006.5 474.5Q3019 512 3022.0 554.0Q3025 596 3025 629Q3025 661 3022.0 702.0Q3019 743 3006.0 779.0Q2993 815 2968.0 840.0Q2943 865 2899 865Q2857 865 2831.0 839.5Q2805 814 2790.5 776.5Q2776 739 2771.0 697.5Q2766 656 2766 625Q2766 593 2770.5 551.5Q2775 510 2789.0 473.0Q2803 436 2829.0 410.5Q2855 385 2898 385Z"/>
  </g>
</svg>