<?xml version="1.0" encoding="utf-8"?>
<svg xmlns="http://www.w3.org/2000/svg" width="16" height="16" viewBox="0 0 2048 2048">
  <g transform="translate(0, 2048) scale(1, -1)">
    <path fill="#ffffff" d="M4416 510 4603 317H4462Q4430 345 4400.5 375.5Q4371 406 4344 438Q4305 404 4266.5 378.0Q4228 352 4186.5 334.5Q4145 317 4099.5 308.0Q4054 299 4002 299Q3931 299 3870.5 322.5Q3810 346 3765.0 389.0Q3720 432 3694.5 491.0Q3669 550 3669 622Q3669 683 3685.0 732.0Q3701 781 3730.0 821.0Q3759 861 3800.5 894.0Q3842 927 3892 956V962Q3872 986 3854.5 1015.0Q3837 1044 3824.5 1076.5Q3812 1109 3804.5 1142.0Q3797 1175 3797 1206Q3797 1266 3817.5 1317.5Q3838 1369 3874.5 1407.5Q3911 1446 3961.5 1467.5Q4012 1489 4073 1489Q4125 1489 4168.5 1471.0Q4212 1453 4243.5 1421.5Q4275 1390 4292.0 1346.0Q4309 1302 4309 1250Q4309 1188 4287.5 1141.0Q4266 1094 4230.0 1057.0Q4194 1020 4147.5 991.0Q4101 962 4052 937V932Q4123 840 4198.0 753.0Q4273 666 4356 585Q4382 619 4400.0 661.5Q4418 704 4430.5 750.0Q4443 796 4451.0 842.0Q4459 888 4466 930H4573Q4565 877 4553.0 820.0Q4541 763 4523.0 707.5Q4505 652 4478.5 601.0Q4452 550 4416 510ZM4064 1402Q4025 1402 3995.5 1387.0Q3966 1372 3946.0 1346.5Q3926 1321 3916.0 1288.0Q3906 1255 3906 1219Q3906 1155 3932.0 1103.0Q3958 1051 3996 1002Q4031 1021 4068.0 1043.5Q4105 1066 4136.0 1095.0Q4167 1124 4186.5 1160.0Q4206 1196 4206 1241Q4206 1273 4196.5 1302.0Q4187 1331 4169.0 1353.5Q4151 1376 4124.5 1389.0Q4098 1402 4064 1402ZM2480 1205 2540 1095 2158 908V902L2540 715L2480 605L2137 862L2132 858L2168 415H2051L2087 858L2082 862L1739 605L1680 715L2061 902V908L1680 1095L1739 1205L2082 949L2087 952L2051 1395H2168L2132 952L2137 949ZM147 1049Q179 1049 206.5 1036.5Q234 1024 253.5 1002.5Q273 981 284.0 952.5Q295 924 295 893Q295 862 284.0 833.5Q273 805 253.5 783.5Q234 762 206.5 749.5Q179 737 147 737Q115 737 88.0 749.5Q61 762 41.5 783.5Q22 805 11.0 833.5Q0 862 0 893Q0 923 11.0 951.5Q22 980 42.0 1001.5Q62 1023 88.5 1036.0Q115 1049 147 1049ZM4027 396Q4102 396 4168.0 425.0Q4234 454 4285 508Q4194 598 4112.0 693.5Q4030 789 3949 888Q3913 869 3882.0 844.0Q3851 819 3829.0 788.0Q3807 757 3794.5 720.0Q3782 683 3782 640Q3782 586 3800.0 541.5Q3818 497 3850.5 464.5Q3883 432 3928.0 414.0Q3973 396 4027 396Z"/>
  </g>
</svg>