<?xml version="1.0" encoding="utf-8"?>
<svg xmlns="http://www.w3.org/2000/svg" width="16" height="16" viewBox="0 0 2048 2048">
  <g transform="translate(0, 2048) scale(1, -1)">
    <path fill="#000000" d="M1120 0Q1064 0 1015.0 19.5Q966 39 928.0 73.5Q890 108 865.5 154.5Q841 201 834 256H576Q536 256 501.0 271.0Q466 286 440.0 312.5Q414 339 399.0 374.0Q384 409 384 448V738H377Q324 745 278.5 770.5Q233 796 199.5 834.5Q166 873 147.0 922.0Q128 971 128 1024Q128 1079 147.5 1128.5Q167 1178 201.5 1216.0Q236 1254 282.5 1278.5Q329 1303 384 1310V1600Q384 1639 399.0 1674.0Q414 1709 440.5 1735.5Q467 1762 502.0 1777.0Q537 1792 576 1792H898Q904 1846 929.0 1892.5Q954 1939 992.5 1973.5Q1031 2008 1080.0 2028.0Q1129 2048 1184 2048Q1239 2048 1288.5 2028.5Q1338 2009 1376.0 1974.5Q1414 1940 1438.5 1893.5Q1463 1847 1470 1792H1728Q1767 1792 1802.0 1777.0Q1837 1762 1863.5 1735.5Q1890 1709 1905.0 1674.0Q1920 1639 1920 1600V1184H1696Q1663 1184 1634.0 1171.5Q1605 1159 1583.0 1137.0Q1561 1115 1548.5 1086.0Q1536 1057 1536 1024Q1536 991 1548.5 962.0Q1561 933 1583.0 911.0Q1605 889 1634.0 876.5Q1663 864 1696 864H1920V448Q1920 409 1905.0 374.0Q1890 339 1863.5 312.5Q1837 286 1802.0 271.0Q1767 256 1728 256H1406V249Q1399 196 1373.5 150.5Q1348 105 1309.5 71.5Q1271 38 1222.0 19.0Q1173 0 1120 0ZM1280 384H1728Q1755 384 1773.5 402.5Q1792 421 1792 448V736Q1784 736 1775 736L1740 735Q1732 735 1723 735Q1710 735 1697.5 735.5Q1685 736 1672 737Q1618 740 1570.0 764.5Q1522 789 1486.0 828.0Q1450 867 1429.0 917.5Q1408 968 1408 1022Q1408 1081 1430.0 1133.5Q1452 1186 1490.0 1225.0Q1528 1264 1579.5 1287.5Q1631 1311 1691 1312H1792V1600Q1792 1626 1773.0 1645.0Q1754 1664 1728 1664H1344V1760Q1344 1793 1331.0 1822.0Q1318 1851 1296.5 1872.5Q1275 1894 1246.0 1907.0Q1217 1920 1184 1920Q1151 1920 1122.0 1907.0Q1093 1894 1071.5 1872.5Q1050 1851 1037.0 1822.0Q1024 1793 1024 1760V1664H576Q550 1664 531.0 1645.0Q512 1626 512 1600V1184H416Q383 1184 354.0 1171.0Q325 1158 303.5 1136.5Q282 1115 269.0 1086.0Q256 1057 256 1024Q256 991 269.0 962.0Q282 933 303.5 911.5Q325 890 354.0 877.0Q383 864 416 864H512V448Q512 422 531.0 403.0Q550 384 576 384H960V288Q960 255 973.0 226.0Q986 197 1007.5 175.5Q1029 154 1058.0 141.0Q1087 128 1120 128Q1153 128 1182.0 141.0Q1211 154 1232.5 175.5Q1254 197 1267.0 226.0Q1280 255 1280 288Z"/>
  </g>
</svg>