<?xml version="1.0" encoding="utf-8"?>
<svg id="" width="16" height="16" style="width:16px;height:16px;" version="1.1" xmlns="http://www.w3.org/2000/svg" viewBox="0 0 2048 2048" enable-background="new 0 0 2048 2048" xml:space="preserve">
    <path fill="#ffffff" d="M286.86 877.71 q-57.15 0 -109.15 -23.42 q-52 -23.43 -91.43 -62.86 q-39.42 -39.43 -62.85 -91.43 q-23.43 -52 -23.43 -109.14 l0 -304 q0 -57.15 23.43 -109.15 q23.43 -52 62.85 -91.43 q39.42 -39.42 91.43 -62.85 q52 -23.43 109.15 -23.43 l304 0 q57.14 0 109.14 23.43 q52 23.43 91.43 62.85 q39.43 39.42 62.86 91.43 q23.42 52 23.42 109.15 l0 304 q0 57.14 -23.42 109.14 q-23.43 52 -62.86 91.43 q-39.43 39.43 -91.43 62.86 q-52 23.42 -109.14 23.42 l-304 0 ZM1457.14 877.71 q-57.14 0 -109.14 -23.42 q-52 -23.43 -91.43 -62.86 q-39.43 -39.43 -62.86 -91.43 q-23.43 -52 -23.43 -109.14 l0 -304 q0 -57.15 23.43 -109.15 q23.42 -52 62.86 -91.43 q39.43 -39.42 91.43 -62.85 q52 -23.43 109.14 -23.43 l304 0 q57.15 0 109.15 23.43 q52 23.43 91.43 62.85 q39.42 39.42 62.86 91.43 q23.43 52 23.43 109.15 l0 304 q0 57.14 -23.43 109.14 q-23.43 52 -62.86 91.43 q-39.43 39.43 -91.43 62.86 q-52 23.42 -109.15 23.42 l-304 0 ZM585.14 731.43 q30.86 0 57.15 -11.43 q26.28 -11.43 46.28 -31.43 q20 -20 31.43 -46.28 q11.43 -26.29 11.43 -57.15 l0 -292.57 q0 -29.71 -11.43 -56.57 q-11.43 -26.86 -31.43 -46.86 q-20 -20 -46.86 -31.43 q-26.86 -11.42 -56.58 -11.42 l-292.57 0 q-30.86 0 -57.15 11.42 q-26.28 11.43 -46.28 31.43 q-20 20 -31.43 46.28 q-11.42 26.28 -11.42 57.15 l0 292.57 q0 30.86 11.42 57.72 q11.43 26.86 30.86 46.29 q19.43 19.43 46.28 30.86 q26.85 11.43 57.72 11.43 l292.57 0 ZM1755.43 731.43 q30.86 0 57.14 -11.43 q26.29 -11.43 46.29 -31.43 q20 -20 31.42 -46.28 q11.43 -26.29 11.43 -57.15 l0 -292.57 q0 -29.71 -11.43 -56.57 q-11.42 -26.86 -31.42 -46.86 q-20 -20 -46.86 -31.43 q-26.86 -11.42 -56.57 -11.42 l-292.57 0 q-30.86 0 -57.14 11.42 q-26.29 11.43 -46.29 31.43 q-20 20 -31.43 46.28 q-11.43 26.28 -11.43 57.15 l0 292.57 q0 30.86 11.43 57.72 q11.43 26.86 30.86 46.29 q19.43 19.43 46.28 30.86 q26.86 11.43 57.71 11.43 l292.57 0 ZM585.14 585.14 l-292.57 0 l0 -292.57 l292.57 0 l0 292.57 ZM1755.43 585.14 l-292.57 0 l0 -292.57 l292.57 0 l0 292.57 ZM286.86 2048 q-57.15 0 -109.15 -23.43 q-52 -23.43 -91.43 -62.86 q-39.42 -39.43 -62.85 -91.43 q-23.43 -52 -23.43 -109.15 l0 -304 q0 -57.14 23.43 -109.14 q23.43 -52 62.85 -91.43 q39.42 -39.43 91.43 -62.86 q52 -23.43 109.15 -23.43 l304 0 q57.14 0 109.14 23.43 q52 23.42 91.43 62.86 q39.43 39.43 62.86 91.43 q23.42 52 23.42 109.14 l0 304 q0 57.15 -23.42 109.15 q-23.43 52 -62.86 91.43 q-39.43 39.42 -91.43 62.86 q-52 23.43 -109.14 23.43 l-304 0 ZM1462.86 1462.86 l-292.57 0 l0 -292.57 l292.57 0 l0 292.57 ZM2048 1462.86 l-292.57 0 l0 -292.57 l292.57 0 l0 292.57 ZM585.14 1901.71 q30.86 0 57.15 -11.43 q26.28 -11.42 46.28 -31.42 q20 -20 31.43 -46.29 q11.43 -26.28 11.43 -57.14 l0 -292.57 q0 -29.72 -11.43 -56.57 q-11.43 -26.86 -31.43 -46.86 q-20 -20 -46.86 -31.43 q-26.86 -11.43 -56.58 -11.43 l-292.57 0 q-30.86 0 -57.15 11.43 q-26.28 11.43 -46.28 31.43 q-20 20 -31.43 46.29 q-11.42 26.28 -11.42 57.14 l0 292.57 q0 30.86 11.42 57.71 q11.43 26.86 30.86 46.28 q19.43 19.43 46.28 30.86 q26.85 11.43 57.72 11.43 l292.57 0 ZM585.14 1755.43 l-292.57 0 l0 -292.57 l292.57 0 l0 292.57 ZM1755.43 1755.43 l-292.57 0 l0 -292.57 l292.57 0 l0 292.57 ZM1462.86 2048 l-292.57 0 l0 -292.57 l292.57 0 l0 292.57 ZM2048 2048 l-292.57 0 l0 -292.57 l292.57 0 l0 292.57 Z"/>
</svg>