<?xml version="1.0" encoding="utf-8"?>
<svg xmlns="http://www.w3.org/2000/svg" width="16" height="16" viewBox="0 0 2048 2048">
  <g transform="translate(0, 2048) scale(1, -1)">
    <path fill="#ffffff" d="M0 1472Q0 1499 10.0 1522.0Q20 1545 37.5 1562.5Q55 1580 78.0 1590.0Q101 1600 128 1600Q154 1600 177.5 1590.0Q201 1580 218.5 1562.5Q236 1545 246.0 1521.5Q256 1498 256 1472Q256 1445 246.0 1422.0Q236 1399 218.5 1381.5Q201 1364 178.0 1354.0Q155 1344 128 1344Q101 1344 77.5 1354.0Q54 1364 37.0 1381.0Q20 1398 10.0 1421.5Q0 1445 0 1472ZM576 1408Q550 1408 531.0 1427.0Q512 1446 512 1472Q512 1498 531.0 1517.0Q550 1536 576 1536H1984Q2010 1536 2029.0 1517.0Q2048 1498 2048 1472Q2048 1446 2029.0 1427.0Q2010 1408 1984 1408ZM192 256Q153 256 118.0 271.0Q83 286 56.5 312.5Q30 339 15.0 374.0Q0 409 0 448V960Q0 999 15.0 1034.0Q30 1069 56.5 1095.5Q83 1122 118.0 1137.0Q153 1152 192 1152H1856Q1895 1152 1930.0 1137.0Q1965 1122 1991.5 1095.5Q2018 1069 2033.0 1034.0Q2048 999 2048 960V448Q2048 409 2033.0 374.0Q2018 339 1991.5 312.5Q1965 286 1930.0 271.0Q1895 256 1856 256ZM1856 384Q1882 384 1901.0 403.0Q1920 422 1920 448V960Q1920 986 1901.0 1005.0Q1882 1024 1856 1024H192Q166 1024 147.0 1005.0Q128 986 128 960V448Q128 422 147.0 403.0Q166 384 192 384ZM256 704Q256 731 266.0 754.0Q276 777 293.5 794.5Q311 812 334.0 822.0Q357 832 384 832Q410 832 433.5 822.0Q457 812 474.5 794.5Q492 777 502.0 753.5Q512 730 512 704Q512 677 502.0 654.0Q492 631 474.5 613.5Q457 596 434.0 586.0Q411 576 384 576Q357 576 333.5 586.0Q310 596 293.0 613.0Q276 630 266.0 653.5Q256 677 256 704ZM832 640Q806 640 787.0 659.0Q768 678 768 704Q768 730 787.0 749.0Q806 768 832 768H1728Q1754 768 1773.0 749.0Q1792 730 1792 704Q1792 678 1773.0 659.0Q1754 640 1728 640Z"/>
  </g>
</svg>