<?xml version="1.0" encoding="utf-8"?>
<svg xmlns="http://www.w3.org/2000/svg" width="16" height="16" viewBox="0 0 2048 2048">
  <g transform="translate(0, 2048) scale(1, -1)">
    <path fill="#000000" d="M1792 1472Q1792 1499 1802.0 1522.0Q1812 1545 1829.5 1562.5Q1847 1580 1870.0 1590.0Q1893 1600 1920 1600Q1946 1600 1969.5 1590.0Q1993 1580 2010.5 1562.5Q2028 1545 2038.0 1521.5Q2048 1498 2048 1472Q2048 1445 2038.0 1422.0Q2028 1399 2010.5 1381.5Q1993 1364 1970.0 1354.0Q1947 1344 1920 1344Q1893 1344 1869.5 1354.0Q1846 1364 1829.0 1381.0Q1812 1398 1802.0 1421.5Q1792 1445 1792 1472ZM64 1408Q38 1408 19.0 1427.0Q0 1446 0 1472Q0 1498 19.0 1517.0Q38 1536 64 1536H1472Q1498 1536 1517.0 1517.0Q1536 1498 1536 1472Q1536 1446 1517.0 1427.0Q1498 1408 1472 1408ZM192 256Q153 256 118.0 271.0Q83 286 56.5 312.5Q30 339 15.0 374.0Q0 409 0 448V960Q0 999 15.0 1034.0Q30 1069 56.5 1095.5Q83 1122 118.0 1137.0Q153 1152 192 1152H1856Q1895 1152 1930.0 1137.0Q1965 1122 1991.5 1095.5Q2018 1069 2033.0 1034.0Q2048 999 2048 960V448Q2048 409 2033.0 374.0Q2018 339 1991.5 312.5Q1965 286 1930.0 271.0Q1895 256 1856 256ZM1856 384Q1882 384 1901.0 403.0Q1920 422 1920 448V960Q1920 986 1901.0 1005.0Q1882 1024 1856 1024H192Q166 1024 147.0 1005.0Q128 986 128 960V448Q128 422 147.0 403.0Q166 384 192 384ZM1536 704Q1536 731 1546.0 754.0Q1556 777 1573.5 794.5Q1591 812 1614.0 822.0Q1637 832 1664 832Q1690 832 1713.5 822.0Q1737 812 1754.5 794.5Q1772 777 1782.0 753.5Q1792 730 1792 704Q1792 677 1782.0 654.0Q1772 631 1754.5 613.5Q1737 596 1714.0 586.0Q1691 576 1664 576Q1637 576 1613.5 586.0Q1590 596 1573.0 613.0Q1556 630 1546.0 653.5Q1536 677 1536 704ZM320 640Q294 640 275.0 659.0Q256 678 256 704Q256 730 275.0 749.0Q294 768 320 768H1216Q1242 768 1261.0 749.0Q1280 730 1280 704Q1280 678 1261.0 659.0Q1242 640 1216 640Z"/>
  </g>
</svg>