<?xml version="1.0" encoding="utf-8"?>
<svg id="" width="16" height="16" style="width:16px;height:16px;" version="1.1"
    xmlns="http://www.w3.org/2000/svg" viewBox="0 0 2048 2048" enable-background="new 0 0 2048 2048"
    xml:space="preserve"><path fill="#ffffff" d="M430.86 2048 q-89.15 0 -168 -35.43 q-78.86 -35.43 -137.14 -95.43 q-58.28 -60 -92 -140 q-33.72 -80 -33.72 -168 l0 -1178.28 q0 -89.15 35.43 -168 q35.43 -78.86 95.43 -137.14 q60 -58.28 140 -92 q80 -33.72 168 -33.72 l1178.28 0 q89.15 0 168 35.43 q78.86 35.43 137.14 95.43 q58.29 60 92 140 q33.72 80 33.72 168 l0 640 q0 121.14 -85.71 206.85 l-676.58 676.58 q-85.71 85.71 -206.85 85.71 l-648 0 ZM438.86 1901.71 l585.14 0 l0 -446.85 q0 -85.72 32.57 -161.72 q32.57 -76 89.14 -133.71 q56.57 -57.72 131.43 -93.72 q74.86 -36 159.42 -40.57 q6.86 0 13.15 -0.57 q6.28 -0.57 13.14 -0.57 l438.85 0 l0 -585.14 q0 -60.57 -22.86 -113.72 q-22.86 -53.14 -62.86 -93.14 q-40 -40 -93.14 -62.86 q-53.14 -22.85 -113.71 -22.85 l-1170.28 0 q-60.57 0 -113.72 22.85 q-53.14 22.86 -93.14 62.86 q-40 40 -62.86 93.14 q-22.85 53.15 -22.85 113.72 l0 1170.28 q0 60.57 22.85 113.71 q22.86 53.14 62.86 93.14 q40 40 93.14 62.86 q53.15 22.86 113.72 22.86 ZM1170.29 1869.71 q2.28 -2.28 33.71 -32.57 q31.43 -30.29 80.57 -78.86 q49.14 -48.57 110.86 -110.28 q61.71 -61.71 126.29 -126.28 q64.57 -64.58 126.28 -126.29 q61.71 -61.72 110.28 -110.86 q48.58 -49.14 78.86 -80.57 q30.29 -31.43 32.57 -33.71 l-406.85 0 q-60.57 0 -113.71 22.86 q-53.14 22.86 -93.14 62.86 q-40 40 -62.86 93.14 q-22.86 53.14 -22.86 113.71 l0 406.85 Z"/></svg>