<?xml version="1.0" encoding="utf-8"?>
<svg id="" width="16" height="16" style="width:16px;height:16px;" version="1.1"
    xmlns="http://www.w3.org/2000/svg" viewBox="0 0 2048 2048" enable-background="new 0 0 2048 2048"
    xml:space="preserve"><path fill="#000000" d="M83.24 1560.57 q0 -29.08 13.54 -44.12 q13.54 -15.05 36.61 -28.09 q28.08 -15.04 60.18 -24.57 q32.09 -9.53 61.19 -21.56 q88.25 -35.11 172.5 -79.24 q84.25 -44.13 159.47 -101.29 q94.28 -71.21 165.48 -159.97 q71.21 -88.76 118.85 -189.56 q47.64 -100.79 71.71 -212.13 q24.07 -111.33 24.07 -228.67 q0 -97.28 -15.54 -190.05 q-15.55 -92.78 -34.6 -187.05 q-1.01 -5.02 -1.51 -9.03 q-0.5 -4.01 -0.5 -9.03 q0 -32.09 22.06 -54.16 q22.07 -22.07 54.16 -22.07 q57.17 0 117.85 10.53 q60.68 10.53 120.36 29.09 q59.67 18.55 116.84 43.13 q57.16 24.57 106.31 52.66 q118.35 68.2 213.63 163.98 q95.28 95.78 161.47 211.12 q66.19 115.34 101.8 246.22 q35.61 130.88 35.61 267.28 q0 141.41 -36.61 272.3 q-36.61 130.88 -103.81 244.72 q-67.19 113.84 -160.47 207.11 q-93.28 93.27 -207.61 159.97 q-114.33 66.7 -245.22 103.3 q-130.88 36.61 -272.3 36.61 q-120.35 0 -242.71 -30.59 q-122.36 -30.59 -233.69 -87.75 q-111.32 -57.16 -206.1 -139.41 q-94.78 -82.24 -159.97 -185.54 q-13.04 -20.06 -13.04 -44.13 ZM938.75 1918.62 q123.36 0 238.19 -32.09 q114.84 -32.1 214.63 -89.76 q99.8 -57.66 181.54 -139.4 q81.74 -81.74 140.41 -181.04 q58.67 -99.29 90.77 -214.13 q32.1 -114.84 32.1 -238.19 q0 -112.33 -26.58 -217.64 q-26.58 -105.31 -76.23 -199.58 q-49.64 -94.27 -119.35 -174.51 q-69.7 -80.24 -156.45 -141.92 q-86.75 -61.68 -188.05 -101.8 q-101.3 -40.12 -212.62 -54.16 q17.05 83.25 27.58 167 q10.53 83.75 10.53 169 q0 146.43 -33.6 283.83 q-33.6 137.4 -101.8 266.78 q-58.17 110.32 -135.39 196.08 q-77.22 85.75 -168.99 153.45 q-91.77 67.7 -196.58 119.85 q-104.81 52.15 -217.14 95.29 q63.18 79.23 141.91 141.41 q78.73 62.18 168.5 104.81 q89.76 42.63 187.55 64.69 q97.79 22.07 199.09 22.07 Z"/></svg>