<?xml version="1.0" encoding="utf-8"?>
<svg xmlns="http://www.w3.org/2000/svg" width="16" height="16" viewBox="0 0 2048 2048">
  <g transform="translate(0, 2048) scale(1, -1)">
    <path fill="#ffffff" d="M896 768H192Q166 768 147.0 787.0Q128 806 128 832V1600Q128 1626 147.0 1645.0Q166 1664 192 1664H896V1984Q896 2010 915.0 2029.0Q934 2048 960 2048Q986 2048 1005.0 2029.0Q1024 2010 1024 1984V1664H1728Q1754 1664 1773.0 1645.0Q1792 1626 1792 1600V832Q1792 806 1773.0 787.0Q1754 768 1728 768H1024V192Q1024 166 1005.0 147.0Q986 128 960 128Q934 128 915.0 147.0Q896 166 896 192ZM256 1536V896H896V1536ZM1024 1536V896H1664V1536Z"/>
  </g>
</svg>