<?xml version="1.0" encoding="utf-8"?>
<svg xmlns="http://www.w3.org/2000/svg" width="16" height="16" viewBox="0 0 2048 2048">
  <g transform="translate(0, 2048) scale(1, -1)">
    <path fill="#ffffff" d="M512 1664H192Q166 1664 147.0 1683.0Q128 1702 128 1728Q128 1754 147.0 1773.0Q166 1792 192 1792H512Q512 1800 511.5 1808.5Q511 1817 511 1826Q511 1843 513.0 1859.5Q515 1876 521.5 1889.5Q528 1903 541.0 1911.5Q554 1920 576 1920Q598 1920 610.5 1911.5Q623 1903 629.5 1889.5Q636 1876 638.0 1859.5Q640 1843 640 1826V1792H1280Q1280 1800 1279.5 1808.5Q1279 1817 1279 1826Q1279 1843 1281.0 1859.5Q1283 1876 1289.5 1889.5Q1296 1903 1309.0 1911.5Q1322 1920 1344 1920Q1366 1920 1378.5 1911.5Q1391 1903 1397.5 1889.5Q1404 1876 1406.0 1859.5Q1408 1843 1408 1826V1792H1728Q1754 1792 1773.0 1773.0Q1792 1754 1792 1728Q1792 1702 1773.0 1683.0Q1754 1664 1728 1664H1408V1630Q1408 1613 1406.0 1596.5Q1404 1580 1397.5 1566.5Q1391 1553 1378.5 1544.5Q1366 1536 1344 1536Q1322 1536 1309.0 1544.5Q1296 1553 1289.5 1566.5Q1283 1580 1281.0 1596.5Q1279 1613 1279 1630Q1279 1639 1279.5 1647.5Q1280 1656 1280 1664H640V1630Q640 1613 638.0 1596.5Q636 1580 629.5 1566.5Q623 1553 610.5 1544.5Q598 1536 576 1536Q554 1536 541.0 1544.5Q528 1553 521.5 1566.5Q515 1580 513.0 1596.5Q511 1613 511 1630Q511 1639 511.5 1647.5Q512 1656 512 1664ZM960 628Q918 562 862.5 502.5Q807 443 743.0 392.0Q679 341 608.5 298.5Q538 256 468 224Q456 218 434.0 209.0Q412 200 385.5 189.5Q359 179 330.0 168.0Q301 157 274.5 148.0Q248 139 226.5 133.5Q205 128 193 128Q165 128 146.5 146.5Q128 165 128 193Q128 216 142.0 231.5Q156 247 177 254Q245 274 309.0 296.5Q373 319 437 350Q505 383 572.5 425.5Q640 468 700.0 520.5Q760 573 809.0 635.0Q858 697 890 768H64Q38 768 19.0 787.0Q0 806 0 832Q0 858 19.0 877.0Q38 896 64 896H256V1344Q256 1370 275.0 1389.0Q294 1408 320 1408H896Q896 1416 895.5 1424.5Q895 1433 895 1442Q895 1459 897.0 1475.5Q899 1492 905.5 1505.5Q912 1519 925.0 1527.5Q938 1536 960 1536Q982 1536 994.5 1527.5Q1007 1519 1013.5 1505.5Q1020 1492 1022.0 1475.5Q1024 1459 1024 1442V1408H1600Q1626 1408 1645.0 1389.0Q1664 1370 1664 1344V896H1856Q1882 896 1901.0 877.0Q1920 858 1920 832Q1920 806 1901.0 787.0Q1882 768 1856 768H1030Q1061 697 1110.0 635.0Q1159 573 1219.0 520.5Q1279 468 1346.5 425.5Q1414 383 1483 350Q1548 319 1611.5 297.0Q1675 275 1744 254Q1765 247 1778.5 231.5Q1792 216 1792 193Q1792 166 1773.5 147.0Q1755 128 1728 128Q1721 128 1713 130Q1646 144 1580.0 169.5Q1514 195 1452 224Q1381 256 1311.0 298.5Q1241 341 1177.0 392.0Q1113 443 1057.5 502.5Q1002 562 960 628ZM384 1280V896H896V1280ZM1024 1280V896H1536V1280Z"/>
  </g>
</svg>