<?xml version="1.0" encoding="utf-8"?>
<svg xmlns="http://www.w3.org/2000/svg" width="16" height="16" viewBox="0 0 2048 2048">
  <g transform="translate(0, 2048) scale(1, -1)">
    <path fill="#ffffff" d="M0 1024Q0 1166 36.5 1297.0Q73 1428 139.5 1541.5Q206 1655 299.5 1748.5Q393 1842 506.5 1908.5Q620 1975 751.0 2011.5Q882 2048 1024 2048Q1182 2048 1332.0 2000.5Q1482 1953 1612 1862L1520 1770Q1410 1843 1283.5 1881.5Q1157 1920 1024 1920Q900 1920 785.5 1888.0Q671 1856 571.5 1797.5Q472 1739 390.5 1657.5Q309 1576 250.5 1476.5Q192 1377 160.0 1262.5Q128 1148 128 1024Q128 900 160.0 785.5Q192 671 250.5 571.5Q309 472 390.5 390.5Q472 309 571.5 250.5Q671 192 785.5 160.0Q900 128 1024 128Q1149 128 1267.5 161.0Q1386 194 1492 260Q1515 274 1536.5 290.0Q1558 306 1581 322Q1590 328 1600.0 332.0Q1610 336 1621 336Q1647 336 1666.0 317.0Q1685 298 1685 272Q1685 243 1661 222Q1641 205 1618.0 189.0Q1595 173 1572 159Q1448 81 1309.0 40.5Q1170 0 1024 0Q882 0 751.0 36.5Q620 73 506.0 139.5Q392 206 299.0 299.0Q206 392 139.5 506.0Q73 620 36.5 751.0Q0 882 0 1024ZM1024 1088Q1024 1114 1043 1133L1939 2029Q1958 2048 1984 2048Q2010 2048 2029.0 2029.0Q2048 2010 2048 1984Q2048 1958 2029 1939L1133 1043Q1114 1024 1088 1024Q1062 1024 1043.0 1043.0Q1024 1062 1024 1088ZM256 1024Q256 1130 283.5 1228.0Q311 1326 361.0 1411.5Q411 1497 481.0 1567.0Q551 1637 636.5 1687.0Q722 1737 820.0 1764.5Q918 1792 1024 1792Q1131 1792 1233.5 1763.0Q1336 1734 1427 1678L1334 1584Q1189 1664 1024 1664Q891 1664 774.5 1614.0Q658 1564 571.0 1477.0Q484 1390 434.0 1273.5Q384 1157 384 1024Q384 891 434.0 774.5Q484 658 571.0 571.0Q658 484 774.5 434.0Q891 384 1024 384Q1085 384 1138.5 393.5Q1192 403 1240.5 421.0Q1289 439 1336.0 466.5Q1383 494 1431 530Q1441 538 1450.0 541.5Q1459 545 1472 545Q1498 545 1517.0 526.0Q1536 507 1536 481Q1536 464 1530.5 453.5Q1525 443 1513 432Q1466 390 1407.0 357.0Q1348 324 1283.5 301.5Q1219 279 1152.5 267.5Q1086 256 1024 256Q918 256 819.5 283.5Q721 311 636.0 361.0Q551 411 481.0 481.0Q411 551 361.0 636.0Q311 721 283.5 819.5Q256 918 256 1024ZM512 1024V1034Q512 1101 530.5 1164.0Q549 1227 582.5 1283.0Q616 1339 662.5 1385.5Q709 1432 765.0 1465.5Q821 1499 884.0 1517.5Q947 1536 1014 1536Q1074 1536 1128.5 1525.0Q1183 1514 1239 1489L1140 1390Q1109 1400 1078.5 1404.0Q1048 1408 1016 1408Q938 1408 869.5 1377.0Q801 1346 750.0 1293.0Q699 1240 669.5 1170.5Q640 1101 640 1024Q640 947 669.5 877.5Q699 808 750.0 755.0Q801 702 869.5 671.0Q938 640 1016 640Q1055 640 1088.0 645.5Q1121 651 1151.0 662.0Q1181 673 1210.0 689.5Q1239 706 1270 729Q1280 737 1289.0 740.5Q1298 744 1311 744Q1337 744 1356.0 725.0Q1375 706 1375 680Q1375 652 1352 631Q1319 600 1278.5 577.5Q1238 555 1194.0 540.5Q1150 526 1103.5 519.0Q1057 512 1014 512Q910 512 818.5 553.5Q727 595 659.0 665.5Q591 736 551.5 828.5Q512 921 512 1024Z"/>
  </g>
</svg>