<?xml version="1.0" encoding="utf-8"?>
<svg xmlns="http://www.w3.org/2000/svg" width="16" height="16" viewBox="0 0 2048 2048">
  <g transform="translate(0, 2048) scale(1, -1)">
    <path fill="#ffffff" d="M384 1024Q384 1157 434.0 1273.5Q484 1390 571.0 1477.0Q658 1564 774.5 1614.0Q891 1664 1024 1664Q1157 1664 1273.5 1614.0Q1390 1564 1477.0 1477.0Q1564 1390 1614.0 1273.5Q1664 1157 1664 1024Q1664 891 1614.0 774.5Q1564 658 1477.0 571.0Q1390 484 1273.5 434.0Q1157 384 1024 384Q891 384 774.5 434.0Q658 484 571.0 571.0Q484 658 434.0 774.5Q384 891 384 1024Z"/>
  </g>
</svg>