<?xml version="1.0" encoding="utf-8"?>
<svg xmlns="http://www.w3.org/2000/svg" width="16" height="16" viewBox="0 0 2048 2048">
  <g transform="translate(0, 2048) scale(1, -1)">
    <path fill="#000000" d="M640 1024V1032Q640 1110 671.0 1178.5Q702 1247 755.0 1298.0Q808 1349 877.5 1378.5Q947 1408 1024 1408Q1104 1408 1174.0 1378.0Q1244 1348 1296.0 1296.0Q1348 1244 1378.0 1174.0Q1408 1104 1408 1024Q1408 944 1378.0 874.0Q1348 804 1296.0 752.0Q1244 700 1174.0 670.0Q1104 640 1024 640Q944 640 874.0 670.0Q804 700 752.0 752.0Q700 804 670.0 874.0Q640 944 640 1024Z"/>
  </g>
</svg>