<?xml version="1.0" encoding="utf-8"?>
<svg xmlns="http://www.w3.org/2000/svg" width="16" height="16" viewBox="0 0 2048 2048">
  <g transform="translate(0, 2048) scale(1, -1)">
    <path fill="#000000" d="M0 1024Q0 1166 36.5 1297.0Q73 1428 139.5 1541.5Q206 1655 299.5 1748.5Q393 1842 506.5 1908.5Q620 1975 751.0 2011.5Q882 2048 1024 2048Q1165 2048 1296.0 2011.5Q1427 1975 1541.0 1908.5Q1655 1842 1748.5 1748.5Q1842 1655 1908.5 1541.0Q1975 1427 2011.5 1296.0Q2048 1165 2048 1024Q2048 882 2011.5 751.0Q1975 620 1908.5 506.5Q1842 393 1748.5 299.5Q1655 206 1541.5 139.5Q1428 73 1297.0 36.5Q1166 0 1024 0Q882 0 751.0 36.5Q620 73 506.0 139.5Q392 206 299.0 299.0Q206 392 139.5 506.0Q73 620 36.5 751.0Q0 882 0 1024ZM1920 1024Q1920 1147 1888.0 1261.5Q1856 1376 1797.5 1475.5Q1739 1575 1657.0 1657.0Q1575 1739 1475.5 1797.5Q1376 1856 1261.5 1888.0Q1147 1920 1024 1920Q900 1920 785.5 1888.0Q671 1856 571.5 1797.5Q472 1739 390.5 1657.5Q309 1576 250.5 1476.5Q192 1377 160.0 1262.5Q128 1148 128 1024Q128 900 160.0 785.5Q192 671 250.5 571.5Q309 472 390.5 390.5Q472 309 571.5 250.5Q671 192 785.5 160.0Q900 128 1024 128Q1148 128 1262.5 160.0Q1377 192 1476.5 250.5Q1576 309 1657.5 390.5Q1739 472 1797.5 571.5Q1856 671 1888.0 785.5Q1920 900 1920 1024ZM384 1024Q384 1157 434.0 1273.5Q484 1390 571.0 1477.0Q658 1564 774.5 1614.0Q891 1664 1024 1664Q1157 1664 1273.5 1614.0Q1390 1564 1477.0 1477.0Q1564 1390 1614.0 1273.5Q1664 1157 1664 1024Q1664 891 1614.0 774.5Q1564 658 1477.0 571.0Q1390 484 1273.5 434.0Q1157 384 1024 384Q891 384 774.5 434.0Q658 484 571.0 571.0Q484 658 434.0 774.5Q384 891 384 1024Z"/>
  </g>
</svg>