<?xml version="1.0" encoding="utf-8"?>
<svg xmlns="http://www.w3.org/2000/svg" width="16" height="16" viewBox="0 0 2048 2048">
  <g transform="translate(0, 2048) scale(1, -1)">
    <path fill="#ffffff" d="M1797 1792Q1847 1792 1892.5 1771.5Q1938 1751 1972.5 1716.5Q2007 1682 2027.5 1636.5Q2048 1591 2048 1541V896Q2048 828 2013.5 768.0Q1979 708 1920 674V448Q1920 409 1905.0 374.0Q1890 339 1863.5 312.5Q1837 286 1802.0 271.0Q1767 256 1728 256H1216Q1190 256 1171 275L1024 422L877 275Q858 256 832 256H320Q281 256 246.0 271.0Q211 286 184.5 312.5Q158 339 143.0 374.0Q128 409 128 448V674Q69 708 34.5 768.0Q0 828 0 896V1541Q0 1591 20.5 1636.5Q41 1682 75.5 1716.5Q110 1751 155.5 1771.5Q201 1792 251 1792ZM1920 1536Q1920 1562 1910.0 1585.5Q1900 1609 1882.5 1626.5Q1865 1644 1841.5 1654.0Q1818 1664 1792 1664H256Q229 1664 206.0 1654.0Q183 1644 165.5 1626.5Q148 1609 138.0 1586.0Q128 1563 128 1536V896Q128 869 138.0 845.5Q148 822 165.0 805.0Q182 788 205.5 778.0Q229 768 256 768H1792Q1819 768 1842.0 778.0Q1865 788 1882.5 805.5Q1900 823 1910.0 846.0Q1920 869 1920 896ZM1664 1536Q1690 1536 1713.5 1526.0Q1737 1516 1754.5 1498.5Q1772 1481 1782.0 1457.5Q1792 1434 1792 1408V1024Q1792 997 1782.0 974.0Q1772 951 1754.5 933.5Q1737 916 1714.0 906.0Q1691 896 1664 896H384Q357 896 333.5 906.0Q310 916 293.0 933.0Q276 950 266.0 973.5Q256 997 256 1024V1408Q256 1435 266.0 1458.0Q276 1481 293.5 1498.5Q311 1516 334.0 1526.0Q357 1536 384 1536ZM704 1408H384V1024H704ZM1216 1024V1408H832V1024ZM1344 1024H1664V1408H1344ZM1792 640H256V448Q256 422 275.0 403.0Q294 384 320 384H806L979 557Q998 576 1024 576Q1050 576 1069 557L1243 384H1728Q1754 384 1773.0 403.0Q1792 422 1792 448Z"/>
  </g>
</svg>