<?xml version="1.0" encoding="utf-8"?>
<svg xmlns="http://www.w3.org/2000/svg" width="16" height="16" viewBox="0 0 2048 2048">
  <g transform="translate(0, 2048) scale(1, -1)">
    <path fill="#ffffff" d="M1280 1984Q1280 2010 1299.0 2029.0Q1318 2048 1344 2048Q1361 2048 1375 2040Q1527 1960 1643.5 1855.5Q1760 1751 1843.0 1623.5Q1926 1496 1976.5 1347.5Q2027 1199 2048 1031V1025Q2048 999 2029.0 979.5Q2010 960 1984 960Q1958 960 1941.5 976.0Q1925 992 1920 1017Q1914 1051 1910.0 1084.5Q1906 1118 1899 1152Q1876 1273 1831.0 1384.5Q1786 1496 1709 1593Q1649 1668 1580.5 1733.5Q1512 1799 1434 1853Q1415 1866 1397.0 1878.0Q1379 1890 1359 1902Q1348 1908 1336.0 1914.0Q1324 1920 1313 1928Q1297 1939 1288.5 1951.5Q1280 1964 1280 1984ZM128 320Q128 332 133 344L709 1752Q716 1769 732.5 1780.5Q749 1792 768 1792Q787 1792 803.5 1780.5Q820 1769 827 1752L1403 344Q1408 332 1408 320Q1408 294 1389.0 275.0Q1370 256 1344 256Q1324 256 1308.5 267.0Q1293 278 1285 296L1088 777V768H448V777L251 296Q243 278 227.5 267.0Q212 256 192 256Q166 256 147.0 275.0Q128 294 128 320ZM1216 1665Q1216 1692 1235.5 1710.0Q1255 1728 1281 1728Q1298 1728 1312 1720Q1353 1700 1393.0 1670.0Q1433 1640 1469.0 1604.5Q1505 1569 1537.0 1530.0Q1569 1491 1593 1453Q1645 1372 1679.0 1282.5Q1713 1193 1727 1097Q1727 1096 1727 1095L1728 1090Q1728 1089 1728 1088Q1728 1061 1709.5 1042.5Q1691 1024 1664 1024Q1639 1024 1622.5 1040.0Q1606 1056 1601 1079Q1592 1123 1582.5 1161.5Q1573 1200 1560.0 1236.0Q1547 1272 1529.5 1307.5Q1512 1343 1487 1382Q1461 1421 1435.0 1452.0Q1409 1483 1380.5 1509.0Q1352 1535 1319.5 1558.5Q1287 1582 1248 1608Q1216 1629 1216 1665ZM768 1559 497 896H1039Z"/>
  </g>
</svg>