<?xml version="1.0" encoding="utf-8"?>
<svg xmlns="http://www.w3.org/2000/svg" width="16" height="16" viewBox="0 0 2048 2048">
  <g transform="translate(0, 2048) scale(1, -1)">
    <path fill="#ffffff" d="M0 1504V1509Q0 1566 23.0 1617.0Q46 1668 85.0 1707.0Q124 1746 175.0 1769.0Q226 1792 283 1792Q319 1792 354.5 1783.5Q390 1775 422.0 1759.0Q454 1743 481.5 1719.0Q509 1695 528 1664Q538 1648 538 1629Q538 1603 519.5 1583.5Q501 1564 475 1564Q451 1564 435.5 1579.5Q420 1595 402.0 1614.0Q384 1633 358.0 1648.5Q332 1664 288 1664Q255 1664 226.0 1651.0Q197 1638 175.5 1616.5Q154 1595 141.0 1566.0Q128 1537 128 1504Q128 1471 141.0 1442.0Q154 1413 175.5 1391.5Q197 1370 226.0 1357.0Q255 1344 288 1344Q293 1344 296 1343Q299 1344 305 1344H1728Q1754 1344 1773.0 1325.0Q1792 1306 1792 1280Q1792 1254 1773.0 1235.0Q1754 1216 1728 1216H305Q299 1216 296 1217Q293 1216 289.5 1216.0Q286 1216 283 1216Q224 1216 172.5 1239.5Q121 1263 83.0 1302.5Q45 1342 22.5 1394.0Q0 1446 0 1504ZM832 1536Q806 1536 787.0 1555.0Q768 1574 768 1600Q768 1626 787.0 1645.0Q806 1664 832 1664H1984Q2010 1664 2029.0 1645.0Q2048 1626 2048 1600Q2048 1574 2029.0 1555.0Q2010 1536 1984 1536ZM448 896Q422 896 403.0 915.0Q384 934 384 960Q384 986 403.0 1005.0Q422 1024 448 1024H1984Q2010 1024 2029.0 1005.0Q2048 986 2048 960Q2048 934 2029.0 915.0Q2010 896 1984 896ZM64 576Q38 576 19.0 595.0Q0 614 0 640Q0 666 19.0 685.0Q38 704 64 704H1600Q1626 704 1645.0 685.0Q1664 666 1664 640Q1664 614 1645.0 595.0Q1626 576 1600 576ZM448 256Q422 256 403.0 275.0Q384 294 384 320Q384 346 403.0 365.0Q422 384 448 384H1984Q2010 384 2029.0 365.0Q2048 346 2048 320Q2048 294 2029.0 275.0Q2010 256 1984 256Z"/>
  </g>
</svg>