<?xml version="1.0" encoding="utf-8"?>
<svg xmlns="http://www.w3.org/2000/svg" width="16" height="16" viewBox="0 0 2048 2048">
  <g transform="translate(0, 2048) scale(1, -1)">
    <path fill="#000000" d="M1728 1920Q1767 1920 1802.0 1905.0Q1837 1890 1863.5 1863.5Q1890 1837 1905.0 1802.0Q1920 1767 1920 1728V320Q1920 281 1905.0 246.0Q1890 211 1863.5 184.5Q1837 158 1802.0 143.0Q1767 128 1728 128H1216Q1140 128 1073.0 162.0Q1006 196 960 257Q914 196 847.0 162.0Q780 128 704 128H192Q153 128 118.0 143.0Q83 158 56.5 184.5Q30 211 15.0 246.0Q0 281 0 320V1728Q0 1767 15.0 1802.0Q30 1837 56.5 1863.5Q83 1890 118.0 1905.0Q153 1920 192 1920H704Q780 1920 847.0 1886.0Q914 1852 960 1791Q1006 1852 1073.0 1886.0Q1140 1920 1216 1920ZM704 256Q743 256 778.0 271.0Q813 286 839.5 312.5Q866 339 881.0 374.0Q896 409 896 448V1600Q896 1639 881.0 1674.0Q866 1709 839.5 1735.5Q813 1762 778.0 1777.0Q743 1792 704 1792H192Q166 1792 147.0 1773.0Q128 1754 128 1728V320Q128 294 147.0 275.0Q166 256 192 256ZM1792 1728Q1792 1754 1773.0 1773.0Q1754 1792 1728 1792H1216Q1177 1792 1142.0 1777.0Q1107 1762 1080.5 1735.5Q1054 1709 1039.0 1674.0Q1024 1639 1024 1600V448Q1024 409 1039.0 374.0Q1054 339 1080.5 312.5Q1107 286 1142.0 271.0Q1177 256 1216 256H1728Q1754 256 1773.0 275.0Q1792 294 1792 320Z"/>
  </g>
</svg>