<?xml version="1.0" encoding="utf-8"?>
<svg xmlns="http://www.w3.org/2000/svg" width="16" height="16" viewBox="0 0 2048 2048">
  <g transform="translate(0, 2048) scale(1, -1)">
    <path fill="#ffffff" d="M2048 1171V441Q2048 378 2022.5 321.0Q1997 264 1954.5 221.5Q1912 179 1855.0 153.5Q1798 128 1735 128H313Q250 128 193.0 153.5Q136 179 93.5 221.5Q51 264 25.5 321.0Q0 378 0 441V1171Q0 1204 8.5 1236.0Q17 1268 33.5 1297.0Q50 1326 72.5 1350.0Q95 1374 124 1391L991 1911Q1006 1920 1024 1920Q1042 1920 1057 1911L1924 1391Q1952 1374 1975.0 1350.0Q1998 1326 2014.5 1297.0Q2031 1268 2039.5 1236.0Q2048 1204 2048 1171ZM1024 1781Q813 1655 606 1531L189 1280L1024 779L1859 1280Q1649 1406 1442.0 1530.5Q1235 1655 1024 1781ZM1728 256Q1767 256 1802.0 271.0Q1837 286 1863.5 312.5Q1890 339 1905.0 374.0Q1920 409 1920 448V1167L1057 649Q1042 640 1024 640Q1006 640 991 649L128 1167V448Q128 409 143.0 374.0Q158 339 184.5 312.5Q211 286 246.0 271.0Q281 256 320 256Z"/>
  </g>
</svg>