<?xml version="1.0" encoding="utf-8"?>
<svg xmlns="http://www.w3.org/2000/svg" width="16" height="16" viewBox="0 0 2048 2048">
  <g transform="translate(0, 2048) scale(1, -1)">
    <path fill="#000000" d="M1920 960V320Q1920 281 1905.0 246.0Q1890 211 1863.5 184.5Q1837 158 1802.0 143.0Q1767 128 1728 128H320Q281 128 246.0 143.0Q211 158 184.5 184.5Q158 211 143.0 246.0Q128 281 128 320V960Q128 999 143.0 1034.0Q158 1069 184.5 1095.5Q211 1122 246.0 1137.0Q281 1152 320 1152H512V1728Q512 1767 527.0 1802.0Q542 1837 568.5 1863.5Q595 1890 630.0 1905.0Q665 1920 704 1920H1344Q1383 1920 1418.0 1905.0Q1453 1890 1479.5 1863.5Q1506 1837 1521.0 1802.0Q1536 1767 1536 1728V1152H1728Q1767 1152 1802.0 1137.0Q1837 1122 1863.5 1095.5Q1890 1069 1905.0 1034.0Q1920 999 1920 960ZM640 896H1408V1728Q1408 1754 1389.0 1773.0Q1370 1792 1344 1792H704Q678 1792 659.0 1773.0Q640 1754 640 1728ZM768 1600Q768 1626 787.0 1645.0Q806 1664 832 1664Q858 1664 877.0 1645.0Q896 1626 896 1600Q896 1574 877.0 1555.0Q858 1536 832 1536Q806 1536 787.0 1555.0Q768 1574 768 1600ZM1024 1536Q998 1536 979.0 1555.0Q960 1574 960 1600Q960 1626 979.0 1645.0Q998 1664 1024 1664H1216Q1242 1664 1261.0 1645.0Q1280 1626 1280 1600Q1280 1574 1261.0 1555.0Q1242 1536 1216 1536ZM768 1344Q768 1370 787.0 1389.0Q806 1408 832 1408Q859 1408 877.5 1389.5Q896 1371 896 1344Q896 1318 877.0 1299.0Q858 1280 832 1280Q806 1280 787.0 1299.0Q768 1318 768 1344ZM1024 1280Q998 1280 979.0 1299.0Q960 1318 960 1344Q960 1370 979.0 1389.0Q998 1408 1024 1408H1216Q1242 1408 1261.0 1389.0Q1280 1370 1280 1344Q1280 1318 1261.0 1299.0Q1242 1280 1216 1280ZM1792 960Q1792 986 1773.0 1005.0Q1754 1024 1728 1024H1536V896H1570Q1587 896 1603.5 894.0Q1620 892 1633.5 885.5Q1647 879 1655.5 866.5Q1664 854 1664 832Q1664 806 1645.0 787.0Q1626 768 1600 768H448Q422 768 403.0 787.0Q384 806 384 832Q384 854 392.5 866.5Q401 879 414.5 885.5Q428 892 444.5 894.0Q461 896 478 896H512V1024H320Q294 1024 275.0 1005.0Q256 986 256 960V320Q256 294 275.0 275.0Q294 256 320 256H1728Q1754 256 1773.0 275.0Q1792 294 1792 320Z"/>
  </g>
</svg>