<?xml version="1.0" encoding="utf-8"?>
<svg xmlns="http://www.w3.org/2000/svg" width="16" height="16" viewBox="0 0 2048 2048">
  <g transform="translate(0, 2048) scale(1, -1)">
    <path fill="#ffffff" d="M1672 1920Q1747 1920 1815.5 1889.5Q1884 1859 1935.5 1807.5Q1987 1756 2017.5 1687.5Q2048 1619 2048 1544V576Q2048 550 2029.0 531.0Q2010 512 1984 512Q1958 512 1939.0 531.0Q1920 550 1920 576V1541Q1920 1591 1899.5 1636.5Q1879 1682 1844.5 1716.5Q1810 1751 1764.5 1771.5Q1719 1792 1669 1792H379Q329 1792 283.5 1771.5Q238 1751 203.5 1716.5Q169 1682 148.5 1636.5Q128 1591 128 1541V635Q128 583 149.0 537.5Q170 492 205.0 458.0Q240 424 286.5 404.0Q333 384 384 384H1216Q1242 384 1261.0 365.0Q1280 346 1280 320Q1280 294 1261.0 275.0Q1242 256 1216 256H376Q301 256 232.5 286.5Q164 317 112.5 368.5Q61 420 30.5 488.5Q0 557 0 632V1544Q0 1619 30.5 1687.5Q61 1756 112.5 1807.5Q164 1859 232.5 1889.5Q301 1920 376 1920ZM2048 320Q2048 294 2029.0 275.0Q2010 256 1984 256H1792V64Q1792 38 1773.0 19.0Q1754 0 1728 0Q1702 0 1683.0 19.0Q1664 38 1664 64V256H1472Q1446 256 1427.0 275.0Q1408 294 1408 320Q1408 346 1427.0 365.0Q1446 384 1472 384H1664V576Q1664 602 1683.0 621.0Q1702 640 1728 640Q1754 640 1773.0 621.0Q1792 602 1792 576V384H1984Q2010 384 2029.0 365.0Q2048 346 2048 320Z"/>
  </g>
</svg>