<?xml version="1.0" encoding="utf-8"?>
<svg xmlns="http://www.w3.org/2000/svg" width="16" height="16" viewBox="0 0 2048 2048">
  <g transform="translate(0, 2048) scale(1, -1)">
    <path fill="#000000" d="M30 830Q30 836 32 846Q63 962 113.5 1068.0Q164 1174 233.0 1265.0Q302 1356 387.5 1429.5Q473 1503 573.0 1555.5Q673 1608 786.5 1636.0Q900 1664 1024 1664Q1168 1664 1301.5 1623.0Q1435 1582 1551.0 1508.0Q1667 1434 1762.0 1330.5Q1857 1227 1923 1101Q1933 1082 1949.0 1045.0Q1965 1008 1980.5 967.0Q1996 926 2007.0 888.5Q2018 851 2018 832Q2018 806 1999.0 787.0Q1980 768 1954 768Q1928 768 1915.0 781.5Q1902 795 1892 817Q1882 837 1877 859L1873 877Q1869 896 1863 914Q1840 987 1800.5 1058.0Q1761 1129 1713 1189Q1649 1271 1571.0 1335.5Q1493 1400 1404.0 1444.5Q1315 1489 1217.0 1512.5Q1119 1536 1014 1536Q890 1536 775.0 1499.0Q660 1462 560.0 1396.5Q460 1331 378.0 1240.5Q296 1150 239 1043Q232 1030 220.0 1004.0Q208 978 196.0 949.0Q184 920 175.5 894.0Q167 868 167 855Q167 840 161.5 824.5Q156 809 146.5 796.5Q137 784 123.5 775.5Q110 767 94 767Q68 767 49.0 785.0Q30 803 30 830ZM576 840Q576 930 612.5 1010.0Q649 1090 710.5 1150.0Q772 1210 853.0 1245.0Q934 1280 1024 1280Q1116 1280 1197.5 1244.5Q1279 1209 1340.0 1148.0Q1401 1087 1436.5 1005.5Q1472 924 1472 832Q1472 740 1436.5 658.5Q1401 577 1340.0 516.0Q1279 455 1197.5 419.5Q1116 384 1024 384Q929 384 847.0 420.0Q765 456 705.0 518.0Q645 580 610.5 663.0Q576 746 576 840ZM1344 839Q1344 904 1318.0 961.0Q1292 1018 1248.0 1060.5Q1204 1103 1146.0 1127.5Q1088 1152 1024 1152Q957 1152 899.0 1127.0Q841 1102 797.5 1058.5Q754 1015 729.0 957.0Q704 899 704 832Q704 765 729.0 707.0Q754 649 797.5 605.5Q841 562 899.0 537.0Q957 512 1024 512Q1093 512 1151.5 537.5Q1210 563 1252.5 607.5Q1295 652 1319.5 711.5Q1344 771 1344 839Z"/>
  </g>
</svg>