<?xml version="1.0" encoding="utf-8"?>
<svg xmlns="http://www.w3.org/2000/svg" width="16" height="16" viewBox="0 0 2048 2048">
  <g transform="translate(0, 2048) scale(1, -1)">
    <path fill="#ffffff" d="M1792 1984V1344Q1792 1318 1773.0 1299.0Q1754 1280 1728 1280H1088Q1062 1280 1043.0 1299.0Q1024 1318 1024 1344Q1024 1370 1043.0 1389.0Q1062 1408 1088 1408H1568L1096 1802Q1024 1862 937.5 1891.0Q851 1920 758 1920Q691 1920 628.0 1901.5Q565 1883 509.0 1849.5Q453 1816 406.5 1769.5Q360 1723 326.5 1667.0Q293 1611 274.5 1548.0Q256 1485 256 1418Q256 1298 302.0 1195.0Q348 1092 441 1014L1513 113Q1536 93 1536 64Q1536 38 1517.0 19.0Q1498 0 1472 0Q1449 0 1431 15L359 916Q247 1010 187.5 1136.0Q128 1262 128 1408Q128 1541 178.0 1657.5Q228 1774 315.0 1861.0Q402 1948 518.5 1998.0Q635 2048 768 2048Q880 2048 985.5 2010.0Q1091 1972 1177 1900L1664 1495V1984Q1664 2010 1683.0 2029.0Q1702 2048 1728 2048Q1754 2048 1773.0 2029.0Q1792 2010 1792 1984Z"/>
  </g>
</svg>