<?xml version="1.0" encoding="utf-8"?>
<svg xmlns="http://www.w3.org/2000/svg" width="16" height="16" viewBox="0 0 2048 2048">
  <g transform="translate(0, 2048) scale(1, -1)">
    <path fill="#000000" d="M2048 1024Q2048 882 2011.5 751.0Q1975 620 1908.5 506.5Q1842 393 1748.5 299.5Q1655 206 1541.5 139.5Q1428 73 1297.0 36.5Q1166 0 1024 0Q882 0 751.0 36.5Q620 73 506.0 139.5Q392 206 299.0 299.0Q206 392 139.5 506.0Q73 620 36.5 751.0Q0 882 0 1024Q0 1166 36.5 1297.0Q73 1428 139.5 1541.5Q206 1655 299.5 1748.5Q393 1842 506.5 1908.5Q620 1975 751.0 2011.5Q882 2048 1024 2048Q1135 2048 1241.0 2024.5Q1347 2001 1445.0 1957.0Q1543 1913 1630.5 1848.0Q1718 1783 1792 1701V1984Q1792 2010 1811.0 2029.0Q1830 2048 1856 2048Q1882 2048 1901.0 2029.0Q1920 2010 1920 1984Q1920 1924 1920 1863L1921 1623Q1921 1563 1921 1502Q1921 1485 1919.0 1468.5Q1917 1452 1910.0 1438.5Q1903 1425 1890.0 1416.5Q1877 1408 1856 1408H1344Q1318 1408 1299.0 1427.0Q1280 1446 1280 1472Q1280 1498 1299.0 1517.0Q1318 1536 1344 1536H1759Q1696 1626 1614.5 1697.0Q1533 1768 1438.0 1817.5Q1343 1867 1238.0 1893.5Q1133 1920 1024 1920Q900 1920 785.5 1888.0Q671 1856 571.5 1797.5Q472 1739 390.5 1657.5Q309 1576 250.5 1476.5Q192 1377 160.0 1262.5Q128 1148 128 1024Q128 900 160.0 785.5Q192 671 250.0 571.5Q308 472 390.0 390.0Q472 308 571.5 250.0Q671 192 785.5 160.0Q900 128 1024 128Q1145 128 1258.5 158.5Q1372 189 1471.5 246.5Q1571 304 1654.5 387.0Q1738 470 1799 574Q1861 680 1890.5 791.0Q1920 902 1920 1024Q1920 1050 1939.0 1069.0Q1958 1088 1984 1088Q2010 1088 2029.0 1069.0Q2048 1050 2048 1024Z"/>
  </g>
</svg>