<?xml version="1.0" encoding="utf-8"?>
<svg xmlns="http://www.w3.org/2000/svg" width="16" height="16" viewBox="0 0 2048 2048">
  <g transform="translate(0, 2048) scale(1, -1)">
    <path fill="#ffffff" d="M1600 1280Q1561 1280 1526.0 1295.0Q1491 1310 1464.5 1336.5Q1438 1363 1423.0 1398.0Q1408 1433 1408 1472V1503L640 1174V1002L1408 673V704Q1408 743 1423.0 778.0Q1438 813 1464.5 839.5Q1491 866 1526.0 881.0Q1561 896 1600 896H1856Q1895 896 1930.0 881.0Q1965 866 1991.5 839.5Q2018 813 2033.0 778.0Q2048 743 2048 704V448Q2048 409 2033.0 374.0Q2018 339 1991.5 312.5Q1965 286 1930.0 271.0Q1895 256 1856 256H1600Q1561 256 1526.0 271.0Q1491 286 1464.5 312.5Q1438 339 1423.0 374.0Q1408 409 1408 448V534L619 872Q595 824 548.5 796.0Q502 768 448 768H192Q153 768 118.0 783.0Q83 798 56.5 824.5Q30 851 15.0 886.0Q0 921 0 960V1216Q0 1255 15.0 1290.0Q30 1325 56.5 1351.5Q83 1378 118.0 1393.0Q153 1408 192 1408H448Q502 1408 548.5 1380.0Q595 1352 619 1304L1408 1642V1728Q1408 1767 1423.0 1802.0Q1438 1837 1464.5 1863.5Q1491 1890 1526.0 1905.0Q1561 1920 1600 1920H1856Q1895 1920 1930.0 1905.0Q1965 1890 1991.5 1863.5Q2018 1837 2033.0 1802.0Q2048 1767 2048 1728V1472Q2048 1433 2033.0 1398.0Q2018 1363 1991.5 1336.5Q1965 1310 1930.0 1295.0Q1895 1280 1856 1280ZM1600 1792Q1574 1792 1555.0 1773.0Q1536 1754 1536 1728V1472Q1536 1446 1555.0 1427.0Q1574 1408 1600 1408H1856Q1882 1408 1901.0 1427.0Q1920 1446 1920 1472V1728Q1920 1754 1901.0 1773.0Q1882 1792 1856 1792ZM448 896Q474 896 493.0 915.0Q512 934 512 960V1216Q512 1242 493.0 1261.0Q474 1280 448 1280H192Q166 1280 147.0 1261.0Q128 1242 128 1216V960Q128 934 147.0 915.0Q166 896 192 896ZM1600 768Q1574 768 1555.0 749.0Q1536 730 1536 704V448Q1536 422 1555.0 403.0Q1574 384 1600 384H1856Q1882 384 1901.0 403.0Q1920 422 1920 448V704Q1920 730 1901.0 749.0Q1882 768 1856 768Z"/>
  </g>
</svg>