<?xml version="1.0" encoding="utf-8"?>
<svg xmlns="http://www.w3.org/2000/svg" width="16" height="16" viewBox="0 0 2048 2048">
  <g transform="translate(0, 2048) scale(1, -1)">
    <path fill="#000000" d="M384 64Q384 90 403.0 109.0Q422 128 448 128H640V384H251Q201 384 155.5 404.5Q110 425 75.5 459.5Q41 494 20.5 539.5Q0 585 0 635V1797Q0 1847 20.5 1892.5Q41 1938 75.5 1972.5Q110 2007 155.5 2027.5Q201 2048 251 2048H1797Q1847 2048 1892.5 2027.5Q1938 2007 1972.5 1972.5Q2007 1938 2027.5 1892.5Q2048 1847 2048 1797V865Q2019 883 1991.0 889.5Q1963 896 1930 896H1920V1792Q1920 1818 1910.0 1841.5Q1900 1865 1882.5 1882.5Q1865 1900 1841.5 1910.0Q1818 1920 1792 1920H256Q229 1920 206.0 1910.0Q183 1900 165.5 1882.5Q148 1865 138.0 1842.0Q128 1819 128 1792V640Q128 613 138.0 589.5Q148 566 165.0 549.0Q182 532 205.5 522.0Q229 512 256 512H853L1019 384H768V128H966Q965 121 964.5 115.0Q964 109 964 102Q964 76 970.5 49.5Q977 23 989 0H448Q422 0 403.0 19.0Q384 38 384 64ZM1092 101Q1092 110 1094.0 117.5Q1096 125 1098 133L1187 417L955 593Q916 623 916 671Q916 690 923.0 707.5Q930 725 943.0 738.5Q956 752 972.5 760.0Q989 768 1009 768H1296L1385 1053Q1394 1082 1417.5 1101.0Q1441 1120 1473 1120Q1504 1120 1528.5 1101.0Q1553 1082 1562 1053L1650 768H1937Q1956 768 1973.0 760.0Q1990 752 2003.0 738.5Q2016 725 2023.5 707.5Q2031 690 2031 671Q2031 648 2020.5 627.5Q2010 607 1992 593L1760 417L1849 133Q1854 116 1854 101Q1854 62 1827.0 34.5Q1800 7 1761 7Q1747 7 1731.5 11.5Q1716 16 1705 24L1473 200L1241 24Q1230 16 1214.5 11.5Q1199 7 1185 7Q1166 7 1149.0 14.5Q1132 22 1119.5 35.0Q1107 48 1099.5 65.0Q1092 82 1092 101Z"/>
  </g>
</svg>