<?xml version="1.0" encoding="utf-8"?>
<svg xmlns="http://www.w3.org/2000/svg" width="16" height="16" viewBox="0 0 2048 2048">
  <g transform="translate(0, 2048) scale(1, -1)">
    <path fill="#000000" d="M1746 1557Q1769 1496 1780.5 1432.0Q1792 1368 1792 1302Q1792 1170 1746.0 1047.5Q1700 925 1615 825Q1598 805 1579.5 787.5Q1561 770 1542 751Q1524 734 1509.5 714.0Q1495 694 1489 669L1377 197Q1367 153 1343.5 117.0Q1320 81 1287.0 55.0Q1254 29 1213.5 14.5Q1173 0 1128 0H920Q875 0 834.5 14.5Q794 29 761.0 55.0Q728 81 704.5 117.0Q681 153 671 197L557 671Q550 698 537.5 715.5Q525 733 505 752Q486 770 467.5 788.0Q449 806 432 826Q347 926 301.5 1048.0Q256 1170 256 1302Q256 1407 284.0 1503.5Q312 1600 363.0 1683.0Q414 1766 484.5 1833.5Q555 1901 640.5 1948.5Q726 1996 823.0 2022.0Q920 2048 1024 2048Q1143 2048 1256.5 2013.0Q1370 1978 1469 1910Q1443 1890 1420.0 1866.0Q1397 1842 1374 1819Q1296 1870 1206.5 1895.0Q1117 1920 1024 1920Q938 1920 857.5 1898.5Q777 1877 706.0 1837.5Q635 1798 575.5 1742.0Q516 1686 473.5 1617.5Q431 1549 407.5 1469.0Q384 1389 384 1302Q384 1166 437.5 1052.5Q491 939 590 847Q625 815 648.0 781.0Q671 747 682 700Q688 676 693 653L716 560Q722 536 727 512H1321L1365 699Q1376 746 1399.0 780.0Q1422 814 1457 846Q1557 938 1610.5 1051.5Q1664 1165 1664 1302Q1664 1378 1644 1455ZM960 1179 1555 1773Q1574 1792 1600 1792Q1626 1792 1645.0 1773.0Q1664 1754 1664 1728Q1664 1702 1645 1683L1005 1043Q986 1024 960 1024Q934 1024 915 1043L659 1299Q640 1318 640 1344Q640 1370 659.0 1389.0Q678 1408 704 1408Q730 1408 749 1389ZM1128 128Q1172 128 1207.0 155.5Q1242 183 1253 226Q1263 266 1272.0 305.0Q1281 344 1290 384H757Q762 364 767 344L785 266Q790 246 795 226Q806 183 840.5 155.5Q875 128 920 128Z"/>
  </g>
</svg>