<?xml version="1.0" encoding="utf-8"?>
<svg xmlns="http://www.w3.org/2000/svg" width="16" height="16" viewBox="0 0 2048 2048">
  <g transform="translate(0, 2048) scale(1, -1)">
    <path fill="#000000" d="M920 64Q886 64 855.5 74.5Q825 85 800.5 104.5Q776 124 758.5 151.0Q741 178 733 211L620 685Q612 720 593.0 747.5Q574 775 548 799Q439 901 379.5 1026.0Q320 1151 320 1302Q320 1399 346.0 1487.0Q372 1575 418.5 1651.0Q465 1727 529.5 1788.5Q594 1850 672.5 1893.5Q751 1937 840.0 1960.5Q929 1984 1024 1984Q1119 1984 1208.0 1960.5Q1297 1937 1375.0 1893.0Q1453 1849 1518.0 1787.5Q1583 1726 1629.5 1650.5Q1676 1575 1702.0 1486.5Q1728 1398 1728 1302Q1728 1149 1668.0 1025.5Q1608 902 1499 799Q1474 775 1454.5 746.5Q1435 718 1427 684L1315 212Q1307 179 1289.5 152.0Q1272 125 1247.5 105.5Q1223 86 1192.5 75.0Q1162 64 1128 64Z"/>
  </g>
</svg>