<?xml version="1.0" encoding="utf-8"?>
<svg xmlns="http://www.w3.org/2000/svg" width="16" height="16" viewBox="0 0 2048 2048">
  <g transform="translate(0, 2048) scale(1, -1)">
    <path fill="#000000" d="M1024 1344Q1024 1370 1043 1389L1683 2029Q1702 2048 1728 2048Q1754 2048 1773.0 2029.0Q1792 2010 1792 1984Q1792 1958 1773 1939L1179 1344L1773 749Q1792 730 1792 704Q1792 678 1773.0 659.0Q1754 640 1728 640Q1702 640 1683 659L1043 1299Q1024 1318 1024 1344ZM256 64Q256 90 275 109L869 704L275 1299Q256 1318 256 1344Q256 1370 275.0 1389.0Q294 1408 320 1408Q346 1408 365 1389L1005 749Q1024 730 1024 704Q1024 678 1005 659L365 19Q346 0 320 0Q294 0 275.0 19.0Q256 38 256 64Z"/>
  </g>
</svg>