<?xml version="1.0" encoding="utf-8"?>
<svg xmlns="http://www.w3.org/2000/svg" width="16" height="16" viewBox="0 0 2048 2048">
  <g transform="translate(0, 2048) scale(1, -1)">
    <path fill="#ffffff" d="M1024 1984Q1024 2010 1043.0 2029.0Q1062 2048 1088 2048H1600Q1626 2048 1645.0 2029.0Q1664 2010 1664 1984Q1664 1958 1645.0 1939.0Q1626 1920 1600 1920H1408V128H1600Q1626 128 1645.0 109.0Q1664 90 1664 64Q1664 38 1645.0 19.0Q1626 0 1600 0H1088Q1062 0 1043.0 19.0Q1024 38 1024 64Q1024 90 1043.0 109.0Q1062 128 1088 128H1280V1920H1088Q1062 1920 1043.0 1939.0Q1024 1958 1024 1984ZM0 1408Q0 1487 30.0 1557.0Q60 1627 112.5 1679.5Q165 1732 234.5 1762.0Q304 1792 384 1792H1152V1664H384Q331 1664 284.5 1644.0Q238 1624 203.0 1589.0Q168 1554 148.0 1507.5Q128 1461 128 1408V640Q128 587 148.0 540.5Q168 494 203.0 459.0Q238 424 284.5 404.0Q331 384 384 384H1152V256H384Q304 256 234.5 286.0Q165 316 112.5 368.5Q60 421 30.0 490.5Q0 560 0 640ZM1536 1664V1792H1664Q1743 1792 1813.0 1762.0Q1883 1732 1935.5 1679.5Q1988 1627 2018.0 1557.0Q2048 1487 2048 1408V640Q2048 560 2018.0 490.5Q1988 421 1935.5 368.5Q1883 316 1813.0 286.0Q1743 256 1664 256H1536V384H1664Q1717 384 1763.5 404.0Q1810 424 1845.0 459.0Q1880 494 1900.0 540.5Q1920 587 1920 640V1408Q1920 1461 1900.0 1507.5Q1880 1554 1845.0 1589.0Q1810 1624 1763.5 1644.0Q1717 1664 1664 1664ZM762 1499 1114 731Q1120 718 1120 704Q1120 693 1113.5 675.0Q1107 657 1083 646Q1070 640 1056 640Q1045 640 1027.0 646.5Q1009 653 998 677L912 864H496L410 677Q399 653 381.0 646.5Q363 640 352 640Q338 640 325 646Q301 657 294.5 675.0Q288 693 288 704Q288 718 294 731L646 1499Q654 1516 669.5 1526.0Q685 1536 704 1536Q723 1536 738.5 1526.0Q754 1516 762 1499ZM554 992H854L704 1318Z"/>
  </g>
</svg>