<?xml version="1.0" encoding="utf-8"?>
<svg xmlns="http://www.w3.org/2000/svg" width="16" height="16" viewBox="0 0 2048 2048">
  <g transform="translate(0, 2048) scale(1, -1)">
    <path fill="#000000" d="M0 336Q0 404 25.5 465.0Q51 526 99 574L787 1262Q779 1297 773.5 1333.5Q768 1370 768 1407Q768 1496 791.0 1578.0Q814 1660 855.5 1731.0Q897 1802 955.0 1860.5Q1013 1919 1084.0 1960.5Q1155 2002 1237.0 2025.0Q1319 2048 1408 2048Q1426 2048 1456.5 2045.0Q1487 2042 1522.5 2036.0Q1558 2030 1595.0 2020.0Q1632 2010 1661.5 1996.0Q1691 1982 1710.0 1963.0Q1729 1944 1729 1921Q1729 1895 1710 1876L1371 1536L1536 1371L1876 1710Q1895 1729 1921 1729Q1945 1729 1963.5 1710.0Q1982 1691 1996.0 1661.0Q2010 1631 2020.0 1594.5Q2030 1558 2036.0 1522.5Q2042 1487 2045.0 1456.5Q2048 1426 2048 1408Q2048 1275 1998.0 1158.5Q1948 1042 1861.0 955.0Q1774 868 1657.5 818.0Q1541 768 1408 768Q1371 768 1334.5 773.5Q1298 779 1262 787L574 98Q553 77 527.0 59.0Q501 41 471.5 27.5Q442 14 411.5 6.5Q381 -1 351 -1Q278 -1 214.0 23.5Q150 48 102.5 92.5Q55 137 27.5 199.0Q0 261 0 336ZM1244 923Q1254 923 1263 920Q1299 909 1335.0 902.5Q1371 896 1409 896Q1515 896 1608.0 936.5Q1701 977 1770.5 1046.5Q1840 1116 1880.0 1209.0Q1920 1302 1920 1408Q1920 1445 1914.5 1481.0Q1909 1517 1898 1552L1581 1235Q1563 1217 1536 1217Q1509 1217 1491 1235L1235 1491Q1216 1510 1216 1536Q1216 1562 1235 1581L1552 1898Q1517 1909 1481.0 1914.5Q1445 1920 1408 1920Q1302 1920 1209.0 1879.5Q1116 1839 1046.5 1769.5Q977 1700 936.5 1607.0Q896 1514 896 1408Q896 1370 902.5 1334.5Q909 1299 920 1263Q923 1254 923 1244Q923 1217 904 1198L189 483Q160 454 144.0 416.0Q128 378 128 336Q128 293 144.5 255.5Q161 218 189.5 189.5Q218 161 255.5 144.5Q293 128 336 128Q378 128 416.0 144.0Q454 160 483 189L1198 904Q1217 923 1244 923Z"/>
  </g>
</svg>