<?xml version="1.0" encoding="utf-8"?>
<svg xmlns="http://www.w3.org/2000/svg" width="16" height="16" viewBox="0 0 2048 2048">
  <g transform="translate(0, 2048) scale(1, -1)">
    <path fill="#000000" d="M2048 64Q2048 38 2029.0 19.0Q2010 0 1984 0Q1958 0 1939 19L19 1939Q0 1958 0 1984Q0 2010 19.0 2029.0Q38 2048 64 2048Q90 2048 109 2029L2029 109Q2048 90 2048 64ZM768 1664Q742 1664 716.0 1662.0Q690 1660 664 1656L557 1762Q659 1792 768 1792H1446L1299 1939Q1280 1958 1280 1984Q1280 2010 1299.0 2029.0Q1318 2048 1344 2048Q1370 2048 1389 2029L1645 1773Q1664 1754 1664 1728Q1664 1702 1645 1683L1389 1427Q1370 1408 1344 1408Q1318 1408 1299.0 1427.0Q1280 1446 1280 1472Q1280 1498 1299 1517L1446 1664ZM314 1643 406 1552Q340 1508 288.5 1449.5Q237 1391 201.5 1323.0Q166 1255 147.0 1179.0Q128 1103 128 1024Q128 915 160.5 823.0Q193 731 254 642Q261 632 264.0 624.5Q267 617 267 604Q267 578 248.0 558.5Q229 539 203 539Q186 539 174.5 546.0Q163 553 152 565Q139 579 128.5 597.0Q118 615 108 631Q54 721 27.0 820.5Q0 920 0 1024Q0 1213 82.5 1371.5Q165 1530 314 1643ZM1740 579Q1826 669 1873.0 784.0Q1920 899 1920 1024Q1920 1133 1887.5 1225.0Q1855 1317 1794 1406Q1787 1416 1784.0 1423.5Q1781 1431 1781 1444Q1781 1470 1800.0 1489.5Q1819 1509 1845 1509Q1862 1509 1873.5 1502.0Q1885 1495 1896 1483Q1907 1470 1917.0 1454.5Q1927 1439 1936 1424Q1991 1333 2019.5 1231.5Q2048 1130 2048 1024Q2048 874 1992.0 735.5Q1936 597 1831 489ZM603 384H1280Q1406 384 1525 433L1621 336Q1541 297 1455.5 276.5Q1370 256 1280 256H603L749 109Q768 90 768 64Q768 38 749.0 19.0Q730 0 704 0Q678 0 659 19L403 275Q384 294 384 320Q384 346 403 365L659 621Q678 640 704 640Q730 640 749.0 621.0Q768 602 768 576Q768 550 749 531Z"/>
  </g>
</svg>