<?xml version="1.0" encoding="utf-8"?>
<svg xmlns="http://www.w3.org/2000/svg" width="16" height="16" viewBox="0 0 2048 2048">
  <g transform="translate(0, 2048) scale(1, -1)">
    <path fill="#000000" d="M768 1664Q635 1664 518.5 1614.0Q402 1564 315.0 1477.0Q228 1390 178.0 1273.5Q128 1157 128 1024Q128 965 136.5 916.5Q145 868 161.0 823.0Q177 778 201.0 734.5Q225 691 255 642Q261 632 264.5 623.5Q268 615 268 604Q268 578 248.5 559.0Q229 540 203 540Q186 540 174.5 547.0Q163 554 152 566Q116 608 87.5 664.0Q59 720 39.5 782.0Q20 844 10.0 907.0Q0 970 0 1024Q0 1179 58.0 1318.5Q116 1458 225 1567Q334 1676 473.5 1734.0Q613 1792 768 1792H1446L1299 1939Q1280 1958 1280 1984Q1280 2010 1299.0 2029.0Q1318 2048 1344 2048Q1370 2048 1389 2029L1645 1773Q1664 1754 1664 1728Q1664 1702 1645 1683L1389 1427Q1370 1408 1344 1408Q1318 1408 1299.0 1427.0Q1280 1446 1280 1472Q1280 1498 1299 1517L1446 1664ZM1781 1444Q1781 1470 1799.5 1489.5Q1818 1509 1845 1509Q1862 1509 1873.5 1502.0Q1885 1495 1896 1483Q1932 1442 1960.0 1387.0Q1988 1332 2007.0 1271.5Q2026 1211 2036.5 1149.5Q2047 1088 2048 1034Q2016 1073 1980.0 1108.5Q1944 1144 1903 1173Q1887 1239 1858.5 1294.0Q1830 1349 1794 1406Q1787 1417 1784.0 1424.0Q1781 1431 1781 1444ZM2048 576Q2048 457 2002.5 352.0Q1957 247 1879.0 169.0Q1801 91 1696.0 45.5Q1591 0 1472 0Q1352 0 1247.0 45.0Q1142 90 1064.0 168.0Q986 246 941.0 351.0Q896 456 896 576Q896 695 941.5 800.0Q987 905 1065.0 983.0Q1143 1061 1248.0 1106.5Q1353 1152 1472 1152Q1551 1152 1624.5 1131.5Q1698 1111 1762.0 1073.5Q1826 1036 1879.0 983.0Q1932 930 1969.5 866.0Q2007 802 2027.5 728.5Q2048 655 2048 576ZM1536 832Q1536 858 1517.0 877.0Q1498 896 1472 896Q1446 896 1427 877L1299 749Q1280 730 1280 704Q1280 678 1299.0 659.0Q1318 640 1344 640Q1366 640 1380.0 651.5Q1394 663 1408 677V320Q1408 294 1427.0 275.0Q1446 256 1472 256Q1498 256 1517.0 275.0Q1536 294 1536 320ZM761 384Q779 317 809 256H603L749 109Q768 90 768 64Q768 38 749.0 19.0Q730 0 704 0Q678 0 659 19L403 275Q384 294 384 320Q384 346 403 365L659 621Q678 640 704 640Q724 640 738 630Q737 616 736.5 602.5Q736 589 736 575Q736 561 736.5 547.5Q737 534 738 520L603 384Z"/>
  </g>
</svg>