<?xml version="1.0" encoding="utf-8"?>
<svg xmlns="http://www.w3.org/2000/svg" width="16" height="16" viewBox="0 0 2048 2048">
  <g transform="translate(0, 2048) scale(1, -1)">
    <path fill="#000000" d="M768 1664Q635 1664 518.5 1614.0Q402 1564 315.0 1477.0Q228 1390 178.0 1273.5Q128 1157 128 1024Q128 943 149.0 861.5Q170 780 211 709Q217 698 226.5 685.0Q236 672 245.0 658.0Q254 644 260.5 630.0Q267 616 267 604Q267 578 248.0 559.0Q229 540 203 540Q186 540 174.5 547.0Q163 554 152 566Q115 609 86.5 665.0Q58 721 39.0 782.0Q20 843 10.0 905.5Q0 968 0 1024Q0 1129 27.5 1227.0Q55 1325 105.0 1410.5Q155 1496 225.0 1566.0Q295 1636 380.0 1686.5Q465 1737 563.5 1764.5Q662 1792 768 1792H1446L1299 1939Q1280 1958 1280 1984Q1280 2010 1299.0 2029.0Q1318 2048 1344 2048Q1370 2048 1389 2029L1645 1773Q1664 1754 1664 1728Q1664 1702 1645 1683L1389 1427Q1370 1408 1344 1408Q1318 1408 1299.0 1427.0Q1280 1446 1280 1472Q1280 1498 1299 1517L1446 1664ZM2048 1024Q2048 918 2020.5 820.5Q1993 723 1943.0 637.5Q1893 552 1823.0 482.0Q1753 412 1668.0 361.5Q1583 311 1484.5 283.5Q1386 256 1280 256H603L749 109Q768 90 768 64Q768 38 749.0 19.0Q730 0 704 0Q678 0 659 19L403 275Q384 294 384 320Q384 346 403 365L659 621Q678 640 704 640Q730 640 749.0 621.0Q768 602 768 576Q768 550 749 531L603 384H1280Q1413 384 1529.5 434.0Q1646 484 1733.0 571.0Q1820 658 1870.0 774.5Q1920 891 1920 1024Q1920 1081 1912.0 1130.0Q1904 1179 1888.0 1225.0Q1872 1271 1848.5 1315.0Q1825 1359 1794 1406Q1787 1417 1784.0 1424.0Q1781 1431 1781 1444Q1781 1470 1799.5 1489.5Q1818 1509 1845 1509Q1862 1509 1873.5 1502.0Q1885 1495 1896 1483Q1933 1440 1961.5 1384.0Q1990 1328 2009.0 1266.5Q2028 1205 2038.0 1142.5Q2048 1080 2048 1024Z"/>
  </g>
</svg>