<?xml version="1.0" encoding="utf-8"?>
<svg xmlns="http://www.w3.org/2000/svg" width="16" height="16" viewBox="0 0 2048 2048">
  <g transform="translate(0, 2048) scale(1, -1)">
    <path fill="#ffffff" d="M1024 1152H218L652 718Q671 699 671 673Q671 647 652.0 628.0Q633 609 607 609Q581 609 562 628L19 1171Q0 1190 0 1216Q0 1242 19 1261L562 1804Q581 1823 607 1823Q633 1823 652.0 1804.0Q671 1785 671 1759Q671 1733 652 1714L218 1280H1024Q1156 1280 1279.0 1245.5Q1402 1211 1508.5 1148.5Q1615 1086 1702.5 998.5Q1790 911 1852.5 804.5Q1915 698 1949.5 575.0Q1984 452 1984 320Q1984 294 1965.0 275.0Q1946 256 1920 256Q1894 256 1875.0 275.0Q1856 294 1856 320Q1856 427 1829.5 531.5Q1803 636 1749 729Q1692 827 1614.5 905.5Q1537 984 1444.0 1038.5Q1351 1093 1244.5 1122.5Q1138 1152 1024 1152Z"/>
  </g>
</svg>