<?xml version="1.0" encoding="utf-8"?>
<svg xmlns="http://www.w3.org/2000/svg" width="16" height="16" viewBox="0 0 2048 2048">
  <g transform="translate(0, 2048) scale(1, -1)">
    <path fill="#ffffff" d="M2048 1024Q2048 883 2011.5 752.0Q1975 621 1908.0 507.5Q1841 394 1747.5 300.5Q1654 207 1540.5 140.0Q1427 73 1296.0 36.5Q1165 0 1024 0Q883 0 752.0 36.5Q621 73 507.5 140.0Q394 207 300.5 300.5Q207 394 140.0 507.5Q73 621 36.5 752.0Q0 883 0 1024Q0 1050 19.0 1069.0Q38 1088 64 1088Q90 1088 109.0 1069.0Q128 1050 128 1024Q128 905 158.0 791.5Q188 678 248 575Q309 471 393.0 388.0Q477 305 576.5 247.0Q676 189 789.5 158.5Q903 128 1024 128Q1148 128 1262.5 160.0Q1377 192 1476.5 250.5Q1576 309 1657.5 390.5Q1739 472 1797.5 571.5Q1856 671 1888.0 785.5Q1920 900 1920 1024Q1920 1147 1888.0 1261.5Q1856 1376 1797.5 1475.5Q1739 1575 1657.0 1657.0Q1575 1739 1475.5 1797.5Q1376 1856 1261.5 1888.0Q1147 1920 1024 1920Q914 1920 808.5 1894.0Q703 1868 608.5 1818.5Q514 1769 432.5 1698.0Q351 1627 288 1536H704Q730 1536 749.0 1517.0Q768 1498 768 1472Q768 1446 749.0 1427.0Q730 1408 704 1408H192Q166 1408 147.0 1427.0Q128 1446 128 1472V1984Q128 2010 147.0 2029.0Q166 2048 192 2048Q218 2048 237.0 2029.0Q256 2010 256 1984V1701Q329 1784 416.5 1848.5Q504 1913 602.0 1957.5Q700 2002 806.5 2025.0Q913 2048 1024 2048Q1165 2048 1296.0 2011.5Q1427 1975 1540.5 1908.0Q1654 1841 1747.5 1747.5Q1841 1654 1908.0 1540.5Q1975 1427 2011.5 1296.0Q2048 1165 2048 1024ZM768 770V1278Q768 1311 780.5 1340.5Q793 1370 814.5 1391.5Q836 1413 865.5 1426.0Q895 1439 928 1439Q970 1439 1005 1419L1471 1164Q1509 1143 1531.5 1105.5Q1554 1068 1554 1024Q1554 980 1531.5 942.5Q1509 905 1471 884L1005 629Q970 610 928 610Q894 610 865.0 622.5Q836 635 814.5 656.5Q793 678 780.5 707.5Q768 737 768 770ZM896 770Q896 756 905.0 747.0Q914 738 928 738Q936 738 943 742L1410 996Q1426 1005 1426 1024Q1426 1043 1410 1052L943 1306Q936 1310 928 1310Q914 1310 905.0 1301.0Q896 1292 896 1278Z"/>
  </g>
</svg>