<?xml version="1.0" encoding="utf-8"?>
<svg xmlns="http://www.w3.org/2000/svg" width="16" height="16" viewBox="0 0 2048 2048">
  <g transform="translate(0, 2048) scale(1, -1)">
    <path fill="#000000" d="M0 320Q0 452 34.5 575.0Q69 698 131.5 804.5Q194 911 281.5 998.5Q369 1086 475.5 1148.5Q582 1211 705.0 1245.5Q828 1280 960 1280H1766L1332 1714Q1313 1733 1313 1759Q1313 1785 1332.0 1804.0Q1351 1823 1377 1823Q1403 1823 1422 1804L1965 1261Q1984 1242 1984 1216Q1984 1190 1965 1171L1422 628Q1403 609 1377 609Q1351 609 1332.0 628.0Q1313 647 1313 673Q1313 699 1332 718L1766 1152H960Q847 1152 740.5 1122.5Q634 1093 540.5 1038.5Q447 984 369.0 905.5Q291 827 235 729Q181 635 154.5 532.0Q128 429 128 320Q128 294 109.0 275.0Q90 256 64 256Q38 256 19.0 275.0Q0 294 0 320Z"/>
  </g>
</svg>