<?xml version="1.0" encoding="utf-8"?>
<svg xmlns="http://www.w3.org/2000/svg" width="16" height="16" viewBox="0 0 2048 2048">
  <g transform="translate(0, 2048) scale(1, -1)">
    <path fill="#ffffff" d="M1792 1446V251Q1792 201 1771.5 155.5Q1751 110 1716.5 75.5Q1682 41 1636.5 20.5Q1591 0 1541 0H507Q457 0 411.5 20.5Q366 41 331.5 75.5Q297 110 276.5 155.5Q256 201 256 251V1797Q256 1847 276.5 1892.5Q297 1938 331.5 1972.5Q366 2007 411.5 2027.5Q457 2048 507 2048H1190Q1243 2048 1280 2011L1755 1536Q1772 1519 1782.0 1494.5Q1792 1470 1792 1446ZM1664 1408H1344Q1305 1408 1270.0 1423.0Q1235 1438 1208.5 1464.5Q1182 1491 1167.0 1526.0Q1152 1561 1152 1600V1920H512Q485 1920 462.0 1910.0Q439 1900 421.5 1882.5Q404 1865 394.0 1842.0Q384 1819 384 1792V256Q384 229 394.0 205.5Q404 182 421.0 165.0Q438 148 461.5 138.0Q485 128 512 128H1536Q1563 128 1586.0 138.0Q1609 148 1626.5 165.5Q1644 183 1654.0 206.0Q1664 229 1664 256ZM1574 1536 1280 1830V1600Q1280 1574 1299.0 1555.0Q1318 1536 1344 1536ZM1280 1088Q1280 1114 1299.0 1133.0Q1318 1152 1344 1152H1472Q1498 1152 1517.0 1133.0Q1536 1114 1536 1088V320Q1536 294 1517.0 275.0Q1498 256 1472 256H1344Q1318 256 1299.0 275.0Q1280 294 1280 320ZM704 896Q730 896 749.0 877.0Q768 858 768 832V320Q768 294 749.0 275.0Q730 256 704 256H576Q550 256 531.0 275.0Q512 294 512 320V832Q512 858 531.0 877.0Q550 896 576 896ZM1088 640Q1114 640 1133.0 621.0Q1152 602 1152 576V320Q1152 294 1133.0 275.0Q1114 256 1088 256H960Q934 256 915.0 275.0Q896 294 896 320V576Q896 602 915.0 621.0Q934 640 960 640Z"/>
  </g>
</svg>