<?xml version="1.0" encoding="utf-8"?>
<svg xmlns="http://www.w3.org/2000/svg" width="16" height="16" viewBox="0 0 2048 2048">
  <g transform="translate(0, 2048) scale(1, -1)">
    <path fill="#ffffff" d="M128 1088V1664Q128 1692 143.0 1705.5Q158 1719 183 1727Q205 1734 228.5 1736.5Q252 1739 275 1743Q313 1750 350.5 1758.5Q388 1767 426 1778Q544 1811 654.5 1859.0Q765 1907 872 1967Q887 1976 901 1984L959 2020Q974 2029 988 2037Q1005 2048 1024 2048Q1043 2048 1060 2037Q1075 2029 1089 2020L1147 1984Q1162 1976 1176 1967Q1283 1907 1393.5 1859.0Q1504 1811 1622 1778Q1660 1767 1697.5 1758.5Q1735 1750 1773 1743Q1796 1739 1819.5 1736.5Q1843 1734 1865 1727Q1890 1719 1905.0 1705.5Q1920 1692 1920 1664V1088Q1920 876 1853.0 707.0Q1786 538 1668.5 405.5Q1551 273 1391.5 174.0Q1232 75 1047 4Q1038 0 1024 0Q1019 0 1012.5 1.0Q1006 2 1001 4Q816 73 657.0 172.5Q498 272 380.0 405.5Q262 539 195.0 708.5Q128 878 128 1088ZM1792 1088V1609Q1586 1644 1392.5 1719.0Q1199 1794 1024 1908Q849 1794 655.5 1719.0Q462 1644 256 1609V1088Q256 901 315.0 752.5Q374 604 477.5 488.0Q581 372 721.5 284.5Q862 197 1024 133Q1186 197 1326.0 284.5Q1466 372 1569.5 488.0Q1673 604 1732.5 752.5Q1792 901 1792 1088ZM960 832V1472Q960 1498 979.0 1517.0Q998 1536 1024 1536Q1050 1536 1069.0 1517.0Q1088 1498 1088 1472V832Q1088 806 1069.0 787.0Q1050 768 1024 768Q998 768 979.0 787.0Q960 806 960 832ZM928 544Q928 584 956.0 612.0Q984 640 1024 640Q1064 640 1092.0 612.0Q1120 584 1120 544Q1120 504 1092.0 476.0Q1064 448 1024 448Q984 448 956.0 476.0Q928 504 928 544Z"/>
  </g>
</svg>