<?xml version="1.0" encoding="utf-8"?>
<svg xmlns="http://www.w3.org/2000/svg" width="16" height="16" viewBox="0 0 2048 2048">
  <g transform="translate(0, 2048) scale(1, -1)">
    <path fill="#000000" d="M1797 1024Q1847 1024 1892.5 1003.5Q1938 983 1972.5 948.5Q2007 914 2027.5 868.5Q2048 823 2048 773V507Q2048 457 2027.5 411.5Q2007 366 1972.5 331.5Q1938 297 1892.5 276.5Q1847 256 1797 256H251Q201 256 155.5 276.5Q110 297 75.5 331.5Q41 366 20.5 411.5Q0 457 0 507V773Q0 825 21.0 870.5Q42 916 77.0 950.0Q112 984 158.5 1004.0Q205 1024 256 1024H581Q512 1141 512 1280Q512 1306 531.0 1325.0Q550 1344 576 1344Q608 1344 624.0 1322.5Q640 1301 640 1272Q640 1194 671.0 1125.5Q702 1057 755.0 1006.0Q808 955 877.5 925.5Q947 896 1024 896Q1104 896 1174.0 926.0Q1244 956 1296.0 1008.0Q1348 1060 1378.0 1130.0Q1408 1200 1408 1280Q1408 1357 1378.5 1426.5Q1349 1496 1298.0 1549.0Q1247 1602 1178.5 1633.0Q1110 1664 1032 1664H603L749 1517Q768 1498 768 1472Q768 1446 749.0 1427.0Q730 1408 704 1408Q678 1408 659 1427L403 1683Q392 1694 388.0 1704.5Q384 1715 384 1730Q384 1741 389.5 1753.0Q395 1765 403 1773L659 2029Q678 2048 704 2048Q730 2048 749.0 2029.0Q768 2010 768 1984Q768 1958 749 1939L603 1792H1034Q1101 1792 1164.0 1773.5Q1227 1755 1283.0 1721.5Q1339 1688 1385.5 1641.5Q1432 1595 1465.5 1539.0Q1499 1483 1517.5 1420.0Q1536 1357 1536 1290Q1536 1217 1520.0 1152.0Q1504 1087 1467 1024ZM1920 768Q1920 794 1910.0 817.5Q1900 841 1882.5 858.5Q1865 876 1841.5 886.0Q1818 896 1792 896H1362Q1292 834 1205.0 801.0Q1118 768 1024 768Q930 768 843.0 801.0Q756 834 686 896H256Q229 896 206.0 886.0Q183 876 165.5 858.5Q148 841 138.0 818.0Q128 795 128 768V512Q128 485 138.0 461.5Q148 438 165.0 421.0Q182 404 205.5 394.0Q229 384 256 384H1792Q1819 384 1842.0 394.0Q1865 404 1882.5 421.5Q1900 439 1910.0 462.0Q1920 485 1920 512ZM1664 672Q1664 632 1636.0 604.0Q1608 576 1568 576Q1528 576 1500.0 604.0Q1472 632 1472 672Q1472 712 1500.0 740.0Q1528 768 1568 768Q1608 768 1636.0 740.0Q1664 712 1664 672Z"/>
  </g>
</svg>