<?xml version="1.0" encoding="utf-8"?>
<svg xmlns="http://www.w3.org/2000/svg" width="16" height="16" viewBox="0 0 2048 2048">
  <g transform="translate(0, 2048) scale(1, -1)">
    <path fill="#ffffff" d="M251 0Q201 0 155.5 20.5Q110 41 75.5 75.5Q41 110 20.5 155.5Q0 201 0 251V1797Q0 1847 20.5 1892.5Q41 1938 75.5 1972.5Q110 2007 155.5 2027.5Q201 2048 251 2048H1029Q1079 2048 1124.5 2027.5Q1170 2007 1204.5 1972.5Q1239 1938 1259.5 1892.5Q1280 1847 1280 1797V1431Q1248 1440 1216 1440Q1183 1440 1152 1431V1792Q1152 1818 1142.0 1841.5Q1132 1865 1114.5 1882.5Q1097 1900 1073.5 1910.0Q1050 1920 1024 1920H256Q229 1920 206.0 1910.0Q183 1900 165.5 1882.5Q148 1865 138.0 1842.0Q128 1819 128 1792V256Q128 229 138.0 205.5Q148 182 165.0 165.0Q182 148 205.5 138.0Q229 128 256 128H984Q1031 62 1091 9Q1058 0 1024 0ZM1088 576Q1120 576 1136.0 554.5Q1152 533 1152 504Q1152 426 1183.0 357.5Q1214 289 1267.0 238.0Q1320 187 1389.5 157.5Q1459 128 1536 128Q1616 128 1686.0 158.0Q1756 188 1808.0 240.0Q1860 292 1890.0 362.0Q1920 432 1920 512Q1920 589 1890.5 658.5Q1861 728 1810.0 781.0Q1759 834 1690.5 865.0Q1622 896 1544 896H1115L1261 749Q1280 730 1280 704Q1280 678 1261.0 659.0Q1242 640 1216 640Q1190 640 1171 659L915 915Q896 934 896 960Q896 986 915 1005L1171 1261Q1190 1280 1216 1280Q1242 1280 1261.0 1261.0Q1280 1242 1280 1216Q1280 1190 1261 1171L1115 1024H1546Q1650 1024 1741.5 982.5Q1833 941 1901.0 870.5Q1969 800 2008.5 707.5Q2048 615 2048 512Q2048 406 2008.0 312.5Q1968 219 1898.5 149.5Q1829 80 1735.5 40.0Q1642 0 1536 0Q1433 0 1340.5 39.5Q1248 79 1177.5 147.0Q1107 215 1065.5 306.5Q1024 398 1024 502Q1024 531 1039.5 553.5Q1055 576 1088 576ZM512 384Q486 384 467.0 403.0Q448 422 448 448Q448 474 467.0 493.0Q486 512 512 512H768Q794 512 813.0 493.0Q832 474 832 448Q832 422 813.0 403.0Q794 384 768 384Z"/>
  </g>
</svg>