<?xml version="1.0" encoding="utf-8"?>
<svg xmlns="http://www.w3.org/2000/svg" width="16" height="16" viewBox="0 0 2048 2048">
  <g transform="translate(0, 2048) scale(1, -1)">
    <path fill="#000000" d="M569 256Q504 256 447.0 282.0Q390 308 347.5 352.0Q305 396 280.5 454.0Q256 512 256 576V1702L109 1555Q90 1536 64 1536Q38 1536 19.0 1555.0Q0 1574 0 1600Q0 1626 19 1645L275 1901Q294 1920 320 1920Q346 1920 365 1901L621 1645Q640 1626 640 1600Q640 1574 621.0 1555.0Q602 1536 576 1536Q550 1536 531 1555L384 1702V576Q384 537 399.0 502.0Q414 467 440.5 440.5Q467 414 502.0 399.0Q537 384 576 384H1216Q1242 384 1261.0 365.0Q1280 346 1280 320Q1280 294 1261.0 275.0Q1242 256 1216 256ZM1408 448Q1408 474 1427.0 493.0Q1446 512 1472 512Q1498 512 1517 493L1664 347V1472Q1664 1511 1649.0 1546.0Q1634 1581 1607.5 1607.5Q1581 1634 1546.0 1649.0Q1511 1664 1472 1664H832Q806 1664 787.0 1683.0Q768 1702 768 1728Q768 1754 787.0 1773.0Q806 1792 832 1792H1479Q1544 1792 1601.0 1766.0Q1658 1740 1700.5 1696.0Q1743 1652 1767.5 1594.0Q1792 1536 1792 1472V347L1939 493Q1958 512 1984 512Q2010 512 2029.0 493.0Q2048 474 2048 448Q2048 422 2029 403L1773 147Q1754 128 1728 128Q1702 128 1683 147L1427 403Q1408 422 1408 448Z"/>
  </g>
</svg>