<?xml version="1.0" encoding="utf-8"?>
<svg xmlns="http://www.w3.org/2000/svg" width="16" height="16" viewBox="0 0 2048 2048">
  <g transform="translate(0, 2048) scale(1, -1)">
    <path fill="#ffffff" d="M1669 1920Q1719 1920 1764.5 1899.5Q1810 1879 1844.5 1844.5Q1879 1810 1899.5 1764.5Q1920 1719 1920 1669V379Q1920 329 1899.5 283.5Q1879 238 1844.5 203.5Q1810 169 1764.5 148.5Q1719 128 1669 128H379Q329 128 283.5 148.5Q238 169 203.5 203.5Q169 238 148.5 283.5Q128 329 128 379V1669Q128 1719 148.5 1764.5Q169 1810 203.5 1844.5Q238 1879 283.5 1899.5Q329 1920 379 1920ZM256 384Q256 357 266.0 333.5Q276 310 293.0 293.0Q310 276 333.5 266.0Q357 256 384 256H1024V896Q1024 923 1034.0 946.0Q1044 969 1061.5 986.5Q1079 1004 1102.0 1014.0Q1125 1024 1152 1024H1792V1664Q1792 1690 1782.0 1713.5Q1772 1737 1754.5 1754.5Q1737 1772 1713.5 1782.0Q1690 1792 1664 1792H384Q357 1792 334.0 1782.0Q311 1772 293.5 1754.5Q276 1737 266.0 1714.0Q256 1691 256 1664Z"/>
  </g>
</svg>