<?xml version="1.0" encoding="utf-8"?>
<svg xmlns="http://www.w3.org/2000/svg" width="16" height="16" viewBox="0 0 2048 2048">
  <g transform="translate(0, 2048) scale(1, -1)">
    <path fill="#000000" d="M1600 1408Q1600 1382 1581.0 1363.0Q1562 1344 1536 1344Q1510 1344 1491 1363L1024 1830V64Q1024 38 1005.0 19.0Q986 0 960 0Q934 0 915.0 19.0Q896 38 896 64V1830L429 1363Q410 1344 384 1344Q358 1344 339.0 1363.0Q320 1382 320 1408Q320 1434 339 1453L912 2026Q923 2037 934.0 2042.5Q945 2048 960 2048Q975 2048 986.0 2042.5Q997 2037 1008 2026L1581 1453Q1600 1434 1600 1408Z"/>
  </g>
</svg>