<?xml version="1.0" encoding="utf-8"?>
<svg xmlns="http://www.w3.org/2000/svg" width="16" height="16" viewBox="0 0 2048 2048">
  <g transform="translate(0, 2048) scale(1, -1)">
    <path fill="#000000" d="M1920 192Q1920 166 1901.0 147.0Q1882 128 1856 128Q1830 128 1811 147L256 1702V1088Q256 1062 237.0 1043.0Q218 1024 192 1024Q166 1024 147.0 1043.0Q128 1062 128 1088V1856Q128 1882 147.0 1901.0Q166 1920 192 1920H960Q986 1920 1005.0 1901.0Q1024 1882 1024 1856Q1024 1830 1005.0 1811.0Q986 1792 960 1792H346L1901 237Q1920 218 1920 192Z"/>
  </g>
</svg>