<?xml version="1.0" encoding="utf-8"?>
<svg xmlns="http://www.w3.org/2000/svg" width="16" height="16" viewBox="0 0 2048 2048">
  <g transform="translate(0, 2048) scale(1, -1)">
    <path fill="#ffffff" d="M1920 960V192Q1920 166 1901.5 147.0Q1883 128 1857 128H1088Q1062 128 1043.0 147.0Q1024 166 1024 192Q1024 218 1043.0 237.0Q1062 256 1088 256H1702L147 1811Q128 1830 128 1856Q128 1882 147.0 1901.0Q166 1920 192 1920Q218 1920 237 1901L1792 346V960Q1792 986 1811.0 1005.0Q1830 1024 1856 1024Q1882 1024 1901.0 1005.0Q1920 986 1920 960Z"/>
  </g>
</svg>