<?xml version="1.0" encoding="utf-8"?>
<svg xmlns="http://www.w3.org/2000/svg" width="16" height="16" viewBox="0 0 2048 2048">
  <g transform="translate(0, 2048) scale(1, -1)">
    <path fill="#ffffff" d="M2047 1035Q1988 1112 1907 1170Q1890 1278 1848.0 1375.5Q1806 1473 1744.5 1556.5Q1683 1640 1603.0 1707.0Q1523 1774 1430.5 1821.5Q1338 1869 1235.0 1894.5Q1132 1920 1023 1920Q913 1920 808.0 1893.5Q703 1867 608.5 1817.5Q514 1768 432.5 1697.0Q351 1626 289 1536H704Q730 1536 749.0 1517.0Q768 1498 768 1472Q768 1446 749.0 1427.0Q730 1408 704 1408H192Q171 1408 158.0 1416.5Q145 1425 138.0 1438.5Q131 1452 129.0 1468.5Q127 1485 127 1502Q127 1563 127 1623L128 1863Q128 1924 128 1984Q128 2010 147.0 2029.0Q166 2048 192 2048Q218 2048 237.0 2029.0Q256 2010 256 1984V1702Q329 1785 417.0 1849.5Q505 1914 603.0 1958.0Q701 2002 807.0 2025.0Q913 2048 1024 2048Q1164 2048 1294.0 2012.0Q1424 1976 1537.5 1910.0Q1651 1844 1744.0 1752.0Q1837 1660 1903.5 1547.0Q1970 1434 2007.5 1304.5Q2045 1175 2047 1035ZM1013 1Q873 1 744.0 38.5Q615 76 502.5 143.5Q390 211 297.5 305.0Q205 399 139.0 512.5Q73 626 36.5 756.0Q0 886 0 1024Q0 1050 19.0 1069.0Q38 1088 64 1088Q90 1088 109.0 1069.0Q128 1050 128 1024Q128 860 185.5 708.0Q243 556 351 433Q454 316 589.0 241.0Q724 166 878 141Q936 60 1013 1Z"/>
  </g>
</svg>