<?xml version="1.0" encoding="utf-8"?>
<svg xmlns="http://www.w3.org/2000/svg" width="16" height="16" viewBox="0 0 2048 2048">
  <g transform="translate(0, 2048) scale(1, -1)">
    <path fill="#000000" d="M192 2048Q218 2048 237.0 2029.0Q256 2010 256 1984V1702Q329 1784 417.0 1848.5Q505 1913 603.5 1957.5Q702 2002 808.5 2025.0Q915 2048 1025 2048Q1139 2048 1254 2022Q1209 1970 1177 1907Q1103 1920 1024 1920Q914 1920 809.0 1894.0Q704 1868 609.5 1818.5Q515 1769 433.5 1698.0Q352 1627 289 1536H704Q730 1536 749.0 1517.0Q768 1498 768 1472Q768 1446 749.0 1427.0Q730 1408 704 1408H192Q171 1408 158.0 1416.5Q145 1425 138.0 1438.5Q131 1452 129.0 1468.5Q127 1485 127 1502Q127 1563 127 1623L128 1863Q128 1924 128 1984Q128 2010 147.0 2029.0Q166 2048 192 2048ZM1919 1025Q1919 1063 1916.0 1101.0Q1913 1139 1906 1177Q1967 1206 2021 1254Q2047 1138 2047 1023Q2047 882 2010.5 751.0Q1974 620 1907.0 506.5Q1840 393 1746.5 299.5Q1653 206 1539.0 139.5Q1425 73 1294.0 36.5Q1163 0 1022 0Q881 0 750.5 37.0Q620 74 506.5 140.5Q393 207 299.5 301.0Q206 395 139.5 508.5Q73 622 36.5 752.5Q0 883 0 1024Q0 1050 19.0 1069.0Q38 1088 64 1088Q90 1088 109.0 1069.0Q128 1050 128 1024Q128 860 185.5 708.0Q243 556 351 433Q414 361 491.0 304.5Q568 248 654.0 209.0Q740 170 833.0 149.5Q926 129 1022 129Q1146 129 1260.5 161.0Q1375 193 1474.5 251.5Q1574 310 1656.0 391.5Q1738 473 1796.5 572.5Q1855 672 1887.0 786.5Q1919 901 1919 1025Z"/>
  </g>
</svg>