<?xml version="1.0" encoding="utf-8"?>
<svg xmlns="http://www.w3.org/2000/svg" width="16" height="16" viewBox="0 0 2048 2048">
  <g transform="translate(0, 2048) scale(1, -1)">
    <path fill="#000000" d="M1536 1472V1081Q1536 1016 1510.0 959.0Q1484 902 1440.0 859.5Q1396 817 1338.0 792.5Q1280 768 1216 768H475L749 493Q768 474 768 448Q768 422 749.0 403.0Q730 384 704 384Q678 384 659 403L275 787Q256 806 256 832Q256 858 275 877L659 1261Q678 1280 704 1280Q730 1280 749.0 1261.0Q768 1242 768 1216Q768 1190 749 1171L475 896H1216Q1255 896 1290.0 911.0Q1325 926 1351.5 952.5Q1378 979 1393.0 1014.0Q1408 1049 1408 1088V1472Q1408 1498 1427.0 1517.0Q1446 1536 1472 1536Q1498 1536 1517.0 1517.0Q1536 1498 1536 1472Z"/>
  </g>
</svg>