<?xml version="1.0" encoding="utf-8"?>
<svg xmlns="http://www.w3.org/2000/svg" width="16" height="16" viewBox="0 0 2048 2048">
  <g transform="translate(0, 2048) scale(1, -1)">
    <path fill="#ffffff" d="M960 896Q934 896 915.0 915.0Q896 934 896 960V1728Q896 1754 915.0 1773.0Q934 1792 960 1792Q986 1792 1005.0 1773.0Q1024 1754 1024 1728V1115L1811 1901Q1830 1920 1856 1920Q1882 1920 1901.0 1901.0Q1920 1882 1920 1856Q1920 1830 1901 1811L1115 1024H1728Q1754 1024 1773.0 1005.0Q1792 986 1792 960Q1792 934 1773.0 915.0Q1754 896 1728 896ZM441 128Q378 128 321.0 153.5Q264 179 221.5 221.5Q179 264 153.5 321.0Q128 378 128 441V1479Q128 1542 153.5 1599.0Q179 1656 221.5 1698.5Q264 1741 321.0 1766.5Q378 1792 441 1792H704Q730 1792 749.0 1773.0Q768 1754 768 1728Q768 1702 749.0 1683.0Q730 1664 704 1664H448Q409 1664 374.0 1649.0Q339 1634 312.5 1607.5Q286 1581 271.0 1546.0Q256 1511 256 1472V448Q256 409 271.0 374.0Q286 339 312.5 312.5Q339 286 374.0 271.0Q409 256 448 256H1472Q1511 256 1546.0 271.0Q1581 286 1607.5 312.5Q1634 339 1649.0 374.0Q1664 409 1664 448V704Q1664 730 1683.0 749.0Q1702 768 1728 768Q1754 768 1773.0 749.0Q1792 730 1792 704V441Q1792 378 1766.5 321.0Q1741 264 1698.5 221.5Q1656 179 1599.0 153.5Q1542 128 1479 128Z"/>
  </g>
</svg>