<?xml version="1.0" encoding="utf-8"?>
<svg xmlns="http://www.w3.org/2000/svg" width="16" height="16" viewBox="0 0 2048 2048">
  <g transform="translate(0, 2048) scale(1, -1)">
    <path fill="#000000" d="M1920 1728V1081Q1920 1016 1894.0 959.0Q1868 902 1824.0 859.5Q1780 817 1722.0 792.5Q1664 768 1600 768H347L749 365Q768 346 768 320Q768 294 749.0 275.0Q730 256 704 256Q678 256 659 275L147 787Q128 806 128 832Q128 858 147 877L659 1389Q678 1408 704 1408Q730 1408 749.0 1389.0Q768 1370 768 1344Q768 1318 749 1299L347 896H1600Q1639 896 1674.0 911.0Q1709 926 1735.5 952.5Q1762 979 1777.0 1014.0Q1792 1049 1792 1088V1728Q1792 1754 1811.0 1773.0Q1830 1792 1856 1792Q1882 1792 1901.0 1773.0Q1920 1754 1920 1728Z"/>
  </g>
</svg>