<?xml version="1.0" encoding="utf-8"?>
<svg xmlns="http://www.w3.org/2000/svg" width="16" height="16" viewBox="0 0 2048 2048">
  <g transform="translate(0, 2048) scale(1, -1)">
    <path fill="#000000" d="M2048 1984V1081Q2048 1016 2022.0 959.0Q1996 902 1952.0 859.5Q1908 817 1850.0 792.5Q1792 768 1728 768H219L877 109Q896 90 896 64Q896 38 877.0 19.0Q858 0 832 0Q806 0 787 19L19 787Q0 806 0 832Q0 858 19 877L787 1645Q806 1664 832 1664Q858 1664 877.0 1645.0Q896 1626 896 1600Q896 1574 877 1555L219 896H1728Q1767 896 1802.0 911.0Q1837 926 1863.5 952.5Q1890 979 1905.0 1014.0Q1920 1049 1920 1088V1984Q1920 2010 1939.0 2029.0Q1958 2048 1984 2048Q2010 2048 2029.0 2029.0Q2048 2010 2048 1984Z"/>
  </g>
</svg>