<?xml version="1.0" encoding="utf-8"?>
<svg xmlns="http://www.w3.org/2000/svg" width="16" height="16" viewBox="0 0 2048 2048">
  <g transform="translate(0, 2048) scale(1, -1)">
    <path fill="#000000" d="M896 256Q763 256 646.5 306.0Q530 356 443.0 443.0Q356 530 306.0 646.5Q256 763 256 896Q256 1069 342 1217Q385 1291 444.5 1350.0Q504 1409 575.5 1450.5Q647 1492 728.5 1514.0Q810 1536 896 1536H1573L1228 1882Q1209 1901 1209 1928Q1209 1955 1228.0 1973.0Q1247 1991 1273 1991Q1300 1991 1318 1973L1770 1520Q1790 1500 1790 1471Q1790 1443 1772 1425L1319 972Q1300 953 1274 953Q1247 953 1228.0 972.0Q1209 991 1209 1018Q1209 1044 1228 1063L1574 1408H886Q782 1408 690.5 1366.5Q599 1325 531.0 1254.5Q463 1184 423.5 1091.5Q384 999 384 896Q384 790 424.0 696.5Q464 603 533.5 533.5Q603 464 696.5 424.0Q790 384 896 384H1472Q1498 384 1517.0 365.0Q1536 346 1536 320Q1536 294 1517.0 275.0Q1498 256 1472 256Z"/>
  </g>
</svg>