<?xml version="1.0" encoding="utf-8"?>
<svg xmlns="http://www.w3.org/2000/svg" width="16" height="16" viewBox="0 0 2048 2048">
  <g transform="translate(0, 2048) scale(1, -1)">
    <path fill="#000000" d="M0 939Q0 950 3 961Q33 1074 88.5 1173.5Q144 1273 219.5 1356.0Q295 1439 386.5 1504.0Q478 1569 581.5 1614.5Q685 1660 797.0 1683.5Q909 1707 1024 1707Q1138 1707 1249.5 1683.5Q1361 1660 1464.5 1615.0Q1568 1570 1660.5 1504.5Q1753 1439 1828.5 1356.5Q1904 1274 1959.5 1175.0Q2015 1076 2045 963Q2048 952 2048 940Q2048 904 2023.5 879.5Q1999 855 1963 855Q1933 855 1911.5 872.0Q1890 889 1880 917Q1871 945 1862.5 969.0Q1854 993 1845.0 1016.5Q1836 1040 1825.0 1063.0Q1814 1086 1798 1112Q1739 1211 1655.5 1289.5Q1572 1368 1472.0 1422.5Q1372 1477 1260.5 1506.5Q1149 1536 1035 1536H1013Q899 1536 787.5 1506.5Q676 1477 576.0 1422.0Q476 1367 392.0 1288.5Q308 1210 250 1111Q234 1085 223.0 1061.5Q212 1038 203.0 1015.0Q194 992 185.5 968.0Q177 944 168 916Q158 888 137.0 870.5Q116 853 85 853Q68 853 52.5 860.0Q37 867 25.5 878.5Q14 890 7.0 905.5Q0 921 0 939ZM512 853V863Q512 967 553.5 1058.5Q595 1150 665.5 1218.0Q736 1286 828.5 1325.5Q921 1365 1024 1365Q1130 1365 1223.5 1325.0Q1317 1285 1386.5 1215.5Q1456 1146 1496.0 1052.5Q1536 959 1536 853Q1536 747 1496.0 653.5Q1456 560 1386.5 490.5Q1317 421 1223.5 381.0Q1130 341 1024 341Q918 341 824.5 381.0Q731 421 661.5 490.5Q592 560 552.0 653.5Q512 747 512 853ZM1365 853V860Q1365 929 1337.5 990.0Q1310 1051 1263.0 1096.5Q1216 1142 1154.0 1168.5Q1092 1195 1024 1195Q953 1195 891.0 1168.0Q829 1141 783.0 1094.5Q737 1048 710.0 985.5Q683 923 683 853Q683 782 710.0 720.0Q737 658 783.0 612.0Q829 566 891.0 539.0Q953 512 1024 512Q1094 512 1156.5 539.0Q1219 566 1265.0 612.0Q1311 658 1338.0 720.0Q1365 782 1365 853Z"/>
  </g>
</svg>