<?xml version="1.0" encoding="utf-8"?>
<svg xmlns="http://www.w3.org/2000/svg" width="16" height="16" viewBox="0 0 2048 2048">
  <g transform="translate(0, 2048) scale(1, -1)">
    <path fill="#ffffff" d="M320 0Q294 0 275.0 19.0Q256 38 256 64Q256 90 275.0 109.0Q294 128 320 128H1152Q1285 128 1401.5 178.0Q1518 228 1605.0 315.0Q1692 402 1742.0 518.5Q1792 635 1792 768Q1792 901 1742.0 1017.5Q1692 1134 1605.0 1221.0Q1518 1308 1401.5 1358.0Q1285 1408 1152 1408H347L749 1005Q768 986 768 960Q768 934 749.0 915.0Q730 896 704 896Q678 896 659 915L147 1427Q128 1446 128 1472Q128 1498 147 1517L659 2029Q678 2048 704 2048Q730 2048 749.0 2029.0Q768 2010 768 1984Q768 1958 749 1939L347 1536H1152Q1255 1536 1352.0 1509.5Q1449 1483 1534.5 1433.5Q1620 1384 1691.5 1313.0Q1763 1242 1816 1153Q1920 975 1920 768Q1920 609 1859.5 469.5Q1799 330 1694.5 225.5Q1590 121 1450.5 60.5Q1311 0 1152 0Z"/>
  </g>
</svg>