<?xml version="1.0" encoding="utf-8"?>
<svg xmlns="http://www.w3.org/2000/svg" width="16" height="16" viewBox="0 0 2048 2048">
  <g transform="translate(0, 2048) scale(1, -1)">
    <path fill="#ffffff" d="M2048 1664V384Q2048 358 2038.0 334.5Q2028 311 2010.5 293.5Q1993 276 1970.0 266.0Q1947 256 1920 256Q1877 256 1843 282L1152 800V384Q1152 358 1142.0 334.5Q1132 311 1114.5 293.5Q1097 276 1074.0 266.0Q1051 256 1024 256Q981 256 947 282L94 922Q43 961 43 1024Q43 1087 94 1126L947 1766Q964 1778 983.0 1785.0Q1002 1792 1023 1792Q1050 1792 1073.5 1782.0Q1097 1772 1114.5 1754.5Q1132 1737 1142.0 1714.0Q1152 1691 1152 1664V1248L1843 1766Q1878 1792 1920 1792Q1947 1792 1970.5 1782.0Q1994 1772 2011.0 1755.0Q2028 1738 2038.0 1714.5Q2048 1691 2048 1664ZM171 1024 1024 384V1664ZM1152 960 1920 384V1664L1152 1088Z"/>
  </g>
</svg>