<?xml version="1.0" encoding="utf-8"?>
<svg xmlns="http://www.w3.org/2000/svg" width="16" height="16" viewBox="0 0 2048 2048">
  <g transform="translate(0, 2048) scale(1, -1)">
    <path fill="#ffffff" d="M1152 448Q1152 474 1171 493L1702 1024H192Q166 1024 147.0 1043.0Q128 1062 128 1088Q128 1114 147.0 1133.0Q166 1152 192 1152H1702L1171 1683Q1152 1702 1152 1728Q1152 1754 1171.0 1773.0Q1190 1792 1216 1792Q1242 1792 1261 1773L1901 1133Q1920 1114 1920 1088Q1920 1062 1901 1043L1261 403Q1242 384 1216 384Q1190 384 1171.0 403.0Q1152 422 1152 448Z"/>
  </g>
</svg>