<?xml version="1.0" encoding="utf-8"?>
<svg xmlns="http://www.w3.org/2000/svg" width="16" height="16" viewBox="0 0 2048 2048">
  <g transform="translate(0, 2048) scale(1, -1)">
    <path fill="#ffffff" d="M512 896H251Q199 896 153.5 917.0Q108 938 74.0 973.0Q40 1008 20.0 1054.5Q0 1101 0 1152Q0 1203 20.0 1249.5Q40 1296 74.0 1331.0Q108 1366 153.5 1387.0Q199 1408 251 1408H1797Q1849 1408 1894.5 1387.0Q1940 1366 1974.0 1331.0Q2008 1296 2028.0 1249.5Q2048 1203 2048 1152Q2048 1099 2027.5 1052.5Q2007 1006 1972.5 971.5Q1938 937 1891.0 916.5Q1844 896 1792 896H1536V320Q1536 294 1517.0 275.0Q1498 256 1472 256Q1446 256 1427.0 275.0Q1408 294 1408 320V896Q1408 949 1445 986Q1483 1024 1536 1024H1792Q1845 1024 1882 1061Q1920 1099 1920 1152Q1920 1178 1910.0 1201.5Q1900 1225 1882.5 1242.5Q1865 1260 1841.5 1270.0Q1818 1280 1792 1280H256Q229 1280 206.0 1270.0Q183 1260 165.5 1242.5Q148 1225 138.0 1202.0Q128 1179 128 1152Q128 1098 165 1061Q202 1024 256 1024H512Q564 1024 602 986Q640 948 640 896V320Q640 294 621.0 275.0Q602 256 576 256Q550 256 531.0 275.0Q512 294 512 320ZM768 448V960Q768 984 778.0 997.0Q788 1010 803.5 1016.0Q819 1022 838.0 1023.5Q857 1025 874 1025Q881 1025 888 1025L917 1026Q924 1026 931 1026Q989 1026 1051.0 1018.0Q1113 1010 1164.0 986.0Q1215 962 1247.5 917.5Q1280 873 1280 800Q1280 740 1255.5 695.0Q1231 650 1177 623L1269 484Q1280 467 1280 448Q1280 422 1261.0 403.0Q1242 384 1216 384Q1182 384 1163 413L1047 586Q1009 581 971.5 579.0Q934 577 896 576V448Q896 422 877.0 403.0Q858 384 832 384Q806 384 787.0 403.0Q768 422 768 448ZM896 705Q913 705 938.5 705.0Q964 705 992.5 707.0Q1021 709 1049.5 714.0Q1078 719 1101.0 729.5Q1124 740 1138.0 757.0Q1152 774 1152 800Q1152 836 1129.5 856.0Q1107 876 1074.5 885.0Q1042 894 1005.5 896.0Q969 898 942 898H924L906 897Q901 897 896 897Z"/>
  </g>
</svg>