<?xml version="1.0" encoding="utf-8"?>
<svg xmlns="http://www.w3.org/2000/svg" width="16" height="16" viewBox="0 0 2048 2048">
  <g transform="translate(0, 2048) scale(1, -1)">
    <path fill="#000000" d="M0 1639V1982H332V1639Q332 1588 325.0 1534.0Q318 1480 302.0 1429.5Q286 1379 260.5 1334.0Q235 1289 199.0 1255.5Q163 1222 114.5 1202.5Q66 1183 5 1183V1340H6Q61 1340 94.5 1371.0Q128 1402 146.0 1447.5Q164 1493 170.0 1545.0Q176 1597 176 1639ZM546 1982H875V1639Q875 1561 859.0 1480.0Q843 1399 805.0 1333.0Q767 1267 704.5 1225.0Q642 1183 548 1183V1340H549Q586 1340 613.0 1354.5Q640 1369 659.0 1392.5Q678 1416 690.5 1447.0Q703 1478 710.0 1511.0Q717 1544 719.5 1577.5Q722 1611 722 1639H546Z"/>
  </g>
</svg>