<?xml version="1.0" encoding="utf-8"?>
<svg id="" width="16" height="16" style="width:16px;height:16px;" version="1.1"
    xmlns="http://www.w3.org/2000/svg" viewBox="0 0 2048 2048" enable-background="new 0 0 2048 2048"
    xml:space="preserve"><path fill="#ffffff" d="M693.16 1718.71 l-462.45 0 q-26.84 0 -51.1 -10.33 q-24.26 -10.33 -41.81 -28.38 q-17.55 -18.06 -27.87 -42.32 q-10.33 -24.26 -10.33 -52.13 q0 -13.42 2.06 -25.81 q2.06 -12.39 7.23 -24.77 l121.81 -293.16 l0 -476.91 q0 -7.22 0.52 -14.45 q0.51 -7.22 0.51 -14.45 q4.13 -105.29 35.62 -201.29 q31.48 -96 84.64 -177.55 q53.16 -81.55 125.94 -147.61 q72.77 -66.07 159.49 -112.52 q86.71 -46.45 184.26 -71.74 q97.55 -25.29 201.8 -25.29 q100.13 0 195.1 23.23 q94.97 23.23 180.64 68.13 q85.68 44.91 159.49 109.94 q73.81 65.03 129.55 147.61 q52.64 77.42 86.71 170.33 q34.06 92.9 39.22 187.88 q1.04 14.45 1.55 29.93 q0.52 15.49 0.52 29.94 l0 474.84 l121.8 293.16 q10.33 23.74 10.33 51.61 q0 26.84 -10.84 50.58 q-10.84 23.74 -28.91 41.81 q-18.07 18.06 -42.33 28.9 q-24.26 10.84 -50.06 10.84 l-462.45 0 q-3.1 69.16 -28.39 129.03 q-25.29 59.87 -69.16 104.26 q-43.87 44.39 -103.23 70.2 q-59.36 25.8 -129.56 25.8 q-70.19 0 -129.55 -25.8 q-59.35 -25.81 -103.22 -70.2 q-43.87 -44.39 -69.16 -104.26 q-25.29 -59.87 -28.39 -129.03 ZM1816.26 1586.58 q-4.13 -10.32 -16 -37.16 q-11.87 -26.84 -26.33 -61.42 q-14.45 -34.58 -30.45 -72.78 q-16 -38.19 -28.9 -71.22 q-12.9 -33.03 -21.67 -57.29 q-8.78 -24.26 -8.78 -31.48 l0 -487.23 q0 -88.77 -23.74 -170.84 q-23.74 -82.06 -67.1 -153.29 q-43.36 -71.23 -105.81 -129.55 q-62.46 -58.32 -139.88 -100.64 q-150.71 -81.55 -324.13 -81.55 q-82.58 0 -162.06 19.09 q-79.48 19.09 -150.71 55.74 q-71.23 36.65 -132.64 90.33 q-61.42 53.68 -108.91 121.81 q-43.35 64 -71.23 139.35 q-27.88 75.36 -33.04 152.78 q-1.03 14.45 -1.54 27.87 q-0.52 13.42 -0.52 27.87 l0 488.26 q0 7.22 -8.77 31.48 q-8.77 24.26 -21.68 57.29 q-12.9 33.03 -28.9 71.22 q-16 38.2 -30.45 72.78 q-14.45 34.58 -26.32 61.42 q-11.87 26.84 -16 37.16 l1585.55 0 ZM1023.48 1915.87 q41.29 0 76.9 -15.48 q35.62 -15.48 61.94 -42.32 q26.33 -26.84 41.81 -62.45 q15.48 -35.62 17.55 -76.9 l-396.39 0 q1.03 41.29 16.52 76.9 q15.48 35.62 41.81 62.45 q26.33 26.84 62.45 42.32 q36.13 15.48 77.41 15.48 Z"/></svg>