<?xml version="1.0" encoding="utf-8"?>
<svg xmlns="http://www.w3.org/2000/svg" width="16" height="16" viewBox="0 0 2048 2048">
  <g transform="translate(0, 2048) scale(1, -1)">
    <path fill="#ffffff" d="M575 1745 485 1835Q594 1940 734.0 1994.0Q874 2048 1024 2048Q1120 2048 1212.0 2024.5Q1304 2001 1387.5 1957.5Q1471 1914 1542.0 1852.5Q1613 1791 1666.0 1715.0Q1719 1639 1751.5 1550.0Q1784 1461 1790 1363Q1791 1349 1791.5 1334.0Q1792 1319 1792 1305V845L1910 561Q1920 538 1920 511Q1920 488 1912.5 467.5Q1905 447 1890 430L1781 539Q1776 550 1765.5 574.0Q1755 598 1742.0 628.5Q1729 659 1715.5 691.5Q1702 724 1690.5 753.0Q1679 782 1671.5 803.5Q1664 825 1664 832V1330Q1664 1408 1637.5 1485.0Q1611 1562 1569 1628Q1524 1698 1464.0 1752.0Q1404 1806 1334.0 1843.5Q1264 1881 1185.0 1900.5Q1106 1920 1024 1920Q899 1920 782.5 1875.5Q666 1831 575 1745ZM2048 64Q2048 38 2029.0 19.0Q2010 0 1984 0Q1958 0 1939 19L1574 384V383H1344Q1342 317 1317.0 258.5Q1292 200 1249.5 157.0Q1207 114 1149.5 89.0Q1092 64 1024 64Q956 64 898.5 89.0Q841 114 798.5 157.0Q756 200 731.0 258.5Q706 317 704 383H256Q229 383 206.0 393.0Q183 403 166.0 420.5Q149 438 139.0 461.5Q129 485 129 512Q129 525 131.0 537.0Q133 549 138 561L256 845V1307Q256 1391 275.0 1471.5Q294 1552 331 1627L19 1939Q0 1958 0 1984Q0 2010 19.0 2029.0Q38 2048 64 2048Q90 2048 109 2029L2029 109Q2048 90 2048 64ZM1447 511 427 1531V1530Q404 1476 394.0 1419.5Q384 1363 384 1305V832Q384 825 376.0 802.0Q368 779 355.5 747.0Q343 715 327.5 679.0Q312 643 298.0 609.5Q284 576 272.5 549.5Q261 523 256 511ZM1216 383H832Q833 343 848.0 308.5Q863 274 888.5 248.0Q914 222 949.0 207.0Q984 192 1024 192Q1064 192 1098.5 207.0Q1133 222 1158.5 248.0Q1184 274 1199.0 308.5Q1214 343 1216 383Z"/>
  </g>
</svg>