<?xml version="1.0" encoding="utf-8"?>
<svg xmlns="http://www.w3.org/2000/svg" width="16" height="16" viewBox="0 0 2048 2048">
  <g transform="translate(0, 2048) scale(1, -1)">
    <path fill="#ffffff" d="M369 384Q342 384 319.0 394.0Q296 404 278.5 421.5Q261 439 251.0 462.5Q241 486 241 513Q241 548 259 578L914 1670Q931 1699 961.5 1713.5Q992 1728 1024 1728Q1056 1728 1086.5 1713.5Q1117 1699 1134 1670L1789 578Q1807 548 1807 513Q1807 486 1797.0 462.5Q1787 439 1769.5 421.5Q1752 404 1729.0 394.0Q1706 384 1679 384Z"/>
  </g>
</svg>