<?xml version="1.0" encoding="utf-8"?>
<svg id="" width="16" height="16" style="width:16px;height:16px;" version="1.1" xmlns="http://www.w3.org/2000/svg" viewBox="0 0 2048 2048" enable-background="new 0 0 2048 2048" xml:space="preserve">
    <path fill="#ffffff" d="M635 1024 q-50 0 -95.5 -20.5 q-45.5 -20.5 -80 -55 q-34.5 -34.5 -55 -80 q-20.5 -45.5 -20.5 -95.5 l0 -394 q0 -52 21 -97.5 q21 -45.5 56 -79.5 q35 -34 81.5 -54 q46.5 -20 97.5 -20 l320 0 q0 -8 -0.5 -16.5 q-0.5 -8.5 -0.5 -17.5 q0 -17 2 -33.5 q2 -16.5 8.5 -30 q6.5 -13.5 19.5 -22 q13 -8.5 35 -8.5 q22 0 34.5 8.5 q12.5 8.5 19 22 q6.5 13.5 8.5 30 q2 16.5 2 33.5 l0 34 l325 0 q50 0 95.5 20.5 q45.5 20.5 80 55 q34.5 34.5 55 80 q20.5 45.5 20.5 95.5 l0 394 q0 50 -20.5 95.5 q-20.5 45.5 -55 80 q-34.5 34.5 -80 55 q-45.5 20.5 -95.5 20.5 l-778 0 ZM512 768 q0 27 10 50.5 q10 23.5 27 40.5 q17 17 40.5 27 q23.5 10 50.5 10 l768 0 q27 0 50 -10 q23 -10 40.5 -27.5 q17.5 -17.5 27.5 -40.5 q10 -23 10 -50 l0 -384 q0 -26 -10 -49.5 q-10 -23.5 -27.5 -41 q-17.5 -17.5 -41 -27.5 q-23.5 -10 -49.5 -10 l-768 0 q-27 0 -50 10 q-23 10 -40.5 27.5 q-17.5 17.5 -27.5 40.5 q-10 23 -10 50 l0 384 ZM640 576 q0 -27 10 -50 q10 -23 27.5 -40.5 q17.5 -17.5 40.5 -27.5 q23 -10 50 -10 q26 0 49.5 10 q23.5 10 41 27.5 q17.5 17.5 27.5 41 q10 23.5 10 49.5 q0 27 -10 50 q-10 23 -27.5 40.5 q-17.5 17.5 -40.5 27.5 q-23 10 -50 10 q-27 0 -50.5 -10 q-23.5 -10 -40.5 -27 q-17 -17 -27 -40.5 q-10 -23.5 -10 -50.5 ZM1152 576 q0 -27 10 -50 q10 -23 27.5 -40.5 q17.5 -17.5 40.5 -27.5 q23 -10 50 -10 q26 0 49.5 10 q23.5 10 41 27.5 q17.5 17.5 27.5 41 q10 23.5 10 49.5 q0 27 -10 50 q-10 23 -27.5 40.5 q-17.5 17.5 -40.5 27.5 q-23 10 -50 10 q-27 0 -50.5 -10 q-23.5 -10 -40.5 -27 q-17 -17 -27 -40.5 q-10 -23.5 -10 -50.5 ZM1669 1152 q50 0 95.5 20.5 q45.5 20.5 80 55 q34.5 34.5 55 80 q20.5 45.5 20.5 95.5 q0 122 -38 217 q-38 95 -104 166.5 q-66 71.5 -154 121.5 q-88 50 -187.5 81 q-99.5 31 -205.5 45 q-106 14 -207 14 q-102 0 -208 -14 q-106 -14 -205.5 -45.5 q-99.5 -31.5 -187.5 -81 q-88 -49.5 -153.5 -121.5 q-65.5 -72 -103.5 -167.5 q-38 -95.5 -38 -217.5 q0 -51 21 -96.5 q21 -45.5 56.5 -79.5 q35.5 -34 82 -53.5 q46.5 -19.5 97.5 -19.5 l1284 0 ZM1792 1408 q0 -26 -10 -49.5 q-10 -23.5 -27.5 -41 q-17.5 -17.5 -41 -27.5 q-23.5 -10 -49.5 -10 l-1279 0 q-27 0 -50.5 10 q-23.5 10 -41 27 q-17.5 17 -27.5 40.5 q-10 23.5 -10 50.5 q0 100 34.5 177 q34.5 77 93 134 q58.5 57 135.5 95.5 q77 38.5 162.5 62 q85.5 23.5 173.5 33.5 q88 10 169 10 q81 0 169 -10 q88 -10 173.5 -33.5 q85.5 -23.5 162.5 -62 q77 -38.5 135.5 -95.5 q58.5 -57 93 -134 q34.5 -77 34.5 -177 Z"/>
</svg>