<?xml version="1.0" encoding="utf-8"?>
<svg xmlns="http://www.w3.org/2000/svg" width="16" height="16" viewBox="0 0 2048 2048">
  <g transform="translate(0, 2048) scale(1, -1)">
    <path fill="#000000" d="M2048 1856V1344Q2048 1318 2029.0 1299.0Q2010 1280 1984 1280H1472Q1446 1280 1427.0 1299.0Q1408 1318 1408 1344Q1408 1370 1427.0 1389.0Q1446 1408 1472 1408H1833Q1779 1523 1695.0 1617.5Q1611 1712 1506.0 1779.5Q1401 1847 1279.5 1883.5Q1158 1920 1031 1920Q909 1920 794.5 1888.0Q680 1856 579.5 1797.0Q479 1738 396.0 1656.5Q313 1575 253.5 1475.0Q194 1375 161.0 1261.0Q128 1147 128 1024Q128 904 160.0 790.5Q192 677 251.0 577.5Q310 478 393.0 394.5Q476 311 579 250Q681 189 793.0 158.5Q905 128 1024 128Q1050 128 1069.0 109.0Q1088 90 1088 64Q1088 38 1069.0 19.0Q1050 0 1024 0Q883 0 752.0 36.5Q621 73 507.5 140.0Q394 207 300.5 300.5Q207 394 140.0 507.5Q73 621 36.5 752.0Q0 883 0 1024Q0 1165 36.5 1296.0Q73 1427 140.0 1540.5Q207 1654 300.5 1747.5Q394 1841 507.5 1908.0Q621 1975 752.0 2011.5Q883 2048 1024 2048Q1163 2048 1295.5 2011.5Q1428 1975 1544.0 1906.5Q1660 1838 1756.5 1740.0Q1853 1642 1920 1520V1856Q1920 1882 1939.0 1901.0Q1958 1920 1984 1920Q2010 1920 2029.0 1901.0Q2048 1882 2048 1856ZM1408 1088V576Q1408 550 1389.0 531.0Q1370 512 1344 512H704Q678 512 659.0 531.0Q640 550 640 576V1088Q640 1110 648.0 1122.5Q656 1135 669.5 1141.5Q683 1148 699.5 1150.0Q716 1152 733 1152H768V1280Q768 1333 788.0 1380.0Q808 1427 842.5 1461.5Q877 1496 924.0 1516.0Q971 1536 1024 1536Q1077 1536 1123.5 1516.0Q1170 1496 1205.0 1461.0Q1240 1426 1260.0 1379.5Q1280 1333 1280 1280V1152H1314Q1331 1152 1347.5 1150.0Q1364 1148 1377.5 1141.5Q1391 1135 1399.5 1122.5Q1408 1110 1408 1088ZM896 1152H1152V1280Q1152 1306 1142.0 1329.5Q1132 1353 1114.5 1370.5Q1097 1388 1073.5 1398.0Q1050 1408 1024 1408Q998 1408 974.5 1398.0Q951 1388 933.5 1370.5Q916 1353 906.0 1329.5Q896 1306 896 1280ZM1152 832Q1152 858 1142.0 881.5Q1132 905 1114.5 922.5Q1097 940 1073.5 950.0Q1050 960 1024 960Q997 960 974.0 950.0Q951 940 933.5 922.5Q916 905 906.0 882.0Q896 859 896 832Q896 805 906.0 781.5Q916 758 933.0 741.0Q950 724 973.5 714.0Q997 704 1024 704Q1051 704 1074.0 714.0Q1097 724 1114.5 741.5Q1132 759 1142.0 782.0Q1152 805 1152 832Z"/>
  </g>
</svg>