<?xml version="1.0" encoding="utf-8"?>
<svg xmlns="http://www.w3.org/2000/svg" width="16" height="16" viewBox="0 0 2048 2048">
  <g transform="translate(0, 2048) scale(1, -1)">
    <path fill="#ffffff" d="M1526 832Q1526 827 1517.5 799.0Q1509 771 1495.5 727.5Q1482 684 1464.0 629.0Q1446 574 1427.0 516.5Q1408 459 1389.0 402.5Q1370 346 1354.5 299.0Q1339 252 1327.5 218.0Q1316 184 1312 172Q1305 152 1288.0 140.0Q1271 128 1251 128Q1243 128 1236.5 130.0Q1230 132 1223 134L552 383Q533 390 521.5 406.5Q510 423 510 443Q510 469 529.0 488.0Q548 507 574 507Q582 507 615.0 496.0Q648 485 695.0 468.5Q742 452 795.5 431.5Q849 411 898.0 392.5Q947 374 984.0 359.5Q1021 345 1035 340Q975 418 926.0 502.5Q877 587 841.5 676.5Q806 766 787.0 861.0Q768 956 768 1056Q768 1151 785.5 1243.0Q803 1335 834.0 1423.0Q865 1511 908.0 1595.0Q951 1679 1003 1757Q1026 1792 1050.5 1827.5Q1075 1863 1102 1895Q1112 1906 1125.0 1913.0Q1138 1920 1153 1920Q1179 1920 1198.0 1901.0Q1217 1882 1217 1856Q1217 1845 1213.0 1835.0Q1209 1825 1203 1817Q1180 1785 1157.0 1754.0Q1134 1723 1112 1690Q1065 1618 1025.0 1541.5Q985 1465 956.5 1384.5Q928 1304 912.0 1220.0Q896 1136 896 1049Q896 942 920.0 842.0Q944 742 987.5 650.0Q1031 558 1091.0 473.5Q1151 389 1223 312L1401 853Q1408 873 1424.5 885.0Q1441 897 1462 897Q1489 897 1507.5 878.0Q1526 859 1526 832Z"/>
  </g>
</svg>