<?xml version="1.0" encoding="utf-8"?>
<svg xmlns="http://www.w3.org/2000/svg" width="16" height="16" viewBox="0 0 2048 2048">
  <g transform="translate(0, 2048) scale(1, -1)">
    <path fill="#ffffff" d="M0 704V1479Q0 1544 26.0 1601.0Q52 1658 96.0 1700.5Q140 1743 198.0 1767.5Q256 1792 320 1792H1702L1555 1939Q1536 1958 1536 1984Q1536 2010 1555.0 2029.0Q1574 2048 1600 2048Q1626 2048 1645 2029L1901 1773Q1920 1754 1920 1728Q1920 1702 1901 1683L1645 1427Q1626 1408 1600 1408Q1574 1408 1555.0 1427.0Q1536 1446 1536 1472Q1536 1498 1555 1517L1702 1664H320Q281 1664 246.0 1649.0Q211 1634 184.5 1607.5Q158 1581 143.0 1546.0Q128 1511 128 1472V704Q128 678 109.0 659.0Q90 640 64 640Q38 640 19.0 659.0Q0 678 0 704ZM128 320Q128 346 147 365L403 621Q422 640 448 640Q474 640 493.0 621.0Q512 602 512 576Q512 550 493 531L347 384H1728Q1767 384 1802.0 399.0Q1837 414 1863.5 440.5Q1890 467 1905.0 502.0Q1920 537 1920 576V1344Q1920 1370 1939.0 1389.0Q1958 1408 1984 1408Q2010 1408 2029.0 1389.0Q2048 1370 2048 1344V569Q2048 504 2022.0 447.0Q1996 390 1952.0 347.5Q1908 305 1850.0 280.5Q1792 256 1728 256H347L493 109Q512 90 512 64Q512 38 493.0 19.0Q474 0 448 0Q422 0 403 19L147 275Q128 294 128 320ZM640 1032Q640 1110 671.0 1178.5Q702 1247 754.5 1298.0Q807 1349 877.0 1378.5Q947 1408 1024 1408Q1104 1408 1174.0 1378.0Q1244 1348 1296.0 1296.0Q1348 1244 1378.0 1174.0Q1408 1104 1408 1024Q1408 944 1378.0 874.0Q1348 804 1296.0 752.0Q1244 700 1174.0 670.0Q1104 640 1024 640Q941 640 871.0 670.5Q801 701 749.5 754.5Q698 808 669.0 879.5Q640 951 640 1032ZM1280 1029Q1280 1081 1259.0 1126.5Q1238 1172 1203.0 1206.0Q1168 1240 1121.5 1260.0Q1075 1280 1024 1280Q971 1280 924.5 1259.5Q878 1239 843.5 1204.5Q809 1170 788.5 1123.0Q768 1076 768 1024Q768 971 788.5 924.5Q809 878 843.5 843.5Q878 809 924.5 788.5Q971 768 1024 768Q1078 768 1124.5 788.5Q1171 809 1205.5 844.5Q1240 880 1260.0 927.5Q1280 975 1280 1029Z"/>
  </g>
</svg>