<?xml version="1.0" encoding="utf-8"?>
<svg xmlns="http://www.w3.org/2000/svg" width="16" height="16" viewBox="0 0 2048 2048">
  <g transform="translate(0, 2048) scale(1, -1)">
    <path fill="#000000" d="M1526 443Q1526 423 1514.5 406.5Q1503 390 1484 383L814 134Q796 128 779 128Q762 128 745.5 142.0Q729 156 724 172L513 813Q510 822 510 832Q510 859 528.5 878.0Q547 897 574 897Q595 897 611.5 885.0Q628 873 635 853L813 312Q885 389 945.0 473.5Q1005 558 1048.5 650.0Q1092 742 1116.0 842.0Q1140 942 1140 1049Q1140 1136 1124.0 1220.0Q1108 1304 1079.5 1384.5Q1051 1465 1011.0 1541.5Q971 1618 924 1690Q902 1723 879.0 1754.0Q856 1785 833 1817Q827 1825 823.0 1835.0Q819 1845 819 1856Q819 1882 838.0 1901.0Q857 1920 883 1920Q898 1920 911.0 1913.0Q924 1906 934 1895Q961 1863 985.5 1827.5Q1010 1792 1033 1757Q1085 1679 1128.0 1595.0Q1171 1511 1202.0 1423.0Q1233 1335 1250.5 1243.0Q1268 1151 1268 1056Q1268 956 1249.0 861.0Q1230 766 1194.5 676.5Q1159 587 1110.0 502.5Q1061 418 1001 340Q1015 345 1052.5 359.5Q1090 374 1138.5 392.5Q1187 411 1241.0 431.5Q1295 452 1341.5 468.5Q1388 485 1421.5 496.0Q1455 507 1463 507Q1489 507 1507.5 488.0Q1526 469 1526 443Z"/>
  </g>
</svg>