<?xml version="1.0" encoding="utf-8"?>
<svg id="" width="16" height="16" style="width:16px;height:16px;" version="1.1"
    xmlns="http://www.w3.org/2000/svg" viewBox="0 0 2048 2048" enable-background="new 0 0 2048 2048"
    xml:space="preserve"><path fill="#ffffff" d="M1344 2048 q-26 0 -45 -19 q-19 -19 -19 -45 l0 -512 q0 -26 19 -45 q19 -19 45 -19 q26 0 45 19 q19 19 19 45 l0 357 q128 -54 224 -135 q96 -81 160 -184.5 q64 -103.5 96 -226 q32 -122.5 32 -259.5 q0 -195 -67 -359 q-67 -164 -186.5 -283.5 q-119.5 -119.5 -283.5 -186.5 q-164 -67 -359 -67 q-123 0 -238 28 q-115 28 -215.5 83 q-100.5 55 -184 137 q-83.5 82 -144.5 191 q-60 106 -87 221 q-27 115 -27 236 q0 26 -19 45 q-19 19 -45 19 q-26 0 -45 -19 q-19 -19 -19 -45 q0 -147 35 -280.5 q35 -133.5 99.5 -247 q64.5 -113.5 156.5 -205.5 q92 -92 205.5 -156.5 q113.5 -64.5 247 -99.5 q133.5 -35 280.5 -35 q147 0 280.5 35 q133.5 35 247 99.5 q113.5 64.5 205.5 156.5 q92 92 156.5 205.5 q64.5 113.5 99.5 247 q35 133.5 35 280.5 q0 145 -33 278.5 q-33 133.5 -99.5 249 q-66.5 115.5 -166 209.5 q-99.5 94 -232.5 159 l339 0 q26 0 45 19 q19 19 19 45 q0 26 -19 45 q-19 19 -45 19 l-512 0 ZM768 1019 q0 -52 21 -97.5 q21 -45.5 56 -79.5 q35 -34 81.5 -54 q46.5 -20 97.5 -20 q52 0 99 20.5 q47 20.5 81.5 55 q34.5 34.5 55 81.5 q20.5 47 20.5 99 q0 53 -20.5 99.5 q-20.5 46.5 -55 81 q-34.5 34.5 -81.5 55 q-47 20.5 -99 20.5 q-54 0 -101 -20.5 q-47 -20.5 -81.5 -56 q-34.5 -35.5 -54 -83 q-19.5 -47.5 -19.5 -101.5 ZM1152 1024 q0 -26 -10 -49.5 q-10 -23.5 -27.5 -41 q-17.5 -17.5 -41 -27.5 q-23.5 -10 -49.5 -10 q-27 0 -50 10 q-23 10 -40.5 27.5 q-17.5 17.5 -27.5 40.5 q-10 23 -10 50 q0 27 10 50.5 q10 23.5 27 40.5 q17 17 40.5 27 q23.5 10 50.5 10 q27 0 50 -10 q23 -10 40.5 -27.5 q17.5 -17.5 27.5 -40.5 q10 -23 10 -50 Z"/></svg>