<?xml version="1.0" encoding="utf-8"?>
<svg xmlns="http://www.w3.org/2000/svg" width="16" height="16" viewBox="0 0 2048 2048">
  <g transform="translate(0, 2048) scale(1, -1)">
    <path fill="#ffffff" d="M726 1920 691 1728H297Q307 1776 316.5 1824.0Q326 1872 334 1920ZM774 1292 888 1920H2048L1934 1295H1763L1846 1728H1539L1268 320H1458L1425 128H844L881 320H1052L1326 1728H1026L938 1292ZM234 1408H632L598 1216H197Q206 1264 215.0 1312.0Q224 1360 234 1408ZM134 896H1001Q994 860 987 824L978 776Q972 740 964 704H97Q107 752 116.5 800.0Q126 848 134 896ZM694 192H0Q8 240 17.5 288.0Q27 336 37 384H730Z"/>
  </g>
</svg>