<?xml version="1.0" encoding="utf-8"?>
<svg xmlns="http://www.w3.org/2000/svg" width="16" height="16" viewBox="0 0 2048 2048">
  <g transform="translate(0, 2048) scale(1, -1)">
    <path fill="#ffffff" d="M1792 1984V313Q1792 250 1766.5 193.0Q1741 136 1698.5 93.5Q1656 51 1599.0 25.5Q1542 0 1479 0H569Q506 0 449.0 25.5Q392 51 349.5 93.5Q307 136 281.5 193.0Q256 250 256 313V1984Q256 2010 275.0 2029.0Q294 2048 320 2048Q342 2048 354.5 2039.5Q367 2031 373.5 2017.5Q380 2004 382.0 1987.5Q384 1971 384 1954V1920H960Q986 1920 1005.0 1901.0Q1024 1882 1024 1856Q1024 1830 1005.0 1811.0Q986 1792 960 1792H384V1408H704Q730 1408 749.0 1389.0Q768 1370 768 1344Q768 1318 749.0 1299.0Q730 1280 704 1280H384V896H960Q986 896 1005.0 877.0Q1024 858 1024 832Q1024 806 1005.0 787.0Q986 768 960 768H384V384H704Q730 384 749.0 365.0Q768 346 768 320Q768 294 749.0 275.0Q730 256 704 256H395Q405 227 423.0 203.5Q441 180 465.0 163.0Q489 146 517.0 137.0Q545 128 576 128H1472Q1511 128 1546.0 143.0Q1581 158 1607.5 184.5Q1634 211 1649.0 246.0Q1664 281 1664 320V1984Q1664 2010 1683.0 2029.0Q1702 2048 1728 2048Q1754 2048 1773.0 2029.0Q1792 2010 1792 1984Z"/>
  </g>
</svg>