<?xml version="1.0" encoding="utf-8"?>
<svg xmlns="http://www.w3.org/2000/svg" width="16" height="16" viewBox="0 0 2048 2048">
  <g transform="translate(0, 2048) scale(1, -1)">
    <path fill="#000000" d="M376 256Q301 256 232.5 286.5Q164 317 112.5 368.5Q61 420 30.5 488.5Q0 557 0 632V1416Q0 1491 30.5 1559.5Q61 1628 112.5 1679.5Q164 1731 232.5 1761.5Q301 1792 376 1792H1672Q1747 1792 1815.5 1761.5Q1884 1731 1935.5 1679.5Q1987 1628 2017.5 1559.5Q2048 1491 2048 1416V632Q2048 557 2017.5 488.5Q1987 420 1935.5 368.5Q1884 317 1815.5 286.5Q1747 256 1672 256ZM1669 384Q1719 384 1764.5 404.5Q1810 425 1844.5 459.5Q1879 494 1899.5 539.5Q1920 585 1920 635V1413Q1920 1463 1899.5 1508.5Q1879 1554 1844.5 1588.5Q1810 1623 1764.5 1643.5Q1719 1664 1669 1664H379Q329 1664 283.5 1643.5Q238 1623 203.5 1588.5Q169 1554 148.5 1508.5Q128 1463 128 1413V635Q128 585 148.5 539.5Q169 494 203.5 459.5Q238 425 283.5 404.5Q329 384 379 384ZM384 704V1344Q384 1370 403.0 1389.0Q422 1408 448 1408Q474 1408 493.0 1389.0Q512 1370 512 1344V704Q512 678 493.0 659.0Q474 640 448 640Q422 640 403.0 659.0Q384 678 384 704ZM960 768Q960 794 979 813L1059 894Q1024 953 1024 1024Q1024 1095 1059 1154L979 1235Q960 1254 960 1280Q960 1306 979.0 1325.0Q998 1344 1024 1344Q1050 1344 1069 1325L1150 1245Q1209 1280 1280 1280Q1351 1280 1410 1245L1491 1325Q1510 1344 1536 1344Q1562 1344 1581.0 1325.0Q1600 1306 1600 1280Q1600 1254 1581 1235L1501 1154Q1536 1095 1536 1024Q1536 953 1501 894L1581 813Q1600 794 1600 768Q1600 742 1581.0 723.0Q1562 704 1536 704Q1510 704 1491 723L1410 803Q1351 768 1280 768Q1209 768 1150 803L1069 723Q1050 704 1024 704Q998 704 979.0 723.0Q960 742 960 768ZM1408 1024Q1408 1050 1398.0 1073.5Q1388 1097 1370.5 1114.5Q1353 1132 1329.5 1142.0Q1306 1152 1280 1152Q1253 1152 1230.0 1142.0Q1207 1132 1189.5 1114.5Q1172 1097 1162.0 1074.0Q1152 1051 1152 1024Q1152 997 1162.0 973.5Q1172 950 1189.0 933.0Q1206 916 1229.5 906.0Q1253 896 1280 896Q1307 896 1330.0 906.0Q1353 916 1370.5 933.5Q1388 951 1398.0 974.0Q1408 997 1408 1024Z"/>
  </g>
</svg>