<?xml version="1.0" encoding="utf-8"?>
<svg xmlns="http://www.w3.org/2000/svg" width="16" height="16" viewBox="0 0 2048 2048">
  <g transform="translate(0, 2048) scale(1, -1)">
    <path fill="#ffffff" d="M384 128Q331 128 284.5 148.0Q238 168 203.0 203.0Q168 238 148.0 284.5Q128 331 128 384V1664Q128 1717 148.0 1763.5Q168 1810 203.0 1845.0Q238 1880 284.5 1900.0Q331 1920 384 1920H1392Q1443 1920 1490.0 1900.5Q1537 1881 1573 1845L1845 1573Q1881 1537 1900.5 1490.0Q1920 1443 1920 1392V1160Q1890 1183 1858.0 1202.5Q1826 1222 1792 1239V1392Q1792 1418 1782.5 1441.5Q1773 1465 1755 1483L1483 1755Q1452 1786 1408 1791V1472Q1408 1432 1393.0 1397.0Q1378 1362 1352.0 1336.0Q1326 1310 1291.0 1295.0Q1256 1280 1216 1280H704Q664 1280 629.0 1295.0Q594 1310 568.0 1336.0Q542 1362 527.0 1397.0Q512 1432 512 1472V1792H384Q357 1792 333.5 1782.0Q310 1772 293.0 1755.0Q276 1738 266.0 1714.5Q256 1691 256 1664V384Q256 357 266.0 333.5Q276 310 293.0 293.0Q310 276 333.5 266.0Q357 256 384 256V832Q384 872 399.0 907.0Q414 942 440.0 968.0Q466 994 501.0 1009.0Q536 1024 576 1024H888Q865 994 845.5 962.0Q826 930 809 896H576Q550 896 531.0 877.0Q512 858 512 832V256H809Q826 222 845.5 190.0Q865 158 888 128ZM1216 1408Q1242 1408 1261.0 1427.0Q1280 1446 1280 1472V1792H640V1472Q640 1446 659.0 1427.0Q678 1408 704 1408ZM896 576Q896 695 941.5 800.0Q987 905 1065.0 983.0Q1143 1061 1248.0 1106.5Q1353 1152 1472 1152Q1551 1152 1624.5 1131.5Q1698 1111 1762.0 1073.5Q1826 1036 1879.0 983.0Q1932 930 1969.5 866.0Q2007 802 2027.5 728.5Q2048 655 2048 576Q2048 457 2002.5 352.0Q1957 247 1879.0 169.0Q1801 91 1696.0 45.5Q1591 0 1472 0Q1352 0 1247.0 45.0Q1142 90 1064.0 168.0Q986 246 941.0 351.0Q896 456 896 576ZM1472 248Q1502 248 1523 269L1779 525Q1800 546 1800 576Q1800 606 1779.0 627.0Q1758 648 1728 648Q1698 648 1677 627L1536 486V832Q1536 858 1517.0 877.0Q1498 896 1472 896Q1446 896 1427.0 877.0Q1408 858 1408 832V486L1267 627Q1246 648 1216 648Q1186 648 1165.0 627.0Q1144 606 1144 576Q1144 546 1165 525L1421 269Q1442 248 1472 248Z"/>
  </g>
</svg>