<?xml version="1.0" encoding="utf-8"?>
<svg id="" width="16" height="16" style="width:16px;height:16px;" version="1.1" xmlns="http://www.w3.org/2000/svg" viewBox="0 0 2048 2048" enable-background="new 0 0 2048 2048" xml:space="preserve">
    <path fill="#000" d="M725.71 1609.14 q-57.14 0 -109.14 -23.42 q-52 -23.43 -91.43 -62.86 q-39.43 -39.43 -62.86 -91.43 q-23.42 -52 -23.42 -109.14 l0 -1035.43 q0 -57.15 23.42 -109.15 q23.43 -52 62.86 -91.43 q39.43 -39.42 91.43 -62.85 q52 -23.43 109.14 -23.43 l865.15 0 q58.28 0 112 22.29 q53.71 22.29 94.86 63.42 l164.58 164.58 q41.14 41.14 63.43 94.85 q22.28 53.72 22.28 112 l0 865.15 q0 57.14 -23.43 109.14 q-23.43 52 -62.86 91.43 q-39.43 39.43 -91.43 62.86 q-52 23.42 -109.15 23.42 l-1035.43 0 ZM950.86 877.71 l585.14 0 q44.57 0 84.57 17.14 q40 17.14 70.29 47.43 q30.29 30.28 47.43 70.28 q17.14 40 17.14 84.57 l0 365.72 q30.86 0 57.14 -11.43 q26.29 -11.43 46.29 -31.43 q20 -20 31.42 -46.28 q11.43 -26.29 11.43 -57.15 l0 -859.43 q0 -29.71 -10.86 -56.57 q-10.86 -26.86 -31.42 -47.43 l-164.57 -164.57 q-36.57 -35.43 -85.72 -41.14 l0 254.86 q0 37.71 -14.86 70.85 q-14.86 33.15 -39.42 57.72 q-24.57 24.57 -57.72 39.42 q-33.14 14.86 -70.86 14.86 l-365.72 0 q-37.71 0 -70.85 -14.86 q-33.14 -14.86 -57.72 -39.42 q-24.57 -24.57 -39.43 -57.72 q-14.86 -33.14 -14.86 -70.85 l0 -256 l-146.28 0 q-30.86 0 -57.14 11.42 q-26.29 11.43 -46.29 31.43 q-20 20 -31.43 46.28 q-11.43 26.28 -11.43 57.15 l0 1024 q0 30.86 11.43 57.72 q11.43 26.86 30.86 46.29 q19.43 19.43 46.28 30.86 q26.86 11.43 57.71 11.43 l0 -365.72 q0 -44.57 17.14 -84.57 q17.14 -40 47.43 -70.28 q30.29 -30.29 70.29 -47.43 q40 -17.14 84.57 -17.14 ZM1426.29 438.86 q16 0 26.28 -10.28 q10.29 -10.29 10.29 -26.29 l0 -256 l-438.86 0 l0 256 q0 14.85 10.86 25.71 q10.86 10.86 25.71 10.86 l365.72 0 ZM286.86 2048 q-57.15 0 -109.15 -23.43 q-52 -23.43 -91.43 -62.86 q-39.42 -39.43 -62.85 -91.43 q-23.43 -52 -23.43 -109.15 l0 -1035.43 q0 -57.14 23.43 -109.14 q23.43 -52 62.85 -91.43 q39.42 -39.43 91.43 -62.86 q52 -23.42 109.15 -23.42 l5.71 0 l0 146.28 q-30.86 0 -57.15 11.43 q-26.28 11.43 -46.28 31.43 q-20 20 -31.43 46.29 q-11.42 26.28 -11.42 57.14 l0 1024 q0 30.86 11.42 57.71 q11.43 26.86 30.86 46.28 q19.43 19.43 46.28 30.86 q26.85 11.43 57.72 11.43 l1024 0 q30.86 0 57.15 -11.43 q26.28 -11.42 46.28 -31.42 q20 -20 31.43 -46.29 q11.43 -26.28 11.43 -57.14 l146.28 0 l0 5.71 q0 57.15 -23.42 109.15 q-23.43 52 -62.86 91.43 q-39.43 39.42 -91.43 62.86 q-52 23.43 -109.14 23.43 l-1035.43 0 ZM877.71 1462.86 l731.43 0 l0 -365.72 q0 -29.71 -21.71 -51.42 q-21.72 -21.72 -51.43 -21.72 l-585.14 0 q-29.72 0 -51.44 21.72 q-21.71 21.71 -21.71 51.42 l0 365.72 Z"/>
</svg>