<?xml version="1.0" encoding="utf-8"?>
<svg id="" width="16" height="16" style="width:16px;height:16px;" version="1.1"
    xmlns="http://www.w3.org/2000/svg" viewBox="0 0 2048 2048" enable-background="new 0 0 2048 2048"
    xml:space="preserve"><path fill="#000000" d="M409.6 1774.93 l293.33 0 l-34.13 136.54 l-401.07 0 q-53.33 0 -101.87 -21.87 q-48.54 -21.87 -85.34 -58.67 q-36.8 -36.8 -58.67 -85.33 q-21.86 -48.53 -21.86 -101.87 l0 -1376 q0 -53.33 21.86 -101.87 q21.86 -48.54 58.67 -85.34 q36.8 -36.8 85.34 -58.67 q48.53 -21.86 101.87 -21.86 l1081.6 0 q54.4 0 104.54 20.8 q50.13 20.8 88.54 59.2 l289.07 289.07 q26.66 26.66 42.66 53.86 q16 27.2 24 56 q8 28.8 10.67 60.8 q2.67 32 2.67 68.27 l0 54.4 q-51.2 -13.87 -106.67 -13.87 q-8.53 0 -15.46 0 q-6.93 0 -14.4 1.07 q0 -14.93 0.54 -29.33 q0.53 -14.4 0.53 -29.34 q0 -34.13 -7.47 -66.66 q-7.46 -32.53 -33.06 -58.13 l-290.14 -290.13 q-33.06 -33.07 -80 -38.4 l0 340.27 q0 41.6 -16 78.93 q-16 37.33 -44.26 65.6 q-28.27 28.27 -65.6 44.27 q-37.34 16 -78.94 16 l-546.13 0 q-41.6 0 -78.94 -16 q-37.33 -16 -65.6 -44.27 q-28.26 -28.27 -44.26 -65.6 q-16 -37.33 -16 -78.93 l0 -341.34 l-136.53 0 q-28.8 0 -53.33 10.67 q-24.54 10.67 -43.2 29.34 q-18.66 18.66 -29.34 43.2 q-10.67 24.53 -10.67 53.33 l0 1365.33 q0 28.8 10.67 53.86 q10.67 25.07 28.8 43.2 q18.13 18.13 43.2 28.8 q25.07 10.67 53.87 10.67 l0 -614.4 q0 -41.6 16 -78.93 q16 -37.33 44.27 -65.6 q28.26 -28.27 65.6 -44.27 q37.33 -16 78.94 -16 l845.86 0 q-34.13 34.14 -66.66 68.81 q-32.54 34.66 -67.74 67.73 l-711.46 0 q-27.74 0 -48 20.26 q-20.26 20.27 -20.26 48 l0 614.4 ZM1160.53 546.13 q27.74 0 48 -20.26 q20.27 -20.26 20.27 -48 l0 -341.34 l-682.67 0 l0 341.34 q0 27.73 20.27 48 q20.27 20.26 48 20.26 l546.13 0 ZM2048 1063.47 q0 35.2 -6.93 64 q-6.93 28.8 -20.26 54.4 q-13.33 25.6 -32.53 49.07 q-19.2 23.47 -42.67 48 l-352 -352 q23.47 -24.53 45.87 -44.79 q22.4 -20.26 46.93 -34.13 q24.53 -13.87 53.33 -21.34 q28.8 -7.46 64 -7.46 q51.2 0 96 18.66 q44.8 18.66 77.87 51.73 q33.07 33.07 51.74 77.87 q18.66 44.8 18.66 96 ZM1473.07 1047.47 l352 352 l-530.14 530.13 q-10.66 10.67 -20.8 16 q-10.13 5.33 -24 9.6 q-13.86 4.27 -44.26 12.8 q-30.4 8.53 -69.34 18.66 q-38.93 10.13 -82.13 20.8 q-43.2 10.66 -80.54 19.73 q-37.34 9.07 -65.07 14.93 q-27.73 5.87 -37.33 5.87 q-18.14 0 -32.54 -14.4 q-14.4 -14.4 -14.4 -32.53 q0 -8.54 5.87 -36.27 q5.87 -27.73 14.94 -66.13 q9.06 -38.4 19.73 -81.6 q10.66 -43.2 20.8 -82.67 q10.13 -39.47 18.67 -69.87 q8.53 -30.4 12.79 -43.2 q8.54 -26.66 25.6 -43.73 l530.14 -530.13 Z"/></svg>