<?xml version="1.0" encoding="utf-8"?>
<svg xmlns="http://www.w3.org/2000/svg" width="16" height="16" viewBox="0 0 2048 2048">
  <g transform="translate(0, 2048) scale(1, -1)">
    <path fill="#ffffff" d="M2048 957V448Q2048 409 2033.0 374.0Q2018 339 1991.5 312.5Q1965 286 1930.0 271.0Q1895 256 1856 256H192Q153 256 118.0 271.0Q83 286 56.5 312.5Q30 339 15.0 374.0Q0 409 0 448V832Q0 871 15.0 906.0Q30 941 56.5 967.5Q83 994 118.0 1009.0Q153 1024 192 1024H1779L475 1931Q462 1940 455.0 1954.5Q448 1969 448 1984Q448 2011 466.5 2029.5Q485 2048 512 2048Q533 2048 549 2037L2020 1013Q2048 994 2048 957ZM64 1152Q38 1152 19.0 1171.0Q0 1190 0 1216Q0 1242 19.0 1261.0Q38 1280 64 1280H1088Q1114 1280 1133.0 1261.0Q1152 1242 1152 1216Q1152 1190 1133.0 1171.0Q1114 1152 1088 1152ZM1920 896H192Q166 896 147.0 877.0Q128 858 128 832V448Q128 422 147.0 403.0Q166 384 192 384H1856Q1882 384 1901.0 403.0Q1920 422 1920 448Z"/>
  </g>
</svg>