<?xml version="1.0" encoding="utf-8"?>
<svg xmlns="http://www.w3.org/2000/svg" width="16" height="16" viewBox="0 0 2048 2048">
  <g transform="translate(0, 2048) scale(1, -1)">
    <path fill="#ffffff" d="M256 1280Q256 1306 275 1325L974 2027Q995 2048 1024 2048Q1053 2048 1074 2027L1773 1325Q1792 1306 1792 1280Q1792 1254 1773.0 1235.0Q1754 1216 1728 1216Q1702 1216 1683 1235L1024 1896L365 1235Q346 1216 320 1216Q294 1216 275.0 1235.0Q256 1254 256 1280ZM256 768Q256 794 275.0 813.0Q294 832 320 832Q346 832 365 813L1024 152L1683 813Q1702 832 1728 832Q1754 832 1773.0 813.0Q1792 794 1792 768Q1792 742 1773 723L1074 21Q1053 0 1024 0Q995 0 974 21L275 723Q256 742 256 768Z"/>
  </g>
</svg>