<?xml version="1.0" encoding="utf-8"?>
<svg xmlns="http://www.w3.org/2000/svg" width="16" height="16" viewBox="0 0 2048 2048">
  <g transform="translate(0, 2048) scale(1, -1)">
    <path fill="#000000" d="M320 0Q281 0 246.0 15.0Q211 30 184.5 56.5Q158 83 143.0 118.0Q128 153 128 192V678Q128 732 146.0 784.0Q164 836 198 878L342 1058Q384 1110 384 1178V1797Q384 1847 404.5 1892.5Q425 1938 459.5 1972.5Q494 2007 539.5 2027.5Q585 2048 635 2048H1541Q1591 2048 1636.5 2027.5Q1682 2007 1716.5 1972.5Q1751 1938 1771.5 1892.5Q1792 1847 1792 1797V192Q1792 153 1777.0 118.0Q1762 83 1735.5 56.5Q1709 30 1674.0 15.0Q1639 0 1600 0ZM1600 128Q1626 128 1645.0 147.0Q1664 166 1664 192V1792Q1664 1818 1654.0 1841.5Q1644 1865 1626.5 1882.5Q1609 1900 1585.5 1910.0Q1562 1920 1536 1920H640Q613 1920 590.0 1910.0Q567 1900 549.5 1882.5Q532 1865 522.0 1842.0Q512 1819 512 1792V1178Q512 1124 494.0 1072.0Q476 1020 442 978L298 798Q256 745 256 678V192Q256 166 275.0 147.0Q294 128 320 128ZM640 1472V1728Q640 1754 659.0 1773.0Q678 1792 704 1792Q730 1792 749.0 1773.0Q768 1754 768 1728V1472Q768 1446 749.0 1427.0Q730 1408 704 1408Q678 1408 659.0 1427.0Q640 1446 640 1472ZM896 1472V1728Q896 1754 915.0 1773.0Q934 1792 960 1792Q986 1792 1005.0 1773.0Q1024 1754 1024 1728V1472Q1024 1446 1005.0 1427.0Q986 1408 960 1408Q934 1408 915.0 1427.0Q896 1446 896 1472ZM1152 1472V1728Q1152 1754 1171.0 1773.0Q1190 1792 1216 1792Q1242 1792 1261.0 1773.0Q1280 1754 1280 1728V1472Q1280 1446 1261.0 1427.0Q1242 1408 1216 1408Q1190 1408 1171.0 1427.0Q1152 1446 1152 1472ZM1408 1472V1728Q1408 1754 1427.0 1773.0Q1446 1792 1472 1792Q1498 1792 1517.0 1773.0Q1536 1754 1536 1728V1472Q1536 1446 1517.0 1427.0Q1498 1408 1472 1408Q1446 1408 1427.0 1427.0Q1408 1446 1408 1472Z"/>
  </g>
</svg>