<?xml version="1.0" encoding="utf-8"?>
<svg xmlns="http://www.w3.org/2000/svg" width="16" height="16" viewBox="0 0 2048 2048">
  <g transform="translate(0, 2048) scale(1, -1)">
    <path fill="#ffffff" d="M1878 256Q1878 238 1871.0 222.5Q1864 207 1852.0 195.5Q1840 184 1824.5 177.5Q1809 171 1792 171Q1757 171 1732 196L1272 656Q1181 586 1074.5 549.0Q968 512 853 512Q759 512 671.5 536.5Q584 561 508.5 605.5Q433 650 370.5 712.0Q308 774 264.0 850.0Q220 926 195.5 1013.5Q171 1101 171 1195Q171 1289 195.5 1376.0Q220 1463 264.5 1539.0Q309 1615 371.0 1677.0Q433 1739 509.0 1783.5Q585 1828 672.0 1852.5Q759 1877 853 1877Q994 1877 1118.5 1823.5Q1243 1770 1335.5 1677.0Q1428 1584 1482.0 1460.0Q1536 1336 1536 1195Q1536 1080 1499.0 973.5Q1462 867 1392 776L1852 316Q1865 303 1871.5 289.0Q1878 275 1878 256ZM853 683H863Q967 683 1058.5 724.5Q1150 766 1218.0 836.5Q1286 907 1325.5 999.5Q1365 1092 1365 1195Q1365 1301 1325.0 1394.5Q1285 1488 1215.5 1557.5Q1146 1627 1052.5 1667.0Q959 1707 853 1707Q747 1707 653.5 1667.0Q560 1627 490.5 1557.5Q421 1488 381.0 1394.5Q341 1301 341 1195Q341 1089 381.0 995.5Q421 902 490.5 832.5Q560 763 653.5 723.0Q747 683 853 683Z"/>
  </g>
</svg>