<?xml version="1.0" encoding="utf-8"?>
<svg xmlns="http://www.w3.org/2000/svg" width="16" height="16" viewBox="0 0 2048 2048">
  <g transform="translate(0, 2048) scale(1, -1)">
    <path fill="#ffffff" d="M504 128Q429 128 360.5 158.5Q292 189 240.5 240.5Q189 292 158.5 360.5Q128 429 128 504V1544Q128 1619 158.5 1687.5Q189 1756 240.5 1807.5Q292 1859 360.5 1889.5Q429 1920 504 1920H1544Q1619 1920 1687.5 1889.5Q1756 1859 1807.5 1807.5Q1859 1756 1889.5 1687.5Q1920 1619 1920 1544V504Q1920 429 1889.5 360.5Q1859 292 1807.5 240.5Q1756 189 1687.5 158.5Q1619 128 1544 128ZM1541 256Q1591 256 1636.5 276.5Q1682 297 1716.5 331.5Q1751 366 1771.5 411.5Q1792 457 1792 507V1541Q1792 1591 1771.5 1636.5Q1751 1682 1716.5 1716.5Q1682 1751 1636.5 1771.5Q1591 1792 1541 1792H507Q457 1792 411.5 1771.5Q366 1751 331.5 1716.5Q297 1682 276.5 1636.5Q256 1591 256 1541V507Q256 457 276.5 411.5Q297 366 331.5 331.5Q366 297 411.5 276.5Q457 256 507 256ZM1118 839Q1066 802 1008.5 785.0Q951 768 888 768Q810 768 741.5 799.0Q673 830 622.0 883.0Q571 936 541.5 1005.5Q512 1075 512 1152Q512 1232 542.0 1302.0Q572 1372 624.0 1424.0Q676 1476 746.0 1506.0Q816 1536 896 1536Q973 1536 1042.5 1506.5Q1112 1477 1165.0 1426.0Q1218 1375 1249.0 1306.5Q1280 1238 1280 1160Q1280 1097 1263.0 1039.5Q1246 982 1209 930L1517 621Q1536 602 1536 576Q1536 550 1517.0 531.0Q1498 512 1472 512Q1446 512 1427 531ZM1152 1152V1157Q1152 1209 1131.0 1254.5Q1110 1300 1075.0 1334.0Q1040 1368 993.5 1388.0Q947 1408 896 1408Q843 1408 796.5 1387.5Q750 1367 715.5 1332.5Q681 1298 660.5 1251.0Q640 1204 640 1152Q640 1099 660.5 1052.5Q681 1006 715.5 971.5Q750 937 796.5 916.5Q843 896 896 896Q948 896 995.0 916.5Q1042 937 1076.5 971.5Q1111 1006 1131.5 1052.5Q1152 1099 1152 1152Z"/>
  </g>
</svg>