<?xml version="1.0" encoding="utf-8"?>
<svg xmlns="http://www.w3.org/2000/svg" width="16" height="16" viewBox="0 0 2048 2048">
  <g transform="translate(0, 2048) scale(1, -1)">
    <path fill="#ffffff" d="M0 1728V1797Q0 1847 20.5 1892.5Q41 1938 75.5 1972.5Q110 2007 155.5 2027.5Q201 2048 251 2048L289 2049Q306 2049 323.0 2047.0Q340 2045 353.5 2038.0Q367 2031 375.5 2018.5Q384 2006 384 1984Q384 1961 375.5 1948.5Q367 1936 353.5 1930.0Q340 1924 323.0 1922.5Q306 1921 290 1921H275Q127 1921 127 1773L128 1728Q128 1702 109.0 1683.0Q90 1664 64 1664Q38 1664 19.0 1683.0Q0 1702 0 1728ZM640 1920Q614 1920 595.0 1939.0Q576 1958 576 1984Q576 2010 595.0 2029.0Q614 2048 640 2048H896Q922 2048 941.0 2029.0Q960 2010 960 1984Q960 1958 941.0 1939.0Q922 1920 896 1920ZM1216 1920Q1190 1920 1171.0 1939.0Q1152 1958 1152 1984Q1152 2010 1171.0 2029.0Q1190 2048 1216 2048H1472Q1498 2048 1517.0 2029.0Q1536 2010 1536 1984Q1536 1958 1517.0 1939.0Q1498 1920 1472 1920ZM1664 1984Q1664 2010 1683.0 2029.0Q1702 2048 1728 2048H1797Q1847 2048 1892.5 2027.5Q1938 2007 1972.5 1972.5Q2007 1938 2027.5 1892.5Q2048 1847 2048 1797L2049 1759Q2049 1742 2047.0 1725.0Q2045 1708 2038.0 1694.5Q2031 1681 2018.5 1672.5Q2006 1664 1984 1664Q1961 1664 1948.5 1672.5Q1936 1681 1930.0 1694.0Q1924 1707 1922.5 1723.5Q1921 1740 1921 1757V1773Q1921 1845 1883.0 1883.0Q1845 1921 1773 1921L1728 1920Q1702 1920 1683.0 1939.0Q1664 1958 1664 1984ZM448 1152Q409 1152 374.0 1167.0Q339 1182 312.5 1208.5Q286 1235 271.0 1270.0Q256 1305 256 1344V1600Q256 1639 271.0 1674.0Q286 1709 312.5 1735.5Q339 1762 374.0 1777.0Q409 1792 448 1792H704Q743 1792 778.0 1777.0Q813 1762 839.5 1735.5Q866 1709 881.0 1674.0Q896 1639 896 1600V1344Q896 1305 881.0 1270.0Q866 1235 839.5 1208.5Q813 1182 778.0 1167.0Q743 1152 704 1152ZM1344 1152Q1305 1152 1270.0 1167.0Q1235 1182 1208.5 1208.5Q1182 1235 1167.0 1270.0Q1152 1305 1152 1344V1600Q1152 1639 1167.0 1674.0Q1182 1709 1208.5 1735.5Q1235 1762 1270.0 1777.0Q1305 1792 1344 1792H1600Q1639 1792 1674.0 1777.0Q1709 1762 1735.5 1735.5Q1762 1709 1777.0 1674.0Q1792 1639 1792 1600V1344Q1792 1305 1777.0 1270.0Q1762 1235 1735.5 1208.5Q1709 1182 1674.0 1167.0Q1639 1152 1600 1152ZM704 1280Q730 1280 749.0 1299.0Q768 1318 768 1344V1600Q768 1626 749.0 1645.0Q730 1664 704 1664H448Q422 1664 403.0 1645.0Q384 1626 384 1600V1344Q384 1318 403.0 1299.0Q422 1280 448 1280ZM1600 1280Q1626 1280 1645.0 1299.0Q1664 1318 1664 1344V1600Q1664 1626 1645.0 1645.0Q1626 1664 1600 1664H1344Q1318 1664 1299.0 1645.0Q1280 1626 1280 1600V1344Q1280 1318 1299.0 1299.0Q1318 1280 1344 1280ZM0 1216V1472Q0 1498 19.0 1517.0Q38 1536 64 1536Q90 1536 109.0 1517.0Q128 1498 128 1472V1216Q128 1190 109.0 1171.0Q90 1152 64 1152Q38 1152 19.0 1171.0Q0 1190 0 1216ZM1920 1216V1472Q1920 1498 1939.0 1517.0Q1958 1536 1984 1536Q2010 1536 2029.0 1517.0Q2048 1498 2048 1472V1216Q2048 1190 2029.0 1171.0Q2010 1152 1984 1152Q1958 1152 1939.0 1171.0Q1920 1190 1920 1216ZM0 640V896Q0 922 19.0 941.0Q38 960 64 960Q90 960 109.0 941.0Q128 922 128 896V640Q128 614 109.0 595.0Q90 576 64 576Q38 576 19.0 595.0Q0 614 0 640ZM1920 640V896Q1920 922 1939.0 941.0Q1958 960 1984 960Q2010 960 2029.0 941.0Q2048 922 2048 896V640Q2048 614 2029.0 595.0Q2010 576 1984 576Q1958 576 1939.0 595.0Q1920 614 1920 640ZM448 256Q409 256 374.0 271.0Q339 286 312.5 312.5Q286 339 271.0 374.0Q256 409 256 448V704Q256 743 271.0 778.0Q286 813 312.5 839.5Q339 866 374.0 881.0Q409 896 448 896H704Q743 896 778.0 881.0Q813 866 839.5 839.5Q866 813 881.0 778.0Q896 743 896 704V448Q896 409 881.0 374.0Q866 339 839.5 312.5Q813 286 778.0 271.0Q743 256 704 256ZM1344 256Q1305 256 1270.0 271.0Q1235 286 1208.5 312.5Q1182 339 1167.0 374.0Q1152 409 1152 448V704Q1152 743 1167.0 778.0Q1182 813 1208.5 839.5Q1235 866 1270.0 881.0Q1305 896 1344 896H1600Q1639 896 1674.0 881.0Q1709 866 1735.5 839.5Q1762 813 1777.0 778.0Q1792 743 1792 704V448Q1792 409 1777.0 374.0Q1762 339 1735.5 312.5Q1709 286 1674.0 271.0Q1639 256 1600 256ZM704 384Q730 384 749.0 403.0Q768 422 768 448V704Q768 730 749.0 749.0Q730 768 704 768H448Q422 768 403.0 749.0Q384 730 384 704V448Q384 422 403.0 403.0Q422 384 448 384ZM1600 384Q1626 384 1645.0 403.0Q1664 422 1664 448V704Q1664 730 1645.0 749.0Q1626 768 1600 768H1344Q1318 768 1299.0 749.0Q1280 730 1280 704V448Q1280 422 1299.0 403.0Q1318 384 1344 384ZM251 0Q201 0 155.5 20.5Q110 41 75.5 75.5Q41 110 20.5 155.5Q0 201 0 251L-1 289Q-1 306 1.0 323.0Q3 340 9.5 353.5Q16 367 29.0 375.5Q42 384 64 384Q86 384 99.0 375.5Q112 367 118.0 353.5Q124 340 125.5 323.0Q127 306 127 290V275Q127 127 275 127L320 128Q346 128 365.0 109.0Q384 90 384 64Q384 38 365.0 19.0Q346 0 320 0ZM1664 64Q1664 86 1672.5 99.0Q1681 112 1694.5 118.0Q1708 124 1724.5 125.5Q1741 127 1758 127H1773Q1921 127 1921 275L1920 320Q1920 346 1939.0 365.0Q1958 384 1984 384Q2010 384 2029.0 365.0Q2048 346 2048 320V251Q2048 201 2027.5 155.5Q2007 110 1972.5 75.5Q1938 41 1892.5 20.5Q1847 0 1797 0L1759 -1Q1742 -1 1725.0 1.0Q1708 3 1694.5 9.5Q1681 16 1672.5 29.0Q1664 42 1664 64ZM640 0Q614 0 595.0 19.0Q576 38 576 64Q576 90 595.0 109.0Q614 128 640 128H896Q922 128 941.0 109.0Q960 90 960 64Q960 38 941.0 19.0Q922 0 896 0ZM1216 0Q1190 0 1171.0 19.0Q1152 38 1152 64Q1152 90 1171.0 109.0Q1190 128 1216 128H1472Q1498 128 1517.0 109.0Q1536 90 1536 64Q1536 38 1517.0 19.0Q1498 0 1472 0Z"/>
  </g>
</svg>