<?xml version="1.0" encoding="utf-8"?>
<svg xmlns="http://www.w3.org/2000/svg" width="16" height="16" viewBox="0 0 2048 2048">
  <g transform="translate(0, 2048) scale(1, -1)">
    <path fill="#000000" d="M1795 1088 2046 210Q2047 208 2047.5 202.0Q2048 196 2048 193Q2048 165 2030.0 146.5Q2012 128 1984 128Q1969 128 1957 134L37 1030Q20 1038 10.0 1053.5Q0 1069 0 1088Q0 1129 37 1146L1957 2042Q1969 2048 1984 2048Q2012 2048 2030.0 2029.5Q2048 2011 2048 1983Q2048 1980 2047.5 1974.0Q2047 1968 2046 1966ZM215 1088 1884 309 1679 1024H832Q806 1024 787.0 1043.0Q768 1062 768 1088Q768 1114 787.0 1133.0Q806 1152 832 1152H1679L1884 1867Z"/>
  </g>
</svg>