<?xml version="1.0" encoding="utf-8"?>
<svg xmlns="http://www.w3.org/2000/svg" width="16" height="16" viewBox="0 0 2048 2048">
  <g transform="translate(0, 2048) scale(1, -1)">
    <path fill="#ffffff" d="M1024 1920Q949 1920 878.5 1904.5Q808 1889 739 1859Q702 1842 671.5 1824.0Q641 1806 613.0 1785.0Q585 1764 558.0 1740.5Q531 1717 503 1689Q492 1678 481.5 1673.0Q471 1668 456 1668Q430 1668 410.5 1686.5Q391 1705 391 1732Q391 1745 395.5 1755.5Q400 1766 408 1776Q433 1807 466.5 1836.5Q500 1866 537.0 1891.5Q574 1917 612.5 1939.0Q651 1961 688 1977Q848 2048 1024 2048Q1200 2048 1360 1977Q1396 1961 1435.0 1939.0Q1474 1917 1511.0 1891.5Q1548 1866 1581.0 1836.5Q1614 1807 1640 1776Q1656 1757 1656 1732Q1656 1705 1637.5 1687.0Q1619 1669 1592 1669Q1565 1669 1545 1689Q1534 1699 1524.0 1709.5Q1514 1720 1503 1731Q1417 1811 1309 1859Q1240 1889 1169.5 1904.5Q1099 1920 1024 1920ZM635 1484Q635 1513 659 1533Q735 1597 830.5 1628.5Q926 1660 1025 1660Q1072 1660 1121.5 1652.0Q1171 1644 1218.5 1628.5Q1266 1613 1309.5 1589.0Q1353 1565 1389 1534Q1412 1514 1412 1484Q1412 1457 1394.0 1438.5Q1376 1420 1349 1420Q1336 1420 1327.0 1423.5Q1318 1427 1308 1435Q1242 1483 1174.0 1508.0Q1106 1533 1024 1533Q942 1533 874.0 1508.0Q806 1483 740 1435Q730 1427 721.0 1423.5Q712 1420 699 1420Q673 1420 654.0 1439.0Q635 1458 635 1484ZM576 0Q537 0 502.0 15.0Q467 30 440.5 56.5Q414 83 399.0 118.0Q384 153 384 192V960Q384 999 399.0 1034.0Q414 1069 440.5 1095.5Q467 1122 502.0 1137.0Q537 1152 576 1152H1472Q1511 1152 1546.0 1137.0Q1581 1122 1607.5 1095.5Q1634 1069 1649.0 1034.0Q1664 999 1664 960V192Q1664 153 1649.0 118.0Q1634 83 1607.5 56.5Q1581 30 1546.0 15.0Q1511 0 1472 0ZM1472 128Q1498 128 1517.0 147.0Q1536 166 1536 192V960Q1536 986 1517.0 1005.0Q1498 1024 1472 1024H576Q550 1024 531.0 1005.0Q512 986 512 960V192Q512 166 531.0 147.0Q550 128 576 128ZM960 256Q934 256 915.0 275.0Q896 294 896 320Q896 346 915.0 365.0Q934 384 960 384H1088Q1114 384 1133.0 365.0Q1152 346 1152 320Q1152 294 1133.0 275.0Q1114 256 1088 256Z"/>
  </g>
</svg>