<?xml version="1.0" encoding="utf-8"?>
<svg xmlns="http://www.w3.org/2000/svg" width="16" height="16" viewBox="0 0 2048 2048">
  <g transform="translate(0, 2048) scale(1, -1)">
    <path fill="#ffffff" d="M504 384Q429 384 360.5 414.5Q292 445 240.5 496.5Q189 548 158.5 616.5Q128 685 128 760V1544Q128 1619 158.5 1687.5Q189 1756 240.5 1807.5Q292 1859 360.5 1889.5Q429 1920 504 1920H1288Q1363 1920 1431.5 1889.5Q1500 1859 1551.5 1807.5Q1603 1756 1633.5 1687.5Q1664 1619 1664 1544V760Q1664 685 1633.5 616.5Q1603 548 1551.5 496.5Q1500 445 1431.5 414.5Q1363 384 1288 384ZM1285 512Q1335 512 1380.5 532.5Q1426 553 1460.5 587.5Q1495 622 1515.5 667.5Q1536 713 1536 763V1541Q1536 1591 1515.5 1636.5Q1495 1682 1460.5 1716.5Q1426 1751 1380.5 1771.5Q1335 1792 1285 1792H507Q457 1792 411.5 1771.5Q366 1751 331.5 1716.5Q297 1682 276.5 1636.5Q256 1591 256 1541V763Q256 713 276.5 667.5Q297 622 331.5 587.5Q366 553 411.5 532.5Q457 512 507 512ZM482 256H1416Q1494 256 1562.5 287.0Q1631 318 1682.0 371.0Q1733 424 1762.5 493.5Q1792 563 1792 640V1566Q1854 1512 1887.0 1437.0Q1920 1362 1920 1280V630Q1920 563 1901.5 500.0Q1883 437 1849.5 381.0Q1816 325 1769.5 278.5Q1723 232 1667.0 198.5Q1611 165 1548.0 146.5Q1485 128 1418 128H768Q686 128 611.0 161.0Q536 194 482 256Z"/>
  </g>
</svg>