<?xml version="1.0" encoding="utf-8"?>
<svg xmlns="http://www.w3.org/2000/svg" width="16" height="16" viewBox="0 0 2048 2048">
  <g transform="translate(0, 2048) scale(1, -1)">
    <path fill="#000000" d="M2047 1024Q2047 883 2010.5 752.0Q1974 621 1907.5 507.5Q1841 394 1747.5 300.5Q1654 207 1540.5 140.5Q1427 74 1296.0 37.5Q1165 1 1024 1Q883 1 752.0 37.5Q621 74 507.5 140.5Q394 207 300.5 300.5Q207 394 140.0 507.5Q73 621 36.5 752.0Q0 883 0 1024Q0 1050 19.0 1069.0Q38 1088 64 1088Q90 1088 109.0 1069.0Q128 1050 128 1024Q128 860 185.5 708.0Q243 556 351 433Q414 361 491.0 304.5Q568 248 654.0 209.0Q740 170 833.0 149.5Q926 129 1022 129Q1146 129 1260.5 161.0Q1375 193 1475.0 251.0Q1575 309 1656.5 390.5Q1738 472 1796.5 571.5Q1855 671 1887.0 785.5Q1919 900 1919 1024Q1919 1148 1887.0 1262.5Q1855 1377 1796.5 1476.5Q1738 1576 1656.5 1657.5Q1575 1739 1475.5 1797.5Q1376 1856 1261.5 1888.0Q1147 1920 1023 1920Q913 1920 808.0 1893.5Q703 1867 608.5 1817.5Q514 1768 432.5 1697.0Q351 1626 289 1536H704Q730 1536 749.0 1517.0Q768 1498 768 1472Q768 1446 749.0 1427.0Q730 1408 704 1408H192Q171 1408 158.0 1416.5Q145 1425 138.0 1438.5Q131 1452 129.0 1468.5Q127 1485 127 1502Q127 1563 127 1623L128 1863Q128 1924 128 1984Q128 2010 147.0 2029.0Q166 2048 192 2048Q218 2048 237.0 2029.0Q256 2010 256 1984V1702Q329 1785 417.0 1849.5Q505 1914 603.0 1958.0Q701 2002 807.0 2025.0Q913 2048 1024 2048Q1165 2048 1296.0 2011.5Q1427 1975 1540.5 1908.0Q1654 1841 1747.5 1747.5Q1841 1654 1907.5 1540.5Q1974 1427 2010.5 1296.0Q2047 1165 2047 1024ZM1024 1024H1344Q1370 1024 1389.0 1005.0Q1408 986 1408 960Q1408 934 1389.0 915.0Q1370 896 1344 896H960Q934 896 915.0 915.0Q896 934 896 960V1600Q896 1626 915.0 1645.0Q934 1664 960 1664Q986 1664 1005.0 1645.0Q1024 1626 1024 1600Z"/>
  </g>
</svg>