<?xml version="1.0" encoding="utf-8"?>
<svg xmlns="http://www.w3.org/2000/svg" width="16" height="16" viewBox="0 0 2048 2048">
  <g transform="translate(0, 2048) scale(1, -1)">
    <path fill="#ffffff" d="M127 1502Q127 1563 127 1623L128 1863Q128 1924 128 1984Q128 2010 147.0 2029.0Q166 2048 192 2048Q218 2048 237.0 2029.0Q256 2010 256 1984V1702Q329 1784 416.5 1848.5Q504 1913 602.0 1957.5Q700 2002 806.5 2025.0Q913 2048 1023 2048Q1183 2048 1333 2000Q1296 1948 1274 1884Q1152 1920 1023 1920Q913 1920 808.5 1893.5Q704 1867 609.5 1817.5Q515 1768 433.5 1697.0Q352 1626 289 1536H704Q730 1536 749.0 1517.0Q768 1498 768 1472Q768 1446 749.0 1427.0Q730 1408 704 1408H192Q171 1408 158.0 1416.5Q145 1425 138.0 1438.5Q131 1452 129.0 1468.5Q127 1485 127 1502ZM1408 1728V1735Q1408 1800 1434.0 1857.0Q1460 1914 1504.0 1956.5Q1548 1999 1606.0 2023.5Q1664 2048 1728 2048Q1795 2048 1853.0 2023.0Q1911 1998 1954.5 1954.5Q1998 1911 2023.0 1853.0Q2048 1795 2048 1728Q2048 1661 2023.0 1603.0Q1998 1545 1954.5 1501.5Q1911 1458 1853.0 1433.0Q1795 1408 1728 1408Q1661 1408 1603.0 1433.0Q1545 1458 1501.5 1501.5Q1458 1545 1433.0 1603.0Q1408 1661 1408 1728ZM1024 1024H1344Q1370 1024 1389.0 1005.0Q1408 986 1408 960Q1408 934 1389.0 915.0Q1370 896 1344 896H960Q934 896 915.0 915.0Q896 934 896 960V1600Q896 1626 915.0 1645.0Q934 1664 960 1664Q986 1664 1005.0 1645.0Q1024 1626 1024 1600ZM2000 1332Q2047 1180 2047 1024Q2047 883 2010.5 752.5Q1974 622 1907.5 508.0Q1841 394 1748.0 301.0Q1655 208 1541.5 141.0Q1428 74 1297.0 37.5Q1166 1 1025 1Q884 1 753.0 37.5Q622 74 508.0 140.5Q394 207 300.5 300.5Q207 394 140.0 507.5Q73 621 36.5 752.0Q0 883 0 1024Q0 1050 19.0 1069.0Q38 1088 64 1088Q90 1088 109.0 1069.0Q128 1050 128 1024Q128 860 185.5 708.0Q243 556 351 433Q414 361 491.0 304.5Q568 248 654.0 209.0Q740 170 833.0 149.5Q926 129 1022 129Q1146 129 1260.5 161.0Q1375 193 1475.0 251.0Q1575 309 1656.5 391.0Q1738 473 1796.5 572.5Q1855 672 1887.0 786.5Q1919 901 1919 1025Q1919 1151 1884 1274Q1915 1285 1944.0 1299.5Q1973 1314 2000 1332Z"/>
  </g>
</svg>