<?xml version="1.0" encoding="utf-8"?>
<svg xmlns="http://www.w3.org/2000/svg" width="16" height="16" viewBox="0 0 2048 2048">
  <g transform="translate(0, 2048) scale(1, -1)">
    <path fill="#000000" d="M379 384Q329 384 283.5 404.5Q238 425 203.5 459.5Q169 494 148.5 539.5Q128 585 128 635V1669Q128 1719 148.5 1764.5Q169 1810 203.5 1844.5Q238 1879 283.5 1899.5Q329 1920 379 1920H1413Q1463 1920 1508.5 1899.5Q1554 1879 1588.5 1844.5Q1623 1810 1643.5 1764.5Q1664 1719 1664 1669V635Q1664 585 1643.5 539.5Q1623 494 1588.5 459.5Q1554 425 1508.5 404.5Q1463 384 1413 384ZM418 256H1541Q1593 256 1638.5 277.0Q1684 298 1718.0 333.0Q1752 368 1772.0 414.5Q1792 461 1792 512V1630Q1852 1596 1886.0 1536.5Q1920 1477 1920 1408V504Q1920 429 1889.5 360.5Q1859 292 1807.5 240.5Q1756 189 1687.5 158.5Q1619 128 1544 128H640Q571 128 511.5 162.0Q452 196 418 256Z"/>
  </g>
</svg>