<?xml version="1.0" encoding="utf-8"?>
<svg xmlns="http://www.w3.org/2000/svg" width="16" height="16" viewBox="0 0 2048 2048">
  <g transform="translate(0, 2048) scale(1, -1)">
    <path fill="#000000" d="M1797 2048Q1847 2048 1892.5 2027.5Q1938 2007 1972.5 1972.5Q2007 1938 2027.5 1892.5Q2048 1847 2048 1797V813Q2039 837 2026.5 864.0Q2014 891 1998.0 916.5Q1982 942 1962.5 963.5Q1943 985 1920 998V1792Q1920 1818 1910.0 1841.5Q1900 1865 1882.5 1882.5Q1865 1900 1841.5 1910.0Q1818 1920 1792 1920H256Q229 1920 206.0 1910.0Q183 1900 165.5 1882.5Q148 1865 138.0 1842.0Q128 1819 128 1792V640Q128 613 138.0 589.5Q148 566 165.0 549.0Q182 532 205.5 522.0Q229 512 256 512H768V0H448Q422 0 403.0 19.0Q384 38 384 64Q384 90 403.0 109.0Q422 128 448 128H640V384H251Q201 384 155.5 404.5Q110 425 75.5 459.5Q41 494 20.5 539.5Q0 585 0 635V1797Q0 1847 20.5 1892.5Q41 1938 75.5 1972.5Q110 2007 155.5 2027.5Q201 2048 251 2048ZM1984 448Q1984 369 1972.0 291.0Q1960 213 1932 138Q1926 121 1916.5 97.5Q1907 74 1893.5 52.0Q1880 30 1863.0 15.0Q1846 0 1824 0Q1797 0 1778.5 18.5Q1760 37 1760 64Q1760 71 1761.5 79.0Q1763 87 1766 93Q1779 116 1791.0 136.0Q1803 156 1812 182Q1835 246 1845.5 313.0Q1856 380 1856 448Q1856 516 1845.5 583.0Q1835 650 1812 714Q1798 754 1773 794Q1767 804 1763.5 811.5Q1760 819 1760 832Q1760 859 1778.5 877.5Q1797 896 1824 896Q1846 896 1863.0 881.0Q1880 866 1893.5 844.0Q1907 822 1916.5 798.5Q1926 775 1932 758Q1960 683 1972.0 605.0Q1984 527 1984 448ZM1408 832V64Q1408 38 1388.5 19.0Q1369 0 1343 0Q1317 0 1298 19L1061 256H960Q934 256 915.0 275.0Q896 294 896 320V576Q896 602 915.0 621.0Q934 640 960 640H1061L1298 877Q1317 896 1343 896Q1369 896 1388.5 877.0Q1408 858 1408 832ZM1728 448Q1728 416 1722.5 378.5Q1717 341 1707.5 302.5Q1698 264 1685.0 227.5Q1672 191 1657 163Q1649 147 1633.5 137.5Q1618 128 1600 128Q1574 128 1555.0 147.0Q1536 166 1536 192Q1536 201 1540.5 214.5Q1545 228 1550.5 242.5Q1556 257 1562.0 270.5Q1568 284 1571 292Q1585 328 1592.5 369.0Q1600 410 1600 448Q1600 488 1591.5 527.0Q1583 566 1571 604Q1568 613 1562.0 627.0Q1556 641 1550.5 655.0Q1545 669 1540.5 682.5Q1536 696 1536 704Q1536 730 1555.0 749.0Q1574 768 1600 768Q1618 768 1633.5 758.5Q1649 749 1657 733Q1672 705 1685.0 668.5Q1698 632 1707.5 593.5Q1717 555 1722.5 517.0Q1728 479 1728 448Z"/>
  </g>
</svg>