<?xml version="1.0" encoding="utf-8"?>
<svg xmlns="http://www.w3.org/2000/svg" width="16" height="16" viewBox="0 0 2048 2048">
  <g transform="translate(0, 2048) scale(1, -1)">
    <path fill="#000000" d="M1216 2048Q1255 2048 1290.0 2033.0Q1325 2018 1351.5 1991.5Q1378 1965 1393.0 1930.0Q1408 1895 1408 1856V1344Q1408 1305 1393.0 1270.0Q1378 1235 1351.5 1208.5Q1325 1182 1290.0 1167.0Q1255 1152 1216 1152H704Q665 1152 630.0 1167.0Q595 1182 568.5 1208.5Q542 1235 527.0 1270.0Q512 1305 512 1344V1856Q512 1895 527.0 1930.0Q542 1965 568.5 1991.5Q595 2018 630.0 2033.0Q665 2048 704 2048ZM1280 1856Q1280 1882 1261.0 1901.0Q1242 1920 1216 1920H704Q678 1920 659.0 1901.0Q640 1882 640 1856V1344Q640 1318 659.0 1299.0Q678 1280 704 1280H1216Q1242 1280 1261.0 1299.0Q1280 1318 1280 1344ZM1408 576Q1408 550 1389.0 531.0Q1370 512 1344 512Q1318 512 1299 531L1024 806V64Q1024 38 1005.0 19.0Q986 0 960 0Q934 0 915.0 19.0Q896 38 896 64V806L621 531Q602 512 576 512Q550 512 531.0 531.0Q512 550 512 576Q512 602 531 621L915 1005Q934 1024 960 1024Q986 1024 1005 1005L1389 621Q1408 602 1408 576Z"/>
  </g>
</svg>