<?xml version="1.0" encoding="utf-8"?>
<svg xmlns="http://www.w3.org/2000/svg" height="16" width="16" viewBox="0 0 16 16">
  <g>
    <path id="path1" transform="rotate(0,8,8) translate(0,0) scale(0.03125,0.03125)  " fill="#FFFFFF" d="M256,192L249.4765625,192.3125 243.15625,193.25 237.0390625,194.812515258789 231.125,197 225.4921875,199.734375 220.21875,202.937515258789 215.3046875,206.609390258789 210.75,210.75 206.609375,215.3046875 202.9375,220.21875 199.734375,225.4921875 197,231.125 194.8125,237.0390625 193.25,243.15625 192.3125,249.476577758789 192,256 192.3125,262.5234375 193.25,268.84375 194.8125,274.9609375 197,280.875 199.734375,286.5078125 202.9375,291.78125 206.609375,296.6953125 210.75,301.25 215.3046875,305.390625 220.21875,309.0625 225.4921875,312.265625 231.125,315 237.0390625,317.1875 243.15625,318.75 249.4765625,319.6875 256,320 262.5234375,319.6875 268.84375,318.75 274.9609375,317.1875 280.875,315 286.5078125,312.265625 291.78125,309.0625 296.6953125,305.390625 301.25,301.25 305.390625,296.6953125 309.0625,291.78125 312.265625,286.5078125 315,280.875 317.1875,274.9609375 318.75,268.84375 319.6875,262.5234375 320,256 319.6875,249.476577758789 318.75,243.15625 317.1875,237.0390625 315,231.125 312.265625,225.4921875 309.0625,220.21875 305.390625,215.3046875 301.25,210.75 296.6953125,206.609390258789 291.78125,202.937515258789 286.5078125,199.734375 280.875,197 274.9609375,194.812515258789 268.84375,193.25 262.5234375,192.3125 256,192z M256,160L265.84375,160.46875 275.375,161.875 284.59375,164.21875 293.5,167.5 301.96875,171.59375 309.875,176.375 317.21875,181.84375 324,188 330.15625,194.781265258789 335.625,202.125015258789 340.40625,210.03125 344.5,218.5 347.78125,227.406265258789 350.125,236.625015258789 351.53125,246.156265258789 352,256 351.53125,265.84375 350.125,275.375 347.78125,284.59375 344.5,293.5 340.40625,301.96875 335.625,309.875 330.15625,317.21875 324,324 317.21875,330.15625 309.875,335.625 301.96875,340.40625 293.5,344.5 284.59375,347.78125 275.375,350.125 265.84375,351.53125 256,352 246.15625,351.53125 236.625,350.125 227.40625,347.78125 218.5,344.5 210.031234741211,340.40625 202.124984741211,335.625 194.78125,330.15625 188,324 181.84375,317.21875 176.375,309.875 171.59375,301.96875 167.5,293.5 164.21875,284.59375 161.875,275.375 160.46875,265.84375 160,256 160.46875,246.156265258789 161.875,236.625015258789 164.21875,227.406265258789 167.5,218.5 171.59375,210.03125 176.375,202.125015258789 181.84375,194.781265258789 188,188 194.78125,181.84375 202.124984741211,176.375 210.031234741211,171.59375 218.5,167.5 227.40625,164.21875 236.625,161.875 246.15625,160.46875 256,160z M256,32L238,32.625 220.25,34.5 216,59.25 211.25,83.75 209.921875,89.1484451293945 208.1875,94.34375 206.046875,99.3359375 203.5,104.125 197.374984741211,112.84375 190,120.25 181.5,126.281257629395 172,130.875 166.90625,132.5703125 161.625,133.78125 156.15625,134.5078125 150.5,134.75 144.953125,134.515625 139.5625,133.8125 134.328125,132.640625 129.25,131 129,131 83,114 82.75,114 71.8125,128.53125 62,143.625 53.4375,159.40625 46.25,176 46.25,176.25 84.5,208.75 89.453125,213.3515625 93.8125,218.40625 97.578125,223.9140625 100.75,229.875 103.265625,236.1484375 105.062492370605,242.59375 106.140617370605,249.2109375 106.5,256 106.132804870605,262.796875 105.031242370605,269.4375 103.195304870605,275.921875 100.625,282.25 97.3984375,288.265625 93.59375,293.8125 89.2109375,298.890625 84.25,303.5 46.5,335 46.5,335.25 46.75,336.09375 47.5,338.125 48.3125,340.15625 48.75,341 55.3437461853027,356.15625 63.125,370.625 72.03125,384.46875 82,397.75 82.25,397.75 129.25,380.75 134.28125,379.21875 139.375,378.125 144.53125,377.46875 149.75,377.25 158.078125,377.765625 166.0625,379.3125 173.703125,381.890625 181,385.5 186.7421875,389.15625 191.96875,393.375 196.6796875,398.15625 200.875,403.5 204.4765625,409.265625 207.40625,415.3125 209.6640625,421.640625 211.25,428.25 219.75,477 237.812484741211,479.25 256,480 274,479.375 291.75,477.5 292.8125,471.34375 294,463.875 296.75,447.25 300,431 301.75,424 303.5,418.5 307.53125,409.59375 312.625,401.625 318.78125,394.59375 326,388.5 334.046875,383.578125 342.6875,380.0625 351.921875,377.953125 361.75,377.25 369.03125,377.84375 377.375,379.625 386.374969482422,382.21875 395.625,385.25 413.75,392 422,395.25 429.25,398 440.312469482422,383.59375 450,368.375 458.437469482422,352.46875 465.75,336 465.75,335.75 427.5,303.25 422.546844482422,298.6484375 418.187469482422,293.59375 414.421875,288.0859375 411.25,282.125 408.734375,275.8515625 406.9375,269.40625 405.859375,262.7890625 405.5,256 405.8671875,249.203125 406.96875,242.5625 408.8046875,236.078125 411.375,229.75 414.6015625,223.734390258789 418.40625,218.187515258789 422.7890625,213.109375 427.75,208.5 465.5,177 465.5,176.75 465.25,175.90625 464.5,173.875 463.687469482422,171.84375 463.25,171 456.65625,155.843765258789 448.875,141.375 439.96875,127.531272888184 430,114.25 429.75,114.25 382.75,131.25 377.71875,132.78125 372.625,133.875 367.46875,134.53125 362.25,134.75 353.921875,134.234375 345.9375,132.6875 338.296875,130.109375 331,126.5 325.2578125,122.843765258789 320.03125,118.625022888184 315.3203125,113.843765258789 311.125,108.5 307.5234375,102.734390258789 304.59375,96.6875228881836 302.3359375,90.3593902587891 300.75,83.75 292.25,35 274.1875,32.7500228881836 256,32z M256,0L277,0.75 287.4375,1.81250762939453 297.75,3.5 302.765625,4.79687929153442 307.3125,6.68750381469727 311.390625,9.17187690734863 315,12.25 318.078125,15.859375 320.5625,19.9375 322.453125,24.484375 323.75,29.5 328,53.75 332.25,78 333.640625,83.1406326293945 335.8125,87.8125152587891 338.765625,92.0156326293945 342.5,95.75 346.796875,98.8125076293945 351.4375,101.000007629395 356.421875,102.3125 361.75,102.75 366.109375,102.546875 370.4375,101.937507629395 374.734375,100.921882629395 379,99.5 395.875,92.5 412.75,85.5 417.015625,84.0781478881836 421.3125,83.0625305175781 425.640625,82.4531402587891 430,82.25 433.7734375,82.4453277587891 437.34375,83.0312652587891 440.7109375,84.0078277587891 443.875,85.375 449.718719482422,89.1562652587891 455,94.25 458.531219482422,98.6250305175781 462.625,104.25 467.09375,110.812507629395 471.75,118 476.5,125.718757629395 481.25,133.875 485.718719482422,142.125 489.625,150.125 492.90625,157.78125 495.5,165 497.1875,171.437515258789 497.75,176.75 497.46875,181.234390258789 496.625,185.437515258789 495.21875,189.359375 493.25,193 488.21875,199.718765258789 482.125,205.875 475.187469482422,211.59375 467.625,217 460.062469482422,222.40625 453.125,228.125 447.03125,234.187515258789 442,240.625 440.03125,244.070327758789 438.625,247.781265258789 437.78125,251.757827758789 437.5,256 437.78125,260.140625 438.625,264.0625 440.03125,267.765625 442,271.25 447.0625,277.78125 453.25,283.875 460.25,289.65625 467.75,295.25 475.249969482422,300.90625 482.25,306.875 488.437469482422,313.21875 493.5,320 495.468719482422,323.625 496.874969482422,327.5 497.718719482422,331.625 498,336 497.406219482422,341.46875 495.625,347.875 492.90625,355.03125 489.5,362.75 485.46875,370.8125 480.875,379 471.125,394.75 466.3125,401.9375 461.625,408.5 457.34375,414.125 453.75,418.5 448.46875,423.375 442.625,427 436.218719482422,429.25 429.25,430 425.1015625,429.796875 420.90625,429.1875 416.6640625,428.171875 412.375,426.75 395.25,419.625 378.25,412.5 374.03125,411.078125 369.875,410.0625 365.78125,409.453125 361.75,409.25 356.5625,409.53125 352,410.375 348.0625,411.78125 344.75,413.75 339.4375,418.90625 335.5,425.375 332.71875,432.875 330.875,441.125 328,457.75 325.625,470.375 323.25,483 321.9375,488.1171875 320,492.71875 317.4375,496.8046875 314.25,500.375 310.515625,503.3984375 306.3125,505.84375 301.640625,507.7109375 296.5,509 286.46875,510.46875 276.375,511.375 256,512 235,511.25 224.5625,510.1875 214.25,508.5 209.234375,507.1953125 204.6875,505.28125 200.609375,502.7578125 197,499.625 193.921875,495.9609375 191.4375,491.84375 189.546875,487.2734375 188.25,482.25 184,458.125 179.75,434 178.359375,428.859375 176.1875,424.1875 173.234375,419.984375 169.5,416.25 165.203125,413.1875 160.5625,411 155.578125,409.6875 150.25,409.25 145.890625,409.453125 141.5625,410.0625 137.265625,411.078125 133,412.5 116.125,419.5 99.25,426.5 94.984375,427.921875 90.6875,428.9375 86.359375,429.546875 82,429.75 78.328125,429.5546875 74.8125,428.96875 71.453125,427.9921875 68.25,426.625 62.3124961853027,422.84375 57,417.75 53.46875,413.375 49.375,407.75 44.90625,401.1875 40.25,394 35.5,386.28125 30.75,378.125 26.28125,369.875 22.375,361.875 19.09375,354.21875 16.5,347 14.8124990463257,340.5625 14.25,335.25 14.5312490463257,330.8671875 15.3749990463257,326.71875 16.78125,322.8046875 18.75,319.125 23.78125,312.3125 29.875,306.125 36.8125,300.40625 44.375,295 51.9375,289.59375 58.875,283.875 64.96875,277.8125 70,271.375 71.96875,267.9296875 73.375,264.21875 74.21875,260.2421875 74.5,256 74.21875,251.859375 73.375,247.9375 71.96875,244.234375 70,240.75 64.9375,234.21875 58.75,228.125 51.75,222.343765258789 44.25,216.75 36.75,211.09375 29.75,205.125 23.5625,198.781265258789 18.5,192 16.53125,188.375 15.125,184.5 14.28125,180.375 14,176 14.59375,170.875 16.375,164.5 19.09375,157.25 22.5,149.5 26.5312480926514,141.406265258789 31.125,133.125 40.875,117.125 45.65625,109.843765258789 50.25,103.25 54.4374961853027,97.6875076293945 58,93.5 63.34375,88.625 69.375,85 75.96875,82.75 83,82 87.34375,82.203125 91.625,82.8125 95.84375,83.8281326293945 100,85.25 116.5,92.375 133.125,99.5 137.3359375,100.921882629395 141.59375,101.937507629395 145.8984375,102.546875 150.25,102.75 155.6796875,102.3203125 160.71875,101.03125 165.3671875,98.8828201293945 169.625,95.875 173.3046875,92.1797027587891 176.21875,87.9687728881836 178.3671875,83.2422103881836 179.75,78 184.25,53.5 188.75,29 190.0703125,23.9843921661377 192.03125,19.4375228881836 194.6328125,15.3593921661377 197.875,11.75 201.6484375,8.67189407348633 205.84375,6.18752670288086 210.4609375,4.29689645767212 215.5,3 225.5625,1.53127288818359 235.75,0.625 256,0z" />
  </g>
</svg>
