<?xml version="1.0" encoding="utf-8"?>
<svg xmlns="http://www.w3.org/2000/svg" width="16" height="16" viewBox="0 0 2048 2048">
  <g transform="translate(0, 2048) scale(1, -1)">
    <path fill="#ffffff" d="M598 411Q570 411 535.0 398.0Q500 385 463.0 369.5Q426 354 390.5 341.0Q355 328 327 328Q298 328 272.0 341.5Q246 355 228 377Q215 393 197.5 418.0Q180 443 161.0 473.0Q142 503 123.0 535.5Q104 568 89.5 599.5Q75 631 66.0 659.0Q57 687 57 707Q57 735 69.5 762.0Q82 789 104 807L256 932Q276 948 287.0 973.5Q298 999 298 1024Q298 1051 286.5 1075.0Q275 1099 255 1116L103 1245Q57 1283 57 1343Q57 1364 66.5 1392.0Q76 1420 91.0 1451.5Q106 1483 125.0 1515.5Q144 1548 163.5 1578.0Q183 1608 201.5 1633.0Q220 1658 233 1674Q251 1696 277.0 1708.0Q303 1720 332 1720Q362 1720 396.5 1707.0Q431 1694 466.5 1678.5Q502 1663 537.0 1650.0Q572 1637 604 1637Q647 1637 679.0 1666.0Q711 1695 719 1736L755 1932Q763 1975 792.0 2002.0Q821 2029 863 2036Q942 2048 1022 2048Q1064 2048 1106.5 2044.5Q1149 2041 1191 2034Q1233 2027 1260.5 1999.0Q1288 1971 1295 1930L1329 1735Q1337 1693 1369.5 1665.0Q1402 1637 1445 1637Q1476 1637 1512.0 1650.0Q1548 1663 1584.0 1678.0Q1620 1693 1655.0 1706.0Q1690 1719 1720 1719Q1749 1719 1775.5 1706.5Q1802 1694 1820 1671Q1833 1655 1850.5 1630.0Q1868 1605 1887.0 1575.0Q1906 1545 1925.0 1512.5Q1944 1480 1958.5 1448.5Q1973 1417 1982.0 1389.0Q1991 1361 1991 1341Q1991 1304 1973.0 1276.0Q1955 1248 1928.5 1224.5Q1902 1201 1870.5 1180.0Q1839 1159 1812.5 1135.5Q1786 1112 1768.0 1085.5Q1750 1059 1750 1024Q1750 998 1761.5 973.5Q1773 949 1793 932L1946 803Q1968 785 1979.5 758.5Q1991 732 1991 704Q1991 683 1981.5 655.5Q1972 628 1957.0 596.5Q1942 565 1923.0 532.5Q1904 500 1884.5 470.0Q1865 440 1846.5 415.0Q1828 390 1815 374Q1796 352 1771.5 340.0Q1747 328 1718 328Q1694 328 1672 336L1547 382Q1522 391 1498.5 401.0Q1475 411 1447 411Q1404 411 1379.5 392.5Q1355 374 1341.5 345.5Q1328 317 1322.5 282.5Q1317 248 1311 216L1293 116Q1285 74 1256.5 46.0Q1228 18 1186 12Q1105 0 1024 0Q982 0 940.5 2.5Q899 5 857 13Q815 21 788.0 48.5Q761 76 753 118L719 313Q711 358 677.0 384.5Q643 411 598 411ZM1280 1024Q1280 1077 1260.0 1123.5Q1240 1170 1205.5 1205.0Q1171 1240 1124.5 1260.0Q1078 1280 1025 1280Q971 1280 924.5 1260.0Q878 1240 843.0 1205.0Q808 1170 788.0 1123.5Q768 1077 768 1023Q768 970 788.0 923.5Q808 877 843.0 842.5Q878 808 924.5 788.0Q971 768 1024 768Q1077 768 1123.5 788.0Q1170 808 1205.0 843.0Q1240 878 1260.0 924.5Q1280 971 1280 1024Z"/>
  </g>
</svg>