<?xml version="1.0" encoding="utf-8"?>
<svg xmlns="http://www.w3.org/2000/svg" width="16" height="16" viewBox="0 0 2048 2048">
  <g transform="translate(0, 2048) scale(1, -1)">
    <path fill="#ffffff" d="M601 411Q566 411 532 398Q507 388 481 377L448 363Q423 352 397 342Q363 329 328 329Q298 329 273.0 341.5Q248 354 228 377Q215 392 197.5 417.0Q180 442 161.0 472.0Q142 502 123.0 535.5Q104 569 89.5 600.5Q75 632 66.0 660.0Q57 688 57 707Q57 743 75.0 771.5Q93 800 119.5 823.5Q146 847 177.5 868.0Q209 889 235.5 912.5Q262 936 280.0 962.5Q298 989 298 1024Q298 1058 280.0 1085.0Q262 1112 235.0 1135.5Q208 1159 177.0 1181.0Q146 1203 119.0 1227.5Q92 1252 74.0 1280.0Q56 1308 56 1344Q56 1362 65.5 1390.0Q75 1418 90.0 1450.0Q105 1482 124.5 1515.5Q144 1549 163.5 1579.5Q183 1610 201.0 1635.0Q219 1660 232 1674Q252 1696 277.5 1708.0Q303 1720 332 1720Q367 1720 400.0 1707.0Q433 1694 466.0 1678.5Q499 1663 532.5 1650.0Q566 1637 601 1637Q646 1637 678.5 1664.5Q711 1692 719 1736L755 1932Q763 1974 791.5 2001.0Q820 2028 862 2036Q902 2043 943.0 2045.5Q984 2048 1024 2048Q1066 2048 1108.0 2045.0Q1150 2042 1191 2034Q1233 2026 1260.0 1999.0Q1287 1972 1295 1930Q1300 1906 1304 1881L1320 1785Q1325 1761 1329 1736Q1337 1693 1370.0 1665.0Q1403 1637 1447 1637Q1482 1637 1516 1650Q1542 1660 1567 1671L1600 1685Q1626 1696 1651 1706Q1685 1719 1720 1719Q1751 1719 1775.5 1706.5Q1800 1694 1820 1671Q1833 1656 1850.5 1631.0Q1868 1606 1887.0 1576.0Q1906 1546 1925.0 1512.5Q1944 1479 1958.5 1447.5Q1973 1416 1982.0 1388.0Q1991 1360 1991 1341Q1991 1304 1973.0 1276.0Q1955 1248 1928.5 1224.5Q1902 1201 1870.5 1180.0Q1839 1159 1812.5 1135.5Q1786 1112 1768.0 1085.5Q1750 1059 1750 1024Q1750 990 1768.0 963.0Q1786 936 1813.0 912.5Q1840 889 1871.0 867.0Q1902 845 1929.0 820.5Q1956 796 1974.0 768.0Q1992 740 1992 704Q1992 684 1982.5 656.5Q1973 629 1958.0 597.0Q1943 565 1923.5 532.0Q1904 499 1884.5 469.0Q1865 439 1846.5 414.0Q1828 389 1815 374Q1795 352 1770.5 340.0Q1746 328 1717 328Q1684 328 1649.5 341.0Q1615 354 1581.0 369.5Q1547 385 1513.0 398.0Q1479 411 1447 411Q1403 411 1379.0 393.0Q1355 375 1342.0 346.5Q1329 318 1323.5 283.5Q1318 249 1312 217L1293 116Q1285 73 1257.0 46.5Q1229 20 1186 12Q1146 5 1105.5 2.5Q1065 0 1024 0Q982 0 940.0 3.0Q898 6 857 14Q815 22 788.0 49.5Q761 77 753 119Q746 155 740 191L732 240Q726 276 719 312Q711 355 678.0 383.0Q645 411 601 411ZM1167 138Q1171 160 1176.0 192.5Q1181 225 1187.0 259.0Q1193 293 1200.0 324.0Q1207 355 1214 374Q1242 449 1304.0 494.0Q1366 539 1447 539Q1474 539 1509.5 529.5Q1545 520 1582.5 507.0Q1620 494 1655.0 480.0Q1690 466 1717 456Q1764 512 1800.0 574.5Q1836 637 1863 704V705L1710 835Q1668 870 1645.0 919.5Q1622 969 1622 1024Q1622 1079 1645.5 1129.0Q1669 1179 1711 1214L1862 1340V1341Q1862 1342 1858.0 1352.5Q1854 1363 1853 1364Q1829 1426 1795.5 1482.5Q1762 1539 1720 1591H1719L1531 1523Q1491 1509 1449 1509Q1381 1509 1324 1542Q1276 1569 1244.5 1614.0Q1213 1659 1203 1713L1169 1908Q1097 1920 1024 1920Q988 1920 952.0 1917.5Q916 1915 881 1910Q872 1860 864.0 1811.0Q856 1762 845 1713Q836 1669 814.0 1631.5Q792 1594 760.0 1567.0Q728 1540 688.0 1524.5Q648 1509 602 1509Q557 1509 517 1524H516L332 1592H331Q285 1535 248.0 1473.5Q211 1412 185 1344V1343L338 1213Q380 1178 403.0 1128.5Q426 1079 426 1024Q426 969 402.5 919.0Q379 869 337 834L186 708V707Q186 706 190.0 695.5Q194 685 195 684Q219 622 252.5 565.5Q286 509 328 457H329L517 525Q557 539 599 539Q667 539 724 506Q772 479 803.5 434.0Q835 389 845 335L879 140Q951 128 1024 128Q1060 128 1096.0 130.5Q1132 133 1167 138ZM640 1024Q640 1104 670.0 1174.0Q700 1244 752.0 1296.0Q804 1348 874.0 1378.0Q944 1408 1024 1408Q1104 1408 1174.0 1378.0Q1244 1348 1296.0 1296.0Q1348 1244 1378.0 1174.0Q1408 1104 1408 1024Q1408 944 1378.0 874.0Q1348 804 1296.0 752.0Q1244 700 1174.0 670.0Q1104 640 1024 640Q944 640 874.0 670.0Q804 700 752.0 752.0Q700 804 670.0 874.0Q640 944 640 1024ZM1280 1024Q1280 1077 1260.0 1123.5Q1240 1170 1205.0 1205.0Q1170 1240 1123.5 1260.0Q1077 1280 1024 1280Q971 1280 924.5 1260.0Q878 1240 843.0 1205.0Q808 1170 788.0 1123.5Q768 1077 768 1024Q768 971 788.0 924.5Q808 878 843.0 843.0Q878 808 924.5 788.0Q971 768 1024 768Q1077 768 1123.5 788.0Q1170 808 1205.0 843.0Q1240 878 1260.0 924.5Q1280 971 1280 1024Z"/>
  </g>
</svg>