<?xml version="1.0" encoding="utf-8"?>
<svg id="" width="16" height="16" style="width:16px;height:16px;" version="1.1"
    xmlns="http://www.w3.org/2000/svg" viewBox="0 0 2048 2048" enable-background="new 0 0 2048 2048"
    xml:space="preserve"><path fill="#ffffff" transform="translate(0, 30)" d="M1339.79 1400 q-33.93 0 -56.37 -24.09 q-22.44 -24.09 -22.44 -56.91 l0 -293.36 q-35.03 3.29 -70.05 7.12 q-35.03 3.83 -70.06 12.58 q-93.04 21.9 -174.58 52.55 q-81.54 30.64 -156.53 71.69 q-74.99 41.05 -146.13 92.5 q-71.14 51.44 -141.2 113.84 q-12.04 9.86 -25.18 15.88 q-13.13 6.02 -28.45 6.02 q-35.03 0 -58.02 -24.63 q-22.98 -24.63 -22.98 -58.56 l0 -6.57 q25.17 -198.12 88.11 -364.5 q62.94 -166.38 171.31 -287.88 q108.37 -121.5 264.9 -193.75 q156.53 -72.24 368.88 -83.19 l0 -298.82 q0 -32.84 21.89 -56.38 q21.89 -23.54 55.83 -23.54 q33.93 0 55.82 21.89 l630.49 619.55 q12.04 12.04 17.52 27.91 q5.47 15.87 5.47 32.29 q0 32.84 -22.99 55.82 l-630.49 619.55 q-22.98 22.99 -54.73 22.99 ZM342.61 1960.43 q-68.96 0 -131.35 -27.91 q-62.39 -27.91 -108.91 -74.43 q-46.52 -46.52 -74.44 -108.91 q-27.91 -62.39 -27.91 -131.36 l0 -1136.2 q0 -68.96 27.91 -131.35 q27.91 -62.39 74.44 -108.91 q46.53 -46.52 108.91 -74.44 q62.39 -27.92 131.35 -27.92 l427.99 0 q28.46 0 49.25 20.8 q20.79 20.8 20.79 49.26 q0 28.46 -20.79 49.25 q-20.8 20.8 -49.25 20.8 l-420.33 0 q-42.69 0 -81 16.42 q-38.31 16.42 -67.31 45.43 q-29 29.01 -45.42 67.32 q-16.42 38.31 -16.42 81 l0 1120.87 q0 42.69 16.42 81 q16.42 38.31 45.42 67.32 q29.01 29.01 67.31 45.43 q38.31 16.42 81 16.42 l1120.87 0 q42.69 0 81 -16.42 q38.32 -16.42 67.32 -45.43 q29 -29 45.42 -67.32 q16.42 -38.31 16.42 -81 l0 -140.11 q0 -28.46 20.8 -49.25 q20.8 -20.8 49.25 -20.8 q28.46 0 49.26 20.8 q20.8 20.79 20.8 49.25 l0 140.11 q0 70.05 -26.82 133.54 q-26.82 63.49 -73.34 111.65 q-46.52 48.16 -108.91 76.62 q-62.39 28.46 -133.54 28.46 l-1136.2 0 ZM1401.09 1174.51 l482.72 -475.06 l-482.72 -475.06 l0 284.6 l-160.91 10.95 q-142.29 8.75 -271.46 61.29 q-129.17 52.54 -227.68 158.72 q-39.41 42.69 -72.79 93.59 q-33.38 50.9 -59.65 106.73 q-26.27 55.82 -45.43 114.38 q-19.15 58.56 -29 115.48 q148.86 -118.22 318.52 -187.18 q169.67 -68.96 356.85 -94.13 q47.06 -6.57 95.22 -9.31 q48.17 -2.74 96.33 -7.12 l0 302.11 Z"/></svg>