<?xml version="1.0" encoding="utf-8"?>
<svg xmlns="http://www.w3.org/2000/svg" width="16" height="16" viewBox="0 0 2048 2048">
  <g transform="translate(0, 2048) scale(1, -1)">
    <path fill="#000000" d="M1152 448V456Q1152 547 1188.5 627.0Q1225 707 1286.5 767.0Q1348 827 1429.5 861.5Q1511 896 1600 896Q1692 896 1773.5 860.5Q1855 825 1916.0 764.0Q1977 703 2012.5 621.5Q2048 540 2048 448Q2048 356 2012.5 274.5Q1977 193 1916.0 132.0Q1855 71 1773.5 35.5Q1692 0 1600 0Q1508 0 1426.5 35.5Q1345 71 1284.0 132.0Q1223 193 1187.5 274.5Q1152 356 1152 448ZM1600 120Q1630 120 1651 141L1907 397Q1928 418 1928 448Q1928 478 1907 499L1651 755Q1630 776 1600 776Q1570 776 1549.0 755.0Q1528 734 1528 704Q1528 674 1549 653L1690 512H1344Q1318 512 1299.0 493.0Q1280 474 1280 448Q1280 422 1299.0 403.0Q1318 384 1344 384H1690L1549 243Q1528 222 1528 192Q1528 162 1549.0 141.0Q1570 120 1600 120Z"/>
  </g>
</svg>