<?xml version="1.0" encoding="utf-8"?>
<svg xmlns="http://www.w3.org/2000/svg" width="16" height="16" viewBox="0 0 2048 2048">
  <g transform="translate(0, 2048) scale(1, -1)">
    <path fill="#ffffff" d="M128 1088V1664Q128 1692 143.5 1706.0Q159 1720 183 1727Q205 1733 229.0 1735.5Q253 1738 275 1743Q313 1750 350.5 1758.5Q388 1767 426 1778Q504 1800 576.0 1827.0Q648 1854 716.5 1886.0Q785 1918 852.0 1956.0Q919 1994 988 2037Q997 2042 1005.0 2045.0Q1013 2048 1024 2048Q1035 2048 1043.0 2045.0Q1051 2042 1060 2037Q1129 1994 1196.0 1956.0Q1263 1918 1331.5 1886.0Q1400 1854 1472.0 1827.0Q1544 1800 1622 1778Q1660 1767 1697.5 1758.5Q1735 1750 1773 1743Q1795 1738 1819.0 1735.5Q1843 1733 1865 1727Q1889 1720 1904.5 1706.0Q1920 1692 1920 1664V1088Q1920 877 1853.0 707.5Q1786 538 1668.5 405.5Q1551 273 1391.5 174.0Q1232 75 1047 4Q1038 0 1024 0Q1019 0 1012.5 1.0Q1006 2 1001 4Q816 74 656.5 173.5Q497 273 379.5 406.5Q262 540 195.0 709.0Q128 878 128 1088ZM1792 1088V1609Q1587 1644 1393.0 1719.0Q1199 1794 1024 1908Q849 1794 655.0 1719.0Q461 1644 256 1609V1088Q256 901 315.0 752.5Q374 604 477.5 488.0Q581 372 721.0 284.5Q861 197 1024 133Q1187 197 1327.0 284.5Q1467 372 1570.5 488.0Q1674 604 1733.0 752.5Q1792 901 1792 1088Z"/>
  </g>
</svg>