<?xml version="1.0" encoding="utf-8"?>
<svg xmlns="http://www.w3.org/2000/svg" width="16" height="16" viewBox="0 0 2048 2048">
  <g transform="translate(0, 2048) scale(1, -1)">
    <path fill="#ffffff" d="M632 0Q557 0 488.5 30.5Q420 61 368.5 112.5Q317 164 286.5 232.5Q256 301 256 376V1408Q256 1461 293 1498Q331 1536 384 1536H512V1735Q512 1798 537.5 1855.0Q563 1912 605.5 1954.5Q648 1997 705.0 2022.5Q762 2048 825 2048Q879 2048 929.5 2033.0Q980 2018 1024 1984Q1068 2018 1118.5 2033.0Q1169 2048 1223 2048Q1287 2048 1343.5 2023.0Q1400 1998 1442.0 1955.0Q1484 1912 1509.0 1855.0Q1534 1798 1536 1735Q1537 1718 1537.0 1702.0Q1537 1686 1537 1669Q1537 1635 1536.5 1602.0Q1536 1569 1536 1536H1664Q1690 1536 1713.0 1526.0Q1736 1516 1754 1498Q1772 1480 1782.0 1457.0Q1792 1434 1792 1408V313Q1792 250 1766.5 193.0Q1741 136 1698.5 93.5Q1656 51 1599.0 25.5Q1542 0 1479 0ZM640 1536H1024V1728Q1024 1767 1009.0 1802.0Q994 1837 967.5 1863.5Q941 1890 906.0 1905.0Q871 1920 832 1920Q793 1920 758.0 1905.0Q723 1890 696.5 1863.5Q670 1837 655.0 1802.0Q640 1767 640 1728ZM1152 1536H1408V1728Q1408 1767 1393.0 1802.0Q1378 1837 1351.5 1863.5Q1325 1890 1290.0 1905.0Q1255 1920 1216 1920Q1187 1920 1160.0 1911.5Q1133 1903 1109 1888Q1152 1813 1152 1728ZM1216 128Q1184 170 1168.0 219.0Q1152 268 1152 320V1408H384V379Q384 329 404.5 283.5Q425 238 459.5 203.5Q494 169 539.5 148.5Q585 128 635 128ZM1664 320V1408H1280V320Q1280 281 1295.0 246.0Q1310 211 1336.5 184.5Q1363 158 1398.0 143.0Q1433 128 1472 128Q1511 128 1546.0 143.0Q1581 158 1607.5 184.5Q1634 211 1649.0 246.0Q1664 281 1664 320Z"/>
  </g>
</svg>