<?xml version="1.0" encoding="utf-8"?>
<svg id="" width="16" height="16" style="width:16px;height:16px;" version="1.1" xmlns="http://www.w3.org/2000/svg" viewBox="0 0 2048 2048" enable-background="new 0 0 2048 2048" xml:space="preserve">
    <path fill="#000" d="M798.86 1462.86 q-49.15 0 -94.29 -15.43 q-45.14 -15.43 -81.71 -42.86 q-36.57 -27.43 -64 -66.29 q-27.43 -38.86 -41.15 -86.86 l-293.71 -1025.14 q-8 -28.58 -23.43 -44.58 q-15.43 -16 -35.43 -24 q-20 -8 -43.42 -9.71 q-23.42 -1.71 -48.58 -1.71 q-29.71 0 -51.42 -21.72 q-21.71 -21.71 -21.71 -51.43 q0 -27.43 10.86 -42.28 q10.86 -14.86 28 -21.71 q17.14 -6.85 38.29 -8 q21.14 -1.15 40.56 -1.15 q42.29 0 81.72 13.71 q39.43 13.71 72 38.28 q32.57 24.57 56.57 58.28 q24 33.72 36.57 74.85 l30.86 107.43 l1506.28 0 q29.72 0 56.58 11.43 q26.86 11.43 46.86 31.43 q20 20 31.43 46.85 q11.43 26.86 11.43 56.58 q0 19.43 -5.71 40 l-220.58 771.43 q-13.71 46.85 -41.14 85.71 q-27.43 38.86 -64.57 67.43 q-37.14 28.57 -82.29 44 q-45.14 15.43 -93.14 15.43 l-741.71 0 ZM1540.57 1316.57 q49.14 0 88 -29.14 q38.86 -29.14 52.57 -77.14 l220.57 -771.43 l-1465.14 0 l221.72 771.43 q13.71 48 52.57 77.14 q38.86 29.14 88 29.14 l741.71 0 ZM585.14 1828.57 q0 -44.57 17.14 -84.57 q17.14 -40 47.43 -70.28 q30.29 -30.29 70.29 -47.43 q40 -17.14 84.57 -17.14 q44.57 0 84.57 17.14 q40 17.14 70.28 47.43 q30.29 30.28 47.43 70.28 q17.14 40 17.14 84.57 q0 44.57 -17.14 84.57 q-17.14 40 -47.43 70.29 q-30.28 30.28 -70.28 47.43 q-40 17.14 -84.57 17.14 q-44.57 0 -84.57 -17.14 q-40 -17.14 -70.29 -47.43 q-30.28 -30.29 -47.43 -70.29 q-17.14 -40 -17.14 -84.57 ZM1316.57 1828.57 q0 -44.57 17.14 -84.57 q17.14 -40 47.43 -70.28 q30.29 -30.29 70.29 -47.43 q40 -17.14 84.57 -17.14 q44.57 0 84.57 17.14 q40 17.14 70.29 47.43 q30.29 30.28 47.43 70.28 q17.14 40 17.14 84.57 q0 44.57 -17.14 84.57 q-17.14 40 -47.43 70.29 q-30.29 30.28 -70.29 47.43 q-40 17.14 -84.57 17.14 q-44.57 0 -84.57 -17.14 q-40 -17.14 -70.29 -47.43 q-30.29 -30.29 -47.43 -70.29 q-17.14 -40 -17.14 -84.57 ZM877.71 1828.57 q0 -29.71 -21.71 -51.42 q-21.71 -21.71 -51.43 -21.71 q-29.71 0 -51.43 21.71 q-21.72 21.71 -21.72 51.42 q0 29.72 21.72 51.43 q21.72 21.71 51.43 21.71 q29.72 0 51.43 -21.71 q21.71 -21.71 21.71 -51.43 ZM1609.14 1828.57 q0 -29.71 -21.71 -51.42 q-21.72 -21.71 -51.43 -21.71 q-29.71 0 -51.43 21.71 q-21.71 21.71 -21.71 51.42 q0 29.72 21.71 51.43 q21.72 21.71 51.43 21.71 q29.71 0 51.43 -21.71 q21.71 -21.71 21.71 -51.43 Z"/>
</svg>