<?xml version="1.0" encoding="utf-8"?>
<svg xmlns="http://www.w3.org/2000/svg" width="16" height="16" viewBox="0 0 2048 2048">
  <g transform="translate(0, 2048) scale(1, -1)">
    <path fill="#ffffff" d="M0 1728Q0 1755 10.0 1778.0Q20 1801 37.5 1818.5Q55 1836 78.0 1846.0Q101 1856 128 1856Q154 1856 177.5 1846.0Q201 1836 218.5 1818.5Q236 1801 246.0 1777.5Q256 1754 256 1728Q256 1701 246.0 1678.0Q236 1655 218.5 1637.5Q201 1620 178.0 1610.0Q155 1600 128 1600Q101 1600 77.5 1610.0Q54 1620 37.0 1637.0Q20 1654 10.0 1677.5Q0 1701 0 1728ZM576 1664Q550 1664 531.0 1683.0Q512 1702 512 1728Q512 1754 531.0 1773.0Q550 1792 576 1792H1984Q2010 1792 2029.0 1773.0Q2048 1754 2048 1728Q2048 1702 2029.0 1683.0Q2010 1664 1984 1664ZM576 1280Q550 1280 531.0 1299.0Q512 1318 512 1344Q512 1370 531.0 1389.0Q550 1408 576 1408H1984Q2010 1408 2029.0 1389.0Q2048 1370 2048 1344Q2048 1318 2029.0 1299.0Q2010 1280 1984 1280ZM0 704Q0 731 10.0 754.0Q20 777 37.5 794.5Q55 812 78.0 822.0Q101 832 128 832Q154 832 177.5 822.0Q201 812 218.5 794.5Q236 777 246.0 753.5Q256 730 256 704Q256 677 246.0 654.0Q236 631 218.5 613.5Q201 596 178.0 586.0Q155 576 128 576Q101 576 77.5 586.0Q54 596 37.0 613.0Q20 630 10.0 653.5Q0 677 0 704ZM576 640Q550 640 531.0 659.0Q512 678 512 704Q512 730 531.0 749.0Q550 768 576 768H1984Q2010 768 2029.0 749.0Q2048 730 2048 704Q2048 678 2029.0 659.0Q2010 640 1984 640ZM576 256Q550 256 531.0 275.0Q512 294 512 320Q512 346 531.0 365.0Q550 384 576 384H1984Q2010 384 2029.0 365.0Q2048 346 2048 320Q2048 294 2029.0 275.0Q2010 256 1984 256Z"/>
  </g>
</svg>