<?xml version="1.0" encoding="utf-8"?>
<svg xmlns="http://www.w3.org/2000/svg" width="16" height="16" viewBox="0 0 2048 2048">
  <g transform="translate(0, 2048) scale(1, -1)">
    <path fill="#ffffff" d="M832 1536Q806 1536 787.0 1555.0Q768 1574 768 1600Q768 1626 787.0 1645.0Q806 1664 832 1664H1984Q2010 1664 2029.0 1645.0Q2048 1626 2048 1600Q2048 1574 2029.0 1555.0Q2010 1536 1984 1536ZM0 1600Q0 1626 19.0 1645.0Q38 1664 64 1664Q90 1664 109 1645L320 1435L531 1645Q550 1664 576 1664Q602 1664 621.0 1645.0Q640 1626 640 1600Q640 1574 621 1555L365 1299Q346 1280 320 1280Q294 1280 275 1299L19 1555Q0 1574 0 1600ZM832 1024Q806 1024 787.0 1043.0Q768 1062 768 1088Q768 1114 787.0 1133.0Q806 1152 832 1152H1984Q2010 1152 2029.0 1133.0Q2048 1114 2048 1088Q2048 1062 2029.0 1043.0Q2010 1024 1984 1024ZM832 512Q806 512 787.0 531.0Q768 550 768 576Q768 602 787.0 621.0Q806 640 832 640H1984Q2010 640 2029.0 621.0Q2048 602 2048 576Q2048 550 2029.0 531.0Q2010 512 1984 512Z"/>
  </g>
</svg>