<?xml version="1.0" encoding="utf-8"?>
<svg xmlns="http://www.w3.org/2000/svg" width="16" height="16" viewBox="0 0 2048 2048">
  <g transform="translate(0, 2048) scale(1, -1)">
    <path fill="#000000" d="M1792 1728Q1792 1755 1802.0 1778.0Q1812 1801 1829.5 1818.5Q1847 1836 1870.0 1846.0Q1893 1856 1920 1856Q1946 1856 1969.5 1846.0Q1993 1836 2010.5 1818.5Q2028 1801 2038.0 1777.5Q2048 1754 2048 1728Q2048 1701 2038.0 1678.0Q2028 1655 2010.5 1637.5Q1993 1620 1970.0 1610.0Q1947 1600 1920 1600Q1893 1600 1869.5 1610.0Q1846 1620 1829.0 1637.0Q1812 1654 1802.0 1677.5Q1792 1701 1792 1728ZM64 1664Q38 1664 19.0 1683.0Q0 1702 0 1728Q0 1754 19.0 1773.0Q38 1792 64 1792H1472Q1498 1792 1517.0 1773.0Q1536 1754 1536 1728Q1536 1702 1517.0 1683.0Q1498 1664 1472 1664ZM64 1280Q38 1280 19.0 1299.0Q0 1318 0 1344Q0 1370 19.0 1389.0Q38 1408 64 1408H1472Q1498 1408 1517.0 1389.0Q1536 1370 1536 1344Q1536 1318 1517.0 1299.0Q1498 1280 1472 1280ZM1792 704Q1792 731 1802.0 754.0Q1812 777 1829.5 794.5Q1847 812 1870.0 822.0Q1893 832 1920 832Q1946 832 1969.5 822.0Q1993 812 2010.5 794.5Q2028 777 2038.0 753.5Q2048 730 2048 704Q2048 677 2038.0 654.0Q2028 631 2010.5 613.5Q1993 596 1970.0 586.0Q1947 576 1920 576Q1893 576 1869.5 586.0Q1846 596 1829.0 613.0Q1812 630 1802.0 653.5Q1792 677 1792 704ZM64 640Q38 640 19.0 659.0Q0 678 0 704Q0 730 19.0 749.0Q38 768 64 768H1472Q1498 768 1517.0 749.0Q1536 730 1536 704Q1536 678 1517.0 659.0Q1498 640 1472 640ZM64 256Q38 256 19.0 275.0Q0 294 0 320Q0 346 19.0 365.0Q38 384 64 384H1472Q1498 384 1517.0 365.0Q1536 346 1536 320Q1536 294 1517.0 275.0Q1498 256 1472 256Z"/>
  </g>
</svg>