<?xml version="1.0" encoding="utf-8"?>
<svg xmlns="http://www.w3.org/2000/svg" width="16" height="16" viewBox="0 0 2048 2048">
  <g transform="translate(0, 2048) scale(1, -1)">
    <path fill="#ffffff" d="M1829 1407Q1724 1404 1622.0 1383.0Q1520 1362 1421 1326Q1300 1281 1198.0 1207.0Q1096 1133 1005 1043Q916 955 823.0 875.5Q730 796 624 730Q568 695 499.0 656.5Q430 618 355.5 586.0Q281 554 206.0 533.0Q131 512 64 512Q38 512 19.0 531.0Q0 550 0 576Q0 602 19.0 621.0Q38 640 64 640Q111 640 158.0 652.0Q205 664 249 680Q323 706 396.0 744.0Q469 782 539.0 827.0Q609 872 674.5 922.5Q740 973 799 1024Q706 1105 606.0 1176.0Q506 1247 395 1303Q361 1320 319.5 1338.5Q278 1357 234.0 1372.5Q190 1388 146.0 1398.0Q102 1408 64 1408Q38 1408 19.0 1427.0Q0 1446 0 1472Q0 1498 19.0 1517.0Q38 1536 64 1536Q131 1536 204.5 1516.5Q278 1497 354.0 1464.5Q430 1432 505.5 1389.0Q581 1346 651.0 1298.5Q721 1251 782.5 1202.5Q844 1154 893 1111Q945 1164 1001.0 1213.5Q1057 1263 1117.0 1306.5Q1177 1350 1242.0 1385.5Q1307 1421 1378 1447Q1487 1486 1601.0 1509.0Q1715 1532 1831 1535L1683 1683Q1664 1702 1664 1728Q1664 1754 1683.0 1773.0Q1702 1792 1728 1792Q1754 1792 1773 1773L2029 1517Q2048 1498 2048 1472Q2048 1446 2029 1427L1773 1171Q1754 1152 1728 1152Q1702 1152 1683.0 1171.0Q1664 1190 1664 1216Q1664 1242 1683 1261ZM2048 576Q2048 550 2029 531L1773 275Q1754 256 1728 256Q1702 256 1683.0 275.0Q1664 294 1664 320Q1664 346 1683 365L1831 513Q1712 516 1602.5 536.0Q1493 556 1392.0 595.0Q1291 634 1196.0 692.0Q1101 750 1010 827Q1034 849 1057.5 870.5Q1081 892 1104 915Q1185 847 1269.0 797.0Q1353 747 1442.0 713.5Q1531 680 1627.5 662.5Q1724 645 1829 641L1683 787Q1664 806 1664 832Q1664 858 1683.0 877.0Q1702 896 1728 896Q1754 896 1773 877L2029 621Q2048 602 2048 576Z"/>
  </g>
</svg>