<?xml version="1.0" encoding="utf-8"?>
<svg xmlns="http://www.w3.org/2000/svg" width="16" height="16" viewBox="0 0 2048 2048">
  <g transform="translate(0, 2048) scale(1, -1)">
    <path fill="#000000" d="M128 329V1719Q128 1743 143.0 1760.5Q158 1778 182 1782L1078 1919Q1082 1920 1089 1920Q1116 1920 1134.0 1901.5Q1152 1883 1152 1856V1152H1814L1686 1264Q1664 1283 1664 1312Q1664 1338 1683.0 1357.0Q1702 1376 1728 1376Q1752 1376 1771 1360L2026 1136Q2048 1116 2048 1088Q2048 1059 2026 1040L1771 816Q1752 800 1728 800Q1702 800 1683.0 819.0Q1664 838 1664 864Q1664 892 1686 912L1814 1024H1152V192Q1152 166 1134.5 147.0Q1117 128 1090 128Q1082 128 1078 129L182 266Q158 270 143.0 287.5Q128 305 128 329ZM1280 1280V1792H1344Q1370 1792 1389.0 1773.0Q1408 1754 1408 1728V1280ZM256 384 1024 266V1781L256 1664ZM736 960Q736 1000 764.0 1028.0Q792 1056 832 1056Q872 1056 900.0 1028.0Q928 1000 928 960Q928 920 900.0 892.0Q872 864 832 864Q792 864 764.0 892.0Q736 920 736 960ZM1280 256V896H1408V320Q1408 294 1389.0 275.0Q1370 256 1344 256Z"/>
  </g>
</svg>