<?xml version="1.0" encoding="utf-8"?>
<svg xmlns="http://www.w3.org/2000/svg" width="16" height="16" viewBox="0 0 2048 2048">
  <g transform="translate(0, 2048) scale(1, -1)">
    <path fill="#000000" d="M640 838Q674 857 706.0 878.0Q738 899 768 924V320Q768 294 749.0 275.0Q730 256 704 256Q678 256 659.0 275.0Q640 294 640 320ZM384 704V320Q384 294 365.0 275.0Q346 256 320 256Q294 256 275.0 275.0Q256 294 256 320V704Q256 730 275.0 749.0Q294 768 320 768Q346 768 365.0 749.0Q384 730 384 704Z"/>
  </g>
</svg>