<?xml version="1.0" encoding="utf-8"?>
<svg xmlns="http://www.w3.org/2000/svg" width="16" height="16" viewBox="0 0 2048 2048">
  <g transform="translate(0, 2048) scale(1, -1)">
    <path fill="#ffffff" d="M1792 320V1728Q1792 1754 1811.0 1773.0Q1830 1792 1856 1792Q1882 1792 1901.0 1773.0Q1920 1754 1920 1728V320Q1920 294 1901.0 275.0Q1882 256 1856 256Q1830 256 1811.0 275.0Q1792 294 1792 320ZM1408 320V1472Q1408 1498 1427.0 1517.0Q1446 1536 1472 1536Q1498 1536 1517.0 1517.0Q1536 1498 1536 1472V320Q1536 294 1517.0 275.0Q1498 256 1472 256Q1446 256 1427.0 275.0Q1408 294 1408 320ZM1024 320V1216Q1024 1242 1043.0 1261.0Q1062 1280 1088 1280Q1114 1280 1133.0 1261.0Q1152 1242 1152 1216V320Q1152 294 1133.0 275.0Q1114 256 1088 256Q1062 256 1043.0 275.0Q1024 294 1024 320ZM640 320V960Q640 986 659.0 1005.0Q678 1024 704 1024Q730 1024 749.0 1005.0Q768 986 768 960V320Q768 294 749.0 275.0Q730 256 704 256Q678 256 659.0 275.0Q640 294 640 320ZM256 320V704Q256 730 275.0 749.0Q294 768 320 768Q346 768 365.0 749.0Q384 730 384 704V320Q384 294 365.0 275.0Q346 256 320 256Q294 256 275.0 275.0Q256 294 256 320Z"/>
  </g>
</svg>