<?xml version="1.0" encoding="utf-8"?>
<svg xmlns="http://www.w3.org/2000/svg" width="16" height="16" viewBox="0 0 2048 2048">
  <g transform="translate(0, 2048) scale(1, -1)">
    <path fill="#000000" d="M2048 576Q2048 457 2002.5 352.0Q1957 247 1879.0 169.0Q1801 91 1696.0 45.5Q1591 0 1472 0Q1352 0 1247.0 45.0Q1142 90 1064.0 168.0Q986 246 941.0 351.0Q896 456 896 576Q896 695 941.5 800.0Q987 905 1065.0 983.0Q1143 1061 1248.0 1106.5Q1353 1152 1472 1152Q1551 1152 1624.5 1131.5Q1698 1111 1762.0 1073.5Q1826 1036 1879.0 983.0Q1932 930 1969.5 866.0Q2007 802 2027.5 728.5Q2048 655 2048 576ZM1114 308 1740 934Q1679 981 1610.0 1002.5Q1541 1024 1464 1024Q1376 1024 1296.5 988.0Q1217 952 1156.5 891.5Q1096 831 1060.0 751.5Q1024 672 1024 584Q1024 507 1045.5 438.0Q1067 369 1114 308ZM1830 844 1204 218Q1265 171 1334.0 149.5Q1403 128 1480 128Q1568 128 1647.5 164.0Q1727 200 1787.5 260.5Q1848 321 1884.0 400.5Q1920 480 1920 568Q1920 645 1898.5 714.0Q1877 783 1830 844Z"/>
  </g>
</svg>