<?xml version="1.0" encoding="utf-8"?>
<svg xmlns="http://www.w3.org/2000/svg" width="16" height="16" viewBox="0 0 2048 2048">
  <g transform="translate(0, 2048) scale(1, -1)">
    <path fill="#000000" d="M1856 1792Q1895 1792 1930.0 1777.0Q1965 1762 1991.5 1735.5Q2018 1709 2033.0 1674.0Q2048 1639 2048 1600V558Q2048 492 2010.0 443.0Q1972 394 1909 375Q1809 345 1697.0 323.0Q1585 301 1470.5 286.0Q1356 271 1242.0 264.0Q1128 257 1024 257Q920 257 806.0 264.0Q692 271 577.5 286.0Q463 301 351.0 323.0Q239 345 139 375Q76 394 38.0 443.0Q0 492 0 558V1600Q0 1639 15.0 1674.0Q30 1709 56.5 1735.5Q83 1762 118.0 1777.0Q153 1792 192 1792ZM192 1664Q166 1664 147.0 1645.0Q128 1626 128 1600V1536H1920V1600Q1920 1626 1901.0 1645.0Q1882 1664 1856 1664ZM1920 640H1883L1755 768H1920V1408H128V768H1317L1445 640H128V558Q128 535 140.0 520.5Q152 506 173 498Q205 486 245.0 478.5Q285 471 320 463Q494 425 669.5 405.0Q845 385 1024 385Q1203 385 1378.5 405.0Q1554 425 1729 463Q1763 471 1803.0 478.5Q1843 486 1875 498Q1905 509 1913.5 532.5Q1922 556 1922 583Q1922 594 1921 604V619Q1920 630 1920 640ZM1024 1088Q1024 1062 1005.0 1043.0Q986 1024 960 1024H704Q678 1024 659 1043L594 1108L505 931Q495 911 478.0 903.5Q461 896 441 896Q421 896 406.0 911.5Q391 927 386 945L362 1040Q343 1024 320 1024Q293 1024 274.5 1042.5Q256 1061 256 1088Q256 1103 263 1117L327 1245Q335 1262 351.5 1271.0Q368 1280 386 1280Q409 1280 425.0 1267.0Q441 1254 446 1232L468 1143L519 1245Q527 1261 542.5 1270.5Q558 1280 576 1280Q602 1280 621 1261L731 1152H960Q986 1152 1005.0 1133.0Q1024 1114 1024 1088ZM1792 576Q1792 550 1773.0 531.0Q1754 512 1728 512Q1702 512 1683 531L1171 1043Q1152 1062 1152 1088Q1152 1114 1171.0 1133.0Q1190 1152 1216 1152Q1242 1152 1261 1133L1773 621Q1792 602 1792 576Z"/>
  </g>
</svg>