<?xml version="1.0" encoding="utf-8"?>
<svg xmlns="http://www.w3.org/2000/svg" width="16" height="16" viewBox="0 0 2048 2048">
  <g transform="translate(0, 2048) scale(1, -1)">
    <path fill="#000000" d="M1536 1472V1268Q1498 1251 1469.0 1220.5Q1440 1190 1408 1164V1472Q1408 1498 1427.0 1517.0Q1446 1536 1472 1536Q1498 1536 1517.0 1517.0Q1536 1498 1536 1472ZM1152 1082Q1125 1075 1101.5 1059.0Q1078 1043 1061.0 1021.0Q1044 999 1034.5 972.5Q1025 946 1024 918V1216Q1024 1242 1043.0 1261.0Q1062 1280 1088 1280Q1114 1280 1133.0 1261.0Q1152 1242 1152 1216ZM768 320Q768 294 749.0 275.0Q730 256 704 256Q678 256 659.0 275.0Q640 294 640 320V960Q640 986 659.0 1005.0Q678 1024 704 1024Q730 1024 749.0 1005.0Q768 986 768 960ZM384 320Q384 294 365.0 275.0Q346 256 320 256Q294 256 275.0 275.0Q256 294 256 320V704Q256 730 275.0 749.0Q294 768 320 768Q346 768 365.0 749.0Q384 730 384 704ZM1024 320 1025 588Q1028 502 1045.5 418.5Q1063 335 1101 257Q1098 256 1094.5 256.0Q1091 256 1088 256Q1062 256 1043.0 275.0Q1024 294 1024 320Z"/>
  </g>
</svg>