<?xml version="1.0" encoding="utf-8"?>
<svg xmlns="http://www.w3.org/2000/svg" width="16" height="16" viewBox="0 0 2048 2048">
  <g transform="translate(0, 2048) scale(1, -1)">
    <path fill="#000000" d="M128 379Q128 327 149.0 281.5Q170 236 205.0 202.0Q240 168 286.5 148.0Q333 128 384 128H1152V0H376Q301 0 232.5 30.5Q164 61 112.5 112.5Q61 164 30.5 232.5Q0 301 0 376V1672Q0 1747 30.5 1815.5Q61 1884 112.5 1935.5Q164 1987 232.5 2017.5Q301 2048 376 2048H827Q903 2048 974.0 2019.0Q1045 1990 1099 1936L1424 1611Q1478 1557 1507.0 1486.0Q1536 1415 1536 1339V1130Q1464 1104 1408 1054V1339Q1408 1390 1388.5 1437.0Q1369 1484 1333 1520L1008 1845Q972 1881 925.0 1900.5Q878 1920 827 1920H379Q329 1920 283.5 1899.5Q238 1879 203.5 1844.5Q169 1810 148.5 1764.5Q128 1719 128 1669ZM960 1152Q999 1152 1034.0 1137.0Q1069 1122 1095.5 1095.5Q1122 1069 1137.0 1034.0Q1152 999 1152 960V566Q1152 528 1135.5 495.0Q1119 462 1092.0 437.5Q1065 413 1030.5 398.5Q996 384 960 384H576Q537 384 502.0 399.0Q467 414 440.5 440.5Q414 467 399.0 502.0Q384 537 384 576V960Q384 999 399.0 1034.0Q414 1069 440.5 1095.5Q467 1122 502.0 1137.0Q537 1152 576 1152ZM768 896V1024H576Q550 1024 531.0 1005.0Q512 986 512 960V896ZM1024 960Q1024 986 1005.0 1005.0Q986 1024 960 1024H896V512H960Q986 512 1005.0 531.0Q1024 550 1024 576ZM2048 576V64Q2048 38 2029.0 19.0Q2010 0 1984 0H1344Q1317 0 1298.5 18.5Q1280 37 1280 64V576Q1280 598 1288.5 610.5Q1297 623 1310.5 629.5Q1324 636 1341.0 638.0Q1358 640 1375 640H1408Q1408 658 1407 676V700Q1406 718 1406 736Q1406 769 1410.0 802.0Q1414 835 1427 866Q1442 902 1466.5 931.0Q1491 960 1522.0 980.5Q1553 1001 1589.5 1012.5Q1626 1024 1664 1024Q1717 1024 1763.5 1004.0Q1810 984 1845.0 949.0Q1880 914 1900.0 867.5Q1920 821 1920 768V640H1949Q1967 640 1984.5 638.5Q2002 637 2016.0 630.5Q2030 624 2039.0 611.0Q2048 598 2048 576ZM1536 640H1792V768Q1792 795 1782.0 818.0Q1772 841 1754.5 858.5Q1737 876 1714.0 886.0Q1691 896 1664 896Q1637 896 1614.0 886.0Q1591 876 1573.5 858.5Q1556 841 1546.0 818.0Q1536 795 1536 768ZM768 512V768H512V576Q512 550 531.0 531.0Q550 512 576 512ZM1792 320Q1792 346 1782.0 369.5Q1772 393 1754.5 410.5Q1737 428 1713.5 438.0Q1690 448 1664 448Q1637 448 1614.0 438.0Q1591 428 1573.5 410.5Q1556 393 1546.0 370.0Q1536 347 1536 320Q1536 293 1546.0 269.5Q1556 246 1573.0 229.0Q1590 212 1613.5 202.0Q1637 192 1664 192Q1690 192 1713.5 202.0Q1737 212 1754.5 229.5Q1772 247 1782.0 270.5Q1792 294 1792 320Z"/>
  </g>
</svg>