<?xml version="1.0" encoding="utf-8"?>
<svg xmlns="http://www.w3.org/2000/svg" width="16" height="16" viewBox="0 0 2048 2048">
  <g transform="translate(0, 2048) scale(1, -1)">
    <path fill="#000000" d="M1024 1830 749 1555Q730 1536 704 1536Q678 1536 659.0 1555.0Q640 1574 640 1600Q640 1626 659 1645L979 1965Q998 1984 1024 1984Q1050 1984 1069 1965L1389 1645Q1408 1626 1408 1600Q1408 1574 1389.0 1555.0Q1370 1536 1344 1536Q1318 1536 1299 1555ZM640 1024V1032Q640 1110 671.0 1178.5Q702 1247 755.0 1298.0Q808 1349 877.5 1378.5Q947 1408 1024 1408Q1104 1408 1174.0 1378.0Q1244 1348 1296.0 1296.0Q1348 1244 1378.0 1174.0Q1408 1104 1408 1024Q1408 944 1378.0 874.0Q1348 804 1296.0 752.0Q1244 700 1174.0 670.0Q1104 640 1024 640Q944 640 874.0 670.0Q804 700 752.0 752.0Q700 804 670.0 874.0Q640 944 640 1024ZM64 1024Q64 1050 83 1069L403 1389Q422 1408 448 1408Q474 1408 493.0 1389.0Q512 1370 512 1344Q512 1318 493 1299L219 1024L493 749Q512 730 512 704Q512 678 493.0 659.0Q474 640 448 640Q422 640 403 659L83 979Q64 998 64 1024ZM1536 704Q1536 730 1555 749L1830 1024L1555 1299Q1536 1318 1536 1344Q1536 1370 1555.0 1389.0Q1574 1408 1600 1408Q1626 1408 1645 1389L1965 1069Q1984 1050 1984 1024Q1984 998 1965 979L1645 659Q1626 640 1600 640Q1574 640 1555.0 659.0Q1536 678 1536 704ZM1280 1024V1029Q1280 1081 1259.0 1126.5Q1238 1172 1203.0 1206.0Q1168 1240 1121.5 1260.0Q1075 1280 1024 1280Q971 1280 924.5 1259.5Q878 1239 843.5 1204.5Q809 1170 788.5 1123.0Q768 1076 768 1024Q768 971 788.5 924.5Q809 878 843.5 843.5Q878 809 924.5 788.5Q971 768 1024 768Q1076 768 1123.0 788.5Q1170 809 1204.5 843.5Q1239 878 1259.5 924.5Q1280 971 1280 1024ZM640 448Q640 474 659.0 493.0Q678 512 704 512Q730 512 749 493L1024 219L1299 493Q1318 512 1344 512Q1370 512 1389.0 493.0Q1408 474 1408 448Q1408 422 1389 403L1069 83Q1050 64 1024 64Q998 64 979 83L659 403Q640 422 640 448Z"/>
  </g>
</svg>