<?xml version="1.0" encoding="utf-8"?>
<svg xmlns="http://www.w3.org/2000/svg" width="16" height="16" viewBox="0 0 2048 2048">
  <g transform="translate(0, 2048) scale(1, -1)">
    <path fill="#000000" d="M251 256Q201 256 155.5 276.5Q110 297 75.5 331.5Q41 366 20.5 411.5Q0 457 0 507V1541Q0 1591 20.5 1636.5Q41 1682 75.5 1716.5Q110 1751 155.5 1771.5Q201 1792 251 1792H1797Q1847 1792 1892.5 1771.5Q1938 1751 1972.5 1716.5Q2007 1682 2027.5 1636.5Q2048 1591 2048 1541V507Q2048 457 2027.5 411.5Q2007 366 1972.5 331.5Q1938 297 1892.5 276.5Q1847 256 1797 256ZM1792 384Q1819 384 1842.0 394.0Q1865 404 1882.5 421.5Q1900 439 1910.0 462.0Q1920 485 1920 512V1536Q1920 1562 1910.0 1585.5Q1900 1609 1882.5 1626.5Q1865 1644 1841.5 1654.0Q1818 1664 1792 1664H256Q229 1664 206.0 1654.0Q183 1644 165.5 1626.5Q148 1609 138.0 1586.0Q128 1563 128 1536V512Q128 485 138.0 461.5Q148 438 165.0 421.0Q182 404 205.5 394.0Q229 384 256 384ZM448 640Q422 640 403.0 659.0Q384 678 384 704V1088Q384 1114 403.0 1133.0Q422 1152 448 1152H1600Q1626 1152 1645.0 1133.0Q1664 1114 1664 1088V704Q1664 678 1645.0 659.0Q1626 640 1600 640ZM512 1024V768H1536V1024Z"/>
  </g>
</svg>