<?xml version="1.0" encoding="utf-8"?>
<svg xmlns="http://www.w3.org/2000/svg" width="16" height="16" viewBox="0 0 2048 2048">
  <g transform="translate(0, 2048) scale(1, -1)">
    <path fill="#000000" d="M1921 1856V1344Q1921 1318 1902.0 1299.0Q1883 1280 1857 1280H1345Q1319 1280 1300.0 1299.0Q1281 1318 1281 1344Q1281 1370 1300.0 1389.0Q1319 1408 1345 1408H1760Q1698 1498 1616.5 1569.0Q1535 1640 1440.0 1689.5Q1345 1739 1239.5 1765.5Q1134 1792 1025 1792Q937 1792 851.0 1775.5Q765 1759 684 1725Q562 1674 461.5 1592.5Q361 1511 286 1402Q268 1376 253.5 1348.5Q239 1321 222 1294Q212 1278 198.5 1268.5Q185 1259 165 1259Q139 1259 120.0 1277.0Q101 1295 101 1322Q101 1337 108 1351Q171 1481 268.0 1586.5Q365 1692 485.0 1766.0Q605 1840 742.5 1880.0Q880 1920 1024 1920Q1135 1920 1241.5 1897.0Q1348 1874 1446.0 1829.5Q1544 1785 1632.0 1720.5Q1720 1656 1793 1573V1856Q1793 1882 1812.0 1901.0Q1831 1920 1857 1920Q1883 1920 1902.0 1901.0Q1921 1882 1921 1856ZM1028 389Q1028 325 1000.0 276.5Q972 228 927.0 195.0Q882 162 825.0 145.0Q768 128 711 128H699Q667 128 625.0 136.5Q583 145 540.5 160.0Q498 175 461.0 196.0Q424 217 403 243Q394 254 389.0 263.5Q384 273 384 288Q384 314 403.0 333.0Q422 352 448 352Q463 352 472.5 347.5Q482 343 493 333Q537 292 591.0 274.0Q645 256 704 256Q733 256 767.5 263.5Q802 271 831.5 286.5Q861 302 880.5 327.5Q900 353 900 389Q900 425 880.0 448.5Q860 472 830.0 486.5Q800 501 766.0 506.5Q732 512 704 512Q678 512 659.0 531.0Q640 550 640 576Q640 602 659.0 621.0Q678 640 704 640Q733 640 767.0 647.0Q801 654 830.0 670.0Q859 686 878.0 711.0Q897 736 897 772Q897 808 877.5 832.0Q858 856 828.5 870.0Q799 884 765.5 890.0Q732 896 704 896Q647 896 591.0 876.0Q535 856 493 818Q482 809 472.0 804.5Q462 800 448 800Q422 800 403.0 819.0Q384 838 384 864Q384 878 389.0 888.0Q394 898 403 909Q426 935 462.5 956.5Q499 978 540.5 993.0Q582 1008 624.0 1016.0Q666 1024 699 1024Q757 1024 815.0 1009.5Q873 995 919.5 964.5Q966 934 995.5 886.5Q1025 839 1025 772Q1025 714 998.0 664.0Q971 614 925 579Q973 541 1000.5 496.5Q1028 452 1028 389ZM1792 576Q1792 534 1788.5 485.5Q1785 437 1774.5 389.0Q1764 341 1745.0 297.5Q1726 254 1694 223Q1647 178 1592.5 153.0Q1538 128 1472 128Q1406 128 1351.0 153.0Q1296 178 1249 223Q1217 254 1198.0 297.5Q1179 341 1168.5 389.0Q1158 437 1155.0 486.0Q1152 535 1152 576Q1152 617 1155.0 666.0Q1158 715 1168.5 763.0Q1179 811 1198.0 854.5Q1217 898 1249 929Q1296 974 1351.0 999.0Q1406 1024 1472 1024Q1538 1024 1592.5 999.0Q1647 974 1694 929Q1726 898 1745.0 854.5Q1764 811 1774.5 763.0Q1785 715 1788.5 666.5Q1792 618 1792 576ZM1664 576Q1664 601 1662.5 629.5Q1661 658 1657.5 686.5Q1654 715 1647.0 742.0Q1640 769 1629 792Q1617 816 1599.0 842.0Q1581 868 1555 879Q1515 896 1472 896Q1407 896 1368.5 864.5Q1330 833 1310.5 785.5Q1291 738 1285.5 682.0Q1280 626 1280 576Q1280 526 1285.5 470.0Q1291 414 1310.5 366.5Q1330 319 1368.5 287.5Q1407 256 1472 256Q1493 256 1514.0 260.0Q1535 264 1555 272Q1581 283 1599.0 309.5Q1617 336 1629 360Q1640 383 1647.0 410.0Q1654 437 1657.5 465.5Q1661 494 1662.5 522.5Q1664 551 1664 576Z"/>
  </g>
</svg>