<?xml version="1.0" encoding="utf-8"?>
<svg xmlns="http://www.w3.org/2000/svg" width="16" height="16" viewBox="0 0 2048 2048">
  <g transform="translate(0, 2048) scale(1, -1)">
    <path fill="#ffffff" d="M1947 1323Q1947 1296 1928.5 1277.5Q1910 1259 1883 1259Q1863 1259 1849.5 1268.5Q1836 1278 1826 1294Q1809 1321 1794.5 1348.5Q1780 1376 1762 1402Q1687 1511 1586.5 1592.5Q1486 1674 1364 1725Q1283 1759 1197.0 1775.5Q1111 1792 1023 1792Q913 1792 808.0 1765.5Q703 1739 608.0 1689.5Q513 1640 431.5 1569.0Q350 1498 288 1408H704Q730 1408 749.0 1389.0Q768 1370 768 1344Q768 1318 749.0 1299.0Q730 1280 704 1280H192Q166 1280 147.0 1299.0Q128 1318 128 1344V1856Q128 1882 147.0 1901.0Q166 1920 192 1920Q218 1920 237.0 1901.0Q256 1882 256 1856V1573Q329 1656 416.5 1720.5Q504 1785 602.5 1829.5Q701 1874 807.0 1897.0Q913 1920 1024 1920Q1166 1920 1304.0 1880.0Q1442 1840 1563.5 1765.5Q1685 1691 1782.5 1586.0Q1880 1481 1941 1351Q1947 1337 1947 1323ZM768 960V192Q768 166 749.0 147.0Q730 128 704 128Q678 128 659.0 147.0Q640 166 640 192V840L548 779Q531 768 512 768Q486 768 467.0 787.0Q448 806 448 832Q448 866 477 885L669 1013Q686 1024 705 1024Q731 1024 749.5 1005.0Q768 986 768 960ZM1664 576Q1664 534 1660.5 485.5Q1657 437 1646.5 389.0Q1636 341 1617.0 297.5Q1598 254 1566 223Q1519 178 1464.5 153.0Q1410 128 1344 128Q1278 128 1223.0 153.0Q1168 178 1121 223Q1089 254 1070.0 297.5Q1051 341 1040.5 389.0Q1030 437 1027.0 486.0Q1024 535 1024 576Q1024 617 1027.0 666.0Q1030 715 1040.5 763.0Q1051 811 1070.0 854.5Q1089 898 1121 929Q1168 974 1223.0 999.0Q1278 1024 1344 1024Q1410 1024 1464.5 999.0Q1519 974 1566 929Q1598 898 1617.0 854.5Q1636 811 1646.5 763.0Q1657 715 1660.5 666.5Q1664 618 1664 576ZM1536 576Q1536 601 1534.5 629.5Q1533 658 1529.5 686.5Q1526 715 1519.0 742.0Q1512 769 1501 792Q1489 816 1471.0 842.0Q1453 868 1427 879Q1387 896 1344 896Q1279 896 1240.5 864.5Q1202 833 1182.5 785.5Q1163 738 1157.5 682.0Q1152 626 1152 576Q1152 526 1157.5 470.0Q1163 414 1182.5 366.5Q1202 319 1240.5 287.5Q1279 256 1344 256Q1365 256 1386.0 260.0Q1407 264 1427 272Q1453 283 1471.0 309.5Q1489 336 1501 360Q1512 383 1519.0 410.0Q1526 437 1529.5 465.5Q1533 494 1534.5 522.5Q1536 551 1536 576Z"/>
  </g>
</svg>