<?xml version="1.0" encoding="utf-8"?>
<svg id="" width="16" height="16" style="width:16px;height:16px;" version="1.1" xmlns="http://www.w3.org/2000/svg" viewBox="0 0 2048 2048" enable-background="new 0 0 2048 2048" xml:space="preserve">
    <path fill="#ffffff" d="M2048 672.16 q0 30.4 -20.83 51.23 q-20.83 20.83 -51.23 20.83 q-22.52 0 -37.72 -10.7 q-15.19 -10.7 -26.45 -28.71 q-19.14 -30.4 -35.46 -61.36 q-16.33 -30.96 -36.6 -60.24 q-84.44 -122.72 -197.6 -214.48 q-113.15 -91.76 -250.52 -149.18 q-91.19 -38.28 -188.02 -56.86 q-96.83 -18.58 -195.91 -18.58 q-123.84 0 -242.06 29.84 q-118.22 29.84 -225.18 85.57 q-106.96 55.73 -198.72 135.67 q-91.76 79.94 -161.57 181.27 l468.37 0 q29.28 0 50.67 21.39 q21.39 21.39 21.39 50.66 q0 29.28 -21.39 50.67 q-21.39 21.39 -50.67 21.39 l-576.45 0 q-29.28 0 -50.67 -21.39 q-21.39 -21.39 -21.39 -50.67 l0 -576.45 q0 -29.28 21.39 -50.67 q21.39 -21.39 50.67 -21.39 q29.27 0 50.66 21.39 q21.39 21.39 21.39 50.67 l0 318.62 q82.19 -93.44 180.71 -166.06 q98.52 -72.62 209.42 -122.73 q110.9 -50.1 230.25 -76 q119.35 -25.89 244.31 -25.89 q159.88 0 315.25 45.03 q155.37 45.03 292.17 128.91 q136.8 83.88 246.58 202.1 q109.77 118.22 178.44 264.58 q6.76 15.77 6.76 31.53 ZM720.57 1080.86 l0 864.68 q0 29.28 -21.39 50.67 q-21.39 21.39 -50.67 21.39 q-29.27 0 -50.66 -21.39 q-21.39 -21.39 -21.39 -50.67 l0 -729.58 l-103.58 68.68 q-19.14 12.39 -40.54 12.39 q-29.27 0 -50.66 -21.39 q-21.39 -21.39 -21.39 -50.67 q0 -38.28 32.65 -59.67 l216.17 -144.11 q19.14 -12.39 40.53 -12.39 q29.27 0 50.1 21.39 q20.83 21.39 20.83 50.67 ZM1729.37 1513.2 q0 47.29 -3.94 101.89 q-3.94 54.61 -15.76 108.65 q-11.82 54.05 -33.22 103.02 q-21.39 48.98 -57.42 83.88 q-52.91 50.67 -114.27 78.81 q-61.36 28.14 -135.67 28.14 q-74.31 0 -136.23 -28.14 q-61.92 -28.14 -114.85 -78.81 q-36.03 -34.9 -57.42 -83.88 q-21.39 -48.97 -33.21 -103.02 q-11.82 -54.04 -15.2 -109.21 q-3.38 -55.17 -3.38 -101.33 q0 -46.16 3.38 -101.33 q3.38 -55.17 15.2 -109.21 q11.82 -54.04 33.21 -103.02 q21.39 -48.98 57.42 -83.88 q52.92 -50.66 114.85 -78.81 q61.92 -28.15 136.23 -28.15 q74.31 0 135.67 28.15 q61.36 28.15 114.27 78.81 q36.03 34.9 57.42 83.88 q21.39 48.98 33.22 103.02 q11.82 54.04 15.76 108.65 q3.94 54.61 3.94 101.89 ZM1585.26 1513.2 q0 -28.15 -1.69 -60.23 q-1.69 -32.09 -5.63 -64.18 q-3.94 -32.09 -11.82 -62.49 q-7.88 -30.4 -20.27 -56.29 q-13.51 -27.02 -33.78 -56.29 q-20.26 -29.28 -49.53 -41.67 q-45.04 -19.14 -93.45 -19.14 q-73.19 0 -116.53 35.47 q-43.35 35.47 -65.3 88.95 q-21.96 53.48 -28.15 116.53 q-6.19 63.05 -6.19 119.34 q0 56.3 6.19 119.35 q6.19 63.05 28.15 116.53 q21.95 53.48 65.3 88.95 q43.35 35.46 116.53 35.46 q23.64 0 47.29 -4.5 q23.64 -4.51 46.16 -13.52 q29.27 -12.38 49.53 -42.21 q20.27 -29.84 33.78 -56.87 q12.39 -25.89 20.27 -56.29 q7.88 -30.4 11.82 -62.49 q3.94 -32.09 5.63 -64.18 q1.69 -32.09 1.69 -60.23 Z"/>
</svg>