<?xml version="1.0" encoding="utf-8"?>
<svg id="" width="16" height="16" style="width:16px;height:16px;" version="1.1" xmlns="http://www.w3.org/2000/svg" viewBox="0 0 2048 2048" enable-background="new 0 0 2048 2048" xml:space="preserve">
    <path fill="#000" d="M2048 72.02 l0 576.14 q0 29.26 -21.38 50.64 q-21.38 21.38 -50.64 21.38 l-576.14 0 q-29.26 0 -50.64 -21.38 q-21.38 -21.38 -21.38 -50.64 q0 -29.26 21.38 -50.64 q21.38 -21.38 50.64 -21.38 l466.99 0 q-69.77 -101.27 -161.48 -181.16 q-91.71 -79.9 -198.61 -135.6 q-106.9 -55.71 -225.62 -85.52 q-118.71 -29.81 -241.38 -29.81 q-99.02 0 -195.8 18.56 q-96.77 18.56 -187.91 56.83 q-137.29 57.39 -250.38 149.1 q-113.09 91.71 -197.48 214.36 q-20.26 29.26 -36.58 60.21 q-16.31 30.94 -35.44 61.32 q-11.25 18.01 -26.44 28.7 q-15.2 10.69 -37.7 10.69 q-29.26 0 -50.64 -20.25 q-21.38 -20.25 -21.38 -50.64 q0 -16.87 7.88 -32.63 q70.89 -146.28 180.04 -265 q109.15 -118.72 244.19 -201.99 q135.03 -83.27 289.76 -128.28 q154.73 -45.01 316.77 -45.01 q124.9 0 244.74 25.88 q119.85 25.88 230.12 75.95 q110.28 50.08 209.3 122.66 q99.02 72.58 181.16 165.98 l0 -318.45 q0 -29.26 21.38 -50.64 q21.38 -21.38 50.63 -21.38 q29.26 0 50.64 21.38 q21.38 21.38 21.38 50.64 ZM1043.13 1722.8 q0 72.01 -31.51 126.59 q-31.51 54.58 -82.15 91.71 q-50.63 37.13 -114.77 56.27 q-64.14 19.13 -128.28 19.13 l-13.51 0 q-36 0 -83.26 -9.57 q-47.26 -9.57 -95.09 -26.44 q-47.82 -16.88 -89.46 -40.51 q-41.64 -23.63 -65.27 -52.88 q-10.12 -12.38 -15.75 -23.07 q-5.63 -10.69 -5.63 -27.57 q0 -29.26 21.38 -50.64 q21.38 -21.38 50.64 -21.38 q16.88 0 27.57 5.06 q10.69 5.07 23.07 16.32 q49.51 46.14 110.27 66.39 q60.76 20.26 127.15 20.26 q32.63 0 71.46 -8.44 q38.83 -8.44 72.02 -25.88 q33.19 -17.44 55.13 -46.13 q21.94 -28.69 21.94 -69.2 q0 -40.51 -22.5 -66.95 q-22.5 -26.44 -56.26 -42.77 q-33.75 -16.32 -72.02 -22.5 q-38.26 -6.18 -69.77 -6.18 q-29.26 0 -50.64 -21.38 q-21.38 -21.38 -21.38 -50.64 q0 -29.26 21.38 -50.64 q21.38 -21.38 50.64 -21.38 q32.63 0 70.89 -7.88 q38.26 -7.88 70.89 -25.88 q32.63 -18 54.01 -46.13 q21.38 -28.13 21.38 -68.64 q0 -40.51 -21.94 -67.52 q-21.95 -27.01 -55.14 -42.77 q-33.19 -15.75 -70.89 -22.5 q-37.7 -6.75 -69.21 -6.75 q-64.14 0 -127.15 22.5 q-63.01 22.51 -110.27 65.27 q-12.38 10.13 -23.63 15.19 q-11.25 5.07 -27 5.07 q-29.26 0 -50.64 -21.38 q-21.38 -21.38 -21.38 -50.64 q0 -15.75 5.63 -27.01 q5.63 -11.25 15.75 -23.63 q25.88 -29.25 66.95 -53.45 q41.08 -24.19 87.78 -41.07 q46.7 -16.88 93.96 -25.88 q47.26 -9 84.39 -9 q65.27 0 130.53 16.32 q65.27 16.32 117.59 50.63 q52.32 34.32 85.52 87.77 q33.19 53.45 33.19 128.85 q0 65.26 -30.38 121.52 q-30.38 56.27 -82.14 95.65 q54.01 42.76 84.96 92.84 q30.95 50.08 30.95 120.97 ZM1902.84 1512.37 q0 47.26 -3.94 101.84 q-3.94 54.58 -15.76 108.59 q-11.82 54.01 -33.2 102.96 q-21.38 48.95 -57.39 83.83 q-52.89 50.64 -114.21 78.77 q-61.33 28.13 -135.6 28.13 q-74.27 0 -136.16 -28.13 q-61.89 -28.13 -114.77 -78.77 q-36.01 -34.88 -57.39 -83.83 q-21.38 -48.95 -33.19 -102.96 q-11.82 -54.02 -15.2 -109.15 q-3.38 -55.13 -3.38 -101.28 q0 -46.14 3.38 -101.27 q3.38 -55.13 15.2 -109.15 q11.81 -54.02 33.19 -102.97 q21.38 -48.95 57.39 -83.83 q52.88 -50.64 114.77 -78.77 q61.89 -28.13 136.16 -28.13 q74.27 0 135.6 28.13 q61.33 28.13 114.21 78.77 q36.01 34.88 57.39 83.83 q21.38 48.95 33.2 102.97 q11.82 54.01 15.76 108.59 q3.94 54.58 3.94 101.84 ZM1758.8 1512.37 q0 -28.13 -1.68 -60.2 q-1.68 -32.07 -5.63 -64.14 q-3.94 -32.07 -11.82 -62.45 q-7.88 -30.38 -20.25 -56.27 q-13.5 -27.01 -33.76 -56.26 q-20.25 -29.26 -49.51 -41.63 q-45.01 -19.13 -93.4 -19.13 q-73.14 0 -116.47 35.44 q-43.32 35.45 -65.26 88.89 q-21.94 53.45 -28.13 116.47 q-6.19 63.02 -6.19 119.28 q0 56.26 6.19 119.28 q6.19 63.02 28.13 116.47 q21.94 53.45 65.26 88.9 q43.33 35.45 116.47 35.45 q23.63 0 47.26 -4.51 q23.63 -4.5 46.14 -13.5 q29.26 -12.38 49.51 -42.19 q20.26 -29.82 33.76 -56.83 q12.38 -25.88 20.25 -56.27 q7.88 -30.38 11.82 -62.45 q3.94 -32.07 5.63 -64.14 q1.68 -32.07 1.68 -60.2 Z"/>
</svg>