<?xml version="1.0" encoding="utf-8"?>
<svg xmlns="http://www.w3.org/2000/svg" width="16" height="16" viewBox="0 0 2048 2048">
  <g transform="translate(0, 2048) scale(1, -1)">
    <path fill="#000000" d="M512 1546Q512 1650 553.5 1741.5Q595 1833 665.5 1901.0Q736 1969 828.5 2008.5Q921 2048 1024 2048Q1127 2048 1219.5 2008.5Q1312 1969 1382.5 1901.0Q1453 1833 1494.5 1741.5Q1536 1650 1536 1546V502Q1536 398 1494.5 306.5Q1453 215 1382.5 147.0Q1312 79 1219.5 39.5Q1127 0 1024 0Q921 0 828.5 39.5Q736 79 665.5 147.0Q595 215 553.5 306.5Q512 398 512 502Z"/>
  </g>
</svg>