<?xml version="1.0" encoding="utf-8"?>
<svg xmlns="http://www.w3.org/2000/svg" width="16" height="16" viewBox="0 0 2048 2048">
  <g transform="translate(0, 2048) scale(1, -1)">
    <path fill="#ffffff" d="M376 128Q301 128 232.5 158.5Q164 189 112.5 240.5Q61 292 30.5 360.5Q0 429 0 504V1544Q0 1619 30.5 1687.5Q61 1756 112.5 1807.5Q164 1859 232.5 1889.5Q301 1920 376 1920H1672Q1747 1920 1815.5 1889.5Q1884 1859 1935.5 1807.5Q1987 1756 2017.5 1687.5Q2048 1619 2048 1544V504Q2048 429 2017.5 360.5Q1987 292 1935.5 240.5Q1884 189 1815.5 158.5Q1747 128 1672 128ZM1669 256Q1719 256 1764.5 276.5Q1810 297 1844.5 331.5Q1879 366 1899.5 411.5Q1920 457 1920 507V1541Q1920 1591 1899.5 1636.5Q1879 1682 1844.5 1716.5Q1810 1751 1764.5 1771.5Q1719 1792 1669 1792H379Q329 1792 283.5 1771.5Q238 1751 203.5 1716.5Q169 1682 148.5 1636.5Q128 1591 128 1541V507Q128 457 148.5 411.5Q169 366 203.5 331.5Q238 297 283.5 276.5Q329 256 379 256ZM640 738V1310Q640 1343 652.5 1372.5Q665 1402 686.5 1423.5Q708 1445 737.5 1458.0Q767 1471 800 1471Q840 1471 877 1451L1402 1164Q1440 1143 1462.5 1105.5Q1485 1068 1485 1024Q1485 980 1462.5 942.5Q1440 905 1402 884L877 597Q842 578 800 578Q767 578 737.5 590.5Q708 603 686.5 624.5Q665 646 652.5 675.5Q640 705 640 738ZM1357 1024Q1357 1035 1352.5 1040.5Q1348 1046 1340 1052Q1332 1058 1304.5 1073.5Q1277 1089 1238.5 1110.0Q1200 1131 1153.0 1156.5Q1106 1182 1058.0 1208.0Q1010 1234 964.5 1258.0Q919 1282 883.5 1301.0Q848 1320 825.0 1331.0Q802 1342 800 1342Q786 1342 777.0 1333.0Q768 1324 768 1310V738Q768 724 777.0 715.0Q786 706 800 706Q802 706 825.0 717.0Q848 728 883.5 747.0Q919 766 964.5 790.0Q1010 814 1058.0 840.0Q1106 866 1153.0 891.5Q1200 917 1238.5 938.0Q1277 959 1304.5 974.5Q1332 990 1340 996Q1348 1002 1352.5 1007.5Q1357 1013 1357 1024Z"/>
  </g>
</svg>