<?xml version="1.0" encoding="utf-8"?>
<svg xmlns="http://www.w3.org/2000/svg" width="16" height="16" viewBox="0 0 2048 2048">
  <g transform="translate(0, 2048) scale(1, -1)">
    <path fill="#ffffff" d="M265 382Q230 382 199.5 395.0Q169 408 146.0 430.5Q123 453 110.0 483.5Q97 514 97 549Q97 571 104.5 597.5Q112 624 123.0 651.5Q134 679 146.0 705.0Q158 731 166 751Q125 778 94.0 816.5Q63 855 42.0 899.0Q21 943 10.5 991.5Q0 1040 0 1088Q0 1114 19.0 1133.0Q38 1152 64 1152H291L324 1261Q358 1374 405.0 1471.0Q452 1568 520.5 1639.5Q589 1711 683.5 1751.5Q778 1792 909 1792Q1036 1792 1132.5 1754.0Q1229 1716 1301.0 1647.5Q1373 1579 1424.0 1485.0Q1475 1391 1511 1280H1782Q1833 1280 1881.0 1260.5Q1929 1241 1966.0 1207.0Q2003 1173 2025.5 1127.0Q2048 1081 2048 1029V929Q2048 895 2033.5 865.5Q2019 836 1995.5 814.5Q1972 793 1941.0 780.5Q1910 768 1877 768H1659Q1668 748 1681.0 719.5Q1694 691 1706.0 660.5Q1718 630 1727.0 601.0Q1736 572 1736 550Q1736 499 1708.0 456.5Q1680 414 1632 395Q1616 389 1600.5 385.5Q1585 382 1568 382H1383Q1333 382 1292.5 408.0Q1252 434 1231 479L1171 607Q1045 589 917 589Q790 589 664 607L604 479Q583 434 542.0 408.0Q501 382 452 382ZM325 822Q468 770 617.0 743.5Q766 717 918 717Q1070 717 1218.5 743.5Q1367 770 1510 822Q1496 873 1481 923L1423 1123Q1409 1174 1394 1224Q1367 1317 1327.5 1397.0Q1288 1477 1230.0 1536.5Q1172 1596 1093.5 1630.0Q1015 1664 909 1664Q801 1664 726.0 1629.5Q651 1595 598.0 1535.5Q545 1476 509.5 1395.5Q474 1315 446 1224ZM1877 896Q1890 896 1905.0 905.0Q1920 914 1920 929V1024Q1920 1052 1907.5 1076.0Q1895 1100 1875.0 1116.5Q1855 1133 1829.5 1142.5Q1804 1152 1777 1152H1548L1622 896ZM252 1024H134Q142 983 160.0 946.5Q178 910 209 881ZM452 510Q476 510 488 533L533 629Q405 656 284 701Q280 692 270.5 670.0Q261 648 251.0 623.5Q241 599 233.0 578.0Q225 557 225 550Q225 533 236.5 521.5Q248 510 265 510ZM1568 510Q1585 510 1596.5 522.5Q1608 535 1608 551Q1608 557 1600.0 578.0Q1592 599 1582.0 623.5Q1572 648 1562.0 670.0Q1552 692 1549 700Q1488 678 1426.0 660.5Q1364 643 1301 630L1347 533Q1358 510 1383 510Z"/>
  </g>
</svg>