<?xml version="1.0" encoding="utf-8"?>
<svg xmlns="http://www.w3.org/2000/svg" width="16" height="16" viewBox="0 0 2048 2048">
  <g transform="translate(0, 2048) scale(1, -1)">
    <path fill="#ffffff" d="M832 640Q793 640 758.0 655.0Q723 670 696.5 696.5Q670 723 655.0 758.0Q640 793 640 832V1216Q640 1255 655.0 1290.0Q670 1325 696.5 1351.5Q723 1378 758.0 1393.0Q793 1408 832 1408H1216Q1255 1408 1290.0 1393.0Q1325 1378 1351.5 1351.5Q1378 1325 1393.0 1290.0Q1408 1255 1408 1216V832Q1408 793 1393.0 758.0Q1378 723 1351.5 696.5Q1325 670 1290.0 655.0Q1255 640 1216 640ZM1216 768Q1242 768 1261.0 787.0Q1280 806 1280 832V1216Q1280 1242 1261.0 1261.0Q1242 1280 1216 1280H832Q806 1280 787.0 1261.0Q768 1242 768 1216V832Q768 806 787.0 787.0Q806 768 832 768Z"/>
  </g>
</svg>