<?xml version="1.0" encoding="utf-8"?>
<svg xmlns="http://www.w3.org/2000/svg" width="16" height="16" viewBox="0 0 2048 2048">
  <g transform="translate(0, 2048) scale(1, -1)">
    <path fill="#000000" d="M1664 1664H1669Q1719 1664 1764.5 1643.5Q1810 1623 1844.5 1588.5Q1879 1554 1899.5 1508.5Q1920 1463 1920 1413V635Q1920 586 1900.0 540.5Q1880 495 1845.5 460.5Q1811 426 1766.0 405.0Q1721 384 1672 384H1664V350Q1664 333 1662.0 316.5Q1660 300 1653.5 286.5Q1647 273 1634.5 264.5Q1622 256 1600 256Q1578 256 1565.0 264.5Q1552 273 1545.5 286.5Q1539 300 1537.0 316.5Q1535 333 1535 350Q1535 359 1535.5 367.5Q1536 376 1536 384H1408V350Q1408 333 1406.0 316.5Q1404 300 1397.5 286.5Q1391 273 1378.5 264.5Q1366 256 1344 256Q1322 256 1309.0 264.5Q1296 273 1289.5 286.5Q1283 300 1281.0 316.5Q1279 333 1279 350Q1279 359 1279.5 367.5Q1280 376 1280 384H1152V350Q1152 333 1150.0 316.5Q1148 300 1141.5 286.5Q1135 273 1122.5 264.5Q1110 256 1088 256Q1066 256 1053.0 264.5Q1040 273 1033.5 286.5Q1027 300 1025.0 316.5Q1023 333 1023 350Q1023 359 1023.5 367.5Q1024 376 1024 384H896V350Q896 333 894.0 316.5Q892 300 885.5 286.5Q879 273 866.5 264.5Q854 256 832 256Q810 256 797.0 264.5Q784 273 777.5 286.5Q771 300 769.0 316.5Q767 333 767 350Q767 359 767.5 367.5Q768 376 768 384H640V350Q640 333 638.0 316.5Q636 300 629.5 286.5Q623 273 610.5 264.5Q598 256 576 256Q554 256 541.0 264.5Q528 273 521.5 286.5Q515 300 513.0 316.5Q511 333 511 350Q511 359 511.5 367.5Q512 376 512 384H384V350Q384 333 382.0 316.5Q380 300 373.5 286.5Q367 273 354.5 264.5Q342 256 320 256Q298 256 285.0 264.5Q272 273 265.5 286.5Q259 300 257.0 316.5Q255 333 255 350Q255 359 255.5 367.5Q256 376 256 384H251Q201 384 155.5 404.5Q110 425 75.5 459.5Q41 494 20.5 539.5Q0 585 0 635V1413Q0 1462 20.0 1507.0Q40 1552 74.5 1587.0Q109 1622 153.5 1643.0Q198 1664 248 1664H256Q256 1672 255.5 1680.5Q255 1689 255 1698Q255 1715 257.0 1731.5Q259 1748 265.5 1761.5Q272 1775 285.0 1783.5Q298 1792 320 1792Q342 1792 354.5 1783.5Q367 1775 373.5 1761.5Q380 1748 382.0 1731.5Q384 1715 384 1698V1664H512Q512 1672 511.5 1680.5Q511 1689 511 1698Q511 1715 513.0 1731.5Q515 1748 521.5 1761.5Q528 1775 541.0 1783.5Q554 1792 576 1792Q598 1792 610.5 1783.5Q623 1775 629.5 1761.5Q636 1748 638.0 1731.5Q640 1715 640 1698V1664H768Q768 1672 767.5 1680.5Q767 1689 767 1698Q767 1715 769.0 1731.5Q771 1748 777.5 1761.5Q784 1775 797.0 1783.5Q810 1792 832 1792Q854 1792 866.5 1783.5Q879 1775 885.5 1761.5Q892 1748 894.0 1731.5Q896 1715 896 1698V1664H1024Q1024 1672 1023.5 1680.5Q1023 1689 1023 1698Q1023 1715 1025.0 1731.5Q1027 1748 1033.5 1761.5Q1040 1775 1053.0 1783.5Q1066 1792 1088 1792Q1110 1792 1122.5 1783.5Q1135 1775 1141.5 1761.5Q1148 1748 1150.0 1731.5Q1152 1715 1152 1698V1664H1280Q1280 1672 1279.5 1680.5Q1279 1689 1279 1698Q1279 1715 1281.0 1731.5Q1283 1748 1289.5 1761.5Q1296 1775 1309.0 1783.5Q1322 1792 1344 1792Q1366 1792 1378.5 1783.5Q1391 1775 1397.5 1761.5Q1404 1748 1406.0 1731.5Q1408 1715 1408 1698V1664H1536Q1536 1672 1535.5 1680.5Q1535 1689 1535 1698Q1535 1715 1537.0 1731.5Q1539 1748 1545.5 1761.5Q1552 1775 1565.0 1783.5Q1578 1792 1600 1792Q1622 1792 1634.5 1783.5Q1647 1775 1653.5 1761.5Q1660 1748 1662.0 1731.5Q1664 1715 1664 1698ZM1792 1408Q1792 1434 1782.0 1457.5Q1772 1481 1754.5 1498.5Q1737 1516 1713.5 1526.0Q1690 1536 1664 1536H256Q229 1536 206.0 1526.0Q183 1516 165.5 1498.5Q148 1481 138.0 1458.0Q128 1435 128 1408V640Q128 613 138.0 589.5Q148 566 165.0 549.0Q182 532 205.5 522.0Q229 512 256 512H1664Q1691 512 1714.0 522.0Q1737 532 1754.5 549.5Q1772 567 1782.0 590.0Q1792 613 1792 640ZM1600 1408Q1626 1408 1645.0 1389.0Q1664 1370 1664 1344V704Q1664 678 1645.0 659.0Q1626 640 1600 640H320Q294 640 275.0 659.0Q256 678 256 704V1344Q256 1370 275.0 1389.0Q294 1408 320 1408ZM384 768H1536V1280H384Z"/>
  </g>
</svg>