<?xml version="1.0" encoding="utf-8"?>
<svg xmlns="http://www.w3.org/2000/svg" width="16" height="16" viewBox="0 0 2048 2048">
  <g transform="translate(0, 2048) scale(1, -1)">
    <path fill="#000000" d="M1672 1792Q1747 1792 1815.5 1761.5Q1884 1731 1935.5 1679.5Q1987 1628 2017.5 1559.5Q2048 1491 2048 1416V632Q2048 557 2017.5 488.5Q1987 420 1935.5 368.5Q1884 317 1815.5 286.5Q1747 256 1672 256H376Q301 256 232.5 286.5Q164 317 112.5 368.5Q61 420 30.5 488.5Q0 557 0 632V1416Q0 1491 30.5 1559.5Q61 1628 112.5 1679.5Q164 1731 232.5 1761.5Q301 1792 376 1792ZM1920 1413Q1920 1463 1899.5 1508.5Q1879 1554 1844.5 1588.5Q1810 1623 1764.5 1643.5Q1719 1664 1669 1664H379Q329 1664 283.5 1643.5Q238 1623 203.5 1588.5Q169 1554 148.5 1508.5Q128 1463 128 1413V635Q128 585 148.5 539.5Q169 494 203.5 459.5Q238 425 283.5 404.5Q329 384 379 384H1669Q1719 384 1764.5 404.5Q1810 425 1844.5 459.5Q1879 494 1899.5 539.5Q1920 585 1920 635ZM1472 1408Q1511 1408 1546.0 1393.0Q1581 1378 1607.5 1351.5Q1634 1325 1649.0 1290.0Q1664 1255 1664 1216V832Q1664 793 1649.0 758.0Q1634 723 1607.5 696.5Q1581 670 1546.0 655.0Q1511 640 1472 640H1088Q1049 640 1014.0 655.0Q979 670 952.5 696.5Q926 723 911.0 758.0Q896 793 896 832V1216Q896 1255 911.0 1290.0Q926 1325 952.5 1351.5Q979 1378 1014.0 1393.0Q1049 1408 1088 1408ZM1088 1280Q1062 1280 1043.0 1261.0Q1024 1242 1024 1216V1152H1536V1216Q1536 1242 1517.0 1261.0Q1498 1280 1472 1280ZM1024 832Q1024 806 1043.0 787.0Q1062 768 1088 768H1152V1024H1024ZM1472 768Q1498 768 1517.0 787.0Q1536 806 1536 832V1024H1280V768Z"/>
  </g>
</svg>