<?xml version="1.0" encoding="utf-8"?>
<svg xmlns="http://www.w3.org/2000/svg" width="16" height="16" viewBox="0 0 2048 2048">
  <g transform="translate(0, 2048) scale(1, -1)">
    <path fill="#000000" d="M1544 1920Q1619 1920 1687.5 1889.5Q1756 1859 1807.5 1807.5Q1859 1756 1889.5 1687.5Q1920 1619 1920 1544V504Q1920 429 1889.5 360.5Q1859 292 1807.5 240.5Q1756 189 1687.5 158.5Q1619 128 1544 128H504Q429 128 360.5 158.5Q292 189 240.5 240.5Q189 292 158.5 360.5Q128 429 128 504V1544Q128 1619 158.5 1687.5Q189 1756 240.5 1807.5Q292 1859 360.5 1889.5Q429 1920 504 1920ZM507 1792Q457 1792 411.5 1771.5Q366 1751 331.5 1716.5Q297 1682 276.5 1636.5Q256 1591 256 1541V1536H1792V1541Q1792 1591 1771.5 1636.5Q1751 1682 1716.5 1716.5Q1682 1751 1636.5 1771.5Q1591 1792 1541 1792ZM1541 256Q1591 256 1636.5 276.5Q1682 297 1716.5 331.5Q1751 366 1771.5 411.5Q1792 457 1792 507V1408H256V507Q256 457 276.5 411.5Q297 366 331.5 331.5Q366 297 411.5 276.5Q457 256 507 256ZM1408 448Q1408 422 1389.0 403.0Q1370 384 1344 384Q1318 384 1299 403L1119 583Q1067 546 1009.0 529.0Q951 512 888 512Q810 512 741.5 543.0Q673 574 622.0 627.0Q571 680 541.5 749.5Q512 819 512 896Q512 976 542.0 1046.0Q572 1116 624.0 1168.0Q676 1220 746.0 1250.0Q816 1280 896 1280Q973 1280 1042.5 1250.5Q1112 1221 1165.0 1170.0Q1218 1119 1249.0 1050.5Q1280 982 1280 904Q1280 841 1263.0 783.0Q1246 725 1209 673L1389 493Q1408 474 1408 448ZM1152 896V901Q1152 953 1131.0 998.5Q1110 1044 1075.0 1078.0Q1040 1112 993.5 1132.0Q947 1152 896 1152Q843 1152 796.5 1131.5Q750 1111 715.5 1076.5Q681 1042 660.5 995.0Q640 948 640 896Q640 843 660.5 796.5Q681 750 715.5 715.5Q750 681 796.5 660.5Q843 640 896 640Q948 640 995.0 660.5Q1042 681 1076.5 715.5Q1111 750 1131.5 796.5Q1152 843 1152 896Z"/>
  </g>
</svg>