<?xml version="1.0" encoding="utf-8"?>
<svg xmlns="http://www.w3.org/2000/svg" width="16" height="16" viewBox="0 0 2048 2048">
  <g transform="translate(0, 2048) scale(1, -1)">
    <path fill="#ffffff" d="M704 384H256Q230 384 206.5 394.0Q183 404 165.5 421.5Q148 439 138.0 462.5Q128 486 128 512Q128 538 138 561L256 845V1288Q256 1393 284.0 1490.0Q312 1587 362.5 1671.5Q413 1756 483.5 1825.5Q554 1895 639.5 1944.5Q725 1994 822.5 2021.0Q920 2048 1024 2048Q1075 2048 1129.5 2041.5Q1184 2035 1233 2019Q1254 2012 1267.0 1996.5Q1280 1981 1280 1958Q1280 1932 1261.5 1912.5Q1243 1893 1216 1893Q1207 1893 1198 1896Q1112 1920 1024 1920Q891 1920 774.5 1870.0Q658 1820 571.0 1733.0Q484 1646 434.0 1529.5Q384 1413 384 1280V832Q384 824 376.0 800.5Q368 777 355.0 745.5Q342 714 326.5 677.5Q311 641 297.0 608.0Q283 575 271.5 549.0Q260 523 256 512H1792L1669 807Q1665 817 1663.5 844.5Q1662 872 1662 905Q1662 941 1663.0 975.0Q1664 1009 1664 1024Q1664 1050 1683.0 1069.0Q1702 1088 1728 1088Q1754 1088 1773.0 1069.0Q1792 1050 1792 1024V845L1910 561Q1920 538 1920 512Q1920 486 1910.0 462.5Q1900 439 1882.5 421.5Q1865 404 1841.5 394.0Q1818 384 1792 384H1344V377Q1344 312 1318.0 255.0Q1292 198 1248.0 155.5Q1204 113 1146.0 88.5Q1088 64 1024 64Q961 64 903.5 88.0Q846 112 801.5 154.0Q757 196 730.5 252.0Q704 308 704 372ZM1536 1280Q1509 1280 1490.5 1298.5Q1472 1317 1472 1344Q1472 1364 1484 1381L1861 1920H1536Q1510 1920 1491.0 1939.0Q1472 1958 1472 1984Q1472 2010 1491.0 2029.0Q1510 2048 1536 2048H1984Q2011 2048 2029.5 2029.5Q2048 2011 2048 1984Q2048 1963 2036 1947L1659 1408H1984Q2010 1408 2029.0 1389.0Q2048 1370 2048 1344Q2048 1317 2029.5 1298.5Q2011 1280 1984 1280ZM960 1024Q933 1024 914.5 1042.5Q896 1061 896 1088Q896 1111 911 1129L1143 1408H960Q934 1408 915.0 1427.0Q896 1446 896 1472Q896 1499 914.5 1517.5Q933 1536 960 1536H1280Q1307 1536 1325.5 1517.5Q1344 1499 1344 1472Q1344 1449 1329 1431L1097 1152H1280Q1306 1152 1325.0 1133.0Q1344 1114 1344 1088Q1344 1062 1325.0 1043.0Q1306 1024 1280 1024ZM1216 384H832Q832 345 847.0 310.0Q862 275 888.5 248.5Q915 222 950.0 207.0Q985 192 1024 192Q1063 192 1098.0 207.0Q1133 222 1159.5 248.5Q1186 275 1201.0 310.0Q1216 345 1216 384Z"/>
  </g>
</svg>