<?xml version="1.0" encoding="utf-8"?>
<svg xmlns="http://www.w3.org/2000/svg" width="16" height="16" viewBox="0 0 2048 2048">
  <g transform="translate(0, 2048) scale(1, -1)">
    <path fill="#000000" d="M640 1574V320Q640 294 621.0 275.0Q602 256 576 256Q550 256 531.0 275.0Q512 294 512 320V1574L109 1171Q90 1152 64 1152Q38 1152 19.0 1171.0Q0 1190 0 1216Q0 1242 19 1261L528 1770Q539 1781 550.0 1786.5Q561 1792 576 1792Q591 1792 602.0 1786.5Q613 1781 624 1770L1133 1261Q1152 1242 1152 1216Q1152 1190 1133.0 1171.0Q1114 1152 1088 1152Q1062 1152 1043 1171ZM2048 832Q2048 806 2029 787L1520 278Q1509 267 1498.5 261.5Q1488 256 1472 256Q1456 256 1445.5 261.5Q1435 267 1424 278L915 787Q896 806 896 832Q896 858 915.0 877.0Q934 896 960 896Q986 896 1005 877L1408 475V1728Q1408 1754 1427.0 1773.0Q1446 1792 1472 1792Q1498 1792 1517.0 1773.0Q1536 1754 1536 1728V475L1939 877Q1958 896 1984 896Q2010 896 2029.0 877.0Q2048 858 2048 832Z"/>
  </g>
</svg>