<?xml version="1.0" encoding="utf-8"?>
<svg xmlns="http://www.w3.org/2000/svg" width="16" height="16" viewBox="0 0 2048 2048">
  <g transform="translate(0, 2048) scale(1, -1)">
    <path fill="#000000" d="M0 1024Q0 1148 32.0 1262.5Q64 1377 122.5 1476.5Q181 1576 262.5 1657.5Q344 1739 443.5 1797.5Q543 1856 657.5 1888.0Q772 1920 896 1920Q990 1920 1081.0 1901.5Q1172 1883 1257 1845Q1270 1839 1284.5 1833.0Q1299 1827 1310 1819Q1326 1808 1335.0 1795.0Q1344 1782 1344 1762Q1344 1736 1325.5 1717.0Q1307 1698 1281 1698Q1273 1698 1265.5 1700.5Q1258 1703 1250 1706Q1163 1746 1078.0 1769.0Q993 1792 896 1792Q737 1792 597.5 1731.5Q458 1671 353.5 1566.5Q249 1462 188.5 1322.5Q128 1183 128 1024Q128 918 155.5 819.5Q183 721 233.0 636.0Q283 551 353.0 481.0Q423 411 508.0 361.0Q593 311 691.5 283.5Q790 256 896 256Q993 256 1078.0 278.5Q1163 301 1250 343Q1264 350 1280 350Q1306 350 1325.0 331.0Q1344 312 1344 286Q1344 266 1335.0 253.0Q1326 240 1310 229Q1299 221 1284.5 215.0Q1270 209 1257 203Q1172 165 1081.0 146.5Q990 128 896 128Q772 128 657.5 160.0Q543 192 443.5 250.5Q344 309 262.5 390.5Q181 472 122.5 571.5Q64 671 32.0 785.5Q0 900 0 1024ZM1488 512Q1488 524 1491.5 532.5Q1495 541 1502 551Q1580 661 1622.0 774.0Q1664 887 1664 1024Q1664 1161 1622.0 1274.0Q1580 1387 1502 1497Q1495 1507 1491.5 1515.5Q1488 1524 1488 1536Q1488 1562 1507.0 1581.0Q1526 1600 1552 1600Q1582 1600 1602 1575Q1648 1520 1683.5 1454.0Q1719 1388 1743.0 1316.0Q1767 1244 1779.5 1170.0Q1792 1096 1792 1024Q1792 951 1779.5 877.0Q1767 803 1743.0 732.0Q1719 661 1683.5 595.5Q1648 530 1602 473Q1591 460 1580.0 454.0Q1569 448 1552 448Q1526 448 1507.0 467.0Q1488 486 1488 512ZM384 896V1152Q384 1205 421 1242Q459 1280 512 1280H651Q677 1280 696 1299L806 1408Q844 1446 896 1446Q922 1446 945.5 1436.0Q969 1426 986.5 1408.5Q1004 1391 1014.0 1367.5Q1024 1344 1024 1318V731Q1024 704 1014.0 680.5Q1004 657 987.0 640.0Q970 623 946.5 613.0Q923 603 896 603Q871 603 847.5 612.5Q824 622 806 640L696 749Q677 768 651 768H512Q458 768 421 805Q384 842 384 896ZM1301 690Q1301 709 1313 727Q1360 797 1384.0 868.0Q1408 939 1408 1024Q1408 1110 1384.0 1180.0Q1360 1250 1313 1321Q1301 1339 1301 1358Q1301 1384 1320.0 1403.0Q1339 1422 1365 1422Q1396 1422 1417 1395Q1476 1317 1506.0 1219.0Q1536 1121 1536 1024Q1536 927 1506.0 829.0Q1476 731 1417 653Q1396 626 1365 626Q1339 626 1320.0 645.0Q1301 664 1301 690ZM896 731V1318Q857 1279 830.5 1251.5Q804 1224 783.5 1205.5Q763 1187 745.5 1176.5Q728 1166 706.5 1160.5Q685 1155 657.0 1153.5Q629 1152 588 1152H512V896H588Q641 896 672.5 893.5Q704 891 729 880Q745 873 761.0 861.5Q777 850 795.5 832.0Q814 814 838.5 789.0Q863 764 896 731Z"/>
  </g>
</svg>