<?xml version="1.0" encoding="utf-8"?>
<svg id="" width="16" height="16" style="width:16px;height:16px;" version="1.1" xmlns="http://www.w3.org/2000/svg" viewBox="0 0 2048 2048" enable-background="new 0 0 2048 2048" xml:space="preserve">
    <path fill="#000" d="M635 2048 q-50 0 -95.5 -20.5 q-45.5 -20.5 -80 -55 q-34.5 -34.5 -55 -80 q-20.5 -45.5 -20.5 -95.5 l0 -1546 q0 -50 20.5 -95.5 q20.5 -45.5 55 -80 q34.5 -34.5 80 -55 q45.5 -20.5 95.5 -20.5 l778 0 q50 0 95.5 20.5 q45.5 20.5 80 55 q34.5 34.5 55 80 q20.5 45.5 20.5 95.5 l0 1546 q0 50 -20.5 95.5 q-20.5 45.5 -55 80 q-34.5 34.5 -80 55 q-45.5 20.5 -95.5 20.5 l-778 0 ZM1408 1920 q27 0 50 -10 q23 -10 40.5 -27.5 q17.5 -17.5 27.5 -40.5 q10 -23 10 -50 l0 -1536 q0 -26 -10 -49.5 q-10 -23.5 -27.5 -41 q-17.5 -17.5 -41 -27.5 q-23.5 -10 -49.5 -10 l-768 0 q-27 0 -50 10 q-23 10 -40.5 27.5 q-17.5 17.5 -27.5 40.5 q-10 23 -10 50 l0 1536 q0 27 10 50.5 q10 23.5 27 40.5 q17 17 40.5 27 q23.5 10 50.5 10 l768 0 ZM640 640 l0 -8 q0 -78 31 -146.5 q31 -68.5 84 -119.5 q53 -51 122.5 -80.5 q69.5 -29.5 146.5 -29.5 q80 0 150 30 q70 30 122 82 q52 52 82 122 q30 70 30 150 q0 80 -30 150 q-30 70 -82 122 q-52 52 -122 82 q-70 30 -150 30 q-80 0 -150 -30 q-70 -30 -122 -82 q-52 -52 -82 -122 q-30 -70 -30 -150 ZM1280 640 l0 -5 q0 -52 -21 -97.5 q-21 -45.5 -56 -79.5 q-35 -34 -81.5 -54 q-46.5 -20 -97.5 -20 q-53 0 -99.5 20.5 q-46.5 20.5 -81 55 q-34.5 34.5 -55 81.5 q-20.5 47 -20.5 99 q0 53 20.5 99.5 q20.5 46.5 55 81 q34.5 34.5 81 55 q46.5 20.5 99.5 20.5 q52 0 99 -20.5 q47 -20.5 81.5 -55 q34.5 -34.5 55 -81 q20.5 -46.5 20.5 -99.5 ZM928 640 q0 -40 28 -68 q28 -28 68 -28 q40 0 68 28 q28 28 28 68 q0 40 -28 68 q-28 28 -68 28 q-40 0 -68 -28 q-28 -28 -28 -68 ZM768 1536 l0 -5 q0 -52 21 -97.5 q21 -45.5 56 -79.5 q35 -34 81.5 -54 q46.5 -20 97.5 -20 q52 0 99 20.5 q47 20.5 81.5 55 q34.5 34.5 55 81.5 q20.5 47 20.5 99 q0 53 -20.5 99.5 q-20.5 46.5 -55 81 q-34.5 34.5 -81.5 55 q-47 20.5 -99 20.5 q-53 0 -99.5 -20.5 q-46.5 -20.5 -81 -55 q-34.5 -34.5 -55 -81 q-20.5 -46.5 -20.5 -99.5 ZM1152 1536 q0 -26 -10 -49.5 q-10 -23.5 -27.5 -41 q-17.5 -17.5 -41 -27.5 q-23.5 -10 -49.5 -10 q-27 0 -50 10 q-23 10 -40.5 27.5 q-17.5 17.5 -27.5 40.5 q-10 23 -10 50 q0 27 10 50.5 q10 23.5 27 40.5 q17 17 40.5 27 q23.5 10 50.5 10 q27 0 50 -10 q23 -10 40.5 -27.5 q17.5 -17.5 27.5 -40.5 q10 -23 10 -50 Z"/>
</svg>