<?xml version="1.0" encoding="utf-8"?>
<svg xmlns="http://www.w3.org/2000/svg" width="16" height="16" viewBox="0 0 2048 2048">
  <g transform="translate(0, 2048) scale(1, -1)">
    <path fill="#000000" d="M128 1282Q128 1324 152.5 1359.0Q177 1394 217 1407L395 1464Q427 1475 456.0 1494.0Q485 1513 508 1536Q558 1586 579 1650L637 1829Q650 1869 685.5 1894.5Q721 1920 763 1920Q805 1920 840.5 1896.0Q876 1872 890 1831L948 1654Q969 1588 1020 1537Q1069 1487 1137 1465L1313 1407Q1356 1393 1382.0 1359.0Q1408 1325 1408 1279Q1408 1238 1383.0 1202.5Q1358 1167 1319 1154L1141 1096Q1075 1075 1024 1024Q992 992 972.5 951.0Q953 910 939.5 867.0Q926 824 914.0 783.5Q902 743 884.0 711.0Q866 679 839.0 659.5Q812 640 768 640Q726 640 690.5 664.5Q655 689 642 729L584 907Q576 932 564.5 954.5Q553 977 537 997Q503 1040 459.5 1065.0Q416 1090 371.0 1106.0Q326 1122 282.0 1133.5Q238 1145 204.0 1162.5Q170 1180 149.0 1207.0Q128 1234 128 1282ZM1277 1275Q1201 1304 1131.5 1328.5Q1062 1353 1003.0 1388.5Q944 1424 898.5 1476.5Q853 1529 826 1614L769 1790L702 1614Q684 1566 660.0 1525.0Q636 1484 600 1447Q566 1413 523.5 1385.5Q481 1358 435 1343L258 1286Q333 1257 402.0 1232.5Q471 1208 529.0 1172.5Q587 1137 632.5 1084.0Q678 1031 705 947L762 771L829 947Q866 1044 932.5 1115.0Q999 1186 1100 1218ZM1152 516Q1152 547 1172.0 573.0Q1192 599 1221 609L1320 641Q1354 652 1373.0 675.0Q1392 698 1403.5 726.5Q1415 755 1423.0 785.0Q1431 815 1443.5 839.5Q1456 864 1476.5 880.0Q1497 896 1534 896Q1566 896 1593.5 877.0Q1621 858 1631 827Q1637 807 1642.5 786.5Q1648 766 1655.0 746.5Q1662 727 1672.0 708.5Q1682 690 1697 675Q1713 658 1736.0 648.5Q1759 639 1784.0 631.0Q1809 623 1833.5 615.0Q1858 607 1877.0 594.5Q1896 582 1908.0 562.5Q1920 543 1920 513Q1920 480 1901.5 453.0Q1883 426 1851 415Q1832 409 1811.5 403.5Q1791 398 1770.5 391.0Q1750 384 1731.5 374.0Q1713 364 1698 349Q1674 324 1662.5 286.5Q1651 249 1638.5 213.5Q1626 178 1604.0 153.0Q1582 128 1536 128Q1504 128 1476.5 147.0Q1449 166 1439 197Q1433 215 1427.5 236.0Q1422 257 1415.0 277.5Q1408 298 1398.0 317.0Q1388 336 1374 350Q1356 367 1333.0 377.0Q1310 387 1285.5 394.5Q1261 402 1237.0 409.5Q1213 417 1194.0 429.5Q1175 442 1163.5 462.5Q1152 483 1152 516ZM1735 512Q1692 525 1660.5 542.5Q1629 560 1606.0 583.5Q1583 607 1566.0 638.5Q1549 670 1534 712Q1522 671 1504.5 640.0Q1487 609 1463.0 585.0Q1439 561 1408.0 543.0Q1377 525 1337 512Q1418 489 1465.0 440.5Q1512 392 1536 312Q1551 355 1567.5 386.0Q1584 417 1607.0 440.0Q1630 463 1660.5 480.0Q1691 497 1735 512Z"/>
  </g>
</svg>