<?xml version="1.0" encoding="utf-8"?>
<svg xmlns="http://www.w3.org/2000/svg" width="16" height="16" viewBox="0 0 2048 2048">
  <g transform="translate(0, 2048) scale(1, -1)">
    <path fill="#ffffff" d="M1582 864Q1582 887 1589.5 903.0Q1597 919 1613 935Q1713 1035 1768.0 1150.0Q1823 1265 1823 1408Q1823 1551 1768.0 1666.0Q1713 1781 1613 1881Q1597 1897 1589.5 1913.0Q1582 1929 1582 1952Q1582 1992 1609.5 2020.0Q1637 2048 1677 2048Q1697 2048 1712.0 2042.5Q1727 2037 1742 2023Q1807 1966 1857.5 1894.5Q1908 1823 1943.0 1743.5Q1978 1664 1996.5 1579.0Q2015 1494 2015 1408Q2015 1322 1996.5 1236.5Q1978 1151 1943.0 1071.5Q1908 992 1857.5 921.0Q1807 850 1742 793Q1727 780 1712.5 774.0Q1698 768 1678 768Q1637 768 1609.5 796.0Q1582 824 1582 864ZM1344 1097Q1344 1116 1349.5 1130.0Q1355 1144 1366 1158Q1409 1213 1432.0 1275.5Q1455 1338 1455 1408Q1455 1480 1433.0 1541.0Q1411 1602 1366 1658Q1355 1672 1349.5 1686.5Q1344 1701 1344 1719Q1344 1760 1372.0 1787.0Q1400 1814 1440 1814Q1484 1814 1514 1779Q1546 1741 1570.5 1697.0Q1595 1653 1612.0 1605.0Q1629 1557 1638.0 1507.0Q1647 1457 1647 1408Q1647 1308 1612.5 1211.0Q1578 1114 1514 1037Q1484 1001 1440 1001Q1400 1001 1372.0 1029.0Q1344 1057 1344 1097ZM320 1352V1360Q320 1451 356.5 1531.0Q393 1611 454.5 1671.0Q516 1731 597.5 1765.5Q679 1800 768 1800Q860 1800 941.5 1764.5Q1023 1729 1084.0 1668.0Q1145 1607 1180.5 1525.5Q1216 1444 1216 1352Q1216 1260 1180.5 1178.5Q1145 1097 1084.0 1036.0Q1023 975 941.5 939.5Q860 904 768 904Q676 904 594.5 939.5Q513 975 452.0 1036.0Q391 1097 355.5 1178.5Q320 1260 320 1352ZM0 525Q0 575 20.5 620.5Q41 666 75.5 700.5Q110 735 155.5 755.5Q201 776 251 776H1285Q1335 776 1380.5 755.5Q1426 735 1460.5 700.5Q1495 666 1515.5 620.5Q1536 575 1536 525Q1536 463 1518.0 408.5Q1500 354 1468.5 307.0Q1437 260 1393.5 220.5Q1350 181 1300 149Q1242 112 1177.0 85.5Q1112 59 1044.0 41.5Q976 24 906.0 16.0Q836 8 768 8Q700 8 630.0 16.0Q560 24 492.0 41.5Q424 59 359.0 85.5Q294 112 236 149Q186 181 142.5 220.5Q99 260 67.5 307.0Q36 354 18.0 408.5Q0 463 0 525Z"/>
  </g>
</svg>