<?xml version="1.0" encoding="utf-8"?>
<svg id="" width="16" height="16" style="width:16px;height:16px;" version="1.1" xmlns="http://www.w3.org/2000/svg" viewBox="0 0 2048 2048" enable-background="new 0 0 2048 2048" xml:space="preserve">
    <path fill="#ffffff" transform="translate(0, 300)" d="M1216 1196 q0 46 -18 86.5 q-18 40.5 -48.5 71 q-30.5 30.5 -71 48 q-40.5 17.5 -86.5 17.5 q-47 0 -87.5 -17.5 q-40.5 -17.5 -71 -47.5 q-30.5 -30 -48 -70.5 q-17.5 -40.5 -17.5 -87.5 q0 -20 3 -40 l177 -1104 q4 -23 21.5 -37.5 q17.5 -14.5 40.5 -14.5 q26 0 43.5 16 q17.5 16 20.5 42 l136 1089 q2 13 4 24.5 q2 11.5 2 24.5 ZM2048 716 q0 27 -19.5 45 q-19.5 18 -45.5 18 q-20 0 -35 -11 q-15 -11 -23 -29 q-13 -30 -27.5 -58.5 q-14.5 -28.5 -31.5 -56.5 l-232 145 q-17 10 -34 10 q-26 0 -45 -19 q-19 -19 -19 -45 q0 -35 30 -54 l227 -142 q-104 -131 -243 -224 q-139 -93 -303 -131 l-20 -135 q98 18 191 54.5 q93 36.5 177 88.5 q84 52 158.5 118.5 q74.5 66.5 135.5 145.5 q9 12 24.5 33.5 q15.5 21.5 33.5 48 q18 26.5 36 55 q18 28.5 32.5 56 q14.5 27.5 23.5 50.5 q9 23 9 37 ZM512 715 q0 26 -19 45 q-19 19 -45 19 q-17 0 -34 -10 l-232 -145 q-17 29 -31 57 q-14 28 -28 58 q-8 18 -22.5 29 q-14.5 11 -35.5 11 q-26 0 -45.5 -18 q-19.5 -18 -19.5 -45 q0 -14 9 -36.5 q9 -22.5 23 -49 q14 -26.5 31 -55 q17 -28.5 34 -54 q17 -25.5 32 -46.5 q15 -21 24 -33 q59 -76 130.5 -142 q71.5 -66 152.5 -118 q81 -52 170 -89.5 q89 -37.5 184 -57.5 l-22 138 q-155 42 -284.5 131.5 q-129.5 89.5 -228.5 214.5 l227 142 q30 19 30 54 ZM1088 1196 q0 -8 -1.5 -14 q-1.5 -6 -2.5 -13 l-81 -652 q-2 9 -7 42 q-5 33 -13 81 q-8 48 -17 106 q-9 58 -19 117.5 q-10 59.5 -19 116 q-9 56.5 -16 100.5 q-7 44 -11 72 q-4 28 -4 30 l-1 1 l-1 10 q0 41 27.5 69.5 q27.5 28.5 68.5 28.5 q19 0 37 -7.5 q18 -7.5 31 -20 q13 -12.5 21 -30 q8 -17.5 8 -37.5 Z"/>
</svg>