<?xml version="1.0" encoding="utf-8"?>
<svg id="" width="16" height="16" style="width:16px;height:16px;" version="1.1" xmlns="http://www.w3.org/2000/svg" viewBox="0 0 2048 2048" enable-background="new 0 0 2048 2048" xml:space="preserve">
    <path fill="#ffffff" transform="translate(0, 300)" d="M2048 705 q0 27 -19.5 45 q-19.5 18 -45.5 18 q-21 0 -35.5 -11 q-14.5 -11 -22.5 -29 q-14 -30 -28 -58 q-14 -28 -31 -57 l-232 145 q-17 10 -34 10 q-26 0 -45 -19 q-19 -19 -19 -45 q0 -35 30 -54 l227 -142 q-66 -83 -144.5 -150 q-78.5 -67 -167.5 -115.5 q-89 -48.5 -188 -77.5 q-99 -29 -205 -35 l0 318 q0 26 -19 45 q-19 19 -45 19 q-26 0 -45 -19 q-19 -19 -19 -45 l0 -318 q-162 11 -306 71 q-144 60 -265 167 l-118 -66 q155 -149 346.5 -225.5 q191.5 -76.5 406.5 -76.5 q129 0 251 26.5 q122 26.5 237 87.5 q98 52 185.5 118.5 q87.5 66.5 159.5 152.5 q11 14 30 38 q19 24 40 54 q21 30 42.5 62.5 q21.5 32.5 39 63.5 q17.5 31 28.5 58 q11 27 11 44 ZM1171 990 q51 30 80.5 81.5 q29.5 51.5 29.5 110.5 q0 47 -17.5 87.5 q-17.5 40.5 -48 71.5 q-30.5 31 -71.5 48.5 q-41 17.5 -87 17.5 q-56 0 -96 -21.5 q-40 -21.5 -78 -60.5 l-769 -784 q-19 -19 -19 -46 q0 -26 18.5 -45 q18.5 -19 44.5 -19 q8 0 17 2.5 q9 2.5 16 6.5 l979 550 l1 0 ZM11 665 l90 91 q-17 12 -37 12 q-27 0 -45.5 -18 q-18.5 -18 -18.5 -45 q0 -11 3.5 -20.5 q3.5 -9.5 7.5 -19.5 ZM1153 1184 q0 -28 -12.5 -48 q-12.5 -20 -34.5 -35 l-1 -1 l-3 -1 q0 0 -23.5 -13.5 q-23.5 -13.5 -62 -35 q-38.5 -21.5 -88.5 -49.5 q-50 -28 -102.5 -57.5 q-52.5 -29.5 -104 -58.5 q-51.5 -29 -94 -53 q-42.5 -24 -71.5 -40.5 q-29 -16.5 -37 -20.5 l459 468 q19 19 34 29.5 q15 10.5 44 10.5 q40 0 68.5 -27 q28.5 -27 28.5 -68 Z"/>
</svg>