<?xml version="1.0" encoding="utf-8"?>
<svg id="" width="16" height="16" style="width:16px;height:16px;" version="1.1" xmlns="http://www.w3.org/2000/svg" viewBox="0 0 2048 2048" enable-background="new 0 0 2048 2048" xml:space="preserve">
    <path fill="#ffffff" transform="translate(0, 300)" d="M512 704 q0 26 -19 45 q-19 19 -45 19 q-17 0 -34 -10 l-232 -145 q-17 29 -31 57 q-14 28 -28 58 q-8 18 -22.5 29 q-14.5 11 -35.5 11 q-26 0 -45.5 -18 q-19.5 -18 -19.5 -45 q0 -17 11 -44 q11 -27 28.5 -58 q17.5 -31 39 -63.5 q21.5 -32.5 42.5 -62.5 q21 -30 40 -54 q19 -24 30 -38 q71 -85 158.5 -152 q87.5 -67 185.5 -119 q114 -60 237.5 -87 q123.5 -27 251.5 -27 q86 0 170.5 12.5 q84.5 12.5 166.5 39.5 l-82 109 q-47 -13 -95 -20.5 q-48 -7.5 -96 -10.5 l0 318 q0 26 -19 45 q-19 19 -45 19 q-26 0 -45 -19 q-19 -19 -19 -45 l0 -318 q-107 6 -205.5 35 q-98.5 29 -187.5 77.5 q-89 48.5 -167.5 115.5 q-78.5 67 -144.5 150 l227 142 q30 19 30 54 ZM992 1408 q-46 0 -87 -17.5 q-41 -17.5 -71.5 -48 q-30.5 -30.5 -48 -71.5 q-17.5 -41 -17.5 -87 q0 -40 12 -72.5 q12 -32.5 35 -64.5 l669 -892 q19 -27 52 -27 q26 0 45 19 q19 19 19 45 q0 11 -5 24 l-387 1027 q-14 38 -30.5 65.5 q-16.5 27.5 -49.5 53.5 q-59 46 -136 46 ZM2048 705 q0 27 -19.5 45 q-19.5 18 -45.5 18 q-20 0 -35 -11 q-15 -11 -23 -29 q-12 -30 -27 -58.5 q-15 -28.5 -32 -56.5 l-232 145 q-17 10 -34 10 q-26 0 -45 -19 q-19 -19 -19 -45 q0 -35 30 -54 l227 -142 q-23 -28 -47 -54 q-24 -26 -50 -52 l48 -128 l1 -1 q43 38 87.5 86 q44.5 48 85 101 q40.5 53 73 109.5 q32.5 56.5 52.5 110.5 q5 13 5 25 ZM1318 590 l-401 534 q-21 29 -21 60 q0 40 28 68 q28 28 68 28 q39 0 60 -21.5 q21 -21.5 34 -54.5 l232 -614 Z"/>
</svg>