<?xml version="1.0" encoding="utf-8"?>
<svg xmlns="http://www.w3.org/2000/svg" width="16" height="16" viewBox="0 0 2048 2048">
  <g transform="translate(0, 2048) scale(1, -1)">
    <path fill="#000000" d="M1668 847Q1668 863 1673.5 873.5Q1679 884 1690 895Q1800 1003 1860.0 1131.0Q1920 1259 1920 1416Q1920 1490 1904.5 1561.0Q1889 1632 1860 1700Q1844 1737 1825.5 1768.0Q1807 1799 1786.0 1827.0Q1765 1855 1741.0 1882.0Q1717 1909 1690 1937Q1680 1947 1674.0 1958.5Q1668 1970 1668 1984Q1668 2010 1687.0 2029.0Q1706 2048 1732 2048Q1745 2048 1755.5 2043.5Q1766 2039 1776 2031Q1806 2007 1835.5 1973.5Q1865 1940 1891.0 1902.5Q1917 1865 1939.5 1826.0Q1962 1787 1977 1752Q2048 1592 2048 1416Q2048 1328 2030.0 1243.5Q2012 1159 1977 1079Q1962 1044 1939.5 1005.0Q1917 966 1891.0 928.5Q1865 891 1835.5 857.5Q1806 824 1776 800Q1766 792 1756.0 787.5Q1746 783 1733 783Q1707 783 1687.5 801.5Q1668 820 1668 847ZM1420 1091Q1420 1104 1423.5 1113.0Q1427 1122 1435 1132Q1484 1198 1510.0 1265.5Q1536 1333 1536 1416Q1536 1499 1509.5 1566.5Q1483 1634 1435 1700Q1427 1710 1423.5 1719.0Q1420 1728 1420 1741Q1420 1768 1438.5 1786.0Q1457 1804 1484 1804Q1514 1804 1534 1781Q1565 1745 1589.5 1701.0Q1614 1657 1630.5 1609.5Q1647 1562 1655.5 1512.5Q1664 1463 1664 1416Q1664 1368 1655.5 1318.5Q1647 1269 1630.5 1222.0Q1614 1175 1590.0 1131.5Q1566 1088 1534 1051Q1513 1027 1484 1027Q1458 1027 1439.0 1046.0Q1420 1065 1420 1091ZM320 1352V1360Q320 1451 356.5 1531.0Q393 1611 454.5 1671.0Q516 1731 597.5 1765.5Q679 1800 768 1800Q860 1800 941.5 1764.5Q1023 1729 1084.0 1668.0Q1145 1607 1180.5 1525.5Q1216 1444 1216 1352Q1216 1260 1180.5 1178.5Q1145 1097 1084.0 1036.0Q1023 975 941.5 939.5Q860 904 768 904Q676 904 594.5 939.5Q513 975 452.0 1036.0Q391 1097 355.5 1178.5Q320 1260 320 1352ZM1088 1352V1359Q1088 1424 1062.0 1481.0Q1036 1538 992.0 1580.5Q948 1623 890.0 1647.5Q832 1672 768 1672Q701 1672 643.0 1647.0Q585 1622 541.5 1578.5Q498 1535 473.0 1477.0Q448 1419 448 1352Q448 1285 473.0 1227.0Q498 1169 541.5 1125.5Q585 1082 643.0 1057.0Q701 1032 768 1032Q835 1032 893.0 1057.0Q951 1082 994.5 1125.5Q1038 1169 1063.0 1227.0Q1088 1285 1088 1352ZM0 525Q0 575 20.5 620.5Q41 666 75.5 700.5Q110 735 155.5 755.5Q201 776 251 776H1285Q1335 776 1380.5 755.5Q1426 735 1460.5 700.5Q1495 666 1515.5 620.5Q1536 575 1536 525Q1536 463 1518.0 408.5Q1500 354 1468.5 307.0Q1437 260 1393.5 220.5Q1350 181 1300 149Q1242 112 1177.0 85.5Q1112 59 1044.0 41.5Q976 24 906.0 16.0Q836 8 768 8Q700 8 630.0 16.0Q560 24 492.0 41.5Q424 59 359.0 85.5Q294 112 236 149Q186 181 142.5 220.5Q99 260 67.5 307.0Q36 354 18.0 408.5Q0 463 0 525ZM1408 520Q1408 546 1398.0 569.5Q1388 593 1370.5 610.5Q1353 628 1329.5 638.0Q1306 648 1280 648H256Q230 648 206.5 638.0Q183 628 165.5 610.5Q148 593 138.0 569.5Q128 546 128 520Q128 476 142.5 438.0Q157 400 182.0 367.0Q207 334 238.5 306.5Q270 279 305 257Q355 225 411.5 202.0Q468 179 527.5 164.5Q587 150 648.0 143.0Q709 136 768 136Q827 136 888.0 143.0Q949 150 1008.5 164.5Q1068 179 1124.5 202.0Q1181 225 1231 257Q1265 279 1297.0 306.5Q1329 334 1354.0 367.0Q1379 400 1393.5 438.0Q1408 476 1408 520Z"/>
  </g>
</svg>