<?xml version="1.0" encoding="utf-8"?>
<svg xmlns="http://www.w3.org/2000/svg" width="16" height="16" viewBox="0 0 2048 2048">
  <g transform="translate(0, 2048) scale(1, -1)">
    <path fill="#000000" d="M256 1664V1856Q256 1882 275.0 1901.0Q294 1920 320 1920H576Q576 1928 575.5 1936.5Q575 1945 575 1954Q575 1971 577.0 1987.5Q579 2004 585.5 2017.5Q592 2031 605.0 2039.5Q618 2048 640 2048Q662 2048 674.5 2039.5Q687 2031 693.5 2017.5Q700 2004 702.0 1987.5Q704 1971 704 1954V1920H960Q986 1920 1005.0 1901.0Q1024 1882 1024 1856V1664Q1024 1638 1005.0 1619.0Q986 1600 960 1600Q934 1600 915.0 1619.0Q896 1638 896 1664V1792H384V1664Q384 1638 365.0 1619.0Q346 1600 320 1600Q294 1600 275.0 1619.0Q256 1638 256 1664ZM1638 1288V1280H1350L1317 1193Q1309 1174 1292.5 1163.0Q1276 1152 1256 1152Q1229 1152 1210.5 1170.5Q1192 1189 1192 1216Q1192 1221 1202.0 1249.5Q1212 1278 1228.0 1322.0Q1244 1366 1265.0 1420.5Q1286 1475 1308.5 1533.0Q1331 1591 1353.5 1647.5Q1376 1704 1394.5 1751.5Q1413 1799 1426.5 1833.0Q1440 1867 1445 1879Q1453 1898 1469.0 1909.0Q1485 1920 1505 1920Q1525 1920 1541.5 1908.0Q1558 1896 1565 1877Q1569 1865 1581.5 1831.0Q1594 1797 1611.0 1750.0Q1628 1703 1648.5 1646.5Q1669 1590 1689.5 1532.5Q1710 1475 1729.0 1420.0Q1748 1365 1763.0 1321.5Q1778 1278 1787.0 1249.5Q1796 1221 1796 1216Q1796 1189 1777.0 1170.5Q1758 1152 1731 1152Q1710 1152 1694.0 1163.5Q1678 1175 1671 1195ZM1502 1672 1400 1408H1596ZM576 1024Q550 1024 531.0 1043.0Q512 1062 512 1088Q512 1110 520.5 1122.5Q529 1135 542.5 1141.5Q556 1148 572.5 1150.0Q589 1152 606 1152H640V1280H448Q422 1280 403.0 1299.0Q384 1318 384 1344Q384 1370 403.0 1389.0Q422 1408 448 1408H640Q640 1421 648.5 1439.0Q657 1457 669.0 1475.0Q681 1493 693.0 1509.0Q705 1525 712 1536H512Q486 1536 467.0 1555.0Q448 1574 448 1600Q448 1626 467.0 1645.0Q486 1664 512 1664H832Q858 1664 877.0 1645.0Q896 1626 896 1600Q896 1581 885 1565L781 1408H960Q986 1408 1005.0 1389.0Q1024 1370 1024 1344Q1024 1318 1005.0 1299.0Q986 1280 960 1280H768V1152Q768 1099 730 1061Q693 1024 640 1024ZM576 611Q576 637 595.0 656.0Q614 675 640 675Q666 675 685 656L926 415L1405 1001Q1414 1012 1427.5 1018.0Q1441 1024 1455 1024Q1482 1024 1500.0 1005.0Q1518 986 1518 960Q1518 938 1504 919L980 279Q960 256 931 256Q916 256 906.5 260.0Q897 264 886 275L595 566Q576 585 576 611Z"/>
  </g>
</svg>