<?xml version="1.0" encoding="utf-8"?>
<svg xmlns="http://www.w3.org/2000/svg" width="16" height="16" viewBox="0 0 2048 2048">
  <g transform="translate(0, 2048) scale(1, -1)">
    <path fill="#ffffff" d="M602 1152Q580 1152 565.5 1163.5Q551 1175 543 1195L509 1288V1280H221L188 1193Q180 1174 163.5 1163.0Q147 1152 127 1152Q100 1152 82.0 1171.5Q64 1191 64 1217Q64 1228 68 1239L316 1879Q324 1898 340.5 1909.0Q357 1920 377 1920Q397 1920 413.0 1908.0Q429 1896 436 1877L663 1237Q667 1226 667 1215Q667 1189 647.5 1170.5Q628 1152 602 1152ZM832 1152Q806 1152 787.0 1171.0Q768 1190 768 1216V1856Q768 1882 787.0 1901.0Q806 1920 832 1920H1216Q1242 1920 1261.0 1901.0Q1280 1882 1280 1856Q1280 1830 1261.0 1811.0Q1242 1792 1216 1792H896V1600H1072Q1118 1600 1158.5 1582.0Q1199 1564 1229.5 1533.5Q1260 1503 1278.0 1462.5Q1296 1422 1296 1376Q1296 1331 1278.0 1290.0Q1260 1249 1229.5 1218.5Q1199 1188 1158.0 1170.0Q1117 1152 1072 1152ZM1472 1152Q1446 1152 1427.0 1171.0Q1408 1190 1408 1216V1856Q1408 1882 1427.0 1901.0Q1446 1920 1472 1920H1664Q1772 1920 1833.0 1862.0Q1894 1804 1894 1695Q1894 1658 1884.5 1622.5Q1875 1587 1853 1557Q1898 1525 1916.5 1478.0Q1935 1431 1935 1377Q1935 1324 1917.0 1282.5Q1899 1241 1867.0 1212.0Q1835 1183 1791.0 1167.5Q1747 1152 1696 1152ZM1667 1600Q1715 1600 1740.5 1623.0Q1766 1646 1766 1695Q1766 1750 1742.0 1771.0Q1718 1792 1664 1792H1536V1600ZM373 1672 271 1408H467ZM1072 1280Q1091 1280 1108.5 1287.5Q1126 1295 1139.5 1308.5Q1153 1322 1160.5 1339.0Q1168 1356 1168 1376Q1168 1395 1160.5 1412.5Q1153 1430 1139.5 1443.5Q1126 1457 1108.5 1464.5Q1091 1472 1072 1472H896V1280ZM1696 1280Q1745 1280 1776.0 1302.0Q1807 1324 1807 1377Q1807 1408 1798.5 1426.5Q1790 1445 1774.5 1455.0Q1759 1465 1737.0 1468.5Q1715 1472 1688 1472H1536V1280ZM576 611Q576 637 595.0 656.0Q614 675 640 675Q666 675 685 656L926 415L1405 1001Q1414 1012 1427.5 1018.0Q1441 1024 1455 1024Q1482 1024 1500.0 1005.0Q1518 986 1518 960Q1518 938 1504 919L980 279Q960 256 931 256Q916 256 906.5 260.0Q897 264 886 275L595 566Q576 585 576 611Z"/>
  </g>
</svg>