<?xml version="1.0" encoding="utf-8"?>
<svg xmlns="http://www.w3.org/2000/svg" width="16" height="16" viewBox="0 0 2048 2048">
  <g transform="translate(0, 2048) scale(1, -1)">
    <path fill="#ffffff" d="M512 1664H192Q166 1664 147.0 1683.0Q128 1702 128 1728Q128 1754 147.0 1773.0Q166 1792 192 1792H576Q602 1792 621.0 1773.0Q640 1754 640 1728V1344Q640 1318 621.0 1299.0Q602 1280 576 1280Q550 1280 531.0 1299.0Q512 1318 512 1344ZM832 1280Q806 1280 787.0 1299.0Q768 1318 768 1344V1728Q768 1754 787.0 1773.0Q806 1792 832 1792Q858 1792 877.0 1773.0Q896 1754 896 1728V1408H1216Q1242 1408 1261.0 1389.0Q1280 1370 1280 1344Q1280 1318 1261.0 1299.0Q1242 1280 1216 1280ZM1472 1280Q1446 1280 1427.0 1299.0Q1408 1318 1408 1344V1728Q1408 1754 1427.0 1773.0Q1446 1792 1472 1792H1856Q1882 1792 1901.0 1773.0Q1920 1754 1920 1728Q1920 1702 1901.0 1683.0Q1882 1664 1856 1664H1536V1408H1856Q1882 1408 1901.0 1389.0Q1920 1370 1920 1344Q1920 1318 1901.0 1299.0Q1882 1280 1856 1280ZM576 611Q576 637 595.0 656.0Q614 675 640 675Q666 675 685 656L926 415L1405 1001Q1414 1012 1427.5 1018.0Q1441 1024 1455 1024Q1482 1024 1500.0 1005.0Q1518 986 1518 960Q1518 938 1504 919L980 279Q960 256 931 256Q916 256 906.5 260.0Q897 264 886 275L595 566Q576 585 576 611Z"/>
  </g>
</svg>