<?xml version="1.0" encoding="utf-8"?>
<svg xmlns="http://www.w3.org/2000/svg" width="16" height="16" viewBox="0 0 2048 2048">
  <g transform="translate(0, 2048) scale(1, -1)">
    <path fill="#000000" d="M602 1152Q580 1152 565.5 1163.5Q551 1175 543 1195L509 1288V1280H221L188 1193Q180 1174 163.5 1163.0Q147 1152 127 1152Q100 1152 82.0 1171.5Q64 1191 64 1217Q64 1228 68 1239L316 1879Q324 1898 340.5 1909.0Q357 1920 377 1920Q397 1920 413.0 1908.0Q429 1896 436 1877L663 1237Q667 1226 667 1215Q667 1189 647.5 1170.5Q628 1152 602 1152ZM832 1152Q806 1152 787.0 1171.0Q768 1190 768 1216V1856Q768 1882 787.0 1901.0Q806 1920 832 1920H1024Q1132 1920 1193.0 1862.0Q1254 1804 1254 1695Q1254 1658 1244.5 1622.5Q1235 1587 1213 1557Q1258 1525 1276.5 1478.0Q1295 1431 1295 1377Q1295 1324 1277.0 1282.5Q1259 1241 1227.0 1212.0Q1195 1183 1151.0 1167.5Q1107 1152 1056 1152ZM1408 1566Q1408 1608 1417.0 1650.0Q1426 1692 1440 1731Q1472 1820 1535.5 1870.0Q1599 1920 1696 1920Q1751 1920 1794.0 1909.0Q1837 1898 1870.0 1874.5Q1903 1851 1928.0 1813.5Q1953 1776 1972 1724Q1976 1713 1976 1702Q1976 1676 1957.5 1657.5Q1939 1639 1913 1639Q1885 1639 1870.5 1656.0Q1856 1673 1844.5 1696.0Q1833 1719 1820.0 1742.5Q1807 1766 1781 1779Q1763 1788 1743.0 1790.0Q1723 1792 1703 1792H1692Q1649 1792 1619.0 1769.5Q1589 1747 1570.5 1713.0Q1552 1679 1544.0 1639.0Q1536 1599 1536 1563Q1536 1516 1541.0 1465.5Q1546 1415 1564.5 1374.0Q1583 1333 1618.5 1306.5Q1654 1280 1716 1280Q1752 1280 1775.0 1289.0Q1798 1298 1813.0 1312.0Q1828 1326 1838.0 1341.5Q1848 1357 1858.0 1371.0Q1868 1385 1880.0 1394.0Q1892 1403 1912 1403Q1938 1403 1957.0 1385.0Q1976 1367 1976 1340Q1976 1326 1970 1313Q1936 1232 1868.5 1192.0Q1801 1152 1714 1152Q1664 1152 1613.0 1169.0Q1562 1186 1524 1218Q1485 1249 1462.0 1290.5Q1439 1332 1427.0 1377.5Q1415 1423 1411.5 1471.5Q1408 1520 1408 1566ZM1027 1600Q1075 1600 1100.5 1623.0Q1126 1646 1126 1695Q1126 1750 1102.0 1771.0Q1078 1792 1024 1792H896V1600ZM373 1672 271 1408H467ZM1056 1280Q1105 1280 1136.0 1302.0Q1167 1324 1167 1377Q1167 1392 1164.5 1407.5Q1162 1423 1154 1436Q1149 1444 1142.5 1449.0Q1136 1454 1128 1459Q1120 1463 1102.0 1465.5Q1084 1468 1060.5 1469.5Q1037 1471 1011.5 1471.5Q986 1472 963 1472H896V1280ZM576 611Q576 637 595.0 656.0Q614 675 640 675Q666 675 685 656L926 415L1405 1001Q1414 1012 1427.5 1018.0Q1441 1024 1455 1024Q1482 1024 1500.0 1005.0Q1518 986 1518 960Q1518 938 1504 919L980 279Q960 256 931 256Q916 256 906.5 260.0Q897 264 886 275L595 566Q576 585 576 611Z"/>
  </g>
</svg>