<?xml version="1.0" encoding="utf-8"?>
<svg xmlns="http://www.w3.org/2000/svg" width="16" height="16" viewBox="0 0 2048 2048">
  <g transform="translate(0, 2048) scale(1, -1)">
    <path fill="#ffffff" d="M376 256Q301 256 232.5 286.5Q164 317 112.5 368.5Q61 420 30.5 488.5Q0 557 0 632V1416Q0 1491 30.5 1559.5Q61 1628 112.5 1679.5Q164 1731 232.5 1761.5Q301 1792 376 1792H1672Q1747 1792 1815.5 1761.5Q1884 1731 1935.5 1679.5Q1987 1628 2017.5 1559.5Q2048 1491 2048 1416V632Q2048 557 2017.5 488.5Q1987 420 1935.5 368.5Q1884 317 1815.5 286.5Q1747 256 1672 256ZM1669 384Q1719 384 1764.5 404.5Q1810 425 1844.5 459.5Q1879 494 1899.5 539.5Q1920 585 1920 635V1413Q1920 1463 1899.5 1508.5Q1879 1554 1844.5 1588.5Q1810 1623 1764.5 1643.5Q1719 1664 1669 1664H379Q329 1664 283.5 1643.5Q238 1623 203.5 1588.5Q169 1554 148.5 1508.5Q128 1463 128 1413V635Q128 585 148.5 539.5Q169 494 203.5 459.5Q238 425 283.5 404.5Q329 384 379 384ZM320 512Q294 512 275.0 531.0Q256 550 256 576Q256 602 275.0 621.0Q294 640 320 640H576Q602 640 621.0 621.0Q640 602 640 576Q640 550 621.0 531.0Q602 512 576 512ZM1472 512Q1446 512 1427.0 531.0Q1408 550 1408 576Q1408 602 1427.0 621.0Q1446 640 1472 640H1728Q1754 640 1773.0 621.0Q1792 602 1792 576Q1792 550 1773.0 531.0Q1754 512 1728 512Z"/>
  </g>
</svg>