<?xml version="1.0" encoding="utf-8"?>
<svg xmlns="http://www.w3.org/2000/svg" width="16" height="16" viewBox="0 0 2048 2048">
  <g transform="translate(0, 2048) scale(1, -1)">
    <path fill="#ffffff" d="M632 0Q557 0 488.5 30.5Q420 61 368.5 112.5Q317 164 286.5 232.5Q256 301 256 376V1672Q256 1747 286.5 1815.5Q317 1884 368.5 1935.5Q420 1987 488.5 2017.5Q557 2048 632 2048H1416Q1491 2048 1559.5 2017.5Q1628 1987 1679.5 1935.5Q1731 1884 1761.5 1815.5Q1792 1747 1792 1672V376Q1792 301 1761.5 232.5Q1731 164 1679.5 112.5Q1628 61 1559.5 30.5Q1491 0 1416 0ZM1413 128Q1463 128 1508.5 148.5Q1554 169 1588.5 203.5Q1623 238 1643.5 283.5Q1664 329 1664 379V1669Q1664 1719 1643.5 1764.5Q1623 1810 1588.5 1844.5Q1554 1879 1508.5 1899.5Q1463 1920 1413 1920H635Q585 1920 539.5 1899.5Q494 1879 459.5 1844.5Q425 1810 404.5 1764.5Q384 1719 384 1669V379Q384 329 404.5 283.5Q425 238 459.5 203.5Q494 169 539.5 148.5Q585 128 635 128ZM512 1472V1728Q512 1754 531.0 1773.0Q550 1792 576 1792Q602 1792 621.0 1773.0Q640 1754 640 1728V1472Q640 1446 621.0 1427.0Q602 1408 576 1408Q550 1408 531.0 1427.0Q512 1446 512 1472ZM512 320V576Q512 602 531.0 621.0Q550 640 576 640Q602 640 621.0 621.0Q640 602 640 576V320Q640 294 621.0 275.0Q602 256 576 256Q550 256 531.0 275.0Q512 294 512 320Z"/>
  </g>
</svg>