<?xml version="1.0" encoding="utf-8"?>
<svg xmlns="http://www.w3.org/2000/svg" width="16" height="16" viewBox="0 0 2048 2048">
  <g transform="translate(0, 2048) scale(1, -1)">
    <path fill="#000000" d="M2049 64Q2049 38 2030.0 19.0Q2011 0 1985 0Q1958 0 1939 19L1718 240H192Q153 240 118.0 255.0Q83 270 56.5 296.5Q30 323 15.0 358.0Q0 393 0 432Q0 471 15.0 506.0Q30 541 56.5 567.5Q83 594 118.0 609.0Q153 624 192 624H1334L1206 752H320Q294 752 275.0 771.0Q256 790 256 816V998L167 1010Q126 1016 95.0 1034.0Q64 1052 43.0 1079.5Q22 1107 11.0 1142.5Q0 1178 0 1217Q0 1291 19.5 1361.5Q39 1432 78.0 1490.5Q117 1549 175.0 1590.5Q233 1632 310 1648L19 1939Q0 1958 0 1984Q0 2011 19.5 2029.5Q39 2048 65 2048Q91 2048 110 2029L2030 109Q2049 90 2049 64ZM2007 313 1914 406Q1920 418 1920 432V776L1536 827V784L1337 983L1923 905Q1924 920 1924.5 934.5Q1925 949 1925 964Q1925 990 1923.0 1016.0Q1921 1042 1915 1068Q1897 1143 1843.5 1198.0Q1790 1253 1718 1279Q1713 1281 1708.0 1282.5Q1703 1284 1698 1285L861 1459L696 1625L1725 1410Q1746 1406 1769 1396Q1917 1333 1985.0 1225.5Q2053 1118 2053 961Q2053 937 2052 913L2049 880Q2048 856 2048 832V432Q2048 366 2007 313ZM920 1038 422 1536Q345 1533 289.5 1507.5Q234 1482 198.0 1438.0Q162 1394 145.0 1333.5Q128 1273 128 1200Q128 1176 144.0 1158.0Q160 1140 184 1137ZM384 981V880H1078L1069 889ZM1590 368 1462 496H192Q166 496 147.0 477.0Q128 458 128 432Q128 406 147.0 387.0Q166 368 192 368Z"/>
  </g>
</svg>