<?xml version="1.0" encoding="utf-8"?>
<svg xmlns="http://www.w3.org/2000/svg" width="16" height="16" viewBox="0 0 2048 2048">
  <g transform="translate(0, 2048) scale(1, -1)">
    <path fill="#000000" d="M128 1152Q128 1276 160.0 1390.5Q192 1505 250.5 1604.5Q309 1704 390.5 1785.5Q472 1867 571.5 1925.5Q671 1984 785.5 2016.0Q900 2048 1024 2048Q1147 2048 1261.5 2016.0Q1376 1984 1475.5 1925.5Q1575 1867 1657.0 1785.0Q1739 1703 1797.5 1603.5Q1856 1504 1888.0 1389.5Q1920 1275 1920 1152Q1920 1050 1893.5 956.0Q1867 862 1821.5 775.5Q1776 689 1715.0 609.5Q1654 530 1585.5 456.5Q1517 383 1444.0 315.5Q1371 248 1301 184L1242 130Q1216 106 1193.0 84.0Q1170 62 1145.5 45.5Q1121 29 1092.0 19.5Q1063 10 1024 10Q985 10 956.0 19.5Q927 29 902.5 45.5Q878 62 855.0 84.0Q832 106 806 130L747 184Q677 247 604.0 315.0Q531 383 462.5 456.5Q394 530 333.0 609.5Q272 689 226.5 775.5Q181 862 154.5 956.0Q128 1050 128 1152ZM1351 1216Q1351 1250 1335.5 1278.5Q1320 1307 1291 1325L964 1529Q950 1538 932.0 1543.5Q914 1549 897 1549Q871 1549 847.5 1539.0Q824 1529 806.5 1511.5Q789 1494 778.5 1471.0Q768 1448 768 1421V1011Q768 984 778.5 961.0Q789 938 806.5 920.5Q824 903 847.5 893.0Q871 883 897 883Q914 883 932.0 888.5Q950 894 964 903L1291 1107Q1319 1124 1335.0 1153.5Q1351 1183 1351 1216Z"/>
  </g>
</svg>