<?xml version="1.0" encoding="utf-8"?>
<svg xmlns="http://www.w3.org/2000/svg" width="16" height="16" viewBox="0 0 2048 2048">
  <g transform="translate(0, 2048) scale(1, -1)">
    <path fill="#ffffff" d="M128 1152Q128 1276 160.0 1390.5Q192 1505 250.5 1604.5Q309 1704 390.5 1785.5Q472 1867 571.5 1925.5Q671 1984 785.5 2016.0Q900 2048 1024 2048Q1147 2048 1261.5 2016.0Q1376 1984 1475.5 1925.5Q1575 1867 1657.0 1785.0Q1739 1703 1797.5 1603.5Q1856 1504 1888.0 1389.5Q1920 1275 1920 1152Q1920 1050 1894.0 957.0Q1868 864 1822.5 777.5Q1777 691 1716.5 611.5Q1656 532 1588.0 459.0Q1520 386 1447.5 318.0Q1375 250 1305 187Q1289 173 1273 158L1210 100Q1194 86 1178 71Q1110 11 1024 11Q938 11 870 71Q854 86 838 100L775 158Q759 173 743 187Q673 250 600.5 318.0Q528 386 460.0 459.0Q392 532 331.5 611.5Q271 691 225.5 777.5Q180 864 154.0 957.0Q128 1050 128 1152ZM1024 138Q1044 138 1059.0 144.5Q1074 151 1090 163Q1115 183 1138.5 206.5Q1162 230 1185 251L1219 282Q1280 338 1346.5 399.0Q1413 460 1476.5 527.0Q1540 594 1597.5 666.0Q1655 738 1698.0 816.5Q1741 895 1766.5 978.5Q1792 1062 1792 1152Q1792 1311 1731.5 1450.5Q1671 1590 1566.5 1694.5Q1462 1799 1322.5 1859.5Q1183 1920 1024 1920Q865 1920 725.5 1859.5Q586 1799 481.5 1694.5Q377 1590 316.5 1450.5Q256 1311 256 1152Q256 1062 281.5 978.0Q307 894 350.0 816.0Q393 738 450.0 665.5Q507 593 571.0 526.5Q635 460 701.5 399.0Q768 338 829 282L863 251Q886 230 909.5 206.5Q933 183 958 163Q974 150 988.5 144.0Q1003 138 1024 138ZM768 1012V1421Q768 1448 778.0 1471.0Q788 1494 805.5 1511.5Q823 1529 846.0 1539.0Q869 1549 896 1549Q933 1549 964 1529L1291 1325Q1319 1308 1335.0 1278.0Q1351 1248 1351 1216Q1351 1183 1335.0 1154.0Q1319 1125 1291 1108L964 903Q949 893 931.5 888.5Q914 884 896 884Q869 884 846.0 894.0Q823 904 805.5 921.0Q788 938 778.0 961.5Q768 985 768 1012ZM896 1421V1011L1223 1216Z"/>
  </g>
</svg>