<?xml version="1.0" encoding="utf-8"?>
<svg xmlns="http://www.w3.org/2000/svg" width="16" height="16" viewBox="0 0 2048 2048">
  <g transform="translate(0, 2048) scale(1, -1)">
    <path fill="#000000" d="M864 1312Q864 1352 892.0 1380.0Q920 1408 960 1408Q1000 1408 1028.0 1380.0Q1056 1352 1056 1312Q1056 1272 1028.0 1244.0Q1000 1216 960 1216Q920 1216 892.0 1244.0Q864 1272 864 1312ZM896 640V960Q896 986 915.0 1005.0Q934 1024 960 1024Q986 1024 1005.0 1005.0Q1024 986 1024 960V640Q1024 614 1005.0 595.0Q986 576 960 576Q934 576 915.0 595.0Q896 614 896 640Z"/>
  </g>
</svg>