<?xml version="1.0" encoding="utf-8"?>
<svg xmlns="http://www.w3.org/2000/svg" width="16" height="16" viewBox="0 0 2048 2048">
  <g transform="translate(0, 2048) scale(1, -1)">
    <path fill="#ffffff" d="M1536 448V704Q1536 730 1555.0 749.0Q1574 768 1600 768Q1626 768 1645.0 749.0Q1664 730 1664 704V448Q1664 422 1645.0 403.0Q1626 384 1600 384Q1574 384 1555.0 403.0Q1536 422 1536 448ZM1520 192Q1520 225 1543.5 248.5Q1567 272 1600 272Q1633 272 1656.5 248.5Q1680 225 1680 192Q1680 159 1656.5 135.5Q1633 112 1600 112Q1567 112 1543.5 135.5Q1520 159 1520 192Z"/>
  </g>
</svg>