<?xml version="1.0" encoding="utf-8"?>
<svg xmlns="http://www.w3.org/2000/svg" width="16" height="16" viewBox="0 0 2048 2048">
  <g transform="translate(0, 2048) scale(1, -1)">
    <path fill="#ffffff" d="M1600 351 1489 239Q1469 219 1440 219Q1411 219 1391.5 239.0Q1372 259 1372 288Q1372 302 1376.5 314.5Q1381 327 1391 337L1503 448L1391 559Q1381 569 1376.5 581.5Q1372 594 1372 608Q1372 637 1391.0 657.0Q1410 677 1440 677Q1469 677 1489 657L1600 545L1711 657Q1731 677 1760 677Q1789 677 1809.0 657.0Q1829 637 1829 608Q1829 579 1809 559L1697 448L1809 337Q1829 317 1829 288Q1829 259 1809.0 239.0Q1789 219 1760 219Q1747 219 1733.5 224.5Q1720 230 1711 239Z"/>
  </g>
</svg>