<?xml version="1.0" encoding="utf-8"?>
<svg xmlns="http://www.w3.org/2000/svg" width="16" height="16" viewBox="0 0 2048 2048">
  <g transform="translate(0, 2048) scale(1, -1)">
    <path fill="#000000" d="M1024 0Q998 0 975.0 10.5Q952 21 934.5 38.5Q917 56 906.5 79.0Q896 102 896 128Q896 157 910 185L1357 1081Q1374 1115 1404.0 1133.5Q1434 1152 1472 1152Q1510 1152 1539.5 1133.5Q1569 1115 1586 1081L2034 185Q2048 157 2048 128Q2048 102 2037.5 79.0Q2027 56 2009.5 38.5Q1992 21 1969.0 10.5Q1946 0 1920 0Z"/>
  </g>
</svg>