<?xml version="1.0" encoding="utf-8"?>
<svg xmlns="http://www.w3.org/2000/svg" width="16" height="16" viewBox="0 0 2048 2048">
  <g transform="translate(0, 2048) scale(1, -1)">
    <path fill="#ffffff" d="M768 1600V1984Q768 2010 787.0 2029.0Q806 2048 832 2048H1216Q1242 2048 1261.0 2029.0Q1280 2010 1280 1984Q1280 1958 1261.0 1939.0Q1242 1920 1216 1920H987L1261 1645Q1280 1626 1280 1600Q1280 1574 1261.0 1555.0Q1242 1536 1216 1536Q1190 1536 1171 1555L896 1830V1600Q896 1574 877.0 1555.0Q858 1536 832 1536Q806 1536 787.0 1555.0Q768 1574 768 1600ZM64 1280Q37 1280 18.5 1299.0Q0 1318 0 1344Q0 1359 7 1373L327 2013Q335 2029 351.0 2037.0Q367 2045 384 2045Q403 2045 418.0 2037.5Q433 2030 441 2013L761 1373Q768 1359 768 1344Q768 1318 749.5 1299.0Q731 1280 704 1280ZM384 1841 168 1408H600Z"/>
  </g>
</svg>