<?xml version="1.0" encoding="utf-8"?>
<svg xmlns="http://www.w3.org/2000/svg" width="16" height="16" viewBox="0 0 2048 2048">
  <g transform="translate(0, 2048) scale(1, -1)">
    <path fill="#000000" d="M2048 576V64Q2048 38 2029.0 19.0Q2010 0 1984 0H1344Q1317 0 1298.5 18.5Q1280 37 1280 64V576Q1280 598 1288.0 610.5Q1296 623 1309.5 629.5Q1323 636 1339.5 638.0Q1356 640 1373 640H1408Q1408 663 1407.0 687.0Q1406 711 1406 736Q1406 769 1410.0 802.0Q1414 835 1427 866Q1458 938 1521.5 981.0Q1585 1024 1664 1024Q1717 1024 1763.5 1004.0Q1810 984 1845.0 949.0Q1880 914 1900.0 867.5Q1920 821 1920 768V640H1952Q1969 640 1986.0 638.0Q2003 636 2017.0 629.5Q2031 623 2039.5 610.5Q2048 598 2048 576ZM1536 640H1792V768Q1792 795 1782.0 818.0Q1772 841 1754.5 858.5Q1737 876 1714.0 886.0Q1691 896 1664 896Q1637 896 1614.0 886.0Q1591 876 1573.5 858.5Q1556 841 1546.0 818.0Q1536 795 1536 768ZM1792 320Q1792 346 1782.0 369.5Q1772 393 1754.5 410.5Q1737 428 1713.5 438.0Q1690 448 1664 448Q1637 448 1614.0 438.0Q1591 428 1573.5 410.5Q1556 393 1546.0 370.0Q1536 347 1536 320Q1536 293 1546.0 269.5Q1556 246 1573.0 229.0Q1590 212 1613.5 202.0Q1637 192 1664 192Q1690 192 1713.5 202.0Q1737 212 1754.5 229.5Q1772 247 1782.0 270.5Q1792 294 1792 320Z"/>
  </g>
</svg>