<?xml version="1.0" encoding="utf-8"?>
<svg xmlns="http://www.w3.org/2000/svg" width="16" height="16" viewBox="0 0 2048 2048">
  <g transform="translate(0, 2048) scale(1, -1)">
    <path fill="#ffffff" d="M1600 0Q1598 0 1593.0 0.5Q1588 1 1586 2Q1555 10 1520.5 23.5Q1486 37 1452.0 54.5Q1418 72 1387.0 92.0Q1356 112 1332 133Q1290 170 1257.5 214.0Q1225 258 1205 311Q1197 333 1187.5 365.5Q1178 398 1170.0 432.5Q1162 467 1157.0 500.0Q1152 533 1152 555V811Q1152 829 1166 841Q1174 849 1180.0 850.5Q1186 852 1197 853Q1251 855 1299.5 864.5Q1348 874 1398 895Q1472 926 1535 980Q1543 988 1551.5 996.5Q1560 1005 1568 1012Q1581 1024 1600 1024Q1617 1024 1632 1012Q1636 1008 1640 1004L1657 988Q1661 984 1665 980Q1728 926 1802 895Q1853 874 1901.0 865.0Q1949 856 2003 853Q2011 852 2017.5 850.5Q2024 849 2031 844Q2036 840 2041.5 833.0Q2047 826 2047 819Q2047 784 2047 748L2048 609Q2048 574 2048 538Q2048 441 2015.5 353.0Q1983 265 1925.5 193.5Q1868 122 1788.0 72.5Q1708 23 1614 2Q1610 1 1607.0 0.5Q1604 0 1600 0ZM1661 705Q1661 731 1642.0 750.0Q1623 769 1597 769Q1571 769 1552.0 750.0Q1533 731 1533 705V513Q1533 487 1552.0 468.0Q1571 449 1597 449Q1623 449 1642.0 468.0Q1661 487 1661 513ZM1661 320Q1661 346 1642.5 365.5Q1624 385 1597 385Q1570 385 1551.5 365.5Q1533 346 1533 320Q1533 294 1552.0 275.0Q1571 256 1597 256Q1623 256 1642.0 275.0Q1661 294 1661 320Z"/>
  </g>
</svg>