<?xml version="1.0" encoding="utf-8"?>
<svg xmlns="http://www.w3.org/2000/svg" width="16" height="16" viewBox="0 0 2048 2048">
  <g transform="translate(0, 2048) scale(1, -1)">
    <path fill="#ffffff" d="M1664 0H1656Q1578 0 1509.5 31.0Q1441 62 1390.0 115.0Q1339 168 1309.5 237.5Q1280 307 1280 384Q1280 464 1310.0 534.0Q1340 604 1392.0 656.0Q1444 708 1514.0 738.0Q1584 768 1664 768Q1741 768 1810.5 738.5Q1880 709 1933.0 658.0Q1986 607 2017.0 538.5Q2048 470 2048 392V384H1920V389Q1920 441 1899.0 486.5Q1878 532 1843.0 566.0Q1808 600 1761.5 620.0Q1715 640 1664 640Q1611 640 1564.5 619.5Q1518 599 1483.5 564.5Q1449 530 1428.5 483.0Q1408 436 1408 384Q1408 334 1427.5 288.0Q1447 242 1481.0 206.5Q1515 171 1560.0 149.5Q1605 128 1656 128H1664Z"/>
  </g>
</svg>