<?xml version="1.0" encoding="utf-8"?>
<svg xmlns="http://www.w3.org/2000/svg" width="16" height="16" viewBox="0 0 2048 2048">
  <g transform="translate(0, 2048) scale(1, -1)">
    <path fill="#ffffff" d="M207 0Q168 0 133.5 15.0Q99 30 72.5 55.5Q46 81 30.5 115.5Q15 150 15 189Q15 235 35 277L788 1783Q813 1833 859.0 1861.0Q905 1889 960 1889Q1015 1889 1061.0 1861.0Q1107 1833 1132 1783L1885 277Q1905 235 1905 189Q1905 150 1889.5 115.5Q1874 81 1848.0 55.5Q1822 30 1787.0 15.0Q1752 0 1713 0Z"/>
  </g>
</svg>