<?xml version="1.0" encoding="utf-8"?>
<svg xmlns="http://www.w3.org/2000/svg" width="16" height="16" viewBox="0 0 2048 2048">
  <g transform="translate(0, 2048) scale(1, -1)">
    <path fill="#000000" d="M0 1088Q0 1220 34.5 1342.5Q69 1465 131.5 1572.0Q194 1679 281.5 1766.5Q369 1854 476.0 1916.5Q583 1979 705.5 2013.5Q828 2048 960 2048Q1092 2048 1214.5 2013.5Q1337 1979 1443.5 1916.5Q1550 1854 1638.0 1766.0Q1726 1678 1788.5 1571.5Q1851 1465 1885.5 1342.5Q1920 1220 1920 1088Q1920 956 1885.5 833.5Q1851 711 1788.5 604.0Q1726 497 1638.5 409.5Q1551 322 1444.0 259.5Q1337 197 1214.5 162.5Q1092 128 960 128Q827 128 704.5 162.5Q582 197 475.5 259.5Q369 322 281.5 409.5Q194 497 131.5 603.5Q69 710 34.5 833.0Q0 956 0 1088ZM608 656Q623 656 638.5 662.0Q654 668 665 679L960 975L1255 679Q1266 668 1281.5 662.0Q1297 656 1312 656Q1346 656 1369.0 679.0Q1392 702 1392 736Q1392 770 1369 793L1073 1088L1369 1383Q1392 1406 1392 1440Q1392 1474 1369.0 1497.0Q1346 1520 1312 1520Q1278 1520 1255 1497L960 1201L665 1497Q642 1520 608 1520Q574 1520 551.0 1497.0Q528 1474 528 1440Q528 1425 534.0 1409.5Q540 1394 551 1383L847 1088L551 793Q540 782 534.0 766.5Q528 751 528 736Q528 703 551.5 679.5Q575 656 608 656Z"/>
  </g>
</svg>