<?xml version="1.0" encoding="utf-8"?>
<svg xmlns="http://www.w3.org/2000/svg" width="16" height="16" viewBox="0 0 2048 2048">
  <g transform="translate(0, 2048) scale(1, -1)">
    <path fill="#000000" d="M256 1827Q227 1810 194.5 1801.0Q162 1792 128 1792Q102 1792 83.0 1811.0Q64 1830 64 1856Q64 1885 78.5 1897.5Q93 1910 113.5 1916.0Q134 1922 156.5 1925.5Q179 1929 196 1940Q211 1950 224.5 1963.5Q238 1977 249 1991Q250 1992 257.5 2002.5Q265 2013 265 2015L263 2013Q272 2028 287.0 2038.0Q302 2048 320 2048Q347 2048 365.5 2029.5Q384 2011 384 1984V1472Q384 1446 365.0 1427.0Q346 1408 320 1408Q294 1408 275.0 1427.0Q256 1446 256 1472Z"/>
  </g>
</svg>