<?xml version="1.0" encoding="utf-8"?>
<svg xmlns="http://www.w3.org/2000/svg" width="16" height="16" viewBox="0 0 2048 2048">
  <g transform="translate(0, 2048) scale(1, -1)">
    <path fill="#000000" d="M896 832V1152Q896 1178 915.0 1197.0Q934 1216 960 1216Q986 1216 1005.0 1197.0Q1024 1178 1024 1152V832Q1024 806 1005.0 787.0Q986 768 960 768Q934 768 915.0 787.0Q896 806 896 832ZM864 480Q864 520 892.0 548.0Q920 576 960 576Q1000 576 1028.0 548.0Q1056 520 1056 480Q1056 440 1028.0 412.0Q1000 384 960 384Q920 384 892.0 412.0Q864 440 864 480Z"/>
  </g>
</svg>