<?xml version="1.0" encoding="utf-8"?>
<svg xmlns="http://www.w3.org/2000/svg" width="16" height="16" viewBox="0 0 2048 2048">
  <g transform="translate(0, 2048) scale(1, -1)">
    <path fill="#000000" d="M0 576Q0 695 45.5 800.0Q91 905 169.0 983.0Q247 1061 352.0 1106.5Q457 1152 576 1152Q655 1152 728.5 1131.5Q802 1111 866.0 1073.5Q930 1036 983.0 983.0Q1036 930 1073.5 866.0Q1111 802 1131.5 728.5Q1152 655 1152 576Q1152 457 1106.5 352.0Q1061 247 983.0 169.0Q905 91 800.0 45.5Q695 0 576 0Q456 0 351.0 45.0Q246 90 168.0 168.0Q90 246 45.0 351.0Q0 456 0 576Z"/>
  </g>
</svg>