<?xml version="1.0" encoding="utf-8"?>
<svg xmlns="http://www.w3.org/2000/svg" width="16" height="16" viewBox="0 0 2048 2048">
  <g transform="translate(0, 2048) scale(1, -1)">
    <path fill="#000000" d="M896 1408H640Q613 1408 589.5 1418.0Q566 1428 549.0 1445.0Q532 1462 522.0 1485.5Q512 1509 512 1536V1797Q512 1849 533.0 1894.5Q554 1940 589.0 1974.0Q624 2008 670.5 2028.0Q717 2048 768 2048Q819 2048 865.5 2028.0Q912 2008 947.0 1974.0Q982 1940 1003.0 1894.5Q1024 1849 1024 1797V1536Q1024 1509 1014.0 1486.0Q1004 1463 986.5 1445.5Q969 1428 946.0 1418.0Q923 1408 896 1408ZM143 1536H320Q346 1536 365.0 1517.0Q384 1498 384 1472Q384 1446 365.0 1427.0Q346 1408 320 1408H64Q44 1408 32.0 1415.5Q20 1423 12.5 1435.0Q5 1447 2.5 1462.0Q0 1477 0 1493Q0 1528 9.0 1556.5Q18 1585 40 1612Q75 1656 115.0 1695.0Q155 1734 196 1772Q205 1781 215.5 1790.0Q226 1799 235.0 1809.0Q244 1819 250.0 1830.5Q256 1842 256 1856Q256 1887 238.5 1903.0Q221 1919 191 1919Q169 1919 157.5 1909.5Q146 1900 139.5 1886.5Q133 1873 129.0 1856.5Q125 1840 118.0 1826.5Q111 1813 98.5 1803.5Q86 1794 63 1794Q37 1794 18.5 1812.0Q0 1830 0 1856Q0 1893 15.0 1927.5Q30 1962 55.0 1988.5Q80 2015 113.5 2031.0Q147 2047 185 2047Q227 2047 263.5 2033.5Q300 2020 327.0 1995.0Q354 1970 369.0 1934.5Q384 1899 384 1856Q384 1817 371.5 1787.0Q359 1757 338.5 1732.5Q318 1708 292.5 1685.5Q267 1663 241 1638Q215 1613 190.5 1588.0Q166 1563 143 1536ZM896 1792Q896 1818 886.0 1841.5Q876 1865 858.5 1882.5Q841 1900 817.5 1910.0Q794 1920 768 1920Q741 1920 718.0 1910.0Q695 1900 677.5 1882.5Q660 1865 650.0 1842.0Q640 1819 640 1792Z"/>
  </g>
</svg>