<?xml version="1.0" encoding="utf-8"?>
<svg xmlns="http://www.w3.org/2000/svg" width="16" height="16" viewBox="0 0 2048 2048">
  <g transform="translate(0, 2048) scale(1, -1)">
    <path fill="#000000" d="M384 1984V1472Q384 1446 365.0 1427.0Q346 1408 320 1408Q294 1408 275.0 1427.0Q256 1446 256 1472V1827Q227 1810 194.5 1801.0Q162 1792 128 1792Q102 1792 83.0 1811.0Q64 1830 64 1856Q64 1885 78.5 1897.5Q93 1910 113.5 1916.0Q134 1922 156.5 1925.5Q179 1929 196 1940Q211 1950 224.5 1963.5Q238 1977 249 1991Q250 1992 257.5 2002.5Q265 2013 265 2015L263 2013Q272 2028 287.0 2038.0Q302 2048 320 2048Q347 2048 365.5 2029.5Q384 2011 384 1984ZM896 1408H640Q613 1408 589.5 1418.0Q566 1428 549.0 1445.0Q532 1462 522.0 1485.5Q512 1509 512 1536V1797Q512 1849 533.0 1894.5Q554 1940 589.0 1974.0Q624 2008 670.5 2028.0Q717 2048 768 2048Q819 2048 865.5 2028.0Q912 2008 947.0 1974.0Q982 1940 1003.0 1894.5Q1024 1849 1024 1797V1536Q1024 1509 1014.0 1486.0Q1004 1463 986.5 1445.5Q969 1428 946.0 1418.0Q923 1408 896 1408ZM896 1792Q896 1818 886.0 1841.5Q876 1865 858.5 1882.5Q841 1900 817.5 1910.0Q794 1920 768 1920Q741 1920 718.0 1910.0Q695 1900 677.5 1882.5Q660 1865 650.0 1842.0Q640 1819 640 1792Z"/>
  </g>
</svg>