<?xml version="1.0" encoding="utf-8"?>
<svg xmlns="http://www.w3.org/2000/svg" width="16" height="16" viewBox="0 0 2048 2048">
  <g transform="translate(0, 2048) scale(1, -1)">
    <path fill="#ffffff" d="M896 960V1280Q896 1306 915.0 1325.0Q934 1344 960 1344Q986 1344 1005.0 1325.0Q1024 1306 1024 1280V960Q1024 934 1005.0 915.0Q986 896 960 896Q934 896 915.0 915.0Q896 934 896 960ZM864 608Q864 648 892.0 676.0Q920 704 960 704Q1000 704 1028.0 676.0Q1056 648 1056 608Q1056 568 1028.0 540.0Q1000 512 960 512Q920 512 892.0 540.0Q864 568 864 608Z"/>
  </g>
</svg>