<?xml version="1.0" encoding="utf-8"?>
<svg xmlns="http://www.w3.org/2000/svg" width="16" height="16" viewBox="0 0 2048 2048">
  <g transform="translate(0, 2048) scale(1, -1)">
    <path fill="#000000" d="M1152 448V456Q1152 547 1188.5 627.0Q1225 707 1286.5 767.0Q1348 827 1429.5 861.5Q1511 896 1600 896Q1692 896 1773.5 860.5Q1855 825 1916.0 764.0Q1977 703 2012.5 621.5Q2048 540 2048 448Q2048 356 2012.5 274.5Q1977 193 1916.0 132.0Q1855 71 1773.5 35.5Q1692 0 1600 0Q1508 0 1426.5 35.5Q1345 71 1284.0 132.0Q1223 193 1187.5 274.5Q1152 356 1152 448Z"/>
  </g>
</svg>