<?xml version="1.0" encoding="utf-8"?>
<svg xmlns="http://www.w3.org/2000/svg" width="16" height="16" viewBox="0 0 2048 2048">
  <g transform="translate(0, 2048) scale(1, -1)">
    <path fill="#000000" d="M384 1408H128Q101 1408 77.5 1418.0Q54 1428 37.0 1445.0Q20 1462 10.0 1485.5Q0 1509 0 1536V1797Q0 1849 21.0 1894.5Q42 1940 77.0 1974.0Q112 2008 158.5 2028.0Q205 2048 256 2048Q307 2048 353.5 2028.0Q400 2008 435.0 1974.0Q470 1940 491.0 1894.5Q512 1849 512 1797V1536Q512 1509 502.0 1486.0Q492 1463 474.5 1445.5Q457 1428 434.0 1418.0Q411 1408 384 1408ZM859 1920 1133 1645Q1152 1626 1152 1600Q1152 1574 1133.0 1555.0Q1114 1536 1088 1536Q1062 1536 1043 1555L768 1830V1600Q768 1574 749.0 1555.0Q730 1536 704 1536Q678 1536 659.0 1555.0Q640 1574 640 1600V1984Q640 2010 659.0 2029.0Q678 2048 704 2048H1088Q1114 2048 1133.0 2029.0Q1152 2010 1152 1984Q1152 1958 1133.0 1939.0Q1114 1920 1088 1920ZM384 1792Q384 1818 374.0 1841.5Q364 1865 346.5 1882.5Q329 1900 305.5 1910.0Q282 1920 256 1920Q229 1920 206.0 1910.0Q183 1900 165.5 1882.5Q148 1865 138.0 1842.0Q128 1819 128 1792Z"/>
  </g>
</svg>