<?xml version="1.0" encoding="utf-8"?>
<svg xmlns="http://www.w3.org/2000/svg" width="16" height="16" viewBox="0 0 2048 2048">
  <g transform="translate(0, 2048) scale(1, -1)">
    <path fill="#000000" d="M1408 1344V1088Q1408 1062 1389.0 1043.0Q1370 1024 1344 1024H1088Q1062 1024 1043.0 1043.0Q1024 1062 1024 1088Q1024 1114 1043.0 1133.0Q1062 1152 1088 1152H1216Q1168 1212 1103.0 1246.0Q1038 1280 960 1280Q905 1280 857.5 1264.0Q810 1248 771.5 1218.5Q733 1189 703.5 1148.0Q674 1107 655 1057Q647 1037 631.5 1025.0Q616 1013 594 1013Q568 1013 549.0 1031.5Q530 1050 530 1076Q530 1085 533 1096Q553 1165 595.5 1222.5Q638 1280 695.5 1321.5Q753 1363 821.0 1385.5Q889 1408 960 1408Q1050 1408 1133.5 1373.5Q1217 1339 1280 1274Q1280 1283 1279.5 1293.0Q1279 1303 1279 1314Q1279 1331 1281.0 1347.5Q1283 1364 1289.5 1377.5Q1296 1391 1309.0 1399.5Q1322 1408 1344 1408Q1370 1408 1389.0 1389.0Q1408 1370 1408 1344ZM1386 830Q1386 820 1382 809Q1356 741 1313.5 686.0Q1271 631 1215.5 592.5Q1160 554 1094.0 533.0Q1028 512 956 512Q867 512 785.0 547.5Q703 583 640 646Q640 637 640.5 627.0Q641 617 641 606Q641 589 639.0 572.0Q637 555 630.0 541.5Q623 528 610.5 520.0Q598 512 576 512Q550 512 531.0 531.0Q512 550 512 576V832Q512 848 519.5 861.0Q527 874 538.5 882.5Q550 891 565.0 895.5Q580 900 595 900Q608 900 619 896H832Q858 896 877.0 877.0Q896 858 896 832Q896 806 877.0 787.0Q858 768 832 768H704Q753 705 819.5 672.5Q886 640 966 640Q1016 640 1059.0 655.0Q1102 670 1143 698Q1189 730 1215.0 765.5Q1241 801 1261 852Q1269 871 1285.0 883.0Q1301 895 1322 895Q1349 895 1367.5 875.5Q1386 856 1386 830Z"/>
  </g>
</svg>