<?xml version="1.0" encoding="utf-8"?>
<svg xmlns="http://www.w3.org/2000/svg" width="16" height="16" viewBox="0 0 2048 2048">
  <g transform="translate(0, 2048) scale(1, -1)">
    <path fill="#ffffff" d="M384 1408H128Q101 1408 77.5 1418.0Q54 1428 37.0 1445.0Q20 1462 10.0 1485.5Q0 1509 0 1536V1797Q0 1849 21.0 1894.5Q42 1940 77.0 1974.0Q112 2008 158.5 2028.0Q205 2048 256 2048Q307 2048 353.5 2028.0Q400 2008 435.0 1974.0Q470 1940 491.0 1894.5Q512 1849 512 1797V1536Q512 1509 502.0 1486.0Q492 1463 474.5 1445.5Q457 1428 434.0 1418.0Q411 1408 384 1408ZM384 1792Q384 1818 374.0 1841.5Q364 1865 346.5 1882.5Q329 1900 305.5 1910.0Q282 1920 256 1920Q229 1920 206.0 1910.0Q183 1900 165.5 1882.5Q148 1865 138.0 1842.0Q128 1819 128 1792Z"/>
  </g>
</svg>