<?xml version="1.0" encoding="utf-8"?>
<svg xmlns="http://www.w3.org/2000/svg" width="16" height="16" viewBox="0 0 2048 2048">
  <g transform="translate(0, 2048) scale(1, -1)">
    <path fill="#ffffff" d="M496 832Q496 865 519.5 888.5Q543 912 576 912Q609 912 632.5 888.5Q656 865 656 832Q656 799 632.5 775.5Q609 752 576 752Q543 752 519.5 775.5Q496 799 496 832ZM512 320V576Q512 602 531.0 621.0Q550 640 576 640Q602 640 621.0 621.0Q640 602 640 576V320Q640 294 621.0 275.0Q602 256 576 256Q550 256 531.0 275.0Q512 294 512 320Z"/>
  </g>
</svg>