<?xml version="1.0" encoding="utf-8"?>
<svg xmlns="http://www.w3.org/2000/svg" width="16" height="16" viewBox="0 0 2048 2048">
  <g transform="translate(0, 2048) scale(1, -1)">
    <path fill="#000000" d="M512 448V833Q512 859 531.0 878.0Q550 897 576 897Q602 897 621.0 878.0Q640 859 640 833V448Q640 422 621.0 403.0Q602 384 576 384Q550 384 531.0 403.0Q512 422 512 448ZM512 192Q512 219 530.5 237.5Q549 256 576 256Q602 256 621.0 237.0Q640 218 640 192Q640 166 621.0 147.0Q602 128 576 128Q550 128 531.0 147.0Q512 166 512 192Z"/>
  </g>
</svg>