<?xml version="1.0" encoding="utf-8"?>
<svg xmlns="http://www.w3.org/2000/svg" width="16" height="16" viewBox="0 0 2048 2048">
  <g transform="translate(0, 2048) scale(1, -1)">
    <path fill="#000000" d="M1392 832Q1392 865 1415.5 888.5Q1439 912 1472 912Q1505 912 1528.5 888.5Q1552 865 1552 832Q1552 799 1528.5 775.5Q1505 752 1472 752Q1439 752 1415.5 775.5Q1392 799 1392 832ZM1408 320V576Q1408 602 1427.0 621.0Q1446 640 1472 640Q1498 640 1517.0 621.0Q1536 602 1536 576V320Q1536 294 1517.0 275.0Q1498 256 1472 256Q1446 256 1427.0 275.0Q1408 294 1408 320Z"/>
  </g>
</svg>