<?xml version="1.0" encoding="utf-8"?>
<svg xmlns="http://www.w3.org/2000/svg" width="16" height="16" viewBox="0 0 2048 2048">
  <g transform="translate(0, 2048) scale(1, -1)">
    <path fill="#ffffff" d="M896 1984Q896 1958 877 1939L512 1574V1472Q512 1446 493.0 1427.0Q474 1408 448 1408Q422 1408 403.0 1427.0Q384 1446 384 1472V1574L19 1939Q0 1958 0 1984Q0 2010 19.0 2029.0Q38 2048 64 2048H832Q858 2048 877.0 2029.0Q896 2010 896 1984ZM1280 1408H1024Q997 1408 973.5 1418.0Q950 1428 933.0 1445.0Q916 1462 906.0 1485.5Q896 1509 896 1536V1797Q896 1849 917.0 1894.5Q938 1940 973.0 1974.0Q1008 2008 1054.5 2028.0Q1101 2048 1152 2048Q1203 2048 1249.5 2028.0Q1296 2008 1331.0 1974.0Q1366 1940 1387.0 1894.5Q1408 1849 1408 1797V1536Q1408 1509 1398.0 1486.0Q1388 1463 1370.5 1445.5Q1353 1428 1330.0 1418.0Q1307 1408 1280 1408ZM219 1920 384 1755V1920ZM512 1920V1755L678 1920ZM1280 1792Q1280 1818 1270.0 1841.5Q1260 1865 1242.5 1882.5Q1225 1900 1201.5 1910.0Q1178 1920 1152 1920Q1125 1920 1102.0 1910.0Q1079 1900 1061.5 1882.5Q1044 1865 1034.0 1842.0Q1024 1819 1024 1792Z"/>
  </g>
</svg>