<?xml version="1.0" encoding="utf-8"?>
<svg xmlns="http://www.w3.org/2000/svg" width="16" height="16" viewBox="0 0 2048 2048">
  <g transform="translate(0, 2048) scale(1, -1)">
    <path fill="#000000" d="M576 479 369 271Q349 251 320 251Q291 251 271.5 271.0Q252 291 252 320Q252 334 256.5 346.5Q261 359 271 369L479 576L271 783Q261 793 256.5 805.5Q252 818 252 832Q252 861 271.0 881.0Q290 901 320 901Q349 901 369 881L576 673L783 881Q803 901 832 901Q861 901 881.0 881.0Q901 861 901 832Q901 803 881 783L673 576L881 369Q901 349 901 320Q901 291 881.0 271.0Q861 251 832 251Q819 251 805.5 256.5Q792 262 783 271Z"/>
  </g>
</svg>