<?xml version="1.0" encoding="utf-8"?>
<svg xmlns="http://www.w3.org/2000/svg" width="16" height="16" viewBox="0 0 2048 2048">
  <g transform="translate(0, 2048) scale(1, -1)">
    <path fill="#ffffff" d="M960 870 749 659Q730 640 704 640Q678 640 659.0 659.0Q640 678 640 704Q640 730 659 749L870 960L659 1171Q640 1190 640 1216Q640 1242 659.0 1261.0Q678 1280 704 1280Q730 1280 749 1261L960 1051L1171 1261Q1190 1280 1216 1280Q1242 1280 1261.0 1261.0Q1280 1242 1280 1216Q1280 1190 1261 1171L1051 960L1261 749Q1280 730 1280 704Q1280 678 1261.0 659.0Q1242 640 1216 640Q1190 640 1171 659Z"/>
  </g>
</svg>