<?xml version="1.0" encoding="utf-8"?>
<svg xmlns="http://www.w3.org/2000/svg" width="16" height="16" viewBox="0 0 2048 2048">
  <g transform="translate(0, 2048) scale(1, -1)">
    <path fill="#000000" d="M896 896Q896 937 910.0 969.0Q924 1001 945.5 1026.5Q967 1052 992.0 1073.5Q1017 1095 1038.5 1117.0Q1060 1139 1074.0 1162.5Q1088 1186 1088 1216Q1088 1243 1078.0 1266.5Q1068 1290 1051.0 1307.0Q1034 1324 1010.5 1333.5Q987 1343 960 1343Q933 1343 910.0 1333.5Q887 1324 869.5 1306.5Q852 1289 842.0 1266.0Q832 1243 832 1216Q832 1190 813.0 1171.0Q794 1152 768 1152Q742 1152 723.0 1171.0Q704 1190 704 1216Q704 1270 724.0 1316.0Q744 1362 778.5 1396.5Q813 1431 860.0 1450.5Q907 1470 960 1470Q1013 1470 1060.0 1450.5Q1107 1431 1141.5 1396.5Q1176 1362 1196.0 1316.0Q1216 1270 1216 1216Q1216 1169 1202.0 1134.5Q1188 1100 1165.0 1070.5Q1142 1041 1113.0 1013.5Q1084 986 1053 955Q1039 941 1031.5 928.5Q1024 916 1024 896Q1024 870 1005.0 851.0Q986 832 960 832Q934 832 915.0 851.0Q896 870 896 896ZM864 608Q864 648 892.0 676.0Q920 704 960 704Q1000 704 1028.0 676.0Q1056 648 1056 608Q1056 568 1028.0 540.0Q1000 512 960 512Q920 512 892.0 540.0Q864 568 864 608Z"/>
  </g>
</svg>