<?xml version="1.0" encoding="utf-8"?>
<svg xmlns="http://www.w3.org/2000/svg" width="16" height="16" viewBox="0 0 2048 2048">
  <g transform="translate(0, 2048) scale(1, -1)">
    <path fill="#ffffff" d="M0 960Q0 1093 34.0 1215.5Q68 1338 130.5 1445.0Q193 1552 280.5 1639.5Q368 1727 475.0 1789.5Q582 1852 704.5 1886.0Q827 1920 960 1920Q1093 1920 1215.5 1886.0Q1338 1852 1445.0 1789.5Q1552 1727 1639.5 1639.5Q1727 1552 1789.5 1445.0Q1852 1338 1886.0 1215.5Q1920 1093 1920 960Q1920 827 1886.0 704.5Q1852 582 1789.5 475.0Q1727 368 1639.5 280.5Q1552 193 1445.0 130.5Q1338 68 1215.5 34.0Q1093 0 960 0Q827 0 704.0 34.0Q581 68 474.5 130.5Q368 193 280.5 280.5Q193 368 130.5 474.5Q68 581 34.0 704.0Q0 827 0 960Z"/>
  </g>
</svg>