<?xml version="1.0" encoding="utf-8"?>
<svg xmlns="http://www.w3.org/2000/svg" width="16" height="16" viewBox="0 0 2048 2048">
  <g transform="translate(0, 2048) scale(1, -1)">
    <path fill="#ffffff" d="M128 960Q128 1075 158.0 1181.0Q188 1287 242.0 1379.5Q296 1472 372.0 1548.0Q448 1624 540.5 1678.0Q633 1732 739.0 1762.0Q845 1792 960 1792Q1075 1792 1181.0 1762.0Q1287 1732 1379.5 1678.0Q1472 1624 1548.0 1548.0Q1624 1472 1678.0 1379.5Q1732 1287 1762.0 1181.0Q1792 1075 1792 960Q1792 845 1762.0 739.0Q1732 633 1678.0 540.5Q1624 448 1548.0 372.0Q1472 296 1379.5 242.0Q1287 188 1181.0 158.0Q1075 128 960 128Q845 128 739.0 158.0Q633 188 540.5 242.0Q448 296 372.0 372.0Q296 448 242.0 540.5Q188 633 158.0 739.0Q128 845 128 960ZM1664 960Q1664 1057 1639.0 1147.0Q1614 1237 1568.0 1315.0Q1522 1393 1457.5 1457.5Q1393 1522 1315.0 1568.0Q1237 1614 1147.0 1639.0Q1057 1664 960 1664Q863 1664 773.0 1639.0Q683 1614 605.0 1568.0Q527 1522 462.5 1457.5Q398 1393 352.0 1315.0Q306 1237 281.0 1147.0Q256 1057 256 960Q256 863 281.0 773.0Q306 683 352.0 605.0Q398 527 462.5 462.5Q527 398 605.0 352.0Q683 306 773.0 281.0Q863 256 960 256Q1057 256 1147.0 281.0Q1237 306 1315.0 352.0Q1393 398 1457.5 462.5Q1522 527 1568.0 605.0Q1614 683 1639.0 773.0Q1664 863 1664 960Z"/>
  </g>
</svg>