<?xml version="1.0" encoding="utf-8"?>
<svg xmlns="http://www.w3.org/2000/svg" width="16" height="16" viewBox="0 0 2048 2048">
  <g transform="translate(0, 2048) scale(1, -1)">
    <path fill="#000000" d="M0 1600V1984Q0 2010 19.0 2029.0Q38 2048 64 2048H448Q474 2048 493.0 2029.0Q512 2010 512 1984Q512 1958 493.0 1939.0Q474 1920 448 1920H219L493 1645Q512 1626 512 1600Q512 1574 493.0 1555.0Q474 1536 448 1536Q422 1536 403 1555L128 1830V1600Q128 1574 109.0 1555.0Q90 1536 64 1536Q38 1536 19.0 1555.0Q0 1574 0 1600Z"/>
  </g>
</svg>