<?xml version="1.0" encoding="utf-8"?>
<svg xmlns="http://www.w3.org/2000/svg" width="16" height="16" viewBox="0 0 2048 2048">
  <g transform="translate(0, 2048) scale(1, -1)">
    <path fill="#ffffff" d="M1408 320V576Q1408 602 1427.0 621.0Q1446 640 1472 640Q1498 640 1517.0 621.0Q1536 602 1536 576V320Q1536 294 1517.0 275.0Q1498 256 1472 256Q1446 256 1427.0 275.0Q1408 294 1408 320ZM1664 320V576Q1664 602 1683.0 621.0Q1702 640 1728 640Q1754 640 1773.0 621.0Q1792 602 1792 576V320Q1792 294 1773.0 275.0Q1754 256 1728 256Q1702 256 1683.0 275.0Q1664 294 1664 320Z"/>
  </g>
</svg>