<?xml version="1.0" encoding="utf-8"?>
<svg xmlns="http://www.w3.org/2000/svg" width="16" height="16" viewBox="0 0 2048 2048">
  <g transform="translate(0, 2048) scale(1, -1)">
    <path fill="#ffffff" d="M1408 448V833Q1408 859 1427.0 878.0Q1446 897 1472 897Q1498 897 1517.0 878.0Q1536 859 1536 833V448Q1536 422 1517.0 403.0Q1498 384 1472 384Q1446 384 1427.0 403.0Q1408 422 1408 448ZM1408 192Q1408 219 1426.5 237.5Q1445 256 1472 256Q1498 256 1517.0 237.0Q1536 218 1536 192Q1536 166 1517.0 147.0Q1498 128 1472 128Q1446 128 1427.0 147.0Q1408 166 1408 192Z"/>
  </g>
</svg>