<?xml version="1.0" encoding="utf-8"?>
<svg xmlns="http://www.w3.org/2000/svg" width="16" height="16" viewBox="0 0 2048 2048">
  <g transform="translate(0, 2048) scale(1, -1)">
    <path fill="#000000" d="M361 1280Q348 1280 333.0 1283.0Q318 1286 307 1292Q227 1335 169.0 1395.5Q111 1456 73.5 1529.5Q36 1603 18.0 1686.0Q0 1769 0 1857Q0 1885 5.5 1912.5Q11 1940 23.0 1963.5Q35 1987 55.0 2005.0Q75 2023 104 2033Q117 2038 130.5 2043.0Q144 2048 158 2048Q184 2048 201.0 2035.5Q218 2023 229.0 2004.0Q240 1985 247.5 1962.5Q255 1940 263 1921Q268 1908 270.5 1895.5Q273 1883 273 1869Q273 1838 260.5 1815.5Q248 1793 232.5 1776.5Q217 1760 204.5 1747.5Q192 1735 192 1725Q192 1714 201.5 1687.0Q211 1660 225.0 1632.5Q239 1605 253.5 1584.0Q268 1563 279 1563Q288 1563 301.5 1568.5Q315 1574 330.0 1580.0Q345 1586 360.0 1591.5Q375 1597 387 1597Q404 1597 417.5 1589.0Q431 1581 439 1567Q449 1551 461.5 1533.5Q474 1516 485.0 1497.0Q496 1478 504.0 1458.5Q512 1439 512 1420Q512 1393 498.0 1368.0Q484 1343 462.5 1323.5Q441 1304 414.0 1292.0Q387 1280 361 1280Z"/>
  </g>
</svg>