<?xml version="1.0" encoding="utf-8"?>
<svg xmlns="http://www.w3.org/2000/svg" width="16" height="16" viewBox="0 0 2048 2048">
  <g transform="translate(0, 2048) scale(1, -1)">
    <path fill="#000000" d="M1472 479 1265 271Q1245 251 1216 251Q1187 251 1167.5 271.0Q1148 291 1148 320Q1148 334 1152.5 346.5Q1157 359 1167 369L1375 576L1167 783Q1157 793 1152.5 805.5Q1148 818 1148 832Q1148 861 1167.0 881.0Q1186 901 1216 901Q1245 901 1265 881L1472 673L1679 881Q1699 901 1728 901Q1757 901 1777.0 881.0Q1797 861 1797 832Q1797 803 1777 783L1569 576L1777 369Q1797 349 1797 320Q1797 291 1777.0 271.0Q1757 251 1728 251Q1715 251 1701.5 256.5Q1688 262 1679 271Z"/>
  </g>
</svg>