<?xml version="1.0" encoding="utf-8"?>
<svg xmlns="http://www.w3.org/2000/svg" width="16" height="16" viewBox="0 0 2048 2048">
  <g transform="translate(0, 2048) scale(1, -1)">
    <path fill="#ffffff" d="M1544 1920Q1619 1920 1687.5 1889.5Q1756 1859 1807.5 1807.5Q1859 1756 1889.5 1687.5Q1920 1619 1920 1544V1093Q1920 1017 1891.0 946.0Q1862 875 1808 821L1227 241Q1172 186 1102.5 157.0Q1033 128 955 128H504Q429 128 360.5 158.5Q292 189 240.5 240.5Q189 292 158.5 360.5Q128 429 128 504V1544Q128 1619 158.5 1687.5Q189 1756 240.5 1807.5Q292 1859 360.5 1889.5Q429 1920 504 1920ZM1792 1541Q1792 1591 1771.5 1636.5Q1751 1682 1716.5 1716.5Q1682 1751 1636.5 1771.5Q1591 1792 1541 1792H507Q457 1792 411.5 1771.5Q366 1751 331.5 1716.5Q297 1682 276.5 1636.5Q256 1591 256 1541V507Q256 457 276.5 411.5Q297 366 331.5 331.5Q366 297 411.5 276.5Q457 256 507 256H955Q991 256 1024 265V560Q952 560 882.0 574.5Q812 589 749 622Q736 628 716.0 639.5Q696 651 673.5 666.0Q651 681 628.0 698.0Q605 715 586.0 732.5Q567 750 555.5 767.5Q544 785 544 800Q544 826 563.0 845.0Q582 864 608 864Q623 864 632.5 859.5Q642 855 653 845Q735 769 824.5 728.5Q914 688 1027 688Q1035 760 1068.5 821.5Q1102 883 1154.0 928.0Q1206 973 1271.5 998.5Q1337 1024 1408 1024H1783Q1792 1057 1792 1093ZM832 1344Q832 1317 822.0 1294.0Q812 1271 794.5 1253.5Q777 1236 754.0 1226.0Q731 1216 704 1216Q677 1216 653.5 1226.0Q630 1236 613.0 1253.0Q596 1270 586.0 1293.5Q576 1317 576 1344Q576 1371 586.0 1394.0Q596 1417 613.5 1434.5Q631 1452 654.0 1462.0Q677 1472 704 1472Q730 1472 753.5 1462.0Q777 1452 794.5 1434.5Q812 1417 822.0 1393.5Q832 1370 832 1344ZM1472 1344Q1472 1317 1462.0 1294.0Q1452 1271 1434.5 1253.5Q1417 1236 1394.0 1226.0Q1371 1216 1344 1216Q1317 1216 1293.5 1226.0Q1270 1236 1253.0 1253.0Q1236 1270 1226.0 1293.5Q1216 1317 1216 1344Q1216 1371 1226.0 1394.0Q1236 1417 1253.5 1434.5Q1271 1452 1294.0 1462.0Q1317 1472 1344 1472Q1370 1472 1393.5 1462.0Q1417 1452 1434.5 1434.5Q1452 1417 1462.0 1393.5Q1472 1370 1472 1344ZM1152 346 1701 896H1403Q1353 896 1307.5 875.5Q1262 855 1227.5 820.5Q1193 786 1172.5 740.5Q1152 695 1152 645Z"/>
  </g>
</svg>