<?xml version="1.0" encoding="utf-8"?>
<svg xmlns="http://www.w3.org/2000/svg" width="16" height="16" viewBox="0 0 2048 2048">
  <g transform="translate(0, 2048) scale(1, -1)">
    <path fill="#000000" d="M463 384Q437 384 414.0 394.5Q391 405 373.5 422.5Q356 440 345.5 463.0Q335 486 335 512Q335 541 349 569L910 1691Q927 1723 957.5 1742.5Q988 1762 1024 1762Q1060 1762 1090.5 1742.5Q1121 1723 1138 1691L1699 569Q1713 541 1713 512Q1713 486 1702.5 463.0Q1692 440 1674.5 422.5Q1657 405 1634.0 394.5Q1611 384 1585 384Z"/>
  </g>
</svg>