<?xml version="1.0" encoding="utf-8"?>
<svg xmlns="http://www.w3.org/2000/svg" width="16" height="16" viewBox="0 0 2048 2048">
  <g transform="translate(0, 2048) scale(1, -1)">
    <path fill="#ffffff" d="M335 1536Q335 1562 345.5 1585.0Q356 1608 373.5 1625.5Q391 1643 414.0 1653.5Q437 1664 463 1664H1585Q1611 1664 1634.0 1653.5Q1657 1643 1674.5 1625.5Q1692 1608 1702.5 1585.0Q1713 1562 1713 1536Q1713 1507 1699 1479L1138 357Q1121 325 1090.5 306.0Q1060 287 1024 287Q988 287 957.5 306.0Q927 325 910 357L349 1479Q335 1507 335 1536Z"/>
  </g>
</svg>