<?xml version="1.0" encoding="utf-8"?>
<svg xmlns="http://www.w3.org/2000/svg" width="16" height="16" viewBox="0 0 2048 2048">
  <g transform="translate(0, 2048) scale(1, -1)">
    <path fill="#000000" d="M128 1152Q128 1276 160.0 1390.5Q192 1505 250.5 1604.5Q309 1704 390.5 1785.5Q472 1867 571.5 1925.5Q671 1984 785.5 2016.0Q900 2048 1024 2048Q1147 2048 1261.5 2016.0Q1376 1984 1475.5 1925.5Q1575 1867 1657.0 1785.0Q1739 1703 1797.5 1603.5Q1856 1504 1888.0 1389.5Q1920 1275 1920 1152Q1920 1050 1893.5 956.0Q1867 862 1821.5 775.5Q1776 689 1715.0 609.5Q1654 530 1585.5 456.5Q1517 383 1444.0 315.5Q1371 248 1301 184L1242 130Q1216 106 1193.0 84.0Q1170 62 1145.5 45.5Q1121 29 1092.0 19.5Q1063 10 1024 10Q985 10 956.0 19.5Q927 29 902.5 45.5Q878 62 855.0 84.0Q832 106 806 130L747 184Q677 247 604.0 315.0Q531 383 462.5 456.5Q394 530 333.0 609.5Q272 689 226.5 775.5Q181 862 154.5 956.0Q128 1050 128 1152ZM896 960V1472Q896 1498 877.0 1517.0Q858 1536 832 1536Q806 1536 787.0 1517.0Q768 1498 768 1472V960Q768 934 787.0 915.0Q806 896 832 896Q858 896 877.0 915.0Q896 934 896 960ZM1280 960V1472Q1280 1498 1261.0 1517.0Q1242 1536 1216 1536Q1190 1536 1171.0 1517.0Q1152 1498 1152 1472V960Q1152 934 1171.0 915.0Q1190 896 1216 896Q1242 896 1261.0 915.0Q1280 934 1280 960Z"/>
  </g>
</svg>