<?xml version="1.0" encoding="utf-8"?>
<svg xmlns="http://www.w3.org/2000/svg" width="16" height="16" viewBox="0 0 2048 2048">
  <g transform="translate(0, 2048) scale(1, -1)">
    <path fill="#000000" d="M376 128Q301 128 232.5 158.5Q164 189 112.5 240.5Q61 292 30.5 360.5Q0 429 0 504V1544Q0 1619 30.5 1687.5Q61 1756 112.5 1807.5Q164 1859 232.5 1889.5Q301 1920 376 1920H1672Q1747 1920 1815.5 1889.5Q1884 1859 1935.5 1807.5Q1987 1756 2017.5 1687.5Q2048 1619 2048 1544V504Q2048 429 2017.5 360.5Q1987 292 1935.5 240.5Q1884 189 1815.5 158.5Q1747 128 1672 128ZM1669 256Q1719 256 1764.5 276.5Q1810 297 1844.5 331.5Q1879 366 1899.5 411.5Q1920 457 1920 507V1541Q1920 1591 1899.5 1636.5Q1879 1682 1844.5 1716.5Q1810 1751 1764.5 1771.5Q1719 1792 1669 1792H379Q329 1792 283.5 1771.5Q238 1751 203.5 1716.5Q169 1682 148.5 1636.5Q128 1591 128 1541V507Q128 457 148.5 411.5Q169 366 203.5 331.5Q238 297 283.5 276.5Q329 256 379 256ZM800 640Q767 640 738.0 653.0Q709 666 687.5 687.5Q666 709 653.0 738.0Q640 767 640 800V1248Q640 1281 653.0 1310.0Q666 1339 687.5 1360.5Q709 1382 738.0 1395.0Q767 1408 800 1408H1248Q1281 1408 1310.0 1395.0Q1339 1382 1360.5 1360.5Q1382 1339 1395.0 1310.0Q1408 1281 1408 1248V800Q1408 767 1395.0 738.0Q1382 709 1360.5 687.5Q1339 666 1310.0 653.0Q1281 640 1248 640ZM1248 768Q1262 768 1271.0 777.0Q1280 786 1280 800V1248Q1280 1262 1271.0 1271.0Q1262 1280 1248 1280H800Q786 1280 777.0 1271.0Q768 1262 768 1248V800Q768 787 777.5 777.5Q787 768 800 768Z"/>
  </g>
</svg>