<?xml version="1.0" encoding="utf-8"?>
<svg id="" width="16" height="16" style="width:16px;height:16px;" version="1.1" xmlns="http://www.w3.org/2000/svg" viewBox="0 0 2048 2048" enable-background="new 0 0 2048 2048" xml:space="preserve">
    <path fill="#000" d="M754 128 q-26 0 -45 -19 q-19 -19 -19 -45 q0 -26 19 -45 q19 -19 45 -19 l512 0 q26 0 45 19 q19 19 19 45 q0 26 -19 45 q-19 19 -45 19 l-512 0 ZM1624 292 q0 -27 19.5 -45.5 q19.5 -18.5 45.5 -18.5 q26 0 45 19 l181 181 q19 19 19 45 q0 26 -19 45 q-19 19 -45 19 q-26 0 -45 -19 l-182 -181 q-19 -19 -19 -45 ZM114 1152 q0 -124 32 -238.5 q32 -114.5 90.5 -214 q58.5 -99.5 140 -181 q81.5 -81.5 181 -140 q99.5 -58.5 214 -90.5 q114.5 -32 238.5 -32 q123 0 237.5 32 q114.5 32 214 90.5 q99.5 58.5 181.5 140.5 q82 82 140.5 181.5 q58.5 99.5 90.5 214 q32 114.5 32 237.5 q0 124 -32 238.5 q-32 114.5 -90.5 214 q-58.5 99.5 -140 181 q-81.5 81.5 -181 140 q-99.5 58.5 -214 90.5 q-114.5 32 -238.5 32 q-124 0 -238.5 -32 q-114.5 -32 -214 -90.5 q-99.5 -58.5 -181 -140 q-81.5 -81.5 -140 -181 q-58.5 -99.5 -90.5 -214 q-32 -114.5 -32 -238.5 ZM1778 1152 q0 -159 -60.5 -298.5 q-60.5 -139.5 -165 -244 q-104.5 -104.5 -244 -165 q-139.5 -60.5 -298.5 -60.5 q-106 0 -204 27.5 q-98 27.5 -183.5 77.5 q-85.5 50 -155.5 120 q-70 70 -120 155.5 q-50 85.5 -77.5 183.5 q-27.5 98 -27.5 204 q0 106 27.5 204.5 q27.5 98.5 77.5 183.5 q50 85 120 155 q70 70 155 120 q85 50 183.5 77.5 q98.5 27.5 204.5 27.5 q106 0 204 -27.5 q98 -27.5 183.5 -77.5 q85.5 -50 155.5 -120 q70 -70 120 -155.5 q50 -85.5 77.5 -183.5 q27.5 -98 27.5 -204 ZM946 1216 l0 -640 q0 -26 19 -45 q19 -19 45 -19 q26 0 45 19 q19 19 19 45 l0 640 q0 26 -19 45 q-19 19 -45 19 q-26 0 -45 -19 q-19 -19 -19 -45 Z"/>
</svg>