<?xml version="1.0" encoding="utf-8"?>
<svg xmlns="http://www.w3.org/2000/svg" width="16" height="16" viewBox="0 0 2048 2048">
  <g transform="translate(0, 2048) scale(1, -1)">
    <path fill="#000000" d="M1664 192Q1664 166 1645.0 147.0Q1626 128 1600 128H1280Q1280 101 1270.0 78.0Q1260 55 1242.5 37.5Q1225 20 1202.0 10.0Q1179 0 1152 0H512Q485 0 461.5 10.0Q438 20 421.0 37.0Q404 54 394.0 77.5Q384 101 384 128H64Q38 128 19.0 147.0Q0 166 0 192Q0 218 19.0 237.0Q38 256 64 256H384Q384 309 421 346Q459 384 512 384H640Q640 411 650.0 434.0Q660 457 677.5 474.5Q695 492 718.0 502.0Q741 512 768 512V640H635Q585 640 539.5 660.5Q494 681 459.5 715.5Q425 750 404.5 795.5Q384 841 384 891V1797Q384 1847 404.5 1892.5Q425 1938 459.5 1972.5Q494 2007 539.5 2027.5Q585 2048 635 2048H1029Q1079 2048 1124.5 2027.5Q1170 2007 1204.5 1972.5Q1239 1938 1259.5 1892.5Q1280 1847 1280 1797V891Q1280 840 1259.5 795.0Q1239 750 1204.5 715.5Q1170 681 1124.5 661.0Q1079 641 1029 640Q1024 640 1018 640L996 639Q991 639 985 639Q962 639 940.0 639.5Q918 640 896 640V512Q922 512 945.5 502.0Q969 492 986.5 474.5Q1004 457 1014.0 433.5Q1024 410 1024 384H1152Q1178 384 1201.0 374.0Q1224 364 1242 346Q1280 308 1280 256H1600Q1626 256 1645.0 237.0Q1664 218 1664 192ZM2048 1288Q2048 1200 2030.0 1115.5Q2012 1031 1977 951Q1962 916 1939.5 877.0Q1917 838 1891.0 800.5Q1865 763 1835.5 729.5Q1806 696 1776 672Q1766 664 1756.0 659.5Q1746 655 1733 655Q1707 655 1687.5 673.5Q1668 692 1668 719Q1668 735 1673.5 745.5Q1679 756 1690 767Q1800 875 1860.0 1003.0Q1920 1131 1920 1288Q1920 1362 1904.5 1433.0Q1889 1504 1860 1572Q1844 1609 1825.5 1640.0Q1807 1671 1786.0 1699.0Q1765 1727 1741.0 1754.0Q1717 1781 1690 1809Q1680 1819 1674.0 1830.5Q1668 1842 1668 1856Q1668 1882 1687.0 1901.0Q1706 1920 1732 1920Q1745 1920 1755.5 1915.5Q1766 1911 1776 1903Q1806 1879 1835.5 1845.5Q1865 1812 1891.0 1774.5Q1917 1737 1939.5 1698.0Q1962 1659 1977 1624Q2048 1464 2048 1288ZM1024 768Q1051 768 1074.0 778.0Q1097 788 1114.5 805.5Q1132 823 1142.0 846.0Q1152 869 1152 896V1792Q1152 1818 1142.0 1841.5Q1132 1865 1114.5 1882.5Q1097 1900 1073.5 1910.0Q1050 1920 1024 1920H640Q613 1920 590.0 1910.0Q567 1900 549.5 1882.5Q532 1865 522.0 1842.0Q512 1819 512 1792V896Q512 869 522.0 845.5Q532 822 549.0 805.0Q566 788 589.5 778.0Q613 768 640 768ZM1484 1676Q1514 1676 1534 1653Q1565 1617 1589.5 1573.0Q1614 1529 1630.5 1481.5Q1647 1434 1655.5 1384.5Q1664 1335 1664 1288Q1664 1240 1655.5 1190.5Q1647 1141 1630.5 1094.0Q1614 1047 1590.0 1003.5Q1566 960 1534 923Q1513 899 1484 899Q1458 899 1439.0 918.0Q1420 937 1420 963Q1420 976 1423.5 985.0Q1427 994 1435 1004Q1484 1070 1510.0 1137.5Q1536 1205 1536 1288Q1536 1371 1509.5 1438.5Q1483 1506 1435 1572Q1427 1582 1423.5 1591.0Q1420 1600 1420 1613Q1420 1640 1438.5 1658.0Q1457 1676 1484 1676ZM928 1088Q928 1048 900.0 1020.0Q872 992 832 992Q792 992 764.0 1020.0Q736 1048 736 1088Q736 1128 764.0 1156.0Q792 1184 832 1184Q872 1184 900.0 1156.0Q928 1128 928 1088ZM1152 128V256H960Q938 256 925.0 264.5Q912 273 905.5 286.5Q899 300 897.0 316.5Q895 333 895 350Q895 359 895.5 367.5Q896 376 896 384H768V350Q768 333 766.0 316.5Q764 300 757.5 286.5Q751 273 738.5 264.5Q726 256 704 256H512V128Z"/>
  </g>
</svg>