<?xml version="1.0" encoding="utf-8"?>
<svg xmlns="http://www.w3.org/2000/svg" width="16" height="16" viewBox="0 0 2048 2048">
  <g transform="translate(0, 2048) scale(1, -1)">
    <path fill="#000000" d="M1797 1792Q1847 1792 1892.5 1771.5Q1938 1751 1972.5 1716.5Q2007 1682 2027.5 1636.5Q2048 1591 2048 1541V507Q2048 457 2027.5 411.5Q2007 366 1972.5 331.5Q1938 297 1892.5 276.5Q1847 256 1797 256H251Q201 256 155.5 276.5Q110 297 75.5 331.5Q41 366 20.5 411.5Q0 457 0 507V1541Q0 1591 20.5 1636.5Q41 1682 75.5 1716.5Q110 1751 155.5 1771.5Q201 1792 251 1792ZM1920 1536Q1920 1562 1910.0 1585.5Q1900 1609 1882.5 1626.5Q1865 1644 1841.5 1654.0Q1818 1664 1792 1664H256Q229 1664 206.0 1654.0Q183 1644 165.5 1626.5Q148 1609 138.0 1586.0Q128 1563 128 1536V512Q128 458 165 421Q202 384 256 384H407L511 607Q519 624 535.0 634.0Q551 644 569 644H1464Q1482 644 1497.5 634.5Q1513 625 1521 609L1639 384H1792Q1819 384 1842.0 394.0Q1865 404 1882.5 421.5Q1900 439 1910.0 462.0Q1920 485 1920 512ZM1664 1088Q1664 1049 1649.0 1014.0Q1634 979 1607.5 952.5Q1581 926 1546.0 911.0Q1511 896 1472 896H582Q543 896 508.0 911.0Q473 926 446.5 952.5Q420 979 405.0 1014.0Q390 1049 390 1088Q390 1127 405.0 1162.0Q420 1197 446.5 1223.5Q473 1250 508.0 1265.0Q543 1280 582 1280Q621 1280 656.0 1265.0Q691 1250 717.5 1223.5Q744 1197 759.0 1162.0Q774 1127 774 1088Q774 1057 763 1024H1291Q1280 1057 1280 1088Q1280 1127 1295.0 1162.0Q1310 1197 1336.5 1223.5Q1363 1250 1398.0 1265.0Q1433 1280 1472 1280Q1511 1280 1546.0 1265.0Q1581 1250 1607.5 1223.5Q1634 1197 1649.0 1162.0Q1664 1127 1664 1088ZM518 1088Q518 1062 537.0 1043.0Q556 1024 582 1024Q608 1024 627.0 1043.0Q646 1062 646 1088Q646 1114 627.0 1133.0Q608 1152 582 1152Q556 1152 537.0 1133.0Q518 1114 518 1088ZM1536 1088Q1536 1114 1517.0 1133.0Q1498 1152 1472 1152Q1446 1152 1427.0 1133.0Q1408 1114 1408 1088Q1408 1062 1427.0 1043.0Q1446 1024 1472 1024Q1498 1024 1517.0 1043.0Q1536 1062 1536 1088ZM610 516 548 384H1494L1425 516Z"/>
  </g>
</svg>