<?xml version="1.0" encoding="utf-8"?>
<svg xmlns="http://www.w3.org/2000/svg" width="16" height="16" viewBox="0 0 2048 2048">
  <g transform="translate(0, 2048) scale(1, -1)">
    <path fill="#ffffff" d="M0 1024Q0 1165 36.5 1296.0Q73 1427 140.0 1540.5Q207 1654 300.5 1747.5Q394 1841 507.5 1908.0Q621 1975 752.0 2011.5Q883 2048 1024 2048Q1165 2048 1296.0 2011.5Q1427 1975 1540.5 1908.0Q1654 1841 1747.5 1747.5Q1841 1654 1908.0 1540.5Q1975 1427 2011.5 1296.0Q2048 1165 2048 1024Q2048 883 2011.5 752.0Q1975 621 1908.0 507.5Q1841 394 1747.5 300.5Q1654 207 1540.5 140.0Q1427 73 1296.0 36.5Q1165 0 1024 0Q883 0 752.0 36.5Q621 73 507.5 140.0Q394 207 300.5 300.5Q207 394 140.0 507.5Q73 621 36.5 752.0Q0 883 0 1024ZM1920 1024Q1920 1147 1888.0 1261.5Q1856 1376 1797.5 1475.5Q1739 1575 1657.0 1657.0Q1575 1739 1475.5 1797.5Q1376 1856 1261.5 1888.0Q1147 1920 1024 1920Q900 1920 785.5 1888.0Q671 1856 571.5 1797.5Q472 1739 390.5 1657.5Q309 1576 250.5 1476.5Q192 1377 160.0 1262.5Q128 1148 128 1024Q128 900 160.0 785.5Q192 671 250.5 571.5Q309 472 390.5 390.5Q472 309 571.5 250.5Q671 192 785.5 160.0Q900 128 1024 128Q1148 128 1262.5 160.0Q1377 192 1476.5 250.5Q1576 309 1657.5 390.5Q1739 472 1797.5 571.5Q1856 671 1888.0 785.5Q1920 900 1920 1024ZM768 1024V1029Q768 1081 789.0 1126.5Q810 1172 845.0 1206.0Q880 1240 926.5 1260.0Q973 1280 1024 1280Q1076 1280 1123.0 1259.5Q1170 1239 1204.5 1204.5Q1239 1170 1259.5 1123.0Q1280 1076 1280 1024Q1280 971 1259.5 924.5Q1239 878 1204.5 843.5Q1170 809 1123.0 788.5Q1076 768 1024 768Q971 768 924.5 788.5Q878 809 843.5 843.5Q809 878 788.5 924.5Q768 971 768 1024ZM1152 1024Q1152 1050 1142.0 1073.5Q1132 1097 1114.5 1114.5Q1097 1132 1073.5 1142.0Q1050 1152 1024 1152Q997 1152 974.0 1142.0Q951 1132 933.5 1114.5Q916 1097 906.0 1074.0Q896 1051 896 1024Q896 997 906.0 973.5Q916 950 933.0 933.0Q950 916 973.5 906.0Q997 896 1024 896Q1051 896 1074.0 906.0Q1097 916 1114.5 933.5Q1132 951 1142.0 974.0Q1152 997 1152 1024Z"/>
  </g>
</svg>