<?xml version="1.0" encoding="utf-8"?>
<svg xmlns="http://www.w3.org/2000/svg" width="16" height="16" viewBox="0 0 2048 2048">
  <g transform="translate(0, 2048) scale(1, -1)">
    <path fill="#ffffff" d="M427 581Q427 554 408.0 536.0Q389 518 363 518Q341 518 323 533Q288 561 253.5 602.0Q219 643 187.5 688.5Q156 734 129.5 781.0Q103 828 85 869Q42 967 21.0 1070.0Q0 1173 0 1280Q0 1383 19.5 1482.0Q39 1581 79 1676Q97 1718 121.0 1763.0Q145 1808 173.5 1851.5Q202 1895 234.0 1934.5Q266 1974 301 2005Q311 2014 320.0 2018.5Q329 2023 343 2023Q370 2023 388.0 2003.0Q406 1983 406 1957Q406 1941 401.0 1930.5Q396 1920 386 1909Q363 1883 341.0 1859.0Q319 1835 299 1807Q215 1692 171.5 1557.5Q128 1423 128 1280Q128 1188 146.0 1098.5Q164 1009 201 924Q258 791 355 684Q364 674 374 664L386 652Q396 643 405 632Q416 620 421.5 609.0Q427 598 427 581ZM1642 1957Q1642 1983 1660.0 2003.0Q1678 2023 1705 2023Q1719 2023 1728.0 2018.5Q1737 2014 1747 2005Q1781 1975 1813.5 1935.5Q1846 1896 1874.0 1852.5Q1902 1809 1926.0 1763.5Q1950 1718 1968 1676Q2008 1582 2028.0 1482.5Q2048 1383 2048 1280Q2048 1180 2028.5 1082.0Q2009 984 1971 891L1920 896Q1920 931 1911.0 964.5Q1902 998 1884 1027Q1920 1150 1920 1280Q1920 1423 1876.5 1557.5Q1833 1692 1749 1807Q1729 1835 1707.0 1859.0Q1685 1883 1662 1909Q1652 1920 1647.0 1930.5Q1642 1941 1642 1957ZM652 807Q652 781 634.0 762.0Q616 743 590 743Q570 743 552 758Q497 804 454.0 865.0Q411 926 381.0 994.5Q351 1063 335.5 1136.0Q320 1209 320 1280Q320 1347 334.0 1416.5Q348 1486 374.5 1551.5Q401 1617 440.0 1676.0Q479 1735 529 1780Q538 1788 547.0 1792.5Q556 1797 569 1797Q595 1797 613.5 1777.5Q632 1758 632 1732Q632 1716 626.5 1704.5Q621 1693 611 1681Q572 1635 541.5 1590.0Q511 1545 490.0 1496.5Q469 1448 458.5 1395.0Q448 1342 448 1280Q448 1184 479.0 1093.5Q510 1003 569 928Q583 910 598.0 894.0Q613 878 629 861Q640 849 646.0 836.5Q652 824 652 807ZM1416 1732Q1416 1758 1434.5 1777.5Q1453 1797 1479 1797Q1491 1797 1500.5 1792.5Q1510 1788 1519 1780Q1570 1733 1609.0 1674.5Q1648 1616 1674.5 1551.5Q1701 1487 1714.5 1418.0Q1728 1349 1728 1280Q1728 1246 1725.5 1213.0Q1723 1180 1715 1147Q1695 1150 1674.0 1151.0Q1653 1152 1633 1152H1586Q1600 1217 1600 1280Q1600 1340 1589.0 1393.5Q1578 1447 1557.5 1496.0Q1537 1545 1506.5 1591.0Q1476 1637 1437 1681Q1427 1692 1421.5 1704.5Q1416 1717 1416 1732ZM1024 1120Q991 1120 962.0 1133.0Q933 1146 911.5 1167.5Q890 1189 877.0 1218.0Q864 1247 864 1280Q864 1313 877.0 1342.0Q890 1371 911.5 1392.5Q933 1414 962.0 1427.0Q991 1440 1024 1440Q1057 1440 1086.0 1427.0Q1115 1414 1136.5 1392.5Q1158 1371 1171.0 1342.0Q1184 1313 1184 1280Q1184 1247 1171.0 1218.0Q1158 1189 1136.5 1167.5Q1115 1146 1086.0 1133.0Q1057 1120 1024 1120ZM2048 576V192Q2048 152 2033.0 117.0Q2018 82 1992.0 56.0Q1966 30 1931.0 15.0Q1896 0 1856 0H1216Q1176 0 1141.0 15.0Q1106 30 1080.0 56.0Q1054 82 1039.0 117.0Q1024 152 1024 192V576Q1024 616 1039.0 651.0Q1054 686 1080.0 712.0Q1106 738 1141.0 753.0Q1176 768 1216 768H1280V896Q1280 922 1290.0 945.0Q1300 968 1318 986Q1356 1024 1408 1024H1664Q1690 1024 1713.0 1014.0Q1736 1004 1754 986Q1792 948 1792 896V768H1856Q1896 768 1931.0 753.0Q1966 738 1992.0 712.0Q2018 686 2033.0 651.0Q2048 616 2048 576ZM1664 896H1408V768H1664Z"/>
  </g>
</svg>