<?xml version="1.0" encoding="utf-8"?>
<svg xmlns="http://www.w3.org/2000/svg" width="16" height="16" viewBox="0 0 2048 2048">
  <g transform="translate(0, 2048) scale(1, -1)">
    <path fill="#ffffff" d="M256 640V1158Q199 1170 151.5 1200.0Q104 1230 70.5 1272.5Q37 1315 18.5 1368.0Q0 1421 0 1479Q0 1544 26.0 1601.0Q52 1658 96.0 1700.5Q140 1743 198.0 1767.5Q256 1792 320 1792Q384 1792 442.0 1767.5Q500 1743 544.0 1700.5Q588 1658 614.0 1601.0Q640 1544 640 1479Q640 1421 621.5 1368.0Q603 1315 569.5 1272.5Q536 1230 488.5 1200.0Q441 1170 384 1158V640H768V1216Q768 1246 790 1265L1238 1649Q1256 1664 1280 1664Q1304 1664 1322 1649L1770 1265Q1792 1246 1792 1216V640H1984Q2010 640 2029.0 621.0Q2048 602 2048 576Q2048 550 2029.0 531.0Q2010 512 1984 512H64Q38 512 19.0 531.0Q0 550 0 576Q0 602 19.0 621.0Q38 640 64 640ZM320 1280Q359 1280 394.0 1295.0Q429 1310 455.5 1336.5Q482 1363 497.0 1398.0Q512 1433 512 1472Q512 1511 497.0 1546.0Q482 1581 455.5 1607.5Q429 1634 394.0 1649.0Q359 1664 320 1664Q281 1664 246.0 1649.0Q211 1634 184.5 1607.5Q158 1581 143.0 1546.0Q128 1511 128 1472Q128 1433 143.0 1398.0Q158 1363 184.5 1336.5Q211 1310 246.0 1295.0Q281 1280 320 1280ZM1280 1516 896 1187V640H1664V1187ZM1984 384Q2010 384 2029.0 365.0Q2048 346 2048 320Q2048 294 2029.0 275.0Q2010 256 1984 256H64Q38 256 19.0 275.0Q0 294 0 320Q0 346 19.0 365.0Q38 384 64 384Z"/>
  </g>
</svg>