<?xml version="1.0" encoding="utf-8"?>
<svg xmlns="http://www.w3.org/2000/svg" width="16" height="16" viewBox="0 0 2048 2048">
  <g transform="translate(0, 2048) scale(1, -1)">
    <path fill="#000000" d="M0 1024Q0 1127 19.5 1226.0Q39 1325 79 1420Q97 1462 121.0 1507.0Q145 1552 173.5 1595.5Q202 1639 234.0 1678.5Q266 1718 301 1749Q311 1758 320.0 1762.5Q329 1767 343 1767Q370 1767 388.0 1747.0Q406 1727 406 1701Q406 1685 401.0 1674.5Q396 1664 386 1653Q363 1627 341.0 1603.0Q319 1579 299 1551Q215 1436 171.5 1301.5Q128 1167 128 1024Q128 932 146.0 842.5Q164 753 201 668Q258 535 355 428Q364 418 374 408L386 396Q396 387 405 376Q416 364 421.5 353.0Q427 342 427 325Q427 298 408.0 280.0Q389 262 363 262Q341 262 323 277Q288 305 253.5 346.0Q219 387 187.5 432.5Q156 478 129.5 525.0Q103 572 85 613Q42 711 21.0 814.0Q0 917 0 1024ZM1685 262Q1659 262 1640.0 280.0Q1621 298 1621 325Q1621 342 1626.5 353.0Q1632 364 1643 376Q1652 387 1662 396L1674 408Q1684 418 1693 428Q1790 535 1847 668Q1884 753 1902.0 842.5Q1920 932 1920 1024Q1920 1167 1876.5 1301.5Q1833 1436 1749 1551Q1729 1579 1707.0 1603.0Q1685 1627 1662 1653Q1652 1664 1647.0 1674.5Q1642 1685 1642 1701Q1642 1727 1660.0 1747.0Q1678 1767 1705 1767Q1719 1767 1728.0 1762.5Q1737 1758 1747 1749Q1781 1719 1813.5 1679.5Q1846 1640 1874.0 1596.5Q1902 1553 1926.0 1507.5Q1950 1462 1968 1420Q2008 1326 2028.0 1226.5Q2048 1127 2048 1024Q2048 809 1962 613Q1944 572 1918.0 525.0Q1892 478 1860.5 432.5Q1829 387 1794.5 346.0Q1760 305 1725 277Q1707 262 1685 262ZM320 1024Q320 1091 334.0 1160.5Q348 1230 374.5 1295.5Q401 1361 440.0 1420.0Q479 1479 529 1524Q538 1532 547.0 1536.5Q556 1541 569 1541Q595 1541 613.5 1521.5Q632 1502 632 1476Q632 1460 626.5 1448.5Q621 1437 611 1425Q572 1379 541.5 1334.0Q511 1289 490.0 1240.5Q469 1192 458.5 1139.0Q448 1086 448 1024Q448 928 479.0 837.5Q510 747 569 672Q583 654 598.0 638.0Q613 622 629 605Q640 593 646.0 580.5Q652 568 652 551Q652 525 634.0 506.0Q616 487 590 487Q570 487 552 502Q497 548 454.0 609.0Q411 670 381.0 738.5Q351 807 335.5 880.0Q320 953 320 1024ZM1458 487Q1432 487 1414.0 506.0Q1396 525 1396 551Q1396 568 1402.0 580.5Q1408 593 1419 605Q1435 622 1450.0 638.0Q1465 654 1479 672Q1538 747 1569.0 837.5Q1600 928 1600 1024Q1600 1086 1589.5 1139.0Q1579 1192 1558.0 1240.5Q1537 1289 1506.5 1334.0Q1476 1379 1437 1425Q1427 1437 1421.5 1448.5Q1416 1460 1416 1476Q1416 1502 1434.5 1521.5Q1453 1541 1479 1541Q1492 1541 1501.0 1536.5Q1510 1532 1519 1524Q1569 1479 1608.0 1420.0Q1647 1361 1673.5 1295.5Q1700 1230 1714.0 1160.5Q1728 1091 1728 1024Q1728 953 1712.5 880.0Q1697 807 1667.0 738.5Q1637 670 1594.0 609.0Q1551 548 1496 502Q1487 494 1478.5 490.5Q1470 487 1458 487ZM864 1024Q864 1057 877.0 1086.0Q890 1115 911.5 1136.5Q933 1158 962.0 1171.0Q991 1184 1024 1184Q1057 1184 1086.0 1171.0Q1115 1158 1136.5 1136.5Q1158 1115 1171.0 1086.0Q1184 1057 1184 1024Q1184 991 1171.0 962.0Q1158 933 1136.5 911.5Q1115 890 1086.0 877.0Q1057 864 1024 864Q991 864 962.0 877.0Q933 890 911.5 911.5Q890 933 877.0 962.0Q864 991 864 1024Z"/>
  </g>
</svg>