<?xml version="1.0" encoding="utf-8"?>
<svg xmlns="http://www.w3.org/2000/svg" width="16" height="16" viewBox="0 0 2048 2048">
  <g transform="translate(0, 2048) scale(1, -1)">
    <path fill="#ffffff" d="M1920 1088Q1920 956 1885.5 833.5Q1851 711 1788.5 604.0Q1726 497 1638.5 409.5Q1551 322 1444.0 259.5Q1337 197 1214.5 162.5Q1092 128 960 128Q827 128 704.5 162.5Q582 197 475.5 259.5Q369 322 281.5 409.5Q194 497 131.5 603.5Q69 710 34.5 833.0Q0 956 0 1088Q0 1220 34.5 1342.5Q69 1465 131.5 1572.0Q194 1679 281.5 1766.5Q369 1854 476.0 1916.5Q583 1979 705.5 2013.5Q828 2048 960 2048Q1092 2048 1214.5 2013.5Q1337 1979 1443.5 1916.5Q1550 1854 1638.0 1766.0Q1726 1678 1788.5 1571.5Q1851 1465 1885.5 1342.5Q1920 1220 1920 1088ZM130 1152H896V1574L749 1427Q730 1408 704 1408Q678 1408 659.0 1427.0Q640 1446 640 1472Q640 1498 659 1517L916 1775Q924 1783 936.0 1787.5Q948 1792 960 1792Q972 1792 983.5 1788.0Q995 1784 1004 1775L1261 1517Q1280 1498 1280 1472Q1280 1446 1261.0 1427.0Q1242 1408 1216 1408Q1190 1408 1171 1427L1024 1574V1152H1790Q1781 1260 1746.5 1359.0Q1712 1458 1656.0 1543.5Q1600 1629 1525.0 1698.5Q1450 1768 1361.0 1817.0Q1272 1866 1170.5 1893.0Q1069 1920 960 1920Q851 1920 749.5 1893.5Q648 1867 559.0 1817.5Q470 1768 395.0 1698.5Q320 1629 264.0 1544.0Q208 1459 173.5 1359.5Q139 1260 130 1152ZM1134 896 1102 1024H130Q133 992 137.5 960.0Q142 928 150 896ZM1234 1024 1266 896H1770Q1778 928 1782.5 960.0Q1787 992 1790 1024ZM192 768Q243 647 328.0 547.5Q413 448 525 379L633 768ZM731 640H1198L1166 768H766ZM1395 379Q1507 448 1592.0 547.5Q1677 647 1728 768H1298ZM642 319Q718 287 798.0 271.5Q878 256 960 256Q1042 256 1122.0 272.0Q1202 288 1278 319L1230 512Q1219 512 1182.5 512.0Q1146 512 1096.0 511.5Q1046 511 988 511H753Q728 511 713.0 511.5Q698 512 696 513Z"/>
  </g>
</svg>