<?xml version="1.0" encoding="utf-8"?>
<svg xmlns="http://www.w3.org/2000/svg" width="16" height="16" viewBox="0 0 2048 2048">
  <g transform="translate(0, 2048) scale(1, -1)">
    <path fill="#000000" d="M1920 1088Q1920 956 1885.5 833.5Q1851 711 1788.5 604.0Q1726 497 1638.5 409.5Q1551 322 1444.0 259.5Q1337 197 1214.5 162.5Q1092 128 960 128Q827 128 704.5 162.5Q582 197 475.5 259.5Q369 322 281.5 409.5Q194 497 131.5 603.5Q69 710 34.5 833.0Q0 956 0 1088Q0 1220 34.5 1342.5Q69 1465 131.5 1572.0Q194 1679 281.5 1766.5Q369 1854 476.0 1916.5Q583 1979 705.5 2013.5Q828 2048 960 2048Q1092 2048 1214.5 2013.5Q1337 1979 1443.5 1916.5Q1550 1854 1638.0 1766.0Q1726 1678 1788.5 1571.5Q1851 1465 1885.5 1342.5Q1920 1220 1920 1088ZM896 1918Q743 1905 608.5 1841.5Q474 1778 372.0 1676.0Q270 1574 206.5 1439.5Q143 1305 130 1152H1790Q1777 1305 1713.5 1439.5Q1650 1574 1548.0 1676.0Q1446 1778 1311.5 1841.5Q1177 1905 1024 1918V1499L1171 1645Q1190 1664 1216 1664Q1242 1664 1261.0 1645.0Q1280 1626 1280 1600Q1280 1574 1261 1555L1005 1299Q986 1280 960 1280Q934 1280 915 1299L659 1555Q640 1574 640 1600Q640 1626 659.0 1645.0Q678 1664 704 1664Q730 1664 749 1645L896 1499ZM1134 896 1102 1024H130Q133 992 137.5 960.0Q142 928 150 896ZM1234 1024 1266 896H1770Q1778 928 1782.5 960.0Q1787 992 1790 1024ZM192 768Q243 647 328.0 547.5Q413 448 525 379L633 768ZM730 640H1198L1166 768H765ZM1395 379Q1507 448 1592.0 547.5Q1677 647 1728 768H1298ZM642 319Q718 287 798.0 271.5Q878 256 960 256Q1042 256 1122.0 272.0Q1202 288 1278 319L1230 512H704Q698 512 695 513Z"/>
  </g>
</svg>