<?xml version="1.0" encoding="utf-8"?>
<svg xmlns="http://www.w3.org/2000/svg" width="16" height="16" viewBox="0 0 2048 2048">
  <g transform="translate(0, 2048) scale(1, -1)">
    <path fill="#ffffff" d="M541 1152Q384 1274 384 1472Q384 1522 400.0 1567.5Q416 1613 443.0 1653.5Q470 1694 505.5 1728.0Q541 1762 580 1789Q676 1855 792.0 1887.5Q908 1920 1024 1920Q1097 1920 1169.0 1909.0Q1241 1898 1310 1873Q1356 1856 1404.0 1833.0Q1452 1810 1497.5 1780.0Q1543 1750 1582.5 1714.5Q1622 1679 1651 1638Q1658 1628 1661.0 1620.5Q1664 1613 1664 1600Q1664 1574 1645.0 1555.0Q1626 1536 1600 1536Q1582 1536 1571.0 1542.5Q1560 1549 1549 1562Q1524 1590 1499.0 1614.0Q1474 1638 1444 1661Q1400 1694 1349.5 1719.0Q1299 1744 1245.0 1760.0Q1191 1776 1135.0 1784.0Q1079 1792 1024 1792Q926 1792 829.5 1766.0Q733 1740 652 1683Q627 1665 602.0 1642.5Q577 1620 557.0 1593.0Q537 1566 524.5 1535.5Q512 1505 512 1472Q512 1402 538.5 1351.0Q565 1300 608.5 1262.5Q652 1225 707.5 1198.5Q763 1172 821 1152ZM384 448Q384 475 403.5 493.5Q423 512 449 512Q466 512 478.5 504.5Q491 497 501 484Q526 452 546.0 426.5Q566 401 588.0 380.0Q610 359 637.5 341.5Q665 324 704 307Q778 275 861.5 265.5Q945 256 1024 256Q1072 256 1128.5 263.0Q1185 270 1242.0 285.5Q1299 301 1352.0 325.5Q1405 350 1446.0 385.5Q1487 421 1511.5 468.5Q1536 516 1536 576Q1536 663 1497.5 721.0Q1459 779 1387 823Q1378 828 1354.5 840.0Q1331 852 1305.5 864.5Q1280 877 1257.0 886.5Q1234 896 1227 896H192Q166 896 147.0 915.0Q128 934 128 960Q128 986 147.0 1005.0Q166 1024 192 1024H1856Q1882 1024 1901.0 1005.0Q1920 986 1920 960Q1920 934 1901.0 915.0Q1882 896 1856 896H1507Q1664 774 1664 576Q1664 495 1635.0 430.5Q1606 366 1557.5 316.0Q1509 266 1444.5 230.5Q1380 195 1309.0 172.0Q1238 149 1164.5 138.5Q1091 128 1024 128Q930 128 836.0 139.5Q742 151 654 189Q576 223 508.0 281.0Q440 339 395 412Q384 429 384 448Z"/>
  </g>
</svg>