<?xml version="1.0" encoding="utf-8"?>
<svg xmlns="http://www.w3.org/2000/svg" width="16" height="16" viewBox="0 0 2048 2048">
  <g transform="translate(0, 2048) scale(1, -1)">
    <path fill="#000000" d="M192 128Q166 128 147.0 147.0Q128 166 128 192Q128 218 147.0 237.0Q166 256 192 256H671Q698 256 721.0 266.0Q744 276 761.5 293.5Q779 311 789.0 334.5Q799 358 799 385Q799 431 768 467L543 729Q513 764 497.0 806.5Q481 849 481 895Q481 923 487.5 950.0Q494 977 505 1003Q537 1072 599.0 1112.0Q661 1152 737 1152H1241Q1268 1152 1291.5 1162.0Q1315 1172 1332.5 1189.5Q1350 1207 1360.0 1230.0Q1370 1253 1370 1280Q1370 1308 1356.5 1336.0Q1343 1364 1323.5 1392.5Q1304 1421 1280.5 1451.5Q1257 1482 1237.5 1515.0Q1218 1548 1204.5 1585.0Q1191 1622 1191 1664Q1191 1718 1211.0 1764.5Q1231 1811 1265.5 1845.5Q1300 1880 1346.5 1900.0Q1393 1920 1447 1920H1792Q1818 1920 1837.0 1901.0Q1856 1882 1856 1856Q1856 1830 1837.0 1811.0Q1818 1792 1792 1792H1447Q1421 1792 1397.5 1782.0Q1374 1772 1356.5 1754.5Q1339 1737 1328.5 1713.5Q1318 1690 1318 1664Q1318 1636 1331.5 1608.0Q1345 1580 1365.0 1551.0Q1385 1522 1408.0 1491.5Q1431 1461 1451.0 1428.0Q1471 1395 1484.5 1358.0Q1498 1321 1498 1280Q1498 1216 1467 1159Q1433 1096 1372.5 1060.0Q1312 1024 1241 1024H737Q710 1024 687.0 1014.0Q664 1004 646.5 986.5Q629 969 619.0 946.0Q609 923 609 896Q609 849 640 813L865 551Q895 516 911.0 473.5Q927 431 927 385Q927 332 907.0 285.0Q887 238 852.5 203.0Q818 168 771.5 148.0Q725 128 671 128Z"/>
  </g>
</svg>