<?xml version="1.0" encoding="utf-8"?>
<svg xmlns="http://www.w3.org/2000/svg" width="16" height="16" viewBox="0 0 2048 2048">
  <g transform="translate(0, 2048) scale(1, -1)">
    <path fill="#ffffff" d="M0 64Q0 90 19.0 109.0Q38 128 64 128H1105L56 1177Q30 1203 15.0 1239.0Q0 1275 0 1313Q0 1351 15.0 1387.0Q30 1423 56 1449L599 1992Q626 2019 661.5 2033.5Q697 2048 735 2048Q815 2048 871 1992L1992 871Q2048 815 2048 735Q2048 697 2033.5 661.5Q2019 626 1992 599L1449 56Q1422 29 1387.0 14.5Q1352 0 1314 0H64Q38 0 19.0 19.0Q0 38 0 64ZM962 453 1595 1086 780 1901Q761 1920 735 1920Q709 1920 690 1901L147 1358Q128 1339 128 1313Q128 1287 147 1268ZM1313 127Q1339 127 1358 146L1902 690Q1911 699 1915.5 711.0Q1920 723 1920 735Q1920 762 1902 780L1686 996L1052 362L1268 146Q1287 127 1313 127ZM1728 0Q1702 0 1683.0 19.0Q1664 38 1664 64Q1664 90 1683.0 109.0Q1702 128 1728 128H1984Q2010 128 2029.0 109.0Q2048 90 2048 64Q2048 38 2029.0 19.0Q2010 0 1984 0Z"/>
  </g>
</svg>