<?xml version="1.0" encoding="utf-8"?>
<svg xmlns="http://www.w3.org/2000/svg" width="16" height="16" viewBox="0 0 2048 2048">
  <g transform="translate(0, 2048) scale(1, -1)">
    <path fill="#000000" d="M734 0Q696 0 661.0 14.5Q626 29 599 56L56 599Q30 625 15.0 661.0Q0 697 0 735Q0 773 15.0 809.0Q30 845 56 871L1177 1992Q1204 2019 1239.5 2033.5Q1275 2048 1313 2048Q1393 2048 1449 1992L1992 1449Q2048 1393 2048 1313Q2048 1275 2033.5 1239.5Q2019 1204 1992 1177L943 128H1984Q2010 128 2029.0 109.0Q2048 90 2048 64Q2048 38 2029.0 19.0Q2010 0 1984 0ZM1920 1313Q1920 1339 1901 1358L1358 1901Q1339 1920 1313 1920Q1287 1920 1268 1901L453 1086L1086 453L1901 1268Q1920 1287 1920 1313ZM735 127Q761 127 780 146L996 362L362 996L146 780Q128 762 128 735Q128 723 132.5 711.0Q137 699 146 690L690 146Q709 127 735 127ZM64 0Q38 0 19.0 19.0Q0 38 0 64Q0 90 19.0 109.0Q38 128 64 128H320Q346 128 365.0 109.0Q384 90 384 64Q384 38 365.0 19.0Q346 0 320 0Z"/>
  </g>
</svg>