<?xml version="1.0" encoding="utf-8"?>
<svg xmlns="http://www.w3.org/2000/svg" width="16" height="16" viewBox="0 0 2048 2048">
  <g transform="translate(0, 2048) scale(1, -1)">
    <path fill="#000000" d="M441 256Q378 256 321.0 281.5Q264 307 221.5 349.5Q179 392 153.5 449.0Q128 506 128 569V1607Q128 1670 153.5 1727.0Q179 1784 221.5 1826.5Q264 1869 321.0 1894.5Q378 1920 441 1920H1479Q1542 1920 1599.0 1894.5Q1656 1869 1698.5 1826.5Q1741 1784 1766.5 1727.0Q1792 1670 1792 1607V1239Q1731 1269 1664 1287V1600Q1664 1639 1649.0 1674.0Q1634 1709 1607.5 1735.5Q1581 1762 1546.0 1777.0Q1511 1792 1472 1792H448Q409 1792 374.0 1777.0Q339 1762 312.5 1735.5Q286 1709 271.0 1674.0Q256 1639 256 1600V576Q256 537 271.0 502.0Q286 467 312.5 440.5Q339 414 374.0 399.0Q409 384 448 384H761Q779 317 809 256ZM576 1408Q550 1408 531.0 1427.0Q512 1446 512 1472Q512 1498 531.0 1517.0Q550 1536 576 1536H1344Q1370 1536 1389.0 1517.0Q1408 1498 1408 1472Q1408 1446 1389.0 1427.0Q1370 1408 1344 1408ZM576 1024Q550 1024 531.0 1043.0Q512 1062 512 1088Q512 1114 531.0 1133.0Q550 1152 576 1152H1014Q979 1124 947.0 1092.0Q915 1060 888 1024ZM896 576Q896 695 941.5 800.0Q987 905 1065.0 983.0Q1143 1061 1248.0 1106.5Q1353 1152 1472 1152Q1551 1152 1624.5 1131.5Q1698 1111 1762.0 1073.5Q1826 1036 1879.0 983.0Q1932 930 1969.5 866.0Q2007 802 2027.5 728.5Q2048 655 2048 576Q2048 457 2002.5 352.0Q1957 247 1879.0 169.0Q1801 91 1696.0 45.5Q1591 0 1472 0Q1352 0 1247.0 45.0Q1142 90 1064.0 168.0Q986 246 941.0 351.0Q896 456 896 576ZM1536 512H1728Q1754 512 1773.0 531.0Q1792 550 1792 576Q1792 602 1773.0 621.0Q1754 640 1728 640H1536V832Q1536 858 1517.0 877.0Q1498 896 1472 896Q1446 896 1427.0 877.0Q1408 858 1408 832V640H1216Q1190 640 1171.0 621.0Q1152 602 1152 576Q1152 550 1171.0 531.0Q1190 512 1216 512H1408V320Q1408 294 1427.0 275.0Q1446 256 1472 256Q1498 256 1517.0 275.0Q1536 294 1536 320Z"/>
  </g>
</svg>