<?xml version="1.0" encoding="utf-8"?>
<svg xmlns="http://www.w3.org/2000/svg" width="16" height="16" viewBox="0 0 2048 2048">
  <g transform="translate(0, 2048) scale(1, -1)">
    <path fill="#ffffff" d="M313 256Q250 256 193.0 281.5Q136 307 93.5 349.5Q51 392 25.5 449.0Q0 506 0 569V1479Q0 1542 25.5 1599.0Q51 1656 93.5 1698.5Q136 1741 193.0 1766.5Q250 1792 313 1792H1735Q1798 1792 1855.0 1766.5Q1912 1741 1954.5 1698.5Q1997 1656 2022.5 1599.0Q2048 1542 2048 1479V813Q2039 837 2026.5 864.0Q2014 891 1998.0 916.5Q1982 942 1962.5 963.5Q1943 985 1920 998V1472Q1920 1511 1905.0 1546.0Q1890 1581 1863.5 1607.5Q1837 1634 1802.0 1649.0Q1767 1664 1728 1664H320Q281 1664 246.0 1649.0Q211 1634 184.5 1607.5Q158 1581 143.0 1546.0Q128 1511 128 1472V576Q128 537 143.0 502.0Q158 467 184.5 440.5Q211 414 246.0 399.0Q281 384 320 384H768V345Q768 322 769.5 300.0Q771 278 779 256ZM1760 64Q1760 71 1761.5 79.0Q1763 87 1766 93Q1779 116 1791.0 136.0Q1803 156 1812 182Q1835 246 1845.5 313.0Q1856 380 1856 448Q1856 516 1845.5 583.0Q1835 650 1812 714Q1798 754 1773 794Q1767 804 1763.5 811.5Q1760 819 1760 832Q1760 859 1778.5 877.5Q1797 896 1824 896Q1846 896 1863.0 881.0Q1880 866 1893.5 844.0Q1907 822 1916.5 798.5Q1926 775 1932 758Q1960 683 1972.0 605.0Q1984 527 1984 448Q1984 369 1972.0 291.0Q1960 213 1932 138Q1926 121 1916.5 97.5Q1907 74 1893.5 52.0Q1880 30 1863.0 15.0Q1846 0 1824 0Q1797 0 1778.5 18.5Q1760 37 1760 64ZM1343 0Q1317 0 1298 19L1061 256H960Q934 256 915.0 275.0Q896 294 896 320V576Q896 602 915.0 621.0Q934 640 960 640H1061L1298 877Q1317 896 1343 896Q1369 896 1388.5 877.0Q1408 858 1408 832V64Q1408 38 1388.5 19.0Q1369 0 1343 0ZM320 768Q294 768 275.0 787.0Q256 806 256 832Q256 858 275.0 877.0Q294 896 320 896H1136L1008 768ZM1536 192Q1536 201 1540.5 214.5Q1545 228 1550.5 242.5Q1556 257 1562.0 270.5Q1568 284 1571 292Q1585 328 1592.5 369.0Q1600 410 1600 448Q1600 488 1591.5 527.0Q1583 566 1571 604Q1568 613 1562.0 627.0Q1556 641 1550.5 655.0Q1545 669 1540.5 682.5Q1536 696 1536 704Q1536 730 1555.0 749.0Q1574 768 1600 768Q1618 768 1633.5 758.5Q1649 749 1657 733Q1672 705 1685.0 668.5Q1698 632 1707.5 593.5Q1717 555 1722.5 517.0Q1728 479 1728 448Q1728 416 1722.5 378.5Q1717 341 1707.5 302.5Q1698 264 1685.0 227.5Q1672 191 1657 163Q1649 147 1633.5 137.5Q1618 128 1600 128Q1574 128 1555.0 147.0Q1536 166 1536 192ZM320 512Q294 512 275.0 531.0Q256 550 256 576Q256 602 275.0 621.0Q294 640 320 640H704Q730 640 749.0 621.0Q768 602 768 576Q768 550 749.0 531.0Q730 512 704 512Z"/>
  </g>
</svg>