<?xml version="1.0" encoding="utf-8"?>
<svg xmlns="http://www.w3.org/2000/svg" width="16" height="16" viewBox="0 0 2048 2048">
  <g transform="translate(0, 2048) scale(1, -1)">
    <path fill="#000000" d="M256 896Q229 896 205.5 906.0Q182 916 165.0 933.0Q148 950 138.0 973.5Q128 997 128 1024Q128 1051 138.0 1074.0Q148 1097 165.5 1114.5Q183 1132 206.0 1142.0Q229 1152 256 1152H1792Q1818 1152 1841.5 1142.0Q1865 1132 1882.5 1114.5Q1900 1097 1910.0 1073.5Q1920 1050 1920 1024Q1920 997 1910.0 974.0Q1900 951 1882.5 933.5Q1865 916 1842.0 906.0Q1819 896 1792 896Z"/>
  </g>
</svg>