<?xml version="1.0" encoding="utf-8"?>
<svg xmlns="http://www.w3.org/2000/svg" width="16" height="16" viewBox="0 0 2048 2048">
  <g transform="translate(0, 2048) scale(1, -1)">
    <path fill="#000000" d="M374 896H64Q37 896 18.5 915.0Q0 934 0 961V966L97 1990Q99 2014 118.0 2031.0Q137 2048 161 2048H1472Q1499 2048 1517.5 2029.0Q1536 2010 1536 1983V1978L1472 1312Q1440 1312 1407.5 1309.0Q1375 1306 1343 1301L1402 1920H219L134 1024H888Q865 994 845.5 962.0Q826 930 809 896H504L449 512H739Q742 480 747.0 448.0Q752 416 761 384H430L383 55Q380 32 361.5 16.0Q343 0 320 0Q293 0 274.5 18.5Q256 37 256 64Q256 65 256 66L257 71Q257 72 257 73ZM896 576Q896 695 941.5 800.0Q987 905 1065.0 983.0Q1143 1061 1248.0 1106.5Q1353 1152 1472 1152Q1551 1152 1624.5 1131.5Q1698 1111 1762.0 1073.5Q1826 1036 1879.0 983.0Q1932 930 1969.5 866.0Q2007 802 2027.5 728.5Q2048 655 2048 576Q2048 457 2002.5 352.0Q1957 247 1879.0 169.0Q1801 91 1696.0 45.5Q1591 0 1472 0Q1352 0 1247.0 45.0Q1142 90 1064.0 168.0Q986 246 941.0 351.0Q896 456 896 576ZM1344 248Q1374 248 1395 269L1843 717Q1864 738 1864 768Q1864 798 1843.0 819.0Q1822 840 1792 840Q1762 840 1741 819L1344 422L1203 563Q1182 584 1152 584Q1122 584 1101.0 563.0Q1080 542 1080 512Q1080 482 1101 461L1293 269Q1314 248 1344 248Z"/>
  </g>
</svg>