<?xml version="1.0" encoding="utf-8"?>
<svg xmlns="http://www.w3.org/2000/svg" width="16" height="16" viewBox="0 0 2048 2048">
  <g transform="translate(0, 2048) scale(1, -1)">
    <path fill="#ffffff" d="M630 896H320Q293 896 274.5 915.0Q256 934 256 961V966L353 1990Q355 2014 374.0 2031.0Q393 2048 417 2048H1728Q1755 2048 1773.5 2029.0Q1792 2010 1792 1983V1978L1695 954Q1693 934 1684.5 922.5Q1676 911 1663.0 904.5Q1650 898 1633.5 896.0Q1617 894 1601 894Q1586 894 1571.5 895.0Q1557 896 1546 896L1663 73Q1663 72 1663 71L1664 66Q1664 65 1664 64Q1664 38 1645.0 19.0Q1626 0 1600 0Q1577 0 1558.5 16.0Q1540 32 1537 55L1490 384H1198L1151 55Q1148 32 1129.5 16.0Q1111 0 1088 0Q1061 0 1042.5 18.5Q1024 37 1024 64Q1024 65 1024 66L1025 71Q1025 72 1025 73L1069 384H686L639 55Q636 32 617.5 16.0Q599 0 576 0Q549 0 530.5 18.5Q512 37 512 64Q512 65 512 66L513 71Q513 72 513 73ZM475 1920 390 1024H1573L1658 1920ZM760 896 705 512H1087L1142 896ZM1272 896 1217 512H1471L1416 896Z"/>
  </g>
</svg>