<?xml version="1.0" encoding="utf-8"?>
<svg xmlns="http://www.w3.org/2000/svg" width="16" height="16" viewBox="0 0 2048 2048">
  <g transform="translate(0, 2048) scale(1, -1)">
    <path fill="#ffffff" d="M510 191Q510 217 529 236L803 510Q777 541 755.0 574.5Q733 608 715 644Q696 642 677.5 641.0Q659 640 640 640Q507 640 390.5 690.0Q274 740 187.0 827.0Q100 914 50.0 1030.5Q0 1147 0 1280V1751Q0 1785 13.5 1816.0Q27 1847 50.0 1870.0Q73 1893 103.5 1906.5Q134 1920 169 1920H640Q720 1920 795.5 1901.0Q871 1882 938.5 1846.5Q1006 1811 1064.5 1759.5Q1123 1708 1168 1642Q1253 1664 1344 1664H1868Q1905 1664 1937.5 1649.5Q1970 1635 1994.5 1610.5Q2019 1586 2033.5 1553.5Q2048 1521 2048 1484V960Q2048 862 2023.0 772.0Q1998 682 1952.0 604.0Q1906 526 1842.0 462.0Q1778 398 1700.0 352.0Q1622 306 1531.5 281.0Q1441 256 1344 256Q1219 256 1104.0 298.0Q989 340 893 419L620 145Q601 126 575 126Q548 126 529.0 145.0Q510 164 510 191ZM666 769Q640 864 640 960Q640 1062 669 1161L403 1427Q384 1446 384 1472Q384 1498 403.0 1517.0Q422 1536 448 1536Q474 1536 493 1517L721 1289Q774 1390 857.0 1468.5Q940 1547 1043 1596Q1007 1642 961.5 1678.5Q916 1715 864.0 1740.0Q812 1765 755.5 1778.5Q699 1792 640 1792H169Q152 1792 140.0 1780.0Q128 1768 128 1751V1270Q128 1169 168.5 1078.0Q209 987 278.0 918.0Q347 849 438.0 808.5Q529 768 630 768H657Q661 768 666 769ZM1920 960V1484Q1920 1506 1905.0 1521.0Q1890 1536 1868 1536H1344Q1225 1536 1120.0 1490.5Q1015 1445 937.0 1367.0Q859 1289 813.5 1184.0Q768 1079 768 960Q768 862 800.5 769.5Q833 677 894 600L1299 1005Q1318 1024 1344 1024Q1370 1024 1389.0 1005.0Q1408 986 1408 960Q1408 934 1389 915L984 510Q1061 449 1153.5 416.5Q1246 384 1344 384Q1463 384 1568.0 429.5Q1673 475 1751.0 553.0Q1829 631 1874.5 736.0Q1920 841 1920 960Z"/>
  </g>
</svg>