<?xml version="1.0" encoding="utf-8"?>
<svg xmlns="http://www.w3.org/2000/svg" width="16" height="16" viewBox="0 0 2048 2048">
  <g transform="translate(0, 2048) scale(1, -1)">
    <path fill="#000000" d="M1352 1008 1478 977Q1506 970 1529.0 954.5Q1552 939 1569.0 917.5Q1586 896 1595.5 869.5Q1605 843 1605 815V551Q1605 537 1596.0 528.0Q1587 519 1573 519Q1559 519 1550.0 528.0Q1541 537 1541 551V815Q1541 851 1519.0 878.5Q1497 906 1462 915L1194 981Q1183 984 1176.5 993.0Q1170 1002 1170 1013V1360Q1170 1389 1150.0 1409.0Q1130 1429 1101 1429Q1065 1429 1048.0 1405.0Q1031 1381 1031 1348V658Q1031 644 1025.5 620.0Q1020 596 1010.5 573.5Q1001 551 986.5 534.5Q972 518 954 518Q940 518 931.0 527.0Q922 536 922 550Q922 558 929.0 567.5Q936 577 944.5 590.0Q953 603 960.0 619.5Q967 636 967 658V776H934Q913 776 894.0 774.0Q875 772 860.5 764.0Q846 756 837.0 741.0Q828 726 828 701V458Q828 405 865 368L1057 177Q1077 156 1083.0 132.5Q1089 109 1089 83Q1089 77 1089 70L1088 45Q1088 39 1088 32Q1088 19 1078.5 9.5Q1069 0 1056 0Q1034 0 1027.5 15.5Q1021 31 1021 51Q1021 62 1022.0 71.5Q1023 81 1023 89Q1023 100 1021.5 112.0Q1020 124 1012 132L820 323Q793 350 778.5 385.0Q764 420 764 458V701Q764 729 774.0 754.0Q784 779 802.0 798.0Q820 817 844.0 828.5Q868 840 897 840H967V900H716Q688 900 668.5 919.5Q649 939 649 967V1981Q649 2009 668.5 2028.5Q688 2048 716 2048H1285Q1313 2048 1332.5 2028.5Q1352 2009 1352 1981ZM1279 1155V1981H703V1155H967V1348Q967 1378 976.5 1404.0Q986 1430 1003.0 1450.0Q1020 1470 1045.0 1481.5Q1070 1493 1101 1493Q1128 1493 1152.5 1482.5Q1177 1472 1195.0 1454.0Q1213 1436 1223.5 1411.5Q1234 1387 1234 1360V1155ZM968 1539V1796L840 1668L794 1713L1000 1919L1207 1713L1161 1668L1033 1796V1539ZM703 963H967V1091H703ZM1234 1037 1279 1026V1091H1234Z"/>
  </g>
</svg>