<?xml version="1.0" encoding="utf-8"?>
<svg xmlns="http://www.w3.org/2000/svg" width="16" height="16" viewBox="0 0 2048 2048">
  <g transform="translate(0, 2048) scale(1, -1)">
    <path fill="#000000" d="M256 1472Q256 1498 275.0 1517.0Q294 1536 320 1536H1574L1171 1939Q1152 1958 1152 1984Q1152 2010 1171.0 2029.0Q1190 2048 1216 2048Q1242 2048 1261 2029L1770 1520Q1781 1509 1786.5 1498.0Q1792 1487 1792 1472Q1792 1457 1786.5 1446.0Q1781 1435 1770 1424L1261 915Q1242 896 1216 896Q1190 896 1171.0 915.0Q1152 934 1152 960Q1152 986 1171 1005L1574 1408H320Q294 1408 275.0 1427.0Q256 1446 256 1472ZM1792 576Q1792 550 1773.0 531.0Q1754 512 1728 512H475L877 109Q896 90 896 64Q896 38 877.0 19.0Q858 0 832 0Q806 0 787 19L278 528Q267 539 261.5 550.0Q256 561 256 576Q256 591 261.5 602.0Q267 613 278 624L787 1133Q806 1152 832 1152Q858 1152 877.0 1133.0Q896 1114 896 1088Q896 1062 877 1043L475 640H1728Q1754 640 1773.0 621.0Q1792 602 1792 576Z"/>
  </g>
</svg>