<?xml version="1.0" encoding="utf-8"?>
<svg xmlns="http://www.w3.org/2000/svg" width="16" height="16" viewBox="0 0 2048 2048">
  <g transform="translate(0, 2048) scale(1, -1)">
    <path fill="#000000" d="M376 384Q301 384 232.5 414.5Q164 445 112.5 496.5Q61 548 30.5 616.5Q0 685 0 760V1288Q0 1363 30.5 1431.5Q61 1500 112.5 1551.5Q164 1603 232.5 1633.5Q301 1664 376 1664H1672Q1747 1664 1815.5 1633.5Q1884 1603 1935.5 1551.5Q1987 1500 2017.5 1431.5Q2048 1363 2048 1288V760Q2048 685 2017.5 616.5Q1987 548 1935.5 496.5Q1884 445 1815.5 414.5Q1747 384 1672 384ZM1669 512Q1719 512 1764.5 532.5Q1810 553 1844.5 587.5Q1879 622 1899.5 667.5Q1920 713 1920 763V1285Q1920 1335 1899.5 1380.5Q1879 1426 1844.5 1460.5Q1810 1495 1764.5 1515.5Q1719 1536 1669 1536H379Q329 1536 283.5 1515.5Q238 1495 203.5 1460.5Q169 1426 148.5 1380.5Q128 1335 128 1285V763Q128 713 148.5 667.5Q169 622 203.5 587.5Q238 553 283.5 532.5Q329 512 379 512ZM1408 768Q1381 768 1357.5 778.0Q1334 788 1317.0 805.0Q1300 822 1290.0 845.5Q1280 869 1280 896V1152Q1280 1179 1290.0 1202.0Q1300 1225 1317.5 1242.5Q1335 1260 1358.0 1270.0Q1381 1280 1408 1280H1664Q1690 1280 1713.5 1270.0Q1737 1260 1754.5 1242.5Q1772 1225 1782.0 1201.5Q1792 1178 1792 1152V896Q1792 869 1782.0 846.0Q1772 823 1754.5 805.5Q1737 788 1714.0 778.0Q1691 768 1664 768ZM320 896Q294 896 275.0 915.0Q256 934 256 960V1088Q256 1114 275.0 1133.0Q294 1152 320 1152H576Q602 1152 621.0 1133.0Q640 1114 640 1088V960Q640 934 621.0 915.0Q602 896 576 896ZM832 896Q806 896 787.0 915.0Q768 934 768 960V1088Q768 1114 787.0 1133.0Q806 1152 832 1152H1088Q1114 1152 1133.0 1133.0Q1152 1114 1152 1088V960Q1152 934 1133.0 915.0Q1114 896 1088 896ZM1408 1152V896H1664V1152Z"/>
  </g>
</svg>