<?xml version="1.0" encoding="utf-8"?>
<svg xmlns="http://www.w3.org/2000/svg" width="16" height="16" viewBox="0 0 2048 2048">
  <g transform="translate(0, 2048) scale(1, -1)">
    <path fill="#000000" d="M384 1536V1546Q384 1650 425.5 1741.5Q467 1833 537.5 1901.0Q608 1969 700.5 2008.5Q793 2048 896 2048Q1002 2048 1095.5 2008.0Q1189 1968 1258.5 1898.5Q1328 1829 1368.0 1735.5Q1408 1642 1408 1536Q1408 1430 1368.0 1336.5Q1328 1243 1258.5 1173.5Q1189 1104 1095.5 1064.0Q1002 1024 896 1024Q790 1024 696.5 1064.0Q603 1104 533.5 1173.5Q464 1243 424.0 1336.5Q384 1430 384 1536ZM1280 1536V1544Q1280 1622 1249.0 1690.5Q1218 1759 1165.0 1810.0Q1112 1861 1042.5 1890.5Q973 1920 896 1920Q816 1920 746.0 1890.0Q676 1860 624.0 1808.0Q572 1756 542.0 1686.0Q512 1616 512 1536Q512 1456 542.0 1386.0Q572 1316 624.0 1264.0Q676 1212 746.0 1182.0Q816 1152 896 1152Q976 1152 1046.0 1182.0Q1116 1212 1168.0 1264.0Q1220 1316 1250.0 1386.0Q1280 1456 1280 1536ZM0 647Q0 698 21.0 743.5Q42 789 77.5 823.0Q113 857 159.5 876.5Q206 896 257 896H1536Q1606 896 1665.0 861.0Q1724 826 1759 765Q1742 768 1727 768Q1698 768 1671.5 759.5Q1645 751 1621 736Q1604 752 1581.5 760.0Q1559 768 1536 768H257Q230 768 206.5 758.0Q183 748 165.5 731.0Q148 714 138.0 690.5Q128 667 128 640Q128 541 161.5 465.0Q195 389 252.0 332.5Q309 276 384.0 237.5Q459 199 542.5 175.0Q626 151 713.0 140.0Q800 129 880 128L1005 4Q978 2 950.5 1.0Q923 0 896 0Q794 0 688.0 14.0Q582 28 482.5 59.5Q383 91 295.0 141.0Q207 191 141.5 263.0Q76 335 38.0 430.0Q0 525 0 647ZM896 320Q896 346 915 365L1171 621Q1190 640 1216 640Q1242 640 1261.0 621.0Q1280 602 1280 576Q1280 550 1261 531L1115 384H1829L1683 531Q1664 550 1664 576Q1664 602 1683.0 621.0Q1702 640 1728 640Q1754 640 1773 621L2029 365Q2048 346 2048 320Q2048 294 2029 275L1773 19Q1754 0 1728 0Q1702 0 1683.0 19.0Q1664 38 1664 64Q1664 90 1683 109L1829 256H1115L1261 109Q1280 90 1280 64Q1280 38 1261.0 19.0Q1242 0 1216 0Q1190 0 1171 19L915 275Q896 294 896 320Z"/>
  </g>
</svg>