<?xml version="1.0" encoding="utf-8"?>
<svg xmlns="http://www.w3.org/2000/svg" width="16" height="16" viewBox="0 0 2048 2048">
  <g transform="translate(0, 2048) scale(1, -1)">
    <path fill="#ffffff" d="M1472 1280Q1446 1280 1427.0 1299.0Q1408 1318 1408 1344Q1408 1370 1427.0 1389.0Q1446 1408 1472 1408H1834Q1780 1525 1694.5 1619.5Q1609 1714 1503.0 1781.0Q1397 1848 1275.0 1884.0Q1153 1920 1024 1920H1015Q903 1920 795.5 1891.0Q688 1862 591.5 1809.0Q495 1756 413.0 1680.0Q331 1604 270 1511Q232 1452 204 1388Q197 1372 192.0 1355.5Q187 1339 179 1323Q170 1303 156.0 1291.5Q142 1280 119 1280Q92 1280 73.5 1298.5Q55 1317 55 1344Q55 1354 58 1365Q110 1515 206.0 1640.5Q302 1766 428.5 1856.5Q555 1947 704.5 1997.5Q854 2048 1013 2048Q1154 2048 1288.0 2012.5Q1422 1977 1539.5 1909.0Q1657 1841 1754.0 1743.0Q1851 1645 1920 1520V1856Q1920 1882 1939.0 1901.0Q1958 1920 1984 1920Q2010 1920 2029.0 1901.0Q2048 1882 2048 1856V1344Q2048 1318 2029.0 1299.0Q2010 1280 1984 1280ZM896 576Q896 695 941.5 800.0Q987 905 1065.0 983.0Q1143 1061 1248.0 1106.5Q1353 1152 1472 1152Q1551 1152 1624.5 1131.5Q1698 1111 1762.0 1073.5Q1826 1036 1879.0 983.0Q1932 930 1969.5 866.0Q2007 802 2027.5 728.5Q2048 655 2048 576Q2048 457 2002.5 352.0Q1957 247 1879.0 169.0Q1801 91 1696.0 45.5Q1591 0 1472 0Q1352 0 1247.0 45.0Q1142 90 1064.0 168.0Q986 246 941.0 351.0Q896 456 896 576ZM1536 576V832Q1536 858 1517.0 877.0Q1498 896 1472 896Q1446 896 1427.0 877.0Q1408 858 1408 832V576Q1408 550 1427.0 531.0Q1446 512 1472 512Q1498 512 1517.0 531.0Q1536 550 1536 576ZM1010 0Q875 0 746.0 35.0Q617 70 502.0 135.0Q387 200 291.0 293.5Q195 387 128 504V192Q128 166 109.0 147.0Q90 128 64 128Q38 128 19.0 147.0Q0 166 0 192V704Q0 730 19.0 749.0Q38 768 64 768H576Q602 768 621.0 749.0Q640 730 640 704Q640 678 621.0 659.0Q602 640 576 640H201Q249 539 319.5 454.0Q390 369 478.0 304.0Q566 239 668.0 196.0Q770 153 881 137Q910 98 943.0 64.0Q976 30 1014 0ZM1552 320Q1552 353 1528.5 376.5Q1505 400 1472 400Q1439 400 1415.5 376.5Q1392 353 1392 320Q1392 287 1415.5 263.5Q1439 240 1472 240Q1505 240 1528.5 263.5Q1552 287 1552 320Z"/>
  </g>
</svg>