<?xml version="1.0" encoding="utf-8"?>
<svg xmlns="http://www.w3.org/2000/svg" height="16" width="16" viewBox="0 0 16 16">
  <g>
    <path id="path1" transform="rotate(0,8,8) translate(0,0) scale(0.03125,0.03125)  " fill="#000000" d="M478,315.25L508.5,324.75 505.18359375,335.072265625 501.484375,345.1640625 497.40234375,355.025390625 492.9375,364.65625 488.08984375,374.056640625 482.859375,383.2265625 477.24609375,392.166015625 471.25,400.875 458.3359375,417.4609375 444.34375,432.84375 429.2734375,447.0234375 413.125,460 396.015625,471.6796875 378.0625,481.96875 359.265625,490.8671875 339.625,498.375 329.541015625,501.568359375 319.3515625,504.3359375 309.056640625,506.677734375 298.65625,508.59375 288.150390625,510.083984375 277.5390625,511.1484375 266.822265625,511.787109375 256,512 238.984375,511.46875 222.1875,509.875 205.609375,507.21875 189.25,503.5 173.2265625,498.7734375 157.65625,493.09375 142.5390625,486.4609375 127.875,478.875 113.710929870605,470.375 100.093742370605,461 87.0234375,450.75 74.5,439.625 62.65625,427.6796875 51.625,414.96875 41.40625,401.4921875 32,387.25 32,448 0,448 0,320 128,320 128,352 49,352 56.8203086853027,366.2734375 65.53125,379.84375 75.1328125,392.7109375 85.625,404.875 96.8828125,416.25 108.78125,426.75 121.3203125,436.375 134.5,445.125 148.2421875,452.96875 162.46875,459.875 177.1796875,465.84375 192.375,470.875 207.9296875,474.8671875 223.71875,477.71875 239.7421875,479.4296875 256,480 275.0546875,479.2578125 293.71875,477.03125 311.9921875,473.3203125 329.875,468.125 347.171875,461.578125 363.6875,453.8125 379.421875,444.828125 394.375,434.625 408.46875,423.265625 421.625,410.8125 433.84375,397.265625 445.125,382.625 455.2890625,367.0234375 464.15625,350.59375 471.7265625,333.3359375 478,315.25z M256,0L273.015625,0.531251430511475 289.8125,2.12500381469727 306.390625,4.78125429153442 322.75,8.5 338.7734375,13.2265758514404 354.34375,18.9062690734863 369.4609375,25.5390777587891 384.125,33.125 398.2890625,41.6250190734863 411.90625,51.0000267028809 424.9765625,61.2500228881836 437.5,72.375 449.34375,84.3203201293945 460.374969482422,97.0312576293945 470.593719482422,110.5078125 480,124.75 480,64 512,64 512,192 384,192 384,160 463,160 455.1796875,145.7265625 446.46875,132.15625 436.8671875,119.2890625 426.375,107.125 415.1171875,95.75 403.21875,85.25 390.6796875,75.6250076293945 377.5,66.875 363.7578125,59.0312614440918 349.53125,52.1250114440918 334.8203125,46.1562576293945 319.625,41.125 304.0703125,37.1328239440918 288.28125,34.2812690734863 272.2578125,32.5703277587891 256,32 236.945297241211,32.7422065734863 218.281234741211,34.9687767028809 200.007797241211,38.6797103881836 182.125,43.875 164.828125,50.4218864440918 148.3125,58.1875114440918 132.578125,67.1718826293945 117.625,77.375 103.53125,88.7343826293945 90.375,101.187507629395 78.15625,114.734375 66.875,129.375 56.7109375,144.9765625 47.84375,161.40625 40.2734375,178.6640625 34,196.75 3.5,187.25 6.81640625,176.984375 10.515625,166.9375 14.59765625,157.109375 19.0625,147.5 23.91015625,138.109375 29.140625,128.9375 34.75390625,119.984375 40.75,111.25 53.6640625,94.609375 67.65625,79.1875 82.7265625,64.984375 98.875,52 115.984375,40.3203125 133.9375,30.0312538146973 152.734375,21.1328163146973 172.375,13.625 182.458984375,10.4316463470459 192.6484375,7.66407108306885 202.943359375,5.32227468490601 213.34375,3.40625762939453 223.849609375,1.91602098941803 234.4609375,0.851565361022949 245.177734375,0.212891459465027 256,0z" />
  </g>
</svg>
