<?xml version="1.0" encoding="utf-8"?>
<svg xmlns="http://www.w3.org/2000/svg" width="16" height="16" viewBox="0 0 2048 2048">
  <g transform="translate(0, 2048) scale(1, -1)">
    <path fill="#ffffff" d="M128 763V1408Q128 1459 148.0 1505.5Q168 1552 202.0 1587.0Q236 1622 281.5 1643.0Q327 1664 379 1664H1664Q1715 1664 1761.5 1644.0Q1808 1624 1843.0 1590.0Q1878 1556 1899.0 1510.5Q1920 1465 1920 1413V768Q1920 717 1900.0 670.5Q1880 624 1846.0 589.0Q1812 554 1766.5 533.0Q1721 512 1669 512H384Q333 512 286.5 532.0Q240 552 205.0 586.0Q170 620 149.0 665.5Q128 711 128 763ZM1664 640Q1691 640 1714.0 650.0Q1737 660 1754.5 677.5Q1772 695 1782.0 718.0Q1792 741 1792 768V1408Q1792 1434 1782.0 1457.5Q1772 1481 1754.5 1498.5Q1737 1516 1713.5 1526.0Q1690 1536 1664 1536H384Q357 1536 334.0 1526.0Q311 1516 293.5 1498.5Q276 1481 266.0 1458.0Q256 1435 256 1408V768Q256 741 266.0 717.5Q276 694 293.0 677.0Q310 660 333.5 650.0Q357 640 384 640ZM64 256Q38 256 19.0 275.0Q0 294 0 320Q0 346 19.0 365.0Q38 384 64 384H1984Q2010 384 2029.0 365.0Q2048 346 2048 320Q2048 294 2029.0 275.0Q2010 256 1984 256Z"/>
  </g>
</svg>