<?xml version="1.0" encoding="utf-8"?>
<svg xmlns="http://www.w3.org/2000/svg" width="16" height="16" viewBox="0 0 2048 2048">
  <g transform="translate(0, 2048) scale(1, -1)">
    <path fill="#000000" d="M251 256Q201 256 155.5 276.5Q110 297 75.5 331.5Q41 366 20.5 411.5Q0 457 0 507V1541Q0 1591 20.5 1636.5Q41 1682 75.5 1716.5Q110 1751 155.5 1771.5Q201 1792 251 1792H1797Q1847 1792 1892.5 1771.5Q1938 1751 1972.5 1716.5Q2007 1682 2027.5 1636.5Q2048 1591 2048 1541V871Q2028 925 1995.0 971.0Q1962 1017 1920 1055V1536Q1920 1562 1910.0 1585.5Q1900 1609 1882.5 1626.5Q1865 1644 1841.5 1654.0Q1818 1664 1792 1664H256Q229 1664 206.0 1654.0Q183 1644 165.5 1626.5Q148 1609 138.0 1586.0Q128 1563 128 1536V512Q128 485 138.0 461.5Q148 438 165.0 421.0Q182 404 205.5 394.0Q229 384 256 384H333Q353 371 376.0 363.5Q399 356 423 353Q504 343 574.5 321.5Q645 300 714 256ZM1290 2Q1248 2 1209.0 14.0Q1170 26 1136.5 48.0Q1103 70 1074.5 99.0Q1046 128 1024 163Q980 232 925.5 287.0Q871 342 804 389Q760 419 717.0 439.0Q674 459 630.0 472.5Q586 486 539.0 495.0Q492 504 441 512Q415 516 399.5 533.0Q384 550 384 576Q384 582 386 592Q399 650 428.0 695.0Q457 740 498.0 771.0Q539 802 590.5 818.0Q642 834 701 834Q751 834 799.5 825.0Q848 816 896 800V1344Q896 1383 911.0 1418.0Q926 1453 952.5 1479.5Q979 1506 1014.0 1521.0Q1049 1536 1088 1536Q1127 1536 1162.0 1521.0Q1197 1506 1223.5 1479.5Q1250 1453 1265.0 1418.0Q1280 1383 1280 1344V1078L1656 1012Q1713 1002 1761.5 973.0Q1810 944 1845.5 902.0Q1881 860 1901.0 807.5Q1921 755 1921 697Q1921 641 1901 586L1775 244Q1745 163 1680.0 109.0Q1615 55 1530 40L1335 6Q1315 2 1290 2ZM1793 696Q1793 731 1781.0 762.5Q1769 794 1748.0 819.5Q1727 845 1697.5 862.5Q1668 880 1634 886L1205 961Q1182 965 1167.0 983.0Q1152 1001 1152 1024V1344Q1152 1370 1133.0 1389.0Q1114 1408 1088 1408Q1062 1408 1043.0 1389.0Q1024 1370 1024 1344V704Q1024 677 1005.5 658.5Q987 640 960 640Q951 640 945.0 641.5Q939 643 931 647Q877 672 820.5 689.0Q764 706 704 706Q651 706 609.0 689.0Q567 672 537 627Q729 592 877.5 494.0Q1026 396 1132 231Q1145 211 1162.0 193.0Q1179 175 1200.0 161.0Q1221 147 1244.0 138.5Q1267 130 1292 130Q1297 130 1303.0 130.5Q1309 131 1314 132L1508 166Q1559 175 1598.0 208.0Q1637 241 1655 289L1781 630Q1793 661 1793 696Z"/>
  </g>
</svg>