<?xml version="1.0" encoding="utf-8"?>
<svg xmlns="http://www.w3.org/2000/svg" width="16" height="16" viewBox="0 0 2048 2048">
  <g transform="translate(0, 2048) scale(1, -1)">
    <path fill="#ffffff" d="M896 1472Q896 1591 941.5 1696.0Q987 1801 1065.0 1879.0Q1143 1957 1248.0 2002.5Q1353 2048 1472 2048Q1551 2048 1624.5 2027.5Q1698 2007 1762.0 1969.5Q1826 1932 1879.0 1879.0Q1932 1826 1969.5 1762.0Q2007 1698 2027.5 1624.5Q2048 1551 2048 1472Q2048 1353 2002.5 1248.0Q1957 1143 1879.0 1065.0Q1801 987 1696.0 941.5Q1591 896 1472 896Q1352 896 1247.0 941.0Q1142 986 1064.0 1064.0Q986 1142 941.0 1247.0Q896 1352 896 1472ZM251 256Q201 256 155.5 276.5Q110 297 75.5 331.5Q41 366 20.5 411.5Q0 457 0 507V1541Q0 1591 20.5 1636.5Q41 1682 75.5 1716.5Q110 1751 155.5 1771.5Q201 1792 251 1792H809Q779 1731 761 1664H256Q229 1664 206.0 1654.0Q183 1644 165.5 1626.5Q148 1609 138.0 1586.0Q128 1563 128 1536V512Q128 485 138.0 461.5Q148 438 165.0 421.0Q182 404 205.5 394.0Q229 384 256 384H1792Q1819 384 1842.0 394.0Q1865 404 1882.5 421.5Q1900 439 1910.0 462.0Q1920 485 1920 512V888Q1956 915 1988.0 947.0Q2020 979 2048 1014V507Q2048 457 2027.5 411.5Q2007 366 1972.5 331.5Q1938 297 1892.5 276.5Q1847 256 1797 256ZM1344 1144Q1374 1144 1395 1165L1843 1613Q1864 1634 1864 1664Q1864 1694 1843.0 1715.0Q1822 1736 1792 1736Q1762 1736 1741 1715L1344 1318L1203 1459Q1182 1480 1152 1480Q1122 1480 1101.0 1459.0Q1080 1438 1080 1408Q1080 1378 1101 1357L1293 1165Q1314 1144 1344 1144ZM832 640Q806 640 787.0 659.0Q768 678 768 704Q768 730 787.0 749.0Q806 768 832 768H1216Q1242 768 1261.0 749.0Q1280 730 1280 704Q1280 678 1261.0 659.0Q1242 640 1216 640Z"/>
  </g>
</svg>