<?xml version="1.0" encoding="utf-8"?>
<svg id="" width="13" height="13" style="width:13px;height:13px;" version="1.1"
    xmlns="http://www.w3.org/2000/svg" viewBox="0 0 2048 2048" enable-background="new 0 0 2048 2048"
    xml:space="preserve"><path fill="#000000" d="M0 1132.23 q0 -53.08 20.3 -101.99 q20.3 -48.91 57.75 -86.37 l865.82 -865.82 q37.46 -37.46 86.37 -57.75 q48.91 -20.3 101.99 -20.3 l649.36 0 q55.16 0 103.55 20.82 q48.39 20.82 84.81 57.23 q36.42 36.42 57.24 84.81 q20.82 48.39 20.82 103.55 l0 649.36 q0 53.08 -20.3 101.99 q-20.29 48.91 -57.75 86.37 l-865.82 865.82 q-37.46 37.46 -86.37 57.75 q-48.91 20.3 -101.99 20.3 q-53.07 0 -102.5 -20.3 q-49.43 -20.29 -85.86 -56.71 l-649.36 -650.4 q-78.05 -78.05 -78.05 -188.36 ZM915.77 1915.84 q27.06 0 51.52 -10.41 q24.45 -10.41 43.18 -29.14 l865.82 -865.82 q17.69 -17.69 28.1 -43.19 q10.41 -25.5 10.41 -51.51 l0 -649.36 q0 -28.1 -10.41 -52.04 q-10.41 -23.94 -28.62 -42.14 q-18.21 -18.21 -42.14 -28.62 q-23.93 -10.41 -52.04 -10.41 l-649.36 0 q-56.2 0 -94.7 38.51 l-865.82 865.82 q-18.73 18.73 -28.62 43.19 q-9.89 24.45 -9.89 51.51 q0 55.15 38.51 93.66 l649.36 650.4 q39.55 39.55 94.7 39.55 ZM1381.98 532.81 q0 -28.09 10.41 -52.02 q10.41 -23.94 28.62 -42.15 q18.21 -18.21 42.14 -28.62 q23.93 -10.4 52.04 -10.4 q27.05 0 51.51 10.4 q24.45 10.41 42.67 28.62 q18.21 18.22 28.62 42.67 q10.4 24.45 10.4 51.5 q0 28.1 -10.4 52.04 q-10.41 23.93 -28.62 42.14 q-18.21 18.21 -42.15 28.62 q-23.94 10.41 -52.03 10.41 q-28.1 0 -52.56 -10.41 q-24.45 -10.41 -42.14 -28.1 q-17.69 -17.69 -28.1 -42.14 q-10.41 -24.46 -10.41 -52.56 Z"/></svg>