<?xml version="1.0" encoding="utf-8"?>
<svg xmlns="http://www.w3.org/2000/svg" width="16" height="16" viewBox="0 0 2048 2048">
  <g transform="translate(0, 2048) scale(1, -1)">
    <path fill="#ffffff" d="M512 1088Q512 1062 493 1043L365 915Q346 896 320 896Q294 896 275.0 915.0Q256 934 256 960Q256 983 267.5 996.0Q279 1009 294 1024H128Q101 1024 77.5 1034.0Q54 1044 37.0 1061.0Q20 1078 10.0 1101.5Q0 1125 0 1152V1664Q0 1691 10.0 1714.0Q20 1737 37.5 1754.5Q55 1772 78.0 1782.0Q101 1792 128 1792H896Q922 1792 945.5 1782.0Q969 1772 986.5 1754.5Q1004 1737 1014.0 1713.5Q1024 1690 1024 1664V1600Q1024 1574 1005.0 1555.0Q986 1536 960 1536Q938 1536 925.0 1544.5Q912 1553 905.5 1566.5Q899 1580 897.0 1596.5Q895 1613 895 1630Q895 1639 895.5 1647.5Q896 1656 896 1664H128V1152H294Q280 1166 268.0 1180.0Q256 1194 256 1216Q256 1242 275.0 1261.0Q294 1280 320 1280Q346 1280 365 1261L493 1133Q512 1114 512 1088ZM1024 640H1016Q938 640 869.5 671.0Q801 702 750.0 755.0Q699 808 669.5 877.5Q640 947 640 1024Q640 1104 670.0 1174.0Q700 1244 752.0 1296.0Q804 1348 874.0 1378.0Q944 1408 1024 1408Q1104 1408 1174.0 1378.0Q1244 1348 1296.0 1296.0Q1348 1244 1378.0 1174.0Q1408 1104 1408 1024Q1408 944 1378.0 874.0Q1348 804 1296.0 752.0Q1244 700 1174.0 670.0Q1104 640 1024 640ZM1024 768H1029Q1081 768 1126.5 789.0Q1172 810 1206.0 845.0Q1240 880 1260.0 926.5Q1280 973 1280 1024Q1280 1076 1259.5 1123.0Q1239 1170 1204.5 1204.5Q1170 1239 1123.0 1259.5Q1076 1280 1024 1280Q971 1280 924.5 1259.5Q878 1239 843.5 1204.5Q809 1170 788.5 1123.0Q768 1076 768 1024Q768 971 788.5 924.5Q809 878 843.5 843.5Q878 809 924.5 788.5Q971 768 1024 768ZM2048 896V384Q2048 357 2038.0 334.0Q2028 311 2010.5 293.5Q1993 276 1970.0 266.0Q1947 256 1920 256H1152Q1125 256 1101.5 266.0Q1078 276 1061.0 293.0Q1044 310 1034.0 333.5Q1024 357 1024 384V448Q1024 474 1043.0 493.0Q1062 512 1088 512Q1110 512 1122.5 503.5Q1135 495 1141.5 481.5Q1148 468 1150.0 451.5Q1152 435 1152 418V384H1920V896H1754Q1770 880 1781.0 868.0Q1792 856 1792 832Q1792 806 1773.0 787.0Q1754 768 1728 768Q1702 768 1683 787L1555 915Q1536 934 1536 960Q1536 986 1555 1005L1683 1133Q1702 1152 1728 1152Q1754 1152 1773.0 1133.0Q1792 1114 1792 1088Q1792 1065 1780.5 1052.0Q1769 1039 1754 1024H1920Q1946 1024 1969.0 1014.0Q1992 1004 2010 986Q2048 948 2048 896Z"/>
  </g>
</svg>