<?xml version="1.0" encoding="utf-8"?>
<svg xmlns="http://www.w3.org/2000/svg" width="16" height="16" viewBox="0 0 2048 2048">
  <g transform="translate(0, 2048) scale(1, -1)">
    <path fill="#ffffff" d="M1856 1920Q1895 1920 1930.0 1905.0Q1965 1890 1991.5 1863.5Q2018 1837 2033.0 1802.0Q2048 1767 2048 1728V832Q2048 793 2033.0 758.0Q2018 723 1991.5 696.5Q1965 670 1930.0 655.0Q1895 640 1856 640H1536V320Q1536 281 1521.0 246.0Q1506 211 1479.5 184.5Q1453 158 1418.0 143.0Q1383 128 1344 128H192Q153 128 118.0 143.0Q83 158 56.5 184.5Q30 211 15.0 246.0Q0 281 0 320V1216Q0 1255 15.0 1290.0Q30 1325 56.5 1351.5Q83 1378 118.0 1393.0Q153 1408 192 1408H512V1728Q512 1767 527.0 1802.0Q542 1837 568.5 1863.5Q595 1890 630.0 1905.0Q665 1920 704 1920ZM1920 1728Q1920 1754 1901.0 1773.0Q1882 1792 1856 1792H704Q678 1792 659.0 1773.0Q640 1754 640 1728V832Q640 806 659.0 787.0Q678 768 704 768H1856Q1882 768 1901.0 787.0Q1920 806 1920 832ZM1408 640H704Q665 640 630.0 655.0Q595 670 568.5 696.5Q542 723 527.0 758.0Q512 793 512 832V1280H192Q166 1280 147.0 1261.0Q128 1242 128 1216V320Q128 294 147.0 275.0Q166 256 192 256H1344Q1370 256 1389.0 275.0Q1408 294 1408 320Z"/>
  </g>
</svg>