<?xml version="1.0" encoding="utf-8"?>
<svg xmlns="http://www.w3.org/2000/svg" width="16" height="16" viewBox="0 0 2048 2048">
  <g transform="translate(0, 2048) scale(1, -1)">
    <path fill="#000000" d="M1856 1792Q1896 1792 1931.0 1777.0Q1966 1762 1992.0 1736.0Q2018 1710 2033.0 1675.0Q2048 1640 2048 1600V448Q2048 408 2033.0 373.0Q2018 338 1992.0 312.0Q1966 286 1931.0 271.0Q1896 256 1856 256H192Q152 256 117.0 271.0Q82 286 56.0 312.0Q30 338 15.0 373.0Q0 408 0 448V1600Q0 1640 15.0 1675.0Q30 1710 56.0 1736.0Q82 1762 117.0 1777.0Q152 1792 192 1792ZM128 896Q168 896 191.5 897.5Q215 899 231 899Q236 899 247.5 898.5Q259 898 271.0 894.0Q283 890 294.5 880.0Q306 870 319.0 851.5Q332 833 352 803L490 1467Q495 1493 515.5 1509.5Q536 1526 563 1526Q586 1526 605.0 1513.5Q624 1501 632 1479L812 1024Q831 1024 845.5 1025.0Q860 1026 868 1026Q880 1026 896.0 1024.0Q912 1022 928.5 1013.0Q945 1004 956 983L1064 768H1165L1317 1410Q1323 1436 1343.0 1451.5Q1363 1467 1389 1467Q1416 1467 1436.5 1451.0Q1457 1435 1462 1409L1555 975L1610 1043Q1621 1056 1636.0 1063.0Q1651 1070 1667 1070Q1679 1070 1714.5 1059.0Q1750 1048 1790.5 1033.5Q1831 1019 1867.5 1005.5Q1904 992 1920 986V1600Q1920 1626 1901.0 1645.0Q1882 1664 1856 1664H192Q166 1664 147.0 1645.0Q128 1626 128 1600ZM128 448Q128 422 147.0 403.0Q166 384 192 384H1856Q1882 384 1901.0 403.0Q1920 422 1920 448V851L1685 933L1583 808Q1561 781 1526 781Q1500 781 1479.0 797.0Q1458 813 1453 839L1387 1149L1280 697Q1274 672 1254.0 656.0Q1234 640 1208 640H1030Q1009 640 991.5 651.0Q974 662 964 681L856 896Q836 896 821.0 895.0Q806 894 799 894Q784 894 766.5 896.5Q749 899 732.0 909.5Q715 920 706 943L579 1265L452 651Q447 625 426.0 608.5Q405 592 378 592Q360 592 344.0 600.5Q328 609 317 625L222 768H128Z"/>
  </g>
</svg>