<?xml version="1.0" encoding="utf-8"?>
<svg xmlns="http://www.w3.org/2000/svg" width="16" height="16" viewBox="0 0 2048 2048">
  <g transform="translate(0, 2048) scale(1, -1)">
    <path fill="#ffffff" d="M576 0Q537 0 502.0 15.0Q467 30 440.5 56.5Q414 83 399.0 118.0Q384 153 384 192V1856Q384 1895 399.0 1930.0Q414 1965 440.5 1991.5Q467 2018 502.0 2033.0Q537 2048 576 2048H1472Q1511 2048 1546.0 2033.0Q1581 2018 1607.5 1991.5Q1634 1965 1649.0 1930.0Q1664 1895 1664 1856V192Q1664 153 1649.0 118.0Q1634 83 1607.5 56.5Q1581 30 1546.0 15.0Q1511 0 1472 0ZM1472 128Q1498 128 1517.0 147.0Q1536 166 1536 192V1856Q1536 1882 1517.0 1901.0Q1498 1920 1472 1920H576Q550 1920 531.0 1901.0Q512 1882 512 1856V192Q512 166 531.0 147.0Q550 128 576 128ZM704 256Q678 256 659.0 275.0Q640 294 640 320Q640 346 659.0 365.0Q678 384 704 384H1344Q1370 384 1389.0 365.0Q1408 346 1408 320Q1408 294 1389.0 275.0Q1370 256 1344 256Z"/>
  </g>
</svg>