<?xml version="1.0" encoding="utf-8"?>
<svg xmlns="http://www.w3.org/2000/svg" width="16" height="16" viewBox="0 0 2048 2048">
  <g transform="translate(0, 2048) scale(1, -1)">
    <path fill="#ffffff" d="M1856 1920Q1895 1920 1930.0 1905.0Q1965 1890 1991.5 1863.5Q2018 1837 2033.0 1802.0Q2048 1767 2048 1728V960Q2048 921 2033.0 886.0Q2018 851 1991.5 824.5Q1965 798 1930.0 783.0Q1895 768 1856 768H1280V320Q1280 281 1265.0 246.0Q1250 211 1223.5 184.5Q1197 158 1162.0 143.0Q1127 128 1088 128H192Q153 128 118.0 143.0Q83 158 56.5 184.5Q30 211 15.0 246.0Q0 281 0 320V1088Q0 1127 15.0 1162.0Q30 1197 56.5 1223.5Q83 1250 118.0 1265.0Q153 1280 192 1280H768V1728Q768 1767 783.0 1802.0Q798 1837 824.5 1863.5Q851 1890 886.0 1905.0Q921 1920 960 1920ZM1920 1728Q1920 1754 1901.0 1773.0Q1882 1792 1856 1792H960Q934 1792 915.0 1773.0Q896 1754 896 1728V960Q896 934 915.0 915.0Q934 896 960 896H1856Q1882 896 1901.0 915.0Q1920 934 1920 960ZM1152 768H960Q921 768 886.0 783.0Q851 798 824.5 824.5Q798 851 783.0 886.0Q768 921 768 960V1152H192Q166 1152 147.0 1133.0Q128 1114 128 1088V320Q128 294 147.0 275.0Q166 256 192 256H1088Q1114 256 1133.0 275.0Q1152 294 1152 320Z"/>
  </g>
</svg>