<?xml version="1.0" encoding="utf-8"?>
<svg xmlns="http://www.w3.org/2000/svg" width="16" height="16" viewBox="0 0 2048 2048">
  <g transform="translate(0, 2048) scale(1, -1)">
    <path fill="#ffffff" d="M953 1031 854 932 768 1152H257L124 809Q117 791 100.5 780.0Q84 769 65 769Q38 769 19.0 787.0Q0 805 0 832Q0 838 1.0 844.5Q2 851 4 856L452 2008Q460 2027 476.0 2038.0Q492 2049 512 2049Q532 2049 548.0 2038.0Q564 2027 572 2008ZM512 1809 307 1280H719ZM1752 1531Q1812 1531 1865.0 1508.0Q1918 1485 1957.5 1445.5Q1997 1406 2020.0 1353.0Q2043 1300 2043 1240Q2043 1181 2021.0 1129.0Q1999 1077 1957 1035L1077 151Q1039 113 987 100L592 3Q588 2 584.5 1.5Q581 1 576 1Q550 1 531.5 20.0Q513 39 513 65Q513 70 513.5 73.5Q514 77 515 81L616 474Q622 498 635.5 521.5Q649 545 666 562L1547 1446Q1588 1487 1641.5 1509.0Q1695 1531 1752 1531ZM1752 1403Q1720 1403 1690.5 1391.0Q1661 1379 1638 1356L757 471Q744 458 740 442L666 153L957 225Q974 229 987 242L1867 1125Q1890 1148 1902.0 1178.0Q1914 1208 1914 1240Q1914 1273 1901.5 1303.0Q1889 1333 1867.0 1355.0Q1845 1377 1815.5 1390.0Q1786 1403 1752 1403Z"/>
  </g>
</svg>