<?xml version="1.0" encoding="utf-8"?>
<svg xmlns="http://www.w3.org/2000/svg" width="16" height="16" viewBox="0 0 2048 2048">
  <g transform="translate(0, 2048) scale(1, -1)">
    <path fill="#ffffff" d="M608 1280Q648 1280 676.0 1308.0Q704 1336 704 1376Q704 1416 676.0 1444.0Q648 1472 608 1472Q568 1472 540.0 1444.0Q512 1416 512 1376Q512 1336 540.0 1308.0Q568 1280 608 1280ZM704 992Q704 952 676.0 924.0Q648 896 608 896Q568 896 540.0 924.0Q512 952 512 992Q512 1032 540.0 1060.0Q568 1088 608 1088Q648 1088 676.0 1060.0Q704 1032 704 992ZM608 512Q648 512 676.0 540.0Q704 568 704 608Q704 648 676.0 676.0Q648 704 608 704Q568 704 540.0 676.0Q512 648 512 608Q512 568 540.0 540.0Q568 512 608 512ZM896 1344Q896 1370 915.0 1389.0Q934 1408 960 1408H1472Q1498 1408 1517.0 1389.0Q1536 1370 1536 1344Q1536 1318 1517.0 1299.0Q1498 1280 1472 1280H960Q934 1280 915.0 1299.0Q896 1318 896 1344ZM960 1024Q934 1024 915.0 1005.0Q896 986 896 960Q896 934 915.0 915.0Q934 896 960 896H1472Q1498 896 1517.0 915.0Q1536 934 1536 960Q1536 986 1517.0 1005.0Q1498 1024 1472 1024ZM896 576Q896 602 915.0 621.0Q934 640 960 640H1472Q1498 640 1517.0 621.0Q1536 602 1536 576Q1536 550 1517.0 531.0Q1498 512 1472 512H960Q934 512 915.0 531.0Q896 550 896 576ZM480 1920H1568Q1641 1920 1705.0 1892.5Q1769 1865 1817.0 1817.0Q1865 1769 1892.5 1705.0Q1920 1641 1920 1568V480Q1920 407 1892.5 343.0Q1865 279 1817.0 231.0Q1769 183 1705.0 155.5Q1641 128 1568 128H480Q407 128 343.0 155.5Q279 183 231.0 231.0Q183 279 155.5 343.0Q128 407 128 480V1568Q128 1641 155.5 1705.0Q183 1769 231.0 1817.0Q279 1865 343.0 1892.5Q407 1920 480 1920ZM256 1568V480Q256 434 273.5 393.0Q291 352 321.5 321.5Q352 291 393.0 273.5Q434 256 480 256H1568Q1615 256 1655.5 273.5Q1696 291 1726.5 321.5Q1757 352 1774.5 393.0Q1792 434 1792 480V1568Q1792 1615 1774.5 1655.5Q1757 1696 1726.5 1726.5Q1696 1757 1655.5 1774.5Q1615 1792 1568 1792H480Q434 1792 393.0 1774.5Q352 1757 321.5 1726.5Q291 1696 273.5 1655.5Q256 1615 256 1568Z"/>
  </g>
</svg>