<?xml version="1.0" encoding="utf-8"?>
<svg xmlns="http://www.w3.org/2000/svg" width="16" height="16" viewBox="0 0 2048 2048">
  <g transform="translate(0, 2048) scale(1, -1)">
    <path fill="#ffffff" d="M1024 1984Q1050 1984 1069 1965L1389 1645Q1408 1626 1408 1600Q1408 1574 1389.0 1555.0Q1370 1536 1344 1536Q1318 1536 1299 1555L1024 1829L749 1555Q730 1536 704 1536Q678 1536 659.0 1555.0Q640 1574 640 1600Q640 1626 659 1645L979 1965Q998 1984 1024 1984ZM1024 1536Q1043 1536 1059.0 1525.0Q1075 1514 1083 1497L1403 729Q1408 716 1408 704Q1408 678 1389.0 659.0Q1370 640 1344 640Q1325 640 1309.0 650.5Q1293 661 1285 679L1195 896H853L763 679Q755 661 739.0 650.5Q723 640 704 640Q678 640 659.0 659.0Q640 678 640 704Q640 716 645 729L965 1497Q973 1514 989.0 1525.0Q1005 1536 1024 1536ZM1984 1024Q1984 998 1965 979L1645 659Q1626 640 1600 640Q1574 640 1555.0 659.0Q1536 678 1536 704Q1536 730 1555 749L1829 1024L1555 1299Q1536 1318 1536 1344Q1536 1370 1555.0 1389.0Q1574 1408 1600 1408Q1626 1408 1645 1389L1965 1069Q1984 1050 1984 1024ZM64 1024Q64 1050 83 1069L403 1389Q422 1408 448 1408Q474 1408 493.0 1389.0Q512 1370 512 1344Q512 1318 493 1299L219 1024L493 749Q512 730 512 704Q512 678 493.0 659.0Q474 640 448 640Q422 640 403 659L83 979Q64 998 64 1024ZM1024 1306 907 1024H1141ZM1408 448Q1408 422 1389 403L1069 83Q1050 64 1024 64Q998 64 979 83L659 403Q640 422 640 448Q640 474 659.0 493.0Q678 512 704 512Q730 512 749 493L1024 219L1299 493Q1318 512 1344 512Q1370 512 1389.0 493.0Q1408 474 1408 448Z"/>
  </g>
</svg>