<?xml version="1.0" encoding="utf-8"?>
<svg xmlns="http://www.w3.org/2000/svg" width="16" height="16" viewBox="0 0 2048 2048">
  <g transform="translate(0, 2048) scale(1, -1)">
    <path fill="#000000" d="M320 2048Q346 2048 365.0 2029.0Q384 2010 384 1984Q384 1956 371.0 1942.5Q358 1929 339.5 1924.0Q321 1919 301 1919Q299 1919 286.5 1919.5Q274 1920 256 1920Q229 1920 206.0 1910.0Q183 1900 165.5 1882.5Q148 1865 138.0 1842.0Q128 1819 128 1792Q128 1774 128.5 1761.5Q129 1749 129 1747Q129 1727 124.0 1708.5Q119 1690 105.5 1677.0Q92 1664 64 1664Q38 1664 19.0 1683.0Q0 1702 0 1728V1792Q0 1845 20.0 1891.5Q40 1938 75.0 1973.0Q110 2008 156.5 2028.0Q203 2048 256 2048ZM896 2048Q922 2048 941.0 2029.0Q960 2010 960 1984Q960 1958 941.0 1939.0Q922 1920 896 1920H640Q614 1920 595.0 1939.0Q576 1958 576 1984Q576 2010 595.0 2029.0Q614 2048 640 2048ZM1472 2048Q1498 2048 1517.0 2029.0Q1536 2010 1536 1984Q1536 1958 1517.0 1939.0Q1498 1920 1472 1920H1216Q1190 1920 1171.0 1939.0Q1152 1958 1152 1984Q1152 2010 1171.0 2029.0Q1190 2048 1216 2048ZM1792 2048Q1845 2048 1891.5 2028.0Q1938 2008 1973.0 1973.0Q2008 1938 2028.0 1891.5Q2048 1845 2048 1792V1728Q2048 1702 2029.0 1683.0Q2010 1664 1984 1664Q1956 1664 1942.5 1677.0Q1929 1690 1924.0 1708.5Q1919 1727 1919 1747Q1919 1749 1919.5 1761.5Q1920 1774 1920 1792Q1920 1819 1910.0 1842.0Q1900 1865 1882.5 1882.5Q1865 1900 1842.0 1910.0Q1819 1920 1792 1920Q1774 1920 1761.5 1919.5Q1749 1919 1747 1919Q1727 1919 1708.5 1924.0Q1690 1929 1677.0 1942.5Q1664 1956 1664 1984Q1664 2010 1683.0 2029.0Q1702 2048 1728 2048ZM1024 1664Q1044 1664 1060.5 1652.5Q1077 1641 1084 1623L1532 471Q1536 462 1536 449Q1536 422 1517.5 403.0Q1499 384 1473 384Q1453 384 1436.5 395.0Q1420 406 1412 425L1279 768H769L636 425Q628 406 611.5 395.0Q595 384 575 384Q549 384 530.5 403.0Q512 422 512 449Q512 462 516 471L964 1623Q971 1641 987.5 1652.5Q1004 1664 1024 1664ZM128 1216Q128 1190 109.0 1171.0Q90 1152 64 1152Q38 1152 19.0 1171.0Q0 1190 0 1216V1472Q0 1498 19.0 1517.0Q38 1536 64 1536Q90 1536 109.0 1517.0Q128 1498 128 1472ZM2048 1216Q2048 1190 2029.0 1171.0Q2010 1152 1984 1152Q1958 1152 1939.0 1171.0Q1920 1190 1920 1216V1472Q1920 1498 1939.0 1517.0Q1958 1536 1984 1536Q2010 1536 2029.0 1517.0Q2048 1498 2048 1472ZM1024 1423 819 896H1229ZM128 640Q128 614 109.0 595.0Q90 576 64 576Q38 576 19.0 595.0Q0 614 0 640V896Q0 922 19.0 941.0Q38 960 64 960Q90 960 109.0 941.0Q128 922 128 896ZM2048 640Q2048 614 2029.0 595.0Q2010 576 1984 576Q1958 576 1939.0 595.0Q1920 614 1920 640V896Q1920 922 1939.0 941.0Q1958 960 1984 960Q2010 960 2029.0 941.0Q2048 922 2048 896ZM64 384Q92 384 105.5 371.0Q119 358 124.0 339.5Q129 321 129 301Q129 299 128.5 286.5Q128 274 128 256Q128 229 138.0 206.0Q148 183 165.5 165.5Q183 148 206.0 138.0Q229 128 256 128Q274 128 286.5 128.5Q299 129 301 129Q321 129 339.5 124.0Q358 119 371.0 105.5Q384 92 384 64Q384 38 365.0 19.0Q346 0 320 0H256Q203 0 156.5 20.0Q110 40 75.0 75.0Q40 110 20.0 156.5Q0 203 0 256V320Q0 346 19.0 365.0Q38 384 64 384ZM2048 256Q2048 203 2028.0 156.5Q2008 110 1973.0 75.0Q1938 40 1891.5 20.0Q1845 0 1792 0H1728Q1702 0 1683.0 19.0Q1664 38 1664 64Q1664 92 1677.0 105.5Q1690 119 1708.5 124.0Q1727 129 1747 129Q1749 129 1761.5 128.5Q1774 128 1792 128Q1819 128 1842.0 138.0Q1865 148 1882.5 165.5Q1900 183 1910.0 206.0Q1920 229 1920 256Q1920 274 1919.5 286.5Q1919 299 1919 301Q1919 321 1924.0 339.5Q1929 358 1942.5 371.0Q1956 384 1984 384Q2010 384 2029.0 365.0Q2048 346 2048 320ZM896 128Q922 128 941.0 109.0Q960 90 960 64Q960 38 941.0 19.0Q922 0 896 0H640Q614 0 595.0 19.0Q576 38 576 64Q576 90 595.0 109.0Q614 128 640 128ZM1472 128Q1498 128 1517.0 109.0Q1536 90 1536 64Q1536 38 1517.0 19.0Q1498 0 1472 0H1216Q1190 0 1171.0 19.0Q1152 38 1152 64Q1152 90 1171.0 109.0Q1190 128 1216 128Z"/>
  </g>
</svg>