<?xml version="1.0" encoding="utf-8"?>
<svg xmlns="http://www.w3.org/2000/svg" width="16" height="16" viewBox="0 0 2048 2048">
  <g transform="translate(0, 2048) scale(1, -1)">
    <path fill="#ffffff" d="M1541 2048Q1591 2048 1636.5 2027.5Q1682 2007 1716.5 1972.5Q1751 1938 1771.5 1892.5Q1792 1847 1792 1797V1147Q1792 1095 1771.0 1049.5Q1750 1004 1715.0 970.0Q1680 936 1633.5 916.0Q1587 896 1536 896H1280V768H1472Q1498 768 1517.0 749.0Q1536 730 1536 704Q1536 678 1517.0 659.0Q1498 640 1472 640H576Q550 640 531.0 659.0Q512 678 512 704Q512 730 531.0 749.0Q550 768 576 768H768V896H507Q457 896 411.5 916.5Q366 937 331.5 971.5Q297 1006 276.5 1051.5Q256 1097 256 1147V1797Q256 1847 276.5 1892.5Q297 1938 331.5 1972.5Q366 2007 411.5 2027.5Q457 2048 507 2048ZM1664 1792Q1664 1818 1654.0 1841.5Q1644 1865 1626.5 1882.5Q1609 1900 1585.5 1910.0Q1562 1920 1536 1920H512Q485 1920 462.0 1910.0Q439 1900 421.5 1882.5Q404 1865 394.0 1842.0Q384 1819 384 1792V1152Q384 1125 394.0 1101.5Q404 1078 421.0 1061.0Q438 1044 461.5 1034.0Q485 1024 512 1024H1536Q1563 1024 1586.0 1034.0Q1609 1044 1626.5 1061.5Q1644 1079 1654.0 1102.0Q1664 1125 1664 1152ZM896 768H1152V896H896ZM1792 64Q1792 38 1773.0 19.0Q1754 0 1728 0H320Q294 0 275.0 19.0Q256 38 256 64Q256 72 264.5 101.0Q273 130 286.0 171.0Q299 212 315.0 258.5Q331 305 345.5 347.0Q360 389 371.5 422.0Q383 455 387 468Q394 488 410.5 500.0Q427 512 448 512H1600Q1621 512 1637.5 500.0Q1654 488 1661 468Q1665 455 1676.5 422.0Q1688 389 1702.5 347.0Q1717 305 1733.0 258.5Q1749 212 1762.0 171.0Q1775 130 1783.5 101.0Q1792 72 1792 64ZM494 384 409 128H1639L1554 384Z"/>
  </g>
</svg>