<?xml version="1.0" encoding="utf-8"?>
<svg xmlns="http://www.w3.org/2000/svg" width="16" height="16" viewBox="0 0 2048 2048">
  <g transform="translate(0, 2048) scale(1, -1)">
    <path fill="#ffffff" d="M576 768Q481 768 399.0 789.0Q317 810 257.0 856.0Q197 902 162.5 975.0Q128 1048 128 1152Q128 1243 155.5 1312.0Q183 1381 234.0 1428.0Q285 1475 356.0 1501.5Q427 1528 514 1534Q521 1648 557.5 1742.5Q594 1837 658.0 1905.0Q722 1973 813.5 2010.5Q905 2048 1024 2048Q1143 2048 1234.5 2010.5Q1326 1973 1390.0 1905.0Q1454 1837 1490.0 1742.5Q1526 1648 1534 1534Q1621 1528 1692.0 1501.5Q1763 1475 1814.0 1428.0Q1865 1381 1892.5 1312.0Q1920 1243 1920 1152Q1920 1047 1886.0 973.5Q1852 900 1792.0 854.5Q1732 809 1650.0 788.5Q1568 768 1472 768ZM1472 896Q1540 896 1598.5 907.0Q1657 918 1700.0 946.5Q1743 975 1767.5 1024.5Q1792 1074 1792 1152Q1792 1228 1767.0 1277.5Q1742 1327 1698.5 1356.0Q1655 1385 1596.5 1396.5Q1538 1408 1472 1408Q1446 1408 1427.0 1427.0Q1408 1446 1408 1472Q1408 1566 1386.5 1648.0Q1365 1730 1319.0 1790.5Q1273 1851 1200.0 1885.5Q1127 1920 1024 1920Q921 1920 848.0 1885.5Q775 1851 729.0 1790.5Q683 1730 661.5 1648.0Q640 1566 640 1472Q640 1446 621.0 1427.0Q602 1408 576 1408Q510 1408 451.5 1396.5Q393 1385 349.5 1356.0Q306 1327 281.0 1277.5Q256 1228 256 1152Q256 1076 281.0 1026.5Q306 977 349.5 948.0Q393 919 451.5 907.5Q510 896 576 896ZM512 384V389Q512 441 533.0 486.5Q554 532 589.0 566.0Q624 600 670.5 620.0Q717 640 768 640Q820 640 867.0 619.5Q914 599 948.5 564.5Q983 530 1003.5 483.0Q1024 436 1024 384Q1024 331 1003.5 284.5Q983 238 948.5 203.5Q914 169 867.0 148.5Q820 128 768 128Q715 128 668.5 148.5Q622 169 587.5 203.5Q553 238 532.5 284.5Q512 331 512 384ZM896 384Q896 410 886.0 433.5Q876 457 858.5 474.5Q841 492 817.5 502.0Q794 512 768 512Q741 512 718.0 502.0Q695 492 677.5 474.5Q660 457 650.0 434.0Q640 411 640 384Q640 357 650.0 333.5Q660 310 677.0 293.0Q694 276 717.5 266.0Q741 256 768 256Q795 256 818.0 266.0Q841 276 858.5 293.5Q876 311 886.0 334.0Q896 357 896 384ZM0 192Q0 231 15.0 266.0Q30 301 56.5 327.5Q83 354 118.0 369.0Q153 384 192 384Q231 384 266.0 369.0Q301 354 327.5 327.5Q354 301 369.0 266.0Q384 231 384 192Q384 153 369.0 118.0Q354 83 327.5 56.5Q301 30 266.0 15.0Q231 0 192 0Q153 0 118.0 15.0Q83 30 56.5 56.5Q30 83 15.0 118.0Q0 153 0 192ZM256 192Q256 218 237.0 237.0Q218 256 192 256Q166 256 147.0 237.0Q128 218 128 192Q128 166 147.0 147.0Q166 128 192 128Q218 128 237.0 147.0Q256 166 256 192Z"/>
  </g>
</svg>