<?xml version="1.0" encoding="utf-8"?>
<svg id="" width="16" height="16" style="width:16px;height:16px;" version="1.1" xmlns="http://www.w3.org/2000/svg" viewBox="0 0 2048 2048" enable-background="new 0 0 2048 2048" xml:space="preserve">
    <path fill="#ffffff" d="M219.43 877.71 q-44.57 0 -84.57 -17.14 q-40 -17.14 -70.29 -47.42 q-30.29 -30.28 -47.43 -70.28 q-17.14 -40 -17.14 -84.57 l0 -438.86 q0 -44.57 17.14 -84.57 q17.14 -40 47.43 -70.29 q30.28 -30.29 70.29 -47.43 q40 -17.14 84.57 -17.14 l731.43 0 q44.57 0 84.57 17.14 q40 17.14 70.29 47.43 q30.28 30.28 47.43 70.29 q17.14 40 17.14 84.57 l0 438.86 q0 44.57 -17.14 84.57 q-17.14 40 -47.43 70.28 q-30.29 30.28 -70.29 47.42 q-40 17.14 -84.57 17.14 l-731.43 0 ZM1682.29 877.71 q-44.58 0 -84.58 -17.14 q-40 -17.14 -70.28 -47.42 q-30.29 -30.28 -47.43 -70.28 q-17.14 -40 -17.14 -84.57 l0 -438.86 q0 -44.57 17.14 -84.57 q17.14 -40 47.43 -70.29 q30.28 -30.29 70.28 -47.43 q40 -17.14 84.58 -17.14 l146.28 0 q44.57 0 84.57 17.14 q40 17.14 70.29 47.43 q30.28 30.28 47.43 70.29 q17.14 40 17.14 84.57 l0 438.86 q0 44.57 -17.14 84.57 q-17.14 40 -47.43 70.28 q-30.29 30.28 -70.29 47.42 q-40 17.14 -84.57 17.14 l-146.28 0 ZM950.86 731.43 q29.71 0 51.43 -21.72 q21.71 -21.71 21.71 -51.42 l0 -438.86 q0 -29.72 -21.71 -51.43 q-21.72 -21.71 -51.43 -21.71 l-731.43 0 q-29.72 0 -51.43 21.71 q-21.71 21.71 -21.71 51.43 l0 438.86 q0 29.71 21.71 51.42 q21.71 21.72 51.43 21.72 l731.43 0 ZM1828.57 731.43 q29.72 0 51.43 -21.72 q21.71 -21.71 21.71 -51.42 l0 -438.86 q0 -29.72 -21.71 -51.43 q-21.71 -21.71 -51.43 -21.71 l-146.28 0 q-29.72 0 -51.43 21.71 q-21.71 21.71 -21.71 51.43 l0 438.86 q0 29.71 21.71 51.42 q21.71 21.72 51.43 21.72 l146.28 0 ZM219.43 2048 q-44.57 0 -84.57 -17.14 q-40 -17.14 -70.29 -47.43 q-30.29 -30.29 -47.43 -70.29 q-17.14 -40 -17.14 -84.57 l0 -438.86 q0 -44.57 17.14 -84.57 q17.14 -40 47.43 -70.29 q30.28 -30.29 70.29 -47.43 q40 -17.14 84.57 -17.14 l146.28 0 q44.58 0 84.58 17.14 q40 17.14 70.29 47.43 q30.28 30.29 47.42 70.29 q17.14 40 17.14 84.57 l0 438.86 q0 44.57 -17.14 84.57 q-17.14 40 -47.42 70.29 q-30.29 30.28 -70.29 47.43 q-40 17.14 -84.58 17.14 l-146.28 0 ZM1097.14 2048 q-44.57 0 -84.57 -17.14 q-40 -17.14 -70.28 -47.43 q-30.29 -30.29 -47.43 -70.29 q-17.14 -40 -17.14 -84.57 l0 -438.86 q0 -44.57 17.14 -84.57 q17.14 -40 47.43 -70.29 q30.28 -30.29 70.28 -47.43 q40 -17.14 84.57 -17.14 l731.43 0 q44.57 0 84.57 17.14 q40 17.14 70.29 47.43 q30.28 30.29 47.43 70.29 q17.14 40 17.14 84.57 l0 438.86 q0 44.57 -17.14 84.57 q-17.14 40 -47.43 70.29 q-30.29 30.28 -70.29 47.43 q-40 17.14 -84.57 17.14 l-731.43 0 ZM365.71 1901.71 q29.72 0 51.44 -21.71 q21.72 -21.71 21.72 -51.43 l0 -438.86 q0 -29.71 -21.72 -51.43 q-21.71 -21.71 -51.44 -21.71 l-146.28 0 q-29.72 0 -51.43 21.71 q-21.71 21.72 -21.71 51.43 l0 438.86 q0 29.72 21.71 51.43 q21.71 21.71 51.43 21.71 l146.28 0 ZM1828.57 1901.71 q29.72 0 51.43 -21.71 q21.71 -21.71 21.71 -51.43 l0 -438.86 q0 -29.71 -21.71 -51.43 q-21.71 -21.71 -51.43 -21.71 l-731.43 0 q-29.71 0 -51.42 21.71 q-21.72 21.72 -21.72 51.43 l0 438.86 q0 29.72 21.72 51.43 q21.71 21.71 51.42 21.71 l731.43 0 Z"/>
</svg>