<?xml version="1.0" encoding="utf-8"?>
<svg xmlns="http://www.w3.org/2000/svg" width="16" height="16" viewBox="0 0 2048 2048">
  <g transform="translate(0, 2048) scale(1, -1)">
    <path fill="#000000" d="M2009 448Q2009 408 1993.5 373.0Q1978 338 1952.0 312.0Q1926 286 1890.5 271.0Q1855 256 1816 256H232Q192 256 157.0 271.0Q122 286 96.0 312.0Q70 338 55.0 373.0Q40 408 40 448Q40 475 46 499L361 1651Q370 1682 387.5 1708.0Q405 1734 429.5 1752.5Q454 1771 484.0 1781.5Q514 1792 546 1792Q582 1792 618 1792L759 1793H929L1122 1792H1502Q1534 1792 1564.0 1781.5Q1594 1771 1618.5 1752.5Q1643 1734 1661.0 1708.0Q1679 1682 1688 1651L2002 499Q2009 475 2009 448ZM546 1664Q525 1664 507.5 1651.0Q490 1638 484 1617L427 1408H738L762 1664ZM1181 1408 1157 1664H891L867 1408ZM1502 1664H1286L1310 1408H1621L1564 1617Q1558 1638 1540.5 1651.0Q1523 1664 1502 1664ZM727 1280H392L287 896H692ZM856 1280 821 896H1227L1192 1280ZM1656 1280H1321L1356 896H1761ZM232 384H645L680 768H253L170 465Q168 455 168 448Q168 421 186.5 402.5Q205 384 232 384ZM1880 447Q1880 452 1880.0 456.0Q1880 460 1878 465L1795 768H1368L1403 384H1816Q1842 384 1861.0 402.0Q1880 420 1880 447ZM1274 384 1239 768H809L774 384Z"/>
  </g>
</svg>