<?xml version="1.0" encoding="utf-8"?>
<svg xmlns="http://www.w3.org/2000/svg" width="16" height="16" viewBox="0 0 2048 2048">
  <g transform="translate(0, 2048) scale(1, -1)">
    <path fill="#000000" d="M1728 1920Q1767 1920 1802.0 1905.0Q1837 1890 1863.5 1863.5Q1890 1837 1905.0 1802.0Q1920 1767 1920 1728V320Q1920 281 1905.0 246.0Q1890 211 1863.5 184.5Q1837 158 1802.0 143.0Q1767 128 1728 128H320Q281 128 246.0 143.0Q211 158 184.5 184.5Q158 211 143.0 246.0Q128 281 128 320V1728Q128 1767 143.0 1802.0Q158 1837 184.5 1863.5Q211 1890 246.0 1905.0Q281 1920 320 1920ZM320 1792Q294 1792 275.0 1773.0Q256 1754 256 1728V1408H640V1792ZM768 1792V1408H1280V1792ZM1792 1728Q1792 1754 1773.0 1773.0Q1754 1792 1728 1792H1408V1408H1792ZM640 1280H256V768H640ZM768 1280V768H1280V1280ZM1792 1280H1408V768H1792ZM256 320Q256 294 275.0 275.0Q294 256 320 256H640V640H256ZM1280 256V640H768V256ZM1728 256Q1754 256 1773.0 275.0Q1792 294 1792 320V640H1408V256Z"/>
  </g>
</svg>