<?xml version="1.0" encoding="utf-8"?>
<svg xmlns="http://www.w3.org/2000/svg" width="16" height="16" viewBox="0 0 2048 2048">
  <g transform="translate(0, 2048) scale(1, -1)">
    <path fill="#000000" d="M488 786Q384 810 294.5 868.5Q205 927 139.5 1009.0Q74 1091 37.0 1191.0Q0 1291 0 1398Q0 1533 49.0 1651.0Q98 1769 184.0 1857.5Q270 1946 387.0 1997.0Q504 2048 640 2048Q773 2048 889.5 1998.0Q1006 1948 1093.0 1861.0Q1180 1774 1230.0 1657.5Q1280 1541 1280 1408H1152V1418Q1152 1522 1110.5 1613.5Q1069 1705 998.5 1773.0Q928 1841 835.5 1880.5Q743 1920 640 1920Q537 1920 444.5 1880.5Q352 1841 281.5 1773.0Q211 1705 169.5 1613.5Q128 1522 128 1418V1400Q128 1312 159.5 1230.0Q191 1148 246.5 1081.5Q302 1015 376.5 968.5Q451 922 538 906ZM576 1280Q550 1280 531.0 1299.0Q512 1318 512 1344V1728Q512 1754 531.0 1773.0Q550 1792 576 1792Q602 1792 621.0 1773.0Q640 1754 640 1728V1408H832Q858 1408 877.0 1389.0Q896 1370 896 1344Q896 1318 877.0 1299.0Q858 1280 832 1280ZM1024 1024V1216Q1024 1242 1043.0 1261.0Q1062 1280 1088 1280H1472Q1472 1288 1471.5 1296.5Q1471 1305 1471 1314Q1471 1331 1473.0 1347.5Q1475 1364 1481.5 1377.5Q1488 1391 1501.0 1399.5Q1514 1408 1536 1408Q1558 1408 1570.5 1399.5Q1583 1391 1589.5 1377.5Q1596 1364 1598.0 1347.5Q1600 1331 1600 1314V1280H1984Q2010 1280 2029.0 1261.0Q2048 1242 2048 1216V1024Q2048 998 2029.0 979.0Q2010 960 1984 960Q1958 960 1939.0 979.0Q1920 998 1920 1024V1152H1152V1024Q1152 998 1133.0 979.0Q1114 960 1088 960Q1062 960 1043.0 979.0Q1024 998 1024 1024ZM1472 256Q1446 256 1427.0 275.0Q1408 294 1408 320Q1408 342 1416.5 354.5Q1425 367 1438.5 373.5Q1452 380 1468.5 382.0Q1485 384 1502 384H1536V640H1216Q1190 640 1171.0 659.0Q1152 678 1152 704Q1152 730 1171.0 749.0Q1190 768 1216 768H1536Q1536 787 1547 804L1608 896H1344Q1318 896 1299.0 915.0Q1280 934 1280 960Q1280 986 1299.0 1005.0Q1318 1024 1344 1024H1728Q1754 1024 1773.0 1005.0Q1792 986 1792 960Q1792 941 1781 925L1677 768H1984Q2010 768 2029.0 749.0Q2048 730 2048 704Q2048 678 2029.0 659.0Q2010 640 1984 640H1664V384Q1664 357 1654.0 334.0Q1644 311 1626.5 293.5Q1609 276 1586.0 266.0Q1563 256 1536 256ZM416 192Q416 204 420 215Q432 248 444 280L493 407Q505 440 517 472L708 983Q715 1002 731.5 1011.0Q748 1020 768 1020Q788 1020 804.5 1011.0Q821 1002 828 983L1019 472Q1031 440 1043 407L1092 280Q1104 248 1116 215Q1120 204 1120 192Q1120 165 1101.5 146.5Q1083 128 1056 128Q1035 128 1019.5 139.0Q1004 150 996 170L916 384H620L540 170Q533 151 516.5 139.5Q500 128 480 128Q453 128 434.5 146.5Q416 165 416 192ZM768 778 668 512H868Z"/>
  </g>
</svg>