<?xml version="1.0" encoding="utf-8"?>
<svg xmlns="http://www.w3.org/2000/svg" width="16" height="16" viewBox="0 0 2048 2048">
  <g transform="translate(0, 2048) scale(1, -1)">
    <path fill="#ffffff" d="M502 512Q398 512 306.5 553.5Q215 595 147.0 665.5Q79 736 39.5 828.5Q0 921 0 1024Q0 1127 39.5 1219.5Q79 1312 147.0 1382.5Q215 1453 306.5 1494.5Q398 1536 502 1536H1546Q1650 1536 1741.5 1494.5Q1833 1453 1901.0 1382.5Q1969 1312 2008.5 1219.5Q2048 1127 2048 1024Q2048 921 2008.5 828.5Q1969 736 1901.0 665.5Q1833 595 1741.5 553.5Q1650 512 1546 512ZM1544 640Q1622 640 1690.5 671.0Q1759 702 1810.0 755.0Q1861 808 1890.5 877.5Q1920 947 1920 1024Q1920 1101 1890.5 1170.5Q1861 1240 1810.0 1293.0Q1759 1346 1690.5 1377.0Q1622 1408 1544 1408H504Q426 1408 357.5 1377.0Q289 1346 238.0 1293.0Q187 1240 157.5 1170.5Q128 1101 128 1024Q128 947 157.5 877.5Q187 808 238.0 755.0Q289 702 357.5 671.0Q426 640 504 640ZM256 1024V1029Q256 1081 277.0 1126.5Q298 1172 333.0 1206.0Q368 1240 414.5 1260.0Q461 1280 512 1280Q564 1280 611.0 1259.5Q658 1239 692.5 1204.5Q727 1170 747.5 1123.0Q768 1076 768 1024Q768 971 747.5 924.5Q727 878 692.5 843.5Q658 809 611.0 788.5Q564 768 512 768Q459 768 412.5 788.5Q366 809 331.5 843.5Q297 878 276.5 924.5Q256 971 256 1024Z"/>
  </g>
</svg>