<?xml version="1.0" encoding="utf-8"?>
<svg xmlns="http://www.w3.org/2000/svg" width="16" height="16" viewBox="0 0 2048 2048">
  <g transform="translate(0, 2048) scale(1, -1)">
    <path fill="#000000" d="M192 0Q153 0 118.0 15.0Q83 30 56.5 56.5Q30 83 15.0 118.0Q0 153 0 192V1856Q0 1895 15.0 1930.0Q30 1965 56.5 1991.5Q83 2018 118.0 2033.0Q153 2048 192 2048H960Q986 2048 1005.0 2029.0Q1024 2010 1024 1984V1728Q1024 1702 1005.0 1683.0Q986 1664 960 1664H768V744L1827 1273Q1841 1280 1856 1280Q1873 1280 1889.0 1270.5Q1905 1261 1913 1245L2041 989Q2048 975 2048 960Q2048 943 2038.5 927.0Q2029 911 2013 903L768 280V128H802Q819 128 835.5 126.0Q852 124 865.5 117.5Q879 111 887.5 98.5Q896 86 896 64Q896 38 877.0 19.0Q858 0 832 0ZM128 1792H896V1920H192Q166 1920 147.0 1901.0Q128 1882 128 1856ZM640 640V1536H320Q294 1536 275.0 1517.0Q256 1498 256 1472V704Q256 678 275.0 659.0Q294 640 320 640ZM1536 984V808L1898 989L1827 1130ZM1152 793V616L1408 744V920ZM768 600V424L1024 552V729Z"/>
  </g>
</svg>