<?xml version="1.0" encoding="utf-8"?>
<svg xmlns="http://www.w3.org/2000/svg" width="16" height="16" viewBox="0 0 2048 2048">
  <g transform="translate(0, 2048) scale(1, -1)">
    <path fill="#ffffff" d="M384 1344Q384 1463 429.5 1568.0Q475 1673 553.0 1751.0Q631 1829 736.0 1874.5Q841 1920 960 1920Q1039 1920 1112.5 1899.5Q1186 1879 1250.0 1841.5Q1314 1804 1367.0 1751.0Q1420 1698 1457.5 1634.0Q1495 1570 1515.5 1496.5Q1536 1423 1536 1344Q1536 1333 1535.5 1322.5Q1535 1312 1534 1301L1408 1323V1352Q1408 1443 1371.5 1523.0Q1335 1603 1273.5 1663.0Q1212 1723 1130.5 1757.5Q1049 1792 960 1792Q871 1792 789.5 1757.5Q708 1723 646.5 1663.0Q585 1603 548.5 1523.0Q512 1443 512 1352Q512 1291 525.0 1236.5Q538 1182 567 1128H557Q495 1128 433 1111Q384 1223 384 1344ZM1162 130Q1120 130 1081.0 142.0Q1042 154 1008.5 176.0Q975 198 946.5 227.0Q918 256 896 291Q852 360 797.5 415.0Q743 470 676 517Q632 547 589.0 567.0Q546 587 502.0 600.5Q458 614 411.0 623.0Q364 632 313 640Q287 644 271.5 661.0Q256 678 256 704Q256 710 258 720Q271 778 300.0 823.0Q329 868 370.0 899.0Q411 930 462.5 946.0Q514 962 573 962Q623 962 671.5 953.0Q720 944 768 928V1472Q768 1511 783.0 1546.0Q798 1581 824.5 1607.5Q851 1634 886.0 1649.0Q921 1664 960 1664Q999 1664 1034.0 1649.0Q1069 1634 1095.5 1607.5Q1122 1581 1137.0 1546.0Q1152 1511 1152 1472V1206L1528 1140Q1585 1130 1633.5 1101.0Q1682 1072 1717.5 1030.0Q1753 988 1773.0 935.5Q1793 883 1793 825Q1793 769 1773 714L1647 372Q1617 291 1552.0 237.0Q1487 183 1402 168L1207 134Q1187 130 1162 130ZM1665 824Q1665 859 1653.0 890.5Q1641 922 1620.0 947.5Q1599 973 1569.5 990.5Q1540 1008 1506 1014L1077 1089Q1054 1093 1039.0 1111.0Q1024 1129 1024 1152V1472Q1024 1498 1005.0 1517.0Q986 1536 960 1536Q934 1536 915.0 1517.0Q896 1498 896 1472V832Q896 805 877.5 786.5Q859 768 832 768Q823 768 817.0 769.5Q811 771 803 775Q749 800 692.5 817.0Q636 834 576 834Q523 834 481.0 817.0Q439 800 409 755Q601 720 749.5 622.0Q898 524 1004 359Q1017 339 1034.0 321.0Q1051 303 1072.0 289.0Q1093 275 1116.0 266.5Q1139 258 1164 258Q1169 258 1175.0 258.5Q1181 259 1186 260L1380 294Q1431 303 1470.0 336.0Q1509 369 1527 417L1653 758Q1665 789 1665 824Z"/>
  </g>
</svg>