<?xml version="1.0" encoding="utf-8"?>
<svg xmlns="http://www.w3.org/2000/svg" width="16" height="16" viewBox="0 0 2048 2048">
  <g transform="translate(0, 2048) scale(1, -1)">
    <path fill="#ffffff" d="M2046 737Q2046 675 2020 618L1891 330Q1866 274 1818.0 236.0Q1770 198 1710 185L1468 134Q1440 129 1417 129Q1357 129 1305.0 154.0Q1253 179 1213 223Q1166 274 1116.0 323.5Q1066 373 1011.0 416.5Q956 460 896.0 495.0Q836 530 770 554Q781 529 791.5 503.5Q802 478 802 450Q802 413 782.5 381.5Q763 350 729 334L602 274Q576 262 547 262Q507 262 474.5 284.0Q442 306 428 343L330 595L169 408Q140 374 97 374Q56 374 28.0 402.0Q0 430 0 471V1654Q0 1695 28.0 1723.0Q56 1751 97 1751Q133 1751 162 1725L989 952Q1018 925 1022 888Q1055 884 1087.5 879.5Q1120 875 1152 869V1344Q1152 1383 1167.0 1418.0Q1182 1453 1208.5 1479.5Q1235 1506 1270.0 1521.0Q1305 1536 1344 1536Q1383 1536 1418.0 1521.0Q1453 1506 1479.5 1479.5Q1506 1453 1521.0 1418.0Q1536 1383 1536 1344V1076L1816 1018Q1879 1005 1932.0 965.0Q1985 925 2014 867Q2029 837 2037.5 804.0Q2046 771 2046 737ZM547 390 674 450 548 764Q541 781 541 800Q541 840 569.0 868.0Q597 896 637 896H862L128 1581V557L267 719Q281 735 300.0 744.0Q319 753 340 753Q369 753 393.5 736.0Q418 719 429 692ZM1918 736Q1918 764 1908.5 790.0Q1899 816 1882.0 837.0Q1865 858 1841.5 872.5Q1818 887 1790 893L1459 961Q1437 966 1422.5 983.5Q1408 1001 1408 1024V1344Q1408 1370 1389.0 1389.0Q1370 1408 1344 1408Q1318 1408 1299.0 1389.0Q1280 1370 1280 1344V789Q1280 763 1261.5 744.0Q1243 725 1217 725Q1199 725 1181.5 730.0Q1164 735 1147 739Q1087 752 1026.0 760.0Q965 768 903 768Q883 768 863.5 767.0Q844 766 826.5 761.5Q809 757 793.5 746.0Q778 735 766 716Q769 699 784.0 689.5Q799 680 813 675Q891 644 957.0 605.5Q1023 567 1082.5 521.5Q1142 476 1197.5 422.5Q1253 369 1309 308Q1330 285 1358.0 271.0Q1386 257 1418 257Q1424 257 1430.0 257.0Q1436 257 1442 259L1684 310Q1714 317 1737.5 336.0Q1761 355 1774 383L1904 671Q1918 702 1918 736Z"/>
  </g>
</svg>