<?xml version="1.0" encoding="utf-8"?>
<svg xmlns="http://www.w3.org/2000/svg" width="16" height="16" viewBox="0 0 2048 2048">
  <g transform="translate(0, 2048) scale(1, -1)">
    <path fill="#000000" d="M1607 1792Q1670 1792 1727.0 1766.5Q1784 1741 1826.5 1698.5Q1869 1656 1894.5 1599.0Q1920 1542 1920 1479V569Q1920 506 1894.5 449.0Q1869 392 1826.5 349.5Q1784 307 1727.0 281.5Q1670 256 1607 256H313Q250 256 193.0 281.5Q136 307 93.5 349.5Q51 392 25.5 449.0Q0 506 0 569V1479Q0 1542 25.5 1599.0Q51 1656 93.5 1698.5Q136 1741 193.0 1766.5Q250 1792 313 1792ZM320 1664Q281 1664 246.0 1649.0Q211 1634 184.5 1607.5Q158 1581 143.0 1546.0Q128 1511 128 1472V896H1792V1472Q1792 1511 1777.0 1546.0Q1762 1581 1735.5 1607.5Q1709 1634 1674.0 1649.0Q1639 1664 1600 1664ZM128 576Q128 537 143.0 502.0Q158 467 184.5 440.5Q211 414 246.0 399.0Q281 384 320 384H896V768H128ZM1600 384Q1639 384 1674.0 399.0Q1709 414 1735.5 440.5Q1762 467 1777.0 502.0Q1792 537 1792 576V768H1024V384Z"/>
  </g>
</svg>