<?xml version="1.0" encoding="utf-8"?>
<svg xmlns="http://www.w3.org/2000/svg" width="16" height="16" viewBox="0 0 2048 2048">
  <g transform="translate(0, 2048) scale(1, -1)">
    <path fill="#000000" d="M448 0Q409 0 374.0 15.0Q339 30 312.5 56.5Q286 83 271.0 118.0Q256 153 256 192V1728Q256 1767 271.0 1802.0Q286 1837 312.5 1863.5Q339 1890 374.0 1905.0Q409 1920 448 1920H651Q661 1949 679.0 1972.5Q697 1996 721.0 2013.0Q745 2030 773.0 2039.0Q801 2048 832 2048H1216Q1247 2048 1275.0 2039.0Q1303 2030 1327.0 2013.0Q1351 1996 1369.0 1972.5Q1387 1949 1397 1920H1600Q1639 1920 1674.0 1905.0Q1709 1890 1735.5 1863.5Q1762 1837 1777.0 1802.0Q1792 1767 1792 1728V192Q1792 153 1777.0 118.0Q1762 83 1735.5 56.5Q1709 30 1674.0 15.0Q1639 0 1600 0ZM1216 1792Q1242 1792 1261.0 1811.0Q1280 1830 1280 1856Q1280 1882 1261.0 1901.0Q1242 1920 1216 1920H832Q806 1920 787.0 1901.0Q768 1882 768 1856Q768 1830 787.0 1811.0Q806 1792 832 1792ZM1600 128Q1626 128 1645.0 147.0Q1664 166 1664 192V1728Q1664 1754 1645.0 1773.0Q1626 1792 1600 1792H1397Q1387 1763 1369.0 1739.5Q1351 1716 1327.0 1699.0Q1303 1682 1275.0 1673.0Q1247 1664 1216 1664H832Q801 1664 773.0 1673.0Q745 1682 721.0 1699.0Q697 1716 679.0 1739.5Q661 1763 651 1792H448Q422 1792 403.0 1773.0Q384 1754 384 1728V192Q384 166 403.0 147.0Q422 128 448 128ZM1152 1176Q1152 1202 1171.0 1221.0Q1190 1240 1216 1240Q1230 1240 1243.0 1233.0Q1256 1226 1268.0 1216.5Q1280 1207 1290.5 1196.0Q1301 1185 1310 1177L1491 1357Q1510 1376 1536 1376Q1562 1376 1581.0 1357.0Q1600 1338 1600 1312Q1600 1286 1581 1267L1357 1043Q1338 1024 1312 1024Q1288 1024 1269 1041L1173 1128Q1162 1137 1157.0 1149.5Q1152 1162 1152 1176ZM576 1152Q550 1152 531.0 1171.0Q512 1190 512 1216Q512 1242 531.0 1261.0Q550 1280 576 1280H896Q922 1280 941.0 1261.0Q960 1242 960 1216Q960 1190 941.0 1171.0Q922 1152 896 1152ZM1152 536Q1152 562 1171.0 581.0Q1190 600 1216 600Q1230 600 1243.0 593.0Q1256 586 1268.0 576.5Q1280 567 1290.5 556.0Q1301 545 1310 537L1491 717Q1510 736 1536 736Q1562 736 1581.0 717.0Q1600 698 1600 672Q1600 646 1581 627L1357 403Q1338 384 1312 384Q1288 384 1269 401L1173 488Q1162 497 1157.0 509.5Q1152 522 1152 536ZM576 512Q550 512 531.0 531.0Q512 550 512 576Q512 602 531.0 621.0Q550 640 576 640H896Q922 640 941.0 621.0Q960 602 960 576Q960 550 941.0 531.0Q922 512 896 512Z"/>
  </g>
</svg>