<?xml version="1.0" encoding="utf-8"?>
<svg xmlns="http://www.w3.org/2000/svg" width="16" height="16" viewBox="0 0 2048 2048">
  <g transform="translate(0, 2048) scale(1, -1)">
    <path fill="#ffffff" d="M448 0Q409 0 374.0 15.0Q339 30 312.5 56.5Q286 83 271.0 118.0Q256 153 256 192V1728Q256 1767 271.0 1802.0Q286 1837 312.5 1863.5Q339 1890 374.0 1905.0Q409 1920 448 1920H651Q661 1949 679.0 1972.5Q697 1996 721.0 2013.0Q745 2030 773.0 2039.0Q801 2048 832 2048H1216Q1247 2048 1275.0 2039.0Q1303 2030 1327.0 2013.0Q1351 1996 1369.0 1972.5Q1387 1949 1397 1920H1600Q1639 1920 1674.0 1905.0Q1709 1890 1735.5 1863.5Q1762 1837 1777.0 1802.0Q1792 1767 1792 1728V192Q1792 153 1777.0 118.0Q1762 83 1735.5 56.5Q1709 30 1674.0 15.0Q1639 0 1600 0ZM1216 1792Q1242 1792 1261.0 1811.0Q1280 1830 1280 1856Q1280 1882 1261.0 1901.0Q1242 1920 1216 1920H832Q806 1920 787.0 1901.0Q768 1882 768 1856Q768 1830 787.0 1811.0Q806 1792 832 1792ZM1600 128Q1626 128 1645.0 147.0Q1664 166 1664 192V1728Q1664 1754 1645.0 1773.0Q1626 1792 1600 1792H1397Q1387 1763 1369.0 1739.5Q1351 1716 1327.0 1699.0Q1303 1682 1275.0 1673.0Q1247 1664 1216 1664H832Q801 1664 773.0 1673.0Q745 1682 721.0 1699.0Q697 1716 679.0 1739.5Q661 1763 651 1792H448Q422 1792 403.0 1773.0Q384 1754 384 1728V192Q384 166 403.0 147.0Q422 128 448 128ZM512 1176Q512 1202 531.0 1221.0Q550 1240 576 1240Q590 1240 603.0 1233.0Q616 1226 628.0 1216.5Q640 1207 650.5 1196.0Q661 1185 670 1177L851 1357Q870 1376 896 1376Q922 1376 941.0 1357.0Q960 1338 960 1312Q960 1286 941 1267L717 1043Q698 1024 672 1024Q648 1024 629 1041L533 1128Q522 1137 517.0 1149.5Q512 1162 512 1176ZM1152 1152Q1126 1152 1107.0 1171.0Q1088 1190 1088 1216Q1088 1242 1107.0 1261.0Q1126 1280 1152 1280H1472Q1498 1280 1517.0 1261.0Q1536 1242 1536 1216Q1536 1190 1517.0 1171.0Q1498 1152 1472 1152ZM512 536Q512 562 531.0 581.0Q550 600 576 600Q590 600 603.0 593.0Q616 586 628.0 576.5Q640 567 650.5 556.0Q661 545 670 537L851 717Q870 736 896 736Q922 736 941.0 717.0Q960 698 960 672Q960 646 941 627L717 403Q698 384 672 384Q648 384 629 401L533 488Q522 497 517.0 509.5Q512 522 512 536ZM1152 512Q1126 512 1107.0 531.0Q1088 550 1088 576Q1088 602 1107.0 621.0Q1126 640 1152 640H1472Q1498 640 1517.0 621.0Q1536 602 1536 576Q1536 550 1517.0 531.0Q1498 512 1472 512Z"/>
  </g>
</svg>