<?xml version="1.0" encoding="utf-8"?>
<svg xmlns="http://www.w3.org/2000/svg" width="16" height="16" viewBox="0 0 2048 2048">
  <g transform="translate(0, 2048) scale(1, -1)">
    <path fill="#000000" d="M1954 1381Q1998 1355 2023.0 1311.0Q2048 1267 2048 1216V960Q2048 921 2033.0 886.0Q2018 851 1991.5 824.5Q1965 798 1930.0 783.0Q1895 768 1856 768H1402Q1398 790 1390.5 810.0Q1383 830 1373 850Q1408 900 1408 960Q1408 992 1397.0 1022.0Q1386 1052 1367.0 1077.0Q1348 1102 1321.5 1120.0Q1295 1138 1264 1146V1147Q1254 1204 1225.5 1252.0Q1197 1300 1155.0 1334.5Q1113 1369 1060.5 1388.5Q1008 1408 950 1408H832Q806 1408 787.0 1427.0Q768 1446 768 1472Q768 1494 776.5 1507.0Q785 1520 798.5 1526.5Q812 1533 828.5 1534.5Q845 1536 862 1536H891L909 1635Q915 1669 932.5 1698.0Q950 1727 975.5 1748.0Q1001 1769 1032.0 1780.5Q1063 1792 1098 1792H1718Q1752 1792 1783.5 1780.0Q1815 1768 1840.0 1747.0Q1865 1726 1882.0 1697.5Q1899 1669 1906 1635L1925 1536H1953Q1970 1536 1987.0 1534.5Q2004 1533 2017.5 1526.5Q2031 1520 2039.5 1507.0Q2048 1494 2048 1472Q2048 1449 2039.0 1436.0Q2030 1423 2015.5 1417.0Q2001 1411 1983.5 1409.5Q1966 1408 1949 1408ZM997 1408H1819L1781 1612Q1776 1635 1758.5 1649.5Q1741 1664 1718 1664H1098Q1075 1664 1057.5 1649.5Q1040 1635 1035 1612ZM1181 896 1186 869Q1229 843 1254.5 799.0Q1280 755 1280 704V448Q1280 409 1265.0 374.0Q1250 339 1223.5 312.5Q1197 286 1162.0 271.0Q1127 256 1088 256H192Q153 256 118.0 271.0Q83 286 56.5 312.5Q30 339 15.0 374.0Q0 409 0 448V704Q0 755 25.0 799.0Q50 843 94 869L99 896Q82 896 64.5 897.5Q47 899 32.5 905.0Q18 911 9.0 924.0Q0 937 0 960Q0 982 8.5 995.0Q17 1008 30.5 1014.5Q44 1021 60.5 1022.5Q77 1024 94 1024H123L142 1123Q149 1157 166.0 1185.5Q183 1214 208.0 1235.0Q233 1256 264.0 1268.0Q295 1280 330 1280H950Q984 1280 1015.5 1268.0Q1047 1256 1072.5 1235.0Q1098 1214 1115.5 1185.5Q1133 1157 1139 1123L1157 1024H1185Q1202 1024 1219.0 1022.5Q1236 1021 1249.5 1014.5Q1263 1008 1271.5 995.0Q1280 982 1280 960Q1280 937 1271.0 924.0Q1262 911 1247.5 905.0Q1233 899 1215.5 897.5Q1198 896 1181 896ZM1824 1088Q1824 1128 1796.0 1156.0Q1768 1184 1728 1184Q1688 1184 1660.0 1156.0Q1632 1128 1632 1088Q1632 1048 1660.0 1020.0Q1688 992 1728 992Q1768 992 1796.0 1020.0Q1824 1048 1824 1088ZM330 1152Q307 1152 289.5 1137.5Q272 1123 267 1100L229 896H1051L1013 1100Q1008 1123 990.5 1137.5Q973 1152 950 1152ZM416 576Q416 616 388.0 644.0Q360 672 320 672Q280 672 252.0 644.0Q224 616 224 576Q224 536 252.0 508.0Q280 480 320 480Q360 480 388.0 508.0Q416 536 416 576ZM1056 576Q1056 616 1028.0 644.0Q1000 672 960 672Q920 672 892.0 644.0Q864 616 864 576Q864 536 892.0 508.0Q920 480 960 480Q1000 480 1028.0 508.0Q1056 536 1056 576ZM1664 640H1856V608Q1856 568 1828.0 540.0Q1800 512 1760 512Q1720 512 1692.0 540.0Q1664 568 1664 608ZM192 128H384V96Q384 56 356.0 28.0Q328 0 288 0Q248 0 220.0 28.0Q192 56 192 96ZM896 128H1088V96Q1088 56 1060.0 28.0Q1032 0 992 0Q952 0 924.0 28.0Q896 56 896 96Z"/>
  </g>
</svg>