<?xml version="1.0" encoding="utf-8"?>
<svg xmlns="http://www.w3.org/2000/svg" width="16" height="16" viewBox="0 0 2048 2048">
  <g transform="translate(0, 2048) scale(1, -1)">
    <path fill="#ffffff" d="M763 0Q712 0 667.0 20.5Q622 41 587.5 75.5Q553 110 533.0 155.5Q513 201 512 251V272Q437 291 372.5 331.0Q308 371 259.0 426.5Q210 482 177.5 550.5Q145 619 133 695V703Q133 731 151.0 749.5Q169 768 197 768H512V784Q437 803 372.5 843.0Q308 883 259.0 938.5Q210 994 177.5 1062.5Q145 1131 133 1207V1215Q133 1243 151.0 1261.5Q169 1280 197 1280H512V1296Q437 1315 372.5 1355.0Q308 1395 259.0 1450.5Q210 1506 177.5 1574.5Q145 1643 133 1719V1727Q133 1755 151.0 1773.5Q169 1792 197 1792H512V1797Q512 1847 532.5 1892.5Q553 1938 587.5 1972.5Q622 2007 667.5 2027.5Q713 2048 763 2048H1285Q1334 2048 1379.0 2028.0Q1424 2008 1459.0 1973.5Q1494 1939 1515.0 1894.0Q1536 1849 1536 1800V1792H1851Q1879 1792 1897.0 1773.5Q1915 1755 1915 1727V1719Q1903 1643 1870.5 1574.5Q1838 1506 1789.0 1450.5Q1740 1395 1675.5 1355.0Q1611 1315 1536 1296V1280H1851Q1879 1280 1897.0 1261.5Q1915 1243 1915 1215V1207Q1903 1131 1870.5 1062.5Q1838 994 1789.0 938.5Q1740 883 1675.5 843.0Q1611 803 1536 784V768H1851Q1879 768 1897.0 749.5Q1915 731 1915 703V695Q1903 619 1870.5 550.5Q1838 482 1789.0 426.5Q1740 371 1675.5 331.0Q1611 291 1536 272V251Q1536 201 1515.5 155.5Q1495 110 1460.5 75.5Q1426 41 1380.5 20.5Q1335 0 1285 0ZM1280 128Q1307 128 1330.0 138.0Q1353 148 1370.5 165.5Q1388 183 1398.0 206.0Q1408 229 1408 256V1792Q1408 1818 1398.0 1841.5Q1388 1865 1370.5 1882.5Q1353 1900 1329.5 1910.0Q1306 1920 1280 1920H768Q741 1920 718.0 1910.0Q695 1900 677.5 1882.5Q660 1865 650.0 1842.0Q640 1819 640 1792V256Q640 229 650.0 205.5Q660 182 677.0 165.0Q694 148 717.5 138.0Q741 128 768 128ZM768 1536V1541Q768 1593 789.0 1638.5Q810 1684 845.0 1718.0Q880 1752 926.5 1772.0Q973 1792 1024 1792Q1076 1792 1123.0 1771.5Q1170 1751 1204.5 1716.5Q1239 1682 1259.5 1635.0Q1280 1588 1280 1536Q1280 1483 1259.5 1436.5Q1239 1390 1204.5 1355.5Q1170 1321 1123.0 1300.5Q1076 1280 1024 1280Q971 1280 924.5 1300.5Q878 1321 843.5 1355.5Q809 1390 788.5 1436.5Q768 1483 768 1536ZM512 1664H278Q292 1623 315.0 1587.0Q338 1551 368.5 1521.0Q399 1491 435.0 1468.0Q471 1445 512 1430ZM1152 1536Q1152 1562 1142.0 1585.5Q1132 1609 1114.5 1626.5Q1097 1644 1073.5 1654.0Q1050 1664 1024 1664Q997 1664 974.0 1654.0Q951 1644 933.5 1626.5Q916 1609 906.0 1586.0Q896 1563 896 1536Q896 1509 906.0 1485.5Q916 1462 933.0 1445.0Q950 1428 973.5 1418.0Q997 1408 1024 1408Q1051 1408 1074.0 1418.0Q1097 1428 1114.5 1445.5Q1132 1463 1142.0 1486.0Q1152 1509 1152 1536ZM1536 1430Q1577 1444 1613.0 1467.0Q1649 1490 1679.0 1520.5Q1709 1551 1732.0 1587.0Q1755 1623 1770 1664H1536ZM768 1024V1029Q768 1081 789.0 1126.5Q810 1172 845.0 1206.0Q880 1240 926.5 1260.0Q973 1280 1024 1280Q1076 1280 1123.0 1259.5Q1170 1239 1204.5 1204.5Q1239 1170 1259.5 1123.0Q1280 1076 1280 1024Q1280 971 1259.5 924.5Q1239 878 1204.5 843.5Q1170 809 1123.0 788.5Q1076 768 1024 768Q971 768 924.5 788.5Q878 809 843.5 843.5Q809 878 788.5 924.5Q768 971 768 1024ZM512 1152H278Q292 1111 315.0 1075.0Q338 1039 368.5 1009.0Q399 979 435.0 956.0Q471 933 512 918ZM1152 1024Q1152 1050 1142.0 1073.5Q1132 1097 1114.5 1114.5Q1097 1132 1073.5 1142.0Q1050 1152 1024 1152Q997 1152 974.0 1142.0Q951 1132 933.5 1114.5Q916 1097 906.0 1074.0Q896 1051 896 1024Q896 997 906.0 973.5Q916 950 933.0 933.0Q950 916 973.5 906.0Q997 896 1024 896Q1051 896 1074.0 906.0Q1097 916 1114.5 933.5Q1132 951 1142.0 974.0Q1152 997 1152 1024ZM1536 918Q1577 932 1613.0 955.0Q1649 978 1679.0 1008.5Q1709 1039 1732.0 1075.0Q1755 1111 1770 1152H1536ZM768 512V517Q768 569 789.0 614.5Q810 660 845.0 694.0Q880 728 926.5 748.0Q973 768 1024 768Q1076 768 1123.0 747.5Q1170 727 1204.5 692.5Q1239 658 1259.5 611.0Q1280 564 1280 512Q1280 459 1259.5 412.5Q1239 366 1204.5 331.5Q1170 297 1123.0 276.5Q1076 256 1024 256Q971 256 924.5 276.5Q878 297 843.5 331.5Q809 366 788.5 412.5Q768 459 768 512ZM512 640H278Q292 599 315.0 563.0Q338 527 368.5 497.0Q399 467 435.0 444.0Q471 421 512 406ZM1152 512Q1152 538 1142.0 561.5Q1132 585 1114.5 602.5Q1097 620 1073.5 630.0Q1050 640 1024 640Q997 640 974.0 630.0Q951 620 933.5 602.5Q916 585 906.0 562.0Q896 539 896 512Q896 485 906.0 461.5Q916 438 933.0 421.0Q950 404 973.5 394.0Q997 384 1024 384Q1051 384 1074.0 394.0Q1097 404 1114.5 421.5Q1132 439 1142.0 462.0Q1152 485 1152 512ZM1536 406Q1577 420 1613.0 443.0Q1649 466 1679.0 496.5Q1709 527 1732.0 563.0Q1755 599 1770 640H1536Z"/>
  </g>
</svg>