<?xml version="1.0" encoding="utf-8"?>
<svg id="" width="16" height="16" style="width:16px;height:16px;" version="1.1" xmlns="http://www.w3.org/2000/svg" viewBox="0 0 2048 2048" enable-background="new 0 0 2048 2048" xml:space="preserve">
    <path fill="#ffffff" d="M192 2048 q-26 0 -45 -19 q-19 -19 -19 -45 q0 -41 38 -58 l305 -136 q-71 -6 -133.5 -39 q-62.5 -33 -109 -84.5 q-46.5 -51.5 -73.5 -117 q-27 -65.5 -27 -136.5 l0 -1037 q0 -75 30.5 -143.5 q30.5 -68.5 82 -120 q51.5 -51.5 120 -82 q68.5 -30.5 143.5 -30.5 l1040 0 q75 0 143.5 30.5 q68.5 30.5 120 82 q51.5 51.5 82 120 q30.5 68.5 30.5 143.5 l0 1032 q0 72 -26.5 138.5 q-26.5 66.5 -72.5 118.5 q-46 52 -108.5 85.5 q-62.5 33.5 -135.5 39.5 l305 136 q38 17 38 59 q0 26 -19 44.5 q-19 18.5 -45 18.5 q-14 0 -26 -6 l-564 -250 l-484 0 l-564 250 q-12 6 -26 6 ZM256 1024 l1536 0 l0 -645 q0 -50 -20.5 -95.5 q-20.5 -45.5 -55 -80 q-34.5 -34.5 -80 -55 q-45.5 -20.5 -95.5 -20.5 l-1034 0 q-50 0 -95.5 20.5 q-45.5 20.5 -80 55 q-34.5 34.5 -55 80 q-20.5 45.5 -20.5 95.5 l0 645 ZM832 384 q-26 0 -45 -19 q-19 -19 -19 -45 q0 -26 19 -45 q19 -19 45 -19 l384 0 q26 0 45 19 q19 19 19 45 q0 26 -19 45 q-19 19 -45 19 l-384 0 ZM1541 1664 q50 0 95.5 -20.5 q45.5 -20.5 80 -55 q34.5 -34.5 55 -80 q20.5 -45.5 20.5 -95.5 l0 -261 l-1536 0 l0 261 q0 50 20.5 95.5 q20.5 45.5 55 80 q34.5 34.5 80 55 q45.5 20.5 95.5 20.5 l1034 0 ZM512 1408 q0 -27 10 -50 q10 -23 27.5 -40.5 q17.5 -17.5 40.5 -27.5 q23 -10 50 -10 q26 0 49.5 10 q23.5 10 41 27.5 q17.5 17.5 27.5 41 q10 23.5 10 49.5 q0 27 -10 50 q-10 23 -27.5 40.5 q-17.5 17.5 -40.5 27.5 q-23 10 -50 10 q-27 0 -50.5 -10 q-23.5 -10 -40.5 -27 q-17 -17 -27 -40.5 q-10 -23.5 -10 -50.5 ZM1280 1408 q0 -27 10 -50 q10 -23 27.5 -40.5 q17.5 -17.5 40.5 -27.5 q23 -10 50 -10 q26 0 49.5 10 q23.5 10 41 27.5 q17.5 17.5 27.5 41 q10 23.5 10 49.5 q0 27 -10 50 q-10 23 -27.5 40.5 q-17.5 17.5 -40.5 27.5 q-23 10 -50 10 q-27 0 -50.5 -10 q-23.5 -10 -40.5 -27 q-17 -17 -27 -40.5 q-10 -23.5 -10 -50.5 Z"/>
</svg>