<?xml version="1.0" encoding="utf-8"?>
<svg xmlns="http://www.w3.org/2000/svg" width="16" height="16" viewBox="0 0 2048 2048">
  <g transform="translate(0, 2048) scale(1, -1)">
    <path fill="#ffffff" d="M192 0Q166 0 147.0 19.0Q128 38 128 64Q128 105 166 122L471 258Q400 264 337.5 297.0Q275 330 228.5 381.5Q182 433 155.0 498.5Q128 564 128 635V1672Q128 1747 158.5 1815.5Q189 1884 240.5 1935.5Q292 1987 360.5 2017.5Q429 2048 504 2048H1544Q1619 2048 1687.5 2017.5Q1756 1987 1807.5 1935.5Q1859 1884 1889.5 1815.5Q1920 1747 1920 1672V640Q1920 568 1893.5 501.5Q1867 435 1821.0 383.0Q1775 331 1712.5 297.5Q1650 264 1577 258L1882 122Q1920 105 1920 63Q1920 37 1901.0 18.5Q1882 0 1856 0Q1842 0 1830 6L1266 256H782L218 6Q206 0 192 0ZM256 1024H1792V1669Q1792 1719 1771.5 1764.5Q1751 1810 1716.5 1844.5Q1682 1879 1636.5 1899.5Q1591 1920 1541 1920H507Q457 1920 411.5 1899.5Q366 1879 331.5 1844.5Q297 1810 276.5 1764.5Q256 1719 256 1669ZM832 1664Q806 1664 787.0 1683.0Q768 1702 768 1728Q768 1754 787.0 1773.0Q806 1792 832 1792H1216Q1242 1792 1261.0 1773.0Q1280 1754 1280 1728Q1280 1702 1261.0 1683.0Q1242 1664 1216 1664ZM768 640Q768 666 758.0 689.5Q748 713 730.5 730.5Q713 748 689.5 758.0Q666 768 640 768Q613 768 590.0 758.0Q567 748 549.5 730.5Q532 713 522.0 690.0Q512 667 512 640Q512 613 522.0 589.5Q532 566 549.0 549.0Q566 532 589.5 522.0Q613 512 640 512Q667 512 690.0 522.0Q713 532 730.5 549.5Q748 567 758.0 590.0Q768 613 768 640ZM1536 640Q1536 666 1526.0 689.5Q1516 713 1498.5 730.5Q1481 748 1457.5 758.0Q1434 768 1408 768Q1381 768 1358.0 758.0Q1335 748 1317.5 730.5Q1300 713 1290.0 690.0Q1280 667 1280 640Q1280 613 1290.0 589.5Q1300 566 1317.0 549.0Q1334 532 1357.5 522.0Q1381 512 1408 512Q1435 512 1458.0 522.0Q1481 532 1498.5 549.5Q1516 567 1526.0 590.0Q1536 613 1536 640Z"/>
  </g>
</svg>