<?xml version="1.0" encoding="utf-8"?>
<svg xmlns="http://www.w3.org/2000/svg" width="16" height="16" viewBox="0 0 2048 2048">
  <g transform="translate(0, 2048) scale(1, -1)">
    <path fill="#000000" d="M192 447V1733Q192 1783 212.5 1828.5Q233 1874 267.5 1908.5Q302 1943 347.5 1963.5Q393 1984 443 1984H1605Q1655 1984 1700.5 1963.5Q1746 1943 1780.5 1908.5Q1815 1874 1835.5 1828.5Q1856 1783 1856 1733V1344Q1856 1284 1829.0 1229.5Q1802 1175 1754 1139L1600 1024V443Q1600 394 1580.0 348.5Q1560 303 1525.5 268.5Q1491 234 1446.0 213.0Q1401 192 1352 192H1344Q1344 169 1335.5 149.0Q1327 129 1312.0 114.0Q1297 99 1277.0 90.0Q1257 81 1234 81Q1229 81 1225.5 81.0Q1222 81 1217 82L413 193Q366 199 325.5 222.0Q285 245 255.5 279.0Q226 313 209.0 356.0Q192 399 192 447Z"/>
  </g>
</svg>