<?xml version="1.0" encoding="utf-8"?>
<svg xmlns="http://www.w3.org/2000/svg" width="16" height="16" viewBox="0 0 2048 2048">
  <g transform="translate(0, 2048) scale(1, -1)">
    <path fill="#000000" d="M128 442V1735Q128 1798 153.5 1855.0Q179 1912 221.5 1954.5Q264 1997 321.0 2022.5Q378 2048 441 2048H1607Q1670 2048 1727.0 2022.5Q1784 1997 1826.5 1954.5Q1869 1912 1894.5 1855.0Q1920 1798 1920 1735V1344Q1920 1269 1886.0 1201.0Q1852 1133 1792 1088L1664 992V443Q1664 381 1639.0 324.0Q1614 267 1571.5 224.0Q1529 181 1473.0 155.0Q1417 129 1355 128Q1320 81 1265.0 55.0Q1210 29 1152 29Q1143 29 1134.5 29.0Q1126 29 1117 31L404 130Q347 138 296.5 165.5Q246 193 208.5 235.0Q171 277 149.5 330.0Q128 383 128 442ZM1536 1056 1715 1190Q1751 1217 1771.5 1258.0Q1792 1299 1792 1344V1728Q1792 1767 1777.0 1802.0Q1762 1837 1735.5 1863.5Q1709 1890 1674.0 1905.0Q1639 1920 1600 1920H437Q431 1920 425 1919L1204 1758Q1247 1749 1284.5 1725.5Q1322 1702 1349.5 1668.5Q1377 1635 1392.5 1594.0Q1408 1553 1408 1508V276Q1408 272 1407 267Q1436 277 1459.5 295.0Q1483 313 1500.0 337.0Q1517 361 1526.5 389.0Q1536 417 1536 448ZM1151 157Q1178 157 1201.5 167.0Q1225 177 1242.5 194.0Q1260 211 1270.0 234.5Q1280 258 1280 285V1508Q1280 1530 1272.5 1551.0Q1265 1572 1251.5 1588.5Q1238 1605 1219.0 1616.5Q1200 1628 1178 1633L278 1818Q256 1777 256 1728V447Q256 411 268.5 378.5Q281 346 303.5 320.5Q326 295 356.0 278.5Q386 262 422 257L1134 158Q1139 157 1142.5 157.0Q1146 157 1151 157Z"/>
  </g>
</svg>