<?xml version="1.0" encoding="utf-8"?>
<svg xmlns="http://www.w3.org/2000/svg" width="16" height="16" viewBox="0 0 2048 2048">
  <g transform="translate(0, 2048) scale(1, -1)">
    <path fill="#ffffff" d="M443 64Q393 64 347.5 84.5Q302 105 267.5 139.5Q233 174 212.5 219.5Q192 265 192 315V1733Q192 1783 212.5 1828.5Q233 1874 267.5 1908.5Q302 1943 347.5 1963.5Q393 1984 443 1984H1605Q1655 1984 1700.5 1963.5Q1746 1943 1780.5 1908.5Q1815 1874 1835.5 1828.5Q1856 1783 1856 1733V1344Q1856 1284 1829.0 1229.5Q1802 1175 1754 1139L1600 1024V315Q1600 265 1579.5 219.5Q1559 174 1524.5 139.5Q1490 105 1444.5 84.5Q1399 64 1349 64Z"/>
  </g>
</svg>