<?xml version="1.0" encoding="utf-8"?>
<svg xmlns="http://www.w3.org/2000/svg" width="16" height="16" viewBox="0 0 2048 2048">
  <g transform="translate(0, 2048) scale(1, -1)">
    <path fill="#ffffff" d="M441 0Q378 0 321.0 25.5Q264 51 221.5 93.5Q179 136 153.5 193.0Q128 250 128 313V1735Q128 1798 153.5 1855.0Q179 1912 221.5 1954.5Q264 1997 321.0 2022.5Q378 2048 441 2048H1607Q1670 2048 1727.0 2022.5Q1784 1997 1826.5 1954.5Q1869 1912 1894.5 1855.0Q1920 1798 1920 1735V1344Q1920 1267 1886.5 1200.5Q1853 1134 1792 1088L1664 992V313Q1664 250 1638.5 193.0Q1613 136 1570.5 93.5Q1528 51 1471.0 25.5Q1414 0 1351 0ZM1344 128Q1383 128 1418.0 143.0Q1453 158 1479.5 184.5Q1506 211 1521.0 246.0Q1536 281 1536 320V1005Q1512 1041 1489.0 1073.5Q1466 1106 1448.0 1140.5Q1430 1175 1419.0 1212.0Q1408 1249 1408 1294V1920H448Q409 1920 374.0 1905.0Q339 1890 312.5 1863.5Q286 1837 271.0 1802.0Q256 1767 256 1728V320Q256 281 271.0 246.0Q286 211 312.5 184.5Q339 158 374.0 143.0Q409 128 448 128ZM1792 1344V1728Q1792 1767 1777.0 1802.0Q1762 1837 1735.5 1863.5Q1709 1890 1674.0 1905.0Q1639 1920 1600 1920H1536V1294Q1536 1267 1543.0 1243.5Q1550 1220 1561.5 1199.0Q1573 1178 1587.0 1157.5Q1601 1137 1616 1116Q1648 1140 1679.5 1162.0Q1711 1184 1736.0 1209.5Q1761 1235 1776.5 1267.5Q1792 1300 1792 1344Z"/>
  </g>
</svg>