<?xml version="1.0" encoding="utf-8"?>
<svg xmlns="http://www.w3.org/2000/svg" width="16" height="16" viewBox="0 0 2048 2048">
  <g transform="translate(0, 2048) scale(1, -1)">
    <path fill="#ffffff" d="M125 233Q125 282 137.5 324.0Q150 366 173 409Q215 490 253.0 571.0Q291 652 320.5 736.0Q350 820 367.0 907.5Q384 995 384 1088Q384 1228 361.5 1360.0Q339 1492 291 1623Q278 1658 263.0 1692.0Q248 1726 234 1761Q225 1783 220.5 1803.0Q216 1823 216 1846Q216 1887 231.0 1923.5Q246 1960 272.5 1988.0Q299 2016 335.0 2032.0Q371 2048 413 2048H1582Q1656 2048 1725.0 2028.0Q1794 2008 1850.5 1968.5Q1907 1929 1946.5 1870.5Q1986 1812 2001 1736Q2030 1593 2039.0 1445.5Q2048 1298 2048 1152Q2048 990 2012.0 841.0Q1976 692 1904.0 562.5Q1832 433 1723.0 326.5Q1614 220 1468 144Q1366 91 1267.0 61.5Q1168 32 1067.5 18.0Q967 4 862.5 1.0Q758 -2 646 -2Q558 -2 466.5 1.5Q375 5 290 25Q210 44 167.5 97.5Q125 151 125 233ZM1920 1152Q1920 1291 1912.0 1433.0Q1904 1575 1875 1712Q1863 1766 1835.5 1805.0Q1808 1844 1769.0 1869.5Q1730 1895 1682.0 1907.5Q1634 1920 1582 1920H413Q382 1920 363.0 1897.5Q344 1875 344 1846Q344 1836 345.5 1829.5Q347 1823 351 1814Q390 1724 420.5 1636.5Q451 1549 471.0 1459.5Q491 1370 501.5 1278.0Q512 1186 512 1088Q512 896 449 715Q416 618 374.0 528.5Q332 439 286 348Q272 321 262.5 293.0Q253 265 253 234Q253 223 255.0 211.5Q257 200 262 189Q268 178 272.5 172.0Q277 166 283.0 162.0Q289 158 297.0 156.0Q305 154 316 151Q350 142 389.5 137.0Q429 132 470.5 129.5Q512 127 553.0 126.5Q594 126 631 126H653Q698 126 742.5 126.5Q787 127 832 128Q983 129 1124.5 157.5Q1266 186 1401 256Q1531 323 1628.5 417.5Q1726 512 1790.5 627.0Q1855 742 1887.5 875.0Q1920 1008 1920 1152ZM832 768Q806 768 787.0 787.0Q768 806 768 832V1344Q768 1370 787.0 1389.0Q806 1408 832 1408Q858 1408 877.0 1389.0Q896 1370 896 1344V896H1088Q1114 896 1133.0 877.0Q1152 858 1152 832Q1152 806 1133.0 787.0Q1114 768 1088 768ZM1344 1280H1216Q1190 1280 1171.0 1299.0Q1152 1318 1152 1344Q1152 1370 1171.0 1389.0Q1190 1408 1216 1408H1600Q1626 1408 1645.0 1389.0Q1664 1370 1664 1344Q1664 1318 1645.0 1299.0Q1626 1280 1600 1280H1472V832Q1472 806 1453.0 787.0Q1434 768 1408 768Q1382 768 1363.0 787.0Q1344 806 1344 832Z"/>
  </g>
</svg>