<?xml version="1.0" encoding="utf-8"?>
<svg xmlns="http://www.w3.org/2000/svg" width="16" height="16" viewBox="0 0 2048 2048">
  <g transform="translate(0, 2048) scale(1, -1)">
    <path fill="#ffffff" d="M0 1152Q0 1298 9.5 1445.0Q19 1592 47 1736Q62 1810 101.0 1868.0Q140 1926 196.0 1966.0Q252 2006 320.0 2027.0Q388 2048 461 2048H1635Q1677 2048 1713.0 2031.5Q1749 2015 1775.5 1987.5Q1802 1960 1817.0 1923.0Q1832 1886 1832 1845Q1832 1822 1827.5 1802.5Q1823 1783 1814 1761Q1802 1732 1789.5 1703.5Q1777 1675 1766 1645Q1714 1508 1689.0 1371.0Q1664 1234 1664 1088Q1664 993 1681.0 906.0Q1698 819 1727.0 736.0Q1756 653 1794.0 572.0Q1832 491 1875 409Q1898 366 1910.5 324.0Q1923 282 1923 233Q1923 151 1880.5 97.5Q1838 44 1758 25Q1673 5 1581.5 1.5Q1490 -2 1402 -2Q1290 -2 1185.5 1.0Q1081 4 980.5 18.0Q880 32 781.0 61.5Q682 91 580 144Q434 220 325.0 326.5Q216 433 144.0 562.5Q72 692 36.0 841.0Q0 990 0 1152ZM1395 126H1417Q1454 126 1495.0 126.5Q1536 127 1577.0 129.5Q1618 132 1658.0 137.0Q1698 142 1732 151Q1743 154 1751.0 156.0Q1759 158 1765.0 162.0Q1771 166 1775.5 172.0Q1780 178 1786 189Q1791 200 1793.0 211.5Q1795 223 1795 234Q1795 265 1785.5 293.0Q1776 321 1762 348Q1716 439 1674.0 528.5Q1632 618 1599 715Q1536 896 1536 1088Q1536 1186 1546.5 1278.0Q1557 1370 1577.0 1459.5Q1597 1549 1627.5 1636.5Q1658 1724 1697 1814Q1701 1823 1702.5 1829.5Q1704 1836 1704 1846Q1704 1875 1685.0 1897.5Q1666 1920 1635 1920H466Q414 1920 366.0 1907.5Q318 1895 279.0 1869.5Q240 1844 212.5 1805.0Q185 1766 173 1712Q144 1575 136.0 1433.0Q128 1291 128 1152Q128 1008 160.5 875.0Q193 742 257.5 627.0Q322 512 419.5 417.5Q517 323 647 256Q740 208 830.5 181.5Q921 155 1012.0 143.0Q1103 131 1198.0 128.5Q1293 126 1395 126ZM384 832V1344Q384 1368 394.0 1381.0Q404 1394 419.5 1400.0Q435 1406 454.0 1407.5Q473 1409 490 1409Q497 1409 504 1409L533 1410Q540 1410 547 1410Q605 1410 667.0 1402.0Q729 1394 780.0 1370.0Q831 1346 863.5 1301.5Q896 1257 896 1184Q896 1124 871.5 1079.0Q847 1034 793 1007L885 868Q896 851 896 832Q896 806 877.0 787.0Q858 768 832 768Q798 768 779 797L663 970Q625 965 587.5 963.0Q550 961 512 960V832Q512 806 493.0 787.0Q474 768 448 768Q422 768 403.0 787.0Q384 806 384 832ZM1088 1280H960Q934 1280 915.0 1299.0Q896 1318 896 1344Q896 1370 915.0 1389.0Q934 1408 960 1408H1344Q1370 1408 1389.0 1389.0Q1408 1370 1408 1344Q1408 1318 1389.0 1299.0Q1370 1280 1344 1280H1216V832Q1216 806 1197.0 787.0Q1178 768 1152 768Q1126 768 1107.0 787.0Q1088 806 1088 832ZM512 1088Q529 1088 554.5 1088.5Q580 1089 608.5 1091.0Q637 1093 665.5 1098.0Q694 1103 716.5 1113.5Q739 1124 753.5 1141.0Q768 1158 768 1184Q768 1220 745.5 1240.0Q723 1260 690.5 1269.0Q658 1278 621.5 1280.0Q585 1282 558 1282H540L512 1281Z"/>
  </g>
</svg>