<?xml version="1.0" encoding="utf-8"?>
<svg xmlns="http://www.w3.org/2000/svg" width="16" height="16" viewBox="0 0 2048 2048">
  <g transform="translate(0, 2048) scale(1, -1)">
    <path fill="#ffffff" d="M512 1600V1856Q512 1882 531.0 1901.0Q550 1920 576 1920Q602 1920 621.0 1901.0Q640 1882 640 1856V1600Q640 1574 621.0 1555.0Q602 1536 576 1536Q550 1536 531.0 1555.0Q512 1574 512 1600ZM1408 1600V1856Q1408 1882 1427.0 1901.0Q1446 1920 1472 1920Q1498 1920 1517.0 1901.0Q1536 1882 1536 1856V1600Q1536 1574 1517.0 1555.0Q1498 1536 1472 1536Q1446 1536 1427.0 1555.0Q1408 1574 1408 1600ZM0 704V1344Q0 1370 19.0 1389.0Q38 1408 64 1408Q90 1408 109.0 1389.0Q128 1370 128 1344V704Q128 678 109.0 659.0Q90 640 64 640Q38 640 19.0 659.0Q0 678 0 704ZM256 704V1344Q256 1370 275.0 1389.0Q294 1408 320 1408Q346 1408 365.0 1389.0Q384 1370 384 1344V704Q384 678 365.0 659.0Q346 640 320 640Q294 640 275.0 659.0Q256 678 256 704ZM704 640Q665 640 630.0 655.0Q595 670 568.5 696.5Q542 723 527.0 758.0Q512 793 512 832V1216Q512 1255 527.0 1290.0Q542 1325 568.5 1351.5Q595 1378 630.0 1393.0Q665 1408 704 1408H1344Q1383 1408 1418.0 1393.0Q1453 1378 1479.5 1351.5Q1506 1325 1521.0 1290.0Q1536 1255 1536 1216V832Q1536 793 1521.0 758.0Q1506 723 1479.5 696.5Q1453 670 1418.0 655.0Q1383 640 1344 640ZM1664 704V1344Q1664 1370 1683.0 1389.0Q1702 1408 1728 1408Q1754 1408 1773.0 1389.0Q1792 1370 1792 1344V704Q1792 678 1773.0 659.0Q1754 640 1728 640Q1702 640 1683.0 659.0Q1664 678 1664 704ZM1920 704V1344Q1920 1370 1939.0 1389.0Q1958 1408 1984 1408Q2010 1408 2029.0 1389.0Q2048 1370 2048 1344V704Q2048 678 2029.0 659.0Q2010 640 1984 640Q1958 640 1939.0 659.0Q1920 678 1920 704ZM1344 768Q1370 768 1389.0 787.0Q1408 806 1408 832V1216Q1408 1242 1389.0 1261.0Q1370 1280 1344 1280H704Q678 1280 659.0 1261.0Q640 1242 640 1216V832Q640 806 659.0 787.0Q678 768 704 768ZM512 192V448Q512 474 531.0 493.0Q550 512 576 512Q602 512 621.0 493.0Q640 474 640 448V192Q640 166 621.0 147.0Q602 128 576 128Q550 128 531.0 147.0Q512 166 512 192ZM1408 192V448Q1408 474 1427.0 493.0Q1446 512 1472 512Q1498 512 1517.0 493.0Q1536 474 1536 448V192Q1536 166 1517.0 147.0Q1498 128 1472 128Q1446 128 1427.0 147.0Q1408 166 1408 192Z"/>
  </g>
</svg>