<?xml version="1.0" encoding="utf-8"?>
<svg xmlns="http://www.w3.org/2000/svg" width="16" height="16" viewBox="0 0 2048 2048">
  <g transform="translate(0, 2048) scale(1, -1)">
    <path fill="#000000" d="M448 0Q422 0 403.0 19.0Q384 38 384 64Q384 90 403.0 109.0Q422 128 448 128H640V384H251Q201 384 155.5 404.5Q110 425 75.5 459.5Q41 494 20.5 539.5Q0 585 0 635V1797Q0 1847 20.5 1892.5Q41 1938 75.5 1972.5Q110 2007 155.5 2027.5Q201 2048 251 2048H1797Q1847 2048 1892.5 2027.5Q1938 2007 1972.5 1972.5Q2007 1938 2027.5 1892.5Q2048 1847 2048 1797V1034Q2020 1069 1988.0 1101.0Q1956 1133 1920 1160V1792Q1920 1818 1910.0 1841.5Q1900 1865 1882.5 1882.5Q1865 1900 1841.5 1910.0Q1818 1920 1792 1920H256Q229 1920 206.0 1910.0Q183 1900 165.5 1882.5Q148 1865 138.0 1842.0Q128 1819 128 1792V640Q128 613 138.0 589.5Q148 566 165.0 549.0Q182 532 205.5 522.0Q229 512 256 512H739Q741 486 745.0 459.5Q749 433 755 407Q756 403 758.0 396.5Q760 390 762.5 383.0Q765 376 766.5 370.0Q768 364 768 361V128H888Q915 92 947.0 60.0Q979 28 1014 0ZM896 576Q896 695 941.5 800.0Q987 905 1065.0 983.0Q1143 1061 1248.0 1106.5Q1353 1152 1472 1152Q1551 1152 1624.5 1131.5Q1698 1111 1762.0 1073.5Q1826 1036 1879.0 983.0Q1932 930 1969.5 866.0Q2007 802 2027.5 728.5Q2048 655 2048 576Q2048 457 2002.5 352.0Q1957 247 1879.0 169.0Q1801 91 1696.0 45.5Q1591 0 1472 0Q1352 0 1247.0 45.0Q1142 90 1064.0 168.0Q986 246 941.0 351.0Q896 456 896 576ZM1344 248Q1374 248 1395 269L1843 717Q1864 738 1864 768Q1864 798 1843.0 819.0Q1822 840 1792 840Q1762 840 1741 819L1344 422L1203 563Q1182 584 1152 584Q1122 584 1101.0 563.0Q1080 542 1080 512Q1080 482 1101 461L1293 269Q1314 248 1344 248Z"/>
  </g>
</svg>