<?xml version="1.0" encoding="utf-8"?>
<svg xmlns="http://www.w3.org/2000/svg" width="16" height="16" viewBox="0 0 2048 2048">
  <g transform="translate(0, 2048) scale(1, -1)">
    <path fill="#ffffff" d="M1797 2048Q1847 2048 1892.5 2027.5Q1938 2007 1972.5 1972.5Q2007 1938 2027.5 1892.5Q2048 1847 2048 1797V635Q2048 583 2027.0 537.5Q2006 492 1971.0 458.0Q1936 424 1889.5 404.0Q1843 384 1792 384H1408V128H1600Q1626 128 1645.0 109.0Q1664 90 1664 64Q1664 38 1645.0 19.0Q1626 0 1600 0H448Q422 0 403.0 19.0Q384 38 384 64Q384 90 403.0 109.0Q422 128 448 128H640V384H251Q201 384 155.5 404.5Q110 425 75.5 459.5Q41 494 20.5 539.5Q0 585 0 635V1797Q0 1847 20.5 1892.5Q41 1938 75.5 1972.5Q110 2007 155.5 2027.5Q201 2048 251 2048ZM1920 1792Q1920 1818 1910.0 1841.5Q1900 1865 1882.5 1882.5Q1865 1900 1841.5 1910.0Q1818 1920 1792 1920H256Q229 1920 206.0 1910.0Q183 1900 165.5 1882.5Q148 1865 138.0 1842.0Q128 1819 128 1792V640Q128 613 138.0 589.5Q148 566 165.0 549.0Q182 532 205.5 522.0Q229 512 256 512H1792Q1819 512 1842.0 522.0Q1865 532 1882.5 549.5Q1900 567 1910.0 590.0Q1920 613 1920 640ZM768 128H1280V384H768Z"/>
  </g>
</svg>