<?xml version="1.0" encoding="utf-8"?>
<svg xmlns="http://www.w3.org/2000/svg" width="16" height="16" viewBox="0 0 2048 2048">
  <g transform="translate(0, 2048) scale(1, -1)">
    <path fill="#ffffff" d="M2048 1009V507Q2048 457 2027.5 411.5Q2007 366 1972.5 331.5Q1938 297 1892.5 276.5Q1847 256 1797 256H251Q201 256 155.5 276.5Q110 297 75.5 331.5Q41 366 20.5 411.5Q0 457 0 507V1541Q0 1591 20.5 1636.5Q41 1682 75.5 1716.5Q110 1751 155.5 1771.5Q201 1792 251 1792H1265Q1316 1792 1363.0 1772.5Q1410 1753 1446 1717L1973 1190Q2009 1154 2028.5 1107.0Q2048 1060 2048 1009ZM896 384V1664H256Q229 1664 206.0 1654.0Q183 1644 165.5 1626.5Q148 1609 138.0 1586.0Q128 1563 128 1536V512Q128 485 138.0 461.5Q148 438 165.0 421.0Q182 404 205.5 394.0Q229 384 256 384ZM1920 1009Q1920 1019 1919 1024H1531Q1479 1024 1433.5 1045.0Q1388 1066 1354.0 1101.0Q1320 1136 1300.0 1182.5Q1280 1229 1280 1280V1663Q1275 1664 1265 1664H1024V384H1792Q1819 384 1842.0 394.0Q1865 404 1882.5 421.5Q1900 439 1910.0 462.0Q1920 485 1920 512ZM1408 1574V1280Q1408 1253 1418.0 1229.5Q1428 1206 1445.0 1189.0Q1462 1172 1485.5 1162.0Q1509 1152 1536 1152H1830Z"/>
  </g>
</svg>