<?xml version="1.0" encoding="utf-8"?>
<svg xmlns="http://www.w3.org/2000/svg" width="16" height="16" viewBox="0 0 2048 2048">
  <g transform="translate(0, 2048) scale(1, -1)">
    <path fill="#000000" d="M1669 1792Q1719 1792 1764.5 1771.5Q1810 1751 1844.5 1716.5Q1879 1682 1899.5 1636.5Q1920 1591 1920 1541V379Q1920 329 1899.5 283.5Q1879 238 1844.5 203.5Q1810 169 1764.5 148.5Q1719 128 1669 128H379Q329 128 283.5 148.5Q238 169 203.5 203.5Q169 238 148.5 283.5Q128 329 128 379V1157Q128 1209 149.0 1254.5Q170 1300 205.0 1334.0Q240 1368 286.5 1388.0Q333 1408 384 1408H640V1541Q640 1591 660.5 1636.5Q681 1682 715.5 1716.5Q750 1751 795.5 1771.5Q841 1792 891 1792ZM1792 1536Q1792 1562 1782.0 1585.5Q1772 1609 1754.5 1626.5Q1737 1644 1713.5 1654.0Q1690 1664 1664 1664H896Q870 1664 846.5 1654.5Q823 1645 805 1626Q788 1608 778.0 1585.0Q768 1562 768 1536V1408H1413Q1463 1408 1508.5 1387.5Q1554 1367 1588.5 1332.5Q1623 1298 1643.5 1252.5Q1664 1207 1664 1157V384Q1664 316 1630 256H1664Q1691 256 1714.0 266.0Q1737 276 1754.5 293.5Q1772 311 1782.0 334.0Q1792 357 1792 384ZM1408 256Q1435 256 1458.0 266.0Q1481 276 1498.5 293.5Q1516 311 1526.0 334.0Q1536 357 1536 384V1152Q1536 1178 1526.0 1201.5Q1516 1225 1498.5 1242.5Q1481 1260 1457.5 1270.0Q1434 1280 1408 1280H384Q357 1280 334.0 1270.0Q311 1260 293.5 1242.5Q276 1225 266.0 1202.0Q256 1179 256 1152V384Q256 357 266.0 333.5Q276 310 293.0 293.0Q310 276 333.5 266.0Q357 256 384 256Z"/>
  </g>
</svg>