<?xml version="1.0" encoding="utf-8"?>
<svg xmlns="http://www.w3.org/2000/svg" width="16" height="16" viewBox="0 0 2048 2048">
  <g transform="translate(0, 2048) scale(1, -1)">
    <path fill="#000000" d="M384 1030V1856Q384 1882 403.0 1901.0Q422 1920 448 1920Q474 1920 493.0 1901.0Q512 1882 512 1856V1020Q512 916 553.0 823.5Q594 731 664.0 662.0Q734 593 827.0 552.5Q920 512 1024 512Q1131 512 1224.5 553.0Q1318 594 1387.0 664.5Q1456 735 1496.0 829.0Q1536 923 1536 1030V1856Q1536 1882 1555.0 1901.0Q1574 1920 1600 1920Q1626 1920 1645.0 1901.0Q1664 1882 1664 1856V1030Q1664 941 1641.5 859.0Q1619 777 1577.5 705.0Q1536 633 1477.5 574.0Q1419 515 1348.0 473.0Q1277 431 1195.0 407.5Q1113 384 1024 384Q935 384 853.0 407.5Q771 431 700.0 473.0Q629 515 570.5 574.0Q512 633 470.5 705.0Q429 777 406.5 859.5Q384 942 384 1030ZM448 128Q422 128 403.0 147.0Q384 166 384 192Q384 218 403.0 237.0Q422 256 448 256H1600Q1626 256 1645.0 237.0Q1664 218 1664 192Q1664 166 1645.0 147.0Q1626 128 1600 128Z"/>
  </g>
</svg>