<?xml version="1.0" encoding="utf-8"?>
<svg xmlns="http://www.w3.org/2000/svg" width="16" height="16" viewBox="0 0 2048 2048">
  <g transform="translate(0, 2048) scale(1, -1)">
    <path fill="#ffffff" d="M251 768Q201 768 155.5 788.5Q110 809 75.5 843.5Q41 878 20.5 923.5Q0 969 0 1019V1344Q0 1370 19.0 1389.0Q38 1408 64 1408Q90 1408 109.0 1389.0Q128 1370 128 1344V1024Q128 997 138.0 973.5Q148 950 165.0 933.0Q182 916 205.5 906.0Q229 896 256 896H1792Q1819 896 1842.0 906.0Q1865 916 1882.5 933.5Q1900 951 1910.0 974.0Q1920 997 1920 1024V1344Q1920 1370 1939.0 1389.0Q1958 1408 1984 1408Q2010 1408 2029.0 1389.0Q2048 1370 2048 1344V1019Q2048 969 2027.5 923.5Q2007 878 1972.5 843.5Q1938 809 1892.5 788.5Q1847 768 1797 768Z"/>
  </g>
</svg>