<?xml version="1.0" encoding="utf-8"?>
<svg xmlns="http://www.w3.org/2000/svg" width="16" height="16" viewBox="0 0 2048 2048">
  <g transform="translate(0, 2048) scale(1, -1)">
    <path fill="#000000" d="M1920 1408Q1920 1264 1859.5 1136.5Q1799 1009 1689 916L617 15Q599 0 576 0Q550 0 531.0 19.0Q512 38 512 64Q512 78 518.0 91.0Q524 104 535 113L1607 1014Q1700 1092 1746.0 1195.0Q1792 1298 1792 1418Q1792 1485 1773.5 1548.0Q1755 1611 1721.5 1667.0Q1688 1723 1641.5 1769.5Q1595 1816 1539.0 1849.5Q1483 1883 1420.0 1901.5Q1357 1920 1290 1920Q1196 1920 1110.5 1891.0Q1025 1862 953 1802L480 1408H960Q986 1408 1005.0 1389.0Q1024 1370 1024 1344Q1024 1318 1005.0 1299.0Q986 1280 960 1280H320Q294 1280 275.0 1299.0Q256 1318 256 1344V1984Q256 2010 275.0 2029.0Q294 2048 320 2048Q346 2048 365.0 2029.0Q384 2010 384 1984V1495L871 1900Q957 1972 1062.5 2010.0Q1168 2048 1280 2048Q1413 2048 1529.5 1998.0Q1646 1948 1733.0 1861.0Q1820 1774 1870.0 1657.5Q1920 1541 1920 1408Z"/>
  </g>
</svg>