<?xml version="1.0" encoding="utf-8"?>
<svg xmlns="http://www.w3.org/2000/svg" width="16" height="16" viewBox="0 0 2048 2048">
  <g transform="translate(0, 2048) scale(1, -1)">
    <path fill="#ffffff" d="M2048 64Q2048 38 2029.0 19.0Q2010 0 1984 0Q1958 0 1939 19L1639 319L1647 310Q1651 287 1656.5 262.0Q1662 237 1667.0 211.5Q1672 186 1676.0 161.0Q1680 136 1680 113Q1680 87 1661.0 68.0Q1642 49 1616 49Q1602 49 1586 56L1024 352L462 56Q449 49 432 49Q406 49 387.0 67.5Q368 86 368 112Q368 120 369 124L476 750L21 1193Q2 1212 2 1240Q2 1263 18.0 1281.5Q34 1300 57 1303L579 1378L586 1372L19 1939Q0 1958 0 1984Q0 2010 19.0 2029.0Q38 2048 64 2048Q90 2048 109 2029L2029 109Q2048 90 2048 64ZM1572 750V747L765 1555L967 1964Q984 1999 1024 1999Q1064 1999 1081 1964L1363 1394L1991 1303Q2014 1300 2030.0 1281.5Q2046 1263 2046 1240Q2046 1212 2027 1193Z"/>
  </g>
</svg>