<?xml version="1.0" encoding="utf-8"?>
<svg xmlns="http://www.w3.org/2000/svg" width="16" height="16" viewBox="0 0 2048 2048">
  <g transform="translate(0, 2048) scale(1, -1)">
    <path fill="#ffffff" d="M320 256Q280 256 245.0 271.0Q210 286 184.0 312.0Q158 338 143.0 373.0Q128 408 128 448V1728Q128 1768 143.0 1803.0Q158 1838 184.0 1864.0Q210 1890 245.0 1905.0Q280 1920 320 1920H1600Q1640 1920 1675.0 1905.0Q1710 1890 1736.0 1864.0Q1762 1838 1777.0 1803.0Q1792 1768 1792 1728V1239Q1731 1269 1664 1287V1728Q1664 1754 1645.0 1773.0Q1626 1792 1600 1792H1024V1160Q947 1101 888 1024H256V448Q256 422 275.0 403.0Q294 384 320 384H761Q779 317 809 256ZM256 1152H896V1792H320Q294 1792 275.0 1773.0Q256 1754 256 1728ZM896 576Q896 695 941.5 800.0Q987 905 1065.0 983.0Q1143 1061 1248.0 1106.5Q1353 1152 1472 1152Q1551 1152 1624.5 1131.5Q1698 1111 1762.0 1073.5Q1826 1036 1879.0 983.0Q1932 930 1969.5 866.0Q2007 802 2027.5 728.5Q2048 655 2048 576Q2048 457 2002.5 352.0Q1957 247 1879.0 169.0Q1801 91 1696.0 45.5Q1591 0 1472 0Q1352 0 1247.0 45.0Q1142 90 1064.0 168.0Q986 246 941.0 351.0Q896 456 896 576ZM1216 251Q1245 251 1265 271L1472 479L1679 271Q1688 262 1701.5 256.5Q1715 251 1728 251Q1757 251 1777.0 271.0Q1797 291 1797 320Q1797 349 1777 369L1569 576L1777 783Q1797 803 1797 832Q1797 861 1777.0 881.0Q1757 901 1728 901Q1699 901 1679 881L1472 673L1265 881Q1245 901 1216 901Q1187 901 1167.0 881.0Q1147 861 1147 832Q1147 819 1152.5 805.5Q1158 792 1167 783L1375 576L1167 369Q1147 349 1147 320Q1147 291 1167.0 271.0Q1187 251 1216 251Z"/>
  </g>
</svg>