<?xml version="1.0" encoding="utf-8"?>
<svg id="" width="16" height="16" style="width:16px;height:16px;" version="1.1" xmlns="http://www.w3.org/2000/svg" viewBox="0 0 2048 2048" enable-background="new 0 0 2048 2048" xml:space="preserve">
    <path fill="#000" d="M704 2048 q-39 0 -74 -15 q-35 -15 -61.5 -41.5 q-26.5 -26.5 -41.5 -61.5 q-15 -35 -15 -74 l0 -1664 q0 -39 15 -74 q15 -35 41.5 -61.5 q26.5 -26.5 61.5 -41.5 q35 -15 74 -15 l640 0 q39 0 74 15 q35 15 61.5 41.5 q26.5 26.5 41.5 61.5 q15 35 15 74 l0 1664 q0 39 -15 74 q-15 35 -41.5 61.5 q-26.5 26.5 -61.5 41.5 q-35 15 -74 15 l-640 0 ZM1344 1920 q26 0 45 -19 q19 -19 19 -45 l0 -1664 q0 -26 -19 -45 q-19 -19 -45 -19 l-640 0 q-26 0 -45 19 q-19 19 -19 45 l0 128 l192 0 q26 0 45 19 q19 19 19 45 q0 26 -19 45 q-19 19 -45 19 l-192 0 l0 192 l320 0 q26 0 45 19 q19 19 19 45 q0 26 -19 45 q-19 19 -45 19 l-320 0 l0 192 l192 0 q26 0 45 19 q19 19 19 45 q0 26 -19 45 q-19 19 -45 19 l-192 0 l0 192 l320 0 q26 0 45 19 q19 19 19 45 q0 26 -19 45 q-19 19 -45 19 l-320 0 l0 192 l192 0 q26 0 45 19 q19 19 19 45 q0 26 -19 45 q-19 19 -45 19 l-192 0 l0 128 q0 26 19 45 q19 19 45 19 l640 0 Z"/>
</svg>