<?xml version="1.0" encoding="utf-8"?>
<svg xmlns="http://www.w3.org/2000/svg" width="16" height="16" viewBox="0 0 2048 2048">
  <g transform="translate(0, 2048) scale(1, -1)">
    <path fill="#000000" d="M0 1088Q0 1220 34.5 1343.0Q69 1466 131.5 1572.5Q194 1679 281.5 1766.5Q369 1854 475.5 1916.5Q582 1979 705.0 2013.5Q828 2048 960 2048Q1093 2048 1215.5 2014.0Q1338 1980 1445.0 1917.5Q1552 1855 1639.5 1767.5Q1727 1680 1789.5 1573.0Q1852 1466 1886.0 1343.5Q1920 1221 1920 1088Q1920 955 1886.0 832.5Q1852 710 1789.5 603.0Q1727 496 1639.5 408.5Q1552 321 1445.0 258.5Q1338 196 1215.5 162.0Q1093 128 960 128Q827 128 704.5 162.0Q582 196 475.0 258.5Q368 321 280.5 408.5Q193 496 130.5 603.0Q68 710 34.0 832.5Q0 955 0 1088ZM1792 1088Q1792 1203 1762.5 1309.5Q1733 1416 1678.5 1508.5Q1624 1601 1548.5 1676.5Q1473 1752 1380.5 1806.5Q1288 1861 1181.5 1890.5Q1075 1920 960 1920Q845 1920 738.5 1890.5Q632 1861 539.5 1806.5Q447 1752 371.5 1676.5Q296 1601 241.5 1508.5Q187 1416 157.5 1309.5Q128 1203 128 1088Q128 973 157.5 866.5Q187 760 241.0 667.5Q295 575 371.0 499.0Q447 423 539.5 369.0Q632 315 738.5 285.5Q845 256 960 256Q1075 256 1181.5 285.5Q1288 315 1380.5 369.0Q1473 423 1549.0 499.0Q1625 575 1679.0 667.5Q1733 760 1762.5 866.5Q1792 973 1792 1088ZM640 1351Q640 1416 666.0 1473.0Q692 1530 736.0 1572.5Q780 1615 838.0 1639.5Q896 1664 960 1664Q1024 1664 1082.0 1639.5Q1140 1615 1184.0 1572.5Q1228 1530 1254.0 1473.0Q1280 1416 1280 1351Q1280 1322 1263.5 1301.0Q1247 1280 1216 1280Q1190 1280 1171.0 1299.0Q1152 1318 1152 1344Q1152 1383 1137.0 1418.0Q1122 1453 1095.5 1479.5Q1069 1506 1034.0 1521.0Q999 1536 960 1536Q921 1536 886.0 1521.0Q851 1506 824.5 1479.5Q798 1453 783.0 1418.0Q768 1383 768 1344Q768 1301 787.0 1268.0Q806 1235 834.5 1205.5Q863 1176 896.0 1146.5Q929 1117 957.5 1081.5Q986 1046 1005.0 1001.0Q1024 956 1024 896V832Q1024 806 1005.0 787.0Q986 768 960 768Q934 768 915.0 787.0Q896 806 896 832V874Q896 912 888.5 945.5Q881 979 850 1011L722 1140Q679 1184 659.5 1237.5Q640 1291 640 1351ZM864 576Q864 616 892.0 644.0Q920 672 960 672Q1000 672 1028.0 644.0Q1056 616 1056 576Q1056 536 1028.0 508.0Q1000 480 960 480Q920 480 892.0 508.0Q864 536 864 576Z"/>
  </g>
</svg>