<?xml version="1.0" encoding="utf-8"?>
<svg xmlns="http://www.w3.org/2000/svg" width="16" height="16" viewBox="0 0 2048 2048">
  <g transform="translate(0, 2048) scale(1, -1)">
    <path fill="#ffffff" d="M0 1088Q0 1221 34.0 1343.5Q68 1466 130.5 1573.0Q193 1680 280.5 1767.5Q368 1855 475.0 1917.5Q582 1980 704.5 2014.0Q827 2048 960 2048Q1092 2048 1214.5 2013.5Q1337 1979 1444.0 1916.5Q1551 1854 1638.5 1766.5Q1726 1679 1788.5 1572.0Q1851 1465 1885.5 1342.5Q1920 1220 1920 1088Q1920 955 1885.5 832.5Q1851 710 1788.5 603.5Q1726 497 1638.5 409.5Q1551 322 1444.5 259.5Q1338 197 1215.0 162.5Q1092 128 960 128Q827 128 704.0 162.0Q581 196 474.5 258.5Q368 321 280.5 408.5Q193 496 130.5 602.5Q68 709 34.0 832.0Q0 955 0 1088ZM1792 1088Q1792 1203 1762.5 1309.5Q1733 1416 1678.5 1508.5Q1624 1601 1548.5 1676.5Q1473 1752 1380.5 1806.5Q1288 1861 1181.5 1890.5Q1075 1920 960 1920Q845 1920 738.5 1890.5Q632 1861 539.5 1807.0Q447 1753 371.0 1677.0Q295 1601 241.0 1508.5Q187 1416 157.5 1309.5Q128 1203 128 1088Q128 973 157.5 866.5Q187 760 241.0 667.5Q295 575 371.0 499.0Q447 423 539.5 369.0Q632 315 738.5 285.5Q845 256 960 256Q1075 256 1181.5 285.5Q1288 315 1380.5 369.5Q1473 424 1548.5 499.5Q1624 575 1678.5 667.5Q1733 760 1762.5 866.5Q1792 973 1792 1088ZM1152 1344Q1152 1383 1137.0 1418.0Q1122 1453 1095.5 1479.5Q1069 1506 1034.0 1521.0Q999 1536 960 1536Q921 1536 886.0 1521.0Q851 1506 824.5 1479.5Q798 1453 783.0 1418.0Q768 1383 768 1344Q768 1318 749.0 1299.0Q730 1280 704 1280Q673 1280 656.5 1301.0Q640 1322 640 1351Q640 1416 666.0 1473.0Q692 1530 736.0 1572.5Q780 1615 838.0 1639.5Q896 1664 960 1664Q1024 1664 1082.0 1639.5Q1140 1615 1184.0 1572.5Q1228 1530 1254.0 1473.0Q1280 1416 1280 1351Q1280 1291 1260.0 1237.0Q1240 1183 1198 1140Q1182 1124 1166 1108L1102 1043Q1086 1027 1070 1011Q1054 995 1045.0 978.5Q1036 962 1031.5 945.0Q1027 928 1025.5 910.5Q1024 893 1024 874V832Q1024 806 1005.0 787.0Q986 768 960 768Q939 768 926.0 776.0Q913 784 906.5 797.5Q900 811 898.0 828.0Q896 845 896 862V896Q896 956 915.0 1001.0Q934 1046 962.5 1081.5Q991 1117 1024.0 1146.5Q1057 1176 1085.5 1205.5Q1114 1235 1133.0 1268.0Q1152 1301 1152 1344ZM864 576Q864 616 892.0 644.0Q920 672 960 672Q1000 672 1028.0 644.0Q1056 616 1056 576Q1056 536 1028.0 508.0Q1000 480 960 480Q920 480 892.0 508.0Q864 536 864 576Z"/>
  </g>
</svg>