<?xml version="1.0" encoding="utf-8"?>
<svg xmlns="http://www.w3.org/2000/svg" width="16" height="16" viewBox="0 0 2048 2048">
  <g transform="translate(0, 2048) scale(1, -1)">
    <path fill="#ffffff" d="M1792 1029V251Q1792 201 1771.5 155.5Q1751 110 1716.5 75.5Q1682 41 1636.5 20.5Q1591 0 1541 0H507Q457 0 411.5 20.5Q366 41 331.5 75.5Q297 110 276.5 155.5Q256 201 256 251V1029Q256 1078 276.0 1123.0Q296 1168 330.0 1203.0Q364 1238 409.0 1259.0Q454 1280 503 1280H512V1536Q512 1644 552.0 1736.5Q592 1829 661.0 1897.0Q730 1965 823.5 2004.0Q917 2043 1024 2043Q1100 2043 1172.0 2022.0Q1244 2001 1306.5 1961.5Q1369 1922 1417.5 1865.0Q1466 1808 1495 1737Q1500 1724 1500 1712Q1500 1684 1482.5 1666.0Q1465 1648 1437 1648Q1414 1648 1401.0 1659.0Q1388 1670 1377 1687Q1357 1719 1340.5 1749.5Q1324 1780 1296 1808Q1242 1863 1171.0 1890.0Q1100 1917 1024 1917Q944 1917 874.0 1887.5Q804 1858 752.0 1807.0Q700 1756 670.0 1686.5Q640 1617 640 1536V1280H1541Q1591 1280 1636.5 1259.5Q1682 1239 1716.5 1204.5Q1751 1170 1771.5 1124.5Q1792 1079 1792 1029ZM1664 1024Q1664 1050 1654.0 1073.5Q1644 1097 1626.5 1114.5Q1609 1132 1585.5 1142.0Q1562 1152 1536 1152H512Q485 1152 462.0 1142.0Q439 1132 421.5 1114.5Q404 1097 394.0 1074.0Q384 1051 384 1024V256Q384 229 394.0 205.5Q404 182 421.0 165.0Q438 148 461.5 138.0Q485 128 512 128H1536Q1563 128 1586.0 138.0Q1609 148 1626.5 165.5Q1644 183 1654.0 206.0Q1664 229 1664 256ZM1152 640Q1152 613 1142.0 590.0Q1132 567 1114.5 549.5Q1097 532 1074.0 522.0Q1051 512 1024 512Q997 512 973.5 522.0Q950 532 933.0 549.0Q916 566 906.0 589.5Q896 613 896 640Q896 667 906.0 690.0Q916 713 933.5 730.5Q951 748 974.0 758.0Q997 768 1024 768Q1050 768 1073.5 758.0Q1097 748 1114.5 730.5Q1132 713 1142.0 689.5Q1152 666 1152 640Z"/>
  </g>
</svg>