<?xml version="1.0" encoding="utf-8"?>
<svg id="" width="16" height="16" style="width:16px;height:16px;" version="1.1"
    xmlns="http://www.w3.org/2000/svg" viewBox="0 0 2048 2048" enable-background="new 0 0 2048 2048"
    xml:space="preserve"><path fill="#ffffff" d="M2048 1983.03 q0 25.99 -18.99 44.98 q-18.99 18.99 -44.98 18.99 q-26.99 0 -45.98 -18.99 l-642.68 -642.69 l-146.93 487.77 q-6 19.99 -22.49 32.98 q-16.49 12.99 -38.48 12.99 q-25.99 0 -44.98 -18.99 l-402.8 -402.8 l-549.73 549.73 l-89.96 0 l0 -90.96 l549.73 -548.73 l-402.8 -402.8 q-18.99 -18.99 -18.99 -45.98 q0 -19.99 11 -34.98 q11 -14.99 28.98 -22.99 l458.77 -183.91 l-607.7 -607.7 q-18.99 -18.99 -18.99 -44.98 q0 -26.99 19.49 -45.48 q19.49 -18.49 45.48 -18.49 q25.99 0 44.98 18.99 l1919.06 1919.06 q18.99 18.99 18.99 44.98 ZM924.55 652.68 l-95.95 -95.95 l187.9 -414.8 q22.99 -51.97 70.47 -82.46 q47.48 -30.48 104.45 -30.48 q37.98 0 73.46 14.49 q35.48 14.49 62.46 41.48 l629.69 630.69 q26.99 26.99 41.49 62.97 q14.49 35.98 14.49 73.96 q0 56.98 -32.49 105.45 q-32.48 48.48 -85.46 70.47 l-419.79 174.91 l-97.95 -97.95 l468.77 -195.9 q17.99 -8 28.49 -23.49 q10.49 -15.5 10.49 -35.49 q0 -26.98 -17.99 -44.97 l-630.69 -629.7 q-8 -7.99 -20.99 -13.49 q-13 -5.5 -23.99 -5.5 q-18.99 0 -34.49 10.5 q-15.49 10.5 -23.48 27.49 l-208.9 457.78 ZM305.85 982.52 l750.63 751.63 l135.94 -451.78 l-467.77 -467.77 l-418.8 167.92 Z"/></svg>