<?xml version="1.0" encoding="utf-8"?>
<svg xmlns="http://www.w3.org/2000/svg" width="16" height="16" viewBox="0 0 2048 2048">
  <g transform="translate(0, 2048) scale(1, -1)">
    <path fill="#ffffff" d="M313 128Q250 128 193.0 153.5Q136 179 93.5 221.5Q51 264 25.5 321.0Q0 378 0 441V1607Q0 1670 25.5 1727.0Q51 1784 93.5 1826.5Q136 1869 193.0 1894.5Q250 1920 313 1920H704Q773 1920 823.0 1898.5Q873 1877 912.5 1841.0Q952 1805 986.0 1759.0Q1020 1713 1056 1664H1735Q1798 1664 1855.0 1638.5Q1912 1613 1954.5 1570.5Q1997 1528 2022.5 1471.0Q2048 1414 2048 1351V1034Q2020 1069 1988.0 1101.0Q1956 1133 1920 1160V1344Q1920 1383 1905.0 1418.0Q1890 1453 1863.5 1479.5Q1837 1506 1802.0 1521.0Q1767 1536 1728 1536H1043Q1008 1513 975.0 1490.0Q942 1467 907.5 1449.0Q873 1431 835.5 1419.5Q798 1408 754 1408H128V448Q128 409 143.0 374.0Q158 339 184.5 312.5Q211 286 246.0 271.0Q281 256 320 256H809Q826 222 845.5 190.0Q865 158 888 128ZM754 1536Q781 1536 804.0 1543.0Q827 1550 849.0 1561.5Q871 1573 891.0 1587.0Q911 1601 932 1616Q909 1647 887.0 1678.5Q865 1710 839.0 1735.0Q813 1760 780.5 1776.0Q748 1792 704 1792H320Q281 1792 246.0 1777.0Q211 1762 184.5 1735.5Q158 1709 143.0 1674.0Q128 1639 128 1600V1536ZM896 576Q896 694 942.0 798.5Q988 903 1066.5 981.5Q1145 1060 1249.5 1106.0Q1354 1152 1472 1152Q1551 1152 1624.5 1131.5Q1698 1111 1762.0 1073.5Q1826 1036 1879.0 983.0Q1932 930 1969.5 866.0Q2007 802 2027.5 728.5Q2048 655 2048 576Q2048 457 2002.5 352.0Q1957 247 1879.0 169.0Q1801 91 1696.0 45.5Q1591 0 1472 0Q1352 0 1247.0 45.0Q1142 90 1064.0 168.0Q986 246 941.0 351.0Q896 456 896 576ZM1280 275Q1328 250 1373.0 237.0Q1418 224 1472 224Q1526 224 1578.0 238.5Q1630 253 1675 282L1747 211Q1766 192 1792 192Q1818 192 1837.0 211.0Q1856 230 1856 256Q1856 282 1837 301L1762 376Q1762 407 1744.5 426.5Q1727 446 1697 446H1693L1363 776Q1384 790 1414.5 795.0Q1445 800 1470 800Q1505 800 1535.0 792.5Q1565 785 1596 768H1570Q1552 768 1534.5 766.5Q1517 765 1503.0 758.5Q1489 752 1480.5 739.0Q1472 726 1472 704Q1472 678 1491.0 659.0Q1510 640 1536 640H1728Q1754 640 1773.0 659.0Q1792 678 1792 704V896Q1792 922 1773.0 941.0Q1754 960 1728 960Q1709 960 1697.0 953.0Q1685 946 1677.5 934.5Q1670 923 1667.0 908.0Q1664 893 1664 877Q1616 902 1571.0 915.0Q1526 928 1472 928Q1418 928 1366.0 913.5Q1314 899 1269 870L1197 941Q1187 950 1176.5 955.0Q1166 960 1152 960Q1126 960 1107.0 941.0Q1088 922 1088 896Q1088 870 1107 851L1182 776Q1182 745 1199.0 725.5Q1216 706 1247 706H1251L1581 376Q1555 365 1528.5 358.5Q1502 352 1474 352Q1439 352 1409.0 359.5Q1379 367 1348 384H1374Q1391 384 1408.5 385.5Q1426 387 1440.0 393.5Q1454 400 1463.0 413.0Q1472 426 1472 448Q1472 474 1453.0 493.0Q1434 512 1408 512H1216Q1190 512 1171.0 493.0Q1152 474 1152 448V256Q1152 230 1171.0 211.0Q1190 192 1216 192Q1235 192 1247.0 199.0Q1259 206 1266.5 217.5Q1274 229 1277.0 244.0Q1280 259 1280 275Z"/>
  </g>
</svg>