<?xml version="1.0" encoding="utf-8"?>
<svg id="" width="16" height="16" style="width:16px;height:16px;" version="1.1"
    xmlns="http://www.w3.org/2000/svg" viewBox="0 0 2048 2048" enable-background="new 0 0 2048 2048"
    xml:space="preserve"><path fill="#000000" d="M1984 960 q0 26 -19 45 q-19 19 -45 19 q-26 0 -45 -19 l-787 -786 l0 1765 q0 26 -19 45 q-19 19 -45 19 q-26 0 -45 -19 q-19 -19 -19 -45 l0 -1765 l-787 786 q-19 19 -45 19 q-26 0 -45 -19 q-19 -19 -19 -45 q0 -26 19 -45 l893 -893 q11 -11 21.5 -16.5 q10.5 -5.5 26.5 -5.5 q16 0 26.5 5.5 q10.5 5.5 21.5 16.5 l893 893 q19 19 19 45 Z"/></svg>