<?xml version="1.0" encoding="utf-8"?>
<svg xmlns="http://www.w3.org/2000/svg" width="16" height="16" viewBox="0 0 2048 2048">
  <g transform="translate(0, 2048) scale(1, -1)">
    <path fill="#ffffff" d="M704 256Q665 256 630.0 271.0Q595 286 568.5 312.5Q542 339 527.0 374.0Q512 409 512 448V768H377Q336 768 299.0 784.0Q262 800 234.5 827.5Q207 855 191.0 891.5Q175 928 175 969Q175 1041 221 1097L974 2024Q983 2035 996.5 2041.0Q1010 2047 1024 2047Q1038 2047 1051.5 2041.0Q1065 2035 1074 2024L1827 1097Q1873 1041 1873 969Q1873 927 1857.0 890.5Q1841 854 1813.5 827.0Q1786 800 1749.5 784.0Q1713 768 1671 768H1536V448Q1536 409 1521.0 374.0Q1506 339 1479.5 312.5Q1453 286 1418.0 271.0Q1383 256 1344 256ZM1344 384Q1370 384 1389.0 403.0Q1408 422 1408 448V832Q1408 858 1427.0 877.0Q1446 896 1472 896H1671Q1701 896 1723 918Q1745 940 1745 970Q1745 983 1740.5 994.5Q1736 1006 1728 1016L1024 1883L320 1016Q312 1006 307.5 994.5Q303 983 303 970Q303 940 325 918Q347 896 377 896H576Q602 896 621.0 877.0Q640 858 640 832V448Q640 422 659.0 403.0Q678 384 704 384ZM576 0Q550 0 531.0 19.0Q512 38 512 64Q512 90 531.0 109.0Q550 128 576 128H1472Q1498 128 1517.0 109.0Q1536 90 1536 64Q1536 38 1517.0 19.0Q1498 0 1472 0Z"/>
  </g>
</svg>