<?xml version="1.0" encoding="utf-8"?>
<svg xmlns="http://www.w3.org/2000/svg" width="16" height="16" viewBox="0 0 2048 2048">
  <g transform="translate(0, 2048) scale(1, -1)">
    <path fill="#ffffff" d="M2048 1024Q2048 882 2011.5 751.0Q1975 620 1908.5 506.5Q1842 393 1748.5 299.5Q1655 206 1541.5 139.5Q1428 73 1297.0 36.5Q1166 0 1024 0Q882 0 751.0 36.5Q620 73 506.0 139.5Q392 206 299.0 299.0Q206 392 139.5 506.0Q73 620 36.5 751.0Q0 882 0 1024Q0 1050 19.0 1069.0Q38 1088 64 1088Q90 1088 109.0 1069.0Q128 1050 128 1024Q128 904 157.5 790.5Q187 677 248 574Q309 470 393.0 387.5Q477 305 577.0 247.0Q677 189 790.5 158.5Q904 128 1024 128Q1148 128 1262.5 160.0Q1377 192 1476.5 250.5Q1576 309 1657.5 390.5Q1739 472 1797.5 571.5Q1856 671 1888.0 785.5Q1920 900 1920 1024Q1920 1147 1888.0 1261.5Q1856 1376 1797.5 1475.5Q1739 1575 1657.0 1657.0Q1575 1739 1475.5 1797.5Q1376 1856 1261.5 1888.0Q1147 1920 1024 1920Q914 1920 809.0 1893.5Q704 1867 609.5 1817.5Q515 1768 433.5 1697.0Q352 1626 289 1536H704Q730 1536 749.0 1517.0Q768 1498 768 1472Q768 1446 749.0 1427.0Q730 1408 704 1408H192Q171 1408 158.0 1416.5Q145 1425 138.0 1438.5Q131 1452 129.0 1468.5Q127 1485 127 1502Q127 1563 127 1623L128 1863Q128 1924 128 1984Q128 2010 147.0 2029.0Q166 2048 192 2048Q218 2048 237.0 2029.0Q256 2010 256 1984V1701Q329 1783 417.0 1848.0Q505 1913 603.0 1957.0Q701 2001 807.0 2024.5Q913 2048 1024 2048Q1165 2048 1296.0 2011.5Q1427 1975 1541.0 1908.5Q1655 1842 1748.5 1748.5Q1842 1655 1908.5 1541.0Q1975 1427 2011.5 1296.0Q2048 1165 2048 1024Z"/>
  </g>
</svg>