<?xml version="1.0" encoding="utf-8"?>
<svg xmlns="http://www.w3.org/2000/svg" width="16" height="16" viewBox="0 0 2048 2048">
  <g transform="translate(0, 2048) scale(1, -1)">
    <path fill="#000000" d="M1664 2048Q1743 2048 1813.0 2018.0Q1883 1988 1935.5 1935.5Q1988 1883 2018.0 1813.0Q2048 1743 2048 1664Q2048 1584 2018.0 1514.5Q1988 1445 1935.5 1392.5Q1883 1340 1813.0 1310.0Q1743 1280 1664 1280Q1584 1280 1514.5 1310.0Q1445 1340 1392.5 1392.5Q1340 1445 1310.0 1514.5Q1280 1584 1280 1664Q1280 1743 1310.0 1813.0Q1340 1883 1392.5 1935.5Q1445 1988 1514.5 2018.0Q1584 2048 1664 2048Z"/>
  </g>
</svg>