<?xml version="1.0" encoding="utf-8"?>
<svg xmlns="http://www.w3.org/2000/svg" height="16" width="16" viewBox="0 0 16 16">
  <g>
    <path id="path1" transform="rotate(0,8,8) translate(0,0) scale(0.0333333333333333,0.0333333333333333)  " fill="#FFFFFF" d="M111,256L191,256 194.140625,256.296875 197.0625,257.1875 199.765625,258.671875 202.25,260.75 204.328125,263.234375 205.812484741211,265.9375 206.703109741211,268.859375 207,272 206.703109741211,275.140625 205.812484741211,278.0625 204.328125,280.765625 202.25,283.25 199.765625,285.328125 197.0625,286.8125 194.140625,287.703125 191,288 146.75,288 154.25,300.15625 163.25,311.125 168.265625,316.125 173.5625,320.75 179.140625,325 185,328.875 191.109375,332.34375 197.4375,335.375 203.984375,337.96875 210.75,340.125 217.671875,341.8203125 224.6875,343.03125 231.796875,343.7578125 239,344 246.66796875,343.734375 254.171875,342.9375 261.51171875,341.609375 268.6875,339.75 275.69921875,337.359375 282.546875,334.4375 289.23046875,330.984375 295.75,327 302.375,322.21875 308.25,317.375 313.5,312.34375 318.25,307 322.59375,301.3125 326.625,295.25 330.46875,288.6875 334.25,281.5 336.875,277.65625 340.25,274.625 344.3125,272.65625 349,272 352.34375,272.28125 355.375,273.125 358.09375,274.53125 360.5,276.5 362.46875,278.90625 363.875,281.625 364.71875,284.65625 365,288 364.6875,291.625 363.75,294.5 359.4375,303.53125 354.5,312.125 348.9375,320.28125 342.75,328 336.0390625,335.2265625 328.90625,341.90625 321.3515625,348.0390625 313.375,353.625 305.0234375,358.640625 296.34375,363.0625 287.3359375,366.890625 278,370.125 268.4375,372.6953125 258.75,374.53125 248.9375,375.6328125 239,376 230.5703125,375.75 222.281234741211,375 214.132797241211,373.75 206.125,372 198.28125,369.7734375 190.625,367.09375 183.15625,363.9609375 175.875,360.375 168.8125,356.3515625 162,351.90625 155.4375,347.0390625 149.125,341.75 137.40625,330.0625 127,317 127,352 126.703125,355.140625 125.8125,358.0625 124.328125,360.765625 122.25,363.25 119.765625,365.328125 117.0625,366.8125 114.140625,367.703125 111,368 107.859375,367.703125 104.9375,366.8125 102.234375,365.328125 99.75,363.25 97.671875,360.765625 96.1875,358.0625 95.296875,355.140625 95,352 95,272 95.296875,268.859375 96.1875,265.9375 97.671875,263.234375 99.75,260.75 102.234375,258.671875 104.9375,257.1875 107.859375,256.296875 111,256z M239,104L247.328125,104.250015258789 255.562484741211,105.000030517578 263.703125,106.250022888184 271.75,108 279.6484375,110.226577758789 287.34375,112.906265258789 294.8359375,116.039077758789 302.125,119.625 309.1875,123.648460388184 316,128.093780517578 322.5625,132.960952758789 328.875,138.25 340.59375,149.9375 351,163 351,128 351.296875,124.859390258789 352.1875,121.937515258789 353.671875,119.234390258789 355.75,116.75 358.234375,114.671882629395 360.9375,113.1875 363.859375,112.296875 367,112 370.140625,112.296875 373.0625,113.1875 375.765625,114.671882629395 378.25,116.75 380.328125,119.234390258789 381.8125,121.937515258789 382.703125,124.859390258789 383,128 383,208 382.703125,211.140625 381.8125,214.0625 380.328125,216.765625 378.25,219.25 375.765625,221.328140258789 373.0625,222.8125 370.140625,223.703125 367,224 287,224 283.859375,223.703125 280.9375,222.8125 278.234375,221.328140258789 275.75,219.25 273.671875,216.765625 272.1875,214.0625 271.296875,211.140625 271,208 271.296875,204.859390258789 272.1875,201.937515258789 273.671875,199.234390258789 275.75,196.75 278.234375,194.671875 280.9375,193.1875 283.859375,192.296875 287,192 331.25,192 323.75,179.84375 314.75,168.875 304.4375,159.250015258789 293,151.125 286.890625,147.65625 280.5625,144.625 274.015625,142.03125 267.25,139.875 260.328125,138.179702758789 253.312484741211,136.96875 246.203125,136.2421875 239,136 231,136.28125 223.249984741211,137.125 215.749984741211,138.53125 208.5,140.5 201.507797241211,142.9765625 194.781234741211,145.90625 188.320297241211,149.2890625 182.125,153.125 176.2109375,157.398452758789 170.59375,162.093765258789 165.2734375,167.2109375 160.25,172.75 151.25,184.9375 143.75,198.5 141.046875,202.65625 137.6875,205.625 133.671875,207.40625 129,208 125.757804870605,207.7109375 122.781242370605,206.84375 120.0703125,205.3984375 117.625,203.375 115.6015625,200.929702758789 114.15625,198.21875 113.2890625,195.2421875 113,192 113.3125,188.375015258789 114.25,185.5 118.5625,176.5703125 123.5,168.03125 129.0625,159.8828125 135.25,152.125 141.9609375,144.843765258789 149.09375,138.125015258789 156.6484375,131.96875 164.625,126.375 172.9765625,121.359390258789 181.65625,116.937515258789 190.6640625,113.109390258789 200,109.875 209.5625,107.304710388184 219.25,105.468780517578 229.0625,104.367202758789 239,104z M240,31.9999980926514L225.7578125,32.4609565734863 211.78125,33.8437767028809 198.0703125,36.1484603881836 184.625,39.375 171.53125,43.4531364440918 158.875,48.3125152587891 146.65625,53.9531364440918 134.875,60.375 123.578125,67.5156478881836 112.8125,75.3125228881836 102.578125,83.7656402587891 92.875,92.875 83.765625,102.578132629395 75.3125,112.812507629395 67.515625,123.578132629395 60.375,134.875 53.953125,146.656265258789 48.3125,158.875 43.453125,171.53125 39.375,184.625 36.1484375,198.0703125 33.84375,211.78125 32.4609375,225.7578125 31.9999980926514,240 32.4609375,254.242202758789 33.84375,268.21875 36.1484375,281.9296875 39.375,295.375 43.4453125,308.46875 48.28125,321.125 53.8828125,333.34375 60.2500038146973,345.125 67.34375,356.4296875 75.125,367.21875 83.59375,377.4921875 92.75,387.25 102.507804870605,396.40625 112.781242370605,404.875 123.5703125,412.65625 134.875,419.75 146.65625,426.1171875 158.875,431.71875 171.53125,436.5546875 184.625,440.625 198.0703125,443.8515625 211.78125,446.15625 225.7578125,447.5390625 240,448 254.2421875,447.5390625 268.21875,446.15625 281.9296875,443.8515625 295.375,440.625 308.46875,436.546875 321.125,431.6875 333.34375,426.046875 345.125,419.625 356.421875,412.484375 367.1875,404.6875 377.421875,396.234375 387.125,387.125 396.234375,377.421875 404.6875,367.1875 412.484375,356.421875 419.625,345.125 426.046875,333.34375 431.6875,321.125 436.546875,308.46875 440.625,295.375 443.8515625,281.9296875 446.15625,268.21875 447.5390625,254.242202758789 448,240 447.5390625,225.7578125 446.15625,211.78125 443.8515625,198.0703125 440.625,184.625 436.546875,171.53125 431.6875,158.875 426.046875,146.656265258789 419.625,134.875 412.484375,123.578132629395 404.6875,112.812507629395 396.234375,102.578132629395 387.125,92.875 377.421875,83.7656402587891 367.1875,75.3125228881836 356.421875,67.5156478881836 345.125,60.375 333.34375,53.9531364440918 321.125,48.3125152587891 308.46875,43.4531364440918 295.375,39.375 281.9296875,36.1484603881836 268.21875,33.8437767028809 254.2421875,32.4609565734863 240,31.9999980926514z M240,0L256.3515625,0.539062440395355 272.40625,2.15624952316284 288.1640625,4.85156106948853 303.625,8.62499713897705 318.6953125,13.375 333.28125,19.0000038146973 347.3828125,25.5000038146973 361,32.875 374.0703125,41.0781364440918 386.531219482422,50.0625152587891 398.382781982422,59.8281364440918 409.625,70.375 420.171875,81.6171951293945 429.9375,93.4687652587891 438.921875,105.929695129395 447.125,119 454.499969482422,132.6171875 460.999969482422,146.71875 466.624969482422,161.3046875 471.375,176.375 475.148406982422,191.835952758789 477.843719482422,207.59375 479.460906982422,223.6484375 480,240 479.460906982422,256.4609375 477.843719482422,272.59375 475.148406982422,288.3984375 471.375,303.875 466.624969482422,318.9375 460.999969482422,333.5 454.499969482422,347.5625 447.125,361.125 438.921875,374.140625 429.9375,386.5625 420.171875,398.390625 409.625,409.625 398.390594482422,420.171875 386.562469482422,429.9375 374.140594482422,438.921875 361.125,447.125 347.5546875,454.5 333.46875,461 318.8671875,466.625 303.75,471.375 288.234375,475.1484375 272.4375,477.84375 256.359375,479.4609375 240,480 223.53125,479.46875 207.375,477.875 191.53125,475.21875 176,471.5 160.8828125,466.8046875 146.28125,461.21875 132.1953125,454.7421875 118.625,447.375 105.609375,439.171875 93.1875,430.1875 81.359375,420.421875 70.125,409.875 59.578125,398.640625 49.8125,386.8125 40.828125,374.390625 32.6250038146973,361.375 25.2578144073486,347.8046875 18.78125,333.71875 13.1953115463257,319.1171875 8.49999904632568,304 4.78124952316284,288.46875 2.125,272.625 0.53125,256.46875 0,240 0.53125,223.5390625 2.125,207.406265258789 4.78124952316284,191.601577758789 8.49999904632568,176.125 13.1953115463257,161.0546875 18.78125,146.46875 25.2578144073486,132.3671875 32.6250038146973,118.75 40.828125,105.679702758789 49.8125,93.2187728881836 59.578125,81.3672103881836 70.125,70.125 81.3671875,59.5781364440918 93.21875,49.8125152587891 105.6796875,40.8281364440918 118.75,32.6250038146973 132.3671875,25.257833480835 146.46875,18.7812728881836 161.0546875,13.1953268051147 176.125,8.49999904632568 191.6015625,4.78125381469727 207.40625,2.12500381469727 223.5390625,0.531251430511475 240,0z" />
  </g>
</svg>

