<?xml version="1.0" encoding="utf-8"?>
<svg xmlns="http://www.w3.org/2000/svg" width="16" height="16" viewBox="0 0 2048 2048">
  <g transform="translate(0, 2048) scale(1, -1)">
    <path fill="#000000" d="M1600 2048Q1626 2048 1645.0 2029.0Q1664 2010 1664 1984Q1664 1958 1645.0 1939.0Q1626 1920 1600 1920H320Q294 1920 275.0 1939.0Q256 1958 256 1984Q256 2010 275.0 2029.0Q294 2048 320 2048ZM1600 1152Q1600 1126 1581.0 1107.0Q1562 1088 1536 1088Q1522 1088 1511.5 1093.0Q1501 1098 1491 1107L1024 1573V64Q1024 38 1005.0 19.0Q986 0 960 0Q934 0 915.0 19.0Q896 38 896 64V1573L429 1107Q410 1088 384 1088Q358 1088 339.0 1107.0Q320 1126 320 1152Q320 1178 339 1197L912 1770Q923 1781 934.0 1786.5Q945 1792 960 1792Q975 1792 986.0 1786.5Q997 1781 1008 1770L1581 1197Q1600 1178 1600 1152Z"/>
  </g>
</svg>