<?xml version="1.0" encoding="utf-8"?>
<svg xmlns="http://www.w3.org/2000/svg" width="16" height="16" viewBox="0 0 2048 2048">
  <g transform="translate(0, 2048) scale(1, -1)">
    <path fill="#000000" d="M320 768Q266 768 229 805Q192 842 192 896V1024H155Q123 1024 95.0 1036.5Q67 1049 46.0 1070.0Q25 1091 12.5 1119.0Q0 1147 0 1179Q0 1208 12.0 1237.5Q24 1267 45 1288L403 1645Q422 1664 448 1664Q474 1664 493 1645L851 1288Q873 1266 884.5 1237.5Q896 1209 896 1179Q896 1147 884.0 1119.0Q872 1091 851.0 1070.0Q830 1049 802.0 1036.5Q774 1024 742 1024H704V896Q704 843 666 805Q629 768 576 768ZM1024 576Q1024 587 1028 598L1348 1494Q1355 1513 1371.5 1524.5Q1388 1536 1408 1536Q1428 1536 1444.5 1524.5Q1461 1513 1468 1494L1788 598Q1792 587 1792 576Q1792 549 1773.5 530.5Q1755 512 1728 512Q1708 512 1691.5 523.5Q1675 535 1668 554L1591 768H1225L1148 554Q1141 535 1124.5 523.5Q1108 512 1088 512Q1061 512 1042.5 530.5Q1024 549 1024 576ZM1984 512Q1958 512 1939.0 531.0Q1920 550 1920 576V1472Q1920 1498 1939.0 1517.0Q1958 1536 1984 1536H2304Q2349 1536 2392.0 1515.0Q2435 1494 2467 1465Q2513 1423 2536.5 1366.5Q2560 1310 2560 1248Q2560 1191 2543.0 1137.5Q2526 1084 2489 1039Q2518 1021 2543.0 994.0Q2568 967 2586.0 935.5Q2604 904 2614.0 869.5Q2624 835 2624 800Q2624 726 2600.0 672.0Q2576 618 2533.5 582.5Q2491 547 2432.0 529.5Q2373 512 2304 512ZM2816 1024Q2816 1089 2823.0 1152.0Q2830 1215 2847.0 1272.0Q2864 1329 2892.0 1377.5Q2920 1426 2963.0 1461.0Q3006 1496 3064.5 1516.0Q3123 1536 3200 1536Q3247 1536 3293.0 1526.5Q3339 1517 3379.5 1497.0Q3420 1477 3453.5 1446.5Q3487 1416 3511 1373Q3520 1358 3520 1341Q3520 1314 3501.5 1295.5Q3483 1277 3456 1277Q3436 1277 3423.5 1286.5Q3411 1296 3399.5 1311.0Q3388 1326 3374.5 1342.5Q3361 1359 3339.0 1374.0Q3317 1389 3283.5 1398.5Q3250 1408 3200 1408Q3114 1408 3063.5 1374.0Q3013 1340 2986.5 1285.0Q2960 1230 2952.0 1161.5Q2944 1093 2944 1024Q2944 955 2952.0 886.5Q2960 818 2986.5 763.0Q3013 708 3063.5 674.0Q3114 640 3200 640Q3250 640 3283.5 649.5Q3317 659 3339.0 674.0Q3361 689 3374.5 705.5Q3388 722 3399.5 737.0Q3411 752 3423.5 761.5Q3436 771 3456 771Q3483 771 3501.5 752.5Q3520 734 3520 707Q3520 690 3511 675Q3487 632 3453.5 601.5Q3420 571 3379.5 551.0Q3339 531 3293.0 521.5Q3247 512 3200 512Q3084 512 3009.5 555.5Q2935 599 2892.0 670.5Q2849 742 2832.5 834.0Q2816 926 2816 1024ZM320 896H576V1088Q576 1114 595.0 1133.0Q614 1152 640 1152H742Q753 1152 760.5 1160.0Q768 1168 768 1179Q768 1189 760 1197L448 1510L136 1197Q128 1189 128 1179Q128 1168 136.0 1160.0Q144 1152 155 1152H256Q282 1152 301.0 1133.0Q320 1114 320 1088ZM2304 1088Q2339 1088 2363.5 1101.5Q2388 1115 2403.0 1137.0Q2418 1159 2425.0 1188.0Q2432 1217 2432 1248Q2432 1283 2420.0 1315.0Q2408 1347 2381 1371Q2367 1383 2345.0 1395.5Q2323 1408 2304 1408H2048V1088ZM1408 1282 1270 896H1546ZM2304 640Q2346 640 2381.0 647.5Q2416 655 2441.5 673.0Q2467 691 2481.5 722.0Q2496 753 2496 800Q2496 825 2484.5 851.0Q2473 877 2459 896Q2431 933 2390.0 946.5Q2349 960 2304 960H2048V640ZM256 512Q230 512 211.0 531.0Q192 550 192 576Q192 602 211.0 621.0Q230 640 256 640H640Q666 640 685.0 621.0Q704 602 704 576Q704 550 685.0 531.0Q666 512 640 512Z"/>
  </g>
</svg>