<?xml version="1.0" encoding="utf-8"?>
<svg xmlns="http://www.w3.org/2000/svg" width="16" height="16" viewBox="0 0 2048 2048">
  <g transform="translate(0, 2048) scale(1, -1)">
    <path fill="#000000" d="M635 0Q585 0 539.5 20.5Q494 41 459.5 75.5Q425 110 404.5 155.5Q384 201 384 251V1285Q384 1334 404.0 1379.0Q424 1424 458.5 1459.0Q493 1494 537.5 1515.0Q582 1536 632 1536H640V1984Q640 2010 659.0 2029.0Q678 2048 704 2048H1344Q1370 2048 1389.0 2029.0Q1408 2010 1408 1984V1536H1413Q1463 1536 1508.5 1515.5Q1554 1495 1588.5 1460.5Q1623 1426 1643.5 1380.5Q1664 1335 1664 1285V251Q1664 201 1643.5 155.5Q1623 110 1588.5 75.5Q1554 41 1508.5 20.5Q1463 0 1413 0ZM768 1920V1536H1280V1920ZM1408 128Q1435 128 1458.0 138.0Q1481 148 1498.5 165.5Q1516 183 1526.0 206.0Q1536 229 1536 256V1280Q1536 1306 1526.0 1329.5Q1516 1353 1498.5 1370.5Q1481 1388 1457.5 1398.0Q1434 1408 1408 1408H640Q613 1408 590.0 1398.0Q567 1388 549.5 1370.5Q532 1353 522.0 1330.0Q512 1307 512 1280V256Q512 229 522.0 205.5Q532 182 549.0 165.0Q566 148 589.5 138.0Q613 128 640 128Z"/>
  </g>
</svg>