<?xml version="1.0" encoding="utf-8"?>
<svg xmlns="http://www.w3.org/2000/svg" width="16" height="16" viewBox="0 0 2048 2048">
  <g transform="translate(0, 2048) scale(1, -1)">
    <path fill="#000000" d="M635 0Q585 0 539.5 20.5Q494 41 459.5 75.5Q425 110 404.5 155.5Q384 201 384 251V1285Q384 1334 404.0 1379.0Q424 1424 458.5 1459.0Q493 1494 537.5 1515.0Q582 1536 632 1536H640V1984Q640 2010 659.0 2029.0Q678 2048 704 2048H1344Q1370 2048 1389.0 2029.0Q1408 2010 1408 1984V1536H1411Q1461 1536 1507.0 1516.0Q1553 1496 1587.5 1462.0Q1622 1428 1643.0 1382.5Q1664 1337 1664 1287Q1597 1304 1533 1310Q1522 1353 1487.5 1380.5Q1453 1408 1408 1408H640Q613 1408 590.0 1398.0Q567 1388 549.5 1370.5Q532 1353 522.0 1330.0Q512 1307 512 1280V256Q512 229 522.0 205.5Q532 182 549.0 165.0Q566 148 589.5 138.0Q613 128 640 128H888Q915 92 947.0 60.0Q979 28 1014 0ZM768 1920V1536H1280V1920ZM896 576Q896 695 941.5 800.0Q987 905 1065.0 983.0Q1143 1061 1248.0 1106.5Q1353 1152 1472 1152Q1551 1152 1624.5 1131.5Q1698 1111 1762.0 1073.5Q1826 1036 1879.0 983.0Q1932 930 1969.5 866.0Q2007 802 2027.5 728.5Q2048 655 2048 576Q2048 457 2002.5 352.0Q1957 247 1879.0 169.0Q1801 91 1696.0 45.5Q1591 0 1472 0Q1352 0 1247.0 45.0Q1142 90 1064.0 168.0Q986 246 941.0 351.0Q896 456 896 576ZM1344 248Q1374 248 1395 269L1843 717Q1864 738 1864 768Q1864 798 1843.0 819.0Q1822 840 1792 840Q1762 840 1741 819L1344 422L1203 563Q1182 584 1152 584Q1122 584 1101.0 563.0Q1080 542 1080 512Q1080 482 1101 461L1293 269Q1314 248 1344 248Z"/>
  </g>
</svg>