<?xml version="1.0" encoding="utf-8"?>
<svg xmlns="http://www.w3.org/2000/svg" width="16" height="16" viewBox="0 0 2048 2048">
  <g transform="translate(0, 2048) scale(1, -1)">
    <path fill="#000000" d="M384 1546Q384 1650 425.5 1741.5Q467 1833 537.5 1901.0Q608 1969 700.5 2008.5Q793 2048 896 2048Q999 2048 1091.5 2008.5Q1184 1969 1254.5 1901.0Q1325 1833 1366.5 1741.5Q1408 1650 1408 1546Q1408 1480 1395.0 1420.5Q1382 1361 1351 1302Q1215 1279 1098 1210Q1186 1266 1233.0 1353.0Q1280 1440 1280 1544Q1280 1622 1249.0 1690.5Q1218 1759 1165.0 1810.0Q1112 1861 1042.5 1890.5Q973 1920 896 1920Q816 1920 746.0 1890.0Q676 1860 624.0 1808.0Q572 1756 542.0 1686.0Q512 1616 512 1536Q512 1459 541.5 1389.5Q571 1320 622.0 1267.0Q673 1214 741.5 1183.0Q810 1152 888 1152Q943 1152 992.0 1164.0Q1041 1176 1089 1204Q972 1133 889 1024H887Q787 1024 696.0 1064.5Q605 1105 535.5 1174.0Q466 1243 425.0 1334.0Q384 1425 384 1526ZM896 576Q896 695 941.5 800.0Q987 905 1065.0 983.0Q1143 1061 1248.0 1106.5Q1353 1152 1472 1152Q1551 1152 1624.5 1131.5Q1698 1111 1762.0 1073.5Q1826 1036 1879.0 983.0Q1932 930 1969.5 866.0Q2007 802 2027.5 728.5Q2048 655 2048 576Q2048 457 2002.5 352.0Q1957 247 1879.0 169.0Q1801 91 1696.0 45.5Q1591 0 1472 0Q1352 0 1247.0 45.0Q1142 90 1064.0 168.0Q986 246 941.0 351.0Q896 456 896 576ZM0 645Q0 695 20.5 740.5Q41 786 75.5 820.5Q110 855 155.5 875.5Q201 896 251 896H809Q795 865 782.5 833.0Q770 801 761 768H256Q229 768 206.0 758.0Q183 748 165.5 730.5Q148 713 138.0 690.0Q128 667 128 640Q128 539 161.5 462.0Q195 385 252.5 328.0Q310 271 385.5 232.5Q461 194 545.5 171.0Q630 148 718.0 138.0Q806 128 888 128Q915 93 945.0 62.0Q975 31 1010 4Q981 2 953.0 1.0Q925 0 896 0Q832 0 765.5 4.0Q699 8 633.5 18.5Q568 29 504.5 46.5Q441 64 382 91Q294 131 223.5 185.5Q153 240 103.5 309.0Q54 378 27.0 462.0Q0 546 0 645ZM1472 486 1651 307Q1670 288 1696 288Q1722 288 1741.0 307.0Q1760 326 1760 352Q1760 378 1741 397L1563 576L1741 755Q1760 774 1760 800Q1760 826 1741.0 845.0Q1722 864 1696 864Q1670 864 1651 845L1472 667L1293 845Q1274 864 1248 864Q1222 864 1203.0 845.0Q1184 826 1184 800Q1184 774 1203 755L1382 576L1203 397Q1184 378 1184 352Q1184 326 1203.0 307.0Q1222 288 1248 288Q1274 288 1293 307Z"/>
  </g>
</svg>