<?xml version="1.0" encoding="utf-8"?>
<svg xmlns="http://www.w3.org/2000/svg" width="16" height="16" viewBox="0 0 2048 2048">
  <g transform="translate(0, 2048) scale(1, -1)">
    <path fill="#000000" d="M0 1280Q0 1383 19.5 1482.0Q39 1581 79 1676Q97 1718 121.0 1763.0Q145 1808 173.5 1851.5Q202 1895 234.0 1934.5Q266 1974 301 2005Q311 2014 320.0 2018.5Q329 2023 343 2023Q370 2023 388.0 2003.0Q406 1983 406 1957Q406 1941 401.0 1930.5Q396 1920 386 1909Q363 1883 341.0 1859.0Q319 1835 299 1807Q215 1692 171.5 1557.5Q128 1423 128 1280Q128 1188 146.0 1098.5Q164 1009 201 924Q258 791 355 684Q364 674 374 664L386 652Q396 643 405 632Q416 620 421.5 609.0Q427 598 427 581Q427 554 408.0 536.0Q389 518 363 518Q341 518 323 533Q288 561 253.5 602.0Q219 643 187.5 688.5Q156 734 129.5 781.0Q103 828 85 869Q42 967 21.0 1070.0Q0 1173 0 1280ZM2015 1086Q2015 1164 1990.0 1243.0Q1965 1322 1914 1383Q1905 1463 1884.5 1533.0Q1864 1603 1832.5 1667.0Q1801 1731 1758.0 1790.5Q1715 1850 1662 1909Q1652 1920 1647.0 1931.0Q1642 1942 1642 1957Q1642 1983 1660.0 2003.0Q1678 2023 1705 2023Q1719 2023 1728.0 2018.5Q1737 2014 1747 2005Q1781 1975 1813.0 1935.5Q1845 1896 1873.5 1852.0Q1902 1808 1926.0 1762.5Q1950 1717 1968 1676Q2008 1582 2028.0 1482.5Q2048 1383 2048 1280Q2048 1125 2003 978Q2008 1005 2011.5 1031.5Q2015 1058 2015 1086ZM320 1280Q320 1347 334.0 1416.5Q348 1486 374.5 1551.5Q401 1617 440.0 1676.0Q479 1735 529 1780Q538 1788 547.0 1792.5Q556 1797 569 1797Q595 1797 613.5 1777.5Q632 1758 632 1732Q632 1716 626.5 1704.5Q621 1693 611 1681Q572 1635 541.5 1590.0Q511 1545 490.0 1496.5Q469 1448 458.5 1395.0Q448 1342 448 1280Q448 1184 479.0 1093.5Q510 1003 569 928Q583 910 598.0 894.0Q613 878 629 861Q640 849 646.0 836.5Q652 824 652 807Q652 781 634.0 762.0Q616 743 590 743Q570 743 552 758Q497 804 454.0 865.0Q411 926 381.0 994.5Q351 1063 335.5 1136.0Q320 1209 320 1280ZM1523 1568Q1505 1600 1483.0 1627.0Q1461 1654 1437 1681Q1427 1692 1421.5 1704.5Q1416 1717 1416 1732Q1416 1758 1434.5 1777.5Q1453 1797 1479 1797Q1496 1797 1515.5 1782.5Q1535 1768 1554.5 1745.0Q1574 1722 1593.5 1693.5Q1613 1665 1629.0 1637.0Q1645 1609 1657.5 1585.0Q1670 1561 1676 1547Q1638 1558 1600.0 1563.0Q1562 1568 1523 1568ZM864 1280Q864 1313 877.0 1342.0Q890 1371 911.5 1392.5Q933 1414 962.0 1427.0Q991 1440 1024 1440Q1062 1440 1096.0 1423.0Q1130 1406 1152 1376Q1110 1324 1086.0 1256.5Q1062 1189 1057 1123Q1040 1120 1024 1120Q991 1120 962.0 1133.0Q933 1146 911.5 1167.5Q890 1189 877.0 1218.0Q864 1247 864 1280ZM1216 1088V1095Q1216 1160 1242.0 1217.0Q1268 1274 1312.0 1316.5Q1356 1359 1414.0 1383.5Q1472 1408 1536 1408Q1603 1408 1661.0 1383.0Q1719 1358 1762.5 1314.5Q1806 1271 1831.0 1213.0Q1856 1155 1856 1088Q1856 1021 1831.0 963.0Q1806 905 1762.5 861.5Q1719 818 1661.0 793.0Q1603 768 1536 768Q1469 768 1411.0 793.0Q1353 818 1309.5 861.5Q1266 905 1241.0 963.0Q1216 1021 1216 1088ZM1232 640H1840Q1883 640 1921.0 623.5Q1959 607 1987.0 579.0Q2015 551 2031.5 513.0Q2048 475 2048 432V384Q2048 322 2026.0 269.5Q2004 217 1966.0 174.5Q1928 132 1878.5 99.0Q1829 66 1773.0 44.0Q1717 22 1659.0 11.0Q1601 0 1547 0H1525Q1473 0 1415.5 11.0Q1358 22 1302.5 43.5Q1247 65 1196.5 97.0Q1146 129 1107.5 171.0Q1069 213 1046.5 264.5Q1024 316 1024 376V432Q1024 475 1040.0 513.0Q1056 551 1084.5 579.5Q1113 608 1150.5 624.0Q1188 640 1232 640Z"/>
  </g>
</svg>