<?xml version="1.0" encoding="utf-8"?>
<svg xmlns="http://www.w3.org/2000/svg" width="16" height="16" viewBox="0 0 2048 2048">
  <g transform="translate(0, 2048) scale(1, -1)">
    <path fill="#000000" d="M1351 1792Q1414 1792 1471.0 1766.5Q1528 1741 1570.5 1698.5Q1613 1656 1638.5 1599.0Q1664 1542 1664 1479V313Q1664 250 1638.5 193.0Q1613 136 1570.5 93.5Q1528 51 1471.0 25.5Q1414 0 1351 0H697Q634 0 577.0 25.5Q520 51 477.5 93.5Q435 136 409.5 193.0Q384 250 384 313V1479Q384 1543 409.5 1599.5Q435 1656 477.5 1698.5Q520 1741 577.0 1766.0Q634 1791 697 1792H832V1920Q832 1973 869 2010Q907 2048 960 2048H1088Q1114 2048 1137.0 2038.0Q1160 2028 1178 2010Q1196 1992 1206.0 1969.0Q1216 1946 1216 1920V1792ZM1536 1472Q1536 1511 1521.0 1546.0Q1506 1581 1479.5 1607.5Q1453 1634 1418.0 1649.0Q1383 1664 1344 1664H704Q665 1664 630.0 1649.0Q595 1634 568.5 1607.5Q542 1581 527.0 1546.0Q512 1511 512 1472V320Q512 281 527.0 246.0Q542 211 568.5 184.5Q595 158 630.0 143.0Q665 128 704 128H1344Q1383 128 1418.0 143.0Q1453 158 1479.5 184.5Q1506 211 1521.0 246.0Q1536 281 1536 320ZM1312 768Q1352 768 1380.0 740.0Q1408 712 1408 672V352Q1408 312 1380.0 284.0Q1352 256 1312 256H736Q696 256 668.0 284.0Q640 312 640 352V672Q640 712 668.0 740.0Q696 768 736 768Z"/>
  </g>
</svg>