<?xml version="1.0" encoding="utf-8"?>
<svg xmlns="http://www.w3.org/2000/svg" width="16" height="16" viewBox="0 0 2048 2048">
  <g transform="translate(0, 2048) scale(1, -1)">
    <path fill="#000000" d="M697 0Q634 0 577.0 25.5Q520 51 477.5 93.5Q435 136 409.5 193.0Q384 250 384 313V877Q407 872 428 872Q473 872 512 890V320Q512 281 527.0 246.0Q542 211 568.5 184.5Q595 158 630.0 143.0Q665 128 704 128H1344Q1383 128 1418.0 143.0Q1453 158 1479.5 184.5Q1506 211 1521.0 246.0Q1536 281 1536 320V1472Q1536 1511 1521.0 1546.0Q1506 1581 1479.5 1607.5Q1453 1634 1418.0 1649.0Q1383 1664 1344 1664H906Q899 1703 877.5 1736.5Q856 1770 823 1792H832V1920Q832 1973 869 2010Q907 2048 960 2048H1088Q1114 2048 1137.0 2038.0Q1160 2028 1178 2010Q1196 1992 1206.0 1969.0Q1216 1946 1216 1920V1792H1351Q1414 1792 1471.0 1766.5Q1528 1741 1570.5 1698.5Q1613 1656 1638.5 1599.0Q1664 1542 1664 1479V313Q1664 250 1638.5 193.0Q1613 136 1570.5 93.5Q1528 51 1471.0 25.5Q1414 0 1351 0ZM427 1032Q409 1032 396.5 1044.5Q384 1057 384 1075V1408H180Q166 1408 157.0 1417.0Q148 1426 148 1440Q148 1444 159.0 1468.5Q170 1493 188.5 1531.0Q207 1569 231.0 1617.0Q255 1665 280.0 1715.5Q305 1766 330.0 1815.5Q355 1865 376.0 1906.0Q397 1947 412.0 1976.5Q427 2006 432 2016Q437 2027 447.0 2033.5Q457 2040 469 2040Q487 2040 499.5 2027.5Q512 2015 512 1997V1664H716Q730 1664 739.0 1655.0Q748 1646 748 1632Q748 1624 745 1618L464 1056Q459 1045 449.0 1038.5Q439 1032 427 1032ZM704 256Q678 256 659.0 275.0Q640 294 640 320Q640 346 659.0 365.0Q678 384 704 384H1344Q1370 384 1389.0 365.0Q1408 346 1408 320Q1408 294 1389.0 275.0Q1370 256 1344 256Z"/>
  </g>
</svg>