<?xml version="1.0" encoding="utf-8"?>
<svg xmlns="http://www.w3.org/2000/svg" width="16" height="16" viewBox="0 0 2048 2048">
  <g transform="translate(0, 2048) scale(1, -1)">
    <path fill="#ffffff" d="M635 0Q585 0 539.5 20.5Q494 41 459.5 75.5Q425 110 404.5 155.5Q384 201 384 251V1797Q384 1847 404.5 1892.5Q425 1938 459.5 1972.5Q494 2007 539.5 2027.5Q585 2048 635 2048H1413Q1463 2048 1508.5 2027.5Q1554 2007 1588.5 1972.5Q1623 1938 1643.5 1892.5Q1664 1847 1664 1797V251Q1664 201 1643.5 155.5Q1623 110 1588.5 75.5Q1554 41 1508.5 20.5Q1463 0 1413 0ZM1408 128Q1435 128 1458.0 138.0Q1481 148 1498.5 165.5Q1516 183 1526.0 206.0Q1536 229 1536 256V1792Q1536 1818 1526.0 1841.5Q1516 1865 1498.5 1882.5Q1481 1900 1457.5 1910.0Q1434 1920 1408 1920H640Q613 1920 590.0 1910.0Q567 1900 549.5 1882.5Q532 1865 522.0 1842.0Q512 1819 512 1792V256Q512 229 522.0 205.5Q532 182 549.0 165.0Q566 148 589.5 138.0Q613 128 640 128ZM18 887Q18 932 32.5 969.0Q47 1006 64.0 1038.5Q81 1071 95.5 1101.0Q110 1131 110 1161Q110 1185 101 1208L5 1448Q0 1461 0 1473Q0 1500 19.5 1518.0Q39 1536 65 1536Q85 1536 100.0 1525.0Q115 1514 123 1496L219 1256Q238 1211 238 1161Q238 1116 223.5 1079.5Q209 1043 192.0 1010.5Q175 978 160.5 948.0Q146 918 146 886Q146 862 155 840L251 600Q256 587 256 575Q256 549 237.0 530.5Q218 512 192 512Q172 512 156.0 523.0Q140 534 133 552L37 792Q18 837 18 887ZM1811 888Q1811 933 1825.0 970.0Q1839 1007 1856.5 1039.5Q1874 1072 1888.0 1101.5Q1902 1131 1902 1161Q1902 1185 1893 1208L1797 1448Q1792 1460 1792 1472Q1792 1500 1810.5 1518.0Q1829 1536 1857 1536Q1877 1536 1892.0 1525.0Q1907 1514 1915 1496L2011 1256Q2030 1211 2030 1161Q2030 1116 2015.5 1079.0Q2001 1042 1984.0 1009.5Q1967 977 1952.5 947.0Q1938 917 1938 887Q1938 862 1947 840L2043 600Q2048 587 2048 575Q2048 549 2029.0 530.5Q2010 512 1984 512Q1964 512 1948.0 523.0Q1932 534 1925 552L1829 792Q1811 837 1811 888ZM896 384Q870 384 851.0 403.0Q832 422 832 448Q832 474 851.0 493.0Q870 512 896 512H1152Q1178 512 1197.0 493.0Q1216 474 1216 448Q1216 422 1197.0 403.0Q1178 384 1152 384Z"/>
  </g>
</svg>