<?xml version="1.0" encoding="utf-8"?>
<svg xmlns="http://www.w3.org/2000/svg" width="16" height="16" viewBox="0 0 2048 2048">
  <g transform="translate(0, 2048) scale(1, -1)">
    <path fill="#000000" d="M1544 1792Q1619 1792 1687.5 1761.5Q1756 1731 1807.5 1679.5Q1859 1628 1889.5 1559.5Q1920 1491 1920 1416V704Q1920 678 1901.0 659.0Q1882 640 1856 640Q1830 640 1811.0 659.0Q1792 678 1792 704V1413Q1792 1463 1771.5 1508.5Q1751 1554 1716.5 1588.5Q1682 1623 1636.5 1643.5Q1591 1664 1541 1664H507Q457 1664 411.5 1643.5Q366 1623 331.5 1588.5Q297 1554 276.5 1508.5Q256 1463 256 1413V635Q256 583 277.0 537.5Q298 492 333.0 458.0Q368 424 414.5 404.0Q461 384 512 384H1079Q1105 384 1124.0 365.0Q1143 346 1143 320Q1143 294 1124.0 275.0Q1105 256 1079 256H504Q429 256 360.5 286.5Q292 317 240.5 368.5Q189 420 158.5 488.5Q128 557 128 632V1416Q128 1491 158.5 1559.5Q189 1628 240.5 1679.5Q292 1731 360.5 1761.5Q429 1792 504 1792ZM1270 770Q1260 741 1242.0 717.0Q1224 693 1200.0 676.0Q1176 659 1147.5 649.5Q1119 640 1088 640H704Q665 640 630.0 655.0Q595 670 568.5 696.5Q542 723 527.0 758.0Q512 793 512 832V1216Q512 1255 527.0 1290.0Q542 1325 568.5 1351.5Q595 1378 630.0 1393.0Q665 1408 704 1408H1088Q1119 1408 1147.5 1398.5Q1176 1389 1200.0 1372.0Q1224 1355 1242.0 1331.0Q1260 1307 1270 1278Q1286 1290 1301.5 1302.0Q1317 1314 1334.0 1324.5Q1351 1335 1369.0 1341.5Q1387 1348 1408 1348Q1435 1348 1458.0 1338.0Q1481 1328 1498.5 1310.5Q1516 1293 1526.0 1270.0Q1536 1247 1536 1220V828Q1536 802 1526.0 778.5Q1516 755 1498.5 737.5Q1481 720 1457.5 710.0Q1434 700 1408 700Q1387 700 1369.0 706.5Q1351 713 1334.0 723.5Q1317 734 1301.5 746.0Q1286 758 1270 770ZM1152 1216Q1152 1242 1133.0 1261.0Q1114 1280 1088 1280H704Q678 1280 659.0 1261.0Q640 1242 640 1216V832Q640 806 659.0 787.0Q678 768 704 768H1088Q1114 768 1133.0 787.0Q1152 806 1152 832ZM1408 1220 1280 1128V920L1408 828ZM1920 320Q1920 294 1901.0 275.0Q1882 256 1856 256H1664V64Q1664 38 1645.0 19.0Q1626 0 1600 0Q1574 0 1555.0 19.0Q1536 38 1536 64V256H1348Q1322 256 1303.0 275.0Q1284 294 1284 320Q1284 346 1303.0 365.0Q1322 384 1348 384H1536V576Q1536 602 1555.0 621.0Q1574 640 1600 640Q1626 640 1645.0 621.0Q1664 602 1664 576V384H1856Q1882 384 1901.0 365.0Q1920 346 1920 320Z"/>
  </g>
</svg>