<?xml version="1.0" encoding="utf-8"?>
<svg xmlns="http://www.w3.org/2000/svg" width="16" height="16" viewBox="0 0 2048 2048">
  <g transform="translate(0, 2048) scale(1, -1)">
    <path fill="#ffffff" d="M216 256Q171 256 132.0 273.5Q93 291 63.5 320.5Q34 350 17.0 389.5Q0 429 0 473V1575Q0 1619 17.0 1658.5Q34 1698 63.5 1727.5Q93 1757 132.0 1774.5Q171 1792 216 1792Q234 1792 252 1789Q445 1760 637.0 1744.0Q829 1728 1024 1728Q1219 1728 1411.0 1744.0Q1603 1760 1796 1789Q1814 1792 1832 1792Q1877 1792 1916.0 1774.5Q1955 1757 1984.5 1727.5Q2014 1698 2031.0 1658.5Q2048 1619 2048 1575V473Q2048 429 2031.0 389.5Q2014 350 1984.5 320.5Q1955 291 1916.0 273.5Q1877 256 1832 256Q1814 256 1796 259Q1603 288 1411.0 304.5Q1219 321 1024 321Q829 321 637.0 304.5Q445 288 252 259Q234 256 216 256ZM256 389V640Q256 667 266.0 690.0Q276 713 293.5 730.5Q311 748 334.0 758.0Q357 768 384 768H640V434L768 442V768Q768 795 778.0 818.0Q788 841 805.5 858.5Q823 876 846.0 886.0Q869 896 896 896H1152Q1178 896 1201.5 886.0Q1225 876 1242.5 858.5Q1260 841 1270.0 817.5Q1280 794 1280 768V442L1408 434V768H1664Q1690 768 1713.5 758.0Q1737 748 1754.5 730.5Q1772 713 1782.0 689.5Q1792 666 1792 640V389Q1802 387 1811.5 385.5Q1821 384 1831 384Q1868 384 1894.0 410.0Q1920 436 1920 473V1575Q1920 1612 1894.0 1638.0Q1868 1664 1831 1664Q1821 1664 1816 1663Q1618 1632 1421.5 1615.5Q1225 1599 1024 1599Q823 1599 626.5 1615.5Q430 1632 232 1663Q227 1664 217 1664Q180 1664 154.0 1638.0Q128 1612 128 1575V473Q128 436 154.0 410.0Q180 384 217 384Q227 384 236.5 385.5Q246 387 256 389ZM896 1152Q896 1179 906.0 1202.0Q916 1225 933.5 1242.5Q951 1260 974.0 1270.0Q997 1280 1024 1280Q1050 1280 1073.5 1270.0Q1097 1260 1114.5 1242.5Q1132 1225 1142.0 1201.5Q1152 1178 1152 1152Q1152 1125 1142.0 1102.0Q1132 1079 1114.5 1061.5Q1097 1044 1074.0 1034.0Q1051 1024 1024 1024Q997 1024 973.5 1034.0Q950 1044 933.0 1061.0Q916 1078 906.0 1101.5Q896 1125 896 1152ZM384 1024Q384 1051 394.0 1074.0Q404 1097 421.5 1114.5Q439 1132 462.0 1142.0Q485 1152 512 1152Q538 1152 561.5 1142.0Q585 1132 602.5 1114.5Q620 1097 630.0 1073.5Q640 1050 640 1024Q640 997 630.0 974.0Q620 951 602.5 933.5Q585 916 562.0 906.0Q539 896 512 896Q485 896 461.5 906.0Q438 916 421.0 933.0Q404 950 394.0 973.5Q384 997 384 1024ZM1408 1024Q1408 1051 1418.0 1074.0Q1428 1097 1445.5 1114.5Q1463 1132 1486.0 1142.0Q1509 1152 1536 1152Q1562 1152 1585.5 1142.0Q1609 1132 1626.5 1114.5Q1644 1097 1654.0 1073.5Q1664 1050 1664 1024Q1664 997 1654.0 974.0Q1644 951 1626.5 933.5Q1609 916 1586.0 906.0Q1563 896 1536 896Q1509 896 1485.5 906.0Q1462 916 1445.0 933.0Q1428 950 1418.0 973.5Q1408 997 1408 1024Z"/>
  </g>
</svg>