<?xml version="1.0" encoding="utf-8"?>
<svg xmlns="http://www.w3.org/2000/svg" width="16" height="16" viewBox="0 0 2048 2048">
  <g transform="translate(0, 2048) scale(1, -1)">
    <path fill="#ffffff" d="M555 114 79 2Q69 0 64 0Q37 0 18.5 18.5Q0 37 0 64Q0 70 3.0 85.5Q6 101 10.0 118.5Q14 136 18.0 151.0Q22 166 23 171Q40 242 58 312L83 405Q101 476 118 546Q59 657 29.5 778.0Q0 899 0 1024Q0 1166 36.5 1297.0Q73 1428 139.5 1541.5Q206 1655 299.5 1748.5Q393 1842 506.5 1908.5Q620 1975 751.0 2011.5Q882 2048 1024 2048Q1165 2048 1296.0 2011.5Q1427 1975 1541.0 1908.5Q1655 1842 1748.5 1748.5Q1842 1655 1908.5 1541.0Q1975 1427 2011.5 1296.0Q2048 1165 2048 1024Q2048 882 2011.5 751.0Q1975 620 1908.5 506.5Q1842 393 1748.5 299.5Q1655 206 1541.5 139.5Q1428 73 1297.0 36.5Q1166 0 1024 0Q902 0 783.0 28.5Q664 57 555 114ZM1920 1024Q1920 1147 1888.0 1261.5Q1856 1376 1797.5 1475.5Q1739 1575 1657.0 1657.0Q1575 1739 1475.5 1797.5Q1376 1856 1261.5 1888.0Q1147 1920 1024 1920Q900 1920 785.5 1888.0Q671 1856 571.5 1797.5Q472 1739 390.5 1657.5Q309 1576 250.5 1476.5Q192 1377 160.0 1262.5Q128 1148 128 1024Q128 962 136.0 906.5Q144 851 159.0 798.0Q174 745 195.0 693.0Q216 641 242 586Q246 578 248.5 570.0Q251 562 251 553Q251 547 247.5 529.5Q244 512 239.5 493.0Q235 474 230.5 456.5Q226 439 224 433Q207 361 188.5 291.0Q170 221 152 150Q166 153 199.5 161.5Q233 170 275.5 180.5Q318 191 365.0 202.5Q412 214 453.0 223.5Q494 233 524.0 239.0Q554 245 563 245Q580 245 594 238Q649 212 700.0 191.5Q751 171 802.0 157.0Q853 143 907.5 135.5Q962 128 1024 128Q1148 128 1262.5 160.0Q1377 192 1476.5 250.5Q1576 309 1657.5 390.5Q1739 472 1797.5 571.5Q1856 671 1888.0 785.5Q1920 900 1920 1024ZM640 687V1361Q640 1387 650.0 1410.0Q660 1433 677.5 1450.5Q695 1468 718.0 1478.5Q741 1489 767 1489Q803 1489 833 1471L1410 1135Q1439 1118 1456.0 1087.5Q1473 1057 1473 1024Q1473 991 1456.0 960.5Q1439 930 1410 913L833 577Q819 569 802.0 564.0Q785 559 768 559Q742 559 718.5 569.0Q695 579 677.5 596.5Q660 614 650.0 637.5Q640 661 640 687ZM768 1361V687L1345 1024Z"/>
  </g>
</svg>