<?xml version="1.0" encoding="utf-8"?>
<svg xmlns="http://www.w3.org/2000/svg" width="16" height="16" viewBox="0 0 2048 2048">
  <g transform="translate(0, 2048) scale(1, -1)">
    <path fill="#000000" d="M251 256Q201 256 155.5 276.5Q110 297 75.5 331.5Q41 366 20.5 411.5Q0 457 0 507V1541Q0 1591 20.5 1636.5Q41 1682 75.5 1716.5Q110 1751 155.5 1771.5Q201 1792 251 1792H1157Q1207 1792 1252.5 1771.5Q1298 1751 1332.5 1716.5Q1367 1682 1387.5 1636.5Q1408 1591 1408 1541V507Q1408 457 1387.5 411.5Q1367 366 1332.5 331.5Q1298 297 1252.5 276.5Q1207 256 1157 256ZM1536 704V1344L1843 1575Q1877 1600 1919 1600Q1945 1600 1968.5 1590.0Q1992 1580 2009.5 1562.5Q2027 1545 2037.5 1522.0Q2048 1499 2048 1472V576Q2048 550 2038.0 526.5Q2028 503 2010.5 485.5Q1993 468 1969.5 458.0Q1946 448 1920 448Q1877 448 1843 474Z"/>
  </g>
</svg>