<?xml version="1.0" encoding="utf-8"?>
<svg xmlns="http://www.w3.org/2000/svg" height="16" width="16" viewBox="0 0 16 16">
  <g>
    <path id="path1" transform="rotate(0,8,8) translate(-0.5,0) scale(0.0333333333333333,0.0333333333333333)  " fill="#FFFFFF" d="M400,352L403.140625,352.296875 406.0625,353.1875 408.765625,354.671875 411.25,356.75 413.328125,359.234375 414.8125,361.9375 415.703125,364.859375 416,368 416,400 415.703125,403.140625 414.8125,406.0625 413.328125,408.765625 411.25,411.25 408.765625,413.328125 406.0625,414.8125 403.140625,415.703125 400,416 396.859375,415.703125 393.9375,414.8125 391.234375,413.328125 388.75,411.25 386.671875,408.765625 385.1875,406.0625 384.296875,403.140625 384,400 384,368 384.296875,364.859375 385.1875,361.9375 386.671875,359.234375 388.75,356.75 391.234375,354.671875 393.9375,353.1875 396.859375,352.296875 400,352z M112,352L115.140625,352.296875 118.0625,353.1875 120.765625,354.671875 123.25,356.75 125.328125,359.234375 126.8125,361.9375 127.703125,364.859375 128,368 128,400 127.703125,403.140625 126.8125,406.0625 125.328125,408.765625 123.25,411.25 120.765625,413.328125 118.0625,414.8125 115.140625,415.703125 112,416 108.859375,415.703125 105.9375,414.8125 103.234375,413.328125 100.75,411.25 98.671875,408.765625 97.1875,406.0625 96.296875,403.140625 96,400 96,368 96.296875,364.859375 97.1875,361.9375 98.671875,359.234375 100.75,356.75 103.234375,354.671875 105.9375,353.1875 108.859375,352.296875 112,352z M400,224L403.140625,224.296875 406.0625,225.1875 408.765625,226.671875 411.25,228.75 413.328125,231.234390258789 414.8125,233.937515258789 415.703125,236.859390258789 416,240 416,272 415.703125,275.140625 414.8125,278.0625 413.328125,280.765625 411.25,283.25 408.765625,285.328125 406.0625,286.8125 403.140625,287.703125 400,288 396.859375,287.703125 393.9375,286.8125 391.234375,285.328125 388.75,283.25 386.671875,280.765625 385.1875,278.0625 384.296875,275.140625 384,272 384,240 384.296875,236.859390258789 385.1875,233.937515258789 386.671875,231.234390258789 388.75,228.75 391.234375,226.671875 393.9375,225.1875 396.859375,224.296875 400,224z M112,224L115.140625,224.296875 118.0625,225.1875 120.765625,226.671875 123.25,228.75 125.328125,231.234390258789 126.8125,233.937515258789 127.703125,236.859390258789 128,240 128,272 127.703125,275.140625 126.8125,278.0625 125.328125,280.765625 123.25,283.25 120.765625,285.328125 118.0625,286.8125 115.140625,287.703125 112,288 108.859375,287.703125 105.9375,286.8125 103.234375,285.328125 100.75,283.25 98.671875,280.765625 97.1875,278.0625 96.296875,275.140625 96,272 96,240 96.296875,236.859390258789 97.1875,233.937515258789 98.671875,231.234390258789 100.75,228.75 103.234375,226.671875 105.9375,225.1875 108.859375,224.296875 112,224z M400,96L403.140625,96.296875 406.0625,97.1875 408.765625,98.6718826293945 411.25,100.75 413.328125,103.234390258789 414.8125,105.937515258789 415.703125,108.859390258789 416,112 416,144 415.703125,147.140625 414.8125,150.0625 413.328125,152.765625 411.25,155.25 408.765625,157.328140258789 406.0625,158.8125 403.140625,159.703125 400,160 396.859375,159.703125 393.9375,158.8125 391.234375,157.328140258789 388.75,155.25 386.671875,152.765625 385.1875,150.0625 384.296875,147.140625 384,144 384,112 384.296875,108.859390258789 385.1875,105.937515258789 386.671875,103.234390258789 388.75,100.75 391.234375,98.6718826293945 393.9375,97.1875 396.859375,96.296875 400,96z M112,96L115.140625,96.296875 118.0625,97.1875 120.765625,98.6718826293945 123.25,100.75 125.328125,103.234390258789 126.8125,105.937515258789 127.703125,108.859390258789 128,112 128,144 127.703125,147.140625 126.8125,150.0625 125.328125,152.765625 123.25,155.25 120.765625,157.328140258789 118.0625,158.8125 115.140625,159.703125 112,160 108.859375,159.703125 105.9375,158.8125 103.234375,157.328140258789 100.75,155.25 98.671875,152.765625 97.1875,150.0625 96.296875,147.140625 96,144 96,112 96.296875,108.859390258789 97.1875,105.937515258789 98.671875,103.234390258789 100.75,100.75 103.234375,98.6718826293945 105.9375,97.1875 108.859375,96.296875 112,96z M126.75,64L120.5703125,64.3203125 114.53125,65.28125 108.6328125,66.8828201293945 102.875,69.125 97.359375,71.9062576293945 92.1875,75.1250076293945 87.359375,78.78125 82.875,82.875 78.78125,87.359375 75.125,92.1875076293945 71.90625,97.3593826293945 69.125,102.875 66.8828125,108.632820129395 65.28125,114.531265258789 64.3203125,120.570320129395 64,126.75 64,385.25 64.3203125,391.4296875 65.28125,397.46875 66.8828125,403.3671875 69.125,409.125 71.90625,414.640625 75.125,419.8125 78.78125,424.640625 82.875,429.125 87.359375,433.21875 92.1875,436.875 97.359375,440.09375 102.875,442.875 108.6328125,445.1171875 114.53125,446.71875 120.5703125,447.6796875 126.75,448 385.25,448 391.4296875,447.6796875 397.46875,446.71875 403.3671875,445.1171875 409.125,442.875 414.640625,440.09375 419.8125,436.875 424.640625,433.21875 429.125,429.125 433.21875,424.640625 436.875,419.8125 440.09375,414.640625 442.875,409.125 445.1171875,403.3671875 446.71875,397.46875 447.6796875,391.4296875 448,385.25 448,126.75 447.6796875,120.570320129395 446.71875,114.531265258789 445.1171875,108.632820129395 442.875,102.875 440.09375,97.3593826293945 436.875,92.1875076293945 433.21875,87.359375 429.125,82.875 424.640625,78.78125 419.8125,75.1250076293945 414.640625,71.9062576293945 409.125,69.125 403.3671875,66.8828201293945 397.46875,65.28125 391.4296875,64.3203125 385.25,64 126.75,64z M126,32L386,32 395.2734375,32.4765777587891 404.34375,33.9062690734863 413.2109375,36.2890739440918 421.875,39.625 430.171875,43.7656326293945 437.9375,48.5625114440918 445.171875,54.0156364440918 451.875,60.1250038146973 457.984375,66.8281326293945 463.4375,74.0625076293945 468.234375,81.8281326293945 472.375,90.125 475.7109375,98.7890701293945 478.093719482422,107.656257629395 479.523406982422,116.7265625 480,126 480,386 479.523406982422,395.2734375 478.093719482422,404.34375 475.7109375,413.2109375 472.375,421.875 468.234375,430.171875 463.4375,437.9375 457.984375,445.171875 451.875,451.875 445.171875,457.984375 437.9375,463.4375 430.171875,468.234375 421.875,472.375 413.2109375,475.7109375 404.34375,478.09375 395.2734375,479.5234375 386,480 126,480 116.726554870605,479.5234375 107.656242370605,478.09375 98.7890548706055,475.7109375 90.125,472.375 81.828125,468.234375 74.0625,463.4375 66.828125,457.984375 60.1250038146973,451.875 54.015625,445.171875 48.5625,437.9375 43.765625,430.171875 39.625,421.875 36.2890625,413.2109375 33.90625,404.34375 32.4765625,395.2734375 32,386 32,126 32.4765625,116.7265625 33.90625,107.656257629395 36.2890625,98.7890701293945 39.625,90.125 43.765625,81.8281326293945 48.5625,74.0625076293945 54.015625,66.8281326293945 60.1250038146973,60.1250038146973 66.828125,54.0156364440918 74.0625,48.5625114440918 81.828125,43.7656326293945 90.125,39.625 98.7890548706055,36.2890739440918 107.656242370605,33.9062690734863 116.726554870605,32.4765777587891 126,32z" />
  </g>
</svg>
