<?xml version="1.0" encoding="utf-8"?>
<svg xmlns="http://www.w3.org/2000/svg" width="16" height="16" viewBox="0 0 2048 2048">
  <g transform="translate(0, 2048) scale(1, -1)">
    <path fill="#000000" d="M320 1152Q281 1152 246.0 1167.0Q211 1182 184.5 1208.5Q158 1235 143.0 1270.0Q128 1305 128 1344V1728Q128 1767 143.0 1802.0Q158 1837 184.5 1863.5Q211 1890 246.0 1905.0Q281 1920 320 1920H704Q743 1920 778.0 1905.0Q813 1890 839.5 1863.5Q866 1837 881.0 1802.0Q896 1767 896 1728V1344Q896 1305 881.0 1270.0Q866 1235 839.5 1208.5Q813 1182 778.0 1167.0Q743 1152 704 1152ZM1344 1152Q1305 1152 1270.0 1167.0Q1235 1182 1208.5 1208.5Q1182 1235 1167.0 1270.0Q1152 1305 1152 1344V1728Q1152 1767 1167.0 1802.0Q1182 1837 1208.5 1863.5Q1235 1890 1270.0 1905.0Q1305 1920 1344 1920H1728Q1767 1920 1802.0 1905.0Q1837 1890 1863.5 1863.5Q1890 1837 1905.0 1802.0Q1920 1767 1920 1728V1344Q1920 1305 1905.0 1270.0Q1890 1235 1863.5 1208.5Q1837 1182 1802.0 1167.0Q1767 1152 1728 1152ZM704 1280Q730 1280 749.0 1299.0Q768 1318 768 1344V1728Q768 1754 749.0 1773.0Q730 1792 704 1792H320Q294 1792 275.0 1773.0Q256 1754 256 1728V1344Q256 1318 275.0 1299.0Q294 1280 320 1280ZM1728 1280Q1754 1280 1773.0 1299.0Q1792 1318 1792 1344V1728Q1792 1754 1773.0 1773.0Q1754 1792 1728 1792H1344Q1318 1792 1299.0 1773.0Q1280 1754 1280 1728V1344Q1280 1318 1299.0 1299.0Q1318 1280 1344 1280ZM320 128Q281 128 246.0 143.0Q211 158 184.5 184.5Q158 211 143.0 246.0Q128 281 128 320V704Q128 743 143.0 778.0Q158 813 184.5 839.5Q211 866 246.0 881.0Q281 896 320 896H704Q743 896 778.0 881.0Q813 866 839.5 839.5Q866 813 881.0 778.0Q896 743 896 704V320Q896 281 881.0 246.0Q866 211 839.5 184.5Q813 158 778.0 143.0Q743 128 704 128ZM1344 128Q1305 128 1270.0 143.0Q1235 158 1208.5 184.5Q1182 211 1167.0 246.0Q1152 281 1152 320V704Q1152 743 1167.0 778.0Q1182 813 1208.5 839.5Q1235 866 1270.0 881.0Q1305 896 1344 896H1728Q1767 896 1802.0 881.0Q1837 866 1863.5 839.5Q1890 813 1905.0 778.0Q1920 743 1920 704V320Q1920 281 1905.0 246.0Q1890 211 1863.5 184.5Q1837 158 1802.0 143.0Q1767 128 1728 128ZM704 256Q730 256 749.0 275.0Q768 294 768 320V704Q768 730 749.0 749.0Q730 768 704 768H320Q294 768 275.0 749.0Q256 730 256 704V320Q256 294 275.0 275.0Q294 256 320 256ZM1728 256Q1754 256 1773.0 275.0Q1792 294 1792 320V704Q1792 730 1773.0 749.0Q1754 768 1728 768H1344Q1318 768 1299.0 749.0Q1280 730 1280 704V320Q1280 294 1299.0 275.0Q1318 256 1344 256Z"/>
  </g>
</svg>