<?xml version="1.0" encoding="utf-8"?>
<svg id="" width="16" height="16" style="width:16px;height:16px;" version="1.1"
    xmlns="http://www.w3.org/2000/svg" viewBox="0 0 2048 2048" enable-background="new 0 0 2048 2048"
    xml:space="preserve"><path fill="#000000" transform="translate(0,400)" d="M0 859.17 q0 -6.18 2.06 -16.48 q31.94 -119.5 83.96 -228.7 q52.02 -109.2 123.11 -202.94 q71.08 -93.75 159.16 -169.47 q88.08 -75.72 191.1 -129.81 q103.02 -54.09 219.95 -82.93 q116.92 -28.84 244.66 -28.84 q148.35 0 285.88 42.23 q137.53 42.23 257.03 118.47 q119.5 76.24 217.37 182.86 q97.87 106.63 165.86 236.43 q10.3 19.58 26.78 57.69 q16.49 38.12 32.45 80.35 q15.97 42.24 27.3 80.87 q11.33 38.63 11.33 58.21 q0 26.79 -19.58 46.36 q-19.58 19.57 -46.36 19.57 q-26.79 0 -40.18 -13.9 q-13.39 -13.9 -23.69 -36.58 q-11.33 -23.69 -16.49 -49.44 q-5.15 -25.75 -13.39 -50.48 q-23.69 -75.21 -64.38 -148.35 q-40.69 -73.14 -90.14 -134.95 q-65.93 -84.48 -146.28 -150.92 q-80.36 -66.44 -172.04 -112.29 q-91.69 -45.84 -192.64 -70.06 q-100.95 -24.21 -209.12 -24.21 q-127.74 0 -246.22 38.12 q-118.48 38.12 -221.49 105.59 q-103.01 67.48 -187.49 160.7 q-84.48 93.23 -143.19 203.46 q-7.21 13.39 -19.57 40.17 q-12.37 26.79 -24.73 56.66 q-12.36 29.88 -21.12 56.66 q-8.76 26.78 -8.76 40.18 q0 15.45 -5.66 31.42 q-5.66 15.96 -15.45 28.84 q-9.79 12.88 -23.7 21.64 q-13.91 8.75 -30.39 8.75 q-26.78 0 -46.36 -18.54 q-19.57 -18.54 -19.57 -46.36 ZM562.48 848.87 q0 -92.72 37.6 -175.13 q37.6 -82.41 100.96 -144.23 q63.36 -61.81 146.8 -97.87 q83.44 -36.06 176.16 -36.06 q94.78 0 178.74 36.57 q83.96 36.57 146.8 99.41 q62.84 62.84 99.41 146.8 q36.57 83.96 36.57 178.74 q0 94.78 -36.57 178.74 q-36.57 83.96 -99.41 146.8 q-62.84 62.84 -146.8 99.41 q-83.96 36.57 -178.74 36.57 q-97.87 0 -182.35 -37.09 q-84.48 -37.09 -146.29 -100.95 q-61.81 -63.87 -97.35 -149.38 q-35.54 -85.51 -35.54 -182.35 ZM1353.66 849.9 q0 -66.96 -26.79 -125.68 q-26.79 -58.72 -72.12 -102.51 q-45.33 -43.78 -105.08 -69.02 q-59.75 -25.24 -125.68 -25.24 q-69.02 0 -128.77 25.75 q-59.75 25.75 -104.57 70.57 q-44.81 44.81 -70.57 104.56 q-25.75 59.75 -25.75 128.77 q0 69.02 25.75 128.77 q25.75 59.75 70.57 104.57 q44.82 44.81 104.57 70.57 q59.75 25.76 128.77 25.76 q71.08 0 131.34 -26.27 q60.27 -26.27 104.05 -72.12 q43.79 -45.85 69.03 -107.14 q25.24 -61.29 25.24 -131.35 Z"/></svg>