<?xml version="1.0" encoding="utf-8"?>
<svg xmlns="http://www.w3.org/2000/svg" width="16" height="16" viewBox="0 0 2048 2048">
  <g transform="translate(0, 2048) scale(1, -1)">
    <path fill="#ffffff" d="M256 1728V1797Q256 1847 276.5 1892.5Q297 1938 331.5 1972.5Q366 2007 411.5 2027.5Q457 2048 507 2048H545Q562 2048 579.0 2046.0Q596 2044 609.5 2037.5Q623 2031 631.5 2018.5Q640 2006 640 1984Q640 1958 621.0 1939.0Q602 1920 576 1920H531Q500 1920 473.5 1914.0Q447 1908 421 1882Q396 1857 389.5 1830.0Q383 1803 383 1773Q383 1762 383.5 1751.0Q384 1740 384 1728Q384 1702 365.0 1683.0Q346 1664 320 1664Q294 1664 275.0 1683.0Q256 1702 256 1728ZM832 1920Q806 1920 787.0 1939.0Q768 1958 768 1984Q768 2010 787.0 2029.0Q806 2048 832 2048H960Q986 2048 1005.0 2029.0Q1024 2010 1024 1984Q1024 1958 1005.0 1939.0Q986 1920 960 1920ZM1152 1984Q1152 2010 1171.0 2029.0Q1190 2048 1216 2048H1285Q1335 2048 1380.5 2027.5Q1426 2007 1460.5 1972.5Q1495 1938 1515.5 1892.5Q1536 1847 1536 1797V1759Q1536 1742 1534.0 1725.0Q1532 1708 1525.5 1694.5Q1519 1681 1506.5 1672.5Q1494 1664 1472 1664Q1446 1664 1427.0 1683.0Q1408 1702 1408 1728V1773Q1408 1803 1402.0 1829.5Q1396 1856 1370 1882Q1344 1908 1317.5 1914.0Q1291 1920 1261 1920H1216Q1190 1920 1171.0 1939.0Q1152 1958 1152 1984ZM704 1664Q678 1664 659.0 1683.0Q640 1702 640 1728Q640 1754 659.0 1773.0Q678 1792 704 1792H1088Q1114 1792 1133.0 1773.0Q1152 1754 1152 1728Q1152 1702 1133.0 1683.0Q1114 1664 1088 1664ZM1664 1472V1758Q1724 1724 1758.0 1664.5Q1792 1605 1792 1536V1472Q1792 1446 1773.0 1427.0Q1754 1408 1728 1408Q1702 1408 1683.0 1427.0Q1664 1446 1664 1472ZM256 1344V1472Q256 1498 275.0 1517.0Q294 1536 320 1536Q346 1536 365.0 1517.0Q384 1498 384 1472V1344Q384 1318 365.0 1299.0Q346 1280 320 1280Q294 1280 275.0 1299.0Q256 1318 256 1344ZM704 1408Q678 1408 659.0 1427.0Q640 1446 640 1472Q640 1498 659.0 1517.0Q678 1536 704 1536H1088Q1114 1536 1133.0 1517.0Q1152 1498 1152 1472Q1152 1446 1133.0 1427.0Q1114 1408 1088 1408ZM1408 1216V1472Q1408 1498 1427.0 1517.0Q1446 1536 1472 1536Q1498 1536 1517.0 1517.0Q1536 1498 1536 1472V1216Q1536 1190 1517.0 1171.0Q1498 1152 1472 1152Q1446 1152 1427.0 1171.0Q1408 1190 1408 1216ZM1664 960V1216Q1664 1242 1683.0 1261.0Q1702 1280 1728 1280Q1754 1280 1773.0 1261.0Q1792 1242 1792 1216V960Q1792 934 1773.0 915.0Q1754 896 1728 896Q1702 896 1683.0 915.0Q1664 934 1664 960ZM256 832V1088Q256 1114 275.0 1133.0Q294 1152 320 1152Q346 1152 365.0 1133.0Q384 1114 384 1088V832Q384 806 365.0 787.0Q346 768 320 768Q294 768 275.0 787.0Q256 806 256 832ZM1408 832V960Q1408 986 1427.0 1005.0Q1446 1024 1472 1024Q1498 1024 1517.0 1005.0Q1536 986 1536 960V832Q1536 806 1517.0 787.0Q1498 768 1472 768Q1446 768 1427.0 787.0Q1408 806 1408 832ZM1664 576V704Q1664 730 1683.0 749.0Q1702 768 1728 768Q1754 768 1773.0 749.0Q1792 730 1792 704V576Q1792 550 1773.0 531.0Q1754 512 1728 512Q1702 512 1683.0 531.0Q1664 550 1664 576ZM507 256Q457 256 411.5 276.5Q366 297 331.5 331.5Q297 366 276.5 411.5Q256 457 256 507Q256 515 255.5 524.5Q255 534 255 545Q255 562 257.0 579.0Q259 596 265.5 609.5Q272 623 285.0 631.5Q298 640 320 640Q346 640 365.0 621.0Q384 602 384 576Q384 564 383.5 553.0Q383 542 383 531Q383 501 389.5 473.5Q396 446 421 421Q446 396 473.5 389.5Q501 383 531 383Q542 383 553.0 383.5Q564 384 576 384Q602 384 621.0 365.0Q640 346 640 320Q640 294 621.0 275.0Q602 256 576 256ZM1152 320Q1152 346 1171.0 365.0Q1190 384 1216 384Q1228 384 1239.0 383.5Q1250 383 1261 383Q1291 383 1318.0 389.5Q1345 396 1370 421Q1396 447 1402.0 473.5Q1408 500 1408 531V576Q1408 602 1427.0 621.0Q1446 640 1472 640Q1498 640 1517.0 621.0Q1536 602 1536 576V507Q1536 457 1515.5 411.5Q1495 366 1460.5 331.5Q1426 297 1380.5 276.5Q1335 256 1285 256Q1277 256 1267.5 255.5Q1258 255 1247 255Q1230 255 1213.0 257.0Q1196 259 1182.5 265.5Q1169 272 1160.5 285.0Q1152 298 1152 320ZM832 256Q806 256 787.0 275.0Q768 294 768 320Q768 346 787.0 365.0Q806 384 832 384H960Q986 384 1005.0 365.0Q1024 346 1024 320Q1024 294 1005.0 275.0Q986 256 960 256ZM1408 64Q1408 94 1428.5 111.0Q1449 128 1478 128Q1518 128 1552.0 143.0Q1586 158 1611.0 184.5Q1636 211 1650.0 246.0Q1664 281 1664 320Q1664 346 1683.0 365.0Q1702 384 1728 384Q1758 384 1775.0 363.5Q1792 343 1792 314Q1792 250 1768.0 193.0Q1744 136 1702.0 93.0Q1660 50 1603.5 25.0Q1547 0 1483 0Q1454 0 1431.0 15.0Q1408 30 1408 64ZM768 0Q699 0 639.5 34.0Q580 68 546 128H832Q858 128 877.0 109.0Q896 90 896 64Q896 38 877.0 19.0Q858 0 832 0ZM1088 0Q1062 0 1043.0 19.0Q1024 38 1024 64Q1024 90 1043.0 109.0Q1062 128 1088 128H1216Q1242 128 1261.0 109.0Q1280 90 1280 64Q1280 38 1261.0 19.0Q1242 0 1216 0Z"/>
  </g>
</svg>