<?xml version="1.0" encoding="utf-8"?>
<svg xmlns="http://www.w3.org/2000/svg" width="16" height="16" viewBox="0 0 2048 2048">
  <g transform="translate(0, 2048) scale(1, -1)">
    <path fill="#ffffff" d="M1235 0Q1178 0 1125.5 17.5Q1073 35 1025 66Q926 131 837.0 211.0Q748 291 669.0 381.0Q590 471 521.0 569.0Q452 667 393 768Q330 876 281.5 983.5Q233 1091 200.0 1202.0Q167 1313 150.0 1429.5Q133 1546 133 1671Q133 1761 170.0 1831.5Q207 1902 268.0 1950.5Q329 1999 407.0 2025.0Q485 2051 568 2051Q611 2051 654.0 2045.0Q697 2039 735.5 2024.0Q774 2009 806.5 1983.0Q839 1957 862 1917L986 1700Q1029 1626 1029 1541Q1029 1475 1010.5 1428.5Q992 1382 964.0 1347.5Q936 1313 904.0 1288.0Q872 1263 844.0 1240.5Q816 1218 797.5 1195.5Q779 1173 779 1144Q779 1115 794.0 1073.5Q809 1032 831.5 990.0Q854 948 880.0 911.5Q906 875 928 857Q942 846 955.0 841.0Q968 836 986 836Q1010 836 1036.5 845.5Q1063 855 1092.5 867.0Q1122 879 1155.5 888.5Q1189 898 1228 898Q1316 898 1390.5 854.5Q1465 811 1508 734L1630 516Q1660 463 1660 402Q1660 360 1645 320Q1622 256 1581.5 198.0Q1541 140 1488.0 96.0Q1435 52 1370.5 26.0Q1306 0 1235 0ZM1152 1984Q1152 2010 1171.0 2029.0Q1190 2048 1216 2048Q1313 2048 1403.0 2023.0Q1493 1998 1571.0 1952.0Q1649 1906 1713.5 1841.5Q1778 1777 1824.0 1699.0Q1870 1621 1895.0 1531.0Q1920 1441 1920 1344Q1920 1318 1901.0 1299.0Q1882 1280 1856 1280Q1830 1280 1811.0 1299.0Q1792 1318 1792 1344Q1792 1422 1772.5 1493.0Q1753 1564 1714 1632Q1675 1699 1621.5 1752.0Q1568 1805 1503.5 1842.5Q1439 1880 1366.5 1900.0Q1294 1920 1216 1920Q1190 1920 1171.0 1939.0Q1152 1958 1152 1984ZM1532 402Q1532 429 1518 454L1396 672Q1370 718 1326.0 744.0Q1282 770 1229 770Q1197 770 1167.0 760.5Q1137 751 1107.5 739.0Q1078 727 1047.5 717.5Q1017 708 984 708Q899 708 839 765Q806 796 772.5 842.5Q739 889 712.0 941.0Q685 993 668.0 1046.5Q651 1100 651 1146Q651 1199 669.5 1235.5Q688 1272 716.0 1299.0Q744 1326 776.0 1349.0Q808 1372 836.0 1398.0Q864 1424 882.5 1457.5Q901 1491 901 1540Q901 1590 875 1636L751 1853Q737 1876 716.0 1890.0Q695 1904 669.5 1911.5Q644 1919 617.0 1921.0Q590 1923 566 1923Q500 1923 444.0 1905.0Q388 1887 347.5 1851.5Q307 1816 284.0 1763.5Q261 1711 261 1642Q261 1507 292.0 1366.0Q323 1225 378.5 1086.0Q434 947 511.5 814.5Q589 682 682.0 564.0Q775 446 880.0 346.0Q985 246 1096 173Q1128 152 1163.0 140.0Q1198 128 1236 128Q1287 128 1332.5 148.0Q1378 168 1415.5 201.0Q1453 234 1480.5 276.5Q1508 319 1525 364Q1529 375 1530.5 383.0Q1532 391 1532 402ZM1536 1351Q1536 1416 1510.0 1473.0Q1484 1530 1440.0 1572.5Q1396 1615 1338.0 1639.5Q1280 1664 1216 1664Q1190 1664 1171.0 1683.0Q1152 1702 1152 1728Q1152 1760 1173.5 1776.0Q1195 1792 1224 1792Q1312 1792 1391.5 1756.0Q1471 1720 1531.5 1659.5Q1592 1599 1628.0 1519.5Q1664 1440 1664 1352Q1664 1323 1648.0 1301.5Q1632 1280 1600 1280Q1569 1280 1552.5 1301.0Q1536 1322 1536 1351ZM1152 1472Q1152 1498 1171.0 1517.0Q1190 1536 1216 1536Q1255 1536 1290.0 1521.0Q1325 1506 1351.5 1479.5Q1378 1453 1393.0 1418.0Q1408 1383 1408 1344Q1408 1318 1389.0 1299.0Q1370 1280 1344 1280Q1318 1280 1299.0 1299.0Q1280 1318 1280 1344Q1280 1368 1270.5 1380.0Q1261 1392 1247.0 1398.5Q1233 1405 1216.0 1408.0Q1199 1411 1185.0 1417.5Q1171 1424 1161.5 1436.0Q1152 1448 1152 1472Z"/>
  </g>
</svg>