<?xml version="1.0" encoding="utf-8"?>
<svg id="" width="16" height="16" style="width:16px;height:16px;" version="1.1" xmlns="http://www.w3.org/2000/svg" viewBox="0 0 2048 2048" enable-background="new 0 0 2048 2048" xml:space="preserve">
    <path fill="#ffffff" transform="translate(0, 150)" d="M1536 1662 q0 -17 6.5 -27.5 q6.5 -10.5 17.5 -22.5 q14 -14 30 -26.5 q16 -12.5 31 -26.5 q72 -66 128 -146.5 q56 -80.5 94 -170.5 q38 -90 57.5 -186 q19.5 -96 19.5 -193 q0 -96 -19.5 -192.5 q-19.5 -96.5 -58 -187 q-38.5 -90.5 -94 -171.5 q-55.5 -81 -127.5 -146 q-15 -14 -31 -26.5 q-16 -12.5 -30 -26.5 q-12 -12 -18 -22 q-6 -10 -6 -28 q0 -27 18.5 -45 q18.5 -18 45.5 -18 q12 0 21 3.5 q9 3.5 19 10.5 q45 29 89 74 q44 45 83.5 96.5 q39.5 51.5 72.5 105.5 q33 54 56 102 q53 111 80 229.5 q27 118.5 27 241.5 q0 122 -27 241.5 q-27 119.5 -80 229.5 q-23 47 -56 101.5 q-33 54.5 -73 106 q-40 51.5 -84 96.5 q-44 45 -88 74 q-11 7 -19.5 10.5 q-8.5 3.5 -20.5 3.5 q-26 0 -45 -19 q-19 -19 -19 -45 ZM422 1247 l-230 0 q-39 0 -74 -15 q-35 -15 -61.5 -41.5 q-26.5 -26.5 -41.5 -61.5 q-15 -35 -15 -74 l0 -384 q0 -39 15 -74 q15 -35 41.5 -61.5 q26.5 -26.5 61.5 -41.5 q35 -15 74 -15 l230 0 l310 -311 q14 -14 31.5 -20.5 q17.5 -6.5 36.5 -6.5 q41 0 68.5 27 q27.5 27 27.5 68 l0 1254 q0 20 -7.5 37 q-7.5 17 -21 30.5 q-13.5 13.5 -31 21 q-17.5 7.5 -36.5 7.5 q-40 0 -68 -28 l-310 -311 ZM1284 1432 q0 -17 5.5 -26 q5.5 -9 16.5 -22 q55 -62 98 -119 q43 -57 72 -117.5 q29 -60.5 44.5 -129.5 q15.5 -69 15.5 -155 q0 -86 -15.5 -155 q-15.5 -69 -44.5 -129.5 q-29 -60.5 -72 -117.5 q-43 -57 -98 -119 q-11 -13 -16.5 -22 q-5.5 -9 -5.5 -26 q0 -26 19.5 -44.5 q19.5 -18.5 45.5 -18.5 q15 0 23 3.5 q8 3.5 20 12.5 q30 23 59.5 56.5 q29.5 33.5 56 71.5 q26.5 38 48.5 77.5 q22 39.5 37 74.5 q71 160 71 336 q0 176 -71 336 q-14 32 -36.5 72.5 q-22.5 40.5 -49.5 80 q-27 39.5 -56.5 73.5 q-29.5 34 -58.5 54 q-11 7 -20.5 11.5 q-9.5 4.5 -22.5 4.5 q-26 0 -45.5 -18.5 q-19.5 -18.5 -19.5 -44.5 ZM768 1412 l0 -1099 l-275 275 q-19 19 -45 19 l-256 0 q-26 0 -45 19 q-19 19 -19 45 l0 384 q0 26 19 45 q19 19 45 19 l256 0 q26 0 45 19 l275 274 ZM1036 1188 q0 -14 3.5 -22 q3.5 -8 11.5 -19 q23 -35 42 -67.5 q19 -32.5 32 -66 q13 -33.5 20 -70 q7 -36.5 7 -80.5 q0 -43 -7 -80 q-7 -37 -20 -70.5 q-13 -33.5 -32 -66 q-19 -32.5 -42 -67.5 q-8 -11 -11.5 -19 q-3.5 -8 -3.5 -22 q0 -26 19 -45 q19 -19 45 -19 q17 0 28 6 q11 6 22 18 q32 35 56 78.5 q24 43.5 40.5 92 q16.5 48.5 25 98.5 q8.5 50 8.5 96 q0 44 -8.5 94.5 q-8.5 50.5 -25 100 q-16.5 49.5 -41 94 q-24.5 44.5 -55.5 76.5 q-21 23 -50 23 q-26 0 -45 -18.5 q-19 -18.5 -19 -44.5 Z"/>
</svg>