<?xml version="1.0" encoding="utf-8"?>
<svg xmlns="http://www.w3.org/2000/svg" width="16" height="16" viewBox="0 0 2048 2048">
  <g transform="translate(0, 2048) scale(1, -1)">
    <path fill="#000000" d="M1536 225Q1536 242 1542.0 253.0Q1548 264 1560 275Q1571 286 1583 295L1598 308Q1610 318 1621 328Q1685 388 1736.5 458.5Q1788 529 1826 608Q1874 707 1897.0 811.0Q1920 915 1920 1024Q1920 1133 1897.0 1237.0Q1874 1341 1826 1440Q1788 1519 1736.5 1590.0Q1685 1661 1621 1721Q1606 1735 1590.0 1747.5Q1574 1760 1560 1774Q1548 1785 1542.0 1796.0Q1536 1807 1536 1824Q1536 1851 1554.5 1869.0Q1573 1887 1600 1887Q1612 1887 1621.0 1883.5Q1630 1880 1640 1873Q1687 1839 1730.5 1795.0Q1774 1751 1812.5 1701.5Q1851 1652 1883.5 1599.5Q1916 1547 1941 1495Q2048 1272 2048 1024Q2048 776 1941 553Q1916 502 1883.5 449.0Q1851 396 1812.0 346.5Q1773 297 1729.5 253.0Q1686 209 1640 175Q1631 168 1621.5 164.5Q1612 161 1600 161Q1574 161 1555.0 180.0Q1536 199 1536 225ZM1284 455Q1284 471 1289.5 481.5Q1295 492 1306 503Q1416 611 1476.0 739.0Q1536 867 1536 1024Q1536 1181 1476.0 1309.0Q1416 1437 1306 1545Q1295 1556 1289.5 1566.5Q1284 1577 1284 1593Q1284 1619 1303.5 1637.5Q1323 1656 1349 1656Q1363 1656 1372.0 1652.5Q1381 1649 1392 1640Q1423 1614 1452.5 1581.0Q1482 1548 1508.0 1511.0Q1534 1474 1555.5 1435.5Q1577 1397 1593 1360Q1664 1200 1664 1024Q1664 848 1593 688Q1578 653 1556.0 614.0Q1534 575 1507.5 537.0Q1481 499 1451.5 465.5Q1422 432 1392 408Q1382 400 1372.0 396.0Q1362 392 1349 392Q1323 392 1303.5 410.5Q1284 429 1284 455ZM1036 699Q1036 712 1039.5 721.0Q1043 730 1051 740Q1099 806 1125.5 873.5Q1152 941 1152 1024Q1152 1107 1125.5 1174.5Q1099 1242 1051 1308Q1043 1318 1039.5 1327.0Q1036 1336 1036 1349Q1036 1375 1055.0 1394.0Q1074 1413 1100 1413Q1130 1413 1150 1389Q1182 1352 1206.0 1308.5Q1230 1265 1246.5 1218.0Q1263 1171 1271.5 1121.5Q1280 1072 1280 1024Q1280 977 1271.5 927.5Q1263 878 1246.5 830.5Q1230 783 1205.5 739.0Q1181 695 1150 659Q1130 636 1100 636Q1074 636 1055.0 654.0Q1036 672 1036 699Z"/>
  </g>
</svg>