<?xml version="1.0" encoding="utf-8"?>
<svg xmlns="http://www.w3.org/2000/svg" width="16" height="16" viewBox="0 0 2048 2048">
  <g transform="translate(0, 2048) scale(1, -1)">
    <path fill="#ffffff" d="M1536 225Q1536 242 1542.5 252.5Q1549 263 1560 275Q1574 289 1590.0 301.5Q1606 314 1621 328Q1693 394 1749.0 474.5Q1805 555 1843.0 645.0Q1881 735 1900.5 831.0Q1920 927 1920 1024Q1920 1120 1900.5 1216.5Q1881 1313 1842.5 1403.5Q1804 1494 1748.5 1575.0Q1693 1656 1621 1721Q1606 1735 1590.0 1747.5Q1574 1760 1560 1774Q1548 1786 1542.0 1796.0Q1536 1806 1536 1824Q1536 1851 1554.5 1869.0Q1573 1887 1600 1887Q1612 1887 1621.0 1883.5Q1630 1880 1640 1873Q1685 1844 1729.0 1799.0Q1773 1754 1812.5 1702.5Q1852 1651 1885.0 1597.0Q1918 1543 1941 1495Q1994 1384 2021.0 1265.5Q2048 1147 2048 1024Q2048 902 2021.0 782.5Q1994 663 1941 553Q1918 506 1885.0 451.5Q1852 397 1812.0 345.5Q1772 294 1728.0 249.0Q1684 204 1640 175Q1629 168 1620.5 164.5Q1612 161 1600 161Q1574 161 1555.0 180.0Q1536 199 1536 225ZM422 640H192Q153 640 118.0 655.0Q83 670 56.5 696.5Q30 723 15.0 758.0Q0 793 0 832V1216Q0 1255 15.0 1290.0Q30 1325 56.5 1351.5Q83 1378 118.0 1393.0Q153 1408 192 1408H422L732 1719Q746 1733 763.5 1739.5Q781 1746 800 1746Q841 1746 868.5 1719.0Q896 1692 896 1651V397Q896 377 888.5 360.0Q881 343 867.5 329.5Q854 316 836.5 308.5Q819 301 800 301Q760 301 732 329ZM1284 455Q1284 472 1289.5 481.0Q1295 490 1306 503Q1361 565 1404.0 622.0Q1447 679 1476.0 739.5Q1505 800 1520.5 869.0Q1536 938 1536 1024Q1536 1110 1520.5 1179.0Q1505 1248 1476.0 1308.5Q1447 1369 1404.0 1426.0Q1361 1483 1306 1545Q1295 1558 1289.5 1567.0Q1284 1576 1284 1593Q1284 1619 1303.5 1637.5Q1323 1656 1349 1656Q1364 1656 1372.0 1652.5Q1380 1649 1392 1640Q1422 1617 1451.5 1583.5Q1481 1550 1507.5 1512.0Q1534 1474 1556.0 1434.5Q1578 1395 1593 1360Q1664 1200 1664 1024Q1664 848 1593 688Q1579 656 1556.5 615.5Q1534 575 1507.0 535.5Q1480 496 1450.5 462.0Q1421 428 1392 408Q1381 401 1371.5 396.5Q1362 392 1349 392Q1323 392 1303.5 410.5Q1284 429 1284 455ZM768 475V1574L493 1299Q474 1280 448 1280H192Q166 1280 147.0 1261.0Q128 1242 128 1216V832Q128 806 147.0 787.0Q166 768 192 768H448Q474 768 493 749ZM1036 699Q1036 713 1039.5 721.0Q1043 729 1051 740Q1074 775 1093.0 807.5Q1112 840 1125.0 873.5Q1138 907 1145.0 943.5Q1152 980 1152 1024Q1152 1067 1145.0 1104.0Q1138 1141 1125.0 1174.5Q1112 1208 1093.0 1240.5Q1074 1273 1051 1308Q1043 1319 1039.5 1327.0Q1036 1335 1036 1349Q1036 1375 1055.0 1394.0Q1074 1413 1100 1413Q1117 1413 1128.0 1407.0Q1139 1401 1150 1389Q1182 1354 1206.0 1310.5Q1230 1267 1246.5 1218.5Q1263 1170 1271.5 1120.0Q1280 1070 1280 1024Q1280 980 1271.5 929.5Q1263 879 1246.5 829.5Q1230 780 1205.5 735.5Q1181 691 1150 659Q1129 636 1100 636Q1074 636 1055.0 654.5Q1036 673 1036 699Z"/>
  </g>
</svg>