<?xml version="1.0" encoding="utf-8"?>
<svg xmlns="http://www.w3.org/2000/svg" width="16" height="16" viewBox="0 0 2048 2048">
  <g transform="translate(0, 2048) scale(1, -1)">
    <path fill="#000000" d="M422 640H192Q153 640 118.0 655.0Q83 670 56.5 696.5Q30 723 15.0 758.0Q0 793 0 832V1216Q0 1255 15.0 1290.0Q30 1325 56.5 1351.5Q83 1378 118.0 1393.0Q153 1408 192 1408H422L732 1719Q746 1733 763.5 1739.5Q781 1746 800 1746Q841 1746 868.5 1719.0Q896 1692 896 1651V397Q896 377 888.5 360.0Q881 343 868.0 329.5Q855 316 837.5 308.5Q820 301 800 301Q760 301 732 329ZM768 475V1574L493 1299Q474 1280 448 1280H192Q166 1280 147.0 1261.0Q128 1242 128 1216V832Q128 806 147.0 787.0Q166 768 192 768H448Q474 768 493 749ZM1036 699Q1036 712 1039.5 721.0Q1043 730 1051 740Q1099 806 1125.5 873.5Q1152 941 1152 1024Q1152 1107 1125.5 1174.5Q1099 1242 1051 1308Q1043 1318 1039.5 1327.0Q1036 1336 1036 1349Q1036 1375 1055.0 1394.0Q1074 1413 1100 1413Q1130 1413 1150 1389Q1182 1352 1206.0 1308.5Q1230 1265 1246.5 1218.0Q1263 1171 1271.5 1121.5Q1280 1072 1280 1024Q1280 977 1271.5 927.5Q1263 878 1246.5 830.5Q1230 783 1205.5 739.0Q1181 695 1150 659Q1130 636 1100 636Q1074 636 1055.0 654.0Q1036 672 1036 699Z"/>
  </g>
</svg>