<?xml version="1.0" encoding="utf-8"?>
<svg id="" width="16" height="16" style="width:16px;height:16px;" version="1.1"
    xmlns="http://www.w3.org/2000/svg" viewBox="0 0 2048 2048" enable-background="new 0 0 2048 2048"
    xml:space="preserve"><path fill="#000000" d="M1920 384 l0 576 q0 211 -67 380.5 q-67 169.5 -184.5 302 q-117.5 132.5 -277 231.5 q-159.5 99 -344.5 170 q-9 4 -23 4 q-5 0 -11.5 -1 q-6.5 -1 -11.5 -3 q-185 -70 -344.5 -169.5 q-159.5 -99.5 -277 -233 q-117.5 -133.5 -184.5 -302.5 q-67 -169 -67 -379 l0 -576 q0 -28 15.5 -42 q15.5 -14 39.5 -21 q22 -6 46 -8.5 q24 -2.5 46 -7.5 q38 -7 75.5 -15.5 q37.5 -8.5 75.5 -19.5 q78 -22 150 -49 q72 -27 140.5 -59 q68.5 -32 135.5 -70 q67 -38 136 -81 q9 -5 17 -8 q8 -3 19 -3 q11 0 19 3 q8 3 17 8 q69 43 136 81 q67 38 135.5 70 q68.5 32 140.5 59 q72 27 150 49 q38 11 75.5 19.5 q37.5 8.5 75.5 15.5 q22 5 46 7.5 q24 2.5 46 8.5 q24 7 39.5 21 q15.5 14 15.5 42 ZM1792 439 q-205 -35 -399 -110 q-194 -75 -369 -189 q-175 114 -369 189 q-194 75 -399 110 l0 521 q0 187 59 335.5 q59 148.5 162.5 264.5 q103.5 116 243.5 203.5 q140 87.5 303 151.5 q163 -64 303 -151.5 q140 -87.5 243.5 -203.5 q103.5 -116 162.5 -264.5 q59 -148.5 59 -335.5 l0 -521 ZM1024 704 q39 0 74 15 q35 15 61.5 41.5 q26.5 26.5 41.5 61.5 q15 35 15 74 q0 57 -30.5 104 q-30.5 47 -81.5 71 l38 264 q0 2 0.5 4 q0.5 2 0.5 4 q0 27 -19 46 q-19 19 -46 19 l-108 0 q-27 0 -46 -19 q-19 -19 -19 -46 q0 -2 0.5 -4 q0.5 -2 0.5 -4 l38 -264 q-51 -24 -81.5 -71 q-30.5 -47 -30.5 -104 q0 -39 15 -74 q15 -35 41.5 -61.5 q26.5 -26.5 61.5 -41.5 q35 -15 74 -15 Z"/></svg>