<?xml version="1.0" encoding="utf-8"?>
<svg xmlns="http://www.w3.org/2000/svg" width="16" height="16" viewBox="0 0 2048 2048">
  <g transform="translate(0, 2048) scale(1, -1)">
    <path fill="#ffffff" d="M448 2048Q466 2048 480 2034Q487 2028 494 2021L520 1994Q527 1988 534 1981Q603 1922 681.5 1889.0Q760 1856 851 1856Q865 1856 880.0 1845.0Q895 1834 895 1818Q895 1781 895 1743L896 1595Q896 1558 896 1520Q896 1288 788.0 1132.5Q680 977 462 898Q458 896 448 896Q438 896 434 898Q352 928 283.0 970.0Q214 1012 160.5 1068.5Q107 1125 70.5 1196.5Q34 1268 16 1355Q9 1387 4.5 1421.5Q0 1456 0 1489V1808Q0 1827 12.5 1841.5Q25 1856 45 1856Q136 1856 214.5 1889.0Q293 1922 362 1981Q369 1988 376 1994L402 2021Q409 2028 416 2034Q430 2048 448 2048ZM602 1600Q602 1632 590.0 1660.0Q578 1688 557.0 1709.0Q536 1730 508.0 1742.0Q480 1754 448 1754Q416 1754 388.0 1742.0Q360 1730 339.0 1709.0Q318 1688 306.0 1660.0Q294 1632 294 1600Q294 1555 318.5 1517.5Q343 1480 384 1460Q381 1443 376.5 1414.0Q372 1385 367.0 1354.0Q362 1323 358.5 1295.5Q355 1268 355 1253Q355 1227 374.0 1208.5Q393 1190 419 1190H477Q503 1190 522.0 1208.5Q541 1227 541 1253Q541 1268 537.5 1295.5Q534 1323 529.0 1354.0Q524 1385 519.5 1414.0Q515 1443 512 1460Q553 1480 577.5 1517.5Q602 1555 602 1600Z"/>
  </g>
</svg>