<?xml version="1.0" encoding="utf-8"?>
<svg xmlns="http://www.w3.org/2000/svg" width="16" height="16" viewBox="0 0 2048 2048">
  <g transform="translate(0, 2048) scale(1, -1)">
    <path fill="#ffffff" d="M384 2048Q401 2048 417.0 2038.5Q433 2029 441 2013L761 1373Q768 1357 768 1344Q768 1317 749.5 1298.5Q731 1280 704 1280H64Q37 1280 18.5 1298.5Q0 1317 0 1344Q0 1357 7 1373L327 2013Q335 2029 351.0 2038.5Q367 2048 384 2048ZM168 1408H600L384 1841ZM1600 1152Q1618 1152 1632 1138Q1639 1132 1646 1125L1672 1098Q1679 1092 1686 1085Q1755 1026 1833.5 993.0Q1912 960 2003 960Q2017 960 2032.0 949.0Q2047 938 2047 922Q2047 885 2047 847L2048 699Q2048 662 2048 624Q2048 392 1940.0 236.5Q1832 81 1614 2Q1610 0 1600 0Q1590 0 1586 2Q1504 32 1435.0 74.0Q1366 116 1312.5 172.5Q1259 229 1222.5 300.5Q1186 372 1168 459Q1161 491 1156.5 525.5Q1152 560 1152 593V912Q1152 931 1164.5 945.5Q1177 960 1197 960Q1288 960 1366.5 993.0Q1445 1026 1514 1085Q1521 1092 1528 1098L1554 1125Q1561 1132 1568 1138Q1582 1152 1600 1152ZM1664 564Q1705 584 1729.5 621.5Q1754 659 1754 704Q1754 736 1742.0 764.0Q1730 792 1709.0 813.0Q1688 834 1660.0 846.0Q1632 858 1600 858Q1568 858 1540.0 846.0Q1512 834 1491.0 813.0Q1470 792 1458.0 764.0Q1446 736 1446 704Q1446 659 1470.5 621.5Q1495 584 1536 564Q1533 547 1528.5 518.0Q1524 489 1519.0 458.0Q1514 427 1510.5 399.5Q1507 372 1507 357Q1507 331 1526.0 312.5Q1545 294 1571 294H1629Q1655 294 1674.0 312.5Q1693 331 1693 357Q1693 372 1689.5 399.5Q1686 427 1681.0 458.0Q1676 489 1671.5 518.0Q1667 547 1664 564Z"/>
  </g>
</svg>