<?xml version="1.0" encoding="utf-8"?>
<svg xmlns="http://www.w3.org/2000/svg" width="16" height="16" viewBox="0 0 2048 2048">
  <g transform="translate(0, 2048) scale(1, -1)">
    <path fill="#000000" d="M960 1856Q960 1895 975.0 1930.0Q990 1965 1016.5 1991.5Q1043 2018 1078.0 2033.0Q1113 2048 1152 2048Q1191 2048 1226.0 2033.0Q1261 2018 1287.5 1991.5Q1314 1965 1329.0 1930.0Q1344 1895 1344 1856Q1344 1817 1329.0 1782.0Q1314 1747 1287.5 1720.5Q1261 1694 1226.0 1679.0Q1191 1664 1152 1664Q1113 1664 1078.0 1679.0Q1043 1694 1016.5 1720.5Q990 1747 975.0 1782.0Q960 1817 960 1856ZM494 127Q494 139 497 153L631 798Q662 814 687.5 838.5Q713 863 731.0 892.0Q749 921 758.5 954.5Q768 988 768 1024V1272L861 1319Q877 1327 886.5 1343.0Q896 1359 896 1376Q896 1402 877.0 1421.0Q858 1440 832 1440Q820 1440 798.5 1431.0Q777 1422 753.5 1410.5Q730 1399 708.5 1387.0Q687 1375 675 1369Q659 1361 649.5 1345.0Q640 1329 640 1312V1024Q640 969 602 933Q563 896 512 896Q485 896 461.5 906.0Q438 916 421.0 933.0Q404 950 394.0 973.5Q384 997 384 1024V1397Q384 1436 403.5 1467.5Q423 1499 458 1516L685 1630Q709 1642 730.5 1649.0Q752 1656 773.5 1659.0Q795 1662 817.0 1663.0Q839 1664 863 1664H896Q941 1603 1008.5 1569.5Q1076 1536 1152 1536Q1244 1536 1321 1584Q1368 1543 1411.0 1497.5Q1454 1452 1499 1408H1728Q1754 1408 1777.5 1398.0Q1801 1388 1818.5 1370.5Q1836 1353 1846.0 1329.5Q1856 1306 1856 1280Q1856 1253 1846.0 1230.0Q1836 1207 1818.5 1189.5Q1801 1172 1778.0 1162.0Q1755 1152 1728 1152H1268L1220 912L1363 722Q1385 693 1396.5 658.0Q1408 623 1408 586V128Q1408 101 1398.0 78.0Q1388 55 1370.5 37.5Q1353 20 1330.0 10.0Q1307 0 1280 0Q1253 0 1229.5 10.0Q1206 20 1189.0 37.0Q1172 54 1162.0 77.5Q1152 101 1152 128V460Q1152 478 1138 487L874 663L746 99Q736 56 701.5 28.0Q667 0 622 0Q596 0 573.0 10.0Q550 20 532.5 37.5Q515 55 504.5 78.0Q494 101 494 127Z"/>
  </g>
</svg>