<?xml version="1.0" encoding="utf-8"?>
<svg xmlns="http://www.w3.org/2000/svg" width="16" height="16" viewBox="0 0 2048 2048">
  <g transform="translate(0, 2048) scale(1, -1)">
    <path fill="#000000" d="M1856 1216Q1856 1177 1841.0 1142.0Q1826 1107 1799.5 1080.5Q1773 1054 1738.0 1039.0Q1703 1024 1664 1024H1388Q1344 1024 1315.0 1040.5Q1286 1057 1255 1086L1222 917L1476 663Q1505 634 1520.5 596.5Q1536 559 1536 518V192Q1536 153 1521.0 118.0Q1506 83 1479.5 56.5Q1453 30 1418.0 15.0Q1383 0 1344 0Q1305 0 1270.0 15.0Q1235 30 1208.5 56.5Q1182 83 1167.0 118.0Q1152 153 1152 192V413Q1152 422 1146 428L933 641L821 148Q813 115 796.0 88.0Q779 61 754.5 41.5Q730 22 699.5 11.0Q669 0 635 0Q596 0 561.5 15.0Q527 30 501.0 55.5Q475 81 460.0 116.0Q445 151 445 190Q445 212 449 229L561 769Q523 771 491.0 787.5Q459 804 435.0 830.0Q411 856 397.5 889.5Q384 923 384 960V1386Q384 1431 406.0 1466.0Q428 1501 468 1521L685 1630Q732 1653 773.5 1658.5Q815 1664 866 1664Q848 1696 840.0 1728.5Q832 1761 832 1797Q832 1849 853.0 1894.5Q874 1940 909.0 1974.0Q944 2008 990.5 2028.0Q1037 2048 1088 2048Q1139 2048 1185.5 2028.0Q1232 2008 1267.0 1974.0Q1302 1940 1323.0 1894.5Q1344 1849 1344 1797Q1344 1693 1275 1618Q1308 1598 1336 1570L1499 1408H1664Q1703 1408 1738.0 1393.0Q1773 1378 1799.5 1351.5Q1826 1325 1841.0 1290.0Q1856 1255 1856 1216ZM1088 1664Q1115 1664 1138.0 1674.0Q1161 1684 1178.5 1701.5Q1196 1719 1206.0 1742.0Q1216 1765 1216 1792Q1216 1818 1206.0 1841.5Q1196 1865 1178.5 1882.5Q1161 1900 1137.5 1910.0Q1114 1920 1088 1920Q1061 1920 1038.0 1910.0Q1015 1900 997.5 1882.5Q980 1865 970.0 1842.0Q960 1819 960 1792Q960 1765 970.0 1741.5Q980 1718 997.0 1701.0Q1014 1684 1037.5 1674.0Q1061 1664 1088 1664ZM1664 1152Q1690 1152 1709.0 1171.0Q1728 1190 1728 1216Q1728 1237 1720.5 1249.5Q1713 1262 1699.5 1269.0Q1686 1276 1668.0 1278.5Q1650 1281 1629 1281Q1605 1281 1578.5 1279.5Q1552 1278 1526 1278Q1493 1278 1465.0 1283.5Q1437 1289 1418 1308L1246 1480Q1219 1507 1183.5 1521.5Q1148 1536 1110 1536H828Q783 1536 743 1516L525 1407Q512 1401 512 1386V960Q512 934 531.0 915.0Q550 896 576 896Q602 896 621.0 915.0Q640 934 640 960V1248Q640 1265 649.5 1281.0Q659 1297 675 1305Q687 1311 708.5 1322.5Q730 1334 753.5 1346.0Q777 1358 798.5 1367.0Q820 1376 832 1376Q858 1376 877.0 1357.0Q896 1338 896 1312Q896 1295 886.5 1279.0Q877 1263 861 1255L768 1208V960Q768 918 751.0 880.0Q734 842 702 815L574 203Q573 199 573 192Q573 166 590.0 148.5Q607 131 633 131Q653 131 672.0 143.5Q691 156 696 176L834 782Q839 805 856.0 818.5Q873 832 896 832Q922 832 941 813L1236 518Q1280 474 1280 413V192Q1280 166 1299.0 147.0Q1318 128 1344 128Q1370 128 1389.0 147.0Q1408 166 1408 192V518Q1408 550 1386 572L1107 851Q1088 870 1088 897Q1088 905 1089 909L1153 1229Q1158 1252 1176.0 1266.0Q1194 1280 1217 1280Q1242 1280 1264.0 1260.0Q1286 1240 1306.5 1216.0Q1327 1192 1347.0 1172.0Q1367 1152 1388 1152Z"/>
  </g>
</svg>