<?xml version="1.0" encoding="utf-8"?>
<svg xmlns="http://www.w3.org/2000/svg" width="16" height="16" viewBox="0 0 2048 2048">
  <g transform="translate(0, 2048) scale(1, -1)">
    <path fill="#000000" d="M207 126Q168 126 133.5 141.0Q99 156 72.5 182.0Q46 208 30.5 242.5Q15 277 15 316Q15 362 35 404L788 1910Q812 1958 859.0 1987.0Q906 2016 960 2016Q1014 2016 1061.0 1987.0Q1108 1958 1132 1910L1885 404Q1905 362 1905 316Q1905 277 1889.5 242.5Q1874 208 1848.0 182.0Q1822 156 1787.0 141.0Q1752 126 1713 126ZM1713 254Q1737 254 1757.0 272.0Q1777 290 1777 315Q1777 333 1770 347L1017 1853Q1009 1870 993.5 1879.0Q978 1888 960 1888Q942 1888 926.5 1878.5Q911 1869 903 1853L150 347Q143 333 143 316Q143 290 162.5 272.0Q182 254 207 254ZM896 832V1344Q896 1370 915.0 1389.0Q934 1408 960 1408Q986 1408 1005.0 1389.0Q1024 1370 1024 1344V832Q1024 806 1005.0 787.0Q986 768 960 768Q934 768 915.0 787.0Q896 806 896 832ZM864 576Q864 616 892.0 644.0Q920 672 960 672Q1000 672 1028.0 644.0Q1056 616 1056 576Q1056 536 1028.0 508.0Q1000 480 960 480Q920 480 892.0 508.0Q864 536 864 576Z"/>
  </g>
</svg>