<?xml version="1.0" encoding="utf-8"?>
<svg xmlns="http://www.w3.org/2000/svg" width="16" height="16" viewBox="0 0 2048 2048">
  <g transform="translate(0, 2048) scale(1, -1)">
    <path fill="#000000" d="M2048 1443V605Q2048 558 2032.5 517.0Q2017 476 1989.5 443.0Q1962 410 1924.5 387.0Q1887 364 1842 354Q1829 351 1817.0 348.5Q1805 346 1792 344V192Q1792 153 1777.0 118.0Q1762 83 1735.5 56.5Q1709 30 1674.0 15.0Q1639 0 1600 0H448Q409 0 374.0 15.0Q339 30 312.5 56.5Q286 83 271.0 118.0Q256 153 256 192V344Q243 346 231.0 348.5Q219 351 206 354Q161 364 123.5 387.0Q86 410 58.5 443.0Q31 476 15.5 517.0Q0 558 0 605V1443Q0 1489 15.5 1530.5Q31 1572 58.5 1605.0Q86 1638 123.5 1661.0Q161 1684 206 1694Q407 1738 612.5 1759.5Q818 1781 1024 1781Q1230 1781 1435.5 1759.5Q1641 1738 1842 1694Q1887 1684 1924.5 1661.0Q1962 1638 1989.5 1605.0Q2017 1572 2032.5 1530.5Q2048 1489 2048 1443ZM1920 1443Q1920 1491 1891.0 1524.0Q1862 1557 1817 1568Q1811 1570 1804 1571L1778 1576Q1772 1578 1765 1579Q1582 1617 1396.5 1634.5Q1211 1652 1024 1652Q933 1652 831.0 1647.0Q729 1642 625.0 1631.5Q521 1621 420.0 1605.5Q319 1590 231 1568Q186 1557 157.0 1524.0Q128 1491 128 1443V605Q128 557 157.0 524.0Q186 491 231 480Q318 458 419.0 442.5Q520 427 624.5 416.5Q729 406 831.5 401.0Q934 396 1024 396Q1211 396 1396.5 413.5Q1582 431 1765 469Q1772 471 1778 472L1804 477Q1811 479 1817 480Q1862 491 1891.0 524.0Q1920 557 1920 605ZM1536 1024V1014Q1536 910 1494.5 818.5Q1453 727 1382.5 659.0Q1312 591 1219.5 551.5Q1127 512 1024 512Q918 512 824.5 552.0Q731 592 661.5 661.5Q592 731 552.0 824.5Q512 918 512 1024Q512 1130 552.0 1223.5Q592 1317 661.5 1386.5Q731 1456 824.5 1496.0Q918 1536 1024 1536Q1130 1536 1223.5 1496.0Q1317 1456 1386.5 1386.5Q1456 1317 1496.0 1223.5Q1536 1130 1536 1024ZM1408 1024V1032Q1408 1110 1377.0 1178.5Q1346 1247 1293.0 1298.0Q1240 1349 1170.5 1378.5Q1101 1408 1024 1408Q944 1408 874.0 1378.0Q804 1348 752.0 1296.0Q700 1244 670.0 1174.0Q640 1104 640 1024Q640 944 670.0 874.0Q700 804 752.0 752.0Q804 700 874.0 670.0Q944 640 1024 640Q1104 640 1174.0 670.0Q1244 700 1296.0 752.0Q1348 804 1378.0 874.0Q1408 944 1408 1024ZM1600 128Q1626 128 1645.0 147.0Q1664 166 1664 192V321Q1505 295 1345.0 281.5Q1185 268 1024 268Q863 268 703.0 281.5Q543 295 384 321V192Q384 166 403.0 147.0Q422 128 448 128Z"/>
  </g>
</svg>