<?xml version="1.0" encoding="utf-8"?>
<svg xmlns="http://www.w3.org/2000/svg" width="16" height="16" viewBox="0 0 2048 2048">
  <g transform="translate(0, 2048) scale(1, -1)">
    <path fill="#000000" d="M192 256Q153 256 118.0 271.0Q83 286 56.5 312.5Q30 339 15.0 374.0Q0 409 0 448V1600Q0 1639 15.0 1674.0Q30 1709 56.5 1735.5Q83 1762 118.0 1777.0Q153 1792 192 1792H1856Q1895 1792 1930.0 1777.0Q1965 1762 1991.5 1735.5Q2018 1709 2033.0 1674.0Q2048 1639 2048 1600V448Q2048 409 2033.0 374.0Q2018 339 1991.5 312.5Q1965 286 1930.0 271.0Q1895 256 1856 256ZM512 384V576Q512 615 527.0 650.0Q542 685 568.5 711.5Q595 738 630.0 753.0Q665 768 704 768H1344Q1383 768 1418.0 753.0Q1453 738 1479.5 711.5Q1506 685 1521.0 650.0Q1536 615 1536 576V384H1856Q1882 384 1901.0 403.0Q1920 422 1920 448V1600Q1920 1626 1901.0 1645.0Q1882 1664 1856 1664H192Q166 1664 147.0 1645.0Q128 1626 128 1600V448Q128 422 147.0 403.0Q166 384 192 384ZM704 1223Q704 1288 730.0 1345.0Q756 1402 800.0 1444.5Q844 1487 902.0 1511.5Q960 1536 1024 1536Q1091 1536 1149.0 1511.0Q1207 1486 1250.5 1442.5Q1294 1399 1319.0 1341.0Q1344 1283 1344 1216Q1344 1149 1319.0 1091.0Q1294 1033 1250.5 989.5Q1207 946 1149.0 921.0Q1091 896 1024 896Q955 896 896.5 921.5Q838 947 795.0 991.5Q752 1036 728.0 1095.5Q704 1155 704 1223ZM1216 1216Q1216 1255 1201.0 1290.0Q1186 1325 1159.5 1351.5Q1133 1378 1098.0 1393.0Q1063 1408 1024 1408Q985 1408 950.0 1393.0Q915 1378 888.5 1351.5Q862 1325 847.0 1290.0Q832 1255 832 1216Q832 1177 847.0 1142.0Q862 1107 888.5 1080.5Q915 1054 950.0 1039.0Q985 1024 1024 1024Q1063 1024 1098.0 1039.0Q1133 1054 1159.5 1080.5Q1186 1107 1201.0 1142.0Q1216 1177 1216 1216ZM640 384H1408V576Q1408 602 1389.0 621.0Q1370 640 1344 640H704Q678 640 659.0 621.0Q640 602 640 576Z"/>
  </g>
</svg>