<?xml version="1.0" encoding="utf-8"?>
<svg xmlns="http://www.w3.org/2000/svg" width="16" height="16" viewBox="0 0 2048 2048">
  <g transform="translate(0, 2048) scale(1, -1)">
    <path fill="#ffffff" d="M2048 1024Q2048 854 1994.0 697.0Q1940 540 1843.0 410.0Q1746 280 1610.0 184.5Q1474 89 1311 41Q1312 46 1312.0 51.5Q1312 57 1312 62Q1312 96 1305.0 122.0Q1298 148 1285.0 169.5Q1272 191 1254.5 211.0Q1237 231 1215 254Q1276 339 1311.5 438.5Q1347 538 1369 640H1052Q1054 656 1055.0 672.0Q1056 688 1056 704Q1056 720 1055.0 736.0Q1054 752 1052 768H1391Q1399 832 1403.5 895.5Q1408 959 1408 1024Q1408 1089 1403.5 1152.5Q1399 1216 1391 1280H657L656 1275Q607 1294 554.0 1303.0Q501 1312 448 1312Q375 1312 310 1296Q305 1295 297.0 1292.5Q289 1290 280.0 1287.0Q271 1284 263.5 1282.0Q256 1280 253 1280Q245 1279 238.0 1279.0Q231 1279 224 1279Q209 1279 194.0 1279.5Q179 1280 165 1280L153 1236Q69 1189 5 1120Q17 1251 60.5 1371.0Q104 1491 173.5 1594.0Q243 1697 334.5 1781.0Q426 1865 535.5 1924.5Q645 1984 768.5 2016.0Q892 2048 1024 2048Q1165 2048 1296.0 2011.5Q1427 1975 1541.0 1908.5Q1655 1842 1748.5 1748.5Q1842 1655 1908.5 1541.0Q1975 1427 2011.5 1296.0Q2048 1165 2048 1024ZM1369 1408Q1361 1447 1346.0 1500.0Q1331 1553 1309.0 1610.0Q1287 1667 1258.5 1722.5Q1230 1778 1194.5 1822.0Q1159 1866 1116.0 1893.0Q1073 1920 1024 1920Q974 1920 931.5 1893.0Q889 1866 853.5 1822.0Q818 1778 789.5 1722.5Q761 1667 739.0 1610.0Q717 1553 702.0 1500.0Q687 1447 679 1408ZM548 1408Q559 1466 576.0 1528.0Q593 1590 615.5 1650.0Q638 1710 667.0 1766.5Q696 1823 732 1871Q646 1842 569.0 1796.5Q492 1751 426.0 1692.0Q360 1633 306.5 1561.5Q253 1490 214 1408ZM1834 1408Q1796 1489 1742.0 1560.5Q1688 1632 1621.5 1691.5Q1555 1751 1478.0 1796.5Q1401 1842 1317 1871Q1390 1770 1433.5 1649.5Q1477 1529 1500 1408ZM1883 768Q1920 891 1920 1024Q1920 1157 1883 1280H1520Q1529 1216 1532.5 1152.5Q1536 1089 1536 1024Q1536 959 1532.5 895.5Q1529 832 1520 768ZM1152 64Q1152 38 1133.0 19.0Q1114 0 1088 0Q1062 0 1043 19L716 346Q655 299 586.0 277.5Q517 256 440 256Q349 256 269.0 292.5Q189 329 129.0 390.5Q69 452 34.5 533.5Q0 615 0 704Q0 796 35.5 877.5Q71 959 132.0 1020.0Q193 1081 274.5 1116.5Q356 1152 448 1152Q537 1152 618.5 1117.5Q700 1083 761.5 1023.0Q823 963 859.5 883.0Q896 803 896 712Q896 635 874.5 566.0Q853 497 806 436L1133 109Q1152 90 1152 64ZM448 384H455Q520 384 577.0 410.0Q634 436 676.5 480.0Q719 524 743.5 582.0Q768 640 768 704Q768 771 743.0 829.0Q718 887 674.5 930.5Q631 974 573.0 999.0Q515 1024 448 1024Q381 1024 323.0 999.0Q265 974 221.5 930.5Q178 887 153.0 829.0Q128 771 128 704Q128 637 153.0 579.0Q178 521 221.5 477.5Q265 434 323.0 409.0Q381 384 448 384ZM1834 640H1500Q1488 581 1471.5 519.5Q1455 458 1432.5 398.0Q1410 338 1381.0 282.0Q1352 226 1316 177Q1401 207 1478.0 252.0Q1555 297 1621.0 356.0Q1687 415 1741.0 486.5Q1795 558 1834 640Z"/>
  </g>
</svg>