<?xml version="1.0" encoding="utf-8"?>
<svg xmlns="http://www.w3.org/2000/svg" width="16" height="16" viewBox="0 0 2048 2048">
  <g transform="translate(0, 2048) scale(1, -1)">
    <path fill="#ffffff" d="M2048 1344V704Q2048 667 2037.5 635.0Q2027 603 2008.5 574.5Q1990 546 1965.5 521.0Q1941 496 1914 475Q1859 432 1790.5 399.0Q1722 366 1646.0 341.5Q1570 317 1488.5 300.5Q1407 284 1326.5 274.0Q1246 264 1169.0 260.0Q1092 256 1024 256Q956 256 879.0 260.0Q802 264 721.5 274.0Q641 284 559.5 300.5Q478 317 402.0 341.5Q326 366 257.5 399.0Q189 432 134 475Q107 496 82.5 521.0Q58 546 39.5 574.5Q21 603 10.5 635.0Q0 667 0 704V1344Q0 1381 10.5 1413.0Q21 1445 39.0 1473.0Q57 1501 81.5 1525.5Q106 1550 134 1572Q216 1636 327.0 1678.5Q438 1721 559.0 1746.5Q680 1772 801.0 1782.0Q922 1792 1024 1792Q1126 1792 1247.0 1782.0Q1368 1772 1489.0 1746.5Q1610 1721 1721.0 1678.5Q1832 1636 1914 1572Q1942 1550 1966.5 1525.5Q1991 1501 2009.0 1473.0Q2027 1445 2037.5 1413.0Q2048 1381 2048 1344ZM128 1344Q128 1319 139.0 1297.0Q150 1275 167.0 1256.0Q184 1237 204.5 1221.0Q225 1205 244 1193Q318 1144 416.5 1111.5Q515 1079 620.5 1059.5Q726 1040 831.0 1032.0Q936 1024 1024 1024Q1111 1024 1216.0 1032.0Q1321 1040 1427.0 1059.5Q1533 1079 1631.5 1111.5Q1730 1144 1804 1193Q1823 1205 1843.5 1221.0Q1864 1237 1881.0 1256.0Q1898 1275 1909.0 1297.0Q1920 1319 1920 1344Q1920 1369 1909.0 1391.0Q1898 1413 1881.0 1431.5Q1864 1450 1843.5 1466.0Q1823 1482 1804 1494Q1754 1526 1693.5 1551.5Q1633 1577 1565.5 1596.0Q1498 1615 1427.0 1628.0Q1356 1641 1286.0 1649.0Q1216 1657 1149.0 1660.5Q1082 1664 1024 1664Q936 1664 831.0 1656.0Q726 1648 620.5 1628.5Q515 1609 417.0 1576.0Q319 1543 244 1494Q225 1482 204.5 1466.0Q184 1450 167.0 1431.5Q150 1413 139.0 1391.0Q128 1369 128 1344ZM1920 704V1121Q1864 1077 1795.0 1043.0Q1726 1009 1650.0 984.0Q1574 959 1492.5 942.0Q1411 925 1330.0 915.0Q1249 905 1171.0 900.5Q1093 896 1024 896Q920 896 798.5 906.0Q677 916 556.0 941.5Q435 967 323.5 1010.5Q212 1054 128 1121V704Q128 679 139.0 657.0Q150 635 167.0 616.0Q184 597 204.5 581.0Q225 565 244 553Q293 520 354.0 495.0Q415 470 482.0 451.0Q549 432 620.5 419.5Q692 407 762.0 399.0Q832 391 899.0 387.5Q966 384 1024 384Q1082 384 1149.0 387.5Q1216 391 1286.0 399.0Q1356 407 1427.5 420.0Q1499 433 1566.0 451.5Q1633 470 1694.0 495.5Q1755 521 1804 553Q1823 565 1843.5 581.0Q1864 597 1881.0 616.0Q1898 635 1909.0 657.0Q1920 679 1920 704Z"/>
  </g>
</svg>