<?xml version="1.0" encoding="utf-8"?>
<svg xmlns="http://www.w3.org/2000/svg" width="16" height="16" viewBox="0 0 2048 2048">
  <g transform="translate(0, 2048) scale(1, -1)">
    <path fill="#000000" d="M295 960Q295 976 303 992Q354 1088 433.0 1165.0Q512 1242 607.5 1296.0Q703 1350 810.0 1379.0Q917 1408 1024 1408Q1127 1408 1226.0 1383.0Q1325 1358 1416 1310Q1302 1301 1197 1259Q1111 1280 1024 1280Q949 1280 876.0 1264.0Q803 1248 735.0 1217.5Q667 1187 606.5 1143.0Q546 1099 497 1043Q473 1016 454.5 986.0Q436 956 414 928Q402 913 391.0 904.5Q380 896 359 896Q333 896 314.0 915.0Q295 934 295 960ZM896 576Q896 695 941.5 800.0Q987 905 1065.0 983.0Q1143 1061 1248.0 1106.5Q1353 1152 1472 1152Q1551 1152 1624.5 1131.5Q1698 1111 1762.0 1073.5Q1826 1036 1879.0 983.0Q1932 930 1969.5 866.0Q2007 802 2027.5 728.5Q2048 655 2048 576Q2048 457 2002.5 352.0Q1957 247 1879.0 169.0Q1801 91 1696.0 45.5Q1591 0 1472 0Q1352 0 1247.0 45.0Q1142 90 1064.0 168.0Q986 246 941.0 351.0Q896 456 896 576ZM555 705Q555 719 561 731Q582 779 614.5 821.0Q647 863 687.5 898.0Q728 933 775.0 959.5Q822 986 871 1001Q806 909 771 801Q740 773 719.0 742.5Q698 712 677 677Q667 660 653.0 650.0Q639 640 619 640Q593 640 574.0 659.5Q555 679 555 705ZM1216 251Q1245 251 1265 271L1472 479L1679 271Q1699 251 1728 251Q1757 251 1777.0 271.0Q1797 291 1797 320Q1797 349 1777 369L1569 576L1777 783Q1797 803 1797 832Q1797 861 1777.0 881.0Q1757 901 1728 901Q1699 901 1679 881L1472 673L1265 881Q1245 901 1216 901Q1187 901 1167.0 881.0Q1147 861 1147 832Q1147 818 1152.5 805.0Q1158 792 1167 783L1375 576L1167 369Q1147 349 1147 320Q1147 291 1167.0 271.0Q1187 251 1216 251Z"/>
  </g>
</svg>