<?xml version="1.0" encoding="utf-8"?>
<svg xmlns="http://www.w3.org/2000/svg" width="16" height="16" viewBox="0 0 2048 2048">
  <g transform="translate(0, 2048) scale(1, -1)">
    <path fill="#ffffff" d="M994 1279Q1010 1341 1018 1408H1024Q1133 1408 1239.0 1379.0Q1345 1350 1439.5 1296.0Q1534 1242 1612.5 1165.0Q1691 1088 1745 992Q1753 976 1753 961Q1753 934 1734.0 915.0Q1715 896 1689 896Q1670 896 1657.0 904.5Q1644 913 1634 928Q1614 958 1595.0 986.5Q1576 1015 1552 1042Q1502 1099 1441.5 1143.0Q1381 1187 1313.5 1217.5Q1246 1248 1173.0 1264.0Q1100 1280 1024 1280Q1016 1280 1009.0 1280.0Q1002 1280 994 1279ZM621 828Q681 859 735.0 898.5Q789 938 835 988Q880 1005 927.5 1014.5Q975 1024 1024 1024Q1096 1024 1166.0 1003.5Q1236 983 1297.5 944.5Q1359 906 1408.0 852.0Q1457 798 1487 732Q1493 718 1493 705Q1493 678 1474.0 659.0Q1455 640 1429 640Q1409 640 1394.5 649.5Q1380 659 1371 676Q1360 695 1350.5 712.5Q1341 730 1327 747Q1273 818 1193.5 857.0Q1114 896 1024 896Q934 896 854.5 857.0Q775 818 721 747Q707 730 697.5 712.5Q688 695 677 676Q668 659 653.5 649.5Q639 640 619 640Q593 640 574.0 659.0Q555 678 555 705Q555 717 562.5 734.0Q570 751 580.5 768.5Q591 786 602.0 802.0Q613 818 621 828ZM1184 512Q1184 479 1171.5 450.0Q1159 421 1137.0 399.0Q1115 377 1086.0 364.5Q1057 352 1024 352Q991 352 962.0 364.5Q933 377 911.0 399.0Q889 421 876.5 450.0Q864 479 864 512Q864 545 876.5 574.0Q889 603 911.0 625.0Q933 647 962.0 659.5Q991 672 1024 672Q1057 672 1086.0 659.5Q1115 647 1137.0 625.0Q1159 603 1171.5 574.0Q1184 545 1184 512Z"/>
  </g>
</svg>