<?xml version="1.0" encoding="utf-8"?>
<svg xmlns="http://www.w3.org/2000/svg" width="16" height="16" viewBox="0 0 2048 2048">
  <g transform="translate(0, 2048) scale(1, -1)">
    <path fill="#000000" d="M1024 896Q968 896 917.0 880.5Q866 865 818 836Q791 819 771.5 802.0Q752 785 736.5 766.0Q721 747 707.0 725.5Q693 704 677 677Q667 660 653.0 650.0Q639 640 619 640Q592 640 573.5 659.0Q555 678 555 705Q555 718 561 732Q591 798 640.0 852.0Q689 906 750.5 944.0Q812 982 882.0 1003.0Q952 1024 1024 1024Q1096 1024 1166.0 1003.0Q1236 982 1297.5 944.0Q1359 906 1408.0 852.0Q1457 798 1487 732Q1493 718 1493 705Q1493 679 1474.0 659.5Q1455 640 1429 640Q1409 640 1395.0 650.0Q1381 660 1371 677Q1355 704 1341.0 725.5Q1327 747 1311.0 766.0Q1295 785 1275.5 802.0Q1256 819 1229 836Q1182 865 1130.5 880.5Q1079 896 1024 896ZM864 512Q864 545 877.0 574.0Q890 603 911.5 624.5Q933 646 962.0 659.0Q991 672 1024 672Q1057 672 1086.0 659.0Q1115 646 1136.5 624.5Q1158 603 1171.0 574.0Q1184 545 1184 512Q1184 479 1171.0 450.0Q1158 421 1136.5 399.5Q1115 378 1086.0 365.0Q1057 352 1024 352Q991 352 962.0 365.0Q933 378 911.5 399.5Q890 421 877.0 450.0Q864 479 864 512Z"/>
  </g>
</svg>