<?xml version="1.0" encoding="utf-8"?>
<svg id="" width="16" height="16" style="width:16px;height:16px;" version="1.1"
    xmlns="http://www.w3.org/2000/svg" viewBox="0 0 2048 2048" enable-background="new 0 0 2048 2048"
    xml:space="preserve"><path fill="#ffffff" transform="translate(0, 250)" d="M1024 128.25 q-108.21 0 -213.91 21.54 q-105.71 21.54 -204.9 63.13 q-99.19 41.58 -189.37 101.7 q-90.18 60.12 -166.32 137.26 q-38.08 38.08 -68.13 79.66 q-30.06 41.58 -64.13 81.66 q-12.02 14.03 -23.05 21.04 q-11.03 7.01 -30.06 7.01 q-27.06 0 -45.59 -18.54 q-18.54 -18.53 -18.54 -45.58 q0 -19.04 11.02 -36.07 q79.16 -126.25 191.88 -226.44 q112.72 -100.2 245.98 -170.34 q133.26 -70.14 280.04 -107.21 q146.79 -37.07 295.08 -37.07 q147.29 0 294.57 37.07 q147.29 37.07 280.05 107.21 q132.76 70.14 245.48 170.34 q112.72 100.19 192.88 226.44 q11.02 17.03 11.02 36.07 q0 27.05 -18.53 45.58 q-18.54 18.54 -45.6 18.54 q-17.03 0 -29.55 -7.51 q-12.53 -7.51 -23.55 -20.53 q-11.02 -14.03 -20.54 -28.56 q-9.52 -14.53 -20.54 -28.55 q-21.04 -28.06 -44.09 -53.61 q-23.05 -25.55 -47.1 -50.6 q-77.15 -77.15 -166.83 -137.26 q-89.67 -60.12 -188.36 -101.7 q-98.69 -41.59 -204.9 -63.13 q-106.21 -21.54 -214.42 -21.54 ZM1024 513 q-74.14 0 -147.28 16.03 q-73.14 16.03 -140.77 46.59 q-67.63 30.56 -128.25 74.65 q-60.62 44.09 -109.72 99.19 q-24.04 27.06 -43.58 57.12 q-19.54 30.05 -41.58 59.12 q-12.03 15.03 -23.55 23.54 q-11.52 8.51 -31.56 8.51 q-26.05 0 -45.09 -19.04 q-19.04 -19.03 -19.04 -45.08 q0 -16.03 8.02 -32.06 q51.1 -95.19 130.26 -172.34 q79.15 -77.15 175.34 -131.25 q96.19 -54.11 202.89 -83.67 q106.71 -29.56 213.92 -29.56 q106.21 0 213.42 29.56 q107.21 29.56 203.39 83.67 q96.18 54.11 175.34 131.25 q79.15 77.15 130.26 172.34 q8.02 16.03 8.02 32.06 q0 26.05 -19.04 45.08 q-19.04 19.04 -45.09 19.04 q-20.04 0 -31.56 -8.51 q-11.52 -8.51 -23.55 -23.54 q-22.04 -29.06 -41.58 -59.12 q-19.54 -30.06 -43.58 -57.12 q-49.1 -55.1 -109.72 -99.19 q-60.62 -44.09 -128.25 -74.65 q-67.63 -30.56 -140.77 -46.59 q-73.14 -16.03 -147.29 -16.03 ZM1024 897.75 q-56.11 0 -107.21 15.53 q-51.1 15.53 -99.19 44.59 q-27.06 17.03 -46.6 34.06 q-19.53 17.04 -35.06 36.08 q-15.53 19.04 -29.56 40.58 q-14.03 21.54 -30.06 48.59 q-10.02 17.04 -24.05 27.06 q-14.02 10.01 -34.06 10.01 q-27.06 0 -45.6 -19.03 q-18.53 -19.04 -18.53 -46.09 q0 -13.03 6.01 -27.06 q29.06 -64.12 79.16 -118.22 q50.1 -54.11 112.22 -92.68 q62.12 -38.57 132.25 -60.12 q70.13 -21.55 140.27 -21.55 q72.14 0 142.28 21.05 q70.13 21.04 131.76 59.12 q61.63 38.07 110.72 92.18 q49.09 54.11 79.15 120.23 q6.01 14.03 6.01 27.06 q0 26.05 -19.04 45.59 q-19.04 19.53 -45.09 19.53 q-20.04 0 -34.07 -10.01 q-14.02 -10.02 -24.04 -27.06 q-16.03 -27.05 -30.06 -48.59 q-14.03 -21.54 -30.06 -40.58 q-16.03 -19.04 -35.57 -36.08 q-19.54 -17.03 -46.59 -34.06 q-47.09 -29.06 -98.69 -44.59 q-51.6 -15.53 -106.71 -15.53 ZM863.69 1282.5 q0 -33.06 13.02 -62.12 q13.02 -29.06 34.56 -50.6 q21.54 -21.54 50.6 -34.57 q29.06 -13.03 62.12 -13.03 q33.06 0 62.12 13.03 q29.06 13.02 50.6 34.57 q21.54 21.55 34.56 50.6 q13.03 29.06 13.03 62.12 q0 33.07 -13.03 62.13 q-13.02 29.06 -34.56 50.6 q-21.54 21.55 -50.6 34.57 q-29.06 13.02 -62.12 13.02 q-33.06 0 -62.12 -13.02 q-29.06 -13.03 -50.6 -34.57 q-21.54 -21.54 -34.56 -50.6 q-13.02 -29.06 -13.02 -62.13 Z"/></svg>