<?xml version="1.0" encoding="utf-8"?>
<svg xmlns="http://www.w3.org/2000/svg" width="16" height="16" viewBox="0 0 2048 2048">
  <g transform="translate(0, 2048) scale(1, -1)">
    <path fill="#ffffff" d="M1024 0Q998 0 975.0 10.5Q952 21 934.5 38.5Q917 56 906.5 79.0Q896 102 896 128Q896 159 909 185L1357 1081Q1374 1114 1404.0 1133.0Q1434 1152 1472 1152Q1510 1152 1539.5 1133.5Q1569 1115 1586 1081L2034 185Q2047 159 2047 128Q2047 102 2036.5 79.0Q2026 56 2008.5 38.5Q1991 21 1968.0 10.5Q1945 0 1919 0ZM555 705Q555 719 561 731Q591 797 640.0 851.5Q689 906 750.5 944.0Q812 982 882.0 1003.0Q952 1024 1024 1024Q1102 1024 1174 1002L1116 885Q1069 896 1024 896Q933 896 857.0 858.5Q781 821 724 749Q710 732 699.0 714.0Q688 696 677 677Q667 660 653.0 650.0Q639 640 619 640Q593 640 574.0 659.5Q555 679 555 705ZM1535 448V833Q1535 859 1516.0 878.0Q1497 897 1471 897Q1445 897 1426.0 878.0Q1407 859 1407 833V448Q1407 422 1426.0 403.0Q1445 384 1471 384Q1497 384 1516.0 403.0Q1535 422 1535 448ZM888 428Q864 465 864 512Q864 542 875.5 570.0Q887 598 906.5 619.5Q926 641 952.5 655.0Q979 669 1009 671ZM1535 192Q1535 219 1516.5 237.5Q1498 256 1471 256Q1445 256 1426.0 237.0Q1407 218 1407 192Q1407 166 1426.0 147.0Q1445 128 1471 128Q1497 128 1516.0 147.0Q1535 166 1535 192Z"/>
  </g>
</svg>