<?xml version="1.0" encoding="utf-8"?>
<svg xmlns="http://www.w3.org/2000/svg" width="16" height="16" viewBox="0 0 2048 2048">
  <g transform="translate(0, 2048) scale(1, -1)">
    <path fill="#000000" d="M1600 2048Q1639 2048 1674.0 2033.0Q1709 2018 1735.5 1991.5Q1762 1965 1777.0 1930.0Q1792 1895 1792 1856V1344Q1792 1305 1777.0 1270.0Q1762 1235 1735.5 1208.5Q1709 1182 1674.0 1167.0Q1639 1152 1600 1152H1536V64Q1536 38 1517.0 19.0Q1498 0 1472 0Q1446 0 1427.0 19.0Q1408 38 1408 64V1152H1344Q1305 1152 1270.0 1167.0Q1235 1182 1208.5 1208.5Q1182 1235 1167.0 1270.0Q1152 1305 1152 1344V1856Q1152 1895 1167.0 1930.0Q1182 1965 1208.5 1991.5Q1235 2018 1270.0 2033.0Q1305 2048 1344 2048ZM1344 1920Q1318 1920 1299.0 1901.0Q1280 1882 1280 1856V1792H1664V1856Q1664 1882 1645.0 1901.0Q1626 1920 1600 1920ZM1024 1664H1017Q909 1664 803.5 1642.0Q698 1620 599.5 1578.0Q501 1536 411.5 1475.5Q322 1415 247 1338Q223 1314 200.5 1288.5Q178 1263 158 1235Q147 1221 138.0 1207.5Q129 1194 119 1180Q109 1167 96.0 1159.5Q83 1152 66 1152Q40 1152 21.0 1171.0Q2 1190 2 1216Q2 1235 13 1252Q93 1376 204.5 1476.0Q316 1576 447.5 1646.5Q579 1717 724.0 1754.5Q869 1792 1016 1792H1024ZM1600 1280Q1626 1280 1645.0 1299.0Q1664 1318 1664 1344V1664H1280V1344Q1280 1318 1299.0 1299.0Q1318 1280 1344 1280ZM1024 1280Q949 1280 875.5 1264.0Q802 1248 734.5 1217.5Q667 1187 607.0 1143.0Q547 1099 497 1043Q472 1015 453.5 986.0Q435 957 414 928Q403 913 391.0 904.5Q379 896 359 896Q333 896 314.0 915.0Q295 934 295 960Q295 976 303 992Q355 1087 433.0 1164.0Q511 1241 605.0 1295.0Q699 1349 805.0 1378.5Q911 1408 1019 1408H1024ZM1024 1024Q1092 1024 1156.5 1007.0Q1221 990 1280 956V798Q1227 846 1161.0 871.0Q1095 896 1024 896Q968 896 916.0 881.0Q864 866 817 836Q767 804 736.0 766.0Q705 728 677 677Q667 660 653.0 650.0Q639 640 619 640Q593 640 574.0 659.0Q555 678 555 704Q555 719 561 731Q591 797 640.0 851.5Q689 906 750.5 944.0Q812 982 882.0 1003.0Q952 1024 1024 1024ZM1184 512Q1184 479 1171.0 450.0Q1158 421 1136.5 399.5Q1115 378 1086.0 365.0Q1057 352 1024 352Q991 352 962.0 365.0Q933 378 911.5 399.5Q890 421 877.0 450.0Q864 479 864 512Q864 545 877.0 574.0Q890 603 911.5 624.5Q933 646 962.0 659.0Q991 672 1024 672Q1057 672 1086.0 659.0Q1115 646 1136.5 624.5Q1158 603 1171.0 574.0Q1184 545 1184 512Z"/>
  </g>
</svg>