<?xml version="1.0" encoding="utf-8"?>
<svg xmlns="http://www.w3.org/2000/svg" width="16" height="16" viewBox="0 0 2048 2048">
  <g transform="translate(0, 2048) scale(1, -1)">
    <path fill="#ffffff" d="M2 1216Q2 1235 13 1252Q94 1378 206.5 1478.5Q319 1579 451.0 1648.5Q583 1718 729.0 1755.0Q875 1792 1024 1792Q1173 1792 1319.0 1755.0Q1465 1718 1597.0 1648.5Q1729 1579 1841.5 1478.5Q1954 1378 2035 1252Q2046 1235 2046 1216Q2046 1190 2027.0 1171.0Q2008 1152 1982 1152Q1964 1152 1952.0 1159.0Q1940 1166 1929 1180Q1912 1202 1897.5 1222.0Q1883 1242 1868.5 1260.5Q1854 1279 1838.0 1298.0Q1822 1317 1801 1338Q1724 1416 1634.0 1477.0Q1544 1538 1445.0 1579.5Q1346 1621 1239.5 1642.5Q1133 1664 1024 1664Q914 1664 808.0 1642.5Q702 1621 603.0 1579.5Q504 1538 414.0 1477.0Q324 1416 247 1338Q223 1314 200.5 1288.5Q178 1263 158 1235Q147 1221 138.0 1207.5Q129 1194 119 1180Q109 1167 96.0 1159.5Q83 1152 66 1152Q40 1152 21.0 1171.0Q2 1190 2 1216ZM295 960Q295 976 303 992Q356 1088 434.5 1165.0Q513 1242 607.5 1296.0Q702 1350 808.5 1379.0Q915 1408 1024 1408Q1142 1408 1255.0 1375.5Q1368 1343 1468 1280Q1424 1279 1382.5 1264.0Q1341 1249 1307 1221Q1172 1280 1024 1280Q949 1280 875.5 1264.0Q802 1248 734.5 1217.5Q667 1187 607.0 1143.0Q547 1099 497 1043Q472 1015 453.5 986.0Q435 957 414 928Q403 913 391.0 904.5Q379 896 359 896Q333 896 314.0 915.0Q295 934 295 960ZM555 705Q555 719 561 731Q592 797 641.0 851.5Q690 906 750.5 944.0Q811 982 881.0 1003.0Q951 1024 1024 1024Q1102 1024 1174 1002L1116 885Q1069 896 1024 896Q906 896 818.5 837.5Q731 779 677 677Q668 660 653.5 650.0Q639 640 619 640Q593 640 574.0 659.5Q555 679 555 705ZM888 428Q864 465 864 512Q864 542 875.5 570.0Q887 598 906.5 619.5Q926 641 952.5 655.0Q979 669 1009 671Z"/>
  </g>
</svg>