<?xml version="1.0" encoding="utf-8"?>
<svg xmlns="http://www.w3.org/2000/svg" width="16" height="16" viewBox="0 0 2048 2048">
  <g transform="translate(0, 2048) scale(1, -1)">
    <path fill="#ffffff" d="M1822 0Q1802 0 1780.5 4.0Q1759 8 1740 16Q1687 40 1634.5 74.0Q1582 108 1535.5 150.0Q1489 192 1450.0 240.5Q1411 289 1385 342Q1331 451 1306.0 563.5Q1281 676 1281 797Q1281 833 1293.0 865.5Q1305 898 1326.0 925.5Q1347 953 1375.5 973.5Q1404 994 1437 1005Q1457 1012 1477.5 1018.0Q1498 1024 1519 1024Q1556 1024 1580.5 1008.0Q1605 992 1622.5 967.0Q1640 942 1652.0 912.0Q1664 882 1676 854Q1689 824 1689 790Q1689 745 1670.0 714.0Q1651 683 1628.5 661.5Q1606 640 1587.5 624.5Q1569 609 1569 594Q1569 584 1576.0 564.0Q1583 544 1594.0 520.0Q1605 496 1619.0 470.5Q1633 445 1647.5 424.5Q1662 404 1675.5 390.5Q1689 377 1699 377Q1718 377 1738.0 384.0Q1758 391 1778.5 399.5Q1799 408 1820.0 415.0Q1841 422 1862 422Q1885 422 1905.0 411.5Q1925 401 1939 382L2024 262Q2048 229 2048 188Q2048 165 2042.0 147.5Q2036 130 2026.0 115.5Q2016 101 2002.5 88.0Q1989 75 1974 61Q1942 32 1904.0 16.0Q1866 0 1822 0ZM555 705Q555 719 561 731Q591 797 640.0 851.5Q689 906 750.5 944.0Q812 982 882.0 1003.0Q952 1024 1024 1024Q1107 1024 1182 999Q1146 946 1131 881Q1078 896 1024 896Q933 896 857.0 858.5Q781 821 724 749Q710 732 699.0 714.0Q688 696 677 677Q667 660 653.0 650.0Q639 640 619 640Q593 640 574.0 659.5Q555 679 555 705ZM864 512Q864 545 877.0 574.0Q890 603 911.5 624.5Q933 646 962.0 659.0Q991 672 1024 672Q1081 672 1125 636Q1130 585 1139.5 535.0Q1149 485 1165 436Q1144 398 1106.0 375.0Q1068 352 1024 352Q991 352 962.0 365.0Q933 378 911.5 399.5Q890 421 877.0 450.0Q864 479 864 512Z"/>
  </g>
</svg>