<?xml version="1.0" encoding="utf-8"?>
<svg xmlns="http://www.w3.org/2000/svg" width="16" height="16" viewBox="0 0 2048 2048">
  <g transform="translate(0, 2048) scale(1, -1)">
    <path fill="#000000" d="M1544 1920Q1619 1920 1687.5 1889.5Q1756 1859 1807.5 1807.5Q1859 1756 1889.5 1687.5Q1920 1619 1920 1544V576Q1920 550 1901.0 531.0Q1882 512 1856 512Q1830 512 1811.0 531.0Q1792 550 1792 576V1408H256V507Q256 455 277.0 409.5Q298 364 333.0 330.0Q368 296 414.5 276.0Q461 256 512 256H1088Q1114 256 1133.0 237.0Q1152 218 1152 192Q1152 166 1133.0 147.0Q1114 128 1088 128H504Q429 128 360.5 158.5Q292 189 240.5 240.5Q189 292 158.5 360.5Q128 429 128 504V1544Q128 1619 158.5 1687.5Q189 1756 240.5 1807.5Q292 1859 360.5 1889.5Q429 1920 504 1920ZM1792 1536V1541Q1792 1591 1771.5 1636.5Q1751 1682 1716.5 1716.5Q1682 1751 1636.5 1771.5Q1591 1792 1541 1792H507Q457 1792 411.5 1771.5Q366 1751 331.5 1716.5Q297 1682 276.5 1636.5Q256 1591 256 1541V1536ZM1920 320Q1920 294 1901.0 275.0Q1882 256 1856 256H1664V64Q1664 38 1645.0 19.0Q1626 0 1600 0Q1574 0 1555.0 19.0Q1536 38 1536 64V256H1344Q1318 256 1299.0 275.0Q1280 294 1280 320Q1280 346 1299.0 365.0Q1318 384 1344 384H1536V576Q1536 602 1555.0 621.0Q1574 640 1600 640Q1626 640 1645.0 621.0Q1664 602 1664 576V384H1856Q1882 384 1901.0 365.0Q1920 346 1920 320Z"/>
  </g>
</svg>