<?xml version="1.0" encoding="utf-8"?>
<svg xmlns="http://www.w3.org/2000/svg" width="16" height="16" viewBox="0 0 2048 2048">
  <g transform="translate(0, 2048) scale(1, -1)">
    <path fill="#000000" d="M725 1754Q725 1814 749.5 1867.5Q774 1921 815.0 1961.0Q856 2001 910.0 2024.5Q964 2048 1024 2048Q1085 2048 1139.5 2024.0Q1194 2000 1234.5 1959.5Q1275 1919 1299.0 1864.5Q1323 1810 1323 1749Q1323 1687 1299.5 1633.0Q1276 1579 1235.5 1538.5Q1195 1498 1140.5 1474.5Q1086 1451 1024 1451Q964 1451 910.0 1474.0Q856 1497 815.0 1536.5Q774 1576 749.5 1629.0Q725 1682 725 1742ZM128 1664V1669Q128 1721 149.0 1766.5Q170 1812 205.0 1846.0Q240 1880 286.5 1900.0Q333 1920 384 1920Q436 1920 483.0 1899.5Q530 1879 564.5 1844.5Q599 1810 619.5 1763.0Q640 1716 640 1664Q640 1611 619.5 1564.5Q599 1518 564.5 1483.5Q530 1449 483.0 1428.5Q436 1408 384 1408Q331 1408 284.5 1428.5Q238 1449 203.5 1483.5Q169 1518 148.5 1564.5Q128 1611 128 1664ZM1195 1749Q1195 1784 1181.5 1815.0Q1168 1846 1144.5 1869.5Q1121 1893 1090.0 1906.5Q1059 1920 1024 1920Q989 1920 958.0 1906.5Q927 1893 903.5 1869.5Q880 1846 866.5 1815.0Q853 1784 853 1749Q853 1714 866.5 1683.0Q880 1652 903.5 1629.0Q927 1606 958.0 1592.5Q989 1579 1024 1579Q1059 1579 1090.0 1592.5Q1121 1606 1144.5 1629.0Q1168 1652 1181.5 1683.0Q1195 1714 1195 1749ZM1408 1664V1669Q1408 1721 1429.0 1766.5Q1450 1812 1485.0 1846.0Q1520 1880 1566.5 1900.0Q1613 1920 1664 1920Q1716 1920 1763.0 1899.5Q1810 1879 1844.5 1844.5Q1879 1810 1899.5 1763.0Q1920 1716 1920 1664Q1920 1611 1899.5 1564.5Q1879 1518 1844.5 1483.5Q1810 1449 1763.0 1428.5Q1716 1408 1664 1408Q1611 1408 1564.5 1428.5Q1518 1449 1483.5 1483.5Q1449 1518 1428.5 1564.5Q1408 1611 1408 1664ZM512 1664Q512 1690 502.0 1713.5Q492 1737 474.5 1754.5Q457 1772 433.5 1782.0Q410 1792 384 1792Q357 1792 334.0 1782.0Q311 1772 293.5 1754.5Q276 1737 266.0 1714.0Q256 1691 256 1664Q256 1637 266.0 1613.5Q276 1590 293.0 1573.0Q310 1556 333.5 1546.0Q357 1536 384 1536Q411 1536 434.0 1546.0Q457 1556 474.5 1573.5Q492 1591 502.0 1614.0Q512 1637 512 1664ZM1792 1664Q1792 1690 1782.0 1713.5Q1772 1737 1754.5 1754.5Q1737 1772 1713.5 1782.0Q1690 1792 1664 1792Q1637 1792 1614.0 1782.0Q1591 1772 1573.5 1754.5Q1556 1737 1546.0 1714.0Q1536 1691 1536 1664Q1536 1637 1546.0 1613.5Q1556 1590 1573.0 1573.0Q1590 1556 1613.5 1546.0Q1637 1536 1664 1536Q1691 1536 1714.0 1546.0Q1737 1556 1754.5 1573.5Q1772 1591 1782.0 1614.0Q1792 1637 1792 1664ZM0 878Q0 957 31.5 1030.0Q63 1103 116.5 1158.5Q170 1214 241.5 1247.0Q313 1280 393 1280Q486 1280 570.5 1241.5Q655 1203 712 1128Q771 1200 851.0 1240.0Q931 1280 1024 1280Q1118 1280 1197.5 1240.0Q1277 1200 1336 1128Q1394 1203 1477.5 1241.5Q1561 1280 1655 1280Q1735 1280 1806.5 1247.0Q1878 1214 1931.5 1158.5Q1985 1103 2016.5 1030.0Q2048 957 2048 878Q2048 784 2016.5 710.0Q1985 636 1919 570L1376 17Q1361 0 1336 0Q1325 0 1314.0 4.5Q1303 9 1295 17L1024 294L753 17Q736 0 712 0Q687 0 672 17L129 571Q63 638 31.5 711.0Q0 784 0 878ZM712 159 934 385 753 571Q690 635 657.0 707.5Q624 780 624 871Q624 906 629.0 940.0Q634 974 646 1006Q620 1039 594.5 1066.0Q569 1093 540.0 1112.0Q511 1131 476.0 1141.5Q441 1152 396 1152Q341 1152 292.0 1129.5Q243 1107 206.5 1068.5Q170 1030 149.0 980.0Q128 930 128 876Q128 809 150.5 759.5Q173 710 219 662ZM1024 477 1206 662Q1252 709 1274.5 759.5Q1297 810 1297 876Q1297 932 1275.5 982.0Q1254 1032 1216.5 1070.0Q1179 1108 1129.5 1130.0Q1080 1152 1024 1152Q968 1152 918.5 1130.0Q869 1108 832.0 1070.0Q795 1032 773.5 982.0Q752 932 752 876Q752 810 774.5 759.0Q797 708 842 662ZM1336 159 1829 662Q1875 710 1897.5 759.5Q1920 809 1920 876Q1920 930 1899.0 980.0Q1878 1030 1841.5 1068.5Q1805 1107 1756.0 1129.5Q1707 1152 1652 1152Q1607 1152 1572.0 1141.5Q1537 1131 1508.0 1112.0Q1479 1093 1453.5 1066.0Q1428 1039 1402 1006Q1425 940 1425 871Q1425 780 1391.5 707.5Q1358 635 1295 571L1114 385Z"/>
  </g>
</svg>