<?xml version="1.0" encoding="utf-8"?>
<svg xmlns="http://www.w3.org/2000/svg" width="16" height="16" viewBox="0 0 2048 2048">
  <g transform="translate(0, 2048) scale(1, -1)">
    <path fill="#000000" d="M1408 1088V576Q1408 520 1388.5 468.0Q1369 416 1335.0 374.0Q1301 332 1254.0 302.5Q1207 273 1152 262V64Q1152 38 1133.0 19.0Q1114 0 1088 0Q1062 0 1043.0 19.0Q1024 38 1024 64V256H896V64Q896 38 877.0 19.0Q858 0 832 0Q806 0 787.0 19.0Q768 38 768 64V262Q713 273 666.0 302.5Q619 332 585.0 374.0Q551 416 531.5 468.0Q512 520 512 576V1088Q512 1127 527.0 1162.0Q542 1197 568.5 1223.5Q595 1250 630.0 1265.0Q665 1280 704 1280H768V1856Q768 1895 783.0 1930.0Q798 1965 824.5 1991.5Q851 2018 886.0 2033.0Q921 2048 960 2048Q999 2048 1034.0 2033.0Q1069 2018 1095.5 1991.5Q1122 1965 1137.0 1930.0Q1152 1895 1152 1856V1280H1216Q1255 1280 1290.0 1265.0Q1325 1250 1351.5 1223.5Q1378 1197 1393.0 1162.0Q1408 1127 1408 1088ZM896 1280H1024V1856Q1024 1882 1005.0 1901.0Q986 1920 960 1920Q934 1920 915.0 1901.0Q896 1882 896 1856ZM1280 1088Q1280 1114 1261.0 1133.0Q1242 1152 1216 1152H704Q678 1152 659.0 1133.0Q640 1114 640 1088V576Q640 537 655.0 502.0Q670 467 696.5 440.5Q723 414 758.0 399.0Q793 384 832 384H1088Q1127 384 1162.0 399.0Q1197 414 1223.5 440.5Q1250 467 1265.0 502.0Q1280 537 1280 576Z"/>
  </g>
</svg>