<?xml version="1.0" encoding="utf-8"?>
<svg xmlns="http://www.w3.org/2000/svg" width="16" height="16" viewBox="0 0 2048 2048">
  <g transform="translate(0, 2048) scale(1, -1)">
    <path fill="#000000" d="M768 384H630Q581 384 536.5 403.0Q492 422 458.0 454.5Q424 487 404.0 530.5Q384 574 384 624V1296Q384 1348 404.5 1392.0Q425 1436 460.0 1468.0Q495 1500 541.0 1518.0Q587 1536 638 1536H640V1984Q640 2010 659.0 2029.0Q678 2048 704 2048H1344Q1370 2048 1389.0 2029.0Q1408 2010 1408 1984V1536H1410Q1461 1536 1507.0 1518.0Q1553 1500 1588.0 1468.0Q1623 1436 1643.5 1392.0Q1664 1348 1664 1296V624Q1664 574 1644.0 530.5Q1624 487 1590.0 454.5Q1556 422 1511.5 403.0Q1467 384 1418 384H1280V64Q1280 38 1261.0 19.0Q1242 0 1216 0Q1190 0 1171.0 19.0Q1152 38 1152 64V384H896V64Q896 38 877.0 19.0Q858 0 832 0Q806 0 787.0 19.0Q768 38 768 64ZM768 1920V1536H1280V1920ZM1418 512Q1442 512 1463.5 521.0Q1485 530 1501.0 546.0Q1517 562 1526.5 583.5Q1536 605 1536 629V1291Q1536 1315 1526.5 1336.5Q1517 1358 1501.0 1373.5Q1485 1389 1463.5 1398.5Q1442 1408 1418 1408H630Q606 1408 584.5 1399.0Q563 1390 547.0 1374.0Q531 1358 521.5 1336.5Q512 1315 512 1291V629Q512 604 521.0 582.5Q530 561 546.0 545.5Q562 530 583.5 521.0Q605 512 630 512Z"/>
  </g>
</svg>