<?xml version="1.0" encoding="utf-8"?>
<svg xmlns="http://www.w3.org/2000/svg" width="16" height="16" viewBox="0 0 2048 2048">
  <g transform="translate(0, 2048) scale(1, -1)">
    <path fill="#000000" d="M1408 1536H1413Q1463 1536 1508.5 1515.5Q1554 1495 1588.5 1460.5Q1623 1426 1643.5 1380.5Q1664 1335 1664 1285V1019Q1664 969 1643.5 923.5Q1623 878 1588.5 843.5Q1554 809 1508.5 788.5Q1463 768 1413 768H635Q585 768 539.5 788.5Q494 809 459.5 843.5Q425 878 404.5 923.5Q384 969 384 1019V1285Q384 1334 404.0 1379.0Q424 1424 458.5 1459.0Q493 1494 537.5 1515.0Q582 1536 632 1536H640V1984Q640 2010 659.0 2029.0Q678 2048 704 2048H1344Q1370 2048 1389.0 2029.0Q1408 2010 1408 1984ZM1280 1920H768V1536H1280ZM1536 1280Q1536 1306 1526.0 1329.5Q1516 1353 1498.5 1370.5Q1481 1388 1457.5 1398.0Q1434 1408 1408 1408H640Q613 1408 590.0 1398.0Q567 1388 549.5 1370.5Q532 1353 522.0 1330.0Q512 1307 512 1280V1024Q512 997 522.0 973.5Q532 950 549.0 933.0Q566 916 589.5 906.0Q613 896 640 896H1408Q1435 896 1458.0 906.0Q1481 916 1498.5 933.5Q1516 951 1526.0 974.0Q1536 997 1536 1024ZM704 577Q704 603 723.0 621.5Q742 640 768 640Q800 640 819 615Q857 566 909.0 540.0Q961 514 1024 514Q1087 514 1138.5 540.0Q1190 566 1229 614Q1250 640 1280 640Q1306 640 1325.0 621.0Q1344 602 1344 576Q1344 553 1328.0 533.0Q1312 513 1296 497Q1241 442 1171.5 413.0Q1102 384 1024 384Q946 384 877.0 413.0Q808 442 753 497Q736 514 720.0 532.5Q704 551 704 577ZM1567 320Q1567 305 1556.5 286.5Q1546 268 1531.5 249.0Q1517 230 1501.5 213.5Q1486 197 1476 187Q1385 96 1269.0 48.0Q1153 0 1024 0Q894 0 778.5 48.5Q663 97 571 188Q561 198 545.5 215.0Q530 232 516.0 250.5Q502 269 491.5 288.0Q481 307 481 321Q481 347 500.0 365.5Q519 384 545 384Q562 384 575.0 376.5Q588 369 598 356Q614 336 629.0 316.0Q644 296 662 278Q734 206 828.5 169.5Q923 133 1024 133Q1126 133 1220.0 169.5Q1314 206 1386 278Q1404 296 1419.0 316.0Q1434 336 1450 356Q1460 368 1473.5 376.0Q1487 384 1503 384Q1530 384 1548.5 365.5Q1567 347 1567 320Z"/>
  </g>
</svg>