<?xml version="1.0" encoding="utf-8"?>
<svg xmlns="http://www.w3.org/2000/svg" width="16" height="16" viewBox="0 0 2048 2048">
  <g transform="translate(0, 2048) scale(1, -1)">
    <path fill="#ffffff" d="M1920 1223V569Q1920 506 1894.5 449.0Q1869 392 1826.5 349.5Q1784 307 1727.0 281.5Q1670 256 1607 256H441Q378 256 321.0 281.5Q264 307 221.5 349.5Q179 392 153.5 449.0Q128 506 128 569V1223Q128 1288 154.0 1345.0Q180 1402 224.0 1444.5Q268 1487 326.0 1511.5Q384 1536 448 1536H640V1792Q640 1819 650.0 1842.0Q660 1865 677.5 1882.5Q695 1900 718.0 1910.0Q741 1920 768 1920H1280Q1307 1920 1330.5 1910.0Q1354 1900 1371.0 1883.0Q1388 1866 1398.0 1842.5Q1408 1819 1408 1792V1536H1607Q1670 1536 1727.0 1510.5Q1784 1485 1826.5 1442.5Q1869 1400 1894.5 1343.0Q1920 1286 1920 1223ZM1280 1792H768V1536H1280ZM1792 1216Q1792 1255 1777.0 1290.0Q1762 1325 1735.5 1351.5Q1709 1378 1674.0 1393.0Q1639 1408 1600 1408H448Q409 1408 374.0 1393.0Q339 1378 312.5 1351.5Q286 1325 271.0 1290.0Q256 1255 256 1216V576Q256 537 271.0 502.0Q286 467 312.5 440.5Q339 414 374.0 399.0Q409 384 448 384H1600Q1639 384 1674.0 399.0Q1709 414 1735.5 440.5Q1762 467 1777.0 502.0Q1792 537 1792 576Z"/>
  </g>
</svg>