<?xml version="1.0" encoding="utf-8"?>
<svg xmlns="http://www.w3.org/2000/svg" width="16" height="16" viewBox="0 0 2048 2048">
  <g transform="translate(0, 2048) scale(1, -1)">
    <path fill="#000000" d="M2048 1024Q2048 883 2011.5 752.0Q1975 621 1908.0 507.5Q1841 394 1747.5 300.5Q1654 207 1540.5 140.0Q1427 73 1296.0 36.5Q1165 0 1024 0Q883 0 752.0 36.5Q621 73 507.5 140.0Q394 207 300.5 300.5Q207 394 140.0 507.5Q73 621 36.5 752.0Q0 883 0 1024Q0 1165 36.5 1296.0Q73 1427 140.0 1540.5Q207 1654 300.5 1747.5Q394 1841 507.5 1908.0Q621 1975 752.0 2011.5Q883 2048 1024 2048Q1165 2048 1296.0 2011.5Q1427 1975 1540.5 1908.0Q1654 1841 1747.5 1747.5Q1841 1654 1908.0 1540.5Q1975 1427 2011.5 1296.0Q2048 1165 2048 1024ZM360 423Q424 352 500.0 297.0Q576 242 661.0 204.5Q746 167 837.5 147.5Q929 128 1024 128Q1149 128 1269.5 162.0Q1390 196 1496 262Q1476 281 1457.0 304.0Q1438 327 1423.5 352.0Q1409 377 1400.5 404.5Q1392 432 1392 461Q1392 503 1408.5 539.5Q1425 576 1450.0 606.5Q1475 637 1504.5 663.5Q1534 690 1559.0 713.5Q1584 737 1600.5 758.0Q1617 779 1617 799Q1617 817 1601.5 830.5Q1586 844 1569 844Q1550 844 1531.5 835.5Q1513 827 1495.0 816.5Q1477 806 1459.0 797.5Q1441 789 1424 789Q1391 789 1371.0 808.5Q1351 828 1344 859Q1339 881 1335.5 913.0Q1332 945 1327.0 978.0Q1322 1011 1315.5 1041.0Q1309 1071 1299 1089Q1270 1141 1232.5 1186.5Q1195 1232 1163 1282Q1152 1300 1146.5 1315.5Q1141 1331 1141 1352Q1141 1381 1153.5 1405.0Q1166 1429 1187 1449Q1208 1469 1230 1487L1258 1513Q1280 1532 1301 1551Q1358 1604 1410.5 1660.0Q1463 1716 1514 1774Q1405 1845 1280.0 1882.5Q1155 1920 1024 1920Q1016 1920 1008.5 1920.0Q1001 1920 993 1919Q1010 1889 1026.0 1849.0Q1042 1809 1054.5 1766.5Q1067 1724 1074.5 1681.5Q1082 1639 1082 1605Q1082 1558 1069.5 1512.5Q1057 1467 1031 1428Q1008 1394 982.5 1372.0Q957 1350 927.0 1335.0Q897 1320 863.5 1310.5Q830 1301 792 1294Q769 1289 746.5 1279.0Q724 1269 711 1248Q702 1234 699.0 1217.0Q696 1200 696 1183Q696 1151 704.5 1120.5Q713 1090 723.0 1060.0Q733 1030 741.5 1000.0Q750 970 750 938Q750 887 728.5 853.5Q707 820 673.0 798.5Q639 777 597.0 764.5Q555 752 514 743Q496 739 477.0 732.5Q458 726 441.5 715.5Q425 705 412.5 690.5Q400 676 397 655ZM128 1024Q128 903 160.0 787.0Q192 671 253 567Q257 588 260 609L264 637Q267 658 271 679Q279 721 300.0 752.5Q321 784 351.0 807.5Q381 831 417.5 846.0Q454 861 493 869Q506 872 528.0 876.0Q550 880 571.0 888.0Q592 896 607.0 908.0Q622 920 622 938Q622 951 618.0 967.5Q614 984 609.0 1000.5Q604 1017 598.0 1033.0Q592 1049 588 1062Q568 1122 568 1183Q568 1284 623.0 1343.0Q678 1402 774 1421Q815 1429 848.5 1441.5Q882 1454 905.5 1475.0Q929 1496 941.5 1527.5Q954 1559 954 1606Q954 1630 948.5 1660.5Q943 1691 934.5 1722.5Q926 1754 915.0 1783.0Q904 1812 893 1834Q886 1848 878 1860L868 1878Q860 1891 853 1904Q695 1873 562.5 1792.0Q430 1711 333.0 1594.0Q236 1477 182.0 1331.0Q128 1185 128 1024ZM1920 1024Q1920 1120 1900.0 1213.0Q1880 1306 1841.0 1392.5Q1802 1479 1745.5 1556.0Q1689 1633 1616 1696Q1574 1648 1533.0 1603.5Q1492 1559 1449.5 1516.5Q1407 1474 1362.5 1433.0Q1318 1392 1269 1351Q1286 1331 1301.0 1309.5Q1316 1288 1331 1267Q1369 1214 1390.5 1181.0Q1412 1148 1424.5 1117.0Q1437 1086 1444.5 1047.0Q1452 1008 1462 944Q1488 956 1516.5 964.0Q1545 972 1574 972Q1608 972 1639.0 958.0Q1670 944 1694.0 920.0Q1718 896 1732.0 865.0Q1746 834 1746 800Q1746 761 1729.5 727.5Q1713 694 1687.5 664.5Q1662 635 1633.0 608.5Q1604 582 1578.5 557.5Q1553 533 1536.5 509.0Q1520 485 1520 460Q1520 443 1528.5 426.0Q1537 409 1549.0 393.0Q1561 377 1575.0 363.0Q1589 349 1601 339Q1677 403 1736.0 481.0Q1795 559 1836.0 646.5Q1877 734 1898.5 829.0Q1920 924 1920 1024Z"/>
  </g>
</svg>