<?xml version="1.0" encoding="utf-8"?>
<svg xmlns="http://www.w3.org/2000/svg" width="16" height="16" viewBox="0 0 2048 2048">
  <g transform="translate(0, 2048) scale(1, -1)">
    <path fill="#000000" d="M1920 1536Q1946 1536 1969.5 1526.0Q1993 1516 2010.5 1498.5Q2028 1481 2038.0 1457.5Q2048 1434 2048 1408V640Q2048 613 2038.0 590.0Q2028 567 2010.5 549.5Q1993 532 1970.0 522.0Q1947 512 1920 512H384Q330 512 293 549Q256 586 256 640V768H128Q74 768 37 805Q0 842 0 896V1408Q0 1435 10.0 1458.0Q20 1481 37.5 1498.5Q55 1516 78.0 1526.0Q101 1536 128 1536ZM128 1408V896H1920V1408ZM1792 1184Q1792 1144 1764.0 1116.0Q1736 1088 1696 1088Q1656 1088 1628.0 1116.0Q1600 1144 1600 1184Q1600 1224 1628.0 1252.0Q1656 1280 1696 1280Q1736 1280 1764.0 1252.0Q1792 1224 1792 1184ZM384 768V640H1920V768Z"/>
  </g>
</svg>