<?xml version="1.0" encoding="utf-8"?>
<svg xmlns="http://www.w3.org/2000/svg" width="16" height="16" viewBox="0 0 2048 2048">
  <g transform="translate(0, 2048) scale(1, -1)">
    <path fill="#000000" d="M1664 256Q1637 256 1613.5 266.0Q1590 276 1573.0 293.0Q1556 310 1546.0 333.5Q1536 357 1536 384V1664Q1536 1691 1546.0 1714.0Q1556 1737 1573.5 1754.5Q1591 1772 1614.0 1782.0Q1637 1792 1664 1792H1792Q1818 1792 1841.5 1782.0Q1865 1772 1882.5 1754.5Q1900 1737 1910.0 1713.5Q1920 1690 1920 1664V384Q1920 357 1910.0 334.0Q1900 311 1882.5 293.5Q1865 276 1842.0 266.0Q1819 256 1792 256ZM1664 1664V384H1792V1664ZM1152 256Q1125 256 1101.5 266.0Q1078 276 1061.0 293.0Q1044 310 1034.0 333.5Q1024 357 1024 384V1280Q1024 1307 1034.0 1330.0Q1044 1353 1061.5 1370.5Q1079 1388 1102.0 1398.0Q1125 1408 1152 1408H1280Q1306 1408 1329.5 1398.0Q1353 1388 1370.5 1370.5Q1388 1353 1398.0 1329.5Q1408 1306 1408 1280V384Q1408 357 1398.0 334.0Q1388 311 1370.5 293.5Q1353 276 1330.0 266.0Q1307 256 1280 256ZM1152 1280V384H1280V1280ZM640 256Q613 256 589.5 266.0Q566 276 549.0 293.0Q532 310 522.0 333.5Q512 357 512 384V896Q512 923 522.0 946.0Q532 969 549.5 986.5Q567 1004 590.0 1014.0Q613 1024 640 1024H768Q794 1024 817.5 1014.0Q841 1004 858.5 986.5Q876 969 886.0 945.5Q896 922 896 896V384Q896 357 886.0 334.0Q876 311 858.5 293.5Q841 276 818.0 266.0Q795 256 768 256ZM640 896V384H768V896ZM128 256Q101 256 77.5 266.0Q54 276 37.0 293.0Q20 310 10.0 333.5Q0 357 0 384V512Q0 539 10.0 562.0Q20 585 37.5 602.5Q55 620 78.0 630.0Q101 640 128 640H256Q282 640 305.5 630.0Q329 620 346.5 602.5Q364 585 374.0 561.5Q384 538 384 512V384Q384 357 374.0 334.0Q364 311 346.5 293.5Q329 276 306.0 266.0Q283 256 256 256ZM128 512V384H256V512Z"/>
  </g>
</svg>