<?xml version="1.0" encoding="utf-8"?>
<svg xmlns="http://www.w3.org/2000/svg" width="16" height="16" viewBox="0 0 2048 2048">
  <g transform="translate(0, 2048) scale(1, -1)">
    <path fill="#ffffff" d="M960 1664H768Q742 1664 723.0 1683.0Q704 1702 704 1728Q704 1754 723.0 1773.0Q742 1792 768 1792H960V1984Q960 2010 979.0 2029.0Q998 2048 1024 2048Q1050 2048 1069.0 2029.0Q1088 2010 1088 1984V1792H1280Q1306 1792 1325.0 1773.0Q1344 1754 1344 1728Q1344 1702 1325.0 1683.0Q1306 1664 1280 1664H1088V1472Q1088 1446 1069.0 1427.0Q1050 1408 1024 1408Q998 1408 979.0 1427.0Q960 1446 960 1472ZM864 1024Q864 1057 877.0 1086.0Q890 1115 911.5 1136.5Q933 1158 962.0 1171.0Q991 1184 1024 1184Q1057 1184 1086.0 1171.0Q1115 1158 1136.5 1136.5Q1158 1115 1171.0 1086.0Q1184 1057 1184 1024Q1184 991 1171.0 962.0Q1158 933 1136.5 911.5Q1115 890 1086.0 877.0Q1057 864 1024 864Q991 864 962.0 877.0Q933 890 911.5 911.5Q890 933 877.0 962.0Q864 991 864 1024ZM768 256Q742 256 723.0 275.0Q704 294 704 320Q704 346 723.0 365.0Q742 384 768 384H1280Q1306 384 1325.0 365.0Q1344 346 1344 320Q1344 294 1325.0 275.0Q1306 256 1280 256Z"/>
  </g>
</svg>