<?xml version="1.0" encoding="utf-8"?>
<svg xmlns="http://www.w3.org/2000/svg" height="16" width="16" viewBox="0 0 16 16">
  <g>
    <path id="path1" transform="rotate(0,8,8) translate(-0.5,-0.5) scale(0.0333333333333333,0.0333333333333333)  " fill="#000000" d="M464,288L467.140625,288.296875 470.0625,289.1875 472.765625,290.671875 475.25,292.75 477.328094482422,295.234375 478.812469482422,297.9375 479.703094482422,300.859375 480,304 480,417.25 479.679656982422,423.4296875 478.718719482422,429.46875 477.117156982422,435.3671875 474.875,441.125 472.09375,446.640625 468.875,451.8125 465.21875,456.640625 461.125,461.125 456.640625,465.21875 451.8125,468.875 446.640625,472.09375 441.125,474.875 435.367156982422,477.1171875 429.468719482422,478.71875 423.4296875,479.6796875 417.25,480 368,480 364.859375,479.703125 361.9375,478.8125 359.234375,477.328125 356.75,475.25 354.671875,472.765625 353.1875,470.0625 352.296875,467.140625 352,464 352.296875,460.859375 353.1875,457.9375 354.671875,455.234375 356.75,452.75 359.234375,450.671875 361.9375,449.1875 364.859375,448.296875 368,448 416,448 422.375,447.421875 428.25,445.6875 433.625,442.796875 438.5,438.75 442.65625,433.765625 445.625,428.3125 447.40625,422.390625 448,416 448,304 448.296875,300.859375 449.1875,297.9375 450.671875,295.234375 452.75,292.75 455.234344482422,290.671875 457.937469482422,289.1875 460.859344482422,288.296875 464,288z M96,224L89.5,224.625 83.5,226.5 78.09375,229.468765258789 73.375,233.375 69.46875,238.093765258789 66.5,243.5 64.625,249.5 64,256 64,416 64.625,422.53125 66.5,428.625 69.4375,434.09375 73.25,438.75 77.90625,442.5625 83.375,445.5 89.46875,447.375 96,448 256,448 262.5,447.375 268.5,445.5 273.90625,442.53125 278.625,438.625 282.53125,433.90625 285.5,428.5 287.375,422.5 288,416 288,256 287.375,249.656265258789 285.5,243.625 282.53125,238.125015258789 278.625,233.375 273.875,229.468765258789 268.375,226.5 262.34375,224.625 256,224 96,224z M94.75,192L257.25,192 263.4296875,192.3203125 269.46875,193.28125 275.3671875,194.8828125 281.125,197.125 286.640625,199.906265258789 291.8125,203.125 296.640625,206.78125 301.125,210.875 305.21875,215.359375 308.875,220.1875 312.09375,225.359390258789 314.875,230.875 317.1171875,236.6328125 318.71875,242.531265258789 319.6796875,248.570327758789 320,254.75 320,417.25 319.6796875,423.4296875 318.71875,429.46875 317.1171875,435.3671875 314.875,441.125 312.09375,446.640625 308.875,451.8125 305.21875,456.640625 301.125,461.125 296.640625,465.21875 291.8125,468.875 286.640625,472.09375 281.125,474.875 275.3671875,477.1171875 269.46875,478.71875 263.4296875,479.6796875 257.25,480 94.75,480 88.5703125,479.6796875 82.53125,478.71875 76.6328125,477.1171875 70.875,474.875 65.359375,472.09375 60.1875,468.875 55.359375,465.21875 50.875,461.125 46.78125,456.640625 43.125,451.8125 39.9062461853027,446.640625 37.1249961853027,441.125 34.8828086853027,435.3671875 33.28125,429.46875 32.3203125,423.4296875 32,417.25 32,254.75 32.3203125,248.570327758789 33.28125,242.531265258789 34.8828086853027,236.6328125 37.1249961853027,230.875 39.9062461853027,225.359390258789 43.125,220.1875 46.78125,215.359375 50.875,210.875 55.359375,206.78125 60.1875,203.125 65.359375,199.906265258789 70.875,197.125 76.6328125,194.8828125 82.53125,193.28125 88.5703125,192.3203125 94.75,192z M304,32L417.25,32 423.4296875,32.3203315734863 429.468719482422,33.2812767028809 435.367156982422,34.8828315734863 441.125,37.1249961853027 446.640625,39.9062576293945 451.8125,43.1250076293945 456.640625,46.7812538146973 461.125,50.875 465.21875,55.3593788146973 468.875,60.1875076293945 472.09375,65.3593826293945 474.875,70.875 477.117156982422,76.6328353881836 478.718719482422,82.5312728881836 479.679656982422,88.5703277587891 480,94.75 480,208 479.703094482422,211.140625 478.812469482422,214.0625 477.328094482422,216.765625 475.25,219.25 472.765625,221.328140258789 470.0625,222.8125 467.140625,223.703125 464,224 460.859344482422,223.703125 457.937469482422,222.8125 455.234344482422,221.328140258789 452.75,219.25 450.671875,216.765625 449.1875,214.0625 448.296875,211.140625 448,208 448,96 447.375,89.6875152587891 445.5,83.75 442.5,78.3125076293945 438.5,73.5 433.6875,69.5000076293945 428.25,66.5 422.3125,64.625 416,64 304,64 300.859375,63.7031288146973 297.9375,62.8125076293945 295.234375,61.3281364440918 292.75,59.2500038146973 290.671875,56.7656478881836 289.1875,54.0625305175781 288.296875,51.1406478881836 288,48 288.296875,44.8593864440918 289.1875,41.9375152587891 290.671875,39.2343864440918 292.75,36.75 295.234375,34.6718978881836 297.9375,33.1875267028809 300.859375,32.2968940734863 304,32z M94.75,32L208,32 211.140609741211,32.2968940734863 214.062484741211,33.1875267028809 216.765609741211,34.6718978881836 219.25,36.75 221.328125,39.2343864440918 222.8125,41.9375152587891 223.703125,44.8593864440918 224,48 223.703125,51.1406478881836 222.8125,54.0625305175781 221.328125,56.7656478881836 219.25,59.2500038146973 216.765609741211,61.3281364440918 214.062484741211,62.8125076293945 211.140609741211,63.7031288146973 208,64 96,64 89.609375,64.59375 83.6875,66.3750076293945 78.234375,69.3437576293945 73.25,73.5 69.203125,78.3750152587891 66.3125,83.7500152587891 64.578125,89.6250152587891 64,96 64,144 63.703125,147.140625 62.8125,150.0625 61.328125,152.765625 59.2500038146973,155.25 56.765625,157.328140258789 54.0625,158.8125 51.140625,159.703125 48,160 44.859375,159.703125 41.9375,158.8125 39.234375,157.328140258789 36.75,155.25 34.671875,152.765625 33.1875,150.0625 32.296875,147.140625 32,144 32,94.75 32.3203125,88.5703277587891 33.28125,82.5312728881836 34.8828086853027,76.6328353881836 37.1249961853027,70.875 39.9062461853027,65.3593826293945 43.125,60.1875076293945 46.78125,55.3593788146973 50.875,50.875 55.359375,46.7812538146973 60.1875,43.1250076293945 65.359375,39.9062576293945 70.875,37.1249961853027 76.6328125,34.8828315734863 82.53125,33.2812767028809 88.5703125,32.3203315734863 94.75,32z" />
  </g>
</svg>
