<?xml version="1.0" encoding="utf-8"?>
<svg id="" width="16" height="16" style="width:16px;height:16px;" version="1.1"
    xmlns="http://www.w3.org/2000/svg" viewBox="0 0 2048 2048" enable-background="new 0 0 2048 2048"
    xml:space="preserve"><path fill="#000000" d="M1320 1422.86 q-109.71 90.28 -241.71 138.28 q-132 48 -273.72 48 q-168 0 -314.29 -62.86 q-146.29 -62.86 -255.43 -172 q-109.14 -109.14 -172 -255.43 q-62.85 -146.28 -62.85 -314.28 q0 -110.86 28.57 -214.28 q28.57 -103.43 81.15 -192.57 q52.57 -89.15 125.72 -162.29 q73.14 -73.14 162.29 -125.72 q89.14 -52.58 192 -81.15 q102.86 -28.57 214.86 -28.57 q110.86 0 213.72 28.57 q102.86 28.57 192.57 81.15 q89.71 52.57 162.86 125.72 q73.14 73.14 125.71 162.85 q52.57 89.72 81.14 192.57 q28.57 102.86 28.57 213.72 q0 141.72 -48 273.72 q-48 132 -138.28 241.71 l603.43 603.43 q21.71 21.71 21.71 51.43 q0 29.71 -21.72 51.42 q-21.71 21.72 -51.42 21.72 q-29.72 0 -51.43 -21.71 l-603.43 -603.43 ZM1462.86 804.57 q0 -90.28 -23.43 -174.28 q-23.43 -84 -66.28 -157.14 q-42.86 -73.14 -103.43 -133.71 q-60.58 -60.57 -133.72 -103.43 q-73.14 -42.86 -157.14 -66.29 q-84 -23.42 -174.29 -23.42 q-136 0 -256 52 q-120 52 -209.14 141.14 q-89.14 89.14 -141.14 209.14 q-52 120 -52 256 q0 137.14 51.42 257.14 q51.43 120 140.57 209.14 q89.15 89.14 209.14 140.57 q120 51.43 257.14 51.43 q136 0 256 -52 q120 -52 209.14 -141.14 q89.14 -89.14 141.14 -209.14 q52 -120 52 -256 ZM731.43 877.71 l-292.57 0 q-29.72 0 -51.44 -21.71 q-21.71 -21.71 -21.71 -51.43 q0 -29.71 21.71 -51.43 q21.72 -21.72 51.44 -21.72 l292.57 0 l0 -292.57 q0 -29.72 21.72 -51.44 q21.72 -21.71 51.43 -21.71 q29.72 0 51.43 21.71 q21.71 21.72 21.71 51.44 l0 292.57 l292.58 0 q29.71 0 51.43 21.72 q21.71 21.72 21.71 51.43 q0 29.72 -21.71 51.43 q-21.72 21.71 -51.43 21.71 l-292.58 0 l0 292.58 q0 29.71 -21.71 51.43 q-21.71 21.71 -51.43 21.71 q-29.71 0 -51.43 -21.71 q-21.72 -21.72 -21.72 -51.43 l0 -292.58 Z"/></svg>