<?xml version="1.0" encoding="utf-8"?>
<svg xmlns="http://www.w3.org/2000/svg" height="16" width="16" viewBox="0 0 16 16">
  <g>
    <path id="path1" transform="rotate(0,8,8) translate(0,0) scale(0.03125,0.03125)  " fill="#FFFFFF" d="M49.25,352L45.25,352.59375 41.75,354.375 38.78125,357.0625 36.375,360.375 34.5,364.15625 33.125,368.25 32.28125,372.3125 32,376 32.65625,389.7109375 34.625,402.34375 37.90625,413.8984375 42.5,424.375 48.1953125,433.84375 54.78125,442.375 62.2578125,449.96875 70.625,456.625 79.78125,462.3828125 89.625,467.28125 100.15625,471.3203125 111.375,474.5 123.0859375,476.90625 135.09375,478.625 147.3984375,479.65625 160,480 172.6015625,479.65625 184.90625,478.625 196.9140625,476.90625 208.625,474.5 219.84375,471.3203125 230.374984741211,467.28125 240.218734741211,462.3828125 249.375,456.625 257.7421875,449.96875 265.21875,442.375 271.8046875,433.84375 277.5,424.375 282.09375,413.8984375 285.375,402.34375 287.34375,389.7109375 288,376 287.71875,372.3125 286.875,368.25 285.5,364.15625 283.625,360.375 281.21875,357.0625 278.25,354.375 274.75,352.59375 270.75,352 49.25,352z M49.25,320L270.75,320 276.1328125,320.3046875 281.28125,321.21875 286.1953125,322.7421875 290.875,324.875 299.34375,330.5 306.5,337.625 312.25,346.0625 316.5,355.625 318.03125,360.6953125 319.125,365.78125 319.78125,370.8828125 320,376 319.73046875,385.544921875 318.921875,394.8046875 317.57421875,403.779296875 315.6875,412.46875 313.26171875,420.873046875 310.296875,428.9921875 306.79296875,436.826171875 302.75,444.375 298.17578125,451.607421875 293.078125,458.4921875 287.45703125,465.029296875 281.3125,471.21875 274.64453125,477.060546875 267.453125,482.5546875 259.73828125,487.701171875 251.5,492.5 240.84375,497.78125 229.875,502.125 218.59375,505.53125 207,508 195.25,509.75 183.5,511 171.75,511.75 160,512 149.4921875,511.78125 138.96875,511.125 128.4296875,510.03125 117.875,508.5 107.437492370605,506.4609375 97.2499923706055,503.84375 87.3124923706055,500.6484375 77.625,496.875 68.265625,492.484375 59.3125,487.4375 50.7656211853027,481.734375 42.625,475.375 35.0234375,468.2890625 28.09375,460.40625 21.8359375,451.7265625 16.25,442.25 12.4921875,434.421875 9.21875,426.4375 6.42968702316284,418.296875 4.125,410 2.3203125,401.59375 1.03125,393.125 0.2578125,384.59375 0,376 0.218750014901161,370.8828125 0.875,365.78125 1.96875,360.6953125 3.5,355.625 5.4375,350.703125 7.74999952316284,346.0625 10.4375,341.703125 13.5,337.625 20.65625,330.5 29.125,324.875 33.8046875,322.7421875 38.71875,321.21875 43.8671875,320.3046875 49.25,320z M160,128L153.4765625,128.3203125 147.15625,129.28125 141.0390625,130.8828125 135.125,133.125 129.5,135.906265258789 124.25,139.125 119.375,142.78125 114.875,146.875 110.78125,151.3828125 107.125,156.28125 103.90625,161.570327758789 101.125,167.25 98.8828125,173.203125 97.28125,179.3125 96.3203125,185.578125 96,192 96.3203125,198.5234375 97.28125,204.84375 98.8828125,210.9609375 101.125,216.875 103.90625,222.5 107.125,227.75 110.78125,232.625 114.875,237.125 119.375,241.21875 124.25,244.875 129.5,248.09375 135.125,250.875 141.0390625,253.117202758789 147.15625,254.71875 153.4765625,255.6796875 160,256 166.421875,255.6796875 172.6875,254.71875 178.796875,253.117202758789 184.75,250.875 190.429672241211,248.09375 195.718734741211,244.875 200.617172241211,241.21875 205.125,237.125 209.218734741211,232.625 212.874984741211,227.75 216.093734741211,222.5 218.875,216.875 221.1171875,210.9609375 222.71875,204.84375 223.6796875,198.5234375 224,192 224,190.75 223.671875,184.3515625 222.6875,178.15625 221.046875,172.1640625 218.75,166.375 215.90625,160.867202758789 212.625,155.718765258789 208.90625,150.929702758789 204.75,146.5 200.1953125,142.46875 195.28125,138.875 190.0078125,135.71875 184.375,133 178.4921875,130.812515258789 172.46875,129.25 166.3046875,128.3125 160,128z M160,96L169.84375,96.46875 179.375,97.875 188.59375,100.21875 197.5,103.5 205.96875,107.59375 213.875,112.375 221.21875,117.843757629395 228,124 234.15625,130.781265258789 239.625,138.125015258789 244.40625,146.03125 248.5,154.5 251.78125,163.406265258789 254.125,172.625015258789 255.53125,182.156265258789 256,192 255.53125,201.84375 254.125,211.375 251.78125,220.59375 248.5,229.5 244.40625,237.968765258789 239.625,245.875015258789 234.15625,253.21875 228,260 221.21875,266.15625 213.875,271.625 205.96875,276.40625 197.5,280.5 188.59375,283.78125 179.375,286.125 169.84375,287.53125 160,288 150.15625,287.53125 140.625,286.125 131.40625,283.78125 122.5,280.5 114.03125,276.40625 106.124992370605,271.625 98.7812423706055,266.15625 92,260 85.84375,253.21875 80.375,245.875015258789 75.59375,237.968765258789 71.5,229.5 68.21875,220.59375 65.875,211.375 64.46875,201.84375 64,192 64,190 64.484375,180.3984375 65.9375,171.09375 68.359375,162.085952758789 71.75,153.375 75.96875,145.0859375 80.875,137.34375 86.46875,130.1484375 92.75,123.5 99.6328125,117.460952758789 107.03125,112.093765258789 114.9453125,107.398452758789 123.375,103.375 132.1796875,100.148445129395 141.21875,97.84375 150.4921875,96.4609375 160,96z M304,32L300.859375,32.2968940734863 297.9375,33.1875267028809 295.234375,34.6718978881836 292.75,36.75 290.671875,39.2343864440918 289.1875,41.9375152587891 288.296875,44.8593864440918 288,48 288,144 288.53125,148.937515258789 290.125,152.75 292.5625,155.593765258789 295.625,157.625 299.1875,158.968765258789 303.125,159.75 311.5,160.25 315.875,160.125 320,160 320,201.25 361.25,160 464,160 467.140625,159.703125 470.0625,158.8125 472.765625,157.328140258789 475.25,155.25 477.328094482422,152.765625 478.812469482422,150.0625 479.703094482422,147.140625 480,144 480,48 479.703094482422,44.8593864440918 478.812469482422,41.9375152587891 477.328094482422,39.2343864440918 475.25,36.75 472.765625,34.6718978881836 470.0625,33.1875267028809 467.140625,32.2968940734863 464,32 304,32z M304,0L464,0 468.8125,0.234375 473.5,0.9375 478.0625,2.109375 482.5,3.75 490.71875,8.21875381469727 497.875,14.125 503.78125,21.2812652587891 508.25,29.5 509.890625,33.9375038146973 511.0625,38.5000038146973 511.765625,43.1875 512,48 512,144 511.765625,148.8125 511.0625,153.5 509.890625,158.062515258789 508.25,162.5 503.78125,170.71875 497.875,177.875 490.71875,183.78125 482.5,188.25 478.0625,189.890625 473.5,191.0625 468.8125,191.765625 464,192 374.5,192 329,237.75 325.3125,240.812515258789 321.25,243 316.8125,244.3125 312,244.75 307.4375,244.25 302.75,242.75 299.4453125,241.171890258789 296.53125,239.1875 294.0078125,236.796875 291.875,234 290.1796875,230.921875 288.96875,227.6875 288.2421875,224.296875 288,220.75 288,189.25 281.09375,186.25 274.875,182.25 269.40625,177.375 264.75,171.75 261,165.5 258.25,158.75 256.5625,151.562515258789 256,144 256,48 256.234375,43.1875 256.9375,38.5000038146973 258.109375,33.9375038146973 259.75,29.5 264.21875,21.2812652587891 270.125,14.125 277.28125,8.21875381469727 285.5,3.75 289.9375,2.109375 294.5,0.9375 299.1875,0.234375 304,0z" />
  </g>
</svg>

