<?xml version="1.0" encoding="utf-8"?>
<svg xmlns="http://www.w3.org/2000/svg" height="16" width="16" viewBox="0 0 16 16">
  <g>
    <path id="path1" transform="rotate(0,8,8) translate(1.19976567076743,0) scale(0.0374926772114821,0.0374926772114821)  " fill="#000000" d="M192,85.25L196.21875,85.6406402587891 200.125,86.8125305175781 203.71875,88.7656478881836 207,91.5 356.5,241 359.234375,244.281265258789 361.1875,247.875015258789 362.359375,251.781265258789 362.75,256 362.359375,260.21875 361.1875,264.125 359.234375,267.71875 356.5,271 207,420.5 203.71875,423.234375 200.125,425.1875 196.21875,426.359375 192,426.75 187.6796875,426.3515625 183.71875,425.15625 180.1171875,423.1640625 176.875,420.375 174.1953125,417.0390625 172.28125,413.40625 171.1328125,409.4765625 170.75,405.25 171.140625,401.03125 172.3125,397.125 174.265625,393.53125 177,390.25 311.25,256 177,121.75 174.265625,118.468757629395 172.3125,114.875007629395 171.140625,110.968757629395 170.75,106.75 171.1328125,102.523452758789 172.28125,98.5937652587891 174.1953125,94.9609527587891 176.875,91.625 180.1171875,88.8359527587891 183.71875,86.8437728881836 187.6796875,85.6484527587891 192,85.25z" />
  </g>
</svg>

