<?xml version="1.0" encoding="utf-8"?>
<svg xmlns="http://www.w3.org/2000/svg" height="16" width="16" viewBox="0 0 16 16">
  <g>
    <path id="path1" transform="rotate(0,8,8) translate(0,0.5) scale(0.03125,0.03125)  " fill="#000000" d="M261,128L229,149.25 220.781234741211,153.953140258789 212.124984741211,157.3125 203.031234741211,159.328125 193.5,160 32,160 32,416 32.625,422.53125 34.5,428.625 37.4375,434.09375 41.25,438.75 45.90625,442.5625 51.375,445.5 57.46875,447.375 64,448 448,448 454.5,447.375 460.5,445.5 465.90625,442.53125 470.625,438.625 474.53125,433.90625 477.5,428.5 479.374969482422,422.5 480,416 480,160 479.374969482422,153.656265258789 477.5,147.625 474.53125,142.125015258789 470.625,137.375 465.875,133.468765258789 460.375,130.5 454.34375,128.625 448,128 261,128z M64,64L57.5,64.625 51.5,66.5 46.09375,69.4687652587891 41.375,73.375 37.46875,78.0937652587891 34.5,83.5 32.625,89.5 32,96 32,128 193.5,128 199.125,127.5 204.5,126 209.65625,123.750007629395 214.625,121 224,114.5 233,108 209.5,76.75 204.4375,71.40625 198.25,67.375 194.828125,65.8984375 191.3125,64.84375 187.703125,64.2109375 184,64 64,64z M64,32L184,32 191.601547241211,32.4218902587891 198.906234741211,33.6875228881836 205.914047241211,35.7968902587891 212.625,38.75 218.960922241211,42.4531402587891 224.843734741211,46.8125228881836 230.2734375,51.8281402587891 235.25,57.5 249.75,76.75 264,96 448,96 454.5234375,96.3125 460.843719482422,97.2500076293945 466.960906982422,98.8125076293945 472.875,101 478.507781982422,103.734382629395 483.781219482422,106.937515258789 488.695281982422,110.609382629395 493.25,114.75 497.390625,119.304710388184 501.0625,124.218780517578 504.265625,129.492202758789 507,135.125 509.1875,141.0390625 510.75,147.15625 511.6875,153.476577758789 512,160 512,416 511.6875,422.5234375 510.75,428.84375 509.1875,434.9609375 507,440.875 504.265625,446.5078125 501.0625,451.78125 497.390625,456.6953125 493.25,461.25 488.695281982422,465.390625 483.781219482422,469.0625 478.507781982422,472.265625 472.875,475 466.960906982422,477.1875 460.843719482422,478.75 454.5234375,479.6875 448,480 64,480 57.4765625,479.6875 51.15625,478.75 45.0390625,477.1875 39.125,475 33.4921875,472.265625 28.21875,469.0625 23.3046875,465.390625 18.75,461.25 14.609375,456.6953125 10.9375,451.78125 7.734375,446.5078125 5,440.875 2.8125,434.9609375 1.25,428.84375 0.3125,422.5234375 0,416 0,96 0.3125,89.4765701293945 1.25,83.1562576293945 2.8125,77.0390625 5,71.125 7.734375,65.4921875 10.9375,60.2187538146973 14.609375,55.3046913146973 18.75,50.75 23.3046875,46.6093864440918 28.21875,42.9375114440918 33.4921875,39.7343826293945 39.125,37 45.0390625,34.8125114440918 51.15625,33.2500190734863 57.4765625,32.3125152587891 64,32z" />
  </g>
</svg>

